<svg version="1.1" xmlns="http://www.w3.org/2000/svg" width="605" height="336"><defs><clipPath id="zRqoukfJzEZn"><path fill="none" stroke="none" d="M 75.5 35.5 L 575.5 35.5 L 575.5 285.5 L 75.5 285.5 L 75.5 35.5 Z"/></clipPath><clipPath id="gOPxHmxkhTrz"><path fill="none" stroke="none" d="M 75.5 35.5 L 575.5 35.5 L 575.5 285.5 L 75.5 285.5 L 75.5 35.5 Z"/></clipPath><clipPath id="vzkMHtesMNgd"><path fill="none" stroke="none" d="M 75.5 35.5 L 575.5 35.5 L 575.5 285.5 L 75.5 285.5 L 75.5 35.5 Z"/></clipPath><clipPath id="FqVQPPEndHZZ"><path fill="none" stroke="none" d="M 75.5 35.5 L 575.5 35.5 L 575.5 285.5 L 75.5 285.5 L 75.5 35.5 Z"/></clipPath><clipPath id="TSWTGnTeHGeA"><path fill="none" stroke="none" d="M 75.5 35.5 L 575.5 35.5 L 575.5 285.5 L 75.5 285.5 L 75.5 35.5 Z"/></clipPath><clipPath id="AJarMxshmgzQ"><path fill="none" stroke="none" d="M 75.5 35.5 L 575.5 35.5 L 575.5 285.5 L 75.5 285.5 L 75.5 35.5 Z"/></clipPath><clipPath id="IpfeZTMlhUru"><path fill="none" stroke="none" d="M 75.5 35.5 L 575.5 35.5 L 575.5 285.5 L 75.5 285.5 L 75.5 35.5 Z"/></clipPath><clipPath id="ETVIHQJhOkwr"><path fill="none" stroke="none" d="M 75.5 35.5 L 575.5 35.5 L 575.5 285.5 L 75.5 285.5 L 75.5 35.5 Z"/></clipPath><clipPath id="tsVwJyQTvsuz"><path fill="none" stroke="none" d="M 75.5 35.5 L 575.5 35.5 L 575.5 285.5 L 75.5 285.5 L 75.5 35.5 Z"/></clipPath><clipPath id="UXdqngTdxJoy"><path fill="none" stroke="none" d="M 75.5 35.5 L 575.5 35.5 L 575.5 285.5 L 75.5 285.5 L 75.5 35.5 Z"/></clipPath><clipPath id="TrITGIHRxHON"><path fill="none" stroke="none" d="M 75.5 35.5 L 575.5 35.5 L 575.5 285.5 L 75.5 285.5 L 75.5 35.5 Z"/></clipPath><clipPath id="SuVTSbkXFSAb"><path fill="none" stroke="none" d="M 75.5 35.5 L 575.5 35.5 L 575.5 285.5 L 75.5 285.5 L 75.5 35.5 Z"/></clipPath><clipPath id="VhoDgbQIEIRO"><path fill="none" stroke="none" d="M 75.5 35.5 L 575.5 35.5 L 575.5 285.5 L 75.5 285.5 L 75.5 35.5 Z"/></clipPath><clipPath id="pkcmkFLNLfQM"><path fill="none" stroke="none" d="M 75.5 35.5 L 575.5 35.5 L 575.5 285.5 L 75.5 285.5 L 75.5 35.5 Z"/></clipPath><clipPath id="JKckNuvrQFky"><path fill="none" stroke="none" d="M 75.5 35.5 L 575.5 35.5 L 575.5 285.5 L 75.5 285.5 L 75.5 35.5 Z"/></clipPath><clipPath id="SWPFFLooRkaf"><path fill="none" stroke="none" d="M 75.5 35.5 L 575.5 35.5 L 575.5 285.5 L 75.5 285.5 L 75.5 35.5 Z"/></clipPath><clipPath id="lraIwaqANcvq"><path fill="none" stroke="none" d="M 75.5 35.5 L 575.5 35.5 L 575.5 285.5 L 75.5 285.5 L 75.5 35.5 Z"/></clipPath><clipPath id="RpETOVUsiVLA"><path fill="none" stroke="none" d="M 75.5 35.5 L 575.5 35.5 L 575.5 285.5 L 75.5 285.5 L 75.5 35.5 Z"/></clipPath><clipPath id="OrJCSePLXNQm"><path fill="none" stroke="none" d="M 75.5 35.5 L 575.5 35.5 L 575.5 285.5 L 75.5 285.5 L 75.5 35.5 Z"/></clipPath><clipPath id="oVKzyyMPmZcx"><path fill="none" stroke="none" d="M 75.5 35.5 L 575.5 35.5 L 575.5 285.5 L 75.5 285.5 L 75.5 35.5 Z"/></clipPath><clipPath id="hBUiLlavwKpK"><path fill="none" stroke="none" d="M 75.5 35.5 L 575.5 35.5 L 575.5 285.5 L 75.5 285.5 L 75.5 35.5 Z"/></clipPath><clipPath id="UlhcQBimbClO"><path fill="none" stroke="none" d="M 75.5 35.5 L 575.5 35.5 L 575.5 285.5 L 75.5 285.5 L 75.5 35.5 Z"/></clipPath><clipPath id="oTVwUKxcylOr"><path fill="none" stroke="none" d="M 75.5 35.5 L 575.5 35.5 L 575.5 285.5 L 75.5 285.5 L 75.5 35.5 Z"/></clipPath></defs><path fill="none" stroke="#e5e5e5" paint-order="fill" d="M 75.5 35.5 L 575.5 35.5 L 575.5 285.5 L 75.5 285.5 L 75.5 35.5 Z" stroke-linejoin="bevel" stroke-miterlimit="10"/><path fill="none" stroke="black" paint-order="fill" d="M 337.46172248803487 35.5 L 337.46172248803487 285.5" stroke-linejoin="bevel" stroke-miterlimit="10" stroke-width="3" stroke-dasharray="6" clip-path="url(#vzkMHtesMNgd)"/><path fill="none" stroke="#9467bd" paint-order="fill" d="M 98.2272720336914 93.49372863769531 L 122.15071868896484 98.1959228515625 L 146.07415771484375 79.38714599609375 L 169.9976043701172 84.87303924560547 L 193.92105102539062 83.3056411743164 L 217.84449768066406 85.65673828125 L 241.7679443359375 72.33385467529297 L 265.6913757324219 95.06112670898438 L 289.6148376464844 69.19905853271484 L 313.53826904296875 69.19905853271484" stroke-linejoin="bevel" stroke-miterlimit="10" stroke-width="2" clip-path="url(#FqVQPPEndHZZ)"/><path fill="none" stroke="#9467bd" paint-order="fill" d="M 98.2272720336914 93.39398956298828 L 122.15071868896484 91.09988403320312 L 146.07415771484375 88.8057861328125 L 169.9976043701172 86.51168060302734 L 193.92105102539062 84.21758270263672 L 217.84449768066406 81.9234848022461 L 241.7679443359375 79.62937927246094 L 265.6913757324219 77.33528137207031 L 289.6148376464844 75.04118347167969 L 313.53826904296875 72.74707794189453" stroke-linejoin="bevel" stroke-miterlimit="10" stroke-width="2" stroke-dasharray="6" clip-path="url(#TSWTGnTeHGeA)"/><path fill="none" stroke="#30a2da" paint-order="fill" d="M 313.53826904296875 69.19905853271484 L 337.46173095703125 74.68495178222656 L 361.3851623535156 75.4686508178711 L 385.3086242675781 70.7664566040039 L 409.2320556640625 79.38714599609375 L 433.155517578125 71.55015563964844 L 457.0789489746094 80.17084503173828 L 481.00238037109375 76.25234985351562 L 504.92584228515625 80.17084503173828 L 528.8493041992188 90.35893249511719 L 552.772705078125 88.0078353881836" stroke-linejoin="bevel" stroke-miterlimit="10" stroke-width="2" clip-path="url(#AJarMxshmgzQ)"/><path fill="none" stroke="#30a2da" paint-order="fill" d="M 337.46173095703125 71.30792236328125 L 361.3851623535156 72.94656372070312 L 385.3086242675781 74.58521270751953 L 409.2320556640625 76.2238540649414 L 433.155517578125 77.86249542236328 L 457.0789489746094 79.50113677978516 L 481.00238037109375 81.13978576660156 L 504.92584228515625 82.77842712402344 L 528.8493041992188 84.41706848144531 L 552.772705078125 86.05571746826172" stroke-linejoin="bevel" stroke-miterlimit="10" stroke-width="2" stroke-dasharray="6" clip-path="url(#IpfeZTMlhUru)"/><path fill="none" stroke="#fc4f30" paint-order="fill" d="M 313.53826904296875 69.19905853271484 L 337.46173095703125 95.06112670898438 L 361.3851623535156 78.60344696044922 L 385.3086242675781 109.16770935058594 L 409.2320556640625 88.0078353881836 L 433.155517578125 95.06112670898438 L 457.0789489746094 79.38714599609375 L 481.00238037109375 92.71002960205078 L 504.92584228515625 76.25234985351562 L 528.8493041992188 95.06112670898438 L 552.772705078125 80.95454406738281" stroke-linejoin="bevel" stroke-miterlimit="10" stroke-width="2" clip-path="url(#ETVIHQJhOkwr)"/><path fill="none" stroke="#fc4f30" paint-order="fill" d="M 337.46173095703125 93.87845611572266 L 361.3851623535156 92.80027770996094 L 385.3086242675781 91.72209930419922 L 409.2320556640625 90.64391326904297 L 433.155517578125 89.56573486328125 L 457.0789489746094 88.48755645751953 L 481.00238037109375 87.40937805175781 L 504.92584228515625 86.3311996459961 L 528.8493041992188 85.25301361083984 L 552.772705078125 84.17483520507812" stroke-linejoin="bevel" stroke-miterlimit="10" stroke-width="2" stroke-dasharray="6" clip-path="url(#tsVwJyQTvsuz)"/><path fill="none" stroke="rgb(128,128,128)" paint-order="fill" d="M 98.2272720336914 83.3056411743164 L 122.15071868896484 105.24921417236328 L 146.07415771484375 102.89811706542969 L 169.9976043701172 76.25234985351562 L 193.92105102539062 83.3056411743164 L 217.84449768066406 90.35893249511719 L 241.7679443359375 80.95454406738281 L 265.6913757324219 72.33385467529297 L 289.6148376464844 68.41535949707031 L 313.53826904296875 96.62852478027344" stroke-opacity="0.7490196078431373" stroke-linejoin="bevel" stroke-miterlimit="10" clip-path="url(#UXdqngTdxJoy)"/><path fill="none" stroke="grey" paint-order="fill" d="M 313.53826904296875 96.62852478027344 L 337.46173095703125 62.929466247558594 L 361.3851623535156 78.60344696044922 L 385.3086242675781 74.68495178222656 L 409.2320556640625 72.33385467529297 L 433.155517578125 85.65673828125 L 457.0789489746094 98.1959228515625 L 481.00238037109375 66.84796142578125 L 504.92584228515625 84.87303924560547 L 528.8493041992188 78.60344696044922 L 552.772705078125 75.4686508178711" stroke-linejoin="bevel" stroke-miterlimit="10" stroke-width="0.5" clip-path="url(#TrITGIHRxHON)"/><path fill="none" stroke="grey" paint-order="fill" d="M 313.53826904296875 96.62852478027344 L 337.46173095703125 84.08934020996094 L 361.3851623535156 58.227272033691406 L 385.3086242675781 84.87303924560547 L 409.2320556640625 71.55015563964844 L 433.155517578125 82.52194213867188 L 457.0789489746094 76.25234985351562 L 481.00238037109375 94.27742767333984 L 504.92584228515625 59.79467010498047 L 528.8493041992188 77.03604888916016 L 552.772705078125 70.7664566040039" stroke-linejoin="bevel" stroke-miterlimit="10" stroke-width="0.5" clip-path="url(#SuVTSbkXFSAb)"/><path fill="none" stroke="rgb(128,128,128)" paint-order="fill" d="M 98.2272720336914 80.95454406738281 L 122.15071868896484 98.97962188720703 L 146.07415771484375 80.95454406738281 L 169.9976043701172 95.8448257446289 L 193.92105102539062 72.33385467529297 L 217.84449768066406 77.81974792480469 L 241.7679443359375 96.62852478027344 L 265.6913757324219 73.90125274658203 L 289.6148376464844 80.17084503173828 L 313.53826904296875 107.60031127929688" stroke-opacity="0.7490196078431373" stroke-linejoin="bevel" stroke-miterlimit="10" clip-path="url(#VhoDgbQIEIRO)"/><path fill="none" stroke="grey" paint-order="fill" d="M 313.53826904296875 107.60031127929688 L 337.46173095703125 94.27742767333984 L 361.3851623535156 69.19905853271484 L 385.3086242675781 102.89811706542969 L 409.2320556640625 84.87303924560547 L 433.155517578125 82.52194213867188 L 457.0789489746094 95.06112670898438 L 481.00238037109375 80.17084503173828 L 504.92584228515625 77.81974792480469 L 528.8493041992188 80.17084503173828 L 552.772705078125 102.11441802978516" stroke-linejoin="bevel" stroke-miterlimit="10" stroke-width="0.5" clip-path="url(#pkcmkFLNLfQM)"/><path fill="none" stroke="grey" paint-order="fill" d="M 313.53826904296875 107.60031127929688 L 337.46173095703125 95.8448257446289 L 361.3851623535156 74.68495178222656 L 385.3086242675781 98.97962188720703 L 409.2320556640625 94.27742767333984 L 433.155517578125 106.03291320800781 L 457.0789489746094 88.0078353881836 L 481.00238037109375 101.33071899414062 L 504.92584228515625 92.71002960205078 L 528.8493041992188 91.14263153076172 L 552.772705078125 73.90125274658203" stroke-linejoin="bevel" stroke-miterlimit="10" stroke-width="0.5" clip-path="url(#JKckNuvrQFky)"/><path fill="none" stroke="rgb(128,128,128)" paint-order="fill" d="M 98.2272720336914 87.22413635253906 L 122.15071868896484 76.25234985351562 L 146.07415771484375 102.89811706542969 L 169.9976043701172 77.81974792480469 L 193.92105102539062 72.33385467529297 L 217.84449768066406 80.17084503173828 L 241.7679443359375 101.33071899414062 L 265.6913757324219 103.68181610107422 L 289.6148376464844 99.76332092285156 L 313.53826904296875 72.33385467529297" stroke-opacity="0.7490196078431373" stroke-linejoin="bevel" stroke-miterlimit="10" clip-path="url(#SWPFFLooRkaf)"/><path fill="none" stroke="grey" paint-order="fill" d="M 313.53826904296875 72.33385467529297 L 337.46173095703125 88.79153442382812 L 361.3851623535156 93.49372863769531 L 385.3086242675781 95.06112670898438 L 409.2320556640625 67.63166046142578 L 433.155517578125 76.25234985351562 L 457.0789489746094 62.929466247558594 L 481.00238037109375 75.4686508178711 L 504.92584228515625 95.8448257446289 L 528.8493041992188 100.5470199584961 L 552.772705078125 85.65673828125" stroke-linejoin="bevel" stroke-miterlimit="10" stroke-width="0.5" clip-path="url(#lraIwaqANcvq)"/><path fill="none" stroke="grey" paint-order="fill" d="M 313.53826904296875 72.33385467529297 L 337.46173095703125 82.52194213867188 L 361.3851623535156 69.19905853271484 L 385.3086242675781 69.98275756835938 L 409.2320556640625 73.1175537109375 L 433.155517578125 73.90125274658203 L 457.0789489746094 96.62852478027344 L 481.00238037109375 77.81974792480469 L 504.92584228515625 102.89811706542969 L 528.8493041992188 73.90125274658203 L 552.772705078125 82.52194213867188" stroke-linejoin="bevel" stroke-miterlimit="10" stroke-width="0.5" clip-path="url(#RpETOVUsiVLA)"/><path fill="none" stroke="rgb(128,128,128)" paint-order="fill" d="M 98.2272720336914 67.63166046142578 L 122.15071868896484 67.63166046142578 L 146.07415771484375 73.90125274658203 L 169.9976043701172 106.03291320800781 L 193.92105102539062 92.71002960205078 L 217.84449768066406 75.4686508178711 L 241.7679443359375 108.3840103149414 L 265.6913757324219 78.60344696044922 L 289.6148376464844 82.52194213867188 L 313.53826904296875 83.3056411743164" stroke-opacity="0.7490196078431373" stroke-linejoin="bevel" stroke-miterlimit="10" clip-path="url(#OrJCSePLXNQm)"/><path fill="none" stroke="grey" paint-order="fill" d="M 313.53826904296875 83.3056411743164 L 337.46173095703125 87.22413635253906 L 361.3851623535156 106.81661224365234 L 385.3086242675781 82.52194213867188 L 409.2320556640625 76.25234985351562 L 433.155517578125 69.19905853271484 L 457.0789489746094 73.90125274658203 L 481.00238037109375 88.0078353881836 L 504.92584228515625 70.7664566040039 L 528.8493041992188 77.81974792480469 L 552.772705078125 100.5470199584961" stroke-linejoin="bevel" stroke-miterlimit="10" stroke-width="0.5" clip-path="url(#oVKzyyMPmZcx)"/><path fill="none" stroke="grey" paint-order="fill" d="M 313.53826904296875 83.3056411743164 L 337.46173095703125 80.95454406738281 L 361.3851623535156 87.22413635253906 L 385.3086242675781 79.38714599609375 L 409.2320556640625 83.3056411743164 L 433.155517578125 81.73824310302734 L 457.0789489746094 88.79153442382812 L 481.00238037109375 93.49372863769531 L 504.92584228515625 89.57523345947266 L 528.8493041992188 113.86990356445312 L 552.772705078125 67.63166046142578" stroke-linejoin="bevel" stroke-miterlimit="10" stroke-width="0.5" clip-path="url(#hBUiLlavwKpK)"/><path fill="none" stroke="black" paint-order="fill" d="M 75.5 285.5 L 575.5 285.5" stroke-linejoin="bevel" stroke-miterlimit="10"/><path fill="none" stroke="black" paint-order="fill" d="M 98.5 291.5 L 98.5 283.5 M 217.5 291.5 L 217.5 283.5 M 337.5 291.5 L 337.5 283.5 M 457.5 291.5 L 457.5 283.5" stroke-linejoin="bevel" stroke-miterlimit="10"/><path fill="none" stroke="black" paint-order="fill" d="M 98.5 289.5 L 98.5 285.5 M 122.5 289.5 L 122.5 285.5 M 146.5 289.5 L 146.5 285.5 M 169.5 289.5 L 169.5 285.5 M 193.5 289.5 L 193.5 285.5 M 217.5 289.5 L 217.5 285.5 M 241.5 289.5 L 241.5 285.5 M 265.5 289.5 L 265.5 285.5 M 289.5 289.5 L 289.5 285.5 M 313.5 289.5 L 313.5 285.5 M 337.5 289.5 L 337.5 285.5 M 361.5 289.5 L 361.5 285.5 M 385.5 289.5 L 385.5 285.5 M 409.5 289.5 L 409.5 285.5 M 433.5 289.5 L 433.5 285.5 M 457.5 289.5 L 457.5 285.5 M 481.5 289.5 L 481.5 285.5 M 504.5 289.5 L 504.5 285.5 M 528.5 289.5 L 528.5 285.5 M 552.5 289.5 L 552.5 285.5" stroke-linejoin="bevel" stroke-miterlimit="10"/><text fill="#444444" stroke="none" font-family="helvetica" font-size="10pt" font-style="normal" font-weight="normal" text-decoration="normal" x="84.36060523986816" y="306" text-anchor="start" dominant-baseline="alphabetic" transform="matrix(1, 0, 0, 1, 0.5, 0.5)">2025</text><text fill="none" stroke="rgb(0,0,0)" font-family="helvetica" font-size="10pt" font-style="normal" font-weight="normal" text-decoration="normal" x="84.36060523986816" y="306" text-anchor="start" dominant-baseline="alphabetic" transform="matrix(1, 0, 0, 1, 0.5, 0.5)" stroke-opacity="0" stroke-linejoin="bevel" stroke-miterlimit="10">2025</text><text fill="#444444" stroke="none" font-family="helvetica" font-size="10pt" font-style="normal" font-weight="normal" text-decoration="normal" x="203.97783088684082" y="306" text-anchor="start" dominant-baseline="alphabetic" transform="matrix(1, 0, 0, 1, 0.5, 0.5)">2030</text><text fill="none" stroke="rgb(0,0,0)" font-family="helvetica" font-size="10pt" font-style="normal" font-weight="normal" text-decoration="normal" x="203.97783088684082" y="306" text-anchor="start" dominant-baseline="alphabetic" transform="matrix(1, 0, 0, 1, 0.5, 0.5)" stroke-opacity="0" stroke-linejoin="bevel" stroke-miterlimit="10">2030</text><text fill="#444444" stroke="none" font-family="helvetica" font-size="10pt" font-style="normal" font-weight="normal" text-decoration="normal" x="323.595064163208" y="306" text-anchor="start" dominant-baseline="alphabetic" transform="matrix(1, 0, 0, 1, 0.5, 0.5)">2035</text><text fill="none" stroke="rgb(0,0,0)" font-family="helvetica" font-size="10pt" font-style="normal" font-weight="normal" text-decoration="normal" x="323.595064163208" y="306" text-anchor="start" dominant-baseline="alphabetic" transform="matrix(1, 0, 0, 1, 0.5, 0.5)" stroke-opacity="0" stroke-linejoin="bevel" stroke-miterlimit="10">2035</text><text fill="#444444" stroke="none" font-family="helvetica" font-size="10pt" font-style="normal" font-weight="normal" text-decoration="normal" x="443.21228218078613" y="306" text-anchor="start" dominant-baseline="alphabetic" transform="matrix(1, 0, 0, 1, 0.5, 0.5)">2040</text><text fill="none" stroke="rgb(0,0,0)" font-family="helvetica" font-size="10pt" font-style="normal" font-weight="normal" text-decoration="normal" x="443.21228218078613" y="306" text-anchor="start" dominant-baseline="alphabetic" transform="matrix(1, 0, 0, 1, 0.5, 0.5)" stroke-opacity="0" stroke-linejoin="bevel" stroke-miterlimit="10">2040</text><text fill="#444444" stroke="none" font-family="helvetica" font-size="12pt" font-style="normal" font-weight="normal" text-decoration="normal" x="310.3166666030884" y="329" text-anchor="start" dominant-baseline="alphabetic" transform="matrix(1, 0, 0, 1, 0.5, 0.5)">Year</text><text fill="none" stroke="rgb(0,0,0)" font-family="helvetica" font-size="12pt" font-style="normal" font-weight="normal" text-decoration="normal" x="310.3166666030884" y="329" text-anchor="start" dominant-baseline="alphabetic" transform="matrix(1, 0, 0, 1, 0.5, 0.5)" stroke-opacity="0" stroke-linejoin="bevel" stroke-miterlimit="10">Year</text><path fill="none" stroke="black" paint-order="fill" d="M 75.5 285.5 L 75.5 35.5" stroke-linejoin="bevel" stroke-miterlimit="10"/><path fill="none" stroke="black" paint-order="fill" d="M 69.5 285.5 L 77.5 285.5 M 69.5 246.5 L 77.5 246.5 M 69.5 207.5 L 77.5 207.5 M 69.5 167.5 L 77.5 167.5 M 69.5 128.5 L 77.5 128.5 M 69.5 89.5 L 77.5 89.5 M 69.5 50.5 L 77.5 50.5" stroke-linejoin="bevel" stroke-miterlimit="10"/><path fill="none" stroke="black" paint-order="fill" d="M 71.5 285.5 L 75.5 285.5 M 71.5 277.5 L 75.5 277.5 M 71.5 269.5 L 75.5 269.5 M 71.5 261.5 L 75.5 261.5 M 71.5 254.5 L 75.5 254.5 M 71.5 246.5 L 75.5 246.5 M 71.5 238.5 L 75.5 238.5 M 71.5 230.5 L 75.5 230.5 M 71.5 222.5 L 75.5 222.5 M 71.5 214.5 L 75.5 214.5 M 71.5 207.5 L 75.5 207.5 M 71.5 199.5 L 75.5 199.5 M 71.5 191.5 L 75.5 191.5 M 71.5 183.5 L 75.5 183.5 M 71.5 175.5 L 75.5 175.5 M 71.5 167.5 L 75.5 167.5 M 71.5 160.5 L 75.5 160.5 M 71.5 152.5 L 75.5 152.5 M 71.5 144.5 L 75.5 144.5 M 71.5 136.5 L 75.5 136.5 M 71.5 128.5 L 75.5 128.5 M 71.5 120.5 L 75.5 120.5 M 71.5 113.5 L 75.5 113.5 M 71.5 105.5 L 75.5 105.5 M 71.5 97.5 L 75.5 97.5 M 71.5 89.5 L 75.5 89.5 M 71.5 81.5 L 75.5 81.5 M 71.5 73.5 L 75.5 73.5 M 71.5 66.5 L 75.5 66.5 M 71.5 58.5 L 75.5 58.5 M 71.5 50.5 L 75.5 50.5 M 71.5 42.5 L 75.5 42.5" stroke-linejoin="bevel" stroke-miterlimit="10"/><text fill="#444444" stroke="none" font-family="helvetica" font-size="10pt" font-style="normal" font-weight="normal" text-decoration="normal" x="57.31666660308838" y="290" text-anchor="start" dominant-baseline="alphabetic" transform="matrix(1, 0, 0, 1, 0.5, 0.5)">0</text><text fill="none" stroke="rgb(0,0,0)" font-family="helvetica" font-size="10pt" font-style="normal" font-weight="normal" text-decoration="normal" x="57.31666660308838" y="290" text-anchor="start" dominant-baseline="alphabetic" transform="matrix(1, 0, 0, 1, 0.5, 0.5)" stroke-opacity="0" stroke-linejoin="bevel" stroke-miterlimit="10">0</text><text fill="#444444" stroke="none" font-family="helvetica" font-size="10pt" font-style="normal" font-weight="normal" text-decoration="normal" x="50.63333320617676" y="250.81504821777344" text-anchor="start" dominant-baseline="alphabetic" transform="matrix(1, 0, 0, 1, 0.5, 0.5)">50</text><text fill="none" stroke="rgb(0,0,0)" font-family="helvetica" font-size="10pt" font-style="normal" font-weight="normal" text-decoration="normal" x="50.63333320617676" y="250.81504821777344" text-anchor="start" dominant-baseline="alphabetic" transform="matrix(1, 0, 0, 1, 0.5, 0.5)" stroke-opacity="0" stroke-linejoin="bevel" stroke-miterlimit="10">50</text><text fill="#444444" stroke="none" font-family="helvetica" font-size="10pt" font-style="normal" font-weight="normal" text-decoration="normal" x="43.95000076293945" y="211.63009643554688" text-anchor="start" dominant-baseline="alphabetic" transform="matrix(1, 0, 0, 1, 0.5, 0.5)">100</text><text fill="none" stroke="rgb(0,0,0)" font-family="helvetica" font-size="10pt" font-style="normal" font-weight="normal" text-decoration="normal" x="43.95000076293945" y="211.63009643554688" text-anchor="start" dominant-baseline="alphabetic" transform="matrix(1, 0, 0, 1, 0.5, 0.5)" stroke-opacity="0" stroke-linejoin="bevel" stroke-miterlimit="10">100</text><text fill="#444444" stroke="none" font-family="helvetica" font-size="10pt" font-style="normal" font-weight="normal" text-decoration="normal" x="43.95000076293945" y="172.4451446533203" text-anchor="start" dominant-baseline="alphabetic" transform="matrix(1, 0, 0, 1, 0.5, 0.5)">150</text><text fill="none" stroke="rgb(0,0,0)" font-family="helvetica" font-size="10pt" font-style="normal" font-weight="normal" text-decoration="normal" x="43.95000076293945" y="172.4451446533203" text-anchor="start" dominant-baseline="alphabetic" transform="matrix(1, 0, 0, 1, 0.5, 0.5)" stroke-opacity="0" stroke-linejoin="bevel" stroke-miterlimit="10">150</text><text fill="#444444" stroke="none" font-family="helvetica" font-size="10pt" font-style="normal" font-weight="normal" text-decoration="normal" x="43.95000076293945" y="133.26019287109375" text-anchor="start" dominant-baseline="alphabetic" transform="matrix(1, 0, 0, 1, 0.5, 0.5)">200</text><text fill="none" stroke="rgb(0,0,0)" font-family="helvetica" font-size="10pt" font-style="normal" font-weight="normal" text-decoration="normal" x="43.95000076293945" y="133.26019287109375" text-anchor="start" dominant-baseline="alphabetic" transform="matrix(1, 0, 0, 1, 0.5, 0.5)" stroke-opacity="0" stroke-linejoin="bevel" stroke-miterlimit="10">200</text><text fill="#444444" stroke="none" font-family="helvetica" font-size="10pt" font-style="normal" font-weight="normal" text-decoration="normal" x="43.95000076293945" y="94.07523345947266" text-anchor="start" dominant-baseline="alphabetic" transform="matrix(1, 0, 0, 1, 0.5, 0.5)">250</text><text fill="none" stroke="rgb(0,0,0)" font-family="helvetica" font-size="10pt" font-style="normal" font-weight="normal" text-decoration="normal" x="43.95000076293945" y="94.07523345947266" text-anchor="start" dominant-baseline="alphabetic" transform="matrix(1, 0, 0, 1, 0.5, 0.5)" stroke-opacity="0" stroke-linejoin="bevel" stroke-miterlimit="10">250</text><text fill="#444444" stroke="none" font-family="helvetica" font-size="10pt" font-style="normal" font-weight="normal" text-decoration="normal" x="43.95000076293945" y="54.890281677246094" text-anchor="start" dominant-baseline="alphabetic" transform="matrix(1, 0, 0, 1, 0.5, 0.5)">300</text><text fill="none" stroke="rgb(0,0,0)" font-family="helvetica" font-size="10pt" font-style="normal" font-weight="normal" text-decoration="normal" x="43.95000076293945" y="54.890281677246094" text-anchor="start" dominant-baseline="alphabetic" transform="matrix(1, 0, 0, 1, 0.5, 0.5)" stroke-opacity="0" stroke-linejoin="bevel" stroke-miterlimit="10">300</text><text fill="#444444" stroke="none" font-family="helvetica" font-size="12pt" font-style="normal" font-weight="normal" text-decoration="normal" x="-60.25833511352539" y="156" text-anchor="start" dominant-baseline="alphabetic" transform="matrix(6.123233995736766e-17, -1, 1, 6.123233995736766e-17, -123.54999923706055, 196.45000076293945)">Days suitable for transmission</text><text fill="none" stroke="rgb(0,0,0)" font-family="helvetica" font-size="12pt" font-style="normal" font-weight="normal" text-decoration="normal" x="-60.25833511352539" y="156" text-anchor="start" dominant-baseline="alphabetic" transform="matrix(6.123233995736766e-17, -1, 1, 6.123233995736766e-17, -123.54999923706055, 196.45000076293945)" stroke-opacity="0" stroke-linejoin="bevel" stroke-miterlimit="10">Days suitable for transmission</text><path fill="rgb(255,255,255)" stroke="rgb(229,229,229)" paint-order="fill" d="M 482.0333251953125 210.5 L 565.4999847412109 210.5 L 565.4999847412109 275.5 L 482.0333251953125 275.5 L 482.0333251953125 210.5 Z" fill-opacity="0.9490196078431372" clip-path="url(#UlhcQBimbClO)" stroke-opacity="0.5019607843137255" stroke-linejoin="bevel" stroke-miterlimit="10"/><g clip-path="url(#UlhcQBimbClO)"><g transform="matrix(1, 0, 0, 1, 492.5333251953125, 221)"><path fill="none" stroke="#30a2da" paint-order="fill" d="M 0.5 10.5 L 20.5 10.5" stroke-linejoin="bevel" stroke-miterlimit="10" stroke-width="2"/></g></g><g clip-path="url(#UlhcQBimbClO)"><text fill="#444444" stroke="none" font-family="helvetica" font-size="13px" font-style="normal" font-weight="normal" text-decoration="normal" x="517.5333251953125" y="235.5" text-anchor="start" dominant-baseline="alphabetic" transform="matrix(1, 0, 0, 1, 0.5, 0.5)">ID 001</text></g><g clip-path="url(#UlhcQBimbClO)"><text fill="none" stroke="rgb(0,0,0)" font-family="helvetica" font-size="13px" font-style="normal" font-weight="normal" text-decoration="normal" x="517.5333251953125" y="235.5" text-anchor="start" dominant-baseline="alphabetic" transform="matrix(1, 0, 0, 1, 0.5, 0.5)" stroke-opacity="0" stroke-linejoin="bevel" stroke-miterlimit="10">ID 001</text></g><g clip-path="url(#UlhcQBimbClO)"><g transform="matrix(1, 0, 0, 1, 492.5333251953125, 244)"><path fill="none" stroke="#fc4f30" paint-order="fill" d="M 0.5 10.5 L 20.5 10.5" stroke-linejoin="bevel" stroke-miterlimit="10" stroke-width="2"/></g></g><g clip-path="url(#UlhcQBimbClO)"><text fill="#444444" stroke="none" font-family="helvetica" font-size="13px" font-style="normal" font-weight="normal" text-decoration="normal" x="517.5333251953125" y="258.5" text-anchor="start" dominant-baseline="alphabetic" transform="matrix(1, 0, 0, 1, 0.5, 0.5)">ID 006</text></g><g clip-path="url(#UlhcQBimbClO)"><text fill="none" stroke="rgb(0,0,0)" font-family="helvetica" font-size="13px" font-style="normal" font-weight="normal" text-decoration="normal" x="517.5333251953125" y="258.5" text-anchor="start" dominant-baseline="alphabetic" transform="matrix(1, 0, 0, 1, 0.5, 0.5)" stroke-opacity="0" stroke-linejoin="bevel" stroke-miterlimit="10">ID 006</text></g><text fill="black" stroke="none" font-family="helvetica" font-size="14pt" font-style="normal" font-weight="normal" text-decoration="normal" x="0" y="18" text-anchor="start" dominant-baseline="alphabetic" transform="matrix(1, 0, 0, 1, 5.5, 7.5)">E. New Delhi</text><text fill="none" stroke="rgb(0,0,0)" font-family="helvetica" font-size="14pt" font-style="normal" font-weight="normal" text-decoration="normal" x="0" y="18" text-anchor="start" dominant-baseline="alphabetic" transform="matrix(1, 0, 0, 1, 5.5, 7.5)" stroke-opacity="0" stroke-linejoin="bevel" stroke-miterlimit="10">E. New Delhi</text></svg>