<svg version="1.1" xmlns="http://www.w3.org/2000/svg" width="605" height="336"><defs><clipPath id="bTlfaIdAvILC"><path fill="none" stroke="none" d="M 75.5 35.5 L 575.5 35.5 L 575.5 285.5 L 75.5 285.5 L 75.5 35.5 Z"/></clipPath><clipPath id="TEqhawVzmvVb"><path fill="none" stroke="none" d="M 75.5 35.5 L 575.5 35.5 L 575.5 285.5 L 75.5 285.5 L 75.5 35.5 Z"/></clipPath><clipPath id="BrMfoBccXbwv"><path fill="none" stroke="none" d="M 75.5 35.5 L 575.5 35.5 L 575.5 285.5 L 75.5 285.5 L 75.5 35.5 Z"/></clipPath><clipPath id="IRTwwVEUuwPH"><path fill="none" stroke="none" d="M 75.5 35.5 L 575.5 35.5 L 575.5 285.5 L 75.5 285.5 L 75.5 35.5 Z"/></clipPath><clipPath id="vRSoyEpVQTKf"><path fill="none" stroke="none" d="M 75.5 35.5 L 575.5 35.5 L 575.5 285.5 L 75.5 285.5 L 75.5 35.5 Z"/></clipPath><clipPath id="wTMzXLaGbunk"><path fill="none" stroke="none" d="M 75.5 35.5 L 575.5 35.5 L 575.5 285.5 L 75.5 285.5 L 75.5 35.5 Z"/></clipPath><clipPath id="RXkHPNixmTFM"><path fill="none" stroke="none" d="M 75.5 35.5 L 575.5 35.5 L 575.5 285.5 L 75.5 285.5 L 75.5 35.5 Z"/></clipPath><clipPath id="eWGrJcEPgXEP"><path fill="none" stroke="none" d="M 75.5 35.5 L 575.5 35.5 L 575.5 285.5 L 75.5 285.5 L 75.5 35.5 Z"/></clipPath><clipPath id="ACrxhqxwkpZq"><path fill="none" stroke="none" d="M 75.5 35.5 L 575.5 35.5 L 575.5 285.5 L 75.5 285.5 L 75.5 35.5 Z"/></clipPath><clipPath id="PwpOouySCMiq"><path fill="none" stroke="none" d="M 75.5 35.5 L 575.5 35.5 L 575.5 285.5 L 75.5 285.5 L 75.5 35.5 Z"/></clipPath><clipPath id="vuzAdmEKqkHy"><path fill="none" stroke="none" d="M 75.5 35.5 L 575.5 35.5 L 575.5 285.5 L 75.5 285.5 L 75.5 35.5 Z"/></clipPath><clipPath id="fgcceqIUnAWe"><path fill="none" stroke="none" d="M 75.5 35.5 L 575.5 35.5 L 575.5 285.5 L 75.5 285.5 L 75.5 35.5 Z"/></clipPath><clipPath id="TlzmogLPbvUc"><path fill="none" stroke="none" d="M 75.5 35.5 L 575.5 35.5 L 575.5 285.5 L 75.5 285.5 L 75.5 35.5 Z"/></clipPath><clipPath id="BtcfbsErcddS"><path fill="none" stroke="none" d="M 75.5 35.5 L 575.5 35.5 L 575.5 285.5 L 75.5 285.5 L 75.5 35.5 Z"/></clipPath><clipPath id="SHnEnymiPlnh"><path fill="none" stroke="none" d="M 75.5 35.5 L 575.5 35.5 L 575.5 285.5 L 75.5 285.5 L 75.5 35.5 Z"/></clipPath><clipPath id="iwLfDtkWZOWC"><path fill="none" stroke="none" d="M 75.5 35.5 L 575.5 35.5 L 575.5 285.5 L 75.5 285.5 L 75.5 35.5 Z"/></clipPath><clipPath id="JRJrehvMppex"><path fill="none" stroke="none" d="M 75.5 35.5 L 575.5 35.5 L 575.5 285.5 L 75.5 285.5 L 75.5 35.5 Z"/></clipPath><clipPath id="iEoKDTLWEUpL"><path fill="none" stroke="none" d="M 75.5 35.5 L 575.5 35.5 L 575.5 285.5 L 75.5 285.5 L 75.5 35.5 Z"/></clipPath><clipPath id="cwUddqoWnnBT"><path fill="none" stroke="none" d="M 75.5 35.5 L 575.5 35.5 L 575.5 285.5 L 75.5 285.5 L 75.5 35.5 Z"/></clipPath><clipPath id="ZTCbnLJFOKZH"><path fill="none" stroke="none" d="M 75.5 35.5 L 575.5 35.5 L 575.5 285.5 L 75.5 285.5 L 75.5 35.5 Z"/></clipPath><clipPath id="XCviSDtOuhJO"><path fill="none" stroke="none" d="M 75.5 35.5 L 575.5 35.5 L 575.5 285.5 L 75.5 285.5 L 75.5 35.5 Z"/></clipPath><clipPath id="fAzyQzNikTGg"><path fill="none" stroke="none" d="M 75.5 35.5 L 575.5 35.5 L 575.5 285.5 L 75.5 285.5 L 75.5 35.5 Z"/></clipPath><clipPath id="kpbxbNqWxzCZ"><path fill="none" stroke="none" d="M 75.5 35.5 L 575.5 35.5 L 575.5 285.5 L 75.5 285.5 L 75.5 35.5 Z"/></clipPath></defs><path fill="none" stroke="#e5e5e5" paint-order="fill" d="M 75.5 35.5 L 575.5 35.5 L 575.5 285.5 L 75.5 285.5 L 75.5 35.5 Z" stroke-linejoin="bevel" stroke-miterlimit="10"/><path fill="none" stroke="black" paint-order="fill" d="M 337.46172248803487 35.5 L 337.46172248803487 285.5" stroke-linejoin="bevel" stroke-miterlimit="10" stroke-width="3" stroke-dasharray="6" clip-path="url(#BrMfoBccXbwv)"/><path fill="none" stroke="#9467bd" paint-order="fill" d="M 98.2272720336914 101.05944061279297 L 122.15071868896484 128.15734100341797 L 146.07415771484375 115.04545593261719 L 169.9976043701172 74.83566284179688 L 193.92105102539062 76.58391571044922 L 217.84449768066406 101.93356323242188 L 241.7679443359375 116.79370880126953 L 265.6913757324219 87.07342529296875 L 289.6148376464844 96.68881225585938 L 313.53826904296875 98.43706512451172" stroke-linejoin="bevel" stroke-miterlimit="10" stroke-width="2" clip-path="url(#IRTwwVEUuwPH)"/><path fill="none" stroke="#9467bd" paint-order="fill" d="M 98.2272720336914 106.00222778320312 L 122.15071868896484 104.59302520751953 L 146.07415771484375 103.18383026123047 L 169.9976043701172 101.7746353149414 L 193.92105102539062 100.36544036865234 L 217.84449768066406 98.95623779296875 L 241.7679443359375 97.54704284667969 L 265.6913757324219 96.13784790039062 L 289.6148376464844 94.72865295410156 L 313.53826904296875 93.31945037841797" stroke-linejoin="bevel" stroke-miterlimit="10" stroke-width="2" stroke-dasharray="6" clip-path="url(#vRSoyEpVQTKf)"/><path fill="none" stroke="#30a2da" paint-order="fill" d="M 313.53826904296875 98.43706512451172 L 337.46173095703125 67.84265899658203 L 361.3851623535156 94.06643676757812 L 385.3086242675781 96.68881225585938 L 409.2320556640625 101.05944061279297 L 433.155517578125 101.93356323242188 L 457.0789489746094 120.29020690917969 L 481.00238037109375 103.68181610107422 L 504.92584228515625 114.17132568359375 L 528.8493041992188 105.43006896972656 L 552.772705078125 94.06643676757812" stroke-linejoin="bevel" stroke-miterlimit="10" stroke-width="2" clip-path="url(#wTMzXLaGbunk)"/><path fill="none" stroke="#30a2da" paint-order="fill" d="M 337.46173095703125 88.21773529052734 L 361.3851623535156 90.81892395019531 L 385.3086242675781 93.42011260986328 L 409.2320556640625 96.02129364013672 L 433.155517578125 98.62248229980469 L 457.0789489746094 101.22367095947266 L 481.00238037109375 103.82485961914062 L 504.92584228515625 106.42604064941406 L 528.8493041992188 109.02722930908203 L 552.772705078125 111.62841796875" stroke-linejoin="bevel" stroke-miterlimit="10" stroke-width="2" stroke-dasharray="6" clip-path="url(#RXkHPNixmTFM)"/><path fill="none" stroke="#fc4f30" paint-order="fill" d="M 313.53826904296875 98.43706512451172 L 337.46173095703125 58.227272033691406 L 361.3851623535156 74.83566284179688 L 385.3086242675781 97.56293487548828 L 409.2320556640625 63.47202682495117 L 433.155517578125 98.43706512451172 L 457.0789489746094 82.70279693603516 L 481.00238037109375 94.94055938720703 L 504.92584228515625 106.30419921875 L 528.8493041992188 131.65383911132812 L 552.772705078125 88.8216781616211" stroke-linejoin="bevel" stroke-miterlimit="10" stroke-width="2" clip-path="url(#eWGrJcEPgXEP)"/><path fill="none" stroke="#fc4f30" paint-order="fill" d="M 337.46173095703125 68.0015869140625 L 361.3851623535156 72.82252502441406 L 385.3086242675781 77.64346313476562 L 409.2320556640625 82.46440124511719 L 433.155517578125 87.28533935546875 L 457.0789489746094 92.10626983642578 L 481.00238037109375 96.92720794677734 L 504.92584228515625 101.7481460571289 L 528.8493041992188 106.56908416748047 L 552.772705078125 111.39002227783203" stroke-linejoin="bevel" stroke-miterlimit="10" stroke-width="2" stroke-dasharray="6" clip-path="url(#ACrxhqxwkpZq)"/><path fill="none" stroke="rgb(128,128,128)" paint-order="fill" d="M 98.2272720336914 115.9195785522461 L 122.15071868896484 109.80069732666016 L 146.07415771484375 94.06643676757812 L 169.9976043701172 104.55594635009766 L 193.92105102539062 101.93356323242188 L 217.84449768066406 83.57691955566406 L 241.7679443359375 95.81468200683594 L 265.6913757324219 87.07342529296875 L 289.6148376464844 94.94055938720703 L 313.53826904296875 118.54196166992188" stroke-opacity="0.7490196078431373" stroke-linejoin="bevel" stroke-miterlimit="10" clip-path="url(#PwpOouySCMiq)"/><path fill="none" stroke="grey" paint-order="fill" d="M 313.53826904296875 118.54196166992188 L 337.46173095703125 87.07342529296875 L 361.3851623535156 104.55594635009766 L 385.3086242675781 113.29720306396484 L 409.2320556640625 66.09440612792969 L 433.155517578125 90.56993103027344 L 457.0789489746094 89.69580078125 L 481.00238037109375 95.81468200683594 L 504.92584228515625 107.1783218383789 L 528.8493041992188 98.43706512451172 L 552.772705078125 103.68181610107422" stroke-linejoin="bevel" stroke-miterlimit="10" stroke-width="0.5" clip-path="url(#vuzAdmEKqkHy)"/><path fill="none" stroke="grey" paint-order="fill" d="M 313.53826904296875 118.54196166992188 L 337.46173095703125 92.31818389892578 L 361.3851623535156 110.6748275756836 L 385.3086242675781 105.43006896972656 L 409.2320556640625 88.8216781616211 L 433.155517578125 91.44405364990234 L 457.0789489746094 113.29720306396484 L 481.00238037109375 108.05244445800781 L 504.92584228515625 95.81468200683594 L 528.8493041992188 94.94055938720703 L 552.772705078125 132.52796936035156" stroke-linejoin="bevel" stroke-miterlimit="10" stroke-width="0.5" clip-path="url(#fgcceqIUnAWe)"/><path fill="none" stroke="rgb(128,128,128)" paint-order="fill" d="M 98.2272720336914 113.29720306396484 L 122.15071868896484 110.6748275756836 L 146.07415771484375 98.43706512451172 L 169.9976043701172 101.05944061279297 L 193.92105102539062 102.80769348144531 L 217.84449768066406 117.66783142089844 L 241.7679443359375 115.9195785522461 L 265.6913757324219 76.58391571044922 L 289.6148376464844 101.93356323242188 L 313.53826904296875 102.80769348144531" stroke-opacity="0.7490196078431373" stroke-linejoin="bevel" stroke-miterlimit="10" clip-path="url(#TlzmogLPbvUc)"/><path fill="none" stroke="grey" paint-order="fill" d="M 313.53826904296875 102.80769348144531 L 337.46173095703125 112.42308044433594 L 361.3851623535156 105.43006896972656 L 385.3086242675781 115.04545593261719 L 409.2320556640625 106.30419921875 L 433.155517578125 76.58391571044922 L 457.0789489746094 81.82867431640625 L 481.00238037109375 85.3251724243164 L 504.92584228515625 95.81468200683594 L 528.8493041992188 119.41608428955078 L 552.772705078125 108.05244445800781" stroke-linejoin="bevel" stroke-miterlimit="10" stroke-width="0.5" clip-path="url(#BtcfbsErcddS)"/><path fill="none" stroke="grey" paint-order="fill" d="M 313.53826904296875 102.80769348144531 L 337.46173095703125 119.41608428955078 L 361.3851623535156 103.68181610107422 L 385.3086242675781 106.30419921875 L 409.2320556640625 66.09440612792969 L 433.155517578125 96.68881225585938 L 457.0789489746094 116.79370880126953 L 481.00238037109375 113.29720306396484 L 504.92584228515625 87.94755554199219 L 528.8493041992188 101.05944061279297 L 552.772705078125 108.92657470703125" stroke-linejoin="bevel" stroke-miterlimit="10" stroke-width="0.5" clip-path="url(#SHnEnymiPlnh)"/><path fill="none" stroke="rgb(128,128,128)" paint-order="fill" d="M 98.2272720336914 133.402099609375 L 122.15071868896484 129.03146362304688 L 146.07415771484375 101.05944061279297 L 169.9976043701172 87.94755554199219 L 193.92105102539062 123.78671264648438 L 217.84449768066406 121.16433715820312 L 241.7679443359375 100.18531799316406 L 265.6913757324219 87.94755554199219 L 289.6148376464844 66.09440612792969 L 313.53826904296875 118.54196166992188" stroke-opacity="0.7490196078431373" stroke-linejoin="bevel" stroke-miterlimit="10" clip-path="url(#iwLfDtkWZOWC)"/><path fill="none" stroke="grey" paint-order="fill" d="M 313.53826904296875 118.54196166992188 L 337.46173095703125 117.66783142089844 L 361.3851623535156 94.94055938720703 L 385.3086242675781 94.94055938720703 L 409.2320556640625 111.5489501953125 L 433.155517578125 101.93356323242188 L 457.0789489746094 95.81468200683594 L 481.00238037109375 104.55594635009766 L 504.92584228515625 82.70279693603516 L 528.8493041992188 85.3251724243164 L 552.772705078125 115.04545593261719" stroke-linejoin="bevel" stroke-miterlimit="10" stroke-width="0.5" clip-path="url(#JRJrehvMppex)"/><path fill="none" stroke="grey" paint-order="fill" d="M 313.53826904296875 118.54196166992188 L 337.46173095703125 88.8216781616211 L 361.3851623535156 92.31818389892578 L 385.3086242675781 99.31118774414062 L 409.2320556640625 107.1783218383789 L 433.155517578125 113.29720306396484 L 457.0789489746094 79.20629119873047 L 481.00238037109375 93.19230651855469 L 504.92584228515625 93.19230651855469 L 528.8493041992188 90.56993103027344 L 552.772705078125 89.69580078125" stroke-linejoin="bevel" stroke-miterlimit="10" stroke-width="0.5" clip-path="url(#iEoKDTLWEUpL)"/><path fill="none" stroke="rgb(128,128,128)" paint-order="fill" d="M 98.2272720336914 116.79370880126953 L 122.15071868896484 94.06643676757812 L 146.07415771484375 120.29020690917969 L 169.9976043701172 104.55594635009766 L 193.92105102539062 78.33216857910156 L 217.84449768066406 108.92657470703125 L 241.7679443359375 94.94055938720703 L 265.6913757324219 107.1783218383789 L 289.6148376464844 115.04545593261719 L 313.53826904296875 108.05244445800781" stroke-opacity="0.7490196078431373" stroke-linejoin="bevel" stroke-miterlimit="10" clip-path="url(#cwUddqoWnnBT)"/><path fill="none" stroke="grey" paint-order="fill" d="M 313.53826904296875 108.05244445800781 L 337.46173095703125 66.9685287475586 L 361.3851623535156 101.05944061279297 L 385.3086242675781 97.56293487548828 L 409.2320556640625 130.77972412109375 L 433.155517578125 94.94055938720703 L 457.0789489746094 108.92657470703125 L 481.00238037109375 105.43006896972656 L 504.92584228515625 78.33216857910156 L 528.8493041992188 101.93356323242188 L 552.772705078125 110.6748275756836" stroke-linejoin="bevel" stroke-miterlimit="10" stroke-width="0.5" clip-path="url(#ZTCbnLJFOKZH)"/><path fill="none" stroke="grey" paint-order="fill" d="M 313.53826904296875 108.05244445800781 L 337.46173095703125 78.33216857910156 L 361.3851623535156 95.81468200683594 L 385.3086242675781 82.70279693603516 L 409.2320556640625 76.58391571044922 L 433.155517578125 101.05944061279297 L 457.0789489746094 101.05944061279297 L 481.00238037109375 110.6748275756836 L 504.92584228515625 113.29720306396484 L 528.8493041992188 97.56293487548828 L 552.772705078125 86.19930267333984" stroke-linejoin="bevel" stroke-miterlimit="10" stroke-width="0.5" clip-path="url(#XCviSDtOuhJO)"/><path fill="none" stroke="black" paint-order="fill" d="M 75.5 285.5 L 575.5 285.5" stroke-linejoin="bevel" stroke-miterlimit="10"/><path fill="none" stroke="black" paint-order="fill" d="M 98.5 291.5 L 98.5 283.5 M 217.5 291.5 L 217.5 283.5 M 337.5 291.5 L 337.5 283.5 M 457.5 291.5 L 457.5 283.5" stroke-linejoin="bevel" stroke-miterlimit="10"/><path fill="none" stroke="black" paint-order="fill" d="M 98.5 289.5 L 98.5 285.5 M 122.5 289.5 L 122.5 285.5 M 146.5 289.5 L 146.5 285.5 M 169.5 289.5 L 169.5 285.5 M 193.5 289.5 L 193.5 285.5 M 217.5 289.5 L 217.5 285.5 M 241.5 289.5 L 241.5 285.5 M 265.5 289.5 L 265.5 285.5 M 289.5 289.5 L 289.5 285.5 M 313.5 289.5 L 313.5 285.5 M 337.5 289.5 L 337.5 285.5 M 361.5 289.5 L 361.5 285.5 M 385.5 289.5 L 385.5 285.5 M 409.5 289.5 L 409.5 285.5 M 433.5 289.5 L 433.5 285.5 M 457.5 289.5 L 457.5 285.5 M 481.5 289.5 L 481.5 285.5 M 504.5 289.5 L 504.5 285.5 M 528.5 289.5 L 528.5 285.5 M 552.5 289.5 L 552.5 285.5" stroke-linejoin="bevel" stroke-miterlimit="10"/><text fill="#444444" stroke="none" font-family="helvetica" font-size="10pt" font-style="normal" font-weight="normal" text-decoration="normal" x="84.36060523986816" y="306" text-anchor="start" dominant-baseline="alphabetic" transform="matrix(1, 0, 0, 1, 0.5, 0.5)">2025</text><text fill="none" stroke="rgb(0,0,0)" font-family="helvetica" font-size="10pt" font-style="normal" font-weight="normal" text-decoration="normal" x="84.36060523986816" y="306" text-anchor="start" dominant-baseline="alphabetic" transform="matrix(1, 0, 0, 1, 0.5, 0.5)" stroke-opacity="0" stroke-linejoin="bevel" stroke-miterlimit="10">2025</text><text fill="#444444" stroke="none" font-family="helvetica" font-size="10pt" font-style="normal" font-weight="normal" text-decoration="normal" x="203.97783088684082" y="306" text-anchor="start" dominant-baseline="alphabetic" transform="matrix(1, 0, 0, 1, 0.5, 0.5)">2030</text><text fill="none" stroke="rgb(0,0,0)" font-family="helvetica" font-size="10pt" font-style="normal" font-weight="normal" text-decoration="normal" x="203.97783088684082" y="306" text-anchor="start" dominant-baseline="alphabetic" transform="matrix(1, 0, 0, 1, 0.5, 0.5)" stroke-opacity="0" stroke-linejoin="bevel" stroke-miterlimit="10">2030</text><text fill="#444444" stroke="none" font-family="helvetica" font-size="10pt" font-style="normal" font-weight="normal" text-decoration="normal" x="323.595064163208" y="306" text-anchor="start" dominant-baseline="alphabetic" transform="matrix(1, 0, 0, 1, 0.5, 0.5)">2035</text><text fill="none" stroke="rgb(0,0,0)" font-family="helvetica" font-size="10pt" font-style="normal" font-weight="normal" text-decoration="normal" x="323.595064163208" y="306" text-anchor="start" dominant-baseline="alphabetic" transform="matrix(1, 0, 0, 1, 0.5, 0.5)" stroke-opacity="0" stroke-linejoin="bevel" stroke-miterlimit="10">2035</text><text fill="#444444" stroke="none" font-family="helvetica" font-size="10pt" font-style="normal" font-weight="normal" text-decoration="normal" x="443.21228218078613" y="306" text-anchor="start" dominant-baseline="alphabetic" transform="matrix(1, 0, 0, 1, 0.5, 0.5)">2040</text><text fill="none" stroke="rgb(0,0,0)" font-family="helvetica" font-size="10pt" font-style="normal" font-weight="normal" text-decoration="normal" x="443.21228218078613" y="306" text-anchor="start" dominant-baseline="alphabetic" transform="matrix(1, 0, 0, 1, 0.5, 0.5)" stroke-opacity="0" stroke-linejoin="bevel" stroke-miterlimit="10">2040</text><text fill="#444444" stroke="none" font-family="helvetica" font-size="12pt" font-style="normal" font-weight="normal" text-decoration="normal" x="310.3166666030884" y="329" text-anchor="start" dominant-baseline="alphabetic" transform="matrix(1, 0, 0, 1, 0.5, 0.5)">Year</text><text fill="none" stroke="rgb(0,0,0)" font-family="helvetica" font-size="12pt" font-style="normal" font-weight="normal" text-decoration="normal" x="310.3166666030884" y="329" text-anchor="start" dominant-baseline="alphabetic" transform="matrix(1, 0, 0, 1, 0.5, 0.5)" stroke-opacity="0" stroke-linejoin="bevel" stroke-miterlimit="10">Year</text><path fill="none" stroke="black" paint-order="fill" d="M 75.5 285.5 L 75.5 35.5" stroke-linejoin="bevel" stroke-miterlimit="10"/><path fill="none" stroke="black" paint-order="fill" d="M 69.5 285.5 L 77.5 285.5 M 69.5 241.5 L 77.5 241.5 M 69.5 198.5 L 77.5 198.5 M 69.5 154.5 L 77.5 154.5 M 69.5 110.5 L 77.5 110.5 M 69.5 66.5 L 77.5 66.5" stroke-linejoin="bevel" stroke-miterlimit="10"/><path fill="none" stroke="black" paint-order="fill" d="M 71.5 285.5 L 75.5 285.5 M 71.5 276.5 L 75.5 276.5 M 71.5 268.5 L 75.5 268.5 M 71.5 259.5 L 75.5 259.5 M 71.5 250.5 L 75.5 250.5 M 71.5 241.5 L 75.5 241.5 M 71.5 233.5 L 75.5 233.5 M 71.5 224.5 L 75.5 224.5 M 71.5 215.5 L 75.5 215.5 M 71.5 206.5 L 75.5 206.5 M 71.5 198.5 L 75.5 198.5 M 71.5 189.5 L 75.5 189.5 M 71.5 180.5 L 75.5 180.5 M 71.5 171.5 L 75.5 171.5 M 71.5 163.5 L 75.5 163.5 M 71.5 154.5 L 75.5 154.5 M 71.5 145.5 L 75.5 145.5 M 71.5 136.5 L 75.5 136.5 M 71.5 128.5 L 75.5 128.5 M 71.5 119.5 L 75.5 119.5 M 71.5 110.5 L 75.5 110.5 M 71.5 101.5 L 75.5 101.5 M 71.5 93.5 L 75.5 93.5 M 71.5 84.5 L 75.5 84.5 M 71.5 75.5 L 75.5 75.5 M 71.5 66.5 L 75.5 66.5 M 71.5 58.5 L 75.5 58.5 M 71.5 49.5 L 75.5 49.5 M 71.5 40.5 L 75.5 40.5" stroke-linejoin="bevel" stroke-miterlimit="10"/><text fill="#444444" stroke="none" font-family="helvetica" font-size="10pt" font-style="normal" font-weight="normal" text-decoration="normal" x="57.31666660308838" y="290" text-anchor="start" dominant-baseline="alphabetic" transform="matrix(1, 0, 0, 1, 0.5, 0.5)">0</text><text fill="none" stroke="rgb(0,0,0)" font-family="helvetica" font-size="10pt" font-style="normal" font-weight="normal" text-decoration="normal" x="57.31666660308838" y="290" text-anchor="start" dominant-baseline="alphabetic" transform="matrix(1, 0, 0, 1, 0.5, 0.5)" stroke-opacity="0" stroke-linejoin="bevel" stroke-miterlimit="10">0</text><text fill="#444444" stroke="none" font-family="helvetica" font-size="10pt" font-style="normal" font-weight="normal" text-decoration="normal" x="50.63333320617676" y="246.293701171875" text-anchor="start" dominant-baseline="alphabetic" transform="matrix(1, 0, 0, 1, 0.5, 0.5)">50</text><text fill="none" stroke="rgb(0,0,0)" font-family="helvetica" font-size="10pt" font-style="normal" font-weight="normal" text-decoration="normal" x="50.63333320617676" y="246.293701171875" text-anchor="start" dominant-baseline="alphabetic" transform="matrix(1, 0, 0, 1, 0.5, 0.5)" stroke-opacity="0" stroke-linejoin="bevel" stroke-miterlimit="10">50</text><text fill="#444444" stroke="none" font-family="helvetica" font-size="10pt" font-style="normal" font-weight="normal" text-decoration="normal" x="43.95000076293945" y="202.58741760253906" text-anchor="start" dominant-baseline="alphabetic" transform="matrix(1, 0, 0, 1, 0.5, 0.5)">100</text><text fill="none" stroke="rgb(0,0,0)" font-family="helvetica" font-size="10pt" font-style="normal" font-weight="normal" text-decoration="normal" x="43.95000076293945" y="202.58741760253906" text-anchor="start" dominant-baseline="alphabetic" transform="matrix(1, 0, 0, 1, 0.5, 0.5)" stroke-opacity="0" stroke-linejoin="bevel" stroke-miterlimit="10">100</text><text fill="#444444" stroke="none" font-family="helvetica" font-size="10pt" font-style="normal" font-weight="normal" text-decoration="normal" x="43.95000076293945" y="158.88111877441406" text-anchor="start" dominant-baseline="alphabetic" transform="matrix(1, 0, 0, 1, 0.5, 0.5)">150</text><text fill="none" stroke="rgb(0,0,0)" font-family="helvetica" font-size="10pt" font-style="normal" font-weight="normal" text-decoration="normal" x="43.95000076293945" y="158.88111877441406" text-anchor="start" dominant-baseline="alphabetic" transform="matrix(1, 0, 0, 1, 0.5, 0.5)" stroke-opacity="0" stroke-linejoin="bevel" stroke-miterlimit="10">150</text><text fill="#444444" stroke="none" font-family="helvetica" font-size="10pt" font-style="normal" font-weight="normal" text-decoration="normal" x="43.95000076293945" y="115.1748275756836" text-anchor="start" dominant-baseline="alphabetic" transform="matrix(1, 0, 0, 1, 0.5, 0.5)">200</text><text fill="none" stroke="rgb(0,0,0)" font-family="helvetica" font-size="10pt" font-style="normal" font-weight="normal" text-decoration="normal" x="43.95000076293945" y="115.1748275756836" text-anchor="start" dominant-baseline="alphabetic" transform="matrix(1, 0, 0, 1, 0.5, 0.5)" stroke-opacity="0" stroke-linejoin="bevel" stroke-miterlimit="10">200</text><text fill="#444444" stroke="none" font-family="helvetica" font-size="10pt" font-style="normal" font-weight="normal" text-decoration="normal" x="43.95000076293945" y="71.4685287475586" text-anchor="start" dominant-baseline="alphabetic" transform="matrix(1, 0, 0, 1, 0.5, 0.5)">250</text><text fill="none" stroke="rgb(0,0,0)" font-family="helvetica" font-size="10pt" font-style="normal" font-weight="normal" text-decoration="normal" x="43.95000076293945" y="71.4685287475586" text-anchor="start" dominant-baseline="alphabetic" transform="matrix(1, 0, 0, 1, 0.5, 0.5)" stroke-opacity="0" stroke-linejoin="bevel" stroke-miterlimit="10">250</text><text fill="#444444" stroke="none" font-family="helvetica" font-size="12pt" font-style="normal" font-weight="normal" text-decoration="normal" x="-60.25833511352539" y="156" text-anchor="start" dominant-baseline="alphabetic" transform="matrix(6.123233995736766e-17, -1, 1, 6.123233995736766e-17, -123.54999923706055, 196.45000076293945)">Days suitable for transmission</text><text fill="none" stroke="rgb(0,0,0)" font-family="helvetica" font-size="12pt" font-style="normal" font-weight="normal" text-decoration="normal" x="-60.25833511352539" y="156" text-anchor="start" dominant-baseline="alphabetic" transform="matrix(6.123233995736766e-17, -1, 1, 6.123233995736766e-17, -123.54999923706055, 196.45000076293945)" stroke-opacity="0" stroke-linejoin="bevel" stroke-miterlimit="10">Days suitable for transmission</text><path fill="rgb(255,255,255)" stroke="rgb(229,229,229)" paint-order="fill" d="M 482.0333251953125 210.5 L 565.4999847412109 210.5 L 565.4999847412109 275.5 L 482.0333251953125 275.5 L 482.0333251953125 210.5 Z" fill-opacity="0.9490196078431372" clip-path="url(#fAzyQzNikTGg)" stroke-opacity="0.5019607843137255" stroke-linejoin="bevel" stroke-miterlimit="10"/><g clip-path="url(#fAzyQzNikTGg)"><g transform="matrix(1, 0, 0, 1, 492.5333251953125, 221)"><path fill="none" stroke="#30a2da" paint-order="fill" d="M 0.5 10.5 L 20.5 10.5" stroke-linejoin="bevel" stroke-miterlimit="10" stroke-width="2"/></g></g><g clip-path="url(#fAzyQzNikTGg)"><text fill="#444444" stroke="none" font-family="helvetica" font-size="13px" font-style="normal" font-weight="normal" text-decoration="normal" x="517.5333251953125" y="235.5" text-anchor="start" dominant-baseline="alphabetic" transform="matrix(1, 0, 0, 1, 0.5, 0.5)">ID 001</text></g><g clip-path="url(#fAzyQzNikTGg)"><text fill="none" stroke="rgb(0,0,0)" font-family="helvetica" font-size="13px" font-style="normal" font-weight="normal" text-decoration="normal" x="517.5333251953125" y="235.5" text-anchor="start" dominant-baseline="alphabetic" transform="matrix(1, 0, 0, 1, 0.5, 0.5)" stroke-opacity="0" stroke-linejoin="bevel" stroke-miterlimit="10">ID 001</text></g><g clip-path="url(#fAzyQzNikTGg)"><g transform="matrix(1, 0, 0, 1, 492.5333251953125, 244)"><path fill="none" stroke="#fc4f30" paint-order="fill" d="M 0.5 10.5 L 20.5 10.5" stroke-linejoin="bevel" stroke-miterlimit="10" stroke-width="2"/></g></g><g clip-path="url(#fAzyQzNikTGg)"><text fill="#444444" stroke="none" font-family="helvetica" font-size="13px" font-style="normal" font-weight="normal" text-decoration="normal" x="517.5333251953125" y="258.5" text-anchor="start" dominant-baseline="alphabetic" transform="matrix(1, 0, 0, 1, 0.5, 0.5)">ID 006</text></g><g clip-path="url(#fAzyQzNikTGg)"><text fill="none" stroke="rgb(0,0,0)" font-family="helvetica" font-size="13px" font-style="normal" font-weight="normal" text-decoration="normal" x="517.5333251953125" y="258.5" text-anchor="start" dominant-baseline="alphabetic" transform="matrix(1, 0, 0, 1, 0.5, 0.5)" stroke-opacity="0" stroke-linejoin="bevel" stroke-miterlimit="10">ID 006</text></g><text fill="black" stroke="none" font-family="helvetica" font-size="14pt" font-style="normal" font-weight="normal" text-decoration="normal" x="0" y="18" text-anchor="start" dominant-baseline="alphabetic" transform="matrix(1, 0, 0, 1, 5.5, 7.5)">H. Sydney</text><text fill="none" stroke="rgb(0,0,0)" font-family="helvetica" font-size="14pt" font-style="normal" font-weight="normal" text-decoration="normal" x="0" y="18" text-anchor="start" dominant-baseline="alphabetic" transform="matrix(1, 0, 0, 1, 5.5, 7.5)" stroke-opacity="0" stroke-linejoin="bevel" stroke-miterlimit="10">H. Sydney</text></svg>