<svg version="1.1" xmlns="http://www.w3.org/2000/svg" width="605" height="336"><defs><clipPath id="RnoBfoRVdLWe"><path fill="none" stroke="none" d="M 75.5 35.5 L 575.5 35.5 L 575.5 285.5 L 75.5 285.5 L 75.5 35.5 Z"/></clipPath><clipPath id="zQaETiVMsdvf"><path fill="none" stroke="none" d="M 75.5 35.5 L 575.5 35.5 L 575.5 285.5 L 75.5 285.5 L 75.5 35.5 Z"/></clipPath><clipPath id="epgAiOSHGNmp"><path fill="none" stroke="none" d="M 75.5 35.5 L 575.5 35.5 L 575.5 285.5 L 75.5 285.5 L 75.5 35.5 Z"/></clipPath><clipPath id="iStlunybLyqk"><path fill="none" stroke="none" d="M 75.5 35.5 L 575.5 35.5 L 575.5 285.5 L 75.5 285.5 L 75.5 35.5 Z"/></clipPath><clipPath id="NoGwJaPbSdEe"><path fill="none" stroke="none" d="M 75.5 35.5 L 575.5 35.5 L 575.5 285.5 L 75.5 285.5 L 75.5 35.5 Z"/></clipPath><clipPath id="rEpyBKqlSSyL"><path fill="none" stroke="none" d="M 75.5 35.5 L 575.5 35.5 L 575.5 285.5 L 75.5 285.5 L 75.5 35.5 Z"/></clipPath><clipPath id="itAbmTkmOvbK"><path fill="none" stroke="none" d="M 75.5 35.5 L 575.5 35.5 L 575.5 285.5 L 75.5 285.5 L 75.5 35.5 Z"/></clipPath><clipPath id="OwVyOSqZGPub"><path fill="none" stroke="none" d="M 75.5 35.5 L 575.5 35.5 L 575.5 285.5 L 75.5 285.5 L 75.5 35.5 Z"/></clipPath><clipPath id="FfHdecIEfKXA"><path fill="none" stroke="none" d="M 75.5 35.5 L 575.5 35.5 L 575.5 285.5 L 75.5 285.5 L 75.5 35.5 Z"/></clipPath><clipPath id="WXoinJRKheMV"><path fill="none" stroke="none" d="M 75.5 35.5 L 575.5 35.5 L 575.5 285.5 L 75.5 285.5 L 75.5 35.5 Z"/></clipPath><clipPath id="UZWIuFAJAaQL"><path fill="none" stroke="none" d="M 75.5 35.5 L 575.5 35.5 L 575.5 285.5 L 75.5 285.5 L 75.5 35.5 Z"/></clipPath><clipPath id="yxxGKUdMFVyA"><path fill="none" stroke="none" d="M 75.5 35.5 L 575.5 35.5 L 575.5 285.5 L 75.5 285.5 L 75.5 35.5 Z"/></clipPath><clipPath id="lXfxgLlZAUPz"><path fill="none" stroke="none" d="M 75.5 35.5 L 575.5 35.5 L 575.5 285.5 L 75.5 285.5 L 75.5 35.5 Z"/></clipPath><clipPath id="irdkSRTeJGEH"><path fill="none" stroke="none" d="M 75.5 35.5 L 575.5 35.5 L 575.5 285.5 L 75.5 285.5 L 75.5 35.5 Z"/></clipPath><clipPath id="EgpSLrurNFEP"><path fill="none" stroke="none" d="M 75.5 35.5 L 575.5 35.5 L 575.5 285.5 L 75.5 285.5 L 75.5 35.5 Z"/></clipPath><clipPath id="NXgxIMURTozv"><path fill="none" stroke="none" d="M 75.5 35.5 L 575.5 35.5 L 575.5 285.5 L 75.5 285.5 L 75.5 35.5 Z"/></clipPath><clipPath id="ICDArNlvVOAA"><path fill="none" stroke="none" d="M 75.5 35.5 L 575.5 35.5 L 575.5 285.5 L 75.5 285.5 L 75.5 35.5 Z"/></clipPath><clipPath id="qBhzaEFzMFsy"><path fill="none" stroke="none" d="M 75.5 35.5 L 575.5 35.5 L 575.5 285.5 L 75.5 285.5 L 75.5 35.5 Z"/></clipPath><clipPath id="fXZiNirXfApM"><path fill="none" stroke="none" d="M 75.5 35.5 L 575.5 35.5 L 575.5 285.5 L 75.5 285.5 L 75.5 35.5 Z"/></clipPath><clipPath id="xUaAUeOFOAhK"><path fill="none" stroke="none" d="M 75.5 35.5 L 575.5 35.5 L 575.5 285.5 L 75.5 285.5 L 75.5 35.5 Z"/></clipPath><clipPath id="NXOPnDnXxINf"><path fill="none" stroke="none" d="M 75.5 35.5 L 575.5 35.5 L 575.5 285.5 L 75.5 285.5 L 75.5 35.5 Z"/></clipPath><clipPath id="zqLQBrWHHVID"><path fill="none" stroke="none" d="M 75.5 35.5 L 575.5 35.5 L 575.5 285.5 L 75.5 285.5 L 75.5 35.5 Z"/></clipPath><clipPath id="RoTqgvxUdKBy"><path fill="none" stroke="none" d="M 75.5 35.5 L 575.5 35.5 L 575.5 285.5 L 75.5 285.5 L 75.5 35.5 Z"/></clipPath></defs><path fill="none" stroke="#e5e5e5" paint-order="fill" d="M 75.5 35.5 L 575.5 35.5 L 575.5 285.5 L 75.5 285.5 L 75.5 35.5 Z" stroke-linejoin="bevel" stroke-miterlimit="10"/><path fill="none" stroke="black" paint-order="fill" d="M 337.46172248803487 35.5 L 337.46172248803487 285.5" stroke-linejoin="bevel" stroke-miterlimit="10" stroke-width="3" stroke-dasharray="6" clip-path="url(#epgAiOSHGNmp)"/><path fill="none" stroke="#9467bd" paint-order="fill" d="M 98.2272720336914 91.85436248779297 L 122.15071868896484 86.05658721923828 L 146.07415771484375 95.33302307128906 L 169.9976043701172 93.013916015625 L 193.92105102539062 93.013916015625 L 217.84449768066406 89.53524780273438 L 241.7679443359375 83.73748016357422 L 265.6913757324219 91.85436248779297 L 289.6148376464844 72.14192962646484 L 313.53826904296875 74.4610366821289" stroke-linejoin="bevel" stroke-miterlimit="10" stroke-width="2" clip-path="url(#iStlunybLyqk)"/><path fill="none" stroke="#9467bd" paint-order="fill" d="M 98.2272720336914 95.35411071777344 L 122.15071868896484 93.51990509033203 L 146.07415771484375 91.68569946289062 L 169.9976043701172 89.85149383544922 L 193.92105102539062 88.01728820800781 L 217.84449768066406 86.1830825805664 L 241.7679443359375 84.348876953125 L 265.6913757324219 82.5146713256836 L 289.6148376464844 80.68046569824219 L 313.53826904296875 78.84626770019531" stroke-linejoin="bevel" stroke-miterlimit="10" stroke-width="2" stroke-dasharray="6" clip-path="url(#NoGwJaPbSdEe)"/><path fill="none" stroke="#30a2da" paint-order="fill" d="M 313.53826904296875 74.4610366821289 L 337.46173095703125 72.14192962646484 L 361.3851623535156 75.62059020996094 L 385.3086242675781 69.82282257080078 L 409.2320556640625 74.4610366821289 L 433.155517578125 84.89703369140625 L 457.0789489746094 91.85436248779297 L 481.00238037109375 84.89703369140625 L 504.92584228515625 68.66326904296875 L 528.8493041992188 90.69480895996094 L 552.772705078125 96.4925765991211" stroke-linejoin="bevel" stroke-miterlimit="10" stroke-width="2" clip-path="url(#rEpyBKqlSSyL)"/><path fill="none" stroke="#30a2da" paint-order="fill" d="M 337.46173095703125 71.21428680419922 L 361.3851623535156 73.3787841796875 L 385.3086242675781 75.54328918457031 L 409.2320556640625 77.70779418945312 L 433.155517578125 79.8722915649414 L 457.0789489746094 82.03679656982422 L 481.00238037109375 84.20130157470703 L 504.92584228515625 86.36579895019531 L 528.8493041992188 88.53030395507812 L 552.772705078125 90.69480895996094" stroke-linejoin="bevel" stroke-miterlimit="10" stroke-width="2" stroke-dasharray="6" clip-path="url(#itAbmTkmOvbK)"/><path fill="none" stroke="#fc4f30" paint-order="fill" d="M 313.53826904296875 74.4610366821289 L 337.46173095703125 95.33302307128906 L 361.3851623535156 101.13079833984375 L 385.3086242675781 90.69480895996094 L 409.2320556640625 80.2588119506836 L 433.155517578125 69.82282257080078 L 457.0789489746094 83.73748016357422 L 481.00238037109375 77.93970489501953 L 504.92584228515625 84.89703369140625 L 528.8493041992188 103.44990539550781 L 552.772705078125 95.33302307128906" stroke-linejoin="bevel" stroke-miterlimit="10" stroke-width="2" clip-path="url(#OwVyOSqZGPub)"/><path fill="none" stroke="#fc4f30" paint-order="fill" d="M 337.46173095703125 88.41786193847656 L 361.3851623535156 88.38272094726562 L 385.3086242675781 88.34758758544922 L 409.2320556640625 88.31244659423828 L 433.155517578125 88.27730560302734 L 457.0789489746094 88.24217224121094 L 481.00238037109375 88.20703125 L 504.92584228515625 88.1718978881836 L 528.8493041992188 88.13675689697266 L 552.772705078125 88.10161590576172" stroke-linejoin="bevel" stroke-miterlimit="10" stroke-width="2" stroke-dasharray="6" clip-path="url(#FfHdecIEfKXA)"/><path fill="none" stroke="rgb(128,128,128)" paint-order="fill" d="M 98.2272720336914 84.89703369140625 L 122.15071868896484 96.4925765991211 L 146.07415771484375 88.37569427490234 L 169.9976043701172 81.41836547851562 L 193.92105102539062 101.13079833984375 L 217.84449768066406 79.09925842285156 L 241.7679443359375 87.21614074707031 L 265.6913757324219 79.09925842285156 L 289.6148376464844 98.81169128417969 L 313.53826904296875 98.81169128417969" stroke-opacity="0.7490196078431373" stroke-linejoin="bevel" stroke-miterlimit="10" clip-path="url(#WXoinJRKheMV)"/><path fill="none" stroke="grey" paint-order="fill" d="M 313.53826904296875 98.81169128417969 L 337.46173095703125 87.21614074707031 L 361.3851623535156 84.89703369140625 L 385.3086242675781 79.09925842285156 L 409.2320556640625 76.7801513671875 L 433.155517578125 91.85436248779297 L 457.0789489746094 81.41836547851562 L 481.00238037109375 91.85436248779297 L 504.92584228515625 73.30148315429688 L 528.8493041992188 80.2588119506836 L 552.772705078125 75.62059020996094" stroke-linejoin="bevel" stroke-miterlimit="10" stroke-width="0.5" clip-path="url(#UZWIuFAJAaQL)"/><path fill="none" stroke="grey" paint-order="fill" d="M 313.53826904296875 98.81169128417969 L 337.46173095703125 65.18460083007812 L 361.3851623535156 68.66326904296875 L 385.3086242675781 81.41836547851562 L 409.2320556640625 73.30148315429688 L 433.155517578125 74.4610366821289 L 457.0789489746094 70.98237609863281 L 481.00238037109375 70.98237609863281 L 504.92584228515625 70.98237609863281 L 528.8493041992188 80.2588119506836 L 552.772705078125 81.41836547851562" stroke-linejoin="bevel" stroke-miterlimit="10" stroke-width="0.5" clip-path="url(#yxxGKUdMFVyA)"/><path fill="none" stroke="rgb(128,128,128)" paint-order="fill" d="M 98.2272720336914 75.62059020996094 L 122.15071868896484 75.62059020996094 L 146.07415771484375 74.4610366821289 L 169.9976043701172 82.57791900634766 L 193.92105102539062 74.4610366821289 L 217.84449768066406 82.57791900634766 L 241.7679443359375 72.14192962646484 L 265.6913757324219 61.705936431884766 L 289.6148376464844 69.82282257080078 L 313.53826904296875 84.89703369140625" stroke-opacity="0.7490196078431373" stroke-linejoin="bevel" stroke-miterlimit="10" clip-path="url(#lXfxgLlZAUPz)"/><path fill="none" stroke="grey" paint-order="fill" d="M 313.53826904296875 84.89703369140625 L 337.46173095703125 79.09925842285156 L 361.3851623535156 80.2588119506836 L 385.3086242675781 91.85436248779297 L 409.2320556640625 82.57791900634766 L 433.155517578125 87.21614074707031 L 457.0789489746094 87.21614074707031 L 481.00238037109375 88.37569427490234 L 504.92584228515625 83.73748016357422 L 528.8493041992188 79.09925842285156 L 552.772705078125 97.65213012695312" stroke-linejoin="bevel" stroke-miterlimit="10" stroke-width="0.5" clip-path="url(#irdkSRTeJGEH)"/><path fill="none" stroke="grey" paint-order="fill" d="M 313.53826904296875 84.89703369140625 L 337.46173095703125 77.93970489501953 L 361.3851623535156 81.41836547851562 L 385.3086242675781 96.4925765991211 L 409.2320556640625 76.7801513671875 L 433.155517578125 94.17346954345703 L 457.0789489746094 82.57791900634766 L 481.00238037109375 91.85436248779297 L 504.92584228515625 74.4610366821289 L 528.8493041992188 83.73748016357422 L 552.772705078125 88.37569427490234" stroke-linejoin="bevel" stroke-miterlimit="10" stroke-width="0.5" clip-path="url(#EgpSLrurNFEP)"/><path fill="none" stroke="rgb(128,128,128)" paint-order="fill" d="M 98.2272720336914 62.8654899597168 L 122.15071868896484 81.41836547851562 L 146.07415771484375 64.0250473022461 L 169.9976043701172 80.2588119506836 L 193.92105102539062 83.73748016357422 L 217.84449768066406 76.7801513671875 L 241.7679443359375 76.7801513671875 L 265.6913757324219 80.2588119506836 L 289.6148376464844 81.41836547851562 L 313.53826904296875 75.62059020996094" stroke-opacity="0.7490196078431373" stroke-linejoin="bevel" stroke-miterlimit="10" clip-path="url(#NXgxIMURTozv)"/><path fill="none" stroke="grey" paint-order="fill" d="M 313.53826904296875 75.62059020996094 L 337.46173095703125 82.57791900634766 L 361.3851623535156 88.37569427490234 L 385.3086242675781 93.013916015625 L 409.2320556640625 82.57791900634766 L 433.155517578125 77.93970489501953 L 457.0789489746094 77.93970489501953 L 481.00238037109375 75.62059020996094 L 504.92584228515625 74.4610366821289 L 528.8493041992188 74.4610366821289 L 552.772705078125 76.7801513671875" stroke-linejoin="bevel" stroke-miterlimit="10" stroke-width="0.5" clip-path="url(#ICDArNlvVOAA)"/><path fill="none" stroke="grey" paint-order="fill" d="M 313.53826904296875 75.62059020996094 L 337.46173095703125 89.53524780273438 L 361.3851623535156 69.82282257080078 L 385.3086242675781 74.4610366821289 L 409.2320556640625 88.37569427490234 L 433.155517578125 86.05658721923828 L 457.0789489746094 84.89703369140625 L 481.00238037109375 90.69480895996094 L 504.92584228515625 83.73748016357422 L 528.8493041992188 84.89703369140625 L 552.772705078125 81.41836547851562" stroke-linejoin="bevel" stroke-miterlimit="10" stroke-width="0.5" clip-path="url(#qBhzaEFzMFsy)"/><path fill="none" stroke="rgb(128,128,128)" paint-order="fill" d="M 98.2272720336914 83.73748016357422 L 122.15071868896484 84.89703369140625 L 146.07415771484375 69.82282257080078 L 169.9976043701172 81.41836547851562 L 193.92105102539062 76.7801513671875 L 217.84449768066406 84.89703369140625 L 241.7679443359375 76.7801513671875 L 265.6913757324219 88.37569427490234 L 289.6148376464844 69.82282257080078 L 313.53826904296875 77.93970489501953" stroke-opacity="0.7490196078431373" stroke-linejoin="bevel" stroke-miterlimit="10" clip-path="url(#fXZiNirXfApM)"/><path fill="none" stroke="grey" paint-order="fill" d="M 313.53826904296875 77.93970489501953 L 337.46173095703125 83.73748016357422 L 361.3851623535156 88.37569427490234 L 385.3086242675781 83.73748016357422 L 409.2320556640625 82.57791900634766 L 433.155517578125 88.37569427490234 L 457.0789489746094 77.93970489501953 L 481.00238037109375 58.227272033691406 L 504.92584228515625 75.62059020996094 L 528.8493041992188 90.69480895996094 L 552.772705078125 87.21614074707031" stroke-linejoin="bevel" stroke-miterlimit="10" stroke-width="0.5" clip-path="url(#xUaAUeOFOAhK)"/><path fill="none" stroke="grey" paint-order="fill" d="M 313.53826904296875 77.93970489501953 L 337.46173095703125 67.50370788574219 L 361.3851623535156 89.53524780273438 L 385.3086242675781 75.62059020996094 L 409.2320556640625 64.0250473022461 L 433.155517578125 86.05658721923828 L 457.0789489746094 93.013916015625 L 481.00238037109375 83.73748016357422 L 504.92584228515625 86.05658721923828 L 528.8493041992188 70.98237609863281 L 552.772705078125 91.85436248779297" stroke-linejoin="bevel" stroke-miterlimit="10" stroke-width="0.5" clip-path="url(#NXOPnDnXxINf)"/><path fill="none" stroke="black" paint-order="fill" d="M 75.5 285.5 L 575.5 285.5" stroke-linejoin="bevel" stroke-miterlimit="10"/><path fill="none" stroke="black" paint-order="fill" d="M 98.5 291.5 L 98.5 283.5 M 217.5 291.5 L 217.5 283.5 M 337.5 291.5 L 337.5 283.5 M 457.5 291.5 L 457.5 283.5" stroke-linejoin="bevel" stroke-miterlimit="10"/><path fill="none" stroke="black" paint-order="fill" d="M 98.5 289.5 L 98.5 285.5 M 122.5 289.5 L 122.5 285.5 M 146.5 289.5 L 146.5 285.5 M 169.5 289.5 L 169.5 285.5 M 193.5 289.5 L 193.5 285.5 M 217.5 289.5 L 217.5 285.5 M 241.5 289.5 L 241.5 285.5 M 265.5 289.5 L 265.5 285.5 M 289.5 289.5 L 289.5 285.5 M 313.5 289.5 L 313.5 285.5 M 337.5 289.5 L 337.5 285.5 M 361.5 289.5 L 361.5 285.5 M 385.5 289.5 L 385.5 285.5 M 409.5 289.5 L 409.5 285.5 M 433.5 289.5 L 433.5 285.5 M 457.5 289.5 L 457.5 285.5 M 481.5 289.5 L 481.5 285.5 M 504.5 289.5 L 504.5 285.5 M 528.5 289.5 L 528.5 285.5 M 552.5 289.5 L 552.5 285.5" stroke-linejoin="bevel" stroke-miterlimit="10"/><text fill="#444444" stroke="none" font-family="helvetica" font-size="10pt" font-style="normal" font-weight="normal" text-decoration="normal" x="84.36060523986816" y="306" text-anchor="start" dominant-baseline="alphabetic" transform="matrix(1, 0, 0, 1, 0.5, 0.5)">2025</text><text fill="none" stroke="rgb(0,0,0)" font-family="helvetica" font-size="10pt" font-style="normal" font-weight="normal" text-decoration="normal" x="84.36060523986816" y="306" text-anchor="start" dominant-baseline="alphabetic" transform="matrix(1, 0, 0, 1, 0.5, 0.5)" stroke-opacity="0" stroke-linejoin="bevel" stroke-miterlimit="10">2025</text><text fill="#444444" stroke="none" font-family="helvetica" font-size="10pt" font-style="normal" font-weight="normal" text-decoration="normal" x="203.97783088684082" y="306" text-anchor="start" dominant-baseline="alphabetic" transform="matrix(1, 0, 0, 1, 0.5, 0.5)">2030</text><text fill="none" stroke="rgb(0,0,0)" font-family="helvetica" font-size="10pt" font-style="normal" font-weight="normal" text-decoration="normal" x="203.97783088684082" y="306" text-anchor="start" dominant-baseline="alphabetic" transform="matrix(1, 0, 0, 1, 0.5, 0.5)" stroke-opacity="0" stroke-linejoin="bevel" stroke-miterlimit="10">2030</text><text fill="#444444" stroke="none" font-family="helvetica" font-size="10pt" font-style="normal" font-weight="normal" text-decoration="normal" x="323.595064163208" y="306" text-anchor="start" dominant-baseline="alphabetic" transform="matrix(1, 0, 0, 1, 0.5, 0.5)">2035</text><text fill="none" stroke="rgb(0,0,0)" font-family="helvetica" font-size="10pt" font-style="normal" font-weight="normal" text-decoration="normal" x="323.595064163208" y="306" text-anchor="start" dominant-baseline="alphabetic" transform="matrix(1, 0, 0, 1, 0.5, 0.5)" stroke-opacity="0" stroke-linejoin="bevel" stroke-miterlimit="10">2035</text><text fill="#444444" stroke="none" font-family="helvetica" font-size="10pt" font-style="normal" font-weight="normal" text-decoration="normal" x="443.21228218078613" y="306" text-anchor="start" dominant-baseline="alphabetic" transform="matrix(1, 0, 0, 1, 0.5, 0.5)">2040</text><text fill="none" stroke="rgb(0,0,0)" font-family="helvetica" font-size="10pt" font-style="normal" font-weight="normal" text-decoration="normal" x="443.21228218078613" y="306" text-anchor="start" dominant-baseline="alphabetic" transform="matrix(1, 0, 0, 1, 0.5, 0.5)" stroke-opacity="0" stroke-linejoin="bevel" stroke-miterlimit="10">2040</text><text fill="#444444" stroke="none" font-family="helvetica" font-size="12pt" font-style="normal" font-weight="normal" text-decoration="normal" x="310.3166666030884" y="329" text-anchor="start" dominant-baseline="alphabetic" transform="matrix(1, 0, 0, 1, 0.5, 0.5)">Year</text><text fill="none" stroke="rgb(0,0,0)" font-family="helvetica" font-size="12pt" font-style="normal" font-weight="normal" text-decoration="normal" x="310.3166666030884" y="329" text-anchor="start" dominant-baseline="alphabetic" transform="matrix(1, 0, 0, 1, 0.5, 0.5)" stroke-opacity="0" stroke-linejoin="bevel" stroke-miterlimit="10">Year</text><path fill="none" stroke="black" paint-order="fill" d="M 75.5 285.5 L 75.5 35.5" stroke-linejoin="bevel" stroke-miterlimit="10"/><path fill="none" stroke="black" paint-order="fill" d="M 69.5 285.5 L 77.5 285.5 M 69.5 227.5 L 77.5 227.5 M 69.5 169.5 L 77.5 169.5 M 69.5 111.5 L 77.5 111.5 M 69.5 53.5 L 77.5 53.5" stroke-linejoin="bevel" stroke-miterlimit="10"/><path fill="none" stroke="black" paint-order="fill" d="M 71.5 285.5 L 75.5 285.5 M 71.5 273.5 L 75.5 273.5 M 71.5 262.5 L 75.5 262.5 M 71.5 250.5 L 75.5 250.5 M 71.5 239.5 L 75.5 239.5 M 71.5 227.5 L 75.5 227.5 M 71.5 215.5 L 75.5 215.5 M 71.5 204.5 L 75.5 204.5 M 71.5 192.5 L 75.5 192.5 M 71.5 181.5 L 75.5 181.5 M 71.5 169.5 L 75.5 169.5 M 71.5 157.5 L 75.5 157.5 M 71.5 146.5 L 75.5 146.5 M 71.5 134.5 L 75.5 134.5 M 71.5 123.5 L 75.5 123.5 M 71.5 111.5 L 75.5 111.5 M 71.5 99.5 L 75.5 99.5 M 71.5 88.5 L 75.5 88.5 M 71.5 76.5 L 75.5 76.5 M 71.5 65.5 L 75.5 65.5 M 71.5 53.5 L 75.5 53.5 M 71.5 41.5 L 75.5 41.5" stroke-linejoin="bevel" stroke-miterlimit="10"/><text fill="#444444" stroke="none" font-family="helvetica" font-size="10pt" font-style="normal" font-weight="normal" text-decoration="normal" x="57.31666660308838" y="290" text-anchor="start" dominant-baseline="alphabetic" transform="matrix(1, 0, 0, 1, 0.5, 0.5)">0</text><text fill="none" stroke="rgb(0,0,0)" font-family="helvetica" font-size="10pt" font-style="normal" font-weight="normal" text-decoration="normal" x="57.31666660308838" y="290" text-anchor="start" dominant-baseline="alphabetic" transform="matrix(1, 0, 0, 1, 0.5, 0.5)" stroke-opacity="0" stroke-linejoin="bevel" stroke-miterlimit="10">0</text><text fill="#444444" stroke="none" font-family="helvetica" font-size="10pt" font-style="normal" font-weight="normal" text-decoration="normal" x="50.63333320617676" y="232.0222625732422" text-anchor="start" dominant-baseline="alphabetic" transform="matrix(1, 0, 0, 1, 0.5, 0.5)">50</text><text fill="none" stroke="rgb(0,0,0)" font-family="helvetica" font-size="10pt" font-style="normal" font-weight="normal" text-decoration="normal" x="50.63333320617676" y="232.0222625732422" text-anchor="start" dominant-baseline="alphabetic" transform="matrix(1, 0, 0, 1, 0.5, 0.5)" stroke-opacity="0" stroke-linejoin="bevel" stroke-miterlimit="10">50</text><text fill="#444444" stroke="none" font-family="helvetica" font-size="10pt" font-style="normal" font-weight="normal" text-decoration="normal" x="43.95000076293945" y="174.04452514648438" text-anchor="start" dominant-baseline="alphabetic" transform="matrix(1, 0, 0, 1, 0.5, 0.5)">100</text><text fill="none" stroke="rgb(0,0,0)" font-family="helvetica" font-size="10pt" font-style="normal" font-weight="normal" text-decoration="normal" x="43.95000076293945" y="174.04452514648438" text-anchor="start" dominant-baseline="alphabetic" transform="matrix(1, 0, 0, 1, 0.5, 0.5)" stroke-opacity="0" stroke-linejoin="bevel" stroke-miterlimit="10">100</text><text fill="#444444" stroke="none" font-family="helvetica" font-size="10pt" font-style="normal" font-weight="normal" text-decoration="normal" x="43.95000076293945" y="116.06678771972656" text-anchor="start" dominant-baseline="alphabetic" transform="matrix(1, 0, 0, 1, 0.5, 0.5)">150</text><text fill="none" stroke="rgb(0,0,0)" font-family="helvetica" font-size="10pt" font-style="normal" font-weight="normal" text-decoration="normal" x="43.95000076293945" y="116.06678771972656" text-anchor="start" dominant-baseline="alphabetic" transform="matrix(1, 0, 0, 1, 0.5, 0.5)" stroke-opacity="0" stroke-linejoin="bevel" stroke-miterlimit="10">150</text><text fill="#444444" stroke="none" font-family="helvetica" font-size="10pt" font-style="normal" font-weight="normal" text-decoration="normal" x="43.95000076293945" y="58.089054107666016" text-anchor="start" dominant-baseline="alphabetic" transform="matrix(1, 0, 0, 1, 0.5, 0.5)">200</text><text fill="none" stroke="rgb(0,0,0)" font-family="helvetica" font-size="10pt" font-style="normal" font-weight="normal" text-decoration="normal" x="43.95000076293945" y="58.089054107666016" text-anchor="start" dominant-baseline="alphabetic" transform="matrix(1, 0, 0, 1, 0.5, 0.5)" stroke-opacity="0" stroke-linejoin="bevel" stroke-miterlimit="10">200</text><text fill="#444444" stroke="none" font-family="helvetica" font-size="12pt" font-style="normal" font-weight="normal" text-decoration="normal" x="-60.25833511352539" y="156" text-anchor="start" dominant-baseline="alphabetic" transform="matrix(6.123233995736766e-17, -1, 1, 6.123233995736766e-17, -123.54999923706055, 196.45000076293945)">Days suitable for transmission</text><text fill="none" stroke="rgb(0,0,0)" font-family="helvetica" font-size="12pt" font-style="normal" font-weight="normal" text-decoration="normal" x="-60.25833511352539" y="156" text-anchor="start" dominant-baseline="alphabetic" transform="matrix(6.123233995736766e-17, -1, 1, 6.123233995736766e-17, -123.54999923706055, 196.45000076293945)" stroke-opacity="0" stroke-linejoin="bevel" stroke-miterlimit="10">Days suitable for transmission</text><path fill="rgb(255,255,255)" stroke="rgb(229,229,229)" paint-order="fill" d="M 482.0333251953125 210.5 L 565.4999847412109 210.5 L 565.4999847412109 275.5 L 482.0333251953125 275.5 L 482.0333251953125 210.5 Z" fill-opacity="0.9490196078431372" clip-path="url(#zqLQBrWHHVID)" stroke-opacity="0.5019607843137255" stroke-linejoin="bevel" stroke-miterlimit="10"/><g clip-path="url(#zqLQBrWHHVID)"><g transform="matrix(1, 0, 0, 1, 492.5333251953125, 221)"><path fill="none" stroke="#30a2da" paint-order="fill" d="M 0.5 10.5 L 20.5 10.5" stroke-linejoin="bevel" stroke-miterlimit="10" stroke-width="2"/></g></g><g clip-path="url(#zqLQBrWHHVID)"><text fill="#444444" stroke="none" font-family="helvetica" font-size="13px" font-style="normal" font-weight="normal" text-decoration="normal" x="517.5333251953125" y="235.5" text-anchor="start" dominant-baseline="alphabetic" transform="matrix(1, 0, 0, 1, 0.5, 0.5)">ID 001</text></g><g clip-path="url(#zqLQBrWHHVID)"><text fill="none" stroke="rgb(0,0,0)" font-family="helvetica" font-size="13px" font-style="normal" font-weight="normal" text-decoration="normal" x="517.5333251953125" y="235.5" text-anchor="start" dominant-baseline="alphabetic" transform="matrix(1, 0, 0, 1, 0.5, 0.5)" stroke-opacity="0" stroke-linejoin="bevel" stroke-miterlimit="10">ID 001</text></g><g clip-path="url(#zqLQBrWHHVID)"><g transform="matrix(1, 0, 0, 1, 492.5333251953125, 244)"><path fill="none" stroke="#fc4f30" paint-order="fill" d="M 0.5 10.5 L 20.5 10.5" stroke-linejoin="bevel" stroke-miterlimit="10" stroke-width="2"/></g></g><g clip-path="url(#zqLQBrWHHVID)"><text fill="#444444" stroke="none" font-family="helvetica" font-size="13px" font-style="normal" font-weight="normal" text-decoration="normal" x="517.5333251953125" y="258.5" text-anchor="start" dominant-baseline="alphabetic" transform="matrix(1, 0, 0, 1, 0.5, 0.5)">ID 006</text></g><g clip-path="url(#zqLQBrWHHVID)"><text fill="none" stroke="rgb(0,0,0)" font-family="helvetica" font-size="13px" font-style="normal" font-weight="normal" text-decoration="normal" x="517.5333251953125" y="258.5" text-anchor="start" dominant-baseline="alphabetic" transform="matrix(1, 0, 0, 1, 0.5, 0.5)" stroke-opacity="0" stroke-linejoin="bevel" stroke-miterlimit="10">ID 006</text></g><text fill="black" stroke="none" font-family="helvetica" font-size="14pt" font-style="normal" font-weight="normal" text-decoration="normal" x="0" y="18" text-anchor="start" dominant-baseline="alphabetic" transform="matrix(1, 0, 0, 1, 5.5, 7.5)">G. Tokyo</text><text fill="none" stroke="rgb(0,0,0)" font-family="helvetica" font-size="14pt" font-style="normal" font-weight="normal" text-decoration="normal" x="0" y="18" text-anchor="start" dominant-baseline="alphabetic" transform="matrix(1, 0, 0, 1, 5.5, 7.5)" stroke-opacity="0" stroke-linejoin="bevel" stroke-miterlimit="10">G. Tokyo</text></svg>