<svg version="1.1" xmlns="http://www.w3.org/2000/svg" width="605" height="336"><defs><clipPath id="cEqwWFkhDDmw"><path fill="none" stroke="none" d="M 75.5 35.5 L 575.5 35.5 L 575.5 285.5 L 75.5 285.5 L 75.5 35.5 Z"/></clipPath><clipPath id="LafxXszpTxus"><path fill="none" stroke="none" d="M 75.5 35.5 L 575.5 35.5 L 575.5 285.5 L 75.5 285.5 L 75.5 35.5 Z"/></clipPath><clipPath id="AzbVTRDvBfhv"><path fill="none" stroke="none" d="M 75.5 35.5 L 575.5 35.5 L 575.5 285.5 L 75.5 285.5 L 75.5 35.5 Z"/></clipPath><clipPath id="iCBrrzTIopEn"><path fill="none" stroke="none" d="M 75.5 35.5 L 575.5 35.5 L 575.5 285.5 L 75.5 285.5 L 75.5 35.5 Z"/></clipPath><clipPath id="dFSDqxfOrhWz"><path fill="none" stroke="none" d="M 75.5 35.5 L 575.5 35.5 L 575.5 285.5 L 75.5 285.5 L 75.5 35.5 Z"/></clipPath><clipPath id="yoHnbaKVzFtF"><path fill="none" stroke="none" d="M 75.5 35.5 L 575.5 35.5 L 575.5 285.5 L 75.5 285.5 L 75.5 35.5 Z"/></clipPath><clipPath id="UkOFFWShSvwx"><path fill="none" stroke="none" d="M 75.5 35.5 L 575.5 35.5 L 575.5 285.5 L 75.5 285.5 L 75.5 35.5 Z"/></clipPath><clipPath id="xVLIMdIuQPZu"><path fill="none" stroke="none" d="M 75.5 35.5 L 575.5 35.5 L 575.5 285.5 L 75.5 285.5 L 75.5 35.5 Z"/></clipPath><clipPath id="cFAwktWvpFAN"><path fill="none" stroke="none" d="M 75.5 35.5 L 575.5 35.5 L 575.5 285.5 L 75.5 285.5 L 75.5 35.5 Z"/></clipPath><clipPath id="vCDaTEuVzVLt"><path fill="none" stroke="none" d="M 75.5 35.5 L 575.5 35.5 L 575.5 285.5 L 75.5 285.5 L 75.5 35.5 Z"/></clipPath><clipPath id="EbzxXmQsyRFh"><path fill="none" stroke="none" d="M 75.5 35.5 L 575.5 35.5 L 575.5 285.5 L 75.5 285.5 L 75.5 35.5 Z"/></clipPath><clipPath id="fTfZAwXPuNKQ"><path fill="none" stroke="none" d="M 75.5 35.5 L 575.5 35.5 L 575.5 285.5 L 75.5 285.5 L 75.5 35.5 Z"/></clipPath><clipPath id="eGAquEADhHZK"><path fill="none" stroke="none" d="M 75.5 35.5 L 575.5 35.5 L 575.5 285.5 L 75.5 285.5 L 75.5 35.5 Z"/></clipPath><clipPath id="JsMLCltMXquF"><path fill="none" stroke="none" d="M 75.5 35.5 L 575.5 35.5 L 575.5 285.5 L 75.5 285.5 L 75.5 35.5 Z"/></clipPath><clipPath id="BoaHdgpDQNsx"><path fill="none" stroke="none" d="M 75.5 35.5 L 575.5 35.5 L 575.5 285.5 L 75.5 285.5 L 75.5 35.5 Z"/></clipPath><clipPath id="VACttbIBKgZu"><path fill="none" stroke="none" d="M 75.5 35.5 L 575.5 35.5 L 575.5 285.5 L 75.5 285.5 L 75.5 35.5 Z"/></clipPath><clipPath id="ObiuWfhncpnc"><path fill="none" stroke="none" d="M 75.5 35.5 L 575.5 35.5 L 575.5 285.5 L 75.5 285.5 L 75.5 35.5 Z"/></clipPath><clipPath id="hFbMCnSKVKOz"><path fill="none" stroke="none" d="M 75.5 35.5 L 575.5 35.5 L 575.5 285.5 L 75.5 285.5 L 75.5 35.5 Z"/></clipPath><clipPath id="hRibmlLewVGc"><path fill="none" stroke="none" d="M 75.5 35.5 L 575.5 35.5 L 575.5 285.5 L 75.5 285.5 L 75.5 35.5 Z"/></clipPath><clipPath id="KwgmtoQuEUzz"><path fill="none" stroke="none" d="M 75.5 35.5 L 575.5 35.5 L 575.5 285.5 L 75.5 285.5 L 75.5 35.5 Z"/></clipPath><clipPath id="KQknocZfTrwA"><path fill="none" stroke="none" d="M 75.5 35.5 L 575.5 35.5 L 575.5 285.5 L 75.5 285.5 L 75.5 35.5 Z"/></clipPath><clipPath id="qxmaqpVJDhQJ"><path fill="none" stroke="none" d="M 75.5 35.5 L 575.5 35.5 L 575.5 285.5 L 75.5 285.5 L 75.5 35.5 Z"/></clipPath><clipPath id="MbIpOoQPFzSe"><path fill="none" stroke="none" d="M 75.5 35.5 L 575.5 35.5 L 575.5 285.5 L 75.5 285.5 L 75.5 35.5 Z"/></clipPath></defs><path fill="none" stroke="#e5e5e5" paint-order="fill" d="M 75.5 35.5 L 575.5 35.5 L 575.5 285.5 L 75.5 285.5 L 75.5 35.5 Z" stroke-linejoin="bevel" stroke-miterlimit="10"/><path fill="none" stroke="black" paint-order="fill" d="M 337.46172248803487 35.5 L 337.46172248803487 285.5" stroke-linejoin="bevel" stroke-miterlimit="10" stroke-width="3" stroke-dasharray="6" clip-path="url(#AzbVTRDvBfhv)"/><path fill="none" stroke="#9467bd" paint-order="fill" d="M 98.2272720336914 110.2841567993164 L 122.15071868896484 83.6208724975586 L 146.07415771484375 92.50863647460938 L 169.9976043701172 102.66607666015625 L 193.92105102539062 88.69959259033203 L 217.84449768066406 92.50863647460938 L 241.7679443359375 97.58735656738281 L 265.6913757324219 101.39639282226562 L 289.6148376464844 83.6208724975586 L 313.53826904296875 101.39639282226562" stroke-linejoin="bevel" stroke-miterlimit="10" stroke-width="2" clip-path="url(#iCBrrzTIopEn)"/><path fill="none" stroke="#9467bd" paint-order="fill" d="M 98.2272720336914 96.71012115478516 L 122.15071868896484 96.42540740966797 L 146.07415771484375 96.14068603515625 L 169.9976043701172 95.85597229003906 L 193.92105102539062 95.57125854492188 L 217.84449768066406 95.28653717041016 L 241.7679443359375 95.00182342529297 L 265.6913757324219 94.71710968017578 L 289.6148376464844 94.43238830566406 L 313.53826904296875 94.14767456054688" stroke-linejoin="bevel" stroke-miterlimit="10" stroke-width="2" stroke-dasharray="6" clip-path="url(#dFSDqxfOrhWz)"/><path fill="none" stroke="#30a2da" paint-order="fill" d="M 313.53826904296875 101.39639282226562 L 337.46173095703125 92.50863647460938 L 361.3851623535156 81.08151245117188 L 385.3086242675781 97.58735656738281 L 409.2320556640625 110.2841567993164 L 433.155517578125 96.31767272949219 L 457.0789489746094 70.924072265625 L 481.00238037109375 98.8570327758789 L 504.92584228515625 73.46343231201172 L 528.8493041992188 98.8570327758789 L 552.772705078125 79.81183624267578" stroke-linejoin="bevel" stroke-miterlimit="10" stroke-width="2" clip-path="url(#yoHnbaKVzFtF)"/><path fill="none" stroke="#30a2da" paint-order="fill" d="M 337.46173095703125 94.609375 L 361.3851623535156 93.57823944091797 L 385.3086242675781 92.54711151123047 L 409.2320556640625 91.51597595214844 L 433.155517578125 90.4848403930664 L 457.0789489746094 89.45370483398438 L 481.00238037109375 88.42256927490234 L 504.92584228515625 87.39144134521484 L 528.8493041992188 86.36030578613281 L 552.772705078125 85.32917022705078" stroke-linejoin="bevel" stroke-miterlimit="10" stroke-width="2" stroke-dasharray="6" clip-path="url(#UkOFFWShSvwx)"/><path fill="none" stroke="#fc4f30" paint-order="fill" d="M 313.53826904296875 101.39639282226562 L 337.46173095703125 81.08151245117188 L 361.3851623535156 67.11503601074219 L 385.3086242675781 93.77831268310547 L 409.2320556640625 95.0479965209961 L 433.155517578125 91.23895263671875 L 457.0789489746094 110.2841567993164 L 481.00238037109375 88.69959259033203 L 504.92584228515625 96.31767272949219 L 528.8493041992188 88.69959259033203 L 552.772705078125 115.36287689208984" stroke-linejoin="bevel" stroke-miterlimit="10" stroke-width="2" clip-path="url(#xVLIMdIuQPZu)"/><path fill="none" stroke="#fc4f30" paint-order="fill" d="M 337.46173095703125 79.88108825683594 L 361.3851623535156 82.74363708496094 L 385.3086242675781 85.60619354248047 L 409.2320556640625 88.46874237060547 L 433.155517578125 91.33129119873047 L 457.0789489746094 94.19384765625 L 481.00238037109375 97.056396484375 L 504.92584228515625 99.9189453125 L 528.8493041992188 102.78150177001953 L 552.772705078125 105.64405059814453" stroke-linejoin="bevel" stroke-miterlimit="10" stroke-width="2" stroke-dasharray="6" clip-path="url(#cFAwktWvpFAN)"/><path fill="none" stroke="rgb(128,128,128)" paint-order="fill" d="M 98.2272720336914 105.20543670654297 L 122.15071868896484 70.924072265625 L 146.07415771484375 84.89055633544922 L 169.9976043701172 70.924072265625 L 193.92105102539062 98.8570327758789 L 217.84449768066406 93.77831268310547 L 241.7679443359375 67.11503601074219 L 265.6913757324219 79.81183624267578 L 289.6148376464844 69.6543960571289 L 313.53826904296875 73.46343231201172" stroke-opacity="0.7490196078431373" stroke-linejoin="bevel" stroke-miterlimit="10" clip-path="url(#vCDaTEuVzVLt)"/><path fill="none" stroke="grey" paint-order="fill" d="M 313.53826904296875 73.46343231201172 L 337.46173095703125 76.00279235839844 L 361.3851623535156 70.924072265625 L 385.3086242675781 105.20543670654297 L 409.2320556640625 63.305992126464844 L 433.155517578125 73.46343231201172 L 457.0789489746094 114.09319305419922 L 481.00238037109375 91.23895263671875 L 504.92584228515625 91.23895263671875 L 528.8493041992188 83.6208724975586 L 552.772705078125 100.12671661376953" stroke-linejoin="bevel" stroke-miterlimit="10" stroke-width="0.5" clip-path="url(#EbzxXmQsyRFh)"/><path fill="none" stroke="grey" paint-order="fill" d="M 313.53826904296875 73.46343231201172 L 337.46173095703125 86.16023254394531 L 361.3851623535156 87.42991638183594 L 385.3086242675781 78.54215240478516 L 409.2320556640625 83.6208724975586 L 433.155517578125 78.54215240478516 L 457.0789489746094 81.08151245117188 L 481.00238037109375 89.96927642822266 L 504.92584228515625 105.20543670654297 L 528.8493041992188 92.50863647460938 L 552.772705078125 82.3511962890625" stroke-linejoin="bevel" stroke-miterlimit="10" stroke-width="0.5" clip-path="url(#fTfZAwXPuNKQ)"/><path fill="none" stroke="rgb(128,128,128)" paint-order="fill" d="M 98.2272720336914 91.23895263671875 L 122.15071868896484 95.0479965209961 L 146.07415771484375 91.23895263671875 L 169.9976043701172 88.69959259033203 L 193.92105102539062 82.3511962890625 L 217.84449768066406 70.924072265625 L 241.7679443359375 92.50863647460938 L 265.6913757324219 91.23895263671875 L 289.6148376464844 84.89055633544922 L 313.53826904296875 109.01447296142578" stroke-opacity="0.7490196078431373" stroke-linejoin="bevel" stroke-miterlimit="10" clip-path="url(#eGAquEADhHZK)"/><path fill="none" stroke="grey" paint-order="fill" d="M 313.53826904296875 109.01447296142578 L 337.46173095703125 81.08151245117188 L 361.3851623535156 79.81183624267578 L 385.3086242675781 79.81183624267578 L 409.2320556640625 96.31767272949219 L 433.155517578125 93.77831268310547 L 457.0789489746094 89.96927642822266 L 481.00238037109375 115.36287689208984 L 504.92584228515625 106.47511291503906 L 528.8493041992188 91.23895263671875 L 552.772705078125 86.16023254394531" stroke-linejoin="bevel" stroke-miterlimit="10" stroke-width="0.5" clip-path="url(#JsMLCltMXquF)"/><path fill="none" stroke="grey" paint-order="fill" d="M 313.53826904296875 109.01447296142578 L 337.46173095703125 88.69959259033203 L 361.3851623535156 97.58735656738281 L 385.3086242675781 81.08151245117188 L 409.2320556640625 96.31767272949219 L 433.155517578125 91.23895263671875 L 457.0789489746094 74.73311614990234 L 481.00238037109375 102.66607666015625 L 504.92584228515625 98.8570327758789 L 528.8493041992188 87.42991638183594 L 552.772705078125 106.47511291503906" stroke-linejoin="bevel" stroke-miterlimit="10" stroke-width="0.5" clip-path="url(#BoaHdgpDQNsx)"/><path fill="none" stroke="rgb(128,128,128)" paint-order="fill" d="M 98.2272720336914 77.27247619628906 L 122.15071868896484 103.93575286865234 L 146.07415771484375 103.93575286865234 L 169.9976043701172 79.81183624267578 L 193.92105102539062 87.42991638183594 L 217.84449768066406 103.93575286865234 L 241.7679443359375 74.73311614990234 L 265.6913757324219 78.54215240478516 L 289.6148376464844 93.77831268310547 L 313.53826904296875 86.16023254394531" stroke-opacity="0.7490196078431373" stroke-linejoin="bevel" stroke-miterlimit="10" clip-path="url(#VACttbIBKgZu)"/><path fill="none" stroke="grey" paint-order="fill" d="M 313.53826904296875 86.16023254394531 L 337.46173095703125 100.12671661376953 L 361.3851623535156 91.23895263671875 L 385.3086242675781 68.38471221923828 L 409.2320556640625 102.66607666015625 L 433.155517578125 101.39639282226562 L 457.0789489746094 91.23895263671875 L 481.00238037109375 76.00279235839844 L 504.92584228515625 97.58735656738281 L 528.8493041992188 105.20543670654297 L 552.772705078125 86.16023254394531" stroke-linejoin="bevel" stroke-miterlimit="10" stroke-width="0.5" clip-path="url(#ObiuWfhncpnc)"/><path fill="none" stroke="grey" paint-order="fill" d="M 313.53826904296875 86.16023254394531 L 337.46173095703125 84.89055633544922 L 361.3851623535156 120.44159698486328 L 385.3086242675781 107.74479675292969 L 409.2320556640625 101.39639282226562 L 433.155517578125 64.57567596435547 L 457.0789489746094 101.39639282226562 L 481.00238037109375 76.00279235839844 L 504.92584228515625 102.66607666015625 L 528.8493041992188 69.6543960571289 L 552.772705078125 81.08151245117188" stroke-linejoin="bevel" stroke-miterlimit="10" stroke-width="0.5" clip-path="url(#hFbMCnSKVKOz)"/><path fill="none" stroke="rgb(128,128,128)" paint-order="fill" d="M 98.2272720336914 101.39639282226562 L 122.15071868896484 84.89055633544922 L 146.07415771484375 89.96927642822266 L 169.9976043701172 98.8570327758789 L 193.92105102539062 106.47511291503906 L 217.84449768066406 92.50863647460938 L 241.7679443359375 81.08151245117188 L 265.6913757324219 82.3511962890625 L 289.6148376464844 83.6208724975586 L 313.53826904296875 76.00279235839844" stroke-opacity="0.7490196078431373" stroke-linejoin="bevel" stroke-miterlimit="10" clip-path="url(#hRibmlLewVGc)"/><path fill="none" stroke="grey" paint-order="fill" d="M 313.53826904296875 76.00279235839844 L 337.46173095703125 102.66607666015625 L 361.3851623535156 109.01447296142578 L 385.3086242675781 95.0479965209961 L 409.2320556640625 82.3511962890625 L 433.155517578125 83.6208724975586 L 457.0789489746094 58.227272033691406 L 481.00238037109375 82.3511962890625 L 504.92584228515625 86.16023254394531 L 528.8493041992188 79.81183624267578 L 552.772705078125 110.2841567993164" stroke-linejoin="bevel" stroke-miterlimit="10" stroke-width="0.5" clip-path="url(#KwgmtoQuEUzz)"/><path fill="none" stroke="grey" paint-order="fill" d="M 313.53826904296875 76.00279235839844 L 337.46173095703125 89.96927642822266 L 361.3851623535156 82.3511962890625 L 385.3086242675781 100.12671661376953 L 409.2320556640625 88.69959259033203 L 433.155517578125 64.57567596435547 L 457.0789489746094 101.39639282226562 L 481.00238037109375 102.66607666015625 L 504.92584228515625 92.50863647460938 L 528.8493041992188 102.66607666015625 L 552.772705078125 93.77831268310547" stroke-linejoin="bevel" stroke-miterlimit="10" stroke-width="0.5" clip-path="url(#KQknocZfTrwA)"/><path fill="none" stroke="black" paint-order="fill" d="M 75.5 285.5 L 575.5 285.5" stroke-linejoin="bevel" stroke-miterlimit="10"/><path fill="none" stroke="black" paint-order="fill" d="M 98.5 291.5 L 98.5 283.5 M 217.5 291.5 L 217.5 283.5 M 337.5 291.5 L 337.5 283.5 M 457.5 291.5 L 457.5 283.5" stroke-linejoin="bevel" stroke-miterlimit="10"/><path fill="none" stroke="black" paint-order="fill" d="M 98.5 289.5 L 98.5 285.5 M 122.5 289.5 L 122.5 285.5 M 146.5 289.5 L 146.5 285.5 M 169.5 289.5 L 169.5 285.5 M 193.5 289.5 L 193.5 285.5 M 217.5 289.5 L 217.5 285.5 M 241.5 289.5 L 241.5 285.5 M 265.5 289.5 L 265.5 285.5 M 289.5 289.5 L 289.5 285.5 M 313.5 289.5 L 313.5 285.5 M 337.5 289.5 L 337.5 285.5 M 361.5 289.5 L 361.5 285.5 M 385.5 289.5 L 385.5 285.5 M 409.5 289.5 L 409.5 285.5 M 433.5 289.5 L 433.5 285.5 M 457.5 289.5 L 457.5 285.5 M 481.5 289.5 L 481.5 285.5 M 504.5 289.5 L 504.5 285.5 M 528.5 289.5 L 528.5 285.5 M 552.5 289.5 L 552.5 285.5" stroke-linejoin="bevel" stroke-miterlimit="10"/><text fill="#444444" stroke="none" font-family="helvetica" font-size="10pt" font-style="normal" font-weight="normal" text-decoration="normal" x="84.36060523986816" y="306" text-anchor="start" dominant-baseline="alphabetic" transform="matrix(1, 0, 0, 1, 0.5, 0.5)">2025</text><text fill="none" stroke="rgb(0,0,0)" font-family="helvetica" font-size="10pt" font-style="normal" font-weight="normal" text-decoration="normal" x="84.36060523986816" y="306" text-anchor="start" dominant-baseline="alphabetic" transform="matrix(1, 0, 0, 1, 0.5, 0.5)" stroke-opacity="0" stroke-linejoin="bevel" stroke-miterlimit="10">2025</text><text fill="#444444" stroke="none" font-family="helvetica" font-size="10pt" font-style="normal" font-weight="normal" text-decoration="normal" x="203.97783088684082" y="306" text-anchor="start" dominant-baseline="alphabetic" transform="matrix(1, 0, 0, 1, 0.5, 0.5)">2030</text><text fill="none" stroke="rgb(0,0,0)" font-family="helvetica" font-size="10pt" font-style="normal" font-weight="normal" text-decoration="normal" x="203.97783088684082" y="306" text-anchor="start" dominant-baseline="alphabetic" transform="matrix(1, 0, 0, 1, 0.5, 0.5)" stroke-opacity="0" stroke-linejoin="bevel" stroke-miterlimit="10">2030</text><text fill="#444444" stroke="none" font-family="helvetica" font-size="10pt" font-style="normal" font-weight="normal" text-decoration="normal" x="323.595064163208" y="306" text-anchor="start" dominant-baseline="alphabetic" transform="matrix(1, 0, 0, 1, 0.5, 0.5)">2035</text><text fill="none" stroke="rgb(0,0,0)" font-family="helvetica" font-size="10pt" font-style="normal" font-weight="normal" text-decoration="normal" x="323.595064163208" y="306" text-anchor="start" dominant-baseline="alphabetic" transform="matrix(1, 0, 0, 1, 0.5, 0.5)" stroke-opacity="0" stroke-linejoin="bevel" stroke-miterlimit="10">2035</text><text fill="#444444" stroke="none" font-family="helvetica" font-size="10pt" font-style="normal" font-weight="normal" text-decoration="normal" x="443.21228218078613" y="306" text-anchor="start" dominant-baseline="alphabetic" transform="matrix(1, 0, 0, 1, 0.5, 0.5)">2040</text><text fill="none" stroke="rgb(0,0,0)" font-family="helvetica" font-size="10pt" font-style="normal" font-weight="normal" text-decoration="normal" x="443.21228218078613" y="306" text-anchor="start" dominant-baseline="alphabetic" transform="matrix(1, 0, 0, 1, 0.5, 0.5)" stroke-opacity="0" stroke-linejoin="bevel" stroke-miterlimit="10">2040</text><text fill="#444444" stroke="none" font-family="helvetica" font-size="12pt" font-style="normal" font-weight="normal" text-decoration="normal" x="310.3166666030884" y="329" text-anchor="start" dominant-baseline="alphabetic" transform="matrix(1, 0, 0, 1, 0.5, 0.5)">Year</text><text fill="none" stroke="rgb(0,0,0)" font-family="helvetica" font-size="12pt" font-style="normal" font-weight="normal" text-decoration="normal" x="310.3166666030884" y="329" text-anchor="start" dominant-baseline="alphabetic" transform="matrix(1, 0, 0, 1, 0.5, 0.5)" stroke-opacity="0" stroke-linejoin="bevel" stroke-miterlimit="10">Year</text><path fill="none" stroke="black" paint-order="fill" d="M 75.5 285.5 L 75.5 35.5" stroke-linejoin="bevel" stroke-miterlimit="10"/><path fill="none" stroke="black" paint-order="fill" d="M 69.5 285.5 L 77.5 285.5 M 69.5 222.5 L 77.5 222.5 M 69.5 158.5 L 77.5 158.5 M 69.5 95.5 L 77.5 95.5" stroke-linejoin="bevel" stroke-miterlimit="10"/><path fill="none" stroke="black" paint-order="fill" d="M 71.5 285.5 L 75.5 285.5 M 71.5 272.5 L 75.5 272.5 M 71.5 260.5 L 75.5 260.5 M 71.5 247.5 L 75.5 247.5 M 71.5 234.5 L 75.5 234.5 M 71.5 222.5 L 75.5 222.5 M 71.5 209.5 L 75.5 209.5 M 71.5 196.5 L 75.5 196.5 M 71.5 183.5 L 75.5 183.5 M 71.5 171.5 L 75.5 171.5 M 71.5 158.5 L 75.5 158.5 M 71.5 145.5 L 75.5 145.5 M 71.5 133.5 L 75.5 133.5 M 71.5 120.5 L 75.5 120.5 M 71.5 107.5 L 75.5 107.5 M 71.5 95.5 L 75.5 95.5 M 71.5 82.5 L 75.5 82.5 M 71.5 69.5 L 75.5 69.5 M 71.5 56.5 L 75.5 56.5 M 71.5 44.5 L 75.5 44.5" stroke-linejoin="bevel" stroke-miterlimit="10"/><text fill="#444444" stroke="none" font-family="helvetica" font-size="10pt" font-style="normal" font-weight="normal" text-decoration="normal" x="57.31666660308838" y="290" text-anchor="start" dominant-baseline="alphabetic" transform="matrix(1, 0, 0, 1, 0.5, 0.5)">0</text><text fill="none" stroke="rgb(0,0,0)" font-family="helvetica" font-size="10pt" font-style="normal" font-weight="normal" text-decoration="normal" x="57.31666660308838" y="290" text-anchor="start" dominant-baseline="alphabetic" transform="matrix(1, 0, 0, 1, 0.5, 0.5)" stroke-opacity="0" stroke-linejoin="bevel" stroke-miterlimit="10">0</text><text fill="#444444" stroke="none" font-family="helvetica" font-size="10pt" font-style="normal" font-weight="normal" text-decoration="normal" x="50.63333320617676" y="226.5159912109375" text-anchor="start" dominant-baseline="alphabetic" transform="matrix(1, 0, 0, 1, 0.5, 0.5)">50</text><text fill="none" stroke="rgb(0,0,0)" font-family="helvetica" font-size="10pt" font-style="normal" font-weight="normal" text-decoration="normal" x="50.63333320617676" y="226.5159912109375" text-anchor="start" dominant-baseline="alphabetic" transform="matrix(1, 0, 0, 1, 0.5, 0.5)" stroke-opacity="0" stroke-linejoin="bevel" stroke-miterlimit="10">50</text><text fill="#444444" stroke="none" font-family="helvetica" font-size="10pt" font-style="normal" font-weight="normal" text-decoration="normal" x="43.95000076293945" y="163.03199768066406" text-anchor="start" dominant-baseline="alphabetic" transform="matrix(1, 0, 0, 1, 0.5, 0.5)">100</text><text fill="none" stroke="rgb(0,0,0)" font-family="helvetica" font-size="10pt" font-style="normal" font-weight="normal" text-decoration="normal" x="43.95000076293945" y="163.03199768066406" text-anchor="start" dominant-baseline="alphabetic" transform="matrix(1, 0, 0, 1, 0.5, 0.5)" stroke-opacity="0" stroke-linejoin="bevel" stroke-miterlimit="10">100</text><text fill="#444444" stroke="none" font-family="helvetica" font-size="10pt" font-style="normal" font-weight="normal" text-decoration="normal" x="43.95000076293945" y="99.5479965209961" text-anchor="start" dominant-baseline="alphabetic" transform="matrix(1, 0, 0, 1, 0.5, 0.5)">150</text><text fill="none" stroke="rgb(0,0,0)" font-family="helvetica" font-size="10pt" font-style="normal" font-weight="normal" text-decoration="normal" x="43.95000076293945" y="99.5479965209961" text-anchor="start" dominant-baseline="alphabetic" transform="matrix(1, 0, 0, 1, 0.5, 0.5)" stroke-opacity="0" stroke-linejoin="bevel" stroke-miterlimit="10">150</text><text fill="#444444" stroke="none" font-family="helvetica" font-size="12pt" font-style="normal" font-weight="normal" text-decoration="normal" x="-60.25833511352539" y="156" text-anchor="start" dominant-baseline="alphabetic" transform="matrix(6.123233995736766e-17, -1, 1, 6.123233995736766e-17, -123.54999923706055, 196.45000076293945)">Days suitable for transmission</text><text fill="none" stroke="rgb(0,0,0)" font-family="helvetica" font-size="12pt" font-style="normal" font-weight="normal" text-decoration="normal" x="-60.25833511352539" y="156" text-anchor="start" dominant-baseline="alphabetic" transform="matrix(6.123233995736766e-17, -1, 1, 6.123233995736766e-17, -123.54999923706055, 196.45000076293945)" stroke-opacity="0" stroke-linejoin="bevel" stroke-miterlimit="10">Days suitable for transmission</text><path fill="rgb(255,255,255)" stroke="rgb(229,229,229)" paint-order="fill" d="M 482.0333251953125 210.5 L 565.4999847412109 210.5 L 565.4999847412109 275.5 L 482.0333251953125 275.5 L 482.0333251953125 210.5 Z" fill-opacity="0.9490196078431372" clip-path="url(#qxmaqpVJDhQJ)" stroke-opacity="0.5019607843137255" stroke-linejoin="bevel" stroke-miterlimit="10"/><g clip-path="url(#qxmaqpVJDhQJ)"><g transform="matrix(1, 0, 0, 1, 492.5333251953125, 221)"><path fill="none" stroke="#30a2da" paint-order="fill" d="M 0.5 10.5 L 20.5 10.5" stroke-linejoin="bevel" stroke-miterlimit="10" stroke-width="2"/></g></g><g clip-path="url(#qxmaqpVJDhQJ)"><text fill="#444444" stroke="none" font-family="helvetica" font-size="13px" font-style="normal" font-weight="normal" text-decoration="normal" x="517.5333251953125" y="235.5" text-anchor="start" dominant-baseline="alphabetic" transform="matrix(1, 0, 0, 1, 0.5, 0.5)">ID 001</text></g><g clip-path="url(#qxmaqpVJDhQJ)"><text fill="none" stroke="rgb(0,0,0)" font-family="helvetica" font-size="13px" font-style="normal" font-weight="normal" text-decoration="normal" x="517.5333251953125" y="235.5" text-anchor="start" dominant-baseline="alphabetic" transform="matrix(1, 0, 0, 1, 0.5, 0.5)" stroke-opacity="0" stroke-linejoin="bevel" stroke-miterlimit="10">ID 001</text></g><g clip-path="url(#qxmaqpVJDhQJ)"><g transform="matrix(1, 0, 0, 1, 492.5333251953125, 244)"><path fill="none" stroke="#fc4f30" paint-order="fill" d="M 0.5 10.5 L 20.5 10.5" stroke-linejoin="bevel" stroke-miterlimit="10" stroke-width="2"/></g></g><g clip-path="url(#qxmaqpVJDhQJ)"><text fill="#444444" stroke="none" font-family="helvetica" font-size="13px" font-style="normal" font-weight="normal" text-decoration="normal" x="517.5333251953125" y="258.5" text-anchor="start" dominant-baseline="alphabetic" transform="matrix(1, 0, 0, 1, 0.5, 0.5)">ID 006</text></g><g clip-path="url(#qxmaqpVJDhQJ)"><text fill="none" stroke="rgb(0,0,0)" font-family="helvetica" font-size="13px" font-style="normal" font-weight="normal" text-decoration="normal" x="517.5333251953125" y="258.5" text-anchor="start" dominant-baseline="alphabetic" transform="matrix(1, 0, 0, 1, 0.5, 0.5)" stroke-opacity="0" stroke-linejoin="bevel" stroke-miterlimit="10">ID 006</text></g><text fill="black" stroke="none" font-family="helvetica" font-size="14pt" font-style="normal" font-weight="normal" text-decoration="normal" x="0" y="18" text-anchor="start" dominant-baseline="alphabetic" transform="matrix(1, 0, 0, 1, 5.5, 7.5)">C. Santiago de Chile</text><text fill="none" stroke="rgb(0,0,0)" font-family="helvetica" font-size="14pt" font-style="normal" font-weight="normal" text-decoration="normal" x="0" y="18" text-anchor="start" dominant-baseline="alphabetic" transform="matrix(1, 0, 0, 1, 5.5, 7.5)" stroke-opacity="0" stroke-linejoin="bevel" stroke-miterlimit="10">C. Santiago de Chile</text></svg>