<svg version="1.1" xmlns="http://www.w3.org/2000/svg" width="605" height="336"><defs><clipPath id="nFZVgUNvhviJ"><path fill="none" stroke="none" d="M 75.5 35.5 L 575.5 35.5 L 575.5 285.5 L 75.5 285.5 L 75.5 35.5 Z"/></clipPath><clipPath id="UVWZxwDIIFGn"><path fill="none" stroke="none" d="M 75.5 35.5 L 575.5 35.5 L 575.5 285.5 L 75.5 285.5 L 75.5 35.5 Z"/></clipPath><clipPath id="UvXVFcNlDcMN"><path fill="none" stroke="none" d="M 75.5 35.5 L 575.5 35.5 L 575.5 285.5 L 75.5 285.5 L 75.5 35.5 Z"/></clipPath><clipPath id="eIqSpSHctTyU"><path fill="none" stroke="none" d="M 75.5 35.5 L 575.5 35.5 L 575.5 285.5 L 75.5 285.5 L 75.5 35.5 Z"/></clipPath><clipPath id="uHegTuEXTIRN"><path fill="none" stroke="none" d="M 75.5 35.5 L 575.5 35.5 L 575.5 285.5 L 75.5 285.5 L 75.5 35.5 Z"/></clipPath><clipPath id="feMJoXllDDsH"><path fill="none" stroke="none" d="M 75.5 35.5 L 575.5 35.5 L 575.5 285.5 L 75.5 285.5 L 75.5 35.5 Z"/></clipPath><clipPath id="xDTtLOgZanvy"><path fill="none" stroke="none" d="M 75.5 35.5 L 575.5 35.5 L 575.5 285.5 L 75.5 285.5 L 75.5 35.5 Z"/></clipPath><clipPath id="heFuHunucSze"><path fill="none" stroke="none" d="M 75.5 35.5 L 575.5 35.5 L 575.5 285.5 L 75.5 285.5 L 75.5 35.5 Z"/></clipPath><clipPath id="bqSfLMJVNgTr"><path fill="none" stroke="none" d="M 75.5 35.5 L 575.5 35.5 L 575.5 285.5 L 75.5 285.5 L 75.5 35.5 Z"/></clipPath><clipPath id="JDVXZRQzsmFZ"><path fill="none" stroke="none" d="M 75.5 35.5 L 575.5 35.5 L 575.5 285.5 L 75.5 285.5 L 75.5 35.5 Z"/></clipPath><clipPath id="UCsHhALdCLJi"><path fill="none" stroke="none" d="M 75.5 35.5 L 575.5 35.5 L 575.5 285.5 L 75.5 285.5 L 75.5 35.5 Z"/></clipPath><clipPath id="kGSeggAfPdIx"><path fill="none" stroke="none" d="M 75.5 35.5 L 575.5 35.5 L 575.5 285.5 L 75.5 285.5 L 75.5 35.5 Z"/></clipPath><clipPath id="oNQAEedPfxQJ"><path fill="none" stroke="none" d="M 75.5 35.5 L 575.5 35.5 L 575.5 285.5 L 75.5 285.5 L 75.5 35.5 Z"/></clipPath><clipPath id="TRtOTbMSeiuT"><path fill="none" stroke="none" d="M 75.5 35.5 L 575.5 35.5 L 575.5 285.5 L 75.5 285.5 L 75.5 35.5 Z"/></clipPath><clipPath id="leEyCRmypfbF"><path fill="none" stroke="none" d="M 75.5 35.5 L 575.5 35.5 L 575.5 285.5 L 75.5 285.5 L 75.5 35.5 Z"/></clipPath><clipPath id="MUSJHMfFREaA"><path fill="none" stroke="none" d="M 75.5 35.5 L 575.5 35.5 L 575.5 285.5 L 75.5 285.5 L 75.5 35.5 Z"/></clipPath><clipPath id="QqKnHGOJtcoM"><path fill="none" stroke="none" d="M 75.5 35.5 L 575.5 35.5 L 575.5 285.5 L 75.5 285.5 L 75.5 35.5 Z"/></clipPath><clipPath id="WaTTbnGWwGnM"><path fill="none" stroke="none" d="M 75.5 35.5 L 575.5 35.5 L 575.5 285.5 L 75.5 285.5 L 75.5 35.5 Z"/></clipPath><clipPath id="KgRrDyCGcOff"><path fill="none" stroke="none" d="M 75.5 35.5 L 575.5 35.5 L 575.5 285.5 L 75.5 285.5 L 75.5 35.5 Z"/></clipPath><clipPath id="ekQsHfJQaRUg"><path fill="none" stroke="none" d="M 75.5 35.5 L 575.5 35.5 L 575.5 285.5 L 75.5 285.5 L 75.5 35.5 Z"/></clipPath><clipPath id="TLykiRGTDFwH"><path fill="none" stroke="none" d="M 75.5 35.5 L 575.5 35.5 L 575.5 285.5 L 75.5 285.5 L 75.5 35.5 Z"/></clipPath><clipPath id="kWqTuROgxrVv"><path fill="none" stroke="none" d="M 75.5 35.5 L 575.5 35.5 L 575.5 285.5 L 75.5 285.5 L 75.5 35.5 Z"/></clipPath><clipPath id="qBlbMCImXLum"><path fill="none" stroke="none" d="M 75.5 35.5 L 575.5 35.5 L 575.5 285.5 L 75.5 285.5 L 75.5 35.5 Z"/></clipPath></defs><path fill="none" stroke="#e5e5e5" paint-order="fill" d="M 75.5 35.5 L 575.5 35.5 L 575.5 285.5 L 75.5 285.5 L 75.5 35.5 Z" stroke-linejoin="bevel" stroke-miterlimit="10"/><path fill="none" stroke="black" paint-order="fill" d="M 337.46172248803487 35.5 L 337.46172248803487 285.5" stroke-linejoin="bevel" stroke-miterlimit="10" stroke-width="3" stroke-dasharray="6" clip-path="url(#UvXVFcNlDcMN)"/><path fill="none" stroke="#9467bd" paint-order="fill" d="M 98.2272720336914 143.69735717773438 L 122.15071868896484 108.7323226928711 L 146.07415771484375 149.5248565673828 L 169.9976043701172 165.06488037109375 L 193.92105102539062 106.7898178100586 L 217.84449768066406 133.98484802246094 L 241.7679443359375 188.37490844726562 L 265.6913757324219 126.21484375 L 289.6148376464844 180.60488891601562 L 313.53826904296875 149.5248565673828" stroke-linejoin="bevel" stroke-miterlimit="10" stroke-width="2" clip-path="url(#eIqSpSHctTyU)"/><path fill="none" stroke="#9467bd" paint-order="fill" d="M 98.2272720336914 130.62962341308594 L 122.15071868896484 133.87889099121094 L 146.07415771484375 137.128173828125 L 169.9976043701172 140.37744140625 L 193.92105102539062 143.62672424316406 L 217.84449768066406 146.87599182128906 L 241.7679443359375 150.12527465820312 L 265.6913757324219 153.37454223632812 L 289.6148376464844 156.6238250732422 L 313.53826904296875 159.87310791015625" stroke-linejoin="bevel" stroke-miterlimit="10" stroke-width="2" stroke-dasharray="6" clip-path="url(#uHegTuEXTIRN)"/><path fill="none" stroke="#30a2da" paint-order="fill" d="M 313.53826904296875 149.5248565673828 L 337.46173095703125 106.7898178100586 L 361.3851623535156 93.19230651855469 L 385.3086242675781 132.04234313964844 L 409.2320556640625 116.50233459472656 L 433.155517578125 91.24980926513672 L 457.0789489746094 151.4673614501953 L 481.00238037109375 170.8923797607422 L 504.92584228515625 128.15734100341797 L 528.8493041992188 147.58236694335938 L 552.772705078125 194.20240783691406" stroke-linejoin="bevel" stroke-miterlimit="10" stroke-width="2" clip-path="url(#feMJoXllDDsH)"/><path fill="none" stroke="#30a2da" paint-order="fill" d="M 337.46173095703125 95.80585479736328 L 361.3851623535156 104.1174087524414 L 385.3086242675781 112.42896270751953 L 409.2320556640625 120.74051666259766 L 433.155517578125 129.0520782470703 L 457.0789489746094 137.36363220214844 L 481.00238037109375 145.6751708984375 L 504.92584228515625 153.98672485351562 L 528.8493041992188 162.29827880859375 L 552.772705078125 170.60983276367188" stroke-linejoin="bevel" stroke-miterlimit="10" stroke-width="2" stroke-dasharray="6" clip-path="url(#xDTtLOgZanvy)"/><path fill="none" stroke="#fc4f30" paint-order="fill" d="M 313.53826904296875 149.5248565673828 L 337.46173095703125 99.01981353759766 L 361.3851623535156 217.51243591308594 L 385.3086242675781 165.06488037109375 L 409.2320556640625 139.81234741210938 L 433.155517578125 132.04234313964844 L 457.0789489746094 143.69735717773438 L 481.00238037109375 176.7198944091797 L 504.92584228515625 132.04234313964844 L 528.8493041992188 159.2373809814453 L 552.772705078125 75.70979309082031" stroke-linejoin="bevel" stroke-miterlimit="10" stroke-width="2" clip-path="url(#heFuHunucSze)"/><path fill="none" stroke="#fc4f30" paint-order="fill" d="M 337.46173095703125 162.09814453125 L 361.3851623535156 158.0954132080078 L 385.3086242675781 154.09268188476562 L 409.2320556640625 150.08995056152344 L 433.155517578125 146.08721923828125 L 457.0789489746094 142.08448791503906 L 481.00238037109375 138.08175659179688 L 504.92584228515625 134.0790252685547 L 528.8493041992188 130.0762939453125 L 552.772705078125 126.07357025146484" stroke-linejoin="bevel" stroke-miterlimit="10" stroke-width="2" stroke-dasharray="6" clip-path="url(#bqSfLMJVNgTr)"/><path fill="none" stroke="rgb(128,128,128)" paint-order="fill" d="M 98.2272720336914 217.51243591308594 L 122.15071868896484 120.38733673095703 L 146.07415771484375 73.76728820800781 L 169.9976043701172 157.2948760986328 L 193.92105102539062 100.96231842041016 L 217.84449768066406 120.38733673095703 L 241.7679443359375 128.15734100341797 L 265.6913757324219 110.6748275756836 L 289.6148376464844 110.6748275756836 L 313.53826904296875 58.227272033691406" stroke-opacity="0.7490196078431373" stroke-linejoin="bevel" stroke-miterlimit="10" clip-path="url(#JDVXZRQzsmFZ)"/><path fill="none" stroke="grey" paint-order="fill" d="M 313.53826904296875 58.227272033691406 L 337.46173095703125 102.90481567382812 L 361.3851623535156 97.07730865478516 L 385.3086242675781 81.53729248046875 L 409.2320556640625 93.19230651855469 L 433.155517578125 85.42230224609375 L 457.0789489746094 106.7898178100586 L 481.00238037109375 132.04234313964844 L 504.92584228515625 126.21484375 L 528.8493041992188 163.12237548828125 L 552.772705078125 128.15734100341797" stroke-linejoin="bevel" stroke-miterlimit="10" stroke-width="0.5" clip-path="url(#UCsHhALdCLJi)"/><path fill="none" stroke="grey" paint-order="fill" d="M 313.53826904296875 58.227272033691406 L 337.46173095703125 102.90481567382812 L 361.3851623535156 120.38733673095703 L 385.3086242675781 170.8923797607422 L 409.2320556640625 170.8923797607422 L 433.155517578125 132.04234313964844 L 457.0789489746094 93.19230651855469 L 481.00238037109375 132.04234313964844 L 504.92584228515625 161.17987060546875 L 528.8493041992188 122.329833984375 L 552.772705078125 85.42230224609375" stroke-linejoin="bevel" stroke-miterlimit="10" stroke-width="0.5" clip-path="url(#kGSeggAfPdIx)"/><path fill="none" stroke="rgb(128,128,128)" paint-order="fill" d="M 98.2272720336914 137.86985778808594 L 122.15071868896484 124.2723388671875 L 146.07415771484375 104.84732055664062 L 169.9976043701172 122.329833984375 L 193.92105102539062 133.98484802246094 L 217.84449768066406 108.7323226928711 L 241.7679443359375 126.21484375 L 265.6913757324219 99.01981353759766 L 289.6148376464844 153.4098663330078 L 313.53826904296875 108.7323226928711" stroke-opacity="0.7490196078431373" stroke-linejoin="bevel" stroke-miterlimit="10" clip-path="url(#oNQAEedPfxQJ)"/><path fill="none" stroke="grey" paint-order="fill" d="M 313.53826904296875 108.7323226928711 L 337.46173095703125 120.38733673095703 L 361.3851623535156 118.44483184814453 L 385.3086242675781 112.61732482910156 L 409.2320556640625 116.50233459472656 L 433.155517578125 104.84732055664062 L 457.0789489746094 112.61732482910156 L 481.00238037109375 87.36479949951172 L 504.92584228515625 106.7898178100586 L 528.8493041992188 93.19230651855469 L 552.772705078125 128.15734100341797" stroke-linejoin="bevel" stroke-miterlimit="10" stroke-width="0.5" clip-path="url(#TRtOTbMSeiuT)"/><path fill="none" stroke="grey" paint-order="fill" d="M 313.53826904296875 108.7323226928711 L 337.46173095703125 87.36479949951172 L 361.3851623535156 139.81234741210938 L 385.3086242675781 176.7198944091797 L 409.2320556640625 106.7898178100586 L 433.155517578125 128.15734100341797 L 457.0789489746094 180.60488891601562 L 481.00238037109375 112.61732482910156 L 504.92584228515625 157.2948760986328 L 528.8493041992188 87.36479949951172 L 552.772705078125 89.30730438232422" stroke-linejoin="bevel" stroke-miterlimit="10" stroke-width="0.5" clip-path="url(#leEyCRmypfbF)"/><path fill="none" stroke="rgb(128,128,128)" paint-order="fill" d="M 98.2272720336914 145.63986206054688 L 122.15071868896484 93.19230651855469 L 146.07415771484375 102.90481567382812 L 169.9976043701172 139.81234741210938 L 193.92105102539062 198.08741760253906 L 217.84449768066406 124.2723388671875 L 241.7679443359375 192.25990295410156 L 265.6913757324219 83.47979736328125 L 289.6148376464844 106.7898178100586 L 313.53826904296875 83.47979736328125" stroke-opacity="0.7490196078431373" stroke-linejoin="bevel" stroke-miterlimit="10" clip-path="url(#MUSJHMfFREaA)"/><path fill="none" stroke="grey" paint-order="fill" d="M 313.53826904296875 83.47979736328125 L 337.46173095703125 130.09983825683594 L 361.3851623535156 110.6748275756836 L 385.3086242675781 124.2723388671875 L 409.2320556640625 130.09983825683594 L 433.155517578125 149.5248565673828 L 457.0789489746094 110.6748275756836 L 481.00238037109375 126.21484375 L 504.92584228515625 110.6748275756836 L 528.8493041992188 174.7773895263672 L 552.772705078125 110.6748275756836" stroke-linejoin="bevel" stroke-miterlimit="10" stroke-width="0.5" clip-path="url(#QqKnHGOJtcoM)"/><path fill="none" stroke="grey" paint-order="fill" d="M 313.53826904296875 83.47979736328125 L 337.46173095703125 137.86985778808594 L 361.3851623535156 102.90481567382812 L 385.3086242675781 104.84732055664062 L 409.2320556640625 159.2373809814453 L 433.155517578125 155.3523712158203 L 457.0789489746094 97.07730865478516 L 481.00238037109375 130.09983825683594 L 504.92584228515625 120.38733673095703 L 528.8493041992188 120.38733673095703 L 552.772705078125 116.50233459472656" stroke-linejoin="bevel" stroke-miterlimit="10" stroke-width="0.5" clip-path="url(#WaTTbnGWwGnM)"/><path fill="none" stroke="rgb(128,128,128)" paint-order="fill" d="M 98.2272720336914 163.12237548828125 L 122.15071868896484 108.7323226928711 L 146.07415771484375 168.94989013671875 L 169.9976043701172 99.01981353759766 L 193.92105102539062 141.75485229492188 L 217.84449768066406 159.2373809814453 L 241.7679443359375 126.21484375 L 265.6913757324219 85.42230224609375 L 289.6148376464844 135.92735290527344 L 313.53826904296875 132.04234313964844" stroke-opacity="0.7490196078431373" stroke-linejoin="bevel" stroke-miterlimit="10" clip-path="url(#KgRrDyCGcOff)"/><path fill="none" stroke="grey" paint-order="fill" d="M 313.53826904296875 132.04234313964844 L 337.46173095703125 114.55982971191406 L 361.3851623535156 104.84732055664062 L 385.3086242675781 93.19230651855469 L 409.2320556640625 87.36479949951172 L 433.155517578125 100.96231842041016 L 457.0789489746094 178.6623992919922 L 481.00238037109375 153.4098663330078 L 504.92584228515625 114.55982971191406 L 528.8493041992188 147.58236694335938 L 552.772705078125 106.7898178100586" stroke-linejoin="bevel" stroke-miterlimit="10" stroke-width="0.5" clip-path="url(#ekQsHfJQaRUg)"/><path fill="none" stroke="grey" paint-order="fill" d="M 313.53826904296875 132.04234313964844 L 337.46173095703125 114.55982971191406 L 361.3851623535156 128.15734100341797 L 385.3086242675781 112.61732482910156 L 409.2320556640625 153.4098663330078 L 433.155517578125 163.12237548828125 L 457.0789489746094 99.01981353759766 L 481.00238037109375 163.12237548828125 L 504.92584228515625 151.4673614501953 L 528.8493041992188 93.19230651855469 L 552.772705078125 97.07730865478516" stroke-linejoin="bevel" stroke-miterlimit="10" stroke-width="0.5" clip-path="url(#TLykiRGTDFwH)"/><path fill="none" stroke="black" paint-order="fill" d="M 75.5 285.5 L 575.5 285.5" stroke-linejoin="bevel" stroke-miterlimit="10"/><path fill="none" stroke="black" paint-order="fill" d="M 98.5 291.5 L 98.5 283.5 M 217.5 291.5 L 217.5 283.5 M 337.5 291.5 L 337.5 283.5 M 457.5 291.5 L 457.5 283.5" stroke-linejoin="bevel" stroke-miterlimit="10"/><path fill="none" stroke="black" paint-order="fill" d="M 98.5 289.5 L 98.5 285.5 M 122.5 289.5 L 122.5 285.5 M 146.5 289.5 L 146.5 285.5 M 169.5 289.5 L 169.5 285.5 M 193.5 289.5 L 193.5 285.5 M 217.5 289.5 L 217.5 285.5 M 241.5 289.5 L 241.5 285.5 M 265.5 289.5 L 265.5 285.5 M 289.5 289.5 L 289.5 285.5 M 313.5 289.5 L 313.5 285.5 M 337.5 289.5 L 337.5 285.5 M 361.5 289.5 L 361.5 285.5 M 385.5 289.5 L 385.5 285.5 M 409.5 289.5 L 409.5 285.5 M 433.5 289.5 L 433.5 285.5 M 457.5 289.5 L 457.5 285.5 M 481.5 289.5 L 481.5 285.5 M 504.5 289.5 L 504.5 285.5 M 528.5 289.5 L 528.5 285.5 M 552.5 289.5 L 552.5 285.5" stroke-linejoin="bevel" stroke-miterlimit="10"/><text fill="#444444" stroke="none" font-family="helvetica" font-size="10pt" font-style="normal" font-weight="normal" text-decoration="normal" x="84.36060523986816" y="306" text-anchor="start" dominant-baseline="alphabetic" transform="matrix(1, 0, 0, 1, 0.5, 0.5)">2025</text><text fill="none" stroke="rgb(0,0,0)" font-family="helvetica" font-size="10pt" font-style="normal" font-weight="normal" text-decoration="normal" x="84.36060523986816" y="306" text-anchor="start" dominant-baseline="alphabetic" transform="matrix(1, 0, 0, 1, 0.5, 0.5)" stroke-opacity="0" stroke-linejoin="bevel" stroke-miterlimit="10">2025</text><text fill="#444444" stroke="none" font-family="helvetica" font-size="10pt" font-style="normal" font-weight="normal" text-decoration="normal" x="203.97783088684082" y="306" text-anchor="start" dominant-baseline="alphabetic" transform="matrix(1, 0, 0, 1, 0.5, 0.5)">2030</text><text fill="none" stroke="rgb(0,0,0)" font-family="helvetica" font-size="10pt" font-style="normal" font-weight="normal" text-decoration="normal" x="203.97783088684082" y="306" text-anchor="start" dominant-baseline="alphabetic" transform="matrix(1, 0, 0, 1, 0.5, 0.5)" stroke-opacity="0" stroke-linejoin="bevel" stroke-miterlimit="10">2030</text><text fill="#444444" stroke="none" font-family="helvetica" font-size="10pt" font-style="normal" font-weight="normal" text-decoration="normal" x="323.595064163208" y="306" text-anchor="start" dominant-baseline="alphabetic" transform="matrix(1, 0, 0, 1, 0.5, 0.5)">2035</text><text fill="none" stroke="rgb(0,0,0)" font-family="helvetica" font-size="10pt" font-style="normal" font-weight="normal" text-decoration="normal" x="323.595064163208" y="306" text-anchor="start" dominant-baseline="alphabetic" transform="matrix(1, 0, 0, 1, 0.5, 0.5)" stroke-opacity="0" stroke-linejoin="bevel" stroke-miterlimit="10">2035</text><text fill="#444444" stroke="none" font-family="helvetica" font-size="10pt" font-style="normal" font-weight="normal" text-decoration="normal" x="443.21228218078613" y="306" text-anchor="start" dominant-baseline="alphabetic" transform="matrix(1, 0, 0, 1, 0.5, 0.5)">2040</text><text fill="none" stroke="rgb(0,0,0)" font-family="helvetica" font-size="10pt" font-style="normal" font-weight="normal" text-decoration="normal" x="443.21228218078613" y="306" text-anchor="start" dominant-baseline="alphabetic" transform="matrix(1, 0, 0, 1, 0.5, 0.5)" stroke-opacity="0" stroke-linejoin="bevel" stroke-miterlimit="10">2040</text><text fill="#444444" stroke="none" font-family="helvetica" font-size="12pt" font-style="normal" font-weight="normal" text-decoration="normal" x="310.3166666030884" y="329" text-anchor="start" dominant-baseline="alphabetic" transform="matrix(1, 0, 0, 1, 0.5, 0.5)">Year</text><text fill="none" stroke="rgb(0,0,0)" font-family="helvetica" font-size="12pt" font-style="normal" font-weight="normal" text-decoration="normal" x="310.3166666030884" y="329" text-anchor="start" dominant-baseline="alphabetic" transform="matrix(1, 0, 0, 1, 0.5, 0.5)" stroke-opacity="0" stroke-linejoin="bevel" stroke-miterlimit="10">Year</text><path fill="none" stroke="black" paint-order="fill" d="M 75.5 285.5 L 75.5 35.5" stroke-linejoin="bevel" stroke-miterlimit="10"/><path fill="none" stroke="black" paint-order="fill" d="M 69.5 285.5 L 77.5 285.5 M 69.5 246.5 L 77.5 246.5 M 69.5 207.5 L 77.5 207.5 M 69.5 168.5 L 77.5 168.5 M 69.5 130.5 L 77.5 130.5 M 69.5 91.5 L 77.5 91.5 M 69.5 52.5 L 77.5 52.5" stroke-linejoin="bevel" stroke-miterlimit="10"/><path fill="none" stroke="black" paint-order="fill" d="M 71.5 285.5 L 75.5 285.5 M 71.5 277.5 L 75.5 277.5 M 71.5 269.5 L 75.5 269.5 M 71.5 262.5 L 75.5 262.5 M 71.5 254.5 L 75.5 254.5 M 71.5 246.5 L 75.5 246.5 M 71.5 238.5 L 75.5 238.5 M 71.5 231.5 L 75.5 231.5 M 71.5 223.5 L 75.5 223.5 M 71.5 215.5 L 75.5 215.5 M 71.5 207.5 L 75.5 207.5 M 71.5 200.5 L 75.5 200.5 M 71.5 192.5 L 75.5 192.5 M 71.5 184.5 L 75.5 184.5 M 71.5 176.5 L 75.5 176.5 M 71.5 168.5 L 75.5 168.5 M 71.5 161.5 L 75.5 161.5 M 71.5 153.5 L 75.5 153.5 M 71.5 145.5 L 75.5 145.5 M 71.5 137.5 L 75.5 137.5 M 71.5 130.5 L 75.5 130.5 M 71.5 122.5 L 75.5 122.5 M 71.5 114.5 L 75.5 114.5 M 71.5 106.5 L 75.5 106.5 M 71.5 99.5 L 75.5 99.5 M 71.5 91.5 L 75.5 91.5 M 71.5 83.5 L 75.5 83.5 M 71.5 75.5 L 75.5 75.5 M 71.5 67.5 L 75.5 67.5 M 71.5 60.5 L 75.5 60.5 M 71.5 52.5 L 75.5 52.5 M 71.5 44.5 L 75.5 44.5 M 71.5 36.5 L 75.5 36.5" stroke-linejoin="bevel" stroke-miterlimit="10"/><text fill="#444444" stroke="none" font-family="helvetica" font-size="10pt" font-style="normal" font-weight="normal" text-decoration="normal" x="57.31666660308838" y="290" text-anchor="start" dominant-baseline="alphabetic" transform="matrix(1, 0, 0, 1, 0.5, 0.5)">0</text><text fill="none" stroke="rgb(0,0,0)" font-family="helvetica" font-size="10pt" font-style="normal" font-weight="normal" text-decoration="normal" x="57.31666660308838" y="290" text-anchor="start" dominant-baseline="alphabetic" transform="matrix(1, 0, 0, 1, 0.5, 0.5)" stroke-opacity="0" stroke-linejoin="bevel" stroke-miterlimit="10">0</text><text fill="#444444" stroke="none" font-family="helvetica" font-size="10pt" font-style="normal" font-weight="normal" text-decoration="normal" x="50.63333320617676" y="251.14996337890625" text-anchor="start" dominant-baseline="alphabetic" transform="matrix(1, 0, 0, 1, 0.5, 0.5)">20</text><text fill="none" stroke="rgb(0,0,0)" font-family="helvetica" font-size="10pt" font-style="normal" font-weight="normal" text-decoration="normal" x="50.63333320617676" y="251.14996337890625" text-anchor="start" dominant-baseline="alphabetic" transform="matrix(1, 0, 0, 1, 0.5, 0.5)" stroke-opacity="0" stroke-linejoin="bevel" stroke-miterlimit="10">20</text><text fill="#444444" stroke="none" font-family="helvetica" font-size="10pt" font-style="normal" font-weight="normal" text-decoration="normal" x="50.63333320617676" y="212.2999267578125" text-anchor="start" dominant-baseline="alphabetic" transform="matrix(1, 0, 0, 1, 0.5, 0.5)">40</text><text fill="none" stroke="rgb(0,0,0)" font-family="helvetica" font-size="10pt" font-style="normal" font-weight="normal" text-decoration="normal" x="50.63333320617676" y="212.2999267578125" text-anchor="start" dominant-baseline="alphabetic" transform="matrix(1, 0, 0, 1, 0.5, 0.5)" stroke-opacity="0" stroke-linejoin="bevel" stroke-miterlimit="10">40</text><text fill="#444444" stroke="none" font-family="helvetica" font-size="10pt" font-style="normal" font-weight="normal" text-decoration="normal" x="50.63333320617676" y="173.44989013671875" text-anchor="start" dominant-baseline="alphabetic" transform="matrix(1, 0, 0, 1, 0.5, 0.5)">60</text><text fill="none" stroke="rgb(0,0,0)" font-family="helvetica" font-size="10pt" font-style="normal" font-weight="normal" text-decoration="normal" x="50.63333320617676" y="173.44989013671875" text-anchor="start" dominant-baseline="alphabetic" transform="matrix(1, 0, 0, 1, 0.5, 0.5)" stroke-opacity="0" stroke-linejoin="bevel" stroke-miterlimit="10">60</text><text fill="#444444" stroke="none" font-family="helvetica" font-size="10pt" font-style="normal" font-weight="normal" text-decoration="normal" x="50.63333320617676" y="134.59983825683594" text-anchor="start" dominant-baseline="alphabetic" transform="matrix(1, 0, 0, 1, 0.5, 0.5)">80</text><text fill="none" stroke="rgb(0,0,0)" font-family="helvetica" font-size="10pt" font-style="normal" font-weight="normal" text-decoration="normal" x="50.63333320617676" y="134.59983825683594" text-anchor="start" dominant-baseline="alphabetic" transform="matrix(1, 0, 0, 1, 0.5, 0.5)" stroke-opacity="0" stroke-linejoin="bevel" stroke-miterlimit="10">80</text><text fill="#444444" stroke="none" font-family="helvetica" font-size="10pt" font-style="normal" font-weight="normal" text-decoration="normal" x="43.95000076293945" y="95.74980926513672" text-anchor="start" dominant-baseline="alphabetic" transform="matrix(1, 0, 0, 1, 0.5, 0.5)">100</text><text fill="none" stroke="rgb(0,0,0)" font-family="helvetica" font-size="10pt" font-style="normal" font-weight="normal" text-decoration="normal" x="43.95000076293945" y="95.74980926513672" text-anchor="start" dominant-baseline="alphabetic" transform="matrix(1, 0, 0, 1, 0.5, 0.5)" stroke-opacity="0" stroke-linejoin="bevel" stroke-miterlimit="10">100</text><text fill="#444444" stroke="none" font-family="helvetica" font-size="10pt" font-style="normal" font-weight="normal" text-decoration="normal" x="43.95000076293945" y="56.89976501464844" text-anchor="start" dominant-baseline="alphabetic" transform="matrix(1, 0, 0, 1, 0.5, 0.5)">120</text><text fill="none" stroke="rgb(0,0,0)" font-family="helvetica" font-size="10pt" font-style="normal" font-weight="normal" text-decoration="normal" x="43.95000076293945" y="56.89976501464844" text-anchor="start" dominant-baseline="alphabetic" transform="matrix(1, 0, 0, 1, 0.5, 0.5)" stroke-opacity="0" stroke-linejoin="bevel" stroke-miterlimit="10">120</text><text fill="#444444" stroke="none" font-family="helvetica" font-size="12pt" font-style="normal" font-weight="normal" text-decoration="normal" x="-60.25833511352539" y="156" text-anchor="start" dominant-baseline="alphabetic" transform="matrix(6.123233995736766e-17, -1, 1, 6.123233995736766e-17, -123.54999923706055, 196.45000076293945)">Days suitable for transmission</text><text fill="none" stroke="rgb(0,0,0)" font-family="helvetica" font-size="12pt" font-style="normal" font-weight="normal" text-decoration="normal" x="-60.25833511352539" y="156" text-anchor="start" dominant-baseline="alphabetic" transform="matrix(6.123233995736766e-17, -1, 1, 6.123233995736766e-17, -123.54999923706055, 196.45000076293945)" stroke-opacity="0" stroke-linejoin="bevel" stroke-miterlimit="10">Days suitable for transmission</text><path fill="rgb(255,255,255)" stroke="rgb(229,229,229)" paint-order="fill" d="M 482.0333251953125 210.5 L 565.4999847412109 210.5 L 565.4999847412109 275.5 L 482.0333251953125 275.5 L 482.0333251953125 210.5 Z" fill-opacity="0.9490196078431372" clip-path="url(#kWqTuROgxrVv)" stroke-opacity="0.5019607843137255" stroke-linejoin="bevel" stroke-miterlimit="10"/><g clip-path="url(#kWqTuROgxrVv)"><g transform="matrix(1, 0, 0, 1, 492.5333251953125, 221)"><path fill="none" stroke="#30a2da" paint-order="fill" d="M 0.5 10.5 L 20.5 10.5" stroke-linejoin="bevel" stroke-miterlimit="10" stroke-width="2"/></g></g><g clip-path="url(#kWqTuROgxrVv)"><text fill="#444444" stroke="none" font-family="helvetica" font-size="13px" font-style="normal" font-weight="normal" text-decoration="normal" x="517.5333251953125" y="235.5" text-anchor="start" dominant-baseline="alphabetic" transform="matrix(1, 0, 0, 1, 0.5, 0.5)">ID 001</text></g><g clip-path="url(#kWqTuROgxrVv)"><text fill="none" stroke="rgb(0,0,0)" font-family="helvetica" font-size="13px" font-style="normal" font-weight="normal" text-decoration="normal" x="517.5333251953125" y="235.5" text-anchor="start" dominant-baseline="alphabetic" transform="matrix(1, 0, 0, 1, 0.5, 0.5)" stroke-opacity="0" stroke-linejoin="bevel" stroke-miterlimit="10">ID 001</text></g><g clip-path="url(#kWqTuROgxrVv)"><g transform="matrix(1, 0, 0, 1, 492.5333251953125, 244)"><path fill="none" stroke="#fc4f30" paint-order="fill" d="M 0.5 10.5 L 20.5 10.5" stroke-linejoin="bevel" stroke-miterlimit="10" stroke-width="2"/></g></g><g clip-path="url(#kWqTuROgxrVv)"><text fill="#444444" stroke="none" font-family="helvetica" font-size="13px" font-style="normal" font-weight="normal" text-decoration="normal" x="517.5333251953125" y="258.5" text-anchor="start" dominant-baseline="alphabetic" transform="matrix(1, 0, 0, 1, 0.5, 0.5)">ID 006</text></g><g clip-path="url(#kWqTuROgxrVv)"><text fill="none" stroke="rgb(0,0,0)" font-family="helvetica" font-size="13px" font-style="normal" font-weight="normal" text-decoration="normal" x="517.5333251953125" y="258.5" text-anchor="start" dominant-baseline="alphabetic" transform="matrix(1, 0, 0, 1, 0.5, 0.5)" stroke-opacity="0" stroke-linejoin="bevel" stroke-miterlimit="10">ID 006</text></g><text fill="black" stroke="none" font-family="helvetica" font-size="14pt" font-style="normal" font-weight="normal" text-decoration="normal" x="0" y="18" text-anchor="start" dominant-baseline="alphabetic" transform="matrix(1, 0, 0, 1, 5.5, 7.5)">A. Paris</text><text fill="none" stroke="rgb(0,0,0)" font-family="helvetica" font-size="14pt" font-style="normal" font-weight="normal" text-decoration="normal" x="0" y="18" text-anchor="start" dominant-baseline="alphabetic" transform="matrix(1, 0, 0, 1, 5.5, 7.5)" stroke-opacity="0" stroke-linejoin="bevel" stroke-miterlimit="10">A. Paris</text></svg>