<svg version="1.1" xmlns="http://www.w3.org/2000/svg" width="605" height="336"><defs><clipPath id="KRgTwSoiZvsV"><path fill="none" stroke="none" d="M 75.5 35.5 L 575.5 35.5 L 575.5 285.5 L 75.5 285.5 L 75.5 35.5 Z"/></clipPath><clipPath id="NzSEceHOlJkm"><path fill="none" stroke="none" d="M 75.5 35.5 L 575.5 35.5 L 575.5 285.5 L 75.5 285.5 L 75.5 35.5 Z"/></clipPath><clipPath id="cRzIazMgPDAE"><path fill="none" stroke="none" d="M 75.5 35.5 L 575.5 35.5 L 575.5 285.5 L 75.5 285.5 L 75.5 35.5 Z"/></clipPath><clipPath id="ZSvuSxyHEJaD"><path fill="none" stroke="none" d="M 75.5 35.5 L 575.5 35.5 L 575.5 285.5 L 75.5 285.5 L 75.5 35.5 Z"/></clipPath><clipPath id="bBAUktTBIKKK"><path fill="none" stroke="none" d="M 75.5 35.5 L 575.5 35.5 L 575.5 285.5 L 75.5 285.5 L 75.5 35.5 Z"/></clipPath><clipPath id="nXzCecHgxUyS"><path fill="none" stroke="none" d="M 75.5 35.5 L 575.5 35.5 L 575.5 285.5 L 75.5 285.5 L 75.5 35.5 Z"/></clipPath><clipPath id="umbRBdUnqiOh"><path fill="none" stroke="none" d="M 75.5 35.5 L 575.5 35.5 L 575.5 285.5 L 75.5 285.5 L 75.5 35.5 Z"/></clipPath></defs><path fill="none" stroke="#e5e5e5" paint-order="fill" d="M 75.5 35.5 L 575.5 35.5 L 575.5 285.5 L 75.5 285.5 L 75.5 35.5 Z" stroke-linejoin="bevel" stroke-miterlimit="10"/><path fill="none" stroke="black" paint-order="fill" d="M 75.5 80.54869842529297 L 101.81578826904297 85.62174987792969 L 128.13157653808594 76.4902572631836 L 154.44737243652344 84.60713958740234 L 180.76315307617188 58.227272033691406 L 207.07894897460938 71.41720581054688 L 233.3947296142578 97.79708099365234 L 259.7105407714844 67.3587646484375 L 286.02630615234375 62.28571319580078 L 312.34210205078125 76.4902572631836 L 338.65789794921875 106.92857360839844 L 364.97369384765625 74.4610366821289 L 391.2894592285156 87.65097045898438 L 417.6052551269531 97.79708099365234 L 443.9210510253906 74.4610366821289 L 470.2368469238281 114.03084564208984 L 496.5526428222656 79.53408813476562 L 522.868408203125 60.256492614746094 L 549.1842041015625 82.57791900634766 L 575.5 95.76786041259766" stroke-linejoin="bevel" stroke-miterlimit="10" stroke-width="2" clip-path="url(#cRzIazMgPDAE)"/><path fill="none" stroke="blue" paint-order="fill" d="M 75.5 81.3419418334961 L 101.81578826904297 80.17359924316406 L 128.13157653808594 79.00526428222656 L 154.44737243652344 77.83692169189453 L 180.76315307617188 76.66858673095703 L 207.07894897460938 75.500244140625 L 233.3947296142578 74.3319091796875 L 259.7105407714844 73.16356658935547 L 286.02630615234375 71.99523162841797 L 312.34210205078125 70.82688903808594" stroke-linejoin="bevel" stroke-miterlimit="10" stroke-width="2" clip-path="url(#ZSvuSxyHEJaD)"/><path fill="none" stroke="blue" paint-order="fill" d="M 338.65789794921875 92.6871337890625 L 364.97369384765625 91.5003433227539 L 391.2894592285156 90.31356048583984 L 417.6052551269531 89.12677001953125 L 443.9210510253906 87.93998718261719 L 470.2368469238281 86.7531967163086 L 496.5526428222656 85.56641387939453 L 522.868408203125 84.37962341308594 L 549.1842041015625 83.19284057617188 L 575.5 82.00605010986328" stroke-linejoin="bevel" stroke-miterlimit="10" stroke-width="2" clip-path="url(#bBAUktTBIKKK)"/><path fill="none" stroke="grey" paint-order="fill" d="M 338.6578947368471 35.5 L 338.6578947368471 285.5" stroke-linejoin="bevel" stroke-miterlimit="10" stroke-width="3" stroke-dasharray="6" clip-path="url(#nXzCecHgxUyS)"/><path fill="none" stroke="black" paint-order="fill" d="M 75.5 285.5 L 575.5 285.5" stroke-linejoin="bevel" stroke-miterlimit="10"/><path fill="none" stroke="black" paint-order="fill" d="M 75.5 291.5 L 75.5 283.5 M 207.5 291.5 L 207.5 283.5 M 338.5 291.5 L 338.5 283.5 M 470.5 291.5 L 470.5 283.5" stroke-linejoin="bevel" stroke-miterlimit="10"/><path fill="none" stroke="black" paint-order="fill" d="M 75.5 289.5 L 75.5 285.5 M 101.5 289.5 L 101.5 285.5 M 128.5 289.5 L 128.5 285.5 M 154.5 289.5 L 154.5 285.5 M 180.5 289.5 L 180.5 285.5 M 207.5 289.5 L 207.5 285.5 M 233.5 289.5 L 233.5 285.5 M 259.5 289.5 L 259.5 285.5 M 286.5 289.5 L 286.5 285.5 M 312.5 289.5 L 312.5 285.5 M 338.5 289.5 L 338.5 285.5 M 364.5 289.5 L 364.5 285.5 M 391.5 289.5 L 391.5 285.5 M 417.5 289.5 L 417.5 285.5 M 443.5 289.5 L 443.5 285.5 M 470.5 289.5 L 470.5 285.5 M 496.5 289.5 L 496.5 285.5 M 522.5 289.5 L 522.5 285.5 M 549.5 289.5 L 549.5 285.5 M 575.5 289.5 L 575.5 285.5" stroke-linejoin="bevel" stroke-miterlimit="10"/><text fill="#444444" stroke="none" font-family="helvetica" font-size="10pt" font-style="normal" font-weight="normal" text-decoration="normal" x="61.63333320617676" y="306" text-anchor="start" dominant-baseline="alphabetic" transform="matrix(1, 0, 0, 1, 0.5, 0.5)">2025</text><text fill="none" stroke="rgb(0,0,0)" font-family="helvetica" font-size="10pt" font-style="normal" font-weight="normal" text-decoration="normal" x="61.63333320617676" y="306" text-anchor="start" dominant-baseline="alphabetic" transform="matrix(1, 0, 0, 1, 0.5, 0.5)" stroke-opacity="0" stroke-linejoin="bevel" stroke-miterlimit="10">2025</text><text fill="#444444" stroke="none" font-family="helvetica" font-size="10pt" font-style="normal" font-weight="normal" text-decoration="normal" x="193.21228218078613" y="306" text-anchor="start" dominant-baseline="alphabetic" transform="matrix(1, 0, 0, 1, 0.5, 0.5)">2030</text><text fill="none" stroke="rgb(0,0,0)" font-family="helvetica" font-size="10pt" font-style="normal" font-weight="normal" text-decoration="normal" x="193.21228218078613" y="306" text-anchor="start" dominant-baseline="alphabetic" transform="matrix(1, 0, 0, 1, 0.5, 0.5)" stroke-opacity="0" stroke-linejoin="bevel" stroke-miterlimit="10">2030</text><text fill="#444444" stroke="none" font-family="helvetica" font-size="10pt" font-style="normal" font-weight="normal" text-decoration="normal" x="324.7912311553955" y="306" text-anchor="start" dominant-baseline="alphabetic" transform="matrix(1, 0, 0, 1, 0.5, 0.5)">2035</text><text fill="none" stroke="rgb(0,0,0)" font-family="helvetica" font-size="10pt" font-style="normal" font-weight="normal" text-decoration="normal" x="324.7912311553955" y="306" text-anchor="start" dominant-baseline="alphabetic" transform="matrix(1, 0, 0, 1, 0.5, 0.5)" stroke-opacity="0" stroke-linejoin="bevel" stroke-miterlimit="10">2035</text><text fill="#444444" stroke="none" font-family="helvetica" font-size="10pt" font-style="normal" font-weight="normal" text-decoration="normal" x="456.3701801300049" y="306" text-anchor="start" dominant-baseline="alphabetic" transform="matrix(1, 0, 0, 1, 0.5, 0.5)">2040</text><text fill="none" stroke="rgb(0,0,0)" font-family="helvetica" font-size="10pt" font-style="normal" font-weight="normal" text-decoration="normal" x="456.3701801300049" y="306" text-anchor="start" dominant-baseline="alphabetic" transform="matrix(1, 0, 0, 1, 0.5, 0.5)" stroke-opacity="0" stroke-linejoin="bevel" stroke-miterlimit="10">2040</text><text fill="#444444" stroke="none" font-family="helvetica" font-size="12pt" font-style="normal" font-weight="normal" text-decoration="normal" x="310.3166666030884" y="329" text-anchor="start" dominant-baseline="alphabetic" transform="matrix(1, 0, 0, 1, 0.5, 0.5)">Year</text><text fill="none" stroke="rgb(0,0,0)" font-family="helvetica" font-size="12pt" font-style="normal" font-weight="normal" text-decoration="normal" x="310.3166666030884" y="329" text-anchor="start" dominant-baseline="alphabetic" transform="matrix(1, 0, 0, 1, 0.5, 0.5)" stroke-opacity="0" stroke-linejoin="bevel" stroke-miterlimit="10">Year</text><path fill="none" stroke="black" paint-order="fill" d="M 75.5 285.5 L 75.5 35.5" stroke-linejoin="bevel" stroke-miterlimit="10"/><path fill="none" stroke="black" paint-order="fill" d="M 69.5 285.5 L 77.5 285.5 M 69.5 234.5 L 77.5 234.5 M 69.5 184.5 L 77.5 184.5 M 69.5 133.5 L 77.5 133.5 M 69.5 82.5 L 77.5 82.5" stroke-linejoin="bevel" stroke-miterlimit="10"/><path fill="none" stroke="black" paint-order="fill" d="M 71.5 285.5 L 75.5 285.5 M 71.5 275.5 L 75.5 275.5 M 71.5 265.5 L 75.5 265.5 M 71.5 255.5 L 75.5 255.5 M 71.5 244.5 L 75.5 244.5 M 71.5 234.5 L 75.5 234.5 M 71.5 224.5 L 75.5 224.5 M 71.5 214.5 L 75.5 214.5 M 71.5 204.5 L 75.5 204.5 M 71.5 194.5 L 75.5 194.5 M 71.5 184.5 L 75.5 184.5 M 71.5 173.5 L 75.5 173.5 M 71.5 163.5 L 75.5 163.5 M 71.5 153.5 L 75.5 153.5 M 71.5 143.5 L 75.5 143.5 M 71.5 133.5 L 75.5 133.5 M 71.5 123.5 L 75.5 123.5 M 71.5 113.5 L 75.5 113.5 M 71.5 102.5 L 75.5 102.5 M 71.5 92.5 L 75.5 92.5 M 71.5 82.5 L 75.5 82.5 M 71.5 72.5 L 75.5 72.5 M 71.5 62.5 L 75.5 62.5 M 71.5 52.5 L 75.5 52.5 M 71.5 41.5 L 75.5 41.5" stroke-linejoin="bevel" stroke-miterlimit="10"/><text fill="#444444" stroke="none" font-family="helvetica" font-size="10pt" font-style="normal" font-weight="normal" text-decoration="normal" x="57.31666660308838" y="290" text-anchor="start" dominant-baseline="alphabetic" transform="matrix(1, 0, 0, 1, 0.5, 0.5)">0</text><text fill="none" stroke="rgb(0,0,0)" font-family="helvetica" font-size="10pt" font-style="normal" font-weight="normal" text-decoration="normal" x="57.31666660308838" y="290" text-anchor="start" dominant-baseline="alphabetic" transform="matrix(1, 0, 0, 1, 0.5, 0.5)" stroke-opacity="0" stroke-linejoin="bevel" stroke-miterlimit="10">0</text><text fill="#444444" stroke="none" font-family="helvetica" font-size="10pt" font-style="normal" font-weight="normal" text-decoration="normal" x="50.63333320617676" y="239.2694854736328" text-anchor="start" dominant-baseline="alphabetic" transform="matrix(1, 0, 0, 1, 0.5, 0.5)">50</text><text fill="none" stroke="rgb(0,0,0)" font-family="helvetica" font-size="10pt" font-style="normal" font-weight="normal" text-decoration="normal" x="50.63333320617676" y="239.2694854736328" text-anchor="start" dominant-baseline="alphabetic" transform="matrix(1, 0, 0, 1, 0.5, 0.5)" stroke-opacity="0" stroke-linejoin="bevel" stroke-miterlimit="10">50</text><text fill="#444444" stroke="none" font-family="helvetica" font-size="10pt" font-style="normal" font-weight="normal" text-decoration="normal" x="43.95000076293945" y="188.53895568847656" text-anchor="start" dominant-baseline="alphabetic" transform="matrix(1, 0, 0, 1, 0.5, 0.5)">100</text><text fill="none" stroke="rgb(0,0,0)" font-family="helvetica" font-size="10pt" font-style="normal" font-weight="normal" text-decoration="normal" x="43.95000076293945" y="188.53895568847656" text-anchor="start" dominant-baseline="alphabetic" transform="matrix(1, 0, 0, 1, 0.5, 0.5)" stroke-opacity="0" stroke-linejoin="bevel" stroke-miterlimit="10">100</text><text fill="#444444" stroke="none" font-family="helvetica" font-size="10pt" font-style="normal" font-weight="normal" text-decoration="normal" x="43.95000076293945" y="137.80844116210938" text-anchor="start" dominant-baseline="alphabetic" transform="matrix(1, 0, 0, 1, 0.5, 0.5)">150</text><text fill="none" stroke="rgb(0,0,0)" font-family="helvetica" font-size="10pt" font-style="normal" font-weight="normal" text-decoration="normal" x="43.95000076293945" y="137.80844116210938" text-anchor="start" dominant-baseline="alphabetic" transform="matrix(1, 0, 0, 1, 0.5, 0.5)" stroke-opacity="0" stroke-linejoin="bevel" stroke-miterlimit="10">150</text><text fill="#444444" stroke="none" font-family="helvetica" font-size="10pt" font-style="normal" font-weight="normal" text-decoration="normal" x="43.95000076293945" y="87.07791900634766" text-anchor="start" dominant-baseline="alphabetic" transform="matrix(1, 0, 0, 1, 0.5, 0.5)">200</text><text fill="none" stroke="rgb(0,0,0)" font-family="helvetica" font-size="10pt" font-style="normal" font-weight="normal" text-decoration="normal" x="43.95000076293945" y="87.07791900634766" text-anchor="start" dominant-baseline="alphabetic" transform="matrix(1, 0, 0, 1, 0.5, 0.5)" stroke-opacity="0" stroke-linejoin="bevel" stroke-miterlimit="10">200</text><text fill="#444444" stroke="none" font-family="helvetica" font-size="12pt" font-style="normal" font-weight="normal" text-decoration="normal" x="-60.25833511352539" y="156" text-anchor="start" dominant-baseline="alphabetic" transform="matrix(6.123233995736766e-17, -1, 1, 6.123233995736766e-17, -123.54999923706055, 196.45000076293945)">Days suitable for transmission</text><text fill="none" stroke="rgb(0,0,0)" font-family="helvetica" font-size="12pt" font-style="normal" font-weight="normal" text-decoration="normal" x="-60.25833511352539" y="156" text-anchor="start" dominant-baseline="alphabetic" transform="matrix(6.123233995736766e-17, -1, 1, 6.123233995736766e-17, -123.54999923706055, 196.45000076293945)" stroke-opacity="0" stroke-linejoin="bevel" stroke-miterlimit="10">Days suitable for transmission</text><text fill="black" stroke="none" font-family="helvetica" font-size="14pt" font-style="normal" font-weight="normal" text-decoration="normal" x="0" y="18" text-anchor="start" dominant-baseline="alphabetic" transform="matrix(1, 0, 0, 1, 5.5, 7.5)">A. ID 002, Los Angeles</text><text fill="none" stroke="rgb(0,0,0)" font-family="helvetica" font-size="14pt" font-style="normal" font-weight="normal" text-decoration="normal" x="0" y="18" text-anchor="start" dominant-baseline="alphabetic" transform="matrix(1, 0, 0, 1, 5.5, 7.5)" stroke-opacity="0" stroke-linejoin="bevel" stroke-miterlimit="10">A. ID 002, Los Angeles</text></svg>