<svg version="1.1" xmlns="http://www.w3.org/2000/svg" width="605" height="336"><defs><clipPath id="updtgCkCMqAC"><path fill="none" stroke="none" d="M 75.5 35.5 L 575.5 35.5 L 575.5 285.5 L 75.5 285.5 L 75.5 35.5 Z"/></clipPath><clipPath id="dXbowFTqbpSg"><path fill="none" stroke="none" d="M 75.5 35.5 L 575.5 35.5 L 575.5 285.5 L 75.5 285.5 L 75.5 35.5 Z"/></clipPath><clipPath id="clfMgpUGfaTA"><path fill="none" stroke="none" d="M 75.5 35.5 L 575.5 35.5 L 575.5 285.5 L 75.5 285.5 L 75.5 35.5 Z"/></clipPath><clipPath id="JfBZmTZewylu"><path fill="none" stroke="none" d="M 75.5 35.5 L 575.5 35.5 L 575.5 285.5 L 75.5 285.5 L 75.5 35.5 Z"/></clipPath><clipPath id="tTNXuutmPXaK"><path fill="none" stroke="none" d="M 75.5 35.5 L 575.5 35.5 L 575.5 285.5 L 75.5 285.5 L 75.5 35.5 Z"/></clipPath><clipPath id="sJPTMGFGRdoc"><path fill="none" stroke="none" d="M 75.5 35.5 L 575.5 35.5 L 575.5 285.5 L 75.5 285.5 L 75.5 35.5 Z"/></clipPath><clipPath id="CZHHXcAlpwPW"><path fill="none" stroke="none" d="M 75.5 35.5 L 575.5 35.5 L 575.5 285.5 L 75.5 285.5 L 75.5 35.5 Z"/></clipPath></defs><path fill="none" stroke="#e5e5e5" paint-order="fill" d="M 75.5 35.5 L 575.5 35.5 L 575.5 285.5 L 75.5 285.5 L 75.5 35.5 Z" stroke-linejoin="bevel" stroke-miterlimit="10"/><path fill="none" stroke="black" paint-order="fill" d="M 75.5 86.38495635986328 L 101.81578826904297 96.44126892089844 L 128.13157653808594 77.33427429199219 L 154.44737243652344 101.46942901611328 L 180.76315307617188 95.43563842773438 L 207.07894897460938 68.28358459472656 L 233.3947296142578 84.37369537353516 L 259.7105407714844 91.41311645507812 L 286.02630615234375 58.227272033691406 L 312.34210205078125 88.3962173461914 L 338.65789794921875 109.51448059082031 L 364.97369384765625 83.3680648803711 L 391.2894592285156 84.37369537353516 L 417.6052551269531 71.30048370361328 L 443.9210510253906 76.32864379882812 L 470.2368469238281 89.40184783935547 L 496.5526428222656 98.4525375366211 L 522.868408203125 105.49195861816406 L 549.1842041015625 75.32300567626953 L 575.5 103.4806900024414" stroke-linejoin="bevel" stroke-miterlimit="10" stroke-width="2" clip-path="url(#clfMgpUGfaTA)"/><path fill="none" stroke="blue" paint-order="fill" d="M 75.5 91.79708099365234 L 101.81578826904297 90.23683166503906 L 128.13157653808594 88.67657470703125 L 154.44737243652344 87.11632537841797 L 180.76315307617188 85.55606842041016 L 207.07894897460938 83.99581909179688 L 233.3947296142578 82.4355697631836 L 259.7105407714844 80.87531280517578 L 286.02630615234375 79.3150634765625 L 312.34210205078125 77.75480651855469" stroke-linejoin="bevel" stroke-miterlimit="10" stroke-width="2" clip-path="url(#JfBZmTZewylu)"/><path fill="none" stroke="blue" paint-order="fill" d="M 338.65789794921875 87.2625961303711 L 364.97369384765625 87.8050308227539 L 391.2894592285156 88.34745788574219 L 417.6052551269531 88.889892578125 L 443.9210510253906 89.43232727050781 L 470.2368469238281 89.9747543334961 L 496.5526428222656 90.5171890258789 L 522.868408203125 91.05961608886719 L 549.1842041015625 91.60205078125 L 575.5 92.14448547363281" stroke-linejoin="bevel" stroke-miterlimit="10" stroke-width="2" clip-path="url(#tTNXuutmPXaK)"/><path fill="none" stroke="grey" paint-order="fill" d="M 338.6578947368471 35.5 L 338.6578947368471 285.5" stroke-linejoin="bevel" stroke-miterlimit="10" stroke-width="3" stroke-dasharray="6" clip-path="url(#sJPTMGFGRdoc)"/><path fill="none" stroke="black" paint-order="fill" d="M 75.5 285.5 L 575.5 285.5" stroke-linejoin="bevel" stroke-miterlimit="10"/><path fill="none" stroke="black" paint-order="fill" d="M 75.5 291.5 L 75.5 283.5 M 207.5 291.5 L 207.5 283.5 M 338.5 291.5 L 338.5 283.5 M 470.5 291.5 L 470.5 283.5" stroke-linejoin="bevel" stroke-miterlimit="10"/><path fill="none" stroke="black" paint-order="fill" d="M 75.5 289.5 L 75.5 285.5 M 101.5 289.5 L 101.5 285.5 M 128.5 289.5 L 128.5 285.5 M 154.5 289.5 L 154.5 285.5 M 180.5 289.5 L 180.5 285.5 M 207.5 289.5 L 207.5 285.5 M 233.5 289.5 L 233.5 285.5 M 259.5 289.5 L 259.5 285.5 M 286.5 289.5 L 286.5 285.5 M 312.5 289.5 L 312.5 285.5 M 338.5 289.5 L 338.5 285.5 M 364.5 289.5 L 364.5 285.5 M 391.5 289.5 L 391.5 285.5 M 417.5 289.5 L 417.5 285.5 M 443.5 289.5 L 443.5 285.5 M 470.5 289.5 L 470.5 285.5 M 496.5 289.5 L 496.5 285.5 M 522.5 289.5 L 522.5 285.5 M 549.5 289.5 L 549.5 285.5 M 575.5 289.5 L 575.5 285.5" stroke-linejoin="bevel" stroke-miterlimit="10"/><text fill="#444444" stroke="none" font-family="helvetica" font-size="10pt" font-style="normal" font-weight="normal" text-decoration="normal" x="61.63333320617676" y="306" text-anchor="start" dominant-baseline="alphabetic" transform="matrix(1, 0, 0, 1, 0.5, 0.5)">2025</text><text fill="none" stroke="rgb(0,0,0)" font-family="helvetica" font-size="10pt" font-style="normal" font-weight="normal" text-decoration="normal" x="61.63333320617676" y="306" text-anchor="start" dominant-baseline="alphabetic" transform="matrix(1, 0, 0, 1, 0.5, 0.5)" stroke-opacity="0" stroke-linejoin="bevel" stroke-miterlimit="10">2025</text><text fill="#444444" stroke="none" font-family="helvetica" font-size="10pt" font-style="normal" font-weight="normal" text-decoration="normal" x="193.21228218078613" y="306" text-anchor="start" dominant-baseline="alphabetic" transform="matrix(1, 0, 0, 1, 0.5, 0.5)">2030</text><text fill="none" stroke="rgb(0,0,0)" font-family="helvetica" font-size="10pt" font-style="normal" font-weight="normal" text-decoration="normal" x="193.21228218078613" y="306" text-anchor="start" dominant-baseline="alphabetic" transform="matrix(1, 0, 0, 1, 0.5, 0.5)" stroke-opacity="0" stroke-linejoin="bevel" stroke-miterlimit="10">2030</text><text fill="#444444" stroke="none" font-family="helvetica" font-size="10pt" font-style="normal" font-weight="normal" text-decoration="normal" x="324.7912311553955" y="306" text-anchor="start" dominant-baseline="alphabetic" transform="matrix(1, 0, 0, 1, 0.5, 0.5)">2035</text><text fill="none" stroke="rgb(0,0,0)" font-family="helvetica" font-size="10pt" font-style="normal" font-weight="normal" text-decoration="normal" x="324.7912311553955" y="306" text-anchor="start" dominant-baseline="alphabetic" transform="matrix(1, 0, 0, 1, 0.5, 0.5)" stroke-opacity="0" stroke-linejoin="bevel" stroke-miterlimit="10">2035</text><text fill="#444444" stroke="none" font-family="helvetica" font-size="10pt" font-style="normal" font-weight="normal" text-decoration="normal" x="456.3701801300049" y="306" text-anchor="start" dominant-baseline="alphabetic" transform="matrix(1, 0, 0, 1, 0.5, 0.5)">2040</text><text fill="none" stroke="rgb(0,0,0)" font-family="helvetica" font-size="10pt" font-style="normal" font-weight="normal" text-decoration="normal" x="456.3701801300049" y="306" text-anchor="start" dominant-baseline="alphabetic" transform="matrix(1, 0, 0, 1, 0.5, 0.5)" stroke-opacity="0" stroke-linejoin="bevel" stroke-miterlimit="10">2040</text><text fill="#444444" stroke="none" font-family="helvetica" font-size="12pt" font-style="normal" font-weight="normal" text-decoration="normal" x="310.3166666030884" y="329" text-anchor="start" dominant-baseline="alphabetic" transform="matrix(1, 0, 0, 1, 0.5, 0.5)">Year</text><text fill="none" stroke="rgb(0,0,0)" font-family="helvetica" font-size="12pt" font-style="normal" font-weight="normal" text-decoration="normal" x="310.3166666030884" y="329" text-anchor="start" dominant-baseline="alphabetic" transform="matrix(1, 0, 0, 1, 0.5, 0.5)" stroke-opacity="0" stroke-linejoin="bevel" stroke-miterlimit="10">Year</text><path fill="none" stroke="black" paint-order="fill" d="M 75.5 285.5 L 75.5 35.5" stroke-linejoin="bevel" stroke-miterlimit="10"/><path fill="none" stroke="black" paint-order="fill" d="M 69.5 285.5 L 77.5 285.5 M 69.5 235.5 L 77.5 235.5 M 69.5 184.5 L 77.5 184.5 M 69.5 134.5 L 77.5 134.5 M 69.5 84.5 L 77.5 84.5" stroke-linejoin="bevel" stroke-miterlimit="10"/><path fill="none" stroke="black" paint-order="fill" d="M 71.5 285.5 L 75.5 285.5 M 71.5 275.5 L 75.5 275.5 M 71.5 265.5 L 75.5 265.5 M 71.5 255.5 L 75.5 255.5 M 71.5 245.5 L 75.5 245.5 M 71.5 235.5 L 75.5 235.5 M 71.5 225.5 L 75.5 225.5 M 71.5 215.5 L 75.5 215.5 M 71.5 205.5 L 75.5 205.5 M 71.5 194.5 L 75.5 194.5 M 71.5 184.5 L 75.5 184.5 M 71.5 174.5 L 75.5 174.5 M 71.5 164.5 L 75.5 164.5 M 71.5 154.5 L 75.5 154.5 M 71.5 144.5 L 75.5 144.5 M 71.5 134.5 L 75.5 134.5 M 71.5 124.5 L 75.5 124.5 M 71.5 114.5 L 75.5 114.5 M 71.5 104.5 L 75.5 104.5 M 71.5 94.5 L 75.5 94.5 M 71.5 84.5 L 75.5 84.5 M 71.5 74.5 L 75.5 74.5 M 71.5 64.5 L 75.5 64.5 M 71.5 54.5 L 75.5 54.5 M 71.5 44.5 L 75.5 44.5" stroke-linejoin="bevel" stroke-miterlimit="10"/><text fill="#444444" stroke="none" font-family="helvetica" font-size="10pt" font-style="normal" font-weight="normal" text-decoration="normal" x="57.31666660308838" y="290" text-anchor="start" dominant-baseline="alphabetic" transform="matrix(1, 0, 0, 1, 0.5, 0.5)">0</text><text fill="none" stroke="rgb(0,0,0)" font-family="helvetica" font-size="10pt" font-style="normal" font-weight="normal" text-decoration="normal" x="57.31666660308838" y="290" text-anchor="start" dominant-baseline="alphabetic" transform="matrix(1, 0, 0, 1, 0.5, 0.5)" stroke-opacity="0" stroke-linejoin="bevel" stroke-miterlimit="10">0</text><text fill="#444444" stroke="none" font-family="helvetica" font-size="10pt" font-style="normal" font-weight="normal" text-decoration="normal" x="50.63333320617676" y="239.7184295654297" text-anchor="start" dominant-baseline="alphabetic" transform="matrix(1, 0, 0, 1, 0.5, 0.5)">50</text><text fill="none" stroke="rgb(0,0,0)" font-family="helvetica" font-size="10pt" font-style="normal" font-weight="normal" text-decoration="normal" x="50.63333320617676" y="239.7184295654297" text-anchor="start" dominant-baseline="alphabetic" transform="matrix(1, 0, 0, 1, 0.5, 0.5)" stroke-opacity="0" stroke-linejoin="bevel" stroke-miterlimit="10">50</text><text fill="#444444" stroke="none" font-family="helvetica" font-size="10pt" font-style="normal" font-weight="normal" text-decoration="normal" x="43.95000076293945" y="189.4368438720703" text-anchor="start" dominant-baseline="alphabetic" transform="matrix(1, 0, 0, 1, 0.5, 0.5)">100</text><text fill="none" stroke="rgb(0,0,0)" font-family="helvetica" font-size="10pt" font-style="normal" font-weight="normal" text-decoration="normal" x="43.95000076293945" y="189.4368438720703" text-anchor="start" dominant-baseline="alphabetic" transform="matrix(1, 0, 0, 1, 0.5, 0.5)" stroke-opacity="0" stroke-linejoin="bevel" stroke-miterlimit="10">100</text><text fill="#444444" stroke="none" font-family="helvetica" font-size="10pt" font-style="normal" font-weight="normal" text-decoration="normal" x="43.95000076293945" y="139.1552734375" text-anchor="start" dominant-baseline="alphabetic" transform="matrix(1, 0, 0, 1, 0.5, 0.5)">150</text><text fill="none" stroke="rgb(0,0,0)" font-family="helvetica" font-size="10pt" font-style="normal" font-weight="normal" text-decoration="normal" x="43.95000076293945" y="139.1552734375" text-anchor="start" dominant-baseline="alphabetic" transform="matrix(1, 0, 0, 1, 0.5, 0.5)" stroke-opacity="0" stroke-linejoin="bevel" stroke-miterlimit="10">150</text><text fill="#444444" stroke="none" font-family="helvetica" font-size="10pt" font-style="normal" font-weight="normal" text-decoration="normal" x="43.95000076293945" y="88.87369537353516" text-anchor="start" dominant-baseline="alphabetic" transform="matrix(1, 0, 0, 1, 0.5, 0.5)">200</text><text fill="none" stroke="rgb(0,0,0)" font-family="helvetica" font-size="10pt" font-style="normal" font-weight="normal" text-decoration="normal" x="43.95000076293945" y="88.87369537353516" text-anchor="start" dominant-baseline="alphabetic" transform="matrix(1, 0, 0, 1, 0.5, 0.5)" stroke-opacity="0" stroke-linejoin="bevel" stroke-miterlimit="10">200</text><text fill="#444444" stroke="none" font-family="helvetica" font-size="12pt" font-style="normal" font-weight="normal" text-decoration="normal" x="-60.25833511352539" y="156" text-anchor="start" dominant-baseline="alphabetic" transform="matrix(6.123233995736766e-17, -1, 1, 6.123233995736766e-17, -123.54999923706055, 196.45000076293945)">Days suitable for transmission</text><text fill="none" stroke="rgb(0,0,0)" font-family="helvetica" font-size="12pt" font-style="normal" font-weight="normal" text-decoration="normal" x="-60.25833511352539" y="156" text-anchor="start" dominant-baseline="alphabetic" transform="matrix(6.123233995736766e-17, -1, 1, 6.123233995736766e-17, -123.54999923706055, 196.45000076293945)" stroke-opacity="0" stroke-linejoin="bevel" stroke-miterlimit="10">Days suitable for transmission</text><text fill="black" stroke="none" font-family="helvetica" font-size="14pt" font-style="normal" font-weight="normal" text-decoration="normal" x="0" y="18" text-anchor="start" dominant-baseline="alphabetic" transform="matrix(1, 0, 0, 1, 5.5, 7.5)">C. ID 003, Los Angeles</text><text fill="none" stroke="rgb(0,0,0)" font-family="helvetica" font-size="14pt" font-style="normal" font-weight="normal" text-decoration="normal" x="0" y="18" text-anchor="start" dominant-baseline="alphabetic" transform="matrix(1, 0, 0, 1, 5.5, 7.5)" stroke-opacity="0" stroke-linejoin="bevel" stroke-miterlimit="10">C. ID 003, Los Angeles</text></svg>