<svg version="1.1" xmlns="http://www.w3.org/2000/svg" width="600" height="334"><defs><clipPath id="LTimiwQVUGKV"><path fill="none" stroke="none" d="M 70.5 33.5 L 570.5 33.5 L 570.5 283.5 L 70.5 283.5 L 70.5 33.5 Z"/></clipPath><clipPath id="EnEJISLWXGIO"><path fill="none" stroke="none" d="M 70.5 33.5 L 570.5 33.5 L 570.5 283.5 L 70.5 283.5 L 70.5 33.5 Z"/></clipPath><clipPath id="USGOmPsqTAJc"><path fill="none" stroke="none" d="M 70.5 33.5 L 570.5 33.5 L 570.5 283.5 L 70.5 283.5 L 70.5 33.5 Z"/></clipPath><clipPath id="KMfTHxicxvtq"><path fill="none" stroke="none" d="M 70.5 33.5 L 570.5 33.5 L 570.5 283.5 L 70.5 283.5 L 70.5 33.5 Z"/></clipPath><clipPath id="ktywBEaeOLBt"><path fill="none" stroke="none" d="M 70.5 33.5 L 570.5 33.5 L 570.5 283.5 L 70.5 283.5 L 70.5 33.5 Z"/></clipPath><clipPath id="IXeSkVtrPIRc"><path fill="none" stroke="none" d="M 70.5 33.5 L 570.5 33.5 L 570.5 283.5 L 70.5 283.5 L 70.5 33.5 Z"/></clipPath><clipPath id="ImKDOkHWBTrR"><path fill="none" stroke="none" d="M 70.5 33.5 L 570.5 33.5 L 570.5 283.5 L 70.5 283.5 L 70.5 33.5 Z"/></clipPath><clipPath id="RlrnhtHKuaDx"><path fill="none" stroke="none" d="M 70.5 33.5 L 570.5 33.5 L 570.5 283.5 L 70.5 283.5 L 70.5 33.5 Z"/></clipPath><clipPath id="PMancuOcgTeu"><path fill="none" stroke="none" d="M 70.5 33.5 L 570.5 33.5 L 570.5 283.5 L 70.5 283.5 L 70.5 33.5 Z"/></clipPath><clipPath id="HExnNwPSiyTf"><path fill="none" stroke="none" d="M 70.5 33.5 L 570.5 33.5 L 570.5 283.5 L 70.5 283.5 L 70.5 33.5 Z"/></clipPath><clipPath id="pUUgDnSTqhCX"><path fill="none" stroke="none" d="M 70.5 33.5 L 570.5 33.5 L 570.5 283.5 L 70.5 283.5 L 70.5 33.5 Z"/></clipPath><clipPath id="DdKquqflEPTO"><path fill="none" stroke="none" d="M 70.5 33.5 L 570.5 33.5 L 570.5 283.5 L 70.5 283.5 L 70.5 33.5 Z"/></clipPath><clipPath id="gWPLShyEuxCz"><path fill="none" stroke="none" d="M 70.5 33.5 L 570.5 33.5 L 570.5 283.5 L 70.5 283.5 L 70.5 33.5 Z"/></clipPath><clipPath id="ibtfxtULREou"><path fill="none" stroke="none" d="M 70.5 33.5 L 570.5 33.5 L 570.5 283.5 L 70.5 283.5 L 70.5 33.5 Z"/></clipPath><clipPath id="UgbMTUymnURR"><path fill="none" stroke="none" d="M 70.5 33.5 L 570.5 33.5 L 570.5 283.5 L 70.5 283.5 L 70.5 33.5 Z"/></clipPath><clipPath id="BaPZGEQGbidV"><path fill="none" stroke="none" d="M 70.5 33.5 L 570.5 33.5 L 570.5 283.5 L 70.5 283.5 L 70.5 33.5 Z"/></clipPath><clipPath id="rXlTLQDDFZPy"><path fill="none" stroke="none" d="M 70.5 33.5 L 570.5 33.5 L 570.5 283.5 L 70.5 283.5 L 70.5 33.5 Z"/></clipPath><clipPath id="ANvNcwvRMzOA"><path fill="none" stroke="none" d="M 70.5 33.5 L 570.5 33.5 L 570.5 283.5 L 70.5 283.5 L 70.5 33.5 Z"/></clipPath><clipPath id="lWVktcxUPWTE"><path fill="none" stroke="none" d="M 70.5 33.5 L 570.5 33.5 L 570.5 283.5 L 70.5 283.5 L 70.5 33.5 Z"/></clipPath><clipPath id="PHBnSMpnacSu"><path fill="none" stroke="none" d="M 70.5 33.5 L 570.5 33.5 L 570.5 283.5 L 70.5 283.5 L 70.5 33.5 Z"/></clipPath><clipPath id="eyuwMFZZqHEB"><path fill="none" stroke="none" d="M 70.5 33.5 L 570.5 33.5 L 570.5 283.5 L 70.5 283.5 L 70.5 33.5 Z"/></clipPath><clipPath id="IDyTiHOBLTBd"><path fill="none" stroke="none" d="M 70.5 33.5 L 570.5 33.5 L 570.5 283.5 L 70.5 283.5 L 70.5 33.5 Z"/></clipPath><clipPath id="bSTLSswinPft"><path fill="none" stroke="none" d="M 70.5 33.5 L 570.5 33.5 L 570.5 283.5 L 70.5 283.5 L 70.5 33.5 Z"/></clipPath></defs><path fill="none" stroke="#e5e5e5" paint-order="fill" d="M 70.5 33.5 L 570.5 33.5 L 570.5 283.5 L 70.5 283.5 L 70.5 33.5 Z" stroke-linejoin="bevel" stroke-miterlimit="10"/><path fill="none" stroke="black" paint-order="fill" d="M 332.46172248803487 33.5 L 332.46172248803487 283.5" stroke-linejoin="bevel" stroke-miterlimit="10" stroke-width="3" stroke-dasharray="6" clip-path="url(#USGOmPsqTAJc)"/><path fill="none" stroke="#9467bd" paint-order="fill" d="M 93.2272720336914 115.06810760498047 L 117.15071868896484 90.7962646484375 L 141.07415771484375 101.0934066772461 L 164.9976043701172 79.0280990600586 L 188.92105102539062 96.68034362792969 L 212.84449768066406 123.89423370361328 L 236.7679443359375 106.97749328613281 L 260.6913757324219 86.3832015991211 L 284.6148376464844 126.10076141357422 L 308.53826904296875 81.23462677001953" stroke-linejoin="bevel" stroke-miterlimit="10" stroke-width="2" clip-path="url(#KMfTHxicxvtq)"/><path fill="none" stroke="#9467bd" paint-order="fill" d="M 93.2272720336914 115.06810760498047 L 117.15071868896484 90.7962646484375 L 141.07415771484375 101.0934066772461 L 164.9976043701172 79.0280990600586 L 188.92105102539062 96.68034362792969 L 212.84449768066406 123.89423370361328 L 236.7679443359375 106.97749328613281 L 260.6913757324219 86.3832015991211 L 284.6148376464844 126.10076141357422 L 308.53826904296875 81.23462677001953" stroke-linejoin="bevel" stroke-miterlimit="10" stroke-width="2" stroke-dasharray="6" clip-path="url(#ktywBEaeOLBt)"/><path fill="none" stroke="#30a2da" paint-order="fill" d="M 308.53826904296875 81.23462677001953 L 332.46173095703125 87.11871337890625 L 356.3851623535156 107.71300506591797 L 380.3086242675781 95.2093276977539 L 404.2320556640625 111.39055633544922 L 428.155517578125 101.0934066772461 L 452.0789489746094 116.53913116455078 L 476.00238037109375 118.74565887451172 L 499.92584228515625 112.12606811523438 L 523.8493041992188 101.0934066772461 L 547.772705078125 99.62239074707031" stroke-linejoin="bevel" stroke-miterlimit="10" stroke-width="2" clip-path="url(#IXeSkVtrPIRc)"/><path fill="none" stroke="#30a2da" paint-order="fill" d="M 332.46173095703125 99.92996978759766 L 356.3851623535156 101.07112121582031 L 380.3086242675781 102.2122802734375 L 404.2320556640625 103.35343170166016 L 428.155517578125 104.49459075927734 L 452.0789489746094 105.6357421875 L 476.00238037109375 106.77690124511719 L 499.92584228515625 107.91805267333984 L 523.8493041992188 109.05921173095703 L 547.772705078125 110.20036315917969" stroke-linejoin="bevel" stroke-miterlimit="10" stroke-width="2" stroke-dasharray="6" clip-path="url(#ImKDOkHWBTrR)"/><path fill="none" stroke="#fc4f30" paint-order="fill" d="M 308.53826904296875 81.23462677001953 L 332.46173095703125 82.70565032958984 L 356.3851623535156 104.77096557617188 L 380.3086242675781 65.78890991210938 L 404.2320556640625 86.3832015991211 L 428.155517578125 102.5644302368164 L 452.0789489746094 56.227272033691406 L 476.00238037109375 101.0934066772461 L 499.92584228515625 120.21668243408203 L 523.8493041992188 121.68770599365234 L 547.772705078125 70.20197296142578" stroke-linejoin="bevel" stroke-miterlimit="10" stroke-width="2" clip-path="url(#RlrnhtHKuaDx)"/><path fill="none" stroke="#fc4f30" paint-order="fill" d="M 332.46173095703125 83.64175415039062 L 356.3851623535156 85.31336975097656 L 380.3086242675781 86.9849853515625 L 404.2320556640625 88.6565933227539 L 428.155517578125 90.32820892333984 L 452.0789489746094 91.99982452392578 L 476.00238037109375 93.67144012451172 L 499.92584228515625 95.34305572509766 L 523.8493041992188 97.0146713256836 L 547.772705078125 98.68628692626953" stroke-linejoin="bevel" stroke-miterlimit="10" stroke-width="2" stroke-dasharray="6" clip-path="url(#PMancuOcgTeu)"/><path fill="none" stroke="rgb(128,128,128)" paint-order="fill" d="M 93.2272720336914 101.0934066772461 L 117.15071868896484 102.5644302368164 L 141.07415771484375 91.53177642822266 L 164.9976043701172 101.0934066772461 L 188.92105102539062 104.77096557617188 L 212.84449768066406 96.68034362792969 L 236.7679443359375 91.53177642822266 L 260.6913757324219 104.77096557617188 L 284.6148376464844 130.51382446289062 L 308.53826904296875 70.20197296142578" stroke-opacity="0.7490196078431373" stroke-linejoin="bevel" stroke-miterlimit="10" clip-path="url(#HExnNwPSiyTf)"/><path fill="none" stroke="grey" paint-order="fill" d="M 308.53826904296875 70.20197296142578 L 332.46173095703125 116.53913116455078 L 356.3851623535156 106.97749328613281 L 380.3086242675781 98.1513671875 L 404.2320556640625 106.24198150634766 L 428.155517578125 126.83627319335938 L 452.0789489746094 107.71300506591797 L 476.00238037109375 95.94483947753906 L 499.92584228515625 123.15872192382812 L 523.8493041992188 106.24198150634766 L 547.772705078125 90.7962646484375" stroke-linejoin="bevel" stroke-miterlimit="10" stroke-width="0.5" clip-path="url(#pUUgDnSTqhCX)"/><path fill="none" stroke="grey" paint-order="fill" d="M 308.53826904296875 70.20197296142578 L 332.46173095703125 94.47381591796875 L 356.3851623535156 118.74565887451172 L 380.3086242675781 110.65504455566406 L 404.2320556640625 105.5064697265625 L 428.155517578125 117.27464294433594 L 452.0789489746094 129.0428009033203 L 476.00238037109375 71.67298889160156 L 499.92584228515625 97.41585540771484 L 523.8493041992188 122.42321014404297 L 547.772705078125 125.3652572631836" stroke-linejoin="bevel" stroke-miterlimit="10" stroke-width="0.5" clip-path="url(#DdKquqflEPTO)"/><path fill="none" stroke="rgb(128,128,128)" paint-order="fill" d="M 93.2272720336914 106.24198150634766 L 117.15071868896484 121.68770599365234 L 141.07415771484375 97.41585540771484 L 164.9976043701172 93.7383041381836 L 188.92105102539062 106.24198150634766 L 212.84449768066406 112.12606811523438 L 236.7679443359375 93.00279235839844 L 260.6913757324219 95.2093276977539 L 284.6148376464844 120.21668243408203 L 308.53826904296875 102.5644302368164" stroke-opacity="0.7490196078431373" stroke-linejoin="bevel" stroke-miterlimit="10" clip-path="url(#gWPLShyEuxCz)"/><path fill="none" stroke="grey" paint-order="fill" d="M 308.53826904296875 102.5644302368164 L 332.46173095703125 110.65504455566406 L 356.3851623535156 89.32524108886719 L 380.3086242675781 107.71300506591797 L 404.2320556640625 98.1513671875 L 428.155517578125 93.00279235839844 L 452.0789489746094 94.47381591796875 L 476.00238037109375 81.97013854980469 L 499.92584228515625 105.5064697265625 L 523.8493041992188 119.48117065429688 L 547.772705078125 112.12606811523438" stroke-linejoin="bevel" stroke-miterlimit="10" stroke-width="0.5" clip-path="url(#ibtfxtULREou)"/><path fill="none" stroke="grey" paint-order="fill" d="M 308.53826904296875 102.5644302368164 L 332.46173095703125 112.86157989501953 L 356.3851623535156 105.5064697265625 L 380.3086242675781 106.97749328613281 L 404.2320556640625 90.7962646484375 L 428.155517578125 93.7383041381836 L 452.0789489746094 108.44851684570312 L 476.00238037109375 100.35790252685547 L 499.92584228515625 83.441162109375 L 523.8493041992188 90.06075286865234 L 547.772705078125 137.1334228515625" stroke-linejoin="bevel" stroke-miterlimit="10" stroke-width="0.5" clip-path="url(#UgbMTUymnURR)"/><path fill="none" stroke="rgb(128,128,128)" paint-order="fill" d="M 93.2272720336914 98.88687896728516 L 117.15071868896484 92.26728820800781 L 141.07415771484375 88.58972930908203 L 164.9976043701172 104.77096557617188 L 188.92105102539062 118.01014709472656 L 212.84449768066406 81.97013854980469 L 236.7679443359375 96.68034362792969 L 260.6913757324219 77.55707550048828 L 284.6148376464844 101.82891845703125 L 308.53826904296875 106.97749328613281" stroke-opacity="0.7490196078431373" stroke-linejoin="bevel" stroke-miterlimit="10" clip-path="url(#BaPZGEQGbidV)"/><path fill="none" stroke="grey" paint-order="fill" d="M 308.53826904296875 106.97749328613281 L 332.46173095703125 106.24198150634766 L 356.3851623535156 104.77096557617188 L 380.3086242675781 123.15872192382812 L 404.2320556640625 117.27464294433594 L 428.155517578125 101.82891845703125 L 452.0789489746094 104.77096557617188 L 476.00238037109375 108.44851684570312 L 499.92584228515625 106.24198150634766 L 523.8493041992188 105.5064697265625 L 547.772705078125 93.7383041381836" stroke-linejoin="bevel" stroke-miterlimit="10" stroke-width="0.5" clip-path="url(#rXlTLQDDFZPy)"/><path fill="none" stroke="grey" paint-order="fill" d="M 308.53826904296875 106.97749328613281 L 332.46173095703125 104.03545379638672 L 356.3851623535156 88.58972930908203 L 380.3086242675781 101.0934066772461 L 404.2320556640625 122.42321014404297 L 428.155517578125 103.29994201660156 L 452.0789489746094 104.77096557617188 L 476.00238037109375 99.62239074707031 L 499.92584228515625 109.18402099609375 L 523.8493041992188 104.03545379638672 L 547.772705078125 111.39055633544922" stroke-linejoin="bevel" stroke-miterlimit="10" stroke-width="0.5" clip-path="url(#ANvNcwvRMzOA)"/><path fill="none" stroke="rgb(128,128,128)" paint-order="fill" d="M 93.2272720336914 98.1513671875 L 117.15071868896484 115.80361938476562 L 141.07415771484375 123.15872192382812 L 164.9976043701172 96.68034362792969 L 188.92105102539062 88.58972930908203 L 212.84449768066406 128.3072967529297 L 236.7679443359375 94.47381591796875 L 260.6913757324219 92.26728820800781 L 284.6148376464844 126.83627319335938 L 308.53826904296875 102.5644302368164" stroke-opacity="0.7490196078431373" stroke-linejoin="bevel" stroke-miterlimit="10" clip-path="url(#lWVktcxUPWTE)"/><path fill="none" stroke="grey" paint-order="fill" d="M 308.53826904296875 102.5644302368164 L 332.46173095703125 70.93748474121094 L 356.3851623535156 98.1513671875 L 380.3086242675781 95.94483947753906 L 404.2320556640625 81.97013854980469 L 428.155517578125 112.12606811523438 L 452.0789489746094 120.95219421386719 L 476.00238037109375 80.49911499023438 L 499.92584228515625 110.65504455566406 L 523.8493041992188 95.94483947753906 L 547.772705078125 85.64768981933594" stroke-linejoin="bevel" stroke-miterlimit="10" stroke-width="0.5" clip-path="url(#PHBnSMpnacSu)"/><path fill="none" stroke="grey" paint-order="fill" d="M 308.53826904296875 102.5644302368164 L 332.46173095703125 68.73094940185547 L 356.3851623535156 104.77096557617188 L 380.3086242675781 106.97749328613281 L 404.2320556640625 113.59708404541016 L 428.155517578125 90.7962646484375 L 452.0789489746094 109.9195327758789 L 476.00238037109375 122.42321014404297 L 499.92584228515625 98.88687896728516 L 523.8493041992188 87.11871337890625 L 547.772705078125 105.5064697265625" stroke-linejoin="bevel" stroke-miterlimit="10" stroke-width="0.5" clip-path="url(#eyuwMFZZqHEB)"/><path fill="none" stroke="black" paint-order="fill" d="M 70.5 283.5 L 570.5 283.5" stroke-linejoin="bevel" stroke-miterlimit="10"/><path fill="none" stroke="black" paint-order="fill" d="M 93.5 289.5 L 93.5 281.5 M 212.5 289.5 L 212.5 281.5 M 332.5 289.5 L 332.5 281.5 M 452.5 289.5 L 452.5 281.5" stroke-linejoin="bevel" stroke-miterlimit="10"/><path fill="none" stroke="black" paint-order="fill" d="M 93.5 287.5 L 93.5 283.5 M 117.5 287.5 L 117.5 283.5 M 141.5 287.5 L 141.5 283.5 M 164.5 287.5 L 164.5 283.5 M 188.5 287.5 L 188.5 283.5 M 212.5 287.5 L 212.5 283.5 M 236.5 287.5 L 236.5 283.5 M 260.5 287.5 L 260.5 283.5 M 284.5 287.5 L 284.5 283.5 M 308.5 287.5 L 308.5 283.5 M 332.5 287.5 L 332.5 283.5 M 356.5 287.5 L 356.5 283.5 M 380.5 287.5 L 380.5 283.5 M 404.5 287.5 L 404.5 283.5 M 428.5 287.5 L 428.5 283.5 M 452.5 287.5 L 452.5 283.5 M 476.5 287.5 L 476.5 283.5 M 499.5 287.5 L 499.5 283.5 M 523.5 287.5 L 523.5 283.5 M 547.5 287.5 L 547.5 283.5" stroke-linejoin="bevel" stroke-miterlimit="10"/><text fill="#444444" stroke="none" font-family="helvetica" font-size="10pt" font-style="normal" font-weight="normal" text-decoration="normal" x="79.36060523986816" y="304" text-anchor="start" dominant-baseline="alphabetic" transform="matrix(1, 0, 0, 1, 0.5, 0.5)">2025</text><text fill="none" stroke="rgb(0,0,0)" font-family="helvetica" font-size="10pt" font-style="normal" font-weight="normal" text-decoration="normal" x="79.36060523986816" y="304" text-anchor="start" dominant-baseline="alphabetic" transform="matrix(1, 0, 0, 1, 0.5, 0.5)" stroke-opacity="0" stroke-linejoin="bevel" stroke-miterlimit="10">2025</text><text fill="#444444" stroke="none" font-family="helvetica" font-size="10pt" font-style="normal" font-weight="normal" text-decoration="normal" x="198.97783088684082" y="304" text-anchor="start" dominant-baseline="alphabetic" transform="matrix(1, 0, 0, 1, 0.5, 0.5)">2030</text><text fill="none" stroke="rgb(0,0,0)" font-family="helvetica" font-size="10pt" font-style="normal" font-weight="normal" text-decoration="normal" x="198.97783088684082" y="304" text-anchor="start" dominant-baseline="alphabetic" transform="matrix(1, 0, 0, 1, 0.5, 0.5)" stroke-opacity="0" stroke-linejoin="bevel" stroke-miterlimit="10">2030</text><text fill="#444444" stroke="none" font-family="helvetica" font-size="10pt" font-style="normal" font-weight="normal" text-decoration="normal" x="318.595064163208" y="304" text-anchor="start" dominant-baseline="alphabetic" transform="matrix(1, 0, 0, 1, 0.5, 0.5)">2035</text><text fill="none" stroke="rgb(0,0,0)" font-family="helvetica" font-size="10pt" font-style="normal" font-weight="normal" text-decoration="normal" x="318.595064163208" y="304" text-anchor="start" dominant-baseline="alphabetic" transform="matrix(1, 0, 0, 1, 0.5, 0.5)" stroke-opacity="0" stroke-linejoin="bevel" stroke-miterlimit="10">2035</text><text fill="#444444" stroke="none" font-family="helvetica" font-size="10pt" font-style="normal" font-weight="normal" text-decoration="normal" x="438.21228218078613" y="304" text-anchor="start" dominant-baseline="alphabetic" transform="matrix(1, 0, 0, 1, 0.5, 0.5)">2040</text><text fill="none" stroke="rgb(0,0,0)" font-family="helvetica" font-size="10pt" font-style="normal" font-weight="normal" text-decoration="normal" x="438.21228218078613" y="304" text-anchor="start" dominant-baseline="alphabetic" transform="matrix(1, 0, 0, 1, 0.5, 0.5)" stroke-opacity="0" stroke-linejoin="bevel" stroke-miterlimit="10">2040</text><text fill="#444444" stroke="none" font-family="helvetica" font-size="12pt" font-style="normal" font-weight="normal" text-decoration="normal" x="305.3166666030884" y="327" text-anchor="start" dominant-baseline="alphabetic" transform="matrix(1, 0, 0, 1, 0.5, 0.5)">Year</text><text fill="none" stroke="rgb(0,0,0)" font-family="helvetica" font-size="12pt" font-style="normal" font-weight="normal" text-decoration="normal" x="305.3166666030884" y="327" text-anchor="start" dominant-baseline="alphabetic" transform="matrix(1, 0, 0, 1, 0.5, 0.5)" stroke-opacity="0" stroke-linejoin="bevel" stroke-miterlimit="10">Year</text><path fill="none" stroke="black" paint-order="fill" d="M 70.5 283.5 L 70.5 33.5" stroke-linejoin="bevel" stroke-miterlimit="10"/><path fill="none" stroke="black" paint-order="fill" d="M 64.5 283.5 L 72.5 283.5 M 64.5 246.5 L 72.5 246.5 M 64.5 209.5 L 72.5 209.5 M 64.5 173.5 L 72.5 173.5 M 64.5 136.5 L 72.5 136.5 M 64.5 99.5 L 72.5 99.5 M 64.5 62.5 L 72.5 62.5" stroke-linejoin="bevel" stroke-miterlimit="10"/><path fill="none" stroke="black" paint-order="fill" d="M 66.5 283.5 L 70.5 283.5 M 66.5 276.5 L 70.5 276.5 M 66.5 268.5 L 70.5 268.5 M 66.5 261.5 L 70.5 261.5 M 66.5 254.5 L 70.5 254.5 M 66.5 246.5 L 70.5 246.5 M 66.5 239.5 L 70.5 239.5 M 66.5 232.5 L 70.5 232.5 M 66.5 224.5 L 70.5 224.5 M 66.5 217.5 L 70.5 217.5 M 66.5 209.5 L 70.5 209.5 M 66.5 202.5 L 70.5 202.5 M 66.5 195.5 L 70.5 195.5 M 66.5 187.5 L 70.5 187.5 M 66.5 180.5 L 70.5 180.5 M 66.5 173.5 L 70.5 173.5 M 66.5 165.5 L 70.5 165.5 M 66.5 158.5 L 70.5 158.5 M 66.5 151.5 L 70.5 151.5 M 66.5 143.5 L 70.5 143.5 M 66.5 136.5 L 70.5 136.5 M 66.5 129.5 L 70.5 129.5 M 66.5 121.5 L 70.5 121.5 M 66.5 114.5 L 70.5 114.5 M 66.5 106.5 L 70.5 106.5 M 66.5 99.5 L 70.5 99.5 M 66.5 92.5 L 70.5 92.5 M 66.5 84.5 L 70.5 84.5 M 66.5 77.5 L 70.5 77.5 M 66.5 70.5 L 70.5 70.5 M 66.5 62.5 L 70.5 62.5 M 66.5 55.5 L 70.5 55.5 M 66.5 48.5 L 70.5 48.5 M 66.5 40.5 L 70.5 40.5" stroke-linejoin="bevel" stroke-miterlimit="10"/><text fill="#444444" stroke="none" font-family="helvetica" font-size="10pt" font-style="normal" font-weight="normal" text-decoration="normal" x="52.31666660308838" y="288" text-anchor="start" dominant-baseline="alphabetic" transform="matrix(1, 0, 0, 1, 0.5, 0.5)">0</text><text fill="none" stroke="rgb(0,0,0)" font-family="helvetica" font-size="10pt" font-style="normal" font-weight="normal" text-decoration="normal" x="52.31666660308838" y="288" text-anchor="start" dominant-baseline="alphabetic" transform="matrix(1, 0, 0, 1, 0.5, 0.5)" stroke-opacity="0" stroke-linejoin="bevel" stroke-miterlimit="10">0</text><text fill="#444444" stroke="none" font-family="helvetica" font-size="10pt" font-style="normal" font-weight="normal" text-decoration="normal" x="45.63333320617676" y="251.22447204589844" text-anchor="start" dominant-baseline="alphabetic" transform="matrix(1, 0, 0, 1, 0.5, 0.5)">50</text><text fill="none" stroke="rgb(0,0,0)" font-family="helvetica" font-size="10pt" font-style="normal" font-weight="normal" text-decoration="normal" x="45.63333320617676" y="251.22447204589844" text-anchor="start" dominant-baseline="alphabetic" transform="matrix(1, 0, 0, 1, 0.5, 0.5)" stroke-opacity="0" stroke-linejoin="bevel" stroke-miterlimit="10">50</text><text fill="#444444" stroke="none" font-family="helvetica" font-size="10pt" font-style="normal" font-weight="normal" text-decoration="normal" x="38.95000076293945" y="214.44895935058594" text-anchor="start" dominant-baseline="alphabetic" transform="matrix(1, 0, 0, 1, 0.5, 0.5)">100</text><text fill="none" stroke="rgb(0,0,0)" font-family="helvetica" font-size="10pt" font-style="normal" font-weight="normal" text-decoration="normal" x="38.95000076293945" y="214.44895935058594" text-anchor="start" dominant-baseline="alphabetic" transform="matrix(1, 0, 0, 1, 0.5, 0.5)" stroke-opacity="0" stroke-linejoin="bevel" stroke-miterlimit="10">100</text><text fill="#444444" stroke="none" font-family="helvetica" font-size="10pt" font-style="normal" font-weight="normal" text-decoration="normal" x="38.95000076293945" y="177.67343139648438" text-anchor="start" dominant-baseline="alphabetic" transform="matrix(1, 0, 0, 1, 0.5, 0.5)">150</text><text fill="none" stroke="rgb(0,0,0)" font-family="helvetica" font-size="10pt" font-style="normal" font-weight="normal" text-decoration="normal" x="38.95000076293945" y="177.67343139648438" text-anchor="start" dominant-baseline="alphabetic" transform="matrix(1, 0, 0, 1, 0.5, 0.5)" stroke-opacity="0" stroke-linejoin="bevel" stroke-miterlimit="10">150</text><text fill="#444444" stroke="none" font-family="helvetica" font-size="10pt" font-style="normal" font-weight="normal" text-decoration="normal" x="38.95000076293945" y="140.89791870117188" text-anchor="start" dominant-baseline="alphabetic" transform="matrix(1, 0, 0, 1, 0.5, 0.5)">200</text><text fill="none" stroke="rgb(0,0,0)" font-family="helvetica" font-size="10pt" font-style="normal" font-weight="normal" text-decoration="normal" x="38.95000076293945" y="140.89791870117188" text-anchor="start" dominant-baseline="alphabetic" transform="matrix(1, 0, 0, 1, 0.5, 0.5)" stroke-opacity="0" stroke-linejoin="bevel" stroke-miterlimit="10">200</text><text fill="#444444" stroke="none" font-family="helvetica" font-size="10pt" font-style="normal" font-weight="normal" text-decoration="normal" x="38.95000076293945" y="104.12239074707031" text-anchor="start" dominant-baseline="alphabetic" transform="matrix(1, 0, 0, 1, 0.5, 0.5)">250</text><text fill="none" stroke="rgb(0,0,0)" font-family="helvetica" font-size="10pt" font-style="normal" font-weight="normal" text-decoration="normal" x="38.95000076293945" y="104.12239074707031" text-anchor="start" dominant-baseline="alphabetic" transform="matrix(1, 0, 0, 1, 0.5, 0.5)" stroke-opacity="0" stroke-linejoin="bevel" stroke-miterlimit="10">250</text><text fill="#444444" stroke="none" font-family="helvetica" font-size="10pt" font-style="normal" font-weight="normal" text-decoration="normal" x="38.95000076293945" y="67.34686660766602" text-anchor="start" dominant-baseline="alphabetic" transform="matrix(1, 0, 0, 1, 0.5, 0.5)">300</text><text fill="none" stroke="rgb(0,0,0)" font-family="helvetica" font-size="10pt" font-style="normal" font-weight="normal" text-decoration="normal" x="38.95000076293945" y="67.34686660766602" text-anchor="start" dominant-baseline="alphabetic" transform="matrix(1, 0, 0, 1, 0.5, 0.5)" stroke-opacity="0" stroke-linejoin="bevel" stroke-miterlimit="10">300</text><text fill="#444444" stroke="none" font-family="helvetica" font-size="12pt" font-style="normal" font-weight="normal" text-decoration="normal" x="-65.25833511352539" y="154" text-anchor="start" dominant-baseline="alphabetic" transform="matrix(6.123233995736766e-17, -1, 1, 6.123233995736766e-17, -126.54999923706055, 189.45000076293945)">Days suitable for transmission</text><text fill="none" stroke="rgb(0,0,0)" font-family="helvetica" font-size="12pt" font-style="normal" font-weight="normal" text-decoration="normal" x="-65.25833511352539" y="154" text-anchor="start" dominant-baseline="alphabetic" transform="matrix(6.123233995736766e-17, -1, 1, 6.123233995736766e-17, -126.54999923706055, 189.45000076293945)" stroke-opacity="0" stroke-linejoin="bevel" stroke-miterlimit="10">Days suitable for transmission</text><path fill="rgb(255,255,255)" stroke="rgb(229,229,229)" paint-order="fill" d="M 477.0333251953125 208.5 L 560.4999847412109 208.5 L 560.4999847412109 273.5 L 477.0333251953125 273.5 L 477.0333251953125 208.5 Z" fill-opacity="0.9490196078431372" clip-path="url(#IDyTiHOBLTBd)" stroke-opacity="0.5019607843137255" stroke-linejoin="bevel" stroke-miterlimit="10"/><g clip-path="url(#IDyTiHOBLTBd)"><g transform="matrix(1, 0, 0, 1, 487.5333251953125, 219)"><path fill="none" stroke="#30a2da" paint-order="fill" d="M 0.5 10.5 L 20.5 10.5" stroke-linejoin="bevel" stroke-miterlimit="10" stroke-width="2"/></g></g><g clip-path="url(#IDyTiHOBLTBd)"><text fill="#444444" stroke="none" font-family="helvetica" font-size="13px" font-style="normal" font-weight="normal" text-decoration="normal" x="512.5333251953125" y="233.5" text-anchor="start" dominant-baseline="alphabetic" transform="matrix(1, 0, 0, 1, 0.5, 0.5)">ID 001</text></g><g clip-path="url(#IDyTiHOBLTBd)"><text fill="none" stroke="rgb(0,0,0)" font-family="helvetica" font-size="13px" font-style="normal" font-weight="normal" text-decoration="normal" x="512.5333251953125" y="233.5" text-anchor="start" dominant-baseline="alphabetic" transform="matrix(1, 0, 0, 1, 0.5, 0.5)" stroke-opacity="0" stroke-linejoin="bevel" stroke-miterlimit="10">ID 001</text></g><g clip-path="url(#IDyTiHOBLTBd)"><g transform="matrix(1, 0, 0, 1, 487.5333251953125, 242)"><path fill="none" stroke="#fc4f30" paint-order="fill" d="M 0.5 10.5 L 20.5 10.5" stroke-linejoin="bevel" stroke-miterlimit="10" stroke-width="2"/></g></g><g clip-path="url(#IDyTiHOBLTBd)"><text fill="#444444" stroke="none" font-family="helvetica" font-size="13px" font-style="normal" font-weight="normal" text-decoration="normal" x="512.5333251953125" y="256.5" text-anchor="start" dominant-baseline="alphabetic" transform="matrix(1, 0, 0, 1, 0.5, 0.5)">ID 006</text></g><g clip-path="url(#IDyTiHOBLTBd)"><text fill="none" stroke="rgb(0,0,0)" font-family="helvetica" font-size="13px" font-style="normal" font-weight="normal" text-decoration="normal" x="512.5333251953125" y="256.5" text-anchor="start" dominant-baseline="alphabetic" transform="matrix(1, 0, 0, 1, 0.5, 0.5)" stroke-opacity="0" stroke-linejoin="bevel" stroke-miterlimit="10">ID 006</text></g><text fill="black" stroke="none" font-family="helvetica" font-size="14pt" font-style="normal" font-weight="normal" text-decoration="normal" x="0" y="18" text-anchor="start" dominant-baseline="alphabetic" transform="matrix(1, 0, 0, 1, 5.5, 5.5)">C. Cape Town</text><text fill="none" stroke="rgb(0,0,0)" font-family="helvetica" font-size="14pt" font-style="normal" font-weight="normal" text-decoration="normal" x="0" y="18" text-anchor="start" dominant-baseline="alphabetic" transform="matrix(1, 0, 0, 1, 5.5, 5.5)" stroke-opacity="0" stroke-linejoin="bevel" stroke-miterlimit="10">C. Cape Town</text></svg>