<svg version="1.1" xmlns="http://www.w3.org/2000/svg" width="600" height="329"><defs><clipPath id="pJMpeLBqlgyN"><path fill="none" stroke="none" d="M 70.5 30.5 L 570.5 30.5 L 570.5 280.5 L 70.5 280.5 L 70.5 30.5 Z"/></clipPath><clipPath id="NUnltMCFenoE"><path fill="none" stroke="none" d="M 70.5 30.5 L 570.5 30.5 L 570.5 280.5 L 70.5 280.5 L 70.5 30.5 Z"/></clipPath><clipPath id="katcGkoJWbMW"><path fill="none" stroke="none" d="M 70.5 30.5 L 570.5 30.5 L 570.5 280.5 L 70.5 280.5 L 70.5 30.5 Z"/></clipPath><clipPath id="rRsaSGROSTHr"><path fill="none" stroke="none" d="M 70.5 30.5 L 570.5 30.5 L 570.5 280.5 L 70.5 280.5 L 70.5 30.5 Z"/></clipPath><clipPath id="pvDkEtcEOphB"><path fill="none" stroke="none" d="M 70.5 30.5 L 570.5 30.5 L 570.5 280.5 L 70.5 280.5 L 70.5 30.5 Z"/></clipPath><clipPath id="wdKSdzMBBODW"><path fill="none" stroke="none" d="M 70.5 30.5 L 570.5 30.5 L 570.5 280.5 L 70.5 280.5 L 70.5 30.5 Z"/></clipPath><clipPath id="zTnTxCuTWZrW"><path fill="none" stroke="none" d="M 70.5 30.5 L 570.5 30.5 L 570.5 280.5 L 70.5 280.5 L 70.5 30.5 Z"/></clipPath><clipPath id="pRAEhAFURJBn"><path fill="none" stroke="none" d="M 70.5 30.5 L 570.5 30.5 L 570.5 280.5 L 70.5 280.5 L 70.5 30.5 Z"/></clipPath><clipPath id="OXWOsVDCZPFx"><path fill="none" stroke="none" d="M 70.5 30.5 L 570.5 30.5 L 570.5 280.5 L 70.5 280.5 L 70.5 30.5 Z"/></clipPath><clipPath id="troUUDJMthnk"><path fill="none" stroke="none" d="M 70.5 30.5 L 570.5 30.5 L 570.5 280.5 L 70.5 280.5 L 70.5 30.5 Z"/></clipPath><clipPath id="bMXGyPzZIdLc"><path fill="none" stroke="none" d="M 70.5 30.5 L 570.5 30.5 L 570.5 280.5 L 70.5 280.5 L 70.5 30.5 Z"/></clipPath><clipPath id="sMwLuqySbIxt"><path fill="none" stroke="none" d="M 70.5 30.5 L 570.5 30.5 L 570.5 280.5 L 70.5 280.5 L 70.5 30.5 Z"/></clipPath><clipPath id="JXInluNuIIHT"><path fill="none" stroke="none" d="M 70.5 30.5 L 570.5 30.5 L 570.5 280.5 L 70.5 280.5 L 70.5 30.5 Z"/></clipPath><clipPath id="opNMlHFlXeth"><path fill="none" stroke="none" d="M 70.5 30.5 L 570.5 30.5 L 570.5 280.5 L 70.5 280.5 L 70.5 30.5 Z"/></clipPath><clipPath id="qOQMOOpOtqXP"><path fill="none" stroke="none" d="M 70.5 30.5 L 570.5 30.5 L 570.5 280.5 L 70.5 280.5 L 70.5 30.5 Z"/></clipPath><clipPath id="ztJITcTQXsSK"><path fill="none" stroke="none" d="M 70.5 30.5 L 570.5 30.5 L 570.5 280.5 L 70.5 280.5 L 70.5 30.5 Z"/></clipPath><clipPath id="sFxrJTylcerB"><path fill="none" stroke="none" d="M 70.5 30.5 L 570.5 30.5 L 570.5 280.5 L 70.5 280.5 L 70.5 30.5 Z"/></clipPath><clipPath id="DoLZLLHnThVu"><path fill="none" stroke="none" d="M 70.5 30.5 L 570.5 30.5 L 570.5 280.5 L 70.5 280.5 L 70.5 30.5 Z"/></clipPath><clipPath id="ESNVNTCeIvez"><path fill="none" stroke="none" d="M 70.5 30.5 L 570.5 30.5 L 570.5 280.5 L 70.5 280.5 L 70.5 30.5 Z"/></clipPath><clipPath id="gAaTFdwghWxZ"><path fill="none" stroke="none" d="M 70.5 30.5 L 570.5 30.5 L 570.5 280.5 L 70.5 280.5 L 70.5 30.5 Z"/></clipPath><clipPath id="TabaAvmLtrwa"><path fill="none" stroke="none" d="M 70.5 30.5 L 570.5 30.5 L 570.5 280.5 L 70.5 280.5 L 70.5 30.5 Z"/></clipPath><clipPath id="hqQXlXMPTUKN"><path fill="none" stroke="none" d="M 70.5 30.5 L 570.5 30.5 L 570.5 280.5 L 70.5 280.5 L 70.5 30.5 Z"/></clipPath><clipPath id="LSUFiUQpsshA"><path fill="none" stroke="none" d="M 70.5 30.5 L 570.5 30.5 L 570.5 280.5 L 70.5 280.5 L 70.5 30.5 Z"/></clipPath></defs><path fill="none" stroke="#e5e5e5" paint-order="fill" d="M 70.5 30.5 L 570.5 30.5 L 570.5 280.5 L 70.5 280.5 L 70.5 30.5 Z" stroke-linejoin="bevel" stroke-miterlimit="10"/><path fill="none" stroke="black" paint-order="fill" d="M 332.46172248803487 30.5 L 332.46172248803487 280.5" stroke-linejoin="bevel" stroke-miterlimit="10" stroke-width="3" stroke-dasharray="6" clip-path="url(#katcGkoJWbMW)"/><path fill="none" stroke="#9467bd" paint-order="fill" d="M 93.2272720336914 78.3056411743164 L 117.15071868896484 90.8448257446289 L 141.07415771484375 108.0862045288086 L 164.9976043701172 98.68181610107422 L 188.92105102539062 83.0078353881836 L 212.84449768066406 103.3840103149414 L 236.7679443359375 108.0862045288086 L 260.6913757324219 111.22100067138672 L 284.6148376464844 130.02978515625 L 308.53826904296875 103.3840103149414" stroke-linejoin="bevel" stroke-miterlimit="10" stroke-width="2" clip-path="url(#rRsaSGROSTHr)"/><path fill="none" stroke="#9467bd" paint-order="fill" d="M 93.2272720336914 78.3056411743164 L 117.15071868896484 90.8448257446289 L 141.07415771484375 108.0862045288086 L 164.9976043701172 98.68181610107422 L 188.92105102539062 83.0078353881836 L 212.84449768066406 103.3840103149414 L 236.7679443359375 108.0862045288086 L 260.6913757324219 111.22100067138672 L 284.6148376464844 130.02978515625 L 308.53826904296875 103.3840103149414" stroke-linejoin="bevel" stroke-miterlimit="10" stroke-width="2" stroke-dasharray="6" clip-path="url(#pvDkEtcEOphB)"/><path fill="none" stroke="#30a2da" paint-order="fill" d="M 308.53826904296875 103.3840103149414 L 332.46173095703125 78.3056411743164 L 356.3851623535156 79.87303924560547 L 380.3086242675781 75.17084503173828 L 404.2320556640625 93.97962188720703 L 428.155517578125 90.8448257446289 L 452.0789489746094 122.19278717041016 L 476.00238037109375 136.29937744140625 L 499.92584228515625 86.14263153076172 L 523.8493041992188 126.89498138427734 L 547.772705078125 150.4059600830078" stroke-linejoin="bevel" stroke-miterlimit="10" stroke-width="2" clip-path="url(#wdKSdzMBBODW)"/><path fill="none" stroke="#30a2da" paint-order="fill" d="M 332.46173095703125 71.52308654785156 L 356.3851623535156 78.74261474609375 L 380.3086242675781 85.96214294433594 L 404.2320556640625 93.18167877197266 L 428.155517578125 100.40120697021484 L 452.0789489746094 107.62073516845703 L 476.00238037109375 114.84027099609375 L 499.92584228515625 122.05979919433594 L 523.8493041992188 129.27932739257812 L 547.772705078125 136.4988555908203" stroke-linejoin="bevel" stroke-miterlimit="10" stroke-width="2" stroke-dasharray="6" clip-path="url(#zTnTxCuTWZrW)"/><path fill="none" stroke="#fc4f30" paint-order="fill" d="M 308.53826904296875 103.3840103149414 L 332.46173095703125 72.03604888916016 L 356.3851623535156 164.51254272460938 L 380.3086242675781 133.16458129882812 L 404.2320556640625 117.49059295654297 L 428.155517578125 119.05799102783203 L 452.0789489746094 90.8448257446289 L 476.00238037109375 109.65360260009766 L 499.92584228515625 93.97962188720703 L 523.8493041992188 122.19278717041016 L 547.772705078125 81.44043731689453" stroke-linejoin="bevel" stroke-miterlimit="10" stroke-width="2" clip-path="url(#pRAEhAFURJBn)"/><path fill="none" stroke="#fc4f30" paint-order="fill" d="M 332.46173095703125 122.96224212646484 L 356.3851623535156 120.17892456054688 L 380.3086242675781 117.39559936523438 L 404.2320556640625 114.6122817993164 L 428.155517578125 111.82896423339844 L 452.0789489746094 109.04564666748047 L 476.00238037109375 106.2623291015625 L 499.92584228515625 103.47900390625 L 523.8493041992188 100.69568634033203 L 547.772705078125 97.91236877441406" stroke-linejoin="bevel" stroke-miterlimit="10" stroke-width="2" stroke-dasharray="6" clip-path="url(#OXWOsVDCZPFx)"/><path fill="none" stroke="rgb(128,128,128)" paint-order="fill" d="M 93.2272720336914 142.5689697265625 L 117.15071868896484 61.06426239013672 L 141.07415771484375 72.03604888916016 L 164.9976043701172 97.11441802978516 L 188.92105102539062 103.3840103149414 L 212.84449768066406 68.90125274658203 L 236.7679443359375 112.78839874267578 L 260.6913757324219 98.68181610107422 L 284.6148376464844 78.3056411743164 L 308.53826904296875 53.227272033691406" stroke-opacity="0.7490196078431373" stroke-linejoin="bevel" stroke-miterlimit="10" clip-path="url(#troUUDJMthnk)"/><path fill="none" stroke="grey" paint-order="fill" d="M 308.53826904296875 53.227272033691406 L 332.46173095703125 68.90125274658203 L 356.3851623535156 98.68181610107422 L 380.3086242675781 83.0078353881836 L 404.2320556640625 84.57523345947266 L 428.155517578125 76.73824310302734 L 452.0789489746094 72.03604888916016 L 476.00238037109375 73.60344696044922 L 499.92584228515625 90.8448257446289 L 523.8493041992188 95.5470199584961 L 547.772705078125 114.35579681396484" stroke-linejoin="bevel" stroke-miterlimit="10" stroke-width="0.5" clip-path="url(#bMXGyPzZIdLc)"/><path fill="none" stroke="grey" paint-order="fill" d="M 308.53826904296875 53.227272033691406 L 332.46173095703125 79.87303924560547 L 356.3851623535156 79.87303924560547 L 380.3086242675781 83.0078353881836 L 404.2320556640625 76.73824310302734 L 428.155517578125 109.65360260009766 L 452.0789489746094 84.57523345947266 L 476.00238037109375 101.81661224365234 L 499.92584228515625 106.51880645751953 L 523.8493041992188 109.65360260009766 L 547.772705078125 78.3056411743164" stroke-linejoin="bevel" stroke-miterlimit="10" stroke-width="0.5" clip-path="url(#sMwLuqySbIxt)"/><path fill="none" stroke="rgb(128,128,128)" paint-order="fill" d="M 93.2272720336914 122.19278717041016 L 117.15071868896484 111.22100067138672 L 141.07415771484375 89.27742767333984 L 164.9976043701172 70.4686508178711 L 188.92105102539062 98.68181610107422 L 212.84449768066406 61.06426239013672 L 236.7679443359375 62.63166046142578 L 260.6913757324219 90.8448257446289 L 284.6148376464844 114.35579681396484 L 308.53826904296875 68.90125274658203" stroke-opacity="0.7490196078431373" stroke-linejoin="bevel" stroke-miterlimit="10" clip-path="url(#JXInluNuIIHT)"/><path fill="none" stroke="grey" paint-order="fill" d="M 308.53826904296875 68.90125274658203 L 332.46173095703125 68.90125274658203 L 356.3851623535156 73.60344696044922 L 380.3086242675781 72.03604888916016 L 404.2320556640625 68.90125274658203 L 428.155517578125 79.87303924560547 L 452.0789489746094 70.4686508178711 L 476.00238037109375 62.63166046142578 L 499.92584228515625 97.11441802978516 L 523.8493041992188 81.44043731689453 L 547.772705078125 93.97962188720703" stroke-linejoin="bevel" stroke-miterlimit="10" stroke-width="0.5" clip-path="url(#opNMlHFlXeth)"/><path fill="none" stroke="grey" paint-order="fill" d="M 308.53826904296875 68.90125274658203 L 332.46173095703125 75.17084503173828 L 356.3851623535156 81.44043731689453 L 380.3086242675781 108.0862045288086 L 404.2320556640625 92.41222381591797 L 428.155517578125 100.24921417236328 L 452.0789489746094 117.49059295654297 L 476.00238037109375 79.87303924560547 L 499.92584228515625 108.0862045288086 L 523.8493041992188 79.87303924560547 L 547.772705078125 78.3056411743164" stroke-linejoin="bevel" stroke-miterlimit="10" stroke-width="0.5" clip-path="url(#qOQMOOpOtqXP)"/><path fill="none" stroke="rgb(128,128,128)" paint-order="fill" d="M 93.2272720336914 83.0078353881836 L 117.15071868896484 64.19905853271484 L 141.07415771484375 76.73824310302734 L 164.9976043701172 103.3840103149414 L 188.92105102539062 119.05799102783203 L 212.84449768066406 97.11441802978516 L 236.7679443359375 103.3840103149414 L 260.6913757324219 53.227272033691406 L 284.6148376464844 87.71002960205078 L 308.53826904296875 84.57523345947266" stroke-opacity="0.7490196078431373" stroke-linejoin="bevel" stroke-miterlimit="10" clip-path="url(#ztJITcTQXsSK)"/><path fill="none" stroke="grey" paint-order="fill" d="M 308.53826904296875 84.57523345947266 L 332.46173095703125 92.41222381591797 L 356.3851623535156 73.60344696044922 L 380.3086242675781 104.95140838623047 L 404.2320556640625 81.44043731689453 L 428.155517578125 115.9231948852539 L 452.0789489746094 72.03604888916016 L 476.00238037109375 115.9231948852539 L 499.92584228515625 95.5470199584961 L 523.8493041992188 115.9231948852539 L 547.772705078125 98.68181610107422" stroke-linejoin="bevel" stroke-miterlimit="10" stroke-width="0.5" clip-path="url(#sFxrJTylcerB)"/><path fill="none" stroke="grey" paint-order="fill" d="M 308.53826904296875 84.57523345947266 L 332.46173095703125 98.68181610107422 L 356.3851623535156 67.33385467529297 L 380.3086242675781 83.0078353881836 L 404.2320556640625 95.5470199584961 L 428.155517578125 104.95140838623047 L 452.0789489746094 101.81661224365234 L 476.00238037109375 86.14263153076172 L 499.92584228515625 97.11441802978516 L 523.8493041992188 95.5470199584961 L 547.772705078125 84.57523345947266" stroke-linejoin="bevel" stroke-miterlimit="10" stroke-width="0.5" clip-path="url(#DoLZLLHnThVu)"/><path fill="none" stroke="rgb(128,128,128)" paint-order="fill" d="M 93.2272720336914 125.32758331298828 L 117.15071868896484 101.81661224365234 L 141.07415771484375 95.5470199584961 L 164.9976043701172 70.4686508178711 L 188.92105102539062 95.5470199584961 L 212.84449768066406 98.68181610107422 L 236.7679443359375 83.0078353881836 L 260.6913757324219 62.63166046142578 L 284.6148376464844 104.95140838623047 L 308.53826904296875 79.87303924560547" stroke-opacity="0.7490196078431373" stroke-linejoin="bevel" stroke-miterlimit="10" clip-path="url(#ESNVNTCeIvez)"/><path fill="none" stroke="grey" paint-order="fill" d="M 308.53826904296875 79.87303924560547 L 332.46173095703125 68.90125274658203 L 356.3851623535156 98.68181610107422 L 380.3086242675781 79.87303924560547 L 404.2320556640625 83.0078353881836 L 428.155517578125 111.22100067138672 L 452.0789489746094 100.24921417236328 L 476.00238037109375 120.6253890991211 L 499.92584228515625 93.97962188720703 L 523.8493041992188 81.44043731689453 L 547.772705078125 97.11441802978516" stroke-linejoin="bevel" stroke-miterlimit="10" stroke-width="0.5" clip-path="url(#gAaTFdwghWxZ)"/><path fill="none" stroke="grey" paint-order="fill" d="M 308.53826904296875 79.87303924560547 L 332.46173095703125 78.3056411743164 L 356.3851623535156 90.8448257446289 L 380.3086242675781 109.65360260009766 L 404.2320556640625 100.24921417236328 L 428.155517578125 92.41222381591797 L 452.0789489746094 78.3056411743164 L 476.00238037109375 108.0862045288086 L 499.92584228515625 109.65360260009766 L 523.8493041992188 89.27742767333984 L 547.772705078125 86.14263153076172" stroke-linejoin="bevel" stroke-miterlimit="10" stroke-width="0.5" clip-path="url(#TabaAvmLtrwa)"/><path fill="none" stroke="black" paint-order="fill" d="M 70.5 280.5 L 570.5 280.5" stroke-linejoin="bevel" stroke-miterlimit="10"/><path fill="none" stroke="black" paint-order="fill" d="M 93.5 286.5 L 93.5 278.5 M 212.5 286.5 L 212.5 278.5 M 332.5 286.5 L 332.5 278.5 M 452.5 286.5 L 452.5 278.5" stroke-linejoin="bevel" stroke-miterlimit="10"/><path fill="none" stroke="black" paint-order="fill" d="M 93.5 284.5 L 93.5 280.5 M 117.5 284.5 L 117.5 280.5 M 141.5 284.5 L 141.5 280.5 M 164.5 284.5 L 164.5 280.5 M 188.5 284.5 L 188.5 280.5 M 212.5 284.5 L 212.5 280.5 M 236.5 284.5 L 236.5 280.5 M 260.5 284.5 L 260.5 280.5 M 284.5 284.5 L 284.5 280.5 M 308.5 284.5 L 308.5 280.5 M 332.5 284.5 L 332.5 280.5 M 356.5 284.5 L 356.5 280.5 M 380.5 284.5 L 380.5 280.5 M 404.5 284.5 L 404.5 280.5 M 428.5 284.5 L 428.5 280.5 M 452.5 284.5 L 452.5 280.5 M 476.5 284.5 L 476.5 280.5 M 499.5 284.5 L 499.5 280.5 M 523.5 284.5 L 523.5 280.5 M 547.5 284.5 L 547.5 280.5" stroke-linejoin="bevel" stroke-miterlimit="10"/><text fill="#444444" stroke="none" font-family="helvetica" font-size="10pt" font-style="normal" font-weight="normal" text-decoration="normal" x="77.82727241516113" y="300.59368896484375" text-anchor="start" dominant-baseline="alphabetic" transform="matrix(1, 0, 0, 1, 0.5, 0.5)">2025</text><text fill="none" stroke="rgb(0,0,0)" font-family="helvetica" font-size="10pt" font-style="normal" font-weight="normal" text-decoration="normal" x="77.82727241516113" y="300.59368896484375" text-anchor="start" dominant-baseline="alphabetic" transform="matrix(1, 0, 0, 1, 0.5, 0.5)" stroke-opacity="0" stroke-linejoin="bevel" stroke-miterlimit="10">2025</text><text fill="#444444" stroke="none" font-family="helvetica" font-size="10pt" font-style="normal" font-weight="normal" text-decoration="normal" x="197.4444980621338" y="300.59368896484375" text-anchor="start" dominant-baseline="alphabetic" transform="matrix(1, 0, 0, 1, 0.5, 0.5)">2030</text><text fill="none" stroke="rgb(0,0,0)" font-family="helvetica" font-size="10pt" font-style="normal" font-weight="normal" text-decoration="normal" x="197.4444980621338" y="300.59368896484375" text-anchor="start" dominant-baseline="alphabetic" transform="matrix(1, 0, 0, 1, 0.5, 0.5)" stroke-opacity="0" stroke-linejoin="bevel" stroke-miterlimit="10">2030</text><text fill="#444444" stroke="none" font-family="helvetica" font-size="10pt" font-style="normal" font-weight="normal" text-decoration="normal" x="317.061731338501" y="300.59368896484375" text-anchor="start" dominant-baseline="alphabetic" transform="matrix(1, 0, 0, 1, 0.5, 0.5)">2035</text><text fill="none" stroke="rgb(0,0,0)" font-family="helvetica" font-size="10pt" font-style="normal" font-weight="normal" text-decoration="normal" x="317.061731338501" y="300.59368896484375" text-anchor="start" dominant-baseline="alphabetic" transform="matrix(1, 0, 0, 1, 0.5, 0.5)" stroke-opacity="0" stroke-linejoin="bevel" stroke-miterlimit="10">2035</text><text fill="#444444" stroke="none" font-family="helvetica" font-size="10pt" font-style="normal" font-weight="normal" text-decoration="normal" x="436.6789493560791" y="300.59368896484375" text-anchor="start" dominant-baseline="alphabetic" transform="matrix(1, 0, 0, 1, 0.5, 0.5)">2040</text><text fill="none" stroke="rgb(0,0,0)" font-family="helvetica" font-size="10pt" font-style="normal" font-weight="normal" text-decoration="normal" x="436.6789493560791" y="300.59368896484375" text-anchor="start" dominant-baseline="alphabetic" transform="matrix(1, 0, 0, 1, 0.5, 0.5)" stroke-opacity="0" stroke-linejoin="bevel" stroke-miterlimit="10">2040</text><text fill="#444444" stroke="none" font-family="helvetica" font-size="12pt" font-style="normal" font-weight="normal" text-decoration="normal" x="303.8333339691162" y="321.59368896484375" text-anchor="start" dominant-baseline="alphabetic" transform="matrix(1, 0, 0, 1, 0.5, 0.5)">Year</text><text fill="none" stroke="rgb(0,0,0)" font-family="helvetica" font-size="12pt" font-style="normal" font-weight="normal" text-decoration="normal" x="303.8333339691162" y="321.59368896484375" text-anchor="start" dominant-baseline="alphabetic" transform="matrix(1, 0, 0, 1, 0.5, 0.5)" stroke-opacity="0" stroke-linejoin="bevel" stroke-miterlimit="10">Year</text><path fill="none" stroke="black" paint-order="fill" d="M 70.5 280.5 L 70.5 30.5" stroke-linejoin="bevel" stroke-miterlimit="10"/><path fill="none" stroke="black" paint-order="fill" d="M 64.5 280.5 L 72.5 280.5 M 64.5 249.5 L 72.5 249.5 M 64.5 217.5 L 72.5 217.5 M 64.5 186.5 L 72.5 186.5 M 64.5 155.5 L 72.5 155.5 M 64.5 123.5 L 72.5 123.5 M 64.5 92.5 L 72.5 92.5 M 64.5 61.5 L 72.5 61.5" stroke-linejoin="bevel" stroke-miterlimit="10"/><path fill="none" stroke="black" paint-order="fill" d="M 66.5 280.5 L 70.5 280.5 M 66.5 274.5 L 70.5 274.5 M 66.5 267.5 L 70.5 267.5 M 66.5 261.5 L 70.5 261.5 M 66.5 255.5 L 70.5 255.5 M 66.5 249.5 L 70.5 249.5 M 66.5 242.5 L 70.5 242.5 M 66.5 236.5 L 70.5 236.5 M 66.5 230.5 L 70.5 230.5 M 66.5 224.5 L 70.5 224.5 M 66.5 217.5 L 70.5 217.5 M 66.5 211.5 L 70.5 211.5 M 66.5 205.5 L 70.5 205.5 M 66.5 198.5 L 70.5 198.5 M 66.5 192.5 L 70.5 192.5 M 66.5 186.5 L 70.5 186.5 M 66.5 180.5 L 70.5 180.5 M 66.5 173.5 L 70.5 173.5 M 66.5 167.5 L 70.5 167.5 M 66.5 161.5 L 70.5 161.5 M 66.5 155.5 L 70.5 155.5 M 66.5 148.5 L 70.5 148.5 M 66.5 142.5 L 70.5 142.5 M 66.5 136.5 L 70.5 136.5 M 66.5 130.5 L 70.5 130.5 M 66.5 123.5 L 70.5 123.5 M 66.5 117.5 L 70.5 117.5 M 66.5 111.5 L 70.5 111.5 M 66.5 104.5 L 70.5 104.5 M 66.5 98.5 L 70.5 98.5 M 66.5 92.5 L 70.5 92.5 M 66.5 86.5 L 70.5 86.5 M 66.5 79.5 L 70.5 79.5 M 66.5 73.5 L 70.5 73.5 M 66.5 67.5 L 70.5 67.5 M 66.5 61.5 L 70.5 61.5 M 66.5 54.5 L 70.5 54.5 M 66.5 48.5 L 70.5 48.5 M 66.5 42.5 L 70.5 42.5 M 66.5 35.5 L 70.5 35.5" stroke-linejoin="bevel" stroke-miterlimit="10"/><text fill="#444444" stroke="none" font-family="helvetica" font-size="10pt" font-style="normal" font-weight="normal" text-decoration="normal" x="51.55000019073486" y="284.7968444824219" text-anchor="start" dominant-baseline="alphabetic" transform="matrix(1, 0, 0, 1, 0.5, 0.5)">0</text><text fill="none" stroke="rgb(0,0,0)" font-family="helvetica" font-size="10pt" font-style="normal" font-weight="normal" text-decoration="normal" x="51.55000019073486" y="284.7968444824219" text-anchor="start" dominant-baseline="alphabetic" transform="matrix(1, 0, 0, 1, 0.5, 0.5)" stroke-opacity="0" stroke-linejoin="bevel" stroke-miterlimit="10">0</text><text fill="#444444" stroke="none" font-family="helvetica" font-size="10pt" font-style="normal" font-weight="normal" text-decoration="normal" x="44.10000038146973" y="253.44888305664062" text-anchor="start" dominant-baseline="alphabetic" transform="matrix(1, 0, 0, 1, 0.5, 0.5)">20</text><text fill="none" stroke="rgb(0,0,0)" font-family="helvetica" font-size="10pt" font-style="normal" font-weight="normal" text-decoration="normal" x="44.10000038146973" y="253.44888305664062" text-anchor="start" dominant-baseline="alphabetic" transform="matrix(1, 0, 0, 1, 0.5, 0.5)" stroke-opacity="0" stroke-linejoin="bevel" stroke-miterlimit="10">20</text><text fill="#444444" stroke="none" font-family="helvetica" font-size="10pt" font-style="normal" font-weight="normal" text-decoration="normal" x="44.10000038146973" y="222.10092163085938" text-anchor="start" dominant-baseline="alphabetic" transform="matrix(1, 0, 0, 1, 0.5, 0.5)">40</text><text fill="none" stroke="rgb(0,0,0)" font-family="helvetica" font-size="10pt" font-style="normal" font-weight="normal" text-decoration="normal" x="44.10000038146973" y="222.10092163085938" text-anchor="start" dominant-baseline="alphabetic" transform="matrix(1, 0, 0, 1, 0.5, 0.5)" stroke-opacity="0" stroke-linejoin="bevel" stroke-miterlimit="10">40</text><text fill="#444444" stroke="none" font-family="helvetica" font-size="10pt" font-style="normal" font-weight="normal" text-decoration="normal" x="44.10000038146973" y="190.75296020507812" text-anchor="start" dominant-baseline="alphabetic" transform="matrix(1, 0, 0, 1, 0.5, 0.5)">60</text><text fill="none" stroke="rgb(0,0,0)" font-family="helvetica" font-size="10pt" font-style="normal" font-weight="normal" text-decoration="normal" x="44.10000038146973" y="190.75296020507812" text-anchor="start" dominant-baseline="alphabetic" transform="matrix(1, 0, 0, 1, 0.5, 0.5)" stroke-opacity="0" stroke-linejoin="bevel" stroke-miterlimit="10">60</text><text fill="#444444" stroke="none" font-family="helvetica" font-size="10pt" font-style="normal" font-weight="normal" text-decoration="normal" x="44.10000038146973" y="159.40499877929688" text-anchor="start" dominant-baseline="alphabetic" transform="matrix(1, 0, 0, 1, 0.5, 0.5)">80</text><text fill="none" stroke="rgb(0,0,0)" font-family="helvetica" font-size="10pt" font-style="normal" font-weight="normal" text-decoration="normal" x="44.10000038146973" y="159.40499877929688" text-anchor="start" dominant-baseline="alphabetic" transform="matrix(1, 0, 0, 1, 0.5, 0.5)" stroke-opacity="0" stroke-linejoin="bevel" stroke-miterlimit="10">80</text><text fill="#444444" stroke="none" font-family="helvetica" font-size="10pt" font-style="normal" font-weight="normal" text-decoration="normal" x="36.64999961853027" y="128.0570297241211" text-anchor="start" dominant-baseline="alphabetic" transform="matrix(1, 0, 0, 1, 0.5, 0.5)">100</text><text fill="none" stroke="rgb(0,0,0)" font-family="helvetica" font-size="10pt" font-style="normal" font-weight="normal" text-decoration="normal" x="36.64999961853027" y="128.0570297241211" text-anchor="start" dominant-baseline="alphabetic" transform="matrix(1, 0, 0, 1, 0.5, 0.5)" stroke-opacity="0" stroke-linejoin="bevel" stroke-miterlimit="10">100</text><text fill="#444444" stroke="none" font-family="helvetica" font-size="10pt" font-style="normal" font-weight="normal" text-decoration="normal" x="36.64999961853027" y="96.70906829833984" text-anchor="start" dominant-baseline="alphabetic" transform="matrix(1, 0, 0, 1, 0.5, 0.5)">120</text><text fill="none" stroke="rgb(0,0,0)" font-family="helvetica" font-size="10pt" font-style="normal" font-weight="normal" text-decoration="normal" x="36.64999961853027" y="96.70906829833984" text-anchor="start" dominant-baseline="alphabetic" transform="matrix(1, 0, 0, 1, 0.5, 0.5)" stroke-opacity="0" stroke-linejoin="bevel" stroke-miterlimit="10">120</text><text fill="#444444" stroke="none" font-family="helvetica" font-size="10pt" font-style="normal" font-weight="normal" text-decoration="normal" x="36.64999961853027" y="65.3611068725586" text-anchor="start" dominant-baseline="alphabetic" transform="matrix(1, 0, 0, 1, 0.5, 0.5)">140</text><text fill="none" stroke="rgb(0,0,0)" font-family="helvetica" font-size="10pt" font-style="normal" font-weight="normal" text-decoration="normal" x="36.64999961853027" y="65.3611068725586" text-anchor="start" dominant-baseline="alphabetic" transform="matrix(1, 0, 0, 1, 0.5, 0.5)" stroke-opacity="0" stroke-linejoin="bevel" stroke-miterlimit="10">140</text><text fill="#444444" stroke="none" font-family="helvetica" font-size="12pt" font-style="normal" font-weight="normal" text-decoration="normal" x="-78.07499885559082" y="151" text-anchor="start" dominant-baseline="alphabetic" transform="matrix(6.123233995736766e-17, -1, 1, 6.123233995736766e-17, -125.85000038146973, 184.14999961853027)">Days suitable for transmission</text><text fill="none" stroke="rgb(0,0,0)" font-family="helvetica" font-size="12pt" font-style="normal" font-weight="normal" text-decoration="normal" x="-78.07499885559082" y="151" text-anchor="start" dominant-baseline="alphabetic" transform="matrix(6.123233995736766e-17, -1, 1, 6.123233995736766e-17, -125.85000038146973, 184.14999961853027)" stroke-opacity="0" stroke-linejoin="bevel" stroke-miterlimit="10">Days suitable for transmission</text><path fill="rgb(255,255,255)" stroke="rgb(229,229,229)" paint-order="fill" d="M 475.183349609375 205.5 L 560.5000152587891 205.5 L 560.5000152587891 270.5 L 475.183349609375 270.5 L 475.183349609375 205.5 Z" fill-opacity="0.9490196078431372" clip-path="url(#hqQXlXMPTUKN)" stroke-opacity="0.5019607843137255" stroke-linejoin="bevel" stroke-miterlimit="10"/><g clip-path="url(#hqQXlXMPTUKN)"><g transform="matrix(1, 0, 0, 1, 485.683349609375, 216)"><path fill="none" stroke="#30a2da" paint-order="fill" d="M 0.5 10.5 L 20.5 10.5" stroke-linejoin="bevel" stroke-miterlimit="10" stroke-width="2"/></g></g><g clip-path="url(#hqQXlXMPTUKN)"><text fill="#444444" stroke="none" font-family="helvetica" font-size="13px" font-style="normal" font-weight="normal" text-decoration="normal" x="510.683349609375" y="230" text-anchor="start" dominant-baseline="alphabetic" transform="matrix(1, 0, 0, 1, 0.5, 0.5)">ID 001</text></g><g clip-path="url(#hqQXlXMPTUKN)"><text fill="none" stroke="rgb(0,0,0)" font-family="helvetica" font-size="13px" font-style="normal" font-weight="normal" text-decoration="normal" x="510.683349609375" y="230" text-anchor="start" dominant-baseline="alphabetic" transform="matrix(1, 0, 0, 1, 0.5, 0.5)" stroke-opacity="0" stroke-linejoin="bevel" stroke-miterlimit="10">ID 001</text></g><g clip-path="url(#hqQXlXMPTUKN)"><g transform="matrix(1, 0, 0, 1, 485.683349609375, 239)"><path fill="none" stroke="#fc4f30" paint-order="fill" d="M 0.5 10.5 L 20.5 10.5" stroke-linejoin="bevel" stroke-miterlimit="10" stroke-width="2"/></g></g><g clip-path="url(#hqQXlXMPTUKN)"><text fill="#444444" stroke="none" font-family="helvetica" font-size="13px" font-style="normal" font-weight="normal" text-decoration="normal" x="510.683349609375" y="253" text-anchor="start" dominant-baseline="alphabetic" transform="matrix(1, 0, 0, 1, 0.5, 0.5)">ID 006</text></g><g clip-path="url(#hqQXlXMPTUKN)"><text fill="none" stroke="rgb(0,0,0)" font-family="helvetica" font-size="13px" font-style="normal" font-weight="normal" text-decoration="normal" x="510.683349609375" y="253" text-anchor="start" dominant-baseline="alphabetic" transform="matrix(1, 0, 0, 1, 0.5, 0.5)" stroke-opacity="0" stroke-linejoin="bevel" stroke-miterlimit="10">ID 006</text></g><text fill="black" stroke="none" font-family="helvetica" font-size="14pt" font-style="normal" font-weight="normal" text-decoration="normal" x="0" y="15" text-anchor="start" dominant-baseline="alphabetic" transform="matrix(1, 0, 0, 1, 5.5, 5.5)">A. London</text><text fill="none" stroke="rgb(0,0,0)" font-family="helvetica" font-size="14pt" font-style="normal" font-weight="normal" text-decoration="normal" x="0" y="15" text-anchor="start" dominant-baseline="alphabetic" transform="matrix(1, 0, 0, 1, 5.5, 5.5)" stroke-opacity="0" stroke-linejoin="bevel" stroke-miterlimit="10">A. London</text></svg>