<svg version="1.1" xmlns="http://www.w3.org/2000/svg" width="600" height="334"><defs><clipPath id="mJqMFeFTMSwO"><path fill="none" stroke="none" d="M 70.5 33.5 L 570.5 33.5 L 570.5 283.5 L 70.5 283.5 L 70.5 33.5 Z"/></clipPath><clipPath id="razdnoueDMHD"><path fill="none" stroke="none" d="M 70.5 33.5 L 570.5 33.5 L 570.5 283.5 L 70.5 283.5 L 70.5 33.5 Z"/></clipPath><clipPath id="ODfDEpoxTaeB"><path fill="none" stroke="none" d="M 70.5 33.5 L 570.5 33.5 L 570.5 283.5 L 70.5 283.5 L 70.5 33.5 Z"/></clipPath><clipPath id="STKDoTzQFiBe"><path fill="none" stroke="none" d="M 70.5 33.5 L 570.5 33.5 L 570.5 283.5 L 70.5 283.5 L 70.5 33.5 Z"/></clipPath><clipPath id="IminQudeyiVd"><path fill="none" stroke="none" d="M 70.5 33.5 L 570.5 33.5 L 570.5 283.5 L 70.5 283.5 L 70.5 33.5 Z"/></clipPath><clipPath id="RPynRPKaCbgA"><path fill="none" stroke="none" d="M 70.5 33.5 L 570.5 33.5 L 570.5 283.5 L 70.5 283.5 L 70.5 33.5 Z"/></clipPath><clipPath id="WgbIvBvlTJIX"><path fill="none" stroke="none" d="M 70.5 33.5 L 570.5 33.5 L 570.5 283.5 L 70.5 283.5 L 70.5 33.5 Z"/></clipPath><clipPath id="iDhJqCXsBKoU"><path fill="none" stroke="none" d="M 70.5 33.5 L 570.5 33.5 L 570.5 283.5 L 70.5 283.5 L 70.5 33.5 Z"/></clipPath><clipPath id="khJmNDTtMuFE"><path fill="none" stroke="none" d="M 70.5 33.5 L 570.5 33.5 L 570.5 283.5 L 70.5 283.5 L 70.5 33.5 Z"/></clipPath><clipPath id="fJZauhNJTUix"><path fill="none" stroke="none" d="M 70.5 33.5 L 570.5 33.5 L 570.5 283.5 L 70.5 283.5 L 70.5 33.5 Z"/></clipPath><clipPath id="MuCuJcCDHIXq"><path fill="none" stroke="none" d="M 70.5 33.5 L 570.5 33.5 L 570.5 283.5 L 70.5 283.5 L 70.5 33.5 Z"/></clipPath><clipPath id="cpWtTwpRidLR"><path fill="none" stroke="none" d="M 70.5 33.5 L 570.5 33.5 L 570.5 283.5 L 70.5 283.5 L 70.5 33.5 Z"/></clipPath><clipPath id="qDtQIfktagnd"><path fill="none" stroke="none" d="M 70.5 33.5 L 570.5 33.5 L 570.5 283.5 L 70.5 283.5 L 70.5 33.5 Z"/></clipPath><clipPath id="JNfXKUTzwtAU"><path fill="none" stroke="none" d="M 70.5 33.5 L 570.5 33.5 L 570.5 283.5 L 70.5 283.5 L 70.5 33.5 Z"/></clipPath><clipPath id="CfQGHpBGOlUG"><path fill="none" stroke="none" d="M 70.5 33.5 L 570.5 33.5 L 570.5 283.5 L 70.5 283.5 L 70.5 33.5 Z"/></clipPath><clipPath id="lFUXTQmDAHSH"><path fill="none" stroke="none" d="M 70.5 33.5 L 570.5 33.5 L 570.5 283.5 L 70.5 283.5 L 70.5 33.5 Z"/></clipPath><clipPath id="GiXaHhTeiKvG"><path fill="none" stroke="none" d="M 70.5 33.5 L 570.5 33.5 L 570.5 283.5 L 70.5 283.5 L 70.5 33.5 Z"/></clipPath><clipPath id="pPmSrbJMSzxd"><path fill="none" stroke="none" d="M 70.5 33.5 L 570.5 33.5 L 570.5 283.5 L 70.5 283.5 L 70.5 33.5 Z"/></clipPath><clipPath id="aPqzwwnNNdbR"><path fill="none" stroke="none" d="M 70.5 33.5 L 570.5 33.5 L 570.5 283.5 L 70.5 283.5 L 70.5 33.5 Z"/></clipPath><clipPath id="EuzkoaVcqdlm"><path fill="none" stroke="none" d="M 70.5 33.5 L 570.5 33.5 L 570.5 283.5 L 70.5 283.5 L 70.5 33.5 Z"/></clipPath><clipPath id="xlHIrsTcHubi"><path fill="none" stroke="none" d="M 70.5 33.5 L 570.5 33.5 L 570.5 283.5 L 70.5 283.5 L 70.5 33.5 Z"/></clipPath><clipPath id="hkvlkJhRgmRn"><path fill="none" stroke="none" d="M 70.5 33.5 L 570.5 33.5 L 570.5 283.5 L 70.5 283.5 L 70.5 33.5 Z"/></clipPath><clipPath id="BtUcIRpawvAq"><path fill="none" stroke="none" d="M 70.5 33.5 L 570.5 33.5 L 570.5 283.5 L 70.5 283.5 L 70.5 33.5 Z"/></clipPath></defs><path fill="none" stroke="#e5e5e5" paint-order="fill" d="M 70.5 33.5 L 570.5 33.5 L 570.5 283.5 L 70.5 283.5 L 70.5 33.5 Z" stroke-linejoin="bevel" stroke-miterlimit="10"/><path fill="none" stroke="black" paint-order="fill" d="M 332.46172248803487 33.5 L 332.46172248803487 283.5" stroke-linejoin="bevel" stroke-miterlimit="10" stroke-width="3" stroke-dasharray="6" clip-path="url(#ODfDEpoxTaeB)"/><path fill="none" stroke="#9467bd" paint-order="fill" d="M 93.2272720336914 132.63792419433594 L 117.15071868896484 134.59718322753906 L 141.07415771484375 122.84169006347656 L 164.9976043701172 95.41222381591797 L 188.92105102539062 163.98590087890625 L 212.84449768066406 142.43417358398438 L 236.7679443359375 130.67868041992188 L 260.6913757324219 109.12696075439453 L 284.6148376464844 124.80094146728516 L 308.53826904296875 136.55642700195312" stroke-linejoin="bevel" stroke-miterlimit="10" stroke-width="2" clip-path="url(#STKDoTzQFiBe)"/><path fill="none" stroke="#9467bd" paint-order="fill" d="M 93.2272720336914 132.63792419433594 L 117.15071868896484 134.59718322753906 L 141.07415771484375 122.84169006347656 L 164.9976043701172 95.41222381591797 L 188.92105102539062 163.98590087890625 L 212.84449768066406 142.43417358398438 L 236.7679443359375 130.67868041992188 L 260.6913757324219 109.12696075439453 L 284.6148376464844 124.80094146728516 L 308.53826904296875 136.55642700195312" stroke-linejoin="bevel" stroke-miterlimit="10" stroke-width="2" stroke-dasharray="6" clip-path="url(#IminQudeyiVd)"/><path fill="none" stroke="#30a2da" paint-order="fill" d="M 308.53826904296875 136.55642700195312 L 332.46173095703125 158.108154296875 L 356.3851623535156 173.78213500976562 L 380.3086242675781 148.31190490722656 L 404.2320556640625 71.90125274658203 L 428.155517578125 118.9231948852539 L 452.0789489746094 67.98275756835938 L 476.00238037109375 140.47491455078125 L 499.92584228515625 111.0862045288086 L 523.8493041992188 111.0862045288086 L 547.772705078125 124.80094146728516" stroke-linejoin="bevel" stroke-miterlimit="10" stroke-width="2" clip-path="url(#RPynRPKaCbgA)"/><path fill="none" stroke="#30a2da" paint-order="fill" d="M 332.46173095703125 143.6453399658203 L 356.3851623535156 138.97877502441406 L 380.3086242675781 134.31219482421875 L 404.2320556640625 129.6456298828125 L 428.155517578125 124.97905731201172 L 452.0789489746094 120.31248474121094 L 476.00238037109375 115.64591217041016 L 499.92584228515625 110.97933959960938 L 523.8493041992188 106.3127670288086 L 547.772705078125 101.64619445800781" stroke-linejoin="bevel" stroke-miterlimit="10" stroke-width="2" stroke-dasharray="6" clip-path="url(#WgbIvBvlTJIX)"/><path fill="none" stroke="#fc4f30" paint-order="fill" d="M 308.53826904296875 136.55642700195312 L 332.46173095703125 169.86363220214844 L 356.3851623535156 118.9231948852539 L 380.3086242675781 109.12696075439453 L 404.2320556640625 118.9231948852539 L 428.155517578125 124.80094146728516 L 452.0789489746094 107.16770935058594 L 476.00238037109375 140.47491455078125 L 499.92584228515625 163.98590087890625 L 523.8493041992188 152.23040771484375 L 547.772705078125 154.1896514892578" stroke-linejoin="bevel" stroke-miterlimit="10" stroke-width="2" clip-path="url(#iDhJqCXsBKoU)"/><path fill="none" stroke="#fc4f30" paint-order="fill" d="M 332.46173095703125 124.6940689086914 L 356.3851623535156 127.19953155517578 L 380.3086242675781 129.7050018310547 L 404.2320556640625 132.21046447753906 L 428.155517578125 134.71592712402344 L 452.0789489746094 137.2213897705078 L 476.00238037109375 139.7268524169922 L 499.92584228515625 142.2322998046875 L 523.8493041992188 144.73776245117188 L 547.772705078125 147.24322509765625" stroke-linejoin="bevel" stroke-miterlimit="10" stroke-width="2" stroke-dasharray="6" clip-path="url(#khJmNDTtMuFE)"/><path fill="none" stroke="rgb(128,128,128)" paint-order="fill" d="M 93.2272720336914 177.70062255859375 L 117.15071868896484 160.06739807128906 L 141.07415771484375 146.3526611328125 L 164.9976043701172 115.00469970703125 L 188.92105102539062 126.76018524169922 L 212.84449768066406 113.04545593261719 L 236.7679443359375 73.86050415039062 L 260.6913757324219 140.47491455078125 L 284.6148376464844 105.20846557617188 L 308.53826904296875 101.28997039794922" stroke-opacity="0.7490196078431373" stroke-linejoin="bevel" stroke-miterlimit="10" clip-path="url(#fJZauhNJTUix)"/><path fill="none" stroke="grey" paint-order="fill" d="M 308.53826904296875 101.28997039794922 L 332.46173095703125 142.43417358398438 L 356.3851623535156 150.2711639404297 L 380.3086242675781 146.3526611328125 L 404.2320556640625 144.39341735839844 L 428.155517578125 109.12696075439453 L 452.0789489746094 126.76018524169922 L 476.00238037109375 132.63792419433594 L 499.92584228515625 116.96395111083984 L 523.8493041992188 113.04545593261719 L 547.772705078125 134.59718322753906" stroke-linejoin="bevel" stroke-miterlimit="10" stroke-width="0.5" clip-path="url(#MuCuJcCDHIXq)"/><path fill="none" stroke="grey" paint-order="fill" d="M 308.53826904296875 101.28997039794922 L 332.46173095703125 118.9231948852539 L 356.3851623535156 163.98590087890625 L 380.3086242675781 158.108154296875 L 404.2320556640625 122.84169006347656 L 428.155517578125 154.1896514892578 L 452.0789489746094 116.96395111083984 L 476.00238037109375 134.59718322753906 L 499.92584228515625 160.06739807128906 L 523.8493041992188 138.5156707763672 L 547.772705078125 140.47491455078125" stroke-linejoin="bevel" stroke-miterlimit="10" stroke-width="0.5" clip-path="url(#cpWtTwpRidLR)"/><path fill="none" stroke="rgb(128,128,128)" paint-order="fill" d="M 93.2272720336914 103.24921417236328 L 117.15071868896484 111.0862045288086 L 141.07415771484375 134.59718322753906 L 164.9976043701172 97.37147521972656 L 188.92105102539062 150.2711639404297 L 212.84449768066406 109.12696075439453 L 236.7679443359375 122.84169006347656 L 260.6913757324219 136.55642700195312 L 284.6148376464844 101.28997039794922 L 308.53826904296875 146.3526611328125" stroke-opacity="0.7490196078431373" stroke-linejoin="bevel" stroke-miterlimit="10" clip-path="url(#qDtQIfktagnd)"/><path fill="none" stroke="grey" paint-order="fill" d="M 308.53826904296875 146.3526611328125 L 332.46173095703125 138.5156707763672 L 356.3851623535156 122.84169006347656 L 380.3086242675781 101.28997039794922 L 404.2320556640625 107.16770935058594 L 428.155517578125 77.77899932861328 L 452.0789489746094 126.76018524169922 L 476.00238037109375 120.8824462890625 L 499.92584228515625 193.37460327148438 L 523.8493041992188 158.108154296875 L 547.772705078125 89.53448486328125" stroke-linejoin="bevel" stroke-miterlimit="10" stroke-width="0.5" clip-path="url(#JNfXKUTzwtAU)"/><path fill="none" stroke="grey" paint-order="fill" d="M 308.53826904296875 146.3526611328125 L 332.46173095703125 97.37147521972656 L 356.3851623535156 118.9231948852539 L 380.3086242675781 115.00469970703125 L 404.2320556640625 103.24921417236328 L 428.155517578125 71.90125274658203 L 452.0789489746094 130.67868041992188 L 476.00238037109375 158.108154296875 L 499.92584228515625 111.0862045288086 L 523.8493041992188 103.24921417236328 L 547.772705078125 120.8824462890625" stroke-linejoin="bevel" stroke-miterlimit="10" stroke-width="0.5" clip-path="url(#CfQGHpBGOlUG)"/><path fill="none" stroke="rgb(128,128,128)" paint-order="fill" d="M 93.2272720336914 152.23040771484375 L 117.15071868896484 142.43417358398438 L 141.07415771484375 118.9231948852539 L 164.9976043701172 136.55642700195312 L 188.92105102539062 191.4153594970703 L 212.84449768066406 116.96395111083984 L 236.7679443359375 124.80094146728516 L 260.6913757324219 116.96395111083984 L 284.6148376464844 116.96395111083984 L 308.53826904296875 134.59718322753906" stroke-opacity="0.7490196078431373" stroke-linejoin="bevel" stroke-miterlimit="10" clip-path="url(#lFUXTQmDAHSH)"/><path fill="none" stroke="grey" paint-order="fill" d="M 308.53826904296875 134.59718322753906 L 332.46173095703125 103.24921417236328 L 356.3851623535156 132.63792419433594 L 380.3086242675781 140.47491455078125 L 404.2320556640625 138.5156707763672 L 428.155517578125 118.9231948852539 L 452.0789489746094 146.3526611328125 L 476.00238037109375 126.76018524169922 L 499.92584228515625 97.37147521972656 L 523.8493041992188 111.0862045288086 L 547.772705078125 118.9231948852539" stroke-linejoin="bevel" stroke-miterlimit="10" stroke-width="0.5" clip-path="url(#GiXaHhTeiKvG)"/><path fill="none" stroke="grey" paint-order="fill" d="M 308.53826904296875 134.59718322753906 L 332.46173095703125 105.20846557617188 L 356.3851623535156 154.1896514892578 L 380.3086242675781 142.43417358398438 L 404.2320556640625 158.108154296875 L 428.155517578125 156.14889526367188 L 452.0789489746094 111.0862045288086 L 476.00238037109375 118.9231948852539 L 499.92584228515625 75.81974792480469 L 523.8493041992188 56.227272033691406 L 547.772705078125 87.57523345947266" stroke-linejoin="bevel" stroke-miterlimit="10" stroke-width="0.5" clip-path="url(#pPmSrbJMSzxd)"/><path fill="none" stroke="rgb(128,128,128)" paint-order="fill" d="M 93.2272720336914 107.16770935058594 L 117.15071868896484 126.76018524169922 L 141.07415771484375 113.04545593261719 L 164.9976043701172 152.23040771484375 L 188.92105102539062 99.33071899414062 L 212.84449768066406 136.55642700195312 L 236.7679443359375 132.63792419433594 L 260.6913757324219 138.5156707763672 L 284.6148376464844 158.108154296875 L 308.53826904296875 101.28997039794922" stroke-opacity="0.7490196078431373" stroke-linejoin="bevel" stroke-miterlimit="10" clip-path="url(#aPqzwwnNNdbR)"/><path fill="none" stroke="grey" paint-order="fill" d="M 308.53826904296875 101.28997039794922 L 332.46173095703125 124.80094146728516 L 356.3851623535156 122.84169006347656 L 380.3086242675781 101.28997039794922 L 404.2320556640625 111.0862045288086 L 428.155517578125 124.80094146728516 L 452.0789489746094 107.16770935058594 L 476.00238037109375 146.3526611328125 L 499.92584228515625 134.59718322753906 L 523.8493041992188 105.20846557617188 L 547.772705078125 113.04545593261719" stroke-linejoin="bevel" stroke-miterlimit="10" stroke-width="0.5" clip-path="url(#EuzkoaVcqdlm)"/><path fill="none" stroke="grey" paint-order="fill" d="M 308.53826904296875 101.28997039794922 L 332.46173095703125 132.63792419433594 L 356.3851623535156 122.84169006347656 L 380.3086242675781 148.31190490722656 L 404.2320556640625 128.7194366455078 L 428.155517578125 138.5156707763672 L 452.0789489746094 136.55642700195312 L 476.00238037109375 138.5156707763672 L 499.92584228515625 148.31190490722656 L 523.8493041992188 113.04545593261719 L 547.772705078125 87.57523345947266" stroke-linejoin="bevel" stroke-miterlimit="10" stroke-width="0.5" clip-path="url(#xlHIrsTcHubi)"/><path fill="none" stroke="black" paint-order="fill" d="M 70.5 283.5 L 570.5 283.5" stroke-linejoin="bevel" stroke-miterlimit="10"/><path fill="none" stroke="black" paint-order="fill" d="M 93.5 289.5 L 93.5 281.5 M 212.5 289.5 L 212.5 281.5 M 332.5 289.5 L 332.5 281.5 M 452.5 289.5 L 452.5 281.5" stroke-linejoin="bevel" stroke-miterlimit="10"/><path fill="none" stroke="black" paint-order="fill" d="M 93.5 287.5 L 93.5 283.5 M 117.5 287.5 L 117.5 283.5 M 141.5 287.5 L 141.5 283.5 M 164.5 287.5 L 164.5 283.5 M 188.5 287.5 L 188.5 283.5 M 212.5 287.5 L 212.5 283.5 M 236.5 287.5 L 236.5 283.5 M 260.5 287.5 L 260.5 283.5 M 284.5 287.5 L 284.5 283.5 M 308.5 287.5 L 308.5 283.5 M 332.5 287.5 L 332.5 283.5 M 356.5 287.5 L 356.5 283.5 M 380.5 287.5 L 380.5 283.5 M 404.5 287.5 L 404.5 283.5 M 428.5 287.5 L 428.5 283.5 M 452.5 287.5 L 452.5 283.5 M 476.5 287.5 L 476.5 283.5 M 499.5 287.5 L 499.5 283.5 M 523.5 287.5 L 523.5 283.5 M 547.5 287.5 L 547.5 283.5" stroke-linejoin="bevel" stroke-miterlimit="10"/><text fill="#444444" stroke="none" font-family="helvetica" font-size="10pt" font-style="normal" font-weight="normal" text-decoration="normal" x="79.36060523986816" y="304" text-anchor="start" dominant-baseline="alphabetic" transform="matrix(1, 0, 0, 1, 0.5, 0.5)">2025</text><text fill="none" stroke="rgb(0,0,0)" font-family="helvetica" font-size="10pt" font-style="normal" font-weight="normal" text-decoration="normal" x="79.36060523986816" y="304" text-anchor="start" dominant-baseline="alphabetic" transform="matrix(1, 0, 0, 1, 0.5, 0.5)" stroke-opacity="0" stroke-linejoin="bevel" stroke-miterlimit="10">2025</text><text fill="#444444" stroke="none" font-family="helvetica" font-size="10pt" font-style="normal" font-weight="normal" text-decoration="normal" x="198.97783088684082" y="304" text-anchor="start" dominant-baseline="alphabetic" transform="matrix(1, 0, 0, 1, 0.5, 0.5)">2030</text><text fill="none" stroke="rgb(0,0,0)" font-family="helvetica" font-size="10pt" font-style="normal" font-weight="normal" text-decoration="normal" x="198.97783088684082" y="304" text-anchor="start" dominant-baseline="alphabetic" transform="matrix(1, 0, 0, 1, 0.5, 0.5)" stroke-opacity="0" stroke-linejoin="bevel" stroke-miterlimit="10">2030</text><text fill="#444444" stroke="none" font-family="helvetica" font-size="10pt" font-style="normal" font-weight="normal" text-decoration="normal" x="318.595064163208" y="304" text-anchor="start" dominant-baseline="alphabetic" transform="matrix(1, 0, 0, 1, 0.5, 0.5)">2035</text><text fill="none" stroke="rgb(0,0,0)" font-family="helvetica" font-size="10pt" font-style="normal" font-weight="normal" text-decoration="normal" x="318.595064163208" y="304" text-anchor="start" dominant-baseline="alphabetic" transform="matrix(1, 0, 0, 1, 0.5, 0.5)" stroke-opacity="0" stroke-linejoin="bevel" stroke-miterlimit="10">2035</text><text fill="#444444" stroke="none" font-family="helvetica" font-size="10pt" font-style="normal" font-weight="normal" text-decoration="normal" x="438.21228218078613" y="304" text-anchor="start" dominant-baseline="alphabetic" transform="matrix(1, 0, 0, 1, 0.5, 0.5)">2040</text><text fill="none" stroke="rgb(0,0,0)" font-family="helvetica" font-size="10pt" font-style="normal" font-weight="normal" text-decoration="normal" x="438.21228218078613" y="304" text-anchor="start" dominant-baseline="alphabetic" transform="matrix(1, 0, 0, 1, 0.5, 0.5)" stroke-opacity="0" stroke-linejoin="bevel" stroke-miterlimit="10">2040</text><text fill="#444444" stroke="none" font-family="helvetica" font-size="12pt" font-style="normal" font-weight="normal" text-decoration="normal" x="305.3166666030884" y="327" text-anchor="start" dominant-baseline="alphabetic" transform="matrix(1, 0, 0, 1, 0.5, 0.5)">Year</text><text fill="none" stroke="rgb(0,0,0)" font-family="helvetica" font-size="12pt" font-style="normal" font-weight="normal" text-decoration="normal" x="305.3166666030884" y="327" text-anchor="start" dominant-baseline="alphabetic" transform="matrix(1, 0, 0, 1, 0.5, 0.5)" stroke-opacity="0" stroke-linejoin="bevel" stroke-miterlimit="10">Year</text><path fill="none" stroke="black" paint-order="fill" d="M 70.5 283.5 L 70.5 33.5" stroke-linejoin="bevel" stroke-miterlimit="10"/><path fill="none" stroke="black" paint-order="fill" d="M 64.5 283.5 L 72.5 283.5 M 64.5 244.5 L 72.5 244.5 M 64.5 205.5 L 72.5 205.5 M 64.5 165.5 L 72.5 165.5 M 64.5 126.5 L 72.5 126.5 M 64.5 87.5 L 72.5 87.5 M 64.5 48.5 L 72.5 48.5" stroke-linejoin="bevel" stroke-miterlimit="10"/><path fill="none" stroke="black" paint-order="fill" d="M 66.5 283.5 L 70.5 283.5 M 66.5 275.5 L 70.5 275.5 M 66.5 267.5 L 70.5 267.5 M 66.5 259.5 L 70.5 259.5 M 66.5 252.5 L 70.5 252.5 M 66.5 244.5 L 70.5 244.5 M 66.5 236.5 L 70.5 236.5 M 66.5 228.5 L 70.5 228.5 M 66.5 220.5 L 70.5 220.5 M 66.5 212.5 L 70.5 212.5 M 66.5 205.5 L 70.5 205.5 M 66.5 197.5 L 70.5 197.5 M 66.5 189.5 L 70.5 189.5 M 66.5 181.5 L 70.5 181.5 M 66.5 173.5 L 70.5 173.5 M 66.5 165.5 L 70.5 165.5 M 66.5 158.5 L 70.5 158.5 M 66.5 150.5 L 70.5 150.5 M 66.5 142.5 L 70.5 142.5 M 66.5 134.5 L 70.5 134.5 M 66.5 126.5 L 70.5 126.5 M 66.5 118.5 L 70.5 118.5 M 66.5 111.5 L 70.5 111.5 M 66.5 103.5 L 70.5 103.5 M 66.5 95.5 L 70.5 95.5 M 66.5 87.5 L 70.5 87.5 M 66.5 79.5 L 70.5 79.5 M 66.5 71.5 L 70.5 71.5 M 66.5 64.5 L 70.5 64.5 M 66.5 56.5 L 70.5 56.5 M 66.5 48.5 L 70.5 48.5 M 66.5 40.5 L 70.5 40.5" stroke-linejoin="bevel" stroke-miterlimit="10"/><text fill="#444444" stroke="none" font-family="helvetica" font-size="10pt" font-style="normal" font-weight="normal" text-decoration="normal" x="52.31666660308838" y="288" text-anchor="start" dominant-baseline="alphabetic" transform="matrix(1, 0, 0, 1, 0.5, 0.5)">0</text><text fill="none" stroke="rgb(0,0,0)" font-family="helvetica" font-size="10pt" font-style="normal" font-weight="normal" text-decoration="normal" x="52.31666660308838" y="288" text-anchor="start" dominant-baseline="alphabetic" transform="matrix(1, 0, 0, 1, 0.5, 0.5)" stroke-opacity="0" stroke-linejoin="bevel" stroke-miterlimit="10">0</text><text fill="#444444" stroke="none" font-family="helvetica" font-size="10pt" font-style="normal" font-weight="normal" text-decoration="normal" x="45.63333320617676" y="248.81504821777344" text-anchor="start" dominant-baseline="alphabetic" transform="matrix(1, 0, 0, 1, 0.5, 0.5)">20</text><text fill="none" stroke="rgb(0,0,0)" font-family="helvetica" font-size="10pt" font-style="normal" font-weight="normal" text-decoration="normal" x="45.63333320617676" y="248.81504821777344" text-anchor="start" dominant-baseline="alphabetic" transform="matrix(1, 0, 0, 1, 0.5, 0.5)" stroke-opacity="0" stroke-linejoin="bevel" stroke-miterlimit="10">20</text><text fill="#444444" stroke="none" font-family="helvetica" font-size="10pt" font-style="normal" font-weight="normal" text-decoration="normal" x="45.63333320617676" y="209.63009643554688" text-anchor="start" dominant-baseline="alphabetic" transform="matrix(1, 0, 0, 1, 0.5, 0.5)">40</text><text fill="none" stroke="rgb(0,0,0)" font-family="helvetica" font-size="10pt" font-style="normal" font-weight="normal" text-decoration="normal" x="45.63333320617676" y="209.63009643554688" text-anchor="start" dominant-baseline="alphabetic" transform="matrix(1, 0, 0, 1, 0.5, 0.5)" stroke-opacity="0" stroke-linejoin="bevel" stroke-miterlimit="10">40</text><text fill="#444444" stroke="none" font-family="helvetica" font-size="10pt" font-style="normal" font-weight="normal" text-decoration="normal" x="45.63333320617676" y="170.4451446533203" text-anchor="start" dominant-baseline="alphabetic" transform="matrix(1, 0, 0, 1, 0.5, 0.5)">60</text><text fill="none" stroke="rgb(0,0,0)" font-family="helvetica" font-size="10pt" font-style="normal" font-weight="normal" text-decoration="normal" x="45.63333320617676" y="170.4451446533203" text-anchor="start" dominant-baseline="alphabetic" transform="matrix(1, 0, 0, 1, 0.5, 0.5)" stroke-opacity="0" stroke-linejoin="bevel" stroke-miterlimit="10">60</text><text fill="#444444" stroke="none" font-family="helvetica" font-size="10pt" font-style="normal" font-weight="normal" text-decoration="normal" x="45.63333320617676" y="131.26018524169922" text-anchor="start" dominant-baseline="alphabetic" transform="matrix(1, 0, 0, 1, 0.5, 0.5)">80</text><text fill="none" stroke="rgb(0,0,0)" font-family="helvetica" font-size="10pt" font-style="normal" font-weight="normal" text-decoration="normal" x="45.63333320617676" y="131.26018524169922" text-anchor="start" dominant-baseline="alphabetic" transform="matrix(1, 0, 0, 1, 0.5, 0.5)" stroke-opacity="0" stroke-linejoin="bevel" stroke-miterlimit="10">80</text><text fill="#444444" stroke="none" font-family="helvetica" font-size="10pt" font-style="normal" font-weight="normal" text-decoration="normal" x="38.95000076293945" y="92.07523345947266" text-anchor="start" dominant-baseline="alphabetic" transform="matrix(1, 0, 0, 1, 0.5, 0.5)">100</text><text fill="none" stroke="rgb(0,0,0)" font-family="helvetica" font-size="10pt" font-style="normal" font-weight="normal" text-decoration="normal" x="38.95000076293945" y="92.07523345947266" text-anchor="start" dominant-baseline="alphabetic" transform="matrix(1, 0, 0, 1, 0.5, 0.5)" stroke-opacity="0" stroke-linejoin="bevel" stroke-miterlimit="10">100</text><text fill="#444444" stroke="none" font-family="helvetica" font-size="10pt" font-style="normal" font-weight="normal" text-decoration="normal" x="38.95000076293945" y="52.890281677246094" text-anchor="start" dominant-baseline="alphabetic" transform="matrix(1, 0, 0, 1, 0.5, 0.5)">120</text><text fill="none" stroke="rgb(0,0,0)" font-family="helvetica" font-size="10pt" font-style="normal" font-weight="normal" text-decoration="normal" x="38.95000076293945" y="52.890281677246094" text-anchor="start" dominant-baseline="alphabetic" transform="matrix(1, 0, 0, 1, 0.5, 0.5)" stroke-opacity="0" stroke-linejoin="bevel" stroke-miterlimit="10">120</text><text fill="#444444" stroke="none" font-family="helvetica" font-size="12pt" font-style="normal" font-weight="normal" text-decoration="normal" x="-65.25833511352539" y="154" text-anchor="start" dominant-baseline="alphabetic" transform="matrix(6.123233995736766e-17, -1, 1, 6.123233995736766e-17, -126.54999923706055, 189.45000076293945)">Days suitable for transmission</text><text fill="none" stroke="rgb(0,0,0)" font-family="helvetica" font-size="12pt" font-style="normal" font-weight="normal" text-decoration="normal" x="-65.25833511352539" y="154" text-anchor="start" dominant-baseline="alphabetic" transform="matrix(6.123233995736766e-17, -1, 1, 6.123233995736766e-17, -126.54999923706055, 189.45000076293945)" stroke-opacity="0" stroke-linejoin="bevel" stroke-miterlimit="10">Days suitable for transmission</text><path fill="rgb(255,255,255)" stroke="rgb(229,229,229)" paint-order="fill" d="M 477.0333251953125 208.5 L 560.4999847412109 208.5 L 560.4999847412109 273.5 L 477.0333251953125 273.5 L 477.0333251953125 208.5 Z" fill-opacity="0.9490196078431372" clip-path="url(#hkvlkJhRgmRn)" stroke-opacity="0.5019607843137255" stroke-linejoin="bevel" stroke-miterlimit="10"/><g clip-path="url(#hkvlkJhRgmRn)"><g transform="matrix(1, 0, 0, 1, 487.5333251953125, 219)"><path fill="none" stroke="#30a2da" paint-order="fill" d="M 0.5 10.5 L 20.5 10.5" stroke-linejoin="bevel" stroke-miterlimit="10" stroke-width="2"/></g></g><g clip-path="url(#hkvlkJhRgmRn)"><text fill="#444444" stroke="none" font-family="helvetica" font-size="13px" font-style="normal" font-weight="normal" text-decoration="normal" x="512.5333251953125" y="233.5" text-anchor="start" dominant-baseline="alphabetic" transform="matrix(1, 0, 0, 1, 0.5, 0.5)">ID 001</text></g><g clip-path="url(#hkvlkJhRgmRn)"><text fill="none" stroke="rgb(0,0,0)" font-family="helvetica" font-size="13px" font-style="normal" font-weight="normal" text-decoration="normal" x="512.5333251953125" y="233.5" text-anchor="start" dominant-baseline="alphabetic" transform="matrix(1, 0, 0, 1, 0.5, 0.5)" stroke-opacity="0" stroke-linejoin="bevel" stroke-miterlimit="10">ID 001</text></g><g clip-path="url(#hkvlkJhRgmRn)"><g transform="matrix(1, 0, 0, 1, 487.5333251953125, 242)"><path fill="none" stroke="#fc4f30" paint-order="fill" d="M 0.5 10.5 L 20.5 10.5" stroke-linejoin="bevel" stroke-miterlimit="10" stroke-width="2"/></g></g><g clip-path="url(#hkvlkJhRgmRn)"><text fill="#444444" stroke="none" font-family="helvetica" font-size="13px" font-style="normal" font-weight="normal" text-decoration="normal" x="512.5333251953125" y="256.5" text-anchor="start" dominant-baseline="alphabetic" transform="matrix(1, 0, 0, 1, 0.5, 0.5)">ID 006</text></g><g clip-path="url(#hkvlkJhRgmRn)"><text fill="none" stroke="rgb(0,0,0)" font-family="helvetica" font-size="13px" font-style="normal" font-weight="normal" text-decoration="normal" x="512.5333251953125" y="256.5" text-anchor="start" dominant-baseline="alphabetic" transform="matrix(1, 0, 0, 1, 0.5, 0.5)" stroke-opacity="0" stroke-linejoin="bevel" stroke-miterlimit="10">ID 006</text></g><text fill="black" stroke="none" font-family="helvetica" font-size="14pt" font-style="normal" font-weight="normal" text-decoration="normal" x="0" y="18" text-anchor="start" dominant-baseline="alphabetic" transform="matrix(1, 0, 0, 1, 5.5, 5.5)">B. Seattle</text><text fill="none" stroke="rgb(0,0,0)" font-family="helvetica" font-size="14pt" font-style="normal" font-weight="normal" text-decoration="normal" x="0" y="18" text-anchor="start" dominant-baseline="alphabetic" transform="matrix(1, 0, 0, 1, 5.5, 5.5)" stroke-opacity="0" stroke-linejoin="bevel" stroke-miterlimit="10">B. Seattle</text></svg>