<svg version="1.1" xmlns="http://www.w3.org/2000/svg" width="605" height="331"><defs><clipPath id="QKpLKsyXqifM"><path fill="none" stroke="none" d="M 75.5 32.5 L 575.5 32.5 L 575.5 282.5 L 75.5 282.5 L 75.5 32.5 Z"/></clipPath><clipPath id="gqQkQDhsbqgd"><path fill="none" stroke="none" d="M 75.5 32.5 L 575.5 32.5 L 575.5 282.5 L 75.5 282.5 L 75.5 32.5 Z"/></clipPath><clipPath id="wgKiiHwVEwdk"><path fill="none" stroke="none" d="M 75.5 32.5 L 575.5 32.5 L 575.5 282.5 L 75.5 282.5 L 75.5 32.5 Z"/></clipPath><clipPath id="vuKBtQEyhcSn"><path fill="none" stroke="none" d="M 75.5 32.5 L 575.5 32.5 L 575.5 282.5 L 75.5 282.5 L 75.5 32.5 Z"/></clipPath><clipPath id="bkPLavPLWaaV"><path fill="none" stroke="none" d="M 75.5 32.5 L 575.5 32.5 L 575.5 282.5 L 75.5 282.5 L 75.5 32.5 Z"/></clipPath><clipPath id="TXpbpIJUgDRO"><path fill="none" stroke="none" d="M 75.5 32.5 L 575.5 32.5 L 575.5 282.5 L 75.5 282.5 L 75.5 32.5 Z"/></clipPath><clipPath id="qDRVCwwXfOPu"><path fill="none" stroke="none" d="M 75.5 32.5 L 575.5 32.5 L 575.5 282.5 L 75.5 282.5 L 75.5 32.5 Z"/></clipPath><clipPath id="OwmtEUyDFxsJ"><path fill="none" stroke="none" d="M 75.5 32.5 L 575.5 32.5 L 575.5 282.5 L 75.5 282.5 L 75.5 32.5 Z"/></clipPath><clipPath id="vyPmBKiXIyJt"><path fill="none" stroke="none" d="M 75.5 32.5 L 575.5 32.5 L 575.5 282.5 L 75.5 282.5 L 75.5 32.5 Z"/></clipPath><clipPath id="OQospXlFiGpT"><path fill="none" stroke="none" d="M 75.5 32.5 L 575.5 32.5 L 575.5 282.5 L 75.5 282.5 L 75.5 32.5 Z"/></clipPath><clipPath id="gkNXegcypmCW"><path fill="none" stroke="none" d="M 75.5 32.5 L 575.5 32.5 L 575.5 282.5 L 75.5 282.5 L 75.5 32.5 Z"/></clipPath><clipPath id="uCblWVhxyuoF"><path fill="none" stroke="none" d="M 75.5 32.5 L 575.5 32.5 L 575.5 282.5 L 75.5 282.5 L 75.5 32.5 Z"/></clipPath><clipPath id="uiJiZcRGuptp"><path fill="none" stroke="none" d="M 75.5 32.5 L 575.5 32.5 L 575.5 282.5 L 75.5 282.5 L 75.5 32.5 Z"/></clipPath><clipPath id="LsADcDSpVTGQ"><path fill="none" stroke="none" d="M 75.5 32.5 L 575.5 32.5 L 575.5 282.5 L 75.5 282.5 L 75.5 32.5 Z"/></clipPath><clipPath id="UcGtJRcsxeBR"><path fill="none" stroke="none" d="M 75.5 32.5 L 575.5 32.5 L 575.5 282.5 L 75.5 282.5 L 75.5 32.5 Z"/></clipPath><clipPath id="VAGTveOTvvyi"><path fill="none" stroke="none" d="M 75.5 32.5 L 575.5 32.5 L 575.5 282.5 L 75.5 282.5 L 75.5 32.5 Z"/></clipPath><clipPath id="tmUuvCZzVCPC"><path fill="none" stroke="none" d="M 75.5 32.5 L 575.5 32.5 L 575.5 282.5 L 75.5 282.5 L 75.5 32.5 Z"/></clipPath><clipPath id="RRMDMbGfaWUa"><path fill="none" stroke="none" d="M 75.5 32.5 L 575.5 32.5 L 575.5 282.5 L 75.5 282.5 L 75.5 32.5 Z"/></clipPath><clipPath id="TarFSCgSkTIx"><path fill="none" stroke="none" d="M 75.5 32.5 L 575.5 32.5 L 575.5 282.5 L 75.5 282.5 L 75.5 32.5 Z"/></clipPath><clipPath id="qxNlMneuDVFm"><path fill="none" stroke="none" d="M 75.5 32.5 L 575.5 32.5 L 575.5 282.5 L 75.5 282.5 L 75.5 32.5 Z"/></clipPath><clipPath id="iAJSAyvtfySk"><path fill="none" stroke="none" d="M 75.5 32.5 L 575.5 32.5 L 575.5 282.5 L 75.5 282.5 L 75.5 32.5 Z"/></clipPath><clipPath id="luvtRCURdOkf"><path fill="none" stroke="none" d="M 75.5 32.5 L 575.5 32.5 L 575.5 282.5 L 75.5 282.5 L 75.5 32.5 Z"/></clipPath><clipPath id="cRghmqxuNNMt"><path fill="none" stroke="none" d="M 75.5 32.5 L 575.5 32.5 L 575.5 282.5 L 75.5 282.5 L 75.5 32.5 Z"/></clipPath></defs><path fill="none" stroke="#e5e5e5" paint-order="fill" d="M 75.5 32.5 L 575.5 32.5 L 575.5 282.5 L 75.5 282.5 L 75.5 32.5 Z" stroke-linejoin="bevel" stroke-miterlimit="10"/><path fill="none" stroke="black" paint-order="fill" d="M 337.46172248803487 32.5 L 337.46172248803487 282.5" stroke-linejoin="bevel" stroke-miterlimit="10" stroke-width="3" stroke-dasharray="6" clip-path="url(#wgKiiHwVEwdk)"/><path fill="none" stroke="#9467bd" paint-order="fill" d="M 98.2272720336914 80.3056411743164 L 122.15071868896484 92.8448257446289 L 146.07415771484375 110.0862045288086 L 169.9976043701172 100.68181610107422 L 193.92105102539062 85.0078353881836 L 217.84449768066406 105.3840103149414 L 241.7679443359375 110.0862045288086 L 265.6913757324219 113.22100067138672 L 289.6148376464844 132.02978515625 L 313.53826904296875 105.3840103149414" stroke-linejoin="bevel" stroke-miterlimit="10" stroke-width="2" clip-path="url(#vuKBtQEyhcSn)"/><path fill="none" stroke="#9467bd" paint-order="fill" d="M 98.2272720336914 80.3056411743164 L 122.15071868896484 92.8448257446289 L 146.07415771484375 110.0862045288086 L 169.9976043701172 100.68181610107422 L 193.92105102539062 85.0078353881836 L 217.84449768066406 105.3840103149414 L 241.7679443359375 110.0862045288086 L 265.6913757324219 113.22100067138672 L 289.6148376464844 132.02978515625 L 313.53826904296875 105.3840103149414" stroke-linejoin="bevel" stroke-miterlimit="10" stroke-width="2" stroke-dasharray="6" clip-path="url(#bkPLavPLWaaV)"/><path fill="none" stroke="#30a2da" paint-order="fill" d="M 313.53826904296875 105.3840103149414 L 337.46173095703125 80.3056411743164 L 361.3851623535156 81.87303924560547 L 385.3086242675781 77.17084503173828 L 409.2320556640625 95.97962188720703 L 433.155517578125 92.8448257446289 L 457.0789489746094 124.19278717041016 L 481.00238037109375 138.29937744140625 L 504.92584228515625 88.14263153076172 L 528.8493041992188 128.89498901367188 L 552.772705078125 152.4059600830078" stroke-linejoin="bevel" stroke-miterlimit="10" stroke-width="2" clip-path="url(#TXpbpIJUgDRO)"/><path fill="none" stroke="#30a2da" paint-order="fill" d="M 337.46173095703125 73.52308654785156 L 361.3851623535156 80.74261474609375 L 385.3086242675781 87.96214294433594 L 409.2320556640625 95.18167877197266 L 433.155517578125 102.40120697021484 L 457.0789489746094 109.62073516845703 L 481.00238037109375 116.84027099609375 L 504.92584228515625 124.05979919433594 L 528.8493041992188 131.27932739257812 L 552.772705078125 138.4988555908203" stroke-linejoin="bevel" stroke-miterlimit="10" stroke-width="2" stroke-dasharray="6" clip-path="url(#qDRVCwwXfOPu)"/><path fill="none" stroke="#fc4f30" paint-order="fill" d="M 313.53826904296875 105.3840103149414 L 337.46173095703125 74.03604888916016 L 361.3851623535156 166.51254272460938 L 385.3086242675781 135.16458129882812 L 409.2320556640625 119.49059295654297 L 433.155517578125 121.05799102783203 L 457.0789489746094 92.8448257446289 L 481.00238037109375 111.65360260009766 L 504.92584228515625 95.97962188720703 L 528.8493041992188 124.19278717041016 L 552.772705078125 83.44043731689453" stroke-linejoin="bevel" stroke-miterlimit="10" stroke-width="2" clip-path="url(#OwmtEUyDFxsJ)"/><path fill="none" stroke="#fc4f30" paint-order="fill" d="M 337.46173095703125 124.96224212646484 L 361.3851623535156 122.17892456054688 L 385.3086242675781 119.39559936523438 L 409.2320556640625 116.6122817993164 L 433.155517578125 113.82896423339844 L 457.0789489746094 111.04564666748047 L 481.00238037109375 108.2623291015625 L 504.92584228515625 105.47900390625 L 528.8493041992188 102.69568634033203 L 552.772705078125 99.91236877441406" stroke-linejoin="bevel" stroke-miterlimit="10" stroke-width="2" stroke-dasharray="6" clip-path="url(#vyPmBKiXIyJt)"/><path fill="none" stroke="rgb(128,128,128)" paint-order="fill" d="M 98.2272720336914 144.5689697265625 L 122.15071868896484 63.06426239013672 L 146.07415771484375 74.03604888916016 L 169.9976043701172 99.11441802978516 L 193.92105102539062 105.3840103149414 L 217.84449768066406 70.90125274658203 L 241.7679443359375 114.78839874267578 L 265.6913757324219 100.68181610107422 L 289.6148376464844 80.3056411743164 L 313.53826904296875 55.227272033691406" stroke-opacity="0.7490196078431373" stroke-linejoin="bevel" stroke-miterlimit="10" clip-path="url(#OQospXlFiGpT)"/><path fill="none" stroke="grey" paint-order="fill" d="M 313.53826904296875 55.227272033691406 L 337.46173095703125 70.90125274658203 L 361.3851623535156 100.68181610107422 L 385.3086242675781 85.0078353881836 L 409.2320556640625 86.57523345947266 L 433.155517578125 78.73824310302734 L 457.0789489746094 74.03604888916016 L 481.00238037109375 75.60344696044922 L 504.92584228515625 92.8448257446289 L 528.8493041992188 97.5470199584961 L 552.772705078125 116.35579681396484" stroke-linejoin="bevel" stroke-miterlimit="10" stroke-width="0.5" clip-path="url(#gkNXegcypmCW)"/><path fill="none" stroke="grey" paint-order="fill" d="M 313.53826904296875 55.227272033691406 L 337.46173095703125 81.87303924560547 L 361.3851623535156 81.87303924560547 L 385.3086242675781 85.0078353881836 L 409.2320556640625 78.73824310302734 L 433.155517578125 111.65360260009766 L 457.0789489746094 86.57523345947266 L 481.00238037109375 103.81661224365234 L 504.92584228515625 108.51880645751953 L 528.8493041992188 111.65360260009766 L 552.772705078125 80.3056411743164" stroke-linejoin="bevel" stroke-miterlimit="10" stroke-width="0.5" clip-path="url(#uCblWVhxyuoF)"/><path fill="none" stroke="rgb(128,128,128)" paint-order="fill" d="M 98.2272720336914 124.19278717041016 L 122.15071868896484 113.22100067138672 L 146.07415771484375 91.27742767333984 L 169.9976043701172 72.4686508178711 L 193.92105102539062 100.68181610107422 L 217.84449768066406 63.06426239013672 L 241.7679443359375 64.63166046142578 L 265.6913757324219 92.8448257446289 L 289.6148376464844 116.35579681396484 L 313.53826904296875 70.90125274658203" stroke-opacity="0.7490196078431373" stroke-linejoin="bevel" stroke-miterlimit="10" clip-path="url(#uiJiZcRGuptp)"/><path fill="none" stroke="grey" paint-order="fill" d="M 313.53826904296875 70.90125274658203 L 337.46173095703125 70.90125274658203 L 361.3851623535156 75.60344696044922 L 385.3086242675781 74.03604888916016 L 409.2320556640625 70.90125274658203 L 433.155517578125 81.87303924560547 L 457.0789489746094 72.4686508178711 L 481.00238037109375 64.63166046142578 L 504.92584228515625 99.11441802978516 L 528.8493041992188 83.44043731689453 L 552.772705078125 95.97962188720703" stroke-linejoin="bevel" stroke-miterlimit="10" stroke-width="0.5" clip-path="url(#LsADcDSpVTGQ)"/><path fill="none" stroke="grey" paint-order="fill" d="M 313.53826904296875 70.90125274658203 L 337.46173095703125 77.17084503173828 L 361.3851623535156 83.44043731689453 L 385.3086242675781 110.0862045288086 L 409.2320556640625 94.41222381591797 L 433.155517578125 102.24921417236328 L 457.0789489746094 119.49059295654297 L 481.00238037109375 81.87303924560547 L 504.92584228515625 110.0862045288086 L 528.8493041992188 81.87303924560547 L 552.772705078125 80.3056411743164" stroke-linejoin="bevel" stroke-miterlimit="10" stroke-width="0.5" clip-path="url(#UcGtJRcsxeBR)"/><path fill="none" stroke="rgb(128,128,128)" paint-order="fill" d="M 98.2272720336914 85.0078353881836 L 122.15071868896484 66.19905853271484 L 146.07415771484375 78.73824310302734 L 169.9976043701172 105.3840103149414 L 193.92105102539062 121.05799102783203 L 217.84449768066406 99.11441802978516 L 241.7679443359375 105.3840103149414 L 265.6913757324219 55.227272033691406 L 289.6148376464844 89.71002960205078 L 313.53826904296875 86.57523345947266" stroke-opacity="0.7490196078431373" stroke-linejoin="bevel" stroke-miterlimit="10" clip-path="url(#VAGTveOTvvyi)"/><path fill="none" stroke="grey" paint-order="fill" d="M 313.53826904296875 86.57523345947266 L 337.46173095703125 94.41222381591797 L 361.3851623535156 75.60344696044922 L 385.3086242675781 106.95140838623047 L 409.2320556640625 83.44043731689453 L 433.155517578125 117.9231948852539 L 457.0789489746094 74.03604888916016 L 481.00238037109375 117.9231948852539 L 504.92584228515625 97.5470199584961 L 528.8493041992188 117.9231948852539 L 552.772705078125 100.68181610107422" stroke-linejoin="bevel" stroke-miterlimit="10" stroke-width="0.5" clip-path="url(#tmUuvCZzVCPC)"/><path fill="none" stroke="grey" paint-order="fill" d="M 313.53826904296875 86.57523345947266 L 337.46173095703125 100.68181610107422 L 361.3851623535156 69.33385467529297 L 385.3086242675781 85.0078353881836 L 409.2320556640625 97.5470199584961 L 433.155517578125 106.95140838623047 L 457.0789489746094 103.81661224365234 L 481.00238037109375 88.14263153076172 L 504.92584228515625 99.11441802978516 L 528.8493041992188 97.5470199584961 L 552.772705078125 86.57523345947266" stroke-linejoin="bevel" stroke-miterlimit="10" stroke-width="0.5" clip-path="url(#RRMDMbGfaWUa)"/><path fill="none" stroke="rgb(128,128,128)" paint-order="fill" d="M 98.2272720336914 127.32758331298828 L 122.15071868896484 103.81661224365234 L 146.07415771484375 97.5470199584961 L 169.9976043701172 72.4686508178711 L 193.92105102539062 97.5470199584961 L 217.84449768066406 100.68181610107422 L 241.7679443359375 85.0078353881836 L 265.6913757324219 64.63166046142578 L 289.6148376464844 106.95140838623047 L 313.53826904296875 81.87303924560547" stroke-opacity="0.7490196078431373" stroke-linejoin="bevel" stroke-miterlimit="10" clip-path="url(#TarFSCgSkTIx)"/><path fill="none" stroke="grey" paint-order="fill" d="M 313.53826904296875 81.87303924560547 L 337.46173095703125 70.90125274658203 L 361.3851623535156 100.68181610107422 L 385.3086242675781 81.87303924560547 L 409.2320556640625 85.0078353881836 L 433.155517578125 113.22100067138672 L 457.0789489746094 102.24921417236328 L 481.00238037109375 122.6253890991211 L 504.92584228515625 95.97962188720703 L 528.8493041992188 83.44043731689453 L 552.772705078125 99.11441802978516" stroke-linejoin="bevel" stroke-miterlimit="10" stroke-width="0.5" clip-path="url(#qxNlMneuDVFm)"/><path fill="none" stroke="grey" paint-order="fill" d="M 313.53826904296875 81.87303924560547 L 337.46173095703125 80.3056411743164 L 361.3851623535156 92.8448257446289 L 385.3086242675781 111.65360260009766 L 409.2320556640625 102.24921417236328 L 433.155517578125 94.41222381591797 L 457.0789489746094 80.3056411743164 L 481.00238037109375 110.0862045288086 L 504.92584228515625 111.65360260009766 L 528.8493041992188 91.27742767333984 L 552.772705078125 88.14263153076172" stroke-linejoin="bevel" stroke-miterlimit="10" stroke-width="0.5" clip-path="url(#iAJSAyvtfySk)"/><path fill="none" stroke="black" paint-order="fill" d="M 75.5 282.5 L 575.5 282.5" stroke-linejoin="bevel" stroke-miterlimit="10"/><path fill="none" stroke="black" paint-order="fill" d="M 98.5 288.5 L 98.5 280.5 M 217.5 288.5 L 217.5 280.5 M 337.5 288.5 L 337.5 280.5 M 457.5 288.5 L 457.5 280.5" stroke-linejoin="bevel" stroke-miterlimit="10"/><path fill="none" stroke="black" paint-order="fill" d="M 98.5 286.5 L 98.5 282.5 M 122.5 286.5 L 122.5 282.5 M 146.5 286.5 L 146.5 282.5 M 169.5 286.5 L 169.5 282.5 M 193.5 286.5 L 193.5 282.5 M 217.5 286.5 L 217.5 282.5 M 241.5 286.5 L 241.5 282.5 M 265.5 286.5 L 265.5 282.5 M 289.5 286.5 L 289.5 282.5 M 313.5 286.5 L 313.5 282.5 M 337.5 286.5 L 337.5 282.5 M 361.5 286.5 L 361.5 282.5 M 385.5 286.5 L 385.5 282.5 M 409.5 286.5 L 409.5 282.5 M 433.5 286.5 L 433.5 282.5 M 457.5 286.5 L 457.5 282.5 M 481.5 286.5 L 481.5 282.5 M 504.5 286.5 L 504.5 282.5 M 528.5 286.5 L 528.5 282.5 M 552.5 286.5 L 552.5 282.5" stroke-linejoin="bevel" stroke-miterlimit="10"/><text fill="#444444" stroke="none" font-family="helvetica" font-size="10pt" font-style="normal" font-weight="normal" text-decoration="normal" x="82.82727241516113" y="302.59368896484375" text-anchor="start" dominant-baseline="alphabetic" transform="matrix(1, 0, 0, 1, 0.5, 0.5)">2025</text><text fill="none" stroke="rgb(0,0,0)" font-family="helvetica" font-size="10pt" font-style="normal" font-weight="normal" text-decoration="normal" x="82.82727241516113" y="302.59368896484375" text-anchor="start" dominant-baseline="alphabetic" transform="matrix(1, 0, 0, 1, 0.5, 0.5)" stroke-opacity="0" stroke-linejoin="bevel" stroke-miterlimit="10">2025</text><text fill="#444444" stroke="none" font-family="helvetica" font-size="10pt" font-style="normal" font-weight="normal" text-decoration="normal" x="202.4444980621338" y="302.59368896484375" text-anchor="start" dominant-baseline="alphabetic" transform="matrix(1, 0, 0, 1, 0.5, 0.5)">2030</text><text fill="none" stroke="rgb(0,0,0)" font-family="helvetica" font-size="10pt" font-style="normal" font-weight="normal" text-decoration="normal" x="202.4444980621338" y="302.59368896484375" text-anchor="start" dominant-baseline="alphabetic" transform="matrix(1, 0, 0, 1, 0.5, 0.5)" stroke-opacity="0" stroke-linejoin="bevel" stroke-miterlimit="10">2030</text><text fill="#444444" stroke="none" font-family="helvetica" font-size="10pt" font-style="normal" font-weight="normal" text-decoration="normal" x="322.061731338501" y="302.59368896484375" text-anchor="start" dominant-baseline="alphabetic" transform="matrix(1, 0, 0, 1, 0.5, 0.5)">2035</text><text fill="none" stroke="rgb(0,0,0)" font-family="helvetica" font-size="10pt" font-style="normal" font-weight="normal" text-decoration="normal" x="322.061731338501" y="302.59368896484375" text-anchor="start" dominant-baseline="alphabetic" transform="matrix(1, 0, 0, 1, 0.5, 0.5)" stroke-opacity="0" stroke-linejoin="bevel" stroke-miterlimit="10">2035</text><text fill="#444444" stroke="none" font-family="helvetica" font-size="10pt" font-style="normal" font-weight="normal" text-decoration="normal" x="441.6789493560791" y="302.59368896484375" text-anchor="start" dominant-baseline="alphabetic" transform="matrix(1, 0, 0, 1, 0.5, 0.5)">2040</text><text fill="none" stroke="rgb(0,0,0)" font-family="helvetica" font-size="10pt" font-style="normal" font-weight="normal" text-decoration="normal" x="441.6789493560791" y="302.59368896484375" text-anchor="start" dominant-baseline="alphabetic" transform="matrix(1, 0, 0, 1, 0.5, 0.5)" stroke-opacity="0" stroke-linejoin="bevel" stroke-miterlimit="10">2040</text><text fill="#444444" stroke="none" font-family="helvetica" font-size="12pt" font-style="normal" font-weight="normal" text-decoration="normal" x="308.8333339691162" y="323.59368896484375" text-anchor="start" dominant-baseline="alphabetic" transform="matrix(1, 0, 0, 1, 0.5, 0.5)">Year</text><text fill="none" stroke="rgb(0,0,0)" font-family="helvetica" font-size="12pt" font-style="normal" font-weight="normal" text-decoration="normal" x="308.8333339691162" y="323.59368896484375" text-anchor="start" dominant-baseline="alphabetic" transform="matrix(1, 0, 0, 1, 0.5, 0.5)" stroke-opacity="0" stroke-linejoin="bevel" stroke-miterlimit="10">Year</text><path fill="none" stroke="black" paint-order="fill" d="M 75.5 282.5 L 75.5 32.5" stroke-linejoin="bevel" stroke-miterlimit="10"/><path fill="none" stroke="black" paint-order="fill" d="M 69.5 282.5 L 77.5 282.5 M 69.5 251.5 L 77.5 251.5 M 69.5 219.5 L 77.5 219.5 M 69.5 188.5 L 77.5 188.5 M 69.5 157.5 L 77.5 157.5 M 69.5 125.5 L 77.5 125.5 M 69.5 94.5 L 77.5 94.5 M 69.5 63.5 L 77.5 63.5" stroke-linejoin="bevel" stroke-miterlimit="10"/><path fill="none" stroke="black" paint-order="fill" d="M 71.5 282.5 L 75.5 282.5 M 71.5 276.5 L 75.5 276.5 M 71.5 269.5 L 75.5 269.5 M 71.5 263.5 L 75.5 263.5 M 71.5 257.5 L 75.5 257.5 M 71.5 251.5 L 75.5 251.5 M 71.5 244.5 L 75.5 244.5 M 71.5 238.5 L 75.5 238.5 M 71.5 232.5 L 75.5 232.5 M 71.5 226.5 L 75.5 226.5 M 71.5 219.5 L 75.5 219.5 M 71.5 213.5 L 75.5 213.5 M 71.5 207.5 L 75.5 207.5 M 71.5 200.5 L 75.5 200.5 M 71.5 194.5 L 75.5 194.5 M 71.5 188.5 L 75.5 188.5 M 71.5 182.5 L 75.5 182.5 M 71.5 175.5 L 75.5 175.5 M 71.5 169.5 L 75.5 169.5 M 71.5 163.5 L 75.5 163.5 M 71.5 157.5 L 75.5 157.5 M 71.5 150.5 L 75.5 150.5 M 71.5 144.5 L 75.5 144.5 M 71.5 138.5 L 75.5 138.5 M 71.5 132.5 L 75.5 132.5 M 71.5 125.5 L 75.5 125.5 M 71.5 119.5 L 75.5 119.5 M 71.5 113.5 L 75.5 113.5 M 71.5 106.5 L 75.5 106.5 M 71.5 100.5 L 75.5 100.5 M 71.5 94.5 L 75.5 94.5 M 71.5 88.5 L 75.5 88.5 M 71.5 81.5 L 75.5 81.5 M 71.5 75.5 L 75.5 75.5 M 71.5 69.5 L 75.5 69.5 M 71.5 63.5 L 75.5 63.5 M 71.5 56.5 L 75.5 56.5 M 71.5 50.5 L 75.5 50.5 M 71.5 44.5 L 75.5 44.5 M 71.5 37.5 L 75.5 37.5" stroke-linejoin="bevel" stroke-miterlimit="10"/><text fill="#444444" stroke="none" font-family="helvetica" font-size="10pt" font-style="normal" font-weight="normal" text-decoration="normal" x="56.55000019073486" y="286.7968444824219" text-anchor="start" dominant-baseline="alphabetic" transform="matrix(1, 0, 0, 1, 0.5, 0.5)">0</text><text fill="none" stroke="rgb(0,0,0)" font-family="helvetica" font-size="10pt" font-style="normal" font-weight="normal" text-decoration="normal" x="56.55000019073486" y="286.7968444824219" text-anchor="start" dominant-baseline="alphabetic" transform="matrix(1, 0, 0, 1, 0.5, 0.5)" stroke-opacity="0" stroke-linejoin="bevel" stroke-miterlimit="10">0</text><text fill="#444444" stroke="none" font-family="helvetica" font-size="10pt" font-style="normal" font-weight="normal" text-decoration="normal" x="49.10000038146973" y="255.44888305664062" text-anchor="start" dominant-baseline="alphabetic" transform="matrix(1, 0, 0, 1, 0.5, 0.5)">20</text><text fill="none" stroke="rgb(0,0,0)" font-family="helvetica" font-size="10pt" font-style="normal" font-weight="normal" text-decoration="normal" x="49.10000038146973" y="255.44888305664062" text-anchor="start" dominant-baseline="alphabetic" transform="matrix(1, 0, 0, 1, 0.5, 0.5)" stroke-opacity="0" stroke-linejoin="bevel" stroke-miterlimit="10">20</text><text fill="#444444" stroke="none" font-family="helvetica" font-size="10pt" font-style="normal" font-weight="normal" text-decoration="normal" x="49.10000038146973" y="224.10092163085938" text-anchor="start" dominant-baseline="alphabetic" transform="matrix(1, 0, 0, 1, 0.5, 0.5)">40</text><text fill="none" stroke="rgb(0,0,0)" font-family="helvetica" font-size="10pt" font-style="normal" font-weight="normal" text-decoration="normal" x="49.10000038146973" y="224.10092163085938" text-anchor="start" dominant-baseline="alphabetic" transform="matrix(1, 0, 0, 1, 0.5, 0.5)" stroke-opacity="0" stroke-linejoin="bevel" stroke-miterlimit="10">40</text><text fill="#444444" stroke="none" font-family="helvetica" font-size="10pt" font-style="normal" font-weight="normal" text-decoration="normal" x="49.10000038146973" y="192.75296020507812" text-anchor="start" dominant-baseline="alphabetic" transform="matrix(1, 0, 0, 1, 0.5, 0.5)">60</text><text fill="none" stroke="rgb(0,0,0)" font-family="helvetica" font-size="10pt" font-style="normal" font-weight="normal" text-decoration="normal" x="49.10000038146973" y="192.75296020507812" text-anchor="start" dominant-baseline="alphabetic" transform="matrix(1, 0, 0, 1, 0.5, 0.5)" stroke-opacity="0" stroke-linejoin="bevel" stroke-miterlimit="10">60</text><text fill="#444444" stroke="none" font-family="helvetica" font-size="10pt" font-style="normal" font-weight="normal" text-decoration="normal" x="49.10000038146973" y="161.40499877929688" text-anchor="start" dominant-baseline="alphabetic" transform="matrix(1, 0, 0, 1, 0.5, 0.5)">80</text><text fill="none" stroke="rgb(0,0,0)" font-family="helvetica" font-size="10pt" font-style="normal" font-weight="normal" text-decoration="normal" x="49.10000038146973" y="161.40499877929688" text-anchor="start" dominant-baseline="alphabetic" transform="matrix(1, 0, 0, 1, 0.5, 0.5)" stroke-opacity="0" stroke-linejoin="bevel" stroke-miterlimit="10">80</text><text fill="#444444" stroke="none" font-family="helvetica" font-size="10pt" font-style="normal" font-weight="normal" text-decoration="normal" x="41.64999961853027" y="130.0570297241211" text-anchor="start" dominant-baseline="alphabetic" transform="matrix(1, 0, 0, 1, 0.5, 0.5)">100</text><text fill="none" stroke="rgb(0,0,0)" font-family="helvetica" font-size="10pt" font-style="normal" font-weight="normal" text-decoration="normal" x="41.64999961853027" y="130.0570297241211" text-anchor="start" dominant-baseline="alphabetic" transform="matrix(1, 0, 0, 1, 0.5, 0.5)" stroke-opacity="0" stroke-linejoin="bevel" stroke-miterlimit="10">100</text><text fill="#444444" stroke="none" font-family="helvetica" font-size="10pt" font-style="normal" font-weight="normal" text-decoration="normal" x="41.64999961853027" y="98.70906829833984" text-anchor="start" dominant-baseline="alphabetic" transform="matrix(1, 0, 0, 1, 0.5, 0.5)">120</text><text fill="none" stroke="rgb(0,0,0)" font-family="helvetica" font-size="10pt" font-style="normal" font-weight="normal" text-decoration="normal" x="41.64999961853027" y="98.70906829833984" text-anchor="start" dominant-baseline="alphabetic" transform="matrix(1, 0, 0, 1, 0.5, 0.5)" stroke-opacity="0" stroke-linejoin="bevel" stroke-miterlimit="10">120</text><text fill="#444444" stroke="none" font-family="helvetica" font-size="10pt" font-style="normal" font-weight="normal" text-decoration="normal" x="41.64999961853027" y="67.3611068725586" text-anchor="start" dominant-baseline="alphabetic" transform="matrix(1, 0, 0, 1, 0.5, 0.5)">140</text><text fill="none" stroke="rgb(0,0,0)" font-family="helvetica" font-size="10pt" font-style="normal" font-weight="normal" text-decoration="normal" x="41.64999961853027" y="67.3611068725586" text-anchor="start" dominant-baseline="alphabetic" transform="matrix(1, 0, 0, 1, 0.5, 0.5)" stroke-opacity="0" stroke-linejoin="bevel" stroke-miterlimit="10">140</text><text fill="#444444" stroke="none" font-family="helvetica" font-size="12pt" font-style="normal" font-weight="normal" text-decoration="normal" x="-73.07499885559082" y="153" text-anchor="start" dominant-baseline="alphabetic" transform="matrix(6.123233995736766e-17, -1, 1, 6.123233995736766e-17, -122.85000038146973, 191.14999961853027)">Days suitable for transmission</text><text fill="none" stroke="rgb(0,0,0)" font-family="helvetica" font-size="12pt" font-style="normal" font-weight="normal" text-decoration="normal" x="-73.07499885559082" y="153" text-anchor="start" dominant-baseline="alphabetic" transform="matrix(6.123233995736766e-17, -1, 1, 6.123233995736766e-17, -122.85000038146973, 191.14999961853027)" stroke-opacity="0" stroke-linejoin="bevel" stroke-miterlimit="10">Days suitable for transmission</text><path fill="rgb(255,255,255)" stroke="rgb(229,229,229)" paint-order="fill" d="M 480.183349609375 207.5 L 565.5000152587891 207.5 L 565.5000152587891 272.5 L 480.183349609375 272.5 L 480.183349609375 207.5 Z" fill-opacity="0.9490196078431372" clip-path="url(#luvtRCURdOkf)" stroke-opacity="0.5019607843137255" stroke-linejoin="bevel" stroke-miterlimit="10"/><g clip-path="url(#luvtRCURdOkf)"><g transform="matrix(1, 0, 0, 1, 490.683349609375, 218)"><path fill="none" stroke="#30a2da" paint-order="fill" d="M 0.5 10.5 L 20.5 10.5" stroke-linejoin="bevel" stroke-miterlimit="10" stroke-width="2"/></g></g><g clip-path="url(#luvtRCURdOkf)"><text fill="#444444" stroke="none" font-family="helvetica" font-size="13px" font-style="normal" font-weight="normal" text-decoration="normal" x="515.683349609375" y="232" text-anchor="start" dominant-baseline="alphabetic" transform="matrix(1, 0, 0, 1, 0.5, 0.5)">ID 001</text></g><g clip-path="url(#luvtRCURdOkf)"><text fill="none" stroke="rgb(0,0,0)" font-family="helvetica" font-size="13px" font-style="normal" font-weight="normal" text-decoration="normal" x="515.683349609375" y="232" text-anchor="start" dominant-baseline="alphabetic" transform="matrix(1, 0, 0, 1, 0.5, 0.5)" stroke-opacity="0" stroke-linejoin="bevel" stroke-miterlimit="10">ID 001</text></g><g clip-path="url(#luvtRCURdOkf)"><g transform="matrix(1, 0, 0, 1, 490.683349609375, 241)"><path fill="none" stroke="#fc4f30" paint-order="fill" d="M 0.5 10.5 L 20.5 10.5" stroke-linejoin="bevel" stroke-miterlimit="10" stroke-width="2"/></g></g><g clip-path="url(#luvtRCURdOkf)"><text fill="#444444" stroke="none" font-family="helvetica" font-size="13px" font-style="normal" font-weight="normal" text-decoration="normal" x="515.683349609375" y="255" text-anchor="start" dominant-baseline="alphabetic" transform="matrix(1, 0, 0, 1, 0.5, 0.5)">ID 006</text></g><g clip-path="url(#luvtRCURdOkf)"><text fill="none" stroke="rgb(0,0,0)" font-family="helvetica" font-size="13px" font-style="normal" font-weight="normal" text-decoration="normal" x="515.683349609375" y="255" text-anchor="start" dominant-baseline="alphabetic" transform="matrix(1, 0, 0, 1, 0.5, 0.5)" stroke-opacity="0" stroke-linejoin="bevel" stroke-miterlimit="10">ID 006</text></g><text fill="black" stroke="none" font-family="helvetica" font-size="14pt" font-style="normal" font-weight="normal" text-decoration="normal" x="0" y="15" text-anchor="start" dominant-baseline="alphabetic" transform="matrix(1, 0, 0, 1, 5.5, 7.5)">C. London</text><text fill="none" stroke="rgb(0,0,0)" font-family="helvetica" font-size="14pt" font-style="normal" font-weight="normal" text-decoration="normal" x="0" y="15" text-anchor="start" dominant-baseline="alphabetic" transform="matrix(1, 0, 0, 1, 5.5, 7.5)" stroke-opacity="0" stroke-linejoin="bevel" stroke-miterlimit="10">C. London</text></svg>