<svg version="1.1" xmlns="http://www.w3.org/2000/svg" width="600" height="329"><defs><clipPath id="XvFFDlRlukrw"><path fill="none" stroke="none" d="M 70.5 30.5 L 570.5 30.5 L 570.5 280.5 L 70.5 280.5 L 70.5 30.5 Z"/></clipPath><clipPath id="mxyIEaWaFkJb"><path fill="none" stroke="none" d="M 70.5 30.5 L 570.5 30.5 L 570.5 280.5 L 70.5 280.5 L 70.5 30.5 Z"/></clipPath><clipPath id="tnwxhsDeQXRZ"><path fill="none" stroke="none" d="M 70.5 30.5 L 570.5 30.5 L 570.5 280.5 L 70.5 280.5 L 70.5 30.5 Z"/></clipPath><clipPath id="TIEdOvlEVUyQ"><path fill="none" stroke="none" d="M 70.5 30.5 L 570.5 30.5 L 570.5 280.5 L 70.5 280.5 L 70.5 30.5 Z"/></clipPath><clipPath id="hNfmtGeFtXcD"><path fill="none" stroke="none" d="M 70.5 30.5 L 570.5 30.5 L 570.5 280.5 L 70.5 280.5 L 70.5 30.5 Z"/></clipPath><clipPath id="IGzUsikuPzEa"><path fill="none" stroke="none" d="M 70.5 30.5 L 570.5 30.5 L 570.5 280.5 L 70.5 280.5 L 70.5 30.5 Z"/></clipPath><clipPath id="BhMdAwtnJnKw"><path fill="none" stroke="none" d="M 70.5 30.5 L 570.5 30.5 L 570.5 280.5 L 70.5 280.5 L 70.5 30.5 Z"/></clipPath><clipPath id="EghvoxGcBoZu"><path fill="none" stroke="none" d="M 70.5 30.5 L 570.5 30.5 L 570.5 280.5 L 70.5 280.5 L 70.5 30.5 Z"/></clipPath><clipPath id="nByagxOABqSk"><path fill="none" stroke="none" d="M 70.5 30.5 L 570.5 30.5 L 570.5 280.5 L 70.5 280.5 L 70.5 30.5 Z"/></clipPath><clipPath id="gaUmOnOKFucR"><path fill="none" stroke="none" d="M 70.5 30.5 L 570.5 30.5 L 570.5 280.5 L 70.5 280.5 L 70.5 30.5 Z"/></clipPath><clipPath id="QoITEcKnhghJ"><path fill="none" stroke="none" d="M 70.5 30.5 L 570.5 30.5 L 570.5 280.5 L 70.5 280.5 L 70.5 30.5 Z"/></clipPath><clipPath id="HlhsSweSpFCc"><path fill="none" stroke="none" d="M 70.5 30.5 L 570.5 30.5 L 570.5 280.5 L 70.5 280.5 L 70.5 30.5 Z"/></clipPath><clipPath id="DfwDMbzRTkhU"><path fill="none" stroke="none" d="M 70.5 30.5 L 570.5 30.5 L 570.5 280.5 L 70.5 280.5 L 70.5 30.5 Z"/></clipPath><clipPath id="aQvIrGwBrINi"><path fill="none" stroke="none" d="M 70.5 30.5 L 570.5 30.5 L 570.5 280.5 L 70.5 280.5 L 70.5 30.5 Z"/></clipPath><clipPath id="GxLVEmoLLnRR"><path fill="none" stroke="none" d="M 70.5 30.5 L 570.5 30.5 L 570.5 280.5 L 70.5 280.5 L 70.5 30.5 Z"/></clipPath><clipPath id="rJVrevTWUfAL"><path fill="none" stroke="none" d="M 70.5 30.5 L 570.5 30.5 L 570.5 280.5 L 70.5 280.5 L 70.5 30.5 Z"/></clipPath><clipPath id="QhTsnRnIdpcZ"><path fill="none" stroke="none" d="M 70.5 30.5 L 570.5 30.5 L 570.5 280.5 L 70.5 280.5 L 70.5 30.5 Z"/></clipPath><clipPath id="uoWRoUnVOJNw"><path fill="none" stroke="none" d="M 70.5 30.5 L 570.5 30.5 L 570.5 280.5 L 70.5 280.5 L 70.5 30.5 Z"/></clipPath><clipPath id="gwNDGZZxHCte"><path fill="none" stroke="none" d="M 70.5 30.5 L 570.5 30.5 L 570.5 280.5 L 70.5 280.5 L 70.5 30.5 Z"/></clipPath><clipPath id="waKbezvrgfMa"><path fill="none" stroke="none" d="M 70.5 30.5 L 570.5 30.5 L 570.5 280.5 L 70.5 280.5 L 70.5 30.5 Z"/></clipPath><clipPath id="rfPehQSwDPcW"><path fill="none" stroke="none" d="M 70.5 30.5 L 570.5 30.5 L 570.5 280.5 L 70.5 280.5 L 70.5 30.5 Z"/></clipPath><clipPath id="ozZGxxCbyFCJ"><path fill="none" stroke="none" d="M 70.5 30.5 L 570.5 30.5 L 570.5 280.5 L 70.5 280.5 L 70.5 30.5 Z"/></clipPath><clipPath id="XysGMeyWmVlg"><path fill="none" stroke="none" d="M 70.5 30.5 L 570.5 30.5 L 570.5 280.5 L 70.5 280.5 L 70.5 30.5 Z"/></clipPath></defs><path fill="none" stroke="#e5e5e5" paint-order="fill" d="M 70.5 30.5 L 570.5 30.5 L 570.5 280.5 L 70.5 280.5 L 70.5 30.5 Z" stroke-linejoin="bevel" stroke-miterlimit="10"/><path fill="none" stroke="black" paint-order="fill" d="M 332.46172248803487 30.5 L 332.46172248803487 280.5" stroke-linejoin="bevel" stroke-miterlimit="10" stroke-width="3" stroke-dasharray="6" clip-path="url(#tnwxhsDeQXRZ)"/><path fill="none" stroke="#9467bd" paint-order="fill" d="M 93.2272720336914 129.63792419433594 L 117.15071868896484 131.59718322753906 L 141.07415771484375 119.84169006347656 L 164.9976043701172 92.41222381591797 L 188.92105102539062 160.98590087890625 L 212.84449768066406 139.43417358398438 L 236.7679443359375 127.67868041992188 L 260.6913757324219 106.12696075439453 L 284.6148376464844 121.80094146728516 L 308.53826904296875 133.55642700195312" stroke-linejoin="bevel" stroke-miterlimit="10" stroke-width="2" clip-path="url(#TIEdOvlEVUyQ)"/><path fill="none" stroke="#9467bd" paint-order="fill" d="M 93.2272720336914 129.63792419433594 L 117.15071868896484 131.59718322753906 L 141.07415771484375 119.84169006347656 L 164.9976043701172 92.41222381591797 L 188.92105102539062 160.98590087890625 L 212.84449768066406 139.43417358398438 L 236.7679443359375 127.67868041992188 L 260.6913757324219 106.12696075439453 L 284.6148376464844 121.80094146728516 L 308.53826904296875 133.55642700195312" stroke-linejoin="bevel" stroke-miterlimit="10" stroke-width="2" stroke-dasharray="6" clip-path="url(#hNfmtGeFtXcD)"/><path fill="none" stroke="#30a2da" paint-order="fill" d="M 308.53826904296875 133.55642700195312 L 332.46173095703125 155.108154296875 L 356.3851623535156 170.78213500976562 L 380.3086242675781 145.31190490722656 L 404.2320556640625 68.90125274658203 L 428.155517578125 115.9231948852539 L 452.0789489746094 64.98275756835938 L 476.00238037109375 137.47491455078125 L 499.92584228515625 108.0862045288086 L 523.8493041992188 108.0862045288086 L 547.772705078125 121.80094146728516" stroke-linejoin="bevel" stroke-miterlimit="10" stroke-width="2" clip-path="url(#IGzUsikuPzEa)"/><path fill="none" stroke="#30a2da" paint-order="fill" d="M 332.46173095703125 140.6453399658203 L 356.3851623535156 135.97877502441406 L 380.3086242675781 131.31219482421875 L 404.2320556640625 126.64562225341797 L 428.155517578125 121.97905731201172 L 452.0789489746094 117.31248474121094 L 476.00238037109375 112.64591217041016 L 499.92584228515625 107.97933959960938 L 523.8493041992188 103.3127670288086 L 547.772705078125 98.64619445800781" stroke-linejoin="bevel" stroke-miterlimit="10" stroke-width="2" stroke-dasharray="6" clip-path="url(#BhMdAwtnJnKw)"/><path fill="none" stroke="#fc4f30" paint-order="fill" d="M 308.53826904296875 133.55642700195312 L 332.46173095703125 166.86363220214844 L 356.3851623535156 115.9231948852539 L 380.3086242675781 106.12696075439453 L 404.2320556640625 115.9231948852539 L 428.155517578125 121.80094146728516 L 452.0789489746094 104.16770935058594 L 476.00238037109375 137.47491455078125 L 499.92584228515625 160.98590087890625 L 523.8493041992188 149.23040771484375 L 547.772705078125 151.1896514892578" stroke-linejoin="bevel" stroke-miterlimit="10" stroke-width="2" clip-path="url(#EghvoxGcBoZu)"/><path fill="none" stroke="#fc4f30" paint-order="fill" d="M 332.46173095703125 121.6940689086914 L 356.3851623535156 124.19953155517578 L 380.3086242675781 126.70499420166016 L 404.2320556640625 129.21046447753906 L 428.155517578125 131.71592712402344 L 452.0789489746094 134.2213897705078 L 476.00238037109375 136.7268524169922 L 499.92584228515625 139.2322998046875 L 523.8493041992188 141.73776245117188 L 547.772705078125 144.24322509765625" stroke-linejoin="bevel" stroke-miterlimit="10" stroke-width="2" stroke-dasharray="6" clip-path="url(#nByagxOABqSk)"/><path fill="none" stroke="rgb(128,128,128)" paint-order="fill" d="M 93.2272720336914 174.70062255859375 L 117.15071868896484 157.06739807128906 L 141.07415771484375 143.3526611328125 L 164.9976043701172 112.00469970703125 L 188.92105102539062 123.76018524169922 L 212.84449768066406 110.04545593261719 L 236.7679443359375 70.86050415039062 L 260.6913757324219 137.47491455078125 L 284.6148376464844 102.20846557617188 L 308.53826904296875 98.28997039794922" stroke-opacity="0.7490196078431373" stroke-linejoin="bevel" stroke-miterlimit="10" clip-path="url(#gaUmOnOKFucR)"/><path fill="none" stroke="grey" paint-order="fill" d="M 308.53826904296875 98.28997039794922 L 332.46173095703125 139.43417358398438 L 356.3851623535156 147.2711639404297 L 380.3086242675781 143.3526611328125 L 404.2320556640625 141.39341735839844 L 428.155517578125 106.12696075439453 L 452.0789489746094 123.76018524169922 L 476.00238037109375 129.63792419433594 L 499.92584228515625 113.96395111083984 L 523.8493041992188 110.04545593261719 L 547.772705078125 131.59718322753906" stroke-linejoin="bevel" stroke-miterlimit="10" stroke-width="0.5" clip-path="url(#QoITEcKnhghJ)"/><path fill="none" stroke="grey" paint-order="fill" d="M 308.53826904296875 98.28997039794922 L 332.46173095703125 115.9231948852539 L 356.3851623535156 160.98590087890625 L 380.3086242675781 155.108154296875 L 404.2320556640625 119.84169006347656 L 428.155517578125 151.1896514892578 L 452.0789489746094 113.96395111083984 L 476.00238037109375 131.59718322753906 L 499.92584228515625 157.06739807128906 L 523.8493041992188 135.5156707763672 L 547.772705078125 137.47491455078125" stroke-linejoin="bevel" stroke-miterlimit="10" stroke-width="0.5" clip-path="url(#HlhsSweSpFCc)"/><path fill="none" stroke="rgb(128,128,128)" paint-order="fill" d="M 93.2272720336914 100.24921417236328 L 117.15071868896484 108.0862045288086 L 141.07415771484375 131.59718322753906 L 164.9976043701172 94.37147521972656 L 188.92105102539062 147.2711639404297 L 212.84449768066406 106.12696075439453 L 236.7679443359375 119.84169006347656 L 260.6913757324219 133.55642700195312 L 284.6148376464844 98.28997039794922 L 308.53826904296875 143.3526611328125" stroke-opacity="0.7490196078431373" stroke-linejoin="bevel" stroke-miterlimit="10" clip-path="url(#DfwDMbzRTkhU)"/><path fill="none" stroke="grey" paint-order="fill" d="M 308.53826904296875 143.3526611328125 L 332.46173095703125 135.5156707763672 L 356.3851623535156 119.84169006347656 L 380.3086242675781 98.28997039794922 L 404.2320556640625 104.16770935058594 L 428.155517578125 74.77899932861328 L 452.0789489746094 123.76018524169922 L 476.00238037109375 117.8824462890625 L 499.92584228515625 190.37460327148438 L 523.8493041992188 155.108154296875 L 547.772705078125 86.53448486328125" stroke-linejoin="bevel" stroke-miterlimit="10" stroke-width="0.5" clip-path="url(#aQvIrGwBrINi)"/><path fill="none" stroke="grey" paint-order="fill" d="M 308.53826904296875 143.3526611328125 L 332.46173095703125 94.37147521972656 L 356.3851623535156 115.9231948852539 L 380.3086242675781 112.00469970703125 L 404.2320556640625 100.24921417236328 L 428.155517578125 68.90125274658203 L 452.0789489746094 127.67868041992188 L 476.00238037109375 155.108154296875 L 499.92584228515625 108.0862045288086 L 523.8493041992188 100.24921417236328 L 547.772705078125 117.8824462890625" stroke-linejoin="bevel" stroke-miterlimit="10" stroke-width="0.5" clip-path="url(#GxLVEmoLLnRR)"/><path fill="none" stroke="rgb(128,128,128)" paint-order="fill" d="M 93.2272720336914 149.23040771484375 L 117.15071868896484 139.43417358398438 L 141.07415771484375 115.9231948852539 L 164.9976043701172 133.55642700195312 L 188.92105102539062 188.4153594970703 L 212.84449768066406 113.96395111083984 L 236.7679443359375 121.80094146728516 L 260.6913757324219 113.96395111083984 L 284.6148376464844 113.96395111083984 L 308.53826904296875 131.59718322753906" stroke-opacity="0.7490196078431373" stroke-linejoin="bevel" stroke-miterlimit="10" clip-path="url(#rJVrevTWUfAL)"/><path fill="none" stroke="grey" paint-order="fill" d="M 308.53826904296875 131.59718322753906 L 332.46173095703125 100.24921417236328 L 356.3851623535156 129.63792419433594 L 380.3086242675781 137.47491455078125 L 404.2320556640625 135.5156707763672 L 428.155517578125 115.9231948852539 L 452.0789489746094 143.3526611328125 L 476.00238037109375 123.76018524169922 L 499.92584228515625 94.37147521972656 L 523.8493041992188 108.0862045288086 L 547.772705078125 115.9231948852539" stroke-linejoin="bevel" stroke-miterlimit="10" stroke-width="0.5" clip-path="url(#QhTsnRnIdpcZ)"/><path fill="none" stroke="grey" paint-order="fill" d="M 308.53826904296875 131.59718322753906 L 332.46173095703125 102.20846557617188 L 356.3851623535156 151.1896514892578 L 380.3086242675781 139.43417358398438 L 404.2320556640625 155.108154296875 L 428.155517578125 153.14889526367188 L 452.0789489746094 108.0862045288086 L 476.00238037109375 115.9231948852539 L 499.92584228515625 72.81974792480469 L 523.8493041992188 53.227272033691406 L 547.772705078125 84.57523345947266" stroke-linejoin="bevel" stroke-miterlimit="10" stroke-width="0.5" clip-path="url(#uoWRoUnVOJNw)"/><path fill="none" stroke="rgb(128,128,128)" paint-order="fill" d="M 93.2272720336914 104.16770935058594 L 117.15071868896484 123.76018524169922 L 141.07415771484375 110.04545593261719 L 164.9976043701172 149.23040771484375 L 188.92105102539062 96.33071899414062 L 212.84449768066406 133.55642700195312 L 236.7679443359375 129.63792419433594 L 260.6913757324219 135.5156707763672 L 284.6148376464844 155.108154296875 L 308.53826904296875 98.28997039794922" stroke-opacity="0.7490196078431373" stroke-linejoin="bevel" stroke-miterlimit="10" clip-path="url(#gwNDGZZxHCte)"/><path fill="none" stroke="grey" paint-order="fill" d="M 308.53826904296875 98.28997039794922 L 332.46173095703125 121.80094146728516 L 356.3851623535156 119.84169006347656 L 380.3086242675781 98.28997039794922 L 404.2320556640625 108.0862045288086 L 428.155517578125 121.80094146728516 L 452.0789489746094 104.16770935058594 L 476.00238037109375 143.3526611328125 L 499.92584228515625 131.59718322753906 L 523.8493041992188 102.20846557617188 L 547.772705078125 110.04545593261719" stroke-linejoin="bevel" stroke-miterlimit="10" stroke-width="0.5" clip-path="url(#waKbezvrgfMa)"/><path fill="none" stroke="grey" paint-order="fill" d="M 308.53826904296875 98.28997039794922 L 332.46173095703125 129.63792419433594 L 356.3851623535156 119.84169006347656 L 380.3086242675781 145.31190490722656 L 404.2320556640625 125.71943664550781 L 428.155517578125 135.5156707763672 L 452.0789489746094 133.55642700195312 L 476.00238037109375 135.5156707763672 L 499.92584228515625 145.31190490722656 L 523.8493041992188 110.04545593261719 L 547.772705078125 84.57523345947266" stroke-linejoin="bevel" stroke-miterlimit="10" stroke-width="0.5" clip-path="url(#rfPehQSwDPcW)"/><path fill="none" stroke="black" paint-order="fill" d="M 70.5 280.5 L 570.5 280.5" stroke-linejoin="bevel" stroke-miterlimit="10"/><path fill="none" stroke="black" paint-order="fill" d="M 93.5 286.5 L 93.5 278.5 M 212.5 286.5 L 212.5 278.5 M 332.5 286.5 L 332.5 278.5 M 452.5 286.5 L 452.5 278.5" stroke-linejoin="bevel" stroke-miterlimit="10"/><path fill="none" stroke="black" paint-order="fill" d="M 93.5 284.5 L 93.5 280.5 M 117.5 284.5 L 117.5 280.5 M 141.5 284.5 L 141.5 280.5 M 164.5 284.5 L 164.5 280.5 M 188.5 284.5 L 188.5 280.5 M 212.5 284.5 L 212.5 280.5 M 236.5 284.5 L 236.5 280.5 M 260.5 284.5 L 260.5 280.5 M 284.5 284.5 L 284.5 280.5 M 308.5 284.5 L 308.5 280.5 M 332.5 284.5 L 332.5 280.5 M 356.5 284.5 L 356.5 280.5 M 380.5 284.5 L 380.5 280.5 M 404.5 284.5 L 404.5 280.5 M 428.5 284.5 L 428.5 280.5 M 452.5 284.5 L 452.5 280.5 M 476.5 284.5 L 476.5 280.5 M 499.5 284.5 L 499.5 280.5 M 523.5 284.5 L 523.5 280.5 M 547.5 284.5 L 547.5 280.5" stroke-linejoin="bevel" stroke-miterlimit="10"/><text fill="#444444" stroke="none" font-family="helvetica" font-size="10pt" font-style="normal" font-weight="normal" text-decoration="normal" x="77.82727241516113" y="300.59368896484375" text-anchor="start" dominant-baseline="alphabetic" transform="matrix(1, 0, 0, 1, 0.5, 0.5)">2025</text><text fill="none" stroke="rgb(0,0,0)" font-family="helvetica" font-size="10pt" font-style="normal" font-weight="normal" text-decoration="normal" x="77.82727241516113" y="300.59368896484375" text-anchor="start" dominant-baseline="alphabetic" transform="matrix(1, 0, 0, 1, 0.5, 0.5)" stroke-opacity="0" stroke-linejoin="bevel" stroke-miterlimit="10">2025</text><text fill="#444444" stroke="none" font-family="helvetica" font-size="10pt" font-style="normal" font-weight="normal" text-decoration="normal" x="197.4444980621338" y="300.59368896484375" text-anchor="start" dominant-baseline="alphabetic" transform="matrix(1, 0, 0, 1, 0.5, 0.5)">2030</text><text fill="none" stroke="rgb(0,0,0)" font-family="helvetica" font-size="10pt" font-style="normal" font-weight="normal" text-decoration="normal" x="197.4444980621338" y="300.59368896484375" text-anchor="start" dominant-baseline="alphabetic" transform="matrix(1, 0, 0, 1, 0.5, 0.5)" stroke-opacity="0" stroke-linejoin="bevel" stroke-miterlimit="10">2030</text><text fill="#444444" stroke="none" font-family="helvetica" font-size="10pt" font-style="normal" font-weight="normal" text-decoration="normal" x="317.061731338501" y="300.59368896484375" text-anchor="start" dominant-baseline="alphabetic" transform="matrix(1, 0, 0, 1, 0.5, 0.5)">2035</text><text fill="none" stroke="rgb(0,0,0)" font-family="helvetica" font-size="10pt" font-style="normal" font-weight="normal" text-decoration="normal" x="317.061731338501" y="300.59368896484375" text-anchor="start" dominant-baseline="alphabetic" transform="matrix(1, 0, 0, 1, 0.5, 0.5)" stroke-opacity="0" stroke-linejoin="bevel" stroke-miterlimit="10">2035</text><text fill="#444444" stroke="none" font-family="helvetica" font-size="10pt" font-style="normal" font-weight="normal" text-decoration="normal" x="436.6789493560791" y="300.59368896484375" text-anchor="start" dominant-baseline="alphabetic" transform="matrix(1, 0, 0, 1, 0.5, 0.5)">2040</text><text fill="none" stroke="rgb(0,0,0)" font-family="helvetica" font-size="10pt" font-style="normal" font-weight="normal" text-decoration="normal" x="436.6789493560791" y="300.59368896484375" text-anchor="start" dominant-baseline="alphabetic" transform="matrix(1, 0, 0, 1, 0.5, 0.5)" stroke-opacity="0" stroke-linejoin="bevel" stroke-miterlimit="10">2040</text><text fill="#444444" stroke="none" font-family="helvetica" font-size="12pt" font-style="normal" font-weight="normal" text-decoration="normal" x="303.8333339691162" y="321.59368896484375" text-anchor="start" dominant-baseline="alphabetic" transform="matrix(1, 0, 0, 1, 0.5, 0.5)">Year</text><text fill="none" stroke="rgb(0,0,0)" font-family="helvetica" font-size="12pt" font-style="normal" font-weight="normal" text-decoration="normal" x="303.8333339691162" y="321.59368896484375" text-anchor="start" dominant-baseline="alphabetic" transform="matrix(1, 0, 0, 1, 0.5, 0.5)" stroke-opacity="0" stroke-linejoin="bevel" stroke-miterlimit="10">Year</text><path fill="none" stroke="black" paint-order="fill" d="M 70.5 280.5 L 70.5 30.5" stroke-linejoin="bevel" stroke-miterlimit="10"/><path fill="none" stroke="black" paint-order="fill" d="M 64.5 280.5 L 72.5 280.5 M 64.5 241.5 L 72.5 241.5 M 64.5 202.5 L 72.5 202.5 M 64.5 162.5 L 72.5 162.5 M 64.5 123.5 L 72.5 123.5 M 64.5 84.5 L 72.5 84.5 M 64.5 45.5 L 72.5 45.5" stroke-linejoin="bevel" stroke-miterlimit="10"/><path fill="none" stroke="black" paint-order="fill" d="M 66.5 280.5 L 70.5 280.5 M 66.5 272.5 L 70.5 272.5 M 66.5 264.5 L 70.5 264.5 M 66.5 256.5 L 70.5 256.5 M 66.5 249.5 L 70.5 249.5 M 66.5 241.5 L 70.5 241.5 M 66.5 233.5 L 70.5 233.5 M 66.5 225.5 L 70.5 225.5 M 66.5 217.5 L 70.5 217.5 M 66.5 209.5 L 70.5 209.5 M 66.5 202.5 L 70.5 202.5 M 66.5 194.5 L 70.5 194.5 M 66.5 186.5 L 70.5 186.5 M 66.5 178.5 L 70.5 178.5 M 66.5 170.5 L 70.5 170.5 M 66.5 162.5 L 70.5 162.5 M 66.5 155.5 L 70.5 155.5 M 66.5 147.5 L 70.5 147.5 M 66.5 139.5 L 70.5 139.5 M 66.5 131.5 L 70.5 131.5 M 66.5 123.5 L 70.5 123.5 M 66.5 115.5 L 70.5 115.5 M 66.5 108.5 L 70.5 108.5 M 66.5 100.5 L 70.5 100.5 M 66.5 92.5 L 70.5 92.5 M 66.5 84.5 L 70.5 84.5 M 66.5 76.5 L 70.5 76.5 M 66.5 68.5 L 70.5 68.5 M 66.5 61.5 L 70.5 61.5 M 66.5 53.5 L 70.5 53.5 M 66.5 45.5 L 70.5 45.5 M 66.5 37.5 L 70.5 37.5" stroke-linejoin="bevel" stroke-miterlimit="10"/><text fill="#444444" stroke="none" font-family="helvetica" font-size="10pt" font-style="normal" font-weight="normal" text-decoration="normal" x="51.55000019073486" y="284.7968444824219" text-anchor="start" dominant-baseline="alphabetic" transform="matrix(1, 0, 0, 1, 0.5, 0.5)">0</text><text fill="none" stroke="rgb(0,0,0)" font-family="helvetica" font-size="10pt" font-style="normal" font-weight="normal" text-decoration="normal" x="51.55000019073486" y="284.7968444824219" text-anchor="start" dominant-baseline="alphabetic" transform="matrix(1, 0, 0, 1, 0.5, 0.5)" stroke-opacity="0" stroke-linejoin="bevel" stroke-miterlimit="10">0</text><text fill="#444444" stroke="none" font-family="helvetica" font-size="10pt" font-style="normal" font-weight="normal" text-decoration="normal" x="44.10000038146973" y="245.6118927001953" text-anchor="start" dominant-baseline="alphabetic" transform="matrix(1, 0, 0, 1, 0.5, 0.5)">20</text><text fill="none" stroke="rgb(0,0,0)" font-family="helvetica" font-size="10pt" font-style="normal" font-weight="normal" text-decoration="normal" x="44.10000038146973" y="245.6118927001953" text-anchor="start" dominant-baseline="alphabetic" transform="matrix(1, 0, 0, 1, 0.5, 0.5)" stroke-opacity="0" stroke-linejoin="bevel" stroke-miterlimit="10">20</text><text fill="#444444" stroke="none" font-family="helvetica" font-size="10pt" font-style="normal" font-weight="normal" text-decoration="normal" x="44.10000038146973" y="206.42694091796875" text-anchor="start" dominant-baseline="alphabetic" transform="matrix(1, 0, 0, 1, 0.5, 0.5)">40</text><text fill="none" stroke="rgb(0,0,0)" font-family="helvetica" font-size="10pt" font-style="normal" font-weight="normal" text-decoration="normal" x="44.10000038146973" y="206.42694091796875" text-anchor="start" dominant-baseline="alphabetic" transform="matrix(1, 0, 0, 1, 0.5, 0.5)" stroke-opacity="0" stroke-linejoin="bevel" stroke-miterlimit="10">40</text><text fill="#444444" stroke="none" font-family="helvetica" font-size="10pt" font-style="normal" font-weight="normal" text-decoration="normal" x="44.10000038146973" y="167.2419891357422" text-anchor="start" dominant-baseline="alphabetic" transform="matrix(1, 0, 0, 1, 0.5, 0.5)">60</text><text fill="none" stroke="rgb(0,0,0)" font-family="helvetica" font-size="10pt" font-style="normal" font-weight="normal" text-decoration="normal" x="44.10000038146973" y="167.2419891357422" text-anchor="start" dominant-baseline="alphabetic" transform="matrix(1, 0, 0, 1, 0.5, 0.5)" stroke-opacity="0" stroke-linejoin="bevel" stroke-miterlimit="10">60</text><text fill="#444444" stroke="none" font-family="helvetica" font-size="10pt" font-style="normal" font-weight="normal" text-decoration="normal" x="44.10000038146973" y="128.0570297241211" text-anchor="start" dominant-baseline="alphabetic" transform="matrix(1, 0, 0, 1, 0.5, 0.5)">80</text><text fill="none" stroke="rgb(0,0,0)" font-family="helvetica" font-size="10pt" font-style="normal" font-weight="normal" text-decoration="normal" x="44.10000038146973" y="128.0570297241211" text-anchor="start" dominant-baseline="alphabetic" transform="matrix(1, 0, 0, 1, 0.5, 0.5)" stroke-opacity="0" stroke-linejoin="bevel" stroke-miterlimit="10">80</text><text fill="#444444" stroke="none" font-family="helvetica" font-size="10pt" font-style="normal" font-weight="normal" text-decoration="normal" x="36.64999961853027" y="88.87207794189453" text-anchor="start" dominant-baseline="alphabetic" transform="matrix(1, 0, 0, 1, 0.5, 0.5)">100</text><text fill="none" stroke="rgb(0,0,0)" font-family="helvetica" font-size="10pt" font-style="normal" font-weight="normal" text-decoration="normal" x="36.64999961853027" y="88.87207794189453" text-anchor="start" dominant-baseline="alphabetic" transform="matrix(1, 0, 0, 1, 0.5, 0.5)" stroke-opacity="0" stroke-linejoin="bevel" stroke-miterlimit="10">100</text><text fill="#444444" stroke="none" font-family="helvetica" font-size="10pt" font-style="normal" font-weight="normal" text-decoration="normal" x="36.64999961853027" y="49.68712615966797" text-anchor="start" dominant-baseline="alphabetic" transform="matrix(1, 0, 0, 1, 0.5, 0.5)">120</text><text fill="none" stroke="rgb(0,0,0)" font-family="helvetica" font-size="10pt" font-style="normal" font-weight="normal" text-decoration="normal" x="36.64999961853027" y="49.68712615966797" text-anchor="start" dominant-baseline="alphabetic" transform="matrix(1, 0, 0, 1, 0.5, 0.5)" stroke-opacity="0" stroke-linejoin="bevel" stroke-miterlimit="10">120</text><text fill="#444444" stroke="none" font-family="helvetica" font-size="12pt" font-style="normal" font-weight="normal" text-decoration="normal" x="-78.07499885559082" y="151" text-anchor="start" dominant-baseline="alphabetic" transform="matrix(6.123233995736766e-17, -1, 1, 6.123233995736766e-17, -125.85000038146973, 184.14999961853027)">Days suitable for transmission</text><text fill="none" stroke="rgb(0,0,0)" font-family="helvetica" font-size="12pt" font-style="normal" font-weight="normal" text-decoration="normal" x="-78.07499885559082" y="151" text-anchor="start" dominant-baseline="alphabetic" transform="matrix(6.123233995736766e-17, -1, 1, 6.123233995736766e-17, -125.85000038146973, 184.14999961853027)" stroke-opacity="0" stroke-linejoin="bevel" stroke-miterlimit="10">Days suitable for transmission</text><path fill="rgb(255,255,255)" stroke="rgb(229,229,229)" paint-order="fill" d="M 475.183349609375 205.5 L 560.5000152587891 205.5 L 560.5000152587891 270.5 L 475.183349609375 270.5 L 475.183349609375 205.5 Z" fill-opacity="0.9490196078431372" clip-path="url(#ozZGxxCbyFCJ)" stroke-opacity="0.5019607843137255" stroke-linejoin="bevel" stroke-miterlimit="10"/><g clip-path="url(#ozZGxxCbyFCJ)"><g transform="matrix(1, 0, 0, 1, 485.683349609375, 216)"><path fill="none" stroke="#30a2da" paint-order="fill" d="M 0.5 10.5 L 20.5 10.5" stroke-linejoin="bevel" stroke-miterlimit="10" stroke-width="2"/></g></g><g clip-path="url(#ozZGxxCbyFCJ)"><text fill="#444444" stroke="none" font-family="helvetica" font-size="13px" font-style="normal" font-weight="normal" text-decoration="normal" x="510.683349609375" y="230" text-anchor="start" dominant-baseline="alphabetic" transform="matrix(1, 0, 0, 1, 0.5, 0.5)">ID 001</text></g><g clip-path="url(#ozZGxxCbyFCJ)"><text fill="none" stroke="rgb(0,0,0)" font-family="helvetica" font-size="13px" font-style="normal" font-weight="normal" text-decoration="normal" x="510.683349609375" y="230" text-anchor="start" dominant-baseline="alphabetic" transform="matrix(1, 0, 0, 1, 0.5, 0.5)" stroke-opacity="0" stroke-linejoin="bevel" stroke-miterlimit="10">ID 001</text></g><g clip-path="url(#ozZGxxCbyFCJ)"><g transform="matrix(1, 0, 0, 1, 485.683349609375, 239)"><path fill="none" stroke="#fc4f30" paint-order="fill" d="M 0.5 10.5 L 20.5 10.5" stroke-linejoin="bevel" stroke-miterlimit="10" stroke-width="2"/></g></g><g clip-path="url(#ozZGxxCbyFCJ)"><text fill="#444444" stroke="none" font-family="helvetica" font-size="13px" font-style="normal" font-weight="normal" text-decoration="normal" x="510.683349609375" y="253" text-anchor="start" dominant-baseline="alphabetic" transform="matrix(1, 0, 0, 1, 0.5, 0.5)">ID 006</text></g><g clip-path="url(#ozZGxxCbyFCJ)"><text fill="none" stroke="rgb(0,0,0)" font-family="helvetica" font-size="13px" font-style="normal" font-weight="normal" text-decoration="normal" x="510.683349609375" y="253" text-anchor="start" dominant-baseline="alphabetic" transform="matrix(1, 0, 0, 1, 0.5, 0.5)" stroke-opacity="0" stroke-linejoin="bevel" stroke-miterlimit="10">ID 006</text></g><text fill="black" stroke="none" font-family="helvetica" font-size="14pt" font-style="normal" font-weight="normal" text-decoration="normal" x="0" y="15" text-anchor="start" dominant-baseline="alphabetic" transform="matrix(1, 0, 0, 1, 5.5, 5.5)">B. Seattle</text><text fill="none" stroke="rgb(0,0,0)" font-family="helvetica" font-size="14pt" font-style="normal" font-weight="normal" text-decoration="normal" x="0" y="15" text-anchor="start" dominant-baseline="alphabetic" transform="matrix(1, 0, 0, 1, 5.5, 5.5)" stroke-opacity="0" stroke-linejoin="bevel" stroke-miterlimit="10">B. Seattle</text></svg>