<svg version="1.1" xmlns="http://www.w3.org/2000/svg" width="600" height="334"><defs><clipPath id="LxUWRQwasTmX"><path fill="none" stroke="none" d="M 70.5 33.5 L 570.5 33.5 L 570.5 283.5 L 70.5 283.5 L 70.5 33.5 Z"/></clipPath><clipPath id="ICwnEazLcMcT"><path fill="none" stroke="none" d="M 70.5 33.5 L 570.5 33.5 L 570.5 283.5 L 70.5 283.5 L 70.5 33.5 Z"/></clipPath><clipPath id="OmzDQJZSbBit"><path fill="none" stroke="none" d="M 70.5 33.5 L 570.5 33.5 L 570.5 283.5 L 70.5 283.5 L 70.5 33.5 Z"/></clipPath><clipPath id="DOHJhPVxlPmw"><path fill="none" stroke="none" d="M 70.5 33.5 L 570.5 33.5 L 570.5 283.5 L 70.5 283.5 L 70.5 33.5 Z"/></clipPath><clipPath id="munLMlMJnAyG"><path fill="none" stroke="none" d="M 70.5 33.5 L 570.5 33.5 L 570.5 283.5 L 70.5 283.5 L 70.5 33.5 Z"/></clipPath><clipPath id="XkTQMmSkBLyw"><path fill="none" stroke="none" d="M 70.5 33.5 L 570.5 33.5 L 570.5 283.5 L 70.5 283.5 L 70.5 33.5 Z"/></clipPath><clipPath id="HmvLFNsyNfSe"><path fill="none" stroke="none" d="M 70.5 33.5 L 570.5 33.5 L 570.5 283.5 L 70.5 283.5 L 70.5 33.5 Z"/></clipPath><clipPath id="iRBXGTwroQTN"><path fill="none" stroke="none" d="M 70.5 33.5 L 570.5 33.5 L 570.5 283.5 L 70.5 283.5 L 70.5 33.5 Z"/></clipPath><clipPath id="BOQAIWVaQwvT"><path fill="none" stroke="none" d="M 70.5 33.5 L 570.5 33.5 L 570.5 283.5 L 70.5 283.5 L 70.5 33.5 Z"/></clipPath><clipPath id="RPeuQxdFVrUK"><path fill="none" stroke="none" d="M 70.5 33.5 L 570.5 33.5 L 570.5 283.5 L 70.5 283.5 L 70.5 33.5 Z"/></clipPath><clipPath id="PTomvdKZMESV"><path fill="none" stroke="none" d="M 70.5 33.5 L 570.5 33.5 L 570.5 283.5 L 70.5 283.5 L 70.5 33.5 Z"/></clipPath><clipPath id="MlCVdGPIEbua"><path fill="none" stroke="none" d="M 70.5 33.5 L 570.5 33.5 L 570.5 283.5 L 70.5 283.5 L 70.5 33.5 Z"/></clipPath><clipPath id="IPPbTAOlOfxD"><path fill="none" stroke="none" d="M 70.5 33.5 L 570.5 33.5 L 570.5 283.5 L 70.5 283.5 L 70.5 33.5 Z"/></clipPath><clipPath id="DnVlzHCFCgOT"><path fill="none" stroke="none" d="M 70.5 33.5 L 570.5 33.5 L 570.5 283.5 L 70.5 283.5 L 70.5 33.5 Z"/></clipPath><clipPath id="FwPylnvRZCTP"><path fill="none" stroke="none" d="M 70.5 33.5 L 570.5 33.5 L 570.5 283.5 L 70.5 283.5 L 70.5 33.5 Z"/></clipPath><clipPath id="KOdJhRhDTNRL"><path fill="none" stroke="none" d="M 70.5 33.5 L 570.5 33.5 L 570.5 283.5 L 70.5 283.5 L 70.5 33.5 Z"/></clipPath><clipPath id="pJSuJlldrSym"><path fill="none" stroke="none" d="M 70.5 33.5 L 570.5 33.5 L 570.5 283.5 L 70.5 283.5 L 70.5 33.5 Z"/></clipPath><clipPath id="tnqHzbIRseCZ"><path fill="none" stroke="none" d="M 70.5 33.5 L 570.5 33.5 L 570.5 283.5 L 70.5 283.5 L 70.5 33.5 Z"/></clipPath><clipPath id="CTmBMRRfeXOg"><path fill="none" stroke="none" d="M 70.5 33.5 L 570.5 33.5 L 570.5 283.5 L 70.5 283.5 L 70.5 33.5 Z"/></clipPath><clipPath id="IZMorbnRaCbd"><path fill="none" stroke="none" d="M 70.5 33.5 L 570.5 33.5 L 570.5 283.5 L 70.5 283.5 L 70.5 33.5 Z"/></clipPath><clipPath id="ktHsCmLvymAo"><path fill="none" stroke="none" d="M 70.5 33.5 L 570.5 33.5 L 570.5 283.5 L 70.5 283.5 L 70.5 33.5 Z"/></clipPath><clipPath id="cXlRvvVWCzNL"><path fill="none" stroke="none" d="M 70.5 33.5 L 570.5 33.5 L 570.5 283.5 L 70.5 283.5 L 70.5 33.5 Z"/></clipPath><clipPath id="lbHWBwqZvaPN"><path fill="none" stroke="none" d="M 70.5 33.5 L 570.5 33.5 L 570.5 283.5 L 70.5 283.5 L 70.5 33.5 Z"/></clipPath></defs><path fill="none" stroke="#e5e5e5" paint-order="fill" d="M 70.5 33.5 L 570.5 33.5 L 570.5 283.5 L 70.5 283.5 L 70.5 33.5 Z" stroke-linejoin="bevel" stroke-miterlimit="10"/><path fill="none" stroke="black" paint-order="fill" d="M 332.46172248803487 33.5 L 332.46172248803487 283.5" stroke-linejoin="bevel" stroke-miterlimit="10" stroke-width="3" stroke-dasharray="6" clip-path="url(#OmzDQJZSbBit)"/><path fill="none" stroke="#9467bd" paint-order="fill" d="M 93.2272720336914 81.3056411743164 L 117.15071868896484 93.8448257446289 L 141.07415771484375 111.0862045288086 L 164.9976043701172 101.68181610107422 L 188.92105102539062 86.0078353881836 L 212.84449768066406 106.3840103149414 L 236.7679443359375 111.0862045288086 L 260.6913757324219 114.22100067138672 L 284.6148376464844 133.02978515625 L 308.53826904296875 106.3840103149414" stroke-linejoin="bevel" stroke-miterlimit="10" stroke-width="2" clip-path="url(#DOHJhPVxlPmw)"/><path fill="none" stroke="#9467bd" paint-order="fill" d="M 93.2272720336914 81.3056411743164 L 117.15071868896484 93.8448257446289 L 141.07415771484375 111.0862045288086 L 164.9976043701172 101.68181610107422 L 188.92105102539062 86.0078353881836 L 212.84449768066406 106.3840103149414 L 236.7679443359375 111.0862045288086 L 260.6913757324219 114.22100067138672 L 284.6148376464844 133.02978515625 L 308.53826904296875 106.3840103149414" stroke-linejoin="bevel" stroke-miterlimit="10" stroke-width="2" stroke-dasharray="6" clip-path="url(#munLMlMJnAyG)"/><path fill="none" stroke="#30a2da" paint-order="fill" d="M 308.53826904296875 106.3840103149414 L 332.46173095703125 81.3056411743164 L 356.3851623535156 82.87303924560547 L 380.3086242675781 78.17084503173828 L 404.2320556640625 96.97962188720703 L 428.155517578125 93.8448257446289 L 452.0789489746094 125.19278717041016 L 476.00238037109375 139.29937744140625 L 499.92584228515625 89.14263153076172 L 523.8493041992188 129.89498901367188 L 547.772705078125 153.4059600830078" stroke-linejoin="bevel" stroke-miterlimit="10" stroke-width="2" clip-path="url(#XkTQMmSkBLyw)"/><path fill="none" stroke="#30a2da" paint-order="fill" d="M 332.46173095703125 74.52308654785156 L 356.3851623535156 81.74261474609375 L 380.3086242675781 88.96214294433594 L 404.2320556640625 96.18167877197266 L 428.155517578125 103.40120697021484 L 452.0789489746094 110.62073516845703 L 476.00238037109375 117.84027099609375 L 499.92584228515625 125.05979919433594 L 523.8493041992188 132.27932739257812 L 547.772705078125 139.4988555908203" stroke-linejoin="bevel" stroke-miterlimit="10" stroke-width="2" stroke-dasharray="6" clip-path="url(#HmvLFNsyNfSe)"/><path fill="none" stroke="#fc4f30" paint-order="fill" d="M 308.53826904296875 106.3840103149414 L 332.46173095703125 75.03604888916016 L 356.3851623535156 167.51254272460938 L 380.3086242675781 136.16458129882812 L 404.2320556640625 120.49059295654297 L 428.155517578125 122.05799102783203 L 452.0789489746094 93.8448257446289 L 476.00238037109375 112.65360260009766 L 499.92584228515625 96.97962188720703 L 523.8493041992188 125.19278717041016 L 547.772705078125 84.44043731689453" stroke-linejoin="bevel" stroke-miterlimit="10" stroke-width="2" clip-path="url(#iRBXGTwroQTN)"/><path fill="none" stroke="#fc4f30" paint-order="fill" d="M 332.46173095703125 125.96224212646484 L 356.3851623535156 123.17892456054688 L 380.3086242675781 120.39559936523438 L 404.2320556640625 117.6122817993164 L 428.155517578125 114.82896423339844 L 452.0789489746094 112.04564666748047 L 476.00238037109375 109.2623291015625 L 499.92584228515625 106.47900390625 L 523.8493041992188 103.69568634033203 L 547.772705078125 100.91236877441406" stroke-linejoin="bevel" stroke-miterlimit="10" stroke-width="2" stroke-dasharray="6" clip-path="url(#BOQAIWVaQwvT)"/><path fill="none" stroke="rgb(128,128,128)" paint-order="fill" d="M 93.2272720336914 145.5689697265625 L 117.15071868896484 64.06426239013672 L 141.07415771484375 75.03604888916016 L 164.9976043701172 100.11441802978516 L 188.92105102539062 106.3840103149414 L 212.84449768066406 71.90125274658203 L 236.7679443359375 115.78839874267578 L 260.6913757324219 101.68181610107422 L 284.6148376464844 81.3056411743164 L 308.53826904296875 56.227272033691406" stroke-opacity="0.7490196078431373" stroke-linejoin="bevel" stroke-miterlimit="10" clip-path="url(#RPeuQxdFVrUK)"/><path fill="none" stroke="grey" paint-order="fill" d="M 308.53826904296875 56.227272033691406 L 332.46173095703125 71.90125274658203 L 356.3851623535156 101.68181610107422 L 380.3086242675781 86.0078353881836 L 404.2320556640625 87.57523345947266 L 428.155517578125 79.73824310302734 L 452.0789489746094 75.03604888916016 L 476.00238037109375 76.60344696044922 L 499.92584228515625 93.8448257446289 L 523.8493041992188 98.5470199584961 L 547.772705078125 117.35579681396484" stroke-linejoin="bevel" stroke-miterlimit="10" stroke-width="0.5" clip-path="url(#PTomvdKZMESV)"/><path fill="none" stroke="grey" paint-order="fill" d="M 308.53826904296875 56.227272033691406 L 332.46173095703125 82.87303924560547 L 356.3851623535156 82.87303924560547 L 380.3086242675781 86.0078353881836 L 404.2320556640625 79.73824310302734 L 428.155517578125 112.65360260009766 L 452.0789489746094 87.57523345947266 L 476.00238037109375 104.81661224365234 L 499.92584228515625 109.51880645751953 L 523.8493041992188 112.65360260009766 L 547.772705078125 81.3056411743164" stroke-linejoin="bevel" stroke-miterlimit="10" stroke-width="0.5" clip-path="url(#MlCVdGPIEbua)"/><path fill="none" stroke="rgb(128,128,128)" paint-order="fill" d="M 93.2272720336914 125.19278717041016 L 117.15071868896484 114.22100067138672 L 141.07415771484375 92.27742767333984 L 164.9976043701172 73.4686508178711 L 188.92105102539062 101.68181610107422 L 212.84449768066406 64.06426239013672 L 236.7679443359375 65.63166046142578 L 260.6913757324219 93.8448257446289 L 284.6148376464844 117.35579681396484 L 308.53826904296875 71.90125274658203" stroke-opacity="0.7490196078431373" stroke-linejoin="bevel" stroke-miterlimit="10" clip-path="url(#IPPbTAOlOfxD)"/><path fill="none" stroke="grey" paint-order="fill" d="M 308.53826904296875 71.90125274658203 L 332.46173095703125 71.90125274658203 L 356.3851623535156 76.60344696044922 L 380.3086242675781 75.03604888916016 L 404.2320556640625 71.90125274658203 L 428.155517578125 82.87303924560547 L 452.0789489746094 73.4686508178711 L 476.00238037109375 65.63166046142578 L 499.92584228515625 100.11441802978516 L 523.8493041992188 84.44043731689453 L 547.772705078125 96.97962188720703" stroke-linejoin="bevel" stroke-miterlimit="10" stroke-width="0.5" clip-path="url(#DnVlzHCFCgOT)"/><path fill="none" stroke="grey" paint-order="fill" d="M 308.53826904296875 71.90125274658203 L 332.46173095703125 78.17084503173828 L 356.3851623535156 84.44043731689453 L 380.3086242675781 111.0862045288086 L 404.2320556640625 95.41222381591797 L 428.155517578125 103.24921417236328 L 452.0789489746094 120.49059295654297 L 476.00238037109375 82.87303924560547 L 499.92584228515625 111.0862045288086 L 523.8493041992188 82.87303924560547 L 547.772705078125 81.3056411743164" stroke-linejoin="bevel" stroke-miterlimit="10" stroke-width="0.5" clip-path="url(#FwPylnvRZCTP)"/><path fill="none" stroke="rgb(128,128,128)" paint-order="fill" d="M 93.2272720336914 86.0078353881836 L 117.15071868896484 67.19905853271484 L 141.07415771484375 79.73824310302734 L 164.9976043701172 106.3840103149414 L 188.92105102539062 122.05799102783203 L 212.84449768066406 100.11441802978516 L 236.7679443359375 106.3840103149414 L 260.6913757324219 56.227272033691406 L 284.6148376464844 90.71002960205078 L 308.53826904296875 87.57523345947266" stroke-opacity="0.7490196078431373" stroke-linejoin="bevel" stroke-miterlimit="10" clip-path="url(#KOdJhRhDTNRL)"/><path fill="none" stroke="grey" paint-order="fill" d="M 308.53826904296875 87.57523345947266 L 332.46173095703125 95.41222381591797 L 356.3851623535156 76.60344696044922 L 380.3086242675781 107.95140838623047 L 404.2320556640625 84.44043731689453 L 428.155517578125 118.9231948852539 L 452.0789489746094 75.03604888916016 L 476.00238037109375 118.9231948852539 L 499.92584228515625 98.5470199584961 L 523.8493041992188 118.9231948852539 L 547.772705078125 101.68181610107422" stroke-linejoin="bevel" stroke-miterlimit="10" stroke-width="0.5" clip-path="url(#pJSuJlldrSym)"/><path fill="none" stroke="grey" paint-order="fill" d="M 308.53826904296875 87.57523345947266 L 332.46173095703125 101.68181610107422 L 356.3851623535156 70.33385467529297 L 380.3086242675781 86.0078353881836 L 404.2320556640625 98.5470199584961 L 428.155517578125 107.95140838623047 L 452.0789489746094 104.81661224365234 L 476.00238037109375 89.14263153076172 L 499.92584228515625 100.11441802978516 L 523.8493041992188 98.5470199584961 L 547.772705078125 87.57523345947266" stroke-linejoin="bevel" stroke-miterlimit="10" stroke-width="0.5" clip-path="url(#tnqHzbIRseCZ)"/><path fill="none" stroke="rgb(128,128,128)" paint-order="fill" d="M 93.2272720336914 128.32758331298828 L 117.15071868896484 104.81661224365234 L 141.07415771484375 98.5470199584961 L 164.9976043701172 73.4686508178711 L 188.92105102539062 98.5470199584961 L 212.84449768066406 101.68181610107422 L 236.7679443359375 86.0078353881836 L 260.6913757324219 65.63166046142578 L 284.6148376464844 107.95140838623047 L 308.53826904296875 82.87303924560547" stroke-opacity="0.7490196078431373" stroke-linejoin="bevel" stroke-miterlimit="10" clip-path="url(#CTmBMRRfeXOg)"/><path fill="none" stroke="grey" paint-order="fill" d="M 308.53826904296875 82.87303924560547 L 332.46173095703125 71.90125274658203 L 356.3851623535156 101.68181610107422 L 380.3086242675781 82.87303924560547 L 404.2320556640625 86.0078353881836 L 428.155517578125 114.22100067138672 L 452.0789489746094 103.24921417236328 L 476.00238037109375 123.6253890991211 L 499.92584228515625 96.97962188720703 L 523.8493041992188 84.44043731689453 L 547.772705078125 100.11441802978516" stroke-linejoin="bevel" stroke-miterlimit="10" stroke-width="0.5" clip-path="url(#IZMorbnRaCbd)"/><path fill="none" stroke="grey" paint-order="fill" d="M 308.53826904296875 82.87303924560547 L 332.46173095703125 81.3056411743164 L 356.3851623535156 93.8448257446289 L 380.3086242675781 112.65360260009766 L 404.2320556640625 103.24921417236328 L 428.155517578125 95.41222381591797 L 452.0789489746094 81.3056411743164 L 476.00238037109375 111.0862045288086 L 499.92584228515625 112.65360260009766 L 523.8493041992188 92.27742767333984 L 547.772705078125 89.14263153076172" stroke-linejoin="bevel" stroke-miterlimit="10" stroke-width="0.5" clip-path="url(#ktHsCmLvymAo)"/><path fill="none" stroke="black" paint-order="fill" d="M 70.5 283.5 L 570.5 283.5" stroke-linejoin="bevel" stroke-miterlimit="10"/><path fill="none" stroke="black" paint-order="fill" d="M 93.5 289.5 L 93.5 281.5 M 212.5 289.5 L 212.5 281.5 M 332.5 289.5 L 332.5 281.5 M 452.5 289.5 L 452.5 281.5" stroke-linejoin="bevel" stroke-miterlimit="10"/><path fill="none" stroke="black" paint-order="fill" d="M 93.5 287.5 L 93.5 283.5 M 117.5 287.5 L 117.5 283.5 M 141.5 287.5 L 141.5 283.5 M 164.5 287.5 L 164.5 283.5 M 188.5 287.5 L 188.5 283.5 M 212.5 287.5 L 212.5 283.5 M 236.5 287.5 L 236.5 283.5 M 260.5 287.5 L 260.5 283.5 M 284.5 287.5 L 284.5 283.5 M 308.5 287.5 L 308.5 283.5 M 332.5 287.5 L 332.5 283.5 M 356.5 287.5 L 356.5 283.5 M 380.5 287.5 L 380.5 283.5 M 404.5 287.5 L 404.5 283.5 M 428.5 287.5 L 428.5 283.5 M 452.5 287.5 L 452.5 283.5 M 476.5 287.5 L 476.5 283.5 M 499.5 287.5 L 499.5 283.5 M 523.5 287.5 L 523.5 283.5 M 547.5 287.5 L 547.5 283.5" stroke-linejoin="bevel" stroke-miterlimit="10"/><text fill="#444444" stroke="none" font-family="helvetica" font-size="10pt" font-style="normal" font-weight="normal" text-decoration="normal" x="79.36060523986816" y="304" text-anchor="start" dominant-baseline="alphabetic" transform="matrix(1, 0, 0, 1, 0.5, 0.5)">2025</text><text fill="none" stroke="rgb(0,0,0)" font-family="helvetica" font-size="10pt" font-style="normal" font-weight="normal" text-decoration="normal" x="79.36060523986816" y="304" text-anchor="start" dominant-baseline="alphabetic" transform="matrix(1, 0, 0, 1, 0.5, 0.5)" stroke-opacity="0" stroke-linejoin="bevel" stroke-miterlimit="10">2025</text><text fill="#444444" stroke="none" font-family="helvetica" font-size="10pt" font-style="normal" font-weight="normal" text-decoration="normal" x="198.97783088684082" y="304" text-anchor="start" dominant-baseline="alphabetic" transform="matrix(1, 0, 0, 1, 0.5, 0.5)">2030</text><text fill="none" stroke="rgb(0,0,0)" font-family="helvetica" font-size="10pt" font-style="normal" font-weight="normal" text-decoration="normal" x="198.97783088684082" y="304" text-anchor="start" dominant-baseline="alphabetic" transform="matrix(1, 0, 0, 1, 0.5, 0.5)" stroke-opacity="0" stroke-linejoin="bevel" stroke-miterlimit="10">2030</text><text fill="#444444" stroke="none" font-family="helvetica" font-size="10pt" font-style="normal" font-weight="normal" text-decoration="normal" x="318.595064163208" y="304" text-anchor="start" dominant-baseline="alphabetic" transform="matrix(1, 0, 0, 1, 0.5, 0.5)">2035</text><text fill="none" stroke="rgb(0,0,0)" font-family="helvetica" font-size="10pt" font-style="normal" font-weight="normal" text-decoration="normal" x="318.595064163208" y="304" text-anchor="start" dominant-baseline="alphabetic" transform="matrix(1, 0, 0, 1, 0.5, 0.5)" stroke-opacity="0" stroke-linejoin="bevel" stroke-miterlimit="10">2035</text><text fill="#444444" stroke="none" font-family="helvetica" font-size="10pt" font-style="normal" font-weight="normal" text-decoration="normal" x="438.21228218078613" y="304" text-anchor="start" dominant-baseline="alphabetic" transform="matrix(1, 0, 0, 1, 0.5, 0.5)">2040</text><text fill="none" stroke="rgb(0,0,0)" font-family="helvetica" font-size="10pt" font-style="normal" font-weight="normal" text-decoration="normal" x="438.21228218078613" y="304" text-anchor="start" dominant-baseline="alphabetic" transform="matrix(1, 0, 0, 1, 0.5, 0.5)" stroke-opacity="0" stroke-linejoin="bevel" stroke-miterlimit="10">2040</text><text fill="#444444" stroke="none" font-family="helvetica" font-size="12pt" font-style="normal" font-weight="normal" text-decoration="normal" x="305.3166666030884" y="327" text-anchor="start" dominant-baseline="alphabetic" transform="matrix(1, 0, 0, 1, 0.5, 0.5)">Year</text><text fill="none" stroke="rgb(0,0,0)" font-family="helvetica" font-size="12pt" font-style="normal" font-weight="normal" text-decoration="normal" x="305.3166666030884" y="327" text-anchor="start" dominant-baseline="alphabetic" transform="matrix(1, 0, 0, 1, 0.5, 0.5)" stroke-opacity="0" stroke-linejoin="bevel" stroke-miterlimit="10">Year</text><path fill="none" stroke="black" paint-order="fill" d="M 70.5 283.5 L 70.5 33.5" stroke-linejoin="bevel" stroke-miterlimit="10"/><path fill="none" stroke="black" paint-order="fill" d="M 64.5 283.5 L 72.5 283.5 M 64.5 252.5 L 72.5 252.5 M 64.5 220.5 L 72.5 220.5 M 64.5 189.5 L 72.5 189.5 M 64.5 158.5 L 72.5 158.5 M 64.5 126.5 L 72.5 126.5 M 64.5 95.5 L 72.5 95.5 M 64.5 64.5 L 72.5 64.5" stroke-linejoin="bevel" stroke-miterlimit="10"/><path fill="none" stroke="black" paint-order="fill" d="M 66.5 283.5 L 70.5 283.5 M 66.5 277.5 L 70.5 277.5 M 66.5 270.5 L 70.5 270.5 M 66.5 264.5 L 70.5 264.5 M 66.5 258.5 L 70.5 258.5 M 66.5 252.5 L 70.5 252.5 M 66.5 245.5 L 70.5 245.5 M 66.5 239.5 L 70.5 239.5 M 66.5 233.5 L 70.5 233.5 M 66.5 227.5 L 70.5 227.5 M 66.5 220.5 L 70.5 220.5 M 66.5 214.5 L 70.5 214.5 M 66.5 208.5 L 70.5 208.5 M 66.5 201.5 L 70.5 201.5 M 66.5 195.5 L 70.5 195.5 M 66.5 189.5 L 70.5 189.5 M 66.5 183.5 L 70.5 183.5 M 66.5 176.5 L 70.5 176.5 M 66.5 170.5 L 70.5 170.5 M 66.5 164.5 L 70.5 164.5 M 66.5 158.5 L 70.5 158.5 M 66.5 151.5 L 70.5 151.5 M 66.5 145.5 L 70.5 145.5 M 66.5 139.5 L 70.5 139.5 M 66.5 133.5 L 70.5 133.5 M 66.5 126.5 L 70.5 126.5 M 66.5 120.5 L 70.5 120.5 M 66.5 114.5 L 70.5 114.5 M 66.5 107.5 L 70.5 107.5 M 66.5 101.5 L 70.5 101.5 M 66.5 95.5 L 70.5 95.5 M 66.5 89.5 L 70.5 89.5 M 66.5 82.5 L 70.5 82.5 M 66.5 76.5 L 70.5 76.5 M 66.5 70.5 L 70.5 70.5 M 66.5 64.5 L 70.5 64.5 M 66.5 57.5 L 70.5 57.5 M 66.5 51.5 L 70.5 51.5 M 66.5 45.5 L 70.5 45.5 M 66.5 38.5 L 70.5 38.5" stroke-linejoin="bevel" stroke-miterlimit="10"/><text fill="#444444" stroke="none" font-family="helvetica" font-size="10pt" font-style="normal" font-weight="normal" text-decoration="normal" x="52.31666660308838" y="288" text-anchor="start" dominant-baseline="alphabetic" transform="matrix(1, 0, 0, 1, 0.5, 0.5)">0</text><text fill="none" stroke="rgb(0,0,0)" font-family="helvetica" font-size="10pt" font-style="normal" font-weight="normal" text-decoration="normal" x="52.31666660308838" y="288" text-anchor="start" dominant-baseline="alphabetic" transform="matrix(1, 0, 0, 1, 0.5, 0.5)" stroke-opacity="0" stroke-linejoin="bevel" stroke-miterlimit="10">0</text><text fill="#444444" stroke="none" font-family="helvetica" font-size="10pt" font-style="normal" font-weight="normal" text-decoration="normal" x="45.63333320617676" y="256.65203857421875" text-anchor="start" dominant-baseline="alphabetic" transform="matrix(1, 0, 0, 1, 0.5, 0.5)">20</text><text fill="none" stroke="rgb(0,0,0)" font-family="helvetica" font-size="10pt" font-style="normal" font-weight="normal" text-decoration="normal" x="45.63333320617676" y="256.65203857421875" text-anchor="start" dominant-baseline="alphabetic" transform="matrix(1, 0, 0, 1, 0.5, 0.5)" stroke-opacity="0" stroke-linejoin="bevel" stroke-miterlimit="10">20</text><text fill="#444444" stroke="none" font-family="helvetica" font-size="10pt" font-style="normal" font-weight="normal" text-decoration="normal" x="45.63333320617676" y="225.3040771484375" text-anchor="start" dominant-baseline="alphabetic" transform="matrix(1, 0, 0, 1, 0.5, 0.5)">40</text><text fill="none" stroke="rgb(0,0,0)" font-family="helvetica" font-size="10pt" font-style="normal" font-weight="normal" text-decoration="normal" x="45.63333320617676" y="225.3040771484375" text-anchor="start" dominant-baseline="alphabetic" transform="matrix(1, 0, 0, 1, 0.5, 0.5)" stroke-opacity="0" stroke-linejoin="bevel" stroke-miterlimit="10">40</text><text fill="#444444" stroke="none" font-family="helvetica" font-size="10pt" font-style="normal" font-weight="normal" text-decoration="normal" x="45.63333320617676" y="193.95611572265625" text-anchor="start" dominant-baseline="alphabetic" transform="matrix(1, 0, 0, 1, 0.5, 0.5)">60</text><text fill="none" stroke="rgb(0,0,0)" font-family="helvetica" font-size="10pt" font-style="normal" font-weight="normal" text-decoration="normal" x="45.63333320617676" y="193.95611572265625" text-anchor="start" dominant-baseline="alphabetic" transform="matrix(1, 0, 0, 1, 0.5, 0.5)" stroke-opacity="0" stroke-linejoin="bevel" stroke-miterlimit="10">60</text><text fill="#444444" stroke="none" font-family="helvetica" font-size="10pt" font-style="normal" font-weight="normal" text-decoration="normal" x="45.63333320617676" y="162.608154296875" text-anchor="start" dominant-baseline="alphabetic" transform="matrix(1, 0, 0, 1, 0.5, 0.5)">80</text><text fill="none" stroke="rgb(0,0,0)" font-family="helvetica" font-size="10pt" font-style="normal" font-weight="normal" text-decoration="normal" x="45.63333320617676" y="162.608154296875" text-anchor="start" dominant-baseline="alphabetic" transform="matrix(1, 0, 0, 1, 0.5, 0.5)" stroke-opacity="0" stroke-linejoin="bevel" stroke-miterlimit="10">80</text><text fill="#444444" stroke="none" font-family="helvetica" font-size="10pt" font-style="normal" font-weight="normal" text-decoration="normal" x="38.95000076293945" y="131.26018524169922" text-anchor="start" dominant-baseline="alphabetic" transform="matrix(1, 0, 0, 1, 0.5, 0.5)">100</text><text fill="none" stroke="rgb(0,0,0)" font-family="helvetica" font-size="10pt" font-style="normal" font-weight="normal" text-decoration="normal" x="38.95000076293945" y="131.26018524169922" text-anchor="start" dominant-baseline="alphabetic" transform="matrix(1, 0, 0, 1, 0.5, 0.5)" stroke-opacity="0" stroke-linejoin="bevel" stroke-miterlimit="10">100</text><text fill="#444444" stroke="none" font-family="helvetica" font-size="10pt" font-style="normal" font-weight="normal" text-decoration="normal" x="38.95000076293945" y="99.91222381591797" text-anchor="start" dominant-baseline="alphabetic" transform="matrix(1, 0, 0, 1, 0.5, 0.5)">120</text><text fill="none" stroke="rgb(0,0,0)" font-family="helvetica" font-size="10pt" font-style="normal" font-weight="normal" text-decoration="normal" x="38.95000076293945" y="99.91222381591797" text-anchor="start" dominant-baseline="alphabetic" transform="matrix(1, 0, 0, 1, 0.5, 0.5)" stroke-opacity="0" stroke-linejoin="bevel" stroke-miterlimit="10">120</text><text fill="#444444" stroke="none" font-family="helvetica" font-size="10pt" font-style="normal" font-weight="normal" text-decoration="normal" x="38.95000076293945" y="68.56426239013672" text-anchor="start" dominant-baseline="alphabetic" transform="matrix(1, 0, 0, 1, 0.5, 0.5)">140</text><text fill="none" stroke="rgb(0,0,0)" font-family="helvetica" font-size="10pt" font-style="normal" font-weight="normal" text-decoration="normal" x="38.95000076293945" y="68.56426239013672" text-anchor="start" dominant-baseline="alphabetic" transform="matrix(1, 0, 0, 1, 0.5, 0.5)" stroke-opacity="0" stroke-linejoin="bevel" stroke-miterlimit="10">140</text><text fill="#444444" stroke="none" font-family="helvetica" font-size="12pt" font-style="normal" font-weight="normal" text-decoration="normal" x="-65.25833511352539" y="154" text-anchor="start" dominant-baseline="alphabetic" transform="matrix(6.123233995736766e-17, -1, 1, 6.123233995736766e-17, -126.54999923706055, 189.45000076293945)">Days suitable for transmission</text><text fill="none" stroke="rgb(0,0,0)" font-family="helvetica" font-size="12pt" font-style="normal" font-weight="normal" text-decoration="normal" x="-65.25833511352539" y="154" text-anchor="start" dominant-baseline="alphabetic" transform="matrix(6.123233995736766e-17, -1, 1, 6.123233995736766e-17, -126.54999923706055, 189.45000076293945)" stroke-opacity="0" stroke-linejoin="bevel" stroke-miterlimit="10">Days suitable for transmission</text><path fill="rgb(255,255,255)" stroke="rgb(229,229,229)" paint-order="fill" d="M 477.0333251953125 208.5 L 560.4999847412109 208.5 L 560.4999847412109 273.5 L 477.0333251953125 273.5 L 477.0333251953125 208.5 Z" fill-opacity="0.9490196078431372" clip-path="url(#cXlRvvVWCzNL)" stroke-opacity="0.5019607843137255" stroke-linejoin="bevel" stroke-miterlimit="10"/><g clip-path="url(#cXlRvvVWCzNL)"><g transform="matrix(1, 0, 0, 1, 487.5333251953125, 219)"><path fill="none" stroke="#30a2da" paint-order="fill" d="M 0.5 10.5 L 20.5 10.5" stroke-linejoin="bevel" stroke-miterlimit="10" stroke-width="2"/></g></g><g clip-path="url(#cXlRvvVWCzNL)"><text fill="#444444" stroke="none" font-family="helvetica" font-size="13px" font-style="normal" font-weight="normal" text-decoration="normal" x="512.5333251953125" y="233.5" text-anchor="start" dominant-baseline="alphabetic" transform="matrix(1, 0, 0, 1, 0.5, 0.5)">ID 001</text></g><g clip-path="url(#cXlRvvVWCzNL)"><text fill="none" stroke="rgb(0,0,0)" font-family="helvetica" font-size="13px" font-style="normal" font-weight="normal" text-decoration="normal" x="512.5333251953125" y="233.5" text-anchor="start" dominant-baseline="alphabetic" transform="matrix(1, 0, 0, 1, 0.5, 0.5)" stroke-opacity="0" stroke-linejoin="bevel" stroke-miterlimit="10">ID 001</text></g><g clip-path="url(#cXlRvvVWCzNL)"><g transform="matrix(1, 0, 0, 1, 487.5333251953125, 242)"><path fill="none" stroke="#fc4f30" paint-order="fill" d="M 0.5 10.5 L 20.5 10.5" stroke-linejoin="bevel" stroke-miterlimit="10" stroke-width="2"/></g></g><g clip-path="url(#cXlRvvVWCzNL)"><text fill="#444444" stroke="none" font-family="helvetica" font-size="13px" font-style="normal" font-weight="normal" text-decoration="normal" x="512.5333251953125" y="256.5" text-anchor="start" dominant-baseline="alphabetic" transform="matrix(1, 0, 0, 1, 0.5, 0.5)">ID 006</text></g><g clip-path="url(#cXlRvvVWCzNL)"><text fill="none" stroke="rgb(0,0,0)" font-family="helvetica" font-size="13px" font-style="normal" font-weight="normal" text-decoration="normal" x="512.5333251953125" y="256.5" text-anchor="start" dominant-baseline="alphabetic" transform="matrix(1, 0, 0, 1, 0.5, 0.5)" stroke-opacity="0" stroke-linejoin="bevel" stroke-miterlimit="10">ID 006</text></g><text fill="black" stroke="none" font-family="helvetica" font-size="14pt" font-style="normal" font-weight="normal" text-decoration="normal" x="0" y="18" text-anchor="start" dominant-baseline="alphabetic" transform="matrix(1, 0, 0, 1, 5.5, 5.5)">A. London</text><text fill="none" stroke="rgb(0,0,0)" font-family="helvetica" font-size="14pt" font-style="normal" font-weight="normal" text-decoration="normal" x="0" y="18" text-anchor="start" dominant-baseline="alphabetic" transform="matrix(1, 0, 0, 1, 5.5, 5.5)" stroke-opacity="0" stroke-linejoin="bevel" stroke-miterlimit="10">A. London</text></svg>