<svg version="1.1" xmlns="http://www.w3.org/2000/svg" width="600" height="329"><defs><clipPath id="lbOnQsTVpyxy"><path fill="none" stroke="none" d="M 70.5 30.5 L 570.5 30.5 L 570.5 280.5 L 70.5 280.5 L 70.5 30.5 Z"/></clipPath><clipPath id="BqcMeOWcJhgS"><path fill="none" stroke="none" d="M 70.5 30.5 L 570.5 30.5 L 570.5 280.5 L 70.5 280.5 L 70.5 30.5 Z"/></clipPath><clipPath id="HRCuigBmqdgC"><path fill="none" stroke="none" d="M 70.5 30.5 L 570.5 30.5 L 570.5 280.5 L 70.5 280.5 L 70.5 30.5 Z"/></clipPath><clipPath id="ZvkwqhoiQxKl"><path fill="none" stroke="none" d="M 70.5 30.5 L 570.5 30.5 L 570.5 280.5 L 70.5 280.5 L 70.5 30.5 Z"/></clipPath><clipPath id="UdnfSWfhlguA"><path fill="none" stroke="none" d="M 70.5 30.5 L 570.5 30.5 L 570.5 280.5 L 70.5 280.5 L 70.5 30.5 Z"/></clipPath><clipPath id="KJbuwlpiLByl"><path fill="none" stroke="none" d="M 70.5 30.5 L 570.5 30.5 L 570.5 280.5 L 70.5 280.5 L 70.5 30.5 Z"/></clipPath><clipPath id="MCbJomtoBOuN"><path fill="none" stroke="none" d="M 70.5 30.5 L 570.5 30.5 L 570.5 280.5 L 70.5 280.5 L 70.5 30.5 Z"/></clipPath><clipPath id="ZcflKWfxniHd"><path fill="none" stroke="none" d="M 70.5 30.5 L 570.5 30.5 L 570.5 280.5 L 70.5 280.5 L 70.5 30.5 Z"/></clipPath><clipPath id="glZAEslVwZIF"><path fill="none" stroke="none" d="M 70.5 30.5 L 570.5 30.5 L 570.5 280.5 L 70.5 280.5 L 70.5 30.5 Z"/></clipPath><clipPath id="szMTCZJuryIg"><path fill="none" stroke="none" d="M 70.5 30.5 L 570.5 30.5 L 570.5 280.5 L 70.5 280.5 L 70.5 30.5 Z"/></clipPath><clipPath id="lqSeFIRuzGOg"><path fill="none" stroke="none" d="M 70.5 30.5 L 570.5 30.5 L 570.5 280.5 L 70.5 280.5 L 70.5 30.5 Z"/></clipPath><clipPath id="ITbZCTnUkJCg"><path fill="none" stroke="none" d="M 70.5 30.5 L 570.5 30.5 L 570.5 280.5 L 70.5 280.5 L 70.5 30.5 Z"/></clipPath><clipPath id="fVwksmwNWQMU"><path fill="none" stroke="none" d="M 70.5 30.5 L 570.5 30.5 L 570.5 280.5 L 70.5 280.5 L 70.5 30.5 Z"/></clipPath><clipPath id="BhpMlFvRzytB"><path fill="none" stroke="none" d="M 70.5 30.5 L 570.5 30.5 L 570.5 280.5 L 70.5 280.5 L 70.5 30.5 Z"/></clipPath><clipPath id="LimbLhHTKDca"><path fill="none" stroke="none" d="M 70.5 30.5 L 570.5 30.5 L 570.5 280.5 L 70.5 280.5 L 70.5 30.5 Z"/></clipPath><clipPath id="XshaOKOtAfiO"><path fill="none" stroke="none" d="M 70.5 30.5 L 570.5 30.5 L 570.5 280.5 L 70.5 280.5 L 70.5 30.5 Z"/></clipPath><clipPath id="ybvzwzxFvnqx"><path fill="none" stroke="none" d="M 70.5 30.5 L 570.5 30.5 L 570.5 280.5 L 70.5 280.5 L 70.5 30.5 Z"/></clipPath><clipPath id="IzTMNTTPzumZ"><path fill="none" stroke="none" d="M 70.5 30.5 L 570.5 30.5 L 570.5 280.5 L 70.5 280.5 L 70.5 30.5 Z"/></clipPath><clipPath id="JWTywnhAVBaD"><path fill="none" stroke="none" d="M 70.5 30.5 L 570.5 30.5 L 570.5 280.5 L 70.5 280.5 L 70.5 30.5 Z"/></clipPath><clipPath id="AEqtvrDfaHfD"><path fill="none" stroke="none" d="M 70.5 30.5 L 570.5 30.5 L 570.5 280.5 L 70.5 280.5 L 70.5 30.5 Z"/></clipPath><clipPath id="SQKnFyyPsrHr"><path fill="none" stroke="none" d="M 70.5 30.5 L 570.5 30.5 L 570.5 280.5 L 70.5 280.5 L 70.5 30.5 Z"/></clipPath><clipPath id="CHPrsVDMrKmM"><path fill="none" stroke="none" d="M 70.5 30.5 L 570.5 30.5 L 570.5 280.5 L 70.5 280.5 L 70.5 30.5 Z"/></clipPath><clipPath id="omCadaDOvLRw"><path fill="none" stroke="none" d="M 70.5 30.5 L 570.5 30.5 L 570.5 280.5 L 70.5 280.5 L 70.5 30.5 Z"/></clipPath></defs><path fill="none" stroke="#e5e5e5" paint-order="fill" d="M 70.5 30.5 L 570.5 30.5 L 570.5 280.5 L 70.5 280.5 L 70.5 30.5 Z" stroke-linejoin="bevel" stroke-miterlimit="10"/><path fill="none" stroke="black" paint-order="fill" d="M 332.46172248803487 30.5 L 332.46172248803487 280.5" stroke-linejoin="bevel" stroke-miterlimit="10" stroke-width="3" stroke-dasharray="6" clip-path="url(#HRCuigBmqdgC)"/><path fill="none" stroke="#9467bd" paint-order="fill" d="M 93.2272720336914 112.06810760498047 L 117.15071868896484 87.7962646484375 L 141.07415771484375 98.0934066772461 L 164.9976043701172 76.0280990600586 L 188.92105102539062 93.68034362792969 L 212.84449768066406 120.89423370361328 L 236.7679443359375 103.97749328613281 L 260.6913757324219 83.3832015991211 L 284.6148376464844 123.10076141357422 L 308.53826904296875 78.23462677001953" stroke-linejoin="bevel" stroke-miterlimit="10" stroke-width="2" clip-path="url(#ZvkwqhoiQxKl)"/><path fill="none" stroke="#9467bd" paint-order="fill" d="M 93.2272720336914 112.06810760498047 L 117.15071868896484 87.7962646484375 L 141.07415771484375 98.0934066772461 L 164.9976043701172 76.0280990600586 L 188.92105102539062 93.68034362792969 L 212.84449768066406 120.89423370361328 L 236.7679443359375 103.97749328613281 L 260.6913757324219 83.3832015991211 L 284.6148376464844 123.10076141357422 L 308.53826904296875 78.23462677001953" stroke-linejoin="bevel" stroke-miterlimit="10" stroke-width="2" stroke-dasharray="6" clip-path="url(#UdnfSWfhlguA)"/><path fill="none" stroke="#30a2da" paint-order="fill" d="M 308.53826904296875 78.23462677001953 L 332.46173095703125 84.11871337890625 L 356.3851623535156 104.71300506591797 L 380.3086242675781 92.2093276977539 L 404.2320556640625 108.39055633544922 L 428.155517578125 98.0934066772461 L 452.0789489746094 113.53913116455078 L 476.00238037109375 115.74565887451172 L 499.92584228515625 109.12606811523438 L 523.8493041992188 98.0934066772461 L 547.772705078125 96.62239074707031" stroke-linejoin="bevel" stroke-miterlimit="10" stroke-width="2" clip-path="url(#KJbuwlpiLByl)"/><path fill="none" stroke="#30a2da" paint-order="fill" d="M 332.46173095703125 96.92996978759766 L 356.3851623535156 98.07112121582031 L 380.3086242675781 99.2122802734375 L 404.2320556640625 100.35343170166016 L 428.155517578125 101.49459075927734 L 452.0789489746094 102.6357421875 L 476.00238037109375 103.77690124511719 L 499.92584228515625 104.91805267333984 L 523.8493041992188 106.05921173095703 L 547.772705078125 107.20036315917969" stroke-linejoin="bevel" stroke-miterlimit="10" stroke-width="2" stroke-dasharray="6" clip-path="url(#MCbJomtoBOuN)"/><path fill="none" stroke="#fc4f30" paint-order="fill" d="M 308.53826904296875 78.23462677001953 L 332.46173095703125 79.70565032958984 L 356.3851623535156 101.77096557617188 L 380.3086242675781 62.788909912109375 L 404.2320556640625 83.3832015991211 L 428.155517578125 99.5644302368164 L 452.0789489746094 53.227272033691406 L 476.00238037109375 98.0934066772461 L 499.92584228515625 117.21668243408203 L 523.8493041992188 118.68770599365234 L 547.772705078125 67.20197296142578" stroke-linejoin="bevel" stroke-miterlimit="10" stroke-width="2" clip-path="url(#ZcflKWfxniHd)"/><path fill="none" stroke="#fc4f30" paint-order="fill" d="M 332.46173095703125 80.64175415039062 L 356.3851623535156 82.31336975097656 L 380.3086242675781 83.9849853515625 L 404.2320556640625 85.6565933227539 L 428.155517578125 87.32820892333984 L 452.0789489746094 88.99982452392578 L 476.00238037109375 90.67144012451172 L 499.92584228515625 92.34305572509766 L 523.8493041992188 94.0146713256836 L 547.772705078125 95.68628692626953" stroke-linejoin="bevel" stroke-miterlimit="10" stroke-width="2" stroke-dasharray="6" clip-path="url(#glZAEslVwZIF)"/><path fill="none" stroke="rgb(128,128,128)" paint-order="fill" d="M 93.2272720336914 98.0934066772461 L 117.15071868896484 99.5644302368164 L 141.07415771484375 88.53177642822266 L 164.9976043701172 98.0934066772461 L 188.92105102539062 101.77096557617188 L 212.84449768066406 93.68034362792969 L 236.7679443359375 88.53177642822266 L 260.6913757324219 101.77096557617188 L 284.6148376464844 127.51382446289062 L 308.53826904296875 67.20197296142578" stroke-opacity="0.7490196078431373" stroke-linejoin="bevel" stroke-miterlimit="10" clip-path="url(#szMTCZJuryIg)"/><path fill="none" stroke="grey" paint-order="fill" d="M 308.53826904296875 67.20197296142578 L 332.46173095703125 113.53913116455078 L 356.3851623535156 103.97749328613281 L 380.3086242675781 95.1513671875 L 404.2320556640625 103.24198150634766 L 428.155517578125 123.83627319335938 L 452.0789489746094 104.71300506591797 L 476.00238037109375 92.94483947753906 L 499.92584228515625 120.15872192382812 L 523.8493041992188 103.24198150634766 L 547.772705078125 87.7962646484375" stroke-linejoin="bevel" stroke-miterlimit="10" stroke-width="0.5" clip-path="url(#lqSeFIRuzGOg)"/><path fill="none" stroke="grey" paint-order="fill" d="M 308.53826904296875 67.20197296142578 L 332.46173095703125 91.47381591796875 L 356.3851623535156 115.74565887451172 L 380.3086242675781 107.65504455566406 L 404.2320556640625 102.5064697265625 L 428.155517578125 114.27464294433594 L 452.0789489746094 126.04280853271484 L 476.00238037109375 68.67298889160156 L 499.92584228515625 94.41585540771484 L 523.8493041992188 119.42321014404297 L 547.772705078125 122.3652572631836" stroke-linejoin="bevel" stroke-miterlimit="10" stroke-width="0.5" clip-path="url(#ITbZCTnUkJCg)"/><path fill="none" stroke="rgb(128,128,128)" paint-order="fill" d="M 93.2272720336914 103.24198150634766 L 117.15071868896484 118.68770599365234 L 141.07415771484375 94.41585540771484 L 164.9976043701172 90.7383041381836 L 188.92105102539062 103.24198150634766 L 212.84449768066406 109.12606811523438 L 236.7679443359375 90.00279235839844 L 260.6913757324219 92.2093276977539 L 284.6148376464844 117.21668243408203 L 308.53826904296875 99.5644302368164" stroke-opacity="0.7490196078431373" stroke-linejoin="bevel" stroke-miterlimit="10" clip-path="url(#fVwksmwNWQMU)"/><path fill="none" stroke="grey" paint-order="fill" d="M 308.53826904296875 99.5644302368164 L 332.46173095703125 107.65504455566406 L 356.3851623535156 86.32524108886719 L 380.3086242675781 104.71300506591797 L 404.2320556640625 95.1513671875 L 428.155517578125 90.00279235839844 L 452.0789489746094 91.47381591796875 L 476.00238037109375 78.97013854980469 L 499.92584228515625 102.5064697265625 L 523.8493041992188 116.48117065429688 L 547.772705078125 109.12606811523438" stroke-linejoin="bevel" stroke-miterlimit="10" stroke-width="0.5" clip-path="url(#BhpMlFvRzytB)"/><path fill="none" stroke="grey" paint-order="fill" d="M 308.53826904296875 99.5644302368164 L 332.46173095703125 109.86157989501953 L 356.3851623535156 102.5064697265625 L 380.3086242675781 103.97749328613281 L 404.2320556640625 87.7962646484375 L 428.155517578125 90.7383041381836 L 452.0789489746094 105.44851684570312 L 476.00238037109375 97.35790252685547 L 499.92584228515625 80.441162109375 L 523.8493041992188 87.06075286865234 L 547.772705078125 134.1334228515625" stroke-linejoin="bevel" stroke-miterlimit="10" stroke-width="0.5" clip-path="url(#LimbLhHTKDca)"/><path fill="none" stroke="rgb(128,128,128)" paint-order="fill" d="M 93.2272720336914 95.88687896728516 L 117.15071868896484 89.26728820800781 L 141.07415771484375 85.58972930908203 L 164.9976043701172 101.77096557617188 L 188.92105102539062 115.01014709472656 L 212.84449768066406 78.97013854980469 L 236.7679443359375 93.68034362792969 L 260.6913757324219 74.55707550048828 L 284.6148376464844 98.82891845703125 L 308.53826904296875 103.97749328613281" stroke-opacity="0.7490196078431373" stroke-linejoin="bevel" stroke-miterlimit="10" clip-path="url(#XshaOKOtAfiO)"/><path fill="none" stroke="grey" paint-order="fill" d="M 308.53826904296875 103.97749328613281 L 332.46173095703125 103.24198150634766 L 356.3851623535156 101.77096557617188 L 380.3086242675781 120.15872192382812 L 404.2320556640625 114.27464294433594 L 428.155517578125 98.82891845703125 L 452.0789489746094 101.77096557617188 L 476.00238037109375 105.44851684570312 L 499.92584228515625 103.24198150634766 L 523.8493041992188 102.5064697265625 L 547.772705078125 90.7383041381836" stroke-linejoin="bevel" stroke-miterlimit="10" stroke-width="0.5" clip-path="url(#ybvzwzxFvnqx)"/><path fill="none" stroke="grey" paint-order="fill" d="M 308.53826904296875 103.97749328613281 L 332.46173095703125 101.03545379638672 L 356.3851623535156 85.58972930908203 L 380.3086242675781 98.0934066772461 L 404.2320556640625 119.42321014404297 L 428.155517578125 100.29994201660156 L 452.0789489746094 101.77096557617188 L 476.00238037109375 96.62239074707031 L 499.92584228515625 106.18402099609375 L 523.8493041992188 101.03545379638672 L 547.772705078125 108.39055633544922" stroke-linejoin="bevel" stroke-miterlimit="10" stroke-width="0.5" clip-path="url(#IzTMNTTPzumZ)"/><path fill="none" stroke="rgb(128,128,128)" paint-order="fill" d="M 93.2272720336914 95.1513671875 L 117.15071868896484 112.80361938476562 L 141.07415771484375 120.15872192382812 L 164.9976043701172 93.68034362792969 L 188.92105102539062 85.58972930908203 L 212.84449768066406 125.30729675292969 L 236.7679443359375 91.47381591796875 L 260.6913757324219 89.26728820800781 L 284.6148376464844 123.83627319335938 L 308.53826904296875 99.5644302368164" stroke-opacity="0.7490196078431373" stroke-linejoin="bevel" stroke-miterlimit="10" clip-path="url(#JWTywnhAVBaD)"/><path fill="none" stroke="grey" paint-order="fill" d="M 308.53826904296875 99.5644302368164 L 332.46173095703125 67.93748474121094 L 356.3851623535156 95.1513671875 L 380.3086242675781 92.94483947753906 L 404.2320556640625 78.97013854980469 L 428.155517578125 109.12606811523438 L 452.0789489746094 117.95219421386719 L 476.00238037109375 77.49911499023438 L 499.92584228515625 107.65504455566406 L 523.8493041992188 92.94483947753906 L 547.772705078125 82.64768981933594" stroke-linejoin="bevel" stroke-miterlimit="10" stroke-width="0.5" clip-path="url(#AEqtvrDfaHfD)"/><path fill="none" stroke="grey" paint-order="fill" d="M 308.53826904296875 99.5644302368164 L 332.46173095703125 65.73094940185547 L 356.3851623535156 101.77096557617188 L 380.3086242675781 103.97749328613281 L 404.2320556640625 110.59708404541016 L 428.155517578125 87.7962646484375 L 452.0789489746094 106.9195327758789 L 476.00238037109375 119.42321014404297 L 499.92584228515625 95.88687896728516 L 523.8493041992188 84.11871337890625 L 547.772705078125 102.5064697265625" stroke-linejoin="bevel" stroke-miterlimit="10" stroke-width="0.5" clip-path="url(#SQKnFyyPsrHr)"/><path fill="none" stroke="black" paint-order="fill" d="M 70.5 280.5 L 570.5 280.5" stroke-linejoin="bevel" stroke-miterlimit="10"/><path fill="none" stroke="black" paint-order="fill" d="M 93.5 286.5 L 93.5 278.5 M 212.5 286.5 L 212.5 278.5 M 332.5 286.5 L 332.5 278.5 M 452.5 286.5 L 452.5 278.5" stroke-linejoin="bevel" stroke-miterlimit="10"/><path fill="none" stroke="black" paint-order="fill" d="M 93.5 284.5 L 93.5 280.5 M 117.5 284.5 L 117.5 280.5 M 141.5 284.5 L 141.5 280.5 M 164.5 284.5 L 164.5 280.5 M 188.5 284.5 L 188.5 280.5 M 212.5 284.5 L 212.5 280.5 M 236.5 284.5 L 236.5 280.5 M 260.5 284.5 L 260.5 280.5 M 284.5 284.5 L 284.5 280.5 M 308.5 284.5 L 308.5 280.5 M 332.5 284.5 L 332.5 280.5 M 356.5 284.5 L 356.5 280.5 M 380.5 284.5 L 380.5 280.5 M 404.5 284.5 L 404.5 280.5 M 428.5 284.5 L 428.5 280.5 M 452.5 284.5 L 452.5 280.5 M 476.5 284.5 L 476.5 280.5 M 499.5 284.5 L 499.5 280.5 M 523.5 284.5 L 523.5 280.5 M 547.5 284.5 L 547.5 280.5" stroke-linejoin="bevel" stroke-miterlimit="10"/><text fill="#444444" stroke="none" font-family="helvetica" font-size="10pt" font-style="normal" font-weight="normal" text-decoration="normal" x="77.82727241516113" y="300.59368896484375" text-anchor="start" dominant-baseline="alphabetic" transform="matrix(1, 0, 0, 1, 0.5, 0.5)">2025</text><text fill="none" stroke="rgb(0,0,0)" font-family="helvetica" font-size="10pt" font-style="normal" font-weight="normal" text-decoration="normal" x="77.82727241516113" y="300.59368896484375" text-anchor="start" dominant-baseline="alphabetic" transform="matrix(1, 0, 0, 1, 0.5, 0.5)" stroke-opacity="0" stroke-linejoin="bevel" stroke-miterlimit="10">2025</text><text fill="#444444" stroke="none" font-family="helvetica" font-size="10pt" font-style="normal" font-weight="normal" text-decoration="normal" x="197.4444980621338" y="300.59368896484375" text-anchor="start" dominant-baseline="alphabetic" transform="matrix(1, 0, 0, 1, 0.5, 0.5)">2030</text><text fill="none" stroke="rgb(0,0,0)" font-family="helvetica" font-size="10pt" font-style="normal" font-weight="normal" text-decoration="normal" x="197.4444980621338" y="300.59368896484375" text-anchor="start" dominant-baseline="alphabetic" transform="matrix(1, 0, 0, 1, 0.5, 0.5)" stroke-opacity="0" stroke-linejoin="bevel" stroke-miterlimit="10">2030</text><text fill="#444444" stroke="none" font-family="helvetica" font-size="10pt" font-style="normal" font-weight="normal" text-decoration="normal" x="317.061731338501" y="300.59368896484375" text-anchor="start" dominant-baseline="alphabetic" transform="matrix(1, 0, 0, 1, 0.5, 0.5)">2035</text><text fill="none" stroke="rgb(0,0,0)" font-family="helvetica" font-size="10pt" font-style="normal" font-weight="normal" text-decoration="normal" x="317.061731338501" y="300.59368896484375" text-anchor="start" dominant-baseline="alphabetic" transform="matrix(1, 0, 0, 1, 0.5, 0.5)" stroke-opacity="0" stroke-linejoin="bevel" stroke-miterlimit="10">2035</text><text fill="#444444" stroke="none" font-family="helvetica" font-size="10pt" font-style="normal" font-weight="normal" text-decoration="normal" x="436.6789493560791" y="300.59368896484375" text-anchor="start" dominant-baseline="alphabetic" transform="matrix(1, 0, 0, 1, 0.5, 0.5)">2040</text><text fill="none" stroke="rgb(0,0,0)" font-family="helvetica" font-size="10pt" font-style="normal" font-weight="normal" text-decoration="normal" x="436.6789493560791" y="300.59368896484375" text-anchor="start" dominant-baseline="alphabetic" transform="matrix(1, 0, 0, 1, 0.5, 0.5)" stroke-opacity="0" stroke-linejoin="bevel" stroke-miterlimit="10">2040</text><text fill="#444444" stroke="none" font-family="helvetica" font-size="12pt" font-style="normal" font-weight="normal" text-decoration="normal" x="303.8333339691162" y="321.59368896484375" text-anchor="start" dominant-baseline="alphabetic" transform="matrix(1, 0, 0, 1, 0.5, 0.5)">Year</text><text fill="none" stroke="rgb(0,0,0)" font-family="helvetica" font-size="12pt" font-style="normal" font-weight="normal" text-decoration="normal" x="303.8333339691162" y="321.59368896484375" text-anchor="start" dominant-baseline="alphabetic" transform="matrix(1, 0, 0, 1, 0.5, 0.5)" stroke-opacity="0" stroke-linejoin="bevel" stroke-miterlimit="10">Year</text><path fill="none" stroke="black" paint-order="fill" d="M 70.5 280.5 L 70.5 30.5" stroke-linejoin="bevel" stroke-miterlimit="10"/><path fill="none" stroke="black" paint-order="fill" d="M 64.5 280.5 L 72.5 280.5 M 64.5 243.5 L 72.5 243.5 M 64.5 206.5 L 72.5 206.5 M 64.5 170.5 L 72.5 170.5 M 64.5 133.5 L 72.5 133.5 M 64.5 96.5 L 72.5 96.5 M 64.5 59.5 L 72.5 59.5" stroke-linejoin="bevel" stroke-miterlimit="10"/><path fill="none" stroke="black" paint-order="fill" d="M 66.5 280.5 L 70.5 280.5 M 66.5 273.5 L 70.5 273.5 M 66.5 265.5 L 70.5 265.5 M 66.5 258.5 L 70.5 258.5 M 66.5 251.5 L 70.5 251.5 M 66.5 243.5 L 70.5 243.5 M 66.5 236.5 L 70.5 236.5 M 66.5 229.5 L 70.5 229.5 M 66.5 221.5 L 70.5 221.5 M 66.5 214.5 L 70.5 214.5 M 66.5 206.5 L 70.5 206.5 M 66.5 199.5 L 70.5 199.5 M 66.5 192.5 L 70.5 192.5 M 66.5 184.5 L 70.5 184.5 M 66.5 177.5 L 70.5 177.5 M 66.5 170.5 L 70.5 170.5 M 66.5 162.5 L 70.5 162.5 M 66.5 155.5 L 70.5 155.5 M 66.5 148.5 L 70.5 148.5 M 66.5 140.5 L 70.5 140.5 M 66.5 133.5 L 70.5 133.5 M 66.5 126.5 L 70.5 126.5 M 66.5 118.5 L 70.5 118.5 M 66.5 111.5 L 70.5 111.5 M 66.5 103.5 L 70.5 103.5 M 66.5 96.5 L 70.5 96.5 M 66.5 89.5 L 70.5 89.5 M 66.5 81.5 L 70.5 81.5 M 66.5 74.5 L 70.5 74.5 M 66.5 67.5 L 70.5 67.5 M 66.5 59.5 L 70.5 59.5 M 66.5 52.5 L 70.5 52.5 M 66.5 45.5 L 70.5 45.5 M 66.5 37.5 L 70.5 37.5" stroke-linejoin="bevel" stroke-miterlimit="10"/><text fill="#444444" stroke="none" font-family="helvetica" font-size="10pt" font-style="normal" font-weight="normal" text-decoration="normal" x="51.55000019073486" y="284.7968444824219" text-anchor="start" dominant-baseline="alphabetic" transform="matrix(1, 0, 0, 1, 0.5, 0.5)">0</text><text fill="none" stroke="rgb(0,0,0)" font-family="helvetica" font-size="10pt" font-style="normal" font-weight="normal" text-decoration="normal" x="51.55000019073486" y="284.7968444824219" text-anchor="start" dominant-baseline="alphabetic" transform="matrix(1, 0, 0, 1, 0.5, 0.5)" stroke-opacity="0" stroke-linejoin="bevel" stroke-miterlimit="10">0</text><text fill="#444444" stroke="none" font-family="helvetica" font-size="10pt" font-style="normal" font-weight="normal" text-decoration="normal" x="44.10000038146973" y="248.0213165283203" text-anchor="start" dominant-baseline="alphabetic" transform="matrix(1, 0, 0, 1, 0.5, 0.5)">50</text><text fill="none" stroke="rgb(0,0,0)" font-family="helvetica" font-size="10pt" font-style="normal" font-weight="normal" text-decoration="normal" x="44.10000038146973" y="248.0213165283203" text-anchor="start" dominant-baseline="alphabetic" transform="matrix(1, 0, 0, 1, 0.5, 0.5)" stroke-opacity="0" stroke-linejoin="bevel" stroke-miterlimit="10">50</text><text fill="#444444" stroke="none" font-family="helvetica" font-size="10pt" font-style="normal" font-weight="normal" text-decoration="normal" x="36.64999961853027" y="211.2458038330078" text-anchor="start" dominant-baseline="alphabetic" transform="matrix(1, 0, 0, 1, 0.5, 0.5)">100</text><text fill="none" stroke="rgb(0,0,0)" font-family="helvetica" font-size="10pt" font-style="normal" font-weight="normal" text-decoration="normal" x="36.64999961853027" y="211.2458038330078" text-anchor="start" dominant-baseline="alphabetic" transform="matrix(1, 0, 0, 1, 0.5, 0.5)" stroke-opacity="0" stroke-linejoin="bevel" stroke-miterlimit="10">100</text><text fill="#444444" stroke="none" font-family="helvetica" font-size="10pt" font-style="normal" font-weight="normal" text-decoration="normal" x="36.64999961853027" y="174.47027587890625" text-anchor="start" dominant-baseline="alphabetic" transform="matrix(1, 0, 0, 1, 0.5, 0.5)">150</text><text fill="none" stroke="rgb(0,0,0)" font-family="helvetica" font-size="10pt" font-style="normal" font-weight="normal" text-decoration="normal" x="36.64999961853027" y="174.47027587890625" text-anchor="start" dominant-baseline="alphabetic" transform="matrix(1, 0, 0, 1, 0.5, 0.5)" stroke-opacity="0" stroke-linejoin="bevel" stroke-miterlimit="10">150</text><text fill="#444444" stroke="none" font-family="helvetica" font-size="10pt" font-style="normal" font-weight="normal" text-decoration="normal" x="36.64999961853027" y="137.69476318359375" text-anchor="start" dominant-baseline="alphabetic" transform="matrix(1, 0, 0, 1, 0.5, 0.5)">200</text><text fill="none" stroke="rgb(0,0,0)" font-family="helvetica" font-size="10pt" font-style="normal" font-weight="normal" text-decoration="normal" x="36.64999961853027" y="137.69476318359375" text-anchor="start" dominant-baseline="alphabetic" transform="matrix(1, 0, 0, 1, 0.5, 0.5)" stroke-opacity="0" stroke-linejoin="bevel" stroke-miterlimit="10">200</text><text fill="#444444" stroke="none" font-family="helvetica" font-size="10pt" font-style="normal" font-weight="normal" text-decoration="normal" x="36.64999961853027" y="100.91923522949219" text-anchor="start" dominant-baseline="alphabetic" transform="matrix(1, 0, 0, 1, 0.5, 0.5)">250</text><text fill="none" stroke="rgb(0,0,0)" font-family="helvetica" font-size="10pt" font-style="normal" font-weight="normal" text-decoration="normal" x="36.64999961853027" y="100.91923522949219" text-anchor="start" dominant-baseline="alphabetic" transform="matrix(1, 0, 0, 1, 0.5, 0.5)" stroke-opacity="0" stroke-linejoin="bevel" stroke-miterlimit="10">250</text><text fill="#444444" stroke="none" font-family="helvetica" font-size="10pt" font-style="normal" font-weight="normal" text-decoration="normal" x="36.64999961853027" y="64.14371109008789" text-anchor="start" dominant-baseline="alphabetic" transform="matrix(1, 0, 0, 1, 0.5, 0.5)">300</text><text fill="none" stroke="rgb(0,0,0)" font-family="helvetica" font-size="10pt" font-style="normal" font-weight="normal" text-decoration="normal" x="36.64999961853027" y="64.14371109008789" text-anchor="start" dominant-baseline="alphabetic" transform="matrix(1, 0, 0, 1, 0.5, 0.5)" stroke-opacity="0" stroke-linejoin="bevel" stroke-miterlimit="10">300</text><text fill="#444444" stroke="none" font-family="helvetica" font-size="12pt" font-style="normal" font-weight="normal" text-decoration="normal" x="-78.07499885559082" y="151" text-anchor="start" dominant-baseline="alphabetic" transform="matrix(6.123233995736766e-17, -1, 1, 6.123233995736766e-17, -125.85000038146973, 184.14999961853027)">Days suitable for transmission</text><text fill="none" stroke="rgb(0,0,0)" font-family="helvetica" font-size="12pt" font-style="normal" font-weight="normal" text-decoration="normal" x="-78.07499885559082" y="151" text-anchor="start" dominant-baseline="alphabetic" transform="matrix(6.123233995736766e-17, -1, 1, 6.123233995736766e-17, -125.85000038146973, 184.14999961853027)" stroke-opacity="0" stroke-linejoin="bevel" stroke-miterlimit="10">Days suitable for transmission</text><path fill="rgb(255,255,255)" stroke="rgb(229,229,229)" paint-order="fill" d="M 475.183349609375 205.5 L 560.5000152587891 205.5 L 560.5000152587891 270.5 L 475.183349609375 270.5 L 475.183349609375 205.5 Z" fill-opacity="0.9490196078431372" clip-path="url(#CHPrsVDMrKmM)" stroke-opacity="0.5019607843137255" stroke-linejoin="bevel" stroke-miterlimit="10"/><g clip-path="url(#CHPrsVDMrKmM)"><g transform="matrix(1, 0, 0, 1, 485.683349609375, 216)"><path fill="none" stroke="#30a2da" paint-order="fill" d="M 0.5 10.5 L 20.5 10.5" stroke-linejoin="bevel" stroke-miterlimit="10" stroke-width="2"/></g></g><g clip-path="url(#CHPrsVDMrKmM)"><text fill="#444444" stroke="none" font-family="helvetica" font-size="13px" font-style="normal" font-weight="normal" text-decoration="normal" x="510.683349609375" y="230" text-anchor="start" dominant-baseline="alphabetic" transform="matrix(1, 0, 0, 1, 0.5, 0.5)">ID 001</text></g><g clip-path="url(#CHPrsVDMrKmM)"><text fill="none" stroke="rgb(0,0,0)" font-family="helvetica" font-size="13px" font-style="normal" font-weight="normal" text-decoration="normal" x="510.683349609375" y="230" text-anchor="start" dominant-baseline="alphabetic" transform="matrix(1, 0, 0, 1, 0.5, 0.5)" stroke-opacity="0" stroke-linejoin="bevel" stroke-miterlimit="10">ID 001</text></g><g clip-path="url(#CHPrsVDMrKmM)"><g transform="matrix(1, 0, 0, 1, 485.683349609375, 239)"><path fill="none" stroke="#fc4f30" paint-order="fill" d="M 0.5 10.5 L 20.5 10.5" stroke-linejoin="bevel" stroke-miterlimit="10" stroke-width="2"/></g></g><g clip-path="url(#CHPrsVDMrKmM)"><text fill="#444444" stroke="none" font-family="helvetica" font-size="13px" font-style="normal" font-weight="normal" text-decoration="normal" x="510.683349609375" y="253" text-anchor="start" dominant-baseline="alphabetic" transform="matrix(1, 0, 0, 1, 0.5, 0.5)">ID 006</text></g><g clip-path="url(#CHPrsVDMrKmM)"><text fill="none" stroke="rgb(0,0,0)" font-family="helvetica" font-size="13px" font-style="normal" font-weight="normal" text-decoration="normal" x="510.683349609375" y="253" text-anchor="start" dominant-baseline="alphabetic" transform="matrix(1, 0, 0, 1, 0.5, 0.5)" stroke-opacity="0" stroke-linejoin="bevel" stroke-miterlimit="10">ID 006</text></g><text fill="black" stroke="none" font-family="helvetica" font-size="14pt" font-style="normal" font-weight="normal" text-decoration="normal" x="0" y="15" text-anchor="start" dominant-baseline="alphabetic" transform="matrix(1, 0, 0, 1, 5.5, 5.5)">C. Cape Town</text><text fill="none" stroke="rgb(0,0,0)" font-family="helvetica" font-size="14pt" font-style="normal" font-weight="normal" text-decoration="normal" x="0" y="15" text-anchor="start" dominant-baseline="alphabetic" transform="matrix(1, 0, 0, 1, 5.5, 5.5)" stroke-opacity="0" stroke-linejoin="bevel" stroke-miterlimit="10">C. Cape Town</text></svg>