<svg version="1.1" xmlns="http://www.w3.org/2000/svg" width="600" height="334"><defs><clipPath id="AxgmwPtArQAU"><path fill="none" stroke="none" d="M 70.5 33.5 L 570.5 33.5 L 570.5 283.5 L 70.5 283.5 L 70.5 33.5 Z"/></clipPath><clipPath id="KKgwaUvADqzO"><path fill="none" stroke="none" d="M 70.5 33.5 L 570.5 33.5 L 570.5 283.5 L 70.5 283.5 L 70.5 33.5 Z"/></clipPath><clipPath id="MvFcOeODEQXF"><path fill="none" stroke="none" d="M 70.5 33.5 L 570.5 33.5 L 570.5 283.5 L 70.5 283.5 L 70.5 33.5 Z"/></clipPath><clipPath id="RlqclLIKeDca"><path fill="none" stroke="none" d="M 70.5 33.5 L 570.5 33.5 L 570.5 283.5 L 70.5 283.5 L 70.5 33.5 Z"/></clipPath><clipPath id="wxxFVxFJDzeU"><path fill="none" stroke="none" d="M 70.5 33.5 L 570.5 33.5 L 570.5 283.5 L 70.5 283.5 L 70.5 33.5 Z"/></clipPath><clipPath id="sPEPkzkrGmvz"><path fill="none" stroke="none" d="M 70.5 33.5 L 570.5 33.5 L 570.5 283.5 L 70.5 283.5 L 70.5 33.5 Z"/></clipPath><clipPath id="fQmhRAxEruzO"><path fill="none" stroke="none" d="M 70.5 33.5 L 570.5 33.5 L 570.5 283.5 L 70.5 283.5 L 70.5 33.5 Z"/></clipPath><clipPath id="kuRKAXPbCQqh"><path fill="none" stroke="none" d="M 70.5 33.5 L 570.5 33.5 L 570.5 283.5 L 70.5 283.5 L 70.5 33.5 Z"/></clipPath><clipPath id="ystGwFgGmIox"><path fill="none" stroke="none" d="M 70.5 33.5 L 570.5 33.5 L 570.5 283.5 L 70.5 283.5 L 70.5 33.5 Z"/></clipPath><clipPath id="eWpQCgkPwQBe"><path fill="none" stroke="none" d="M 70.5 33.5 L 570.5 33.5 L 570.5 283.5 L 70.5 283.5 L 70.5 33.5 Z"/></clipPath><clipPath id="ilZzimEhARnD"><path fill="none" stroke="none" d="M 70.5 33.5 L 570.5 33.5 L 570.5 283.5 L 70.5 283.5 L 70.5 33.5 Z"/></clipPath><clipPath id="fEayPNQHQMaF"><path fill="none" stroke="none" d="M 70.5 33.5 L 570.5 33.5 L 570.5 283.5 L 70.5 283.5 L 70.5 33.5 Z"/></clipPath><clipPath id="nfbUfMznJfKN"><path fill="none" stroke="none" d="M 70.5 33.5 L 570.5 33.5 L 570.5 283.5 L 70.5 283.5 L 70.5 33.5 Z"/></clipPath><clipPath id="TkdwlvBKtmlI"><path fill="none" stroke="none" d="M 70.5 33.5 L 570.5 33.5 L 570.5 283.5 L 70.5 283.5 L 70.5 33.5 Z"/></clipPath><clipPath id="TdNhqqHTGKJF"><path fill="none" stroke="none" d="M 70.5 33.5 L 570.5 33.5 L 570.5 283.5 L 70.5 283.5 L 70.5 33.5 Z"/></clipPath><clipPath id="EqxHmUIqIysG"><path fill="none" stroke="none" d="M 70.5 33.5 L 570.5 33.5 L 570.5 283.5 L 70.5 283.5 L 70.5 33.5 Z"/></clipPath><clipPath id="QAgUHGfnqHSF"><path fill="none" stroke="none" d="M 70.5 33.5 L 570.5 33.5 L 570.5 283.5 L 70.5 283.5 L 70.5 33.5 Z"/></clipPath><clipPath id="wsTaNfgROFSH"><path fill="none" stroke="none" d="M 70.5 33.5 L 570.5 33.5 L 570.5 283.5 L 70.5 283.5 L 70.5 33.5 Z"/></clipPath><clipPath id="BxUpyirutTVX"><path fill="none" stroke="none" d="M 70.5 33.5 L 570.5 33.5 L 570.5 283.5 L 70.5 283.5 L 70.5 33.5 Z"/></clipPath><clipPath id="eOmfnWIhOQhq"><path fill="none" stroke="none" d="M 70.5 33.5 L 570.5 33.5 L 570.5 283.5 L 70.5 283.5 L 70.5 33.5 Z"/></clipPath><clipPath id="TZHHrnhGpHuD"><path fill="none" stroke="none" d="M 70.5 33.5 L 570.5 33.5 L 570.5 283.5 L 70.5 283.5 L 70.5 33.5 Z"/></clipPath><clipPath id="VQrWnFanmUIi"><path fill="none" stroke="none" d="M 70.5 33.5 L 570.5 33.5 L 570.5 283.5 L 70.5 283.5 L 70.5 33.5 Z"/></clipPath><clipPath id="suPIODttWIQV"><path fill="none" stroke="none" d="M 70.5 33.5 L 570.5 33.5 L 570.5 283.5 L 70.5 283.5 L 70.5 33.5 Z"/></clipPath></defs><path fill="none" stroke="#e5e5e5" paint-order="fill" d="M 70.5 33.5 L 570.5 33.5 L 570.5 283.5 L 70.5 283.5 L 70.5 33.5 Z" stroke-linejoin="bevel" stroke-miterlimit="10"/><path fill="none" stroke="black" paint-order="fill" d="M 332.46172248803487 33.5 L 332.46172248803487 283.5" stroke-linejoin="bevel" stroke-miterlimit="10" stroke-width="3" stroke-dasharray="6" clip-path="url(#MvFcOeODEQXF)"/><path fill="none" stroke="#9467bd" paint-order="fill" d="M 93.2272720336914 108.92819213867188 L 117.15071868896484 79.28392791748047 L 141.07415771484375 90.2632827758789 L 164.9976043701172 96.85089874267578 L 188.92105102539062 92.45915985107422 L 212.84449768066406 81.47979736328125 L 236.7679443359375 88.06741333007812 L 260.6913757324219 103.43851470947266 L 284.6148376464844 77.08805084228516 L 308.53826904296875 102.340576171875" stroke-linejoin="bevel" stroke-miterlimit="10" stroke-width="2" clip-path="url(#RlqclLIKeDca)"/><path fill="none" stroke="#9467bd" paint-order="fill" d="M 93.2272720336914 108.92819213867188 L 117.15071868896484 79.28392791748047 L 141.07415771484375 90.2632827758789 L 164.9976043701172 96.85089874267578 L 188.92105102539062 92.45915985107422 L 212.84449768066406 81.47979736328125 L 236.7679443359375 88.06741333007812 L 260.6913757324219 103.43851470947266 L 284.6148376464844 77.08805084228516 L 308.53826904296875 102.340576171875" stroke-linejoin="bevel" stroke-miterlimit="10" stroke-width="2" stroke-dasharray="6" clip-path="url(#wxxFVxFJDzeU)"/><path fill="none" stroke="#30a2da" paint-order="fill" d="M 308.53826904296875 102.340576171875 L 332.46173095703125 95.75296783447266 L 356.3851623535156 77.08805084228516 L 380.3086242675781 96.85089874267578 L 404.2320556640625 106.7323226928711 L 428.155517578125 100.14470672607422 L 452.0789489746094 67.20663452148438 L 476.00238037109375 108.92819213867188 L 499.92584228515625 77.08805084228516 L 523.8493041992188 84.77360534667969 L 547.772705078125 84.77360534667969" stroke-linejoin="bevel" stroke-miterlimit="10" stroke-width="2" clip-path="url(#sPEPkzkrGmvz)"/><path fill="none" stroke="#30a2da" paint-order="fill" d="M 332.46173095703125 94.57518005371094 L 356.3851623535156 93.54378509521484 L 380.3086242675781 92.51239013671875 L 404.2320556640625 91.48099517822266 L 428.155517578125 90.44960021972656 L 452.0789489746094 89.41820526123047 L 476.00238037109375 88.38681030273438 L 499.92584228515625 87.35541534423828 L 523.8493041992188 86.32402038574219 L 547.772705078125 85.29263305664062" stroke-linejoin="bevel" stroke-miterlimit="10" stroke-width="2" stroke-dasharray="6" clip-path="url(#fQmhRAxEruzO)"/><path fill="none" stroke="#fc4f30" paint-order="fill" d="M 308.53826904296875 102.340576171875 L 332.46173095703125 74.89218139648438 L 356.3851623535156 67.20663452148438 L 380.3086242675781 84.77360534667969 L 404.2320556640625 77.08805084228516 L 428.155517578125 80.3818588256836 L 452.0789489746094 101.24264526367188 L 476.00238037109375 91.36122131347656 L 499.92584228515625 97.94883728027344 L 523.8493041992188 75.99011993408203 L 547.772705078125 117.71168518066406" stroke-linejoin="bevel" stroke-miterlimit="10" stroke-width="2" clip-path="url(#kuRKAXPbCQqh)"/><path fill="none" stroke="#fc4f30" paint-order="fill" d="M 332.46173095703125 71.13923645019531 L 356.3851623535156 74.6326675415039 L 380.3086242675781 78.12610626220703 L 404.2320556640625 81.61953735351562 L 428.155517578125 85.11296844482422 L 452.0789489746094 88.60639953613281 L 476.00238037109375 92.0998306274414 L 499.92584228515625 95.59326171875 L 523.8493041992188 99.08670043945312 L 547.772705078125 102.58013153076172" stroke-linejoin="bevel" stroke-miterlimit="10" stroke-width="2" stroke-dasharray="6" clip-path="url(#ystGwFgGmIox)"/><path fill="none" stroke="rgb(128,128,128)" paint-order="fill" d="M 93.2272720336914 89.16535186767578 L 117.15071868896484 81.47979736328125 L 141.07415771484375 81.47979736328125 L 164.9976043701172 70.50044250488281 L 188.92105102539062 97.94883728027344 L 212.84449768066406 102.340576171875 L 236.7679443359375 65.01075744628906 L 260.6913757324219 88.06741333007812 L 284.6148376464844 77.08805084228516 L 308.53826904296875 77.08805084228516" stroke-opacity="0.7490196078431373" stroke-linejoin="bevel" stroke-miterlimit="10" clip-path="url(#eWpQCgkPwQBe)"/><path fill="none" stroke="grey" paint-order="fill" d="M 308.53826904296875 77.08805084228516 L 332.46173095703125 83.67566680908203 L 356.3851623535156 56.227272033691406 L 380.3086242675781 94.655029296875 L 404.2320556640625 66.10869598388672 L 428.155517578125 65.01075744628906 L 452.0789489746094 115.51580810546875 L 476.00238037109375 90.2632827758789 L 499.92584228515625 84.77360534667969 L 523.8493041992188 90.2632827758789 L 547.772705078125 94.655029296875" stroke-linejoin="bevel" stroke-miterlimit="10" stroke-width="0.5" clip-path="url(#ilZzimEhARnD)"/><path fill="none" stroke="grey" paint-order="fill" d="M 308.53826904296875 77.08805084228516 L 332.46173095703125 72.6963119506836 L 356.3851623535156 84.77360534667969 L 380.3086242675781 69.40250396728516 L 404.2320556640625 74.89218139648438 L 428.155517578125 80.3818588256836 L 452.0789489746094 77.08805084228516 L 476.00238037109375 90.2632827758789 L 499.92584228515625 105.63438415527344 L 523.8493041992188 86.96947479248047 L 547.772705078125 82.5777359008789" stroke-linejoin="bevel" stroke-miterlimit="10" stroke-width="0.5" clip-path="url(#fEayPNQHQMaF)"/><path fill="none" stroke="rgb(128,128,128)" paint-order="fill" d="M 93.2272720336914 88.06741333007812 L 117.15071868896484 83.67566680908203 L 141.07415771484375 94.655029296875 L 164.9976043701172 91.36122131347656 L 188.92105102539062 83.67566680908203 L 212.84449768066406 74.89218139648438 L 236.7679443359375 106.7323226928711 L 260.6913757324219 88.06741333007812 L 284.6148376464844 79.28392791748047 L 308.53826904296875 114.41787719726562" stroke-opacity="0.7490196078431373" stroke-linejoin="bevel" stroke-miterlimit="10" clip-path="url(#nfbUfMznJfKN)"/><path fill="none" stroke="grey" paint-order="fill" d="M 308.53826904296875 114.41787719726562 L 332.46173095703125 82.5777359008789 L 356.3851623535156 75.99011993408203 L 380.3086242675781 68.3045654296875 L 404.2320556640625 86.96947479248047 L 428.155517578125 88.06741333007812 L 452.0789489746094 85.87154388427734 L 476.00238037109375 117.71168518066406 L 499.92584228515625 116.6137466430664 L 523.8493041992188 91.36122131347656 L 547.772705078125 96.85089874267578" stroke-linejoin="bevel" stroke-miterlimit="10" stroke-width="0.5" clip-path="url(#TkdwlvBKtmlI)"/><path fill="none" stroke="grey" paint-order="fill" d="M 308.53826904296875 114.41787719726562 L 332.46173095703125 88.06741333007812 L 356.3851623535156 108.92819213867188 L 380.3086242675781 80.3818588256836 L 404.2320556640625 102.340576171875 L 428.155517578125 88.06741333007812 L 452.0789489746094 72.6963119506836 L 476.00238037109375 106.7323226928711 L 499.92584228515625 99.0467758178711 L 523.8493041992188 91.36122131347656 L 547.772705078125 100.14470672607422" stroke-linejoin="bevel" stroke-miterlimit="10" stroke-width="0.5" clip-path="url(#TdNhqqHTGKJF)"/><path fill="none" stroke="rgb(128,128,128)" paint-order="fill" d="M 93.2272720336914 80.3818588256836 L 117.15071868896484 106.7323226928711 L 141.07415771484375 94.655029296875 L 164.9976043701172 78.18598937988281 L 188.92105102539062 78.18598937988281 L 212.84449768066406 102.340576171875 L 236.7679443359375 71.59837341308594 L 260.6913757324219 78.18598937988281 L 284.6148376464844 101.24264526367188 L 308.53826904296875 84.77360534667969" stroke-opacity="0.7490196078431373" stroke-linejoin="bevel" stroke-miterlimit="10" clip-path="url(#EqxHmUIqIysG)"/><path fill="none" stroke="grey" paint-order="fill" d="M 308.53826904296875 84.77360534667969 L 332.46173095703125 105.63438415527344 L 356.3851623535156 82.5777359008789 L 380.3086242675781 80.3818588256836 L 404.2320556640625 93.55709075927734 L 428.155517578125 105.63438415527344 L 452.0789489746094 80.3818588256836 L 476.00238037109375 80.3818588256836 L 499.92584228515625 94.655029296875 L 523.8493041992188 105.63438415527344 L 547.772705078125 91.36122131347656" stroke-linejoin="bevel" stroke-miterlimit="10" stroke-width="0.5" clip-path="url(#QAgUHGfnqHSF)"/><path fill="none" stroke="grey" paint-order="fill" d="M 308.53826904296875 84.77360534667969 L 332.46173095703125 80.3818588256836 L 356.3851623535156 111.12406921386719 L 380.3086242675781 115.51580810546875 L 404.2320556640625 89.16535186767578 L 428.155517578125 68.3045654296875 L 452.0789489746094 95.75296783447266 L 476.00238037109375 72.6963119506836 L 499.92584228515625 94.655029296875 L 523.8493041992188 73.79425048828125 L 547.772705078125 85.87154388427734" stroke-linejoin="bevel" stroke-miterlimit="10" stroke-width="0.5" clip-path="url(#wsTaNfgROFSH)"/><path fill="none" stroke="rgb(128,128,128)" paint-order="fill" d="M 93.2272720336914 106.7323226928711 L 117.15071868896484 77.08805084228516 L 141.07415771484375 72.6963119506836 L 164.9976043701172 94.655029296875 L 188.92105102539062 97.94883728027344 L 212.84449768066406 90.2632827758789 L 236.7679443359375 67.20663452148438 L 260.6913757324219 85.87154388427734 L 284.6148376464844 78.18598937988281 L 308.53826904296875 72.6963119506836" stroke-opacity="0.7490196078431373" stroke-linejoin="bevel" stroke-miterlimit="10" clip-path="url(#BxUpyirutTVX)"/><path fill="none" stroke="grey" paint-order="fill" d="M 308.53826904296875 72.6963119506836 L 332.46173095703125 103.43851470947266 L 356.3851623535156 108.92819213867188 L 380.3086242675781 89.16535186767578 L 404.2320556640625 88.06741333007812 L 428.155517578125 85.87154388427734 L 452.0789489746094 66.10869598388672 L 476.00238037109375 86.96947479248047 L 499.92584228515625 80.3818588256836 L 523.8493041992188 75.99011993408203 L 547.772705078125 108.92819213867188" stroke-linejoin="bevel" stroke-miterlimit="10" stroke-width="0.5" clip-path="url(#eOmfnWIhOQhq)"/><path fill="none" stroke="grey" paint-order="fill" d="M 308.53826904296875 72.6963119506836 L 332.46173095703125 97.94883728027344 L 356.3851623535156 79.28392791748047 L 380.3086242675781 86.96947479248047 L 404.2320556640625 84.77360534667969 L 428.155517578125 63.91282272338867 L 452.0789489746094 95.75296783447266 L 476.00238037109375 90.2632827758789 L 499.92584228515625 90.2632827758789 L 523.8493041992188 90.2632827758789 L 547.772705078125 102.340576171875" stroke-linejoin="bevel" stroke-miterlimit="10" stroke-width="0.5" clip-path="url(#TZHHrnhGpHuD)"/><path fill="none" stroke="black" paint-order="fill" d="M 70.5 283.5 L 570.5 283.5" stroke-linejoin="bevel" stroke-miterlimit="10"/><path fill="none" stroke="black" paint-order="fill" d="M 93.5 289.5 L 93.5 281.5 M 212.5 289.5 L 212.5 281.5 M 332.5 289.5 L 332.5 281.5 M 452.5 289.5 L 452.5 281.5" stroke-linejoin="bevel" stroke-miterlimit="10"/><path fill="none" stroke="black" paint-order="fill" d="M 93.5 287.5 L 93.5 283.5 M 117.5 287.5 L 117.5 283.5 M 141.5 287.5 L 141.5 283.5 M 164.5 287.5 L 164.5 283.5 M 188.5 287.5 L 188.5 283.5 M 212.5 287.5 L 212.5 283.5 M 236.5 287.5 L 236.5 283.5 M 260.5 287.5 L 260.5 283.5 M 284.5 287.5 L 284.5 283.5 M 308.5 287.5 L 308.5 283.5 M 332.5 287.5 L 332.5 283.5 M 356.5 287.5 L 356.5 283.5 M 380.5 287.5 L 380.5 283.5 M 404.5 287.5 L 404.5 283.5 M 428.5 287.5 L 428.5 283.5 M 452.5 287.5 L 452.5 283.5 M 476.5 287.5 L 476.5 283.5 M 499.5 287.5 L 499.5 283.5 M 523.5 287.5 L 523.5 283.5 M 547.5 287.5 L 547.5 283.5" stroke-linejoin="bevel" stroke-miterlimit="10"/><text fill="#444444" stroke="none" font-family="helvetica" font-size="10pt" font-style="normal" font-weight="normal" text-decoration="normal" x="79.36060523986816" y="304" text-anchor="start" dominant-baseline="alphabetic" transform="matrix(1, 0, 0, 1, 0.5, 0.5)">2025</text><text fill="none" stroke="rgb(0,0,0)" font-family="helvetica" font-size="10pt" font-style="normal" font-weight="normal" text-decoration="normal" x="79.36060523986816" y="304" text-anchor="start" dominant-baseline="alphabetic" transform="matrix(1, 0, 0, 1, 0.5, 0.5)" stroke-opacity="0" stroke-linejoin="bevel" stroke-miterlimit="10">2025</text><text fill="#444444" stroke="none" font-family="helvetica" font-size="10pt" font-style="normal" font-weight="normal" text-decoration="normal" x="198.97783088684082" y="304" text-anchor="start" dominant-baseline="alphabetic" transform="matrix(1, 0, 0, 1, 0.5, 0.5)">2030</text><text fill="none" stroke="rgb(0,0,0)" font-family="helvetica" font-size="10pt" font-style="normal" font-weight="normal" text-decoration="normal" x="198.97783088684082" y="304" text-anchor="start" dominant-baseline="alphabetic" transform="matrix(1, 0, 0, 1, 0.5, 0.5)" stroke-opacity="0" stroke-linejoin="bevel" stroke-miterlimit="10">2030</text><text fill="#444444" stroke="none" font-family="helvetica" font-size="10pt" font-style="normal" font-weight="normal" text-decoration="normal" x="318.595064163208" y="304" text-anchor="start" dominant-baseline="alphabetic" transform="matrix(1, 0, 0, 1, 0.5, 0.5)">2035</text><text fill="none" stroke="rgb(0,0,0)" font-family="helvetica" font-size="10pt" font-style="normal" font-weight="normal" text-decoration="normal" x="318.595064163208" y="304" text-anchor="start" dominant-baseline="alphabetic" transform="matrix(1, 0, 0, 1, 0.5, 0.5)" stroke-opacity="0" stroke-linejoin="bevel" stroke-miterlimit="10">2035</text><text fill="#444444" stroke="none" font-family="helvetica" font-size="10pt" font-style="normal" font-weight="normal" text-decoration="normal" x="438.21228218078613" y="304" text-anchor="start" dominant-baseline="alphabetic" transform="matrix(1, 0, 0, 1, 0.5, 0.5)">2040</text><text fill="none" stroke="rgb(0,0,0)" font-family="helvetica" font-size="10pt" font-style="normal" font-weight="normal" text-decoration="normal" x="438.21228218078613" y="304" text-anchor="start" dominant-baseline="alphabetic" transform="matrix(1, 0, 0, 1, 0.5, 0.5)" stroke-opacity="0" stroke-linejoin="bevel" stroke-miterlimit="10">2040</text><text fill="#444444" stroke="none" font-family="helvetica" font-size="12pt" font-style="normal" font-weight="normal" text-decoration="normal" x="305.3166666030884" y="327" text-anchor="start" dominant-baseline="alphabetic" transform="matrix(1, 0, 0, 1, 0.5, 0.5)">Year</text><text fill="none" stroke="rgb(0,0,0)" font-family="helvetica" font-size="12pt" font-style="normal" font-weight="normal" text-decoration="normal" x="305.3166666030884" y="327" text-anchor="start" dominant-baseline="alphabetic" transform="matrix(1, 0, 0, 1, 0.5, 0.5)" stroke-opacity="0" stroke-linejoin="bevel" stroke-miterlimit="10">Year</text><path fill="none" stroke="black" paint-order="fill" d="M 70.5 283.5 L 70.5 33.5" stroke-linejoin="bevel" stroke-miterlimit="10"/><path fill="none" stroke="black" paint-order="fill" d="M 64.5 283.5 L 72.5 283.5 M 64.5 228.5 L 72.5 228.5 M 64.5 173.5 L 72.5 173.5 M 64.5 118.5 L 72.5 118.5 M 64.5 63.5 L 72.5 63.5" stroke-linejoin="bevel" stroke-miterlimit="10"/><path fill="none" stroke="black" paint-order="fill" d="M 66.5 283.5 L 70.5 283.5 M 66.5 272.5 L 70.5 272.5 M 66.5 261.5 L 70.5 261.5 M 66.5 250.5 L 70.5 250.5 M 66.5 239.5 L 70.5 239.5 M 66.5 228.5 L 70.5 228.5 M 66.5 217.5 L 70.5 217.5 M 66.5 206.5 L 70.5 206.5 M 66.5 195.5 L 70.5 195.5 M 66.5 184.5 L 70.5 184.5 M 66.5 173.5 L 70.5 173.5 M 66.5 162.5 L 70.5 162.5 M 66.5 151.5 L 70.5 151.5 M 66.5 140.5 L 70.5 140.5 M 66.5 129.5 L 70.5 129.5 M 66.5 118.5 L 70.5 118.5 M 66.5 107.5 L 70.5 107.5 M 66.5 96.5 L 70.5 96.5 M 66.5 85.5 L 70.5 85.5 M 66.5 74.5 L 70.5 74.5 M 66.5 63.5 L 70.5 63.5 M 66.5 52.5 L 70.5 52.5 M 66.5 41.5 L 70.5 41.5" stroke-linejoin="bevel" stroke-miterlimit="10"/><text fill="#444444" stroke="none" font-family="helvetica" font-size="10pt" font-style="normal" font-weight="normal" text-decoration="normal" x="52.31666660308838" y="288" text-anchor="start" dominant-baseline="alphabetic" transform="matrix(1, 0, 0, 1, 0.5, 0.5)">0</text><text fill="none" stroke="rgb(0,0,0)" font-family="helvetica" font-size="10pt" font-style="normal" font-weight="normal" text-decoration="normal" x="52.31666660308838" y="288" text-anchor="start" dominant-baseline="alphabetic" transform="matrix(1, 0, 0, 1, 0.5, 0.5)" stroke-opacity="0" stroke-linejoin="bevel" stroke-miterlimit="10">0</text><text fill="#444444" stroke="none" font-family="helvetica" font-size="10pt" font-style="normal" font-weight="normal" text-decoration="normal" x="45.63333320617676" y="233.10321044921875" text-anchor="start" dominant-baseline="alphabetic" transform="matrix(1, 0, 0, 1, 0.5, 0.5)">50</text><text fill="none" stroke="rgb(0,0,0)" font-family="helvetica" font-size="10pt" font-style="normal" font-weight="normal" text-decoration="normal" x="45.63333320617676" y="233.10321044921875" text-anchor="start" dominant-baseline="alphabetic" transform="matrix(1, 0, 0, 1, 0.5, 0.5)" stroke-opacity="0" stroke-linejoin="bevel" stroke-miterlimit="10">50</text><text fill="#444444" stroke="none" font-family="helvetica" font-size="10pt" font-style="normal" font-weight="normal" text-decoration="normal" x="38.95000076293945" y="178.20640563964844" text-anchor="start" dominant-baseline="alphabetic" transform="matrix(1, 0, 0, 1, 0.5, 0.5)">100</text><text fill="none" stroke="rgb(0,0,0)" font-family="helvetica" font-size="10pt" font-style="normal" font-weight="normal" text-decoration="normal" x="38.95000076293945" y="178.20640563964844" text-anchor="start" dominant-baseline="alphabetic" transform="matrix(1, 0, 0, 1, 0.5, 0.5)" stroke-opacity="0" stroke-linejoin="bevel" stroke-miterlimit="10">100</text><text fill="#444444" stroke="none" font-family="helvetica" font-size="10pt" font-style="normal" font-weight="normal" text-decoration="normal" x="38.95000076293945" y="123.30961608886719" text-anchor="start" dominant-baseline="alphabetic" transform="matrix(1, 0, 0, 1, 0.5, 0.5)">150</text><text fill="none" stroke="rgb(0,0,0)" font-family="helvetica" font-size="10pt" font-style="normal" font-weight="normal" text-decoration="normal" x="38.95000076293945" y="123.30961608886719" text-anchor="start" dominant-baseline="alphabetic" transform="matrix(1, 0, 0, 1, 0.5, 0.5)" stroke-opacity="0" stroke-linejoin="bevel" stroke-miterlimit="10">150</text><text fill="#444444" stroke="none" font-family="helvetica" font-size="10pt" font-style="normal" font-weight="normal" text-decoration="normal" x="38.95000076293945" y="68.41282272338867" text-anchor="start" dominant-baseline="alphabetic" transform="matrix(1, 0, 0, 1, 0.5, 0.5)">200</text><text fill="none" stroke="rgb(0,0,0)" font-family="helvetica" font-size="10pt" font-style="normal" font-weight="normal" text-decoration="normal" x="38.95000076293945" y="68.41282272338867" text-anchor="start" dominant-baseline="alphabetic" transform="matrix(1, 0, 0, 1, 0.5, 0.5)" stroke-opacity="0" stroke-linejoin="bevel" stroke-miterlimit="10">200</text><text fill="#444444" stroke="none" font-family="helvetica" font-size="12pt" font-style="normal" font-weight="normal" text-decoration="normal" x="-65.25833511352539" y="154" text-anchor="start" dominant-baseline="alphabetic" transform="matrix(6.123233995736766e-17, -1, 1, 6.123233995736766e-17, -126.54999923706055, 189.45000076293945)">Days suitable for transmission</text><text fill="none" stroke="rgb(0,0,0)" font-family="helvetica" font-size="12pt" font-style="normal" font-weight="normal" text-decoration="normal" x="-65.25833511352539" y="154" text-anchor="start" dominant-baseline="alphabetic" transform="matrix(6.123233995736766e-17, -1, 1, 6.123233995736766e-17, -126.54999923706055, 189.45000076293945)" stroke-opacity="0" stroke-linejoin="bevel" stroke-miterlimit="10">Days suitable for transmission</text><path fill="rgb(255,255,255)" stroke="rgb(229,229,229)" paint-order="fill" d="M 477.0333251953125 208.5 L 560.4999847412109 208.5 L 560.4999847412109 273.5 L 477.0333251953125 273.5 L 477.0333251953125 208.5 Z" fill-opacity="0.9490196078431372" clip-path="url(#VQrWnFanmUIi)" stroke-opacity="0.5019607843137255" stroke-linejoin="bevel" stroke-miterlimit="10"/><g clip-path="url(#VQrWnFanmUIi)"><g transform="matrix(1, 0, 0, 1, 487.5333251953125, 219)"><path fill="none" stroke="#30a2da" paint-order="fill" d="M 0.5 10.5 L 20.5 10.5" stroke-linejoin="bevel" stroke-miterlimit="10" stroke-width="2"/></g></g><g clip-path="url(#VQrWnFanmUIi)"><text fill="#444444" stroke="none" font-family="helvetica" font-size="13px" font-style="normal" font-weight="normal" text-decoration="normal" x="512.5333251953125" y="233.5" text-anchor="start" dominant-baseline="alphabetic" transform="matrix(1, 0, 0, 1, 0.5, 0.5)">ID 001</text></g><g clip-path="url(#VQrWnFanmUIi)"><text fill="none" stroke="rgb(0,0,0)" font-family="helvetica" font-size="13px" font-style="normal" font-weight="normal" text-decoration="normal" x="512.5333251953125" y="233.5" text-anchor="start" dominant-baseline="alphabetic" transform="matrix(1, 0, 0, 1, 0.5, 0.5)" stroke-opacity="0" stroke-linejoin="bevel" stroke-miterlimit="10">ID 001</text></g><g clip-path="url(#VQrWnFanmUIi)"><g transform="matrix(1, 0, 0, 1, 487.5333251953125, 242)"><path fill="none" stroke="#fc4f30" paint-order="fill" d="M 0.5 10.5 L 20.5 10.5" stroke-linejoin="bevel" stroke-miterlimit="10" stroke-width="2"/></g></g><g clip-path="url(#VQrWnFanmUIi)"><text fill="#444444" stroke="none" font-family="helvetica" font-size="13px" font-style="normal" font-weight="normal" text-decoration="normal" x="512.5333251953125" y="256.5" text-anchor="start" dominant-baseline="alphabetic" transform="matrix(1, 0, 0, 1, 0.5, 0.5)">ID 006</text></g><g clip-path="url(#VQrWnFanmUIi)"><text fill="none" stroke="rgb(0,0,0)" font-family="helvetica" font-size="13px" font-style="normal" font-weight="normal" text-decoration="normal" x="512.5333251953125" y="256.5" text-anchor="start" dominant-baseline="alphabetic" transform="matrix(1, 0, 0, 1, 0.5, 0.5)" stroke-opacity="0" stroke-linejoin="bevel" stroke-miterlimit="10">ID 006</text></g><text fill="black" stroke="none" font-family="helvetica" font-size="14pt" font-style="normal" font-weight="normal" text-decoration="normal" x="0" y="18" text-anchor="start" dominant-baseline="alphabetic" transform="matrix(1, 0, 0, 1, 5.5, 5.5)">D. Santiago de Chile</text><text fill="none" stroke="rgb(0,0,0)" font-family="helvetica" font-size="14pt" font-style="normal" font-weight="normal" text-decoration="normal" x="0" y="18" text-anchor="start" dominant-baseline="alphabetic" transform="matrix(1, 0, 0, 1, 5.5, 5.5)" stroke-opacity="0" stroke-linejoin="bevel" stroke-miterlimit="10">D. Santiago de Chile</text></svg>