<svg version="1.1" xmlns="http://www.w3.org/2000/svg" width="600" height="329"><defs><clipPath id="GuOTbKmKWhTT"><path fill="none" stroke="none" d="M 70.5 30.5 L 570.5 30.5 L 570.5 280.5 L 70.5 280.5 L 70.5 30.5 Z"/></clipPath><clipPath id="BKFirdaabiBk"><path fill="none" stroke="none" d="M 70.5 30.5 L 570.5 30.5 L 570.5 280.5 L 70.5 280.5 L 70.5 30.5 Z"/></clipPath><clipPath id="fHWxOCsMJRWa"><path fill="none" stroke="none" d="M 70.5 30.5 L 570.5 30.5 L 570.5 280.5 L 70.5 280.5 L 70.5 30.5 Z"/></clipPath><clipPath id="xBxcVieyBdLk"><path fill="none" stroke="none" d="M 70.5 30.5 L 570.5 30.5 L 570.5 280.5 L 70.5 280.5 L 70.5 30.5 Z"/></clipPath><clipPath id="oSigNRcUpXix"><path fill="none" stroke="none" d="M 70.5 30.5 L 570.5 30.5 L 570.5 280.5 L 70.5 280.5 L 70.5 30.5 Z"/></clipPath><clipPath id="EsfMhQCILsho"><path fill="none" stroke="none" d="M 70.5 30.5 L 570.5 30.5 L 570.5 280.5 L 70.5 280.5 L 70.5 30.5 Z"/></clipPath><clipPath id="HSQZZnoMGGlT"><path fill="none" stroke="none" d="M 70.5 30.5 L 570.5 30.5 L 570.5 280.5 L 70.5 280.5 L 70.5 30.5 Z"/></clipPath><clipPath id="LxRJxkNlGbUu"><path fill="none" stroke="none" d="M 70.5 30.5 L 570.5 30.5 L 570.5 280.5 L 70.5 280.5 L 70.5 30.5 Z"/></clipPath><clipPath id="IqsSxkcIpXxo"><path fill="none" stroke="none" d="M 70.5 30.5 L 570.5 30.5 L 570.5 280.5 L 70.5 280.5 L 70.5 30.5 Z"/></clipPath><clipPath id="RPWXSaAeSFfD"><path fill="none" stroke="none" d="M 70.5 30.5 L 570.5 30.5 L 570.5 280.5 L 70.5 280.5 L 70.5 30.5 Z"/></clipPath><clipPath id="ARGwGtnJzBxg"><path fill="none" stroke="none" d="M 70.5 30.5 L 570.5 30.5 L 570.5 280.5 L 70.5 280.5 L 70.5 30.5 Z"/></clipPath><clipPath id="LJBnZqNkKZDF"><path fill="none" stroke="none" d="M 70.5 30.5 L 570.5 30.5 L 570.5 280.5 L 70.5 280.5 L 70.5 30.5 Z"/></clipPath><clipPath id="SSzEaFszvyAC"><path fill="none" stroke="none" d="M 70.5 30.5 L 570.5 30.5 L 570.5 280.5 L 70.5 280.5 L 70.5 30.5 Z"/></clipPath><clipPath id="MMMWRTImHWCT"><path fill="none" stroke="none" d="M 70.5 30.5 L 570.5 30.5 L 570.5 280.5 L 70.5 280.5 L 70.5 30.5 Z"/></clipPath><clipPath id="FpchBQMrosdU"><path fill="none" stroke="none" d="M 70.5 30.5 L 570.5 30.5 L 570.5 280.5 L 70.5 280.5 L 70.5 30.5 Z"/></clipPath><clipPath id="JAxFwMfSaNcf"><path fill="none" stroke="none" d="M 70.5 30.5 L 570.5 30.5 L 570.5 280.5 L 70.5 280.5 L 70.5 30.5 Z"/></clipPath><clipPath id="NZkzPWShlmgE"><path fill="none" stroke="none" d="M 70.5 30.5 L 570.5 30.5 L 570.5 280.5 L 70.5 280.5 L 70.5 30.5 Z"/></clipPath><clipPath id="OAHomyuqRqQK"><path fill="none" stroke="none" d="M 70.5 30.5 L 570.5 30.5 L 570.5 280.5 L 70.5 280.5 L 70.5 30.5 Z"/></clipPath><clipPath id="ERmKEJdJUKri"><path fill="none" stroke="none" d="M 70.5 30.5 L 570.5 30.5 L 570.5 280.5 L 70.5 280.5 L 70.5 30.5 Z"/></clipPath><clipPath id="gykFanPmDcun"><path fill="none" stroke="none" d="M 70.5 30.5 L 570.5 30.5 L 570.5 280.5 L 70.5 280.5 L 70.5 30.5 Z"/></clipPath><clipPath id="AZKaNMcWFBgW"><path fill="none" stroke="none" d="M 70.5 30.5 L 570.5 30.5 L 570.5 280.5 L 70.5 280.5 L 70.5 30.5 Z"/></clipPath><clipPath id="HMrXHRuPrXBm"><path fill="none" stroke="none" d="M 70.5 30.5 L 570.5 30.5 L 570.5 280.5 L 70.5 280.5 L 70.5 30.5 Z"/></clipPath><clipPath id="JcUPrWoVtvKX"><path fill="none" stroke="none" d="M 70.5 30.5 L 570.5 30.5 L 570.5 280.5 L 70.5 280.5 L 70.5 30.5 Z"/></clipPath></defs><path fill="none" stroke="#e5e5e5" paint-order="fill" d="M 70.5 30.5 L 570.5 30.5 L 570.5 280.5 L 70.5 280.5 L 70.5 30.5 Z" stroke-linejoin="bevel" stroke-miterlimit="10"/><path fill="none" stroke="black" paint-order="fill" d="M 332.46172248803487 30.5 L 332.46172248803487 280.5" stroke-linejoin="bevel" stroke-miterlimit="10" stroke-width="3" stroke-dasharray="6" clip-path="url(#fHWxOCsMJRWa)"/><path fill="none" stroke="#9467bd" paint-order="fill" d="M 93.2272720336914 105.92819213867188 L 117.15071868896484 76.28392791748047 L 141.07415771484375 87.2632827758789 L 164.9976043701172 93.85089874267578 L 188.92105102539062 89.45915985107422 L 212.84449768066406 78.47979736328125 L 236.7679443359375 85.06741333007812 L 260.6913757324219 100.43851470947266 L 284.6148376464844 74.08805084228516 L 308.53826904296875 99.340576171875" stroke-linejoin="bevel" stroke-miterlimit="10" stroke-width="2" clip-path="url(#xBxcVieyBdLk)"/><path fill="none" stroke="#9467bd" paint-order="fill" d="M 93.2272720336914 105.92819213867188 L 117.15071868896484 76.28392791748047 L 141.07415771484375 87.2632827758789 L 164.9976043701172 93.85089874267578 L 188.92105102539062 89.45915985107422 L 212.84449768066406 78.47979736328125 L 236.7679443359375 85.06741333007812 L 260.6913757324219 100.43851470947266 L 284.6148376464844 74.08805084228516 L 308.53826904296875 99.340576171875" stroke-linejoin="bevel" stroke-miterlimit="10" stroke-width="2" stroke-dasharray="6" clip-path="url(#oSigNRcUpXix)"/><path fill="none" stroke="#30a2da" paint-order="fill" d="M 308.53826904296875 99.340576171875 L 332.46173095703125 92.75296783447266 L 356.3851623535156 74.08805084228516 L 380.3086242675781 93.85089874267578 L 404.2320556640625 103.7323226928711 L 428.155517578125 97.14470672607422 L 452.0789489746094 64.20663070678711 L 476.00238037109375 105.92819213867188 L 499.92584228515625 74.08805084228516 L 523.8493041992188 81.77360534667969 L 547.772705078125 81.77360534667969" stroke-linejoin="bevel" stroke-miterlimit="10" stroke-width="2" clip-path="url(#EsfMhQCILsho)"/><path fill="none" stroke="#30a2da" paint-order="fill" d="M 332.46173095703125 91.57518005371094 L 356.3851623535156 90.54378509521484 L 380.3086242675781 89.51239013671875 L 404.2320556640625 88.48099517822266 L 428.155517578125 87.44960021972656 L 452.0789489746094 86.41820526123047 L 476.00238037109375 85.38681030273438 L 499.92584228515625 84.35541534423828 L 523.8493041992188 83.32402038574219 L 547.772705078125 82.29263305664062" stroke-linejoin="bevel" stroke-miterlimit="10" stroke-width="2" stroke-dasharray="6" clip-path="url(#HSQZZnoMGGlT)"/><path fill="none" stroke="#fc4f30" paint-order="fill" d="M 308.53826904296875 99.340576171875 L 332.46173095703125 71.89218139648438 L 356.3851623535156 64.20663070678711 L 380.3086242675781 81.77360534667969 L 404.2320556640625 74.08805084228516 L 428.155517578125 77.3818588256836 L 452.0789489746094 98.24264526367188 L 476.00238037109375 88.36122131347656 L 499.92584228515625 94.94883728027344 L 523.8493041992188 72.99011993408203 L 547.772705078125 114.71168518066406" stroke-linejoin="bevel" stroke-miterlimit="10" stroke-width="2" clip-path="url(#LxRJxkNlGbUu)"/><path fill="none" stroke="#fc4f30" paint-order="fill" d="M 332.46173095703125 68.13923645019531 L 356.3851623535156 71.6326675415039 L 380.3086242675781 75.12610626220703 L 404.2320556640625 78.61953735351562 L 428.155517578125 82.11296844482422 L 452.0789489746094 85.60639953613281 L 476.00238037109375 89.0998306274414 L 499.92584228515625 92.59326171875 L 523.8493041992188 96.08670043945312 L 547.772705078125 99.58013153076172" stroke-linejoin="bevel" stroke-miterlimit="10" stroke-width="2" stroke-dasharray="6" clip-path="url(#IqsSxkcIpXxo)"/><path fill="none" stroke="rgb(128,128,128)" paint-order="fill" d="M 93.2272720336914 86.16535186767578 L 117.15071868896484 78.47979736328125 L 141.07415771484375 78.47979736328125 L 164.9976043701172 67.50044250488281 L 188.92105102539062 94.94883728027344 L 212.84449768066406 99.340576171875 L 236.7679443359375 62.01076126098633 L 260.6913757324219 85.06741333007812 L 284.6148376464844 74.08805084228516 L 308.53826904296875 74.08805084228516" stroke-opacity="0.7490196078431373" stroke-linejoin="bevel" stroke-miterlimit="10" clip-path="url(#RPWXSaAeSFfD)"/><path fill="none" stroke="grey" paint-order="fill" d="M 308.53826904296875 74.08805084228516 L 332.46173095703125 80.67566680908203 L 356.3851623535156 53.227272033691406 L 380.3086242675781 91.655029296875 L 404.2320556640625 63.10869598388672 L 428.155517578125 62.01076126098633 L 452.0789489746094 112.51580810546875 L 476.00238037109375 87.2632827758789 L 499.92584228515625 81.77360534667969 L 523.8493041992188 87.2632827758789 L 547.772705078125 91.655029296875" stroke-linejoin="bevel" stroke-miterlimit="10" stroke-width="0.5" clip-path="url(#ARGwGtnJzBxg)"/><path fill="none" stroke="grey" paint-order="fill" d="M 308.53826904296875 74.08805084228516 L 332.46173095703125 69.6963119506836 L 356.3851623535156 81.77360534667969 L 380.3086242675781 66.40250396728516 L 404.2320556640625 71.89218139648438 L 428.155517578125 77.3818588256836 L 452.0789489746094 74.08805084228516 L 476.00238037109375 87.2632827758789 L 499.92584228515625 102.63438415527344 L 523.8493041992188 83.96947479248047 L 547.772705078125 79.5777359008789" stroke-linejoin="bevel" stroke-miterlimit="10" stroke-width="0.5" clip-path="url(#LJBnZqNkKZDF)"/><path fill="none" stroke="rgb(128,128,128)" paint-order="fill" d="M 93.2272720336914 85.06741333007812 L 117.15071868896484 80.67566680908203 L 141.07415771484375 91.655029296875 L 164.9976043701172 88.36122131347656 L 188.92105102539062 80.67566680908203 L 212.84449768066406 71.89218139648438 L 236.7679443359375 103.7323226928711 L 260.6913757324219 85.06741333007812 L 284.6148376464844 76.28392791748047 L 308.53826904296875 111.41787719726562" stroke-opacity="0.7490196078431373" stroke-linejoin="bevel" stroke-miterlimit="10" clip-path="url(#SSzEaFszvyAC)"/><path fill="none" stroke="grey" paint-order="fill" d="M 308.53826904296875 111.41787719726562 L 332.46173095703125 79.5777359008789 L 356.3851623535156 72.99011993408203 L 380.3086242675781 65.3045654296875 L 404.2320556640625 83.96947479248047 L 428.155517578125 85.06741333007812 L 452.0789489746094 82.87154388427734 L 476.00238037109375 114.71168518066406 L 499.92584228515625 113.6137466430664 L 523.8493041992188 88.36122131347656 L 547.772705078125 93.85089874267578" stroke-linejoin="bevel" stroke-miterlimit="10" stroke-width="0.5" clip-path="url(#MMMWRTImHWCT)"/><path fill="none" stroke="grey" paint-order="fill" d="M 308.53826904296875 111.41787719726562 L 332.46173095703125 85.06741333007812 L 356.3851623535156 105.92819213867188 L 380.3086242675781 77.3818588256836 L 404.2320556640625 99.340576171875 L 428.155517578125 85.06741333007812 L 452.0789489746094 69.6963119506836 L 476.00238037109375 103.7323226928711 L 499.92584228515625 96.0467758178711 L 523.8493041992188 88.36122131347656 L 547.772705078125 97.14470672607422" stroke-linejoin="bevel" stroke-miterlimit="10" stroke-width="0.5" clip-path="url(#FpchBQMrosdU)"/><path fill="none" stroke="rgb(128,128,128)" paint-order="fill" d="M 93.2272720336914 77.3818588256836 L 117.15071868896484 103.7323226928711 L 141.07415771484375 91.655029296875 L 164.9976043701172 75.18598937988281 L 188.92105102539062 75.18598937988281 L 212.84449768066406 99.340576171875 L 236.7679443359375 68.59837341308594 L 260.6913757324219 75.18598937988281 L 284.6148376464844 98.24264526367188 L 308.53826904296875 81.77360534667969" stroke-opacity="0.7490196078431373" stroke-linejoin="bevel" stroke-miterlimit="10" clip-path="url(#JAxFwMfSaNcf)"/><path fill="none" stroke="grey" paint-order="fill" d="M 308.53826904296875 81.77360534667969 L 332.46173095703125 102.63438415527344 L 356.3851623535156 79.5777359008789 L 380.3086242675781 77.3818588256836 L 404.2320556640625 90.55709075927734 L 428.155517578125 102.63438415527344 L 452.0789489746094 77.3818588256836 L 476.00238037109375 77.3818588256836 L 499.92584228515625 91.655029296875 L 523.8493041992188 102.63438415527344 L 547.772705078125 88.36122131347656" stroke-linejoin="bevel" stroke-miterlimit="10" stroke-width="0.5" clip-path="url(#NZkzPWShlmgE)"/><path fill="none" stroke="grey" paint-order="fill" d="M 308.53826904296875 81.77360534667969 L 332.46173095703125 77.3818588256836 L 356.3851623535156 108.12406921386719 L 380.3086242675781 112.51580810546875 L 404.2320556640625 86.16535186767578 L 428.155517578125 65.3045654296875 L 452.0789489746094 92.75296783447266 L 476.00238037109375 69.6963119506836 L 499.92584228515625 91.655029296875 L 523.8493041992188 70.79425048828125 L 547.772705078125 82.87154388427734" stroke-linejoin="bevel" stroke-miterlimit="10" stroke-width="0.5" clip-path="url(#OAHomyuqRqQK)"/><path fill="none" stroke="rgb(128,128,128)" paint-order="fill" d="M 93.2272720336914 103.7323226928711 L 117.15071868896484 74.08805084228516 L 141.07415771484375 69.6963119506836 L 164.9976043701172 91.655029296875 L 188.92105102539062 94.94883728027344 L 212.84449768066406 87.2632827758789 L 236.7679443359375 64.20663070678711 L 260.6913757324219 82.87154388427734 L 284.6148376464844 75.18598937988281 L 308.53826904296875 69.6963119506836" stroke-opacity="0.7490196078431373" stroke-linejoin="bevel" stroke-miterlimit="10" clip-path="url(#ERmKEJdJUKri)"/><path fill="none" stroke="grey" paint-order="fill" d="M 308.53826904296875 69.6963119506836 L 332.46173095703125 100.43851470947266 L 356.3851623535156 105.92819213867188 L 380.3086242675781 86.16535186767578 L 404.2320556640625 85.06741333007812 L 428.155517578125 82.87154388427734 L 452.0789489746094 63.10869598388672 L 476.00238037109375 83.96947479248047 L 499.92584228515625 77.3818588256836 L 523.8493041992188 72.99011993408203 L 547.772705078125 105.92819213867188" stroke-linejoin="bevel" stroke-miterlimit="10" stroke-width="0.5" clip-path="url(#gykFanPmDcun)"/><path fill="none" stroke="grey" paint-order="fill" d="M 308.53826904296875 69.6963119506836 L 332.46173095703125 94.94883728027344 L 356.3851623535156 76.28392791748047 L 380.3086242675781 83.96947479248047 L 404.2320556640625 81.77360534667969 L 428.155517578125 60.91282272338867 L 452.0789489746094 92.75296783447266 L 476.00238037109375 87.2632827758789 L 499.92584228515625 87.2632827758789 L 523.8493041992188 87.2632827758789 L 547.772705078125 99.340576171875" stroke-linejoin="bevel" stroke-miterlimit="10" stroke-width="0.5" clip-path="url(#AZKaNMcWFBgW)"/><path fill="none" stroke="black" paint-order="fill" d="M 70.5 280.5 L 570.5 280.5" stroke-linejoin="bevel" stroke-miterlimit="10"/><path fill="none" stroke="black" paint-order="fill" d="M 93.5 286.5 L 93.5 278.5 M 212.5 286.5 L 212.5 278.5 M 332.5 286.5 L 332.5 278.5 M 452.5 286.5 L 452.5 278.5" stroke-linejoin="bevel" stroke-miterlimit="10"/><path fill="none" stroke="black" paint-order="fill" d="M 93.5 284.5 L 93.5 280.5 M 117.5 284.5 L 117.5 280.5 M 141.5 284.5 L 141.5 280.5 M 164.5 284.5 L 164.5 280.5 M 188.5 284.5 L 188.5 280.5 M 212.5 284.5 L 212.5 280.5 M 236.5 284.5 L 236.5 280.5 M 260.5 284.5 L 260.5 280.5 M 284.5 284.5 L 284.5 280.5 M 308.5 284.5 L 308.5 280.5 M 332.5 284.5 L 332.5 280.5 M 356.5 284.5 L 356.5 280.5 M 380.5 284.5 L 380.5 280.5 M 404.5 284.5 L 404.5 280.5 M 428.5 284.5 L 428.5 280.5 M 452.5 284.5 L 452.5 280.5 M 476.5 284.5 L 476.5 280.5 M 499.5 284.5 L 499.5 280.5 M 523.5 284.5 L 523.5 280.5 M 547.5 284.5 L 547.5 280.5" stroke-linejoin="bevel" stroke-miterlimit="10"/><text fill="#444444" stroke="none" font-family="helvetica" font-size="10pt" font-style="normal" font-weight="normal" text-decoration="normal" x="77.82727241516113" y="300.59368896484375" text-anchor="start" dominant-baseline="alphabetic" transform="matrix(1, 0, 0, 1, 0.5, 0.5)">2025</text><text fill="none" stroke="rgb(0,0,0)" font-family="helvetica" font-size="10pt" font-style="normal" font-weight="normal" text-decoration="normal" x="77.82727241516113" y="300.59368896484375" text-anchor="start" dominant-baseline="alphabetic" transform="matrix(1, 0, 0, 1, 0.5, 0.5)" stroke-opacity="0" stroke-linejoin="bevel" stroke-miterlimit="10">2025</text><text fill="#444444" stroke="none" font-family="helvetica" font-size="10pt" font-style="normal" font-weight="normal" text-decoration="normal" x="197.4444980621338" y="300.59368896484375" text-anchor="start" dominant-baseline="alphabetic" transform="matrix(1, 0, 0, 1, 0.5, 0.5)">2030</text><text fill="none" stroke="rgb(0,0,0)" font-family="helvetica" font-size="10pt" font-style="normal" font-weight="normal" text-decoration="normal" x="197.4444980621338" y="300.59368896484375" text-anchor="start" dominant-baseline="alphabetic" transform="matrix(1, 0, 0, 1, 0.5, 0.5)" stroke-opacity="0" stroke-linejoin="bevel" stroke-miterlimit="10">2030</text><text fill="#444444" stroke="none" font-family="helvetica" font-size="10pt" font-style="normal" font-weight="normal" text-decoration="normal" x="317.061731338501" y="300.59368896484375" text-anchor="start" dominant-baseline="alphabetic" transform="matrix(1, 0, 0, 1, 0.5, 0.5)">2035</text><text fill="none" stroke="rgb(0,0,0)" font-family="helvetica" font-size="10pt" font-style="normal" font-weight="normal" text-decoration="normal" x="317.061731338501" y="300.59368896484375" text-anchor="start" dominant-baseline="alphabetic" transform="matrix(1, 0, 0, 1, 0.5, 0.5)" stroke-opacity="0" stroke-linejoin="bevel" stroke-miterlimit="10">2035</text><text fill="#444444" stroke="none" font-family="helvetica" font-size="10pt" font-style="normal" font-weight="normal" text-decoration="normal" x="436.6789493560791" y="300.59368896484375" text-anchor="start" dominant-baseline="alphabetic" transform="matrix(1, 0, 0, 1, 0.5, 0.5)">2040</text><text fill="none" stroke="rgb(0,0,0)" font-family="helvetica" font-size="10pt" font-style="normal" font-weight="normal" text-decoration="normal" x="436.6789493560791" y="300.59368896484375" text-anchor="start" dominant-baseline="alphabetic" transform="matrix(1, 0, 0, 1, 0.5, 0.5)" stroke-opacity="0" stroke-linejoin="bevel" stroke-miterlimit="10">2040</text><text fill="#444444" stroke="none" font-family="helvetica" font-size="12pt" font-style="normal" font-weight="normal" text-decoration="normal" x="303.8333339691162" y="321.59368896484375" text-anchor="start" dominant-baseline="alphabetic" transform="matrix(1, 0, 0, 1, 0.5, 0.5)">Year</text><text fill="none" stroke="rgb(0,0,0)" font-family="helvetica" font-size="12pt" font-style="normal" font-weight="normal" text-decoration="normal" x="303.8333339691162" y="321.59368896484375" text-anchor="start" dominant-baseline="alphabetic" transform="matrix(1, 0, 0, 1, 0.5, 0.5)" stroke-opacity="0" stroke-linejoin="bevel" stroke-miterlimit="10">Year</text><path fill="none" stroke="black" paint-order="fill" d="M 70.5 280.5 L 70.5 30.5" stroke-linejoin="bevel" stroke-miterlimit="10"/><path fill="none" stroke="black" paint-order="fill" d="M 64.5 280.5 L 72.5 280.5 M 64.5 225.5 L 72.5 225.5 M 64.5 170.5 L 72.5 170.5 M 64.5 115.5 L 72.5 115.5 M 64.5 60.5 L 72.5 60.5" stroke-linejoin="bevel" stroke-miterlimit="10"/><path fill="none" stroke="black" paint-order="fill" d="M 66.5 280.5 L 70.5 280.5 M 66.5 269.5 L 70.5 269.5 M 66.5 258.5 L 70.5 258.5 M 66.5 247.5 L 70.5 247.5 M 66.5 236.5 L 70.5 236.5 M 66.5 225.5 L 70.5 225.5 M 66.5 214.5 L 70.5 214.5 M 66.5 203.5 L 70.5 203.5 M 66.5 192.5 L 70.5 192.5 M 66.5 181.5 L 70.5 181.5 M 66.5 170.5 L 70.5 170.5 M 66.5 159.5 L 70.5 159.5 M 66.5 148.5 L 70.5 148.5 M 66.5 137.5 L 70.5 137.5 M 66.5 126.5 L 70.5 126.5 M 66.5 115.5 L 70.5 115.5 M 66.5 104.5 L 70.5 104.5 M 66.5 93.5 L 70.5 93.5 M 66.5 82.5 L 70.5 82.5 M 66.5 71.5 L 70.5 71.5 M 66.5 60.5 L 70.5 60.5 M 66.5 49.5 L 70.5 49.5 M 66.5 38.5 L 70.5 38.5" stroke-linejoin="bevel" stroke-miterlimit="10"/><text fill="#444444" stroke="none" font-family="helvetica" font-size="10pt" font-style="normal" font-weight="normal" text-decoration="normal" x="51.55000019073486" y="284.7968444824219" text-anchor="start" dominant-baseline="alphabetic" transform="matrix(1, 0, 0, 1, 0.5, 0.5)">0</text><text fill="none" stroke="rgb(0,0,0)" font-family="helvetica" font-size="10pt" font-style="normal" font-weight="normal" text-decoration="normal" x="51.55000019073486" y="284.7968444824219" text-anchor="start" dominant-baseline="alphabetic" transform="matrix(1, 0, 0, 1, 0.5, 0.5)" stroke-opacity="0" stroke-linejoin="bevel" stroke-miterlimit="10">0</text><text fill="#444444" stroke="none" font-family="helvetica" font-size="10pt" font-style="normal" font-weight="normal" text-decoration="normal" x="44.10000038146973" y="229.90005493164062" text-anchor="start" dominant-baseline="alphabetic" transform="matrix(1, 0, 0, 1, 0.5, 0.5)">50</text><text fill="none" stroke="rgb(0,0,0)" font-family="helvetica" font-size="10pt" font-style="normal" font-weight="normal" text-decoration="normal" x="44.10000038146973" y="229.90005493164062" text-anchor="start" dominant-baseline="alphabetic" transform="matrix(1, 0, 0, 1, 0.5, 0.5)" stroke-opacity="0" stroke-linejoin="bevel" stroke-miterlimit="10">50</text><text fill="#444444" stroke="none" font-family="helvetica" font-size="10pt" font-style="normal" font-weight="normal" text-decoration="normal" x="36.64999961853027" y="175.0032501220703" text-anchor="start" dominant-baseline="alphabetic" transform="matrix(1, 0, 0, 1, 0.5, 0.5)">100</text><text fill="none" stroke="rgb(0,0,0)" font-family="helvetica" font-size="10pt" font-style="normal" font-weight="normal" text-decoration="normal" x="36.64999961853027" y="175.0032501220703" text-anchor="start" dominant-baseline="alphabetic" transform="matrix(1, 0, 0, 1, 0.5, 0.5)" stroke-opacity="0" stroke-linejoin="bevel" stroke-miterlimit="10">100</text><text fill="#444444" stroke="none" font-family="helvetica" font-size="10pt" font-style="normal" font-weight="normal" text-decoration="normal" x="36.64999961853027" y="120.10646057128906" text-anchor="start" dominant-baseline="alphabetic" transform="matrix(1, 0, 0, 1, 0.5, 0.5)">150</text><text fill="none" stroke="rgb(0,0,0)" font-family="helvetica" font-size="10pt" font-style="normal" font-weight="normal" text-decoration="normal" x="36.64999961853027" y="120.10646057128906" text-anchor="start" dominant-baseline="alphabetic" transform="matrix(1, 0, 0, 1, 0.5, 0.5)" stroke-opacity="0" stroke-linejoin="bevel" stroke-miterlimit="10">150</text><text fill="#444444" stroke="none" font-family="helvetica" font-size="10pt" font-style="normal" font-weight="normal" text-decoration="normal" x="36.64999961853027" y="65.20966720581055" text-anchor="start" dominant-baseline="alphabetic" transform="matrix(1, 0, 0, 1, 0.5, 0.5)">200</text><text fill="none" stroke="rgb(0,0,0)" font-family="helvetica" font-size="10pt" font-style="normal" font-weight="normal" text-decoration="normal" x="36.64999961853027" y="65.20966720581055" text-anchor="start" dominant-baseline="alphabetic" transform="matrix(1, 0, 0, 1, 0.5, 0.5)" stroke-opacity="0" stroke-linejoin="bevel" stroke-miterlimit="10">200</text><text fill="#444444" stroke="none" font-family="helvetica" font-size="12pt" font-style="normal" font-weight="normal" text-decoration="normal" x="-78.07499885559082" y="151" text-anchor="start" dominant-baseline="alphabetic" transform="matrix(6.123233995736766e-17, -1, 1, 6.123233995736766e-17, -125.85000038146973, 184.14999961853027)">Days suitable for transmission</text><text fill="none" stroke="rgb(0,0,0)" font-family="helvetica" font-size="12pt" font-style="normal" font-weight="normal" text-decoration="normal" x="-78.07499885559082" y="151" text-anchor="start" dominant-baseline="alphabetic" transform="matrix(6.123233995736766e-17, -1, 1, 6.123233995736766e-17, -125.85000038146973, 184.14999961853027)" stroke-opacity="0" stroke-linejoin="bevel" stroke-miterlimit="10">Days suitable for transmission</text><path fill="rgb(255,255,255)" stroke="rgb(229,229,229)" paint-order="fill" d="M 475.183349609375 205.5 L 560.5000152587891 205.5 L 560.5000152587891 270.5 L 475.183349609375 270.5 L 475.183349609375 205.5 Z" fill-opacity="0.9490196078431372" clip-path="url(#HMrXHRuPrXBm)" stroke-opacity="0.5019607843137255" stroke-linejoin="bevel" stroke-miterlimit="10"/><g clip-path="url(#HMrXHRuPrXBm)"><g transform="matrix(1, 0, 0, 1, 485.683349609375, 216)"><path fill="none" stroke="#30a2da" paint-order="fill" d="M 0.5 10.5 L 20.5 10.5" stroke-linejoin="bevel" stroke-miterlimit="10" stroke-width="2"/></g></g><g clip-path="url(#HMrXHRuPrXBm)"><text fill="#444444" stroke="none" font-family="helvetica" font-size="13px" font-style="normal" font-weight="normal" text-decoration="normal" x="510.683349609375" y="230" text-anchor="start" dominant-baseline="alphabetic" transform="matrix(1, 0, 0, 1, 0.5, 0.5)">ID 001</text></g><g clip-path="url(#HMrXHRuPrXBm)"><text fill="none" stroke="rgb(0,0,0)" font-family="helvetica" font-size="13px" font-style="normal" font-weight="normal" text-decoration="normal" x="510.683349609375" y="230" text-anchor="start" dominant-baseline="alphabetic" transform="matrix(1, 0, 0, 1, 0.5, 0.5)" stroke-opacity="0" stroke-linejoin="bevel" stroke-miterlimit="10">ID 001</text></g><g clip-path="url(#HMrXHRuPrXBm)"><g transform="matrix(1, 0, 0, 1, 485.683349609375, 239)"><path fill="none" stroke="#fc4f30" paint-order="fill" d="M 0.5 10.5 L 20.5 10.5" stroke-linejoin="bevel" stroke-miterlimit="10" stroke-width="2"/></g></g><g clip-path="url(#HMrXHRuPrXBm)"><text fill="#444444" stroke="none" font-family="helvetica" font-size="13px" font-style="normal" font-weight="normal" text-decoration="normal" x="510.683349609375" y="253" text-anchor="start" dominant-baseline="alphabetic" transform="matrix(1, 0, 0, 1, 0.5, 0.5)">ID 006</text></g><g clip-path="url(#HMrXHRuPrXBm)"><text fill="none" stroke="rgb(0,0,0)" font-family="helvetica" font-size="13px" font-style="normal" font-weight="normal" text-decoration="normal" x="510.683349609375" y="253" text-anchor="start" dominant-baseline="alphabetic" transform="matrix(1, 0, 0, 1, 0.5, 0.5)" stroke-opacity="0" stroke-linejoin="bevel" stroke-miterlimit="10">ID 006</text></g><text fill="black" stroke="none" font-family="helvetica" font-size="14pt" font-style="normal" font-weight="normal" text-decoration="normal" x="0" y="15" text-anchor="start" dominant-baseline="alphabetic" transform="matrix(1, 0, 0, 1, 5.5, 5.5)">D. Santiago de Chile</text><text fill="none" stroke="rgb(0,0,0)" font-family="helvetica" font-size="14pt" font-style="normal" font-weight="normal" text-decoration="normal" x="0" y="15" text-anchor="start" dominant-baseline="alphabetic" transform="matrix(1, 0, 0, 1, 5.5, 5.5)" stroke-opacity="0" stroke-linejoin="bevel" stroke-miterlimit="10">D. Santiago de Chile</text></svg>