<svg version="1.1" xmlns="http://www.w3.org/2000/svg" width="625" height="329"><defs><clipPath id="yXpIPOKzUWRG"><path fill="none" stroke="none" d="M 95.5 30.5 L 595.5 30.5 L 595.5 280.5 L 95.5 280.5 L 95.5 30.5 Z"/></clipPath><clipPath id="OmORoPwNXDfU"><path fill="none" stroke="none" d="M 95.5 30.5 L 595.5 30.5 L 595.5 280.5 L 95.5 280.5 L 95.5 30.5 Z"/></clipPath><clipPath id="pWtSrQJQQaet"><path fill="none" stroke="none" d="M 95.5 30.5 L 595.5 30.5 L 595.5 280.5 L 95.5 280.5 L 95.5 30.5 Z"/></clipPath><clipPath id="GlRNJUoHOWSH"><path fill="none" stroke="none" d="M 95.5 30.5 L 595.5 30.5 L 595.5 280.5 L 95.5 280.5 L 95.5 30.5 Z"/></clipPath><clipPath id="RVkcSzknoBqt"><path fill="none" stroke="none" d="M 95.5 30.5 L 595.5 30.5 L 595.5 280.5 L 95.5 280.5 L 95.5 30.5 Z"/></clipPath><clipPath id="wbvzXSIFMWmA"><path fill="none" stroke="none" d="M 95.5 30.5 L 595.5 30.5 L 595.5 280.5 L 95.5 280.5 L 95.5 30.5 Z"/></clipPath><clipPath id="awOmTTeowXFr"><path fill="none" stroke="none" d="M 95.5 30.5 L 595.5 30.5 L 595.5 280.5 L 95.5 280.5 L 95.5 30.5 Z"/></clipPath><clipPath id="GIQBpCJABTdR"><path fill="none" stroke="none" d="M 95.5 30.5 L 595.5 30.5 L 595.5 280.5 L 95.5 280.5 L 95.5 30.5 Z"/></clipPath><clipPath id="TWEnETzraXwf"><path fill="none" stroke="none" d="M 95.5 30.5 L 595.5 30.5 L 595.5 280.5 L 95.5 280.5 L 95.5 30.5 Z"/></clipPath><clipPath id="FTiSbWKuAgGi"><path fill="none" stroke="none" d="M 95.5 30.5 L 595.5 30.5 L 595.5 280.5 L 95.5 280.5 L 95.5 30.5 Z"/></clipPath><clipPath id="zloUnskJfSCw"><path fill="none" stroke="none" d="M 95.5 30.5 L 595.5 30.5 L 595.5 280.5 L 95.5 280.5 L 95.5 30.5 Z"/></clipPath><clipPath id="GyOyXJmrknXU"><path fill="none" stroke="none" d="M 95.5 30.5 L 595.5 30.5 L 595.5 280.5 L 95.5 280.5 L 95.5 30.5 Z"/></clipPath><clipPath id="ZyPySGFZyyID"><path fill="none" stroke="none" d="M 95.5 30.5 L 595.5 30.5 L 595.5 280.5 L 95.5 280.5 L 95.5 30.5 Z"/></clipPath><clipPath id="KWulKqMiyLIf"><path fill="none" stroke="none" d="M 95.5 30.5 L 595.5 30.5 L 595.5 280.5 L 95.5 280.5 L 95.5 30.5 Z"/></clipPath><clipPath id="MAXAnUqDJIzc"><path fill="none" stroke="none" d="M 95.5 30.5 L 595.5 30.5 L 595.5 280.5 L 95.5 280.5 L 95.5 30.5 Z"/></clipPath><clipPath id="vWLIbNNvqHkm"><path fill="none" stroke="none" d="M 95.5 30.5 L 595.5 30.5 L 595.5 280.5 L 95.5 280.5 L 95.5 30.5 Z"/></clipPath><clipPath id="ltwUtyIMdkZc"><path fill="none" stroke="none" d="M 95.5 30.5 L 595.5 30.5 L 595.5 280.5 L 95.5 280.5 L 95.5 30.5 Z"/></clipPath><clipPath id="nfQXeFUddqXu"><path fill="none" stroke="none" d="M 95.5 30.5 L 595.5 30.5 L 595.5 280.5 L 95.5 280.5 L 95.5 30.5 Z"/></clipPath><clipPath id="kVhLSSNWPeHx"><path fill="none" stroke="none" d="M 95.5 30.5 L 595.5 30.5 L 595.5 280.5 L 95.5 280.5 L 95.5 30.5 Z"/></clipPath><clipPath id="hchHIGBEQeon"><path fill="none" stroke="none" d="M 95.5 30.5 L 595.5 30.5 L 595.5 280.5 L 95.5 280.5 L 95.5 30.5 Z"/></clipPath><clipPath id="VfQnwkkTuyzA"><path fill="none" stroke="none" d="M 95.5 30.5 L 595.5 30.5 L 595.5 280.5 L 95.5 280.5 L 95.5 30.5 Z"/></clipPath><clipPath id="QdMpDIILwHxk"><path fill="none" stroke="none" d="M 95.5 30.5 L 595.5 30.5 L 595.5 280.5 L 95.5 280.5 L 95.5 30.5 Z"/></clipPath><clipPath id="lZGuBCtabIGz"><path fill="none" stroke="none" d="M 95.5 30.5 L 595.5 30.5 L 595.5 280.5 L 95.5 280.5 L 95.5 30.5 Z"/></clipPath><clipPath id="nFainxUuDRPZ"><path fill="none" stroke="none" d="M 95.5 30.5 L 595.5 30.5 L 595.5 280.5 L 95.5 280.5 L 95.5 30.5 Z"/></clipPath><clipPath id="HLWgyGTztPsO"><path fill="none" stroke="none" d="M 95.5 30.5 L 595.5 30.5 L 595.5 280.5 L 95.5 280.5 L 95.5 30.5 Z"/></clipPath><clipPath id="eDyNllinNkFt"><path fill="none" stroke="none" d="M 95.5 30.5 L 595.5 30.5 L 595.5 280.5 L 95.5 280.5 L 95.5 30.5 Z"/></clipPath><clipPath id="fOmPtwqqQEVD"><path fill="none" stroke="none" d="M 95.5 30.5 L 595.5 30.5 L 595.5 280.5 L 95.5 280.5 L 95.5 30.5 Z"/></clipPath></defs><path fill="none" stroke="#e5e5e5" paint-order="fill" d="M 95.5 30.5 L 595.5 30.5 L 595.5 280.5 L 95.5 280.5 L 95.5 30.5 Z" stroke-linejoin="bevel" stroke-miterlimit="10"/><path fill="none" stroke="#30a2da" paint-order="fill" d="M 95.5 188.51100158691406 L 105.5 182.66339111328125 L 115.5 180.9013671875 L 125.5 176.94189453125 L 135.5 200.94384765625 L 145.5 199.55397033691406 L 155.5 176.4261932373047 L 165.5 175.83900451660156 L 175.5 183.8791046142578 L 185.5 177.0182342529297 L 195.5 163.5337371826172 L 205.5 163.68905639648438 L 215.5 167.7913818359375 L 225.5 150.0916290283203 L 235.5 148.33193969726562 L 245.5 164.5430145263672 L 255.5 158.39060974121094 L 265.5 147.27783203125 L 275.5 151.5382537841797 L 285.5 137.4387969970703 L 295.5 130.01210021972656 L 305.5 146.97711181640625 L 315.5 139.6346893310547 L 325.5 122.54724884033203 L 335.5 136.7412109375 L 345.5 124.5242691040039 L 355.5 145.1774139404297 L 365.5 145.87828063964844 L 375.5 120.26740264892578 L 385.5 109.52220153808594 L 395.5 111.64659881591797 L 405.5 98.83511352539062 L 415.5 93.8271484375 L 425.5 92.74100494384766 L 435.5 93.50505828857422 L 445.5 95.04798126220703 L 455.5 91.54344177246094 L 465.5 95.42793273925781 L 475.5 110.13064575195312 L 485.5 92.86601257324219 L 495.5 75.29735565185547 L 505.5 70.15901184082031 L 515.5 82.24546813964844 L 525.5 78.67202758789062 L 535.5 72.52565002441406 L 545.5 73.50897979736328 L 555.5 69.00428771972656 L 565.5 80.13217163085938 L 575.5 82.09516143798828 L 585.5 79.90999603271484" stroke-linejoin="bevel" stroke-miterlimit="10" stroke-width="0.5" clip-path="url(#pWtSrQJQQaet)"/><path fill="none" stroke="#fc4f30" paint-order="fill" d="M 295.5 127.78656768798828 L 305.5 148.69151306152344 L 315.5 151.49462890625 L 325.5 144.83192443847656 L 335.5 139.18435668945312 L 345.5 146.9214630126953 L 355.5 155.68455505371094 L 365.5 158.78338623046875 L 375.5 153.9341278076172 L 385.5 151.57847595214844 L 395.5 159.7525634765625 L 405.5 151.20742797851562 L 415.5 140.0346221923828 L 425.5 151.9612579345703 L 435.5 148.4070587158203 L 445.5 148.30125427246094 L 455.5 167.8883514404297 L 465.5 161.94692993164062 L 475.5 147.87130737304688 L 485.5 150.39776611328125 L 495.5 141.09832763671875 L 505.5 140.0519561767578 L 515.5 147.01315307617188 L 525.5 148.66586303710938 L 535.5 140.73362731933594 L 545.5 137.6080780029297 L 555.5 136.32334899902344 L 565.5 161.29800415039062 L 575.5 153.3953857421875 L 585.5 151.79043579101562" stroke-linejoin="bevel" stroke-miterlimit="10" stroke-width="0.5" clip-path="url(#GlRNJUoHOWSH)"/><path fill="none" stroke="#30a2da" paint-order="fill" d="M 95.5 190.11557006835938 L 105.5 185.58119201660156 L 115.5 177.80116271972656 L 125.5 177.0121307373047 L 135.5 174.29505920410156 L 145.5 178.89646911621094 L 155.5 177.6460418701172 L 165.5 175.64923095703125 L 175.5 172.11822509765625 L 185.5 184.73916625976562 L 195.5 170.60658264160156 L 205.5 169.2750701904297 L 215.5 163.09194946289062 L 225.5 164.958984375 L 235.5 156.98561096191406 L 245.5 140.35592651367188 L 255.5 137.53480529785156 L 265.5 162.13478088378906 L 275.5 161.65306091308594 L 285.5 151.60040283203125 L 295.5 134.1247100830078 L 305.5 147.84768676757812 L 315.5 143.52622985839844 L 325.5 133.62380981445312 L 335.5 141.83038330078125 L 345.5 139.5966796875 L 355.5 136.43296813964844 L 365.5 126.14190673828125 L 375.5 128.04722595214844 L 385.5 128.48194885253906 L 395.5 120.3692398071289 L 405.5 134.8111114501953 L 415.5 132.02488708496094 L 425.5 117.4875259399414 L 435.5 104.73358154296875 L 445.5 94.75035095214844 L 455.5 91.47085571289062 L 465.5 95.59894561767578 L 475.5 95.06190490722656 L 485.5 90.63156127929688 L 495.5 99.82929229736328 L 505.5 75.42597198486328 L 515.5 83.34098052978516 L 525.5 93.78556060791016 L 535.5 73.6606216430664 L 545.5 74.2617416381836 L 555.5 71.49919891357422 L 565.5 72.19145202636719 L 575.5 84.2065200805664 L 585.5 78.50720977783203" stroke-linejoin="bevel" stroke-miterlimit="10" stroke-width="0.5" clip-path="url(#RVkcSzknoBqt)"/><path fill="none" stroke="#fc4f30" paint-order="fill" d="M 295.5 135.8171844482422 L 305.5 151.5360565185547 L 315.5 143.22308349609375 L 325.5 141.4647674560547 L 335.5 153.69161987304688 L 345.5 145.6997528076172 L 355.5 142.67967224121094 L 365.5 153.5953826904297 L 375.5 156.46083068847656 L 385.5 156.5731201171875 L 395.5 149.31103515625 L 405.5 152.53817749023438 L 415.5 146.13604736328125 L 425.5 152.60447692871094 L 435.5 140.06631469726562 L 445.5 138.6783905029297 L 455.5 150.0584259033203 L 465.5 149.05072021484375 L 475.5 162.6162109375 L 485.5 164.34864807128906 L 495.5 158.2233123779297 L 505.5 176.323486328125 L 515.5 167.2942352294922 L 525.5 146.10194396972656 L 535.5 141.4532928466797 L 545.5 141.14512634277344 L 555.5 158.1080780029297 L 565.5 153.84854125976562 L 575.5 148.40365600585938 L 585.5 168.0590362548828" stroke-linejoin="bevel" stroke-miterlimit="10" stroke-width="0.5" clip-path="url(#wbvzXSIFMWmA)"/><path fill="none" stroke="#30a2da" paint-order="fill" d="M 95.5 184.9288330078125 L 105.5 182.31222534179688 L 115.5 178.7408905029297 L 125.5 176.21835327148438 L 135.5 175.3646697998047 L 145.5 171.68679809570312 L 155.5 178.91180419921875 L 165.5 164.6162872314453 L 175.5 166.09048461914062 L 185.5 169.5714111328125 L 195.5 169.4550018310547 L 205.5 167.59030151367188 L 215.5 155.7863311767578 L 225.5 154.75218200683594 L 235.5 164.03939819335938 L 245.5 164.8265838623047 L 255.5 140.96224975585938 L 265.5 143.2110595703125 L 275.5 154.79629516601562 L 285.5 145.50375366210938 L 295.5 150.17037963867188 L 305.5 138.5238494873047 L 315.5 118.42292022705078 L 325.5 110.51097106933594 L 335.5 108.21037292480469 L 345.5 129.58563232421875 L 355.5 139.4544677734375 L 365.5 116.6789779663086 L 375.5 109.19769287109375 L 385.5 115.68142700195312 L 395.5 105.19485473632812 L 405.5 114.65532684326172 L 415.5 91.55567169189453 L 425.5 88.1579360961914 L 435.5 111.92837524414062 L 445.5 94.40161895751953 L 455.5 79.53032684326172 L 465.5 79.71835327148438 L 475.5 95.17922973632812 L 485.5 84.33394622802734 L 495.5 73.77693939208984 L 505.5 75.15628814697266 L 515.5 71.78214263916016 L 525.5 74.19635009765625 L 535.5 70.02618408203125 L 545.5 66.63165283203125 L 555.5 82.10115051269531 L 565.5 70.86672973632812 L 575.5 59.80181884765625 L 585.5 73.78463745117188" stroke-linejoin="bevel" stroke-miterlimit="10" stroke-width="0.5" clip-path="url(#awOmTTeowXFr)"/><path fill="none" stroke="#fc4f30" paint-order="fill" d="M 295.5 157.29150390625 L 305.5 146.8760986328125 L 315.5 150.99937438964844 L 325.5 154.47621154785156 L 335.5 130.54640197753906 L 345.5 129.16610717773438 L 355.5 134.59837341308594 L 365.5 135.4258270263672 L 375.5 157.55462646484375 L 385.5 149.873291015625 L 395.5 137.18063354492188 L 405.5 149.55557250976562 L 415.5 151.2001953125 L 425.5 160.08932495117188 L 435.5 164.82655334472656 L 445.5 155.864501953125 L 455.5 160.0885009765625 L 465.5 158.4483184814453 L 475.5 150.0577392578125 L 485.5 155.38595581054688 L 495.5 160.30653381347656 L 505.5 150.58067321777344 L 515.5 161.74713134765625 L 525.5 171.7651824951172 L 535.5 174.92877197265625 L 545.5 163.36106872558594 L 555.5 156.9921112060547 L 565.5 172.0921630859375 L 575.5 158.5640869140625 L 585.5 141.1510467529297" stroke-linejoin="bevel" stroke-miterlimit="10" stroke-width="0.5" clip-path="url(#GIQBpCJABTdR)"/><path fill="none" stroke="#30a2da" paint-order="fill" d="M 95.5 188.88119506835938 L 105.5 173.97955322265625 L 115.5 181.93035888671875 L 125.5 202.626953125 L 135.5 188.73358154296875 L 145.5 173.45831298828125 L 155.5 176.84950256347656 L 165.5 181.03414916992188 L 175.5 170.38458251953125 L 185.5 170.69532775878906 L 195.5 174.194091796875 L 205.5 174.36471557617188 L 215.5 158.3893585205078 L 225.5 151.48858642578125 L 235.5 157.0821075439453 L 245.5 142.97109985351562 L 255.5 149.6116943359375 L 265.5 132.336669921875 L 275.5 128.51840209960938 L 285.5 144.1493377685547 L 295.5 136.24305725097656 L 305.5 140.4993438720703 L 315.5 146.01441955566406 L 325.5 147.35670471191406 L 335.5 146.75030517578125 L 345.5 149.1121063232422 L 355.5 127.89662170410156 L 365.5 120.41683197021484 L 375.5 137.12786865234375 L 385.5 131.5358428955078 L 395.5 112.22425842285156 L 405.5 125.88813018798828 L 415.5 120.97957611083984 L 425.5 92.36129760742188 L 435.5 105.24649047851562 L 445.5 107.27650451660156 L 455.5 110.35294342041016 L 465.5 93.611572265625 L 475.5 83.52457427978516 L 485.5 99.03704833984375 L 495.5 86.57957458496094 L 505.5 84.88851928710938 L 515.5 78.68815612792969 L 525.5 86.4100570678711 L 535.5 101.96504974365234 L 545.5 86.47837829589844 L 555.5 80.57795715332031 L 565.5 73.1054916381836 L 575.5 68.55718231201172 L 585.5 60.0034294128418" stroke-linejoin="bevel" stroke-miterlimit="10" stroke-width="0.5" clip-path="url(#TWEnETzraXwf)"/><path fill="none" stroke="#fc4f30" paint-order="fill" d="M 295.5 137.94349670410156 L 305.5 149.0872344970703 L 315.5 159.04925537109375 L 325.5 171.69268798828125 L 335.5 150.2954864501953 L 345.5 151.8152618408203 L 355.5 156.41590881347656 L 365.5 139.0856475830078 L 375.5 141.73944091796875 L 385.5 164.01316833496094 L 395.5 157.79977416992188 L 405.5 147.07713317871094 L 415.5 156.78135681152344 L 425.5 152.11273193359375 L 435.5 147.3234100341797 L 445.5 146.20835876464844 L 455.5 163.99163818359375 L 465.5 156.21942138671875 L 475.5 142.7416534423828 L 485.5 171.96942138671875 L 495.5 189.60682678222656 L 505.5 187.29891967773438 L 515.5 161.15098571777344 L 525.5 135.1859130859375 L 535.5 149.0201873779297 L 545.5 162.09829711914062 L 555.5 147.654052734375 L 565.5 143.89967346191406 L 575.5 142.94122314453125 L 585.5 141.70147705078125" stroke-linejoin="bevel" stroke-miterlimit="10" stroke-width="0.5" clip-path="url(#FTiSbWKuAgGi)"/><path fill="none" stroke="#30a2da" paint-order="fill" d="M 95.5 190.3232879638672 L 105.5 173.1087646484375 L 115.5 172.64292907714844 L 125.5 189.74916076660156 L 135.5 184.33705139160156 L 145.5 193.66928100585938 L 155.5 188.0953826904297 L 165.5 183.55104064941406 L 175.5 178.55740356445312 L 185.5 179.3607635498047 L 195.5 152.6851348876953 L 205.5 161.09420776367188 L 215.5 168.93707275390625 L 225.5 153.15306091308594 L 235.5 149.3023223876953 L 245.5 163.99880981445312 L 255.5 152.4578399658203 L 265.5 138.968017578125 L 275.5 149.14244079589844 L 285.5 143.9303741455078 L 295.5 123.3023910522461 L 305.5 137.70428466796875 L 315.5 160.84559631347656 L 325.5 143.8827362060547 L 335.5 117.9848861694336 L 345.5 112.14559936523438 L 355.5 128.5828857421875 L 365.5 128.09710693359375 L 375.5 105.72074890136719 L 385.5 113.29673767089844 L 395.5 113.3672866821289 L 405.5 128.28507232666016 L 415.5 130.81822204589844 L 425.5 106.31914520263672 L 435.5 93.2224349975586 L 445.5 90.74960327148438 L 455.5 94.24861145019531 L 465.5 94.71289825439453 L 475.5 92.27234649658203 L 485.5 94.8403091430664 L 495.5 88.76539611816406 L 505.5 95.03901672363281 L 515.5 90.06249237060547 L 525.5 80.53331756591797 L 535.5 92.05890655517578 L 545.5 76.89080047607422 L 555.5 71.63520050048828 L 565.5 77.45964813232422 L 575.5 58.0556755065918 L 585.5 60.60667037963867" stroke-linejoin="bevel" stroke-miterlimit="10" stroke-width="0.5" clip-path="url(#zloUnskJfSCw)"/><path fill="none" stroke="#fc4f30" paint-order="fill" d="M 295.5 131.98619079589844 L 305.5 134.7708282470703 L 315.5 144.9114532470703 L 325.5 138.14413452148438 L 335.5 138.36041259765625 L 345.5 159.8314666748047 L 355.5 153.4630889892578 L 365.5 143.645751953125 L 375.5 170.4915008544922 L 385.5 152.26947021484375 L 395.5 141.31674194335938 L 405.5 153.30052185058594 L 415.5 148.95184326171875 L 425.5 162.88897705078125 L 435.5 149.9313507080078 L 445.5 138.97998046875 L 455.5 128.9984130859375 L 465.5 139.0675506591797 L 475.5 171.56126403808594 L 485.5 166.273193359375 L 495.5 158.533203125 L 505.5 157.26260375976562 L 515.5 144.90785217285156 L 525.5 145.4718780517578 L 535.5 149.87582397460938 L 545.5 145.27108764648438 L 555.5 160.02239990234375 L 565.5 152.78152465820312 L 575.5 148.78378295898438 L 585.5 161.82261657714844" stroke-linejoin="bevel" stroke-miterlimit="10" stroke-width="0.5" clip-path="url(#GyOyXJmrknXU)"/><path fill="none" stroke="#30a2da" paint-order="fill" d="M 95.5 184.97451782226562 L 105.5 166.26393127441406 L 115.5 179.75450134277344 L 125.5 186.2451171875 L 135.5 187.65931701660156 L 145.5 187.16348266601562 L 155.5 180.31175231933594 L 165.5 183.2790985107422 L 175.5 167.209228515625 L 185.5 188.02142333984375 L 195.5 179.38877868652344 L 205.5 163.9724578857422 L 215.5 156.48439025878906 L 225.5 175.5496368408203 L 235.5 185.82618713378906 L 245.5 176.91864013671875 L 255.5 166.77438354492188 L 265.5 161.3258819580078 L 275.5 185.1430206298828 L 285.5 171.35543823242188 L 295.5 145.9589080810547 L 305.5 138.44378662109375 L 315.5 135.53927612304688 L 325.5 155.98504638671875 L 335.5 143.9449005126953 L 345.5 135.60047912597656 L 355.5 151.47242736816406 L 365.5 123.09954071044922 L 375.5 114.66692352294922 L 385.5 126.70745849609375 L 395.5 119.53954315185547 L 405.5 108.52864837646484 L 415.5 113.08189392089844 L 425.5 107.93021392822266 L 435.5 108.86509704589844 L 445.5 131.18898010253906 L 455.5 121.63462829589844 L 465.5 114.2072982788086 L 475.5 100.88773345947266 L 485.5 100.19146728515625 L 495.5 89.22344207763672 L 505.5 87.83161163330078 L 515.5 82.82633972167969 L 525.5 82.81400299072266 L 535.5 79.20555114746094 L 545.5 85.82512664794922 L 555.5 85.07859802246094 L 565.5 80.96163177490234 L 575.5 84.5127944946289 L 585.5 86.76202392578125" stroke-linejoin="bevel" stroke-miterlimit="10" stroke-width="0.5" clip-path="url(#ZyPySGFZyyID)"/><path fill="none" stroke="#fc4f30" paint-order="fill" d="M 295.5 117.96160888671875 L 305.5 148.5697021484375 L 315.5 134.9737548828125 L 325.5 138.8585205078125 L 335.5 151.51583862304688 L 345.5 142.88031005859375 L 355.5 164.60464477539062 L 365.5 171.69741821289062 L 375.5 162.25384521484375 L 385.5 152.43814086914062 L 395.5 159.11676025390625 L 405.5 151.39378356933594 L 415.5 133.06533813476562 L 425.5 141.14393615722656 L 435.5 136.1299285888672 L 445.5 138.00469970703125 L 455.5 141.1006317138672 L 465.5 155.28880310058594 L 475.5 144.841552734375 L 485.5 156.76568603515625 L 495.5 175.20382690429688 L 505.5 160.634765625 L 515.5 154.4512481689453 L 525.5 161.94854736328125 L 535.5 164.46046447753906 L 545.5 159.25131225585938 L 555.5 140.2740936279297 L 565.5 153.12962341308594 L 575.5 160.4100799560547 L 585.5 151.00982666015625" stroke-linejoin="bevel" stroke-miterlimit="10" stroke-width="0.5" clip-path="url(#KWulKqMiyLIf)"/><path fill="none" stroke="#30a2da" paint-order="fill" d="M 95.5 187.3074188232422 L 105.5 157.40533447265625 L 115.5 166.60646057128906 L 125.5 185.3265838623047 L 135.5 177.44717407226562 L 145.5 167.5135498046875 L 155.5 181.31736755371094 L 165.5 185.2123260498047 L 175.5 176.68406677246094 L 185.5 168.14466857910156 L 195.5 161.14822387695312 L 205.5 167.88571166992188 L 215.5 158.039306640625 L 225.5 148.35838317871094 L 235.5 148.9548797607422 L 245.5 151.0713653564453 L 255.5 139.6215057373047 L 265.5 147.3110809326172 L 275.5 143.82122802734375 L 285.5 136.3909149169922 L 295.5 150.45396423339844 L 305.5 138.51412963867188 L 315.5 145.3341522216797 L 325.5 135.3079071044922 L 335.5 142.2896728515625 L 345.5 128.00536346435547 L 355.5 118.34137725830078 L 365.5 123.15998840332031 L 375.5 118.63648223876953 L 385.5 103.97160339355469 L 395.5 111.51222229003906 L 405.5 137.57827758789062 L 415.5 119.59806823730469 L 425.5 109.50794982910156 L 435.5 95.0599594116211 L 445.5 96.31814575195312 L 455.5 98.62870788574219 L 465.5 91.2193603515625 L 475.5 107.15345764160156 L 485.5 101.67070770263672 L 495.5 89.35145568847656 L 505.5 88.89872741699219 L 515.5 82.19611358642578 L 525.5 72.6615982055664 L 535.5 70.3201904296875 L 545.5 88.80719757080078 L 555.5 81.98321533203125 L 565.5 82.44281005859375 L 575.5 76.40450286865234 L 585.5 63.064788818359375" stroke-linejoin="bevel" stroke-miterlimit="10" stroke-width="0.5" clip-path="url(#MAXAnUqDJIzc)"/><path fill="none" stroke="#fc4f30" paint-order="fill" d="M 295.5 135.8565216064453 L 305.5 166.14979553222656 L 315.5 163.991943359375 L 325.5 156.7294158935547 L 335.5 152.41360473632812 L 345.5 159.0656280517578 L 355.5 145.6510009765625 L 365.5 145.52682495117188 L 375.5 171.98550415039062 L 385.5 168.4377899169922 L 395.5 153.66062927246094 L 405.5 138.49810791015625 L 415.5 147.44659423828125 L 425.5 148.1739044189453 L 435.5 135.07106018066406 L 445.5 129.08123779296875 L 455.5 138.8672637939453 L 465.5 153.06333923339844 L 475.5 166.16648864746094 L 485.5 164.7245330810547 L 495.5 161.41293334960938 L 505.5 147.3083038330078 L 515.5 147.53628540039062 L 525.5 148.0576629638672 L 535.5 145.71092224121094 L 545.5 142.09732055664062 L 555.5 163.7334747314453 L 565.5 159.40504455566406 L 575.5 146.0960693359375 L 585.5 138.038818359375" stroke-linejoin="bevel" stroke-miterlimit="10" stroke-width="0.5" clip-path="url(#vWLIbNNvqHkm)"/><path fill="none" stroke="#30a2da" paint-order="fill" d="M 95.5 179.99417114257812 L 105.5 176.07080078125 L 115.5 177.70599365234375 L 125.5 180.20108032226562 L 135.5 175.97215270996094 L 145.5 159.8030242919922 L 155.5 174.7430877685547 L 165.5 169.5288848876953 L 175.5 177.3608856201172 L 185.5 181.46240234375 L 195.5 174.31646728515625 L 205.5 174.2214813232422 L 215.5 165.97854614257812 L 225.5 152.97950744628906 L 235.5 151.2421112060547 L 245.5 140.3295135498047 L 255.5 131.8583526611328 L 265.5 146.22593688964844 L 275.5 155.76922607421875 L 285.5 154.65826416015625 L 295.5 145.4248046875 L 305.5 133.9158935546875 L 315.5 142.9376983642578 L 325.5 135.18910217285156 L 335.5 134.2195281982422 L 345.5 138.4633026123047 L 355.5 118.52140045166016 L 365.5 114.17082214355469 L 375.5 110.96228790283203 L 385.5 117.38707733154297 L 395.5 120.80885314941406 L 405.5 102.30435943603516 L 415.5 91.97160339355469 L 425.5 110.86296844482422 L 435.5 105.02049255371094 L 445.5 87.39579010009766 L 455.5 86.4836654663086 L 465.5 87.57540130615234 L 475.5 93.1528549194336 L 485.5 92.65937805175781 L 495.5 90.27920532226562 L 505.5 103.26358795166016 L 515.5 93.13721466064453 L 525.5 89.42649841308594 L 535.5 95.67539978027344 L 545.5 76.939208984375 L 555.5 79.86498260498047 L 565.5 101.68999481201172 L 575.5 100.124755859375 L 585.5 80.51655578613281" stroke-linejoin="bevel" stroke-miterlimit="10" stroke-width="0.5" clip-path="url(#ltwUtyIMdkZc)"/><path fill="none" stroke="#fc4f30" paint-order="fill" d="M 295.5 145.07058715820312 L 305.5 156.04122924804688 L 315.5 141.22080993652344 L 325.5 133.32940673828125 L 335.5 125.79806518554688 L 345.5 142.50164794921875 L 355.5 144.28176879882812 L 365.5 144.8026885986328 L 375.5 142.01522827148438 L 385.5 161.4821319580078 L 395.5 172.89480590820312 L 405.5 158.39483642578125 L 415.5 145.11459350585938 L 425.5 159.0791015625 L 435.5 164.72659301757812 L 445.5 151.0598907470703 L 455.5 141.56300354003906 L 465.5 156.58253479003906 L 475.5 152.63836669921875 L 485.5 146.3831024169922 L 495.5 132.79287719726562 L 505.5 144.81600952148438 L 515.5 167.29954528808594 L 525.5 149.5700225830078 L 535.5 143.83212280273438 L 545.5 153.08815002441406 L 555.5 160.4727325439453 L 565.5 150.1288604736328 L 575.5 159.3898162841797 L 585.5 155.7344970703125" stroke-linejoin="bevel" stroke-miterlimit="10" stroke-width="0.5" clip-path="url(#nfQXeFUddqXu)"/><path fill="none" stroke="#30a2da" paint-order="fill" d="M 95.5 183.5584716796875 L 105.5 174.32701110839844 L 115.5 180.65541076660156 L 125.5 173.9812469482422 L 135.5 167.23287963867188 L 145.5 187.52195739746094 L 155.5 167.05088806152344 L 165.5 160.87705993652344 L 175.5 181.0961151123047 L 185.5 175.17811584472656 L 195.5 158.70252990722656 L 205.5 152.27960205078125 L 215.5 156.6779022216797 L 225.5 165.4714813232422 L 235.5 147.819091796875 L 245.5 154.48916625976562 L 255.5 156.3387451171875 L 265.5 151.7174835205078 L 275.5 150.1109161376953 L 285.5 141.43927001953125 L 295.5 136.42115783691406 L 305.5 134.55191040039062 L 315.5 142.83778381347656 L 325.5 136.36074829101562 L 335.5 123.74129486083984 L 345.5 129.85948181152344 L 355.5 141.05104064941406 L 365.5 128.24962615966797 L 375.5 131.255615234375 L 385.5 131.7709503173828 L 395.5 125.60079193115234 L 405.5 125.51348114013672 L 415.5 120.02845001220703 L 425.5 121.46375274658203 L 435.5 115.70503234863281 L 445.5 91.95757293701172 L 455.5 98.49608612060547 L 465.5 95.85108184814453 L 475.5 88.54827117919922 L 485.5 84.38346862792969 L 495.5 72.30475616455078 L 505.5 79.59606170654297 L 515.5 81.7986068725586 L 525.5 92.34634399414062 L 535.5 76.7606201171875 L 545.5 82.67483520507812 L 555.5 68.18276977539062 L 565.5 73.40938568115234 L 575.5 72.95198059082031 L 585.5 98.52145385742188" stroke-linejoin="bevel" stroke-miterlimit="10" stroke-width="0.5" clip-path="url(#kVhLSSNWPeHx)"/><path fill="none" stroke="#fc4f30" paint-order="fill" d="M 295.5 144.22447204589844 L 305.5 154.55007934570312 L 315.5 157.1049346923828 L 325.5 170.35458374023438 L 335.5 164.51089477539062 L 345.5 143.54820251464844 L 355.5 141.9430694580078 L 365.5 146.77891540527344 L 375.5 145.67262268066406 L 385.5 147.6615447998047 L 395.5 153.1719970703125 L 405.5 145.93557739257812 L 415.5 134.6118927001953 L 425.5 134.79986572265625 L 435.5 134.11581420898438 L 445.5 135.74447631835938 L 455.5 165.70794677734375 L 465.5 160.29132080078125 L 475.5 157.11822509765625 L 485.5 153.5846710205078 L 495.5 156.6121063232422 L 505.5 135.67544555664062 L 515.5 145.88153076171875 L 525.5 168.40383911132812 L 535.5 156.41233825683594 L 545.5 150.64859008789062 L 555.5 148.86569213867188 L 565.5 152.9911346435547 L 575.5 157.70997619628906 L 585.5 150.72994995117188" stroke-linejoin="bevel" stroke-miterlimit="10" stroke-width="0.5" clip-path="url(#hchHIGBEQeon)"/><path fill="none" stroke="#30a2da" paint-order="fill" d="M 95.5 181.28273010253906 L 105.5 172.1833953857422 L 115.5 175.91287231445312 L 125.5 205.4188995361328 L 135.5 205.52554321289062 L 145.5 186.40553283691406 L 155.5 180.0523223876953 L 165.5 159.1011505126953 L 175.5 173.0081329345703 L 185.5 159.39186096191406 L 195.5 162.76779174804688 L 205.5 166.03736877441406 L 215.5 159.05685424804688 L 225.5 160.557861328125 L 235.5 156.5089569091797 L 245.5 152.65713500976562 L 255.5 154.9282684326172 L 265.5 156.84085083007812 L 275.5 147.51382446289062 L 285.5 157.87350463867188 L 295.5 149.90261840820312 L 305.5 138.05604553222656 L 315.5 135.33062744140625 L 325.5 123.22166442871094 L 335.5 134.64886474609375 L 345.5 113.4811782836914 L 355.5 108.7052230834961 L 365.5 121.37085723876953 L 375.5 111.99201965332031 L 385.5 104.73880767822266 L 395.5 118.30741119384766 L 405.5 113.17666625976562 L 415.5 106.18690490722656 L 425.5 107.22750091552734 L 435.5 93.75850677490234 L 445.5 88.86060333251953 L 455.5 90.60511779785156 L 465.5 88.97549438476562 L 475.5 81.09174346923828 L 485.5 83.4030990600586 L 495.5 77.51770782470703 L 505.5 84.4780502319336 L 515.5 72.50648498535156 L 525.5 71.15449523925781 L 535.5 82.91885375976562 L 545.5 75.290283203125 L 555.5 74.5444107055664 L 565.5 70.69888305664062 L 575.5 81.9728012084961 L 585.5 67.4707260131836" stroke-linejoin="bevel" stroke-miterlimit="10" stroke-width="0.5" clip-path="url(#VfQnwkkTuyzA)"/><path fill="none" stroke="#fc4f30" paint-order="fill" d="M 295.5 124.52720642089844 L 305.5 135.81788635253906 L 315.5 143.96580505371094 L 325.5 151.17718505859375 L 335.5 144.0558319091797 L 345.5 150.21588134765625 L 355.5 157.12594604492188 L 365.5 157.66311645507812 L 375.5 155.3235321044922 L 385.5 157.204345703125 L 395.5 150.5454864501953 L 405.5 137.0938262939453 L 415.5 157.76638793945312 L 425.5 148.296142578125 L 435.5 146.2514190673828 L 445.5 165.52320861816406 L 455.5 167.7046356201172 L 465.5 154.0194091796875 L 475.5 155.52871704101562 L 485.5 161.1407470703125 L 495.5 155.5933837890625 L 505.5 159.93890380859375 L 515.5 145.9986114501953 L 525.5 161.76268005371094 L 535.5 169.3683624267578 L 545.5 140.8903350830078 L 555.5 149.71116638183594 L 565.5 147.6438446044922 L 575.5 159.1309051513672 L 585.5 171.87936401367188" stroke-linejoin="bevel" stroke-miterlimit="10" stroke-width="0.5" clip-path="url(#QdMpDIILwHxk)"/><path fill="none" stroke="#30a2da" paint-order="fill" d="M 95.5 185.9877166748047 L 105.5 174.38955688476562 L 115.5 177.26519775390625 L 125.5 185.3721466064453 L 135.5 183.75112915039062 L 145.5 180.56723022460938 L 155.5 178.1404266357422 L 165.5 173.8688201904297 L 175.5 174.63882446289062 L 185.5 175.35833740234375 L 195.5 166.67984008789062 L 205.5 166.04100036621094 L 215.5 161.0233154296875 L 225.5 157.7361297607422 L 235.5 156.60926818847656 L 245.5 155.21612548828125 L 255.5 148.84783935546875 L 265.5 148.73495483398438 L 275.5 152.80067443847656 L 285.5 148.4340057373047 L 295.5 140.201416015625 L 305.5 139.50340270996094 L 315.5 141.04234313964844 L 325.5 134.39859008789062 L 335.5 133.03614807128906 L 345.5 130.03741455078125 L 355.5 131.56358337402344 L 365.5 124.72639465332031 L 375.5 118.78742980957031 L 385.5 118.30940246582031 L 395.5 115.85710906982422 L 405.5 118.9576187133789 L 415.5 112.00724792480469 L 425.5 105.40592956542969 L 435.5 102.70450592041016 L 445.5 97.79471588134766 L 455.5 96.2994384765625 L 465.5 93.68983459472656 L 475.5 94.70027160644531 L 485.5 92.40170288085938 L 495.5 84.29251098632812 L 505.5 84.47368621826172 L 515.5 81.8583984375 L 525.5 82.20002746582031 L 535.5 81.51170349121094 L 545.5 78.73081970214844 L 555.5 76.44717407226562 L 565.5 78.29582214355469 L 575.5 76.86831665039062 L 585.5 74.91474914550781" stroke-linejoin="bevel" stroke-miterlimit="10" stroke-width="2" clip-path="url(#lZGuBCtabIGz)"/><path fill="none" stroke="#fc4f30" paint-order="fill" d="M 295.5 135.84654235839844 L 305.5 149.20904541015625 L 315.5 149.093505859375 L 325.5 150.1058807373047 L 335.5 145.03724670410156 L 345.5 147.16456604003906 L 355.5 149.64480590820312 L 365.5 149.70050048828125 L 375.5 155.7431182861328 L 385.5 156.1531524658203 L 395.5 153.47503662109375 L 405.5 148.49949645996094 L 415.5 146.1108856201172 L 425.5 151.11497497558594 L 435.5 146.68495178222656 L 445.5 144.74459838867188 L 455.5 152.5968780517578 L 465.5 154.39784240722656 L 475.5 155.11415100097656 L 485.5 159.0973663330078 L 495.5 158.93833923339844 L 505.5 155.98910522460938 L 515.5 154.3280487060547 L 525.5 153.693359375 L 535.5 153.57958984375 L 545.5 149.5459442138672 L 555.5 152.21571350097656 L 565.5 154.7218475341797 L 575.5 153.4824981689453 L 585.5 153.19171142578125" stroke-linejoin="bevel" stroke-miterlimit="10" stroke-width="2" clip-path="url(#nFainxUuDRPZ)"/><path fill="none" stroke="black" paint-order="fill" d="M 295.5 30.5 L 295.5 280.5" stroke-linejoin="bevel" stroke-miterlimit="10" stroke-width="3" stroke-dasharray="6" clip-path="url(#HLWgyGTztPsO)"/><path fill="none" stroke="black" paint-order="fill" d="M 95.5 280.5 L 595.5 280.5" stroke-linejoin="bevel" stroke-miterlimit="10"/><path fill="none" stroke="black" paint-order="fill" d="M 145.5 286.5 L 145.5 278.5 M 245.5 286.5 L 245.5 278.5 M 345.5 286.5 L 345.5 278.5 M 445.5 286.5 L 445.5 278.5 M 545.5 286.5 L 545.5 278.5" stroke-linejoin="bevel" stroke-miterlimit="10"/><path fill="none" stroke="black" paint-order="fill" d="M 125.5 284.5 L 125.5 280.5 M 105.5 284.5 L 105.5 280.5 M 145.5 284.5 L 145.5 280.5 M 165.5 284.5 L 165.5 280.5 M 185.5 284.5 L 185.5 280.5 M 205.5 284.5 L 205.5 280.5 M 225.5 284.5 L 225.5 280.5 M 245.5 284.5 L 245.5 280.5 M 265.5 284.5 L 265.5 280.5 M 285.5 284.5 L 285.5 280.5 M 305.5 284.5 L 305.5 280.5 M 325.5 284.5 L 325.5 280.5 M 345.5 284.5 L 345.5 280.5 M 365.5 284.5 L 365.5 280.5 M 385.5 284.5 L 385.5 280.5 M 405.5 284.5 L 405.5 280.5 M 425.5 284.5 L 425.5 280.5 M 445.5 284.5 L 445.5 280.5 M 465.5 284.5 L 465.5 280.5 M 485.5 284.5 L 485.5 280.5 M 505.5 284.5 L 505.5 280.5 M 525.5 284.5 L 525.5 280.5 M 545.5 284.5 L 545.5 280.5 M 565.5 284.5 L 565.5 280.5 M 585.5 284.5 L 585.5 280.5" stroke-linejoin="bevel" stroke-miterlimit="10"/><text fill="#444444" stroke="none" font-family="helvetica" font-size="10pt" font-style="normal" font-weight="normal" text-decoration="normal" x="130.10000038146973" y="300.59368896484375" text-anchor="start" dominant-baseline="alphabetic" transform="matrix(1, 0, 0, 1, 0.5, 0.5)">2020</text><text fill="none" stroke="rgb(0,0,0)" font-family="helvetica" font-size="10pt" font-style="normal" font-weight="normal" text-decoration="normal" x="130.10000038146973" y="300.59368896484375" text-anchor="start" dominant-baseline="alphabetic" transform="matrix(1, 0, 0, 1, 0.5, 0.5)" stroke-opacity="0" stroke-linejoin="bevel" stroke-miterlimit="10">2020</text><text fill="#444444" stroke="none" font-family="helvetica" font-size="10pt" font-style="normal" font-weight="normal" text-decoration="normal" x="230.10000038146973" y="300.59368896484375" text-anchor="start" dominant-baseline="alphabetic" transform="matrix(1, 0, 0, 1, 0.5, 0.5)">2030</text><text fill="none" stroke="rgb(0,0,0)" font-family="helvetica" font-size="10pt" font-style="normal" font-weight="normal" text-decoration="normal" x="230.10000038146973" y="300.59368896484375" text-anchor="start" dominant-baseline="alphabetic" transform="matrix(1, 0, 0, 1, 0.5, 0.5)" stroke-opacity="0" stroke-linejoin="bevel" stroke-miterlimit="10">2030</text><text fill="#444444" stroke="none" font-family="helvetica" font-size="10pt" font-style="normal" font-weight="normal" text-decoration="normal" x="330.1000003814697" y="300.59368896484375" text-anchor="start" dominant-baseline="alphabetic" transform="matrix(1, 0, 0, 1, 0.5, 0.5)">2040</text><text fill="none" stroke="rgb(0,0,0)" font-family="helvetica" font-size="10pt" font-style="normal" font-weight="normal" text-decoration="normal" x="330.1000003814697" y="300.59368896484375" text-anchor="start" dominant-baseline="alphabetic" transform="matrix(1, 0, 0, 1, 0.5, 0.5)" stroke-opacity="0" stroke-linejoin="bevel" stroke-miterlimit="10">2040</text><text fill="#444444" stroke="none" font-family="helvetica" font-size="10pt" font-style="normal" font-weight="normal" text-decoration="normal" x="430.1000003814697" y="300.59368896484375" text-anchor="start" dominant-baseline="alphabetic" transform="matrix(1, 0, 0, 1, 0.5, 0.5)">2050</text><text fill="none" stroke="rgb(0,0,0)" font-family="helvetica" font-size="10pt" font-style="normal" font-weight="normal" text-decoration="normal" x="430.1000003814697" y="300.59368896484375" text-anchor="start" dominant-baseline="alphabetic" transform="matrix(1, 0, 0, 1, 0.5, 0.5)" stroke-opacity="0" stroke-linejoin="bevel" stroke-miterlimit="10">2050</text><text fill="#444444" stroke="none" font-family="helvetica" font-size="10pt" font-style="normal" font-weight="normal" text-decoration="normal" x="530.1000003814697" y="300.59368896484375" text-anchor="start" dominant-baseline="alphabetic" transform="matrix(1, 0, 0, 1, 0.5, 0.5)">2060</text><text fill="none" stroke="rgb(0,0,0)" font-family="helvetica" font-size="10pt" font-style="normal" font-weight="normal" text-decoration="normal" x="530.1000003814697" y="300.59368896484375" text-anchor="start" dominant-baseline="alphabetic" transform="matrix(1, 0, 0, 1, 0.5, 0.5)" stroke-opacity="0" stroke-linejoin="bevel" stroke-miterlimit="10">2060</text><text fill="#444444" stroke="none" font-family="helvetica" font-size="12pt" font-style="normal" font-weight="normal" text-decoration="normal" x="328.8333339691162" y="321.59368896484375" text-anchor="start" dominant-baseline="alphabetic" transform="matrix(1, 0, 0, 1, 0.5, 0.5)">Year</text><text fill="none" stroke="rgb(0,0,0)" font-family="helvetica" font-size="12pt" font-style="normal" font-weight="normal" text-decoration="normal" x="328.8333339691162" y="321.59368896484375" text-anchor="start" dominant-baseline="alphabetic" transform="matrix(1, 0, 0, 1, 0.5, 0.5)" stroke-opacity="0" stroke-linejoin="bevel" stroke-miterlimit="10">Year</text><path fill="none" stroke="black" paint-order="fill" d="M 95.5 280.5 L 95.5 30.5" stroke-linejoin="bevel" stroke-miterlimit="10"/><path fill="none" stroke="black" paint-order="fill" d="M 89.5 280.5 L 97.5 280.5 M 89.5 238.5 L 97.5 238.5 M 89.5 197.5 L 97.5 197.5 M 89.5 155.5 L 97.5 155.5 M 89.5 113.5 L 97.5 113.5 M 89.5 72.5 L 97.5 72.5 M 89.5 30.5 L 97.5 30.5" stroke-linejoin="bevel" stroke-miterlimit="10"/><path fill="none" stroke="black" paint-order="fill" d="M 91.5 280.5 L 95.5 280.5 M 91.5 272.5 L 95.5 272.5 M 91.5 263.5 L 95.5 263.5 M 91.5 255.5 L 95.5 255.5 M 91.5 247.5 L 95.5 247.5 M 91.5 238.5 L 95.5 238.5 M 91.5 230.5 L 95.5 230.5 M 91.5 222.5 L 95.5 222.5 M 91.5 213.5 L 95.5 213.5 M 91.5 205.5 L 95.5 205.5 M 91.5 197.5 L 95.5 197.5 M 91.5 188.5 L 95.5 188.5 M 91.5 180.5 L 95.5 180.5 M 91.5 172.5 L 95.5 172.5 M 91.5 163.5 L 95.5 163.5 M 91.5 155.5 L 95.5 155.5 M 91.5 147.5 L 95.5 147.5 M 91.5 138.5 L 95.5 138.5 M 91.5 130.5 L 95.5 130.5 M 91.5 122.5 L 95.5 122.5 M 91.5 113.5 L 95.5 113.5 M 91.5 105.5 L 95.5 105.5 M 91.5 97.5 L 95.5 97.5 M 91.5 88.5 L 95.5 88.5 M 91.5 80.5 L 95.5 80.5 M 91.5 72.5 L 95.5 72.5 M 91.5 63.5 L 95.5 63.5 M 91.5 55.5 L 95.5 55.5 M 91.5 47.5 L 95.5 47.5 M 91.5 38.5 L 95.5 38.5 M 91.5 30.5 L 95.5 30.5" stroke-linejoin="bevel" stroke-miterlimit="10"/><text fill="#444444" stroke="none" font-family="helvetica" font-size="10pt" font-style="normal" font-weight="normal" text-decoration="normal" x="69.10000038146973" y="284.7968444824219" text-anchor="start" dominant-baseline="alphabetic" transform="matrix(1, 0, 0, 1, 0.5, 0.5)">14</text><text fill="none" stroke="rgb(0,0,0)" font-family="helvetica" font-size="10pt" font-style="normal" font-weight="normal" text-decoration="normal" x="69.10000038146973" y="284.7968444824219" text-anchor="start" dominant-baseline="alphabetic" transform="matrix(1, 0, 0, 1, 0.5, 0.5)" stroke-opacity="0" stroke-linejoin="bevel" stroke-miterlimit="10">14</text><text fill="#444444" stroke="none" font-family="helvetica" font-size="10pt" font-style="normal" font-weight="normal" text-decoration="normal" x="57.933332443237305" y="243.1301727294922" text-anchor="start" dominant-baseline="alphabetic" transform="matrix(1, 0, 0, 1, 0.5, 0.5)">14.5</text><text fill="none" stroke="rgb(0,0,0)" font-family="helvetica" font-size="10pt" font-style="normal" font-weight="normal" text-decoration="normal" x="57.933332443237305" y="243.1301727294922" text-anchor="start" dominant-baseline="alphabetic" transform="matrix(1, 0, 0, 1, 0.5, 0.5)" stroke-opacity="0" stroke-linejoin="bevel" stroke-miterlimit="10">14.5</text><text fill="#444444" stroke="none" font-family="helvetica" font-size="10pt" font-style="normal" font-weight="normal" text-decoration="normal" x="69.10000038146973" y="201.46351623535156" text-anchor="start" dominant-baseline="alphabetic" transform="matrix(1, 0, 0, 1, 0.5, 0.5)">15</text><text fill="none" stroke="rgb(0,0,0)" font-family="helvetica" font-size="10pt" font-style="normal" font-weight="normal" text-decoration="normal" x="69.10000038146973" y="201.46351623535156" text-anchor="start" dominant-baseline="alphabetic" transform="matrix(1, 0, 0, 1, 0.5, 0.5)" stroke-opacity="0" stroke-linejoin="bevel" stroke-miterlimit="10">15</text><text fill="#444444" stroke="none" font-family="helvetica" font-size="10pt" font-style="normal" font-weight="normal" text-decoration="normal" x="57.933332443237305" y="159.79684448242188" text-anchor="start" dominant-baseline="alphabetic" transform="matrix(1, 0, 0, 1, 0.5, 0.5)">15.5</text><text fill="none" stroke="rgb(0,0,0)" font-family="helvetica" font-size="10pt" font-style="normal" font-weight="normal" text-decoration="normal" x="57.933332443237305" y="159.79684448242188" text-anchor="start" dominant-baseline="alphabetic" transform="matrix(1, 0, 0, 1, 0.5, 0.5)" stroke-opacity="0" stroke-linejoin="bevel" stroke-miterlimit="10">15.5</text><text fill="#444444" stroke="none" font-family="helvetica" font-size="10pt" font-style="normal" font-weight="normal" text-decoration="normal" x="69.10000038146973" y="118.13018035888672" text-anchor="start" dominant-baseline="alphabetic" transform="matrix(1, 0, 0, 1, 0.5, 0.5)">16</text><text fill="none" stroke="rgb(0,0,0)" font-family="helvetica" font-size="10pt" font-style="normal" font-weight="normal" text-decoration="normal" x="69.10000038146973" y="118.13018035888672" text-anchor="start" dominant-baseline="alphabetic" transform="matrix(1, 0, 0, 1, 0.5, 0.5)" stroke-opacity="0" stroke-linejoin="bevel" stroke-miterlimit="10">16</text><text fill="#444444" stroke="none" font-family="helvetica" font-size="10pt" font-style="normal" font-weight="normal" text-decoration="normal" x="57.933332443237305" y="76.46350860595703" text-anchor="start" dominant-baseline="alphabetic" transform="matrix(1, 0, 0, 1, 0.5, 0.5)">16.5</text><text fill="none" stroke="rgb(0,0,0)" font-family="helvetica" font-size="10pt" font-style="normal" font-weight="normal" text-decoration="normal" x="57.933332443237305" y="76.46350860595703" text-anchor="start" dominant-baseline="alphabetic" transform="matrix(1, 0, 0, 1, 0.5, 0.5)" stroke-opacity="0" stroke-linejoin="bevel" stroke-miterlimit="10">16.5</text><text fill="#444444" stroke="none" font-family="helvetica" font-size="10pt" font-style="normal" font-weight="normal" text-decoration="normal" x="69.10000038146973" y="34.796844482421875" text-anchor="start" dominant-baseline="alphabetic" transform="matrix(1, 0, 0, 1, 0.5, 0.5)">17</text><text fill="none" stroke="rgb(0,0,0)" font-family="helvetica" font-size="10pt" font-style="normal" font-weight="normal" text-decoration="normal" x="69.10000038146973" y="34.796844482421875" text-anchor="start" dominant-baseline="alphabetic" transform="matrix(1, 0, 0, 1, 0.5, 0.5)" stroke-opacity="0" stroke-linejoin="bevel" stroke-miterlimit="10">17</text><text fill="#444444" stroke="none" font-family="helvetica" font-size="12pt" font-style="normal" font-weight="normal" text-decoration="normal" x="-11.524999618530273" y="151" text-anchor="start" dominant-baseline="alphabetic" transform="matrix(6.123233995736766e-17, -1, 1, 6.123233995736766e-17, -104.5666675567627, 205.4333324432373)">Temperature (°C)</text><text fill="none" stroke="rgb(0,0,0)" font-family="helvetica" font-size="12pt" font-style="normal" font-weight="normal" text-decoration="normal" x="-11.524999618530273" y="151" text-anchor="start" dominant-baseline="alphabetic" transform="matrix(6.123233995736766e-17, -1, 1, 6.123233995736766e-17, -104.5666675567627, 205.4333324432373)" stroke-opacity="0" stroke-linejoin="bevel" stroke-miterlimit="10">Temperature (°C)</text><path fill="rgb(255,255,255)" stroke="rgb(229,229,229)" paint-order="fill" d="M 105.5 40.5 L 380.16668701171875 40.5 L 380.16668701171875 105.5 L 105.5 105.5 L 105.5 40.5 Z" fill-opacity="0.9490196078431372" clip-path="url(#eDyNllinNkFt)" stroke-opacity="0.5019607843137255" stroke-linejoin="bevel" stroke-miterlimit="10"/><g clip-path="url(#eDyNllinNkFt)"><g transform="matrix(1, 0, 0, 1, 116, 51)"><path fill="none" stroke="#30a2da" paint-order="fill" d="M 0.5 10.5 L 20.5 10.5" stroke-linejoin="bevel" stroke-miterlimit="10" stroke-width="2"/></g></g><g clip-path="url(#eDyNllinNkFt)"><text fill="#444444" stroke="none" font-family="helvetica" font-size="13px" font-style="normal" font-weight="normal" text-decoration="normal" x="141" y="65" text-anchor="start" dominant-baseline="alphabetic" transform="matrix(1, 0, 0, 1, 0.5, 0.5)">Without climate intervention (SSP2-4.5)</text></g><g clip-path="url(#eDyNllinNkFt)"><text fill="none" stroke="rgb(0,0,0)" font-family="helvetica" font-size="13px" font-style="normal" font-weight="normal" text-decoration="normal" x="141" y="65" text-anchor="start" dominant-baseline="alphabetic" transform="matrix(1, 0, 0, 1, 0.5, 0.5)" stroke-opacity="0" stroke-linejoin="bevel" stroke-miterlimit="10">Without climate intervention (SSP2-4.5)</text></g><g clip-path="url(#eDyNllinNkFt)"><g transform="matrix(1, 0, 0, 1, 116, 74)"><path fill="none" stroke="#fc4f30" paint-order="fill" d="M 0.5 10.5 L 20.5 10.5" stroke-linejoin="bevel" stroke-miterlimit="10" stroke-width="2"/></g></g><g clip-path="url(#eDyNllinNkFt)"><text fill="#444444" stroke="none" font-family="helvetica" font-size="13px" font-style="normal" font-weight="normal" text-decoration="normal" x="141" y="88" text-anchor="start" dominant-baseline="alphabetic" transform="matrix(1, 0, 0, 1, 0.5, 0.5)">With intervention (ARISE-SAI-1.5)</text></g><g clip-path="url(#eDyNllinNkFt)"><text fill="none" stroke="rgb(0,0,0)" font-family="helvetica" font-size="13px" font-style="normal" font-weight="normal" text-decoration="normal" x="141" y="88" text-anchor="start" dominant-baseline="alphabetic" transform="matrix(1, 0, 0, 1, 0.5, 0.5)" stroke-opacity="0" stroke-linejoin="bevel" stroke-miterlimit="10">With intervention (ARISE-SAI-1.5)</text></g><text fill="black" stroke="none" font-family="helvetica" font-size="14pt" font-style="normal" font-weight="normal" text-decoration="normal" x="0" y="15" text-anchor="start" dominant-baseline="alphabetic" transform="matrix(1, 0, 0, 1, 5.5, 5.5)">B. Global mean temperature under climate change and intervention</text><text fill="none" stroke="rgb(0,0,0)" font-family="helvetica" font-size="14pt" font-style="normal" font-weight="normal" text-decoration="normal" x="0" y="15" text-anchor="start" dominant-baseline="alphabetic" transform="matrix(1, 0, 0, 1, 5.5, 5.5)" stroke-opacity="0" stroke-linejoin="bevel" stroke-miterlimit="10">B. Global mean temperature under climate change and intervention</text></svg>