<svg version="1.1" xmlns="http://www.w3.org/2000/svg" width="605" height="331"><defs><clipPath id="QNphXpOOhVFM"><path fill="none" stroke="none" d="M 75.5 32.5 L 575.5 32.5 L 575.5 282.5 L 75.5 282.5 L 75.5 32.5 Z"/></clipPath><clipPath id="dTyiumesvpya"><path fill="none" stroke="none" d="M 75.5 32.5 L 575.5 32.5 L 575.5 282.5 L 75.5 282.5 L 75.5 32.5 Z"/></clipPath><clipPath id="NyRKLRTRLgQT"><path fill="none" stroke="none" d="M 75.5 32.5 L 575.5 32.5 L 575.5 282.5 L 75.5 282.5 L 75.5 32.5 Z"/></clipPath><clipPath id="mKInCVUfwiNQ"><path fill="none" stroke="none" d="M 75.5 32.5 L 575.5 32.5 L 575.5 282.5 L 75.5 282.5 L 75.5 32.5 Z"/></clipPath><clipPath id="TFCeFRwTUcBT"><path fill="none" stroke="none" d="M 75.5 32.5 L 575.5 32.5 L 575.5 282.5 L 75.5 282.5 L 75.5 32.5 Z"/></clipPath><clipPath id="DhIHqDQtyLay"><path fill="none" stroke="none" d="M 75.5 32.5 L 575.5 32.5 L 575.5 282.5 L 75.5 282.5 L 75.5 32.5 Z"/></clipPath><clipPath id="zcWExZLyWStb"><path fill="none" stroke="none" d="M 75.5 32.5 L 575.5 32.5 L 575.5 282.5 L 75.5 282.5 L 75.5 32.5 Z"/></clipPath><clipPath id="yTThOTMSETPS"><path fill="none" stroke="none" d="M 75.5 32.5 L 575.5 32.5 L 575.5 282.5 L 75.5 282.5 L 75.5 32.5 Z"/></clipPath><clipPath id="TXNTuTiCkbXO"><path fill="none" stroke="none" d="M 75.5 32.5 L 575.5 32.5 L 575.5 282.5 L 75.5 282.5 L 75.5 32.5 Z"/></clipPath><clipPath id="CusDFwuwkehn"><path fill="none" stroke="none" d="M 75.5 32.5 L 575.5 32.5 L 575.5 282.5 L 75.5 282.5 L 75.5 32.5 Z"/></clipPath><clipPath id="kMJPpiPTypaz"><path fill="none" stroke="none" d="M 75.5 32.5 L 575.5 32.5 L 575.5 282.5 L 75.5 282.5 L 75.5 32.5 Z"/></clipPath><clipPath id="rmLsAHgTegFw"><path fill="none" stroke="none" d="M 75.5 32.5 L 575.5 32.5 L 575.5 282.5 L 75.5 282.5 L 75.5 32.5 Z"/></clipPath><clipPath id="PKxKkEsrbfaa"><path fill="none" stroke="none" d="M 75.5 32.5 L 575.5 32.5 L 575.5 282.5 L 75.5 282.5 L 75.5 32.5 Z"/></clipPath><clipPath id="MCDChnoSLrqK"><path fill="none" stroke="none" d="M 75.5 32.5 L 575.5 32.5 L 575.5 282.5 L 75.5 282.5 L 75.5 32.5 Z"/></clipPath><clipPath id="qSMXEnmkaMis"><path fill="none" stroke="none" d="M 75.5 32.5 L 575.5 32.5 L 575.5 282.5 L 75.5 282.5 L 75.5 32.5 Z"/></clipPath><clipPath id="lbXgeSZXCQgr"><path fill="none" stroke="none" d="M 75.5 32.5 L 575.5 32.5 L 575.5 282.5 L 75.5 282.5 L 75.5 32.5 Z"/></clipPath><clipPath id="QrgPLFFaxfLA"><path fill="none" stroke="none" d="M 75.5 32.5 L 575.5 32.5 L 575.5 282.5 L 75.5 282.5 L 75.5 32.5 Z"/></clipPath><clipPath id="PAwqOHsHImPH"><path fill="none" stroke="none" d="M 75.5 32.5 L 575.5 32.5 L 575.5 282.5 L 75.5 282.5 L 75.5 32.5 Z"/></clipPath><clipPath id="REtrpnwetBHh"><path fill="none" stroke="none" d="M 75.5 32.5 L 575.5 32.5 L 575.5 282.5 L 75.5 282.5 L 75.5 32.5 Z"/></clipPath><clipPath id="scZcKcqNtBGs"><path fill="none" stroke="none" d="M 75.5 32.5 L 575.5 32.5 L 575.5 282.5 L 75.5 282.5 L 75.5 32.5 Z"/></clipPath><clipPath id="mVKPEIoSDKCy"><path fill="none" stroke="none" d="M 75.5 32.5 L 575.5 32.5 L 575.5 282.5 L 75.5 282.5 L 75.5 32.5 Z"/></clipPath><clipPath id="VvyWyZytxNTc"><path fill="none" stroke="none" d="M 75.5 32.5 L 575.5 32.5 L 575.5 282.5 L 75.5 282.5 L 75.5 32.5 Z"/></clipPath><clipPath id="nRJHbbnWKKgx"><path fill="none" stroke="none" d="M 75.5 32.5 L 575.5 32.5 L 575.5 282.5 L 75.5 282.5 L 75.5 32.5 Z"/></clipPath></defs><path fill="none" stroke="#e5e5e5" paint-order="fill" d="M 75.5 32.5 L 575.5 32.5 L 575.5 282.5 L 75.5 282.5 L 75.5 32.5 Z" stroke-linejoin="bevel" stroke-miterlimit="10"/><path fill="none" stroke="black" paint-order="fill" d="M 337.46172248803487 32.5 L 337.46172248803487 282.5" stroke-linejoin="bevel" stroke-miterlimit="10" stroke-width="3" stroke-dasharray="6" clip-path="url(#NyRKLRTRLgQT)"/><path fill="none" stroke="#9467bd" paint-order="fill" d="M 98.2272720336914 107.5688705444336 L 122.15071868896484 93.79476928710938 L 146.07415771484375 100.68181610107422 L 169.9976043701172 108.94628143310547 L 193.92105102539062 96.5495834350586 L 217.84449768066406 86.90771484375 L 241.7679443359375 89.66253662109375 L 265.6913757324219 96.5495834350586 L 289.6148376464844 75.888427734375 L 313.53826904296875 92.4173583984375" stroke-linejoin="bevel" stroke-miterlimit="10" stroke-width="2" clip-path="url(#mKInCVUfwiNQ)"/><path fill="none" stroke="#9467bd" paint-order="fill" d="M 98.2272720336914 107.5688705444336 L 122.15071868896484 93.79476928710938 L 146.07415771484375 100.68181610107422 L 169.9976043701172 108.94628143310547 L 193.92105102539062 96.5495834350586 L 217.84449768066406 86.90771484375 L 241.7679443359375 89.66253662109375 L 265.6913757324219 96.5495834350586 L 289.6148376464844 75.888427734375 L 313.53826904296875 92.4173583984375" stroke-linejoin="bevel" stroke-miterlimit="10" stroke-width="2" stroke-dasharray="6" clip-path="url(#TFCeFRwTUcBT)"/><path fill="none" stroke="#30a2da" paint-order="fill" d="M 313.53826904296875 92.4173583984375 L 337.46173095703125 103.43663787841797 L 361.3851623535156 86.90771484375 L 385.3086242675781 88.28512573242188 L 409.2320556640625 119.96556854248047 L 433.155517578125 95.17217254638672 L 457.0789489746094 74.51101684570312 L 481.00238037109375 102.0592269897461 L 504.92584228515625 60.736915588378906 L 528.8493041992188 92.4173583984375 L 552.772705078125 77.26583862304688" stroke-linejoin="bevel" stroke-miterlimit="10" stroke-width="2" clip-path="url(#DhIHqDQtyLay)"/><path fill="none" stroke="#30a2da" paint-order="fill" d="M 337.46173095703125 101.23278045654297 L 361.3851623535156 98.7534408569336 L 385.3086242675781 96.27410125732422 L 409.2320556640625 93.79476928710938 L 433.155517578125 91.3154296875 L 457.0789489746094 88.83609008789062 L 481.00238037109375 86.35675048828125 L 504.92584228515625 83.87741088867188 L 528.8493041992188 81.3980712890625 L 552.772705078125 78.91873168945312" stroke-linejoin="bevel" stroke-miterlimit="10" stroke-width="2" stroke-dasharray="6" clip-path="url(#zcWExZLyWStb)"/><path fill="none" stroke="#fc4f30" paint-order="fill" d="M 313.53826904296875 92.4173583984375 L 337.46173095703125 70.3787841796875 L 361.3851623535156 55.227272033691406 L 385.3086242675781 86.90771484375 L 409.2320556640625 110.32369232177734 L 433.155517578125 89.66253662109375 L 457.0789489746094 111.70110321044922 L 481.00238037109375 97.92699432373047 L 504.92584228515625 96.5495834350586 L 528.8493041992188 89.66253662109375 L 552.772705078125 117.21074676513672" stroke-linejoin="bevel" stroke-miterlimit="10" stroke-width="2" clip-path="url(#yTThOTMSETPS)"/><path fill="none" stroke="#fc4f30" paint-order="fill" d="M 337.46173095703125 73.58439636230469 L 361.3851623535156 77.80010986328125 L 385.3086242675781 82.01581573486328 L 409.2320556640625 86.23152923583984 L 433.155517578125 90.4472427368164 L 457.0789489746094 94.66294860839844 L 481.00238037109375 98.878662109375 L 504.92584228515625 103.09437561035156 L 528.8493041992188 107.3100814819336 L 552.772705078125 111.52579498291016" stroke-linejoin="bevel" stroke-miterlimit="10" stroke-width="2" stroke-dasharray="6" clip-path="url(#TXNTuTiCkbXO)"/><path fill="none" stroke="rgb(128,128,128)" paint-order="fill" d="M 98.2272720336914 104.81404876708984 L 122.15071868896484 69.00138092041016 L 146.07415771484375 85.53030395507812 L 169.9976043701172 80.02066040039062 L 193.92105102539062 96.5495834350586 L 217.84449768066406 91.03994750976562 L 241.7679443359375 66.2465591430664 L 265.6913757324219 96.5495834350586 L 289.6148376464844 70.3787841796875 L 313.53826904296875 69.00138092041016" stroke-opacity="0.7490196078431373" stroke-linejoin="bevel" stroke-miterlimit="10" clip-path="url(#CusDFwuwkehn)"/><path fill="none" stroke="grey" paint-order="fill" d="M 313.53826904296875 69.00138092041016 L 337.46173095703125 73.13360595703125 L 361.3851623535156 62.11432647705078 L 385.3086242675781 106.19145965576172 L 409.2320556640625 78.64324951171875 L 433.155517578125 70.3787841796875 L 457.0789489746094 121.34297180175781 L 481.00238037109375 84.15289306640625 L 504.92584228515625 95.17217254638672 L 528.8493041992188 73.13360595703125 L 552.772705078125 96.5495834350586" stroke-linejoin="bevel" stroke-miterlimit="10" stroke-width="0.5" clip-path="url(#kMJPpiPTypaz)"/><path fill="none" stroke="grey" paint-order="fill" d="M 313.53826904296875 69.00138092041016 L 337.46173095703125 91.03994750976562 L 361.3851623535156 89.66253662109375 L 385.3086242675781 78.64324951171875 L 409.2320556640625 71.75619506835938 L 433.155517578125 73.13360595703125 L 457.0789489746094 82.77548217773438 L 481.00238037109375 96.5495834350586 L 504.92584228515625 133.7396697998047 L 528.8493041992188 102.0592269897461 L 552.772705078125 88.28512573242188" stroke-linejoin="bevel" stroke-miterlimit="10" stroke-width="0.5" clip-path="url(#rmLsAHgTegFw)"/><path fill="none" stroke="rgb(128,128,128)" paint-order="fill" d="M 98.2272720336914 88.28512573242188 L 122.15071868896484 92.4173583984375 L 146.07415771484375 102.0592269897461 L 169.9976043701172 81.3980712890625 L 193.92105102539062 81.3980712890625 L 217.84449768066406 81.3980712890625 L 241.7679443359375 88.28512573242188 L 265.6913757324219 80.02066040039062 L 289.6148376464844 81.3980712890625 L 313.53826904296875 124.09779357910156" stroke-opacity="0.7490196078431373" stroke-linejoin="bevel" stroke-miterlimit="10" clip-path="url(#PKxKkEsrbfaa)"/><path fill="none" stroke="grey" paint-order="fill" d="M 313.53826904296875 124.09779357910156 L 337.46173095703125 88.28512573242188 L 361.3851623535156 88.28512573242188 L 385.3086242675781 75.888427734375 L 409.2320556640625 102.0592269897461 L 433.155517578125 81.3980712890625 L 457.0789489746094 86.90771484375 L 481.00238037109375 114.45592498779297 L 504.92584228515625 110.32369232177734 L 528.8493041992188 93.79476928710938 L 552.772705078125 92.4173583984375" stroke-linejoin="bevel" stroke-miterlimit="10" stroke-width="0.5" clip-path="url(#MCDChnoSLrqK)"/><path fill="none" stroke="grey" paint-order="fill" d="M 313.53826904296875 124.09779357910156 L 337.46173095703125 92.4173583984375 L 361.3851623535156 97.92699432373047 L 385.3086242675781 78.64324951171875 L 409.2320556640625 95.17217254638672 L 433.155517578125 85.53030395507812 L 457.0789489746094 70.3787841796875 L 481.00238037109375 108.94628143310547 L 504.92584228515625 102.0592269897461 L 528.8493041992188 89.66253662109375 L 552.772705078125 117.21074676513672" stroke-linejoin="bevel" stroke-miterlimit="10" stroke-width="0.5" clip-path="url(#qSMXEnmkaMis)"/><path fill="none" stroke="rgb(128,128,128)" paint-order="fill" d="M 98.2272720336914 64.86914825439453 L 122.15071868896484 122.72038269042969 L 146.07415771484375 99.30440521240234 L 169.9976043701172 100.68181610107422 L 193.92105102539062 93.79476928710938 L 217.84449768066406 108.94628143310547 L 241.7679443359375 71.75619506835938 L 265.6913757324219 77.26583862304688 L 289.6148376464844 103.43663787841797 L 313.53826904296875 92.4173583984375" stroke-opacity="0.7490196078431373" stroke-linejoin="bevel" stroke-miterlimit="10" clip-path="url(#lbXgeSZXCQgr)"/><path fill="none" stroke="grey" paint-order="fill" d="M 313.53826904296875 92.4173583984375 L 337.46173095703125 99.30440521240234 L 361.3851623535156 82.77548217773438 L 385.3086242675781 70.3787841796875 L 409.2320556640625 115.83333587646484 L 433.155517578125 97.92699432373047 L 457.0789489746094 82.77548217773438 L 481.00238037109375 73.13360595703125 L 504.92584228515625 114.45592498779297 L 528.8493041992188 103.43663787841797 L 552.772705078125 85.53030395507812" stroke-linejoin="bevel" stroke-miterlimit="10" stroke-width="0.5" clip-path="url(#QrgPLFFaxfLA)"/><path fill="none" stroke="grey" paint-order="fill" d="M 313.53826904296875 92.4173583984375 L 337.46173095703125 84.15289306640625 L 361.3851623535156 115.83333587646484 L 385.3086242675781 125.47520446777344 L 409.2320556640625 113.0785140991211 L 433.155517578125 71.75619506835938 L 457.0789489746094 96.5495834350586 L 481.00238037109375 81.3980712890625 L 504.92584228515625 102.0592269897461 L 528.8493041992188 80.02066040039062 L 552.772705078125 96.5495834350586" stroke-linejoin="bevel" stroke-miterlimit="10" stroke-width="0.5" clip-path="url(#PAwqOHsHImPH)"/><path fill="none" stroke="rgb(128,128,128)" paint-order="fill" d="M 98.2272720336914 96.5495834350586 L 122.15071868896484 82.77548217773438 L 146.07415771484375 103.43663787841797 L 169.9976043701172 104.81404876708984 L 193.92105102539062 114.45592498779297 L 217.84449768066406 88.28512573242188 L 241.7679443359375 75.888427734375 L 265.6913757324219 85.53030395507812 L 289.6148376464844 97.92699432373047 L 313.53826904296875 69.00138092041016" stroke-opacity="0.7490196078431373" stroke-linejoin="bevel" stroke-miterlimit="10" clip-path="url(#REtrpnwetBHh)"/><path fill="none" stroke="grey" paint-order="fill" d="M 313.53826904296875 69.00138092041016 L 337.46173095703125 113.0785140991211 L 361.3851623535156 121.34297180175781 L 385.3086242675781 92.4173583984375 L 409.2320556640625 82.77548217773438 L 433.155517578125 85.53030395507812 L 457.0789489746094 64.86914825439453 L 481.00238037109375 77.26583862304688 L 504.92584228515625 84.15289306640625 L 528.8493041992188 85.53030395507812 L 552.772705078125 115.83333587646484" stroke-linejoin="bevel" stroke-miterlimit="10" stroke-width="0.5" clip-path="url(#scZcKcqNtBGs)"/><path fill="none" stroke="grey" paint-order="fill" d="M 313.53826904296875 69.00138092041016 L 337.46173095703125 78.64324951171875 L 361.3851623535156 96.5495834350586 L 385.3086242675781 108.94628143310547 L 409.2320556640625 91.03994750976562 L 433.155517578125 69.00138092041016 L 457.0789489746094 96.5495834350586 L 481.00238037109375 99.30440521240234 L 504.92584228515625 88.28512573242188 L 528.8493041992188 106.19145965576172 L 552.772705078125 89.66253662109375" stroke-linejoin="bevel" stroke-miterlimit="10" stroke-width="0.5" clip-path="url(#mVKPEIoSDKCy)"/><path fill="none" stroke="black" paint-order="fill" d="M 75.5 282.5 L 575.5 282.5" stroke-linejoin="bevel" stroke-miterlimit="10"/><path fill="none" stroke="black" paint-order="fill" d="M 98.5 288.5 L 98.5 280.5 M 217.5 288.5 L 217.5 280.5 M 337.5 288.5 L 337.5 280.5 M 457.5 288.5 L 457.5 280.5" stroke-linejoin="bevel" stroke-miterlimit="10"/><path fill="none" stroke="black" paint-order="fill" d="M 98.5 286.5 L 98.5 282.5 M 122.5 286.5 L 122.5 282.5 M 146.5 286.5 L 146.5 282.5 M 169.5 286.5 L 169.5 282.5 M 193.5 286.5 L 193.5 282.5 M 217.5 286.5 L 217.5 282.5 M 241.5 286.5 L 241.5 282.5 M 265.5 286.5 L 265.5 282.5 M 289.5 286.5 L 289.5 282.5 M 313.5 286.5 L 313.5 282.5 M 337.5 286.5 L 337.5 282.5 M 361.5 286.5 L 361.5 282.5 M 385.5 286.5 L 385.5 282.5 M 409.5 286.5 L 409.5 282.5 M 433.5 286.5 L 433.5 282.5 M 457.5 286.5 L 457.5 282.5 M 481.5 286.5 L 481.5 282.5 M 504.5 286.5 L 504.5 282.5 M 528.5 286.5 L 528.5 282.5 M 552.5 286.5 L 552.5 282.5" stroke-linejoin="bevel" stroke-miterlimit="10"/><text fill="#444444" stroke="none" font-family="helvetica" font-size="10pt" font-style="normal" font-weight="normal" text-decoration="normal" x="82.82727241516113" y="302.59368896484375" text-anchor="start" dominant-baseline="alphabetic" transform="matrix(1, 0, 0, 1, 0.5, 0.5)">2025</text><text fill="none" stroke="rgb(0,0,0)" font-family="helvetica" font-size="10pt" font-style="normal" font-weight="normal" text-decoration="normal" x="82.82727241516113" y="302.59368896484375" text-anchor="start" dominant-baseline="alphabetic" transform="matrix(1, 0, 0, 1, 0.5, 0.5)" stroke-opacity="0" stroke-linejoin="bevel" stroke-miterlimit="10">2025</text><text fill="#444444" stroke="none" font-family="helvetica" font-size="10pt" font-style="normal" font-weight="normal" text-decoration="normal" x="202.4444980621338" y="302.59368896484375" text-anchor="start" dominant-baseline="alphabetic" transform="matrix(1, 0, 0, 1, 0.5, 0.5)">2030</text><text fill="none" stroke="rgb(0,0,0)" font-family="helvetica" font-size="10pt" font-style="normal" font-weight="normal" text-decoration="normal" x="202.4444980621338" y="302.59368896484375" text-anchor="start" dominant-baseline="alphabetic" transform="matrix(1, 0, 0, 1, 0.5, 0.5)" stroke-opacity="0" stroke-linejoin="bevel" stroke-miterlimit="10">2030</text><text fill="#444444" stroke="none" font-family="helvetica" font-size="10pt" font-style="normal" font-weight="normal" text-decoration="normal" x="322.061731338501" y="302.59368896484375" text-anchor="start" dominant-baseline="alphabetic" transform="matrix(1, 0, 0, 1, 0.5, 0.5)">2035</text><text fill="none" stroke="rgb(0,0,0)" font-family="helvetica" font-size="10pt" font-style="normal" font-weight="normal" text-decoration="normal" x="322.061731338501" y="302.59368896484375" text-anchor="start" dominant-baseline="alphabetic" transform="matrix(1, 0, 0, 1, 0.5, 0.5)" stroke-opacity="0" stroke-linejoin="bevel" stroke-miterlimit="10">2035</text><text fill="#444444" stroke="none" font-family="helvetica" font-size="10pt" font-style="normal" font-weight="normal" text-decoration="normal" x="441.6789493560791" y="302.59368896484375" text-anchor="start" dominant-baseline="alphabetic" transform="matrix(1, 0, 0, 1, 0.5, 0.5)">2040</text><text fill="none" stroke="rgb(0,0,0)" font-family="helvetica" font-size="10pt" font-style="normal" font-weight="normal" text-decoration="normal" x="441.6789493560791" y="302.59368896484375" text-anchor="start" dominant-baseline="alphabetic" transform="matrix(1, 0, 0, 1, 0.5, 0.5)" stroke-opacity="0" stroke-linejoin="bevel" stroke-miterlimit="10">2040</text><text fill="#444444" stroke="none" font-family="helvetica" font-size="12pt" font-style="normal" font-weight="normal" text-decoration="normal" x="308.8333339691162" y="323.59368896484375" text-anchor="start" dominant-baseline="alphabetic" transform="matrix(1, 0, 0, 1, 0.5, 0.5)">Year</text><text fill="none" stroke="rgb(0,0,0)" font-family="helvetica" font-size="12pt" font-style="normal" font-weight="normal" text-decoration="normal" x="308.8333339691162" y="323.59368896484375" text-anchor="start" dominant-baseline="alphabetic" transform="matrix(1, 0, 0, 1, 0.5, 0.5)" stroke-opacity="0" stroke-linejoin="bevel" stroke-miterlimit="10">Year</text><path fill="none" stroke="black" paint-order="fill" d="M 75.5 282.5 L 75.5 32.5" stroke-linejoin="bevel" stroke-miterlimit="10"/><path fill="none" stroke="black" paint-order="fill" d="M 69.5 282.5 L 77.5 282.5 M 69.5 213.5 L 77.5 213.5 M 69.5 144.5 L 77.5 144.5 M 69.5 75.5 L 77.5 75.5" stroke-linejoin="bevel" stroke-miterlimit="10"/><path fill="none" stroke="black" paint-order="fill" d="M 71.5 282.5 L 75.5 282.5 M 71.5 268.5 L 75.5 268.5 M 71.5 254.5 L 75.5 254.5 M 71.5 241.5 L 75.5 241.5 M 71.5 227.5 L 75.5 227.5 M 71.5 213.5 L 75.5 213.5 M 71.5 199.5 L 75.5 199.5 M 71.5 186.5 L 75.5 186.5 M 71.5 172.5 L 75.5 172.5 M 71.5 158.5 L 75.5 158.5 M 71.5 144.5 L 75.5 144.5 M 71.5 130.5 L 75.5 130.5 M 71.5 117.5 L 75.5 117.5 M 71.5 103.5 L 75.5 103.5 M 71.5 89.5 L 75.5 89.5 M 71.5 75.5 L 75.5 75.5 M 71.5 62.5 L 75.5 62.5 M 71.5 48.5 L 75.5 48.5 M 71.5 34.5 L 75.5 34.5" stroke-linejoin="bevel" stroke-miterlimit="10"/><text fill="#444444" stroke="none" font-family="helvetica" font-size="10pt" font-style="normal" font-weight="normal" text-decoration="normal" x="56.55000019073486" y="286.7968444824219" text-anchor="start" dominant-baseline="alphabetic" transform="matrix(1, 0, 0, 1, 0.5, 0.5)">0</text><text fill="none" stroke="rgb(0,0,0)" font-family="helvetica" font-size="10pt" font-style="normal" font-weight="normal" text-decoration="normal" x="56.55000019073486" y="286.7968444824219" text-anchor="start" dominant-baseline="alphabetic" transform="matrix(1, 0, 0, 1, 0.5, 0.5)" stroke-opacity="0" stroke-linejoin="bevel" stroke-miterlimit="10">0</text><text fill="#444444" stroke="none" font-family="helvetica" font-size="10pt" font-style="normal" font-weight="normal" text-decoration="normal" x="49.10000038146973" y="217.9263153076172" text-anchor="start" dominant-baseline="alphabetic" transform="matrix(1, 0, 0, 1, 0.5, 0.5)">50</text><text fill="none" stroke="rgb(0,0,0)" font-family="helvetica" font-size="10pt" font-style="normal" font-weight="normal" text-decoration="normal" x="49.10000038146973" y="217.9263153076172" text-anchor="start" dominant-baseline="alphabetic" transform="matrix(1, 0, 0, 1, 0.5, 0.5)" stroke-opacity="0" stroke-linejoin="bevel" stroke-miterlimit="10">50</text><text fill="#444444" stroke="none" font-family="helvetica" font-size="10pt" font-style="normal" font-weight="normal" text-decoration="normal" x="41.64999961853027" y="149.05580139160156" text-anchor="start" dominant-baseline="alphabetic" transform="matrix(1, 0, 0, 1, 0.5, 0.5)">100</text><text fill="none" stroke="rgb(0,0,0)" font-family="helvetica" font-size="10pt" font-style="normal" font-weight="normal" text-decoration="normal" x="41.64999961853027" y="149.05580139160156" text-anchor="start" dominant-baseline="alphabetic" transform="matrix(1, 0, 0, 1, 0.5, 0.5)" stroke-opacity="0" stroke-linejoin="bevel" stroke-miterlimit="10">100</text><text fill="#444444" stroke="none" font-family="helvetica" font-size="10pt" font-style="normal" font-weight="normal" text-decoration="normal" x="41.64999961853027" y="80.18527221679688" text-anchor="start" dominant-baseline="alphabetic" transform="matrix(1, 0, 0, 1, 0.5, 0.5)">150</text><text fill="none" stroke="rgb(0,0,0)" font-family="helvetica" font-size="10pt" font-style="normal" font-weight="normal" text-decoration="normal" x="41.64999961853027" y="80.18527221679688" text-anchor="start" dominant-baseline="alphabetic" transform="matrix(1, 0, 0, 1, 0.5, 0.5)" stroke-opacity="0" stroke-linejoin="bevel" stroke-miterlimit="10">150</text><text fill="#444444" stroke="none" font-family="helvetica" font-size="12pt" font-style="normal" font-weight="normal" text-decoration="normal" x="-73.07499885559082" y="153" text-anchor="start" dominant-baseline="alphabetic" transform="matrix(6.123233995736766e-17, -1, 1, 6.123233995736766e-17, -122.85000038146973, 191.14999961853027)">Days suitable for transmission</text><text fill="none" stroke="rgb(0,0,0)" font-family="helvetica" font-size="12pt" font-style="normal" font-weight="normal" text-decoration="normal" x="-73.07499885559082" y="153" text-anchor="start" dominant-baseline="alphabetic" transform="matrix(6.123233995736766e-17, -1, 1, 6.123233995736766e-17, -122.85000038146973, 191.14999961853027)" stroke-opacity="0" stroke-linejoin="bevel" stroke-miterlimit="10">Days suitable for transmission</text><path fill="rgb(255,255,255)" stroke="rgb(229,229,229)" paint-order="fill" d="M 480.183349609375 207.5 L 565.5000152587891 207.5 L 565.5000152587891 272.5 L 480.183349609375 272.5 L 480.183349609375 207.5 Z" fill-opacity="0.9490196078431372" clip-path="url(#VvyWyZytxNTc)" stroke-opacity="0.5019607843137255" stroke-linejoin="bevel" stroke-miterlimit="10"/><g clip-path="url(#VvyWyZytxNTc)"><g transform="matrix(1, 0, 0, 1, 490.683349609375, 218)"><path fill="none" stroke="#30a2da" paint-order="fill" d="M 0.5 10.5 L 20.5 10.5" stroke-linejoin="bevel" stroke-miterlimit="10" stroke-width="2"/></g></g><g clip-path="url(#VvyWyZytxNTc)"><text fill="#444444" stroke="none" font-family="helvetica" font-size="13px" font-style="normal" font-weight="normal" text-decoration="normal" x="515.683349609375" y="232" text-anchor="start" dominant-baseline="alphabetic" transform="matrix(1, 0, 0, 1, 0.5, 0.5)">ID 001</text></g><g clip-path="url(#VvyWyZytxNTc)"><text fill="none" stroke="rgb(0,0,0)" font-family="helvetica" font-size="13px" font-style="normal" font-weight="normal" text-decoration="normal" x="515.683349609375" y="232" text-anchor="start" dominant-baseline="alphabetic" transform="matrix(1, 0, 0, 1, 0.5, 0.5)" stroke-opacity="0" stroke-linejoin="bevel" stroke-miterlimit="10">ID 001</text></g><g clip-path="url(#VvyWyZytxNTc)"><g transform="matrix(1, 0, 0, 1, 490.683349609375, 241)"><path fill="none" stroke="#fc4f30" paint-order="fill" d="M 0.5 10.5 L 20.5 10.5" stroke-linejoin="bevel" stroke-miterlimit="10" stroke-width="2"/></g></g><g clip-path="url(#VvyWyZytxNTc)"><text fill="#444444" stroke="none" font-family="helvetica" font-size="13px" font-style="normal" font-weight="normal" text-decoration="normal" x="515.683349609375" y="255" text-anchor="start" dominant-baseline="alphabetic" transform="matrix(1, 0, 0, 1, 0.5, 0.5)">ID 006</text></g><g clip-path="url(#VvyWyZytxNTc)"><text fill="none" stroke="rgb(0,0,0)" font-family="helvetica" font-size="13px" font-style="normal" font-weight="normal" text-decoration="normal" x="515.683349609375" y="255" text-anchor="start" dominant-baseline="alphabetic" transform="matrix(1, 0, 0, 1, 0.5, 0.5)" stroke-opacity="0" stroke-linejoin="bevel" stroke-miterlimit="10">ID 006</text></g><text fill="black" stroke="none" font-family="helvetica" font-size="14pt" font-style="normal" font-weight="normal" text-decoration="normal" x="0" y="15" text-anchor="start" dominant-baseline="alphabetic" transform="matrix(1, 0, 0, 1, 5.5, 7.5)">C. Santiago de Chile</text><text fill="none" stroke="rgb(0,0,0)" font-family="helvetica" font-size="14pt" font-style="normal" font-weight="normal" text-decoration="normal" x="0" y="15" text-anchor="start" dominant-baseline="alphabetic" transform="matrix(1, 0, 0, 1, 5.5, 7.5)" stroke-opacity="0" stroke-linejoin="bevel" stroke-miterlimit="10">C. Santiago de Chile</text></svg>