<svg version="1.1" xmlns="http://www.w3.org/2000/svg" width="600" height="334"><defs><clipPath id="VyWehvVJBpIi"><path fill="none" stroke="none" d="M 70.5 33.5 L 570.5 33.5 L 570.5 283.5 L 70.5 283.5 L 70.5 33.5 Z"/></clipPath><clipPath id="eSxNzrzJiXKm"><path fill="none" stroke="none" d="M 70.5 33.5 L 570.5 33.5 L 570.5 283.5 L 70.5 283.5 L 70.5 33.5 Z"/></clipPath><clipPath id="ssDvpkVqregp"><path fill="none" stroke="none" d="M 70.5 33.5 L 570.5 33.5 L 570.5 283.5 L 70.5 283.5 L 70.5 33.5 Z"/></clipPath><clipPath id="mFTTgVhDTHFe"><path fill="none" stroke="none" d="M 70.5 33.5 L 570.5 33.5 L 570.5 283.5 L 70.5 283.5 L 70.5 33.5 Z"/></clipPath><clipPath id="eAUycqzgbXMN"><path fill="none" stroke="none" d="M 70.5 33.5 L 570.5 33.5 L 570.5 283.5 L 70.5 283.5 L 70.5 33.5 Z"/></clipPath><clipPath id="PdHfvRolzqrE"><path fill="none" stroke="none" d="M 70.5 33.5 L 570.5 33.5 L 570.5 283.5 L 70.5 283.5 L 70.5 33.5 Z"/></clipPath><clipPath id="RBekLGcNfUTK"><path fill="none" stroke="none" d="M 70.5 33.5 L 570.5 33.5 L 570.5 283.5 L 70.5 283.5 L 70.5 33.5 Z"/></clipPath><clipPath id="pTKMiwHwMOum"><path fill="none" stroke="none" d="M 70.5 33.5 L 570.5 33.5 L 570.5 283.5 L 70.5 283.5 L 70.5 33.5 Z"/></clipPath><clipPath id="gFZDnsywymwT"><path fill="none" stroke="none" d="M 70.5 33.5 L 570.5 33.5 L 570.5 283.5 L 70.5 283.5 L 70.5 33.5 Z"/></clipPath><clipPath id="frIHKLdtPnDu"><path fill="none" stroke="none" d="M 70.5 33.5 L 570.5 33.5 L 570.5 283.5 L 70.5 283.5 L 70.5 33.5 Z"/></clipPath><clipPath id="WMZiTLKLZqhX"><path fill="none" stroke="none" d="M 70.5 33.5 L 570.5 33.5 L 570.5 283.5 L 70.5 283.5 L 70.5 33.5 Z"/></clipPath><clipPath id="sMfbggFGOOsD"><path fill="none" stroke="none" d="M 70.5 33.5 L 570.5 33.5 L 570.5 283.5 L 70.5 283.5 L 70.5 33.5 Z"/></clipPath><clipPath id="HTTtbiydchOF"><path fill="none" stroke="none" d="M 70.5 33.5 L 570.5 33.5 L 570.5 283.5 L 70.5 283.5 L 70.5 33.5 Z"/></clipPath><clipPath id="vrRcqFbfgLZT"><path fill="none" stroke="none" d="M 70.5 33.5 L 570.5 33.5 L 570.5 283.5 L 70.5 283.5 L 70.5 33.5 Z"/></clipPath><clipPath id="GJVDLgAOwAAR"><path fill="none" stroke="none" d="M 70.5 33.5 L 570.5 33.5 L 570.5 283.5 L 70.5 283.5 L 70.5 33.5 Z"/></clipPath><clipPath id="bbBdrmOVTegg"><path fill="none" stroke="none" d="M 70.5 33.5 L 570.5 33.5 L 570.5 283.5 L 70.5 283.5 L 70.5 33.5 Z"/></clipPath><clipPath id="NTktVeMbcXKz"><path fill="none" stroke="none" d="M 70.5 33.5 L 570.5 33.5 L 570.5 283.5 L 70.5 283.5 L 70.5 33.5 Z"/></clipPath><clipPath id="iVRlmanuDHWf"><path fill="none" stroke="none" d="M 70.5 33.5 L 570.5 33.5 L 570.5 283.5 L 70.5 283.5 L 70.5 33.5 Z"/></clipPath><clipPath id="uzSiefXPBbMi"><path fill="none" stroke="none" d="M 70.5 33.5 L 570.5 33.5 L 570.5 283.5 L 70.5 283.5 L 70.5 33.5 Z"/></clipPath><clipPath id="gupfzZhWSOtT"><path fill="none" stroke="none" d="M 70.5 33.5 L 570.5 33.5 L 570.5 283.5 L 70.5 283.5 L 70.5 33.5 Z"/></clipPath><clipPath id="ayLolspJEUSs"><path fill="none" stroke="none" d="M 70.5 33.5 L 570.5 33.5 L 570.5 283.5 L 70.5 283.5 L 70.5 33.5 Z"/></clipPath><clipPath id="FEGIuJJfpwEa"><path fill="none" stroke="none" d="M 70.5 33.5 L 570.5 33.5 L 570.5 283.5 L 70.5 283.5 L 70.5 33.5 Z"/></clipPath><clipPath id="KtqdaMTOiXVV"><path fill="none" stroke="none" d="M 70.5 33.5 L 570.5 33.5 L 570.5 283.5 L 70.5 283.5 L 70.5 33.5 Z"/></clipPath></defs><path fill="none" stroke="#e5e5e5" paint-order="fill" d="M 70.5 33.5 L 570.5 33.5 L 570.5 283.5 L 70.5 283.5 L 70.5 33.5 Z" stroke-linejoin="bevel" stroke-miterlimit="10"/><path fill="none" stroke="black" paint-order="fill" d="M 332.46172248803487 33.5 L 332.46172248803487 283.5" stroke-linejoin="bevel" stroke-miterlimit="10" stroke-width="3" stroke-dasharray="6" clip-path="url(#ssDvpkVqregp)"/><path fill="none" stroke="#9467bd" paint-order="fill" d="M 93.2272720336914 108.5688705444336 L 117.15071868896484 94.79476928710938 L 141.07415771484375 101.68181610107422 L 164.9976043701172 109.94628143310547 L 188.92105102539062 97.5495834350586 L 212.84449768066406 87.90771484375 L 236.7679443359375 90.66253662109375 L 260.6913757324219 97.5495834350586 L 284.6148376464844 76.888427734375 L 308.53826904296875 93.4173583984375" stroke-linejoin="bevel" stroke-miterlimit="10" stroke-width="2" clip-path="url(#mFTTgVhDTHFe)"/><path fill="none" stroke="#9467bd" paint-order="fill" d="M 93.2272720336914 108.5688705444336 L 117.15071868896484 94.79476928710938 L 141.07415771484375 101.68181610107422 L 164.9976043701172 109.94628143310547 L 188.92105102539062 97.5495834350586 L 212.84449768066406 87.90771484375 L 236.7679443359375 90.66253662109375 L 260.6913757324219 97.5495834350586 L 284.6148376464844 76.888427734375 L 308.53826904296875 93.4173583984375" stroke-linejoin="bevel" stroke-miterlimit="10" stroke-width="2" stroke-dasharray="6" clip-path="url(#eAUycqzgbXMN)"/><path fill="none" stroke="#30a2da" paint-order="fill" d="M 308.53826904296875 93.4173583984375 L 332.46173095703125 104.43663787841797 L 356.3851623535156 87.90771484375 L 380.3086242675781 89.28512573242188 L 404.2320556640625 120.96556854248047 L 428.155517578125 96.17217254638672 L 452.0789489746094 75.51101684570312 L 476.00238037109375 103.0592269897461 L 499.92584228515625 61.736915588378906 L 523.8493041992188 93.4173583984375 L 547.772705078125 78.26583862304688" stroke-linejoin="bevel" stroke-miterlimit="10" stroke-width="2" clip-path="url(#PdHfvRolzqrE)"/><path fill="none" stroke="#30a2da" paint-order="fill" d="M 332.46173095703125 102.23278045654297 L 356.3851623535156 99.7534408569336 L 380.3086242675781 97.27410125732422 L 404.2320556640625 94.79476928710938 L 428.155517578125 92.3154296875 L 452.0789489746094 89.83609008789062 L 476.00238037109375 87.35675048828125 L 499.92584228515625 84.87741088867188 L 523.8493041992188 82.3980712890625 L 547.772705078125 79.91873168945312" stroke-linejoin="bevel" stroke-miterlimit="10" stroke-width="2" stroke-dasharray="6" clip-path="url(#RBekLGcNfUTK)"/><path fill="none" stroke="#fc4f30" paint-order="fill" d="M 308.53826904296875 93.4173583984375 L 332.46173095703125 71.3787841796875 L 356.3851623535156 56.227272033691406 L 380.3086242675781 87.90771484375 L 404.2320556640625 111.32369232177734 L 428.155517578125 90.66253662109375 L 452.0789489746094 112.70110321044922 L 476.00238037109375 98.92699432373047 L 499.92584228515625 97.5495834350586 L 523.8493041992188 90.66253662109375 L 547.772705078125 118.21074676513672" stroke-linejoin="bevel" stroke-miterlimit="10" stroke-width="2" clip-path="url(#pTKMiwHwMOum)"/><path fill="none" stroke="#fc4f30" paint-order="fill" d="M 332.46173095703125 74.58439636230469 L 356.3851623535156 78.80010986328125 L 380.3086242675781 83.01581573486328 L 404.2320556640625 87.23152923583984 L 428.155517578125 91.4472427368164 L 452.0789489746094 95.66294860839844 L 476.00238037109375 99.878662109375 L 499.92584228515625 104.09437561035156 L 523.8493041992188 108.3100814819336 L 547.772705078125 112.52579498291016" stroke-linejoin="bevel" stroke-miterlimit="10" stroke-width="2" stroke-dasharray="6" clip-path="url(#gFZDnsywymwT)"/><path fill="none" stroke="rgb(128,128,128)" paint-order="fill" d="M 93.2272720336914 105.81404876708984 L 117.15071868896484 70.00138092041016 L 141.07415771484375 86.53030395507812 L 164.9976043701172 81.02066040039062 L 188.92105102539062 97.5495834350586 L 212.84449768066406 92.03994750976562 L 236.7679443359375 67.2465591430664 L 260.6913757324219 97.5495834350586 L 284.6148376464844 71.3787841796875 L 308.53826904296875 70.00138092041016" stroke-opacity="0.7490196078431373" stroke-linejoin="bevel" stroke-miterlimit="10" clip-path="url(#frIHKLdtPnDu)"/><path fill="none" stroke="grey" paint-order="fill" d="M 308.53826904296875 70.00138092041016 L 332.46173095703125 74.13360595703125 L 356.3851623535156 63.11432647705078 L 380.3086242675781 107.19145965576172 L 404.2320556640625 79.64324951171875 L 428.155517578125 71.3787841796875 L 452.0789489746094 122.34297180175781 L 476.00238037109375 85.15289306640625 L 499.92584228515625 96.17217254638672 L 523.8493041992188 74.13360595703125 L 547.772705078125 97.5495834350586" stroke-linejoin="bevel" stroke-miterlimit="10" stroke-width="0.5" clip-path="url(#WMZiTLKLZqhX)"/><path fill="none" stroke="grey" paint-order="fill" d="M 308.53826904296875 70.00138092041016 L 332.46173095703125 92.03994750976562 L 356.3851623535156 90.66253662109375 L 380.3086242675781 79.64324951171875 L 404.2320556640625 72.75619506835938 L 428.155517578125 74.13360595703125 L 452.0789489746094 83.77548217773438 L 476.00238037109375 97.5495834350586 L 499.92584228515625 134.7396697998047 L 523.8493041992188 103.0592269897461 L 547.772705078125 89.28512573242188" stroke-linejoin="bevel" stroke-miterlimit="10" stroke-width="0.5" clip-path="url(#sMfbggFGOOsD)"/><path fill="none" stroke="rgb(128,128,128)" paint-order="fill" d="M 93.2272720336914 89.28512573242188 L 117.15071868896484 93.4173583984375 L 141.07415771484375 103.0592269897461 L 164.9976043701172 82.3980712890625 L 188.92105102539062 82.3980712890625 L 212.84449768066406 82.3980712890625 L 236.7679443359375 89.28512573242188 L 260.6913757324219 81.02066040039062 L 284.6148376464844 82.3980712890625 L 308.53826904296875 125.09779357910156" stroke-opacity="0.7490196078431373" stroke-linejoin="bevel" stroke-miterlimit="10" clip-path="url(#HTTtbiydchOF)"/><path fill="none" stroke="grey" paint-order="fill" d="M 308.53826904296875 125.09779357910156 L 332.46173095703125 89.28512573242188 L 356.3851623535156 89.28512573242188 L 380.3086242675781 76.888427734375 L 404.2320556640625 103.0592269897461 L 428.155517578125 82.3980712890625 L 452.0789489746094 87.90771484375 L 476.00238037109375 115.45592498779297 L 499.92584228515625 111.32369232177734 L 523.8493041992188 94.79476928710938 L 547.772705078125 93.4173583984375" stroke-linejoin="bevel" stroke-miterlimit="10" stroke-width="0.5" clip-path="url(#vrRcqFbfgLZT)"/><path fill="none" stroke="grey" paint-order="fill" d="M 308.53826904296875 125.09779357910156 L 332.46173095703125 93.4173583984375 L 356.3851623535156 98.92699432373047 L 380.3086242675781 79.64324951171875 L 404.2320556640625 96.17217254638672 L 428.155517578125 86.53030395507812 L 452.0789489746094 71.3787841796875 L 476.00238037109375 109.94628143310547 L 499.92584228515625 103.0592269897461 L 523.8493041992188 90.66253662109375 L 547.772705078125 118.21074676513672" stroke-linejoin="bevel" stroke-miterlimit="10" stroke-width="0.5" clip-path="url(#GJVDLgAOwAAR)"/><path fill="none" stroke="rgb(128,128,128)" paint-order="fill" d="M 93.2272720336914 65.86914825439453 L 117.15071868896484 123.72038269042969 L 141.07415771484375 100.30440521240234 L 164.9976043701172 101.68181610107422 L 188.92105102539062 94.79476928710938 L 212.84449768066406 109.94628143310547 L 236.7679443359375 72.75619506835938 L 260.6913757324219 78.26583862304688 L 284.6148376464844 104.43663787841797 L 308.53826904296875 93.4173583984375" stroke-opacity="0.7490196078431373" stroke-linejoin="bevel" stroke-miterlimit="10" clip-path="url(#bbBdrmOVTegg)"/><path fill="none" stroke="grey" paint-order="fill" d="M 308.53826904296875 93.4173583984375 L 332.46173095703125 100.30440521240234 L 356.3851623535156 83.77548217773438 L 380.3086242675781 71.3787841796875 L 404.2320556640625 116.83333587646484 L 428.155517578125 98.92699432373047 L 452.0789489746094 83.77548217773438 L 476.00238037109375 74.13360595703125 L 499.92584228515625 115.45592498779297 L 523.8493041992188 104.43663787841797 L 547.772705078125 86.53030395507812" stroke-linejoin="bevel" stroke-miterlimit="10" stroke-width="0.5" clip-path="url(#NTktVeMbcXKz)"/><path fill="none" stroke="grey" paint-order="fill" d="M 308.53826904296875 93.4173583984375 L 332.46173095703125 85.15289306640625 L 356.3851623535156 116.83333587646484 L 380.3086242675781 126.47520446777344 L 404.2320556640625 114.0785140991211 L 428.155517578125 72.75619506835938 L 452.0789489746094 97.5495834350586 L 476.00238037109375 82.3980712890625 L 499.92584228515625 103.0592269897461 L 523.8493041992188 81.02066040039062 L 547.772705078125 97.5495834350586" stroke-linejoin="bevel" stroke-miterlimit="10" stroke-width="0.5" clip-path="url(#iVRlmanuDHWf)"/><path fill="none" stroke="rgb(128,128,128)" paint-order="fill" d="M 93.2272720336914 97.5495834350586 L 117.15071868896484 83.77548217773438 L 141.07415771484375 104.43663787841797 L 164.9976043701172 105.81404876708984 L 188.92105102539062 115.45592498779297 L 212.84449768066406 89.28512573242188 L 236.7679443359375 76.888427734375 L 260.6913757324219 86.53030395507812 L 284.6148376464844 98.92699432373047 L 308.53826904296875 70.00138092041016" stroke-opacity="0.7490196078431373" stroke-linejoin="bevel" stroke-miterlimit="10" clip-path="url(#uzSiefXPBbMi)"/><path fill="none" stroke="grey" paint-order="fill" d="M 308.53826904296875 70.00138092041016 L 332.46173095703125 114.0785140991211 L 356.3851623535156 122.34297180175781 L 380.3086242675781 93.4173583984375 L 404.2320556640625 83.77548217773438 L 428.155517578125 86.53030395507812 L 452.0789489746094 65.86914825439453 L 476.00238037109375 78.26583862304688 L 499.92584228515625 85.15289306640625 L 523.8493041992188 86.53030395507812 L 547.772705078125 116.83333587646484" stroke-linejoin="bevel" stroke-miterlimit="10" stroke-width="0.5" clip-path="url(#gupfzZhWSOtT)"/><path fill="none" stroke="grey" paint-order="fill" d="M 308.53826904296875 70.00138092041016 L 332.46173095703125 79.64324951171875 L 356.3851623535156 97.5495834350586 L 380.3086242675781 109.94628143310547 L 404.2320556640625 92.03994750976562 L 428.155517578125 70.00138092041016 L 452.0789489746094 97.5495834350586 L 476.00238037109375 100.30440521240234 L 499.92584228515625 89.28512573242188 L 523.8493041992188 107.19145965576172 L 547.772705078125 90.66253662109375" stroke-linejoin="bevel" stroke-miterlimit="10" stroke-width="0.5" clip-path="url(#ayLolspJEUSs)"/><path fill="none" stroke="black" paint-order="fill" d="M 70.5 283.5 L 570.5 283.5" stroke-linejoin="bevel" stroke-miterlimit="10"/><path fill="none" stroke="black" paint-order="fill" d="M 93.5 289.5 L 93.5 281.5 M 212.5 289.5 L 212.5 281.5 M 332.5 289.5 L 332.5 281.5 M 452.5 289.5 L 452.5 281.5" stroke-linejoin="bevel" stroke-miterlimit="10"/><path fill="none" stroke="black" paint-order="fill" d="M 93.5 287.5 L 93.5 283.5 M 117.5 287.5 L 117.5 283.5 M 141.5 287.5 L 141.5 283.5 M 164.5 287.5 L 164.5 283.5 M 188.5 287.5 L 188.5 283.5 M 212.5 287.5 L 212.5 283.5 M 236.5 287.5 L 236.5 283.5 M 260.5 287.5 L 260.5 283.5 M 284.5 287.5 L 284.5 283.5 M 308.5 287.5 L 308.5 283.5 M 332.5 287.5 L 332.5 283.5 M 356.5 287.5 L 356.5 283.5 M 380.5 287.5 L 380.5 283.5 M 404.5 287.5 L 404.5 283.5 M 428.5 287.5 L 428.5 283.5 M 452.5 287.5 L 452.5 283.5 M 476.5 287.5 L 476.5 283.5 M 499.5 287.5 L 499.5 283.5 M 523.5 287.5 L 523.5 283.5 M 547.5 287.5 L 547.5 283.5" stroke-linejoin="bevel" stroke-miterlimit="10"/><text fill="#444444" stroke="none" font-family="helvetica" font-size="10pt" font-style="normal" font-weight="normal" text-decoration="normal" x="79.36060523986816" y="304" text-anchor="start" dominant-baseline="alphabetic" transform="matrix(1, 0, 0, 1, 0.5, 0.5)">2025</text><text fill="none" stroke="rgb(0,0,0)" font-family="helvetica" font-size="10pt" font-style="normal" font-weight="normal" text-decoration="normal" x="79.36060523986816" y="304" text-anchor="start" dominant-baseline="alphabetic" transform="matrix(1, 0, 0, 1, 0.5, 0.5)" stroke-opacity="0" stroke-linejoin="bevel" stroke-miterlimit="10">2025</text><text fill="#444444" stroke="none" font-family="helvetica" font-size="10pt" font-style="normal" font-weight="normal" text-decoration="normal" x="198.97783088684082" y="304" text-anchor="start" dominant-baseline="alphabetic" transform="matrix(1, 0, 0, 1, 0.5, 0.5)">2030</text><text fill="none" stroke="rgb(0,0,0)" font-family="helvetica" font-size="10pt" font-style="normal" font-weight="normal" text-decoration="normal" x="198.97783088684082" y="304" text-anchor="start" dominant-baseline="alphabetic" transform="matrix(1, 0, 0, 1, 0.5, 0.5)" stroke-opacity="0" stroke-linejoin="bevel" stroke-miterlimit="10">2030</text><text fill="#444444" stroke="none" font-family="helvetica" font-size="10pt" font-style="normal" font-weight="normal" text-decoration="normal" x="318.595064163208" y="304" text-anchor="start" dominant-baseline="alphabetic" transform="matrix(1, 0, 0, 1, 0.5, 0.5)">2035</text><text fill="none" stroke="rgb(0,0,0)" font-family="helvetica" font-size="10pt" font-style="normal" font-weight="normal" text-decoration="normal" x="318.595064163208" y="304" text-anchor="start" dominant-baseline="alphabetic" transform="matrix(1, 0, 0, 1, 0.5, 0.5)" stroke-opacity="0" stroke-linejoin="bevel" stroke-miterlimit="10">2035</text><text fill="#444444" stroke="none" font-family="helvetica" font-size="10pt" font-style="normal" font-weight="normal" text-decoration="normal" x="438.21228218078613" y="304" text-anchor="start" dominant-baseline="alphabetic" transform="matrix(1, 0, 0, 1, 0.5, 0.5)">2040</text><text fill="none" stroke="rgb(0,0,0)" font-family="helvetica" font-size="10pt" font-style="normal" font-weight="normal" text-decoration="normal" x="438.21228218078613" y="304" text-anchor="start" dominant-baseline="alphabetic" transform="matrix(1, 0, 0, 1, 0.5, 0.5)" stroke-opacity="0" stroke-linejoin="bevel" stroke-miterlimit="10">2040</text><text fill="#444444" stroke="none" font-family="helvetica" font-size="12pt" font-style="normal" font-weight="normal" text-decoration="normal" x="305.3166666030884" y="327" text-anchor="start" dominant-baseline="alphabetic" transform="matrix(1, 0, 0, 1, 0.5, 0.5)">Year</text><text fill="none" stroke="rgb(0,0,0)" font-family="helvetica" font-size="12pt" font-style="normal" font-weight="normal" text-decoration="normal" x="305.3166666030884" y="327" text-anchor="start" dominant-baseline="alphabetic" transform="matrix(1, 0, 0, 1, 0.5, 0.5)" stroke-opacity="0" stroke-linejoin="bevel" stroke-miterlimit="10">Year</text><path fill="none" stroke="black" paint-order="fill" d="M 70.5 283.5 L 70.5 33.5" stroke-linejoin="bevel" stroke-miterlimit="10"/><path fill="none" stroke="black" paint-order="fill" d="M 64.5 283.5 L 72.5 283.5 M 64.5 214.5 L 72.5 214.5 M 64.5 145.5 L 72.5 145.5 M 64.5 76.5 L 72.5 76.5" stroke-linejoin="bevel" stroke-miterlimit="10"/><path fill="none" stroke="black" paint-order="fill" d="M 66.5 283.5 L 70.5 283.5 M 66.5 269.5 L 70.5 269.5 M 66.5 255.5 L 70.5 255.5 M 66.5 242.5 L 70.5 242.5 M 66.5 228.5 L 70.5 228.5 M 66.5 214.5 L 70.5 214.5 M 66.5 200.5 L 70.5 200.5 M 66.5 187.5 L 70.5 187.5 M 66.5 173.5 L 70.5 173.5 M 66.5 159.5 L 70.5 159.5 M 66.5 145.5 L 70.5 145.5 M 66.5 131.5 L 70.5 131.5 M 66.5 118.5 L 70.5 118.5 M 66.5 104.5 L 70.5 104.5 M 66.5 90.5 L 70.5 90.5 M 66.5 76.5 L 70.5 76.5 M 66.5 63.5 L 70.5 63.5 M 66.5 49.5 L 70.5 49.5 M 66.5 35.5 L 70.5 35.5" stroke-linejoin="bevel" stroke-miterlimit="10"/><text fill="#444444" stroke="none" font-family="helvetica" font-size="10pt" font-style="normal" font-weight="normal" text-decoration="normal" x="52.31666660308838" y="288" text-anchor="start" dominant-baseline="alphabetic" transform="matrix(1, 0, 0, 1, 0.5, 0.5)">0</text><text fill="none" stroke="rgb(0,0,0)" font-family="helvetica" font-size="10pt" font-style="normal" font-weight="normal" text-decoration="normal" x="52.31666660308838" y="288" text-anchor="start" dominant-baseline="alphabetic" transform="matrix(1, 0, 0, 1, 0.5, 0.5)" stroke-opacity="0" stroke-linejoin="bevel" stroke-miterlimit="10">0</text><text fill="#444444" stroke="none" font-family="helvetica" font-size="10pt" font-style="normal" font-weight="normal" text-decoration="normal" x="45.63333320617676" y="219.1294708251953" text-anchor="start" dominant-baseline="alphabetic" transform="matrix(1, 0, 0, 1, 0.5, 0.5)">50</text><text fill="none" stroke="rgb(0,0,0)" font-family="helvetica" font-size="10pt" font-style="normal" font-weight="normal" text-decoration="normal" x="45.63333320617676" y="219.1294708251953" text-anchor="start" dominant-baseline="alphabetic" transform="matrix(1, 0, 0, 1, 0.5, 0.5)" stroke-opacity="0" stroke-linejoin="bevel" stroke-miterlimit="10">50</text><text fill="#444444" stroke="none" font-family="helvetica" font-size="10pt" font-style="normal" font-weight="normal" text-decoration="normal" x="38.95000076293945" y="150.2589569091797" text-anchor="start" dominant-baseline="alphabetic" transform="matrix(1, 0, 0, 1, 0.5, 0.5)">100</text><text fill="none" stroke="rgb(0,0,0)" font-family="helvetica" font-size="10pt" font-style="normal" font-weight="normal" text-decoration="normal" x="38.95000076293945" y="150.2589569091797" text-anchor="start" dominant-baseline="alphabetic" transform="matrix(1, 0, 0, 1, 0.5, 0.5)" stroke-opacity="0" stroke-linejoin="bevel" stroke-miterlimit="10">100</text><text fill="#444444" stroke="none" font-family="helvetica" font-size="10pt" font-style="normal" font-weight="normal" text-decoration="normal" x="38.95000076293945" y="81.388427734375" text-anchor="start" dominant-baseline="alphabetic" transform="matrix(1, 0, 0, 1, 0.5, 0.5)">150</text><text fill="none" stroke="rgb(0,0,0)" font-family="helvetica" font-size="10pt" font-style="normal" font-weight="normal" text-decoration="normal" x="38.95000076293945" y="81.388427734375" text-anchor="start" dominant-baseline="alphabetic" transform="matrix(1, 0, 0, 1, 0.5, 0.5)" stroke-opacity="0" stroke-linejoin="bevel" stroke-miterlimit="10">150</text><text fill="#444444" stroke="none" font-family="helvetica" font-size="12pt" font-style="normal" font-weight="normal" text-decoration="normal" x="-65.25833511352539" y="154" text-anchor="start" dominant-baseline="alphabetic" transform="matrix(6.123233995736766e-17, -1, 1, 6.123233995736766e-17, -126.54999923706055, 189.45000076293945)">Days suitable for transmission</text><text fill="none" stroke="rgb(0,0,0)" font-family="helvetica" font-size="12pt" font-style="normal" font-weight="normal" text-decoration="normal" x="-65.25833511352539" y="154" text-anchor="start" dominant-baseline="alphabetic" transform="matrix(6.123233995736766e-17, -1, 1, 6.123233995736766e-17, -126.54999923706055, 189.45000076293945)" stroke-opacity="0" stroke-linejoin="bevel" stroke-miterlimit="10">Days suitable for transmission</text><path fill="rgb(255,255,255)" stroke="rgb(229,229,229)" paint-order="fill" d="M 477.0333251953125 208.5 L 560.4999847412109 208.5 L 560.4999847412109 273.5 L 477.0333251953125 273.5 L 477.0333251953125 208.5 Z" fill-opacity="0.9490196078431372" clip-path="url(#FEGIuJJfpwEa)" stroke-opacity="0.5019607843137255" stroke-linejoin="bevel" stroke-miterlimit="10"/><g clip-path="url(#FEGIuJJfpwEa)"><g transform="matrix(1, 0, 0, 1, 487.5333251953125, 219)"><path fill="none" stroke="#30a2da" paint-order="fill" d="M 0.5 10.5 L 20.5 10.5" stroke-linejoin="bevel" stroke-miterlimit="10" stroke-width="2"/></g></g><g clip-path="url(#FEGIuJJfpwEa)"><text fill="#444444" stroke="none" font-family="helvetica" font-size="13px" font-style="normal" font-weight="normal" text-decoration="normal" x="512.5333251953125" y="233.5" text-anchor="start" dominant-baseline="alphabetic" transform="matrix(1, 0, 0, 1, 0.5, 0.5)">ID 001</text></g><g clip-path="url(#FEGIuJJfpwEa)"><text fill="none" stroke="rgb(0,0,0)" font-family="helvetica" font-size="13px" font-style="normal" font-weight="normal" text-decoration="normal" x="512.5333251953125" y="233.5" text-anchor="start" dominant-baseline="alphabetic" transform="matrix(1, 0, 0, 1, 0.5, 0.5)" stroke-opacity="0" stroke-linejoin="bevel" stroke-miterlimit="10">ID 001</text></g><g clip-path="url(#FEGIuJJfpwEa)"><g transform="matrix(1, 0, 0, 1, 487.5333251953125, 242)"><path fill="none" stroke="#fc4f30" paint-order="fill" d="M 0.5 10.5 L 20.5 10.5" stroke-linejoin="bevel" stroke-miterlimit="10" stroke-width="2"/></g></g><g clip-path="url(#FEGIuJJfpwEa)"><text fill="#444444" stroke="none" font-family="helvetica" font-size="13px" font-style="normal" font-weight="normal" text-decoration="normal" x="512.5333251953125" y="256.5" text-anchor="start" dominant-baseline="alphabetic" transform="matrix(1, 0, 0, 1, 0.5, 0.5)">ID 006</text></g><g clip-path="url(#FEGIuJJfpwEa)"><text fill="none" stroke="rgb(0,0,0)" font-family="helvetica" font-size="13px" font-style="normal" font-weight="normal" text-decoration="normal" x="512.5333251953125" y="256.5" text-anchor="start" dominant-baseline="alphabetic" transform="matrix(1, 0, 0, 1, 0.5, 0.5)" stroke-opacity="0" stroke-linejoin="bevel" stroke-miterlimit="10">ID 006</text></g><text fill="black" stroke="none" font-family="helvetica" font-size="14pt" font-style="normal" font-weight="normal" text-decoration="normal" x="0" y="18" text-anchor="start" dominant-baseline="alphabetic" transform="matrix(1, 0, 0, 1, 5.5, 5.5)">D. Santiago de Chile</text><text fill="none" stroke="rgb(0,0,0)" font-family="helvetica" font-size="14pt" font-style="normal" font-weight="normal" text-decoration="normal" x="0" y="18" text-anchor="start" dominant-baseline="alphabetic" transform="matrix(1, 0, 0, 1, 5.5, 5.5)" stroke-opacity="0" stroke-linejoin="bevel" stroke-miterlimit="10">D. Santiago de Chile</text></svg>