<svg version="1.1" xmlns="http://www.w3.org/2000/svg" width="600" height="334"><defs><clipPath id="HZskyGuKZXsn"><path fill="none" stroke="none" d="M 70.5 33.5 L 570.5 33.5 L 570.5 283.5 L 70.5 283.5 L 70.5 33.5 Z"/></clipPath><clipPath id="XSTSJiLhqIQH"><path fill="none" stroke="none" d="M 70.5 33.5 L 570.5 33.5 L 570.5 283.5 L 70.5 283.5 L 70.5 33.5 Z"/></clipPath><clipPath id="WipBsfudCOIM"><path fill="none" stroke="none" d="M 70.5 33.5 L 570.5 33.5 L 570.5 283.5 L 70.5 283.5 L 70.5 33.5 Z"/></clipPath><clipPath id="FakrMtcTXDPb"><path fill="none" stroke="none" d="M 70.5 33.5 L 570.5 33.5 L 570.5 283.5 L 70.5 283.5 L 70.5 33.5 Z"/></clipPath><clipPath id="GFKTIurblwzh"><path fill="none" stroke="none" d="M 70.5 33.5 L 570.5 33.5 L 570.5 283.5 L 70.5 283.5 L 70.5 33.5 Z"/></clipPath><clipPath id="ZXLTvtQRxNnG"><path fill="none" stroke="none" d="M 70.5 33.5 L 570.5 33.5 L 570.5 283.5 L 70.5 283.5 L 70.5 33.5 Z"/></clipPath><clipPath id="ZcyEzxZgDWRf"><path fill="none" stroke="none" d="M 70.5 33.5 L 570.5 33.5 L 570.5 283.5 L 70.5 283.5 L 70.5 33.5 Z"/></clipPath><clipPath id="oFHTCfkIcvJE"><path fill="none" stroke="none" d="M 70.5 33.5 L 570.5 33.5 L 570.5 283.5 L 70.5 283.5 L 70.5 33.5 Z"/></clipPath><clipPath id="kBXbJwEzCAPV"><path fill="none" stroke="none" d="M 70.5 33.5 L 570.5 33.5 L 570.5 283.5 L 70.5 283.5 L 70.5 33.5 Z"/></clipPath><clipPath id="SoTXTWvaTism"><path fill="none" stroke="none" d="M 70.5 33.5 L 570.5 33.5 L 570.5 283.5 L 70.5 283.5 L 70.5 33.5 Z"/></clipPath><clipPath id="MKVlUPbTdSwC"><path fill="none" stroke="none" d="M 70.5 33.5 L 570.5 33.5 L 570.5 283.5 L 70.5 283.5 L 70.5 33.5 Z"/></clipPath><clipPath id="HHDovOsOsTee"><path fill="none" stroke="none" d="M 70.5 33.5 L 570.5 33.5 L 570.5 283.5 L 70.5 283.5 L 70.5 33.5 Z"/></clipPath><clipPath id="ctryKyGfNuQu"><path fill="none" stroke="none" d="M 70.5 33.5 L 570.5 33.5 L 570.5 283.5 L 70.5 283.5 L 70.5 33.5 Z"/></clipPath><clipPath id="yxiBfRpvHKQA"><path fill="none" stroke="none" d="M 70.5 33.5 L 570.5 33.5 L 570.5 283.5 L 70.5 283.5 L 70.5 33.5 Z"/></clipPath><clipPath id="rHQzTuCWsIRg"><path fill="none" stroke="none" d="M 70.5 33.5 L 570.5 33.5 L 570.5 283.5 L 70.5 283.5 L 70.5 33.5 Z"/></clipPath><clipPath id="UPOVOuNNmMTp"><path fill="none" stroke="none" d="M 70.5 33.5 L 570.5 33.5 L 570.5 283.5 L 70.5 283.5 L 70.5 33.5 Z"/></clipPath><clipPath id="qxAzgPpEDglT"><path fill="none" stroke="none" d="M 70.5 33.5 L 570.5 33.5 L 570.5 283.5 L 70.5 283.5 L 70.5 33.5 Z"/></clipPath><clipPath id="vTOpbTCCLdVc"><path fill="none" stroke="none" d="M 70.5 33.5 L 570.5 33.5 L 570.5 283.5 L 70.5 283.5 L 70.5 33.5 Z"/></clipPath><clipPath id="RFdTASAFuVxi"><path fill="none" stroke="none" d="M 70.5 33.5 L 570.5 33.5 L 570.5 283.5 L 70.5 283.5 L 70.5 33.5 Z"/></clipPath><clipPath id="DXHuaKILembc"><path fill="none" stroke="none" d="M 70.5 33.5 L 570.5 33.5 L 570.5 283.5 L 70.5 283.5 L 70.5 33.5 Z"/></clipPath><clipPath id="wwbdNCxvoMFt"><path fill="none" stroke="none" d="M 70.5 33.5 L 570.5 33.5 L 570.5 283.5 L 70.5 283.5 L 70.5 33.5 Z"/></clipPath><clipPath id="XAWtaxepxgsW"><path fill="none" stroke="none" d="M 70.5 33.5 L 570.5 33.5 L 570.5 283.5 L 70.5 283.5 L 70.5 33.5 Z"/></clipPath><clipPath id="KeowCQNiVqAe"><path fill="none" stroke="none" d="M 70.5 33.5 L 570.5 33.5 L 570.5 283.5 L 70.5 283.5 L 70.5 33.5 Z"/></clipPath></defs><path fill="none" stroke="#e5e5e5" paint-order="fill" d="M 70.5 33.5 L 570.5 33.5 L 570.5 283.5 L 70.5 283.5 L 70.5 33.5 Z" stroke-linejoin="bevel" stroke-miterlimit="10"/><path fill="none" stroke="black" paint-order="fill" d="M 332.46172248803487 33.5 L 332.46172248803487 283.5" stroke-linejoin="bevel" stroke-miterlimit="10" stroke-width="3" stroke-dasharray="6" clip-path="url(#WipBsfudCOIM)"/><path fill="none" stroke="#9467bd" paint-order="fill" d="M 93.2272720336914 107.80690002441406 L 117.15071868896484 98.1357192993164 L 141.07415771484375 102.97130584716797 L 164.9976043701172 109.41876220703125 L 188.92105102539062 90.07640075683594 L 212.84449768066406 117.47808074951172 L 236.7679443359375 135.2085723876953 L 260.6913757324219 123.92552947998047 L 284.6148376464844 152.93907165527344 L 308.53826904296875 114.25434875488281" stroke-linejoin="bevel" stroke-miterlimit="10" stroke-width="2" clip-path="url(#FakrMtcTXDPb)"/><path fill="none" stroke="#9467bd" paint-order="fill" d="M 93.2272720336914 107.80690002441406 L 117.15071868896484 98.1357192993164 L 141.07415771484375 102.97130584716797 L 164.9976043701172 109.41876220703125 L 188.92105102539062 90.07640075683594 L 212.84449768066406 117.47808074951172 L 236.7679443359375 135.2085723876953 L 260.6913757324219 123.92552947998047 L 284.6148376464844 152.93907165527344 L 308.53826904296875 114.25434875488281" stroke-linejoin="bevel" stroke-miterlimit="10" stroke-width="2" stroke-dasharray="6" clip-path="url(#GFKTIurblwzh)"/><path fill="none" stroke="#30a2da" paint-order="fill" d="M 308.53826904296875 114.25434875488281 L 332.46173095703125 91.68826293945312 L 356.3851623535156 83.62895202636719 L 380.3086242675781 98.1357192993164 L 404.2320556640625 82.01708221435547 L 428.155517578125 91.68826293945312 L 452.0789489746094 127.14926147460938 L 476.00238037109375 144.8797607421875 L 499.92584228515625 101.35944366455078 L 523.8493041992188 130.37298583984375 L 547.772705078125 164.2221221923828" stroke-linejoin="bevel" stroke-miterlimit="10" stroke-width="2" clip-path="url(#ZXLTvtQRxNnG)"/><path fill="none" stroke="#30a2da" paint-order="fill" d="M 332.46173095703125 78.23653411865234 L 356.3851623535156 85.6315689086914 L 380.3086242675781 93.02660369873047 L 404.2320556640625 100.421630859375 L 428.155517578125 107.81666564941406 L 452.0789489746094 115.21170043945312 L 476.00238037109375 122.60673522949219 L 499.92584228515625 130.00177001953125 L 523.8493041992188 137.3968048095703 L 547.772705078125 144.79183959960938" stroke-linejoin="bevel" stroke-miterlimit="10" stroke-width="2" stroke-dasharray="6" clip-path="url(#ZcyEzxZgDWRf)"/><path fill="none" stroke="#fc4f30" paint-order="fill" d="M 308.53826904296875 114.25434875488281 L 332.46173095703125 70.73403930664062 L 356.3851623535156 185.17633056640625 L 380.3086242675781 127.14926147460938 L 404.2320556640625 107.80690002441406 L 428.155517578125 128.76112365722656 L 452.0789489746094 104.58317565917969 L 476.00238037109375 136.8204345703125 L 499.92584228515625 115.86621856689453 L 523.8493041992188 131.98484802246094 L 547.772705078125 82.01708221435547" stroke-linejoin="bevel" stroke-miterlimit="10" stroke-width="2" clip-path="url(#oFHTCfkIcvJE)"/><path fill="none" stroke="#fc4f30" paint-order="fill" d="M 332.46173095703125 126.29936981201172 L 356.3851623535156 124.69727325439453 L 380.3086242675781 123.09517669677734 L 404.2320556640625 121.49308013916016 L 428.155517578125 119.8909912109375 L 452.0789489746094 118.28889465332031 L 476.00238037109375 116.68679809570312 L 499.92584228515625 115.08470916748047 L 523.8493041992188 113.48261260986328 L 547.772705078125 111.8805160522461" stroke-linejoin="bevel" stroke-miterlimit="10" stroke-width="2" stroke-dasharray="6" clip-path="url(#kBXbJwEzCAPV)"/><path fill="none" stroke="rgb(128,128,128)" paint-order="fill" d="M 93.2272720336914 178.7288818359375 L 117.15071868896484 93.30013275146484 L 141.07415771484375 80.40522003173828 L 164.9976043701172 130.37298583984375 L 188.92105102539062 101.35944366455078 L 212.84449768066406 83.62895202636719 L 236.7679443359375 109.41876220703125 L 260.6913757324219 99.7475814819336 L 284.6148376464844 93.30013275146484 L 308.53826904296875 56.227272033691406" stroke-opacity="0.7490196078431373" stroke-linejoin="bevel" stroke-miterlimit="10" clip-path="url(#SoTXTWvaTism)"/><path fill="none" stroke="grey" paint-order="fill" d="M 308.53826904296875 56.227272033691406 L 332.46173095703125 77.1814956665039 L 356.3851623535156 102.97130584716797 L 380.3086242675781 88.46453857421875 L 404.2320556640625 85.24081420898438 L 428.155517578125 73.95777130126953 L 452.0789489746094 86.85267639160156 L 476.00238037109375 78.7933578491211 L 499.92584228515625 93.30013275146484 L 523.8493041992188 112.64248657226562 L 547.772705078125 123.92552947998047" stroke-linejoin="bevel" stroke-miterlimit="10" stroke-width="0.5" clip-path="url(#MKVlUPbTdSwC)"/><path fill="none" stroke="grey" paint-order="fill" d="M 308.53826904296875 56.227272033691406 L 332.46173095703125 88.46453857421875 L 356.3851623535156 69.12217712402344 L 380.3086242675781 109.41876220703125 L 404.2320556640625 122.31366729736328 L 428.155517578125 123.92552947998047 L 452.0789489746094 86.85267639160156 L 476.00238037109375 112.64248657226562 L 499.92584228515625 120.7018051147461 L 523.8493041992188 106.19503784179688 L 547.772705078125 82.01708221435547" stroke-linejoin="bevel" stroke-miterlimit="10" stroke-width="0.5" clip-path="url(#HHDovOsOsTee)"/><path fill="none" stroke="rgb(128,128,128)" paint-order="fill" d="M 93.2272720336914 128.76112365722656 L 117.15071868896484 114.25434875488281 L 141.07415771484375 93.30013275146484 L 164.9976043701172 77.1814956665039 L 188.92105102539062 122.31366729736328 L 212.84449768066406 86.85267639160156 L 236.7679443359375 83.62895202636719 L 260.6913757324219 90.07640075683594 L 284.6148376464844 117.47808074951172 L 308.53826904296875 61.062862396240234" stroke-opacity="0.7490196078431373" stroke-linejoin="bevel" stroke-miterlimit="10" clip-path="url(#ctryKyGfNuQu)"/><path fill="none" stroke="grey" paint-order="fill" d="M 308.53826904296875 61.062862396240234 L 332.46173095703125 98.1357192993164 L 356.3851623535156 94.91199493408203 L 380.3086242675781 90.07640075683594 L 404.2320556640625 85.24081420898438 L 428.155517578125 62.67472457885742 L 452.0789489746094 72.34590911865234 L 476.00238037109375 56.227272033691406 L 499.92584228515625 106.19503784179688 L 523.8493041992188 73.95777130126953 L 547.772705078125 106.19503784179688" stroke-linejoin="bevel" stroke-miterlimit="10" stroke-width="0.5" clip-path="url(#yxiBfRpvHKQA)"/><path fill="none" stroke="grey" paint-order="fill" d="M 308.53826904296875 61.062862396240234 L 332.46173095703125 85.24081420898438 L 356.3851623535156 102.97130584716797 L 380.3086242675781 127.14926147460938 L 404.2320556640625 101.35944366455078 L 428.155517578125 109.41876220703125 L 452.0789489746094 131.98484802246094 L 476.00238037109375 98.1357192993164 L 499.92584228515625 136.8204345703125 L 523.8493041992188 69.12217712402344 L 547.772705078125 86.85267639160156" stroke-linejoin="bevel" stroke-miterlimit="10" stroke-width="0.5" clip-path="url(#rHQzTuCWsIRg)"/><path fill="none" stroke="rgb(128,128,128)" paint-order="fill" d="M 93.2272720336914 104.58317565917969 L 117.15071868896484 82.01708221435547 L 141.07415771484375 78.7933578491211 L 164.9976043701172 117.47808074951172 L 188.92105102539062 148.10348510742188 L 212.84449768066406 106.19503784179688 L 236.7679443359375 136.8204345703125 L 260.6913757324219 61.062862396240234 L 284.6148376464844 90.07640075683594 L 308.53826904296875 78.7933578491211" stroke-opacity="0.7490196078431373" stroke-linejoin="bevel" stroke-miterlimit="10" clip-path="url(#UPOVOuNNmMTp)"/><path fill="none" stroke="grey" paint-order="fill" d="M 308.53826904296875 78.7933578491211 L 332.46173095703125 112.64248657226562 L 356.3851623535156 93.30013275146484 L 380.3086242675781 104.58317565917969 L 404.2320556640625 106.19503784179688 L 428.155517578125 117.47808074951172 L 452.0789489746094 94.91199493408203 L 476.00238037109375 112.64248657226562 L 499.92584228515625 99.7475814819336 L 523.8493041992188 127.14926147460938 L 547.772705078125 94.91199493408203" stroke-linejoin="bevel" stroke-miterlimit="10" stroke-width="0.5" clip-path="url(#qxAzgPpEDglT)"/><path fill="none" stroke="grey" paint-order="fill" d="M 308.53826904296875 78.7933578491211 L 332.46173095703125 109.41876220703125 L 356.3851623535156 75.56963348388672 L 380.3086242675781 86.85267639160156 L 404.2320556640625 114.25434875488281 L 428.155517578125 130.37298583984375 L 452.0789489746094 91.68826293945312 L 476.00238037109375 111.03062438964844 L 499.92584228515625 102.97130584716797 L 523.8493041992188 94.91199493408203 L 547.772705078125 102.97130584716797" stroke-linejoin="bevel" stroke-miterlimit="10" stroke-width="0.5" clip-path="url(#vTOpbTCCLdVc)"/><path fill="none" stroke="rgb(128,128,128)" paint-order="fill" d="M 93.2272720336914 135.2085723876953 L 117.15071868896484 101.35944366455078 L 141.07415771484375 131.98484802246094 L 164.9976043701172 98.1357192993164 L 188.92105102539062 104.58317565917969 L 212.84449768066406 104.58317565917969 L 236.7679443359375 106.19503784179688 L 260.6913757324219 67.51031494140625 L 284.6148376464844 111.03062438964844 L 308.53826904296875 86.85267639160156" stroke-opacity="0.7490196078431373" stroke-linejoin="bevel" stroke-miterlimit="10" clip-path="url(#RFdTASAFuVxi)"/><path fill="none" stroke="grey" paint-order="fill" d="M 308.53826904296875 86.85267639160156 L 332.46173095703125 83.62895202636719 L 356.3851623535156 83.62895202636719 L 380.3086242675781 77.1814956665039 L 404.2320556640625 77.1814956665039 L 428.155517578125 106.19503784179688 L 452.0789489746094 128.76112365722656 L 476.00238037109375 119.0899429321289 L 499.92584228515625 91.68826293945312 L 523.8493041992188 111.03062438964844 L 547.772705078125 102.97130584716797" stroke-linejoin="bevel" stroke-miterlimit="10" stroke-width="0.5" clip-path="url(#DXHuaKILembc)"/><path fill="none" stroke="grey" paint-order="fill" d="M 308.53826904296875 86.85267639160156 L 332.46173095703125 94.91199493408203 L 356.3851623535156 104.58317565917969 L 380.3086242675781 99.7475814819336 L 404.2320556640625 120.7018051147461 L 428.155517578125 107.80690002441406 L 452.0789489746094 98.1357192993164 L 476.00238037109375 127.14926147460938 L 499.92584228515625 119.0899429321289 L 523.8493041992188 90.07640075683594 L 547.772705078125 94.91199493408203" stroke-linejoin="bevel" stroke-miterlimit="10" stroke-width="0.5" clip-path="url(#wwbdNCxvoMFt)"/><path fill="none" stroke="black" paint-order="fill" d="M 70.5 283.5 L 570.5 283.5" stroke-linejoin="bevel" stroke-miterlimit="10"/><path fill="none" stroke="black" paint-order="fill" d="M 93.5 289.5 L 93.5 281.5 M 212.5 289.5 L 212.5 281.5 M 332.5 289.5 L 332.5 281.5 M 452.5 289.5 L 452.5 281.5" stroke-linejoin="bevel" stroke-miterlimit="10"/><path fill="none" stroke="black" paint-order="fill" d="M 93.5 287.5 L 93.5 283.5 M 117.5 287.5 L 117.5 283.5 M 141.5 287.5 L 141.5 283.5 M 164.5 287.5 L 164.5 283.5 M 188.5 287.5 L 188.5 283.5 M 212.5 287.5 L 212.5 283.5 M 236.5 287.5 L 236.5 283.5 M 260.5 287.5 L 260.5 283.5 M 284.5 287.5 L 284.5 283.5 M 308.5 287.5 L 308.5 283.5 M 332.5 287.5 L 332.5 283.5 M 356.5 287.5 L 356.5 283.5 M 380.5 287.5 L 380.5 283.5 M 404.5 287.5 L 404.5 283.5 M 428.5 287.5 L 428.5 283.5 M 452.5 287.5 L 452.5 283.5 M 476.5 287.5 L 476.5 283.5 M 499.5 287.5 L 499.5 283.5 M 523.5 287.5 L 523.5 283.5 M 547.5 287.5 L 547.5 283.5" stroke-linejoin="bevel" stroke-miterlimit="10"/><text fill="#444444" stroke="none" font-family="helvetica" font-size="10pt" font-style="normal" font-weight="normal" text-decoration="normal" x="79.36060523986816" y="304" text-anchor="start" dominant-baseline="alphabetic" transform="matrix(1, 0, 0, 1, 0.5, 0.5)">2025</text><text fill="none" stroke="rgb(0,0,0)" font-family="helvetica" font-size="10pt" font-style="normal" font-weight="normal" text-decoration="normal" x="79.36060523986816" y="304" text-anchor="start" dominant-baseline="alphabetic" transform="matrix(1, 0, 0, 1, 0.5, 0.5)" stroke-opacity="0" stroke-linejoin="bevel" stroke-miterlimit="10">2025</text><text fill="#444444" stroke="none" font-family="helvetica" font-size="10pt" font-style="normal" font-weight="normal" text-decoration="normal" x="198.97783088684082" y="304" text-anchor="start" dominant-baseline="alphabetic" transform="matrix(1, 0, 0, 1, 0.5, 0.5)">2030</text><text fill="none" stroke="rgb(0,0,0)" font-family="helvetica" font-size="10pt" font-style="normal" font-weight="normal" text-decoration="normal" x="198.97783088684082" y="304" text-anchor="start" dominant-baseline="alphabetic" transform="matrix(1, 0, 0, 1, 0.5, 0.5)" stroke-opacity="0" stroke-linejoin="bevel" stroke-miterlimit="10">2030</text><text fill="#444444" stroke="none" font-family="helvetica" font-size="10pt" font-style="normal" font-weight="normal" text-decoration="normal" x="318.595064163208" y="304" text-anchor="start" dominant-baseline="alphabetic" transform="matrix(1, 0, 0, 1, 0.5, 0.5)">2035</text><text fill="none" stroke="rgb(0,0,0)" font-family="helvetica" font-size="10pt" font-style="normal" font-weight="normal" text-decoration="normal" x="318.595064163208" y="304" text-anchor="start" dominant-baseline="alphabetic" transform="matrix(1, 0, 0, 1, 0.5, 0.5)" stroke-opacity="0" stroke-linejoin="bevel" stroke-miterlimit="10">2035</text><text fill="#444444" stroke="none" font-family="helvetica" font-size="10pt" font-style="normal" font-weight="normal" text-decoration="normal" x="438.21228218078613" y="304" text-anchor="start" dominant-baseline="alphabetic" transform="matrix(1, 0, 0, 1, 0.5, 0.5)">2040</text><text fill="none" stroke="rgb(0,0,0)" font-family="helvetica" font-size="10pt" font-style="normal" font-weight="normal" text-decoration="normal" x="438.21228218078613" y="304" text-anchor="start" dominant-baseline="alphabetic" transform="matrix(1, 0, 0, 1, 0.5, 0.5)" stroke-opacity="0" stroke-linejoin="bevel" stroke-miterlimit="10">2040</text><text fill="#444444" stroke="none" font-family="helvetica" font-size="12pt" font-style="normal" font-weight="normal" text-decoration="normal" x="305.3166666030884" y="327" text-anchor="start" dominant-baseline="alphabetic" transform="matrix(1, 0, 0, 1, 0.5, 0.5)">Year</text><text fill="none" stroke="rgb(0,0,0)" font-family="helvetica" font-size="12pt" font-style="normal" font-weight="normal" text-decoration="normal" x="305.3166666030884" y="327" text-anchor="start" dominant-baseline="alphabetic" transform="matrix(1, 0, 0, 1, 0.5, 0.5)" stroke-opacity="0" stroke-linejoin="bevel" stroke-miterlimit="10">Year</text><path fill="none" stroke="black" paint-order="fill" d="M 70.5 283.5 L 70.5 33.5" stroke-linejoin="bevel" stroke-miterlimit="10"/><path fill="none" stroke="black" paint-order="fill" d="M 64.5 283.5 L 72.5 283.5 M 64.5 251.5 L 72.5 251.5 M 64.5 219.5 L 72.5 219.5 M 64.5 186.5 L 72.5 186.5 M 64.5 154.5 L 72.5 154.5 M 64.5 122.5 L 72.5 122.5 M 64.5 90.5 L 72.5 90.5 M 64.5 57.5 L 72.5 57.5" stroke-linejoin="bevel" stroke-miterlimit="10"/><path fill="none" stroke="black" paint-order="fill" d="M 66.5 283.5 L 70.5 283.5 M 66.5 277.5 L 70.5 277.5 M 66.5 270.5 L 70.5 270.5 M 66.5 264.5 L 70.5 264.5 M 66.5 257.5 L 70.5 257.5 M 66.5 251.5 L 70.5 251.5 M 66.5 244.5 L 70.5 244.5 M 66.5 238.5 L 70.5 238.5 M 66.5 231.5 L 70.5 231.5 M 66.5 225.5 L 70.5 225.5 M 66.5 219.5 L 70.5 219.5 M 66.5 212.5 L 70.5 212.5 M 66.5 206.5 L 70.5 206.5 M 66.5 199.5 L 70.5 199.5 M 66.5 193.5 L 70.5 193.5 M 66.5 186.5 L 70.5 186.5 M 66.5 180.5 L 70.5 180.5 M 66.5 173.5 L 70.5 173.5 M 66.5 167.5 L 70.5 167.5 M 66.5 160.5 L 70.5 160.5 M 66.5 154.5 L 70.5 154.5 M 66.5 148.5 L 70.5 148.5 M 66.5 141.5 L 70.5 141.5 M 66.5 135.5 L 70.5 135.5 M 66.5 128.5 L 70.5 128.5 M 66.5 122.5 L 70.5 122.5 M 66.5 115.5 L 70.5 115.5 M 66.5 109.5 L 70.5 109.5 M 66.5 102.5 L 70.5 102.5 M 66.5 96.5 L 70.5 96.5 M 66.5 90.5 L 70.5 90.5 M 66.5 83.5 L 70.5 83.5 M 66.5 77.5 L 70.5 77.5 M 66.5 70.5 L 70.5 70.5 M 66.5 64.5 L 70.5 64.5 M 66.5 57.5 L 70.5 57.5 M 66.5 51.5 L 70.5 51.5 M 66.5 44.5 L 70.5 44.5 M 66.5 38.5 L 70.5 38.5" stroke-linejoin="bevel" stroke-miterlimit="10"/><text fill="#444444" stroke="none" font-family="helvetica" font-size="10pt" font-style="normal" font-weight="normal" text-decoration="normal" x="52.31666660308838" y="288" text-anchor="start" dominant-baseline="alphabetic" transform="matrix(1, 0, 0, 1, 0.5, 0.5)">0</text><text fill="none" stroke="rgb(0,0,0)" font-family="helvetica" font-size="10pt" font-style="normal" font-weight="normal" text-decoration="normal" x="52.31666660308838" y="288" text-anchor="start" dominant-baseline="alphabetic" transform="matrix(1, 0, 0, 1, 0.5, 0.5)" stroke-opacity="0" stroke-linejoin="bevel" stroke-miterlimit="10">0</text><text fill="#444444" stroke="none" font-family="helvetica" font-size="10pt" font-style="normal" font-weight="normal" text-decoration="normal" x="45.63333320617676" y="255.7627410888672" text-anchor="start" dominant-baseline="alphabetic" transform="matrix(1, 0, 0, 1, 0.5, 0.5)">20</text><text fill="none" stroke="rgb(0,0,0)" font-family="helvetica" font-size="10pt" font-style="normal" font-weight="normal" text-decoration="normal" x="45.63333320617676" y="255.7627410888672" text-anchor="start" dominant-baseline="alphabetic" transform="matrix(1, 0, 0, 1, 0.5, 0.5)" stroke-opacity="0" stroke-linejoin="bevel" stroke-miterlimit="10">20</text><text fill="#444444" stroke="none" font-family="helvetica" font-size="10pt" font-style="normal" font-weight="normal" text-decoration="normal" x="45.63333320617676" y="223.5254669189453" text-anchor="start" dominant-baseline="alphabetic" transform="matrix(1, 0, 0, 1, 0.5, 0.5)">40</text><text fill="none" stroke="rgb(0,0,0)" font-family="helvetica" font-size="10pt" font-style="normal" font-weight="normal" text-decoration="normal" x="45.63333320617676" y="223.5254669189453" text-anchor="start" dominant-baseline="alphabetic" transform="matrix(1, 0, 0, 1, 0.5, 0.5)" stroke-opacity="0" stroke-linejoin="bevel" stroke-miterlimit="10">40</text><text fill="#444444" stroke="none" font-family="helvetica" font-size="10pt" font-style="normal" font-weight="normal" text-decoration="normal" x="45.63333320617676" y="191.2882080078125" text-anchor="start" dominant-baseline="alphabetic" transform="matrix(1, 0, 0, 1, 0.5, 0.5)">60</text><text fill="none" stroke="rgb(0,0,0)" font-family="helvetica" font-size="10pt" font-style="normal" font-weight="normal" text-decoration="normal" x="45.63333320617676" y="191.2882080078125" text-anchor="start" dominant-baseline="alphabetic" transform="matrix(1, 0, 0, 1, 0.5, 0.5)" stroke-opacity="0" stroke-linejoin="bevel" stroke-miterlimit="10">60</text><text fill="#444444" stroke="none" font-family="helvetica" font-size="10pt" font-style="normal" font-weight="normal" text-decoration="normal" x="45.63333320617676" y="159.05093383789062" text-anchor="start" dominant-baseline="alphabetic" transform="matrix(1, 0, 0, 1, 0.5, 0.5)">80</text><text fill="none" stroke="rgb(0,0,0)" font-family="helvetica" font-size="10pt" font-style="normal" font-weight="normal" text-decoration="normal" x="45.63333320617676" y="159.05093383789062" text-anchor="start" dominant-baseline="alphabetic" transform="matrix(1, 0, 0, 1, 0.5, 0.5)" stroke-opacity="0" stroke-linejoin="bevel" stroke-miterlimit="10">80</text><text fill="#444444" stroke="none" font-family="helvetica" font-size="10pt" font-style="normal" font-weight="normal" text-decoration="normal" x="38.95000076293945" y="126.81366729736328" text-anchor="start" dominant-baseline="alphabetic" transform="matrix(1, 0, 0, 1, 0.5, 0.5)">100</text><text fill="none" stroke="rgb(0,0,0)" font-family="helvetica" font-size="10pt" font-style="normal" font-weight="normal" text-decoration="normal" x="38.95000076293945" y="126.81366729736328" text-anchor="start" dominant-baseline="alphabetic" transform="matrix(1, 0, 0, 1, 0.5, 0.5)" stroke-opacity="0" stroke-linejoin="bevel" stroke-miterlimit="10">100</text><text fill="#444444" stroke="none" font-family="helvetica" font-size="10pt" font-style="normal" font-weight="normal" text-decoration="normal" x="38.95000076293945" y="94.57640075683594" text-anchor="start" dominant-baseline="alphabetic" transform="matrix(1, 0, 0, 1, 0.5, 0.5)">120</text><text fill="none" stroke="rgb(0,0,0)" font-family="helvetica" font-size="10pt" font-style="normal" font-weight="normal" text-decoration="normal" x="38.95000076293945" y="94.57640075683594" text-anchor="start" dominant-baseline="alphabetic" transform="matrix(1, 0, 0, 1, 0.5, 0.5)" stroke-opacity="0" stroke-linejoin="bevel" stroke-miterlimit="10">120</text><text fill="#444444" stroke="none" font-family="helvetica" font-size="10pt" font-style="normal" font-weight="normal" text-decoration="normal" x="38.95000076293945" y="62.339134216308594" text-anchor="start" dominant-baseline="alphabetic" transform="matrix(1, 0, 0, 1, 0.5, 0.5)">140</text><text fill="none" stroke="rgb(0,0,0)" font-family="helvetica" font-size="10pt" font-style="normal" font-weight="normal" text-decoration="normal" x="38.95000076293945" y="62.339134216308594" text-anchor="start" dominant-baseline="alphabetic" transform="matrix(1, 0, 0, 1, 0.5, 0.5)" stroke-opacity="0" stroke-linejoin="bevel" stroke-miterlimit="10">140</text><text fill="#444444" stroke="none" font-family="helvetica" font-size="12pt" font-style="normal" font-weight="normal" text-decoration="normal" x="-65.25833511352539" y="154" text-anchor="start" dominant-baseline="alphabetic" transform="matrix(6.123233995736766e-17, -1, 1, 6.123233995736766e-17, -126.54999923706055, 189.45000076293945)">Days suitable for transmission</text><text fill="none" stroke="rgb(0,0,0)" font-family="helvetica" font-size="12pt" font-style="normal" font-weight="normal" text-decoration="normal" x="-65.25833511352539" y="154" text-anchor="start" dominant-baseline="alphabetic" transform="matrix(6.123233995736766e-17, -1, 1, 6.123233995736766e-17, -126.54999923706055, 189.45000076293945)" stroke-opacity="0" stroke-linejoin="bevel" stroke-miterlimit="10">Days suitable for transmission</text><path fill="rgb(255,255,255)" stroke="rgb(229,229,229)" paint-order="fill" d="M 477.0333251953125 208.5 L 560.4999847412109 208.5 L 560.4999847412109 273.5 L 477.0333251953125 273.5 L 477.0333251953125 208.5 Z" fill-opacity="0.9490196078431372" clip-path="url(#XAWtaxepxgsW)" stroke-opacity="0.5019607843137255" stroke-linejoin="bevel" stroke-miterlimit="10"/><g clip-path="url(#XAWtaxepxgsW)"><g transform="matrix(1, 0, 0, 1, 487.5333251953125, 219)"><path fill="none" stroke="#30a2da" paint-order="fill" d="M 0.5 10.5 L 20.5 10.5" stroke-linejoin="bevel" stroke-miterlimit="10" stroke-width="2"/></g></g><g clip-path="url(#XAWtaxepxgsW)"><text fill="#444444" stroke="none" font-family="helvetica" font-size="13px" font-style="normal" font-weight="normal" text-decoration="normal" x="512.5333251953125" y="233.5" text-anchor="start" dominant-baseline="alphabetic" transform="matrix(1, 0, 0, 1, 0.5, 0.5)">ID 001</text></g><g clip-path="url(#XAWtaxepxgsW)"><text fill="none" stroke="rgb(0,0,0)" font-family="helvetica" font-size="13px" font-style="normal" font-weight="normal" text-decoration="normal" x="512.5333251953125" y="233.5" text-anchor="start" dominant-baseline="alphabetic" transform="matrix(1, 0, 0, 1, 0.5, 0.5)" stroke-opacity="0" stroke-linejoin="bevel" stroke-miterlimit="10">ID 001</text></g><g clip-path="url(#XAWtaxepxgsW)"><g transform="matrix(1, 0, 0, 1, 487.5333251953125, 242)"><path fill="none" stroke="#fc4f30" paint-order="fill" d="M 0.5 10.5 L 20.5 10.5" stroke-linejoin="bevel" stroke-miterlimit="10" stroke-width="2"/></g></g><g clip-path="url(#XAWtaxepxgsW)"><text fill="#444444" stroke="none" font-family="helvetica" font-size="13px" font-style="normal" font-weight="normal" text-decoration="normal" x="512.5333251953125" y="256.5" text-anchor="start" dominant-baseline="alphabetic" transform="matrix(1, 0, 0, 1, 0.5, 0.5)">ID 006</text></g><g clip-path="url(#XAWtaxepxgsW)"><text fill="none" stroke="rgb(0,0,0)" font-family="helvetica" font-size="13px" font-style="normal" font-weight="normal" text-decoration="normal" x="512.5333251953125" y="256.5" text-anchor="start" dominant-baseline="alphabetic" transform="matrix(1, 0, 0, 1, 0.5, 0.5)" stroke-opacity="0" stroke-linejoin="bevel" stroke-miterlimit="10">ID 006</text></g><text fill="black" stroke="none" font-family="helvetica" font-size="14pt" font-style="normal" font-weight="normal" text-decoration="normal" x="0" y="18" text-anchor="start" dominant-baseline="alphabetic" transform="matrix(1, 0, 0, 1, 5.5, 5.5)">A. Paris</text><text fill="none" stroke="rgb(0,0,0)" font-family="helvetica" font-size="14pt" font-style="normal" font-weight="normal" text-decoration="normal" x="0" y="18" text-anchor="start" dominant-baseline="alphabetic" transform="matrix(1, 0, 0, 1, 5.5, 5.5)" stroke-opacity="0" stroke-linejoin="bevel" stroke-miterlimit="10">A. Paris</text></svg>