<svg version="1.1" xmlns="http://www.w3.org/2000/svg" width="600" height="334"><defs><clipPath id="eHdAbGZTwiMD"><path fill="none" stroke="none" d="M 70.5 33.5 L 570.5 33.5 L 570.5 283.5 L 70.5 283.5 L 70.5 33.5 Z"/></clipPath><clipPath id="ChNJOXxcIrrl"><path fill="none" stroke="none" d="M 70.5 33.5 L 570.5 33.5 L 570.5 283.5 L 70.5 283.5 L 70.5 33.5 Z"/></clipPath><clipPath id="rQBdFawlTIOL"><path fill="none" stroke="none" d="M 70.5 33.5 L 570.5 33.5 L 570.5 283.5 L 70.5 283.5 L 70.5 33.5 Z"/></clipPath><clipPath id="mifDfAhKnEEJ"><path fill="none" stroke="none" d="M 70.5 33.5 L 570.5 33.5 L 570.5 283.5 L 70.5 283.5 L 70.5 33.5 Z"/></clipPath><clipPath id="eyNdiMzComJp"><path fill="none" stroke="none" d="M 70.5 33.5 L 570.5 33.5 L 570.5 283.5 L 70.5 283.5 L 70.5 33.5 Z"/></clipPath><clipPath id="bBcunplHFJQE"><path fill="none" stroke="none" d="M 70.5 33.5 L 570.5 33.5 L 570.5 283.5 L 70.5 283.5 L 70.5 33.5 Z"/></clipPath><clipPath id="xRaxNIVGHgaG"><path fill="none" stroke="none" d="M 70.5 33.5 L 570.5 33.5 L 570.5 283.5 L 70.5 283.5 L 70.5 33.5 Z"/></clipPath><clipPath id="BVgIAHToKHfN"><path fill="none" stroke="none" d="M 70.5 33.5 L 570.5 33.5 L 570.5 283.5 L 70.5 283.5 L 70.5 33.5 Z"/></clipPath><clipPath id="fhQWPLktTDLe"><path fill="none" stroke="none" d="M 70.5 33.5 L 570.5 33.5 L 570.5 283.5 L 70.5 283.5 L 70.5 33.5 Z"/></clipPath><clipPath id="bloVVkUuRdMk"><path fill="none" stroke="none" d="M 70.5 33.5 L 570.5 33.5 L 570.5 283.5 L 70.5 283.5 L 70.5 33.5 Z"/></clipPath><clipPath id="XtQegSJPUBEI"><path fill="none" stroke="none" d="M 70.5 33.5 L 570.5 33.5 L 570.5 283.5 L 70.5 283.5 L 70.5 33.5 Z"/></clipPath><clipPath id="aSqOUDvZDTTN"><path fill="none" stroke="none" d="M 70.5 33.5 L 570.5 33.5 L 570.5 283.5 L 70.5 283.5 L 70.5 33.5 Z"/></clipPath><clipPath id="bgImEZlXrAJU"><path fill="none" stroke="none" d="M 70.5 33.5 L 570.5 33.5 L 570.5 283.5 L 70.5 283.5 L 70.5 33.5 Z"/></clipPath><clipPath id="hUQVcTaSQiJu"><path fill="none" stroke="none" d="M 70.5 33.5 L 570.5 33.5 L 570.5 283.5 L 70.5 283.5 L 70.5 33.5 Z"/></clipPath><clipPath id="XaZBkdOkroVh"><path fill="none" stroke="none" d="M 70.5 33.5 L 570.5 33.5 L 570.5 283.5 L 70.5 283.5 L 70.5 33.5 Z"/></clipPath><clipPath id="sCSfFfTLVhKI"><path fill="none" stroke="none" d="M 70.5 33.5 L 570.5 33.5 L 570.5 283.5 L 70.5 283.5 L 70.5 33.5 Z"/></clipPath><clipPath id="JEDgBmmWqIzk"><path fill="none" stroke="none" d="M 70.5 33.5 L 570.5 33.5 L 570.5 283.5 L 70.5 283.5 L 70.5 33.5 Z"/></clipPath><clipPath id="tbqVbmxRVRWr"><path fill="none" stroke="none" d="M 70.5 33.5 L 570.5 33.5 L 570.5 283.5 L 70.5 283.5 L 70.5 33.5 Z"/></clipPath><clipPath id="PTWNCJJtvNOQ"><path fill="none" stroke="none" d="M 70.5 33.5 L 570.5 33.5 L 570.5 283.5 L 70.5 283.5 L 70.5 33.5 Z"/></clipPath><clipPath id="PMNahAlQPGBM"><path fill="none" stroke="none" d="M 70.5 33.5 L 570.5 33.5 L 570.5 283.5 L 70.5 283.5 L 70.5 33.5 Z"/></clipPath><clipPath id="irCzHZvBHpnR"><path fill="none" stroke="none" d="M 70.5 33.5 L 570.5 33.5 L 570.5 283.5 L 70.5 283.5 L 70.5 33.5 Z"/></clipPath><clipPath id="ZGfdHWVODZMm"><path fill="none" stroke="none" d="M 70.5 33.5 L 570.5 33.5 L 570.5 283.5 L 70.5 283.5 L 70.5 33.5 Z"/></clipPath><clipPath id="xGiQUOHzUfOP"><path fill="none" stroke="none" d="M 70.5 33.5 L 570.5 33.5 L 570.5 283.5 L 70.5 283.5 L 70.5 33.5 Z"/></clipPath></defs><path fill="none" stroke="#e5e5e5" paint-order="fill" d="M 70.5 33.5 L 570.5 33.5 L 570.5 283.5 L 70.5 283.5 L 70.5 33.5 Z" stroke-linejoin="bevel" stroke-miterlimit="10"/><path fill="none" stroke="black" paint-order="fill" d="M 332.46172248803487 33.5 L 332.46172248803487 283.5" stroke-linejoin="bevel" stroke-miterlimit="10" stroke-width="3" stroke-dasharray="6" clip-path="url(#rQBdFawlTIOL)"/><path fill="none" stroke="#9467bd" paint-order="fill" d="M 93.2272720336914 76.95123291015625 L 117.15071868896484 87.3132095336914 L 141.07415771484375 80.40522003173828 L 164.9976043701172 82.47761535644531 L 188.92105102539062 74.87883758544922 L 212.84449768066406 92.14879608154297 L 236.7679443359375 76.26042938232422 L 260.6913757324219 88.69480895996094 L 284.6148376464844 86.62240600585938 L 308.53826904296875 73.49723815917969" stroke-linejoin="bevel" stroke-miterlimit="10" stroke-width="2" clip-path="url(#mifDfAhKnEEJ)"/><path fill="none" stroke="#9467bd" paint-order="fill" d="M 93.2272720336914 76.95123291015625 L 117.15071868896484 87.3132095336914 L 141.07415771484375 80.40522003173828 L 164.9976043701172 82.47761535644531 L 188.92105102539062 74.87883758544922 L 212.84449768066406 92.14879608154297 L 236.7679443359375 76.26042938232422 L 260.6913757324219 88.69480895996094 L 284.6148376464844 86.62240600585938 L 308.53826904296875 73.49723815917969" stroke-linejoin="bevel" stroke-miterlimit="10" stroke-width="2" stroke-dasharray="6" clip-path="url(#eyNdiMzComJp)"/><path fill="none" stroke="#30a2da" paint-order="fill" d="M 308.53826904296875 73.49723815917969 L 332.46173095703125 71.42484283447266 L 356.3851623535156 94.22119140625 L 380.3086242675781 69.35244750976562 L 404.2320556640625 88.69480895996094 L 428.155517578125 91.45800018310547 L 452.0789489746094 88.69480895996094 L 476.00238037109375 86.62240600585938 L 499.92584228515625 80.40522003173828 L 523.8493041992188 81.09602355957031 L 547.772705078125 90.76720428466797" stroke-linejoin="bevel" stroke-miterlimit="10" stroke-width="2" clip-path="url(#bBcunplHFJQE)"/><path fill="none" stroke="#30a2da" paint-order="fill" d="M 332.46173095703125 80.76946258544922 L 356.3851623535156 81.54817962646484 L 380.3086242675781 82.32689666748047 L 404.2320556640625 83.1056137084961 L 428.155517578125 83.88433837890625 L 452.0789489746094 84.66305541992188 L 476.00238037109375 85.4417724609375 L 499.92584228515625 86.22048950195312 L 523.8493041992188 86.99920654296875 L 547.772705078125 87.77792358398438" stroke-linejoin="bevel" stroke-miterlimit="10" stroke-width="2" stroke-dasharray="6" clip-path="url(#xRaxNIVGHgaG)"/><path fill="none" stroke="#fc4f30" paint-order="fill" d="M 308.53826904296875 73.49723815917969 L 332.46173095703125 82.47761535644531 L 356.3851623535156 99.7475814819336 L 380.3086242675781 97.67518615722656 L 404.2320556640625 90.76720428466797 L 428.155517578125 95.60279083251953 L 452.0789489746094 77.64202880859375 L 476.00238037109375 89.38560485839844 L 499.92584228515625 95.60279083251953 L 523.8493041992188 92.839599609375 L 547.772705078125 79.02362823486328" stroke-linejoin="bevel" stroke-miterlimit="10" stroke-width="2" clip-path="url(#BVgIAHToKHfN)"/><path fill="none" stroke="#fc4f30" paint-order="fill" d="M 332.46173095703125 93.12847900390625 L 356.3851623535156 92.45024108886719 L 380.3086242675781 91.7719955444336 L 404.2320556640625 91.09375762939453 L 428.155517578125 90.41551971435547 L 452.0789489746094 89.7372817993164 L 476.00238037109375 89.05904388427734 L 499.92584228515625 88.38080596923828 L 523.8493041992188 87.70256805419922 L 547.772705078125 87.02433013916016" stroke-linejoin="bevel" stroke-miterlimit="10" stroke-width="2" stroke-dasharray="6" clip-path="url(#fhQWPLktTDLe)"/><path fill="none" stroke="rgb(128,128,128)" paint-order="fill" d="M 93.2272720336914 76.95123291015625 L 117.15071868896484 74.87883758544922 L 141.07415771484375 83.85921478271484 L 164.9976043701172 81.09602355957031 L 188.92105102539062 81.09602355957031 L 212.84449768066406 85.24081420898438 L 236.7679443359375 81.78681945800781 L 260.6913757324219 83.85921478271484 L 284.6148376464844 76.95123291015625 L 308.53826904296875 84.55001068115234" stroke-opacity="0.7490196078431373" stroke-linejoin="bevel" stroke-miterlimit="10" clip-path="url(#bloVVkUuRdMk)"/><path fill="none" stroke="grey" paint-order="fill" d="M 308.53826904296875 84.55001068115234 L 332.46173095703125 90.07640075683594 L 356.3851623535156 95.60279083251953 L 380.3086242675781 81.09602355957031 L 404.2320556640625 90.76720428466797 L 428.155517578125 99.7475814819336 L 452.0789489746094 75.56963348388672 L 476.00238037109375 74.87883758544922 L 499.92584228515625 81.78681945800781 L 523.8493041992188 85.93161010742188 L 547.772705078125 92.14879608154297" stroke-linejoin="bevel" stroke-miterlimit="10" stroke-width="0.5" clip-path="url(#XtQegSJPUBEI)"/><path fill="none" stroke="grey" paint-order="fill" d="M 308.53826904296875 84.55001068115234 L 332.46173095703125 76.95123291015625 L 356.3851623535156 94.22119140625 L 380.3086242675781 90.07640075683594 L 404.2320556640625 85.24081420898438 L 428.155517578125 86.62240600585938 L 452.0789489746094 98.36598205566406 L 476.00238037109375 88.69480895996094 L 499.92584228515625 71.42484283447266 L 523.8493041992188 96.98439025878906 L 547.772705078125 92.14879608154297" stroke-linejoin="bevel" stroke-miterlimit="10" stroke-width="0.5" clip-path="url(#aSqOUDvZDTTN)"/><path fill="none" stroke="rgb(128,128,128)" paint-order="fill" d="M 93.2272720336914 84.55001068115234 L 117.15071868896484 71.42484283447266 L 141.07415771484375 83.16841888427734 L 164.9976043701172 87.3132095336914 L 188.92105102539062 83.85921478271484 L 212.84449768066406 88.69480895996094 L 236.7679443359375 80.40522003173828 L 260.6913757324219 81.09602355957031 L 284.6148376464844 94.22119140625 L 308.53826904296875 82.47761535644531" stroke-opacity="0.7490196078431373" stroke-linejoin="bevel" stroke-miterlimit="10" clip-path="url(#bgImEZlXrAJU)"/><path fill="none" stroke="grey" paint-order="fill" d="M 308.53826904296875 82.47761535644531 L 332.46173095703125 74.18803405761719 L 356.3851623535156 81.09602355957031 L 380.3086242675781 79.71442413330078 L 404.2320556640625 99.7475814819336 L 428.155517578125 67.2800521850586 L 452.0789489746094 95.60279083251953 L 476.00238037109375 90.76720428466797 L 499.92584228515625 79.02362823486328 L 523.8493041992188 94.91199493408203 L 547.772705078125 88.69480895996094" stroke-linejoin="bevel" stroke-miterlimit="10" stroke-width="0.5" clip-path="url(#hUQVcTaSQiJu)"/><path fill="none" stroke="grey" paint-order="fill" d="M 308.53826904296875 82.47761535644531 L 332.46173095703125 84.55001068115234 L 356.3851623535156 77.64202880859375 L 380.3086242675781 80.40522003173828 L 404.2320556640625 67.9708480834961 L 428.155517578125 85.93161010742188 L 452.0789489746094 83.16841888427734 L 476.00238037109375 82.47761535644531 L 499.92584228515625 82.47761535644531 L 523.8493041992188 79.02362823486328 L 547.772705078125 95.60279083251953" stroke-linejoin="bevel" stroke-miterlimit="10" stroke-width="0.5" clip-path="url(#XaZBkdOkroVh)"/><path fill="none" stroke="rgb(128,128,128)" paint-order="fill" d="M 93.2272720336914 92.14879608154297 L 117.15071868896484 79.02362823486328 L 141.07415771484375 75.56963348388672 L 164.9976043701172 91.45800018310547 L 188.92105102539062 85.93161010742188 L 212.84449768066406 96.29358673095703 L 236.7679443359375 96.29358673095703 L 260.6913757324219 85.24081420898438 L 284.6148376464844 92.14879608154297 L 308.53826904296875 92.14879608154297" stroke-opacity="0.7490196078431373" stroke-linejoin="bevel" stroke-miterlimit="10" clip-path="url(#sCSfFfTLVhKI)"/><path fill="none" stroke="grey" paint-order="fill" d="M 308.53826904296875 92.14879608154297 L 332.46173095703125 83.85921478271484 L 356.3851623535156 56.227272033691406 L 380.3086242675781 92.839599609375 L 404.2320556640625 80.40522003173828 L 428.155517578125 94.91199493408203 L 452.0789489746094 88.0040054321289 L 476.00238037109375 81.09602355957031 L 499.92584228515625 83.16841888427734 L 523.8493041992188 96.98439025878906 L 547.772705078125 67.2800521850586" stroke-linejoin="bevel" stroke-miterlimit="10" stroke-width="0.5" clip-path="url(#JEDgBmmWqIzk)"/><path fill="none" stroke="grey" paint-order="fill" d="M 308.53826904296875 92.14879608154297 L 332.46173095703125 81.09602355957031 L 356.3851623535156 65.20765686035156 L 380.3086242675781 99.0567855834961 L 404.2320556640625 103.20157623291016 L 428.155517578125 85.93161010742188 L 452.0789489746094 78.33282470703125 L 476.00238037109375 91.45800018310547 L 499.92584228515625 86.62240600585938 L 523.8493041992188 71.42484283447266 L 547.772705078125 85.93161010742188" stroke-linejoin="bevel" stroke-miterlimit="10" stroke-width="0.5" clip-path="url(#tbqVbmxRVRWr)"/><path fill="none" stroke="rgb(128,128,128)" paint-order="fill" d="M 93.2272720336914 71.42484283447266 L 117.15071868896484 85.24081420898438 L 141.07415771484375 79.02362823486328 L 164.9976043701172 76.26042938232422 L 188.92105102539062 86.62240600585938 L 212.84449768066406 70.04324340820312 L 236.7679443359375 86.62240600585938 L 260.6913757324219 82.47761535644531 L 284.6148376464844 93.5303955078125 L 308.53826904296875 85.24081420898438" stroke-opacity="0.7490196078431373" stroke-linejoin="bevel" stroke-miterlimit="10" clip-path="url(#PTWNCJJtvNOQ)"/><path fill="none" stroke="grey" paint-order="fill" d="M 308.53826904296875 85.24081420898438 L 332.46173095703125 67.9708480834961 L 356.3851623535156 107.34636688232422 L 380.3086242675781 78.33282470703125 L 404.2320556640625 63.135257720947266 L 428.155517578125 81.78681945800781 L 452.0789489746094 82.47761535644531 L 476.00238037109375 74.87883758544922 L 499.92584228515625 76.95123291015625 L 523.8493041992188 96.98439025878906 L 547.772705078125 73.49723815917969" stroke-linejoin="bevel" stroke-miterlimit="10" stroke-width="0.5" clip-path="url(#PMNahAlQPGBM)"/><path fill="none" stroke="grey" paint-order="fill" d="M 308.53826904296875 85.24081420898438 L 332.46173095703125 75.56963348388672 L 356.3851623535156 86.62240600585938 L 380.3086242675781 86.62240600585938 L 404.2320556640625 74.18803405761719 L 428.155517578125 92.839599609375 L 452.0789489746094 87.3132095336914 L 476.00238037109375 67.2800521850586 L 499.92584228515625 83.85921478271484 L 523.8493041992188 85.24081420898438 L 547.772705078125 96.29358673095703" stroke-linejoin="bevel" stroke-miterlimit="10" stroke-width="0.5" clip-path="url(#irCzHZvBHpnR)"/><path fill="none" stroke="black" paint-order="fill" d="M 70.5 283.5 L 570.5 283.5" stroke-linejoin="bevel" stroke-miterlimit="10"/><path fill="none" stroke="black" paint-order="fill" d="M 93.5 289.5 L 93.5 281.5 M 212.5 289.5 L 212.5 281.5 M 332.5 289.5 L 332.5 281.5 M 452.5 289.5 L 452.5 281.5" stroke-linejoin="bevel" stroke-miterlimit="10"/><path fill="none" stroke="black" paint-order="fill" d="M 93.5 287.5 L 93.5 283.5 M 117.5 287.5 L 117.5 283.5 M 141.5 287.5 L 141.5 283.5 M 164.5 287.5 L 164.5 283.5 M 188.5 287.5 L 188.5 283.5 M 212.5 287.5 L 212.5 283.5 M 236.5 287.5 L 236.5 283.5 M 260.5 287.5 L 260.5 283.5 M 284.5 287.5 L 284.5 283.5 M 308.5 287.5 L 308.5 283.5 M 332.5 287.5 L 332.5 283.5 M 356.5 287.5 L 356.5 283.5 M 380.5 287.5 L 380.5 283.5 M 404.5 287.5 L 404.5 283.5 M 428.5 287.5 L 428.5 283.5 M 452.5 287.5 L 452.5 283.5 M 476.5 287.5 L 476.5 283.5 M 499.5 287.5 L 499.5 283.5 M 523.5 287.5 L 523.5 283.5 M 547.5 287.5 L 547.5 283.5" stroke-linejoin="bevel" stroke-miterlimit="10"/><text fill="#444444" stroke="none" font-family="helvetica" font-size="10pt" font-style="normal" font-weight="normal" text-decoration="normal" x="79.36060523986816" y="304" text-anchor="start" dominant-baseline="alphabetic" transform="matrix(1, 0, 0, 1, 0.5, 0.5)">2025</text><text fill="none" stroke="rgb(0,0,0)" font-family="helvetica" font-size="10pt" font-style="normal" font-weight="normal" text-decoration="normal" x="79.36060523986816" y="304" text-anchor="start" dominant-baseline="alphabetic" transform="matrix(1, 0, 0, 1, 0.5, 0.5)" stroke-opacity="0" stroke-linejoin="bevel" stroke-miterlimit="10">2025</text><text fill="#444444" stroke="none" font-family="helvetica" font-size="10pt" font-style="normal" font-weight="normal" text-decoration="normal" x="198.97783088684082" y="304" text-anchor="start" dominant-baseline="alphabetic" transform="matrix(1, 0, 0, 1, 0.5, 0.5)">2030</text><text fill="none" stroke="rgb(0,0,0)" font-family="helvetica" font-size="10pt" font-style="normal" font-weight="normal" text-decoration="normal" x="198.97783088684082" y="304" text-anchor="start" dominant-baseline="alphabetic" transform="matrix(1, 0, 0, 1, 0.5, 0.5)" stroke-opacity="0" stroke-linejoin="bevel" stroke-miterlimit="10">2030</text><text fill="#444444" stroke="none" font-family="helvetica" font-size="10pt" font-style="normal" font-weight="normal" text-decoration="normal" x="318.595064163208" y="304" text-anchor="start" dominant-baseline="alphabetic" transform="matrix(1, 0, 0, 1, 0.5, 0.5)">2035</text><text fill="none" stroke="rgb(0,0,0)" font-family="helvetica" font-size="10pt" font-style="normal" font-weight="normal" text-decoration="normal" x="318.595064163208" y="304" text-anchor="start" dominant-baseline="alphabetic" transform="matrix(1, 0, 0, 1, 0.5, 0.5)" stroke-opacity="0" stroke-linejoin="bevel" stroke-miterlimit="10">2035</text><text fill="#444444" stroke="none" font-family="helvetica" font-size="10pt" font-style="normal" font-weight="normal" text-decoration="normal" x="438.21228218078613" y="304" text-anchor="start" dominant-baseline="alphabetic" transform="matrix(1, 0, 0, 1, 0.5, 0.5)">2040</text><text fill="none" stroke="rgb(0,0,0)" font-family="helvetica" font-size="10pt" font-style="normal" font-weight="normal" text-decoration="normal" x="438.21228218078613" y="304" text-anchor="start" dominant-baseline="alphabetic" transform="matrix(1, 0, 0, 1, 0.5, 0.5)" stroke-opacity="0" stroke-linejoin="bevel" stroke-miterlimit="10">2040</text><text fill="#444444" stroke="none" font-family="helvetica" font-size="12pt" font-style="normal" font-weight="normal" text-decoration="normal" x="305.3166666030884" y="327" text-anchor="start" dominant-baseline="alphabetic" transform="matrix(1, 0, 0, 1, 0.5, 0.5)">Year</text><text fill="none" stroke="rgb(0,0,0)" font-family="helvetica" font-size="12pt" font-style="normal" font-weight="normal" text-decoration="normal" x="305.3166666030884" y="327" text-anchor="start" dominant-baseline="alphabetic" transform="matrix(1, 0, 0, 1, 0.5, 0.5)" stroke-opacity="0" stroke-linejoin="bevel" stroke-miterlimit="10">Year</text><path fill="none" stroke="black" paint-order="fill" d="M 70.5 283.5 L 70.5 33.5" stroke-linejoin="bevel" stroke-miterlimit="10"/><path fill="none" stroke="black" paint-order="fill" d="M 64.5 283.5 L 72.5 283.5 M 64.5 248.5 L 72.5 248.5 M 64.5 214.5 L 72.5 214.5 M 64.5 179.5 L 72.5 179.5 M 64.5 145.5 L 72.5 145.5 M 64.5 110.5 L 72.5 110.5 M 64.5 76.5 L 72.5 76.5 M 64.5 41.5 L 72.5 41.5" stroke-linejoin="bevel" stroke-miterlimit="10"/><path fill="none" stroke="black" paint-order="fill" d="M 66.5 283.5 L 70.5 283.5 M 66.5 276.5 L 70.5 276.5 M 66.5 269.5 L 70.5 269.5 M 66.5 262.5 L 70.5 262.5 M 66.5 255.5 L 70.5 255.5 M 66.5 248.5 L 70.5 248.5 M 66.5 242.5 L 70.5 242.5 M 66.5 235.5 L 70.5 235.5 M 66.5 228.5 L 70.5 228.5 M 66.5 221.5 L 70.5 221.5 M 66.5 214.5 L 70.5 214.5 M 66.5 207.5 L 70.5 207.5 M 66.5 200.5 L 70.5 200.5 M 66.5 193.5 L 70.5 193.5 M 66.5 186.5 L 70.5 186.5 M 66.5 179.5 L 70.5 179.5 M 66.5 172.5 L 70.5 172.5 M 66.5 166.5 L 70.5 166.5 M 66.5 159.5 L 70.5 159.5 M 66.5 152.5 L 70.5 152.5 M 66.5 145.5 L 70.5 145.5 M 66.5 138.5 L 70.5 138.5 M 66.5 131.5 L 70.5 131.5 M 66.5 124.5 L 70.5 124.5 M 66.5 117.5 L 70.5 117.5 M 66.5 110.5 L 70.5 110.5 M 66.5 103.5 L 70.5 103.5 M 66.5 96.5 L 70.5 96.5 M 66.5 90.5 L 70.5 90.5 M 66.5 83.5 L 70.5 83.5 M 66.5 76.5 L 70.5 76.5 M 66.5 69.5 L 70.5 69.5 M 66.5 62.5 L 70.5 62.5 M 66.5 55.5 L 70.5 55.5 M 66.5 48.5 L 70.5 48.5 M 66.5 41.5 L 70.5 41.5 M 66.5 34.5 L 70.5 34.5" stroke-linejoin="bevel" stroke-miterlimit="10"/><text fill="#444444" stroke="none" font-family="helvetica" font-size="10pt" font-style="normal" font-weight="normal" text-decoration="normal" x="52.31666660308838" y="288" text-anchor="start" dominant-baseline="alphabetic" transform="matrix(1, 0, 0, 1, 0.5, 0.5)">0</text><text fill="none" stroke="rgb(0,0,0)" font-family="helvetica" font-size="10pt" font-style="normal" font-weight="normal" text-decoration="normal" x="52.31666660308838" y="288" text-anchor="start" dominant-baseline="alphabetic" transform="matrix(1, 0, 0, 1, 0.5, 0.5)" stroke-opacity="0" stroke-linejoin="bevel" stroke-miterlimit="10">0</text><text fill="#444444" stroke="none" font-family="helvetica" font-size="10pt" font-style="normal" font-weight="normal" text-decoration="normal" x="45.63333320617676" y="253.46006774902344" text-anchor="start" dominant-baseline="alphabetic" transform="matrix(1, 0, 0, 1, 0.5, 0.5)">50</text><text fill="none" stroke="rgb(0,0,0)" font-family="helvetica" font-size="10pt" font-style="normal" font-weight="normal" text-decoration="normal" x="45.63333320617676" y="253.46006774902344" text-anchor="start" dominant-baseline="alphabetic" transform="matrix(1, 0, 0, 1, 0.5, 0.5)" stroke-opacity="0" stroke-linejoin="bevel" stroke-miterlimit="10">50</text><text fill="#444444" stroke="none" font-family="helvetica" font-size="10pt" font-style="normal" font-weight="normal" text-decoration="normal" x="38.95000076293945" y="218.92015075683594" text-anchor="start" dominant-baseline="alphabetic" transform="matrix(1, 0, 0, 1, 0.5, 0.5)">100</text><text fill="none" stroke="rgb(0,0,0)" font-family="helvetica" font-size="10pt" font-style="normal" font-weight="normal" text-decoration="normal" x="38.95000076293945" y="218.92015075683594" text-anchor="start" dominant-baseline="alphabetic" transform="matrix(1, 0, 0, 1, 0.5, 0.5)" stroke-opacity="0" stroke-linejoin="bevel" stroke-miterlimit="10">100</text><text fill="#444444" stroke="none" font-family="helvetica" font-size="10pt" font-style="normal" font-weight="normal" text-decoration="normal" x="38.95000076293945" y="184.38021850585938" text-anchor="start" dominant-baseline="alphabetic" transform="matrix(1, 0, 0, 1, 0.5, 0.5)">150</text><text fill="none" stroke="rgb(0,0,0)" font-family="helvetica" font-size="10pt" font-style="normal" font-weight="normal" text-decoration="normal" x="38.95000076293945" y="184.38021850585938" text-anchor="start" dominant-baseline="alphabetic" transform="matrix(1, 0, 0, 1, 0.5, 0.5)" stroke-opacity="0" stroke-linejoin="bevel" stroke-miterlimit="10">150</text><text fill="#444444" stroke="none" font-family="helvetica" font-size="10pt" font-style="normal" font-weight="normal" text-decoration="normal" x="38.95000076293945" y="149.8402862548828" text-anchor="start" dominant-baseline="alphabetic" transform="matrix(1, 0, 0, 1, 0.5, 0.5)">200</text><text fill="none" stroke="rgb(0,0,0)" font-family="helvetica" font-size="10pt" font-style="normal" font-weight="normal" text-decoration="normal" x="38.95000076293945" y="149.8402862548828" text-anchor="start" dominant-baseline="alphabetic" transform="matrix(1, 0, 0, 1, 0.5, 0.5)" stroke-opacity="0" stroke-linejoin="bevel" stroke-miterlimit="10">200</text><text fill="#444444" stroke="none" font-family="helvetica" font-size="10pt" font-style="normal" font-weight="normal" text-decoration="normal" x="38.95000076293945" y="115.30036163330078" text-anchor="start" dominant-baseline="alphabetic" transform="matrix(1, 0, 0, 1, 0.5, 0.5)">250</text><text fill="none" stroke="rgb(0,0,0)" font-family="helvetica" font-size="10pt" font-style="normal" font-weight="normal" text-decoration="normal" x="38.95000076293945" y="115.30036163330078" text-anchor="start" dominant-baseline="alphabetic" transform="matrix(1, 0, 0, 1, 0.5, 0.5)" stroke-opacity="0" stroke-linejoin="bevel" stroke-miterlimit="10">250</text><text fill="#444444" stroke="none" font-family="helvetica" font-size="10pt" font-style="normal" font-weight="normal" text-decoration="normal" x="38.95000076293945" y="80.76042938232422" text-anchor="start" dominant-baseline="alphabetic" transform="matrix(1, 0, 0, 1, 0.5, 0.5)">300</text><text fill="none" stroke="rgb(0,0,0)" font-family="helvetica" font-size="10pt" font-style="normal" font-weight="normal" text-decoration="normal" x="38.95000076293945" y="80.76042938232422" text-anchor="start" dominant-baseline="alphabetic" transform="matrix(1, 0, 0, 1, 0.5, 0.5)" stroke-opacity="0" stroke-linejoin="bevel" stroke-miterlimit="10">300</text><text fill="#444444" stroke="none" font-family="helvetica" font-size="10pt" font-style="normal" font-weight="normal" text-decoration="normal" x="38.95000076293945" y="46.22050476074219" text-anchor="start" dominant-baseline="alphabetic" transform="matrix(1, 0, 0, 1, 0.5, 0.5)">350</text><text fill="none" stroke="rgb(0,0,0)" font-family="helvetica" font-size="10pt" font-style="normal" font-weight="normal" text-decoration="normal" x="38.95000076293945" y="46.22050476074219" text-anchor="start" dominant-baseline="alphabetic" transform="matrix(1, 0, 0, 1, 0.5, 0.5)" stroke-opacity="0" stroke-linejoin="bevel" stroke-miterlimit="10">350</text><text fill="#444444" stroke="none" font-family="helvetica" font-size="12pt" font-style="normal" font-weight="normal" text-decoration="normal" x="-65.25833511352539" y="154" text-anchor="start" dominant-baseline="alphabetic" transform="matrix(6.123233995736766e-17, -1, 1, 6.123233995736766e-17, -126.54999923706055, 189.45000076293945)">Days suitable for transmission</text><text fill="none" stroke="rgb(0,0,0)" font-family="helvetica" font-size="12pt" font-style="normal" font-weight="normal" text-decoration="normal" x="-65.25833511352539" y="154" text-anchor="start" dominant-baseline="alphabetic" transform="matrix(6.123233995736766e-17, -1, 1, 6.123233995736766e-17, -126.54999923706055, 189.45000076293945)" stroke-opacity="0" stroke-linejoin="bevel" stroke-miterlimit="10">Days suitable for transmission</text><path fill="rgb(255,255,255)" stroke="rgb(229,229,229)" paint-order="fill" d="M 477.0333251953125 208.5 L 560.4999847412109 208.5 L 560.4999847412109 273.5 L 477.0333251953125 273.5 L 477.0333251953125 208.5 Z" fill-opacity="0.9490196078431372" clip-path="url(#ZGfdHWVODZMm)" stroke-opacity="0.5019607843137255" stroke-linejoin="bevel" stroke-miterlimit="10"/><g clip-path="url(#ZGfdHWVODZMm)"><g transform="matrix(1, 0, 0, 1, 487.5333251953125, 219)"><path fill="none" stroke="#30a2da" paint-order="fill" d="M 0.5 10.5 L 20.5 10.5" stroke-linejoin="bevel" stroke-miterlimit="10" stroke-width="2"/></g></g><g clip-path="url(#ZGfdHWVODZMm)"><text fill="#444444" stroke="none" font-family="helvetica" font-size="13px" font-style="normal" font-weight="normal" text-decoration="normal" x="512.5333251953125" y="233.5" text-anchor="start" dominant-baseline="alphabetic" transform="matrix(1, 0, 0, 1, 0.5, 0.5)">ID 001</text></g><g clip-path="url(#ZGfdHWVODZMm)"><text fill="none" stroke="rgb(0,0,0)" font-family="helvetica" font-size="13px" font-style="normal" font-weight="normal" text-decoration="normal" x="512.5333251953125" y="233.5" text-anchor="start" dominant-baseline="alphabetic" transform="matrix(1, 0, 0, 1, 0.5, 0.5)" stroke-opacity="0" stroke-linejoin="bevel" stroke-miterlimit="10">ID 001</text></g><g clip-path="url(#ZGfdHWVODZMm)"><g transform="matrix(1, 0, 0, 1, 487.5333251953125, 242)"><path fill="none" stroke="#fc4f30" paint-order="fill" d="M 0.5 10.5 L 20.5 10.5" stroke-linejoin="bevel" stroke-miterlimit="10" stroke-width="2"/></g></g><g clip-path="url(#ZGfdHWVODZMm)"><text fill="#444444" stroke="none" font-family="helvetica" font-size="13px" font-style="normal" font-weight="normal" text-decoration="normal" x="512.5333251953125" y="256.5" text-anchor="start" dominant-baseline="alphabetic" transform="matrix(1, 0, 0, 1, 0.5, 0.5)">ID 006</text></g><g clip-path="url(#ZGfdHWVODZMm)"><text fill="none" stroke="rgb(0,0,0)" font-family="helvetica" font-size="13px" font-style="normal" font-weight="normal" text-decoration="normal" x="512.5333251953125" y="256.5" text-anchor="start" dominant-baseline="alphabetic" transform="matrix(1, 0, 0, 1, 0.5, 0.5)" stroke-opacity="0" stroke-linejoin="bevel" stroke-miterlimit="10">ID 006</text></g><text fill="black" stroke="none" font-family="helvetica" font-size="14pt" font-style="normal" font-weight="normal" text-decoration="normal" x="0" y="18" text-anchor="start" dominant-baseline="alphabetic" transform="matrix(1, 0, 0, 1, 5.5, 5.5)">E. Hanoi</text><text fill="none" stroke="rgb(0,0,0)" font-family="helvetica" font-size="14pt" font-style="normal" font-weight="normal" text-decoration="normal" x="0" y="18" text-anchor="start" dominant-baseline="alphabetic" transform="matrix(1, 0, 0, 1, 5.5, 5.5)" stroke-opacity="0" stroke-linejoin="bevel" stroke-miterlimit="10">E. Hanoi</text></svg>