<svg version="1.1" xmlns="http://www.w3.org/2000/svg" width="600" height="334"><defs><clipPath id="XEMOIypGupsN"><path fill="none" stroke="none" d="M 70.5 33.5 L 570.5 33.5 L 570.5 283.5 L 70.5 283.5 L 70.5 33.5 Z"/></clipPath><clipPath id="zuryvNqxNAdp"><path fill="none" stroke="none" d="M 70.5 33.5 L 570.5 33.5 L 570.5 283.5 L 70.5 283.5 L 70.5 33.5 Z"/></clipPath><clipPath id="OeyshgiqspMQ"><path fill="none" stroke="none" d="M 70.5 33.5 L 570.5 33.5 L 570.5 283.5 L 70.5 283.5 L 70.5 33.5 Z"/></clipPath><clipPath id="CfATtbbhtODp"><path fill="none" stroke="none" d="M 70.5 33.5 L 570.5 33.5 L 570.5 283.5 L 70.5 283.5 L 70.5 33.5 Z"/></clipPath><clipPath id="mowUSQPpzrNq"><path fill="none" stroke="none" d="M 70.5 33.5 L 570.5 33.5 L 570.5 283.5 L 70.5 283.5 L 70.5 33.5 Z"/></clipPath><clipPath id="vGDdyEHHLKqS"><path fill="none" stroke="none" d="M 70.5 33.5 L 570.5 33.5 L 570.5 283.5 L 70.5 283.5 L 70.5 33.5 Z"/></clipPath><clipPath id="oIIKUyDfiGNP"><path fill="none" stroke="none" d="M 70.5 33.5 L 570.5 33.5 L 570.5 283.5 L 70.5 283.5 L 70.5 33.5 Z"/></clipPath><clipPath id="bkRIzGggDfnS"><path fill="none" stroke="none" d="M 70.5 33.5 L 570.5 33.5 L 570.5 283.5 L 70.5 283.5 L 70.5 33.5 Z"/></clipPath><clipPath id="VMbbNniytTDr"><path fill="none" stroke="none" d="M 70.5 33.5 L 570.5 33.5 L 570.5 283.5 L 70.5 283.5 L 70.5 33.5 Z"/></clipPath><clipPath id="HscpkflLXiWA"><path fill="none" stroke="none" d="M 70.5 33.5 L 570.5 33.5 L 570.5 283.5 L 70.5 283.5 L 70.5 33.5 Z"/></clipPath><clipPath id="FCDkSSkOXCGy"><path fill="none" stroke="none" d="M 70.5 33.5 L 570.5 33.5 L 570.5 283.5 L 70.5 283.5 L 70.5 33.5 Z"/></clipPath><clipPath id="RhfcRPAaxSwW"><path fill="none" stroke="none" d="M 70.5 33.5 L 570.5 33.5 L 570.5 283.5 L 70.5 283.5 L 70.5 33.5 Z"/></clipPath><clipPath id="BshIzynUTulu"><path fill="none" stroke="none" d="M 70.5 33.5 L 570.5 33.5 L 570.5 283.5 L 70.5 283.5 L 70.5 33.5 Z"/></clipPath><clipPath id="JTsSOmTxAEcs"><path fill="none" stroke="none" d="M 70.5 33.5 L 570.5 33.5 L 570.5 283.5 L 70.5 283.5 L 70.5 33.5 Z"/></clipPath><clipPath id="USCPcddcAZVX"><path fill="none" stroke="none" d="M 70.5 33.5 L 570.5 33.5 L 570.5 283.5 L 70.5 283.5 L 70.5 33.5 Z"/></clipPath><clipPath id="LwCsnqgNtxUX"><path fill="none" stroke="none" d="M 70.5 33.5 L 570.5 33.5 L 570.5 283.5 L 70.5 283.5 L 70.5 33.5 Z"/></clipPath><clipPath id="IcSDLILXBhZL"><path fill="none" stroke="none" d="M 70.5 33.5 L 570.5 33.5 L 570.5 283.5 L 70.5 283.5 L 70.5 33.5 Z"/></clipPath><clipPath id="DNxFbJQpXMqz"><path fill="none" stroke="none" d="M 70.5 33.5 L 570.5 33.5 L 570.5 283.5 L 70.5 283.5 L 70.5 33.5 Z"/></clipPath><clipPath id="oDztoUIuQxmF"><path fill="none" stroke="none" d="M 70.5 33.5 L 570.5 33.5 L 570.5 283.5 L 70.5 283.5 L 70.5 33.5 Z"/></clipPath><clipPath id="qgcStSvkweVl"><path fill="none" stroke="none" d="M 70.5 33.5 L 570.5 33.5 L 570.5 283.5 L 70.5 283.5 L 70.5 33.5 Z"/></clipPath><clipPath id="lmLmTyTqcpTX"><path fill="none" stroke="none" d="M 70.5 33.5 L 570.5 33.5 L 570.5 283.5 L 70.5 283.5 L 70.5 33.5 Z"/></clipPath><clipPath id="aTlKNiSiDWiD"><path fill="none" stroke="none" d="M 70.5 33.5 L 570.5 33.5 L 570.5 283.5 L 70.5 283.5 L 70.5 33.5 Z"/></clipPath><clipPath id="pqevvDKbiJae"><path fill="none" stroke="none" d="M 70.5 33.5 L 570.5 33.5 L 570.5 283.5 L 70.5 283.5 L 70.5 33.5 Z"/></clipPath></defs><path fill="none" stroke="#e5e5e5" paint-order="fill" d="M 70.5 33.5 L 570.5 33.5 L 570.5 283.5 L 70.5 283.5 L 70.5 33.5 Z" stroke-linejoin="bevel" stroke-miterlimit="10"/><path fill="none" stroke="black" paint-order="fill" d="M 332.46172248803487 33.5 L 332.46172248803487 283.5" stroke-linejoin="bevel" stroke-miterlimit="10" stroke-width="3" stroke-dasharray="6" clip-path="url(#OeyshgiqspMQ)"/><path fill="none" stroke="#9467bd" paint-order="fill" d="M 93.2272720336914 112.79293060302734 L 117.15071868896484 90.57070922851562 L 141.07415771484375 100.67171478271484 L 164.9976043701172 86.53030395507812 L 188.92105102539062 102.6919174194336 L 212.84449768066406 117.84343719482422 L 236.7679443359375 99.66161346435547 L 260.6913757324219 115.82323455810547 L 284.6148376464844 120.87374114990234 L 308.53826904296875 77.43939208984375" stroke-linejoin="bevel" stroke-miterlimit="10" stroke-width="2" clip-path="url(#CfATtbbhtODp)"/><path fill="none" stroke="#9467bd" paint-order="fill" d="M 93.2272720336914 112.79293060302734 L 117.15071868896484 90.57070922851562 L 141.07415771484375 100.67171478271484 L 164.9976043701172 86.53030395507812 L 188.92105102539062 102.6919174194336 L 212.84449768066406 117.84343719482422 L 236.7679443359375 99.66161346435547 L 260.6913757324219 115.82323455810547 L 284.6148376464844 120.87374114990234 L 308.53826904296875 77.43939208984375" stroke-linejoin="bevel" stroke-miterlimit="10" stroke-width="2" stroke-dasharray="6" clip-path="url(#mowUSQPpzrNq)"/><path fill="none" stroke="#30a2da" paint-order="fill" d="M 308.53826904296875 77.43939208984375 L 332.46173095703125 88.55050659179688 L 356.3851623535156 104.71212005615234 L 380.3086242675781 91.580810546875 L 404.2320556640625 129.9646453857422 L 428.155517578125 96.63130950927734 L 452.0789489746094 122.89393615722656 L 476.00238037109375 125.92424011230469 L 499.92584228515625 118.8535385131836 L 523.8493041992188 110.7727279663086 L 547.772705078125 100.67171478271484" stroke-linejoin="bevel" stroke-miterlimit="10" stroke-width="2" clip-path="url(#vGDdyEHHLKqS)"/><path fill="none" stroke="#30a2da" paint-order="fill" d="M 332.46173095703125 100.81864166259766 L 356.3851623535156 102.64906311035156 L 380.3086242675781 104.4794921875 L 404.2320556640625 106.3099136352539 L 428.155517578125 108.14034271240234 L 452.0789489746094 109.97077178955078 L 476.00238037109375 111.80119323730469 L 499.92584228515625 113.63162231445312 L 523.8493041992188 115.46204376220703 L 547.772705078125 117.29247283935547" stroke-linejoin="bevel" stroke-miterlimit="10" stroke-width="2" stroke-dasharray="6" clip-path="url(#oIIKUyDfiGNP)"/><path fill="none" stroke="#fc4f30" paint-order="fill" d="M 308.53826904296875 77.43939208984375 L 332.46173095703125 84.51010131835938 L 356.3851623535156 107.74242401123047 L 380.3086242675781 59.25757598876953 L 404.2320556640625 74.40908813476562 L 428.155517578125 111.78282928466797 L 452.0789489746094 66.32828521728516 L 476.00238037109375 108.75252532958984 L 499.92584228515625 120.87374114990234 L 523.8493041992188 125.92424011230469 L 547.772705078125 77.43939208984375" stroke-linejoin="bevel" stroke-miterlimit="10" stroke-width="2" clip-path="url(#bkRIzGggDfnS)"/><path fill="none" stroke="#fc4f30" paint-order="fill" d="M 332.46173095703125 81.99403381347656 L 356.3851623535156 84.59580993652344 L 380.3086242675781 87.19757843017578 L 404.2320556640625 89.79935455322266 L 428.155517578125 92.40113067626953 L 452.0789489746094 95.0029067993164 L 476.00238037109375 97.60468292236328 L 499.92584228515625 100.20645904541016 L 523.8493041992188 102.80823516845703 L 547.772705078125 105.4100112915039" stroke-linejoin="bevel" stroke-miterlimit="10" stroke-width="2" stroke-dasharray="6" clip-path="url(#VMbbNniytTDr)"/><path fill="none" stroke="rgb(128,128,128)" paint-order="fill" d="M 93.2272720336914 101.68181610107422 L 117.15071868896484 101.68181610107422 L 141.07415771484375 83.5 L 164.9976043701172 123.90403747558594 L 188.92105102539062 104.71212005615234 L 212.84449768066406 98.6515121459961 L 236.7679443359375 82.48989868164062 L 260.6913757324219 122.89393615722656 L 284.6148376464844 148.14646911621094 L 308.53826904296875 73.39898681640625" stroke-opacity="0.7490196078431373" stroke-linejoin="bevel" stroke-miterlimit="10" clip-path="url(#HscpkflLXiWA)"/><path fill="none" stroke="grey" paint-order="fill" d="M 308.53826904296875 73.39898681640625 L 332.46173095703125 113.80303192138672 L 356.3851623535156 104.71212005615234 L 380.3086242675781 96.63130950927734 L 404.2320556640625 113.80303192138672 L 428.155517578125 140.06565856933594 L 452.0789489746094 109.76262664794922 L 476.00238037109375 106.7323226928711 L 499.92584228515625 131.98484802246094 L 523.8493041992188 120.87374114990234 L 547.772705078125 105.72222137451172" stroke-linejoin="bevel" stroke-miterlimit="10" stroke-width="0.5" clip-path="url(#FCDkSSkOXCGy)"/><path fill="none" stroke="grey" paint-order="fill" d="M 308.53826904296875 73.39898681640625 L 332.46173095703125 107.74242401123047 L 356.3851623535156 119.86363983154297 L 380.3086242675781 99.66161346435547 L 404.2320556640625 103.70201873779297 L 428.155517578125 100.67171478271484 L 452.0789489746094 120.87374114990234 L 476.00238037109375 75.419189453125 L 499.92584228515625 97.64141082763672 L 523.8493041992188 124.91413879394531 L 547.772705078125 137.0353546142578" stroke-linejoin="bevel" stroke-miterlimit="10" stroke-width="0.5" clip-path="url(#RhfcRPAaxSwW)"/><path fill="none" stroke="rgb(128,128,128)" paint-order="fill" d="M 93.2272720336914 94.61111450195312 L 117.15071868896484 120.87374114990234 L 141.07415771484375 93.60101318359375 L 164.9976043701172 115.82323455810547 L 188.92105102539062 118.8535385131836 L 212.84449768066406 105.72222137451172 L 236.7679443359375 101.68181610107422 L 260.6913757324219 90.57070922851562 L 284.6148376464844 130.97474670410156 L 308.53826904296875 103.70201873779297" stroke-opacity="0.7490196078431373" stroke-linejoin="bevel" stroke-miterlimit="10" clip-path="url(#BshIzynUTulu)"/><path fill="none" stroke="grey" paint-order="fill" d="M 308.53826904296875 103.70201873779297 L 332.46173095703125 104.71212005615234 L 356.3851623535156 82.48989868164062 L 380.3086242675781 97.64141082763672 L 404.2320556640625 100.67171478271484 L 428.155517578125 94.61111450195312 L 452.0789489746094 99.66161346435547 L 476.00238037109375 77.43939208984375 L 499.92584228515625 114.8131332397461 L 523.8493041992188 129.9646453857422 L 547.772705078125 128.9545440673828" stroke-linejoin="bevel" stroke-miterlimit="10" stroke-width="0.5" clip-path="url(#JTsSOmTxAEcs)"/><path fill="none" stroke="grey" paint-order="fill" d="M 308.53826904296875 103.70201873779297 L 332.46173095703125 124.91413879394531 L 356.3851623535156 122.89393615722656 L 380.3086242675781 100.67171478271484 L 404.2320556640625 99.66161346435547 L 428.155517578125 94.61111450195312 L 452.0789489746094 98.6515121459961 L 476.00238037109375 111.78282928466797 L 499.92584228515625 104.71212005615234 L 523.8493041992188 90.57070922851562 L 547.772705078125 136.02525329589844" stroke-linejoin="bevel" stroke-miterlimit="10" stroke-width="0.5" clip-path="url(#USCPcddcAZVX)"/><path fill="none" stroke="rgb(128,128,128)" paint-order="fill" d="M 93.2272720336914 128.9545440673828 L 117.15071868896484 124.91413879394531 L 141.07415771484375 81.47979736328125 L 164.9976043701172 107.74242401123047 L 188.92105102539062 102.6919174194336 L 212.84449768066406 83.5 L 236.7679443359375 95.6212158203125 L 260.6913757324219 94.61111450195312 L 284.6148376464844 117.84343719482422 L 308.53826904296875 108.75252532958984" stroke-opacity="0.7490196078431373" stroke-linejoin="bevel" stroke-miterlimit="10" clip-path="url(#LwCsnqgNtxUX)"/><path fill="none" stroke="grey" paint-order="fill" d="M 308.53826904296875 108.75252532958984 L 332.46173095703125 87.5404052734375 L 356.3851623535156 102.6919174194336 L 380.3086242675781 116.83333587646484 L 404.2320556640625 117.84343719482422 L 428.155517578125 104.71212005615234 L 452.0789489746094 100.67171478271484 L 476.00238037109375 119.86363983154297 L 499.92584228515625 99.66161346435547 L 523.8493041992188 92.59091186523438 L 547.772705078125 125.92424011230469" stroke-linejoin="bevel" stroke-miterlimit="10" stroke-width="0.5" clip-path="url(#IcSDLILXBhZL)"/><path fill="none" stroke="grey" paint-order="fill" d="M 308.53826904296875 108.75252532958984 L 332.46173095703125 98.6515121459961 L 356.3851623535156 82.48989868164062 L 380.3086242675781 108.75252532958984 L 404.2320556640625 118.8535385131836 L 428.155517578125 106.7323226928711 L 452.0789489746094 102.6919174194336 L 476.00238037109375 99.66161346435547 L 499.92584228515625 111.78282928466797 L 523.8493041992188 97.64141082763672 L 547.772705078125 110.7727279663086" stroke-linejoin="bevel" stroke-miterlimit="10" stroke-width="0.5" clip-path="url(#DNxFbJQpXMqz)"/><path fill="none" stroke="rgb(128,128,128)" paint-order="fill" d="M 93.2272720336914 108.75252532958984 L 117.15071868896484 124.91413879394531 L 141.07415771484375 141.0757598876953 L 164.9976043701172 92.59091186523438 L 188.92105102539062 96.63130950927734 L 212.84449768066406 127.94444274902344 L 236.7679443359375 102.6919174194336 L 260.6913757324219 88.55050659179688 L 284.6148376464844 136.02525329589844 L 308.53826904296875 102.6919174194336" stroke-opacity="0.7490196078431373" stroke-linejoin="bevel" stroke-miterlimit="10" clip-path="url(#oDztoUIuQxmF)"/><path fill="none" stroke="grey" paint-order="fill" d="M 308.53826904296875 102.6919174194336 L 332.46173095703125 56.227272033691406 L 356.3851623535156 114.8131332397461 L 380.3086242675781 92.59091186523438 L 404.2320556640625 68.3484878540039 L 428.155517578125 118.8535385131836 L 452.0789489746094 123.90403747558594 L 476.00238037109375 95.6212158203125 L 499.92584228515625 95.6212158203125 L 523.8493041992188 105.72222137451172 L 547.772705078125 90.57070922851562" stroke-linejoin="bevel" stroke-miterlimit="10" stroke-width="0.5" clip-path="url(#qgcStSvkweVl)"/><path fill="none" stroke="grey" paint-order="fill" d="M 308.53826904296875 102.6919174194336 L 332.46173095703125 68.3484878540039 L 356.3851623535156 94.61111450195312 L 380.3086242675781 108.75252532958984 L 404.2320556640625 106.7323226928711 L 428.155517578125 80.46969604492188 L 452.0789489746094 102.6919174194336 L 476.00238037109375 117.84343719482422 L 499.92584228515625 108.75252532958984 L 523.8493041992188 96.63130950927734 L 547.772705078125 114.8131332397461" stroke-linejoin="bevel" stroke-miterlimit="10" stroke-width="0.5" clip-path="url(#lmLmTyTqcpTX)"/><path fill="none" stroke="black" paint-order="fill" d="M 70.5 283.5 L 570.5 283.5" stroke-linejoin="bevel" stroke-miterlimit="10"/><path fill="none" stroke="black" paint-order="fill" d="M 93.5 289.5 L 93.5 281.5 M 212.5 289.5 L 212.5 281.5 M 332.5 289.5 L 332.5 281.5 M 452.5 289.5 L 452.5 281.5" stroke-linejoin="bevel" stroke-miterlimit="10"/><path fill="none" stroke="black" paint-order="fill" d="M 93.5 287.5 L 93.5 283.5 M 117.5 287.5 L 117.5 283.5 M 141.5 287.5 L 141.5 283.5 M 164.5 287.5 L 164.5 283.5 M 188.5 287.5 L 188.5 283.5 M 212.5 287.5 L 212.5 283.5 M 236.5 287.5 L 236.5 283.5 M 260.5 287.5 L 260.5 283.5 M 284.5 287.5 L 284.5 283.5 M 308.5 287.5 L 308.5 283.5 M 332.5 287.5 L 332.5 283.5 M 356.5 287.5 L 356.5 283.5 M 380.5 287.5 L 380.5 283.5 M 404.5 287.5 L 404.5 283.5 M 428.5 287.5 L 428.5 283.5 M 452.5 287.5 L 452.5 283.5 M 476.5 287.5 L 476.5 283.5 M 499.5 287.5 L 499.5 283.5 M 523.5 287.5 L 523.5 283.5 M 547.5 287.5 L 547.5 283.5" stroke-linejoin="bevel" stroke-miterlimit="10"/><text fill="#444444" stroke="none" font-family="helvetica" font-size="10pt" font-style="normal" font-weight="normal" text-decoration="normal" x="79.36060523986816" y="304" text-anchor="start" dominant-baseline="alphabetic" transform="matrix(1, 0, 0, 1, 0.5, 0.5)">2025</text><text fill="none" stroke="rgb(0,0,0)" font-family="helvetica" font-size="10pt" font-style="normal" font-weight="normal" text-decoration="normal" x="79.36060523986816" y="304" text-anchor="start" dominant-baseline="alphabetic" transform="matrix(1, 0, 0, 1, 0.5, 0.5)" stroke-opacity="0" stroke-linejoin="bevel" stroke-miterlimit="10">2025</text><text fill="#444444" stroke="none" font-family="helvetica" font-size="10pt" font-style="normal" font-weight="normal" text-decoration="normal" x="198.97783088684082" y="304" text-anchor="start" dominant-baseline="alphabetic" transform="matrix(1, 0, 0, 1, 0.5, 0.5)">2030</text><text fill="none" stroke="rgb(0,0,0)" font-family="helvetica" font-size="10pt" font-style="normal" font-weight="normal" text-decoration="normal" x="198.97783088684082" y="304" text-anchor="start" dominant-baseline="alphabetic" transform="matrix(1, 0, 0, 1, 0.5, 0.5)" stroke-opacity="0" stroke-linejoin="bevel" stroke-miterlimit="10">2030</text><text fill="#444444" stroke="none" font-family="helvetica" font-size="10pt" font-style="normal" font-weight="normal" text-decoration="normal" x="318.595064163208" y="304" text-anchor="start" dominant-baseline="alphabetic" transform="matrix(1, 0, 0, 1, 0.5, 0.5)">2035</text><text fill="none" stroke="rgb(0,0,0)" font-family="helvetica" font-size="10pt" font-style="normal" font-weight="normal" text-decoration="normal" x="318.595064163208" y="304" text-anchor="start" dominant-baseline="alphabetic" transform="matrix(1, 0, 0, 1, 0.5, 0.5)" stroke-opacity="0" stroke-linejoin="bevel" stroke-miterlimit="10">2035</text><text fill="#444444" stroke="none" font-family="helvetica" font-size="10pt" font-style="normal" font-weight="normal" text-decoration="normal" x="438.21228218078613" y="304" text-anchor="start" dominant-baseline="alphabetic" transform="matrix(1, 0, 0, 1, 0.5, 0.5)">2040</text><text fill="none" stroke="rgb(0,0,0)" font-family="helvetica" font-size="10pt" font-style="normal" font-weight="normal" text-decoration="normal" x="438.21228218078613" y="304" text-anchor="start" dominant-baseline="alphabetic" transform="matrix(1, 0, 0, 1, 0.5, 0.5)" stroke-opacity="0" stroke-linejoin="bevel" stroke-miterlimit="10">2040</text><text fill="#444444" stroke="none" font-family="helvetica" font-size="12pt" font-style="normal" font-weight="normal" text-decoration="normal" x="305.3166666030884" y="327" text-anchor="start" dominant-baseline="alphabetic" transform="matrix(1, 0, 0, 1, 0.5, 0.5)">Year</text><text fill="none" stroke="rgb(0,0,0)" font-family="helvetica" font-size="12pt" font-style="normal" font-weight="normal" text-decoration="normal" x="305.3166666030884" y="327" text-anchor="start" dominant-baseline="alphabetic" transform="matrix(1, 0, 0, 1, 0.5, 0.5)" stroke-opacity="0" stroke-linejoin="bevel" stroke-miterlimit="10">Year</text><path fill="none" stroke="black" paint-order="fill" d="M 70.5 283.5 L 70.5 33.5" stroke-linejoin="bevel" stroke-miterlimit="10"/><path fill="none" stroke="black" paint-order="fill" d="M 64.5 283.5 L 72.5 283.5 M 64.5 232.5 L 72.5 232.5 M 64.5 182.5 L 72.5 182.5 M 64.5 131.5 L 72.5 131.5 M 64.5 81.5 L 72.5 81.5" stroke-linejoin="bevel" stroke-miterlimit="10"/><path fill="none" stroke="black" paint-order="fill" d="M 66.5 283.5 L 70.5 283.5 M 66.5 273.5 L 70.5 273.5 M 66.5 263.5 L 70.5 263.5 M 66.5 253.5 L 70.5 253.5 M 66.5 243.5 L 70.5 243.5 M 66.5 232.5 L 70.5 232.5 M 66.5 222.5 L 70.5 222.5 M 66.5 212.5 L 70.5 212.5 M 66.5 202.5 L 70.5 202.5 M 66.5 192.5 L 70.5 192.5 M 66.5 182.5 L 70.5 182.5 M 66.5 172.5 L 70.5 172.5 M 66.5 162.5 L 70.5 162.5 M 66.5 152.5 L 70.5 152.5 M 66.5 142.5 L 70.5 142.5 M 66.5 131.5 L 70.5 131.5 M 66.5 121.5 L 70.5 121.5 M 66.5 111.5 L 70.5 111.5 M 66.5 101.5 L 70.5 101.5 M 66.5 91.5 L 70.5 91.5 M 66.5 81.5 L 70.5 81.5 M 66.5 71.5 L 70.5 71.5 M 66.5 61.5 L 70.5 61.5 M 66.5 51.5 L 70.5 51.5 M 66.5 41.5 L 70.5 41.5" stroke-linejoin="bevel" stroke-miterlimit="10"/><text fill="#444444" stroke="none" font-family="helvetica" font-size="10pt" font-style="normal" font-weight="normal" text-decoration="normal" x="52.31666660308838" y="288" text-anchor="start" dominant-baseline="alphabetic" transform="matrix(1, 0, 0, 1, 0.5, 0.5)">0</text><text fill="none" stroke="rgb(0,0,0)" font-family="helvetica" font-size="10pt" font-style="normal" font-weight="normal" text-decoration="normal" x="52.31666660308838" y="288" text-anchor="start" dominant-baseline="alphabetic" transform="matrix(1, 0, 0, 1, 0.5, 0.5)" stroke-opacity="0" stroke-linejoin="bevel" stroke-miterlimit="10">0</text><text fill="#444444" stroke="none" font-family="helvetica" font-size="10pt" font-style="normal" font-weight="normal" text-decoration="normal" x="45.63333320617676" y="237.4949493408203" text-anchor="start" dominant-baseline="alphabetic" transform="matrix(1, 0, 0, 1, 0.5, 0.5)">50</text><text fill="none" stroke="rgb(0,0,0)" font-family="helvetica" font-size="10pt" font-style="normal" font-weight="normal" text-decoration="normal" x="45.63333320617676" y="237.4949493408203" text-anchor="start" dominant-baseline="alphabetic" transform="matrix(1, 0, 0, 1, 0.5, 0.5)" stroke-opacity="0" stroke-linejoin="bevel" stroke-miterlimit="10">50</text><text fill="#444444" stroke="none" font-family="helvetica" font-size="10pt" font-style="normal" font-weight="normal" text-decoration="normal" x="38.95000076293945" y="186.98989868164062" text-anchor="start" dominant-baseline="alphabetic" transform="matrix(1, 0, 0, 1, 0.5, 0.5)">100</text><text fill="none" stroke="rgb(0,0,0)" font-family="helvetica" font-size="10pt" font-style="normal" font-weight="normal" text-decoration="normal" x="38.95000076293945" y="186.98989868164062" text-anchor="start" dominant-baseline="alphabetic" transform="matrix(1, 0, 0, 1, 0.5, 0.5)" stroke-opacity="0" stroke-linejoin="bevel" stroke-miterlimit="10">100</text><text fill="#444444" stroke="none" font-family="helvetica" font-size="10pt" font-style="normal" font-weight="normal" text-decoration="normal" x="38.95000076293945" y="136.48484802246094" text-anchor="start" dominant-baseline="alphabetic" transform="matrix(1, 0, 0, 1, 0.5, 0.5)">150</text><text fill="none" stroke="rgb(0,0,0)" font-family="helvetica" font-size="10pt" font-style="normal" font-weight="normal" text-decoration="normal" x="38.95000076293945" y="136.48484802246094" text-anchor="start" dominant-baseline="alphabetic" transform="matrix(1, 0, 0, 1, 0.5, 0.5)" stroke-opacity="0" stroke-linejoin="bevel" stroke-miterlimit="10">150</text><text fill="#444444" stroke="none" font-family="helvetica" font-size="10pt" font-style="normal" font-weight="normal" text-decoration="normal" x="38.95000076293945" y="85.97979736328125" text-anchor="start" dominant-baseline="alphabetic" transform="matrix(1, 0, 0, 1, 0.5, 0.5)">200</text><text fill="none" stroke="rgb(0,0,0)" font-family="helvetica" font-size="10pt" font-style="normal" font-weight="normal" text-decoration="normal" x="38.95000076293945" y="85.97979736328125" text-anchor="start" dominant-baseline="alphabetic" transform="matrix(1, 0, 0, 1, 0.5, 0.5)" stroke-opacity="0" stroke-linejoin="bevel" stroke-miterlimit="10">200</text><text fill="#444444" stroke="none" font-family="helvetica" font-size="12pt" font-style="normal" font-weight="normal" text-decoration="normal" x="-65.25833511352539" y="154" text-anchor="start" dominant-baseline="alphabetic" transform="matrix(6.123233995736766e-17, -1, 1, 6.123233995736766e-17, -126.54999923706055, 189.45000076293945)">Days suitable for transmission</text><text fill="none" stroke="rgb(0,0,0)" font-family="helvetica" font-size="12pt" font-style="normal" font-weight="normal" text-decoration="normal" x="-65.25833511352539" y="154" text-anchor="start" dominant-baseline="alphabetic" transform="matrix(6.123233995736766e-17, -1, 1, 6.123233995736766e-17, -126.54999923706055, 189.45000076293945)" stroke-opacity="0" stroke-linejoin="bevel" stroke-miterlimit="10">Days suitable for transmission</text><path fill="rgb(255,255,255)" stroke="rgb(229,229,229)" paint-order="fill" d="M 477.0333251953125 208.5 L 560.4999847412109 208.5 L 560.4999847412109 273.5 L 477.0333251953125 273.5 L 477.0333251953125 208.5 Z" fill-opacity="0.9490196078431372" clip-path="url(#aTlKNiSiDWiD)" stroke-opacity="0.5019607843137255" stroke-linejoin="bevel" stroke-miterlimit="10"/><g clip-path="url(#aTlKNiSiDWiD)"><g transform="matrix(1, 0, 0, 1, 487.5333251953125, 219)"><path fill="none" stroke="#30a2da" paint-order="fill" d="M 0.5 10.5 L 20.5 10.5" stroke-linejoin="bevel" stroke-miterlimit="10" stroke-width="2"/></g></g><g clip-path="url(#aTlKNiSiDWiD)"><text fill="#444444" stroke="none" font-family="helvetica" font-size="13px" font-style="normal" font-weight="normal" text-decoration="normal" x="512.5333251953125" y="233.5" text-anchor="start" dominant-baseline="alphabetic" transform="matrix(1, 0, 0, 1, 0.5, 0.5)">ID 001</text></g><g clip-path="url(#aTlKNiSiDWiD)"><text fill="none" stroke="rgb(0,0,0)" font-family="helvetica" font-size="13px" font-style="normal" font-weight="normal" text-decoration="normal" x="512.5333251953125" y="233.5" text-anchor="start" dominant-baseline="alphabetic" transform="matrix(1, 0, 0, 1, 0.5, 0.5)" stroke-opacity="0" stroke-linejoin="bevel" stroke-miterlimit="10">ID 001</text></g><g clip-path="url(#aTlKNiSiDWiD)"><g transform="matrix(1, 0, 0, 1, 487.5333251953125, 242)"><path fill="none" stroke="#fc4f30" paint-order="fill" d="M 0.5 10.5 L 20.5 10.5" stroke-linejoin="bevel" stroke-miterlimit="10" stroke-width="2"/></g></g><g clip-path="url(#aTlKNiSiDWiD)"><text fill="#444444" stroke="none" font-family="helvetica" font-size="13px" font-style="normal" font-weight="normal" text-decoration="normal" x="512.5333251953125" y="256.5" text-anchor="start" dominant-baseline="alphabetic" transform="matrix(1, 0, 0, 1, 0.5, 0.5)">ID 006</text></g><g clip-path="url(#aTlKNiSiDWiD)"><text fill="none" stroke="rgb(0,0,0)" font-family="helvetica" font-size="13px" font-style="normal" font-weight="normal" text-decoration="normal" x="512.5333251953125" y="256.5" text-anchor="start" dominant-baseline="alphabetic" transform="matrix(1, 0, 0, 1, 0.5, 0.5)" stroke-opacity="0" stroke-linejoin="bevel" stroke-miterlimit="10">ID 006</text></g><text fill="black" stroke="none" font-family="helvetica" font-size="14pt" font-style="normal" font-weight="normal" text-decoration="normal" x="0" y="18" text-anchor="start" dominant-baseline="alphabetic" transform="matrix(1, 0, 0, 1, 5.5, 5.5)">C. Cape Town</text><text fill="none" stroke="rgb(0,0,0)" font-family="helvetica" font-size="14pt" font-style="normal" font-weight="normal" text-decoration="normal" x="0" y="18" text-anchor="start" dominant-baseline="alphabetic" transform="matrix(1, 0, 0, 1, 5.5, 5.5)" stroke-opacity="0" stroke-linejoin="bevel" stroke-miterlimit="10">C. Cape Town</text></svg>