<svg version="1.1" xmlns="http://www.w3.org/2000/svg" width="605" height="331"><defs><clipPath id="BfgGwDAuBzEI"><path fill="none" stroke="none" d="M 75.5 32.5 L 575.5 32.5 L 575.5 282.5 L 75.5 282.5 L 75.5 32.5 Z"/></clipPath><clipPath id="MnNbSJybcCpT"><path fill="none" stroke="none" d="M 75.5 32.5 L 575.5 32.5 L 575.5 282.5 L 75.5 282.5 L 75.5 32.5 Z"/></clipPath><clipPath id="smsCSmWSRvSc"><path fill="none" stroke="none" d="M 75.5 32.5 L 575.5 32.5 L 575.5 282.5 L 75.5 282.5 L 75.5 32.5 Z"/></clipPath><clipPath id="wViVrbbEkXFo"><path fill="none" stroke="none" d="M 75.5 32.5 L 575.5 32.5 L 575.5 282.5 L 75.5 282.5 L 75.5 32.5 Z"/></clipPath><clipPath id="hsVnhectwCLA"><path fill="none" stroke="none" d="M 75.5 32.5 L 575.5 32.5 L 575.5 282.5 L 75.5 282.5 L 75.5 32.5 Z"/></clipPath><clipPath id="LHtMfPEesShZ"><path fill="none" stroke="none" d="M 75.5 32.5 L 575.5 32.5 L 575.5 282.5 L 75.5 282.5 L 75.5 32.5 Z"/></clipPath><clipPath id="BTpVMFquMWpd"><path fill="none" stroke="none" d="M 75.5 32.5 L 575.5 32.5 L 575.5 282.5 L 75.5 282.5 L 75.5 32.5 Z"/></clipPath><clipPath id="iUhENePoBBIG"><path fill="none" stroke="none" d="M 75.5 32.5 L 575.5 32.5 L 575.5 282.5 L 75.5 282.5 L 75.5 32.5 Z"/></clipPath><clipPath id="UGffIninplgJ"><path fill="none" stroke="none" d="M 75.5 32.5 L 575.5 32.5 L 575.5 282.5 L 75.5 282.5 L 75.5 32.5 Z"/></clipPath><clipPath id="pRrRTkkTdahN"><path fill="none" stroke="none" d="M 75.5 32.5 L 575.5 32.5 L 575.5 282.5 L 75.5 282.5 L 75.5 32.5 Z"/></clipPath><clipPath id="UIdTqAcTSfMk"><path fill="none" stroke="none" d="M 75.5 32.5 L 575.5 32.5 L 575.5 282.5 L 75.5 282.5 L 75.5 32.5 Z"/></clipPath><clipPath id="RghkTEzfAhHv"><path fill="none" stroke="none" d="M 75.5 32.5 L 575.5 32.5 L 575.5 282.5 L 75.5 282.5 L 75.5 32.5 Z"/></clipPath><clipPath id="qyNiWLWwevor"><path fill="none" stroke="none" d="M 75.5 32.5 L 575.5 32.5 L 575.5 282.5 L 75.5 282.5 L 75.5 32.5 Z"/></clipPath><clipPath id="rNuQMDcwhMEF"><path fill="none" stroke="none" d="M 75.5 32.5 L 575.5 32.5 L 575.5 282.5 L 75.5 282.5 L 75.5 32.5 Z"/></clipPath><clipPath id="hhpAHaVlHvDv"><path fill="none" stroke="none" d="M 75.5 32.5 L 575.5 32.5 L 575.5 282.5 L 75.5 282.5 L 75.5 32.5 Z"/></clipPath><clipPath id="vETKUoNWiHRJ"><path fill="none" stroke="none" d="M 75.5 32.5 L 575.5 32.5 L 575.5 282.5 L 75.5 282.5 L 75.5 32.5 Z"/></clipPath><clipPath id="ttcANIpqmzEy"><path fill="none" stroke="none" d="M 75.5 32.5 L 575.5 32.5 L 575.5 282.5 L 75.5 282.5 L 75.5 32.5 Z"/></clipPath><clipPath id="itJJTXdEZmHJ"><path fill="none" stroke="none" d="M 75.5 32.5 L 575.5 32.5 L 575.5 282.5 L 75.5 282.5 L 75.5 32.5 Z"/></clipPath><clipPath id="FsKFNIMoVoGN"><path fill="none" stroke="none" d="M 75.5 32.5 L 575.5 32.5 L 575.5 282.5 L 75.5 282.5 L 75.5 32.5 Z"/></clipPath><clipPath id="QZhEyDuzWoJT"><path fill="none" stroke="none" d="M 75.5 32.5 L 575.5 32.5 L 575.5 282.5 L 75.5 282.5 L 75.5 32.5 Z"/></clipPath><clipPath id="FRtgHCfoRAre"><path fill="none" stroke="none" d="M 75.5 32.5 L 575.5 32.5 L 575.5 282.5 L 75.5 282.5 L 75.5 32.5 Z"/></clipPath><clipPath id="HtFPIvIiZtsf"><path fill="none" stroke="none" d="M 75.5 32.5 L 575.5 32.5 L 575.5 282.5 L 75.5 282.5 L 75.5 32.5 Z"/></clipPath><clipPath id="pobWreTKppnF"><path fill="none" stroke="none" d="M 75.5 32.5 L 575.5 32.5 L 575.5 282.5 L 75.5 282.5 L 75.5 32.5 Z"/></clipPath></defs><path fill="none" stroke="#e5e5e5" paint-order="fill" d="M 75.5 32.5 L 575.5 32.5 L 575.5 282.5 L 75.5 282.5 L 75.5 32.5 Z" stroke-linejoin="bevel" stroke-miterlimit="10"/><path fill="none" stroke="black" paint-order="fill" d="M 337.46172248803487 32.5 L 337.46172248803487 282.5" stroke-linejoin="bevel" stroke-miterlimit="10" stroke-width="3" stroke-dasharray="6" clip-path="url(#smsCSmWSRvSc)"/><path fill="none" stroke="#9467bd" paint-order="fill" d="M 98.2272720336914 68.51398468017578 L 122.15071868896484 115.36713409423828 L 146.07415771484375 123.05944061279297 L 169.9976043701172 101.38111877441406 L 193.92105102539062 72.70979309082031 L 217.84449768066406 121.66084289550781 L 241.7679443359375 96.48601531982422 L 265.6913757324219 89.49300384521484 L 289.6148376464844 104.1783218383789 L 313.53826904296875 97.18531799316406" stroke-linejoin="bevel" stroke-miterlimit="10" stroke-width="2" clip-path="url(#wViVrbbEkXFo)"/><path fill="none" stroke="#9467bd" paint-order="fill" d="M 98.2272720336914 68.51398468017578 L 122.15071868896484 115.36713409423828 L 146.07415771484375 123.05944061279297 L 169.9976043701172 101.38111877441406 L 193.92105102539062 72.70979309082031 L 217.84449768066406 121.66084289550781 L 241.7679443359375 96.48601531982422 L 265.6913757324219 89.49300384521484 L 289.6148376464844 104.1783218383789 L 313.53826904296875 97.18531799316406" stroke-linejoin="bevel" stroke-miterlimit="10" stroke-width="2" stroke-dasharray="6" clip-path="url(#hsVnhectwCLA)"/><path fill="none" stroke="#30a2da" paint-order="fill" d="M 313.53826904296875 97.18531799316406 L 337.46173095703125 74.80769348144531 L 361.3851623535156 130.0524444580078 L 385.3086242675781 97.18531799316406 L 409.2320556640625 76.90559387207031 L 433.155517578125 84.597900390625 L 457.0789489746094 101.38111877441406 L 481.00238037109375 105.57691955566406 L 504.92584228515625 117.46503448486328 L 528.8493041992188 90.89160919189453 L 552.772705078125 99.9825210571289" stroke-linejoin="bevel" stroke-miterlimit="10" stroke-width="2" clip-path="url(#LHtMfPEesShZ)"/><path fill="none" stroke="#30a2da" paint-order="fill" d="M 337.46173095703125 93.6125259399414 L 361.3851623535156 94.56187438964844 L 385.3086242675781 95.51123046875 L 409.2320556640625 96.46058654785156 L 433.155517578125 97.4099349975586 L 457.0789489746094 98.35929107666016 L 481.00238037109375 99.30864715576172 L 504.92584228515625 100.25800323486328 L 528.8493041992188 101.20735168457031 L 552.772705078125 102.15670776367188" stroke-linejoin="bevel" stroke-miterlimit="10" stroke-width="2" stroke-dasharray="6" clip-path="url(#BTpVMFquMWpd)"/><path fill="none" stroke="#fc4f30" paint-order="fill" d="M 313.53826904296875 97.18531799316406 L 337.46173095703125 77.60489654541016 L 361.3851623535156 90.19230651855469 L 385.3086242675781 79.70279693603516 L 409.2320556640625 94.38811492919922 L 433.155517578125 92.29020690917969 L 457.0789489746094 99.28321838378906 L 481.00238037109375 118.16433715820312 L 504.92584228515625 151.73077392578125 L 528.8493041992188 120.26223754882812 L 552.772705078125 114.66783142089844" stroke-linejoin="bevel" stroke-miterlimit="10" stroke-width="2" clip-path="url(#iUhENePoBBIG)"/><path fill="none" stroke="#fc4f30" paint-order="fill" d="M 337.46173095703125 77.0327377319336 L 361.3851623535156 82.98738861083984 L 385.3086242675781 88.9420394897461 L 409.2320556640625 94.89669799804688 L 433.155517578125 100.85134887695312 L 457.0789489746094 106.80599975585938 L 481.00238037109375 112.76065063476562 L 504.92584228515625 118.71530151367188 L 528.8493041992188 124.66995239257812 L 552.772705078125 130.62460327148438" stroke-linejoin="bevel" stroke-miterlimit="10" stroke-width="2" stroke-dasharray="6" clip-path="url(#UGffIninplgJ)"/><path fill="none" stroke="rgb(128,128,128)" paint-order="fill" d="M 98.2272720336914 99.28321838378906 L 122.15071868896484 92.98950958251953 L 146.07415771484375 99.9825210571289 L 169.9976043701172 83.89859771728516 L 193.92105102539062 93.68881225585938 L 217.84449768066406 87.39510345458984 L 241.7679443359375 57.32517623901367 L 265.6913757324219 99.28321838378906 L 289.6148376464844 116.76573181152344 L 313.53826904296875 80.402099609375" stroke-opacity="0.7490196078431373" stroke-linejoin="bevel" stroke-miterlimit="10" clip-path="url(#pRrRTkkTdahN)"/><path fill="none" stroke="grey" paint-order="fill" d="M 313.53826904296875 80.402099609375 L 337.46173095703125 58.02447509765625 L 361.3851623535156 108.3741226196289 L 385.3086242675781 113.9685287475586 L 409.2320556640625 92.29020690917969 L 433.155517578125 104.87762451171875 L 457.0789489746094 104.1783218383789 L 481.00238037109375 91.59091186523438 L 504.92584228515625 109.7727279663086 L 528.8493041992188 122.36013793945312 L 552.772705078125 118.86363983154297" stroke-linejoin="bevel" stroke-miterlimit="10" stroke-width="0.5" clip-path="url(#UIdTqAcTSfMk)"/><path fill="none" stroke="grey" paint-order="fill" d="M 313.53826904296875 80.402099609375 L 337.46173095703125 74.80769348144531 L 361.3851623535156 125.85664367675781 L 385.3086242675781 125.15734100341797 L 409.2320556640625 88.09440612792969 L 433.155517578125 83.89859771728516 L 457.0789489746094 141.2412567138672 L 481.00238037109375 111.8706283569336 L 504.92584228515625 95.08740997314453 L 528.8493041992188 148.23426818847656 L 552.772705078125 123.05944061279297" stroke-linejoin="bevel" stroke-miterlimit="10" stroke-width="0.5" clip-path="url(#RghkTEzfAhHv)"/><path fill="none" stroke="rgb(128,128,128)" paint-order="fill" d="M 98.2272720336914 110.47203063964844 L 122.15071868896484 130.0524444580078 L 146.07415771484375 118.86363983154297 L 169.9976043701172 123.75874328613281 L 193.92105102539062 148.23426818847656 L 217.84449768066406 132.1503448486328 L 241.7679443359375 85.99650573730469 L 265.6913757324219 112.56993103027344 L 289.6148376464844 95.78671264648438 L 313.53826904296875 92.29020690917969" stroke-opacity="0.7490196078431373" stroke-linejoin="bevel" stroke-miterlimit="10" clip-path="url(#qyNiWLWwevor)"/><path fill="none" stroke="grey" paint-order="fill" d="M 313.53826904296875 92.29020690917969 L 337.46173095703125 106.2762222290039 L 361.3851623535156 89.49300384521484 L 385.3086242675781 81.80069732666016 L 409.2320556640625 153.12936401367188 L 433.155517578125 77.60489654541016 L 457.0789489746094 72.70979309082031 L 481.00238037109375 81.10140228271484 L 504.92584228515625 73.40908813476562 L 528.8493041992188 153.12936401367188 L 552.772705078125 88.09440612792969" stroke-linejoin="bevel" stroke-miterlimit="10" stroke-width="0.5" clip-path="url(#rNuQMDcwhMEF)"/><path fill="none" stroke="grey" paint-order="fill" d="M 313.53826904296875 92.29020690917969 L 337.46173095703125 82.5 L 361.3851623535156 116.76573181152344 L 385.3086242675781 55.227272033691406 L 409.2320556640625 72.70979309082031 L 433.155517578125 72.01049041748047 L 457.0789489746094 97.18531799316406 L 481.00238037109375 88.79370880126953 L 504.92584228515625 113.9685287475586 L 528.8493041992188 74.80769348144531 L 552.772705078125 133.5489501953125" stroke-linejoin="bevel" stroke-miterlimit="10" stroke-width="0.5" clip-path="url(#hhpAHaVlHvDv)"/><path fill="none" stroke="rgb(128,128,128)" paint-order="fill" d="M 98.2272720336914 121.66084289550781 L 122.15071868896484 134.9475555419922 L 146.07415771484375 107.6748275756836 L 169.9976043701172 68.51398468017578 L 193.92105102539062 85.29720306396484 L 217.84449768066406 83.89859771728516 L 241.7679443359375 93.68881225585938 L 265.6913757324219 103.47901916503906 L 289.6148376464844 76.90559387207031 L 313.53826904296875 88.79370880126953" stroke-opacity="0.7490196078431373" stroke-linejoin="bevel" stroke-miterlimit="10" clip-path="url(#vETKUoNWiHRJ)"/><path fill="none" stroke="grey" paint-order="fill" d="M 313.53826904296875 88.79370880126953 L 337.46173095703125 78.30419921875 L 361.3851623535156 103.47901916503906 L 385.3086242675781 120.26223754882812 L 409.2320556640625 116.06643676757812 L 433.155517578125 96.48601531982422 L 457.0789489746094 110.47203063964844 L 481.00238037109375 146.13636779785156 L 504.92584228515625 85.29720306396484 L 528.8493041992188 96.48601531982422 L 552.772705078125 138.44406127929688" stroke-linejoin="bevel" stroke-miterlimit="10" stroke-width="0.5" clip-path="url(#ttcANIpqmzEy)"/><path fill="none" stroke="grey" paint-order="fill" d="M 313.53826904296875 88.79370880126953 L 337.46173095703125 62.220279693603516 L 361.3851623535156 102.77971649169922 L 385.3086242675781 76.90559387207031 L 409.2320556640625 134.9475555419922 L 433.155517578125 127.95454406738281 L 457.0789489746094 71.31118774414062 L 481.00238037109375 96.48601531982422 L 504.92584228515625 81.10140228271484 L 528.8493041992188 100.68181610107422 L 552.772705078125 73.40908813476562" stroke-linejoin="bevel" stroke-miterlimit="10" stroke-width="0.5" clip-path="url(#itJJTXdEZmHJ)"/><path fill="none" stroke="rgb(128,128,128)" paint-order="fill" d="M 98.2272720336914 107.6748275756836 L 122.15071868896484 111.8706283569336 L 146.07415771484375 144.73776245117188 L 169.9976043701172 116.76573181152344 L 193.92105102539062 102.77971649169922 L 217.84449768066406 120.26223754882812 L 241.7679443359375 108.3741226196289 L 265.6913757324219 79.70279693603516 L 289.6148376464844 101.38111877441406 L 313.53826904296875 94.38811492919922" stroke-opacity="0.7490196078431373" stroke-linejoin="bevel" stroke-miterlimit="10" clip-path="url(#FsKFNIMoVoGN)"/><path fill="none" stroke="grey" paint-order="fill" d="M 313.53826904296875 94.38811492919922 L 337.46173095703125 82.5 L 361.3851623535156 86.69580078125 L 385.3086242675781 129.3531494140625 L 409.2320556640625 83.19930267333984 L 433.155517578125 79.70279693603516 L 457.0789489746094 132.1503448486328 L 481.00238037109375 104.87762451171875 L 504.92584228515625 90.89160919189453 L 528.8493041992188 124.45803833007812 L 552.772705078125 129.3531494140625" stroke-linejoin="bevel" stroke-miterlimit="10" stroke-width="0.5" clip-path="url(#QZhEyDuzWoJT)"/><path fill="none" stroke="grey" paint-order="fill" d="M 313.53826904296875 94.38811492919922 L 337.46173095703125 95.08740997314453 L 361.3851623535156 92.98950958251953 L 385.3086242675781 109.7727279663086 L 409.2320556640625 104.87762451171875 L 433.155517578125 118.16433715820312 L 457.0789489746094 77.60489654541016 L 481.00238037109375 118.16433715820312 L 504.92584228515625 109.07342529296875 L 528.8493041992188 102.0804214477539 L 552.772705078125 95.78671264648438" stroke-linejoin="bevel" stroke-miterlimit="10" stroke-width="0.5" clip-path="url(#FRtgHCfoRAre)"/><path fill="none" stroke="black" paint-order="fill" d="M 75.5 282.5 L 575.5 282.5" stroke-linejoin="bevel" stroke-miterlimit="10"/><path fill="none" stroke="black" paint-order="fill" d="M 98.5 288.5 L 98.5 280.5 M 217.5 288.5 L 217.5 280.5 M 337.5 288.5 L 337.5 280.5 M 457.5 288.5 L 457.5 280.5" stroke-linejoin="bevel" stroke-miterlimit="10"/><path fill="none" stroke="black" paint-order="fill" d="M 98.5 286.5 L 98.5 282.5 M 122.5 286.5 L 122.5 282.5 M 146.5 286.5 L 146.5 282.5 M 169.5 286.5 L 169.5 282.5 M 193.5 286.5 L 193.5 282.5 M 217.5 286.5 L 217.5 282.5 M 241.5 286.5 L 241.5 282.5 M 265.5 286.5 L 265.5 282.5 M 289.5 286.5 L 289.5 282.5 M 313.5 286.5 L 313.5 282.5 M 337.5 286.5 L 337.5 282.5 M 361.5 286.5 L 361.5 282.5 M 385.5 286.5 L 385.5 282.5 M 409.5 286.5 L 409.5 282.5 M 433.5 286.5 L 433.5 282.5 M 457.5 286.5 L 457.5 282.5 M 481.5 286.5 L 481.5 282.5 M 504.5 286.5 L 504.5 282.5 M 528.5 286.5 L 528.5 282.5 M 552.5 286.5 L 552.5 282.5" stroke-linejoin="bevel" stroke-miterlimit="10"/><text fill="#444444" stroke="none" font-family="helvetica" font-size="10pt" font-style="normal" font-weight="normal" text-decoration="normal" x="82.82727241516113" y="302.59368896484375" text-anchor="start" dominant-baseline="alphabetic" transform="matrix(1, 0, 0, 1, 0.5, 0.5)">2025</text><text fill="none" stroke="rgb(0,0,0)" font-family="helvetica" font-size="10pt" font-style="normal" font-weight="normal" text-decoration="normal" x="82.82727241516113" y="302.59368896484375" text-anchor="start" dominant-baseline="alphabetic" transform="matrix(1, 0, 0, 1, 0.5, 0.5)" stroke-opacity="0" stroke-linejoin="bevel" stroke-miterlimit="10">2025</text><text fill="#444444" stroke="none" font-family="helvetica" font-size="10pt" font-style="normal" font-weight="normal" text-decoration="normal" x="202.4444980621338" y="302.59368896484375" text-anchor="start" dominant-baseline="alphabetic" transform="matrix(1, 0, 0, 1, 0.5, 0.5)">2030</text><text fill="none" stroke="rgb(0,0,0)" font-family="helvetica" font-size="10pt" font-style="normal" font-weight="normal" text-decoration="normal" x="202.4444980621338" y="302.59368896484375" text-anchor="start" dominant-baseline="alphabetic" transform="matrix(1, 0, 0, 1, 0.5, 0.5)" stroke-opacity="0" stroke-linejoin="bevel" stroke-miterlimit="10">2030</text><text fill="#444444" stroke="none" font-family="helvetica" font-size="10pt" font-style="normal" font-weight="normal" text-decoration="normal" x="322.061731338501" y="302.59368896484375" text-anchor="start" dominant-baseline="alphabetic" transform="matrix(1, 0, 0, 1, 0.5, 0.5)">2035</text><text fill="none" stroke="rgb(0,0,0)" font-family="helvetica" font-size="10pt" font-style="normal" font-weight="normal" text-decoration="normal" x="322.061731338501" y="302.59368896484375" text-anchor="start" dominant-baseline="alphabetic" transform="matrix(1, 0, 0, 1, 0.5, 0.5)" stroke-opacity="0" stroke-linejoin="bevel" stroke-miterlimit="10">2035</text><text fill="#444444" stroke="none" font-family="helvetica" font-size="10pt" font-style="normal" font-weight="normal" text-decoration="normal" x="441.6789493560791" y="302.59368896484375" text-anchor="start" dominant-baseline="alphabetic" transform="matrix(1, 0, 0, 1, 0.5, 0.5)">2040</text><text fill="none" stroke="rgb(0,0,0)" font-family="helvetica" font-size="10pt" font-style="normal" font-weight="normal" text-decoration="normal" x="441.6789493560791" y="302.59368896484375" text-anchor="start" dominant-baseline="alphabetic" transform="matrix(1, 0, 0, 1, 0.5, 0.5)" stroke-opacity="0" stroke-linejoin="bevel" stroke-miterlimit="10">2040</text><text fill="#444444" stroke="none" font-family="helvetica" font-size="12pt" font-style="normal" font-weight="normal" text-decoration="normal" x="308.8333339691162" y="323.59368896484375" text-anchor="start" dominant-baseline="alphabetic" transform="matrix(1, 0, 0, 1, 0.5, 0.5)">Year</text><text fill="none" stroke="rgb(0,0,0)" font-family="helvetica" font-size="12pt" font-style="normal" font-weight="normal" text-decoration="normal" x="308.8333339691162" y="323.59368896484375" text-anchor="start" dominant-baseline="alphabetic" transform="matrix(1, 0, 0, 1, 0.5, 0.5)" stroke-opacity="0" stroke-linejoin="bevel" stroke-miterlimit="10">Year</text><path fill="none" stroke="black" paint-order="fill" d="M 75.5 282.5 L 75.5 32.5" stroke-linejoin="bevel" stroke-miterlimit="10"/><path fill="none" stroke="black" paint-order="fill" d="M 69.5 282.5 L 77.5 282.5 M 69.5 247.5 L 77.5 247.5 M 69.5 212.5 L 77.5 212.5 M 69.5 177.5 L 77.5 177.5 M 69.5 142.5 L 77.5 142.5 M 69.5 107.5 L 77.5 107.5 M 69.5 72.5 L 77.5 72.5 M 69.5 37.5 L 77.5 37.5" stroke-linejoin="bevel" stroke-miterlimit="10"/><path fill="none" stroke="black" paint-order="fill" d="M 71.5 282.5 L 75.5 282.5 M 71.5 275.5 L 75.5 275.5 M 71.5 268.5 L 75.5 268.5 M 71.5 261.5 L 75.5 261.5 M 71.5 254.5 L 75.5 254.5 M 71.5 247.5 L 75.5 247.5 M 71.5 240.5 L 75.5 240.5 M 71.5 233.5 L 75.5 233.5 M 71.5 226.5 L 75.5 226.5 M 71.5 219.5 L 75.5 219.5 M 71.5 212.5 L 75.5 212.5 M 71.5 205.5 L 75.5 205.5 M 71.5 198.5 L 75.5 198.5 M 71.5 191.5 L 75.5 191.5 M 71.5 184.5 L 75.5 184.5 M 71.5 177.5 L 75.5 177.5 M 71.5 170.5 L 75.5 170.5 M 71.5 163.5 L 75.5 163.5 M 71.5 156.5 L 75.5 156.5 M 71.5 149.5 L 75.5 149.5 M 71.5 142.5 L 75.5 142.5 M 71.5 135.5 L 75.5 135.5 M 71.5 128.5 L 75.5 128.5 M 71.5 121.5 L 75.5 121.5 M 71.5 114.5 L 75.5 114.5 M 71.5 107.5 L 75.5 107.5 M 71.5 100.5 L 75.5 100.5 M 71.5 93.5 L 75.5 93.5 M 71.5 86.5 L 75.5 86.5 M 71.5 79.5 L 75.5 79.5 M 71.5 72.5 L 75.5 72.5 M 71.5 65.5 L 75.5 65.5 M 71.5 58.5 L 75.5 58.5 M 71.5 51.5 L 75.5 51.5 M 71.5 44.5 L 75.5 44.5 M 71.5 37.5 L 75.5 37.5" stroke-linejoin="bevel" stroke-miterlimit="10"/><text fill="#444444" stroke="none" font-family="helvetica" font-size="10pt" font-style="normal" font-weight="normal" text-decoration="normal" x="56.55000019073486" y="286.7968444824219" text-anchor="start" dominant-baseline="alphabetic" transform="matrix(1, 0, 0, 1, 0.5, 0.5)">0</text><text fill="none" stroke="rgb(0,0,0)" font-family="helvetica" font-size="10pt" font-style="normal" font-weight="normal" text-decoration="normal" x="56.55000019073486" y="286.7968444824219" text-anchor="start" dominant-baseline="alphabetic" transform="matrix(1, 0, 0, 1, 0.5, 0.5)" stroke-opacity="0" stroke-linejoin="bevel" stroke-miterlimit="10">0</text><text fill="#444444" stroke="none" font-family="helvetica" font-size="10pt" font-style="normal" font-weight="normal" text-decoration="normal" x="49.10000038146973" y="251.83180236816406" text-anchor="start" dominant-baseline="alphabetic" transform="matrix(1, 0, 0, 1, 0.5, 0.5)">50</text><text fill="none" stroke="rgb(0,0,0)" font-family="helvetica" font-size="10pt" font-style="normal" font-weight="normal" text-decoration="normal" x="49.10000038146973" y="251.83180236816406" text-anchor="start" dominant-baseline="alphabetic" transform="matrix(1, 0, 0, 1, 0.5, 0.5)" stroke-opacity="0" stroke-linejoin="bevel" stroke-miterlimit="10">50</text><text fill="#444444" stroke="none" font-family="helvetica" font-size="10pt" font-style="normal" font-weight="normal" text-decoration="normal" x="41.64999961853027" y="216.8667755126953" text-anchor="start" dominant-baseline="alphabetic" transform="matrix(1, 0, 0, 1, 0.5, 0.5)">100</text><text fill="none" stroke="rgb(0,0,0)" font-family="helvetica" font-size="10pt" font-style="normal" font-weight="normal" text-decoration="normal" x="41.64999961853027" y="216.8667755126953" text-anchor="start" dominant-baseline="alphabetic" transform="matrix(1, 0, 0, 1, 0.5, 0.5)" stroke-opacity="0" stroke-linejoin="bevel" stroke-miterlimit="10">100</text><text fill="#444444" stroke="none" font-family="helvetica" font-size="10pt" font-style="normal" font-weight="normal" text-decoration="normal" x="41.64999961853027" y="181.9017333984375" text-anchor="start" dominant-baseline="alphabetic" transform="matrix(1, 0, 0, 1, 0.5, 0.5)">150</text><text fill="none" stroke="rgb(0,0,0)" font-family="helvetica" font-size="10pt" font-style="normal" font-weight="normal" text-decoration="normal" x="41.64999961853027" y="181.9017333984375" text-anchor="start" dominant-baseline="alphabetic" transform="matrix(1, 0, 0, 1, 0.5, 0.5)" stroke-opacity="0" stroke-linejoin="bevel" stroke-miterlimit="10">150</text><text fill="#444444" stroke="none" font-family="helvetica" font-size="10pt" font-style="normal" font-weight="normal" text-decoration="normal" x="41.64999961853027" y="146.93670654296875" text-anchor="start" dominant-baseline="alphabetic" transform="matrix(1, 0, 0, 1, 0.5, 0.5)">200</text><text fill="none" stroke="rgb(0,0,0)" font-family="helvetica" font-size="10pt" font-style="normal" font-weight="normal" text-decoration="normal" x="41.64999961853027" y="146.93670654296875" text-anchor="start" dominant-baseline="alphabetic" transform="matrix(1, 0, 0, 1, 0.5, 0.5)" stroke-opacity="0" stroke-linejoin="bevel" stroke-miterlimit="10">200</text><text fill="#444444" stroke="none" font-family="helvetica" font-size="10pt" font-style="normal" font-weight="normal" text-decoration="normal" x="41.64999961853027" y="111.97167205810547" text-anchor="start" dominant-baseline="alphabetic" transform="matrix(1, 0, 0, 1, 0.5, 0.5)">250</text><text fill="none" stroke="rgb(0,0,0)" font-family="helvetica" font-size="10pt" font-style="normal" font-weight="normal" text-decoration="normal" x="41.64999961853027" y="111.97167205810547" text-anchor="start" dominant-baseline="alphabetic" transform="matrix(1, 0, 0, 1, 0.5, 0.5)" stroke-opacity="0" stroke-linejoin="bevel" stroke-miterlimit="10">250</text><text fill="#444444" stroke="none" font-family="helvetica" font-size="10pt" font-style="normal" font-weight="normal" text-decoration="normal" x="41.64999961853027" y="77.00663757324219" text-anchor="start" dominant-baseline="alphabetic" transform="matrix(1, 0, 0, 1, 0.5, 0.5)">300</text><text fill="none" stroke="rgb(0,0,0)" font-family="helvetica" font-size="10pt" font-style="normal" font-weight="normal" text-decoration="normal" x="41.64999961853027" y="77.00663757324219" text-anchor="start" dominant-baseline="alphabetic" transform="matrix(1, 0, 0, 1, 0.5, 0.5)" stroke-opacity="0" stroke-linejoin="bevel" stroke-miterlimit="10">300</text><text fill="#444444" stroke="none" font-family="helvetica" font-size="10pt" font-style="normal" font-weight="normal" text-decoration="normal" x="41.64999961853027" y="42.04159927368164" text-anchor="start" dominant-baseline="alphabetic" transform="matrix(1, 0, 0, 1, 0.5, 0.5)">350</text><text fill="none" stroke="rgb(0,0,0)" font-family="helvetica" font-size="10pt" font-style="normal" font-weight="normal" text-decoration="normal" x="41.64999961853027" y="42.04159927368164" text-anchor="start" dominant-baseline="alphabetic" transform="matrix(1, 0, 0, 1, 0.5, 0.5)" stroke-opacity="0" stroke-linejoin="bevel" stroke-miterlimit="10">350</text><text fill="#444444" stroke="none" font-family="helvetica" font-size="12pt" font-style="normal" font-weight="normal" text-decoration="normal" x="-73.07499885559082" y="153" text-anchor="start" dominant-baseline="alphabetic" transform="matrix(6.123233995736766e-17, -1, 1, 6.123233995736766e-17, -122.85000038146973, 191.14999961853027)">Days suitable for transmission</text><text fill="none" stroke="rgb(0,0,0)" font-family="helvetica" font-size="12pt" font-style="normal" font-weight="normal" text-decoration="normal" x="-73.07499885559082" y="153" text-anchor="start" dominant-baseline="alphabetic" transform="matrix(6.123233995736766e-17, -1, 1, 6.123233995736766e-17, -122.85000038146973, 191.14999961853027)" stroke-opacity="0" stroke-linejoin="bevel" stroke-miterlimit="10">Days suitable for transmission</text><path fill="rgb(255,255,255)" stroke="rgb(229,229,229)" paint-order="fill" d="M 480.183349609375 207.5 L 565.5000152587891 207.5 L 565.5000152587891 272.5 L 480.183349609375 272.5 L 480.183349609375 207.5 Z" fill-opacity="0.9490196078431372" clip-path="url(#HtFPIvIiZtsf)" stroke-opacity="0.5019607843137255" stroke-linejoin="bevel" stroke-miterlimit="10"/><g clip-path="url(#HtFPIvIiZtsf)"><g transform="matrix(1, 0, 0, 1, 490.683349609375, 218)"><path fill="none" stroke="#30a2da" paint-order="fill" d="M 0.5 10.5 L 20.5 10.5" stroke-linejoin="bevel" stroke-miterlimit="10" stroke-width="2"/></g></g><g clip-path="url(#HtFPIvIiZtsf)"><text fill="#444444" stroke="none" font-family="helvetica" font-size="13px" font-style="normal" font-weight="normal" text-decoration="normal" x="515.683349609375" y="232" text-anchor="start" dominant-baseline="alphabetic" transform="matrix(1, 0, 0, 1, 0.5, 0.5)">ID 001</text></g><g clip-path="url(#HtFPIvIiZtsf)"><text fill="none" stroke="rgb(0,0,0)" font-family="helvetica" font-size="13px" font-style="normal" font-weight="normal" text-decoration="normal" x="515.683349609375" y="232" text-anchor="start" dominant-baseline="alphabetic" transform="matrix(1, 0, 0, 1, 0.5, 0.5)" stroke-opacity="0" stroke-linejoin="bevel" stroke-miterlimit="10">ID 001</text></g><g clip-path="url(#HtFPIvIiZtsf)"><g transform="matrix(1, 0, 0, 1, 490.683349609375, 241)"><path fill="none" stroke="#fc4f30" paint-order="fill" d="M 0.5 10.5 L 20.5 10.5" stroke-linejoin="bevel" stroke-miterlimit="10" stroke-width="2"/></g></g><g clip-path="url(#HtFPIvIiZtsf)"><text fill="#444444" stroke="none" font-family="helvetica" font-size="13px" font-style="normal" font-weight="normal" text-decoration="normal" x="515.683349609375" y="255" text-anchor="start" dominant-baseline="alphabetic" transform="matrix(1, 0, 0, 1, 0.5, 0.5)">ID 006</text></g><g clip-path="url(#HtFPIvIiZtsf)"><text fill="none" stroke="rgb(0,0,0)" font-family="helvetica" font-size="13px" font-style="normal" font-weight="normal" text-decoration="normal" x="515.683349609375" y="255" text-anchor="start" dominant-baseline="alphabetic" transform="matrix(1, 0, 0, 1, 0.5, 0.5)" stroke-opacity="0" stroke-linejoin="bevel" stroke-miterlimit="10">ID 006</text></g><text fill="black" stroke="none" font-family="helvetica" font-size="14pt" font-style="normal" font-weight="normal" text-decoration="normal" x="0" y="15" text-anchor="start" dominant-baseline="alphabetic" transform="matrix(1, 0, 0, 1, 5.5, 7.5)">D. Addis Ababa</text><text fill="none" stroke="rgb(0,0,0)" font-family="helvetica" font-size="14pt" font-style="normal" font-weight="normal" text-decoration="normal" x="0" y="15" text-anchor="start" dominant-baseline="alphabetic" transform="matrix(1, 0, 0, 1, 5.5, 7.5)" stroke-opacity="0" stroke-linejoin="bevel" stroke-miterlimit="10">D. Addis Ababa</text></svg>