<svg version="1.1" xmlns="http://www.w3.org/2000/svg" width="600" height="329"><defs><clipPath id="kLsTSInTHsTF"><path fill="none" stroke="none" d="M 70.5 30.5 L 570.5 30.5 L 570.5 280.5 L 70.5 280.5 L 70.5 30.5 Z"/></clipPath><clipPath id="zIGnMwsGdkNp"><path fill="none" stroke="none" d="M 70.5 30.5 L 570.5 30.5 L 570.5 280.5 L 70.5 280.5 L 70.5 30.5 Z"/></clipPath><clipPath id="BhqXDLogJZRH"><path fill="none" stroke="none" d="M 70.5 30.5 L 570.5 30.5 L 570.5 280.5 L 70.5 280.5 L 70.5 30.5 Z"/></clipPath><clipPath id="ivhxaLJoQCQE"><path fill="none" stroke="none" d="M 70.5 30.5 L 570.5 30.5 L 570.5 280.5 L 70.5 280.5 L 70.5 30.5 Z"/></clipPath><clipPath id="reMBNJUqGstA"><path fill="none" stroke="none" d="M 70.5 30.5 L 570.5 30.5 L 570.5 280.5 L 70.5 280.5 L 70.5 30.5 Z"/></clipPath><clipPath id="TPMOgcEosuIx"><path fill="none" stroke="none" d="M 70.5 30.5 L 570.5 30.5 L 570.5 280.5 L 70.5 280.5 L 70.5 30.5 Z"/></clipPath><clipPath id="CMgZiotNfIFr"><path fill="none" stroke="none" d="M 70.5 30.5 L 570.5 30.5 L 570.5 280.5 L 70.5 280.5 L 70.5 30.5 Z"/></clipPath><clipPath id="KoVOpThVCkTJ"><path fill="none" stroke="none" d="M 70.5 30.5 L 570.5 30.5 L 570.5 280.5 L 70.5 280.5 L 70.5 30.5 Z"/></clipPath><clipPath id="DUApHWdwtlqw"><path fill="none" stroke="none" d="M 70.5 30.5 L 570.5 30.5 L 570.5 280.5 L 70.5 280.5 L 70.5 30.5 Z"/></clipPath><clipPath id="RkiGosmseJmk"><path fill="none" stroke="none" d="M 70.5 30.5 L 570.5 30.5 L 570.5 280.5 L 70.5 280.5 L 70.5 30.5 Z"/></clipPath><clipPath id="IgiDKPXhKoSd"><path fill="none" stroke="none" d="M 70.5 30.5 L 570.5 30.5 L 570.5 280.5 L 70.5 280.5 L 70.5 30.5 Z"/></clipPath><clipPath id="iTLzSMvQlZnA"><path fill="none" stroke="none" d="M 70.5 30.5 L 570.5 30.5 L 570.5 280.5 L 70.5 280.5 L 70.5 30.5 Z"/></clipPath><clipPath id="gZgxqyAvkeJb"><path fill="none" stroke="none" d="M 70.5 30.5 L 570.5 30.5 L 570.5 280.5 L 70.5 280.5 L 70.5 30.5 Z"/></clipPath><clipPath id="IXIJaSnEEVVG"><path fill="none" stroke="none" d="M 70.5 30.5 L 570.5 30.5 L 570.5 280.5 L 70.5 280.5 L 70.5 30.5 Z"/></clipPath><clipPath id="hHeFSKadBFMS"><path fill="none" stroke="none" d="M 70.5 30.5 L 570.5 30.5 L 570.5 280.5 L 70.5 280.5 L 70.5 30.5 Z"/></clipPath><clipPath id="TiLcOIBcCixw"><path fill="none" stroke="none" d="M 70.5 30.5 L 570.5 30.5 L 570.5 280.5 L 70.5 280.5 L 70.5 30.5 Z"/></clipPath><clipPath id="ZrNTqSTSlpXT"><path fill="none" stroke="none" d="M 70.5 30.5 L 570.5 30.5 L 570.5 280.5 L 70.5 280.5 L 70.5 30.5 Z"/></clipPath><clipPath id="xyNJIxpRfNoE"><path fill="none" stroke="none" d="M 70.5 30.5 L 570.5 30.5 L 570.5 280.5 L 70.5 280.5 L 70.5 30.5 Z"/></clipPath><clipPath id="aMiIDbKBItwq"><path fill="none" stroke="none" d="M 70.5 30.5 L 570.5 30.5 L 570.5 280.5 L 70.5 280.5 L 70.5 30.5 Z"/></clipPath><clipPath id="unViRUvFqPpB"><path fill="none" stroke="none" d="M 70.5 30.5 L 570.5 30.5 L 570.5 280.5 L 70.5 280.5 L 70.5 30.5 Z"/></clipPath><clipPath id="tfPxeGPWymgx"><path fill="none" stroke="none" d="M 70.5 30.5 L 570.5 30.5 L 570.5 280.5 L 70.5 280.5 L 70.5 30.5 Z"/></clipPath><clipPath id="AcbihGyQWTkn"><path fill="none" stroke="none" d="M 70.5 30.5 L 570.5 30.5 L 570.5 280.5 L 70.5 280.5 L 70.5 30.5 Z"/></clipPath><clipPath id="FQnHuIPwoFnI"><path fill="none" stroke="none" d="M 70.5 30.5 L 570.5 30.5 L 570.5 280.5 L 70.5 280.5 L 70.5 30.5 Z"/></clipPath></defs><path fill="none" stroke="#e5e5e5" paint-order="fill" d="M 70.5 30.5 L 570.5 30.5 L 570.5 280.5 L 70.5 280.5 L 70.5 30.5 Z" stroke-linejoin="bevel" stroke-miterlimit="10"/><path fill="none" stroke="black" paint-order="fill" d="M 332.46172248803487 30.5 L 332.46172248803487 280.5" stroke-linejoin="bevel" stroke-miterlimit="10" stroke-width="3" stroke-dasharray="6" clip-path="url(#BhqXDLogJZRH)"/><path fill="none" stroke="#9467bd" paint-order="fill" d="M 93.2272720336914 111.40908813476562 L 117.15071868896484 102.31818389892578 L 141.07415771484375 153.22727966308594 L 164.9976043701172 138.68182373046875 L 188.92105102539062 91.40908813476562 L 212.84449768066406 122.31818389892578 L 236.7679443359375 182.31817626953125 L 260.6913757324219 116.86363983154297 L 284.6148376464844 165.9545440673828 L 308.53826904296875 136.86363220214844" stroke-linejoin="bevel" stroke-miterlimit="10" stroke-width="2" clip-path="url(#ivhxaLJoQCQE)"/><path fill="none" stroke="#9467bd" paint-order="fill" d="M 93.2272720336914 111.40908813476562 L 117.15071868896484 102.31818389892578 L 141.07415771484375 153.22727966308594 L 164.9976043701172 138.68182373046875 L 188.92105102539062 91.40908813476562 L 212.84449768066406 122.31818389892578 L 236.7679443359375 182.31817626953125 L 260.6913757324219 116.86363983154297 L 284.6148376464844 165.9545440673828 L 308.53826904296875 136.86363220214844" stroke-linejoin="bevel" stroke-miterlimit="10" stroke-width="2" stroke-dasharray="6" clip-path="url(#reMBNJUqGstA)"/><path fill="none" stroke="#30a2da" paint-order="fill" d="M 308.53826904296875 136.86363220214844 L 332.46173095703125 98.68181610107422 L 356.3851623535156 85.95454406738281 L 380.3086242675781 98.68181610107422 L 404.2320556640625 107.7727279663086 L 428.155517578125 100.5 L 452.0789489746094 149.59091186523438 L 476.00238037109375 184.13636779785156 L 499.92584228515625 122.31818389892578 L 523.8493041992188 140.5 L 547.772705078125 196.86363220214844" stroke-linejoin="bevel" stroke-miterlimit="10" stroke-width="2" clip-path="url(#TPMOgcEosuIx)"/><path fill="none" stroke="#30a2da" paint-order="fill" d="M 332.46173095703125 83.17768859863281 L 356.3851623535156 93.24931335449219 L 380.3086242675781 103.32093811035156 L 404.2320556640625 113.39256286621094 L 428.155517578125 123.46418762207031 L 452.0789489746094 133.5358123779297 L 476.00238037109375 143.60743713378906 L 499.92584228515625 153.67906188964844 L 523.8493041992188 163.7506866455078 L 547.772705078125 173.8223114013672" stroke-linejoin="bevel" stroke-miterlimit="10" stroke-width="2" stroke-dasharray="6" clip-path="url(#CMgZiotNfIFr)"/><path fill="none" stroke="#fc4f30" paint-order="fill" d="M 308.53826904296875 136.86363220214844 L 332.46173095703125 89.59091186523438 L 356.3851623535156 200.5 L 380.3086242675781 176.86363220214844 L 404.2320556640625 140.5 L 428.155517578125 140.5 L 452.0789489746094 136.86363220214844 L 476.00238037109375 155.0454559326172 L 499.92584228515625 129.59091186523438 L 523.8493041992188 155.0454559326172 L 547.772705078125 91.40908813476562" stroke-linejoin="bevel" stroke-miterlimit="10" stroke-width="2" clip-path="url(#KoVOpThVCkTJ)"/><path fill="none" stroke="#fc4f30" paint-order="fill" d="M 332.46173095703125 155.1776885986328 L 356.3851623535156 152.1584014892578 L 380.3086242675781 149.1391143798828 L 404.2320556640625 146.1198272705078 L 428.155517578125 143.10055541992188 L 452.0789489746094 140.08126831054688 L 476.00238037109375 137.06198120117188 L 499.92584228515625 134.04269409179688 L 523.8493041992188 131.02342224121094 L 547.772705078125 128.00413513183594" stroke-linejoin="bevel" stroke-miterlimit="10" stroke-width="2" stroke-dasharray="6" clip-path="url(#DUApHWdwtlqw)"/><path fill="none" stroke="rgb(128,128,128)" paint-order="fill" d="M 93.2272720336914 216.86363220214844 L 117.15071868896484 111.40908813476562 L 141.07415771484375 75.04545593261719 L 164.9976043701172 107.7727279663086 L 188.92105102539062 107.7727279663086 L 212.84449768066406 109.59091186523438 L 236.7679443359375 124.13636016845703 L 260.6913757324219 113.2272720336914 L 284.6148376464844 107.7727279663086 L 308.53826904296875 71.40908813476562" stroke-opacity="0.7490196078431373" stroke-linejoin="bevel" stroke-miterlimit="10" clip-path="url(#RkiGosmseJmk)"/><path fill="none" stroke="grey" paint-order="fill" d="M 308.53826904296875 71.40908813476562 L 332.46173095703125 85.95454406738281 L 356.3851623535156 105.95454406738281 L 380.3086242675781 82.31818389892578 L 404.2320556640625 100.5 L 428.155517578125 89.59091186523438 L 452.0789489746094 89.59091186523438 L 476.00238037109375 124.13636016845703 L 499.92584228515625 125.95454406738281 L 523.8493041992188 167.77272033691406 L 547.772705078125 149.59091186523438" stroke-linejoin="bevel" stroke-miterlimit="10" stroke-width="0.5" clip-path="url(#IgiDKPXhKoSd)"/><path fill="none" stroke="grey" paint-order="fill" d="M 308.53826904296875 71.40908813476562 L 332.46173095703125 98.68181610107422 L 356.3851623535156 125.95454406738281 L 380.3086242675781 133.22727966308594 L 404.2320556640625 169.59091186523438 L 428.155517578125 129.59091186523438 L 452.0789489746094 89.59091186523438 L 476.00238037109375 131.40908813476562 L 499.92584228515625 115.04545593261719 L 523.8493041992188 145.9545440673828 L 547.772705078125 105.95454406738281" stroke-linejoin="bevel" stroke-miterlimit="10" stroke-width="0.5" clip-path="url(#iTLzSMvQlZnA)"/><path fill="none" stroke="rgb(128,128,128)" paint-order="fill" d="M 93.2272720336914 125.95454406738281 L 117.15071868896484 124.13636016845703 L 141.07415771484375 89.59091186523438 L 164.9976043701172 105.95454406738281 L 188.92105102539062 129.59091186523438 L 212.84449768066406 84.13636016845703 L 236.7679443359375 84.13636016845703 L 260.6913757324219 98.68181610107422 L 284.6148376464844 133.22727966308594 L 308.53826904296875 105.95454406738281" stroke-opacity="0.7490196078431373" stroke-linejoin="bevel" stroke-miterlimit="10" clip-path="url(#gZgxqyAvkeJb)"/><path fill="none" stroke="grey" paint-order="fill" d="M 308.53826904296875 105.95454406738281 L 332.46173095703125 105.95454406738281 L 356.3851623535156 102.31818389892578 L 380.3086242675781 85.95454406738281 L 404.2320556640625 109.59091186523438 L 428.155517578125 100.5 L 452.0789489746094 84.13636016845703 L 476.00238037109375 53.227272033691406 L 499.92584228515625 109.59091186523438 L 523.8493041992188 87.7727279663086 L 547.772705078125 129.59091186523438" stroke-linejoin="bevel" stroke-miterlimit="10" stroke-width="0.5" clip-path="url(#IXIJaSnEEVVG)"/><path fill="none" stroke="grey" paint-order="fill" d="M 308.53826904296875 105.95454406738281 L 332.46173095703125 67.7727279663086 L 356.3851623535156 120.5 L 380.3086242675781 129.59091186523438 L 404.2320556640625 105.95454406738281 L 428.155517578125 118.68181610107422 L 452.0789489746094 162.31817626953125 L 476.00238037109375 95.04545593261719 L 499.92584228515625 147.77272033691406 L 523.8493041992188 102.31818389892578 L 547.772705078125 96.86363983154297" stroke-linejoin="bevel" stroke-miterlimit="10" stroke-width="0.5" clip-path="url(#hHeFSKadBFMS)"/><path fill="none" stroke="rgb(128,128,128)" paint-order="fill" d="M 93.2272720336914 129.59091186523438 L 117.15071868896484 111.40908813476562 L 141.07415771484375 84.13636016845703 L 164.9976043701172 113.2272720336914 L 188.92105102539062 176.86363220214844 L 212.84449768066406 104.13636016845703 L 236.7679443359375 165.9545440673828 L 260.6913757324219 65.95454406738281 L 284.6148376464844 115.04545593261719 L 308.53826904296875 80.5" stroke-opacity="0.7490196078431373" stroke-linejoin="bevel" stroke-miterlimit="10" clip-path="url(#TiLcOIBcCixw)"/><path fill="none" stroke="grey" paint-order="fill" d="M 308.53826904296875 80.5 L 332.46173095703125 127.7727279663086 L 356.3851623535156 93.2272720336914 L 380.3086242675781 142.31817626953125 L 404.2320556640625 105.95454406738281 L 428.155517578125 151.40908813476562 L 452.0789489746094 91.40908813476562 L 476.00238037109375 142.31817626953125 L 499.92584228515625 115.04545593261719 L 523.8493041992188 153.22727966308594 L 547.772705078125 127.7727279663086" stroke-linejoin="bevel" stroke-miterlimit="10" stroke-width="0.5" clip-path="url(#ZrNTqSTSlpXT)"/><path fill="none" stroke="grey" paint-order="fill" d="M 308.53826904296875 80.5 L 332.46173095703125 124.13636016845703 L 356.3851623535156 105.95454406738281 L 380.3086242675781 98.68181610107422 L 404.2320556640625 131.40908813476562 L 428.155517578125 142.31817626953125 L 452.0789489746094 105.95454406738281 L 476.00238037109375 125.95454406738281 L 499.92584228515625 122.31818389892578 L 523.8493041992188 118.68181610107422 L 547.772705078125 115.04545593261719" stroke-linejoin="bevel" stroke-miterlimit="10" stroke-width="0.5" clip-path="url(#xyNJIxpRfNoE)"/><path fill="none" stroke="rgb(128,128,128)" paint-order="fill" d="M 93.2272720336914 180.5 L 117.15071868896484 118.68181610107422 L 141.07415771484375 133.22727966308594 L 164.9976043701172 93.2272720336914 L 188.92105102539062 147.77272033691406 L 212.84449768066406 131.40908813476562 L 236.7679443359375 109.59091186523438 L 260.6913757324219 69.59091186523438 L 284.6148376464844 113.2272720336914 L 308.53826904296875 122.31818389892578" stroke-opacity="0.7490196078431373" stroke-linejoin="bevel" stroke-miterlimit="10" clip-path="url(#aMiIDbKBItwq)"/><path fill="none" stroke="grey" paint-order="fill" d="M 308.53826904296875 122.31818389892578 L 332.46173095703125 102.31818389892578 L 356.3851623535156 124.13636016845703 L 380.3086242675781 84.13636016845703 L 404.2320556640625 102.31818389892578 L 428.155517578125 125.95454406738281 L 452.0789489746094 151.40908813476562 L 476.00238037109375 155.0454559326172 L 499.92584228515625 125.95454406738281 L 523.8493041992188 125.95454406738281 L 547.772705078125 118.68181610107422" stroke-linejoin="bevel" stroke-miterlimit="10" stroke-width="0.5" clip-path="url(#unViRUvFqPpB)"/><path fill="none" stroke="grey" paint-order="fill" d="M 308.53826904296875 122.31818389892578 L 332.46173095703125 89.59091186523438 L 356.3851623535156 102.31818389892578 L 380.3086242675781 116.86363983154297 L 404.2320556640625 131.40908813476562 L 428.155517578125 129.59091186523438 L 452.0789489746094 100.5 L 476.00238037109375 153.22727966308594 L 499.92584228515625 156.86363220214844 L 523.8493041992188 104.13636016845703 L 547.772705078125 104.13636016845703" stroke-linejoin="bevel" stroke-miterlimit="10" stroke-width="0.5" clip-path="url(#tfPxeGPWymgx)"/><path fill="none" stroke="black" paint-order="fill" d="M 70.5 280.5 L 570.5 280.5" stroke-linejoin="bevel" stroke-miterlimit="10"/><path fill="none" stroke="black" paint-order="fill" d="M 93.5 286.5 L 93.5 278.5 M 212.5 286.5 L 212.5 278.5 M 332.5 286.5 L 332.5 278.5 M 452.5 286.5 L 452.5 278.5" stroke-linejoin="bevel" stroke-miterlimit="10"/><path fill="none" stroke="black" paint-order="fill" d="M 93.5 284.5 L 93.5 280.5 M 117.5 284.5 L 117.5 280.5 M 141.5 284.5 L 141.5 280.5 M 164.5 284.5 L 164.5 280.5 M 188.5 284.5 L 188.5 280.5 M 212.5 284.5 L 212.5 280.5 M 236.5 284.5 L 236.5 280.5 M 260.5 284.5 L 260.5 280.5 M 284.5 284.5 L 284.5 280.5 M 308.5 284.5 L 308.5 280.5 M 332.5 284.5 L 332.5 280.5 M 356.5 284.5 L 356.5 280.5 M 380.5 284.5 L 380.5 280.5 M 404.5 284.5 L 404.5 280.5 M 428.5 284.5 L 428.5 280.5 M 452.5 284.5 L 452.5 280.5 M 476.5 284.5 L 476.5 280.5 M 499.5 284.5 L 499.5 280.5 M 523.5 284.5 L 523.5 280.5 M 547.5 284.5 L 547.5 280.5" stroke-linejoin="bevel" stroke-miterlimit="10"/><text fill="#444444" stroke="none" font-family="helvetica" font-size="10pt" font-style="normal" font-weight="normal" text-decoration="normal" x="77.82727241516113" y="300.59368896484375" text-anchor="start" dominant-baseline="alphabetic" transform="matrix(1, 0, 0, 1, 0.5, 0.5)">2025</text><text fill="none" stroke="rgb(0,0,0)" font-family="helvetica" font-size="10pt" font-style="normal" font-weight="normal" text-decoration="normal" x="77.82727241516113" y="300.59368896484375" text-anchor="start" dominant-baseline="alphabetic" transform="matrix(1, 0, 0, 1, 0.5, 0.5)" stroke-opacity="0" stroke-linejoin="bevel" stroke-miterlimit="10">2025</text><text fill="#444444" stroke="none" font-family="helvetica" font-size="10pt" font-style="normal" font-weight="normal" text-decoration="normal" x="197.4444980621338" y="300.59368896484375" text-anchor="start" dominant-baseline="alphabetic" transform="matrix(1, 0, 0, 1, 0.5, 0.5)">2030</text><text fill="none" stroke="rgb(0,0,0)" font-family="helvetica" font-size="10pt" font-style="normal" font-weight="normal" text-decoration="normal" x="197.4444980621338" y="300.59368896484375" text-anchor="start" dominant-baseline="alphabetic" transform="matrix(1, 0, 0, 1, 0.5, 0.5)" stroke-opacity="0" stroke-linejoin="bevel" stroke-miterlimit="10">2030</text><text fill="#444444" stroke="none" font-family="helvetica" font-size="10pt" font-style="normal" font-weight="normal" text-decoration="normal" x="317.061731338501" y="300.59368896484375" text-anchor="start" dominant-baseline="alphabetic" transform="matrix(1, 0, 0, 1, 0.5, 0.5)">2035</text><text fill="none" stroke="rgb(0,0,0)" font-family="helvetica" font-size="10pt" font-style="normal" font-weight="normal" text-decoration="normal" x="317.061731338501" y="300.59368896484375" text-anchor="start" dominant-baseline="alphabetic" transform="matrix(1, 0, 0, 1, 0.5, 0.5)" stroke-opacity="0" stroke-linejoin="bevel" stroke-miterlimit="10">2035</text><text fill="#444444" stroke="none" font-family="helvetica" font-size="10pt" font-style="normal" font-weight="normal" text-decoration="normal" x="436.6789493560791" y="300.59368896484375" text-anchor="start" dominant-baseline="alphabetic" transform="matrix(1, 0, 0, 1, 0.5, 0.5)">2040</text><text fill="none" stroke="rgb(0,0,0)" font-family="helvetica" font-size="10pt" font-style="normal" font-weight="normal" text-decoration="normal" x="436.6789493560791" y="300.59368896484375" text-anchor="start" dominant-baseline="alphabetic" transform="matrix(1, 0, 0, 1, 0.5, 0.5)" stroke-opacity="0" stroke-linejoin="bevel" stroke-miterlimit="10">2040</text><text fill="#444444" stroke="none" font-family="helvetica" font-size="12pt" font-style="normal" font-weight="normal" text-decoration="normal" x="303.8333339691162" y="321.59368896484375" text-anchor="start" dominant-baseline="alphabetic" transform="matrix(1, 0, 0, 1, 0.5, 0.5)">Year</text><text fill="none" stroke="rgb(0,0,0)" font-family="helvetica" font-size="12pt" font-style="normal" font-weight="normal" text-decoration="normal" x="303.8333339691162" y="321.59368896484375" text-anchor="start" dominant-baseline="alphabetic" transform="matrix(1, 0, 0, 1, 0.5, 0.5)" stroke-opacity="0" stroke-linejoin="bevel" stroke-miterlimit="10">Year</text><path fill="none" stroke="black" paint-order="fill" d="M 70.5 280.5 L 70.5 30.5" stroke-linejoin="bevel" stroke-miterlimit="10"/><path fill="none" stroke="black" paint-order="fill" d="M 64.5 280.5 L 72.5 280.5 M 64.5 244.5 L 72.5 244.5 M 64.5 207.5 L 72.5 207.5 M 64.5 171.5 L 72.5 171.5 M 64.5 135.5 L 72.5 135.5 M 64.5 98.5 L 72.5 98.5 M 64.5 62.5 L 72.5 62.5" stroke-linejoin="bevel" stroke-miterlimit="10"/><path fill="none" stroke="black" paint-order="fill" d="M 66.5 280.5 L 70.5 280.5 M 66.5 273.5 L 70.5 273.5 M 66.5 265.5 L 70.5 265.5 M 66.5 258.5 L 70.5 258.5 M 66.5 251.5 L 70.5 251.5 M 66.5 244.5 L 70.5 244.5 M 66.5 236.5 L 70.5 236.5 M 66.5 229.5 L 70.5 229.5 M 66.5 222.5 L 70.5 222.5 M 66.5 215.5 L 70.5 215.5 M 66.5 207.5 L 70.5 207.5 M 66.5 200.5 L 70.5 200.5 M 66.5 193.5 L 70.5 193.5 M 66.5 185.5 L 70.5 185.5 M 66.5 178.5 L 70.5 178.5 M 66.5 171.5 L 70.5 171.5 M 66.5 164.5 L 70.5 164.5 M 66.5 156.5 L 70.5 156.5 M 66.5 149.5 L 70.5 149.5 M 66.5 142.5 L 70.5 142.5 M 66.5 135.5 L 70.5 135.5 M 66.5 127.5 L 70.5 127.5 M 66.5 120.5 L 70.5 120.5 M 66.5 113.5 L 70.5 113.5 M 66.5 105.5 L 70.5 105.5 M 66.5 98.5 L 70.5 98.5 M 66.5 91.5 L 70.5 91.5 M 66.5 84.5 L 70.5 84.5 M 66.5 76.5 L 70.5 76.5 M 66.5 69.5 L 70.5 69.5 M 66.5 62.5 L 70.5 62.5 M 66.5 55.5 L 70.5 55.5 M 66.5 47.5 L 70.5 47.5 M 66.5 40.5 L 70.5 40.5 M 66.5 33.5 L 70.5 33.5" stroke-linejoin="bevel" stroke-miterlimit="10"/><text fill="#444444" stroke="none" font-family="helvetica" font-size="10pt" font-style="normal" font-weight="normal" text-decoration="normal" x="51.55000019073486" y="284.7968444824219" text-anchor="start" dominant-baseline="alphabetic" transform="matrix(1, 0, 0, 1, 0.5, 0.5)">0</text><text fill="none" stroke="rgb(0,0,0)" font-family="helvetica" font-size="10pt" font-style="normal" font-weight="normal" text-decoration="normal" x="51.55000019073486" y="284.7968444824219" text-anchor="start" dominant-baseline="alphabetic" transform="matrix(1, 0, 0, 1, 0.5, 0.5)" stroke-opacity="0" stroke-linejoin="bevel" stroke-miterlimit="10">0</text><text fill="#444444" stroke="none" font-family="helvetica" font-size="10pt" font-style="normal" font-weight="normal" text-decoration="normal" x="44.10000038146973" y="248.43321228027344" text-anchor="start" dominant-baseline="alphabetic" transform="matrix(1, 0, 0, 1, 0.5, 0.5)">20</text><text fill="none" stroke="rgb(0,0,0)" font-family="helvetica" font-size="10pt" font-style="normal" font-weight="normal" text-decoration="normal" x="44.10000038146973" y="248.43321228027344" text-anchor="start" dominant-baseline="alphabetic" transform="matrix(1, 0, 0, 1, 0.5, 0.5)" stroke-opacity="0" stroke-linejoin="bevel" stroke-miterlimit="10">20</text><text fill="#444444" stroke="none" font-family="helvetica" font-size="10pt" font-style="normal" font-weight="normal" text-decoration="normal" x="44.10000038146973" y="212.06956481933594" text-anchor="start" dominant-baseline="alphabetic" transform="matrix(1, 0, 0, 1, 0.5, 0.5)">40</text><text fill="none" stroke="rgb(0,0,0)" font-family="helvetica" font-size="10pt" font-style="normal" font-weight="normal" text-decoration="normal" x="44.10000038146973" y="212.06956481933594" text-anchor="start" dominant-baseline="alphabetic" transform="matrix(1, 0, 0, 1, 0.5, 0.5)" stroke-opacity="0" stroke-linejoin="bevel" stroke-miterlimit="10">40</text><text fill="#444444" stroke="none" font-family="helvetica" font-size="10pt" font-style="normal" font-weight="normal" text-decoration="normal" x="44.10000038146973" y="175.7059326171875" text-anchor="start" dominant-baseline="alphabetic" transform="matrix(1, 0, 0, 1, 0.5, 0.5)">60</text><text fill="none" stroke="rgb(0,0,0)" font-family="helvetica" font-size="10pt" font-style="normal" font-weight="normal" text-decoration="normal" x="44.10000038146973" y="175.7059326171875" text-anchor="start" dominant-baseline="alphabetic" transform="matrix(1, 0, 0, 1, 0.5, 0.5)" stroke-opacity="0" stroke-linejoin="bevel" stroke-miterlimit="10">60</text><text fill="#444444" stroke="none" font-family="helvetica" font-size="10pt" font-style="normal" font-weight="normal" text-decoration="normal" x="44.10000038146973" y="139.34230041503906" text-anchor="start" dominant-baseline="alphabetic" transform="matrix(1, 0, 0, 1, 0.5, 0.5)">80</text><text fill="none" stroke="rgb(0,0,0)" font-family="helvetica" font-size="10pt" font-style="normal" font-weight="normal" text-decoration="normal" x="44.10000038146973" y="139.34230041503906" text-anchor="start" dominant-baseline="alphabetic" transform="matrix(1, 0, 0, 1, 0.5, 0.5)" stroke-opacity="0" stroke-linejoin="bevel" stroke-miterlimit="10">80</text><text fill="#444444" stroke="none" font-family="helvetica" font-size="10pt" font-style="normal" font-weight="normal" text-decoration="normal" x="36.64999961853027" y="102.9786605834961" text-anchor="start" dominant-baseline="alphabetic" transform="matrix(1, 0, 0, 1, 0.5, 0.5)">100</text><text fill="none" stroke="rgb(0,0,0)" font-family="helvetica" font-size="10pt" font-style="normal" font-weight="normal" text-decoration="normal" x="36.64999961853027" y="102.9786605834961" text-anchor="start" dominant-baseline="alphabetic" transform="matrix(1, 0, 0, 1, 0.5, 0.5)" stroke-opacity="0" stroke-linejoin="bevel" stroke-miterlimit="10">100</text><text fill="#444444" stroke="none" font-family="helvetica" font-size="10pt" font-style="normal" font-weight="normal" text-decoration="normal" x="36.64999961853027" y="66.61502456665039" text-anchor="start" dominant-baseline="alphabetic" transform="matrix(1, 0, 0, 1, 0.5, 0.5)">120</text><text fill="none" stroke="rgb(0,0,0)" font-family="helvetica" font-size="10pt" font-style="normal" font-weight="normal" text-decoration="normal" x="36.64999961853027" y="66.61502456665039" text-anchor="start" dominant-baseline="alphabetic" transform="matrix(1, 0, 0, 1, 0.5, 0.5)" stroke-opacity="0" stroke-linejoin="bevel" stroke-miterlimit="10">120</text><text fill="#444444" stroke="none" font-family="helvetica" font-size="12pt" font-style="normal" font-weight="normal" text-decoration="normal" x="-78.07499885559082" y="151" text-anchor="start" dominant-baseline="alphabetic" transform="matrix(6.123233995736766e-17, -1, 1, 6.123233995736766e-17, -125.85000038146973, 184.14999961853027)">Days suitable for transmission</text><text fill="none" stroke="rgb(0,0,0)" font-family="helvetica" font-size="12pt" font-style="normal" font-weight="normal" text-decoration="normal" x="-78.07499885559082" y="151" text-anchor="start" dominant-baseline="alphabetic" transform="matrix(6.123233995736766e-17, -1, 1, 6.123233995736766e-17, -125.85000038146973, 184.14999961853027)" stroke-opacity="0" stroke-linejoin="bevel" stroke-miterlimit="10">Days suitable for transmission</text><path fill="rgb(255,255,255)" stroke="rgb(229,229,229)" paint-order="fill" d="M 475.183349609375 205.5 L 560.5000152587891 205.5 L 560.5000152587891 270.5 L 475.183349609375 270.5 L 475.183349609375 205.5 Z" fill-opacity="0.9490196078431372" clip-path="url(#AcbihGyQWTkn)" stroke-opacity="0.5019607843137255" stroke-linejoin="bevel" stroke-miterlimit="10"/><g clip-path="url(#AcbihGyQWTkn)"><g transform="matrix(1, 0, 0, 1, 485.683349609375, 216)"><path fill="none" stroke="#30a2da" paint-order="fill" d="M 0.5 10.5 L 20.5 10.5" stroke-linejoin="bevel" stroke-miterlimit="10" stroke-width="2"/></g></g><g clip-path="url(#AcbihGyQWTkn)"><text fill="#444444" stroke="none" font-family="helvetica" font-size="13px" font-style="normal" font-weight="normal" text-decoration="normal" x="510.683349609375" y="230" text-anchor="start" dominant-baseline="alphabetic" transform="matrix(1, 0, 0, 1, 0.5, 0.5)">ID 001</text></g><g clip-path="url(#AcbihGyQWTkn)"><text fill="none" stroke="rgb(0,0,0)" font-family="helvetica" font-size="13px" font-style="normal" font-weight="normal" text-decoration="normal" x="510.683349609375" y="230" text-anchor="start" dominant-baseline="alphabetic" transform="matrix(1, 0, 0, 1, 0.5, 0.5)" stroke-opacity="0" stroke-linejoin="bevel" stroke-miterlimit="10">ID 001</text></g><g clip-path="url(#AcbihGyQWTkn)"><g transform="matrix(1, 0, 0, 1, 485.683349609375, 239)"><path fill="none" stroke="#fc4f30" paint-order="fill" d="M 0.5 10.5 L 20.5 10.5" stroke-linejoin="bevel" stroke-miterlimit="10" stroke-width="2"/></g></g><g clip-path="url(#AcbihGyQWTkn)"><text fill="#444444" stroke="none" font-family="helvetica" font-size="13px" font-style="normal" font-weight="normal" text-decoration="normal" x="510.683349609375" y="253" text-anchor="start" dominant-baseline="alphabetic" transform="matrix(1, 0, 0, 1, 0.5, 0.5)">ID 006</text></g><g clip-path="url(#AcbihGyQWTkn)"><text fill="none" stroke="rgb(0,0,0)" font-family="helvetica" font-size="13px" font-style="normal" font-weight="normal" text-decoration="normal" x="510.683349609375" y="253" text-anchor="start" dominant-baseline="alphabetic" transform="matrix(1, 0, 0, 1, 0.5, 0.5)" stroke-opacity="0" stroke-linejoin="bevel" stroke-miterlimit="10">ID 006</text></g><text fill="black" stroke="none" font-family="helvetica" font-size="14pt" font-style="normal" font-weight="normal" text-decoration="normal" x="0" y="15" text-anchor="start" dominant-baseline="alphabetic" transform="matrix(1, 0, 0, 1, 5.5, 5.5)">A. London</text><text fill="none" stroke="rgb(0,0,0)" font-family="helvetica" font-size="14pt" font-style="normal" font-weight="normal" text-decoration="normal" x="0" y="15" text-anchor="start" dominant-baseline="alphabetic" transform="matrix(1, 0, 0, 1, 5.5, 5.5)" stroke-opacity="0" stroke-linejoin="bevel" stroke-miterlimit="10">A. London</text></svg>