<svg version="1.1" xmlns="http://www.w3.org/2000/svg" width="600" height="329"><defs><clipPath id="DHNtTMMscfvb"><path fill="none" stroke="none" d="M 70.5 30.5 L 570.5 30.5 L 570.5 280.5 L 70.5 280.5 L 70.5 30.5 Z"/></clipPath><clipPath id="xKgUXafkcIMA"><path fill="none" stroke="none" d="M 70.5 30.5 L 570.5 30.5 L 570.5 280.5 L 70.5 280.5 L 70.5 30.5 Z"/></clipPath><clipPath id="reCEKwzfPDro"><path fill="none" stroke="none" d="M 70.5 30.5 L 570.5 30.5 L 570.5 280.5 L 70.5 280.5 L 70.5 30.5 Z"/></clipPath><clipPath id="PanTbwHEAoqr"><path fill="none" stroke="none" d="M 70.5 30.5 L 570.5 30.5 L 570.5 280.5 L 70.5 280.5 L 70.5 30.5 Z"/></clipPath><clipPath id="NANGHPKXPsmT"><path fill="none" stroke="none" d="M 70.5 30.5 L 570.5 30.5 L 570.5 280.5 L 70.5 280.5 L 70.5 30.5 Z"/></clipPath><clipPath id="GmVKAVceCxNS"><path fill="none" stroke="none" d="M 70.5 30.5 L 570.5 30.5 L 570.5 280.5 L 70.5 280.5 L 70.5 30.5 Z"/></clipPath><clipPath id="UEhPocbkVqQE"><path fill="none" stroke="none" d="M 70.5 30.5 L 570.5 30.5 L 570.5 280.5 L 70.5 280.5 L 70.5 30.5 Z"/></clipPath><clipPath id="ITOtGLrvKOup"><path fill="none" stroke="none" d="M 70.5 30.5 L 570.5 30.5 L 570.5 280.5 L 70.5 280.5 L 70.5 30.5 Z"/></clipPath><clipPath id="GZGduNTyIgRW"><path fill="none" stroke="none" d="M 70.5 30.5 L 570.5 30.5 L 570.5 280.5 L 70.5 280.5 L 70.5 30.5 Z"/></clipPath><clipPath id="dyOCiCGWTsVi"><path fill="none" stroke="none" d="M 70.5 30.5 L 570.5 30.5 L 570.5 280.5 L 70.5 280.5 L 70.5 30.5 Z"/></clipPath><clipPath id="MRRhXPdTFwiZ"><path fill="none" stroke="none" d="M 70.5 30.5 L 570.5 30.5 L 570.5 280.5 L 70.5 280.5 L 70.5 30.5 Z"/></clipPath><clipPath id="FAJveTGySrAl"><path fill="none" stroke="none" d="M 70.5 30.5 L 570.5 30.5 L 570.5 280.5 L 70.5 280.5 L 70.5 30.5 Z"/></clipPath><clipPath id="ihbUzsxEJnhe"><path fill="none" stroke="none" d="M 70.5 30.5 L 570.5 30.5 L 570.5 280.5 L 70.5 280.5 L 70.5 30.5 Z"/></clipPath><clipPath id="pgCzVkJuCkUN"><path fill="none" stroke="none" d="M 70.5 30.5 L 570.5 30.5 L 570.5 280.5 L 70.5 280.5 L 70.5 30.5 Z"/></clipPath><clipPath id="SKBFZCzQRrhK"><path fill="none" stroke="none" d="M 70.5 30.5 L 570.5 30.5 L 570.5 280.5 L 70.5 280.5 L 70.5 30.5 Z"/></clipPath><clipPath id="xIcuMDpNXzLZ"><path fill="none" stroke="none" d="M 70.5 30.5 L 570.5 30.5 L 570.5 280.5 L 70.5 280.5 L 70.5 30.5 Z"/></clipPath><clipPath id="luCvufAFsyHE"><path fill="none" stroke="none" d="M 70.5 30.5 L 570.5 30.5 L 570.5 280.5 L 70.5 280.5 L 70.5 30.5 Z"/></clipPath><clipPath id="RQCfItetJGia"><path fill="none" stroke="none" d="M 70.5 30.5 L 570.5 30.5 L 570.5 280.5 L 70.5 280.5 L 70.5 30.5 Z"/></clipPath><clipPath id="FzNfLXSmcXfz"><path fill="none" stroke="none" d="M 70.5 30.5 L 570.5 30.5 L 570.5 280.5 L 70.5 280.5 L 70.5 30.5 Z"/></clipPath><clipPath id="VVlMyBhFpAAB"><path fill="none" stroke="none" d="M 70.5 30.5 L 570.5 30.5 L 570.5 280.5 L 70.5 280.5 L 70.5 30.5 Z"/></clipPath><clipPath id="LrEDxsdetUQF"><path fill="none" stroke="none" d="M 70.5 30.5 L 570.5 30.5 L 570.5 280.5 L 70.5 280.5 L 70.5 30.5 Z"/></clipPath><clipPath id="cGsOAKNTGETX"><path fill="none" stroke="none" d="M 70.5 30.5 L 570.5 30.5 L 570.5 280.5 L 70.5 280.5 L 70.5 30.5 Z"/></clipPath><clipPath id="PThaHTeTupbp"><path fill="none" stroke="none" d="M 70.5 30.5 L 570.5 30.5 L 570.5 280.5 L 70.5 280.5 L 70.5 30.5 Z"/></clipPath></defs><path fill="none" stroke="#e5e5e5" paint-order="fill" d="M 70.5 30.5 L 570.5 30.5 L 570.5 280.5 L 70.5 280.5 L 70.5 30.5 Z" stroke-linejoin="bevel" stroke-miterlimit="10"/><path fill="none" stroke="black" paint-order="fill" d="M 332.46172248803487 30.5 L 332.46172248803487 280.5" stroke-linejoin="bevel" stroke-miterlimit="10" stroke-width="3" stroke-dasharray="6" clip-path="url(#reCEKwzfPDro)"/><path fill="none" stroke="#9467bd" paint-order="fill" d="M 93.2272720336914 95.6934585571289 L 117.15071868896484 83.89729309082031 L 141.07415771484375 99.6255111694336 L 164.9976043701172 83.89729309082031 L 188.92105102539062 65.0234375 L 212.84449768066406 67.3826675415039 L 236.7679443359375 92.54781341552734 L 260.6913757324219 94.90704345703125 L 284.6148376464844 102.77115631103516 L 308.53826904296875 95.6934585571289" stroke-linejoin="bevel" stroke-miterlimit="10" stroke-width="2" clip-path="url(#PanTbwHEAoqr)"/><path fill="none" stroke="#9467bd" paint-order="fill" d="M 93.2272720336914 95.6934585571289 L 117.15071868896484 83.89729309082031 L 141.07415771484375 99.6255111694336 L 164.9976043701172 83.89729309082031 L 188.92105102539062 65.0234375 L 212.84449768066406 67.3826675415039 L 236.7679443359375 92.54781341552734 L 260.6913757324219 94.90704345703125 L 284.6148376464844 102.77115631103516 L 308.53826904296875 95.6934585571289" stroke-linejoin="bevel" stroke-miterlimit="10" stroke-width="2" stroke-dasharray="6" clip-path="url(#NANGHPKXPsmT)"/><path fill="none" stroke="#30a2da" paint-order="fill" d="M 308.53826904296875 95.6934585571289 L 332.46173095703125 57.945735931396484 L 356.3851623535156 65.80984497070312 L 380.3086242675781 90.18858337402344 L 404.2320556640625 78.39241790771484 L 428.155517578125 86.25653076171875 L 452.0789489746094 90.18858337402344 L 476.00238037109375 96.47986602783203 L 499.92584228515625 100.41191864013672 L 523.8493041992188 92.54781341552734 L 547.772705078125 100.41191864013672" stroke-linejoin="bevel" stroke-miterlimit="10" stroke-width="2" clip-path="url(#GmVKAVceCxNS)"/><path fill="none" stroke="#30a2da" paint-order="fill" d="M 332.46173095703125 67.35407257080078 L 356.3851623535156 71.46723937988281 L 380.3086242675781 75.58040618896484 L 404.2320556640625 79.69357299804688 L 428.155517578125 83.8067398071289 L 452.0789489746094 87.91990661621094 L 476.00238037109375 92.03307342529297 L 499.92584228515625 96.146240234375 L 523.8493041992188 100.25940704345703 L 547.772705078125 104.37257385253906" stroke-linejoin="bevel" stroke-miterlimit="10" stroke-width="2" stroke-dasharray="6" clip-path="url(#UEhPocbkVqQE)"/><path fill="none" stroke="#fc4f30" paint-order="fill" d="M 308.53826904296875 95.6934585571289 L 332.46173095703125 98.05268859863281 L 356.3851623535156 87.829345703125 L 380.3086242675781 105.13038635253906 L 404.2320556640625 108.27603149414062 L 428.155517578125 74.46036529541016 L 452.0789489746094 57.15932846069336 L 476.00238037109375 93.33422088623047 L 499.92584228515625 63.45061492919922 L 523.8493041992188 67.3826675415039 L 547.772705078125 89.40216827392578" stroke-linejoin="bevel" stroke-miterlimit="10" stroke-width="2" clip-path="url(#ITOtGLrvKOup)"/><path fill="none" stroke="#fc4f30" paint-order="fill" d="M 332.46173095703125 97.85250854492188 L 356.3851623535156 94.8736801147461 L 380.3086242675781 91.89485168457031 L 404.2320556640625 88.91602325439453 L 428.155517578125 85.93719482421875 L 452.0789489746094 82.95836639404297 L 476.00238037109375 79.97953796386719 L 499.92584228515625 77.0007095336914 L 523.8493041992188 74.02188110351562 L 547.772705078125 71.04305267333984" stroke-linejoin="bevel" stroke-miterlimit="10" stroke-width="2" stroke-dasharray="6" clip-path="url(#GZGduNTyIgRW)"/><path fill="none" stroke="rgb(128,128,128)" paint-order="fill" d="M 93.2272720336914 91.76140594482422 L 117.15071868896484 94.12063598632812 L 141.07415771484375 104.34397888183594 L 164.9976043701172 83.11088562011719 L 188.92105102539062 109.8488540649414 L 212.84449768066406 79.96524047851562 L 236.7679443359375 72.10113525390625 L 260.6913757324219 79.1788330078125 L 284.6148376464844 86.25653076171875 L 308.53826904296875 106.70320892333984" stroke-opacity="0.7490196078431373" stroke-linejoin="bevel" stroke-miterlimit="10" clip-path="url(#dyOCiCGWTsVi)"/><path fill="none" stroke="grey" paint-order="fill" d="M 308.53826904296875 106.70320892333984 L 332.46173095703125 72.10113525390625 L 356.3851623535156 75.24677276611328 L 380.3086242675781 79.1788330078125 L 404.2320556640625 61.87779235839844 L 428.155517578125 84.68370819091797 L 452.0789489746094 85.4701156616211 L 476.00238037109375 54.0136833190918 L 499.92584228515625 91.76140594482422 L 523.8493041992188 83.89729309082031 L 547.772705078125 106.70320892333984" stroke-linejoin="bevel" stroke-miterlimit="10" stroke-width="0.5" clip-path="url(#MRRhXPdTFwiZ)"/><path fill="none" stroke="grey" paint-order="fill" d="M 308.53826904296875 106.70320892333984 L 332.46173095703125 69.74189758300781 L 356.3851623535156 73.67395782470703 L 380.3086242675781 94.12063598632812 L 404.2320556640625 96.47986602783203 L 428.155517578125 80.75164794921875 L 452.0789489746094 60.304969787597656 L 476.00238037109375 98.05268859863281 L 499.92584228515625 58.732147216796875 L 523.8493041992188 64.23702239990234 L 547.772705078125 76.81959533691406" stroke-linejoin="bevel" stroke-miterlimit="10" stroke-width="0.5" clip-path="url(#FAJveTGySrAl)"/><path fill="none" stroke="rgb(128,128,128)" paint-order="fill" d="M 93.2272720336914 68.95549011230469 L 117.15071868896484 69.74189758300781 L 141.07415771484375 90.18858337402344 L 164.9976043701172 88.61576080322266 L 188.92105102539062 54.80009460449219 L 212.84449768066406 120.07218933105469 L 236.7679443359375 91.76140594482422 L 260.6913757324219 62.66420364379883 L 284.6148376464844 98.05268859863281 L 308.53826904296875 92.54781341552734" stroke-opacity="0.7490196078431373" stroke-linejoin="bevel" stroke-miterlimit="10" clip-path="url(#ihbUzsxEJnhe)"/><path fill="none" stroke="grey" paint-order="fill" d="M 308.53826904296875 92.54781341552734 L 332.46173095703125 94.12063598632812 L 356.3851623535156 55.58650588989258 L 380.3086242675781 102.77115631103516 L 404.2320556640625 74.46036529541016 L 428.155517578125 113.7809066772461 L 452.0789489746094 67.3826675415039 L 476.00238037109375 108.27603149414062 L 499.92584228515625 79.1788330078125 L 523.8493041992188 76.81959533691406 L 547.772705078125 86.25653076171875" stroke-linejoin="bevel" stroke-miterlimit="10" stroke-width="0.5" clip-path="url(#pgCzVkJuCkUN)"/><path fill="none" stroke="grey" paint-order="fill" d="M 308.53826904296875 92.54781341552734 L 332.46173095703125 68.16907501220703 L 356.3851623535156 99.6255111694336 L 380.3086242675781 101.19833374023438 L 404.2320556640625 75.24677276611328 L 428.155517578125 113.7809066772461 L 452.0789489746094 100.41191864013672 L 476.00238037109375 84.68370819091797 L 499.92584228515625 102.77115631103516 L 523.8493041992188 68.95549011230469 L 547.772705078125 72.88754272460938" stroke-linejoin="bevel" stroke-miterlimit="10" stroke-width="0.5" clip-path="url(#SKBFZCzQRrhK)"/><path fill="none" stroke="rgb(128,128,128)" paint-order="fill" d="M 93.2272720336914 89.40216827392578 L 117.15071868896484 87.829345703125 L 141.07415771484375 99.6255111694336 L 164.9976043701172 58.732147216796875 L 188.92105102539062 82.32447052001953 L 212.84449768066406 87.04293823242188 L 236.7679443359375 67.3826675415039 L 260.6913757324219 96.47986602783203 L 284.6148376464844 81.5380630493164 L 308.53826904296875 79.1788330078125" stroke-opacity="0.7490196078431373" stroke-linejoin="bevel" stroke-miterlimit="10" clip-path="url(#xIcuMDpNXzLZ)"/><path fill="none" stroke="grey" paint-order="fill" d="M 308.53826904296875 79.1788330078125 L 332.46173095703125 79.96524047851562 L 356.3851623535156 90.97499084472656 L 380.3086242675781 77.60601043701172 L 404.2320556640625 81.5380630493164 L 428.155517578125 87.04293823242188 L 452.0789489746094 92.54781341552734 L 476.00238037109375 89.40216827392578 L 499.92584228515625 91.76140594482422 L 523.8493041992188 97.26628112792969 L 547.772705078125 81.5380630493164" stroke-linejoin="bevel" stroke-miterlimit="10" stroke-width="0.5" clip-path="url(#luCvufAFsyHE)"/><path fill="none" stroke="grey" paint-order="fill" d="M 308.53826904296875 79.1788330078125 L 332.46173095703125 62.66420364379883 L 356.3851623535156 88.61576080322266 L 380.3086242675781 67.3826675415039 L 404.2320556640625 80.75164794921875 L 428.155517578125 83.89729309082031 L 452.0789489746094 90.18858337402344 L 476.00238037109375 72.88754272460938 L 499.92584228515625 102.77115631103516 L 523.8493041992188 77.60601043701172 L 547.772705078125 74.46036529541016" stroke-linejoin="bevel" stroke-miterlimit="10" stroke-width="0.5" clip-path="url(#RQCfItetJGia)"/><path fill="none" stroke="rgb(128,128,128)" paint-order="fill" d="M 93.2272720336914 78.39241790771484 L 117.15071868896484 85.4701156616211 L 141.07415771484375 92.54781341552734 L 164.9976043701172 94.90704345703125 L 188.92105102539062 83.89729309082031 L 212.84449768066406 87.04293823242188 L 236.7679443359375 100.41191864013672 L 260.6913757324219 79.1788330078125 L 284.6148376464844 86.25653076171875 L 308.53826904296875 89.40216827392578" stroke-opacity="0.7490196078431373" stroke-linejoin="bevel" stroke-miterlimit="10" clip-path="url(#FzNfLXSmcXfz)"/><path fill="none" stroke="grey" paint-order="fill" d="M 308.53826904296875 89.40216827392578 L 332.46173095703125 92.54781341552734 L 356.3851623535156 102.77115631103516 L 380.3086242675781 82.32447052001953 L 404.2320556640625 59.518558502197266 L 428.155517578125 53.227272033691406 L 452.0789489746094 81.5380630493164 L 476.00238037109375 111.42167663574219 L 499.92584228515625 68.95549011230469 L 523.8493041992188 79.96524047851562 L 547.772705078125 115.35372924804688" stroke-linejoin="bevel" stroke-miterlimit="10" stroke-width="0.5" clip-path="url(#VVlMyBhFpAAB)"/><path fill="none" stroke="grey" paint-order="fill" d="M 308.53826904296875 89.40216827392578 L 332.46173095703125 101.19833374023438 L 356.3851623535156 78.39241790771484 L 380.3086242675781 61.09138107299805 L 404.2320556640625 75.24677276611328 L 428.155517578125 87.04293823242188 L 452.0789489746094 94.12063598632812 L 476.00238037109375 84.68370819091797 L 499.92584228515625 98.05268859863281 L 523.8493041992188 87.829345703125 L 547.772705078125 88.61576080322266" stroke-linejoin="bevel" stroke-miterlimit="10" stroke-width="0.5" clip-path="url(#LrEDxsdetUQF)"/><path fill="none" stroke="black" paint-order="fill" d="M 70.5 280.5 L 570.5 280.5" stroke-linejoin="bevel" stroke-miterlimit="10"/><path fill="none" stroke="black" paint-order="fill" d="M 93.5 286.5 L 93.5 278.5 M 212.5 286.5 L 212.5 278.5 M 332.5 286.5 L 332.5 278.5 M 452.5 286.5 L 452.5 278.5" stroke-linejoin="bevel" stroke-miterlimit="10"/><path fill="none" stroke="black" paint-order="fill" d="M 93.5 284.5 L 93.5 280.5 M 117.5 284.5 L 117.5 280.5 M 141.5 284.5 L 141.5 280.5 M 164.5 284.5 L 164.5 280.5 M 188.5 284.5 L 188.5 280.5 M 212.5 284.5 L 212.5 280.5 M 236.5 284.5 L 236.5 280.5 M 260.5 284.5 L 260.5 280.5 M 284.5 284.5 L 284.5 280.5 M 308.5 284.5 L 308.5 280.5 M 332.5 284.5 L 332.5 280.5 M 356.5 284.5 L 356.5 280.5 M 380.5 284.5 L 380.5 280.5 M 404.5 284.5 L 404.5 280.5 M 428.5 284.5 L 428.5 280.5 M 452.5 284.5 L 452.5 280.5 M 476.5 284.5 L 476.5 280.5 M 499.5 284.5 L 499.5 280.5 M 523.5 284.5 L 523.5 280.5 M 547.5 284.5 L 547.5 280.5" stroke-linejoin="bevel" stroke-miterlimit="10"/><text fill="#444444" stroke="none" font-family="helvetica" font-size="10pt" font-style="normal" font-weight="normal" text-decoration="normal" x="77.82727241516113" y="300.59368896484375" text-anchor="start" dominant-baseline="alphabetic" transform="matrix(1, 0, 0, 1, 0.5, 0.5)">2025</text><text fill="none" stroke="rgb(0,0,0)" font-family="helvetica" font-size="10pt" font-style="normal" font-weight="normal" text-decoration="normal" x="77.82727241516113" y="300.59368896484375" text-anchor="start" dominant-baseline="alphabetic" transform="matrix(1, 0, 0, 1, 0.5, 0.5)" stroke-opacity="0" stroke-linejoin="bevel" stroke-miterlimit="10">2025</text><text fill="#444444" stroke="none" font-family="helvetica" font-size="10pt" font-style="normal" font-weight="normal" text-decoration="normal" x="197.4444980621338" y="300.59368896484375" text-anchor="start" dominant-baseline="alphabetic" transform="matrix(1, 0, 0, 1, 0.5, 0.5)">2030</text><text fill="none" stroke="rgb(0,0,0)" font-family="helvetica" font-size="10pt" font-style="normal" font-weight="normal" text-decoration="normal" x="197.4444980621338" y="300.59368896484375" text-anchor="start" dominant-baseline="alphabetic" transform="matrix(1, 0, 0, 1, 0.5, 0.5)" stroke-opacity="0" stroke-linejoin="bevel" stroke-miterlimit="10">2030</text><text fill="#444444" stroke="none" font-family="helvetica" font-size="10pt" font-style="normal" font-weight="normal" text-decoration="normal" x="317.061731338501" y="300.59368896484375" text-anchor="start" dominant-baseline="alphabetic" transform="matrix(1, 0, 0, 1, 0.5, 0.5)">2035</text><text fill="none" stroke="rgb(0,0,0)" font-family="helvetica" font-size="10pt" font-style="normal" font-weight="normal" text-decoration="normal" x="317.061731338501" y="300.59368896484375" text-anchor="start" dominant-baseline="alphabetic" transform="matrix(1, 0, 0, 1, 0.5, 0.5)" stroke-opacity="0" stroke-linejoin="bevel" stroke-miterlimit="10">2035</text><text fill="#444444" stroke="none" font-family="helvetica" font-size="10pt" font-style="normal" font-weight="normal" text-decoration="normal" x="436.6789493560791" y="300.59368896484375" text-anchor="start" dominant-baseline="alphabetic" transform="matrix(1, 0, 0, 1, 0.5, 0.5)">2040</text><text fill="none" stroke="rgb(0,0,0)" font-family="helvetica" font-size="10pt" font-style="normal" font-weight="normal" text-decoration="normal" x="436.6789493560791" y="300.59368896484375" text-anchor="start" dominant-baseline="alphabetic" transform="matrix(1, 0, 0, 1, 0.5, 0.5)" stroke-opacity="0" stroke-linejoin="bevel" stroke-miterlimit="10">2040</text><text fill="#444444" stroke="none" font-family="helvetica" font-size="12pt" font-style="normal" font-weight="normal" text-decoration="normal" x="303.8333339691162" y="321.59368896484375" text-anchor="start" dominant-baseline="alphabetic" transform="matrix(1, 0, 0, 1, 0.5, 0.5)">Year</text><text fill="none" stroke="rgb(0,0,0)" font-family="helvetica" font-size="12pt" font-style="normal" font-weight="normal" text-decoration="normal" x="303.8333339691162" y="321.59368896484375" text-anchor="start" dominant-baseline="alphabetic" transform="matrix(1, 0, 0, 1, 0.5, 0.5)" stroke-opacity="0" stroke-linejoin="bevel" stroke-miterlimit="10">Year</text><path fill="none" stroke="black" paint-order="fill" d="M 70.5 280.5 L 70.5 30.5" stroke-linejoin="bevel" stroke-miterlimit="10"/><path fill="none" stroke="black" paint-order="fill" d="M 64.5 280.5 L 72.5 280.5 M 64.5 241.5 L 72.5 241.5 M 64.5 201.5 L 72.5 201.5 M 64.5 162.5 L 72.5 162.5 M 64.5 123.5 L 72.5 123.5 M 64.5 83.5 L 72.5 83.5 M 64.5 44.5 L 72.5 44.5" stroke-linejoin="bevel" stroke-miterlimit="10"/><path fill="none" stroke="black" paint-order="fill" d="M 66.5 280.5 L 70.5 280.5 M 66.5 272.5 L 70.5 272.5 M 66.5 264.5 L 70.5 264.5 M 66.5 256.5 L 70.5 256.5 M 66.5 249.5 L 70.5 249.5 M 66.5 241.5 L 70.5 241.5 M 66.5 233.5 L 70.5 233.5 M 66.5 225.5 L 70.5 225.5 M 66.5 217.5 L 70.5 217.5 M 66.5 209.5 L 70.5 209.5 M 66.5 201.5 L 70.5 201.5 M 66.5 193.5 L 70.5 193.5 M 66.5 186.5 L 70.5 186.5 M 66.5 178.5 L 70.5 178.5 M 66.5 170.5 L 70.5 170.5 M 66.5 162.5 L 70.5 162.5 M 66.5 154.5 L 70.5 154.5 M 66.5 146.5 L 70.5 146.5 M 66.5 138.5 L 70.5 138.5 M 66.5 131.5 L 70.5 131.5 M 66.5 123.5 L 70.5 123.5 M 66.5 115.5 L 70.5 115.5 M 66.5 107.5 L 70.5 107.5 M 66.5 99.5 L 70.5 99.5 M 66.5 91.5 L 70.5 91.5 M 66.5 83.5 L 70.5 83.5 M 66.5 76.5 L 70.5 76.5 M 66.5 68.5 L 70.5 68.5 M 66.5 60.5 L 70.5 60.5 M 66.5 52.5 L 70.5 52.5 M 66.5 44.5 L 70.5 44.5 M 66.5 36.5 L 70.5 36.5" stroke-linejoin="bevel" stroke-miterlimit="10"/><text fill="#444444" stroke="none" font-family="helvetica" font-size="10pt" font-style="normal" font-weight="normal" text-decoration="normal" x="51.55000019073486" y="284.7968444824219" text-anchor="start" dominant-baseline="alphabetic" transform="matrix(1, 0, 0, 1, 0.5, 0.5)">0</text><text fill="none" stroke="rgb(0,0,0)" font-family="helvetica" font-size="10pt" font-style="normal" font-weight="normal" text-decoration="normal" x="51.55000019073486" y="284.7968444824219" text-anchor="start" dominant-baseline="alphabetic" transform="matrix(1, 0, 0, 1, 0.5, 0.5)" stroke-opacity="0" stroke-linejoin="bevel" stroke-miterlimit="10">0</text><text fill="#444444" stroke="none" font-family="helvetica" font-size="10pt" font-style="normal" font-weight="normal" text-decoration="normal" x="44.10000038146973" y="245.47630310058594" text-anchor="start" dominant-baseline="alphabetic" transform="matrix(1, 0, 0, 1, 0.5, 0.5)">50</text><text fill="none" stroke="rgb(0,0,0)" font-family="helvetica" font-size="10pt" font-style="normal" font-weight="normal" text-decoration="normal" x="44.10000038146973" y="245.47630310058594" text-anchor="start" dominant-baseline="alphabetic" transform="matrix(1, 0, 0, 1, 0.5, 0.5)" stroke-opacity="0" stroke-linejoin="bevel" stroke-miterlimit="10">50</text><text fill="#444444" stroke="none" font-family="helvetica" font-size="10pt" font-style="normal" font-weight="normal" text-decoration="normal" x="36.64999961853027" y="206.15576171875" text-anchor="start" dominant-baseline="alphabetic" transform="matrix(1, 0, 0, 1, 0.5, 0.5)">100</text><text fill="none" stroke="rgb(0,0,0)" font-family="helvetica" font-size="10pt" font-style="normal" font-weight="normal" text-decoration="normal" x="36.64999961853027" y="206.15576171875" text-anchor="start" dominant-baseline="alphabetic" transform="matrix(1, 0, 0, 1, 0.5, 0.5)" stroke-opacity="0" stroke-linejoin="bevel" stroke-miterlimit="10">100</text><text fill="#444444" stroke="none" font-family="helvetica" font-size="10pt" font-style="normal" font-weight="normal" text-decoration="normal" x="36.64999961853027" y="166.83522033691406" text-anchor="start" dominant-baseline="alphabetic" transform="matrix(1, 0, 0, 1, 0.5, 0.5)">150</text><text fill="none" stroke="rgb(0,0,0)" font-family="helvetica" font-size="10pt" font-style="normal" font-weight="normal" text-decoration="normal" x="36.64999961853027" y="166.83522033691406" text-anchor="start" dominant-baseline="alphabetic" transform="matrix(1, 0, 0, 1, 0.5, 0.5)" stroke-opacity="0" stroke-linejoin="bevel" stroke-miterlimit="10">150</text><text fill="#444444" stroke="none" font-family="helvetica" font-size="10pt" font-style="normal" font-weight="normal" text-decoration="normal" x="36.64999961853027" y="127.51467895507812" text-anchor="start" dominant-baseline="alphabetic" transform="matrix(1, 0, 0, 1, 0.5, 0.5)">200</text><text fill="none" stroke="rgb(0,0,0)" font-family="helvetica" font-size="10pt" font-style="normal" font-weight="normal" text-decoration="normal" x="36.64999961853027" y="127.51467895507812" text-anchor="start" dominant-baseline="alphabetic" transform="matrix(1, 0, 0, 1, 0.5, 0.5)" stroke-opacity="0" stroke-linejoin="bevel" stroke-miterlimit="10">200</text><text fill="#444444" stroke="none" font-family="helvetica" font-size="10pt" font-style="normal" font-weight="normal" text-decoration="normal" x="36.64999961853027" y="88.19413757324219" text-anchor="start" dominant-baseline="alphabetic" transform="matrix(1, 0, 0, 1, 0.5, 0.5)">250</text><text fill="none" stroke="rgb(0,0,0)" font-family="helvetica" font-size="10pt" font-style="normal" font-weight="normal" text-decoration="normal" x="36.64999961853027" y="88.19413757324219" text-anchor="start" dominant-baseline="alphabetic" transform="matrix(1, 0, 0, 1, 0.5, 0.5)" stroke-opacity="0" stroke-linejoin="bevel" stroke-miterlimit="10">250</text><text fill="#444444" stroke="none" font-family="helvetica" font-size="10pt" font-style="normal" font-weight="normal" text-decoration="normal" x="36.64999961853027" y="48.873600006103516" text-anchor="start" dominant-baseline="alphabetic" transform="matrix(1, 0, 0, 1, 0.5, 0.5)">300</text><text fill="none" stroke="rgb(0,0,0)" font-family="helvetica" font-size="10pt" font-style="normal" font-weight="normal" text-decoration="normal" x="36.64999961853027" y="48.873600006103516" text-anchor="start" dominant-baseline="alphabetic" transform="matrix(1, 0, 0, 1, 0.5, 0.5)" stroke-opacity="0" stroke-linejoin="bevel" stroke-miterlimit="10">300</text><text fill="#444444" stroke="none" font-family="helvetica" font-size="12pt" font-style="normal" font-weight="normal" text-decoration="normal" x="-78.07499885559082" y="151" text-anchor="start" dominant-baseline="alphabetic" transform="matrix(6.123233995736766e-17, -1, 1, 6.123233995736766e-17, -125.85000038146973, 184.14999961853027)">Days suitable for transmission</text><text fill="none" stroke="rgb(0,0,0)" font-family="helvetica" font-size="12pt" font-style="normal" font-weight="normal" text-decoration="normal" x="-78.07499885559082" y="151" text-anchor="start" dominant-baseline="alphabetic" transform="matrix(6.123233995736766e-17, -1, 1, 6.123233995736766e-17, -125.85000038146973, 184.14999961853027)" stroke-opacity="0" stroke-linejoin="bevel" stroke-miterlimit="10">Days suitable for transmission</text><path fill="rgb(255,255,255)" stroke="rgb(229,229,229)" paint-order="fill" d="M 475.183349609375 205.5 L 560.5000152587891 205.5 L 560.5000152587891 270.5 L 475.183349609375 270.5 L 475.183349609375 205.5 Z" fill-opacity="0.9490196078431372" clip-path="url(#cGsOAKNTGETX)" stroke-opacity="0.5019607843137255" stroke-linejoin="bevel" stroke-miterlimit="10"/><g clip-path="url(#cGsOAKNTGETX)"><g transform="matrix(1, 0, 0, 1, 485.683349609375, 216)"><path fill="none" stroke="#30a2da" paint-order="fill" d="M 0.5 10.5 L 20.5 10.5" stroke-linejoin="bevel" stroke-miterlimit="10" stroke-width="2"/></g></g><g clip-path="url(#cGsOAKNTGETX)"><text fill="#444444" stroke="none" font-family="helvetica" font-size="13px" font-style="normal" font-weight="normal" text-decoration="normal" x="510.683349609375" y="230" text-anchor="start" dominant-baseline="alphabetic" transform="matrix(1, 0, 0, 1, 0.5, 0.5)">ID 001</text></g><g clip-path="url(#cGsOAKNTGETX)"><text fill="none" stroke="rgb(0,0,0)" font-family="helvetica" font-size="13px" font-style="normal" font-weight="normal" text-decoration="normal" x="510.683349609375" y="230" text-anchor="start" dominant-baseline="alphabetic" transform="matrix(1, 0, 0, 1, 0.5, 0.5)" stroke-opacity="0" stroke-linejoin="bevel" stroke-miterlimit="10">ID 001</text></g><g clip-path="url(#cGsOAKNTGETX)"><g transform="matrix(1, 0, 0, 1, 485.683349609375, 239)"><path fill="none" stroke="#fc4f30" paint-order="fill" d="M 0.5 10.5 L 20.5 10.5" stroke-linejoin="bevel" stroke-miterlimit="10" stroke-width="2"/></g></g><g clip-path="url(#cGsOAKNTGETX)"><text fill="#444444" stroke="none" font-family="helvetica" font-size="13px" font-style="normal" font-weight="normal" text-decoration="normal" x="510.683349609375" y="253" text-anchor="start" dominant-baseline="alphabetic" transform="matrix(1, 0, 0, 1, 0.5, 0.5)">ID 006</text></g><g clip-path="url(#cGsOAKNTGETX)"><text fill="none" stroke="rgb(0,0,0)" font-family="helvetica" font-size="13px" font-style="normal" font-weight="normal" text-decoration="normal" x="510.683349609375" y="253" text-anchor="start" dominant-baseline="alphabetic" transform="matrix(1, 0, 0, 1, 0.5, 0.5)" stroke-opacity="0" stroke-linejoin="bevel" stroke-miterlimit="10">ID 006</text></g><text fill="black" stroke="none" font-family="helvetica" font-size="14pt" font-style="normal" font-weight="normal" text-decoration="normal" x="0" y="15" text-anchor="start" dominant-baseline="alphabetic" transform="matrix(1, 0, 0, 1, 5.5, 5.5)">D. New Delhi</text><text fill="none" stroke="rgb(0,0,0)" font-family="helvetica" font-size="14pt" font-style="normal" font-weight="normal" text-decoration="normal" x="0" y="15" text-anchor="start" dominant-baseline="alphabetic" transform="matrix(1, 0, 0, 1, 5.5, 5.5)" stroke-opacity="0" stroke-linejoin="bevel" stroke-miterlimit="10">D. New Delhi</text></svg>