<svg version="1.1" xmlns="http://www.w3.org/2000/svg" width="600" height="329"><defs><clipPath id="rAcqaxhiXwgI"><path fill="none" stroke="none" d="M 70.5 30.5 L 570.5 30.5 L 570.5 280.5 L 70.5 280.5 L 70.5 30.5 Z"/></clipPath><clipPath id="cAdmtLeZTswp"><path fill="none" stroke="none" d="M 70.5 30.5 L 570.5 30.5 L 570.5 280.5 L 70.5 280.5 L 70.5 30.5 Z"/></clipPath><clipPath id="RoVOTicUOmWa"><path fill="none" stroke="none" d="M 70.5 30.5 L 570.5 30.5 L 570.5 280.5 L 70.5 280.5 L 70.5 30.5 Z"/></clipPath><clipPath id="LaLmXbdUKohf"><path fill="none" stroke="none" d="M 70.5 30.5 L 570.5 30.5 L 570.5 280.5 L 70.5 280.5 L 70.5 30.5 Z"/></clipPath><clipPath id="PIqLVTuGeNmw"><path fill="none" stroke="none" d="M 70.5 30.5 L 570.5 30.5 L 570.5 280.5 L 70.5 280.5 L 70.5 30.5 Z"/></clipPath><clipPath id="IgbRsTFbgulG"><path fill="none" stroke="none" d="M 70.5 30.5 L 570.5 30.5 L 570.5 280.5 L 70.5 280.5 L 70.5 30.5 Z"/></clipPath><clipPath id="GqdwrqtkqksF"><path fill="none" stroke="none" d="M 70.5 30.5 L 570.5 30.5 L 570.5 280.5 L 70.5 280.5 L 70.5 30.5 Z"/></clipPath><clipPath id="rFfqsHueMKMK"><path fill="none" stroke="none" d="M 70.5 30.5 L 570.5 30.5 L 570.5 280.5 L 70.5 280.5 L 70.5 30.5 Z"/></clipPath><clipPath id="DuQzTvAhIDNd"><path fill="none" stroke="none" d="M 70.5 30.5 L 570.5 30.5 L 570.5 280.5 L 70.5 280.5 L 70.5 30.5 Z"/></clipPath><clipPath id="ZdotSyucXqBF"><path fill="none" stroke="none" d="M 70.5 30.5 L 570.5 30.5 L 570.5 280.5 L 70.5 280.5 L 70.5 30.5 Z"/></clipPath><clipPath id="RekmnMwuWNkA"><path fill="none" stroke="none" d="M 70.5 30.5 L 570.5 30.5 L 570.5 280.5 L 70.5 280.5 L 70.5 30.5 Z"/></clipPath><clipPath id="xwyBwCTeezmy"><path fill="none" stroke="none" d="M 70.5 30.5 L 570.5 30.5 L 570.5 280.5 L 70.5 280.5 L 70.5 30.5 Z"/></clipPath><clipPath id="fVOgdZOMRFzI"><path fill="none" stroke="none" d="M 70.5 30.5 L 570.5 30.5 L 570.5 280.5 L 70.5 280.5 L 70.5 30.5 Z"/></clipPath><clipPath id="rLrqSSVbHXOb"><path fill="none" stroke="none" d="M 70.5 30.5 L 570.5 30.5 L 570.5 280.5 L 70.5 280.5 L 70.5 30.5 Z"/></clipPath><clipPath id="IpUKRwTOBKcJ"><path fill="none" stroke="none" d="M 70.5 30.5 L 570.5 30.5 L 570.5 280.5 L 70.5 280.5 L 70.5 30.5 Z"/></clipPath><clipPath id="wZrkbrRJWzAD"><path fill="none" stroke="none" d="M 70.5 30.5 L 570.5 30.5 L 570.5 280.5 L 70.5 280.5 L 70.5 30.5 Z"/></clipPath><clipPath id="XPtNJFFRNyWC"><path fill="none" stroke="none" d="M 70.5 30.5 L 570.5 30.5 L 570.5 280.5 L 70.5 280.5 L 70.5 30.5 Z"/></clipPath><clipPath id="hnMhASAKnbSS"><path fill="none" stroke="none" d="M 70.5 30.5 L 570.5 30.5 L 570.5 280.5 L 70.5 280.5 L 70.5 30.5 Z"/></clipPath><clipPath id="ccBsSGQrTlml"><path fill="none" stroke="none" d="M 70.5 30.5 L 570.5 30.5 L 570.5 280.5 L 70.5 280.5 L 70.5 30.5 Z"/></clipPath><clipPath id="FafnHMfTPWUh"><path fill="none" stroke="none" d="M 70.5 30.5 L 570.5 30.5 L 570.5 280.5 L 70.5 280.5 L 70.5 30.5 Z"/></clipPath><clipPath id="DTJoEmiWuOea"><path fill="none" stroke="none" d="M 70.5 30.5 L 570.5 30.5 L 570.5 280.5 L 70.5 280.5 L 70.5 30.5 Z"/></clipPath><clipPath id="iALDyqnkGftc"><path fill="none" stroke="none" d="M 70.5 30.5 L 570.5 30.5 L 570.5 280.5 L 70.5 280.5 L 70.5 30.5 Z"/></clipPath><clipPath id="RwEAQPerBRLF"><path fill="none" stroke="none" d="M 70.5 30.5 L 570.5 30.5 L 570.5 280.5 L 70.5 280.5 L 70.5 30.5 Z"/></clipPath></defs><path fill="none" stroke="#e5e5e5" paint-order="fill" d="M 70.5 30.5 L 570.5 30.5 L 570.5 280.5 L 70.5 280.5 L 70.5 30.5 Z" stroke-linejoin="bevel" stroke-miterlimit="10"/><path fill="none" stroke="black" paint-order="fill" d="M 332.46172248803487 30.5 L 332.46172248803487 280.5" stroke-linejoin="bevel" stroke-miterlimit="10" stroke-width="3" stroke-dasharray="6" clip-path="url(#RoVOTicUOmWa)"/><path fill="none" stroke="#9467bd" paint-order="fill" d="M 93.2272720336914 104.80690002441406 L 117.15071868896484 95.1357192993164 L 141.07415771484375 99.97130584716797 L 164.9976043701172 106.41876220703125 L 188.92105102539062 87.07640075683594 L 212.84449768066406 114.47808074951172 L 236.7679443359375 132.2085723876953 L 260.6913757324219 120.92552947998047 L 284.6148376464844 149.93907165527344 L 308.53826904296875 111.25434875488281" stroke-linejoin="bevel" stroke-miterlimit="10" stroke-width="2" clip-path="url(#LaLmXbdUKohf)"/><path fill="none" stroke="#9467bd" paint-order="fill" d="M 93.2272720336914 104.80690002441406 L 117.15071868896484 95.1357192993164 L 141.07415771484375 99.97130584716797 L 164.9976043701172 106.41876220703125 L 188.92105102539062 87.07640075683594 L 212.84449768066406 114.47808074951172 L 236.7679443359375 132.2085723876953 L 260.6913757324219 120.92552947998047 L 284.6148376464844 149.93907165527344 L 308.53826904296875 111.25434875488281" stroke-linejoin="bevel" stroke-miterlimit="10" stroke-width="2" stroke-dasharray="6" clip-path="url(#PIqLVTuGeNmw)"/><path fill="none" stroke="#30a2da" paint-order="fill" d="M 308.53826904296875 111.25434875488281 L 332.46173095703125 88.68826293945312 L 356.3851623535156 80.62895202636719 L 380.3086242675781 95.1357192993164 L 404.2320556640625 79.01708221435547 L 428.155517578125 88.68826293945312 L 452.0789489746094 124.14926147460938 L 476.00238037109375 141.8797607421875 L 499.92584228515625 98.35944366455078 L 523.8493041992188 127.37298583984375 L 547.772705078125 161.2221221923828" stroke-linejoin="bevel" stroke-miterlimit="10" stroke-width="2" clip-path="url(#IgbRsTFbgulG)"/><path fill="none" stroke="#30a2da" paint-order="fill" d="M 332.46173095703125 75.23653411865234 L 356.3851623535156 82.6315689086914 L 380.3086242675781 90.02660369873047 L 404.2320556640625 97.421630859375 L 428.155517578125 104.81666564941406 L 452.0789489746094 112.21170043945312 L 476.00238037109375 119.60673522949219 L 499.92584228515625 127.00177001953125 L 523.8493041992188 134.3968048095703 L 547.772705078125 141.79183959960938" stroke-linejoin="bevel" stroke-miterlimit="10" stroke-width="2" stroke-dasharray="6" clip-path="url(#GqdwrqtkqksF)"/><path fill="none" stroke="#fc4f30" paint-order="fill" d="M 308.53826904296875 111.25434875488281 L 332.46173095703125 67.73403930664062 L 356.3851623535156 182.17633056640625 L 380.3086242675781 124.14926147460938 L 404.2320556640625 104.80690002441406 L 428.155517578125 125.76112365722656 L 452.0789489746094 101.58317565917969 L 476.00238037109375 133.8204345703125 L 499.92584228515625 112.86621856689453 L 523.8493041992188 128.98484802246094 L 547.772705078125 79.01708221435547" stroke-linejoin="bevel" stroke-miterlimit="10" stroke-width="2" clip-path="url(#rFfqsHueMKMK)"/><path fill="none" stroke="#fc4f30" paint-order="fill" d="M 332.46173095703125 123.29936981201172 L 356.3851623535156 121.69727325439453 L 380.3086242675781 120.09517669677734 L 404.2320556640625 118.49308013916016 L 428.155517578125 116.8909912109375 L 452.0789489746094 115.28889465332031 L 476.00238037109375 113.68679809570312 L 499.92584228515625 112.08470916748047 L 523.8493041992188 110.48261260986328 L 547.772705078125 108.8805160522461" stroke-linejoin="bevel" stroke-miterlimit="10" stroke-width="2" stroke-dasharray="6" clip-path="url(#DuQzTvAhIDNd)"/><path fill="none" stroke="rgb(128,128,128)" paint-order="fill" d="M 93.2272720336914 175.7288818359375 L 117.15071868896484 90.30013275146484 L 141.07415771484375 77.40522003173828 L 164.9976043701172 127.37298583984375 L 188.92105102539062 98.35944366455078 L 212.84449768066406 80.62895202636719 L 236.7679443359375 106.41876220703125 L 260.6913757324219 96.7475814819336 L 284.6148376464844 90.30013275146484 L 308.53826904296875 53.227272033691406" stroke-opacity="0.7490196078431373" stroke-linejoin="bevel" stroke-miterlimit="10" clip-path="url(#ZdotSyucXqBF)"/><path fill="none" stroke="grey" paint-order="fill" d="M 308.53826904296875 53.227272033691406 L 332.46173095703125 74.1814956665039 L 356.3851623535156 99.97130584716797 L 380.3086242675781 85.46453857421875 L 404.2320556640625 82.24081420898438 L 428.155517578125 70.95777130126953 L 452.0789489746094 83.85267639160156 L 476.00238037109375 75.7933578491211 L 499.92584228515625 90.30013275146484 L 523.8493041992188 109.64248657226562 L 547.772705078125 120.92552947998047" stroke-linejoin="bevel" stroke-miterlimit="10" stroke-width="0.5" clip-path="url(#RekmnMwuWNkA)"/><path fill="none" stroke="grey" paint-order="fill" d="M 308.53826904296875 53.227272033691406 L 332.46173095703125 85.46453857421875 L 356.3851623535156 66.12217712402344 L 380.3086242675781 106.41876220703125 L 404.2320556640625 119.31366729736328 L 428.155517578125 120.92552947998047 L 452.0789489746094 83.85267639160156 L 476.00238037109375 109.64248657226562 L 499.92584228515625 117.7018051147461 L 523.8493041992188 103.19503784179688 L 547.772705078125 79.01708221435547" stroke-linejoin="bevel" stroke-miterlimit="10" stroke-width="0.5" clip-path="url(#xwyBwCTeezmy)"/><path fill="none" stroke="rgb(128,128,128)" paint-order="fill" d="M 93.2272720336914 125.76112365722656 L 117.15071868896484 111.25434875488281 L 141.07415771484375 90.30013275146484 L 164.9976043701172 74.1814956665039 L 188.92105102539062 119.31366729736328 L 212.84449768066406 83.85267639160156 L 236.7679443359375 80.62895202636719 L 260.6913757324219 87.07640075683594 L 284.6148376464844 114.47808074951172 L 308.53826904296875 58.062862396240234" stroke-opacity="0.7490196078431373" stroke-linejoin="bevel" stroke-miterlimit="10" clip-path="url(#fVOgdZOMRFzI)"/><path fill="none" stroke="grey" paint-order="fill" d="M 308.53826904296875 58.062862396240234 L 332.46173095703125 95.1357192993164 L 356.3851623535156 91.91199493408203 L 380.3086242675781 87.07640075683594 L 404.2320556640625 82.24081420898438 L 428.155517578125 59.67472457885742 L 452.0789489746094 69.34590911865234 L 476.00238037109375 53.227272033691406 L 499.92584228515625 103.19503784179688 L 523.8493041992188 70.95777130126953 L 547.772705078125 103.19503784179688" stroke-linejoin="bevel" stroke-miterlimit="10" stroke-width="0.5" clip-path="url(#rLrqSSVbHXOb)"/><path fill="none" stroke="grey" paint-order="fill" d="M 308.53826904296875 58.062862396240234 L 332.46173095703125 82.24081420898438 L 356.3851623535156 99.97130584716797 L 380.3086242675781 124.14926147460938 L 404.2320556640625 98.35944366455078 L 428.155517578125 106.41876220703125 L 452.0789489746094 128.98484802246094 L 476.00238037109375 95.1357192993164 L 499.92584228515625 133.8204345703125 L 523.8493041992188 66.12217712402344 L 547.772705078125 83.85267639160156" stroke-linejoin="bevel" stroke-miterlimit="10" stroke-width="0.5" clip-path="url(#IpUKRwTOBKcJ)"/><path fill="none" stroke="rgb(128,128,128)" paint-order="fill" d="M 93.2272720336914 101.58317565917969 L 117.15071868896484 79.01708221435547 L 141.07415771484375 75.7933578491211 L 164.9976043701172 114.47808074951172 L 188.92105102539062 145.10348510742188 L 212.84449768066406 103.19503784179688 L 236.7679443359375 133.8204345703125 L 260.6913757324219 58.062862396240234 L 284.6148376464844 87.07640075683594 L 308.53826904296875 75.7933578491211" stroke-opacity="0.7490196078431373" stroke-linejoin="bevel" stroke-miterlimit="10" clip-path="url(#wZrkbrRJWzAD)"/><path fill="none" stroke="grey" paint-order="fill" d="M 308.53826904296875 75.7933578491211 L 332.46173095703125 109.64248657226562 L 356.3851623535156 90.30013275146484 L 380.3086242675781 101.58317565917969 L 404.2320556640625 103.19503784179688 L 428.155517578125 114.47808074951172 L 452.0789489746094 91.91199493408203 L 476.00238037109375 109.64248657226562 L 499.92584228515625 96.7475814819336 L 523.8493041992188 124.14926147460938 L 547.772705078125 91.91199493408203" stroke-linejoin="bevel" stroke-miterlimit="10" stroke-width="0.5" clip-path="url(#XPtNJFFRNyWC)"/><path fill="none" stroke="grey" paint-order="fill" d="M 308.53826904296875 75.7933578491211 L 332.46173095703125 106.41876220703125 L 356.3851623535156 72.56963348388672 L 380.3086242675781 83.85267639160156 L 404.2320556640625 111.25434875488281 L 428.155517578125 127.37298583984375 L 452.0789489746094 88.68826293945312 L 476.00238037109375 108.03062438964844 L 499.92584228515625 99.97130584716797 L 523.8493041992188 91.91199493408203 L 547.772705078125 99.97130584716797" stroke-linejoin="bevel" stroke-miterlimit="10" stroke-width="0.5" clip-path="url(#hnMhASAKnbSS)"/><path fill="none" stroke="rgb(128,128,128)" paint-order="fill" d="M 93.2272720336914 132.2085723876953 L 117.15071868896484 98.35944366455078 L 141.07415771484375 128.98484802246094 L 164.9976043701172 95.1357192993164 L 188.92105102539062 101.58317565917969 L 212.84449768066406 101.58317565917969 L 236.7679443359375 103.19503784179688 L 260.6913757324219 64.51031494140625 L 284.6148376464844 108.03062438964844 L 308.53826904296875 83.85267639160156" stroke-opacity="0.7490196078431373" stroke-linejoin="bevel" stroke-miterlimit="10" clip-path="url(#ccBsSGQrTlml)"/><path fill="none" stroke="grey" paint-order="fill" d="M 308.53826904296875 83.85267639160156 L 332.46173095703125 80.62895202636719 L 356.3851623535156 80.62895202636719 L 380.3086242675781 74.1814956665039 L 404.2320556640625 74.1814956665039 L 428.155517578125 103.19503784179688 L 452.0789489746094 125.76112365722656 L 476.00238037109375 116.0899429321289 L 499.92584228515625 88.68826293945312 L 523.8493041992188 108.03062438964844 L 547.772705078125 99.97130584716797" stroke-linejoin="bevel" stroke-miterlimit="10" stroke-width="0.5" clip-path="url(#FafnHMfTPWUh)"/><path fill="none" stroke="grey" paint-order="fill" d="M 308.53826904296875 83.85267639160156 L 332.46173095703125 91.91199493408203 L 356.3851623535156 101.58317565917969 L 380.3086242675781 96.7475814819336 L 404.2320556640625 117.7018051147461 L 428.155517578125 104.80690002441406 L 452.0789489746094 95.1357192993164 L 476.00238037109375 124.14926147460938 L 499.92584228515625 116.0899429321289 L 523.8493041992188 87.07640075683594 L 547.772705078125 91.91199493408203" stroke-linejoin="bevel" stroke-miterlimit="10" stroke-width="0.5" clip-path="url(#DTJoEmiWuOea)"/><path fill="none" stroke="black" paint-order="fill" d="M 70.5 280.5 L 570.5 280.5" stroke-linejoin="bevel" stroke-miterlimit="10"/><path fill="none" stroke="black" paint-order="fill" d="M 93.5 286.5 L 93.5 278.5 M 212.5 286.5 L 212.5 278.5 M 332.5 286.5 L 332.5 278.5 M 452.5 286.5 L 452.5 278.5" stroke-linejoin="bevel" stroke-miterlimit="10"/><path fill="none" stroke="black" paint-order="fill" d="M 93.5 284.5 L 93.5 280.5 M 117.5 284.5 L 117.5 280.5 M 141.5 284.5 L 141.5 280.5 M 164.5 284.5 L 164.5 280.5 M 188.5 284.5 L 188.5 280.5 M 212.5 284.5 L 212.5 280.5 M 236.5 284.5 L 236.5 280.5 M 260.5 284.5 L 260.5 280.5 M 284.5 284.5 L 284.5 280.5 M 308.5 284.5 L 308.5 280.5 M 332.5 284.5 L 332.5 280.5 M 356.5 284.5 L 356.5 280.5 M 380.5 284.5 L 380.5 280.5 M 404.5 284.5 L 404.5 280.5 M 428.5 284.5 L 428.5 280.5 M 452.5 284.5 L 452.5 280.5 M 476.5 284.5 L 476.5 280.5 M 499.5 284.5 L 499.5 280.5 M 523.5 284.5 L 523.5 280.5 M 547.5 284.5 L 547.5 280.5" stroke-linejoin="bevel" stroke-miterlimit="10"/><text fill="#444444" stroke="none" font-family="helvetica" font-size="10pt" font-style="normal" font-weight="normal" text-decoration="normal" x="77.82727241516113" y="300.59368896484375" text-anchor="start" dominant-baseline="alphabetic" transform="matrix(1, 0, 0, 1, 0.5, 0.5)">2025</text><text fill="none" stroke="rgb(0,0,0)" font-family="helvetica" font-size="10pt" font-style="normal" font-weight="normal" text-decoration="normal" x="77.82727241516113" y="300.59368896484375" text-anchor="start" dominant-baseline="alphabetic" transform="matrix(1, 0, 0, 1, 0.5, 0.5)" stroke-opacity="0" stroke-linejoin="bevel" stroke-miterlimit="10">2025</text><text fill="#444444" stroke="none" font-family="helvetica" font-size="10pt" font-style="normal" font-weight="normal" text-decoration="normal" x="197.4444980621338" y="300.59368896484375" text-anchor="start" dominant-baseline="alphabetic" transform="matrix(1, 0, 0, 1, 0.5, 0.5)">2030</text><text fill="none" stroke="rgb(0,0,0)" font-family="helvetica" font-size="10pt" font-style="normal" font-weight="normal" text-decoration="normal" x="197.4444980621338" y="300.59368896484375" text-anchor="start" dominant-baseline="alphabetic" transform="matrix(1, 0, 0, 1, 0.5, 0.5)" stroke-opacity="0" stroke-linejoin="bevel" stroke-miterlimit="10">2030</text><text fill="#444444" stroke="none" font-family="helvetica" font-size="10pt" font-style="normal" font-weight="normal" text-decoration="normal" x="317.061731338501" y="300.59368896484375" text-anchor="start" dominant-baseline="alphabetic" transform="matrix(1, 0, 0, 1, 0.5, 0.5)">2035</text><text fill="none" stroke="rgb(0,0,0)" font-family="helvetica" font-size="10pt" font-style="normal" font-weight="normal" text-decoration="normal" x="317.061731338501" y="300.59368896484375" text-anchor="start" dominant-baseline="alphabetic" transform="matrix(1, 0, 0, 1, 0.5, 0.5)" stroke-opacity="0" stroke-linejoin="bevel" stroke-miterlimit="10">2035</text><text fill="#444444" stroke="none" font-family="helvetica" font-size="10pt" font-style="normal" font-weight="normal" text-decoration="normal" x="436.6789493560791" y="300.59368896484375" text-anchor="start" dominant-baseline="alphabetic" transform="matrix(1, 0, 0, 1, 0.5, 0.5)">2040</text><text fill="none" stroke="rgb(0,0,0)" font-family="helvetica" font-size="10pt" font-style="normal" font-weight="normal" text-decoration="normal" x="436.6789493560791" y="300.59368896484375" text-anchor="start" dominant-baseline="alphabetic" transform="matrix(1, 0, 0, 1, 0.5, 0.5)" stroke-opacity="0" stroke-linejoin="bevel" stroke-miterlimit="10">2040</text><text fill="#444444" stroke="none" font-family="helvetica" font-size="12pt" font-style="normal" font-weight="normal" text-decoration="normal" x="303.8333339691162" y="321.59368896484375" text-anchor="start" dominant-baseline="alphabetic" transform="matrix(1, 0, 0, 1, 0.5, 0.5)">Year</text><text fill="none" stroke="rgb(0,0,0)" font-family="helvetica" font-size="12pt" font-style="normal" font-weight="normal" text-decoration="normal" x="303.8333339691162" y="321.59368896484375" text-anchor="start" dominant-baseline="alphabetic" transform="matrix(1, 0, 0, 1, 0.5, 0.5)" stroke-opacity="0" stroke-linejoin="bevel" stroke-miterlimit="10">Year</text><path fill="none" stroke="black" paint-order="fill" d="M 70.5 280.5 L 70.5 30.5" stroke-linejoin="bevel" stroke-miterlimit="10"/><path fill="none" stroke="black" paint-order="fill" d="M 64.5 280.5 L 72.5 280.5 M 64.5 248.5 L 72.5 248.5 M 64.5 216.5 L 72.5 216.5 M 64.5 183.5 L 72.5 183.5 M 64.5 151.5 L 72.5 151.5 M 64.5 119.5 L 72.5 119.5 M 64.5 87.5 L 72.5 87.5 M 64.5 54.5 L 72.5 54.5" stroke-linejoin="bevel" stroke-miterlimit="10"/><path fill="none" stroke="black" paint-order="fill" d="M 66.5 280.5 L 70.5 280.5 M 66.5 274.5 L 70.5 274.5 M 66.5 267.5 L 70.5 267.5 M 66.5 261.5 L 70.5 261.5 M 66.5 254.5 L 70.5 254.5 M 66.5 248.5 L 70.5 248.5 M 66.5 241.5 L 70.5 241.5 M 66.5 235.5 L 70.5 235.5 M 66.5 228.5 L 70.5 228.5 M 66.5 222.5 L 70.5 222.5 M 66.5 216.5 L 70.5 216.5 M 66.5 209.5 L 70.5 209.5 M 66.5 203.5 L 70.5 203.5 M 66.5 196.5 L 70.5 196.5 M 66.5 190.5 L 70.5 190.5 M 66.5 183.5 L 70.5 183.5 M 66.5 177.5 L 70.5 177.5 M 66.5 170.5 L 70.5 170.5 M 66.5 164.5 L 70.5 164.5 M 66.5 157.5 L 70.5 157.5 M 66.5 151.5 L 70.5 151.5 M 66.5 145.5 L 70.5 145.5 M 66.5 138.5 L 70.5 138.5 M 66.5 132.5 L 70.5 132.5 M 66.5 125.5 L 70.5 125.5 M 66.5 119.5 L 70.5 119.5 M 66.5 112.5 L 70.5 112.5 M 66.5 106.5 L 70.5 106.5 M 66.5 99.5 L 70.5 99.5 M 66.5 93.5 L 70.5 93.5 M 66.5 87.5 L 70.5 87.5 M 66.5 80.5 L 70.5 80.5 M 66.5 74.5 L 70.5 74.5 M 66.5 67.5 L 70.5 67.5 M 66.5 61.5 L 70.5 61.5 M 66.5 54.5 L 70.5 54.5 M 66.5 48.5 L 70.5 48.5 M 66.5 41.5 L 70.5 41.5 M 66.5 35.5 L 70.5 35.5" stroke-linejoin="bevel" stroke-miterlimit="10"/><text fill="#444444" stroke="none" font-family="helvetica" font-size="10pt" font-style="normal" font-weight="normal" text-decoration="normal" x="51.55000019073486" y="284.7968444824219" text-anchor="start" dominant-baseline="alphabetic" transform="matrix(1, 0, 0, 1, 0.5, 0.5)">0</text><text fill="none" stroke="rgb(0,0,0)" font-family="helvetica" font-size="10pt" font-style="normal" font-weight="normal" text-decoration="normal" x="51.55000019073486" y="284.7968444824219" text-anchor="start" dominant-baseline="alphabetic" transform="matrix(1, 0, 0, 1, 0.5, 0.5)" stroke-opacity="0" stroke-linejoin="bevel" stroke-miterlimit="10">0</text><text fill="#444444" stroke="none" font-family="helvetica" font-size="10pt" font-style="normal" font-weight="normal" text-decoration="normal" x="44.10000038146973" y="252.55958557128906" text-anchor="start" dominant-baseline="alphabetic" transform="matrix(1, 0, 0, 1, 0.5, 0.5)">20</text><text fill="none" stroke="rgb(0,0,0)" font-family="helvetica" font-size="10pt" font-style="normal" font-weight="normal" text-decoration="normal" x="44.10000038146973" y="252.55958557128906" text-anchor="start" dominant-baseline="alphabetic" transform="matrix(1, 0, 0, 1, 0.5, 0.5)" stroke-opacity="0" stroke-linejoin="bevel" stroke-miterlimit="10">20</text><text fill="#444444" stroke="none" font-family="helvetica" font-size="10pt" font-style="normal" font-weight="normal" text-decoration="normal" x="44.10000038146973" y="220.3223114013672" text-anchor="start" dominant-baseline="alphabetic" transform="matrix(1, 0, 0, 1, 0.5, 0.5)">40</text><text fill="none" stroke="rgb(0,0,0)" font-family="helvetica" font-size="10pt" font-style="normal" font-weight="normal" text-decoration="normal" x="44.10000038146973" y="220.3223114013672" text-anchor="start" dominant-baseline="alphabetic" transform="matrix(1, 0, 0, 1, 0.5, 0.5)" stroke-opacity="0" stroke-linejoin="bevel" stroke-miterlimit="10">40</text><text fill="#444444" stroke="none" font-family="helvetica" font-size="10pt" font-style="normal" font-weight="normal" text-decoration="normal" x="44.10000038146973" y="188.08505249023438" text-anchor="start" dominant-baseline="alphabetic" transform="matrix(1, 0, 0, 1, 0.5, 0.5)">60</text><text fill="none" stroke="rgb(0,0,0)" font-family="helvetica" font-size="10pt" font-style="normal" font-weight="normal" text-decoration="normal" x="44.10000038146973" y="188.08505249023438" text-anchor="start" dominant-baseline="alphabetic" transform="matrix(1, 0, 0, 1, 0.5, 0.5)" stroke-opacity="0" stroke-linejoin="bevel" stroke-miterlimit="10">60</text><text fill="#444444" stroke="none" font-family="helvetica" font-size="10pt" font-style="normal" font-weight="normal" text-decoration="normal" x="44.10000038146973" y="155.8477783203125" text-anchor="start" dominant-baseline="alphabetic" transform="matrix(1, 0, 0, 1, 0.5, 0.5)">80</text><text fill="none" stroke="rgb(0,0,0)" font-family="helvetica" font-size="10pt" font-style="normal" font-weight="normal" text-decoration="normal" x="44.10000038146973" y="155.8477783203125" text-anchor="start" dominant-baseline="alphabetic" transform="matrix(1, 0, 0, 1, 0.5, 0.5)" stroke-opacity="0" stroke-linejoin="bevel" stroke-miterlimit="10">80</text><text fill="#444444" stroke="none" font-family="helvetica" font-size="10pt" font-style="normal" font-weight="normal" text-decoration="normal" x="36.64999961853027" y="123.61051177978516" text-anchor="start" dominant-baseline="alphabetic" transform="matrix(1, 0, 0, 1, 0.5, 0.5)">100</text><text fill="none" stroke="rgb(0,0,0)" font-family="helvetica" font-size="10pt" font-style="normal" font-weight="normal" text-decoration="normal" x="36.64999961853027" y="123.61051177978516" text-anchor="start" dominant-baseline="alphabetic" transform="matrix(1, 0, 0, 1, 0.5, 0.5)" stroke-opacity="0" stroke-linejoin="bevel" stroke-miterlimit="10">100</text><text fill="#444444" stroke="none" font-family="helvetica" font-size="10pt" font-style="normal" font-weight="normal" text-decoration="normal" x="36.64999961853027" y="91.37324523925781" text-anchor="start" dominant-baseline="alphabetic" transform="matrix(1, 0, 0, 1, 0.5, 0.5)">120</text><text fill="none" stroke="rgb(0,0,0)" font-family="helvetica" font-size="10pt" font-style="normal" font-weight="normal" text-decoration="normal" x="36.64999961853027" y="91.37324523925781" text-anchor="start" dominant-baseline="alphabetic" transform="matrix(1, 0, 0, 1, 0.5, 0.5)" stroke-opacity="0" stroke-linejoin="bevel" stroke-miterlimit="10">120</text><text fill="#444444" stroke="none" font-family="helvetica" font-size="10pt" font-style="normal" font-weight="normal" text-decoration="normal" x="36.64999961853027" y="59.13597869873047" text-anchor="start" dominant-baseline="alphabetic" transform="matrix(1, 0, 0, 1, 0.5, 0.5)">140</text><text fill="none" stroke="rgb(0,0,0)" font-family="helvetica" font-size="10pt" font-style="normal" font-weight="normal" text-decoration="normal" x="36.64999961853027" y="59.13597869873047" text-anchor="start" dominant-baseline="alphabetic" transform="matrix(1, 0, 0, 1, 0.5, 0.5)" stroke-opacity="0" stroke-linejoin="bevel" stroke-miterlimit="10">140</text><text fill="#444444" stroke="none" font-family="helvetica" font-size="12pt" font-style="normal" font-weight="normal" text-decoration="normal" x="-78.07499885559082" y="151" text-anchor="start" dominant-baseline="alphabetic" transform="matrix(6.123233995736766e-17, -1, 1, 6.123233995736766e-17, -125.85000038146973, 184.14999961853027)">Days suitable for transmission</text><text fill="none" stroke="rgb(0,0,0)" font-family="helvetica" font-size="12pt" font-style="normal" font-weight="normal" text-decoration="normal" x="-78.07499885559082" y="151" text-anchor="start" dominant-baseline="alphabetic" transform="matrix(6.123233995736766e-17, -1, 1, 6.123233995736766e-17, -125.85000038146973, 184.14999961853027)" stroke-opacity="0" stroke-linejoin="bevel" stroke-miterlimit="10">Days suitable for transmission</text><path fill="rgb(255,255,255)" stroke="rgb(229,229,229)" paint-order="fill" d="M 475.183349609375 205.5 L 560.5000152587891 205.5 L 560.5000152587891 270.5 L 475.183349609375 270.5 L 475.183349609375 205.5 Z" fill-opacity="0.9490196078431372" clip-path="url(#iALDyqnkGftc)" stroke-opacity="0.5019607843137255" stroke-linejoin="bevel" stroke-miterlimit="10"/><g clip-path="url(#iALDyqnkGftc)"><g transform="matrix(1, 0, 0, 1, 485.683349609375, 216)"><path fill="none" stroke="#30a2da" paint-order="fill" d="M 0.5 10.5 L 20.5 10.5" stroke-linejoin="bevel" stroke-miterlimit="10" stroke-width="2"/></g></g><g clip-path="url(#iALDyqnkGftc)"><text fill="#444444" stroke="none" font-family="helvetica" font-size="13px" font-style="normal" font-weight="normal" text-decoration="normal" x="510.683349609375" y="230" text-anchor="start" dominant-baseline="alphabetic" transform="matrix(1, 0, 0, 1, 0.5, 0.5)">ID 001</text></g><g clip-path="url(#iALDyqnkGftc)"><text fill="none" stroke="rgb(0,0,0)" font-family="helvetica" font-size="13px" font-style="normal" font-weight="normal" text-decoration="normal" x="510.683349609375" y="230" text-anchor="start" dominant-baseline="alphabetic" transform="matrix(1, 0, 0, 1, 0.5, 0.5)" stroke-opacity="0" stroke-linejoin="bevel" stroke-miterlimit="10">ID 001</text></g><g clip-path="url(#iALDyqnkGftc)"><g transform="matrix(1, 0, 0, 1, 485.683349609375, 239)"><path fill="none" stroke="#fc4f30" paint-order="fill" d="M 0.5 10.5 L 20.5 10.5" stroke-linejoin="bevel" stroke-miterlimit="10" stroke-width="2"/></g></g><g clip-path="url(#iALDyqnkGftc)"><text fill="#444444" stroke="none" font-family="helvetica" font-size="13px" font-style="normal" font-weight="normal" text-decoration="normal" x="510.683349609375" y="253" text-anchor="start" dominant-baseline="alphabetic" transform="matrix(1, 0, 0, 1, 0.5, 0.5)">ID 006</text></g><g clip-path="url(#iALDyqnkGftc)"><text fill="none" stroke="rgb(0,0,0)" font-family="helvetica" font-size="13px" font-style="normal" font-weight="normal" text-decoration="normal" x="510.683349609375" y="253" text-anchor="start" dominant-baseline="alphabetic" transform="matrix(1, 0, 0, 1, 0.5, 0.5)" stroke-opacity="0" stroke-linejoin="bevel" stroke-miterlimit="10">ID 006</text></g><text fill="black" stroke="none" font-family="helvetica" font-size="14pt" font-style="normal" font-weight="normal" text-decoration="normal" x="0" y="15" text-anchor="start" dominant-baseline="alphabetic" transform="matrix(1, 0, 0, 1, 5.5, 5.5)">A. Paris</text><text fill="none" stroke="rgb(0,0,0)" font-family="helvetica" font-size="14pt" font-style="normal" font-weight="normal" text-decoration="normal" x="0" y="15" text-anchor="start" dominant-baseline="alphabetic" transform="matrix(1, 0, 0, 1, 5.5, 5.5)" stroke-opacity="0" stroke-linejoin="bevel" stroke-miterlimit="10">A. Paris</text></svg>