<svg version="1.1" xmlns="http://www.w3.org/2000/svg" width="600" height="329"><defs><clipPath id="OLDepSMPATSi"><path fill="none" stroke="none" d="M 70.5 30.5 L 570.5 30.5 L 570.5 280.5 L 70.5 280.5 L 70.5 30.5 Z"/></clipPath><clipPath id="qTXWJIGMWoic"><path fill="none" stroke="none" d="M 70.5 30.5 L 570.5 30.5 L 570.5 280.5 L 70.5 280.5 L 70.5 30.5 Z"/></clipPath><clipPath id="QEdVzsfNRMJI"><path fill="none" stroke="none" d="M 70.5 30.5 L 570.5 30.5 L 570.5 280.5 L 70.5 280.5 L 70.5 30.5 Z"/></clipPath><clipPath id="zqztakVPTiaa"><path fill="none" stroke="none" d="M 70.5 30.5 L 570.5 30.5 L 570.5 280.5 L 70.5 280.5 L 70.5 30.5 Z"/></clipPath><clipPath id="vuRgIGdUTeyM"><path fill="none" stroke="none" d="M 70.5 30.5 L 570.5 30.5 L 570.5 280.5 L 70.5 280.5 L 70.5 30.5 Z"/></clipPath><clipPath id="bPAUUdbCJdTu"><path fill="none" stroke="none" d="M 70.5 30.5 L 570.5 30.5 L 570.5 280.5 L 70.5 280.5 L 70.5 30.5 Z"/></clipPath><clipPath id="amIimnJGkirJ"><path fill="none" stroke="none" d="M 70.5 30.5 L 570.5 30.5 L 570.5 280.5 L 70.5 280.5 L 70.5 30.5 Z"/></clipPath><clipPath id="XOMfpeBKFptz"><path fill="none" stroke="none" d="M 70.5 30.5 L 570.5 30.5 L 570.5 280.5 L 70.5 280.5 L 70.5 30.5 Z"/></clipPath><clipPath id="TZPLIKBECnGr"><path fill="none" stroke="none" d="M 70.5 30.5 L 570.5 30.5 L 570.5 280.5 L 70.5 280.5 L 70.5 30.5 Z"/></clipPath><clipPath id="nCzIAfRDpnsd"><path fill="none" stroke="none" d="M 70.5 30.5 L 570.5 30.5 L 570.5 280.5 L 70.5 280.5 L 70.5 30.5 Z"/></clipPath><clipPath id="EWOiUtHZMguB"><path fill="none" stroke="none" d="M 70.5 30.5 L 570.5 30.5 L 570.5 280.5 L 70.5 280.5 L 70.5 30.5 Z"/></clipPath><clipPath id="bdWrBSwhNdxq"><path fill="none" stroke="none" d="M 70.5 30.5 L 570.5 30.5 L 570.5 280.5 L 70.5 280.5 L 70.5 30.5 Z"/></clipPath><clipPath id="PlDMlasOhVSl"><path fill="none" stroke="none" d="M 70.5 30.5 L 570.5 30.5 L 570.5 280.5 L 70.5 280.5 L 70.5 30.5 Z"/></clipPath><clipPath id="qpSmmLefIvVB"><path fill="none" stroke="none" d="M 70.5 30.5 L 570.5 30.5 L 570.5 280.5 L 70.5 280.5 L 70.5 30.5 Z"/></clipPath><clipPath id="bgDdXJCHOTfq"><path fill="none" stroke="none" d="M 70.5 30.5 L 570.5 30.5 L 570.5 280.5 L 70.5 280.5 L 70.5 30.5 Z"/></clipPath><clipPath id="wGEvFwyHQxqv"><path fill="none" stroke="none" d="M 70.5 30.5 L 570.5 30.5 L 570.5 280.5 L 70.5 280.5 L 70.5 30.5 Z"/></clipPath><clipPath id="lfGLewACtJTc"><path fill="none" stroke="none" d="M 70.5 30.5 L 570.5 30.5 L 570.5 280.5 L 70.5 280.5 L 70.5 30.5 Z"/></clipPath><clipPath id="hWRtxkCwhSET"><path fill="none" stroke="none" d="M 70.5 30.5 L 570.5 30.5 L 570.5 280.5 L 70.5 280.5 L 70.5 30.5 Z"/></clipPath><clipPath id="PwgdKvDLtEzx"><path fill="none" stroke="none" d="M 70.5 30.5 L 570.5 30.5 L 570.5 280.5 L 70.5 280.5 L 70.5 30.5 Z"/></clipPath><clipPath id="ORcPOGCULreH"><path fill="none" stroke="none" d="M 70.5 30.5 L 570.5 30.5 L 570.5 280.5 L 70.5 280.5 L 70.5 30.5 Z"/></clipPath><clipPath id="tZhbmoaTgLew"><path fill="none" stroke="none" d="M 70.5 30.5 L 570.5 30.5 L 570.5 280.5 L 70.5 280.5 L 70.5 30.5 Z"/></clipPath><clipPath id="uSVOhoQxQytv"><path fill="none" stroke="none" d="M 70.5 30.5 L 570.5 30.5 L 570.5 280.5 L 70.5 280.5 L 70.5 30.5 Z"/></clipPath><clipPath id="NLbmNQfBzXby"><path fill="none" stroke="none" d="M 70.5 30.5 L 570.5 30.5 L 570.5 280.5 L 70.5 280.5 L 70.5 30.5 Z"/></clipPath></defs><path fill="none" stroke="#e5e5e5" paint-order="fill" d="M 70.5 30.5 L 570.5 30.5 L 570.5 280.5 L 70.5 280.5 L 70.5 30.5 Z" stroke-linejoin="bevel" stroke-miterlimit="10"/><path fill="none" stroke="black" paint-order="fill" d="M 332.46172248803487 30.5 L 332.46172248803487 280.5" stroke-linejoin="bevel" stroke-miterlimit="10" stroke-width="3" stroke-dasharray="6" clip-path="url(#QEdVzsfNRMJI)"/><path fill="none" stroke="#9467bd" paint-order="fill" d="M 93.2272720336914 73.95123291015625 L 117.15071868896484 84.3132095336914 L 141.07415771484375 77.40522003173828 L 164.9976043701172 79.47761535644531 L 188.92105102539062 71.87883758544922 L 212.84449768066406 89.14879608154297 L 236.7679443359375 73.26042938232422 L 260.6913757324219 85.69480895996094 L 284.6148376464844 83.62240600585938 L 308.53826904296875 70.49723815917969" stroke-linejoin="bevel" stroke-miterlimit="10" stroke-width="2" clip-path="url(#zqztakVPTiaa)"/><path fill="none" stroke="#9467bd" paint-order="fill" d="M 93.2272720336914 73.95123291015625 L 117.15071868896484 84.3132095336914 L 141.07415771484375 77.40522003173828 L 164.9976043701172 79.47761535644531 L 188.92105102539062 71.87883758544922 L 212.84449768066406 89.14879608154297 L 236.7679443359375 73.26042938232422 L 260.6913757324219 85.69480895996094 L 284.6148376464844 83.62240600585938 L 308.53826904296875 70.49723815917969" stroke-linejoin="bevel" stroke-miterlimit="10" stroke-width="2" stroke-dasharray="6" clip-path="url(#vuRgIGdUTeyM)"/><path fill="none" stroke="#30a2da" paint-order="fill" d="M 308.53826904296875 70.49723815917969 L 332.46173095703125 68.42484283447266 L 356.3851623535156 91.22119140625 L 380.3086242675781 66.35244750976562 L 404.2320556640625 85.69480895996094 L 428.155517578125 88.45800018310547 L 452.0789489746094 85.69480895996094 L 476.00238037109375 83.62240600585938 L 499.92584228515625 77.40522003173828 L 523.8493041992188 78.09602355957031 L 547.772705078125 87.76720428466797" stroke-linejoin="bevel" stroke-miterlimit="10" stroke-width="2" clip-path="url(#bPAUUdbCJdTu)"/><path fill="none" stroke="#30a2da" paint-order="fill" d="M 332.46173095703125 77.76946258544922 L 356.3851623535156 78.54817962646484 L 380.3086242675781 79.32689666748047 L 404.2320556640625 80.1056137084961 L 428.155517578125 80.88433837890625 L 452.0789489746094 81.66305541992188 L 476.00238037109375 82.4417724609375 L 499.92584228515625 83.22048950195312 L 523.8493041992188 83.99920654296875 L 547.772705078125 84.77792358398438" stroke-linejoin="bevel" stroke-miterlimit="10" stroke-width="2" stroke-dasharray="6" clip-path="url(#amIimnJGkirJ)"/><path fill="none" stroke="#fc4f30" paint-order="fill" d="M 308.53826904296875 70.49723815917969 L 332.46173095703125 79.47761535644531 L 356.3851623535156 96.7475814819336 L 380.3086242675781 94.67518615722656 L 404.2320556640625 87.76720428466797 L 428.155517578125 92.60279083251953 L 452.0789489746094 74.64202880859375 L 476.00238037109375 86.38560485839844 L 499.92584228515625 92.60279083251953 L 523.8493041992188 89.839599609375 L 547.772705078125 76.02362823486328" stroke-linejoin="bevel" stroke-miterlimit="10" stroke-width="2" clip-path="url(#XOMfpeBKFptz)"/><path fill="none" stroke="#fc4f30" paint-order="fill" d="M 332.46173095703125 90.12847900390625 L 356.3851623535156 89.45024108886719 L 380.3086242675781 88.7719955444336 L 404.2320556640625 88.09375762939453 L 428.155517578125 87.41551971435547 L 452.0789489746094 86.7372817993164 L 476.00238037109375 86.05904388427734 L 499.92584228515625 85.38080596923828 L 523.8493041992188 84.70256805419922 L 547.772705078125 84.02433013916016" stroke-linejoin="bevel" stroke-miterlimit="10" stroke-width="2" stroke-dasharray="6" clip-path="url(#TZPLIKBECnGr)"/><path fill="none" stroke="rgb(128,128,128)" paint-order="fill" d="M 93.2272720336914 73.95123291015625 L 117.15071868896484 71.87883758544922 L 141.07415771484375 80.85921478271484 L 164.9976043701172 78.09602355957031 L 188.92105102539062 78.09602355957031 L 212.84449768066406 82.24081420898438 L 236.7679443359375 78.78681945800781 L 260.6913757324219 80.85921478271484 L 284.6148376464844 73.95123291015625 L 308.53826904296875 81.55001068115234" stroke-opacity="0.7490196078431373" stroke-linejoin="bevel" stroke-miterlimit="10" clip-path="url(#nCzIAfRDpnsd)"/><path fill="none" stroke="grey" paint-order="fill" d="M 308.53826904296875 81.55001068115234 L 332.46173095703125 87.07640075683594 L 356.3851623535156 92.60279083251953 L 380.3086242675781 78.09602355957031 L 404.2320556640625 87.76720428466797 L 428.155517578125 96.7475814819336 L 452.0789489746094 72.56963348388672 L 476.00238037109375 71.87883758544922 L 499.92584228515625 78.78681945800781 L 523.8493041992188 82.93161010742188 L 547.772705078125 89.14879608154297" stroke-linejoin="bevel" stroke-miterlimit="10" stroke-width="0.5" clip-path="url(#EWOiUtHZMguB)"/><path fill="none" stroke="grey" paint-order="fill" d="M 308.53826904296875 81.55001068115234 L 332.46173095703125 73.95123291015625 L 356.3851623535156 91.22119140625 L 380.3086242675781 87.07640075683594 L 404.2320556640625 82.24081420898438 L 428.155517578125 83.62240600585938 L 452.0789489746094 95.36598205566406 L 476.00238037109375 85.69480895996094 L 499.92584228515625 68.42484283447266 L 523.8493041992188 93.98439025878906 L 547.772705078125 89.14879608154297" stroke-linejoin="bevel" stroke-miterlimit="10" stroke-width="0.5" clip-path="url(#bdWrBSwhNdxq)"/><path fill="none" stroke="rgb(128,128,128)" paint-order="fill" d="M 93.2272720336914 81.55001068115234 L 117.15071868896484 68.42484283447266 L 141.07415771484375 80.16841888427734 L 164.9976043701172 84.3132095336914 L 188.92105102539062 80.85921478271484 L 212.84449768066406 85.69480895996094 L 236.7679443359375 77.40522003173828 L 260.6913757324219 78.09602355957031 L 284.6148376464844 91.22119140625 L 308.53826904296875 79.47761535644531" stroke-opacity="0.7490196078431373" stroke-linejoin="bevel" stroke-miterlimit="10" clip-path="url(#PlDMlasOhVSl)"/><path fill="none" stroke="grey" paint-order="fill" d="M 308.53826904296875 79.47761535644531 L 332.46173095703125 71.18803405761719 L 356.3851623535156 78.09602355957031 L 380.3086242675781 76.71442413330078 L 404.2320556640625 96.7475814819336 L 428.155517578125 64.28004837036133 L 452.0789489746094 92.60279083251953 L 476.00238037109375 87.76720428466797 L 499.92584228515625 76.02362823486328 L 523.8493041992188 91.91199493408203 L 547.772705078125 85.69480895996094" stroke-linejoin="bevel" stroke-miterlimit="10" stroke-width="0.5" clip-path="url(#qpSmmLefIvVB)"/><path fill="none" stroke="grey" paint-order="fill" d="M 308.53826904296875 79.47761535644531 L 332.46173095703125 81.55001068115234 L 356.3851623535156 74.64202880859375 L 380.3086242675781 77.40522003173828 L 404.2320556640625 64.9708480834961 L 428.155517578125 82.93161010742188 L 452.0789489746094 80.16841888427734 L 476.00238037109375 79.47761535644531 L 499.92584228515625 79.47761535644531 L 523.8493041992188 76.02362823486328 L 547.772705078125 92.60279083251953" stroke-linejoin="bevel" stroke-miterlimit="10" stroke-width="0.5" clip-path="url(#bgDdXJCHOTfq)"/><path fill="none" stroke="rgb(128,128,128)" paint-order="fill" d="M 93.2272720336914 89.14879608154297 L 117.15071868896484 76.02362823486328 L 141.07415771484375 72.56963348388672 L 164.9976043701172 88.45800018310547 L 188.92105102539062 82.93161010742188 L 212.84449768066406 93.29358673095703 L 236.7679443359375 93.29358673095703 L 260.6913757324219 82.24081420898438 L 284.6148376464844 89.14879608154297 L 308.53826904296875 89.14879608154297" stroke-opacity="0.7490196078431373" stroke-linejoin="bevel" stroke-miterlimit="10" clip-path="url(#wGEvFwyHQxqv)"/><path fill="none" stroke="grey" paint-order="fill" d="M 308.53826904296875 89.14879608154297 L 332.46173095703125 80.85921478271484 L 356.3851623535156 53.227272033691406 L 380.3086242675781 89.839599609375 L 404.2320556640625 77.40522003173828 L 428.155517578125 91.91199493408203 L 452.0789489746094 85.0040054321289 L 476.00238037109375 78.09602355957031 L 499.92584228515625 80.16841888427734 L 523.8493041992188 93.98439025878906 L 547.772705078125 64.28004837036133" stroke-linejoin="bevel" stroke-miterlimit="10" stroke-width="0.5" clip-path="url(#lfGLewACtJTc)"/><path fill="none" stroke="grey" paint-order="fill" d="M 308.53826904296875 89.14879608154297 L 332.46173095703125 78.09602355957031 L 356.3851623535156 62.2076530456543 L 380.3086242675781 96.0567855834961 L 404.2320556640625 100.20157623291016 L 428.155517578125 82.93161010742188 L 452.0789489746094 75.33282470703125 L 476.00238037109375 88.45800018310547 L 499.92584228515625 83.62240600585938 L 523.8493041992188 68.42484283447266 L 547.772705078125 82.93161010742188" stroke-linejoin="bevel" stroke-miterlimit="10" stroke-width="0.5" clip-path="url(#hWRtxkCwhSET)"/><path fill="none" stroke="rgb(128,128,128)" paint-order="fill" d="M 93.2272720336914 68.42484283447266 L 117.15071868896484 82.24081420898438 L 141.07415771484375 76.02362823486328 L 164.9976043701172 73.26042938232422 L 188.92105102539062 83.62240600585938 L 212.84449768066406 67.04324340820312 L 236.7679443359375 83.62240600585938 L 260.6913757324219 79.47761535644531 L 284.6148376464844 90.5303955078125 L 308.53826904296875 82.24081420898438" stroke-opacity="0.7490196078431373" stroke-linejoin="bevel" stroke-miterlimit="10" clip-path="url(#PwgdKvDLtEzx)"/><path fill="none" stroke="grey" paint-order="fill" d="M 308.53826904296875 82.24081420898438 L 332.46173095703125 64.9708480834961 L 356.3851623535156 104.34636688232422 L 380.3086242675781 75.33282470703125 L 404.2320556640625 60.135257720947266 L 428.155517578125 78.78681945800781 L 452.0789489746094 79.47761535644531 L 476.00238037109375 71.87883758544922 L 499.92584228515625 73.95123291015625 L 523.8493041992188 93.98439025878906 L 547.772705078125 70.49723815917969" stroke-linejoin="bevel" stroke-miterlimit="10" stroke-width="0.5" clip-path="url(#ORcPOGCULreH)"/><path fill="none" stroke="grey" paint-order="fill" d="M 308.53826904296875 82.24081420898438 L 332.46173095703125 72.56963348388672 L 356.3851623535156 83.62240600585938 L 380.3086242675781 83.62240600585938 L 404.2320556640625 71.18803405761719 L 428.155517578125 89.839599609375 L 452.0789489746094 84.3132095336914 L 476.00238037109375 64.28004837036133 L 499.92584228515625 80.85921478271484 L 523.8493041992188 82.24081420898438 L 547.772705078125 93.29358673095703" stroke-linejoin="bevel" stroke-miterlimit="10" stroke-width="0.5" clip-path="url(#tZhbmoaTgLew)"/><path fill="none" stroke="black" paint-order="fill" d="M 70.5 280.5 L 570.5 280.5" stroke-linejoin="bevel" stroke-miterlimit="10"/><path fill="none" stroke="black" paint-order="fill" d="M 93.5 286.5 L 93.5 278.5 M 212.5 286.5 L 212.5 278.5 M 332.5 286.5 L 332.5 278.5 M 452.5 286.5 L 452.5 278.5" stroke-linejoin="bevel" stroke-miterlimit="10"/><path fill="none" stroke="black" paint-order="fill" d="M 93.5 284.5 L 93.5 280.5 M 117.5 284.5 L 117.5 280.5 M 141.5 284.5 L 141.5 280.5 M 164.5 284.5 L 164.5 280.5 M 188.5 284.5 L 188.5 280.5 M 212.5 284.5 L 212.5 280.5 M 236.5 284.5 L 236.5 280.5 M 260.5 284.5 L 260.5 280.5 M 284.5 284.5 L 284.5 280.5 M 308.5 284.5 L 308.5 280.5 M 332.5 284.5 L 332.5 280.5 M 356.5 284.5 L 356.5 280.5 M 380.5 284.5 L 380.5 280.5 M 404.5 284.5 L 404.5 280.5 M 428.5 284.5 L 428.5 280.5 M 452.5 284.5 L 452.5 280.5 M 476.5 284.5 L 476.5 280.5 M 499.5 284.5 L 499.5 280.5 M 523.5 284.5 L 523.5 280.5 M 547.5 284.5 L 547.5 280.5" stroke-linejoin="bevel" stroke-miterlimit="10"/><text fill="#444444" stroke="none" font-family="helvetica" font-size="10pt" font-style="normal" font-weight="normal" text-decoration="normal" x="77.82727241516113" y="300.59368896484375" text-anchor="start" dominant-baseline="alphabetic" transform="matrix(1, 0, 0, 1, 0.5, 0.5)">2025</text><text fill="none" stroke="rgb(0,0,0)" font-family="helvetica" font-size="10pt" font-style="normal" font-weight="normal" text-decoration="normal" x="77.82727241516113" y="300.59368896484375" text-anchor="start" dominant-baseline="alphabetic" transform="matrix(1, 0, 0, 1, 0.5, 0.5)" stroke-opacity="0" stroke-linejoin="bevel" stroke-miterlimit="10">2025</text><text fill="#444444" stroke="none" font-family="helvetica" font-size="10pt" font-style="normal" font-weight="normal" text-decoration="normal" x="197.4444980621338" y="300.59368896484375" text-anchor="start" dominant-baseline="alphabetic" transform="matrix(1, 0, 0, 1, 0.5, 0.5)">2030</text><text fill="none" stroke="rgb(0,0,0)" font-family="helvetica" font-size="10pt" font-style="normal" font-weight="normal" text-decoration="normal" x="197.4444980621338" y="300.59368896484375" text-anchor="start" dominant-baseline="alphabetic" transform="matrix(1, 0, 0, 1, 0.5, 0.5)" stroke-opacity="0" stroke-linejoin="bevel" stroke-miterlimit="10">2030</text><text fill="#444444" stroke="none" font-family="helvetica" font-size="10pt" font-style="normal" font-weight="normal" text-decoration="normal" x="317.061731338501" y="300.59368896484375" text-anchor="start" dominant-baseline="alphabetic" transform="matrix(1, 0, 0, 1, 0.5, 0.5)">2035</text><text fill="none" stroke="rgb(0,0,0)" font-family="helvetica" font-size="10pt" font-style="normal" font-weight="normal" text-decoration="normal" x="317.061731338501" y="300.59368896484375" text-anchor="start" dominant-baseline="alphabetic" transform="matrix(1, 0, 0, 1, 0.5, 0.5)" stroke-opacity="0" stroke-linejoin="bevel" stroke-miterlimit="10">2035</text><text fill="#444444" stroke="none" font-family="helvetica" font-size="10pt" font-style="normal" font-weight="normal" text-decoration="normal" x="436.6789493560791" y="300.59368896484375" text-anchor="start" dominant-baseline="alphabetic" transform="matrix(1, 0, 0, 1, 0.5, 0.5)">2040</text><text fill="none" stroke="rgb(0,0,0)" font-family="helvetica" font-size="10pt" font-style="normal" font-weight="normal" text-decoration="normal" x="436.6789493560791" y="300.59368896484375" text-anchor="start" dominant-baseline="alphabetic" transform="matrix(1, 0, 0, 1, 0.5, 0.5)" stroke-opacity="0" stroke-linejoin="bevel" stroke-miterlimit="10">2040</text><text fill="#444444" stroke="none" font-family="helvetica" font-size="12pt" font-style="normal" font-weight="normal" text-decoration="normal" x="303.8333339691162" y="321.59368896484375" text-anchor="start" dominant-baseline="alphabetic" transform="matrix(1, 0, 0, 1, 0.5, 0.5)">Year</text><text fill="none" stroke="rgb(0,0,0)" font-family="helvetica" font-size="12pt" font-style="normal" font-weight="normal" text-decoration="normal" x="303.8333339691162" y="321.59368896484375" text-anchor="start" dominant-baseline="alphabetic" transform="matrix(1, 0, 0, 1, 0.5, 0.5)" stroke-opacity="0" stroke-linejoin="bevel" stroke-miterlimit="10">Year</text><path fill="none" stroke="black" paint-order="fill" d="M 70.5 280.5 L 70.5 30.5" stroke-linejoin="bevel" stroke-miterlimit="10"/><path fill="none" stroke="black" paint-order="fill" d="M 64.5 280.5 L 72.5 280.5 M 64.5 245.5 L 72.5 245.5 M 64.5 211.5 L 72.5 211.5 M 64.5 176.5 L 72.5 176.5 M 64.5 142.5 L 72.5 142.5 M 64.5 107.5 L 72.5 107.5 M 64.5 73.5 L 72.5 73.5 M 64.5 38.5 L 72.5 38.5" stroke-linejoin="bevel" stroke-miterlimit="10"/><path fill="none" stroke="black" paint-order="fill" d="M 66.5 280.5 L 70.5 280.5 M 66.5 273.5 L 70.5 273.5 M 66.5 266.5 L 70.5 266.5 M 66.5 259.5 L 70.5 259.5 M 66.5 252.5 L 70.5 252.5 M 66.5 245.5 L 70.5 245.5 M 66.5 239.5 L 70.5 239.5 M 66.5 232.5 L 70.5 232.5 M 66.5 225.5 L 70.5 225.5 M 66.5 218.5 L 70.5 218.5 M 66.5 211.5 L 70.5 211.5 M 66.5 204.5 L 70.5 204.5 M 66.5 197.5 L 70.5 197.5 M 66.5 190.5 L 70.5 190.5 M 66.5 183.5 L 70.5 183.5 M 66.5 176.5 L 70.5 176.5 M 66.5 169.5 L 70.5 169.5 M 66.5 163.5 L 70.5 163.5 M 66.5 156.5 L 70.5 156.5 M 66.5 149.5 L 70.5 149.5 M 66.5 142.5 L 70.5 142.5 M 66.5 135.5 L 70.5 135.5 M 66.5 128.5 L 70.5 128.5 M 66.5 121.5 L 70.5 121.5 M 66.5 114.5 L 70.5 114.5 M 66.5 107.5 L 70.5 107.5 M 66.5 100.5 L 70.5 100.5 M 66.5 93.5 L 70.5 93.5 M 66.5 87.5 L 70.5 87.5 M 66.5 80.5 L 70.5 80.5 M 66.5 73.5 L 70.5 73.5 M 66.5 66.5 L 70.5 66.5 M 66.5 59.5 L 70.5 59.5 M 66.5 52.5 L 70.5 52.5 M 66.5 45.5 L 70.5 45.5 M 66.5 38.5 L 70.5 38.5 M 66.5 31.5 L 70.5 31.5" stroke-linejoin="bevel" stroke-miterlimit="10"/><text fill="#444444" stroke="none" font-family="helvetica" font-size="10pt" font-style="normal" font-weight="normal" text-decoration="normal" x="51.55000019073486" y="284.7968444824219" text-anchor="start" dominant-baseline="alphabetic" transform="matrix(1, 0, 0, 1, 0.5, 0.5)">0</text><text fill="none" stroke="rgb(0,0,0)" font-family="helvetica" font-size="10pt" font-style="normal" font-weight="normal" text-decoration="normal" x="51.55000019073486" y="284.7968444824219" text-anchor="start" dominant-baseline="alphabetic" transform="matrix(1, 0, 0, 1, 0.5, 0.5)" stroke-opacity="0" stroke-linejoin="bevel" stroke-miterlimit="10">0</text><text fill="#444444" stroke="none" font-family="helvetica" font-size="10pt" font-style="normal" font-weight="normal" text-decoration="normal" x="44.10000038146973" y="250.2569122314453" text-anchor="start" dominant-baseline="alphabetic" transform="matrix(1, 0, 0, 1, 0.5, 0.5)">50</text><text fill="none" stroke="rgb(0,0,0)" font-family="helvetica" font-size="10pt" font-style="normal" font-weight="normal" text-decoration="normal" x="44.10000038146973" y="250.2569122314453" text-anchor="start" dominant-baseline="alphabetic" transform="matrix(1, 0, 0, 1, 0.5, 0.5)" stroke-opacity="0" stroke-linejoin="bevel" stroke-miterlimit="10">50</text><text fill="#444444" stroke="none" font-family="helvetica" font-size="10pt" font-style="normal" font-weight="normal" text-decoration="normal" x="36.64999961853027" y="215.7169952392578" text-anchor="start" dominant-baseline="alphabetic" transform="matrix(1, 0, 0, 1, 0.5, 0.5)">100</text><text fill="none" stroke="rgb(0,0,0)" font-family="helvetica" font-size="10pt" font-style="normal" font-weight="normal" text-decoration="normal" x="36.64999961853027" y="215.7169952392578" text-anchor="start" dominant-baseline="alphabetic" transform="matrix(1, 0, 0, 1, 0.5, 0.5)" stroke-opacity="0" stroke-linejoin="bevel" stroke-miterlimit="10">100</text><text fill="#444444" stroke="none" font-family="helvetica" font-size="10pt" font-style="normal" font-weight="normal" text-decoration="normal" x="36.64999961853027" y="181.17706298828125" text-anchor="start" dominant-baseline="alphabetic" transform="matrix(1, 0, 0, 1, 0.5, 0.5)">150</text><text fill="none" stroke="rgb(0,0,0)" font-family="helvetica" font-size="10pt" font-style="normal" font-weight="normal" text-decoration="normal" x="36.64999961853027" y="181.17706298828125" text-anchor="start" dominant-baseline="alphabetic" transform="matrix(1, 0, 0, 1, 0.5, 0.5)" stroke-opacity="0" stroke-linejoin="bevel" stroke-miterlimit="10">150</text><text fill="#444444" stroke="none" font-family="helvetica" font-size="10pt" font-style="normal" font-weight="normal" text-decoration="normal" x="36.64999961853027" y="146.6371307373047" text-anchor="start" dominant-baseline="alphabetic" transform="matrix(1, 0, 0, 1, 0.5, 0.5)">200</text><text fill="none" stroke="rgb(0,0,0)" font-family="helvetica" font-size="10pt" font-style="normal" font-weight="normal" text-decoration="normal" x="36.64999961853027" y="146.6371307373047" text-anchor="start" dominant-baseline="alphabetic" transform="matrix(1, 0, 0, 1, 0.5, 0.5)" stroke-opacity="0" stroke-linejoin="bevel" stroke-miterlimit="10">200</text><text fill="#444444" stroke="none" font-family="helvetica" font-size="10pt" font-style="normal" font-weight="normal" text-decoration="normal" x="36.64999961853027" y="112.09720611572266" text-anchor="start" dominant-baseline="alphabetic" transform="matrix(1, 0, 0, 1, 0.5, 0.5)">250</text><text fill="none" stroke="rgb(0,0,0)" font-family="helvetica" font-size="10pt" font-style="normal" font-weight="normal" text-decoration="normal" x="36.64999961853027" y="112.09720611572266" text-anchor="start" dominant-baseline="alphabetic" transform="matrix(1, 0, 0, 1, 0.5, 0.5)" stroke-opacity="0" stroke-linejoin="bevel" stroke-miterlimit="10">250</text><text fill="#444444" stroke="none" font-family="helvetica" font-size="10pt" font-style="normal" font-weight="normal" text-decoration="normal" x="36.64999961853027" y="77.5572738647461" text-anchor="start" dominant-baseline="alphabetic" transform="matrix(1, 0, 0, 1, 0.5, 0.5)">300</text><text fill="none" stroke="rgb(0,0,0)" font-family="helvetica" font-size="10pt" font-style="normal" font-weight="normal" text-decoration="normal" x="36.64999961853027" y="77.5572738647461" text-anchor="start" dominant-baseline="alphabetic" transform="matrix(1, 0, 0, 1, 0.5, 0.5)" stroke-opacity="0" stroke-linejoin="bevel" stroke-miterlimit="10">300</text><text fill="#444444" stroke="none" font-family="helvetica" font-size="10pt" font-style="normal" font-weight="normal" text-decoration="normal" x="36.64999961853027" y="43.01734924316406" text-anchor="start" dominant-baseline="alphabetic" transform="matrix(1, 0, 0, 1, 0.5, 0.5)">350</text><text fill="none" stroke="rgb(0,0,0)" font-family="helvetica" font-size="10pt" font-style="normal" font-weight="normal" text-decoration="normal" x="36.64999961853027" y="43.01734924316406" text-anchor="start" dominant-baseline="alphabetic" transform="matrix(1, 0, 0, 1, 0.5, 0.5)" stroke-opacity="0" stroke-linejoin="bevel" stroke-miterlimit="10">350</text><text fill="#444444" stroke="none" font-family="helvetica" font-size="12pt" font-style="normal" font-weight="normal" text-decoration="normal" x="-78.07499885559082" y="151" text-anchor="start" dominant-baseline="alphabetic" transform="matrix(6.123233995736766e-17, -1, 1, 6.123233995736766e-17, -125.85000038146973, 184.14999961853027)">Days suitable for transmission</text><text fill="none" stroke="rgb(0,0,0)" font-family="helvetica" font-size="12pt" font-style="normal" font-weight="normal" text-decoration="normal" x="-78.07499885559082" y="151" text-anchor="start" dominant-baseline="alphabetic" transform="matrix(6.123233995736766e-17, -1, 1, 6.123233995736766e-17, -125.85000038146973, 184.14999961853027)" stroke-opacity="0" stroke-linejoin="bevel" stroke-miterlimit="10">Days suitable for transmission</text><path fill="rgb(255,255,255)" stroke="rgb(229,229,229)" paint-order="fill" d="M 475.183349609375 205.5 L 560.5000152587891 205.5 L 560.5000152587891 270.5 L 475.183349609375 270.5 L 475.183349609375 205.5 Z" fill-opacity="0.9490196078431372" clip-path="url(#uSVOhoQxQytv)" stroke-opacity="0.5019607843137255" stroke-linejoin="bevel" stroke-miterlimit="10"/><g clip-path="url(#uSVOhoQxQytv)"><g transform="matrix(1, 0, 0, 1, 485.683349609375, 216)"><path fill="none" stroke="#30a2da" paint-order="fill" d="M 0.5 10.5 L 20.5 10.5" stroke-linejoin="bevel" stroke-miterlimit="10" stroke-width="2"/></g></g><g clip-path="url(#uSVOhoQxQytv)"><text fill="#444444" stroke="none" font-family="helvetica" font-size="13px" font-style="normal" font-weight="normal" text-decoration="normal" x="510.683349609375" y="230" text-anchor="start" dominant-baseline="alphabetic" transform="matrix(1, 0, 0, 1, 0.5, 0.5)">ID 001</text></g><g clip-path="url(#uSVOhoQxQytv)"><text fill="none" stroke="rgb(0,0,0)" font-family="helvetica" font-size="13px" font-style="normal" font-weight="normal" text-decoration="normal" x="510.683349609375" y="230" text-anchor="start" dominant-baseline="alphabetic" transform="matrix(1, 0, 0, 1, 0.5, 0.5)" stroke-opacity="0" stroke-linejoin="bevel" stroke-miterlimit="10">ID 001</text></g><g clip-path="url(#uSVOhoQxQytv)"><g transform="matrix(1, 0, 0, 1, 485.683349609375, 239)"><path fill="none" stroke="#fc4f30" paint-order="fill" d="M 0.5 10.5 L 20.5 10.5" stroke-linejoin="bevel" stroke-miterlimit="10" stroke-width="2"/></g></g><g clip-path="url(#uSVOhoQxQytv)"><text fill="#444444" stroke="none" font-family="helvetica" font-size="13px" font-style="normal" font-weight="normal" text-decoration="normal" x="510.683349609375" y="253" text-anchor="start" dominant-baseline="alphabetic" transform="matrix(1, 0, 0, 1, 0.5, 0.5)">ID 006</text></g><g clip-path="url(#uSVOhoQxQytv)"><text fill="none" stroke="rgb(0,0,0)" font-family="helvetica" font-size="13px" font-style="normal" font-weight="normal" text-decoration="normal" x="510.683349609375" y="253" text-anchor="start" dominant-baseline="alphabetic" transform="matrix(1, 0, 0, 1, 0.5, 0.5)" stroke-opacity="0" stroke-linejoin="bevel" stroke-miterlimit="10">ID 006</text></g><text fill="black" stroke="none" font-family="helvetica" font-size="14pt" font-style="normal" font-weight="normal" text-decoration="normal" x="0" y="15" text-anchor="start" dominant-baseline="alphabetic" transform="matrix(1, 0, 0, 1, 5.5, 5.5)">E. Hanoi</text><text fill="none" stroke="rgb(0,0,0)" font-family="helvetica" font-size="14pt" font-style="normal" font-weight="normal" text-decoration="normal" x="0" y="15" text-anchor="start" dominant-baseline="alphabetic" transform="matrix(1, 0, 0, 1, 5.5, 5.5)" stroke-opacity="0" stroke-linejoin="bevel" stroke-miterlimit="10">E. Hanoi</text></svg>