<svg version="1.1" xmlns="http://www.w3.org/2000/svg" width="600" height="329"><defs><clipPath id="SchbChGwOALx"><path fill="none" stroke="none" d="M 70.5 30.5 L 570.5 30.5 L 570.5 280.5 L 70.5 280.5 L 70.5 30.5 Z"/></clipPath><clipPath id="HLJUGSweNdaA"><path fill="none" stroke="none" d="M 70.5 30.5 L 570.5 30.5 L 570.5 280.5 L 70.5 280.5 L 70.5 30.5 Z"/></clipPath><clipPath id="BPdoiZQWhJHN"><path fill="none" stroke="none" d="M 70.5 30.5 L 570.5 30.5 L 570.5 280.5 L 70.5 280.5 L 70.5 30.5 Z"/></clipPath><clipPath id="CyBMmDNJUHIx"><path fill="none" stroke="none" d="M 70.5 30.5 L 570.5 30.5 L 570.5 280.5 L 70.5 280.5 L 70.5 30.5 Z"/></clipPath><clipPath id="NFZAprMeRgdL"><path fill="none" stroke="none" d="M 70.5 30.5 L 570.5 30.5 L 570.5 280.5 L 70.5 280.5 L 70.5 30.5 Z"/></clipPath><clipPath id="hotaWSBuzPQV"><path fill="none" stroke="none" d="M 70.5 30.5 L 570.5 30.5 L 570.5 280.5 L 70.5 280.5 L 70.5 30.5 Z"/></clipPath><clipPath id="feFfzxKdseNv"><path fill="none" stroke="none" d="M 70.5 30.5 L 570.5 30.5 L 570.5 280.5 L 70.5 280.5 L 70.5 30.5 Z"/></clipPath><clipPath id="TaQxTXNuNllm"><path fill="none" stroke="none" d="M 70.5 30.5 L 570.5 30.5 L 570.5 280.5 L 70.5 280.5 L 70.5 30.5 Z"/></clipPath><clipPath id="sgKXfPTIaTKB"><path fill="none" stroke="none" d="M 70.5 30.5 L 570.5 30.5 L 570.5 280.5 L 70.5 280.5 L 70.5 30.5 Z"/></clipPath><clipPath id="KPdkLbnbypum"><path fill="none" stroke="none" d="M 70.5 30.5 L 570.5 30.5 L 570.5 280.5 L 70.5 280.5 L 70.5 30.5 Z"/></clipPath><clipPath id="WGryVAcNZlUn"><path fill="none" stroke="none" d="M 70.5 30.5 L 570.5 30.5 L 570.5 280.5 L 70.5 280.5 L 70.5 30.5 Z"/></clipPath><clipPath id="VwRkLncoFrus"><path fill="none" stroke="none" d="M 70.5 30.5 L 570.5 30.5 L 570.5 280.5 L 70.5 280.5 L 70.5 30.5 Z"/></clipPath><clipPath id="AxJIvmbkxkDT"><path fill="none" stroke="none" d="M 70.5 30.5 L 570.5 30.5 L 570.5 280.5 L 70.5 280.5 L 70.5 30.5 Z"/></clipPath><clipPath id="dpmEeDLBsFup"><path fill="none" stroke="none" d="M 70.5 30.5 L 570.5 30.5 L 570.5 280.5 L 70.5 280.5 L 70.5 30.5 Z"/></clipPath><clipPath id="QuXgqkWMfKhQ"><path fill="none" stroke="none" d="M 70.5 30.5 L 570.5 30.5 L 570.5 280.5 L 70.5 280.5 L 70.5 30.5 Z"/></clipPath><clipPath id="LTICwlVuTDpe"><path fill="none" stroke="none" d="M 70.5 30.5 L 570.5 30.5 L 570.5 280.5 L 70.5 280.5 L 70.5 30.5 Z"/></clipPath><clipPath id="aheqbLQnTUkU"><path fill="none" stroke="none" d="M 70.5 30.5 L 570.5 30.5 L 570.5 280.5 L 70.5 280.5 L 70.5 30.5 Z"/></clipPath><clipPath id="RFvfBNeXzLGW"><path fill="none" stroke="none" d="M 70.5 30.5 L 570.5 30.5 L 570.5 280.5 L 70.5 280.5 L 70.5 30.5 Z"/></clipPath><clipPath id="pypNxCpRZfQd"><path fill="none" stroke="none" d="M 70.5 30.5 L 570.5 30.5 L 570.5 280.5 L 70.5 280.5 L 70.5 30.5 Z"/></clipPath><clipPath id="UCmpHBQtHJyL"><path fill="none" stroke="none" d="M 70.5 30.5 L 570.5 30.5 L 570.5 280.5 L 70.5 280.5 L 70.5 30.5 Z"/></clipPath><clipPath id="XUhQESwiqWlw"><path fill="none" stroke="none" d="M 70.5 30.5 L 570.5 30.5 L 570.5 280.5 L 70.5 280.5 L 70.5 30.5 Z"/></clipPath><clipPath id="kNmPPnPTBbbm"><path fill="none" stroke="none" d="M 70.5 30.5 L 570.5 30.5 L 570.5 280.5 L 70.5 280.5 L 70.5 30.5 Z"/></clipPath><clipPath id="tVGfPMPprTCy"><path fill="none" stroke="none" d="M 70.5 30.5 L 570.5 30.5 L 570.5 280.5 L 70.5 280.5 L 70.5 30.5 Z"/></clipPath></defs><path fill="none" stroke="#e5e5e5" paint-order="fill" d="M 70.5 30.5 L 570.5 30.5 L 570.5 280.5 L 70.5 280.5 L 70.5 30.5 Z" stroke-linejoin="bevel" stroke-miterlimit="10"/><path fill="none" stroke="black" paint-order="fill" d="M 332.46172248803487 30.5 L 332.46172248803487 280.5" stroke-linejoin="bevel" stroke-miterlimit="10" stroke-width="3" stroke-dasharray="6" clip-path="url(#BPdoiZQWhJHN)"/><path fill="none" stroke="#9467bd" paint-order="fill" d="M 93.2272720336914 87.11882019042969 L 117.15071868896484 88.11563110351562 L 141.07415771484375 83.13157653808594 L 164.9976043701172 84.12838745117188 L 188.92105102539062 76.1539077758789 L 212.84449768066406 79.14434051513672 L 236.7679443359375 81.1379623413086 L 260.6913757324219 82.134765625 L 284.6148376464844 78.14752960205078 L 308.53826904296875 68.17942810058594" stroke-linejoin="bevel" stroke-miterlimit="10" stroke-width="2" clip-path="url(#CyBMmDNJUHIx)"/><path fill="none" stroke="#9467bd" paint-order="fill" d="M 93.2272720336914 87.11882019042969 L 117.15071868896484 88.11563110351562 L 141.07415771484375 83.13157653808594 L 164.9976043701172 84.12838745117188 L 188.92105102539062 76.1539077758789 L 212.84449768066406 79.14434051513672 L 236.7679443359375 81.1379623413086 L 260.6913757324219 82.134765625 L 284.6148376464844 78.14752960205078 L 308.53826904296875 68.17942810058594" stroke-linejoin="bevel" stroke-miterlimit="10" stroke-width="2" stroke-dasharray="6" clip-path="url(#NFZAprMeRgdL)"/><path fill="none" stroke="#30a2da" paint-order="fill" d="M 308.53826904296875 68.17942810058594 L 332.46173095703125 63.19537353515625 L 356.3851623535156 75.15709686279297 L 380.3086242675781 63.19537353515625 L 404.2320556640625 73.1634750366211 L 428.155517578125 77.15071868896484 L 452.0789489746094 80.14115142822266 L 476.00238037109375 84.12838745117188 L 499.92584228515625 69.17623901367188 L 523.8493041992188 85.12519836425781 L 547.772705078125 99.0805435180664" stroke-linejoin="bevel" stroke-miterlimit="10" stroke-width="2" clip-path="url(#hotaWSBuzPQV)"/><path fill="none" stroke="#30a2da" paint-order="fill" d="M 332.46173095703125 64.44591903686523 L 356.3851623535156 67.22490692138672 L 380.3086242675781 70.00389099121094 L 404.2320556640625 72.78287506103516 L 428.155517578125 75.56185913085938 L 452.0789489746094 78.34085083007812 L 476.00238037109375 81.11983489990234 L 499.92584228515625 83.89881896972656 L 523.8493041992188 86.67780303955078 L 547.772705078125 89.45679473876953" stroke-linejoin="bevel" stroke-miterlimit="10" stroke-width="2" stroke-dasharray="6" clip-path="url(#feFfzxKdseNv)"/><path fill="none" stroke="#fc4f30" paint-order="fill" d="M 308.53826904296875 68.17942810058594 L 332.46173095703125 91.10606384277344 L 356.3851623535156 95.09329986572266 L 380.3086242675781 81.1379623413086 L 404.2320556640625 82.134765625 L 428.155517578125 72.16666412353516 L 452.0789489746094 74.16028594970703 L 476.00238037109375 74.16028594970703 L 499.92584228515625 87.11882019042969 L 523.8493041992188 100.07735443115234 L 547.772705078125 77.15071868896484" stroke-linejoin="bevel" stroke-miterlimit="10" stroke-width="2" clip-path="url(#TaQxTXNuNllm)"/><path fill="none" stroke="#fc4f30" paint-order="fill" d="M 332.46173095703125 85.6870346069336 L 356.3851623535156 85.18561553955078 L 380.3086242675781 84.68418884277344 L 404.2320556640625 84.1827621459961 L 428.155517578125 83.68133544921875 L 452.0789489746094 83.1799087524414 L 476.00238037109375 82.67848205566406 L 499.92584228515625 82.17705535888672 L 523.8493041992188 81.67562866210938 L 547.772705078125 81.17420959472656" stroke-linejoin="bevel" stroke-miterlimit="10" stroke-width="2" stroke-dasharray="6" clip-path="url(#sgKXfPTIaTKB)"/><path fill="none" stroke="rgb(128,128,128)" paint-order="fill" d="M 93.2272720336914 82.134765625 L 117.15071868896484 83.13157653808594 L 141.07415771484375 84.12838745117188 L 164.9976043701172 79.14434051513672 L 188.92105102539062 92.10286712646484 L 212.84449768066406 72.16666412353516 L 236.7679443359375 81.1379623413086 L 260.6913757324219 84.12838745117188 L 284.6148376464844 74.16028594970703 L 308.53826904296875 88.11563110351562" stroke-opacity="0.7490196078431373" stroke-linejoin="bevel" stroke-miterlimit="10" clip-path="url(#KPdkLbnbypum)"/><path fill="none" stroke="grey" paint-order="fill" d="M 308.53826904296875 88.11563110351562 L 332.46173095703125 80.14115142822266 L 356.3851623535156 77.15071868896484 L 380.3086242675781 66.18580627441406 L 404.2320556640625 70.17304992675781 L 428.155517578125 88.11563110351562 L 452.0789489746094 66.18580627441406 L 476.00238037109375 73.1634750366211 L 499.92584228515625 81.1379623413086 L 523.8493041992188 72.16666412353516 L 547.772705078125 78.14752960205078" stroke-linejoin="bevel" stroke-miterlimit="10" stroke-width="0.5" clip-path="url(#WGryVAcNZlUn)"/><path fill="none" stroke="grey" paint-order="fill" d="M 308.53826904296875 88.11563110351562 L 332.46173095703125 55.22089385986328 L 356.3851623535156 72.16666412353516 L 380.3086242675781 75.15709686279297 L 404.2320556640625 70.17304992675781 L 428.155517578125 68.17942810058594 L 452.0789489746094 74.16028594970703 L 476.00238037109375 65.18899536132812 L 499.92584228515625 60.2049446105957 L 523.8493041992188 82.134765625 L 547.772705078125 71.16985321044922" stroke-linejoin="bevel" stroke-miterlimit="10" stroke-width="0.5" clip-path="url(#VwRkLncoFrus)"/><path fill="none" stroke="rgb(128,128,128)" paint-order="fill" d="M 93.2272720336914 69.17623901367188 L 117.15071868896484 70.17304992675781 L 141.07415771484375 72.16666412353516 L 164.9976043701172 68.17942810058594 L 188.92105102539062 71.16985321044922 L 212.84449768066406 81.1379623413086 L 236.7679443359375 82.134765625 L 260.6913757324219 54.224082946777344 L 284.6148376464844 71.16985321044922 L 308.53826904296875 86.12200927734375" stroke-opacity="0.7490196078431373" stroke-linejoin="bevel" stroke-miterlimit="10" clip-path="url(#AxJIvmbkxkDT)"/><path fill="none" stroke="grey" paint-order="fill" d="M 308.53826904296875 86.12200927734375 L 332.46173095703125 76.1539077758789 L 356.3851623535156 66.18580627441406 L 380.3086242675781 75.15709686279297 L 404.2320556640625 85.12519836425781 L 428.155517578125 83.13157653808594 L 452.0789489746094 76.1539077758789 L 476.00238037109375 66.18580627441406 L 499.92584228515625 82.134765625 L 523.8493041992188 79.14434051513672 L 547.772705078125 92.10286712646484" stroke-linejoin="bevel" stroke-miterlimit="10" stroke-width="0.5" clip-path="url(#dpmEeDLBsFup)"/><path fill="none" stroke="grey" paint-order="fill" d="M 308.53826904296875 86.12200927734375 L 332.46173095703125 71.16985321044922 L 356.3851623535156 61.20175552368164 L 380.3086242675781 89.11244201660156 L 404.2320556640625 66.18580627441406 L 428.155517578125 92.10286712646484 L 452.0789489746094 82.134765625 L 476.00238037109375 82.134765625 L 499.92584228515625 60.2049446105957 L 523.8493041992188 76.1539077758789 L 547.772705078125 74.16028594970703" stroke-linejoin="bevel" stroke-miterlimit="10" stroke-width="0.5" clip-path="url(#QuXgqkWMfKhQ)"/><path fill="none" stroke="rgb(128,128,128)" paint-order="fill" d="M 93.2272720336914 55.22089385986328 L 117.15071868896484 84.12838745117188 L 141.07415771484375 58.21132278442383 L 164.9976043701172 77.15071868896484 L 188.92105102539062 91.10606384277344 L 212.84449768066406 71.16985321044922 L 236.7679443359375 78.14752960205078 L 260.6913757324219 69.17623901367188 L 284.6148376464844 86.12200927734375 L 308.53826904296875 84.12838745117188" stroke-opacity="0.7490196078431373" stroke-linejoin="bevel" stroke-miterlimit="10" clip-path="url(#LTICwlVuTDpe)"/><path fill="none" stroke="grey" paint-order="fill" d="M 308.53826904296875 84.12838745117188 L 332.46173095703125 76.1539077758789 L 356.3851623535156 80.14115142822266 L 380.3086242675781 86.12200927734375 L 404.2320556640625 82.134765625 L 428.155517578125 64.19218444824219 L 452.0789489746094 71.16985321044922 L 476.00238037109375 68.17942810058594 L 499.92584228515625 73.1634750366211 L 523.8493041992188 74.16028594970703 L 547.772705078125 74.16028594970703" stroke-linejoin="bevel" stroke-miterlimit="10" stroke-width="0.5" clip-path="url(#aheqbLQnTUkU)"/><path fill="none" stroke="grey" paint-order="fill" d="M 308.53826904296875 84.12838745117188 L 332.46173095703125 77.15071868896484 L 356.3851623535156 53.227272033691406 L 380.3086242675781 76.1539077758789 L 404.2320556640625 88.11563110351562 L 428.155517578125 82.134765625 L 452.0789489746094 80.14115142822266 L 476.00238037109375 90.1092529296875 L 499.92584228515625 78.14752960205078 L 523.8493041992188 74.16028594970703 L 547.772705078125 70.17304992675781" stroke-linejoin="bevel" stroke-miterlimit="10" stroke-width="0.5" clip-path="url(#RFvfBNeXzLGW)"/><path fill="none" stroke="rgb(128,128,128)" paint-order="fill" d="M 93.2272720336914 70.17304992675781 L 117.15071868896484 88.11563110351562 L 141.07415771484375 68.17942810058594 L 164.9976043701172 62.19856643676758 L 188.92105102539062 69.17623901367188 L 212.84449768066406 97.08692169189453 L 236.7679443359375 81.1379623413086 L 260.6913757324219 73.1634750366211 L 284.6148376464844 70.17304992675781 L 308.53826904296875 68.17942810058594" stroke-opacity="0.7490196078431373" stroke-linejoin="bevel" stroke-miterlimit="10" clip-path="url(#pypNxCpRZfQd)"/><path fill="none" stroke="grey" paint-order="fill" d="M 308.53826904296875 68.17942810058594 L 332.46173095703125 77.15071868896484 L 356.3851623535156 87.11882019042969 L 380.3086242675781 70.17304992675781 L 404.2320556640625 79.14434051513672 L 428.155517578125 87.11882019042969 L 452.0789489746094 80.14115142822266 L 476.00238037109375 64.19218444824219 L 499.92584228515625 66.18580627441406 L 523.8493041992188 91.10606384277344 L 547.772705078125 75.15709686279297" stroke-linejoin="bevel" stroke-miterlimit="10" stroke-width="0.5" clip-path="url(#UCmpHBQtHJyL)"/><path fill="none" stroke="grey" paint-order="fill" d="M 308.53826904296875 68.17942810058594 L 332.46173095703125 63.19537353515625 L 356.3851623535156 73.1634750366211 L 380.3086242675781 77.15071868896484 L 404.2320556640625 69.17623901367188 L 428.155517578125 87.11882019042969 L 452.0789489746094 78.14752960205078 L 476.00238037109375 81.1379623413086 L 499.92584228515625 87.11882019042969 L 523.8493041992188 58.21132278442383 L 547.772705078125 77.15071868896484" stroke-linejoin="bevel" stroke-miterlimit="10" stroke-width="0.5" clip-path="url(#XUhQESwiqWlw)"/><path fill="none" stroke="black" paint-order="fill" d="M 70.5 280.5 L 570.5 280.5" stroke-linejoin="bevel" stroke-miterlimit="10"/><path fill="none" stroke="black" paint-order="fill" d="M 93.5 286.5 L 93.5 278.5 M 212.5 286.5 L 212.5 278.5 M 332.5 286.5 L 332.5 278.5 M 452.5 286.5 L 452.5 278.5" stroke-linejoin="bevel" stroke-miterlimit="10"/><path fill="none" stroke="black" paint-order="fill" d="M 93.5 284.5 L 93.5 280.5 M 117.5 284.5 L 117.5 280.5 M 141.5 284.5 L 141.5 280.5 M 164.5 284.5 L 164.5 280.5 M 188.5 284.5 L 188.5 280.5 M 212.5 284.5 L 212.5 280.5 M 236.5 284.5 L 236.5 280.5 M 260.5 284.5 L 260.5 280.5 M 284.5 284.5 L 284.5 280.5 M 308.5 284.5 L 308.5 280.5 M 332.5 284.5 L 332.5 280.5 M 356.5 284.5 L 356.5 280.5 M 380.5 284.5 L 380.5 280.5 M 404.5 284.5 L 404.5 280.5 M 428.5 284.5 L 428.5 280.5 M 452.5 284.5 L 452.5 280.5 M 476.5 284.5 L 476.5 280.5 M 499.5 284.5 L 499.5 280.5 M 523.5 284.5 L 523.5 280.5 M 547.5 284.5 L 547.5 280.5" stroke-linejoin="bevel" stroke-miterlimit="10"/><text fill="#444444" stroke="none" font-family="helvetica" font-size="10pt" font-style="normal" font-weight="normal" text-decoration="normal" x="77.82727241516113" y="300.59368896484375" text-anchor="start" dominant-baseline="alphabetic" transform="matrix(1, 0, 0, 1, 0.5, 0.5)">2025</text><text fill="none" stroke="rgb(0,0,0)" font-family="helvetica" font-size="10pt" font-style="normal" font-weight="normal" text-decoration="normal" x="77.82727241516113" y="300.59368896484375" text-anchor="start" dominant-baseline="alphabetic" transform="matrix(1, 0, 0, 1, 0.5, 0.5)" stroke-opacity="0" stroke-linejoin="bevel" stroke-miterlimit="10">2025</text><text fill="#444444" stroke="none" font-family="helvetica" font-size="10pt" font-style="normal" font-weight="normal" text-decoration="normal" x="197.4444980621338" y="300.59368896484375" text-anchor="start" dominant-baseline="alphabetic" transform="matrix(1, 0, 0, 1, 0.5, 0.5)">2030</text><text fill="none" stroke="rgb(0,0,0)" font-family="helvetica" font-size="10pt" font-style="normal" font-weight="normal" text-decoration="normal" x="197.4444980621338" y="300.59368896484375" text-anchor="start" dominant-baseline="alphabetic" transform="matrix(1, 0, 0, 1, 0.5, 0.5)" stroke-opacity="0" stroke-linejoin="bevel" stroke-miterlimit="10">2030</text><text fill="#444444" stroke="none" font-family="helvetica" font-size="10pt" font-style="normal" font-weight="normal" text-decoration="normal" x="317.061731338501" y="300.59368896484375" text-anchor="start" dominant-baseline="alphabetic" transform="matrix(1, 0, 0, 1, 0.5, 0.5)">2035</text><text fill="none" stroke="rgb(0,0,0)" font-family="helvetica" font-size="10pt" font-style="normal" font-weight="normal" text-decoration="normal" x="317.061731338501" y="300.59368896484375" text-anchor="start" dominant-baseline="alphabetic" transform="matrix(1, 0, 0, 1, 0.5, 0.5)" stroke-opacity="0" stroke-linejoin="bevel" stroke-miterlimit="10">2035</text><text fill="#444444" stroke="none" font-family="helvetica" font-size="10pt" font-style="normal" font-weight="normal" text-decoration="normal" x="436.6789493560791" y="300.59368896484375" text-anchor="start" dominant-baseline="alphabetic" transform="matrix(1, 0, 0, 1, 0.5, 0.5)">2040</text><text fill="none" stroke="rgb(0,0,0)" font-family="helvetica" font-size="10pt" font-style="normal" font-weight="normal" text-decoration="normal" x="436.6789493560791" y="300.59368896484375" text-anchor="start" dominant-baseline="alphabetic" transform="matrix(1, 0, 0, 1, 0.5, 0.5)" stroke-opacity="0" stroke-linejoin="bevel" stroke-miterlimit="10">2040</text><text fill="#444444" stroke="none" font-family="helvetica" font-size="12pt" font-style="normal" font-weight="normal" text-decoration="normal" x="303.8333339691162" y="321.59368896484375" text-anchor="start" dominant-baseline="alphabetic" transform="matrix(1, 0, 0, 1, 0.5, 0.5)">Year</text><text fill="none" stroke="rgb(0,0,0)" font-family="helvetica" font-size="12pt" font-style="normal" font-weight="normal" text-decoration="normal" x="303.8333339691162" y="321.59368896484375" text-anchor="start" dominant-baseline="alphabetic" transform="matrix(1, 0, 0, 1, 0.5, 0.5)" stroke-opacity="0" stroke-linejoin="bevel" stroke-miterlimit="10">Year</text><path fill="none" stroke="black" paint-order="fill" d="M 70.5 280.5 L 70.5 30.5" stroke-linejoin="bevel" stroke-miterlimit="10"/><path fill="none" stroke="black" paint-order="fill" d="M 64.5 280.5 L 72.5 280.5 M 64.5 230.5 L 72.5 230.5 M 64.5 180.5 L 72.5 180.5 M 64.5 130.5 L 72.5 130.5 M 64.5 81.5 L 72.5 81.5 M 64.5 31.5 L 72.5 31.5" stroke-linejoin="bevel" stroke-miterlimit="10"/><path fill="none" stroke="black" paint-order="fill" d="M 66.5 280.5 L 70.5 280.5 M 66.5 270.5 L 70.5 270.5 M 66.5 260.5 L 70.5 260.5 M 66.5 250.5 L 70.5 250.5 M 66.5 240.5 L 70.5 240.5 M 66.5 230.5 L 70.5 230.5 M 66.5 220.5 L 70.5 220.5 M 66.5 210.5 L 70.5 210.5 M 66.5 200.5 L 70.5 200.5 M 66.5 190.5 L 70.5 190.5 M 66.5 180.5 L 70.5 180.5 M 66.5 170.5 L 70.5 170.5 M 66.5 160.5 L 70.5 160.5 M 66.5 150.5 L 70.5 150.5 M 66.5 140.5 L 70.5 140.5 M 66.5 130.5 L 70.5 130.5 M 66.5 121.5 L 70.5 121.5 M 66.5 111.5 L 70.5 111.5 M 66.5 101.5 L 70.5 101.5 M 66.5 91.5 L 70.5 91.5 M 66.5 81.5 L 70.5 81.5 M 66.5 71.5 L 70.5 71.5 M 66.5 61.5 L 70.5 61.5 M 66.5 51.5 L 70.5 51.5 M 66.5 41.5 L 70.5 41.5 M 66.5 31.5 L 70.5 31.5" stroke-linejoin="bevel" stroke-miterlimit="10"/><text fill="#444444" stroke="none" font-family="helvetica" font-size="10pt" font-style="normal" font-weight="normal" text-decoration="normal" x="51.55000019073486" y="284.7968444824219" text-anchor="start" dominant-baseline="alphabetic" transform="matrix(1, 0, 0, 1, 0.5, 0.5)">0</text><text fill="none" stroke="rgb(0,0,0)" font-family="helvetica" font-size="10pt" font-style="normal" font-weight="normal" text-decoration="normal" x="51.55000019073486" y="284.7968444824219" text-anchor="start" dominant-baseline="alphabetic" transform="matrix(1, 0, 0, 1, 0.5, 0.5)" stroke-opacity="0" stroke-linejoin="bevel" stroke-miterlimit="10">0</text><text fill="#444444" stroke="none" font-family="helvetica" font-size="10pt" font-style="normal" font-weight="normal" text-decoration="normal" x="44.10000038146973" y="234.95632934570312" text-anchor="start" dominant-baseline="alphabetic" transform="matrix(1, 0, 0, 1, 0.5, 0.5)">50</text><text fill="none" stroke="rgb(0,0,0)" font-family="helvetica" font-size="10pt" font-style="normal" font-weight="normal" text-decoration="normal" x="44.10000038146973" y="234.95632934570312" text-anchor="start" dominant-baseline="alphabetic" transform="matrix(1, 0, 0, 1, 0.5, 0.5)" stroke-opacity="0" stroke-linejoin="bevel" stroke-miterlimit="10">50</text><text fill="#444444" stroke="none" font-family="helvetica" font-size="10pt" font-style="normal" font-weight="normal" text-decoration="normal" x="36.64999961853027" y="185.11582946777344" text-anchor="start" dominant-baseline="alphabetic" transform="matrix(1, 0, 0, 1, 0.5, 0.5)">100</text><text fill="none" stroke="rgb(0,0,0)" font-family="helvetica" font-size="10pt" font-style="normal" font-weight="normal" text-decoration="normal" x="36.64999961853027" y="185.11582946777344" text-anchor="start" dominant-baseline="alphabetic" transform="matrix(1, 0, 0, 1, 0.5, 0.5)" stroke-opacity="0" stroke-linejoin="bevel" stroke-miterlimit="10">100</text><text fill="#444444" stroke="none" font-family="helvetica" font-size="10pt" font-style="normal" font-weight="normal" text-decoration="normal" x="36.64999961853027" y="135.2753143310547" text-anchor="start" dominant-baseline="alphabetic" transform="matrix(1, 0, 0, 1, 0.5, 0.5)">150</text><text fill="none" stroke="rgb(0,0,0)" font-family="helvetica" font-size="10pt" font-style="normal" font-weight="normal" text-decoration="normal" x="36.64999961853027" y="135.2753143310547" text-anchor="start" dominant-baseline="alphabetic" transform="matrix(1, 0, 0, 1, 0.5, 0.5)" stroke-opacity="0" stroke-linejoin="bevel" stroke-miterlimit="10">150</text><text fill="#444444" stroke="none" font-family="helvetica" font-size="10pt" font-style="normal" font-weight="normal" text-decoration="normal" x="36.64999961853027" y="85.43480682373047" text-anchor="start" dominant-baseline="alphabetic" transform="matrix(1, 0, 0, 1, 0.5, 0.5)">200</text><text fill="none" stroke="rgb(0,0,0)" font-family="helvetica" font-size="10pt" font-style="normal" font-weight="normal" text-decoration="normal" x="36.64999961853027" y="85.43480682373047" text-anchor="start" dominant-baseline="alphabetic" transform="matrix(1, 0, 0, 1, 0.5, 0.5)" stroke-opacity="0" stroke-linejoin="bevel" stroke-miterlimit="10">200</text><text fill="#444444" stroke="none" font-family="helvetica" font-size="10pt" font-style="normal" font-weight="normal" text-decoration="normal" x="36.64999961853027" y="35.59429359436035" text-anchor="start" dominant-baseline="alphabetic" transform="matrix(1, 0, 0, 1, 0.5, 0.5)">250</text><text fill="none" stroke="rgb(0,0,0)" font-family="helvetica" font-size="10pt" font-style="normal" font-weight="normal" text-decoration="normal" x="36.64999961853027" y="35.59429359436035" text-anchor="start" dominant-baseline="alphabetic" transform="matrix(1, 0, 0, 1, 0.5, 0.5)" stroke-opacity="0" stroke-linejoin="bevel" stroke-miterlimit="10">250</text><text fill="#444444" stroke="none" font-family="helvetica" font-size="12pt" font-style="normal" font-weight="normal" text-decoration="normal" x="-78.07499885559082" y="151" text-anchor="start" dominant-baseline="alphabetic" transform="matrix(6.123233995736766e-17, -1, 1, 6.123233995736766e-17, -125.85000038146973, 184.14999961853027)">Days suitable for transmission</text><text fill="none" stroke="rgb(0,0,0)" font-family="helvetica" font-size="12pt" font-style="normal" font-weight="normal" text-decoration="normal" x="-78.07499885559082" y="151" text-anchor="start" dominant-baseline="alphabetic" transform="matrix(6.123233995736766e-17, -1, 1, 6.123233995736766e-17, -125.85000038146973, 184.14999961853027)" stroke-opacity="0" stroke-linejoin="bevel" stroke-miterlimit="10">Days suitable for transmission</text><path fill="rgb(255,255,255)" stroke="rgb(229,229,229)" paint-order="fill" d="M 475.183349609375 205.5 L 560.5000152587891 205.5 L 560.5000152587891 270.5 L 475.183349609375 270.5 L 475.183349609375 205.5 Z" fill-opacity="0.9490196078431372" clip-path="url(#kNmPPnPTBbbm)" stroke-opacity="0.5019607843137255" stroke-linejoin="bevel" stroke-miterlimit="10"/><g clip-path="url(#kNmPPnPTBbbm)"><g transform="matrix(1, 0, 0, 1, 485.683349609375, 216)"><path fill="none" stroke="#30a2da" paint-order="fill" d="M 0.5 10.5 L 20.5 10.5" stroke-linejoin="bevel" stroke-miterlimit="10" stroke-width="2"/></g></g><g clip-path="url(#kNmPPnPTBbbm)"><text fill="#444444" stroke="none" font-family="helvetica" font-size="13px" font-style="normal" font-weight="normal" text-decoration="normal" x="510.683349609375" y="230" text-anchor="start" dominant-baseline="alphabetic" transform="matrix(1, 0, 0, 1, 0.5, 0.5)">ID 001</text></g><g clip-path="url(#kNmPPnPTBbbm)"><text fill="none" stroke="rgb(0,0,0)" font-family="helvetica" font-size="13px" font-style="normal" font-weight="normal" text-decoration="normal" x="510.683349609375" y="230" text-anchor="start" dominant-baseline="alphabetic" transform="matrix(1, 0, 0, 1, 0.5, 0.5)" stroke-opacity="0" stroke-linejoin="bevel" stroke-miterlimit="10">ID 001</text></g><g clip-path="url(#kNmPPnPTBbbm)"><g transform="matrix(1, 0, 0, 1, 485.683349609375, 239)"><path fill="none" stroke="#fc4f30" paint-order="fill" d="M 0.5 10.5 L 20.5 10.5" stroke-linejoin="bevel" stroke-miterlimit="10" stroke-width="2"/></g></g><g clip-path="url(#kNmPPnPTBbbm)"><text fill="#444444" stroke="none" font-family="helvetica" font-size="13px" font-style="normal" font-weight="normal" text-decoration="normal" x="510.683349609375" y="253" text-anchor="start" dominant-baseline="alphabetic" transform="matrix(1, 0, 0, 1, 0.5, 0.5)">ID 006</text></g><g clip-path="url(#kNmPPnPTBbbm)"><text fill="none" stroke="rgb(0,0,0)" font-family="helvetica" font-size="13px" font-style="normal" font-weight="normal" text-decoration="normal" x="510.683349609375" y="253" text-anchor="start" dominant-baseline="alphabetic" transform="matrix(1, 0, 0, 1, 0.5, 0.5)" stroke-opacity="0" stroke-linejoin="bevel" stroke-miterlimit="10">ID 006</text></g><text fill="black" stroke="none" font-family="helvetica" font-size="14pt" font-style="normal" font-weight="normal" text-decoration="normal" x="0" y="15" text-anchor="start" dominant-baseline="alphabetic" transform="matrix(1, 0, 0, 1, 5.5, 5.5)">F. Tokyo</text><text fill="none" stroke="rgb(0,0,0)" font-family="helvetica" font-size="14pt" font-style="normal" font-weight="normal" text-decoration="normal" x="0" y="15" text-anchor="start" dominant-baseline="alphabetic" transform="matrix(1, 0, 0, 1, 5.5, 5.5)" stroke-opacity="0" stroke-linejoin="bevel" stroke-miterlimit="10">F. Tokyo</text></svg>