<svg version="1.1" xmlns="http://www.w3.org/2000/svg" width="600" height="334"><defs><clipPath id="arkEJFioBGbH"><path fill="none" stroke="none" d="M 70.5 33.5 L 570.5 33.5 L 570.5 283.5 L 70.5 283.5 L 70.5 33.5 Z"/></clipPath><clipPath id="PFttmgBCnFhl"><path fill="none" stroke="none" d="M 70.5 33.5 L 570.5 33.5 L 570.5 283.5 L 70.5 283.5 L 70.5 33.5 Z"/></clipPath><clipPath id="UdbMxdlRHSiA"><path fill="none" stroke="none" d="M 70.5 33.5 L 570.5 33.5 L 570.5 283.5 L 70.5 283.5 L 70.5 33.5 Z"/></clipPath><clipPath id="VUaKDlqzPzfh"><path fill="none" stroke="none" d="M 70.5 33.5 L 570.5 33.5 L 570.5 283.5 L 70.5 283.5 L 70.5 33.5 Z"/></clipPath><clipPath id="EhedisqhqRIM"><path fill="none" stroke="none" d="M 70.5 33.5 L 570.5 33.5 L 570.5 283.5 L 70.5 283.5 L 70.5 33.5 Z"/></clipPath><clipPath id="yoWrHCknpnzV"><path fill="none" stroke="none" d="M 70.5 33.5 L 570.5 33.5 L 570.5 283.5 L 70.5 283.5 L 70.5 33.5 Z"/></clipPath><clipPath id="hLRQvNeHUkGN"><path fill="none" stroke="none" d="M 70.5 33.5 L 570.5 33.5 L 570.5 283.5 L 70.5 283.5 L 70.5 33.5 Z"/></clipPath><clipPath id="wvNBolNedExV"><path fill="none" stroke="none" d="M 70.5 33.5 L 570.5 33.5 L 570.5 283.5 L 70.5 283.5 L 70.5 33.5 Z"/></clipPath><clipPath id="PsvhUDTNJZVF"><path fill="none" stroke="none" d="M 70.5 33.5 L 570.5 33.5 L 570.5 283.5 L 70.5 283.5 L 70.5 33.5 Z"/></clipPath><clipPath id="IeoUTHxGdLWu"><path fill="none" stroke="none" d="M 70.5 33.5 L 570.5 33.5 L 570.5 283.5 L 70.5 283.5 L 70.5 33.5 Z"/></clipPath><clipPath id="rKMfdOwJheDO"><path fill="none" stroke="none" d="M 70.5 33.5 L 570.5 33.5 L 570.5 283.5 L 70.5 283.5 L 70.5 33.5 Z"/></clipPath><clipPath id="smkCpCzfFcbw"><path fill="none" stroke="none" d="M 70.5 33.5 L 570.5 33.5 L 570.5 283.5 L 70.5 283.5 L 70.5 33.5 Z"/></clipPath><clipPath id="aPkSODJhHtCa"><path fill="none" stroke="none" d="M 70.5 33.5 L 570.5 33.5 L 570.5 283.5 L 70.5 283.5 L 70.5 33.5 Z"/></clipPath><clipPath id="bRxCNHEktTqJ"><path fill="none" stroke="none" d="M 70.5 33.5 L 570.5 33.5 L 570.5 283.5 L 70.5 283.5 L 70.5 33.5 Z"/></clipPath><clipPath id="LiVdMgKxmIzf"><path fill="none" stroke="none" d="M 70.5 33.5 L 570.5 33.5 L 570.5 283.5 L 70.5 283.5 L 70.5 33.5 Z"/></clipPath><clipPath id="biGSSaDXJNXz"><path fill="none" stroke="none" d="M 70.5 33.5 L 570.5 33.5 L 570.5 283.5 L 70.5 283.5 L 70.5 33.5 Z"/></clipPath><clipPath id="vpsgTGAsolkJ"><path fill="none" stroke="none" d="M 70.5 33.5 L 570.5 33.5 L 570.5 283.5 L 70.5 283.5 L 70.5 33.5 Z"/></clipPath><clipPath id="vtqMlxcfDkHD"><path fill="none" stroke="none" d="M 70.5 33.5 L 570.5 33.5 L 570.5 283.5 L 70.5 283.5 L 70.5 33.5 Z"/></clipPath><clipPath id="xvacgiUbaiwy"><path fill="none" stroke="none" d="M 70.5 33.5 L 570.5 33.5 L 570.5 283.5 L 70.5 283.5 L 70.5 33.5 Z"/></clipPath><clipPath id="AxDRdrEVyLXT"><path fill="none" stroke="none" d="M 70.5 33.5 L 570.5 33.5 L 570.5 283.5 L 70.5 283.5 L 70.5 33.5 Z"/></clipPath><clipPath id="BvRRzBQDTfUC"><path fill="none" stroke="none" d="M 70.5 33.5 L 570.5 33.5 L 570.5 283.5 L 70.5 283.5 L 70.5 33.5 Z"/></clipPath><clipPath id="GTrvvufmnzcy"><path fill="none" stroke="none" d="M 70.5 33.5 L 570.5 33.5 L 570.5 283.5 L 70.5 283.5 L 70.5 33.5 Z"/></clipPath><clipPath id="fQchgWaWLOoy"><path fill="none" stroke="none" d="M 70.5 33.5 L 570.5 33.5 L 570.5 283.5 L 70.5 283.5 L 70.5 33.5 Z"/></clipPath></defs><path fill="none" stroke="#e5e5e5" paint-order="fill" d="M 70.5 33.5 L 570.5 33.5 L 570.5 283.5 L 70.5 283.5 L 70.5 33.5 Z" stroke-linejoin="bevel" stroke-miterlimit="10"/><path fill="none" stroke="black" paint-order="fill" d="M 332.46172248803487 33.5 L 332.46172248803487 283.5" stroke-linejoin="bevel" stroke-miterlimit="10" stroke-width="3" stroke-dasharray="6" clip-path="url(#UdbMxdlRHSiA)"/><path fill="none" stroke="#9467bd" paint-order="fill" d="M 93.2272720336914 114.40908813476562 L 117.15071868896484 105.31818389892578 L 141.07415771484375 156.22727966308594 L 164.9976043701172 141.68182373046875 L 188.92105102539062 94.40908813476562 L 212.84449768066406 125.31818389892578 L 236.7679443359375 185.31817626953125 L 260.6913757324219 119.86363983154297 L 284.6148376464844 168.9545440673828 L 308.53826904296875 139.86363220214844" stroke-linejoin="bevel" stroke-miterlimit="10" stroke-width="2" clip-path="url(#VUaKDlqzPzfh)"/><path fill="none" stroke="#9467bd" paint-order="fill" d="M 93.2272720336914 114.40908813476562 L 117.15071868896484 105.31818389892578 L 141.07415771484375 156.22727966308594 L 164.9976043701172 141.68182373046875 L 188.92105102539062 94.40908813476562 L 212.84449768066406 125.31818389892578 L 236.7679443359375 185.31817626953125 L 260.6913757324219 119.86363983154297 L 284.6148376464844 168.9545440673828 L 308.53826904296875 139.86363220214844" stroke-linejoin="bevel" stroke-miterlimit="10" stroke-width="2" stroke-dasharray="6" clip-path="url(#EhedisqhqRIM)"/><path fill="none" stroke="#30a2da" paint-order="fill" d="M 308.53826904296875 139.86363220214844 L 332.46173095703125 101.68181610107422 L 356.3851623535156 88.95454406738281 L 380.3086242675781 101.68181610107422 L 404.2320556640625 110.7727279663086 L 428.155517578125 103.5 L 452.0789489746094 152.59091186523438 L 476.00238037109375 187.13636779785156 L 499.92584228515625 125.31818389892578 L 523.8493041992188 143.5 L 547.772705078125 199.86363220214844" stroke-linejoin="bevel" stroke-miterlimit="10" stroke-width="2" clip-path="url(#yoWrHCknpnzV)"/><path fill="none" stroke="#30a2da" paint-order="fill" d="M 332.46173095703125 86.17768859863281 L 356.3851623535156 96.24931335449219 L 380.3086242675781 106.32093811035156 L 404.2320556640625 116.39256286621094 L 428.155517578125 126.46418762207031 L 452.0789489746094 136.5358123779297 L 476.00238037109375 146.60743713378906 L 499.92584228515625 156.67906188964844 L 523.8493041992188 166.7506866455078 L 547.772705078125 176.8223114013672" stroke-linejoin="bevel" stroke-miterlimit="10" stroke-width="2" stroke-dasharray="6" clip-path="url(#hLRQvNeHUkGN)"/><path fill="none" stroke="#fc4f30" paint-order="fill" d="M 308.53826904296875 139.86363220214844 L 332.46173095703125 92.59091186523438 L 356.3851623535156 203.5 L 380.3086242675781 179.86363220214844 L 404.2320556640625 143.5 L 428.155517578125 143.5 L 452.0789489746094 139.86363220214844 L 476.00238037109375 158.0454559326172 L 499.92584228515625 132.59091186523438 L 523.8493041992188 158.0454559326172 L 547.772705078125 94.40908813476562" stroke-linejoin="bevel" stroke-miterlimit="10" stroke-width="2" clip-path="url(#wvNBolNedExV)"/><path fill="none" stroke="#fc4f30" paint-order="fill" d="M 332.46173095703125 158.1776885986328 L 356.3851623535156 155.1584014892578 L 380.3086242675781 152.1391143798828 L 404.2320556640625 149.1198272705078 L 428.155517578125 146.10055541992188 L 452.0789489746094 143.08126831054688 L 476.00238037109375 140.06198120117188 L 499.92584228515625 137.04269409179688 L 523.8493041992188 134.02342224121094 L 547.772705078125 131.00413513183594" stroke-linejoin="bevel" stroke-miterlimit="10" stroke-width="2" stroke-dasharray="6" clip-path="url(#PsvhUDTNJZVF)"/><path fill="none" stroke="rgb(128,128,128)" paint-order="fill" d="M 93.2272720336914 219.86363220214844 L 117.15071868896484 114.40908813476562 L 141.07415771484375 78.04545593261719 L 164.9976043701172 110.7727279663086 L 188.92105102539062 110.7727279663086 L 212.84449768066406 112.59091186523438 L 236.7679443359375 127.13636016845703 L 260.6913757324219 116.2272720336914 L 284.6148376464844 110.7727279663086 L 308.53826904296875 74.40908813476562" stroke-opacity="0.7490196078431373" stroke-linejoin="bevel" stroke-miterlimit="10" clip-path="url(#IeoUTHxGdLWu)"/><path fill="none" stroke="grey" paint-order="fill" d="M 308.53826904296875 74.40908813476562 L 332.46173095703125 88.95454406738281 L 356.3851623535156 108.95454406738281 L 380.3086242675781 85.31818389892578 L 404.2320556640625 103.5 L 428.155517578125 92.59091186523438 L 452.0789489746094 92.59091186523438 L 476.00238037109375 127.13636016845703 L 499.92584228515625 128.9545440673828 L 523.8493041992188 170.77272033691406 L 547.772705078125 152.59091186523438" stroke-linejoin="bevel" stroke-miterlimit="10" stroke-width="0.5" clip-path="url(#rKMfdOwJheDO)"/><path fill="none" stroke="grey" paint-order="fill" d="M 308.53826904296875 74.40908813476562 L 332.46173095703125 101.68181610107422 L 356.3851623535156 128.9545440673828 L 380.3086242675781 136.22727966308594 L 404.2320556640625 172.59091186523438 L 428.155517578125 132.59091186523438 L 452.0789489746094 92.59091186523438 L 476.00238037109375 134.40908813476562 L 499.92584228515625 118.04545593261719 L 523.8493041992188 148.9545440673828 L 547.772705078125 108.95454406738281" stroke-linejoin="bevel" stroke-miterlimit="10" stroke-width="0.5" clip-path="url(#smkCpCzfFcbw)"/><path fill="none" stroke="rgb(128,128,128)" paint-order="fill" d="M 93.2272720336914 128.9545440673828 L 117.15071868896484 127.13636016845703 L 141.07415771484375 92.59091186523438 L 164.9976043701172 108.95454406738281 L 188.92105102539062 132.59091186523438 L 212.84449768066406 87.13636016845703 L 236.7679443359375 87.13636016845703 L 260.6913757324219 101.68181610107422 L 284.6148376464844 136.22727966308594 L 308.53826904296875 108.95454406738281" stroke-opacity="0.7490196078431373" stroke-linejoin="bevel" stroke-miterlimit="10" clip-path="url(#aPkSODJhHtCa)"/><path fill="none" stroke="grey" paint-order="fill" d="M 308.53826904296875 108.95454406738281 L 332.46173095703125 108.95454406738281 L 356.3851623535156 105.31818389892578 L 380.3086242675781 88.95454406738281 L 404.2320556640625 112.59091186523438 L 428.155517578125 103.5 L 452.0789489746094 87.13636016845703 L 476.00238037109375 56.227272033691406 L 499.92584228515625 112.59091186523438 L 523.8493041992188 90.7727279663086 L 547.772705078125 132.59091186523438" stroke-linejoin="bevel" stroke-miterlimit="10" stroke-width="0.5" clip-path="url(#bRxCNHEktTqJ)"/><path fill="none" stroke="grey" paint-order="fill" d="M 308.53826904296875 108.95454406738281 L 332.46173095703125 70.7727279663086 L 356.3851623535156 123.5 L 380.3086242675781 132.59091186523438 L 404.2320556640625 108.95454406738281 L 428.155517578125 121.68181610107422 L 452.0789489746094 165.31817626953125 L 476.00238037109375 98.04545593261719 L 499.92584228515625 150.77272033691406 L 523.8493041992188 105.31818389892578 L 547.772705078125 99.86363983154297" stroke-linejoin="bevel" stroke-miterlimit="10" stroke-width="0.5" clip-path="url(#LiVdMgKxmIzf)"/><path fill="none" stroke="rgb(128,128,128)" paint-order="fill" d="M 93.2272720336914 132.59091186523438 L 117.15071868896484 114.40908813476562 L 141.07415771484375 87.13636016845703 L 164.9976043701172 116.2272720336914 L 188.92105102539062 179.86363220214844 L 212.84449768066406 107.13636016845703 L 236.7679443359375 168.9545440673828 L 260.6913757324219 68.95454406738281 L 284.6148376464844 118.04545593261719 L 308.53826904296875 83.5" stroke-opacity="0.7490196078431373" stroke-linejoin="bevel" stroke-miterlimit="10" clip-path="url(#biGSSaDXJNXz)"/><path fill="none" stroke="grey" paint-order="fill" d="M 308.53826904296875 83.5 L 332.46173095703125 130.77272033691406 L 356.3851623535156 96.2272720336914 L 380.3086242675781 145.31817626953125 L 404.2320556640625 108.95454406738281 L 428.155517578125 154.40908813476562 L 452.0789489746094 94.40908813476562 L 476.00238037109375 145.31817626953125 L 499.92584228515625 118.04545593261719 L 523.8493041992188 156.22727966308594 L 547.772705078125 130.77272033691406" stroke-linejoin="bevel" stroke-miterlimit="10" stroke-width="0.5" clip-path="url(#vpsgTGAsolkJ)"/><path fill="none" stroke="grey" paint-order="fill" d="M 308.53826904296875 83.5 L 332.46173095703125 127.13636016845703 L 356.3851623535156 108.95454406738281 L 380.3086242675781 101.68181610107422 L 404.2320556640625 134.40908813476562 L 428.155517578125 145.31817626953125 L 452.0789489746094 108.95454406738281 L 476.00238037109375 128.9545440673828 L 499.92584228515625 125.31818389892578 L 523.8493041992188 121.68181610107422 L 547.772705078125 118.04545593261719" stroke-linejoin="bevel" stroke-miterlimit="10" stroke-width="0.5" clip-path="url(#vtqMlxcfDkHD)"/><path fill="none" stroke="rgb(128,128,128)" paint-order="fill" d="M 93.2272720336914 183.5 L 117.15071868896484 121.68181610107422 L 141.07415771484375 136.22727966308594 L 164.9976043701172 96.2272720336914 L 188.92105102539062 150.77272033691406 L 212.84449768066406 134.40908813476562 L 236.7679443359375 112.59091186523438 L 260.6913757324219 72.59091186523438 L 284.6148376464844 116.2272720336914 L 308.53826904296875 125.31818389892578" stroke-opacity="0.7490196078431373" stroke-linejoin="bevel" stroke-miterlimit="10" clip-path="url(#xvacgiUbaiwy)"/><path fill="none" stroke="grey" paint-order="fill" d="M 308.53826904296875 125.31818389892578 L 332.46173095703125 105.31818389892578 L 356.3851623535156 127.13636016845703 L 380.3086242675781 87.13636016845703 L 404.2320556640625 105.31818389892578 L 428.155517578125 128.9545440673828 L 452.0789489746094 154.40908813476562 L 476.00238037109375 158.0454559326172 L 499.92584228515625 128.9545440673828 L 523.8493041992188 128.9545440673828 L 547.772705078125 121.68181610107422" stroke-linejoin="bevel" stroke-miterlimit="10" stroke-width="0.5" clip-path="url(#AxDRdrEVyLXT)"/><path fill="none" stroke="grey" paint-order="fill" d="M 308.53826904296875 125.31818389892578 L 332.46173095703125 92.59091186523438 L 356.3851623535156 105.31818389892578 L 380.3086242675781 119.86363983154297 L 404.2320556640625 134.40908813476562 L 428.155517578125 132.59091186523438 L 452.0789489746094 103.5 L 476.00238037109375 156.22727966308594 L 499.92584228515625 159.86363220214844 L 523.8493041992188 107.13636016845703 L 547.772705078125 107.13636016845703" stroke-linejoin="bevel" stroke-miterlimit="10" stroke-width="0.5" clip-path="url(#BvRRzBQDTfUC)"/><path fill="none" stroke="black" paint-order="fill" d="M 70.5 283.5 L 570.5 283.5" stroke-linejoin="bevel" stroke-miterlimit="10"/><path fill="none" stroke="black" paint-order="fill" d="M 93.5 289.5 L 93.5 281.5 M 212.5 289.5 L 212.5 281.5 M 332.5 289.5 L 332.5 281.5 M 452.5 289.5 L 452.5 281.5" stroke-linejoin="bevel" stroke-miterlimit="10"/><path fill="none" stroke="black" paint-order="fill" d="M 93.5 287.5 L 93.5 283.5 M 117.5 287.5 L 117.5 283.5 M 141.5 287.5 L 141.5 283.5 M 164.5 287.5 L 164.5 283.5 M 188.5 287.5 L 188.5 283.5 M 212.5 287.5 L 212.5 283.5 M 236.5 287.5 L 236.5 283.5 M 260.5 287.5 L 260.5 283.5 M 284.5 287.5 L 284.5 283.5 M 308.5 287.5 L 308.5 283.5 M 332.5 287.5 L 332.5 283.5 M 356.5 287.5 L 356.5 283.5 M 380.5 287.5 L 380.5 283.5 M 404.5 287.5 L 404.5 283.5 M 428.5 287.5 L 428.5 283.5 M 452.5 287.5 L 452.5 283.5 M 476.5 287.5 L 476.5 283.5 M 499.5 287.5 L 499.5 283.5 M 523.5 287.5 L 523.5 283.5 M 547.5 287.5 L 547.5 283.5" stroke-linejoin="bevel" stroke-miterlimit="10"/><text fill="#444444" stroke="none" font-family="helvetica" font-size="10pt" font-style="normal" font-weight="normal" text-decoration="normal" x="79.36060523986816" y="304" text-anchor="start" dominant-baseline="alphabetic" transform="matrix(1, 0, 0, 1, 0.5, 0.5)">2025</text><text fill="none" stroke="rgb(0,0,0)" font-family="helvetica" font-size="10pt" font-style="normal" font-weight="normal" text-decoration="normal" x="79.36060523986816" y="304" text-anchor="start" dominant-baseline="alphabetic" transform="matrix(1, 0, 0, 1, 0.5, 0.5)" stroke-opacity="0" stroke-linejoin="bevel" stroke-miterlimit="10">2025</text><text fill="#444444" stroke="none" font-family="helvetica" font-size="10pt" font-style="normal" font-weight="normal" text-decoration="normal" x="198.97783088684082" y="304" text-anchor="start" dominant-baseline="alphabetic" transform="matrix(1, 0, 0, 1, 0.5, 0.5)">2030</text><text fill="none" stroke="rgb(0,0,0)" font-family="helvetica" font-size="10pt" font-style="normal" font-weight="normal" text-decoration="normal" x="198.97783088684082" y="304" text-anchor="start" dominant-baseline="alphabetic" transform="matrix(1, 0, 0, 1, 0.5, 0.5)" stroke-opacity="0" stroke-linejoin="bevel" stroke-miterlimit="10">2030</text><text fill="#444444" stroke="none" font-family="helvetica" font-size="10pt" font-style="normal" font-weight="normal" text-decoration="normal" x="318.595064163208" y="304" text-anchor="start" dominant-baseline="alphabetic" transform="matrix(1, 0, 0, 1, 0.5, 0.5)">2035</text><text fill="none" stroke="rgb(0,0,0)" font-family="helvetica" font-size="10pt" font-style="normal" font-weight="normal" text-decoration="normal" x="318.595064163208" y="304" text-anchor="start" dominant-baseline="alphabetic" transform="matrix(1, 0, 0, 1, 0.5, 0.5)" stroke-opacity="0" stroke-linejoin="bevel" stroke-miterlimit="10">2035</text><text fill="#444444" stroke="none" font-family="helvetica" font-size="10pt" font-style="normal" font-weight="normal" text-decoration="normal" x="438.21228218078613" y="304" text-anchor="start" dominant-baseline="alphabetic" transform="matrix(1, 0, 0, 1, 0.5, 0.5)">2040</text><text fill="none" stroke="rgb(0,0,0)" font-family="helvetica" font-size="10pt" font-style="normal" font-weight="normal" text-decoration="normal" x="438.21228218078613" y="304" text-anchor="start" dominant-baseline="alphabetic" transform="matrix(1, 0, 0, 1, 0.5, 0.5)" stroke-opacity="0" stroke-linejoin="bevel" stroke-miterlimit="10">2040</text><text fill="#444444" stroke="none" font-family="helvetica" font-size="12pt" font-style="normal" font-weight="normal" text-decoration="normal" x="305.3166666030884" y="327" text-anchor="start" dominant-baseline="alphabetic" transform="matrix(1, 0, 0, 1, 0.5, 0.5)">Year</text><text fill="none" stroke="rgb(0,0,0)" font-family="helvetica" font-size="12pt" font-style="normal" font-weight="normal" text-decoration="normal" x="305.3166666030884" y="327" text-anchor="start" dominant-baseline="alphabetic" transform="matrix(1, 0, 0, 1, 0.5, 0.5)" stroke-opacity="0" stroke-linejoin="bevel" stroke-miterlimit="10">Year</text><path fill="none" stroke="black" paint-order="fill" d="M 70.5 283.5 L 70.5 33.5" stroke-linejoin="bevel" stroke-miterlimit="10"/><path fill="none" stroke="black" paint-order="fill" d="M 64.5 283.5 L 72.5 283.5 M 64.5 247.5 L 72.5 247.5 M 64.5 210.5 L 72.5 210.5 M 64.5 174.5 L 72.5 174.5 M 64.5 138.5 L 72.5 138.5 M 64.5 101.5 L 72.5 101.5 M 64.5 65.5 L 72.5 65.5" stroke-linejoin="bevel" stroke-miterlimit="10"/><path fill="none" stroke="black" paint-order="fill" d="M 66.5 283.5 L 70.5 283.5 M 66.5 276.5 L 70.5 276.5 M 66.5 268.5 L 70.5 268.5 M 66.5 261.5 L 70.5 261.5 M 66.5 254.5 L 70.5 254.5 M 66.5 247.5 L 70.5 247.5 M 66.5 239.5 L 70.5 239.5 M 66.5 232.5 L 70.5 232.5 M 66.5 225.5 L 70.5 225.5 M 66.5 218.5 L 70.5 218.5 M 66.5 210.5 L 70.5 210.5 M 66.5 203.5 L 70.5 203.5 M 66.5 196.5 L 70.5 196.5 M 66.5 188.5 L 70.5 188.5 M 66.5 181.5 L 70.5 181.5 M 66.5 174.5 L 70.5 174.5 M 66.5 167.5 L 70.5 167.5 M 66.5 159.5 L 70.5 159.5 M 66.5 152.5 L 70.5 152.5 M 66.5 145.5 L 70.5 145.5 M 66.5 138.5 L 70.5 138.5 M 66.5 130.5 L 70.5 130.5 M 66.5 123.5 L 70.5 123.5 M 66.5 116.5 L 70.5 116.5 M 66.5 108.5 L 70.5 108.5 M 66.5 101.5 L 70.5 101.5 M 66.5 94.5 L 70.5 94.5 M 66.5 87.5 L 70.5 87.5 M 66.5 79.5 L 70.5 79.5 M 66.5 72.5 L 70.5 72.5 M 66.5 65.5 L 70.5 65.5 M 66.5 58.5 L 70.5 58.5 M 66.5 50.5 L 70.5 50.5 M 66.5 43.5 L 70.5 43.5 M 66.5 36.5 L 70.5 36.5" stroke-linejoin="bevel" stroke-miterlimit="10"/><text fill="#444444" stroke="none" font-family="helvetica" font-size="10pt" font-style="normal" font-weight="normal" text-decoration="normal" x="52.31666660308838" y="288" text-anchor="start" dominant-baseline="alphabetic" transform="matrix(1, 0, 0, 1, 0.5, 0.5)">0</text><text fill="none" stroke="rgb(0,0,0)" font-family="helvetica" font-size="10pt" font-style="normal" font-weight="normal" text-decoration="normal" x="52.31666660308838" y="288" text-anchor="start" dominant-baseline="alphabetic" transform="matrix(1, 0, 0, 1, 0.5, 0.5)" stroke-opacity="0" stroke-linejoin="bevel" stroke-miterlimit="10">0</text><text fill="#444444" stroke="none" font-family="helvetica" font-size="10pt" font-style="normal" font-weight="normal" text-decoration="normal" x="45.63333320617676" y="251.63636779785156" text-anchor="start" dominant-baseline="alphabetic" transform="matrix(1, 0, 0, 1, 0.5, 0.5)">20</text><text fill="none" stroke="rgb(0,0,0)" font-family="helvetica" font-size="10pt" font-style="normal" font-weight="normal" text-decoration="normal" x="45.63333320617676" y="251.63636779785156" text-anchor="start" dominant-baseline="alphabetic" transform="matrix(1, 0, 0, 1, 0.5, 0.5)" stroke-opacity="0" stroke-linejoin="bevel" stroke-miterlimit="10">20</text><text fill="#444444" stroke="none" font-family="helvetica" font-size="10pt" font-style="normal" font-weight="normal" text-decoration="normal" x="45.63333320617676" y="215.27272033691406" text-anchor="start" dominant-baseline="alphabetic" transform="matrix(1, 0, 0, 1, 0.5, 0.5)">40</text><text fill="none" stroke="rgb(0,0,0)" font-family="helvetica" font-size="10pt" font-style="normal" font-weight="normal" text-decoration="normal" x="45.63333320617676" y="215.27272033691406" text-anchor="start" dominant-baseline="alphabetic" transform="matrix(1, 0, 0, 1, 0.5, 0.5)" stroke-opacity="0" stroke-linejoin="bevel" stroke-miterlimit="10">40</text><text fill="#444444" stroke="none" font-family="helvetica" font-size="10pt" font-style="normal" font-weight="normal" text-decoration="normal" x="45.63333320617676" y="178.90908813476562" text-anchor="start" dominant-baseline="alphabetic" transform="matrix(1, 0, 0, 1, 0.5, 0.5)">60</text><text fill="none" stroke="rgb(0,0,0)" font-family="helvetica" font-size="10pt" font-style="normal" font-weight="normal" text-decoration="normal" x="45.63333320617676" y="178.90908813476562" text-anchor="start" dominant-baseline="alphabetic" transform="matrix(1, 0, 0, 1, 0.5, 0.5)" stroke-opacity="0" stroke-linejoin="bevel" stroke-miterlimit="10">60</text><text fill="#444444" stroke="none" font-family="helvetica" font-size="10pt" font-style="normal" font-weight="normal" text-decoration="normal" x="45.63333320617676" y="142.5454559326172" text-anchor="start" dominant-baseline="alphabetic" transform="matrix(1, 0, 0, 1, 0.5, 0.5)">80</text><text fill="none" stroke="rgb(0,0,0)" font-family="helvetica" font-size="10pt" font-style="normal" font-weight="normal" text-decoration="normal" x="45.63333320617676" y="142.5454559326172" text-anchor="start" dominant-baseline="alphabetic" transform="matrix(1, 0, 0, 1, 0.5, 0.5)" stroke-opacity="0" stroke-linejoin="bevel" stroke-miterlimit="10">80</text><text fill="#444444" stroke="none" font-family="helvetica" font-size="10pt" font-style="normal" font-weight="normal" text-decoration="normal" x="38.95000076293945" y="106.18181610107422" text-anchor="start" dominant-baseline="alphabetic" transform="matrix(1, 0, 0, 1, 0.5, 0.5)">100</text><text fill="none" stroke="rgb(0,0,0)" font-family="helvetica" font-size="10pt" font-style="normal" font-weight="normal" text-decoration="normal" x="38.95000076293945" y="106.18181610107422" text-anchor="start" dominant-baseline="alphabetic" transform="matrix(1, 0, 0, 1, 0.5, 0.5)" stroke-opacity="0" stroke-linejoin="bevel" stroke-miterlimit="10">100</text><text fill="#444444" stroke="none" font-family="helvetica" font-size="10pt" font-style="normal" font-weight="normal" text-decoration="normal" x="38.95000076293945" y="69.81818389892578" text-anchor="start" dominant-baseline="alphabetic" transform="matrix(1, 0, 0, 1, 0.5, 0.5)">120</text><text fill="none" stroke="rgb(0,0,0)" font-family="helvetica" font-size="10pt" font-style="normal" font-weight="normal" text-decoration="normal" x="38.95000076293945" y="69.81818389892578" text-anchor="start" dominant-baseline="alphabetic" transform="matrix(1, 0, 0, 1, 0.5, 0.5)" stroke-opacity="0" stroke-linejoin="bevel" stroke-miterlimit="10">120</text><text fill="#444444" stroke="none" font-family="helvetica" font-size="12pt" font-style="normal" font-weight="normal" text-decoration="normal" x="-65.25833511352539" y="154" text-anchor="start" dominant-baseline="alphabetic" transform="matrix(6.123233995736766e-17, -1, 1, 6.123233995736766e-17, -126.54999923706055, 189.45000076293945)">Days suitable for transmission</text><text fill="none" stroke="rgb(0,0,0)" font-family="helvetica" font-size="12pt" font-style="normal" font-weight="normal" text-decoration="normal" x="-65.25833511352539" y="154" text-anchor="start" dominant-baseline="alphabetic" transform="matrix(6.123233995736766e-17, -1, 1, 6.123233995736766e-17, -126.54999923706055, 189.45000076293945)" stroke-opacity="0" stroke-linejoin="bevel" stroke-miterlimit="10">Days suitable for transmission</text><path fill="rgb(255,255,255)" stroke="rgb(229,229,229)" paint-order="fill" d="M 477.0333251953125 208.5 L 560.4999847412109 208.5 L 560.4999847412109 273.5 L 477.0333251953125 273.5 L 477.0333251953125 208.5 Z" fill-opacity="0.9490196078431372" clip-path="url(#GTrvvufmnzcy)" stroke-opacity="0.5019607843137255" stroke-linejoin="bevel" stroke-miterlimit="10"/><g clip-path="url(#GTrvvufmnzcy)"><g transform="matrix(1, 0, 0, 1, 487.5333251953125, 219)"><path fill="none" stroke="#30a2da" paint-order="fill" d="M 0.5 10.5 L 20.5 10.5" stroke-linejoin="bevel" stroke-miterlimit="10" stroke-width="2"/></g></g><g clip-path="url(#GTrvvufmnzcy)"><text fill="#444444" stroke="none" font-family="helvetica" font-size="13px" font-style="normal" font-weight="normal" text-decoration="normal" x="512.5333251953125" y="233.5" text-anchor="start" dominant-baseline="alphabetic" transform="matrix(1, 0, 0, 1, 0.5, 0.5)">ID 001</text></g><g clip-path="url(#GTrvvufmnzcy)"><text fill="none" stroke="rgb(0,0,0)" font-family="helvetica" font-size="13px" font-style="normal" font-weight="normal" text-decoration="normal" x="512.5333251953125" y="233.5" text-anchor="start" dominant-baseline="alphabetic" transform="matrix(1, 0, 0, 1, 0.5, 0.5)" stroke-opacity="0" stroke-linejoin="bevel" stroke-miterlimit="10">ID 001</text></g><g clip-path="url(#GTrvvufmnzcy)"><g transform="matrix(1, 0, 0, 1, 487.5333251953125, 242)"><path fill="none" stroke="#fc4f30" paint-order="fill" d="M 0.5 10.5 L 20.5 10.5" stroke-linejoin="bevel" stroke-miterlimit="10" stroke-width="2"/></g></g><g clip-path="url(#GTrvvufmnzcy)"><text fill="#444444" stroke="none" font-family="helvetica" font-size="13px" font-style="normal" font-weight="normal" text-decoration="normal" x="512.5333251953125" y="256.5" text-anchor="start" dominant-baseline="alphabetic" transform="matrix(1, 0, 0, 1, 0.5, 0.5)">ID 006</text></g><g clip-path="url(#GTrvvufmnzcy)"><text fill="none" stroke="rgb(0,0,0)" font-family="helvetica" font-size="13px" font-style="normal" font-weight="normal" text-decoration="normal" x="512.5333251953125" y="256.5" text-anchor="start" dominant-baseline="alphabetic" transform="matrix(1, 0, 0, 1, 0.5, 0.5)" stroke-opacity="0" stroke-linejoin="bevel" stroke-miterlimit="10">ID 006</text></g><text fill="black" stroke="none" font-family="helvetica" font-size="14pt" font-style="normal" font-weight="normal" text-decoration="normal" x="0" y="18" text-anchor="start" dominant-baseline="alphabetic" transform="matrix(1, 0, 0, 1, 5.5, 5.5)">A. London</text><text fill="none" stroke="rgb(0,0,0)" font-family="helvetica" font-size="14pt" font-style="normal" font-weight="normal" text-decoration="normal" x="0" y="18" text-anchor="start" dominant-baseline="alphabetic" transform="matrix(1, 0, 0, 1, 5.5, 5.5)" stroke-opacity="0" stroke-linejoin="bevel" stroke-miterlimit="10">A. London</text></svg>