<svg version="1.1" xmlns="http://www.w3.org/2000/svg" width="600" height="329"><defs><clipPath id="QpvUyqtbtyEk"><path fill="none" stroke="none" d="M 70.5 30.5 L 570.5 30.5 L 570.5 280.5 L 70.5 280.5 L 70.5 30.5 Z"/></clipPath><clipPath id="wRgXGTnSdQfU"><path fill="none" stroke="none" d="M 70.5 30.5 L 570.5 30.5 L 570.5 280.5 L 70.5 280.5 L 70.5 30.5 Z"/></clipPath><clipPath id="AduXidoHCCOA"><path fill="none" stroke="none" d="M 70.5 30.5 L 570.5 30.5 L 570.5 280.5 L 70.5 280.5 L 70.5 30.5 Z"/></clipPath><clipPath id="rPCnhgRJFAwn"><path fill="none" stroke="none" d="M 70.5 30.5 L 570.5 30.5 L 570.5 280.5 L 70.5 280.5 L 70.5 30.5 Z"/></clipPath><clipPath id="cHmBlhliIFFg"><path fill="none" stroke="none" d="M 70.5 30.5 L 570.5 30.5 L 570.5 280.5 L 70.5 280.5 L 70.5 30.5 Z"/></clipPath><clipPath id="JAwksBNdhduq"><path fill="none" stroke="none" d="M 70.5 30.5 L 570.5 30.5 L 570.5 280.5 L 70.5 280.5 L 70.5 30.5 Z"/></clipPath><clipPath id="iEzEoIrNdIbt"><path fill="none" stroke="none" d="M 70.5 30.5 L 570.5 30.5 L 570.5 280.5 L 70.5 280.5 L 70.5 30.5 Z"/></clipPath><clipPath id="tiHMApadlZOl"><path fill="none" stroke="none" d="M 70.5 30.5 L 570.5 30.5 L 570.5 280.5 L 70.5 280.5 L 70.5 30.5 Z"/></clipPath><clipPath id="FlEqTmNCkxkF"><path fill="none" stroke="none" d="M 70.5 30.5 L 570.5 30.5 L 570.5 280.5 L 70.5 280.5 L 70.5 30.5 Z"/></clipPath><clipPath id="GrssTMpoxJyM"><path fill="none" stroke="none" d="M 70.5 30.5 L 570.5 30.5 L 570.5 280.5 L 70.5 280.5 L 70.5 30.5 Z"/></clipPath><clipPath id="DLnCRdcdHMwe"><path fill="none" stroke="none" d="M 70.5 30.5 L 570.5 30.5 L 570.5 280.5 L 70.5 280.5 L 70.5 30.5 Z"/></clipPath><clipPath id="RpQzTcZqWcoT"><path fill="none" stroke="none" d="M 70.5 30.5 L 570.5 30.5 L 570.5 280.5 L 70.5 280.5 L 70.5 30.5 Z"/></clipPath><clipPath id="qfysVoMWDoWT"><path fill="none" stroke="none" d="M 70.5 30.5 L 570.5 30.5 L 570.5 280.5 L 70.5 280.5 L 70.5 30.5 Z"/></clipPath><clipPath id="akXZNdpFIzUr"><path fill="none" stroke="none" d="M 70.5 30.5 L 570.5 30.5 L 570.5 280.5 L 70.5 280.5 L 70.5 30.5 Z"/></clipPath><clipPath id="OLTmIkUitNvW"><path fill="none" stroke="none" d="M 70.5 30.5 L 570.5 30.5 L 570.5 280.5 L 70.5 280.5 L 70.5 30.5 Z"/></clipPath><clipPath id="FzuoBpAWnBme"><path fill="none" stroke="none" d="M 70.5 30.5 L 570.5 30.5 L 570.5 280.5 L 70.5 280.5 L 70.5 30.5 Z"/></clipPath><clipPath id="TXgQOtcDSoVL"><path fill="none" stroke="none" d="M 70.5 30.5 L 570.5 30.5 L 570.5 280.5 L 70.5 280.5 L 70.5 30.5 Z"/></clipPath><clipPath id="REJtmfmkCiQN"><path fill="none" stroke="none" d="M 70.5 30.5 L 570.5 30.5 L 570.5 280.5 L 70.5 280.5 L 70.5 30.5 Z"/></clipPath><clipPath id="NXGSpqTFbKlk"><path fill="none" stroke="none" d="M 70.5 30.5 L 570.5 30.5 L 570.5 280.5 L 70.5 280.5 L 70.5 30.5 Z"/></clipPath><clipPath id="XTKPKsMMMJzH"><path fill="none" stroke="none" d="M 70.5 30.5 L 570.5 30.5 L 570.5 280.5 L 70.5 280.5 L 70.5 30.5 Z"/></clipPath><clipPath id="yEuENJWREwlP"><path fill="none" stroke="none" d="M 70.5 30.5 L 570.5 30.5 L 570.5 280.5 L 70.5 280.5 L 70.5 30.5 Z"/></clipPath><clipPath id="rPLvyhPluebm"><path fill="none" stroke="none" d="M 70.5 30.5 L 570.5 30.5 L 570.5 280.5 L 70.5 280.5 L 70.5 30.5 Z"/></clipPath><clipPath id="WEJnwKTsNgSg"><path fill="none" stroke="none" d="M 70.5 30.5 L 570.5 30.5 L 570.5 280.5 L 70.5 280.5 L 70.5 30.5 Z"/></clipPath></defs><path fill="none" stroke="#e5e5e5" paint-order="fill" d="M 70.5 30.5 L 570.5 30.5 L 570.5 280.5 L 70.5 280.5 L 70.5 30.5 Z" stroke-linejoin="bevel" stroke-miterlimit="10"/><path fill="none" stroke="black" paint-order="fill" d="M 332.46172248803487 30.5 L 332.46172248803487 280.5" stroke-linejoin="bevel" stroke-miterlimit="10" stroke-width="3" stroke-dasharray="6" clip-path="url(#AduXidoHCCOA)"/><path fill="none" stroke="#9467bd" paint-order="fill" d="M 93.2272720336914 109.79293060302734 L 117.15071868896484 87.57070922851562 L 141.07415771484375 97.67171478271484 L 164.9976043701172 83.53030395507812 L 188.92105102539062 99.6919174194336 L 212.84449768066406 114.84343719482422 L 236.7679443359375 96.66161346435547 L 260.6913757324219 112.82323455810547 L 284.6148376464844 117.87374114990234 L 308.53826904296875 74.43939208984375" stroke-linejoin="bevel" stroke-miterlimit="10" stroke-width="2" clip-path="url(#rPCnhgRJFAwn)"/><path fill="none" stroke="#9467bd" paint-order="fill" d="M 93.2272720336914 109.79293060302734 L 117.15071868896484 87.57070922851562 L 141.07415771484375 97.67171478271484 L 164.9976043701172 83.53030395507812 L 188.92105102539062 99.6919174194336 L 212.84449768066406 114.84343719482422 L 236.7679443359375 96.66161346435547 L 260.6913757324219 112.82323455810547 L 284.6148376464844 117.87374114990234 L 308.53826904296875 74.43939208984375" stroke-linejoin="bevel" stroke-miterlimit="10" stroke-width="2" stroke-dasharray="6" clip-path="url(#cHmBlhliIFFg)"/><path fill="none" stroke="#30a2da" paint-order="fill" d="M 308.53826904296875 74.43939208984375 L 332.46173095703125 85.55050659179688 L 356.3851623535156 101.71212005615234 L 380.3086242675781 88.580810546875 L 404.2320556640625 126.96464538574219 L 428.155517578125 93.63130950927734 L 452.0789489746094 119.89393615722656 L 476.00238037109375 122.92424011230469 L 499.92584228515625 115.8535385131836 L 523.8493041992188 107.7727279663086 L 547.772705078125 97.67171478271484" stroke-linejoin="bevel" stroke-miterlimit="10" stroke-width="2" clip-path="url(#JAwksBNdhduq)"/><path fill="none" stroke="#30a2da" paint-order="fill" d="M 332.46173095703125 97.81864166259766 L 356.3851623535156 99.64906311035156 L 380.3086242675781 101.4794921875 L 404.2320556640625 103.3099136352539 L 428.155517578125 105.14034271240234 L 452.0789489746094 106.97077178955078 L 476.00238037109375 108.80119323730469 L 499.92584228515625 110.63162231445312 L 523.8493041992188 112.46204376220703 L 547.772705078125 114.29247283935547" stroke-linejoin="bevel" stroke-miterlimit="10" stroke-width="2" stroke-dasharray="6" clip-path="url(#iEzEoIrNdIbt)"/><path fill="none" stroke="#fc4f30" paint-order="fill" d="M 308.53826904296875 74.43939208984375 L 332.46173095703125 81.51010131835938 L 356.3851623535156 104.74242401123047 L 380.3086242675781 56.25757598876953 L 404.2320556640625 71.40908813476562 L 428.155517578125 108.78282928466797 L 452.0789489746094 63.32828140258789 L 476.00238037109375 105.75252532958984 L 499.92584228515625 117.87374114990234 L 523.8493041992188 122.92424011230469 L 547.772705078125 74.43939208984375" stroke-linejoin="bevel" stroke-miterlimit="10" stroke-width="2" clip-path="url(#tiHMApadlZOl)"/><path fill="none" stroke="#fc4f30" paint-order="fill" d="M 332.46173095703125 78.99403381347656 L 356.3851623535156 81.59580993652344 L 380.3086242675781 84.19757843017578 L 404.2320556640625 86.79935455322266 L 428.155517578125 89.40113067626953 L 452.0789489746094 92.0029067993164 L 476.00238037109375 94.60468292236328 L 499.92584228515625 97.20645904541016 L 523.8493041992188 99.80823516845703 L 547.772705078125 102.4100112915039" stroke-linejoin="bevel" stroke-miterlimit="10" stroke-width="2" stroke-dasharray="6" clip-path="url(#FlEqTmNCkxkF)"/><path fill="none" stroke="rgb(128,128,128)" paint-order="fill" d="M 93.2272720336914 98.68181610107422 L 117.15071868896484 98.68181610107422 L 141.07415771484375 80.5 L 164.9976043701172 120.90403747558594 L 188.92105102539062 101.71212005615234 L 212.84449768066406 95.6515121459961 L 236.7679443359375 79.48989868164062 L 260.6913757324219 119.89393615722656 L 284.6148376464844 145.14646911621094 L 308.53826904296875 70.39898681640625" stroke-opacity="0.7490196078431373" stroke-linejoin="bevel" stroke-miterlimit="10" clip-path="url(#GrssTMpoxJyM)"/><path fill="none" stroke="grey" paint-order="fill" d="M 308.53826904296875 70.39898681640625 L 332.46173095703125 110.80303192138672 L 356.3851623535156 101.71212005615234 L 380.3086242675781 93.63130950927734 L 404.2320556640625 110.80303192138672 L 428.155517578125 137.06565856933594 L 452.0789489746094 106.76262664794922 L 476.00238037109375 103.7323226928711 L 499.92584228515625 128.98484802246094 L 523.8493041992188 117.87374114990234 L 547.772705078125 102.72222137451172" stroke-linejoin="bevel" stroke-miterlimit="10" stroke-width="0.5" clip-path="url(#DLnCRdcdHMwe)"/><path fill="none" stroke="grey" paint-order="fill" d="M 308.53826904296875 70.39898681640625 L 332.46173095703125 104.74242401123047 L 356.3851623535156 116.86363983154297 L 380.3086242675781 96.66161346435547 L 404.2320556640625 100.70201873779297 L 428.155517578125 97.67171478271484 L 452.0789489746094 117.87374114990234 L 476.00238037109375 72.419189453125 L 499.92584228515625 94.64141082763672 L 523.8493041992188 121.91413879394531 L 547.772705078125 134.0353546142578" stroke-linejoin="bevel" stroke-miterlimit="10" stroke-width="0.5" clip-path="url(#RpQzTcZqWcoT)"/><path fill="none" stroke="rgb(128,128,128)" paint-order="fill" d="M 93.2272720336914 91.61111450195312 L 117.15071868896484 117.87374114990234 L 141.07415771484375 90.60101318359375 L 164.9976043701172 112.82323455810547 L 188.92105102539062 115.8535385131836 L 212.84449768066406 102.72222137451172 L 236.7679443359375 98.68181610107422 L 260.6913757324219 87.57070922851562 L 284.6148376464844 127.97474670410156 L 308.53826904296875 100.70201873779297" stroke-opacity="0.7490196078431373" stroke-linejoin="bevel" stroke-miterlimit="10" clip-path="url(#qfysVoMWDoWT)"/><path fill="none" stroke="grey" paint-order="fill" d="M 308.53826904296875 100.70201873779297 L 332.46173095703125 101.71212005615234 L 356.3851623535156 79.48989868164062 L 380.3086242675781 94.64141082763672 L 404.2320556640625 97.67171478271484 L 428.155517578125 91.61111450195312 L 452.0789489746094 96.66161346435547 L 476.00238037109375 74.43939208984375 L 499.92584228515625 111.8131332397461 L 523.8493041992188 126.96464538574219 L 547.772705078125 125.95454406738281" stroke-linejoin="bevel" stroke-miterlimit="10" stroke-width="0.5" clip-path="url(#akXZNdpFIzUr)"/><path fill="none" stroke="grey" paint-order="fill" d="M 308.53826904296875 100.70201873779297 L 332.46173095703125 121.91413879394531 L 356.3851623535156 119.89393615722656 L 380.3086242675781 97.67171478271484 L 404.2320556640625 96.66161346435547 L 428.155517578125 91.61111450195312 L 452.0789489746094 95.6515121459961 L 476.00238037109375 108.78282928466797 L 499.92584228515625 101.71212005615234 L 523.8493041992188 87.57070922851562 L 547.772705078125 133.02525329589844" stroke-linejoin="bevel" stroke-miterlimit="10" stroke-width="0.5" clip-path="url(#OLTmIkUitNvW)"/><path fill="none" stroke="rgb(128,128,128)" paint-order="fill" d="M 93.2272720336914 125.95454406738281 L 117.15071868896484 121.91413879394531 L 141.07415771484375 78.47979736328125 L 164.9976043701172 104.74242401123047 L 188.92105102539062 99.6919174194336 L 212.84449768066406 80.5 L 236.7679443359375 92.6212158203125 L 260.6913757324219 91.61111450195312 L 284.6148376464844 114.84343719482422 L 308.53826904296875 105.75252532958984" stroke-opacity="0.7490196078431373" stroke-linejoin="bevel" stroke-miterlimit="10" clip-path="url(#FzuoBpAWnBme)"/><path fill="none" stroke="grey" paint-order="fill" d="M 308.53826904296875 105.75252532958984 L 332.46173095703125 84.5404052734375 L 356.3851623535156 99.6919174194336 L 380.3086242675781 113.83333587646484 L 404.2320556640625 114.84343719482422 L 428.155517578125 101.71212005615234 L 452.0789489746094 97.67171478271484 L 476.00238037109375 116.86363983154297 L 499.92584228515625 96.66161346435547 L 523.8493041992188 89.59091186523438 L 547.772705078125 122.92424011230469" stroke-linejoin="bevel" stroke-miterlimit="10" stroke-width="0.5" clip-path="url(#TXgQOtcDSoVL)"/><path fill="none" stroke="grey" paint-order="fill" d="M 308.53826904296875 105.75252532958984 L 332.46173095703125 95.6515121459961 L 356.3851623535156 79.48989868164062 L 380.3086242675781 105.75252532958984 L 404.2320556640625 115.8535385131836 L 428.155517578125 103.7323226928711 L 452.0789489746094 99.6919174194336 L 476.00238037109375 96.66161346435547 L 499.92584228515625 108.78282928466797 L 523.8493041992188 94.64141082763672 L 547.772705078125 107.7727279663086" stroke-linejoin="bevel" stroke-miterlimit="10" stroke-width="0.5" clip-path="url(#REJtmfmkCiQN)"/><path fill="none" stroke="rgb(128,128,128)" paint-order="fill" d="M 93.2272720336914 105.75252532958984 L 117.15071868896484 121.91413879394531 L 141.07415771484375 138.0757598876953 L 164.9976043701172 89.59091186523438 L 188.92105102539062 93.63130950927734 L 212.84449768066406 124.94444274902344 L 236.7679443359375 99.6919174194336 L 260.6913757324219 85.55050659179688 L 284.6148376464844 133.02525329589844 L 308.53826904296875 99.6919174194336" stroke-opacity="0.7490196078431373" stroke-linejoin="bevel" stroke-miterlimit="10" clip-path="url(#NXGSpqTFbKlk)"/><path fill="none" stroke="grey" paint-order="fill" d="M 308.53826904296875 99.6919174194336 L 332.46173095703125 53.227272033691406 L 356.3851623535156 111.8131332397461 L 380.3086242675781 89.59091186523438 L 404.2320556640625 65.3484878540039 L 428.155517578125 115.8535385131836 L 452.0789489746094 120.90403747558594 L 476.00238037109375 92.6212158203125 L 499.92584228515625 92.6212158203125 L 523.8493041992188 102.72222137451172 L 547.772705078125 87.57070922851562" stroke-linejoin="bevel" stroke-miterlimit="10" stroke-width="0.5" clip-path="url(#XTKPKsMMMJzH)"/><path fill="none" stroke="grey" paint-order="fill" d="M 308.53826904296875 99.6919174194336 L 332.46173095703125 65.3484878540039 L 356.3851623535156 91.61111450195312 L 380.3086242675781 105.75252532958984 L 404.2320556640625 103.7323226928711 L 428.155517578125 77.46969604492188 L 452.0789489746094 99.6919174194336 L 476.00238037109375 114.84343719482422 L 499.92584228515625 105.75252532958984 L 523.8493041992188 93.63130950927734 L 547.772705078125 111.8131332397461" stroke-linejoin="bevel" stroke-miterlimit="10" stroke-width="0.5" clip-path="url(#yEuENJWREwlP)"/><path fill="none" stroke="black" paint-order="fill" d="M 70.5 280.5 L 570.5 280.5" stroke-linejoin="bevel" stroke-miterlimit="10"/><path fill="none" stroke="black" paint-order="fill" d="M 93.5 286.5 L 93.5 278.5 M 212.5 286.5 L 212.5 278.5 M 332.5 286.5 L 332.5 278.5 M 452.5 286.5 L 452.5 278.5" stroke-linejoin="bevel" stroke-miterlimit="10"/><path fill="none" stroke="black" paint-order="fill" d="M 93.5 284.5 L 93.5 280.5 M 117.5 284.5 L 117.5 280.5 M 141.5 284.5 L 141.5 280.5 M 164.5 284.5 L 164.5 280.5 M 188.5 284.5 L 188.5 280.5 M 212.5 284.5 L 212.5 280.5 M 236.5 284.5 L 236.5 280.5 M 260.5 284.5 L 260.5 280.5 M 284.5 284.5 L 284.5 280.5 M 308.5 284.5 L 308.5 280.5 M 332.5 284.5 L 332.5 280.5 M 356.5 284.5 L 356.5 280.5 M 380.5 284.5 L 380.5 280.5 M 404.5 284.5 L 404.5 280.5 M 428.5 284.5 L 428.5 280.5 M 452.5 284.5 L 452.5 280.5 M 476.5 284.5 L 476.5 280.5 M 499.5 284.5 L 499.5 280.5 M 523.5 284.5 L 523.5 280.5 M 547.5 284.5 L 547.5 280.5" stroke-linejoin="bevel" stroke-miterlimit="10"/><text fill="#444444" stroke="none" font-family="helvetica" font-size="10pt" font-style="normal" font-weight="normal" text-decoration="normal" x="77.86060523986816" y="301" text-anchor="start" dominant-baseline="alphabetic" transform="matrix(1, 0, 0, 1, 0.5, 0.5)">2025</text><text fill="none" stroke="rgb(0,0,0)" font-family="helvetica" font-size="10pt" font-style="normal" font-weight="normal" text-decoration="normal" x="77.86060523986816" y="301" text-anchor="start" dominant-baseline="alphabetic" transform="matrix(1, 0, 0, 1, 0.5, 0.5)" stroke-opacity="0" stroke-linejoin="bevel" stroke-miterlimit="10">2025</text><text fill="#444444" stroke="none" font-family="helvetica" font-size="10pt" font-style="normal" font-weight="normal" text-decoration="normal" x="197.47783088684082" y="301" text-anchor="start" dominant-baseline="alphabetic" transform="matrix(1, 0, 0, 1, 0.5, 0.5)">2030</text><text fill="none" stroke="rgb(0,0,0)" font-family="helvetica" font-size="10pt" font-style="normal" font-weight="normal" text-decoration="normal" x="197.47783088684082" y="301" text-anchor="start" dominant-baseline="alphabetic" transform="matrix(1, 0, 0, 1, 0.5, 0.5)" stroke-opacity="0" stroke-linejoin="bevel" stroke-miterlimit="10">2030</text><text fill="#444444" stroke="none" font-family="helvetica" font-size="10pt" font-style="normal" font-weight="normal" text-decoration="normal" x="317.095064163208" y="301" text-anchor="start" dominant-baseline="alphabetic" transform="matrix(1, 0, 0, 1, 0.5, 0.5)">2035</text><text fill="none" stroke="rgb(0,0,0)" font-family="helvetica" font-size="10pt" font-style="normal" font-weight="normal" text-decoration="normal" x="317.095064163208" y="301" text-anchor="start" dominant-baseline="alphabetic" transform="matrix(1, 0, 0, 1, 0.5, 0.5)" stroke-opacity="0" stroke-linejoin="bevel" stroke-miterlimit="10">2035</text><text fill="#444444" stroke="none" font-family="helvetica" font-size="10pt" font-style="normal" font-weight="normal" text-decoration="normal" x="436.71228218078613" y="301" text-anchor="start" dominant-baseline="alphabetic" transform="matrix(1, 0, 0, 1, 0.5, 0.5)">2040</text><text fill="none" stroke="rgb(0,0,0)" font-family="helvetica" font-size="10pt" font-style="normal" font-weight="normal" text-decoration="normal" x="436.71228218078613" y="301" text-anchor="start" dominant-baseline="alphabetic" transform="matrix(1, 0, 0, 1, 0.5, 0.5)" stroke-opacity="0" stroke-linejoin="bevel" stroke-miterlimit="10">2040</text><text fill="#444444" stroke="none" font-family="helvetica" font-size="12pt" font-style="normal" font-weight="normal" text-decoration="normal" x="303.8500003814697" y="321" text-anchor="start" dominant-baseline="alphabetic" transform="matrix(1, 0, 0, 1, 0.5, 0.5)">Year</text><text fill="none" stroke="rgb(0,0,0)" font-family="helvetica" font-size="12pt" font-style="normal" font-weight="normal" text-decoration="normal" x="303.8500003814697" y="321" text-anchor="start" dominant-baseline="alphabetic" transform="matrix(1, 0, 0, 1, 0.5, 0.5)" stroke-opacity="0" stroke-linejoin="bevel" stroke-miterlimit="10">Year</text><path fill="none" stroke="black" paint-order="fill" d="M 70.5 280.5 L 70.5 30.5" stroke-linejoin="bevel" stroke-miterlimit="10"/><path fill="none" stroke="black" paint-order="fill" d="M 64.5 280.5 L 72.5 280.5 M 64.5 229.5 L 72.5 229.5 M 64.5 179.5 L 72.5 179.5 M 64.5 128.5 L 72.5 128.5 M 64.5 78.5 L 72.5 78.5" stroke-linejoin="bevel" stroke-miterlimit="10"/><path fill="none" stroke="black" paint-order="fill" d="M 66.5 280.5 L 70.5 280.5 M 66.5 270.5 L 70.5 270.5 M 66.5 260.5 L 70.5 260.5 M 66.5 250.5 L 70.5 250.5 M 66.5 240.5 L 70.5 240.5 M 66.5 229.5 L 70.5 229.5 M 66.5 219.5 L 70.5 219.5 M 66.5 209.5 L 70.5 209.5 M 66.5 199.5 L 70.5 199.5 M 66.5 189.5 L 70.5 189.5 M 66.5 179.5 L 70.5 179.5 M 66.5 169.5 L 70.5 169.5 M 66.5 159.5 L 70.5 159.5 M 66.5 149.5 L 70.5 149.5 M 66.5 139.5 L 70.5 139.5 M 66.5 128.5 L 70.5 128.5 M 66.5 118.5 L 70.5 118.5 M 66.5 108.5 L 70.5 108.5 M 66.5 98.5 L 70.5 98.5 M 66.5 88.5 L 70.5 88.5 M 66.5 78.5 L 70.5 78.5 M 66.5 68.5 L 70.5 68.5 M 66.5 58.5 L 70.5 58.5 M 66.5 48.5 L 70.5 48.5 M 66.5 38.5 L 70.5 38.5" stroke-linejoin="bevel" stroke-miterlimit="10"/><text fill="#444444" stroke="none" font-family="helvetica" font-size="10pt" font-style="normal" font-weight="normal" text-decoration="normal" x="51.56666660308838" y="285" text-anchor="start" dominant-baseline="alphabetic" transform="matrix(1, 0, 0, 1, 0.5, 0.5)">0</text><text fill="none" stroke="rgb(0,0,0)" font-family="helvetica" font-size="10pt" font-style="normal" font-weight="normal" text-decoration="normal" x="51.56666660308838" y="285" text-anchor="start" dominant-baseline="alphabetic" transform="matrix(1, 0, 0, 1, 0.5, 0.5)" stroke-opacity="0" stroke-linejoin="bevel" stroke-miterlimit="10">0</text><text fill="#444444" stroke="none" font-family="helvetica" font-size="10pt" font-style="normal" font-weight="normal" text-decoration="normal" x="44.13333320617676" y="234.4949493408203" text-anchor="start" dominant-baseline="alphabetic" transform="matrix(1, 0, 0, 1, 0.5, 0.5)">50</text><text fill="none" stroke="rgb(0,0,0)" font-family="helvetica" font-size="10pt" font-style="normal" font-weight="normal" text-decoration="normal" x="44.13333320617676" y="234.4949493408203" text-anchor="start" dominant-baseline="alphabetic" transform="matrix(1, 0, 0, 1, 0.5, 0.5)" stroke-opacity="0" stroke-linejoin="bevel" stroke-miterlimit="10">50</text><text fill="#444444" stroke="none" font-family="helvetica" font-size="10pt" font-style="normal" font-weight="normal" text-decoration="normal" x="36.70000076293945" y="183.98989868164062" text-anchor="start" dominant-baseline="alphabetic" transform="matrix(1, 0, 0, 1, 0.5, 0.5)">100</text><text fill="none" stroke="rgb(0,0,0)" font-family="helvetica" font-size="10pt" font-style="normal" font-weight="normal" text-decoration="normal" x="36.70000076293945" y="183.98989868164062" text-anchor="start" dominant-baseline="alphabetic" transform="matrix(1, 0, 0, 1, 0.5, 0.5)" stroke-opacity="0" stroke-linejoin="bevel" stroke-miterlimit="10">100</text><text fill="#444444" stroke="none" font-family="helvetica" font-size="10pt" font-style="normal" font-weight="normal" text-decoration="normal" x="36.70000076293945" y="133.48484802246094" text-anchor="start" dominant-baseline="alphabetic" transform="matrix(1, 0, 0, 1, 0.5, 0.5)">150</text><text fill="none" stroke="rgb(0,0,0)" font-family="helvetica" font-size="10pt" font-style="normal" font-weight="normal" text-decoration="normal" x="36.70000076293945" y="133.48484802246094" text-anchor="start" dominant-baseline="alphabetic" transform="matrix(1, 0, 0, 1, 0.5, 0.5)" stroke-opacity="0" stroke-linejoin="bevel" stroke-miterlimit="10">150</text><text fill="#444444" stroke="none" font-family="helvetica" font-size="10pt" font-style="normal" font-weight="normal" text-decoration="normal" x="36.70000076293945" y="82.97979736328125" text-anchor="start" dominant-baseline="alphabetic" transform="matrix(1, 0, 0, 1, 0.5, 0.5)">200</text><text fill="none" stroke="rgb(0,0,0)" font-family="helvetica" font-size="10pt" font-style="normal" font-weight="normal" text-decoration="normal" x="36.70000076293945" y="82.97979736328125" text-anchor="start" dominant-baseline="alphabetic" transform="matrix(1, 0, 0, 1, 0.5, 0.5)" stroke-opacity="0" stroke-linejoin="bevel" stroke-miterlimit="10">200</text><text fill="#444444" stroke="none" font-family="helvetica" font-size="12pt" font-style="normal" font-weight="normal" text-decoration="normal" x="-77.44166946411133" y="150" text-anchor="start" dominant-baseline="alphabetic" transform="matrix(6.123233995736766e-17, -1, 1, 6.123233995736766e-17, -125.79999923706055, 184.20000076293945)">Days suitable for transmission</text><text fill="none" stroke="rgb(0,0,0)" font-family="helvetica" font-size="12pt" font-style="normal" font-weight="normal" text-decoration="normal" x="-77.44166946411133" y="150" text-anchor="start" dominant-baseline="alphabetic" transform="matrix(6.123233995736766e-17, -1, 1, 6.123233995736766e-17, -125.79999923706055, 184.20000076293945)" stroke-opacity="0" stroke-linejoin="bevel" stroke-miterlimit="10">Days suitable for transmission</text><path fill="rgb(255,255,255)" stroke="rgb(229,229,229)" paint-order="fill" d="M 475.183349609375 205.5 L 560.5000152587891 205.5 L 560.5000152587891 270.5 L 475.183349609375 270.5 L 475.183349609375 205.5 Z" fill-opacity="0.9490196078431372" clip-path="url(#rPLvyhPluebm)" stroke-opacity="0.5019607843137255" stroke-linejoin="bevel" stroke-miterlimit="10"/><g clip-path="url(#rPLvyhPluebm)"><g transform="matrix(1, 0, 0, 1, 485.683349609375, 216)"><path fill="none" stroke="#30a2da" paint-order="fill" d="M 0.5 10.5 L 20.5 10.5" stroke-linejoin="bevel" stroke-miterlimit="10" stroke-width="2"/></g></g><g clip-path="url(#rPLvyhPluebm)"><text fill="#444444" stroke="none" font-family="helvetica" font-size="13px" font-style="normal" font-weight="normal" text-decoration="normal" x="510.683349609375" y="229" text-anchor="start" dominant-baseline="alphabetic" transform="matrix(1, 0, 0, 1, 0.5, 0.5)">ID 001</text></g><g clip-path="url(#rPLvyhPluebm)"><text fill="none" stroke="rgb(0,0,0)" font-family="helvetica" font-size="13px" font-style="normal" font-weight="normal" text-decoration="normal" x="510.683349609375" y="229" text-anchor="start" dominant-baseline="alphabetic" transform="matrix(1, 0, 0, 1, 0.5, 0.5)" stroke-opacity="0" stroke-linejoin="bevel" stroke-miterlimit="10">ID 001</text></g><g clip-path="url(#rPLvyhPluebm)"><g transform="matrix(1, 0, 0, 1, 485.683349609375, 239)"><path fill="none" stroke="#fc4f30" paint-order="fill" d="M 0.5 10.5 L 20.5 10.5" stroke-linejoin="bevel" stroke-miterlimit="10" stroke-width="2"/></g></g><g clip-path="url(#rPLvyhPluebm)"><text fill="#444444" stroke="none" font-family="helvetica" font-size="13px" font-style="normal" font-weight="normal" text-decoration="normal" x="510.683349609375" y="252" text-anchor="start" dominant-baseline="alphabetic" transform="matrix(1, 0, 0, 1, 0.5, 0.5)">ID 006</text></g><g clip-path="url(#rPLvyhPluebm)"><text fill="none" stroke="rgb(0,0,0)" font-family="helvetica" font-size="13px" font-style="normal" font-weight="normal" text-decoration="normal" x="510.683349609375" y="252" text-anchor="start" dominant-baseline="alphabetic" transform="matrix(1, 0, 0, 1, 0.5, 0.5)" stroke-opacity="0" stroke-linejoin="bevel" stroke-miterlimit="10">ID 006</text></g><text fill="black" stroke="none" font-family="helvetica" font-size="14pt" font-style="normal" font-weight="normal" text-decoration="normal" x="0" y="14" text-anchor="start" dominant-baseline="alphabetic" transform="matrix(1, 0, 0, 1, 5.5, 5.5)">C. Cape Town</text><text fill="none" stroke="rgb(0,0,0)" font-family="helvetica" font-size="14pt" font-style="normal" font-weight="normal" text-decoration="normal" x="0" y="14" text-anchor="start" dominant-baseline="alphabetic" transform="matrix(1, 0, 0, 1, 5.5, 5.5)" stroke-opacity="0" stroke-linejoin="bevel" stroke-miterlimit="10">C. Cape Town</text></svg>