<svg version="1.1" xmlns="http://www.w3.org/2000/svg" width="605" height="331"><defs><clipPath id="xwhSxyoeqqJF"><path fill="none" stroke="none" d="M 75.5 32.5 L 575.5 32.5 L 575.5 282.5 L 75.5 282.5 L 75.5 32.5 Z"/></clipPath><clipPath id="sBHwkOqgHbfr"><path fill="none" stroke="none" d="M 75.5 32.5 L 575.5 32.5 L 575.5 282.5 L 75.5 282.5 L 75.5 32.5 Z"/></clipPath><clipPath id="wpDKsTMusSvr"><path fill="none" stroke="none" d="M 75.5 32.5 L 575.5 32.5 L 575.5 282.5 L 75.5 282.5 L 75.5 32.5 Z"/></clipPath><clipPath id="mUFVKmEtpDPS"><path fill="none" stroke="none" d="M 75.5 32.5 L 575.5 32.5 L 575.5 282.5 L 75.5 282.5 L 75.5 32.5 Z"/></clipPath><clipPath id="tXEXLBTesJqy"><path fill="none" stroke="none" d="M 75.5 32.5 L 575.5 32.5 L 575.5 282.5 L 75.5 282.5 L 75.5 32.5 Z"/></clipPath><clipPath id="iORlZPrHOhnT"><path fill="none" stroke="none" d="M 75.5 32.5 L 575.5 32.5 L 575.5 282.5 L 75.5 282.5 L 75.5 32.5 Z"/></clipPath><clipPath id="cwKxeUPoXGzq"><path fill="none" stroke="none" d="M 75.5 32.5 L 575.5 32.5 L 575.5 282.5 L 75.5 282.5 L 75.5 32.5 Z"/></clipPath><clipPath id="wLfaxUhxfkFU"><path fill="none" stroke="none" d="M 75.5 32.5 L 575.5 32.5 L 575.5 282.5 L 75.5 282.5 L 75.5 32.5 Z"/></clipPath><clipPath id="bquEchPCzETP"><path fill="none" stroke="none" d="M 75.5 32.5 L 575.5 32.5 L 575.5 282.5 L 75.5 282.5 L 75.5 32.5 Z"/></clipPath><clipPath id="EctsVASNahlA"><path fill="none" stroke="none" d="M 75.5 32.5 L 575.5 32.5 L 575.5 282.5 L 75.5 282.5 L 75.5 32.5 Z"/></clipPath><clipPath id="PrMtNQrVEaoe"><path fill="none" stroke="none" d="M 75.5 32.5 L 575.5 32.5 L 575.5 282.5 L 75.5 282.5 L 75.5 32.5 Z"/></clipPath><clipPath id="TfudKvTDiGRt"><path fill="none" stroke="none" d="M 75.5 32.5 L 575.5 32.5 L 575.5 282.5 L 75.5 282.5 L 75.5 32.5 Z"/></clipPath><clipPath id="INurhAscHUmU"><path fill="none" stroke="none" d="M 75.5 32.5 L 575.5 32.5 L 575.5 282.5 L 75.5 282.5 L 75.5 32.5 Z"/></clipPath><clipPath id="woZTbzJRNmmG"><path fill="none" stroke="none" d="M 75.5 32.5 L 575.5 32.5 L 575.5 282.5 L 75.5 282.5 L 75.5 32.5 Z"/></clipPath><clipPath id="sxlNpEZyckkE"><path fill="none" stroke="none" d="M 75.5 32.5 L 575.5 32.5 L 575.5 282.5 L 75.5 282.5 L 75.5 32.5 Z"/></clipPath><clipPath id="KVtxwpLKMphw"><path fill="none" stroke="none" d="M 75.5 32.5 L 575.5 32.5 L 575.5 282.5 L 75.5 282.5 L 75.5 32.5 Z"/></clipPath><clipPath id="ZCVeineyvLhl"><path fill="none" stroke="none" d="M 75.5 32.5 L 575.5 32.5 L 575.5 282.5 L 75.5 282.5 L 75.5 32.5 Z"/></clipPath><clipPath id="sQgBOLDbemtt"><path fill="none" stroke="none" d="M 75.5 32.5 L 575.5 32.5 L 575.5 282.5 L 75.5 282.5 L 75.5 32.5 Z"/></clipPath><clipPath id="WSRAiVCWfDSL"><path fill="none" stroke="none" d="M 75.5 32.5 L 575.5 32.5 L 575.5 282.5 L 75.5 282.5 L 75.5 32.5 Z"/></clipPath><clipPath id="uvhfzzZmHgHp"><path fill="none" stroke="none" d="M 75.5 32.5 L 575.5 32.5 L 575.5 282.5 L 75.5 282.5 L 75.5 32.5 Z"/></clipPath><clipPath id="rPToAakXvlfH"><path fill="none" stroke="none" d="M 75.5 32.5 L 575.5 32.5 L 575.5 282.5 L 75.5 282.5 L 75.5 32.5 Z"/></clipPath><clipPath id="VlIOquiJPvDm"><path fill="none" stroke="none" d="M 75.5 32.5 L 575.5 32.5 L 575.5 282.5 L 75.5 282.5 L 75.5 32.5 Z"/></clipPath><clipPath id="TUGQSBKrhMBQ"><path fill="none" stroke="none" d="M 75.5 32.5 L 575.5 32.5 L 575.5 282.5 L 75.5 282.5 L 75.5 32.5 Z"/></clipPath></defs><path fill="none" stroke="#e5e5e5" paint-order="fill" d="M 75.5 32.5 L 575.5 32.5 L 575.5 282.5 L 75.5 282.5 L 75.5 32.5 Z" stroke-linejoin="bevel" stroke-miterlimit="10"/><path fill="none" stroke="black" paint-order="fill" d="M 337.46172248803487 32.5 L 337.46172248803487 282.5" stroke-linejoin="bevel" stroke-miterlimit="10" stroke-width="3" stroke-dasharray="6" clip-path="url(#wpDKsTMusSvr)"/><path fill="none" stroke="#9467bd" paint-order="fill" d="M 98.2272720336914 113.40908813476562 L 122.15071868896484 104.31818389892578 L 146.07415771484375 155.22727966308594 L 169.9976043701172 140.68182373046875 L 193.92105102539062 93.40908813476562 L 217.84449768066406 124.31818389892578 L 241.7679443359375 184.31817626953125 L 265.6913757324219 118.86363983154297 L 289.6148376464844 167.9545440673828 L 313.53826904296875 138.86363220214844" stroke-linejoin="bevel" stroke-miterlimit="10" stroke-width="2" clip-path="url(#mUFVKmEtpDPS)"/><path fill="none" stroke="#9467bd" paint-order="fill" d="M 98.2272720336914 113.40908813476562 L 122.15071868896484 104.31818389892578 L 146.07415771484375 155.22727966308594 L 169.9976043701172 140.68182373046875 L 193.92105102539062 93.40908813476562 L 217.84449768066406 124.31818389892578 L 241.7679443359375 184.31817626953125 L 265.6913757324219 118.86363983154297 L 289.6148376464844 167.9545440673828 L 313.53826904296875 138.86363220214844" stroke-linejoin="bevel" stroke-miterlimit="10" stroke-width="2" stroke-dasharray="6" clip-path="url(#tXEXLBTesJqy)"/><path fill="none" stroke="#30a2da" paint-order="fill" d="M 313.53826904296875 138.86363220214844 L 337.46173095703125 100.68181610107422 L 361.3851623535156 87.95454406738281 L 385.3086242675781 100.68181610107422 L 409.2320556640625 109.7727279663086 L 433.155517578125 102.5 L 457.0789489746094 151.59091186523438 L 481.00238037109375 186.13636779785156 L 504.92584228515625 124.31818389892578 L 528.8493041992188 142.5 L 552.772705078125 198.86363220214844" stroke-linejoin="bevel" stroke-miterlimit="10" stroke-width="2" clip-path="url(#iORlZPrHOhnT)"/><path fill="none" stroke="#30a2da" paint-order="fill" d="M 337.46173095703125 85.17768859863281 L 361.3851623535156 95.24931335449219 L 385.3086242675781 105.32093811035156 L 409.2320556640625 115.39256286621094 L 433.155517578125 125.46418762207031 L 457.0789489746094 135.5358123779297 L 481.00238037109375 145.60743713378906 L 504.92584228515625 155.67906188964844 L 528.8493041992188 165.7506866455078 L 552.772705078125 175.8223114013672" stroke-linejoin="bevel" stroke-miterlimit="10" stroke-width="2" stroke-dasharray="6" clip-path="url(#cwKxeUPoXGzq)"/><path fill="none" stroke="#fc4f30" paint-order="fill" d="M 313.53826904296875 138.86363220214844 L 337.46173095703125 91.59091186523438 L 361.3851623535156 202.5 L 385.3086242675781 178.86363220214844 L 409.2320556640625 142.5 L 433.155517578125 142.5 L 457.0789489746094 138.86363220214844 L 481.00238037109375 157.0454559326172 L 504.92584228515625 131.59091186523438 L 528.8493041992188 157.0454559326172 L 552.772705078125 93.40908813476562" stroke-linejoin="bevel" stroke-miterlimit="10" stroke-width="2" clip-path="url(#wLfaxUhxfkFU)"/><path fill="none" stroke="#fc4f30" paint-order="fill" d="M 337.46173095703125 157.1776885986328 L 361.3851623535156 154.1584014892578 L 385.3086242675781 151.1391143798828 L 409.2320556640625 148.1198272705078 L 433.155517578125 145.10055541992188 L 457.0789489746094 142.08126831054688 L 481.00238037109375 139.06198120117188 L 504.92584228515625 136.04269409179688 L 528.8493041992188 133.02342224121094 L 552.772705078125 130.00413513183594" stroke-linejoin="bevel" stroke-miterlimit="10" stroke-width="2" stroke-dasharray="6" clip-path="url(#bquEchPCzETP)"/><path fill="none" stroke="rgb(128,128,128)" paint-order="fill" d="M 98.2272720336914 218.86363220214844 L 122.15071868896484 113.40908813476562 L 146.07415771484375 77.04545593261719 L 169.9976043701172 109.7727279663086 L 193.92105102539062 109.7727279663086 L 217.84449768066406 111.59091186523438 L 241.7679443359375 126.13636016845703 L 265.6913757324219 115.2272720336914 L 289.6148376464844 109.7727279663086 L 313.53826904296875 73.40908813476562" stroke-opacity="0.7490196078431373" stroke-linejoin="bevel" stroke-miterlimit="10" clip-path="url(#EctsVASNahlA)"/><path fill="none" stroke="grey" paint-order="fill" d="M 313.53826904296875 73.40908813476562 L 337.46173095703125 87.95454406738281 L 361.3851623535156 107.95454406738281 L 385.3086242675781 84.31818389892578 L 409.2320556640625 102.5 L 433.155517578125 91.59091186523438 L 457.0789489746094 91.59091186523438 L 481.00238037109375 126.13636016845703 L 504.92584228515625 127.95454406738281 L 528.8493041992188 169.77272033691406 L 552.772705078125 151.59091186523438" stroke-linejoin="bevel" stroke-miterlimit="10" stroke-width="0.5" clip-path="url(#PrMtNQrVEaoe)"/><path fill="none" stroke="grey" paint-order="fill" d="M 313.53826904296875 73.40908813476562 L 337.46173095703125 100.68181610107422 L 361.3851623535156 127.95454406738281 L 385.3086242675781 135.22727966308594 L 409.2320556640625 171.59091186523438 L 433.155517578125 131.59091186523438 L 457.0789489746094 91.59091186523438 L 481.00238037109375 133.40908813476562 L 504.92584228515625 117.04545593261719 L 528.8493041992188 147.9545440673828 L 552.772705078125 107.95454406738281" stroke-linejoin="bevel" stroke-miterlimit="10" stroke-width="0.5" clip-path="url(#TfudKvTDiGRt)"/><path fill="none" stroke="rgb(128,128,128)" paint-order="fill" d="M 98.2272720336914 127.95454406738281 L 122.15071868896484 126.13636016845703 L 146.07415771484375 91.59091186523438 L 169.9976043701172 107.95454406738281 L 193.92105102539062 131.59091186523438 L 217.84449768066406 86.13636016845703 L 241.7679443359375 86.13636016845703 L 265.6913757324219 100.68181610107422 L 289.6148376464844 135.22727966308594 L 313.53826904296875 107.95454406738281" stroke-opacity="0.7490196078431373" stroke-linejoin="bevel" stroke-miterlimit="10" clip-path="url(#INurhAscHUmU)"/><path fill="none" stroke="grey" paint-order="fill" d="M 313.53826904296875 107.95454406738281 L 337.46173095703125 107.95454406738281 L 361.3851623535156 104.31818389892578 L 385.3086242675781 87.95454406738281 L 409.2320556640625 111.59091186523438 L 433.155517578125 102.5 L 457.0789489746094 86.13636016845703 L 481.00238037109375 55.227272033691406 L 504.92584228515625 111.59091186523438 L 528.8493041992188 89.7727279663086 L 552.772705078125 131.59091186523438" stroke-linejoin="bevel" stroke-miterlimit="10" stroke-width="0.5" clip-path="url(#woZTbzJRNmmG)"/><path fill="none" stroke="grey" paint-order="fill" d="M 313.53826904296875 107.95454406738281 L 337.46173095703125 69.7727279663086 L 361.3851623535156 122.5 L 385.3086242675781 131.59091186523438 L 409.2320556640625 107.95454406738281 L 433.155517578125 120.68181610107422 L 457.0789489746094 164.31817626953125 L 481.00238037109375 97.04545593261719 L 504.92584228515625 149.77272033691406 L 528.8493041992188 104.31818389892578 L 552.772705078125 98.86363983154297" stroke-linejoin="bevel" stroke-miterlimit="10" stroke-width="0.5" clip-path="url(#sxlNpEZyckkE)"/><path fill="none" stroke="rgb(128,128,128)" paint-order="fill" d="M 98.2272720336914 131.59091186523438 L 122.15071868896484 113.40908813476562 L 146.07415771484375 86.13636016845703 L 169.9976043701172 115.2272720336914 L 193.92105102539062 178.86363220214844 L 217.84449768066406 106.13636016845703 L 241.7679443359375 167.9545440673828 L 265.6913757324219 67.95454406738281 L 289.6148376464844 117.04545593261719 L 313.53826904296875 82.5" stroke-opacity="0.7490196078431373" stroke-linejoin="bevel" stroke-miterlimit="10" clip-path="url(#KVtxwpLKMphw)"/><path fill="none" stroke="grey" paint-order="fill" d="M 313.53826904296875 82.5 L 337.46173095703125 129.77272033691406 L 361.3851623535156 95.2272720336914 L 385.3086242675781 144.31817626953125 L 409.2320556640625 107.95454406738281 L 433.155517578125 153.40908813476562 L 457.0789489746094 93.40908813476562 L 481.00238037109375 144.31817626953125 L 504.92584228515625 117.04545593261719 L 528.8493041992188 155.22727966308594 L 552.772705078125 129.77272033691406" stroke-linejoin="bevel" stroke-miterlimit="10" stroke-width="0.5" clip-path="url(#ZCVeineyvLhl)"/><path fill="none" stroke="grey" paint-order="fill" d="M 313.53826904296875 82.5 L 337.46173095703125 126.13636016845703 L 361.3851623535156 107.95454406738281 L 385.3086242675781 100.68181610107422 L 409.2320556640625 133.40908813476562 L 433.155517578125 144.31817626953125 L 457.0789489746094 107.95454406738281 L 481.00238037109375 127.95454406738281 L 504.92584228515625 124.31818389892578 L 528.8493041992188 120.68181610107422 L 552.772705078125 117.04545593261719" stroke-linejoin="bevel" stroke-miterlimit="10" stroke-width="0.5" clip-path="url(#sQgBOLDbemtt)"/><path fill="none" stroke="rgb(128,128,128)" paint-order="fill" d="M 98.2272720336914 182.5 L 122.15071868896484 120.68181610107422 L 146.07415771484375 135.22727966308594 L 169.9976043701172 95.2272720336914 L 193.92105102539062 149.77272033691406 L 217.84449768066406 133.40908813476562 L 241.7679443359375 111.59091186523438 L 265.6913757324219 71.59091186523438 L 289.6148376464844 115.2272720336914 L 313.53826904296875 124.31818389892578" stroke-opacity="0.7490196078431373" stroke-linejoin="bevel" stroke-miterlimit="10" clip-path="url(#WSRAiVCWfDSL)"/><path fill="none" stroke="grey" paint-order="fill" d="M 313.53826904296875 124.31818389892578 L 337.46173095703125 104.31818389892578 L 361.3851623535156 126.13636016845703 L 385.3086242675781 86.13636016845703 L 409.2320556640625 104.31818389892578 L 433.155517578125 127.95454406738281 L 457.0789489746094 153.40908813476562 L 481.00238037109375 157.0454559326172 L 504.92584228515625 127.95454406738281 L 528.8493041992188 127.95454406738281 L 552.772705078125 120.68181610107422" stroke-linejoin="bevel" stroke-miterlimit="10" stroke-width="0.5" clip-path="url(#uvhfzzZmHgHp)"/><path fill="none" stroke="grey" paint-order="fill" d="M 313.53826904296875 124.31818389892578 L 337.46173095703125 91.59091186523438 L 361.3851623535156 104.31818389892578 L 385.3086242675781 118.86363983154297 L 409.2320556640625 133.40908813476562 L 433.155517578125 131.59091186523438 L 457.0789489746094 102.5 L 481.00238037109375 155.22727966308594 L 504.92584228515625 158.86363220214844 L 528.8493041992188 106.13636016845703 L 552.772705078125 106.13636016845703" stroke-linejoin="bevel" stroke-miterlimit="10" stroke-width="0.5" clip-path="url(#rPToAakXvlfH)"/><path fill="none" stroke="black" paint-order="fill" d="M 75.5 282.5 L 575.5 282.5" stroke-linejoin="bevel" stroke-miterlimit="10"/><path fill="none" stroke="black" paint-order="fill" d="M 98.5 288.5 L 98.5 280.5 M 217.5 288.5 L 217.5 280.5 M 337.5 288.5 L 337.5 280.5 M 457.5 288.5 L 457.5 280.5" stroke-linejoin="bevel" stroke-miterlimit="10"/><path fill="none" stroke="black" paint-order="fill" d="M 98.5 286.5 L 98.5 282.5 M 122.5 286.5 L 122.5 282.5 M 146.5 286.5 L 146.5 282.5 M 169.5 286.5 L 169.5 282.5 M 193.5 286.5 L 193.5 282.5 M 217.5 286.5 L 217.5 282.5 M 241.5 286.5 L 241.5 282.5 M 265.5 286.5 L 265.5 282.5 M 289.5 286.5 L 289.5 282.5 M 313.5 286.5 L 313.5 282.5 M 337.5 286.5 L 337.5 282.5 M 361.5 286.5 L 361.5 282.5 M 385.5 286.5 L 385.5 282.5 M 409.5 286.5 L 409.5 282.5 M 433.5 286.5 L 433.5 282.5 M 457.5 286.5 L 457.5 282.5 M 481.5 286.5 L 481.5 282.5 M 504.5 286.5 L 504.5 282.5 M 528.5 286.5 L 528.5 282.5 M 552.5 286.5 L 552.5 282.5" stroke-linejoin="bevel" stroke-miterlimit="10"/><text fill="#444444" stroke="none" font-family="helvetica" font-size="10pt" font-style="normal" font-weight="normal" text-decoration="normal" x="82.82727241516113" y="302.59368896484375" text-anchor="start" dominant-baseline="alphabetic" transform="matrix(1, 0, 0, 1, 0.5, 0.5)">2025</text><text fill="none" stroke="rgb(0,0,0)" font-family="helvetica" font-size="10pt" font-style="normal" font-weight="normal" text-decoration="normal" x="82.82727241516113" y="302.59368896484375" text-anchor="start" dominant-baseline="alphabetic" transform="matrix(1, 0, 0, 1, 0.5, 0.5)" stroke-opacity="0" stroke-linejoin="bevel" stroke-miterlimit="10">2025</text><text fill="#444444" stroke="none" font-family="helvetica" font-size="10pt" font-style="normal" font-weight="normal" text-decoration="normal" x="202.4444980621338" y="302.59368896484375" text-anchor="start" dominant-baseline="alphabetic" transform="matrix(1, 0, 0, 1, 0.5, 0.5)">2030</text><text fill="none" stroke="rgb(0,0,0)" font-family="helvetica" font-size="10pt" font-style="normal" font-weight="normal" text-decoration="normal" x="202.4444980621338" y="302.59368896484375" text-anchor="start" dominant-baseline="alphabetic" transform="matrix(1, 0, 0, 1, 0.5, 0.5)" stroke-opacity="0" stroke-linejoin="bevel" stroke-miterlimit="10">2030</text><text fill="#444444" stroke="none" font-family="helvetica" font-size="10pt" font-style="normal" font-weight="normal" text-decoration="normal" x="322.061731338501" y="302.59368896484375" text-anchor="start" dominant-baseline="alphabetic" transform="matrix(1, 0, 0, 1, 0.5, 0.5)">2035</text><text fill="none" stroke="rgb(0,0,0)" font-family="helvetica" font-size="10pt" font-style="normal" font-weight="normal" text-decoration="normal" x="322.061731338501" y="302.59368896484375" text-anchor="start" dominant-baseline="alphabetic" transform="matrix(1, 0, 0, 1, 0.5, 0.5)" stroke-opacity="0" stroke-linejoin="bevel" stroke-miterlimit="10">2035</text><text fill="#444444" stroke="none" font-family="helvetica" font-size="10pt" font-style="normal" font-weight="normal" text-decoration="normal" x="441.6789493560791" y="302.59368896484375" text-anchor="start" dominant-baseline="alphabetic" transform="matrix(1, 0, 0, 1, 0.5, 0.5)">2040</text><text fill="none" stroke="rgb(0,0,0)" font-family="helvetica" font-size="10pt" font-style="normal" font-weight="normal" text-decoration="normal" x="441.6789493560791" y="302.59368896484375" text-anchor="start" dominant-baseline="alphabetic" transform="matrix(1, 0, 0, 1, 0.5, 0.5)" stroke-opacity="0" stroke-linejoin="bevel" stroke-miterlimit="10">2040</text><text fill="#444444" stroke="none" font-family="helvetica" font-size="12pt" font-style="normal" font-weight="normal" text-decoration="normal" x="308.8333339691162" y="323.59368896484375" text-anchor="start" dominant-baseline="alphabetic" transform="matrix(1, 0, 0, 1, 0.5, 0.5)">Year</text><text fill="none" stroke="rgb(0,0,0)" font-family="helvetica" font-size="12pt" font-style="normal" font-weight="normal" text-decoration="normal" x="308.8333339691162" y="323.59368896484375" text-anchor="start" dominant-baseline="alphabetic" transform="matrix(1, 0, 0, 1, 0.5, 0.5)" stroke-opacity="0" stroke-linejoin="bevel" stroke-miterlimit="10">Year</text><path fill="none" stroke="black" paint-order="fill" d="M 75.5 282.5 L 75.5 32.5" stroke-linejoin="bevel" stroke-miterlimit="10"/><path fill="none" stroke="black" paint-order="fill" d="M 69.5 282.5 L 77.5 282.5 M 69.5 246.5 L 77.5 246.5 M 69.5 209.5 L 77.5 209.5 M 69.5 173.5 L 77.5 173.5 M 69.5 137.5 L 77.5 137.5 M 69.5 100.5 L 77.5 100.5 M 69.5 64.5 L 77.5 64.5" stroke-linejoin="bevel" stroke-miterlimit="10"/><path fill="none" stroke="black" paint-order="fill" d="M 71.5 282.5 L 75.5 282.5 M 71.5 275.5 L 75.5 275.5 M 71.5 267.5 L 75.5 267.5 M 71.5 260.5 L 75.5 260.5 M 71.5 253.5 L 75.5 253.5 M 71.5 246.5 L 75.5 246.5 M 71.5 238.5 L 75.5 238.5 M 71.5 231.5 L 75.5 231.5 M 71.5 224.5 L 75.5 224.5 M 71.5 217.5 L 75.5 217.5 M 71.5 209.5 L 75.5 209.5 M 71.5 202.5 L 75.5 202.5 M 71.5 195.5 L 75.5 195.5 M 71.5 187.5 L 75.5 187.5 M 71.5 180.5 L 75.5 180.5 M 71.5 173.5 L 75.5 173.5 M 71.5 166.5 L 75.5 166.5 M 71.5 158.5 L 75.5 158.5 M 71.5 151.5 L 75.5 151.5 M 71.5 144.5 L 75.5 144.5 M 71.5 137.5 L 75.5 137.5 M 71.5 129.5 L 75.5 129.5 M 71.5 122.5 L 75.5 122.5 M 71.5 115.5 L 75.5 115.5 M 71.5 107.5 L 75.5 107.5 M 71.5 100.5 L 75.5 100.5 M 71.5 93.5 L 75.5 93.5 M 71.5 86.5 L 75.5 86.5 M 71.5 78.5 L 75.5 78.5 M 71.5 71.5 L 75.5 71.5 M 71.5 64.5 L 75.5 64.5 M 71.5 57.5 L 75.5 57.5 M 71.5 49.5 L 75.5 49.5 M 71.5 42.5 L 75.5 42.5 M 71.5 35.5 L 75.5 35.5" stroke-linejoin="bevel" stroke-miterlimit="10"/><text fill="#444444" stroke="none" font-family="helvetica" font-size="10pt" font-style="normal" font-weight="normal" text-decoration="normal" x="56.55000019073486" y="286.7968444824219" text-anchor="start" dominant-baseline="alphabetic" transform="matrix(1, 0, 0, 1, 0.5, 0.5)">0</text><text fill="none" stroke="rgb(0,0,0)" font-family="helvetica" font-size="10pt" font-style="normal" font-weight="normal" text-decoration="normal" x="56.55000019073486" y="286.7968444824219" text-anchor="start" dominant-baseline="alphabetic" transform="matrix(1, 0, 0, 1, 0.5, 0.5)" stroke-opacity="0" stroke-linejoin="bevel" stroke-miterlimit="10">0</text><text fill="#444444" stroke="none" font-family="helvetica" font-size="10pt" font-style="normal" font-weight="normal" text-decoration="normal" x="49.10000038146973" y="250.43321228027344" text-anchor="start" dominant-baseline="alphabetic" transform="matrix(1, 0, 0, 1, 0.5, 0.5)">20</text><text fill="none" stroke="rgb(0,0,0)" font-family="helvetica" font-size="10pt" font-style="normal" font-weight="normal" text-decoration="normal" x="49.10000038146973" y="250.43321228027344" text-anchor="start" dominant-baseline="alphabetic" transform="matrix(1, 0, 0, 1, 0.5, 0.5)" stroke-opacity="0" stroke-linejoin="bevel" stroke-miterlimit="10">20</text><text fill="#444444" stroke="none" font-family="helvetica" font-size="10pt" font-style="normal" font-weight="normal" text-decoration="normal" x="49.10000038146973" y="214.06956481933594" text-anchor="start" dominant-baseline="alphabetic" transform="matrix(1, 0, 0, 1, 0.5, 0.5)">40</text><text fill="none" stroke="rgb(0,0,0)" font-family="helvetica" font-size="10pt" font-style="normal" font-weight="normal" text-decoration="normal" x="49.10000038146973" y="214.06956481933594" text-anchor="start" dominant-baseline="alphabetic" transform="matrix(1, 0, 0, 1, 0.5, 0.5)" stroke-opacity="0" stroke-linejoin="bevel" stroke-miterlimit="10">40</text><text fill="#444444" stroke="none" font-family="helvetica" font-size="10pt" font-style="normal" font-weight="normal" text-decoration="normal" x="49.10000038146973" y="177.7059326171875" text-anchor="start" dominant-baseline="alphabetic" transform="matrix(1, 0, 0, 1, 0.5, 0.5)">60</text><text fill="none" stroke="rgb(0,0,0)" font-family="helvetica" font-size="10pt" font-style="normal" font-weight="normal" text-decoration="normal" x="49.10000038146973" y="177.7059326171875" text-anchor="start" dominant-baseline="alphabetic" transform="matrix(1, 0, 0, 1, 0.5, 0.5)" stroke-opacity="0" stroke-linejoin="bevel" stroke-miterlimit="10">60</text><text fill="#444444" stroke="none" font-family="helvetica" font-size="10pt" font-style="normal" font-weight="normal" text-decoration="normal" x="49.10000038146973" y="141.34230041503906" text-anchor="start" dominant-baseline="alphabetic" transform="matrix(1, 0, 0, 1, 0.5, 0.5)">80</text><text fill="none" stroke="rgb(0,0,0)" font-family="helvetica" font-size="10pt" font-style="normal" font-weight="normal" text-decoration="normal" x="49.10000038146973" y="141.34230041503906" text-anchor="start" dominant-baseline="alphabetic" transform="matrix(1, 0, 0, 1, 0.5, 0.5)" stroke-opacity="0" stroke-linejoin="bevel" stroke-miterlimit="10">80</text><text fill="#444444" stroke="none" font-family="helvetica" font-size="10pt" font-style="normal" font-weight="normal" text-decoration="normal" x="41.64999961853027" y="104.9786605834961" text-anchor="start" dominant-baseline="alphabetic" transform="matrix(1, 0, 0, 1, 0.5, 0.5)">100</text><text fill="none" stroke="rgb(0,0,0)" font-family="helvetica" font-size="10pt" font-style="normal" font-weight="normal" text-decoration="normal" x="41.64999961853027" y="104.9786605834961" text-anchor="start" dominant-baseline="alphabetic" transform="matrix(1, 0, 0, 1, 0.5, 0.5)" stroke-opacity="0" stroke-linejoin="bevel" stroke-miterlimit="10">100</text><text fill="#444444" stroke="none" font-family="helvetica" font-size="10pt" font-style="normal" font-weight="normal" text-decoration="normal" x="41.64999961853027" y="68.61502456665039" text-anchor="start" dominant-baseline="alphabetic" transform="matrix(1, 0, 0, 1, 0.5, 0.5)">120</text><text fill="none" stroke="rgb(0,0,0)" font-family="helvetica" font-size="10pt" font-style="normal" font-weight="normal" text-decoration="normal" x="41.64999961853027" y="68.61502456665039" text-anchor="start" dominant-baseline="alphabetic" transform="matrix(1, 0, 0, 1, 0.5, 0.5)" stroke-opacity="0" stroke-linejoin="bevel" stroke-miterlimit="10">120</text><text fill="#444444" stroke="none" font-family="helvetica" font-size="12pt" font-style="normal" font-weight="normal" text-decoration="normal" x="-73.07499885559082" y="153" text-anchor="start" dominant-baseline="alphabetic" transform="matrix(6.123233995736766e-17, -1, 1, 6.123233995736766e-17, -122.85000038146973, 191.14999961853027)">Days suitable for transmission</text><text fill="none" stroke="rgb(0,0,0)" font-family="helvetica" font-size="12pt" font-style="normal" font-weight="normal" text-decoration="normal" x="-73.07499885559082" y="153" text-anchor="start" dominant-baseline="alphabetic" transform="matrix(6.123233995736766e-17, -1, 1, 6.123233995736766e-17, -122.85000038146973, 191.14999961853027)" stroke-opacity="0" stroke-linejoin="bevel" stroke-miterlimit="10">Days suitable for transmission</text><path fill="rgb(255,255,255)" stroke="rgb(229,229,229)" paint-order="fill" d="M 480.183349609375 207.5 L 565.5000152587891 207.5 L 565.5000152587891 272.5 L 480.183349609375 272.5 L 480.183349609375 207.5 Z" fill-opacity="0.9490196078431372" clip-path="url(#VlIOquiJPvDm)" stroke-opacity="0.5019607843137255" stroke-linejoin="bevel" stroke-miterlimit="10"/><g clip-path="url(#VlIOquiJPvDm)"><g transform="matrix(1, 0, 0, 1, 490.683349609375, 218)"><path fill="none" stroke="#30a2da" paint-order="fill" d="M 0.5 10.5 L 20.5 10.5" stroke-linejoin="bevel" stroke-miterlimit="10" stroke-width="2"/></g></g><g clip-path="url(#VlIOquiJPvDm)"><text fill="#444444" stroke="none" font-family="helvetica" font-size="13px" font-style="normal" font-weight="normal" text-decoration="normal" x="515.683349609375" y="232" text-anchor="start" dominant-baseline="alphabetic" transform="matrix(1, 0, 0, 1, 0.5, 0.5)">ID 001</text></g><g clip-path="url(#VlIOquiJPvDm)"><text fill="none" stroke="rgb(0,0,0)" font-family="helvetica" font-size="13px" font-style="normal" font-weight="normal" text-decoration="normal" x="515.683349609375" y="232" text-anchor="start" dominant-baseline="alphabetic" transform="matrix(1, 0, 0, 1, 0.5, 0.5)" stroke-opacity="0" stroke-linejoin="bevel" stroke-miterlimit="10">ID 001</text></g><g clip-path="url(#VlIOquiJPvDm)"><g transform="matrix(1, 0, 0, 1, 490.683349609375, 241)"><path fill="none" stroke="#fc4f30" paint-order="fill" d="M 0.5 10.5 L 20.5 10.5" stroke-linejoin="bevel" stroke-miterlimit="10" stroke-width="2"/></g></g><g clip-path="url(#VlIOquiJPvDm)"><text fill="#444444" stroke="none" font-family="helvetica" font-size="13px" font-style="normal" font-weight="normal" text-decoration="normal" x="515.683349609375" y="255" text-anchor="start" dominant-baseline="alphabetic" transform="matrix(1, 0, 0, 1, 0.5, 0.5)">ID 006</text></g><g clip-path="url(#VlIOquiJPvDm)"><text fill="none" stroke="rgb(0,0,0)" font-family="helvetica" font-size="13px" font-style="normal" font-weight="normal" text-decoration="normal" x="515.683349609375" y="255" text-anchor="start" dominant-baseline="alphabetic" transform="matrix(1, 0, 0, 1, 0.5, 0.5)" stroke-opacity="0" stroke-linejoin="bevel" stroke-miterlimit="10">ID 006</text></g><text fill="black" stroke="none" font-family="helvetica" font-size="14pt" font-style="normal" font-weight="normal" text-decoration="normal" x="0" y="15" text-anchor="start" dominant-baseline="alphabetic" transform="matrix(1, 0, 0, 1, 5.5, 7.5)">C. London</text><text fill="none" stroke="rgb(0,0,0)" font-family="helvetica" font-size="14pt" font-style="normal" font-weight="normal" text-decoration="normal" x="0" y="15" text-anchor="start" dominant-baseline="alphabetic" transform="matrix(1, 0, 0, 1, 5.5, 7.5)" stroke-opacity="0" stroke-linejoin="bevel" stroke-miterlimit="10">C. London</text></svg>