<svg version="1.1" xmlns="http://www.w3.org/2000/svg" width="605" height="331"><defs><clipPath id="JqRAtMvnRkEa"><path fill="none" stroke="none" d="M 75.5 32.5 L 575.5 32.5 L 575.5 282.5 L 75.5 282.5 L 75.5 32.5 Z"/></clipPath><clipPath id="wpEvilOwhmXN"><path fill="none" stroke="none" d="M 75.5 32.5 L 575.5 32.5 L 575.5 282.5 L 75.5 282.5 L 75.5 32.5 Z"/></clipPath><clipPath id="OpQqhxBTWSvt"><path fill="none" stroke="none" d="M 75.5 32.5 L 575.5 32.5 L 575.5 282.5 L 75.5 282.5 L 75.5 32.5 Z"/></clipPath><clipPath id="NPPVTyWPORNk"><path fill="none" stroke="none" d="M 75.5 32.5 L 575.5 32.5 L 575.5 282.5 L 75.5 282.5 L 75.5 32.5 Z"/></clipPath><clipPath id="wcxtIcMSmJgr"><path fill="none" stroke="none" d="M 75.5 32.5 L 575.5 32.5 L 575.5 282.5 L 75.5 282.5 L 75.5 32.5 Z"/></clipPath><clipPath id="BHiznRtGcRXf"><path fill="none" stroke="none" d="M 75.5 32.5 L 575.5 32.5 L 575.5 282.5 L 75.5 282.5 L 75.5 32.5 Z"/></clipPath><clipPath id="xBxvbbiMoyth"><path fill="none" stroke="none" d="M 75.5 32.5 L 575.5 32.5 L 575.5 282.5 L 75.5 282.5 L 75.5 32.5 Z"/></clipPath><clipPath id="wuSXzaXbeWXt"><path fill="none" stroke="none" d="M 75.5 32.5 L 575.5 32.5 L 575.5 282.5 L 75.5 282.5 L 75.5 32.5 Z"/></clipPath><clipPath id="CNnszDcNdmgL"><path fill="none" stroke="none" d="M 75.5 32.5 L 575.5 32.5 L 575.5 282.5 L 75.5 282.5 L 75.5 32.5 Z"/></clipPath><clipPath id="TpuLsCsFfELc"><path fill="none" stroke="none" d="M 75.5 32.5 L 575.5 32.5 L 575.5 282.5 L 75.5 282.5 L 75.5 32.5 Z"/></clipPath><clipPath id="XrBdQXARGCNK"><path fill="none" stroke="none" d="M 75.5 32.5 L 575.5 32.5 L 575.5 282.5 L 75.5 282.5 L 75.5 32.5 Z"/></clipPath><clipPath id="hAGMVgwotBTN"><path fill="none" stroke="none" d="M 75.5 32.5 L 575.5 32.5 L 575.5 282.5 L 75.5 282.5 L 75.5 32.5 Z"/></clipPath><clipPath id="gniBZuDOBbNv"><path fill="none" stroke="none" d="M 75.5 32.5 L 575.5 32.5 L 575.5 282.5 L 75.5 282.5 L 75.5 32.5 Z"/></clipPath><clipPath id="KVbRTzGoOrVP"><path fill="none" stroke="none" d="M 75.5 32.5 L 575.5 32.5 L 575.5 282.5 L 75.5 282.5 L 75.5 32.5 Z"/></clipPath><clipPath id="nWptpFNlXEZX"><path fill="none" stroke="none" d="M 75.5 32.5 L 575.5 32.5 L 575.5 282.5 L 75.5 282.5 L 75.5 32.5 Z"/></clipPath><clipPath id="TVTUineOaLIl"><path fill="none" stroke="none" d="M 75.5 32.5 L 575.5 32.5 L 575.5 282.5 L 75.5 282.5 L 75.5 32.5 Z"/></clipPath><clipPath id="JfPGcUmaTHLs"><path fill="none" stroke="none" d="M 75.5 32.5 L 575.5 32.5 L 575.5 282.5 L 75.5 282.5 L 75.5 32.5 Z"/></clipPath><clipPath id="lWpOAEiutwSu"><path fill="none" stroke="none" d="M 75.5 32.5 L 575.5 32.5 L 575.5 282.5 L 75.5 282.5 L 75.5 32.5 Z"/></clipPath><clipPath id="VDCktMUDNnTZ"><path fill="none" stroke="none" d="M 75.5 32.5 L 575.5 32.5 L 575.5 282.5 L 75.5 282.5 L 75.5 32.5 Z"/></clipPath><clipPath id="ZdqiOByzVDnC"><path fill="none" stroke="none" d="M 75.5 32.5 L 575.5 32.5 L 575.5 282.5 L 75.5 282.5 L 75.5 32.5 Z"/></clipPath><clipPath id="DginKvXDnJlJ"><path fill="none" stroke="none" d="M 75.5 32.5 L 575.5 32.5 L 575.5 282.5 L 75.5 282.5 L 75.5 32.5 Z"/></clipPath><clipPath id="rdaQtuRZvPzI"><path fill="none" stroke="none" d="M 75.5 32.5 L 575.5 32.5 L 575.5 282.5 L 75.5 282.5 L 75.5 32.5 Z"/></clipPath><clipPath id="pJbsJcpTieEI"><path fill="none" stroke="none" d="M 75.5 32.5 L 575.5 32.5 L 575.5 282.5 L 75.5 282.5 L 75.5 32.5 Z"/></clipPath></defs><path fill="none" stroke="#e5e5e5" paint-order="fill" d="M 75.5 32.5 L 575.5 32.5 L 575.5 282.5 L 75.5 282.5 L 75.5 32.5 Z" stroke-linejoin="bevel" stroke-miterlimit="10"/><path fill="none" stroke="black" paint-order="fill" d="M 337.46172248803487 32.5 L 337.46172248803487 282.5" stroke-linejoin="bevel" stroke-miterlimit="10" stroke-width="3" stroke-dasharray="6" clip-path="url(#OpQqhxBTWSvt)"/><path fill="none" stroke="#9467bd" paint-order="fill" d="M 98.2272720336914 75.95123291015625 L 122.15071868896484 86.3132095336914 L 146.07415771484375 79.40522003173828 L 169.9976043701172 81.47761535644531 L 193.92105102539062 73.87883758544922 L 217.84449768066406 91.14879608154297 L 241.7679443359375 75.26042938232422 L 265.6913757324219 87.69480895996094 L 289.6148376464844 85.62240600585938 L 313.53826904296875 72.49723815917969" stroke-linejoin="bevel" stroke-miterlimit="10" stroke-width="2" clip-path="url(#NPPVTyWPORNk)"/><path fill="none" stroke="#9467bd" paint-order="fill" d="M 98.2272720336914 75.95123291015625 L 122.15071868896484 86.3132095336914 L 146.07415771484375 79.40522003173828 L 169.9976043701172 81.47761535644531 L 193.92105102539062 73.87883758544922 L 217.84449768066406 91.14879608154297 L 241.7679443359375 75.26042938232422 L 265.6913757324219 87.69480895996094 L 289.6148376464844 85.62240600585938 L 313.53826904296875 72.49723815917969" stroke-linejoin="bevel" stroke-miterlimit="10" stroke-width="2" stroke-dasharray="6" clip-path="url(#wcxtIcMSmJgr)"/><path fill="none" stroke="#30a2da" paint-order="fill" d="M 313.53826904296875 72.49723815917969 L 337.46173095703125 70.42484283447266 L 361.3851623535156 93.22119140625 L 385.3086242675781 68.35244750976562 L 409.2320556640625 87.69480895996094 L 433.155517578125 90.45800018310547 L 457.0789489746094 87.69480895996094 L 481.00238037109375 85.62240600585938 L 504.92584228515625 79.40522003173828 L 528.8493041992188 80.09602355957031 L 552.772705078125 89.76720428466797" stroke-linejoin="bevel" stroke-miterlimit="10" stroke-width="2" clip-path="url(#BHiznRtGcRXf)"/><path fill="none" stroke="#30a2da" paint-order="fill" d="M 337.46173095703125 79.76946258544922 L 361.3851623535156 80.54817962646484 L 385.3086242675781 81.32689666748047 L 409.2320556640625 82.1056137084961 L 433.155517578125 82.88433837890625 L 457.0789489746094 83.66305541992188 L 481.00238037109375 84.4417724609375 L 504.92584228515625 85.22048950195312 L 528.8493041992188 85.99920654296875 L 552.772705078125 86.77792358398438" stroke-linejoin="bevel" stroke-miterlimit="10" stroke-width="2" stroke-dasharray="6" clip-path="url(#xBxvbbiMoyth)"/><path fill="none" stroke="#fc4f30" paint-order="fill" d="M 313.53826904296875 72.49723815917969 L 337.46173095703125 81.47761535644531 L 361.3851623535156 98.7475814819336 L 385.3086242675781 96.67518615722656 L 409.2320556640625 89.76720428466797 L 433.155517578125 94.60279083251953 L 457.0789489746094 76.64202880859375 L 481.00238037109375 88.38560485839844 L 504.92584228515625 94.60279083251953 L 528.8493041992188 91.839599609375 L 552.772705078125 78.02362823486328" stroke-linejoin="bevel" stroke-miterlimit="10" stroke-width="2" clip-path="url(#wuSXzaXbeWXt)"/><path fill="none" stroke="#fc4f30" paint-order="fill" d="M 337.46173095703125 92.12847900390625 L 361.3851623535156 91.45024108886719 L 385.3086242675781 90.7719955444336 L 409.2320556640625 90.09375762939453 L 433.155517578125 89.41551971435547 L 457.0789489746094 88.7372817993164 L 481.00238037109375 88.05904388427734 L 504.92584228515625 87.38080596923828 L 528.8493041992188 86.70256805419922 L 552.772705078125 86.02433013916016" stroke-linejoin="bevel" stroke-miterlimit="10" stroke-width="2" stroke-dasharray="6" clip-path="url(#CNnszDcNdmgL)"/><path fill="none" stroke="rgb(128,128,128)" paint-order="fill" d="M 98.2272720336914 75.95123291015625 L 122.15071868896484 73.87883758544922 L 146.07415771484375 82.85921478271484 L 169.9976043701172 80.09602355957031 L 193.92105102539062 80.09602355957031 L 217.84449768066406 84.24081420898438 L 241.7679443359375 80.78681945800781 L 265.6913757324219 82.85921478271484 L 289.6148376464844 75.95123291015625 L 313.53826904296875 83.55001068115234" stroke-opacity="0.7490196078431373" stroke-linejoin="bevel" stroke-miterlimit="10" clip-path="url(#TpuLsCsFfELc)"/><path fill="none" stroke="grey" paint-order="fill" d="M 313.53826904296875 83.55001068115234 L 337.46173095703125 89.07640075683594 L 361.3851623535156 94.60279083251953 L 385.3086242675781 80.09602355957031 L 409.2320556640625 89.76720428466797 L 433.155517578125 98.7475814819336 L 457.0789489746094 74.56963348388672 L 481.00238037109375 73.87883758544922 L 504.92584228515625 80.78681945800781 L 528.8493041992188 84.93161010742188 L 552.772705078125 91.14879608154297" stroke-linejoin="bevel" stroke-miterlimit="10" stroke-width="0.5" clip-path="url(#XrBdQXARGCNK)"/><path fill="none" stroke="grey" paint-order="fill" d="M 313.53826904296875 83.55001068115234 L 337.46173095703125 75.95123291015625 L 361.3851623535156 93.22119140625 L 385.3086242675781 89.07640075683594 L 409.2320556640625 84.24081420898438 L 433.155517578125 85.62240600585938 L 457.0789489746094 97.36598205566406 L 481.00238037109375 87.69480895996094 L 504.92584228515625 70.42484283447266 L 528.8493041992188 95.98439025878906 L 552.772705078125 91.14879608154297" stroke-linejoin="bevel" stroke-miterlimit="10" stroke-width="0.5" clip-path="url(#hAGMVgwotBTN)"/><path fill="none" stroke="rgb(128,128,128)" paint-order="fill" d="M 98.2272720336914 83.55001068115234 L 122.15071868896484 70.42484283447266 L 146.07415771484375 82.16841888427734 L 169.9976043701172 86.3132095336914 L 193.92105102539062 82.85921478271484 L 217.84449768066406 87.69480895996094 L 241.7679443359375 79.40522003173828 L 265.6913757324219 80.09602355957031 L 289.6148376464844 93.22119140625 L 313.53826904296875 81.47761535644531" stroke-opacity="0.7490196078431373" stroke-linejoin="bevel" stroke-miterlimit="10" clip-path="url(#gniBZuDOBbNv)"/><path fill="none" stroke="grey" paint-order="fill" d="M 313.53826904296875 81.47761535644531 L 337.46173095703125 73.18803405761719 L 361.3851623535156 80.09602355957031 L 385.3086242675781 78.71442413330078 L 409.2320556640625 98.7475814819336 L 433.155517578125 66.2800521850586 L 457.0789489746094 94.60279083251953 L 481.00238037109375 89.76720428466797 L 504.92584228515625 78.02362823486328 L 528.8493041992188 93.91199493408203 L 552.772705078125 87.69480895996094" stroke-linejoin="bevel" stroke-miterlimit="10" stroke-width="0.5" clip-path="url(#KVbRTzGoOrVP)"/><path fill="none" stroke="grey" paint-order="fill" d="M 313.53826904296875 81.47761535644531 L 337.46173095703125 83.55001068115234 L 361.3851623535156 76.64202880859375 L 385.3086242675781 79.40522003173828 L 409.2320556640625 66.9708480834961 L 433.155517578125 84.93161010742188 L 457.0789489746094 82.16841888427734 L 481.00238037109375 81.47761535644531 L 504.92584228515625 81.47761535644531 L 528.8493041992188 78.02362823486328 L 552.772705078125 94.60279083251953" stroke-linejoin="bevel" stroke-miterlimit="10" stroke-width="0.5" clip-path="url(#nWptpFNlXEZX)"/><path fill="none" stroke="rgb(128,128,128)" paint-order="fill" d="M 98.2272720336914 91.14879608154297 L 122.15071868896484 78.02362823486328 L 146.07415771484375 74.56963348388672 L 169.9976043701172 90.45800018310547 L 193.92105102539062 84.93161010742188 L 217.84449768066406 95.29358673095703 L 241.7679443359375 95.29358673095703 L 265.6913757324219 84.24081420898438 L 289.6148376464844 91.14879608154297 L 313.53826904296875 91.14879608154297" stroke-opacity="0.7490196078431373" stroke-linejoin="bevel" stroke-miterlimit="10" clip-path="url(#TVTUineOaLIl)"/><path fill="none" stroke="grey" paint-order="fill" d="M 313.53826904296875 91.14879608154297 L 337.46173095703125 82.85921478271484 L 361.3851623535156 55.227272033691406 L 385.3086242675781 91.839599609375 L 409.2320556640625 79.40522003173828 L 433.155517578125 93.91199493408203 L 457.0789489746094 87.0040054321289 L 481.00238037109375 80.09602355957031 L 504.92584228515625 82.16841888427734 L 528.8493041992188 95.98439025878906 L 552.772705078125 66.2800521850586" stroke-linejoin="bevel" stroke-miterlimit="10" stroke-width="0.5" clip-path="url(#JfPGcUmaTHLs)"/><path fill="none" stroke="grey" paint-order="fill" d="M 313.53826904296875 91.14879608154297 L 337.46173095703125 80.09602355957031 L 361.3851623535156 64.2076530456543 L 385.3086242675781 98.0567855834961 L 409.2320556640625 102.20157623291016 L 433.155517578125 84.93161010742188 L 457.0789489746094 77.33282470703125 L 481.00238037109375 90.45800018310547 L 504.92584228515625 85.62240600585938 L 528.8493041992188 70.42484283447266 L 552.772705078125 84.93161010742188" stroke-linejoin="bevel" stroke-miterlimit="10" stroke-width="0.5" clip-path="url(#lWpOAEiutwSu)"/><path fill="none" stroke="rgb(128,128,128)" paint-order="fill" d="M 98.2272720336914 70.42484283447266 L 122.15071868896484 84.24081420898438 L 146.07415771484375 78.02362823486328 L 169.9976043701172 75.26042938232422 L 193.92105102539062 85.62240600585938 L 217.84449768066406 69.04324340820312 L 241.7679443359375 85.62240600585938 L 265.6913757324219 81.47761535644531 L 289.6148376464844 92.5303955078125 L 313.53826904296875 84.24081420898438" stroke-opacity="0.7490196078431373" stroke-linejoin="bevel" stroke-miterlimit="10" clip-path="url(#VDCktMUDNnTZ)"/><path fill="none" stroke="grey" paint-order="fill" d="M 313.53826904296875 84.24081420898438 L 337.46173095703125 66.9708480834961 L 361.3851623535156 106.34636688232422 L 385.3086242675781 77.33282470703125 L 409.2320556640625 62.135257720947266 L 433.155517578125 80.78681945800781 L 457.0789489746094 81.47761535644531 L 481.00238037109375 73.87883758544922 L 504.92584228515625 75.95123291015625 L 528.8493041992188 95.98439025878906 L 552.772705078125 72.49723815917969" stroke-linejoin="bevel" stroke-miterlimit="10" stroke-width="0.5" clip-path="url(#ZdqiOByzVDnC)"/><path fill="none" stroke="grey" paint-order="fill" d="M 313.53826904296875 84.24081420898438 L 337.46173095703125 74.56963348388672 L 361.3851623535156 85.62240600585938 L 385.3086242675781 85.62240600585938 L 409.2320556640625 73.18803405761719 L 433.155517578125 91.839599609375 L 457.0789489746094 86.3132095336914 L 481.00238037109375 66.2800521850586 L 504.92584228515625 82.85921478271484 L 528.8493041992188 84.24081420898438 L 552.772705078125 95.29358673095703" stroke-linejoin="bevel" stroke-miterlimit="10" stroke-width="0.5" clip-path="url(#DginKvXDnJlJ)"/><path fill="none" stroke="black" paint-order="fill" d="M 75.5 282.5 L 575.5 282.5" stroke-linejoin="bevel" stroke-miterlimit="10"/><path fill="none" stroke="black" paint-order="fill" d="M 98.5 288.5 L 98.5 280.5 M 217.5 288.5 L 217.5 280.5 M 337.5 288.5 L 337.5 280.5 M 457.5 288.5 L 457.5 280.5" stroke-linejoin="bevel" stroke-miterlimit="10"/><path fill="none" stroke="black" paint-order="fill" d="M 98.5 286.5 L 98.5 282.5 M 122.5 286.5 L 122.5 282.5 M 146.5 286.5 L 146.5 282.5 M 169.5 286.5 L 169.5 282.5 M 193.5 286.5 L 193.5 282.5 M 217.5 286.5 L 217.5 282.5 M 241.5 286.5 L 241.5 282.5 M 265.5 286.5 L 265.5 282.5 M 289.5 286.5 L 289.5 282.5 M 313.5 286.5 L 313.5 282.5 M 337.5 286.5 L 337.5 282.5 M 361.5 286.5 L 361.5 282.5 M 385.5 286.5 L 385.5 282.5 M 409.5 286.5 L 409.5 282.5 M 433.5 286.5 L 433.5 282.5 M 457.5 286.5 L 457.5 282.5 M 481.5 286.5 L 481.5 282.5 M 504.5 286.5 L 504.5 282.5 M 528.5 286.5 L 528.5 282.5 M 552.5 286.5 L 552.5 282.5" stroke-linejoin="bevel" stroke-miterlimit="10"/><text fill="#444444" stroke="none" font-family="helvetica" font-size="10pt" font-style="normal" font-weight="normal" text-decoration="normal" x="82.82727241516113" y="302.59368896484375" text-anchor="start" dominant-baseline="alphabetic" transform="matrix(1, 0, 0, 1, 0.5, 0.5)">2025</text><text fill="none" stroke="rgb(0,0,0)" font-family="helvetica" font-size="10pt" font-style="normal" font-weight="normal" text-decoration="normal" x="82.82727241516113" y="302.59368896484375" text-anchor="start" dominant-baseline="alphabetic" transform="matrix(1, 0, 0, 1, 0.5, 0.5)" stroke-opacity="0" stroke-linejoin="bevel" stroke-miterlimit="10">2025</text><text fill="#444444" stroke="none" font-family="helvetica" font-size="10pt" font-style="normal" font-weight="normal" text-decoration="normal" x="202.4444980621338" y="302.59368896484375" text-anchor="start" dominant-baseline="alphabetic" transform="matrix(1, 0, 0, 1, 0.5, 0.5)">2030</text><text fill="none" stroke="rgb(0,0,0)" font-family="helvetica" font-size="10pt" font-style="normal" font-weight="normal" text-decoration="normal" x="202.4444980621338" y="302.59368896484375" text-anchor="start" dominant-baseline="alphabetic" transform="matrix(1, 0, 0, 1, 0.5, 0.5)" stroke-opacity="0" stroke-linejoin="bevel" stroke-miterlimit="10">2030</text><text fill="#444444" stroke="none" font-family="helvetica" font-size="10pt" font-style="normal" font-weight="normal" text-decoration="normal" x="322.061731338501" y="302.59368896484375" text-anchor="start" dominant-baseline="alphabetic" transform="matrix(1, 0, 0, 1, 0.5, 0.5)">2035</text><text fill="none" stroke="rgb(0,0,0)" font-family="helvetica" font-size="10pt" font-style="normal" font-weight="normal" text-decoration="normal" x="322.061731338501" y="302.59368896484375" text-anchor="start" dominant-baseline="alphabetic" transform="matrix(1, 0, 0, 1, 0.5, 0.5)" stroke-opacity="0" stroke-linejoin="bevel" stroke-miterlimit="10">2035</text><text fill="#444444" stroke="none" font-family="helvetica" font-size="10pt" font-style="normal" font-weight="normal" text-decoration="normal" x="441.6789493560791" y="302.59368896484375" text-anchor="start" dominant-baseline="alphabetic" transform="matrix(1, 0, 0, 1, 0.5, 0.5)">2040</text><text fill="none" stroke="rgb(0,0,0)" font-family="helvetica" font-size="10pt" font-style="normal" font-weight="normal" text-decoration="normal" x="441.6789493560791" y="302.59368896484375" text-anchor="start" dominant-baseline="alphabetic" transform="matrix(1, 0, 0, 1, 0.5, 0.5)" stroke-opacity="0" stroke-linejoin="bevel" stroke-miterlimit="10">2040</text><text fill="#444444" stroke="none" font-family="helvetica" font-size="12pt" font-style="normal" font-weight="normal" text-decoration="normal" x="308.8333339691162" y="323.59368896484375" text-anchor="start" dominant-baseline="alphabetic" transform="matrix(1, 0, 0, 1, 0.5, 0.5)">Year</text><text fill="none" stroke="rgb(0,0,0)" font-family="helvetica" font-size="12pt" font-style="normal" font-weight="normal" text-decoration="normal" x="308.8333339691162" y="323.59368896484375" text-anchor="start" dominant-baseline="alphabetic" transform="matrix(1, 0, 0, 1, 0.5, 0.5)" stroke-opacity="0" stroke-linejoin="bevel" stroke-miterlimit="10">Year</text><path fill="none" stroke="black" paint-order="fill" d="M 75.5 282.5 L 75.5 32.5" stroke-linejoin="bevel" stroke-miterlimit="10"/><path fill="none" stroke="black" paint-order="fill" d="M 69.5 282.5 L 77.5 282.5 M 69.5 247.5 L 77.5 247.5 M 69.5 213.5 L 77.5 213.5 M 69.5 178.5 L 77.5 178.5 M 69.5 144.5 L 77.5 144.5 M 69.5 109.5 L 77.5 109.5 M 69.5 75.5 L 77.5 75.5 M 69.5 40.5 L 77.5 40.5" stroke-linejoin="bevel" stroke-miterlimit="10"/><path fill="none" stroke="black" paint-order="fill" d="M 71.5 282.5 L 75.5 282.5 M 71.5 275.5 L 75.5 275.5 M 71.5 268.5 L 75.5 268.5 M 71.5 261.5 L 75.5 261.5 M 71.5 254.5 L 75.5 254.5 M 71.5 247.5 L 75.5 247.5 M 71.5 241.5 L 75.5 241.5 M 71.5 234.5 L 75.5 234.5 M 71.5 227.5 L 75.5 227.5 M 71.5 220.5 L 75.5 220.5 M 71.5 213.5 L 75.5 213.5 M 71.5 206.5 L 75.5 206.5 M 71.5 199.5 L 75.5 199.5 M 71.5 192.5 L 75.5 192.5 M 71.5 185.5 L 75.5 185.5 M 71.5 178.5 L 75.5 178.5 M 71.5 171.5 L 75.5 171.5 M 71.5 165.5 L 75.5 165.5 M 71.5 158.5 L 75.5 158.5 M 71.5 151.5 L 75.5 151.5 M 71.5 144.5 L 75.5 144.5 M 71.5 137.5 L 75.5 137.5 M 71.5 130.5 L 75.5 130.5 M 71.5 123.5 L 75.5 123.5 M 71.5 116.5 L 75.5 116.5 M 71.5 109.5 L 75.5 109.5 M 71.5 102.5 L 75.5 102.5 M 71.5 95.5 L 75.5 95.5 M 71.5 89.5 L 75.5 89.5 M 71.5 82.5 L 75.5 82.5 M 71.5 75.5 L 75.5 75.5 M 71.5 68.5 L 75.5 68.5 M 71.5 61.5 L 75.5 61.5 M 71.5 54.5 L 75.5 54.5 M 71.5 47.5 L 75.5 47.5 M 71.5 40.5 L 75.5 40.5 M 71.5 33.5 L 75.5 33.5" stroke-linejoin="bevel" stroke-miterlimit="10"/><text fill="#444444" stroke="none" font-family="helvetica" font-size="10pt" font-style="normal" font-weight="normal" text-decoration="normal" x="56.55000019073486" y="286.7968444824219" text-anchor="start" dominant-baseline="alphabetic" transform="matrix(1, 0, 0, 1, 0.5, 0.5)">0</text><text fill="none" stroke="rgb(0,0,0)" font-family="helvetica" font-size="10pt" font-style="normal" font-weight="normal" text-decoration="normal" x="56.55000019073486" y="286.7968444824219" text-anchor="start" dominant-baseline="alphabetic" transform="matrix(1, 0, 0, 1, 0.5, 0.5)" stroke-opacity="0" stroke-linejoin="bevel" stroke-miterlimit="10">0</text><text fill="#444444" stroke="none" font-family="helvetica" font-size="10pt" font-style="normal" font-weight="normal" text-decoration="normal" x="49.10000038146973" y="252.2569122314453" text-anchor="start" dominant-baseline="alphabetic" transform="matrix(1, 0, 0, 1, 0.5, 0.5)">50</text><text fill="none" stroke="rgb(0,0,0)" font-family="helvetica" font-size="10pt" font-style="normal" font-weight="normal" text-decoration="normal" x="49.10000038146973" y="252.2569122314453" text-anchor="start" dominant-baseline="alphabetic" transform="matrix(1, 0, 0, 1, 0.5, 0.5)" stroke-opacity="0" stroke-linejoin="bevel" stroke-miterlimit="10">50</text><text fill="#444444" stroke="none" font-family="helvetica" font-size="10pt" font-style="normal" font-weight="normal" text-decoration="normal" x="41.64999961853027" y="217.7169952392578" text-anchor="start" dominant-baseline="alphabetic" transform="matrix(1, 0, 0, 1, 0.5, 0.5)">100</text><text fill="none" stroke="rgb(0,0,0)" font-family="helvetica" font-size="10pt" font-style="normal" font-weight="normal" text-decoration="normal" x="41.64999961853027" y="217.7169952392578" text-anchor="start" dominant-baseline="alphabetic" transform="matrix(1, 0, 0, 1, 0.5, 0.5)" stroke-opacity="0" stroke-linejoin="bevel" stroke-miterlimit="10">100</text><text fill="#444444" stroke="none" font-family="helvetica" font-size="10pt" font-style="normal" font-weight="normal" text-decoration="normal" x="41.64999961853027" y="183.17706298828125" text-anchor="start" dominant-baseline="alphabetic" transform="matrix(1, 0, 0, 1, 0.5, 0.5)">150</text><text fill="none" stroke="rgb(0,0,0)" font-family="helvetica" font-size="10pt" font-style="normal" font-weight="normal" text-decoration="normal" x="41.64999961853027" y="183.17706298828125" text-anchor="start" dominant-baseline="alphabetic" transform="matrix(1, 0, 0, 1, 0.5, 0.5)" stroke-opacity="0" stroke-linejoin="bevel" stroke-miterlimit="10">150</text><text fill="#444444" stroke="none" font-family="helvetica" font-size="10pt" font-style="normal" font-weight="normal" text-decoration="normal" x="41.64999961853027" y="148.6371307373047" text-anchor="start" dominant-baseline="alphabetic" transform="matrix(1, 0, 0, 1, 0.5, 0.5)">200</text><text fill="none" stroke="rgb(0,0,0)" font-family="helvetica" font-size="10pt" font-style="normal" font-weight="normal" text-decoration="normal" x="41.64999961853027" y="148.6371307373047" text-anchor="start" dominant-baseline="alphabetic" transform="matrix(1, 0, 0, 1, 0.5, 0.5)" stroke-opacity="0" stroke-linejoin="bevel" stroke-miterlimit="10">200</text><text fill="#444444" stroke="none" font-family="helvetica" font-size="10pt" font-style="normal" font-weight="normal" text-decoration="normal" x="41.64999961853027" y="114.09720611572266" text-anchor="start" dominant-baseline="alphabetic" transform="matrix(1, 0, 0, 1, 0.5, 0.5)">250</text><text fill="none" stroke="rgb(0,0,0)" font-family="helvetica" font-size="10pt" font-style="normal" font-weight="normal" text-decoration="normal" x="41.64999961853027" y="114.09720611572266" text-anchor="start" dominant-baseline="alphabetic" transform="matrix(1, 0, 0, 1, 0.5, 0.5)" stroke-opacity="0" stroke-linejoin="bevel" stroke-miterlimit="10">250</text><text fill="#444444" stroke="none" font-family="helvetica" font-size="10pt" font-style="normal" font-weight="normal" text-decoration="normal" x="41.64999961853027" y="79.5572738647461" text-anchor="start" dominant-baseline="alphabetic" transform="matrix(1, 0, 0, 1, 0.5, 0.5)">300</text><text fill="none" stroke="rgb(0,0,0)" font-family="helvetica" font-size="10pt" font-style="normal" font-weight="normal" text-decoration="normal" x="41.64999961853027" y="79.5572738647461" text-anchor="start" dominant-baseline="alphabetic" transform="matrix(1, 0, 0, 1, 0.5, 0.5)" stroke-opacity="0" stroke-linejoin="bevel" stroke-miterlimit="10">300</text><text fill="#444444" stroke="none" font-family="helvetica" font-size="10pt" font-style="normal" font-weight="normal" text-decoration="normal" x="41.64999961853027" y="45.01734924316406" text-anchor="start" dominant-baseline="alphabetic" transform="matrix(1, 0, 0, 1, 0.5, 0.5)">350</text><text fill="none" stroke="rgb(0,0,0)" font-family="helvetica" font-size="10pt" font-style="normal" font-weight="normal" text-decoration="normal" x="41.64999961853027" y="45.01734924316406" text-anchor="start" dominant-baseline="alphabetic" transform="matrix(1, 0, 0, 1, 0.5, 0.5)" stroke-opacity="0" stroke-linejoin="bevel" stroke-miterlimit="10">350</text><text fill="#444444" stroke="none" font-family="helvetica" font-size="12pt" font-style="normal" font-weight="normal" text-decoration="normal" x="-73.07499885559082" y="153" text-anchor="start" dominant-baseline="alphabetic" transform="matrix(6.123233995736766e-17, -1, 1, 6.123233995736766e-17, -122.85000038146973, 191.14999961853027)">Days suitable for transmission</text><text fill="none" stroke="rgb(0,0,0)" font-family="helvetica" font-size="12pt" font-style="normal" font-weight="normal" text-decoration="normal" x="-73.07499885559082" y="153" text-anchor="start" dominant-baseline="alphabetic" transform="matrix(6.123233995736766e-17, -1, 1, 6.123233995736766e-17, -122.85000038146973, 191.14999961853027)" stroke-opacity="0" stroke-linejoin="bevel" stroke-miterlimit="10">Days suitable for transmission</text><path fill="rgb(255,255,255)" stroke="rgb(229,229,229)" paint-order="fill" d="M 480.183349609375 207.5 L 565.5000152587891 207.5 L 565.5000152587891 272.5 L 480.183349609375 272.5 L 480.183349609375 207.5 Z" fill-opacity="0.9490196078431372" clip-path="url(#rdaQtuRZvPzI)" stroke-opacity="0.5019607843137255" stroke-linejoin="bevel" stroke-miterlimit="10"/><g clip-path="url(#rdaQtuRZvPzI)"><g transform="matrix(1, 0, 0, 1, 490.683349609375, 218)"><path fill="none" stroke="#30a2da" paint-order="fill" d="M 0.5 10.5 L 20.5 10.5" stroke-linejoin="bevel" stroke-miterlimit="10" stroke-width="2"/></g></g><g clip-path="url(#rdaQtuRZvPzI)"><text fill="#444444" stroke="none" font-family="helvetica" font-size="13px" font-style="normal" font-weight="normal" text-decoration="normal" x="515.683349609375" y="232" text-anchor="start" dominant-baseline="alphabetic" transform="matrix(1, 0, 0, 1, 0.5, 0.5)">ID 001</text></g><g clip-path="url(#rdaQtuRZvPzI)"><text fill="none" stroke="rgb(0,0,0)" font-family="helvetica" font-size="13px" font-style="normal" font-weight="normal" text-decoration="normal" x="515.683349609375" y="232" text-anchor="start" dominant-baseline="alphabetic" transform="matrix(1, 0, 0, 1, 0.5, 0.5)" stroke-opacity="0" stroke-linejoin="bevel" stroke-miterlimit="10">ID 001</text></g><g clip-path="url(#rdaQtuRZvPzI)"><g transform="matrix(1, 0, 0, 1, 490.683349609375, 241)"><path fill="none" stroke="#fc4f30" paint-order="fill" d="M 0.5 10.5 L 20.5 10.5" stroke-linejoin="bevel" stroke-miterlimit="10" stroke-width="2"/></g></g><g clip-path="url(#rdaQtuRZvPzI)"><text fill="#444444" stroke="none" font-family="helvetica" font-size="13px" font-style="normal" font-weight="normal" text-decoration="normal" x="515.683349609375" y="255" text-anchor="start" dominant-baseline="alphabetic" transform="matrix(1, 0, 0, 1, 0.5, 0.5)">ID 006</text></g><g clip-path="url(#rdaQtuRZvPzI)"><text fill="none" stroke="rgb(0,0,0)" font-family="helvetica" font-size="13px" font-style="normal" font-weight="normal" text-decoration="normal" x="515.683349609375" y="255" text-anchor="start" dominant-baseline="alphabetic" transform="matrix(1, 0, 0, 1, 0.5, 0.5)" stroke-opacity="0" stroke-linejoin="bevel" stroke-miterlimit="10">ID 006</text></g><text fill="black" stroke="none" font-family="helvetica" font-size="14pt" font-style="normal" font-weight="normal" text-decoration="normal" x="0" y="15" text-anchor="start" dominant-baseline="alphabetic" transform="matrix(1, 0, 0, 1, 5.5, 7.5)">F. Hanoi</text><text fill="none" stroke="rgb(0,0,0)" font-family="helvetica" font-size="14pt" font-style="normal" font-weight="normal" text-decoration="normal" x="0" y="15" text-anchor="start" dominant-baseline="alphabetic" transform="matrix(1, 0, 0, 1, 5.5, 7.5)" stroke-opacity="0" stroke-linejoin="bevel" stroke-miterlimit="10">F. Hanoi</text></svg>