<svg version="1.1" xmlns="http://www.w3.org/2000/svg" width="600" height="329"><defs><clipPath id="JZyrcJECZETP"><path fill="none" stroke="none" d="M 70.5 30.5 L 570.5 30.5 L 570.5 280.5 L 70.5 280.5 L 70.5 30.5 Z"/></clipPath><clipPath id="XgpsmwzvktTG"><path fill="none" stroke="none" d="M 70.5 30.5 L 570.5 30.5 L 570.5 280.5 L 70.5 280.5 L 70.5 30.5 Z"/></clipPath><clipPath id="DnGLqCVaSNNU"><path fill="none" stroke="none" d="M 70.5 30.5 L 570.5 30.5 L 570.5 280.5 L 70.5 280.5 L 70.5 30.5 Z"/></clipPath><clipPath id="ftzazZyWzWKZ"><path fill="none" stroke="none" d="M 70.5 30.5 L 570.5 30.5 L 570.5 280.5 L 70.5 280.5 L 70.5 30.5 Z"/></clipPath><clipPath id="ZQGUPpwUkAhd"><path fill="none" stroke="none" d="M 70.5 30.5 L 570.5 30.5 L 570.5 280.5 L 70.5 280.5 L 70.5 30.5 Z"/></clipPath><clipPath id="MKVMextAwtHQ"><path fill="none" stroke="none" d="M 70.5 30.5 L 570.5 30.5 L 570.5 280.5 L 70.5 280.5 L 70.5 30.5 Z"/></clipPath><clipPath id="cpgDfoAJBTNd"><path fill="none" stroke="none" d="M 70.5 30.5 L 570.5 30.5 L 570.5 280.5 L 70.5 280.5 L 70.5 30.5 Z"/></clipPath><clipPath id="KDFuNByDmkVB"><path fill="none" stroke="none" d="M 70.5 30.5 L 570.5 30.5 L 570.5 280.5 L 70.5 280.5 L 70.5 30.5 Z"/></clipPath><clipPath id="HHhLrGfFOSUv"><path fill="none" stroke="none" d="M 70.5 30.5 L 570.5 30.5 L 570.5 280.5 L 70.5 280.5 L 70.5 30.5 Z"/></clipPath><clipPath id="mbOFnygbcEUU"><path fill="none" stroke="none" d="M 70.5 30.5 L 570.5 30.5 L 570.5 280.5 L 70.5 280.5 L 70.5 30.5 Z"/></clipPath><clipPath id="PilvUqmenXLq"><path fill="none" stroke="none" d="M 70.5 30.5 L 570.5 30.5 L 570.5 280.5 L 70.5 280.5 L 70.5 30.5 Z"/></clipPath><clipPath id="rHZfMXtemuBV"><path fill="none" stroke="none" d="M 70.5 30.5 L 570.5 30.5 L 570.5 280.5 L 70.5 280.5 L 70.5 30.5 Z"/></clipPath><clipPath id="wQMHsuZIzvqi"><path fill="none" stroke="none" d="M 70.5 30.5 L 570.5 30.5 L 570.5 280.5 L 70.5 280.5 L 70.5 30.5 Z"/></clipPath><clipPath id="ywEhEnomLWVT"><path fill="none" stroke="none" d="M 70.5 30.5 L 570.5 30.5 L 570.5 280.5 L 70.5 280.5 L 70.5 30.5 Z"/></clipPath><clipPath id="oHKJTltdufOt"><path fill="none" stroke="none" d="M 70.5 30.5 L 570.5 30.5 L 570.5 280.5 L 70.5 280.5 L 70.5 30.5 Z"/></clipPath><clipPath id="lUtZupNGPpyP"><path fill="none" stroke="none" d="M 70.5 30.5 L 570.5 30.5 L 570.5 280.5 L 70.5 280.5 L 70.5 30.5 Z"/></clipPath><clipPath id="DBCTDoXMDizw"><path fill="none" stroke="none" d="M 70.5 30.5 L 570.5 30.5 L 570.5 280.5 L 70.5 280.5 L 70.5 30.5 Z"/></clipPath><clipPath id="UDXceXKTlxZl"><path fill="none" stroke="none" d="M 70.5 30.5 L 570.5 30.5 L 570.5 280.5 L 70.5 280.5 L 70.5 30.5 Z"/></clipPath><clipPath id="rWcZIyZcwTLk"><path fill="none" stroke="none" d="M 70.5 30.5 L 570.5 30.5 L 570.5 280.5 L 70.5 280.5 L 70.5 30.5 Z"/></clipPath><clipPath id="wmWhZxXRFktL"><path fill="none" stroke="none" d="M 70.5 30.5 L 570.5 30.5 L 570.5 280.5 L 70.5 280.5 L 70.5 30.5 Z"/></clipPath><clipPath id="dOcITZzVGQCM"><path fill="none" stroke="none" d="M 70.5 30.5 L 570.5 30.5 L 570.5 280.5 L 70.5 280.5 L 70.5 30.5 Z"/></clipPath><clipPath id="JCFWCNusNdwq"><path fill="none" stroke="none" d="M 70.5 30.5 L 570.5 30.5 L 570.5 280.5 L 70.5 280.5 L 70.5 30.5 Z"/></clipPath><clipPath id="AequvulqbQET"><path fill="none" stroke="none" d="M 70.5 30.5 L 570.5 30.5 L 570.5 280.5 L 70.5 280.5 L 70.5 30.5 Z"/></clipPath></defs><path fill="none" stroke="#e5e5e5" paint-order="fill" d="M 70.5 30.5 L 570.5 30.5 L 570.5 280.5 L 70.5 280.5 L 70.5 30.5 Z" stroke-linejoin="bevel" stroke-miterlimit="10"/><path fill="none" stroke="black" paint-order="fill" d="M 332.46172248803487 30.5 L 332.46172248803487 280.5" stroke-linejoin="bevel" stroke-miterlimit="10" stroke-width="3" stroke-dasharray="6" clip-path="url(#DnGLqCVaSNNU)"/><path fill="none" stroke="#9467bd" paint-order="fill" d="M 93.2272720336914 121.04251861572266 L 117.15071868896484 86.21847534179688 L 141.07415771484375 91.71701049804688 L 164.9976043701172 96.29911804199219 L 188.92105102539062 130.2067413330078 L 212.84449768066406 75.22140502929688 L 236.7679443359375 91.71701049804688 L 260.6913757324219 117.3768310546875 L 284.6148376464844 79.80352020263672 L 308.53826904296875 73.38856506347656" stroke-linejoin="bevel" stroke-miterlimit="10" stroke-width="2" clip-path="url(#ftzazZyWzWKZ)"/><path fill="none" stroke="#9467bd" paint-order="fill" d="M 93.2272720336914 121.04251861572266 L 117.15071868896484 86.21847534179688 L 141.07415771484375 91.71701049804688 L 164.9976043701172 96.29911804199219 L 188.92105102539062 130.2067413330078 L 212.84449768066406 75.22140502929688 L 236.7679443359375 91.71701049804688 L 260.6913757324219 117.3768310546875 L 284.6148376464844 79.80352020263672 L 308.53826904296875 73.38856506347656" stroke-linejoin="bevel" stroke-miterlimit="10" stroke-width="2" stroke-dasharray="6" clip-path="url(#ZQGUPpwUkAhd)"/><path fill="none" stroke="#30a2da" paint-order="fill" d="M 308.53826904296875 73.38856506347656 L 332.46173095703125 84.38562774658203 L 356.3851623535156 79.80352020263672 L 380.3086242675781 68.80644989013672 L 404.2320556640625 94.46627807617188 L 428.155517578125 99.04838562011719 L 452.0789489746094 88.05132293701172 L 476.00238037109375 94.46627807617188 L 499.92584228515625 95.38269805908203 L 523.8493041992188 58.725807189941406 L 547.772705078125 96.29911804199219" stroke-linejoin="bevel" stroke-miterlimit="10" stroke-width="2" clip-path="url(#MKVMextAwtHQ)"/><path fill="none" stroke="#30a2da" paint-order="fill" d="M 332.46173095703125 83.7191390991211 L 356.3851623535156 84.21345520019531 L 380.3086242675781 84.707763671875 L 404.2320556640625 85.20207977294922 L 428.155517578125 85.69639587402344 L 452.0789489746094 86.19070434570312 L 476.00238037109375 86.68502044677734 L 499.92584228515625 87.17932891845703 L 523.8493041992188 87.67364501953125 L 547.772705078125 88.16795349121094" stroke-linejoin="bevel" stroke-miterlimit="10" stroke-width="2" stroke-dasharray="6" clip-path="url(#cpgDfoAJBTNd)"/><path fill="none" stroke="#fc4f30" paint-order="fill" d="M 308.53826904296875 73.38856506347656 L 332.46173095703125 110.96187591552734 L 356.3851623535156 77.05425262451172 L 380.3086242675781 87.13489532470703 L 404.2320556640625 105.46334075927734 L 428.155517578125 57.809383392333984 L 452.0789489746094 91.71701049804688 L 476.00238037109375 79.80352020263672 L 499.92584228515625 75.22140502929688 L 523.8493041992188 70.63929748535156 L 547.772705078125 94.46627807617188" stroke-linejoin="bevel" stroke-miterlimit="10" stroke-width="2" clip-path="url(#KDFuNByDmkVB)"/><path fill="none" stroke="#fc4f30" paint-order="fill" d="M 332.46173095703125 93.0999755859375 L 356.3851623535156 91.3060073852539 L 380.3086242675781 89.51203918457031 L 404.2320556640625 87.71807861328125 L 428.155517578125 85.92411041259766 L 452.0789489746094 84.13014221191406 L 476.00238037109375 82.33617401123047 L 499.92584228515625 80.5422134399414 L 523.8493041992188 78.74824523925781 L 547.772705078125 76.95427703857422" stroke-linejoin="bevel" stroke-miterlimit="10" stroke-width="2" stroke-dasharray="6" clip-path="url(#HHhLrGfFOSUv)"/><path fill="none" stroke="rgb(128,128,128)" paint-order="fill" d="M 93.2272720336914 92.63343048095703 L 117.15071868896484 91.71701049804688 L 141.07415771484375 85.30205535888672 L 164.9976043701172 95.38269805908203 L 188.92105102539062 76.13783264160156 L 212.84449768066406 86.21847534179688 L 236.7679443359375 104.54692077636719 L 260.6913757324219 72.47213745117188 L 284.6148376464844 77.97067260742188 L 308.53826904296875 81.63636016845703" stroke-opacity="0.7490196078431373" stroke-linejoin="bevel" stroke-miterlimit="10" clip-path="url(#mbOFnygbcEUU)"/><path fill="none" stroke="grey" paint-order="fill" d="M 308.53826904296875 81.63636016845703 L 332.46173095703125 108.21260833740234 L 356.3851623535156 79.80352020263672 L 380.3086242675781 93.54985046386719 L 404.2320556640625 97.21554565429688 L 428.155517578125 80.71994018554688 L 452.0789489746094 104.54692077636719 L 476.00238037109375 90.80058288574219 L 499.92584228515625 66.9736099243164 L 523.8493041992188 90.80058288574219 L 547.772705078125 100.88123321533203" stroke-linejoin="bevel" stroke-miterlimit="10" stroke-width="0.5" clip-path="url(#PilvUqmenXLq)"/><path fill="none" stroke="grey" paint-order="fill" d="M 308.53826904296875 81.63636016845703 L 332.46173095703125 121.04251861572266 L 356.3851623535156 85.30205535888672 L 380.3086242675781 99.96480560302734 L 404.2320556640625 116.46041107177734 L 428.155517578125 104.54692077636719 L 452.0789489746094 83.46920776367188 L 476.00238037109375 65.14076232910156 L 499.92584228515625 115.54399108886719 L 523.8493041992188 59.64222717285156 L 547.772705078125 77.97067260742188" stroke-linejoin="bevel" stroke-miterlimit="10" stroke-width="0.5" clip-path="url(#rHZfMXtemuBV)"/><path fill="none" stroke="rgb(128,128,128)" paint-order="fill" d="M 93.2272720336914 93.54985046386719 L 117.15071868896484 96.29911804199219 L 141.07415771484375 83.46920776367188 L 164.9976043701172 110.96187591552734 L 188.92105102539062 100.88123321533203 L 212.84449768066406 78.88710021972656 L 236.7679443359375 91.71701049804688 L 260.6913757324219 92.63343048095703 L 284.6148376464844 60.558650970458984 L 308.53826904296875 88.96774291992188" stroke-opacity="0.7490196078431373" stroke-linejoin="bevel" stroke-miterlimit="10" clip-path="url(#wQMHsuZIzvqi)"/><path fill="none" stroke="grey" paint-order="fill" d="M 308.53826904296875 88.96774291992188 L 332.46173095703125 116.46041107177734 L 356.3851623535156 86.21847534179688 L 380.3086242675781 92.63343048095703 L 404.2320556640625 77.97067260742188 L 428.155517578125 80.71994018554688 L 452.0789489746094 93.54985046386719 L 476.00238037109375 98.13196563720703 L 499.92584228515625 99.04838562011719 L 523.8493041992188 81.63636016845703 L 547.772705078125 99.04838562011719" stroke-linejoin="bevel" stroke-miterlimit="10" stroke-width="0.5" clip-path="url(#ywEhEnomLWVT)"/><path fill="none" stroke="grey" paint-order="fill" d="M 308.53826904296875 88.96774291992188 L 332.46173095703125 105.46334075927734 L 356.3851623535156 98.13196563720703 L 380.3086242675781 76.13783264160156 L 404.2320556640625 101.79765319824219 L 428.155517578125 105.46334075927734 L 452.0789489746094 67.89002990722656 L 476.00238037109375 95.38269805908203 L 499.92584228515625 89.88416290283203 L 523.8493041992188 90.80058288574219 L 547.772705078125 88.96774291992188" stroke-linejoin="bevel" stroke-miterlimit="10" stroke-width="0.5" clip-path="url(#oHKJTltdufOt)"/><path fill="none" stroke="rgb(128,128,128)" paint-order="fill" d="M 93.2272720336914 93.54985046386719 L 117.15071868896484 71.55571746826172 L 141.07415771484375 85.30205535888672 L 164.9976043701172 106.37976837158203 L 188.92105102539062 66.05718231201172 L 212.84449768066406 125.6246337890625 L 236.7679443359375 117.3768310546875 L 260.6913757324219 91.71701049804688 L 284.6148376464844 98.13196563720703 L 308.53826904296875 81.63636016845703" stroke-opacity="0.7490196078431373" stroke-linejoin="bevel" stroke-miterlimit="10" clip-path="url(#lUtZupNGPpyP)"/><path fill="none" stroke="grey" paint-order="fill" d="M 308.53826904296875 81.63636016845703 L 332.46173095703125 88.05132293701172 L 356.3851623535156 67.89002990722656 L 380.3086242675781 66.05718231201172 L 404.2320556640625 95.38269805908203 L 428.155517578125 99.96480560302734 L 452.0789489746094 71.55571746826172 L 476.00238037109375 80.71994018554688 L 499.92584228515625 76.13783264160156 L 523.8493041992188 102.71407318115234 L 547.772705078125 90.80058288574219" stroke-linejoin="bevel" stroke-miterlimit="10" stroke-width="0.5" clip-path="url(#DBCTDoXMDizw)"/><path fill="none" stroke="grey" paint-order="fill" d="M 308.53826904296875 81.63636016845703 L 332.46173095703125 89.88416290283203 L 356.3851623535156 101.79765319824219 L 380.3086242675781 101.79765319824219 L 404.2320556640625 88.96774291992188 L 428.155517578125 60.558650970458984 L 452.0789489746094 104.54692077636719 L 476.00238037109375 91.71701049804688 L 499.92584228515625 87.13489532470703 L 523.8493041992188 105.46334075927734 L 547.772705078125 102.71407318115234" stroke-linejoin="bevel" stroke-miterlimit="10" stroke-width="0.5" clip-path="url(#UDXceXKTlxZl)"/><path fill="none" stroke="rgb(128,128,128)" paint-order="fill" d="M 93.2272720336914 100.88123321533203 L 117.15071868896484 75.22140502929688 L 141.07415771484375 90.80058288574219 L 164.9976043701172 88.96774291992188 L 188.92105102539062 111.8782958984375 L 212.84449768066406 88.05132293701172 L 236.7679443359375 88.05132293701172 L 260.6913757324219 109.12903594970703 L 284.6148376464844 92.63343048095703 L 308.53826904296875 97.21554565429688" stroke-opacity="0.7490196078431373" stroke-linejoin="bevel" stroke-miterlimit="10" clip-path="url(#rWcZIyZcwTLk)"/><path fill="none" stroke="grey" paint-order="fill" d="M 308.53826904296875 97.21554565429688 L 332.46173095703125 103.63050079345703 L 356.3851623535156 110.04545593261719 L 380.3086242675781 92.63343048095703 L 404.2320556640625 111.8782958984375 L 428.155517578125 89.88416290283203 L 452.0789489746094 88.96774291992188 L 476.00238037109375 112.79472351074219 L 499.92584228515625 105.46334075927734 L 523.8493041992188 70.63929748535156 L 547.772705078125 53.227272033691406" stroke-linejoin="bevel" stroke-miterlimit="10" stroke-width="0.5" clip-path="url(#wmWhZxXRFktL)"/><path fill="none" stroke="grey" paint-order="fill" d="M 308.53826904296875 97.21554565429688 L 332.46173095703125 109.12903594970703 L 356.3851623535156 106.37976837158203 L 380.3086242675781 96.29911804199219 L 404.2320556640625 85.30205535888672 L 428.155517578125 79.80352020263672 L 452.0789489746094 88.05132293701172 L 476.00238037109375 102.71407318115234 L 499.92584228515625 92.63343048095703 L 523.8493041992188 77.97067260742188 L 547.772705078125 65.14076232910156" stroke-linejoin="bevel" stroke-miterlimit="10" stroke-width="0.5" clip-path="url(#dOcITZzVGQCM)"/><path fill="none" stroke="black" paint-order="fill" d="M 70.5 280.5 L 570.5 280.5" stroke-linejoin="bevel" stroke-miterlimit="10"/><path fill="none" stroke="black" paint-order="fill" d="M 93.5 286.5 L 93.5 278.5 M 212.5 286.5 L 212.5 278.5 M 332.5 286.5 L 332.5 278.5 M 452.5 286.5 L 452.5 278.5" stroke-linejoin="bevel" stroke-miterlimit="10"/><path fill="none" stroke="black" paint-order="fill" d="M 93.5 284.5 L 93.5 280.5 M 117.5 284.5 L 117.5 280.5 M 141.5 284.5 L 141.5 280.5 M 164.5 284.5 L 164.5 280.5 M 188.5 284.5 L 188.5 280.5 M 212.5 284.5 L 212.5 280.5 M 236.5 284.5 L 236.5 280.5 M 260.5 284.5 L 260.5 280.5 M 284.5 284.5 L 284.5 280.5 M 308.5 284.5 L 308.5 280.5 M 332.5 284.5 L 332.5 280.5 M 356.5 284.5 L 356.5 280.5 M 380.5 284.5 L 380.5 280.5 M 404.5 284.5 L 404.5 280.5 M 428.5 284.5 L 428.5 280.5 M 452.5 284.5 L 452.5 280.5 M 476.5 284.5 L 476.5 280.5 M 499.5 284.5 L 499.5 280.5 M 523.5 284.5 L 523.5 280.5 M 547.5 284.5 L 547.5 280.5" stroke-linejoin="bevel" stroke-miterlimit="10"/><text fill="#444444" stroke="none" font-family="helvetica" font-size="10pt" font-style="normal" font-weight="normal" text-decoration="normal" x="77.82727241516113" y="300.59368896484375" text-anchor="start" dominant-baseline="alphabetic" transform="matrix(1, 0, 0, 1, 0.5, 0.5)">2025</text><text fill="none" stroke="rgb(0,0,0)" font-family="helvetica" font-size="10pt" font-style="normal" font-weight="normal" text-decoration="normal" x="77.82727241516113" y="300.59368896484375" text-anchor="start" dominant-baseline="alphabetic" transform="matrix(1, 0, 0, 1, 0.5, 0.5)" stroke-opacity="0" stroke-linejoin="bevel" stroke-miterlimit="10">2025</text><text fill="#444444" stroke="none" font-family="helvetica" font-size="10pt" font-style="normal" font-weight="normal" text-decoration="normal" x="197.4444980621338" y="300.59368896484375" text-anchor="start" dominant-baseline="alphabetic" transform="matrix(1, 0, 0, 1, 0.5, 0.5)">2030</text><text fill="none" stroke="rgb(0,0,0)" font-family="helvetica" font-size="10pt" font-style="normal" font-weight="normal" text-decoration="normal" x="197.4444980621338" y="300.59368896484375" text-anchor="start" dominant-baseline="alphabetic" transform="matrix(1, 0, 0, 1, 0.5, 0.5)" stroke-opacity="0" stroke-linejoin="bevel" stroke-miterlimit="10">2030</text><text fill="#444444" stroke="none" font-family="helvetica" font-size="10pt" font-style="normal" font-weight="normal" text-decoration="normal" x="317.061731338501" y="300.59368896484375" text-anchor="start" dominant-baseline="alphabetic" transform="matrix(1, 0, 0, 1, 0.5, 0.5)">2035</text><text fill="none" stroke="rgb(0,0,0)" font-family="helvetica" font-size="10pt" font-style="normal" font-weight="normal" text-decoration="normal" x="317.061731338501" y="300.59368896484375" text-anchor="start" dominant-baseline="alphabetic" transform="matrix(1, 0, 0, 1, 0.5, 0.5)" stroke-opacity="0" stroke-linejoin="bevel" stroke-miterlimit="10">2035</text><text fill="#444444" stroke="none" font-family="helvetica" font-size="10pt" font-style="normal" font-weight="normal" text-decoration="normal" x="436.6789493560791" y="300.59368896484375" text-anchor="start" dominant-baseline="alphabetic" transform="matrix(1, 0, 0, 1, 0.5, 0.5)">2040</text><text fill="none" stroke="rgb(0,0,0)" font-family="helvetica" font-size="10pt" font-style="normal" font-weight="normal" text-decoration="normal" x="436.6789493560791" y="300.59368896484375" text-anchor="start" dominant-baseline="alphabetic" transform="matrix(1, 0, 0, 1, 0.5, 0.5)" stroke-opacity="0" stroke-linejoin="bevel" stroke-miterlimit="10">2040</text><text fill="#444444" stroke="none" font-family="helvetica" font-size="12pt" font-style="normal" font-weight="normal" text-decoration="normal" x="303.8333339691162" y="321.59368896484375" text-anchor="start" dominant-baseline="alphabetic" transform="matrix(1, 0, 0, 1, 0.5, 0.5)">Year</text><text fill="none" stroke="rgb(0,0,0)" font-family="helvetica" font-size="12pt" font-style="normal" font-weight="normal" text-decoration="normal" x="303.8333339691162" y="321.59368896484375" text-anchor="start" dominant-baseline="alphabetic" transform="matrix(1, 0, 0, 1, 0.5, 0.5)" stroke-opacity="0" stroke-linejoin="bevel" stroke-miterlimit="10">Year</text><path fill="none" stroke="black" paint-order="fill" d="M 70.5 280.5 L 70.5 30.5" stroke-linejoin="bevel" stroke-miterlimit="10"/><path fill="none" stroke="black" paint-order="fill" d="M 64.5 280.5 L 72.5 280.5 M 64.5 234.5 L 72.5 234.5 M 64.5 188.5 L 72.5 188.5 M 64.5 143.5 L 72.5 143.5 M 64.5 97.5 L 72.5 97.5 M 64.5 51.5 L 72.5 51.5" stroke-linejoin="bevel" stroke-miterlimit="10"/><path fill="none" stroke="black" paint-order="fill" d="M 66.5 280.5 L 70.5 280.5 M 66.5 271.5 L 70.5 271.5 M 66.5 262.5 L 70.5 262.5 M 66.5 253.5 L 70.5 253.5 M 66.5 243.5 L 70.5 243.5 M 66.5 234.5 L 70.5 234.5 M 66.5 225.5 L 70.5 225.5 M 66.5 216.5 L 70.5 216.5 M 66.5 207.5 L 70.5 207.5 M 66.5 198.5 L 70.5 198.5 M 66.5 188.5 L 70.5 188.5 M 66.5 179.5 L 70.5 179.5 M 66.5 170.5 L 70.5 170.5 M 66.5 161.5 L 70.5 161.5 M 66.5 152.5 L 70.5 152.5 M 66.5 143.5 L 70.5 143.5 M 66.5 133.5 L 70.5 133.5 M 66.5 124.5 L 70.5 124.5 M 66.5 115.5 L 70.5 115.5 M 66.5 106.5 L 70.5 106.5 M 66.5 97.5 L 70.5 97.5 M 66.5 88.5 L 70.5 88.5 M 66.5 78.5 L 70.5 78.5 M 66.5 69.5 L 70.5 69.5 M 66.5 60.5 L 70.5 60.5 M 66.5 51.5 L 70.5 51.5 M 66.5 42.5 L 70.5 42.5 M 66.5 33.5 L 70.5 33.5" stroke-linejoin="bevel" stroke-miterlimit="10"/><text fill="#444444" stroke="none" font-family="helvetica" font-size="10pt" font-style="normal" font-weight="normal" text-decoration="normal" x="51.55000019073486" y="284.7968444824219" text-anchor="start" dominant-baseline="alphabetic" transform="matrix(1, 0, 0, 1, 0.5, 0.5)">0</text><text fill="none" stroke="rgb(0,0,0)" font-family="helvetica" font-size="10pt" font-style="normal" font-weight="normal" text-decoration="normal" x="51.55000019073486" y="284.7968444824219" text-anchor="start" dominant-baseline="alphabetic" transform="matrix(1, 0, 0, 1, 0.5, 0.5)" stroke-opacity="0" stroke-linejoin="bevel" stroke-miterlimit="10">0</text><text fill="#444444" stroke="none" font-family="helvetica" font-size="10pt" font-style="normal" font-weight="normal" text-decoration="normal" x="44.10000038146973" y="238.97572326660156" text-anchor="start" dominant-baseline="alphabetic" transform="matrix(1, 0, 0, 1, 0.5, 0.5)">50</text><text fill="none" stroke="rgb(0,0,0)" font-family="helvetica" font-size="10pt" font-style="normal" font-weight="normal" text-decoration="normal" x="44.10000038146973" y="238.97572326660156" text-anchor="start" dominant-baseline="alphabetic" transform="matrix(1, 0, 0, 1, 0.5, 0.5)" stroke-opacity="0" stroke-linejoin="bevel" stroke-miterlimit="10">50</text><text fill="#444444" stroke="none" font-family="helvetica" font-size="10pt" font-style="normal" font-weight="normal" text-decoration="normal" x="36.64999961853027" y="193.1546173095703" text-anchor="start" dominant-baseline="alphabetic" transform="matrix(1, 0, 0, 1, 0.5, 0.5)">100</text><text fill="none" stroke="rgb(0,0,0)" font-family="helvetica" font-size="10pt" font-style="normal" font-weight="normal" text-decoration="normal" x="36.64999961853027" y="193.1546173095703" text-anchor="start" dominant-baseline="alphabetic" transform="matrix(1, 0, 0, 1, 0.5, 0.5)" stroke-opacity="0" stroke-linejoin="bevel" stroke-miterlimit="10">100</text><text fill="#444444" stroke="none" font-family="helvetica" font-size="10pt" font-style="normal" font-weight="normal" text-decoration="normal" x="36.64999961853027" y="147.33349609375" text-anchor="start" dominant-baseline="alphabetic" transform="matrix(1, 0, 0, 1, 0.5, 0.5)">150</text><text fill="none" stroke="rgb(0,0,0)" font-family="helvetica" font-size="10pt" font-style="normal" font-weight="normal" text-decoration="normal" x="36.64999961853027" y="147.33349609375" text-anchor="start" dominant-baseline="alphabetic" transform="matrix(1, 0, 0, 1, 0.5, 0.5)" stroke-opacity="0" stroke-linejoin="bevel" stroke-miterlimit="10">150</text><text fill="#444444" stroke="none" font-family="helvetica" font-size="10pt" font-style="normal" font-weight="normal" text-decoration="normal" x="36.64999961853027" y="101.51239013671875" text-anchor="start" dominant-baseline="alphabetic" transform="matrix(1, 0, 0, 1, 0.5, 0.5)">200</text><text fill="none" stroke="rgb(0,0,0)" font-family="helvetica" font-size="10pt" font-style="normal" font-weight="normal" text-decoration="normal" x="36.64999961853027" y="101.51239013671875" text-anchor="start" dominant-baseline="alphabetic" transform="matrix(1, 0, 0, 1, 0.5, 0.5)" stroke-opacity="0" stroke-linejoin="bevel" stroke-miterlimit="10">200</text><text fill="#444444" stroke="none" font-family="helvetica" font-size="10pt" font-style="normal" font-weight="normal" text-decoration="normal" x="36.64999961853027" y="55.6912727355957" text-anchor="start" dominant-baseline="alphabetic" transform="matrix(1, 0, 0, 1, 0.5, 0.5)">250</text><text fill="none" stroke="rgb(0,0,0)" font-family="helvetica" font-size="10pt" font-style="normal" font-weight="normal" text-decoration="normal" x="36.64999961853027" y="55.6912727355957" text-anchor="start" dominant-baseline="alphabetic" transform="matrix(1, 0, 0, 1, 0.5, 0.5)" stroke-opacity="0" stroke-linejoin="bevel" stroke-miterlimit="10">250</text><text fill="#444444" stroke="none" font-family="helvetica" font-size="12pt" font-style="normal" font-weight="normal" text-decoration="normal" x="-78.07499885559082" y="151" text-anchor="start" dominant-baseline="alphabetic" transform="matrix(6.123233995736766e-17, -1, 1, 6.123233995736766e-17, -125.85000038146973, 184.14999961853027)">Days suitable for transmission</text><text fill="none" stroke="rgb(0,0,0)" font-family="helvetica" font-size="12pt" font-style="normal" font-weight="normal" text-decoration="normal" x="-78.07499885559082" y="151" text-anchor="start" dominant-baseline="alphabetic" transform="matrix(6.123233995736766e-17, -1, 1, 6.123233995736766e-17, -125.85000038146973, 184.14999961853027)" stroke-opacity="0" stroke-linejoin="bevel" stroke-miterlimit="10">Days suitable for transmission</text><path fill="rgb(255,255,255)" stroke="rgb(229,229,229)" paint-order="fill" d="M 475.183349609375 205.5 L 560.5000152587891 205.5 L 560.5000152587891 270.5 L 475.183349609375 270.5 L 475.183349609375 205.5 Z" fill-opacity="0.9490196078431372" clip-path="url(#JCFWCNusNdwq)" stroke-opacity="0.5019607843137255" stroke-linejoin="bevel" stroke-miterlimit="10"/><g clip-path="url(#JCFWCNusNdwq)"><g transform="matrix(1, 0, 0, 1, 485.683349609375, 216)"><path fill="none" stroke="#30a2da" paint-order="fill" d="M 0.5 10.5 L 20.5 10.5" stroke-linejoin="bevel" stroke-miterlimit="10" stroke-width="2"/></g></g><g clip-path="url(#JCFWCNusNdwq)"><text fill="#444444" stroke="none" font-family="helvetica" font-size="13px" font-style="normal" font-weight="normal" text-decoration="normal" x="510.683349609375" y="230" text-anchor="start" dominant-baseline="alphabetic" transform="matrix(1, 0, 0, 1, 0.5, 0.5)">ID 001</text></g><g clip-path="url(#JCFWCNusNdwq)"><text fill="none" stroke="rgb(0,0,0)" font-family="helvetica" font-size="13px" font-style="normal" font-weight="normal" text-decoration="normal" x="510.683349609375" y="230" text-anchor="start" dominant-baseline="alphabetic" transform="matrix(1, 0, 0, 1, 0.5, 0.5)" stroke-opacity="0" stroke-linejoin="bevel" stroke-miterlimit="10">ID 001</text></g><g clip-path="url(#JCFWCNusNdwq)"><g transform="matrix(1, 0, 0, 1, 485.683349609375, 239)"><path fill="none" stroke="#fc4f30" paint-order="fill" d="M 0.5 10.5 L 20.5 10.5" stroke-linejoin="bevel" stroke-miterlimit="10" stroke-width="2"/></g></g><g clip-path="url(#JCFWCNusNdwq)"><text fill="#444444" stroke="none" font-family="helvetica" font-size="13px" font-style="normal" font-weight="normal" text-decoration="normal" x="510.683349609375" y="253" text-anchor="start" dominant-baseline="alphabetic" transform="matrix(1, 0, 0, 1, 0.5, 0.5)">ID 006</text></g><g clip-path="url(#JCFWCNusNdwq)"><text fill="none" stroke="rgb(0,0,0)" font-family="helvetica" font-size="13px" font-style="normal" font-weight="normal" text-decoration="normal" x="510.683349609375" y="253" text-anchor="start" dominant-baseline="alphabetic" transform="matrix(1, 0, 0, 1, 0.5, 0.5)" stroke-opacity="0" stroke-linejoin="bevel" stroke-miterlimit="10">ID 006</text></g><text fill="black" stroke="none" font-family="helvetica" font-size="14pt" font-style="normal" font-weight="normal" text-decoration="normal" x="0" y="15" text-anchor="start" dominant-baseline="alphabetic" transform="matrix(1, 0, 0, 1, 5.5, 5.5)">B. Los Angeles</text><text fill="none" stroke="rgb(0,0,0)" font-family="helvetica" font-size="14pt" font-style="normal" font-weight="normal" text-decoration="normal" x="0" y="15" text-anchor="start" dominant-baseline="alphabetic" transform="matrix(1, 0, 0, 1, 5.5, 5.5)" stroke-opacity="0" stroke-linejoin="bevel" stroke-miterlimit="10">B. Los Angeles</text></svg>