<svg version="1.1" xmlns="http://www.w3.org/2000/svg" width="600" height="329"><defs><clipPath id="ClOIflaFJwiD"><path fill="none" stroke="none" d="M 70.5 30.5 L 570.5 30.5 L 570.5 280.5 L 70.5 280.5 L 70.5 30.5 Z"/></clipPath><clipPath id="fsEIqJIdNbmF"><path fill="none" stroke="none" d="M 70.5 30.5 L 570.5 30.5 L 570.5 280.5 L 70.5 280.5 L 70.5 30.5 Z"/></clipPath><clipPath id="JzWxrzCoWZWF"><path fill="none" stroke="none" d="M 70.5 30.5 L 570.5 30.5 L 570.5 280.5 L 70.5 280.5 L 70.5 30.5 Z"/></clipPath><clipPath id="BTUOIkgWETZk"><path fill="none" stroke="none" d="M 70.5 30.5 L 570.5 30.5 L 570.5 280.5 L 70.5 280.5 L 70.5 30.5 Z"/></clipPath><clipPath id="WXPTzNTOQlqA"><path fill="none" stroke="none" d="M 70.5 30.5 L 570.5 30.5 L 570.5 280.5 L 70.5 280.5 L 70.5 30.5 Z"/></clipPath><clipPath id="UVSHwSmnStnL"><path fill="none" stroke="none" d="M 70.5 30.5 L 570.5 30.5 L 570.5 280.5 L 70.5 280.5 L 70.5 30.5 Z"/></clipPath><clipPath id="gsVxEIViqDTc"><path fill="none" stroke="none" d="M 70.5 30.5 L 570.5 30.5 L 570.5 280.5 L 70.5 280.5 L 70.5 30.5 Z"/></clipPath><clipPath id="LxctbbfitxuK"><path fill="none" stroke="none" d="M 70.5 30.5 L 570.5 30.5 L 570.5 280.5 L 70.5 280.5 L 70.5 30.5 Z"/></clipPath><clipPath id="dyyVXABIbftJ"><path fill="none" stroke="none" d="M 70.5 30.5 L 570.5 30.5 L 570.5 280.5 L 70.5 280.5 L 70.5 30.5 Z"/></clipPath><clipPath id="gpSZbVhTEbMf"><path fill="none" stroke="none" d="M 70.5 30.5 L 570.5 30.5 L 570.5 280.5 L 70.5 280.5 L 70.5 30.5 Z"/></clipPath><clipPath id="oBErwlpsmroK"><path fill="none" stroke="none" d="M 70.5 30.5 L 570.5 30.5 L 570.5 280.5 L 70.5 280.5 L 70.5 30.5 Z"/></clipPath><clipPath id="SkuTmuNboDfA"><path fill="none" stroke="none" d="M 70.5 30.5 L 570.5 30.5 L 570.5 280.5 L 70.5 280.5 L 70.5 30.5 Z"/></clipPath><clipPath id="bDvcrexLWWht"><path fill="none" stroke="none" d="M 70.5 30.5 L 570.5 30.5 L 570.5 280.5 L 70.5 280.5 L 70.5 30.5 Z"/></clipPath><clipPath id="SeVRMJTVkiqZ"><path fill="none" stroke="none" d="M 70.5 30.5 L 570.5 30.5 L 570.5 280.5 L 70.5 280.5 L 70.5 30.5 Z"/></clipPath><clipPath id="gVLOgfxqoRsI"><path fill="none" stroke="none" d="M 70.5 30.5 L 570.5 30.5 L 570.5 280.5 L 70.5 280.5 L 70.5 30.5 Z"/></clipPath><clipPath id="ZzoAgezqxctD"><path fill="none" stroke="none" d="M 70.5 30.5 L 570.5 30.5 L 570.5 280.5 L 70.5 280.5 L 70.5 30.5 Z"/></clipPath><clipPath id="kJRdhWvxoaRV"><path fill="none" stroke="none" d="M 70.5 30.5 L 570.5 30.5 L 570.5 280.5 L 70.5 280.5 L 70.5 30.5 Z"/></clipPath><clipPath id="McVGWzazlvdz"><path fill="none" stroke="none" d="M 70.5 30.5 L 570.5 30.5 L 570.5 280.5 L 70.5 280.5 L 70.5 30.5 Z"/></clipPath><clipPath id="ImcgetprHGhx"><path fill="none" stroke="none" d="M 70.5 30.5 L 570.5 30.5 L 570.5 280.5 L 70.5 280.5 L 70.5 30.5 Z"/></clipPath><clipPath id="WpMOLxoQlBqW"><path fill="none" stroke="none" d="M 70.5 30.5 L 570.5 30.5 L 570.5 280.5 L 70.5 280.5 L 70.5 30.5 Z"/></clipPath><clipPath id="GoWOJkavmibC"><path fill="none" stroke="none" d="M 70.5 30.5 L 570.5 30.5 L 570.5 280.5 L 70.5 280.5 L 70.5 30.5 Z"/></clipPath><clipPath id="HVUaLbkXUoym"><path fill="none" stroke="none" d="M 70.5 30.5 L 570.5 30.5 L 570.5 280.5 L 70.5 280.5 L 70.5 30.5 Z"/></clipPath><clipPath id="cWnfaVqmPGTA"><path fill="none" stroke="none" d="M 70.5 30.5 L 570.5 30.5 L 570.5 280.5 L 70.5 280.5 L 70.5 30.5 Z"/></clipPath></defs><path fill="none" stroke="#e5e5e5" paint-order="fill" d="M 70.5 30.5 L 570.5 30.5 L 570.5 280.5 L 70.5 280.5 L 70.5 30.5 Z" stroke-linejoin="bevel" stroke-miterlimit="10"/><path fill="none" stroke="black" paint-order="fill" d="M 332.46172248803487 30.5 L 332.46172248803487 280.5" stroke-linejoin="bevel" stroke-miterlimit="10" stroke-width="3" stroke-dasharray="6" clip-path="url(#JzWxrzCoWZWF)"/><path fill="none" stroke="#9467bd" paint-order="fill" d="M 93.2272720336914 66.51398468017578 L 117.15071868896484 113.36713409423828 L 141.07415771484375 121.05944061279297 L 164.9976043701172 99.38111877441406 L 188.92105102539062 70.70979309082031 L 212.84449768066406 119.66084289550781 L 236.7679443359375 94.48601531982422 L 260.6913757324219 87.49300384521484 L 284.6148376464844 102.1783218383789 L 308.53826904296875 95.18531799316406" stroke-linejoin="bevel" stroke-miterlimit="10" stroke-width="2" clip-path="url(#BTUOIkgWETZk)"/><path fill="none" stroke="#9467bd" paint-order="fill" d="M 93.2272720336914 66.51398468017578 L 117.15071868896484 113.36713409423828 L 141.07415771484375 121.05944061279297 L 164.9976043701172 99.38111877441406 L 188.92105102539062 70.70979309082031 L 212.84449768066406 119.66084289550781 L 236.7679443359375 94.48601531982422 L 260.6913757324219 87.49300384521484 L 284.6148376464844 102.1783218383789 L 308.53826904296875 95.18531799316406" stroke-linejoin="bevel" stroke-miterlimit="10" stroke-width="2" stroke-dasharray="6" clip-path="url(#WXPTzNTOQlqA)"/><path fill="none" stroke="#30a2da" paint-order="fill" d="M 308.53826904296875 95.18531799316406 L 332.46173095703125 72.80769348144531 L 356.3851623535156 128.0524444580078 L 380.3086242675781 95.18531799316406 L 404.2320556640625 74.90559387207031 L 428.155517578125 82.597900390625 L 452.0789489746094 99.38111877441406 L 476.00238037109375 103.57691955566406 L 499.92584228515625 115.46503448486328 L 523.8493041992188 88.89160919189453 L 547.772705078125 97.9825210571289" stroke-linejoin="bevel" stroke-miterlimit="10" stroke-width="2" clip-path="url(#UVSHwSmnStnL)"/><path fill="none" stroke="#30a2da" paint-order="fill" d="M 332.46173095703125 91.6125259399414 L 356.3851623535156 92.56187438964844 L 380.3086242675781 93.51123046875 L 404.2320556640625 94.46058654785156 L 428.155517578125 95.4099349975586 L 452.0789489746094 96.35929107666016 L 476.00238037109375 97.30864715576172 L 499.92584228515625 98.25800323486328 L 523.8493041992188 99.20735168457031 L 547.772705078125 100.15670776367188" stroke-linejoin="bevel" stroke-miterlimit="10" stroke-width="2" stroke-dasharray="6" clip-path="url(#gsVxEIViqDTc)"/><path fill="none" stroke="#fc4f30" paint-order="fill" d="M 308.53826904296875 95.18531799316406 L 332.46173095703125 75.60489654541016 L 356.3851623535156 88.19230651855469 L 380.3086242675781 77.70279693603516 L 404.2320556640625 92.38811492919922 L 428.155517578125 90.29020690917969 L 452.0789489746094 97.28321838378906 L 476.00238037109375 116.16433715820312 L 499.92584228515625 149.73077392578125 L 523.8493041992188 118.26223754882812 L 547.772705078125 112.66783142089844" stroke-linejoin="bevel" stroke-miterlimit="10" stroke-width="2" clip-path="url(#LxctbbfitxuK)"/><path fill="none" stroke="#fc4f30" paint-order="fill" d="M 332.46173095703125 75.0327377319336 L 356.3851623535156 80.98738861083984 L 380.3086242675781 86.9420394897461 L 404.2320556640625 92.89669799804688 L 428.155517578125 98.85134887695312 L 452.0789489746094 104.80599975585938 L 476.00238037109375 110.76065063476562 L 499.92584228515625 116.71530151367188 L 523.8493041992188 122.66995239257812 L 547.772705078125 128.62460327148438" stroke-linejoin="bevel" stroke-miterlimit="10" stroke-width="2" stroke-dasharray="6" clip-path="url(#dyyVXABIbftJ)"/><path fill="none" stroke="rgb(128,128,128)" paint-order="fill" d="M 93.2272720336914 97.28321838378906 L 117.15071868896484 90.98950958251953 L 141.07415771484375 97.9825210571289 L 164.9976043701172 81.89859771728516 L 188.92105102539062 91.68881225585938 L 212.84449768066406 85.39510345458984 L 236.7679443359375 55.32517623901367 L 260.6913757324219 97.28321838378906 L 284.6148376464844 114.76573181152344 L 308.53826904296875 78.402099609375" stroke-opacity="0.7490196078431373" stroke-linejoin="bevel" stroke-miterlimit="10" clip-path="url(#gpSZbVhTEbMf)"/><path fill="none" stroke="grey" paint-order="fill" d="M 308.53826904296875 78.402099609375 L 332.46173095703125 56.02447509765625 L 356.3851623535156 106.3741226196289 L 380.3086242675781 111.9685287475586 L 404.2320556640625 90.29020690917969 L 428.155517578125 102.87762451171875 L 452.0789489746094 102.1783218383789 L 476.00238037109375 89.59091186523438 L 499.92584228515625 107.7727279663086 L 523.8493041992188 120.36013793945312 L 547.772705078125 116.86363983154297" stroke-linejoin="bevel" stroke-miterlimit="10" stroke-width="0.5" clip-path="url(#oBErwlpsmroK)"/><path fill="none" stroke="grey" paint-order="fill" d="M 308.53826904296875 78.402099609375 L 332.46173095703125 72.80769348144531 L 356.3851623535156 123.85664367675781 L 380.3086242675781 123.15734100341797 L 404.2320556640625 86.09440612792969 L 428.155517578125 81.89859771728516 L 452.0789489746094 139.2412567138672 L 476.00238037109375 109.8706283569336 L 499.92584228515625 93.08740997314453 L 523.8493041992188 146.23426818847656 L 547.772705078125 121.05944061279297" stroke-linejoin="bevel" stroke-miterlimit="10" stroke-width="0.5" clip-path="url(#SkuTmuNboDfA)"/><path fill="none" stroke="rgb(128,128,128)" paint-order="fill" d="M 93.2272720336914 108.47203063964844 L 117.15071868896484 128.0524444580078 L 141.07415771484375 116.86363983154297 L 164.9976043701172 121.75874328613281 L 188.92105102539062 146.23426818847656 L 212.84449768066406 130.1503448486328 L 236.7679443359375 83.99650573730469 L 260.6913757324219 110.56993103027344 L 284.6148376464844 93.78671264648438 L 308.53826904296875 90.29020690917969" stroke-opacity="0.7490196078431373" stroke-linejoin="bevel" stroke-miterlimit="10" clip-path="url(#bDvcrexLWWht)"/><path fill="none" stroke="grey" paint-order="fill" d="M 308.53826904296875 90.29020690917969 L 332.46173095703125 104.2762222290039 L 356.3851623535156 87.49300384521484 L 380.3086242675781 79.80069732666016 L 404.2320556640625 151.12936401367188 L 428.155517578125 75.60489654541016 L 452.0789489746094 70.70979309082031 L 476.00238037109375 79.10140228271484 L 499.92584228515625 71.40908813476562 L 523.8493041992188 151.12936401367188 L 547.772705078125 86.09440612792969" stroke-linejoin="bevel" stroke-miterlimit="10" stroke-width="0.5" clip-path="url(#SeVRMJTVkiqZ)"/><path fill="none" stroke="grey" paint-order="fill" d="M 308.53826904296875 90.29020690917969 L 332.46173095703125 80.5 L 356.3851623535156 114.76573181152344 L 380.3086242675781 53.227272033691406 L 404.2320556640625 70.70979309082031 L 428.155517578125 70.01049041748047 L 452.0789489746094 95.18531799316406 L 476.00238037109375 86.79370880126953 L 499.92584228515625 111.9685287475586 L 523.8493041992188 72.80769348144531 L 547.772705078125 131.5489501953125" stroke-linejoin="bevel" stroke-miterlimit="10" stroke-width="0.5" clip-path="url(#gVLOgfxqoRsI)"/><path fill="none" stroke="rgb(128,128,128)" paint-order="fill" d="M 93.2272720336914 119.66084289550781 L 117.15071868896484 132.9475555419922 L 141.07415771484375 105.6748275756836 L 164.9976043701172 66.51398468017578 L 188.92105102539062 83.29720306396484 L 212.84449768066406 81.89859771728516 L 236.7679443359375 91.68881225585938 L 260.6913757324219 101.47901916503906 L 284.6148376464844 74.90559387207031 L 308.53826904296875 86.79370880126953" stroke-opacity="0.7490196078431373" stroke-linejoin="bevel" stroke-miterlimit="10" clip-path="url(#ZzoAgezqxctD)"/><path fill="none" stroke="grey" paint-order="fill" d="M 308.53826904296875 86.79370880126953 L 332.46173095703125 76.30419921875 L 356.3851623535156 101.47901916503906 L 380.3086242675781 118.26223754882812 L 404.2320556640625 114.06643676757812 L 428.155517578125 94.48601531982422 L 452.0789489746094 108.47203063964844 L 476.00238037109375 144.13636779785156 L 499.92584228515625 83.29720306396484 L 523.8493041992188 94.48601531982422 L 547.772705078125 136.44406127929688" stroke-linejoin="bevel" stroke-miterlimit="10" stroke-width="0.5" clip-path="url(#kJRdhWvxoaRV)"/><path fill="none" stroke="grey" paint-order="fill" d="M 308.53826904296875 86.79370880126953 L 332.46173095703125 60.220279693603516 L 356.3851623535156 100.77971649169922 L 380.3086242675781 74.90559387207031 L 404.2320556640625 132.9475555419922 L 428.155517578125 125.95454406738281 L 452.0789489746094 69.31118774414062 L 476.00238037109375 94.48601531982422 L 499.92584228515625 79.10140228271484 L 523.8493041992188 98.68181610107422 L 547.772705078125 71.40908813476562" stroke-linejoin="bevel" stroke-miterlimit="10" stroke-width="0.5" clip-path="url(#McVGWzazlvdz)"/><path fill="none" stroke="rgb(128,128,128)" paint-order="fill" d="M 93.2272720336914 105.6748275756836 L 117.15071868896484 109.8706283569336 L 141.07415771484375 142.73776245117188 L 164.9976043701172 114.76573181152344 L 188.92105102539062 100.77971649169922 L 212.84449768066406 118.26223754882812 L 236.7679443359375 106.3741226196289 L 260.6913757324219 77.70279693603516 L 284.6148376464844 99.38111877441406 L 308.53826904296875 92.38811492919922" stroke-opacity="0.7490196078431373" stroke-linejoin="bevel" stroke-miterlimit="10" clip-path="url(#ImcgetprHGhx)"/><path fill="none" stroke="grey" paint-order="fill" d="M 308.53826904296875 92.38811492919922 L 332.46173095703125 80.5 L 356.3851623535156 84.69580078125 L 380.3086242675781 127.3531494140625 L 404.2320556640625 81.19930267333984 L 428.155517578125 77.70279693603516 L 452.0789489746094 130.1503448486328 L 476.00238037109375 102.87762451171875 L 499.92584228515625 88.89160919189453 L 523.8493041992188 122.45803833007812 L 547.772705078125 127.3531494140625" stroke-linejoin="bevel" stroke-miterlimit="10" stroke-width="0.5" clip-path="url(#WpMOLxoQlBqW)"/><path fill="none" stroke="grey" paint-order="fill" d="M 308.53826904296875 92.38811492919922 L 332.46173095703125 93.08740997314453 L 356.3851623535156 90.98950958251953 L 380.3086242675781 107.7727279663086 L 404.2320556640625 102.87762451171875 L 428.155517578125 116.16433715820312 L 452.0789489746094 75.60489654541016 L 476.00238037109375 116.16433715820312 L 499.92584228515625 107.07342529296875 L 523.8493041992188 100.0804214477539 L 547.772705078125 93.78671264648438" stroke-linejoin="bevel" stroke-miterlimit="10" stroke-width="0.5" clip-path="url(#GoWOJkavmibC)"/><path fill="none" stroke="black" paint-order="fill" d="M 70.5 280.5 L 570.5 280.5" stroke-linejoin="bevel" stroke-miterlimit="10"/><path fill="none" stroke="black" paint-order="fill" d="M 93.5 286.5 L 93.5 278.5 M 212.5 286.5 L 212.5 278.5 M 332.5 286.5 L 332.5 278.5 M 452.5 286.5 L 452.5 278.5" stroke-linejoin="bevel" stroke-miterlimit="10"/><path fill="none" stroke="black" paint-order="fill" d="M 93.5 284.5 L 93.5 280.5 M 117.5 284.5 L 117.5 280.5 M 141.5 284.5 L 141.5 280.5 M 164.5 284.5 L 164.5 280.5 M 188.5 284.5 L 188.5 280.5 M 212.5 284.5 L 212.5 280.5 M 236.5 284.5 L 236.5 280.5 M 260.5 284.5 L 260.5 280.5 M 284.5 284.5 L 284.5 280.5 M 308.5 284.5 L 308.5 280.5 M 332.5 284.5 L 332.5 280.5 M 356.5 284.5 L 356.5 280.5 M 380.5 284.5 L 380.5 280.5 M 404.5 284.5 L 404.5 280.5 M 428.5 284.5 L 428.5 280.5 M 452.5 284.5 L 452.5 280.5 M 476.5 284.5 L 476.5 280.5 M 499.5 284.5 L 499.5 280.5 M 523.5 284.5 L 523.5 280.5 M 547.5 284.5 L 547.5 280.5" stroke-linejoin="bevel" stroke-miterlimit="10"/><text fill="#444444" stroke="none" font-family="helvetica" font-size="10pt" font-style="normal" font-weight="normal" text-decoration="normal" x="77.82727241516113" y="300.59368896484375" text-anchor="start" dominant-baseline="alphabetic" transform="matrix(1, 0, 0, 1, 0.5, 0.5)">2025</text><text fill="none" stroke="rgb(0,0,0)" font-family="helvetica" font-size="10pt" font-style="normal" font-weight="normal" text-decoration="normal" x="77.82727241516113" y="300.59368896484375" text-anchor="start" dominant-baseline="alphabetic" transform="matrix(1, 0, 0, 1, 0.5, 0.5)" stroke-opacity="0" stroke-linejoin="bevel" stroke-miterlimit="10">2025</text><text fill="#444444" stroke="none" font-family="helvetica" font-size="10pt" font-style="normal" font-weight="normal" text-decoration="normal" x="197.4444980621338" y="300.59368896484375" text-anchor="start" dominant-baseline="alphabetic" transform="matrix(1, 0, 0, 1, 0.5, 0.5)">2030</text><text fill="none" stroke="rgb(0,0,0)" font-family="helvetica" font-size="10pt" font-style="normal" font-weight="normal" text-decoration="normal" x="197.4444980621338" y="300.59368896484375" text-anchor="start" dominant-baseline="alphabetic" transform="matrix(1, 0, 0, 1, 0.5, 0.5)" stroke-opacity="0" stroke-linejoin="bevel" stroke-miterlimit="10">2030</text><text fill="#444444" stroke="none" font-family="helvetica" font-size="10pt" font-style="normal" font-weight="normal" text-decoration="normal" x="317.061731338501" y="300.59368896484375" text-anchor="start" dominant-baseline="alphabetic" transform="matrix(1, 0, 0, 1, 0.5, 0.5)">2035</text><text fill="none" stroke="rgb(0,0,0)" font-family="helvetica" font-size="10pt" font-style="normal" font-weight="normal" text-decoration="normal" x="317.061731338501" y="300.59368896484375" text-anchor="start" dominant-baseline="alphabetic" transform="matrix(1, 0, 0, 1, 0.5, 0.5)" stroke-opacity="0" stroke-linejoin="bevel" stroke-miterlimit="10">2035</text><text fill="#444444" stroke="none" font-family="helvetica" font-size="10pt" font-style="normal" font-weight="normal" text-decoration="normal" x="436.6789493560791" y="300.59368896484375" text-anchor="start" dominant-baseline="alphabetic" transform="matrix(1, 0, 0, 1, 0.5, 0.5)">2040</text><text fill="none" stroke="rgb(0,0,0)" font-family="helvetica" font-size="10pt" font-style="normal" font-weight="normal" text-decoration="normal" x="436.6789493560791" y="300.59368896484375" text-anchor="start" dominant-baseline="alphabetic" transform="matrix(1, 0, 0, 1, 0.5, 0.5)" stroke-opacity="0" stroke-linejoin="bevel" stroke-miterlimit="10">2040</text><text fill="#444444" stroke="none" font-family="helvetica" font-size="12pt" font-style="normal" font-weight="normal" text-decoration="normal" x="303.8333339691162" y="321.59368896484375" text-anchor="start" dominant-baseline="alphabetic" transform="matrix(1, 0, 0, 1, 0.5, 0.5)">Year</text><text fill="none" stroke="rgb(0,0,0)" font-family="helvetica" font-size="12pt" font-style="normal" font-weight="normal" text-decoration="normal" x="303.8333339691162" y="321.59368896484375" text-anchor="start" dominant-baseline="alphabetic" transform="matrix(1, 0, 0, 1, 0.5, 0.5)" stroke-opacity="0" stroke-linejoin="bevel" stroke-miterlimit="10">Year</text><path fill="none" stroke="black" paint-order="fill" d="M 70.5 280.5 L 70.5 30.5" stroke-linejoin="bevel" stroke-miterlimit="10"/><path fill="none" stroke="black" paint-order="fill" d="M 64.5 280.5 L 72.5 280.5 M 64.5 245.5 L 72.5 245.5 M 64.5 210.5 L 72.5 210.5 M 64.5 175.5 L 72.5 175.5 M 64.5 140.5 L 72.5 140.5 M 64.5 105.5 L 72.5 105.5 M 64.5 70.5 L 72.5 70.5 M 64.5 35.5 L 72.5 35.5" stroke-linejoin="bevel" stroke-miterlimit="10"/><path fill="none" stroke="black" paint-order="fill" d="M 66.5 280.5 L 70.5 280.5 M 66.5 273.5 L 70.5 273.5 M 66.5 266.5 L 70.5 266.5 M 66.5 259.5 L 70.5 259.5 M 66.5 252.5 L 70.5 252.5 M 66.5 245.5 L 70.5 245.5 M 66.5 238.5 L 70.5 238.5 M 66.5 231.5 L 70.5 231.5 M 66.5 224.5 L 70.5 224.5 M 66.5 217.5 L 70.5 217.5 M 66.5 210.5 L 70.5 210.5 M 66.5 203.5 L 70.5 203.5 M 66.5 196.5 L 70.5 196.5 M 66.5 189.5 L 70.5 189.5 M 66.5 182.5 L 70.5 182.5 M 66.5 175.5 L 70.5 175.5 M 66.5 168.5 L 70.5 168.5 M 66.5 161.5 L 70.5 161.5 M 66.5 154.5 L 70.5 154.5 M 66.5 147.5 L 70.5 147.5 M 66.5 140.5 L 70.5 140.5 M 66.5 133.5 L 70.5 133.5 M 66.5 126.5 L 70.5 126.5 M 66.5 119.5 L 70.5 119.5 M 66.5 112.5 L 70.5 112.5 M 66.5 105.5 L 70.5 105.5 M 66.5 98.5 L 70.5 98.5 M 66.5 91.5 L 70.5 91.5 M 66.5 84.5 L 70.5 84.5 M 66.5 77.5 L 70.5 77.5 M 66.5 70.5 L 70.5 70.5 M 66.5 63.5 L 70.5 63.5 M 66.5 56.5 L 70.5 56.5 M 66.5 49.5 L 70.5 49.5 M 66.5 42.5 L 70.5 42.5 M 66.5 35.5 L 70.5 35.5" stroke-linejoin="bevel" stroke-miterlimit="10"/><text fill="#444444" stroke="none" font-family="helvetica" font-size="10pt" font-style="normal" font-weight="normal" text-decoration="normal" x="51.55000019073486" y="284.7968444824219" text-anchor="start" dominant-baseline="alphabetic" transform="matrix(1, 0, 0, 1, 0.5, 0.5)">0</text><text fill="none" stroke="rgb(0,0,0)" font-family="helvetica" font-size="10pt" font-style="normal" font-weight="normal" text-decoration="normal" x="51.55000019073486" y="284.7968444824219" text-anchor="start" dominant-baseline="alphabetic" transform="matrix(1, 0, 0, 1, 0.5, 0.5)" stroke-opacity="0" stroke-linejoin="bevel" stroke-miterlimit="10">0</text><text fill="#444444" stroke="none" font-family="helvetica" font-size="10pt" font-style="normal" font-weight="normal" text-decoration="normal" x="44.10000038146973" y="249.83180236816406" text-anchor="start" dominant-baseline="alphabetic" transform="matrix(1, 0, 0, 1, 0.5, 0.5)">50</text><text fill="none" stroke="rgb(0,0,0)" font-family="helvetica" font-size="10pt" font-style="normal" font-weight="normal" text-decoration="normal" x="44.10000038146973" y="249.83180236816406" text-anchor="start" dominant-baseline="alphabetic" transform="matrix(1, 0, 0, 1, 0.5, 0.5)" stroke-opacity="0" stroke-linejoin="bevel" stroke-miterlimit="10">50</text><text fill="#444444" stroke="none" font-family="helvetica" font-size="10pt" font-style="normal" font-weight="normal" text-decoration="normal" x="36.64999961853027" y="214.8667755126953" text-anchor="start" dominant-baseline="alphabetic" transform="matrix(1, 0, 0, 1, 0.5, 0.5)">100</text><text fill="none" stroke="rgb(0,0,0)" font-family="helvetica" font-size="10pt" font-style="normal" font-weight="normal" text-decoration="normal" x="36.64999961853027" y="214.8667755126953" text-anchor="start" dominant-baseline="alphabetic" transform="matrix(1, 0, 0, 1, 0.5, 0.5)" stroke-opacity="0" stroke-linejoin="bevel" stroke-miterlimit="10">100</text><text fill="#444444" stroke="none" font-family="helvetica" font-size="10pt" font-style="normal" font-weight="normal" text-decoration="normal" x="36.64999961853027" y="179.9017333984375" text-anchor="start" dominant-baseline="alphabetic" transform="matrix(1, 0, 0, 1, 0.5, 0.5)">150</text><text fill="none" stroke="rgb(0,0,0)" font-family="helvetica" font-size="10pt" font-style="normal" font-weight="normal" text-decoration="normal" x="36.64999961853027" y="179.9017333984375" text-anchor="start" dominant-baseline="alphabetic" transform="matrix(1, 0, 0, 1, 0.5, 0.5)" stroke-opacity="0" stroke-linejoin="bevel" stroke-miterlimit="10">150</text><text fill="#444444" stroke="none" font-family="helvetica" font-size="10pt" font-style="normal" font-weight="normal" text-decoration="normal" x="36.64999961853027" y="144.93670654296875" text-anchor="start" dominant-baseline="alphabetic" transform="matrix(1, 0, 0, 1, 0.5, 0.5)">200</text><text fill="none" stroke="rgb(0,0,0)" font-family="helvetica" font-size="10pt" font-style="normal" font-weight="normal" text-decoration="normal" x="36.64999961853027" y="144.93670654296875" text-anchor="start" dominant-baseline="alphabetic" transform="matrix(1, 0, 0, 1, 0.5, 0.5)" stroke-opacity="0" stroke-linejoin="bevel" stroke-miterlimit="10">200</text><text fill="#444444" stroke="none" font-family="helvetica" font-size="10pt" font-style="normal" font-weight="normal" text-decoration="normal" x="36.64999961853027" y="109.97167205810547" text-anchor="start" dominant-baseline="alphabetic" transform="matrix(1, 0, 0, 1, 0.5, 0.5)">250</text><text fill="none" stroke="rgb(0,0,0)" font-family="helvetica" font-size="10pt" font-style="normal" font-weight="normal" text-decoration="normal" x="36.64999961853027" y="109.97167205810547" text-anchor="start" dominant-baseline="alphabetic" transform="matrix(1, 0, 0, 1, 0.5, 0.5)" stroke-opacity="0" stroke-linejoin="bevel" stroke-miterlimit="10">250</text><text fill="#444444" stroke="none" font-family="helvetica" font-size="10pt" font-style="normal" font-weight="normal" text-decoration="normal" x="36.64999961853027" y="75.00663757324219" text-anchor="start" dominant-baseline="alphabetic" transform="matrix(1, 0, 0, 1, 0.5, 0.5)">300</text><text fill="none" stroke="rgb(0,0,0)" font-family="helvetica" font-size="10pt" font-style="normal" font-weight="normal" text-decoration="normal" x="36.64999961853027" y="75.00663757324219" text-anchor="start" dominant-baseline="alphabetic" transform="matrix(1, 0, 0, 1, 0.5, 0.5)" stroke-opacity="0" stroke-linejoin="bevel" stroke-miterlimit="10">300</text><text fill="#444444" stroke="none" font-family="helvetica" font-size="10pt" font-style="normal" font-weight="normal" text-decoration="normal" x="36.64999961853027" y="40.04159927368164" text-anchor="start" dominant-baseline="alphabetic" transform="matrix(1, 0, 0, 1, 0.5, 0.5)">350</text><text fill="none" stroke="rgb(0,0,0)" font-family="helvetica" font-size="10pt" font-style="normal" font-weight="normal" text-decoration="normal" x="36.64999961853027" y="40.04159927368164" text-anchor="start" dominant-baseline="alphabetic" transform="matrix(1, 0, 0, 1, 0.5, 0.5)" stroke-opacity="0" stroke-linejoin="bevel" stroke-miterlimit="10">350</text><text fill="#444444" stroke="none" font-family="helvetica" font-size="12pt" font-style="normal" font-weight="normal" text-decoration="normal" x="-78.07499885559082" y="151" text-anchor="start" dominant-baseline="alphabetic" transform="matrix(6.123233995736766e-17, -1, 1, 6.123233995736766e-17, -125.85000038146973, 184.14999961853027)">Days suitable for transmission</text><text fill="none" stroke="rgb(0,0,0)" font-family="helvetica" font-size="12pt" font-style="normal" font-weight="normal" text-decoration="normal" x="-78.07499885559082" y="151" text-anchor="start" dominant-baseline="alphabetic" transform="matrix(6.123233995736766e-17, -1, 1, 6.123233995736766e-17, -125.85000038146973, 184.14999961853027)" stroke-opacity="0" stroke-linejoin="bevel" stroke-miterlimit="10">Days suitable for transmission</text><path fill="rgb(255,255,255)" stroke="rgb(229,229,229)" paint-order="fill" d="M 475.183349609375 205.5 L 560.5000152587891 205.5 L 560.5000152587891 270.5 L 475.183349609375 270.5 L 475.183349609375 205.5 Z" fill-opacity="0.9490196078431372" clip-path="url(#HVUaLbkXUoym)" stroke-opacity="0.5019607843137255" stroke-linejoin="bevel" stroke-miterlimit="10"/><g clip-path="url(#HVUaLbkXUoym)"><g transform="matrix(1, 0, 0, 1, 485.683349609375, 216)"><path fill="none" stroke="#30a2da" paint-order="fill" d="M 0.5 10.5 L 20.5 10.5" stroke-linejoin="bevel" stroke-miterlimit="10" stroke-width="2"/></g></g><g clip-path="url(#HVUaLbkXUoym)"><text fill="#444444" stroke="none" font-family="helvetica" font-size="13px" font-style="normal" font-weight="normal" text-decoration="normal" x="510.683349609375" y="230" text-anchor="start" dominant-baseline="alphabetic" transform="matrix(1, 0, 0, 1, 0.5, 0.5)">ID 001</text></g><g clip-path="url(#HVUaLbkXUoym)"><text fill="none" stroke="rgb(0,0,0)" font-family="helvetica" font-size="13px" font-style="normal" font-weight="normal" text-decoration="normal" x="510.683349609375" y="230" text-anchor="start" dominant-baseline="alphabetic" transform="matrix(1, 0, 0, 1, 0.5, 0.5)" stroke-opacity="0" stroke-linejoin="bevel" stroke-miterlimit="10">ID 001</text></g><g clip-path="url(#HVUaLbkXUoym)"><g transform="matrix(1, 0, 0, 1, 485.683349609375, 239)"><path fill="none" stroke="#fc4f30" paint-order="fill" d="M 0.5 10.5 L 20.5 10.5" stroke-linejoin="bevel" stroke-miterlimit="10" stroke-width="2"/></g></g><g clip-path="url(#HVUaLbkXUoym)"><text fill="#444444" stroke="none" font-family="helvetica" font-size="13px" font-style="normal" font-weight="normal" text-decoration="normal" x="510.683349609375" y="253" text-anchor="start" dominant-baseline="alphabetic" transform="matrix(1, 0, 0, 1, 0.5, 0.5)">ID 006</text></g><g clip-path="url(#HVUaLbkXUoym)"><text fill="none" stroke="rgb(0,0,0)" font-family="helvetica" font-size="13px" font-style="normal" font-weight="normal" text-decoration="normal" x="510.683349609375" y="253" text-anchor="start" dominant-baseline="alphabetic" transform="matrix(1, 0, 0, 1, 0.5, 0.5)" stroke-opacity="0" stroke-linejoin="bevel" stroke-miterlimit="10">ID 006</text></g><text fill="black" stroke="none" font-family="helvetica" font-size="14pt" font-style="normal" font-weight="normal" text-decoration="normal" x="0" y="15" text-anchor="start" dominant-baseline="alphabetic" transform="matrix(1, 0, 0, 1, 5.5, 5.5)">C. Addis Ababa</text><text fill="none" stroke="rgb(0,0,0)" font-family="helvetica" font-size="14pt" font-style="normal" font-weight="normal" text-decoration="normal" x="0" y="15" text-anchor="start" dominant-baseline="alphabetic" transform="matrix(1, 0, 0, 1, 5.5, 5.5)" stroke-opacity="0" stroke-linejoin="bevel" stroke-miterlimit="10">C. Addis Ababa</text></svg>