<svg version="1.1" xmlns="http://www.w3.org/2000/svg" width="600" height="329"><defs><clipPath id="DCvLbVpwhLTl"><path fill="none" stroke="none" d="M 70.5 30.5 L 570.5 30.5 L 570.5 280.5 L 70.5 280.5 L 70.5 30.5 Z"/></clipPath><clipPath id="BWVOeIKfAaeS"><path fill="none" stroke="none" d="M 70.5 30.5 L 570.5 30.5 L 570.5 280.5 L 70.5 280.5 L 70.5 30.5 Z"/></clipPath><clipPath id="PymvDsSfbvqU"><path fill="none" stroke="none" d="M 70.5 30.5 L 570.5 30.5 L 570.5 280.5 L 70.5 280.5 L 70.5 30.5 Z"/></clipPath><clipPath id="AFtoAkgQppnp"><path fill="none" stroke="none" d="M 70.5 30.5 L 570.5 30.5 L 570.5 280.5 L 70.5 280.5 L 70.5 30.5 Z"/></clipPath><clipPath id="hhrRPKNUeHyd"><path fill="none" stroke="none" d="M 70.5 30.5 L 570.5 30.5 L 570.5 280.5 L 70.5 280.5 L 70.5 30.5 Z"/></clipPath><clipPath id="NAyiixsBRGoV"><path fill="none" stroke="none" d="M 70.5 30.5 L 570.5 30.5 L 570.5 280.5 L 70.5 280.5 L 70.5 30.5 Z"/></clipPath><clipPath id="DZfTmSVuUGXf"><path fill="none" stroke="none" d="M 70.5 30.5 L 570.5 30.5 L 570.5 280.5 L 70.5 280.5 L 70.5 30.5 Z"/></clipPath><clipPath id="MtTGNRUmuEnL"><path fill="none" stroke="none" d="M 70.5 30.5 L 570.5 30.5 L 570.5 280.5 L 70.5 280.5 L 70.5 30.5 Z"/></clipPath><clipPath id="qSCfwObPRghp"><path fill="none" stroke="none" d="M 70.5 30.5 L 570.5 30.5 L 570.5 280.5 L 70.5 280.5 L 70.5 30.5 Z"/></clipPath><clipPath id="gtvNIEHTRLsD"><path fill="none" stroke="none" d="M 70.5 30.5 L 570.5 30.5 L 570.5 280.5 L 70.5 280.5 L 70.5 30.5 Z"/></clipPath><clipPath id="lCvAzLRtiEml"><path fill="none" stroke="none" d="M 70.5 30.5 L 570.5 30.5 L 570.5 280.5 L 70.5 280.5 L 70.5 30.5 Z"/></clipPath><clipPath id="CvhuPXfZrPgL"><path fill="none" stroke="none" d="M 70.5 30.5 L 570.5 30.5 L 570.5 280.5 L 70.5 280.5 L 70.5 30.5 Z"/></clipPath><clipPath id="TIEXQUyyaWVZ"><path fill="none" stroke="none" d="M 70.5 30.5 L 570.5 30.5 L 570.5 280.5 L 70.5 280.5 L 70.5 30.5 Z"/></clipPath><clipPath id="EwnRDmHfUmZb"><path fill="none" stroke="none" d="M 70.5 30.5 L 570.5 30.5 L 570.5 280.5 L 70.5 280.5 L 70.5 30.5 Z"/></clipPath><clipPath id="lBzQBnbTBUXX"><path fill="none" stroke="none" d="M 70.5 30.5 L 570.5 30.5 L 570.5 280.5 L 70.5 280.5 L 70.5 30.5 Z"/></clipPath><clipPath id="pBBqTqPekaUy"><path fill="none" stroke="none" d="M 70.5 30.5 L 570.5 30.5 L 570.5 280.5 L 70.5 280.5 L 70.5 30.5 Z"/></clipPath><clipPath id="BxgIAJcOPBrV"><path fill="none" stroke="none" d="M 70.5 30.5 L 570.5 30.5 L 570.5 280.5 L 70.5 280.5 L 70.5 30.5 Z"/></clipPath><clipPath id="EkdUItVrgtHR"><path fill="none" stroke="none" d="M 70.5 30.5 L 570.5 30.5 L 570.5 280.5 L 70.5 280.5 L 70.5 30.5 Z"/></clipPath><clipPath id="fmGmelJXexRO"><path fill="none" stroke="none" d="M 70.5 30.5 L 570.5 30.5 L 570.5 280.5 L 70.5 280.5 L 70.5 30.5 Z"/></clipPath><clipPath id="rUeBsXMSRXWX"><path fill="none" stroke="none" d="M 70.5 30.5 L 570.5 30.5 L 570.5 280.5 L 70.5 280.5 L 70.5 30.5 Z"/></clipPath><clipPath id="fScKgnpnUtSk"><path fill="none" stroke="none" d="M 70.5 30.5 L 570.5 30.5 L 570.5 280.5 L 70.5 280.5 L 70.5 30.5 Z"/></clipPath><clipPath id="HJEraMltLTno"><path fill="none" stroke="none" d="M 70.5 30.5 L 570.5 30.5 L 570.5 280.5 L 70.5 280.5 L 70.5 30.5 Z"/></clipPath><clipPath id="cHAXLgFaiTQF"><path fill="none" stroke="none" d="M 70.5 30.5 L 570.5 30.5 L 570.5 280.5 L 70.5 280.5 L 70.5 30.5 Z"/></clipPath></defs><path fill="none" stroke="#e5e5e5" paint-order="fill" d="M 70.5 30.5 L 570.5 30.5 L 570.5 280.5 L 70.5 280.5 L 70.5 30.5 Z" stroke-linejoin="bevel" stroke-miterlimit="10"/><path fill="none" stroke="black" paint-order="fill" d="M 332.46172248803487 30.5 L 332.46172248803487 280.5" stroke-linejoin="bevel" stroke-miterlimit="10" stroke-width="3" stroke-dasharray="6" clip-path="url(#PymvDsSfbvqU)"/><path fill="none" stroke="#9467bd" paint-order="fill" d="M 93.2272720336914 157.043212890625 L 117.15071868896484 137.40235900878906 L 141.07415771484375 140.20819091796875 L 164.9976043701172 89.70314025878906 L 188.92105102539062 176.68406677246094 L 212.84449768066406 134.59652709960938 L 236.7679443359375 123.37317657470703 L 260.6913757324219 145.8198699951172 L 284.6148376464844 112.14983367919922 L 308.53826904296875 112.14983367919922" stroke-linejoin="bevel" stroke-miterlimit="10" stroke-width="2" clip-path="url(#AFtoAkgQppnp)"/><path fill="none" stroke="#9467bd" paint-order="fill" d="M 93.2272720336914 157.043212890625 L 117.15071868896484 137.40235900878906 L 141.07415771484375 140.20819091796875 L 164.9976043701172 89.70314025878906 L 188.92105102539062 176.68406677246094 L 212.84449768066406 134.59652709960938 L 236.7679443359375 123.37317657470703 L 260.6913757324219 145.8198699951172 L 284.6148376464844 112.14983367919922 L 308.53826904296875 112.14983367919922" stroke-linejoin="bevel" stroke-miterlimit="10" stroke-width="2" stroke-dasharray="6" clip-path="url(#hhrRPKNUeHyd)"/><path fill="none" stroke="#30a2da" paint-order="fill" d="M 308.53826904296875 112.14983367919922 L 332.46173095703125 168.2665557861328 L 356.3851623535156 207.5482635498047 L 380.3086242675781 154.2373809814453 L 404.2320556640625 72.86812591552734 L 428.155517578125 123.37317657470703 L 452.0789489746094 70.06228637695312 L 476.00238037109375 145.8198699951172 L 499.92584228515625 95.31481170654297 L 523.8493041992188 103.7323226928711 L 547.772705078125 145.8198699951172" stroke-linejoin="bevel" stroke-miterlimit="10" stroke-width="2" clip-path="url(#NAyiixsBRGoV)"/><path fill="none" stroke="#30a2da" paint-order="fill" d="M 332.46173095703125 157.55335998535156 L 356.3851623535156 151.1424560546875 L 380.3086242675781 144.73153686523438 L 404.2320556640625 138.3206329345703 L 428.155517578125 131.9097137451172 L 452.0789489746094 125.49880981445312 L 476.00238037109375 119.08789825439453 L 499.92584228515625 112.67698669433594 L 523.8493041992188 106.26607513427734 L 547.772705078125 99.85517120361328" stroke-linejoin="bevel" stroke-miterlimit="10" stroke-width="2" stroke-dasharray="6" clip-path="url(#DZfTmSVuUGXf)"/><path fill="none" stroke="#fc4f30" paint-order="fill" d="M 308.53826904296875 112.14983367919922 L 332.46173095703125 179.48989868164062 L 356.3851623535156 131.79067993164062 L 380.3086242675781 98.12065124511719 L 404.2320556640625 106.53816223144531 L 428.155517578125 137.40235900878906 L 452.0789489746094 95.31481170654297 L 476.00238037109375 137.40235900878906 L 499.92584228515625 168.2665557861328 L 523.8493041992188 173.8782196044922 L 547.772705078125 182.2957305908203" stroke-linejoin="bevel" stroke-miterlimit="10" stroke-width="2" clip-path="url(#MtTGNRUmuEnL)"/><path fill="none" stroke="#fc4f30" paint-order="fill" d="M 332.46173095703125 121.38358306884766 L 356.3851623535156 125.7538833618164 L 380.3086242675781 130.1241912841797 L 404.2320556640625 134.49449157714844 L 428.155517578125 138.8647918701172 L 452.0789489746094 143.23509216308594 L 476.00238037109375 147.6053924560547 L 499.92584228515625 151.97569274902344 L 523.8493041992188 156.34600830078125 L 547.772705078125 160.71630859375" stroke-linejoin="bevel" stroke-miterlimit="10" stroke-width="2" stroke-dasharray="6" clip-path="url(#qSCfwObPRghp)"/><path fill="none" stroke="rgb(128,128,128)" paint-order="fill" d="M 93.2272720336914 187.90740966796875 L 117.15071868896484 162.65487670898438 L 141.07415771484375 154.2373809814453 L 164.9976043701172 120.56733703613281 L 188.92105102539062 151.43153381347656 L 212.84449768066406 112.14983367919922 L 236.7679443359375 86.89730834960938 L 260.6913757324219 159.8490447998047 L 284.6148376464844 92.50897979736328 L 308.53826904296875 137.40235900878906" stroke-opacity="0.7490196078431373" stroke-linejoin="bevel" stroke-miterlimit="10" clip-path="url(#gtvNIEHTRLsD)"/><path fill="none" stroke="grey" paint-order="fill" d="M 308.53826904296875 137.40235900878906 L 332.46173095703125 154.2373809814453 L 356.3851623535156 143.01402282714844 L 380.3086242675781 131.79067993164062 L 404.2320556640625 151.43153381347656 L 428.155517578125 81.28563690185547 L 452.0789489746094 120.56733703613281 L 476.00238037109375 157.043212890625 L 499.92584228515625 109.343994140625 L 523.8493041992188 123.37317657470703 L 547.772705078125 126.17901611328125" stroke-linejoin="bevel" stroke-miterlimit="10" stroke-width="0.5" clip-path="url(#lCvAzLRtiEml)"/><path fill="none" stroke="grey" paint-order="fill" d="M 308.53826904296875 137.40235900878906 L 332.46173095703125 134.59652709960938 L 356.3851623535156 179.48989868164062 L 380.3086242675781 182.2957305908203 L 404.2320556640625 112.14983367919922 L 428.155517578125 168.2665557861328 L 452.0789489746094 123.37317657470703 L 476.00238037109375 134.59652709960938 L 499.92584228515625 159.8490447998047 L 523.8493041992188 117.76150512695312 L 547.772705078125 151.43153381347656" stroke-linejoin="bevel" stroke-miterlimit="10" stroke-width="0.5" clip-path="url(#CvhuPXfZrPgL)"/><path fill="none" stroke="rgb(128,128,128)" paint-order="fill" d="M 93.2272720336914 100.9264907836914 L 117.15071868896484 123.37317657470703 L 141.07415771484375 117.76150512695312 L 164.9976043701172 98.12065124511719 L 188.92105102539062 143.01402282714844 L 212.84449768066406 100.9264907836914 L 236.7679443359375 89.70314025878906 L 260.6913757324219 140.20819091796875 L 284.6148376464844 95.31481170654297 L 308.53826904296875 131.79067993164062" stroke-opacity="0.7490196078431373" stroke-linejoin="bevel" stroke-miterlimit="10" clip-path="url(#TIEXQUyyaWVZ)"/><path fill="none" stroke="grey" paint-order="fill" d="M 308.53826904296875 131.79067993164062 L 332.46173095703125 151.43153381347656 L 356.3851623535156 106.53816223144531 L 380.3086242675781 86.89730834960938 L 404.2320556640625 75.67396545410156 L 428.155517578125 95.31481170654297 L 452.0789489746094 137.40235900878906 L 476.00238037109375 140.20819091796875 L 499.92584228515625 229.9949493408203 L 523.8493041992188 173.8782196044922 L 547.772705078125 126.17901611328125" stroke-linejoin="bevel" stroke-miterlimit="10" stroke-width="0.5" clip-path="url(#EwnRDmHfUmZb)"/><path fill="none" stroke="grey" paint-order="fill" d="M 308.53826904296875 131.79067993164062 L 332.46173095703125 72.86812591552734 L 356.3851623535156 100.9264907836914 L 380.3086242675781 117.76150512695312 L 404.2320556640625 103.7323226928711 L 428.155517578125 53.227272033691406 L 452.0789489746094 117.76150512695312 L 476.00238037109375 190.71324157714844 L 499.92584228515625 143.01402282714844 L 523.8493041992188 109.343994140625 L 547.772705078125 114.9556655883789" stroke-linejoin="bevel" stroke-miterlimit="10" stroke-width="0.5" clip-path="url(#lBzQBnbTBUXX)"/><path fill="none" stroke="rgb(128,128,128)" paint-order="fill" d="M 93.2272720336914 173.8782196044922 L 117.15071868896484 140.20819091796875 L 141.07415771484375 103.7323226928711 L 164.9976043701172 151.43153381347656 L 188.92105102539062 227.18911743164062 L 212.84449768066406 86.89730834960938 L 236.7679443359375 131.79067993164062 L 260.6913757324219 106.53816223144531 L 284.6148376464844 123.37317657470703 L 308.53826904296875 145.8198699951172" stroke-opacity="0.7490196078431373" stroke-linejoin="bevel" stroke-miterlimit="10" clip-path="url(#pBBqTqPekaUy)"/><path fill="none" stroke="grey" paint-order="fill" d="M 308.53826904296875 145.8198699951172 L 332.46173095703125 134.59652709960938 L 356.3851623535156 154.2373809814453 L 380.3086242675781 154.2373809814453 L 404.2320556640625 151.43153381347656 L 428.155517578125 120.56733703613281 L 452.0789489746094 168.2665557861328 L 476.00238037109375 128.98484802246094 L 499.92584228515625 126.17901611328125 L 523.8493041992188 109.343994140625 L 547.772705078125 100.9264907836914" stroke-linejoin="bevel" stroke-miterlimit="10" stroke-width="0.5" clip-path="url(#BxgIAJcOPBrV)"/><path fill="none" stroke="grey" paint-order="fill" d="M 308.53826904296875 145.8198699951172 L 332.46173095703125 89.70314025878906 L 356.3851623535156 154.2373809814453 L 380.3086242675781 143.01402282714844 L 404.2320556640625 165.46072387695312 L 428.155517578125 159.8490447998047 L 452.0789489746094 117.76150512695312 L 476.00238037109375 100.9264907836914 L 499.92584228515625 70.06228637695312 L 523.8493041992188 64.45061874389648 L 547.772705078125 81.28563690185547" stroke-linejoin="bevel" stroke-miterlimit="10" stroke-width="0.5" clip-path="url(#EkdUItVrgtHR)"/><path fill="none" stroke="rgb(128,128,128)" paint-order="fill" d="M 93.2272720336914 126.17901611328125 L 117.15071868896484 117.76150512695312 L 141.07415771484375 123.37317657470703 L 164.9976043701172 165.46072387695312 L 188.92105102539062 145.8198699951172 L 212.84449768066406 145.8198699951172 L 236.7679443359375 117.76150512695312 L 260.6913757324219 131.79067993164062 L 284.6148376464844 176.68406677246094 L 308.53826904296875 89.70314025878906" stroke-opacity="0.7490196078431373" stroke-linejoin="bevel" stroke-miterlimit="10" clip-path="url(#fmGmelJXexRO)"/><path fill="none" stroke="grey" paint-order="fill" d="M 308.53826904296875 89.70314025878906 L 332.46173095703125 114.9556655883789 L 356.3851623535156 131.79067993164062 L 380.3086242675781 106.53816223144531 L 404.2320556640625 89.70314025878906 L 428.155517578125 171.0723876953125 L 452.0789489746094 117.76150512695312 L 476.00238037109375 128.98484802246094 L 499.92584228515625 143.01402282714844 L 523.8493041992188 95.31481170654297 L 547.772705078125 109.343994140625" stroke-linejoin="bevel" stroke-miterlimit="10" stroke-width="0.5" clip-path="url(#rUeBsXMSRXWX)"/><path fill="none" stroke="grey" paint-order="fill" d="M 308.53826904296875 89.70314025878906 L 332.46173095703125 148.62570190429688 L 356.3851623535156 126.17901611328125 L 380.3086242675781 157.043212890625 L 404.2320556640625 151.43153381347656 L 428.155517578125 173.8782196044922 L 452.0789489746094 176.68406677246094 L 476.00238037109375 143.01402282714844 L 499.92584228515625 176.68406677246094 L 523.8493041992188 120.56733703613281 L 547.772705078125 95.31481170654297" stroke-linejoin="bevel" stroke-miterlimit="10" stroke-width="0.5" clip-path="url(#fScKgnpnUtSk)"/><path fill="none" stroke="black" paint-order="fill" d="M 70.5 280.5 L 570.5 280.5" stroke-linejoin="bevel" stroke-miterlimit="10"/><path fill="none" stroke="black" paint-order="fill" d="M 93.5 286.5 L 93.5 278.5 M 212.5 286.5 L 212.5 278.5 M 332.5 286.5 L 332.5 278.5 M 452.5 286.5 L 452.5 278.5" stroke-linejoin="bevel" stroke-miterlimit="10"/><path fill="none" stroke="black" paint-order="fill" d="M 93.5 284.5 L 93.5 280.5 M 117.5 284.5 L 117.5 280.5 M 141.5 284.5 L 141.5 280.5 M 164.5 284.5 L 164.5 280.5 M 188.5 284.5 L 188.5 280.5 M 212.5 284.5 L 212.5 280.5 M 236.5 284.5 L 236.5 280.5 M 260.5 284.5 L 260.5 280.5 M 284.5 284.5 L 284.5 280.5 M 308.5 284.5 L 308.5 280.5 M 332.5 284.5 L 332.5 280.5 M 356.5 284.5 L 356.5 280.5 M 380.5 284.5 L 380.5 280.5 M 404.5 284.5 L 404.5 280.5 M 428.5 284.5 L 428.5 280.5 M 452.5 284.5 L 452.5 280.5 M 476.5 284.5 L 476.5 280.5 M 499.5 284.5 L 499.5 280.5 M 523.5 284.5 L 523.5 280.5 M 547.5 284.5 L 547.5 280.5" stroke-linejoin="bevel" stroke-miterlimit="10"/><text fill="#444444" stroke="none" font-family="helvetica" font-size="10pt" font-style="normal" font-weight="normal" text-decoration="normal" x="77.82727241516113" y="300.59368896484375" text-anchor="start" dominant-baseline="alphabetic" transform="matrix(1, 0, 0, 1, 0.5, 0.5)">2025</text><text fill="none" stroke="rgb(0,0,0)" font-family="helvetica" font-size="10pt" font-style="normal" font-weight="normal" text-decoration="normal" x="77.82727241516113" y="300.59368896484375" text-anchor="start" dominant-baseline="alphabetic" transform="matrix(1, 0, 0, 1, 0.5, 0.5)" stroke-opacity="0" stroke-linejoin="bevel" stroke-miterlimit="10">2025</text><text fill="#444444" stroke="none" font-family="helvetica" font-size="10pt" font-style="normal" font-weight="normal" text-decoration="normal" x="197.4444980621338" y="300.59368896484375" text-anchor="start" dominant-baseline="alphabetic" transform="matrix(1, 0, 0, 1, 0.5, 0.5)">2030</text><text fill="none" stroke="rgb(0,0,0)" font-family="helvetica" font-size="10pt" font-style="normal" font-weight="normal" text-decoration="normal" x="197.4444980621338" y="300.59368896484375" text-anchor="start" dominant-baseline="alphabetic" transform="matrix(1, 0, 0, 1, 0.5, 0.5)" stroke-opacity="0" stroke-linejoin="bevel" stroke-miterlimit="10">2030</text><text fill="#444444" stroke="none" font-family="helvetica" font-size="10pt" font-style="normal" font-weight="normal" text-decoration="normal" x="317.061731338501" y="300.59368896484375" text-anchor="start" dominant-baseline="alphabetic" transform="matrix(1, 0, 0, 1, 0.5, 0.5)">2035</text><text fill="none" stroke="rgb(0,0,0)" font-family="helvetica" font-size="10pt" font-style="normal" font-weight="normal" text-decoration="normal" x="317.061731338501" y="300.59368896484375" text-anchor="start" dominant-baseline="alphabetic" transform="matrix(1, 0, 0, 1, 0.5, 0.5)" stroke-opacity="0" stroke-linejoin="bevel" stroke-miterlimit="10">2035</text><text fill="#444444" stroke="none" font-family="helvetica" font-size="10pt" font-style="normal" font-weight="normal" text-decoration="normal" x="436.6789493560791" y="300.59368896484375" text-anchor="start" dominant-baseline="alphabetic" transform="matrix(1, 0, 0, 1, 0.5, 0.5)">2040</text><text fill="none" stroke="rgb(0,0,0)" font-family="helvetica" font-size="10pt" font-style="normal" font-weight="normal" text-decoration="normal" x="436.6789493560791" y="300.59368896484375" text-anchor="start" dominant-baseline="alphabetic" transform="matrix(1, 0, 0, 1, 0.5, 0.5)" stroke-opacity="0" stroke-linejoin="bevel" stroke-miterlimit="10">2040</text><text fill="#444444" stroke="none" font-family="helvetica" font-size="12pt" font-style="normal" font-weight="normal" text-decoration="normal" x="303.8333339691162" y="321.59368896484375" text-anchor="start" dominant-baseline="alphabetic" transform="matrix(1, 0, 0, 1, 0.5, 0.5)">Year</text><text fill="none" stroke="rgb(0,0,0)" font-family="helvetica" font-size="12pt" font-style="normal" font-weight="normal" text-decoration="normal" x="303.8333339691162" y="321.59368896484375" text-anchor="start" dominant-baseline="alphabetic" transform="matrix(1, 0, 0, 1, 0.5, 0.5)" stroke-opacity="0" stroke-linejoin="bevel" stroke-miterlimit="10">Year</text><path fill="none" stroke="black" paint-order="fill" d="M 70.5 280.5 L 70.5 30.5" stroke-linejoin="bevel" stroke-miterlimit="10"/><path fill="none" stroke="black" paint-order="fill" d="M 64.5 280.5 L 72.5 280.5 M 64.5 224.5 L 72.5 224.5 M 64.5 168.5 L 72.5 168.5 M 64.5 112.5 L 72.5 112.5 M 64.5 56.5 L 72.5 56.5" stroke-linejoin="bevel" stroke-miterlimit="10"/><path fill="none" stroke="black" paint-order="fill" d="M 66.5 280.5 L 70.5 280.5 M 66.5 269.5 L 70.5 269.5 M 66.5 258.5 L 70.5 258.5 M 66.5 246.5 L 70.5 246.5 M 66.5 235.5 L 70.5 235.5 M 66.5 224.5 L 70.5 224.5 M 66.5 213.5 L 70.5 213.5 M 66.5 201.5 L 70.5 201.5 M 66.5 190.5 L 70.5 190.5 M 66.5 179.5 L 70.5 179.5 M 66.5 168.5 L 70.5 168.5 M 66.5 157.5 L 70.5 157.5 M 66.5 145.5 L 70.5 145.5 M 66.5 134.5 L 70.5 134.5 M 66.5 123.5 L 70.5 123.5 M 66.5 112.5 L 70.5 112.5 M 66.5 100.5 L 70.5 100.5 M 66.5 89.5 L 70.5 89.5 M 66.5 78.5 L 70.5 78.5 M 66.5 67.5 L 70.5 67.5 M 66.5 56.5 L 70.5 56.5 M 66.5 44.5 L 70.5 44.5 M 66.5 33.5 L 70.5 33.5" stroke-linejoin="bevel" stroke-miterlimit="10"/><text fill="#444444" stroke="none" font-family="helvetica" font-size="10pt" font-style="normal" font-weight="normal" text-decoration="normal" x="51.55000019073486" y="284.7968444824219" text-anchor="start" dominant-baseline="alphabetic" transform="matrix(1, 0, 0, 1, 0.5, 0.5)">0</text><text fill="none" stroke="rgb(0,0,0)" font-family="helvetica" font-size="10pt" font-style="normal" font-weight="normal" text-decoration="normal" x="51.55000019073486" y="284.7968444824219" text-anchor="start" dominant-baseline="alphabetic" transform="matrix(1, 0, 0, 1, 0.5, 0.5)" stroke-opacity="0" stroke-linejoin="bevel" stroke-miterlimit="10">0</text><text fill="#444444" stroke="none" font-family="helvetica" font-size="10pt" font-style="normal" font-weight="normal" text-decoration="normal" x="44.10000038146973" y="228.68011474609375" text-anchor="start" dominant-baseline="alphabetic" transform="matrix(1, 0, 0, 1, 0.5, 0.5)">20</text><text fill="none" stroke="rgb(0,0,0)" font-family="helvetica" font-size="10pt" font-style="normal" font-weight="normal" text-decoration="normal" x="44.10000038146973" y="228.68011474609375" text-anchor="start" dominant-baseline="alphabetic" transform="matrix(1, 0, 0, 1, 0.5, 0.5)" stroke-opacity="0" stroke-linejoin="bevel" stroke-miterlimit="10">20</text><text fill="#444444" stroke="none" font-family="helvetica" font-size="10pt" font-style="normal" font-weight="normal" text-decoration="normal" x="44.10000038146973" y="172.5634002685547" text-anchor="start" dominant-baseline="alphabetic" transform="matrix(1, 0, 0, 1, 0.5, 0.5)">40</text><text fill="none" stroke="rgb(0,0,0)" font-family="helvetica" font-size="10pt" font-style="normal" font-weight="normal" text-decoration="normal" x="44.10000038146973" y="172.5634002685547" text-anchor="start" dominant-baseline="alphabetic" transform="matrix(1, 0, 0, 1, 0.5, 0.5)" stroke-opacity="0" stroke-linejoin="bevel" stroke-miterlimit="10">40</text><text fill="#444444" stroke="none" font-family="helvetica" font-size="10pt" font-style="normal" font-weight="normal" text-decoration="normal" x="44.10000038146973" y="116.4466781616211" text-anchor="start" dominant-baseline="alphabetic" transform="matrix(1, 0, 0, 1, 0.5, 0.5)">60</text><text fill="none" stroke="rgb(0,0,0)" font-family="helvetica" font-size="10pt" font-style="normal" font-weight="normal" text-decoration="normal" x="44.10000038146973" y="116.4466781616211" text-anchor="start" dominant-baseline="alphabetic" transform="matrix(1, 0, 0, 1, 0.5, 0.5)" stroke-opacity="0" stroke-linejoin="bevel" stroke-miterlimit="10">60</text><text fill="#444444" stroke="none" font-family="helvetica" font-size="10pt" font-style="normal" font-weight="normal" text-decoration="normal" x="44.10000038146973" y="60.329952239990234" text-anchor="start" dominant-baseline="alphabetic" transform="matrix(1, 0, 0, 1, 0.5, 0.5)">80</text><text fill="none" stroke="rgb(0,0,0)" font-family="helvetica" font-size="10pt" font-style="normal" font-weight="normal" text-decoration="normal" x="44.10000038146973" y="60.329952239990234" text-anchor="start" dominant-baseline="alphabetic" transform="matrix(1, 0, 0, 1, 0.5, 0.5)" stroke-opacity="0" stroke-linejoin="bevel" stroke-miterlimit="10">80</text><text fill="#444444" stroke="none" font-family="helvetica" font-size="12pt" font-style="normal" font-weight="normal" text-decoration="normal" x="-70.62499809265137" y="151" text-anchor="start" dominant-baseline="alphabetic" transform="matrix(6.123233995736766e-17, -1, 1, 6.123233995736766e-17, -118.39999961853027, 191.60000038146973)">Days suitable for transmission</text><text fill="none" stroke="rgb(0,0,0)" font-family="helvetica" font-size="12pt" font-style="normal" font-weight="normal" text-decoration="normal" x="-70.62499809265137" y="151" text-anchor="start" dominant-baseline="alphabetic" transform="matrix(6.123233995736766e-17, -1, 1, 6.123233995736766e-17, -118.39999961853027, 191.60000038146973)" stroke-opacity="0" stroke-linejoin="bevel" stroke-miterlimit="10">Days suitable for transmission</text><path fill="rgb(255,255,255)" stroke="rgb(229,229,229)" paint-order="fill" d="M 475.183349609375 205.5 L 560.5000152587891 205.5 L 560.5000152587891 270.5 L 475.183349609375 270.5 L 475.183349609375 205.5 Z" fill-opacity="0.9490196078431372" clip-path="url(#HJEraMltLTno)" stroke-opacity="0.5019607843137255" stroke-linejoin="bevel" stroke-miterlimit="10"/><g clip-path="url(#HJEraMltLTno)"><g transform="matrix(1, 0, 0, 1, 485.683349609375, 216)"><path fill="none" stroke="#30a2da" paint-order="fill" d="M 0.5 10.5 L 20.5 10.5" stroke-linejoin="bevel" stroke-miterlimit="10" stroke-width="2"/></g></g><g clip-path="url(#HJEraMltLTno)"><text fill="#444444" stroke="none" font-family="helvetica" font-size="13px" font-style="normal" font-weight="normal" text-decoration="normal" x="510.683349609375" y="230" text-anchor="start" dominant-baseline="alphabetic" transform="matrix(1, 0, 0, 1, 0.5, 0.5)">ID 001</text></g><g clip-path="url(#HJEraMltLTno)"><text fill="none" stroke="rgb(0,0,0)" font-family="helvetica" font-size="13px" font-style="normal" font-weight="normal" text-decoration="normal" x="510.683349609375" y="230" text-anchor="start" dominant-baseline="alphabetic" transform="matrix(1, 0, 0, 1, 0.5, 0.5)" stroke-opacity="0" stroke-linejoin="bevel" stroke-miterlimit="10">ID 001</text></g><g clip-path="url(#HJEraMltLTno)"><g transform="matrix(1, 0, 0, 1, 485.683349609375, 239)"><path fill="none" stroke="#fc4f30" paint-order="fill" d="M 0.5 10.5 L 20.5 10.5" stroke-linejoin="bevel" stroke-miterlimit="10" stroke-width="2"/></g></g><g clip-path="url(#HJEraMltLTno)"><text fill="#444444" stroke="none" font-family="helvetica" font-size="13px" font-style="normal" font-weight="normal" text-decoration="normal" x="510.683349609375" y="253" text-anchor="start" dominant-baseline="alphabetic" transform="matrix(1, 0, 0, 1, 0.5, 0.5)">ID 006</text></g><g clip-path="url(#HJEraMltLTno)"><text fill="none" stroke="rgb(0,0,0)" font-family="helvetica" font-size="13px" font-style="normal" font-weight="normal" text-decoration="normal" x="510.683349609375" y="253" text-anchor="start" dominant-baseline="alphabetic" transform="matrix(1, 0, 0, 1, 0.5, 0.5)" stroke-opacity="0" stroke-linejoin="bevel" stroke-miterlimit="10">ID 006</text></g><text fill="black" stroke="none" font-family="helvetica" font-size="14pt" font-style="normal" font-weight="normal" text-decoration="normal" x="0" y="15" text-anchor="start" dominant-baseline="alphabetic" transform="matrix(1, 0, 0, 1, 5.5, 5.5)">B. Seattle</text><text fill="none" stroke="rgb(0,0,0)" font-family="helvetica" font-size="14pt" font-style="normal" font-weight="normal" text-decoration="normal" x="0" y="15" text-anchor="start" dominant-baseline="alphabetic" transform="matrix(1, 0, 0, 1, 5.5, 5.5)" stroke-opacity="0" stroke-linejoin="bevel" stroke-miterlimit="10">B. Seattle</text></svg>