<svg version="1.1" xmlns="http://www.w3.org/2000/svg" width="605" height="331"><defs><clipPath id="nKqbyKoertQA"><path fill="none" stroke="none" d="M 75.5 32.5 L 575.5 32.5 L 575.5 282.5 L 75.5 282.5 L 75.5 32.5 Z"/></clipPath><clipPath id="lQXpakrbNKfc"><path fill="none" stroke="none" d="M 75.5 32.5 L 575.5 32.5 L 575.5 282.5 L 75.5 282.5 L 75.5 32.5 Z"/></clipPath><clipPath id="booncQcGJFiX"><path fill="none" stroke="none" d="M 75.5 32.5 L 575.5 32.5 L 575.5 282.5 L 75.5 282.5 L 75.5 32.5 Z"/></clipPath><clipPath id="ODARISkPVRUP"><path fill="none" stroke="none" d="M 75.5 32.5 L 575.5 32.5 L 575.5 282.5 L 75.5 282.5 L 75.5 32.5 Z"/></clipPath><clipPath id="MhPSwRrhfqVs"><path fill="none" stroke="none" d="M 75.5 32.5 L 575.5 32.5 L 575.5 282.5 L 75.5 282.5 L 75.5 32.5 Z"/></clipPath><clipPath id="EkhaqIsiSGfK"><path fill="none" stroke="none" d="M 75.5 32.5 L 575.5 32.5 L 575.5 282.5 L 75.5 282.5 L 75.5 32.5 Z"/></clipPath><clipPath id="WyUtDeRxJBIe"><path fill="none" stroke="none" d="M 75.5 32.5 L 575.5 32.5 L 575.5 282.5 L 75.5 282.5 L 75.5 32.5 Z"/></clipPath><clipPath id="TzKLTtpwCTCc"><path fill="none" stroke="none" d="M 75.5 32.5 L 575.5 32.5 L 575.5 282.5 L 75.5 282.5 L 75.5 32.5 Z"/></clipPath><clipPath id="eTkmDuTDJRnV"><path fill="none" stroke="none" d="M 75.5 32.5 L 575.5 32.5 L 575.5 282.5 L 75.5 282.5 L 75.5 32.5 Z"/></clipPath><clipPath id="GZtpbZDdCKoS"><path fill="none" stroke="none" d="M 75.5 32.5 L 575.5 32.5 L 575.5 282.5 L 75.5 282.5 L 75.5 32.5 Z"/></clipPath><clipPath id="nziEUhkVRZNx"><path fill="none" stroke="none" d="M 75.5 32.5 L 575.5 32.5 L 575.5 282.5 L 75.5 282.5 L 75.5 32.5 Z"/></clipPath><clipPath id="bImQRmZFvvFs"><path fill="none" stroke="none" d="M 75.5 32.5 L 575.5 32.5 L 575.5 282.5 L 75.5 282.5 L 75.5 32.5 Z"/></clipPath><clipPath id="lFhMLEebKWJx"><path fill="none" stroke="none" d="M 75.5 32.5 L 575.5 32.5 L 575.5 282.5 L 75.5 282.5 L 75.5 32.5 Z"/></clipPath><clipPath id="bECHBxvBqOtm"><path fill="none" stroke="none" d="M 75.5 32.5 L 575.5 32.5 L 575.5 282.5 L 75.5 282.5 L 75.5 32.5 Z"/></clipPath><clipPath id="DstQzxplVdLI"><path fill="none" stroke="none" d="M 75.5 32.5 L 575.5 32.5 L 575.5 282.5 L 75.5 282.5 L 75.5 32.5 Z"/></clipPath><clipPath id="BwcxkOTokPSx"><path fill="none" stroke="none" d="M 75.5 32.5 L 575.5 32.5 L 575.5 282.5 L 75.5 282.5 L 75.5 32.5 Z"/></clipPath><clipPath id="BsdonsBJPAhF"><path fill="none" stroke="none" d="M 75.5 32.5 L 575.5 32.5 L 575.5 282.5 L 75.5 282.5 L 75.5 32.5 Z"/></clipPath><clipPath id="hmZAhoZSTkTN"><path fill="none" stroke="none" d="M 75.5 32.5 L 575.5 32.5 L 575.5 282.5 L 75.5 282.5 L 75.5 32.5 Z"/></clipPath><clipPath id="MblNtCtUqRyd"><path fill="none" stroke="none" d="M 75.5 32.5 L 575.5 32.5 L 575.5 282.5 L 75.5 282.5 L 75.5 32.5 Z"/></clipPath><clipPath id="pZftxNwirGVT"><path fill="none" stroke="none" d="M 75.5 32.5 L 575.5 32.5 L 575.5 282.5 L 75.5 282.5 L 75.5 32.5 Z"/></clipPath><clipPath id="vmbQiMweqOOG"><path fill="none" stroke="none" d="M 75.5 32.5 L 575.5 32.5 L 575.5 282.5 L 75.5 282.5 L 75.5 32.5 Z"/></clipPath><clipPath id="LRAAcXxIttSI"><path fill="none" stroke="none" d="M 75.5 32.5 L 575.5 32.5 L 575.5 282.5 L 75.5 282.5 L 75.5 32.5 Z"/></clipPath><clipPath id="hGCTvMIzskFm"><path fill="none" stroke="none" d="M 75.5 32.5 L 575.5 32.5 L 575.5 282.5 L 75.5 282.5 L 75.5 32.5 Z"/></clipPath></defs><path fill="none" stroke="#e5e5e5" paint-order="fill" d="M 75.5 32.5 L 575.5 32.5 L 575.5 282.5 L 75.5 282.5 L 75.5 32.5 Z" stroke-linejoin="bevel" stroke-miterlimit="10"/><path fill="none" stroke="black" paint-order="fill" d="M 337.46172248803487 32.5 L 337.46172248803487 282.5" stroke-linejoin="bevel" stroke-miterlimit="10" stroke-width="3" stroke-dasharray="6" clip-path="url(#booncQcGJFiX)"/><path fill="none" stroke="#9467bd" paint-order="fill" d="M 98.2272720336914 89.11882019042969 L 122.15071868896484 90.11563110351562 L 146.07415771484375 85.13157653808594 L 169.9976043701172 86.12838745117188 L 193.92105102539062 78.1539077758789 L 217.84449768066406 81.14434051513672 L 241.7679443359375 83.1379623413086 L 265.6913757324219 84.134765625 L 289.6148376464844 80.14752960205078 L 313.53826904296875 70.17942810058594" stroke-linejoin="bevel" stroke-miterlimit="10" stroke-width="2" clip-path="url(#ODARISkPVRUP)"/><path fill="none" stroke="#9467bd" paint-order="fill" d="M 98.2272720336914 89.11882019042969 L 122.15071868896484 90.11563110351562 L 146.07415771484375 85.13157653808594 L 169.9976043701172 86.12838745117188 L 193.92105102539062 78.1539077758789 L 217.84449768066406 81.14434051513672 L 241.7679443359375 83.1379623413086 L 265.6913757324219 84.134765625 L 289.6148376464844 80.14752960205078 L 313.53826904296875 70.17942810058594" stroke-linejoin="bevel" stroke-miterlimit="10" stroke-width="2" stroke-dasharray="6" clip-path="url(#MhPSwRrhfqVs)"/><path fill="none" stroke="#30a2da" paint-order="fill" d="M 313.53826904296875 70.17942810058594 L 337.46173095703125 65.19537353515625 L 361.3851623535156 77.15709686279297 L 385.3086242675781 65.19537353515625 L 409.2320556640625 75.1634750366211 L 433.155517578125 79.15071868896484 L 457.0789489746094 82.14115142822266 L 481.00238037109375 86.12838745117188 L 504.92584228515625 71.17623901367188 L 528.8493041992188 87.12519836425781 L 552.772705078125 101.0805435180664" stroke-linejoin="bevel" stroke-miterlimit="10" stroke-width="2" clip-path="url(#EkhaqIsiSGfK)"/><path fill="none" stroke="#30a2da" paint-order="fill" d="M 337.46173095703125 66.44591522216797 L 361.3851623535156 69.22490692138672 L 385.3086242675781 72.00389099121094 L 409.2320556640625 74.78287506103516 L 433.155517578125 77.56185913085938 L 457.0789489746094 80.34085083007812 L 481.00238037109375 83.11983489990234 L 504.92584228515625 85.89881896972656 L 528.8493041992188 88.67780303955078 L 552.772705078125 91.45679473876953" stroke-linejoin="bevel" stroke-miterlimit="10" stroke-width="2" stroke-dasharray="6" clip-path="url(#WyUtDeRxJBIe)"/><path fill="none" stroke="#fc4f30" paint-order="fill" d="M 313.53826904296875 70.17942810058594 L 337.46173095703125 93.10606384277344 L 361.3851623535156 97.09329986572266 L 385.3086242675781 83.1379623413086 L 409.2320556640625 84.134765625 L 433.155517578125 74.16666412353516 L 457.0789489746094 76.16028594970703 L 481.00238037109375 76.16028594970703 L 504.92584228515625 89.11882019042969 L 528.8493041992188 102.07735443115234 L 552.772705078125 79.15071868896484" stroke-linejoin="bevel" stroke-miterlimit="10" stroke-width="2" clip-path="url(#TzKLTtpwCTCc)"/><path fill="none" stroke="#fc4f30" paint-order="fill" d="M 337.46173095703125 87.6870346069336 L 361.3851623535156 87.18561553955078 L 385.3086242675781 86.68418884277344 L 409.2320556640625 86.1827621459961 L 433.155517578125 85.68133544921875 L 457.0789489746094 85.1799087524414 L 481.00238037109375 84.67848205566406 L 504.92584228515625 84.17705535888672 L 528.8493041992188 83.67562866210938 L 552.772705078125 83.17420959472656" stroke-linejoin="bevel" stroke-miterlimit="10" stroke-width="2" stroke-dasharray="6" clip-path="url(#eTkmDuTDJRnV)"/><path fill="none" stroke="rgb(128,128,128)" paint-order="fill" d="M 98.2272720336914 84.134765625 L 122.15071868896484 85.13157653808594 L 146.07415771484375 86.12838745117188 L 169.9976043701172 81.14434051513672 L 193.92105102539062 94.10286712646484 L 217.84449768066406 74.16666412353516 L 241.7679443359375 83.1379623413086 L 265.6913757324219 86.12838745117188 L 289.6148376464844 76.16028594970703 L 313.53826904296875 90.11563110351562" stroke-opacity="0.7490196078431373" stroke-linejoin="bevel" stroke-miterlimit="10" clip-path="url(#GZtpbZDdCKoS)"/><path fill="none" stroke="grey" paint-order="fill" d="M 313.53826904296875 90.11563110351562 L 337.46173095703125 82.14115142822266 L 361.3851623535156 79.15071868896484 L 385.3086242675781 68.18580627441406 L 409.2320556640625 72.17304992675781 L 433.155517578125 90.11563110351562 L 457.0789489746094 68.18580627441406 L 481.00238037109375 75.1634750366211 L 504.92584228515625 83.1379623413086 L 528.8493041992188 74.16666412353516 L 552.772705078125 80.14752960205078" stroke-linejoin="bevel" stroke-miterlimit="10" stroke-width="0.5" clip-path="url(#nziEUhkVRZNx)"/><path fill="none" stroke="grey" paint-order="fill" d="M 313.53826904296875 90.11563110351562 L 337.46173095703125 57.22089385986328 L 361.3851623535156 74.16666412353516 L 385.3086242675781 77.15709686279297 L 409.2320556640625 72.17304992675781 L 433.155517578125 70.17942810058594 L 457.0789489746094 76.16028594970703 L 481.00238037109375 67.18899536132812 L 504.92584228515625 62.2049446105957 L 528.8493041992188 84.134765625 L 552.772705078125 73.16985321044922" stroke-linejoin="bevel" stroke-miterlimit="10" stroke-width="0.5" clip-path="url(#bImQRmZFvvFs)"/><path fill="none" stroke="rgb(128,128,128)" paint-order="fill" d="M 98.2272720336914 71.17623901367188 L 122.15071868896484 72.17304992675781 L 146.07415771484375 74.16666412353516 L 169.9976043701172 70.17942810058594 L 193.92105102539062 73.16985321044922 L 217.84449768066406 83.1379623413086 L 241.7679443359375 84.134765625 L 265.6913757324219 56.224082946777344 L 289.6148376464844 73.16985321044922 L 313.53826904296875 88.12200927734375" stroke-opacity="0.7490196078431373" stroke-linejoin="bevel" stroke-miterlimit="10" clip-path="url(#lFhMLEebKWJx)"/><path fill="none" stroke="grey" paint-order="fill" d="M 313.53826904296875 88.12200927734375 L 337.46173095703125 78.1539077758789 L 361.3851623535156 68.18580627441406 L 385.3086242675781 77.15709686279297 L 409.2320556640625 87.12519836425781 L 433.155517578125 85.13157653808594 L 457.0789489746094 78.1539077758789 L 481.00238037109375 68.18580627441406 L 504.92584228515625 84.134765625 L 528.8493041992188 81.14434051513672 L 552.772705078125 94.10286712646484" stroke-linejoin="bevel" stroke-miterlimit="10" stroke-width="0.5" clip-path="url(#bECHBxvBqOtm)"/><path fill="none" stroke="grey" paint-order="fill" d="M 313.53826904296875 88.12200927734375 L 337.46173095703125 73.16985321044922 L 361.3851623535156 63.20175552368164 L 385.3086242675781 91.11244201660156 L 409.2320556640625 68.18580627441406 L 433.155517578125 94.10286712646484 L 457.0789489746094 84.134765625 L 481.00238037109375 84.134765625 L 504.92584228515625 62.2049446105957 L 528.8493041992188 78.1539077758789 L 552.772705078125 76.16028594970703" stroke-linejoin="bevel" stroke-miterlimit="10" stroke-width="0.5" clip-path="url(#DstQzxplVdLI)"/><path fill="none" stroke="rgb(128,128,128)" paint-order="fill" d="M 98.2272720336914 57.22089385986328 L 122.15071868896484 86.12838745117188 L 146.07415771484375 60.21132278442383 L 169.9976043701172 79.15071868896484 L 193.92105102539062 93.10606384277344 L 217.84449768066406 73.16985321044922 L 241.7679443359375 80.14752960205078 L 265.6913757324219 71.17623901367188 L 289.6148376464844 88.12200927734375 L 313.53826904296875 86.12838745117188" stroke-opacity="0.7490196078431373" stroke-linejoin="bevel" stroke-miterlimit="10" clip-path="url(#BwcxkOTokPSx)"/><path fill="none" stroke="grey" paint-order="fill" d="M 313.53826904296875 86.12838745117188 L 337.46173095703125 78.1539077758789 L 361.3851623535156 82.14115142822266 L 385.3086242675781 88.12200927734375 L 409.2320556640625 84.134765625 L 433.155517578125 66.19218444824219 L 457.0789489746094 73.16985321044922 L 481.00238037109375 70.17942810058594 L 504.92584228515625 75.1634750366211 L 528.8493041992188 76.16028594970703 L 552.772705078125 76.16028594970703" stroke-linejoin="bevel" stroke-miterlimit="10" stroke-width="0.5" clip-path="url(#BsdonsBJPAhF)"/><path fill="none" stroke="grey" paint-order="fill" d="M 313.53826904296875 86.12838745117188 L 337.46173095703125 79.15071868896484 L 361.3851623535156 55.227272033691406 L 385.3086242675781 78.1539077758789 L 409.2320556640625 90.11563110351562 L 433.155517578125 84.134765625 L 457.0789489746094 82.14115142822266 L 481.00238037109375 92.1092529296875 L 504.92584228515625 80.14752960205078 L 528.8493041992188 76.16028594970703 L 552.772705078125 72.17304992675781" stroke-linejoin="bevel" stroke-miterlimit="10" stroke-width="0.5" clip-path="url(#hmZAhoZSTkTN)"/><path fill="none" stroke="rgb(128,128,128)" paint-order="fill" d="M 98.2272720336914 72.17304992675781 L 122.15071868896484 90.11563110351562 L 146.07415771484375 70.17942810058594 L 169.9976043701172 64.19856643676758 L 193.92105102539062 71.17623901367188 L 217.84449768066406 99.08692169189453 L 241.7679443359375 83.1379623413086 L 265.6913757324219 75.1634750366211 L 289.6148376464844 72.17304992675781 L 313.53826904296875 70.17942810058594" stroke-opacity="0.7490196078431373" stroke-linejoin="bevel" stroke-miterlimit="10" clip-path="url(#MblNtCtUqRyd)"/><path fill="none" stroke="grey" paint-order="fill" d="M 313.53826904296875 70.17942810058594 L 337.46173095703125 79.15071868896484 L 361.3851623535156 89.11882019042969 L 385.3086242675781 72.17304992675781 L 409.2320556640625 81.14434051513672 L 433.155517578125 89.11882019042969 L 457.0789489746094 82.14115142822266 L 481.00238037109375 66.19218444824219 L 504.92584228515625 68.18580627441406 L 528.8493041992188 93.10606384277344 L 552.772705078125 77.15709686279297" stroke-linejoin="bevel" stroke-miterlimit="10" stroke-width="0.5" clip-path="url(#pZftxNwirGVT)"/><path fill="none" stroke="grey" paint-order="fill" d="M 313.53826904296875 70.17942810058594 L 337.46173095703125 65.19537353515625 L 361.3851623535156 75.1634750366211 L 385.3086242675781 79.15071868896484 L 409.2320556640625 71.17623901367188 L 433.155517578125 89.11882019042969 L 457.0789489746094 80.14752960205078 L 481.00238037109375 83.1379623413086 L 504.92584228515625 89.11882019042969 L 528.8493041992188 60.21132278442383 L 552.772705078125 79.15071868896484" stroke-linejoin="bevel" stroke-miterlimit="10" stroke-width="0.5" clip-path="url(#vmbQiMweqOOG)"/><path fill="none" stroke="black" paint-order="fill" d="M 75.5 282.5 L 575.5 282.5" stroke-linejoin="bevel" stroke-miterlimit="10"/><path fill="none" stroke="black" paint-order="fill" d="M 98.5 288.5 L 98.5 280.5 M 217.5 288.5 L 217.5 280.5 M 337.5 288.5 L 337.5 280.5 M 457.5 288.5 L 457.5 280.5" stroke-linejoin="bevel" stroke-miterlimit="10"/><path fill="none" stroke="black" paint-order="fill" d="M 98.5 286.5 L 98.5 282.5 M 122.5 286.5 L 122.5 282.5 M 146.5 286.5 L 146.5 282.5 M 169.5 286.5 L 169.5 282.5 M 193.5 286.5 L 193.5 282.5 M 217.5 286.5 L 217.5 282.5 M 241.5 286.5 L 241.5 282.5 M 265.5 286.5 L 265.5 282.5 M 289.5 286.5 L 289.5 282.5 M 313.5 286.5 L 313.5 282.5 M 337.5 286.5 L 337.5 282.5 M 361.5 286.5 L 361.5 282.5 M 385.5 286.5 L 385.5 282.5 M 409.5 286.5 L 409.5 282.5 M 433.5 286.5 L 433.5 282.5 M 457.5 286.5 L 457.5 282.5 M 481.5 286.5 L 481.5 282.5 M 504.5 286.5 L 504.5 282.5 M 528.5 286.5 L 528.5 282.5 M 552.5 286.5 L 552.5 282.5" stroke-linejoin="bevel" stroke-miterlimit="10"/><text fill="#444444" stroke="none" font-family="helvetica" font-size="10pt" font-style="normal" font-weight="normal" text-decoration="normal" x="82.82727241516113" y="302.59368896484375" text-anchor="start" dominant-baseline="alphabetic" transform="matrix(1, 0, 0, 1, 0.5, 0.5)">2025</text><text fill="none" stroke="rgb(0,0,0)" font-family="helvetica" font-size="10pt" font-style="normal" font-weight="normal" text-decoration="normal" x="82.82727241516113" y="302.59368896484375" text-anchor="start" dominant-baseline="alphabetic" transform="matrix(1, 0, 0, 1, 0.5, 0.5)" stroke-opacity="0" stroke-linejoin="bevel" stroke-miterlimit="10">2025</text><text fill="#444444" stroke="none" font-family="helvetica" font-size="10pt" font-style="normal" font-weight="normal" text-decoration="normal" x="202.4444980621338" y="302.59368896484375" text-anchor="start" dominant-baseline="alphabetic" transform="matrix(1, 0, 0, 1, 0.5, 0.5)">2030</text><text fill="none" stroke="rgb(0,0,0)" font-family="helvetica" font-size="10pt" font-style="normal" font-weight="normal" text-decoration="normal" x="202.4444980621338" y="302.59368896484375" text-anchor="start" dominant-baseline="alphabetic" transform="matrix(1, 0, 0, 1, 0.5, 0.5)" stroke-opacity="0" stroke-linejoin="bevel" stroke-miterlimit="10">2030</text><text fill="#444444" stroke="none" font-family="helvetica" font-size="10pt" font-style="normal" font-weight="normal" text-decoration="normal" x="322.061731338501" y="302.59368896484375" text-anchor="start" dominant-baseline="alphabetic" transform="matrix(1, 0, 0, 1, 0.5, 0.5)">2035</text><text fill="none" stroke="rgb(0,0,0)" font-family="helvetica" font-size="10pt" font-style="normal" font-weight="normal" text-decoration="normal" x="322.061731338501" y="302.59368896484375" text-anchor="start" dominant-baseline="alphabetic" transform="matrix(1, 0, 0, 1, 0.5, 0.5)" stroke-opacity="0" stroke-linejoin="bevel" stroke-miterlimit="10">2035</text><text fill="#444444" stroke="none" font-family="helvetica" font-size="10pt" font-style="normal" font-weight="normal" text-decoration="normal" x="441.6789493560791" y="302.59368896484375" text-anchor="start" dominant-baseline="alphabetic" transform="matrix(1, 0, 0, 1, 0.5, 0.5)">2040</text><text fill="none" stroke="rgb(0,0,0)" font-family="helvetica" font-size="10pt" font-style="normal" font-weight="normal" text-decoration="normal" x="441.6789493560791" y="302.59368896484375" text-anchor="start" dominant-baseline="alphabetic" transform="matrix(1, 0, 0, 1, 0.5, 0.5)" stroke-opacity="0" stroke-linejoin="bevel" stroke-miterlimit="10">2040</text><text fill="#444444" stroke="none" font-family="helvetica" font-size="12pt" font-style="normal" font-weight="normal" text-decoration="normal" x="308.8333339691162" y="323.59368896484375" text-anchor="start" dominant-baseline="alphabetic" transform="matrix(1, 0, 0, 1, 0.5, 0.5)">Year</text><text fill="none" stroke="rgb(0,0,0)" font-family="helvetica" font-size="12pt" font-style="normal" font-weight="normal" text-decoration="normal" x="308.8333339691162" y="323.59368896484375" text-anchor="start" dominant-baseline="alphabetic" transform="matrix(1, 0, 0, 1, 0.5, 0.5)" stroke-opacity="0" stroke-linejoin="bevel" stroke-miterlimit="10">Year</text><path fill="none" stroke="black" paint-order="fill" d="M 75.5 282.5 L 75.5 32.5" stroke-linejoin="bevel" stroke-miterlimit="10"/><path fill="none" stroke="black" paint-order="fill" d="M 69.5 282.5 L 77.5 282.5 M 69.5 232.5 L 77.5 232.5 M 69.5 182.5 L 77.5 182.5 M 69.5 132.5 L 77.5 132.5 M 69.5 83.5 L 77.5 83.5 M 69.5 33.5 L 77.5 33.5" stroke-linejoin="bevel" stroke-miterlimit="10"/><path fill="none" stroke="black" paint-order="fill" d="M 71.5 282.5 L 75.5 282.5 M 71.5 272.5 L 75.5 272.5 M 71.5 262.5 L 75.5 262.5 M 71.5 252.5 L 75.5 252.5 M 71.5 242.5 L 75.5 242.5 M 71.5 232.5 L 75.5 232.5 M 71.5 222.5 L 75.5 222.5 M 71.5 212.5 L 75.5 212.5 M 71.5 202.5 L 75.5 202.5 M 71.5 192.5 L 75.5 192.5 M 71.5 182.5 L 75.5 182.5 M 71.5 172.5 L 75.5 172.5 M 71.5 162.5 L 75.5 162.5 M 71.5 152.5 L 75.5 152.5 M 71.5 142.5 L 75.5 142.5 M 71.5 132.5 L 75.5 132.5 M 71.5 123.5 L 75.5 123.5 M 71.5 113.5 L 75.5 113.5 M 71.5 103.5 L 75.5 103.5 M 71.5 93.5 L 75.5 93.5 M 71.5 83.5 L 75.5 83.5 M 71.5 73.5 L 75.5 73.5 M 71.5 63.5 L 75.5 63.5 M 71.5 53.5 L 75.5 53.5 M 71.5 43.5 L 75.5 43.5 M 71.5 33.5 L 75.5 33.5" stroke-linejoin="bevel" stroke-miterlimit="10"/><text fill="#444444" stroke="none" font-family="helvetica" font-size="10pt" font-style="normal" font-weight="normal" text-decoration="normal" x="56.55000019073486" y="286.7968444824219" text-anchor="start" dominant-baseline="alphabetic" transform="matrix(1, 0, 0, 1, 0.5, 0.5)">0</text><text fill="none" stroke="rgb(0,0,0)" font-family="helvetica" font-size="10pt" font-style="normal" font-weight="normal" text-decoration="normal" x="56.55000019073486" y="286.7968444824219" text-anchor="start" dominant-baseline="alphabetic" transform="matrix(1, 0, 0, 1, 0.5, 0.5)" stroke-opacity="0" stroke-linejoin="bevel" stroke-miterlimit="10">0</text><text fill="#444444" stroke="none" font-family="helvetica" font-size="10pt" font-style="normal" font-weight="normal" text-decoration="normal" x="49.10000038146973" y="236.95632934570312" text-anchor="start" dominant-baseline="alphabetic" transform="matrix(1, 0, 0, 1, 0.5, 0.5)">50</text><text fill="none" stroke="rgb(0,0,0)" font-family="helvetica" font-size="10pt" font-style="normal" font-weight="normal" text-decoration="normal" x="49.10000038146973" y="236.95632934570312" text-anchor="start" dominant-baseline="alphabetic" transform="matrix(1, 0, 0, 1, 0.5, 0.5)" stroke-opacity="0" stroke-linejoin="bevel" stroke-miterlimit="10">50</text><text fill="#444444" stroke="none" font-family="helvetica" font-size="10pt" font-style="normal" font-weight="normal" text-decoration="normal" x="41.64999961853027" y="187.11582946777344" text-anchor="start" dominant-baseline="alphabetic" transform="matrix(1, 0, 0, 1, 0.5, 0.5)">100</text><text fill="none" stroke="rgb(0,0,0)" font-family="helvetica" font-size="10pt" font-style="normal" font-weight="normal" text-decoration="normal" x="41.64999961853027" y="187.11582946777344" text-anchor="start" dominant-baseline="alphabetic" transform="matrix(1, 0, 0, 1, 0.5, 0.5)" stroke-opacity="0" stroke-linejoin="bevel" stroke-miterlimit="10">100</text><text fill="#444444" stroke="none" font-family="helvetica" font-size="10pt" font-style="normal" font-weight="normal" text-decoration="normal" x="41.64999961853027" y="137.2753143310547" text-anchor="start" dominant-baseline="alphabetic" transform="matrix(1, 0, 0, 1, 0.5, 0.5)">150</text><text fill="none" stroke="rgb(0,0,0)" font-family="helvetica" font-size="10pt" font-style="normal" font-weight="normal" text-decoration="normal" x="41.64999961853027" y="137.2753143310547" text-anchor="start" dominant-baseline="alphabetic" transform="matrix(1, 0, 0, 1, 0.5, 0.5)" stroke-opacity="0" stroke-linejoin="bevel" stroke-miterlimit="10">150</text><text fill="#444444" stroke="none" font-family="helvetica" font-size="10pt" font-style="normal" font-weight="normal" text-decoration="normal" x="41.64999961853027" y="87.43480682373047" text-anchor="start" dominant-baseline="alphabetic" transform="matrix(1, 0, 0, 1, 0.5, 0.5)">200</text><text fill="none" stroke="rgb(0,0,0)" font-family="helvetica" font-size="10pt" font-style="normal" font-weight="normal" text-decoration="normal" x="41.64999961853027" y="87.43480682373047" text-anchor="start" dominant-baseline="alphabetic" transform="matrix(1, 0, 0, 1, 0.5, 0.5)" stroke-opacity="0" stroke-linejoin="bevel" stroke-miterlimit="10">200</text><text fill="#444444" stroke="none" font-family="helvetica" font-size="10pt" font-style="normal" font-weight="normal" text-decoration="normal" x="41.64999961853027" y="37.59429168701172" text-anchor="start" dominant-baseline="alphabetic" transform="matrix(1, 0, 0, 1, 0.5, 0.5)">250</text><text fill="none" stroke="rgb(0,0,0)" font-family="helvetica" font-size="10pt" font-style="normal" font-weight="normal" text-decoration="normal" x="41.64999961853027" y="37.59429168701172" text-anchor="start" dominant-baseline="alphabetic" transform="matrix(1, 0, 0, 1, 0.5, 0.5)" stroke-opacity="0" stroke-linejoin="bevel" stroke-miterlimit="10">250</text><text fill="#444444" stroke="none" font-family="helvetica" font-size="12pt" font-style="normal" font-weight="normal" text-decoration="normal" x="-73.07499885559082" y="153" text-anchor="start" dominant-baseline="alphabetic" transform="matrix(6.123233995736766e-17, -1, 1, 6.123233995736766e-17, -122.85000038146973, 191.14999961853027)">Days suitable for transmission</text><text fill="none" stroke="rgb(0,0,0)" font-family="helvetica" font-size="12pt" font-style="normal" font-weight="normal" text-decoration="normal" x="-73.07499885559082" y="153" text-anchor="start" dominant-baseline="alphabetic" transform="matrix(6.123233995736766e-17, -1, 1, 6.123233995736766e-17, -122.85000038146973, 191.14999961853027)" stroke-opacity="0" stroke-linejoin="bevel" stroke-miterlimit="10">Days suitable for transmission</text><path fill="rgb(255,255,255)" stroke="rgb(229,229,229)" paint-order="fill" d="M 480.183349609375 207.5 L 565.5000152587891 207.5 L 565.5000152587891 272.5 L 480.183349609375 272.5 L 480.183349609375 207.5 Z" fill-opacity="0.9490196078431372" clip-path="url(#LRAAcXxIttSI)" stroke-opacity="0.5019607843137255" stroke-linejoin="bevel" stroke-miterlimit="10"/><g clip-path="url(#LRAAcXxIttSI)"><g transform="matrix(1, 0, 0, 1, 490.683349609375, 218)"><path fill="none" stroke="#30a2da" paint-order="fill" d="M 0.5 10.5 L 20.5 10.5" stroke-linejoin="bevel" stroke-miterlimit="10" stroke-width="2"/></g></g><g clip-path="url(#LRAAcXxIttSI)"><text fill="#444444" stroke="none" font-family="helvetica" font-size="13px" font-style="normal" font-weight="normal" text-decoration="normal" x="515.683349609375" y="232" text-anchor="start" dominant-baseline="alphabetic" transform="matrix(1, 0, 0, 1, 0.5, 0.5)">ID 001</text></g><g clip-path="url(#LRAAcXxIttSI)"><text fill="none" stroke="rgb(0,0,0)" font-family="helvetica" font-size="13px" font-style="normal" font-weight="normal" text-decoration="normal" x="515.683349609375" y="232" text-anchor="start" dominant-baseline="alphabetic" transform="matrix(1, 0, 0, 1, 0.5, 0.5)" stroke-opacity="0" stroke-linejoin="bevel" stroke-miterlimit="10">ID 001</text></g><g clip-path="url(#LRAAcXxIttSI)"><g transform="matrix(1, 0, 0, 1, 490.683349609375, 241)"><path fill="none" stroke="#fc4f30" paint-order="fill" d="M 0.5 10.5 L 20.5 10.5" stroke-linejoin="bevel" stroke-miterlimit="10" stroke-width="2"/></g></g><g clip-path="url(#LRAAcXxIttSI)"><text fill="#444444" stroke="none" font-family="helvetica" font-size="13px" font-style="normal" font-weight="normal" text-decoration="normal" x="515.683349609375" y="255" text-anchor="start" dominant-baseline="alphabetic" transform="matrix(1, 0, 0, 1, 0.5, 0.5)">ID 006</text></g><g clip-path="url(#LRAAcXxIttSI)"><text fill="none" stroke="rgb(0,0,0)" font-family="helvetica" font-size="13px" font-style="normal" font-weight="normal" text-decoration="normal" x="515.683349609375" y="255" text-anchor="start" dominant-baseline="alphabetic" transform="matrix(1, 0, 0, 1, 0.5, 0.5)" stroke-opacity="0" stroke-linejoin="bevel" stroke-miterlimit="10">ID 006</text></g><text fill="black" stroke="none" font-family="helvetica" font-size="14pt" font-style="normal" font-weight="normal" text-decoration="normal" x="0" y="15" text-anchor="start" dominant-baseline="alphabetic" transform="matrix(1, 0, 0, 1, 5.5, 7.5)">G. Tokyo</text><text fill="none" stroke="rgb(0,0,0)" font-family="helvetica" font-size="14pt" font-style="normal" font-weight="normal" text-decoration="normal" x="0" y="15" text-anchor="start" dominant-baseline="alphabetic" transform="matrix(1, 0, 0, 1, 5.5, 7.5)" stroke-opacity="0" stroke-linejoin="bevel" stroke-miterlimit="10">G. Tokyo</text></svg>