<svg version="1.1" xmlns="http://www.w3.org/2000/svg" width="605" height="331"><defs><clipPath id="cmTXVskaXRLX"><path fill="none" stroke="none" d="M 75.5 32.5 L 575.5 32.5 L 575.5 282.5 L 75.5 282.5 L 75.5 32.5 Z"/></clipPath><clipPath id="tNtgpSyqvLkZ"><path fill="none" stroke="none" d="M 75.5 32.5 L 575.5 32.5 L 575.5 282.5 L 75.5 282.5 L 75.5 32.5 Z"/></clipPath><clipPath id="PXzKOHnQtQTx"><path fill="none" stroke="none" d="M 75.5 32.5 L 575.5 32.5 L 575.5 282.5 L 75.5 282.5 L 75.5 32.5 Z"/></clipPath><clipPath id="CTFHmHPerIBD"><path fill="none" stroke="none" d="M 75.5 32.5 L 575.5 32.5 L 575.5 282.5 L 75.5 282.5 L 75.5 32.5 Z"/></clipPath><clipPath id="CMkNExmKauPA"><path fill="none" stroke="none" d="M 75.5 32.5 L 575.5 32.5 L 575.5 282.5 L 75.5 282.5 L 75.5 32.5 Z"/></clipPath><clipPath id="WNbbCxItUrVc"><path fill="none" stroke="none" d="M 75.5 32.5 L 575.5 32.5 L 575.5 282.5 L 75.5 282.5 L 75.5 32.5 Z"/></clipPath><clipPath id="foSBQOMRQlRD"><path fill="none" stroke="none" d="M 75.5 32.5 L 575.5 32.5 L 575.5 282.5 L 75.5 282.5 L 75.5 32.5 Z"/></clipPath><clipPath id="xTvtNGWKQmIn"><path fill="none" stroke="none" d="M 75.5 32.5 L 575.5 32.5 L 575.5 282.5 L 75.5 282.5 L 75.5 32.5 Z"/></clipPath><clipPath id="TGWlqDdHfLzG"><path fill="none" stroke="none" d="M 75.5 32.5 L 575.5 32.5 L 575.5 282.5 L 75.5 282.5 L 75.5 32.5 Z"/></clipPath><clipPath id="RAxuBhhTqMDS"><path fill="none" stroke="none" d="M 75.5 32.5 L 575.5 32.5 L 575.5 282.5 L 75.5 282.5 L 75.5 32.5 Z"/></clipPath><clipPath id="kwZsdzFRZkrG"><path fill="none" stroke="none" d="M 75.5 32.5 L 575.5 32.5 L 575.5 282.5 L 75.5 282.5 L 75.5 32.5 Z"/></clipPath><clipPath id="dBCkuffNCaHZ"><path fill="none" stroke="none" d="M 75.5 32.5 L 575.5 32.5 L 575.5 282.5 L 75.5 282.5 L 75.5 32.5 Z"/></clipPath><clipPath id="ZwsvwcTFfHtr"><path fill="none" stroke="none" d="M 75.5 32.5 L 575.5 32.5 L 575.5 282.5 L 75.5 282.5 L 75.5 32.5 Z"/></clipPath><clipPath id="dfqQsZxBIKRW"><path fill="none" stroke="none" d="M 75.5 32.5 L 575.5 32.5 L 575.5 282.5 L 75.5 282.5 L 75.5 32.5 Z"/></clipPath><clipPath id="vdrdsNLgXvUk"><path fill="none" stroke="none" d="M 75.5 32.5 L 575.5 32.5 L 575.5 282.5 L 75.5 282.5 L 75.5 32.5 Z"/></clipPath><clipPath id="ShLmINHLatJN"><path fill="none" stroke="none" d="M 75.5 32.5 L 575.5 32.5 L 575.5 282.5 L 75.5 282.5 L 75.5 32.5 Z"/></clipPath><clipPath id="xTCCKElThALV"><path fill="none" stroke="none" d="M 75.5 32.5 L 575.5 32.5 L 575.5 282.5 L 75.5 282.5 L 75.5 32.5 Z"/></clipPath><clipPath id="eAKtkcvXnAph"><path fill="none" stroke="none" d="M 75.5 32.5 L 575.5 32.5 L 575.5 282.5 L 75.5 282.5 L 75.5 32.5 Z"/></clipPath><clipPath id="pNSZWFnGWnam"><path fill="none" stroke="none" d="M 75.5 32.5 L 575.5 32.5 L 575.5 282.5 L 75.5 282.5 L 75.5 32.5 Z"/></clipPath><clipPath id="NCZDIFMTkqsW"><path fill="none" stroke="none" d="M 75.5 32.5 L 575.5 32.5 L 575.5 282.5 L 75.5 282.5 L 75.5 32.5 Z"/></clipPath><clipPath id="DTkGtTIxEemT"><path fill="none" stroke="none" d="M 75.5 32.5 L 575.5 32.5 L 575.5 282.5 L 75.5 282.5 L 75.5 32.5 Z"/></clipPath><clipPath id="MBmEksRswQLI"><path fill="none" stroke="none" d="M 75.5 32.5 L 575.5 32.5 L 575.5 282.5 L 75.5 282.5 L 75.5 32.5 Z"/></clipPath><clipPath id="MhbhcLHfKRBu"><path fill="none" stroke="none" d="M 75.5 32.5 L 575.5 32.5 L 575.5 282.5 L 75.5 282.5 L 75.5 32.5 Z"/></clipPath></defs><path fill="none" stroke="#e5e5e5" paint-order="fill" d="M 75.5 32.5 L 575.5 32.5 L 575.5 282.5 L 75.5 282.5 L 75.5 32.5 Z" stroke-linejoin="bevel" stroke-miterlimit="10"/><path fill="none" stroke="black" paint-order="fill" d="M 337.46172248803487 32.5 L 337.46172248803487 282.5" stroke-linejoin="bevel" stroke-miterlimit="10" stroke-width="3" stroke-dasharray="6" clip-path="url(#PXzKOHnQtQTx)"/><path fill="none" stroke="#9467bd" paint-order="fill" d="M 98.2272720336914 106.80690002441406 L 122.15071868896484 97.1357192993164 L 146.07415771484375 101.97130584716797 L 169.9976043701172 108.41876220703125 L 193.92105102539062 89.07640075683594 L 217.84449768066406 116.47808074951172 L 241.7679443359375 134.2085723876953 L 265.6913757324219 122.92552947998047 L 289.6148376464844 151.93907165527344 L 313.53826904296875 113.25434875488281" stroke-linejoin="bevel" stroke-miterlimit="10" stroke-width="2" clip-path="url(#CTFHmHPerIBD)"/><path fill="none" stroke="#9467bd" paint-order="fill" d="M 98.2272720336914 106.80690002441406 L 122.15071868896484 97.1357192993164 L 146.07415771484375 101.97130584716797 L 169.9976043701172 108.41876220703125 L 193.92105102539062 89.07640075683594 L 217.84449768066406 116.47808074951172 L 241.7679443359375 134.2085723876953 L 265.6913757324219 122.92552947998047 L 289.6148376464844 151.93907165527344 L 313.53826904296875 113.25434875488281" stroke-linejoin="bevel" stroke-miterlimit="10" stroke-width="2" stroke-dasharray="6" clip-path="url(#CMkNExmKauPA)"/><path fill="none" stroke="#30a2da" paint-order="fill" d="M 313.53826904296875 113.25434875488281 L 337.46173095703125 90.68826293945312 L 361.3851623535156 82.62895202636719 L 385.3086242675781 97.1357192993164 L 409.2320556640625 81.01708221435547 L 433.155517578125 90.68826293945312 L 457.0789489746094 126.14926147460938 L 481.00238037109375 143.8797607421875 L 504.92584228515625 100.35944366455078 L 528.8493041992188 129.37298583984375 L 552.772705078125 163.2221221923828" stroke-linejoin="bevel" stroke-miterlimit="10" stroke-width="2" clip-path="url(#WNbbCxItUrVc)"/><path fill="none" stroke="#30a2da" paint-order="fill" d="M 337.46173095703125 77.23653411865234 L 361.3851623535156 84.6315689086914 L 385.3086242675781 92.02660369873047 L 409.2320556640625 99.421630859375 L 433.155517578125 106.81666564941406 L 457.0789489746094 114.21170043945312 L 481.00238037109375 121.60673522949219 L 504.92584228515625 129.00177001953125 L 528.8493041992188 136.3968048095703 L 552.772705078125 143.79183959960938" stroke-linejoin="bevel" stroke-miterlimit="10" stroke-width="2" stroke-dasharray="6" clip-path="url(#foSBQOMRQlRD)"/><path fill="none" stroke="#fc4f30" paint-order="fill" d="M 313.53826904296875 113.25434875488281 L 337.46173095703125 69.73403930664062 L 361.3851623535156 184.17633056640625 L 385.3086242675781 126.14926147460938 L 409.2320556640625 106.80690002441406 L 433.155517578125 127.76112365722656 L 457.0789489746094 103.58317565917969 L 481.00238037109375 135.8204345703125 L 504.92584228515625 114.86621856689453 L 528.8493041992188 130.98484802246094 L 552.772705078125 81.01708221435547" stroke-linejoin="bevel" stroke-miterlimit="10" stroke-width="2" clip-path="url(#xTvtNGWKQmIn)"/><path fill="none" stroke="#fc4f30" paint-order="fill" d="M 337.46173095703125 125.29936981201172 L 361.3851623535156 123.69727325439453 L 385.3086242675781 122.09517669677734 L 409.2320556640625 120.49308013916016 L 433.155517578125 118.8909912109375 L 457.0789489746094 117.28889465332031 L 481.00238037109375 115.68679809570312 L 504.92584228515625 114.08470916748047 L 528.8493041992188 112.48261260986328 L 552.772705078125 110.8805160522461" stroke-linejoin="bevel" stroke-miterlimit="10" stroke-width="2" stroke-dasharray="6" clip-path="url(#TGWlqDdHfLzG)"/><path fill="none" stroke="rgb(128,128,128)" paint-order="fill" d="M 98.2272720336914 177.7288818359375 L 122.15071868896484 92.30013275146484 L 146.07415771484375 79.40522003173828 L 169.9976043701172 129.37298583984375 L 193.92105102539062 100.35944366455078 L 217.84449768066406 82.62895202636719 L 241.7679443359375 108.41876220703125 L 265.6913757324219 98.7475814819336 L 289.6148376464844 92.30013275146484 L 313.53826904296875 55.227272033691406" stroke-opacity="0.7490196078431373" stroke-linejoin="bevel" stroke-miterlimit="10" clip-path="url(#RAxuBhhTqMDS)"/><path fill="none" stroke="grey" paint-order="fill" d="M 313.53826904296875 55.227272033691406 L 337.46173095703125 76.1814956665039 L 361.3851623535156 101.97130584716797 L 385.3086242675781 87.46453857421875 L 409.2320556640625 84.24081420898438 L 433.155517578125 72.95777130126953 L 457.0789489746094 85.85267639160156 L 481.00238037109375 77.7933578491211 L 504.92584228515625 92.30013275146484 L 528.8493041992188 111.64248657226562 L 552.772705078125 122.92552947998047" stroke-linejoin="bevel" stroke-miterlimit="10" stroke-width="0.5" clip-path="url(#kwZsdzFRZkrG)"/><path fill="none" stroke="grey" paint-order="fill" d="M 313.53826904296875 55.227272033691406 L 337.46173095703125 87.46453857421875 L 361.3851623535156 68.12217712402344 L 385.3086242675781 108.41876220703125 L 409.2320556640625 121.31366729736328 L 433.155517578125 122.92552947998047 L 457.0789489746094 85.85267639160156 L 481.00238037109375 111.64248657226562 L 504.92584228515625 119.7018051147461 L 528.8493041992188 105.19503784179688 L 552.772705078125 81.01708221435547" stroke-linejoin="bevel" stroke-miterlimit="10" stroke-width="0.5" clip-path="url(#dBCkuffNCaHZ)"/><path fill="none" stroke="rgb(128,128,128)" paint-order="fill" d="M 98.2272720336914 127.76112365722656 L 122.15071868896484 113.25434875488281 L 146.07415771484375 92.30013275146484 L 169.9976043701172 76.1814956665039 L 193.92105102539062 121.31366729736328 L 217.84449768066406 85.85267639160156 L 241.7679443359375 82.62895202636719 L 265.6913757324219 89.07640075683594 L 289.6148376464844 116.47808074951172 L 313.53826904296875 60.062862396240234" stroke-opacity="0.7490196078431373" stroke-linejoin="bevel" stroke-miterlimit="10" clip-path="url(#ZwsvwcTFfHtr)"/><path fill="none" stroke="grey" paint-order="fill" d="M 313.53826904296875 60.062862396240234 L 337.46173095703125 97.1357192993164 L 361.3851623535156 93.91199493408203 L 385.3086242675781 89.07640075683594 L 409.2320556640625 84.24081420898438 L 433.155517578125 61.67472457885742 L 457.0789489746094 71.34590911865234 L 481.00238037109375 55.227272033691406 L 504.92584228515625 105.19503784179688 L 528.8493041992188 72.95777130126953 L 552.772705078125 105.19503784179688" stroke-linejoin="bevel" stroke-miterlimit="10" stroke-width="0.5" clip-path="url(#dfqQsZxBIKRW)"/><path fill="none" stroke="grey" paint-order="fill" d="M 313.53826904296875 60.062862396240234 L 337.46173095703125 84.24081420898438 L 361.3851623535156 101.97130584716797 L 385.3086242675781 126.14926147460938 L 409.2320556640625 100.35944366455078 L 433.155517578125 108.41876220703125 L 457.0789489746094 130.98484802246094 L 481.00238037109375 97.1357192993164 L 504.92584228515625 135.8204345703125 L 528.8493041992188 68.12217712402344 L 552.772705078125 85.85267639160156" stroke-linejoin="bevel" stroke-miterlimit="10" stroke-width="0.5" clip-path="url(#vdrdsNLgXvUk)"/><path fill="none" stroke="rgb(128,128,128)" paint-order="fill" d="M 98.2272720336914 103.58317565917969 L 122.15071868896484 81.01708221435547 L 146.07415771484375 77.7933578491211 L 169.9976043701172 116.47808074951172 L 193.92105102539062 147.10348510742188 L 217.84449768066406 105.19503784179688 L 241.7679443359375 135.8204345703125 L 265.6913757324219 60.062862396240234 L 289.6148376464844 89.07640075683594 L 313.53826904296875 77.7933578491211" stroke-opacity="0.7490196078431373" stroke-linejoin="bevel" stroke-miterlimit="10" clip-path="url(#ShLmINHLatJN)"/><path fill="none" stroke="grey" paint-order="fill" d="M 313.53826904296875 77.7933578491211 L 337.46173095703125 111.64248657226562 L 361.3851623535156 92.30013275146484 L 385.3086242675781 103.58317565917969 L 409.2320556640625 105.19503784179688 L 433.155517578125 116.47808074951172 L 457.0789489746094 93.91199493408203 L 481.00238037109375 111.64248657226562 L 504.92584228515625 98.7475814819336 L 528.8493041992188 126.14926147460938 L 552.772705078125 93.91199493408203" stroke-linejoin="bevel" stroke-miterlimit="10" stroke-width="0.5" clip-path="url(#xTCCKElThALV)"/><path fill="none" stroke="grey" paint-order="fill" d="M 313.53826904296875 77.7933578491211 L 337.46173095703125 108.41876220703125 L 361.3851623535156 74.56963348388672 L 385.3086242675781 85.85267639160156 L 409.2320556640625 113.25434875488281 L 433.155517578125 129.37298583984375 L 457.0789489746094 90.68826293945312 L 481.00238037109375 110.03062438964844 L 504.92584228515625 101.97130584716797 L 528.8493041992188 93.91199493408203 L 552.772705078125 101.97130584716797" stroke-linejoin="bevel" stroke-miterlimit="10" stroke-width="0.5" clip-path="url(#eAKtkcvXnAph)"/><path fill="none" stroke="rgb(128,128,128)" paint-order="fill" d="M 98.2272720336914 134.2085723876953 L 122.15071868896484 100.35944366455078 L 146.07415771484375 130.98484802246094 L 169.9976043701172 97.1357192993164 L 193.92105102539062 103.58317565917969 L 217.84449768066406 103.58317565917969 L 241.7679443359375 105.19503784179688 L 265.6913757324219 66.51031494140625 L 289.6148376464844 110.03062438964844 L 313.53826904296875 85.85267639160156" stroke-opacity="0.7490196078431373" stroke-linejoin="bevel" stroke-miterlimit="10" clip-path="url(#pNSZWFnGWnam)"/><path fill="none" stroke="grey" paint-order="fill" d="M 313.53826904296875 85.85267639160156 L 337.46173095703125 82.62895202636719 L 361.3851623535156 82.62895202636719 L 385.3086242675781 76.1814956665039 L 409.2320556640625 76.1814956665039 L 433.155517578125 105.19503784179688 L 457.0789489746094 127.76112365722656 L 481.00238037109375 118.0899429321289 L 504.92584228515625 90.68826293945312 L 528.8493041992188 110.03062438964844 L 552.772705078125 101.97130584716797" stroke-linejoin="bevel" stroke-miterlimit="10" stroke-width="0.5" clip-path="url(#NCZDIFMTkqsW)"/><path fill="none" stroke="grey" paint-order="fill" d="M 313.53826904296875 85.85267639160156 L 337.46173095703125 93.91199493408203 L 361.3851623535156 103.58317565917969 L 385.3086242675781 98.7475814819336 L 409.2320556640625 119.7018051147461 L 433.155517578125 106.80690002441406 L 457.0789489746094 97.1357192993164 L 481.00238037109375 126.14926147460938 L 504.92584228515625 118.0899429321289 L 528.8493041992188 89.07640075683594 L 552.772705078125 93.91199493408203" stroke-linejoin="bevel" stroke-miterlimit="10" stroke-width="0.5" clip-path="url(#DTkGtTIxEemT)"/><path fill="none" stroke="black" paint-order="fill" d="M 75.5 282.5 L 575.5 282.5" stroke-linejoin="bevel" stroke-miterlimit="10"/><path fill="none" stroke="black" paint-order="fill" d="M 98.5 288.5 L 98.5 280.5 M 217.5 288.5 L 217.5 280.5 M 337.5 288.5 L 337.5 280.5 M 457.5 288.5 L 457.5 280.5" stroke-linejoin="bevel" stroke-miterlimit="10"/><path fill="none" stroke="black" paint-order="fill" d="M 98.5 286.5 L 98.5 282.5 M 122.5 286.5 L 122.5 282.5 M 146.5 286.5 L 146.5 282.5 M 169.5 286.5 L 169.5 282.5 M 193.5 286.5 L 193.5 282.5 M 217.5 286.5 L 217.5 282.5 M 241.5 286.5 L 241.5 282.5 M 265.5 286.5 L 265.5 282.5 M 289.5 286.5 L 289.5 282.5 M 313.5 286.5 L 313.5 282.5 M 337.5 286.5 L 337.5 282.5 M 361.5 286.5 L 361.5 282.5 M 385.5 286.5 L 385.5 282.5 M 409.5 286.5 L 409.5 282.5 M 433.5 286.5 L 433.5 282.5 M 457.5 286.5 L 457.5 282.5 M 481.5 286.5 L 481.5 282.5 M 504.5 286.5 L 504.5 282.5 M 528.5 286.5 L 528.5 282.5 M 552.5 286.5 L 552.5 282.5" stroke-linejoin="bevel" stroke-miterlimit="10"/><text fill="#444444" stroke="none" font-family="helvetica" font-size="10pt" font-style="normal" font-weight="normal" text-decoration="normal" x="82.82727241516113" y="302.59368896484375" text-anchor="start" dominant-baseline="alphabetic" transform="matrix(1, 0, 0, 1, 0.5, 0.5)">2025</text><text fill="none" stroke="rgb(0,0,0)" font-family="helvetica" font-size="10pt" font-style="normal" font-weight="normal" text-decoration="normal" x="82.82727241516113" y="302.59368896484375" text-anchor="start" dominant-baseline="alphabetic" transform="matrix(1, 0, 0, 1, 0.5, 0.5)" stroke-opacity="0" stroke-linejoin="bevel" stroke-miterlimit="10">2025</text><text fill="#444444" stroke="none" font-family="helvetica" font-size="10pt" font-style="normal" font-weight="normal" text-decoration="normal" x="202.4444980621338" y="302.59368896484375" text-anchor="start" dominant-baseline="alphabetic" transform="matrix(1, 0, 0, 1, 0.5, 0.5)">2030</text><text fill="none" stroke="rgb(0,0,0)" font-family="helvetica" font-size="10pt" font-style="normal" font-weight="normal" text-decoration="normal" x="202.4444980621338" y="302.59368896484375" text-anchor="start" dominant-baseline="alphabetic" transform="matrix(1, 0, 0, 1, 0.5, 0.5)" stroke-opacity="0" stroke-linejoin="bevel" stroke-miterlimit="10">2030</text><text fill="#444444" stroke="none" font-family="helvetica" font-size="10pt" font-style="normal" font-weight="normal" text-decoration="normal" x="322.061731338501" y="302.59368896484375" text-anchor="start" dominant-baseline="alphabetic" transform="matrix(1, 0, 0, 1, 0.5, 0.5)">2035</text><text fill="none" stroke="rgb(0,0,0)" font-family="helvetica" font-size="10pt" font-style="normal" font-weight="normal" text-decoration="normal" x="322.061731338501" y="302.59368896484375" text-anchor="start" dominant-baseline="alphabetic" transform="matrix(1, 0, 0, 1, 0.5, 0.5)" stroke-opacity="0" stroke-linejoin="bevel" stroke-miterlimit="10">2035</text><text fill="#444444" stroke="none" font-family="helvetica" font-size="10pt" font-style="normal" font-weight="normal" text-decoration="normal" x="441.6789493560791" y="302.59368896484375" text-anchor="start" dominant-baseline="alphabetic" transform="matrix(1, 0, 0, 1, 0.5, 0.5)">2040</text><text fill="none" stroke="rgb(0,0,0)" font-family="helvetica" font-size="10pt" font-style="normal" font-weight="normal" text-decoration="normal" x="441.6789493560791" y="302.59368896484375" text-anchor="start" dominant-baseline="alphabetic" transform="matrix(1, 0, 0, 1, 0.5, 0.5)" stroke-opacity="0" stroke-linejoin="bevel" stroke-miterlimit="10">2040</text><text fill="#444444" stroke="none" font-family="helvetica" font-size="12pt" font-style="normal" font-weight="normal" text-decoration="normal" x="308.8333339691162" y="323.59368896484375" text-anchor="start" dominant-baseline="alphabetic" transform="matrix(1, 0, 0, 1, 0.5, 0.5)">Year</text><text fill="none" stroke="rgb(0,0,0)" font-family="helvetica" font-size="12pt" font-style="normal" font-weight="normal" text-decoration="normal" x="308.8333339691162" y="323.59368896484375" text-anchor="start" dominant-baseline="alphabetic" transform="matrix(1, 0, 0, 1, 0.5, 0.5)" stroke-opacity="0" stroke-linejoin="bevel" stroke-miterlimit="10">Year</text><path fill="none" stroke="black" paint-order="fill" d="M 75.5 282.5 L 75.5 32.5" stroke-linejoin="bevel" stroke-miterlimit="10"/><path fill="none" stroke="black" paint-order="fill" d="M 69.5 282.5 L 77.5 282.5 M 69.5 250.5 L 77.5 250.5 M 69.5 218.5 L 77.5 218.5 M 69.5 185.5 L 77.5 185.5 M 69.5 153.5 L 77.5 153.5 M 69.5 121.5 L 77.5 121.5 M 69.5 89.5 L 77.5 89.5 M 69.5 56.5 L 77.5 56.5" stroke-linejoin="bevel" stroke-miterlimit="10"/><path fill="none" stroke="black" paint-order="fill" d="M 71.5 282.5 L 75.5 282.5 M 71.5 276.5 L 75.5 276.5 M 71.5 269.5 L 75.5 269.5 M 71.5 263.5 L 75.5 263.5 M 71.5 256.5 L 75.5 256.5 M 71.5 250.5 L 75.5 250.5 M 71.5 243.5 L 75.5 243.5 M 71.5 237.5 L 75.5 237.5 M 71.5 230.5 L 75.5 230.5 M 71.5 224.5 L 75.5 224.5 M 71.5 218.5 L 75.5 218.5 M 71.5 211.5 L 75.5 211.5 M 71.5 205.5 L 75.5 205.5 M 71.5 198.5 L 75.5 198.5 M 71.5 192.5 L 75.5 192.5 M 71.5 185.5 L 75.5 185.5 M 71.5 179.5 L 75.5 179.5 M 71.5 172.5 L 75.5 172.5 M 71.5 166.5 L 75.5 166.5 M 71.5 159.5 L 75.5 159.5 M 71.5 153.5 L 75.5 153.5 M 71.5 147.5 L 75.5 147.5 M 71.5 140.5 L 75.5 140.5 M 71.5 134.5 L 75.5 134.5 M 71.5 127.5 L 75.5 127.5 M 71.5 121.5 L 75.5 121.5 M 71.5 114.5 L 75.5 114.5 M 71.5 108.5 L 75.5 108.5 M 71.5 101.5 L 75.5 101.5 M 71.5 95.5 L 75.5 95.5 M 71.5 89.5 L 75.5 89.5 M 71.5 82.5 L 75.5 82.5 M 71.5 76.5 L 75.5 76.5 M 71.5 69.5 L 75.5 69.5 M 71.5 63.5 L 75.5 63.5 M 71.5 56.5 L 75.5 56.5 M 71.5 50.5 L 75.5 50.5 M 71.5 43.5 L 75.5 43.5 M 71.5 37.5 L 75.5 37.5" stroke-linejoin="bevel" stroke-miterlimit="10"/><text fill="#444444" stroke="none" font-family="helvetica" font-size="10pt" font-style="normal" font-weight="normal" text-decoration="normal" x="56.55000019073486" y="286.7968444824219" text-anchor="start" dominant-baseline="alphabetic" transform="matrix(1, 0, 0, 1, 0.5, 0.5)">0</text><text fill="none" stroke="rgb(0,0,0)" font-family="helvetica" font-size="10pt" font-style="normal" font-weight="normal" text-decoration="normal" x="56.55000019073486" y="286.7968444824219" text-anchor="start" dominant-baseline="alphabetic" transform="matrix(1, 0, 0, 1, 0.5, 0.5)" stroke-opacity="0" stroke-linejoin="bevel" stroke-miterlimit="10">0</text><text fill="#444444" stroke="none" font-family="helvetica" font-size="10pt" font-style="normal" font-weight="normal" text-decoration="normal" x="49.10000038146973" y="254.55958557128906" text-anchor="start" dominant-baseline="alphabetic" transform="matrix(1, 0, 0, 1, 0.5, 0.5)">20</text><text fill="none" stroke="rgb(0,0,0)" font-family="helvetica" font-size="10pt" font-style="normal" font-weight="normal" text-decoration="normal" x="49.10000038146973" y="254.55958557128906" text-anchor="start" dominant-baseline="alphabetic" transform="matrix(1, 0, 0, 1, 0.5, 0.5)" stroke-opacity="0" stroke-linejoin="bevel" stroke-miterlimit="10">20</text><text fill="#444444" stroke="none" font-family="helvetica" font-size="10pt" font-style="normal" font-weight="normal" text-decoration="normal" x="49.10000038146973" y="222.3223114013672" text-anchor="start" dominant-baseline="alphabetic" transform="matrix(1, 0, 0, 1, 0.5, 0.5)">40</text><text fill="none" stroke="rgb(0,0,0)" font-family="helvetica" font-size="10pt" font-style="normal" font-weight="normal" text-decoration="normal" x="49.10000038146973" y="222.3223114013672" text-anchor="start" dominant-baseline="alphabetic" transform="matrix(1, 0, 0, 1, 0.5, 0.5)" stroke-opacity="0" stroke-linejoin="bevel" stroke-miterlimit="10">40</text><text fill="#444444" stroke="none" font-family="helvetica" font-size="10pt" font-style="normal" font-weight="normal" text-decoration="normal" x="49.10000038146973" y="190.08505249023438" text-anchor="start" dominant-baseline="alphabetic" transform="matrix(1, 0, 0, 1, 0.5, 0.5)">60</text><text fill="none" stroke="rgb(0,0,0)" font-family="helvetica" font-size="10pt" font-style="normal" font-weight="normal" text-decoration="normal" x="49.10000038146973" y="190.08505249023438" text-anchor="start" dominant-baseline="alphabetic" transform="matrix(1, 0, 0, 1, 0.5, 0.5)" stroke-opacity="0" stroke-linejoin="bevel" stroke-miterlimit="10">60</text><text fill="#444444" stroke="none" font-family="helvetica" font-size="10pt" font-style="normal" font-weight="normal" text-decoration="normal" x="49.10000038146973" y="157.8477783203125" text-anchor="start" dominant-baseline="alphabetic" transform="matrix(1, 0, 0, 1, 0.5, 0.5)">80</text><text fill="none" stroke="rgb(0,0,0)" font-family="helvetica" font-size="10pt" font-style="normal" font-weight="normal" text-decoration="normal" x="49.10000038146973" y="157.8477783203125" text-anchor="start" dominant-baseline="alphabetic" transform="matrix(1, 0, 0, 1, 0.5, 0.5)" stroke-opacity="0" stroke-linejoin="bevel" stroke-miterlimit="10">80</text><text fill="#444444" stroke="none" font-family="helvetica" font-size="10pt" font-style="normal" font-weight="normal" text-decoration="normal" x="41.64999961853027" y="125.61051177978516" text-anchor="start" dominant-baseline="alphabetic" transform="matrix(1, 0, 0, 1, 0.5, 0.5)">100</text><text fill="none" stroke="rgb(0,0,0)" font-family="helvetica" font-size="10pt" font-style="normal" font-weight="normal" text-decoration="normal" x="41.64999961853027" y="125.61051177978516" text-anchor="start" dominant-baseline="alphabetic" transform="matrix(1, 0, 0, 1, 0.5, 0.5)" stroke-opacity="0" stroke-linejoin="bevel" stroke-miterlimit="10">100</text><text fill="#444444" stroke="none" font-family="helvetica" font-size="10pt" font-style="normal" font-weight="normal" text-decoration="normal" x="41.64999961853027" y="93.37324523925781" text-anchor="start" dominant-baseline="alphabetic" transform="matrix(1, 0, 0, 1, 0.5, 0.5)">120</text><text fill="none" stroke="rgb(0,0,0)" font-family="helvetica" font-size="10pt" font-style="normal" font-weight="normal" text-decoration="normal" x="41.64999961853027" y="93.37324523925781" text-anchor="start" dominant-baseline="alphabetic" transform="matrix(1, 0, 0, 1, 0.5, 0.5)" stroke-opacity="0" stroke-linejoin="bevel" stroke-miterlimit="10">120</text><text fill="#444444" stroke="none" font-family="helvetica" font-size="10pt" font-style="normal" font-weight="normal" text-decoration="normal" x="41.64999961853027" y="61.13597869873047" text-anchor="start" dominant-baseline="alphabetic" transform="matrix(1, 0, 0, 1, 0.5, 0.5)">140</text><text fill="none" stroke="rgb(0,0,0)" font-family="helvetica" font-size="10pt" font-style="normal" font-weight="normal" text-decoration="normal" x="41.64999961853027" y="61.13597869873047" text-anchor="start" dominant-baseline="alphabetic" transform="matrix(1, 0, 0, 1, 0.5, 0.5)" stroke-opacity="0" stroke-linejoin="bevel" stroke-miterlimit="10">140</text><text fill="#444444" stroke="none" font-family="helvetica" font-size="12pt" font-style="normal" font-weight="normal" text-decoration="normal" x="-73.07499885559082" y="153" text-anchor="start" dominant-baseline="alphabetic" transform="matrix(6.123233995736766e-17, -1, 1, 6.123233995736766e-17, -122.85000038146973, 191.14999961853027)">Days suitable for transmission</text><text fill="none" stroke="rgb(0,0,0)" font-family="helvetica" font-size="12pt" font-style="normal" font-weight="normal" text-decoration="normal" x="-73.07499885559082" y="153" text-anchor="start" dominant-baseline="alphabetic" transform="matrix(6.123233995736766e-17, -1, 1, 6.123233995736766e-17, -122.85000038146973, 191.14999961853027)" stroke-opacity="0" stroke-linejoin="bevel" stroke-miterlimit="10">Days suitable for transmission</text><path fill="rgb(255,255,255)" stroke="rgb(229,229,229)" paint-order="fill" d="M 480.183349609375 207.5 L 565.5000152587891 207.5 L 565.5000152587891 272.5 L 480.183349609375 272.5 L 480.183349609375 207.5 Z" fill-opacity="0.9490196078431372" clip-path="url(#MBmEksRswQLI)" stroke-opacity="0.5019607843137255" stroke-linejoin="bevel" stroke-miterlimit="10"/><g clip-path="url(#MBmEksRswQLI)"><g transform="matrix(1, 0, 0, 1, 490.683349609375, 218)"><path fill="none" stroke="#30a2da" paint-order="fill" d="M 0.5 10.5 L 20.5 10.5" stroke-linejoin="bevel" stroke-miterlimit="10" stroke-width="2"/></g></g><g clip-path="url(#MBmEksRswQLI)"><text fill="#444444" stroke="none" font-family="helvetica" font-size="13px" font-style="normal" font-weight="normal" text-decoration="normal" x="515.683349609375" y="232" text-anchor="start" dominant-baseline="alphabetic" transform="matrix(1, 0, 0, 1, 0.5, 0.5)">ID 001</text></g><g clip-path="url(#MBmEksRswQLI)"><text fill="none" stroke="rgb(0,0,0)" font-family="helvetica" font-size="13px" font-style="normal" font-weight="normal" text-decoration="normal" x="515.683349609375" y="232" text-anchor="start" dominant-baseline="alphabetic" transform="matrix(1, 0, 0, 1, 0.5, 0.5)" stroke-opacity="0" stroke-linejoin="bevel" stroke-miterlimit="10">ID 001</text></g><g clip-path="url(#MBmEksRswQLI)"><g transform="matrix(1, 0, 0, 1, 490.683349609375, 241)"><path fill="none" stroke="#fc4f30" paint-order="fill" d="M 0.5 10.5 L 20.5 10.5" stroke-linejoin="bevel" stroke-miterlimit="10" stroke-width="2"/></g></g><g clip-path="url(#MBmEksRswQLI)"><text fill="#444444" stroke="none" font-family="helvetica" font-size="13px" font-style="normal" font-weight="normal" text-decoration="normal" x="515.683349609375" y="255" text-anchor="start" dominant-baseline="alphabetic" transform="matrix(1, 0, 0, 1, 0.5, 0.5)">ID 006</text></g><g clip-path="url(#MBmEksRswQLI)"><text fill="none" stroke="rgb(0,0,0)" font-family="helvetica" font-size="13px" font-style="normal" font-weight="normal" text-decoration="normal" x="515.683349609375" y="255" text-anchor="start" dominant-baseline="alphabetic" transform="matrix(1, 0, 0, 1, 0.5, 0.5)" stroke-opacity="0" stroke-linejoin="bevel" stroke-miterlimit="10">ID 006</text></g><text fill="black" stroke="none" font-family="helvetica" font-size="14pt" font-style="normal" font-weight="normal" text-decoration="normal" x="0" y="15" text-anchor="start" dominant-baseline="alphabetic" transform="matrix(1, 0, 0, 1, 5.5, 7.5)">A. Paris</text><text fill="none" stroke="rgb(0,0,0)" font-family="helvetica" font-size="14pt" font-style="normal" font-weight="normal" text-decoration="normal" x="0" y="15" text-anchor="start" dominant-baseline="alphabetic" transform="matrix(1, 0, 0, 1, 5.5, 7.5)" stroke-opacity="0" stroke-linejoin="bevel" stroke-miterlimit="10">A. Paris</text></svg>