<svg version="1.1" xmlns="http://www.w3.org/2000/svg" width="600" height="334"><defs><clipPath id="QeiiegLNlwdC"><path fill="none" stroke="none" d="M 70.5 33.5 L 570.5 33.5 L 570.5 283.5 L 70.5 283.5 L 70.5 33.5 Z"/></clipPath><clipPath id="WsiJiXSahiCH"><path fill="none" stroke="none" d="M 70.5 33.5 L 570.5 33.5 L 570.5 283.5 L 70.5 283.5 L 70.5 33.5 Z"/></clipPath><clipPath id="dHwbydEAwptD"><path fill="none" stroke="none" d="M 70.5 33.5 L 570.5 33.5 L 570.5 283.5 L 70.5 283.5 L 70.5 33.5 Z"/></clipPath><clipPath id="aIvTotshRuRp"><path fill="none" stroke="none" d="M 70.5 33.5 L 570.5 33.5 L 570.5 283.5 L 70.5 283.5 L 70.5 33.5 Z"/></clipPath><clipPath id="xsCRTQgvNPSd"><path fill="none" stroke="none" d="M 70.5 33.5 L 570.5 33.5 L 570.5 283.5 L 70.5 283.5 L 70.5 33.5 Z"/></clipPath><clipPath id="ThUKFDIBLCnk"><path fill="none" stroke="none" d="M 70.5 33.5 L 570.5 33.5 L 570.5 283.5 L 70.5 283.5 L 70.5 33.5 Z"/></clipPath><clipPath id="WENFqLfzeHeR"><path fill="none" stroke="none" d="M 70.5 33.5 L 570.5 33.5 L 570.5 283.5 L 70.5 283.5 L 70.5 33.5 Z"/></clipPath><clipPath id="OcThTIwsnnQN"><path fill="none" stroke="none" d="M 70.5 33.5 L 570.5 33.5 L 570.5 283.5 L 70.5 283.5 L 70.5 33.5 Z"/></clipPath><clipPath id="BVebHLFQfdfy"><path fill="none" stroke="none" d="M 70.5 33.5 L 570.5 33.5 L 570.5 283.5 L 70.5 283.5 L 70.5 33.5 Z"/></clipPath><clipPath id="ubOrLIImiuuP"><path fill="none" stroke="none" d="M 70.5 33.5 L 570.5 33.5 L 570.5 283.5 L 70.5 283.5 L 70.5 33.5 Z"/></clipPath><clipPath id="NWwrowFhZwxF"><path fill="none" stroke="none" d="M 70.5 33.5 L 570.5 33.5 L 570.5 283.5 L 70.5 283.5 L 70.5 33.5 Z"/></clipPath><clipPath id="SoIkLAqUqHXp"><path fill="none" stroke="none" d="M 70.5 33.5 L 570.5 33.5 L 570.5 283.5 L 70.5 283.5 L 70.5 33.5 Z"/></clipPath><clipPath id="ADSnSleBzZSh"><path fill="none" stroke="none" d="M 70.5 33.5 L 570.5 33.5 L 570.5 283.5 L 70.5 283.5 L 70.5 33.5 Z"/></clipPath><clipPath id="dCVHvueOObML"><path fill="none" stroke="none" d="M 70.5 33.5 L 570.5 33.5 L 570.5 283.5 L 70.5 283.5 L 70.5 33.5 Z"/></clipPath><clipPath id="pqMqdzlUtACM"><path fill="none" stroke="none" d="M 70.5 33.5 L 570.5 33.5 L 570.5 283.5 L 70.5 283.5 L 70.5 33.5 Z"/></clipPath><clipPath id="TiwIuKmeVKVe"><path fill="none" stroke="none" d="M 70.5 33.5 L 570.5 33.5 L 570.5 283.5 L 70.5 283.5 L 70.5 33.5 Z"/></clipPath><clipPath id="vOHWkBZkxQdU"><path fill="none" stroke="none" d="M 70.5 33.5 L 570.5 33.5 L 570.5 283.5 L 70.5 283.5 L 70.5 33.5 Z"/></clipPath><clipPath id="GDdWRWRznWeC"><path fill="none" stroke="none" d="M 70.5 33.5 L 570.5 33.5 L 570.5 283.5 L 70.5 283.5 L 70.5 33.5 Z"/></clipPath><clipPath id="icmCcTpKnmlw"><path fill="none" stroke="none" d="M 70.5 33.5 L 570.5 33.5 L 570.5 283.5 L 70.5 283.5 L 70.5 33.5 Z"/></clipPath><clipPath id="pzvwsFHyholt"><path fill="none" stroke="none" d="M 70.5 33.5 L 570.5 33.5 L 570.5 283.5 L 70.5 283.5 L 70.5 33.5 Z"/></clipPath><clipPath id="WreNwAlkMEqU"><path fill="none" stroke="none" d="M 70.5 33.5 L 570.5 33.5 L 570.5 283.5 L 70.5 283.5 L 70.5 33.5 Z"/></clipPath><clipPath id="fyVJHyNrVtOu"><path fill="none" stroke="none" d="M 70.5 33.5 L 570.5 33.5 L 570.5 283.5 L 70.5 283.5 L 70.5 33.5 Z"/></clipPath><clipPath id="ftPuXCibqiCm"><path fill="none" stroke="none" d="M 70.5 33.5 L 570.5 33.5 L 570.5 283.5 L 70.5 283.5 L 70.5 33.5 Z"/></clipPath></defs><path fill="none" stroke="#e5e5e5" paint-order="fill" d="M 70.5 33.5 L 570.5 33.5 L 570.5 283.5 L 70.5 283.5 L 70.5 33.5 Z" stroke-linejoin="bevel" stroke-miterlimit="10"/><path fill="none" stroke="black" paint-order="fill" d="M 332.46172248803487 33.5 L 332.46172248803487 283.5" stroke-linejoin="bevel" stroke-miterlimit="10" stroke-width="3" stroke-dasharray="6" clip-path="url(#dHwbydEAwptD)"/><path fill="none" stroke="#9467bd" paint-order="fill" d="M 93.2272720336914 98.6934585571289 L 117.15071868896484 86.89729309082031 L 141.07415771484375 102.6255111694336 L 164.9976043701172 86.89729309082031 L 188.92105102539062 68.0234375 L 212.84449768066406 70.3826675415039 L 236.7679443359375 95.54781341552734 L 260.6913757324219 97.90704345703125 L 284.6148376464844 105.77115631103516 L 308.53826904296875 98.6934585571289" stroke-linejoin="bevel" stroke-miterlimit="10" stroke-width="2" clip-path="url(#aIvTotshRuRp)"/><path fill="none" stroke="#9467bd" paint-order="fill" d="M 93.2272720336914 98.6934585571289 L 117.15071868896484 86.89729309082031 L 141.07415771484375 102.6255111694336 L 164.9976043701172 86.89729309082031 L 188.92105102539062 68.0234375 L 212.84449768066406 70.3826675415039 L 236.7679443359375 95.54781341552734 L 260.6913757324219 97.90704345703125 L 284.6148376464844 105.77115631103516 L 308.53826904296875 98.6934585571289" stroke-linejoin="bevel" stroke-miterlimit="10" stroke-width="2" stroke-dasharray="6" clip-path="url(#xsCRTQgvNPSd)"/><path fill="none" stroke="#30a2da" paint-order="fill" d="M 308.53826904296875 98.6934585571289 L 332.46173095703125 60.945735931396484 L 356.3851623535156 68.80984497070312 L 380.3086242675781 93.18858337402344 L 404.2320556640625 81.39241790771484 L 428.155517578125 89.25653076171875 L 452.0789489746094 93.18858337402344 L 476.00238037109375 99.47986602783203 L 499.92584228515625 103.41191864013672 L 523.8493041992188 95.54781341552734 L 547.772705078125 103.41191864013672" stroke-linejoin="bevel" stroke-miterlimit="10" stroke-width="2" clip-path="url(#ThUKFDIBLCnk)"/><path fill="none" stroke="#30a2da" paint-order="fill" d="M 332.46173095703125 70.35407257080078 L 356.3851623535156 74.46723937988281 L 380.3086242675781 78.58040618896484 L 404.2320556640625 82.69357299804688 L 428.155517578125 86.8067398071289 L 452.0789489746094 90.91990661621094 L 476.00238037109375 95.03307342529297 L 499.92584228515625 99.146240234375 L 523.8493041992188 103.25940704345703 L 547.772705078125 107.37257385253906" stroke-linejoin="bevel" stroke-miterlimit="10" stroke-width="2" stroke-dasharray="6" clip-path="url(#WENFqLfzeHeR)"/><path fill="none" stroke="#fc4f30" paint-order="fill" d="M 308.53826904296875 98.6934585571289 L 332.46173095703125 101.05268859863281 L 356.3851623535156 90.829345703125 L 380.3086242675781 108.13038635253906 L 404.2320556640625 111.27603149414062 L 428.155517578125 77.46036529541016 L 452.0789489746094 60.15932846069336 L 476.00238037109375 96.33422088623047 L 499.92584228515625 66.45061492919922 L 523.8493041992188 70.3826675415039 L 547.772705078125 92.40216827392578" stroke-linejoin="bevel" stroke-miterlimit="10" stroke-width="2" clip-path="url(#OcThTIwsnnQN)"/><path fill="none" stroke="#fc4f30" paint-order="fill" d="M 332.46173095703125 100.85250854492188 L 356.3851623535156 97.8736801147461 L 380.3086242675781 94.89485168457031 L 404.2320556640625 91.91602325439453 L 428.155517578125 88.93719482421875 L 452.0789489746094 85.95836639404297 L 476.00238037109375 82.97953796386719 L 499.92584228515625 80.0007095336914 L 523.8493041992188 77.02188110351562 L 547.772705078125 74.04305267333984" stroke-linejoin="bevel" stroke-miterlimit="10" stroke-width="2" stroke-dasharray="6" clip-path="url(#BVebHLFQfdfy)"/><path fill="none" stroke="rgb(128,128,128)" paint-order="fill" d="M 93.2272720336914 94.76140594482422 L 117.15071868896484 97.12063598632812 L 141.07415771484375 107.34397888183594 L 164.9976043701172 86.11088562011719 L 188.92105102539062 112.8488540649414 L 212.84449768066406 82.96524047851562 L 236.7679443359375 75.10113525390625 L 260.6913757324219 82.1788330078125 L 284.6148376464844 89.25653076171875 L 308.53826904296875 109.70320892333984" stroke-opacity="0.7490196078431373" stroke-linejoin="bevel" stroke-miterlimit="10" clip-path="url(#ubOrLIImiuuP)"/><path fill="none" stroke="grey" paint-order="fill" d="M 308.53826904296875 109.70320892333984 L 332.46173095703125 75.10113525390625 L 356.3851623535156 78.24677276611328 L 380.3086242675781 82.1788330078125 L 404.2320556640625 64.87779235839844 L 428.155517578125 87.68370819091797 L 452.0789489746094 88.4701156616211 L 476.00238037109375 57.0136833190918 L 499.92584228515625 94.76140594482422 L 523.8493041992188 86.89729309082031 L 547.772705078125 109.70320892333984" stroke-linejoin="bevel" stroke-miterlimit="10" stroke-width="0.5" clip-path="url(#NWwrowFhZwxF)"/><path fill="none" stroke="grey" paint-order="fill" d="M 308.53826904296875 109.70320892333984 L 332.46173095703125 72.74189758300781 L 356.3851623535156 76.67395782470703 L 380.3086242675781 97.12063598632812 L 404.2320556640625 99.47986602783203 L 428.155517578125 83.75164794921875 L 452.0789489746094 63.304969787597656 L 476.00238037109375 101.05268859863281 L 499.92584228515625 61.732147216796875 L 523.8493041992188 67.23702239990234 L 547.772705078125 79.81959533691406" stroke-linejoin="bevel" stroke-miterlimit="10" stroke-width="0.5" clip-path="url(#SoIkLAqUqHXp)"/><path fill="none" stroke="rgb(128,128,128)" paint-order="fill" d="M 93.2272720336914 71.95549011230469 L 117.15071868896484 72.74189758300781 L 141.07415771484375 93.18858337402344 L 164.9976043701172 91.61576080322266 L 188.92105102539062 57.80009460449219 L 212.84449768066406 123.07218933105469 L 236.7679443359375 94.76140594482422 L 260.6913757324219 65.66419982910156 L 284.6148376464844 101.05268859863281 L 308.53826904296875 95.54781341552734" stroke-opacity="0.7490196078431373" stroke-linejoin="bevel" stroke-miterlimit="10" clip-path="url(#ADSnSleBzZSh)"/><path fill="none" stroke="grey" paint-order="fill" d="M 308.53826904296875 95.54781341552734 L 332.46173095703125 97.12063598632812 L 356.3851623535156 58.58650588989258 L 380.3086242675781 105.77115631103516 L 404.2320556640625 77.46036529541016 L 428.155517578125 116.7809066772461 L 452.0789489746094 70.3826675415039 L 476.00238037109375 111.27603149414062 L 499.92584228515625 82.1788330078125 L 523.8493041992188 79.81959533691406 L 547.772705078125 89.25653076171875" stroke-linejoin="bevel" stroke-miterlimit="10" stroke-width="0.5" clip-path="url(#dCVHvueOObML)"/><path fill="none" stroke="grey" paint-order="fill" d="M 308.53826904296875 95.54781341552734 L 332.46173095703125 71.16907501220703 L 356.3851623535156 102.6255111694336 L 380.3086242675781 104.19833374023438 L 404.2320556640625 78.24677276611328 L 428.155517578125 116.7809066772461 L 452.0789489746094 103.41191864013672 L 476.00238037109375 87.68370819091797 L 499.92584228515625 105.77115631103516 L 523.8493041992188 71.95549011230469 L 547.772705078125 75.88754272460938" stroke-linejoin="bevel" stroke-miterlimit="10" stroke-width="0.5" clip-path="url(#pqMqdzlUtACM)"/><path fill="none" stroke="rgb(128,128,128)" paint-order="fill" d="M 93.2272720336914 92.40216827392578 L 117.15071868896484 90.829345703125 L 141.07415771484375 102.6255111694336 L 164.9976043701172 61.732147216796875 L 188.92105102539062 85.32447052001953 L 212.84449768066406 90.04293823242188 L 236.7679443359375 70.3826675415039 L 260.6913757324219 99.47986602783203 L 284.6148376464844 84.5380630493164 L 308.53826904296875 82.1788330078125" stroke-opacity="0.7490196078431373" stroke-linejoin="bevel" stroke-miterlimit="10" clip-path="url(#TiwIuKmeVKVe)"/><path fill="none" stroke="grey" paint-order="fill" d="M 308.53826904296875 82.1788330078125 L 332.46173095703125 82.96524047851562 L 356.3851623535156 93.97499084472656 L 380.3086242675781 80.60601043701172 L 404.2320556640625 84.5380630493164 L 428.155517578125 90.04293823242188 L 452.0789489746094 95.54781341552734 L 476.00238037109375 92.40216827392578 L 499.92584228515625 94.76140594482422 L 523.8493041992188 100.26628112792969 L 547.772705078125 84.5380630493164" stroke-linejoin="bevel" stroke-miterlimit="10" stroke-width="0.5" clip-path="url(#vOHWkBZkxQdU)"/><path fill="none" stroke="grey" paint-order="fill" d="M 308.53826904296875 82.1788330078125 L 332.46173095703125 65.66419982910156 L 356.3851623535156 91.61576080322266 L 380.3086242675781 70.3826675415039 L 404.2320556640625 83.75164794921875 L 428.155517578125 86.89729309082031 L 452.0789489746094 93.18858337402344 L 476.00238037109375 75.88754272460938 L 499.92584228515625 105.77115631103516 L 523.8493041992188 80.60601043701172 L 547.772705078125 77.46036529541016" stroke-linejoin="bevel" stroke-miterlimit="10" stroke-width="0.5" clip-path="url(#GDdWRWRznWeC)"/><path fill="none" stroke="rgb(128,128,128)" paint-order="fill" d="M 93.2272720336914 81.39241790771484 L 117.15071868896484 88.4701156616211 L 141.07415771484375 95.54781341552734 L 164.9976043701172 97.90704345703125 L 188.92105102539062 86.89729309082031 L 212.84449768066406 90.04293823242188 L 236.7679443359375 103.41191864013672 L 260.6913757324219 82.1788330078125 L 284.6148376464844 89.25653076171875 L 308.53826904296875 92.40216827392578" stroke-opacity="0.7490196078431373" stroke-linejoin="bevel" stroke-miterlimit="10" clip-path="url(#icmCcTpKnmlw)"/><path fill="none" stroke="grey" paint-order="fill" d="M 308.53826904296875 92.40216827392578 L 332.46173095703125 95.54781341552734 L 356.3851623535156 105.77115631103516 L 380.3086242675781 85.32447052001953 L 404.2320556640625 62.518558502197266 L 428.155517578125 56.227272033691406 L 452.0789489746094 84.5380630493164 L 476.00238037109375 114.42167663574219 L 499.92584228515625 71.95549011230469 L 523.8493041992188 82.96524047851562 L 547.772705078125 118.35372924804688" stroke-linejoin="bevel" stroke-miterlimit="10" stroke-width="0.5" clip-path="url(#pzvwsFHyholt)"/><path fill="none" stroke="grey" paint-order="fill" d="M 308.53826904296875 92.40216827392578 L 332.46173095703125 104.19833374023438 L 356.3851623535156 81.39241790771484 L 380.3086242675781 64.09138107299805 L 404.2320556640625 78.24677276611328 L 428.155517578125 90.04293823242188 L 452.0789489746094 97.12063598632812 L 476.00238037109375 87.68370819091797 L 499.92584228515625 101.05268859863281 L 523.8493041992188 90.829345703125 L 547.772705078125 91.61576080322266" stroke-linejoin="bevel" stroke-miterlimit="10" stroke-width="0.5" clip-path="url(#WreNwAlkMEqU)"/><path fill="none" stroke="black" paint-order="fill" d="M 70.5 283.5 L 570.5 283.5" stroke-linejoin="bevel" stroke-miterlimit="10"/><path fill="none" stroke="black" paint-order="fill" d="M 93.5 289.5 L 93.5 281.5 M 212.5 289.5 L 212.5 281.5 M 332.5 289.5 L 332.5 281.5 M 452.5 289.5 L 452.5 281.5" stroke-linejoin="bevel" stroke-miterlimit="10"/><path fill="none" stroke="black" paint-order="fill" d="M 93.5 287.5 L 93.5 283.5 M 117.5 287.5 L 117.5 283.5 M 141.5 287.5 L 141.5 283.5 M 164.5 287.5 L 164.5 283.5 M 188.5 287.5 L 188.5 283.5 M 212.5 287.5 L 212.5 283.5 M 236.5 287.5 L 236.5 283.5 M 260.5 287.5 L 260.5 283.5 M 284.5 287.5 L 284.5 283.5 M 308.5 287.5 L 308.5 283.5 M 332.5 287.5 L 332.5 283.5 M 356.5 287.5 L 356.5 283.5 M 380.5 287.5 L 380.5 283.5 M 404.5 287.5 L 404.5 283.5 M 428.5 287.5 L 428.5 283.5 M 452.5 287.5 L 452.5 283.5 M 476.5 287.5 L 476.5 283.5 M 499.5 287.5 L 499.5 283.5 M 523.5 287.5 L 523.5 283.5 M 547.5 287.5 L 547.5 283.5" stroke-linejoin="bevel" stroke-miterlimit="10"/><text fill="#444444" stroke="none" font-family="helvetica" font-size="10pt" font-style="normal" font-weight="normal" text-decoration="normal" x="79.36060523986816" y="304" text-anchor="start" dominant-baseline="alphabetic" transform="matrix(1, 0, 0, 1, 0.5, 0.5)">2025</text><text fill="none" stroke="rgb(0,0,0)" font-family="helvetica" font-size="10pt" font-style="normal" font-weight="normal" text-decoration="normal" x="79.36060523986816" y="304" text-anchor="start" dominant-baseline="alphabetic" transform="matrix(1, 0, 0, 1, 0.5, 0.5)" stroke-opacity="0" stroke-linejoin="bevel" stroke-miterlimit="10">2025</text><text fill="#444444" stroke="none" font-family="helvetica" font-size="10pt" font-style="normal" font-weight="normal" text-decoration="normal" x="198.97783088684082" y="304" text-anchor="start" dominant-baseline="alphabetic" transform="matrix(1, 0, 0, 1, 0.5, 0.5)">2030</text><text fill="none" stroke="rgb(0,0,0)" font-family="helvetica" font-size="10pt" font-style="normal" font-weight="normal" text-decoration="normal" x="198.97783088684082" y="304" text-anchor="start" dominant-baseline="alphabetic" transform="matrix(1, 0, 0, 1, 0.5, 0.5)" stroke-opacity="0" stroke-linejoin="bevel" stroke-miterlimit="10">2030</text><text fill="#444444" stroke="none" font-family="helvetica" font-size="10pt" font-style="normal" font-weight="normal" text-decoration="normal" x="318.595064163208" y="304" text-anchor="start" dominant-baseline="alphabetic" transform="matrix(1, 0, 0, 1, 0.5, 0.5)">2035</text><text fill="none" stroke="rgb(0,0,0)" font-family="helvetica" font-size="10pt" font-style="normal" font-weight="normal" text-decoration="normal" x="318.595064163208" y="304" text-anchor="start" dominant-baseline="alphabetic" transform="matrix(1, 0, 0, 1, 0.5, 0.5)" stroke-opacity="0" stroke-linejoin="bevel" stroke-miterlimit="10">2035</text><text fill="#444444" stroke="none" font-family="helvetica" font-size="10pt" font-style="normal" font-weight="normal" text-decoration="normal" x="438.21228218078613" y="304" text-anchor="start" dominant-baseline="alphabetic" transform="matrix(1, 0, 0, 1, 0.5, 0.5)">2040</text><text fill="none" stroke="rgb(0,0,0)" font-family="helvetica" font-size="10pt" font-style="normal" font-weight="normal" text-decoration="normal" x="438.21228218078613" y="304" text-anchor="start" dominant-baseline="alphabetic" transform="matrix(1, 0, 0, 1, 0.5, 0.5)" stroke-opacity="0" stroke-linejoin="bevel" stroke-miterlimit="10">2040</text><text fill="#444444" stroke="none" font-family="helvetica" font-size="12pt" font-style="normal" font-weight="normal" text-decoration="normal" x="305.3166666030884" y="327" text-anchor="start" dominant-baseline="alphabetic" transform="matrix(1, 0, 0, 1, 0.5, 0.5)">Year</text><text fill="none" stroke="rgb(0,0,0)" font-family="helvetica" font-size="12pt" font-style="normal" font-weight="normal" text-decoration="normal" x="305.3166666030884" y="327" text-anchor="start" dominant-baseline="alphabetic" transform="matrix(1, 0, 0, 1, 0.5, 0.5)" stroke-opacity="0" stroke-linejoin="bevel" stroke-miterlimit="10">Year</text><path fill="none" stroke="black" paint-order="fill" d="M 70.5 283.5 L 70.5 33.5" stroke-linejoin="bevel" stroke-miterlimit="10"/><path fill="none" stroke="black" paint-order="fill" d="M 64.5 283.5 L 72.5 283.5 M 64.5 244.5 L 72.5 244.5 M 64.5 204.5 L 72.5 204.5 M 64.5 165.5 L 72.5 165.5 M 64.5 126.5 L 72.5 126.5 M 64.5 86.5 L 72.5 86.5 M 64.5 47.5 L 72.5 47.5" stroke-linejoin="bevel" stroke-miterlimit="10"/><path fill="none" stroke="black" paint-order="fill" d="M 66.5 283.5 L 70.5 283.5 M 66.5 275.5 L 70.5 275.5 M 66.5 267.5 L 70.5 267.5 M 66.5 259.5 L 70.5 259.5 M 66.5 252.5 L 70.5 252.5 M 66.5 244.5 L 70.5 244.5 M 66.5 236.5 L 70.5 236.5 M 66.5 228.5 L 70.5 228.5 M 66.5 220.5 L 70.5 220.5 M 66.5 212.5 L 70.5 212.5 M 66.5 204.5 L 70.5 204.5 M 66.5 196.5 L 70.5 196.5 M 66.5 189.5 L 70.5 189.5 M 66.5 181.5 L 70.5 181.5 M 66.5 173.5 L 70.5 173.5 M 66.5 165.5 L 70.5 165.5 M 66.5 157.5 L 70.5 157.5 M 66.5 149.5 L 70.5 149.5 M 66.5 141.5 L 70.5 141.5 M 66.5 134.5 L 70.5 134.5 M 66.5 126.5 L 70.5 126.5 M 66.5 118.5 L 70.5 118.5 M 66.5 110.5 L 70.5 110.5 M 66.5 102.5 L 70.5 102.5 M 66.5 94.5 L 70.5 94.5 M 66.5 86.5 L 70.5 86.5 M 66.5 79.5 L 70.5 79.5 M 66.5 71.5 L 70.5 71.5 M 66.5 63.5 L 70.5 63.5 M 66.5 55.5 L 70.5 55.5 M 66.5 47.5 L 70.5 47.5 M 66.5 39.5 L 70.5 39.5" stroke-linejoin="bevel" stroke-miterlimit="10"/><text fill="#444444" stroke="none" font-family="helvetica" font-size="10pt" font-style="normal" font-weight="normal" text-decoration="normal" x="52.31666660308838" y="288" text-anchor="start" dominant-baseline="alphabetic" transform="matrix(1, 0, 0, 1, 0.5, 0.5)">0</text><text fill="none" stroke="rgb(0,0,0)" font-family="helvetica" font-size="10pt" font-style="normal" font-weight="normal" text-decoration="normal" x="52.31666660308838" y="288" text-anchor="start" dominant-baseline="alphabetic" transform="matrix(1, 0, 0, 1, 0.5, 0.5)" stroke-opacity="0" stroke-linejoin="bevel" stroke-miterlimit="10">0</text><text fill="#444444" stroke="none" font-family="helvetica" font-size="10pt" font-style="normal" font-weight="normal" text-decoration="normal" x="45.63333320617676" y="248.67945861816406" text-anchor="start" dominant-baseline="alphabetic" transform="matrix(1, 0, 0, 1, 0.5, 0.5)">50</text><text fill="none" stroke="rgb(0,0,0)" font-family="helvetica" font-size="10pt" font-style="normal" font-weight="normal" text-decoration="normal" x="45.63333320617676" y="248.67945861816406" text-anchor="start" dominant-baseline="alphabetic" transform="matrix(1, 0, 0, 1, 0.5, 0.5)" stroke-opacity="0" stroke-linejoin="bevel" stroke-miterlimit="10">50</text><text fill="#444444" stroke="none" font-family="helvetica" font-size="10pt" font-style="normal" font-weight="normal" text-decoration="normal" x="38.95000076293945" y="209.35891723632812" text-anchor="start" dominant-baseline="alphabetic" transform="matrix(1, 0, 0, 1, 0.5, 0.5)">100</text><text fill="none" stroke="rgb(0,0,0)" font-family="helvetica" font-size="10pt" font-style="normal" font-weight="normal" text-decoration="normal" x="38.95000076293945" y="209.35891723632812" text-anchor="start" dominant-baseline="alphabetic" transform="matrix(1, 0, 0, 1, 0.5, 0.5)" stroke-opacity="0" stroke-linejoin="bevel" stroke-miterlimit="10">100</text><text fill="#444444" stroke="none" font-family="helvetica" font-size="10pt" font-style="normal" font-weight="normal" text-decoration="normal" x="38.95000076293945" y="170.0383758544922" text-anchor="start" dominant-baseline="alphabetic" transform="matrix(1, 0, 0, 1, 0.5, 0.5)">150</text><text fill="none" stroke="rgb(0,0,0)" font-family="helvetica" font-size="10pt" font-style="normal" font-weight="normal" text-decoration="normal" x="38.95000076293945" y="170.0383758544922" text-anchor="start" dominant-baseline="alphabetic" transform="matrix(1, 0, 0, 1, 0.5, 0.5)" stroke-opacity="0" stroke-linejoin="bevel" stroke-miterlimit="10">150</text><text fill="#444444" stroke="none" font-family="helvetica" font-size="10pt" font-style="normal" font-weight="normal" text-decoration="normal" x="38.95000076293945" y="130.71783447265625" text-anchor="start" dominant-baseline="alphabetic" transform="matrix(1, 0, 0, 1, 0.5, 0.5)">200</text><text fill="none" stroke="rgb(0,0,0)" font-family="helvetica" font-size="10pt" font-style="normal" font-weight="normal" text-decoration="normal" x="38.95000076293945" y="130.71783447265625" text-anchor="start" dominant-baseline="alphabetic" transform="matrix(1, 0, 0, 1, 0.5, 0.5)" stroke-opacity="0" stroke-linejoin="bevel" stroke-miterlimit="10">200</text><text fill="#444444" stroke="none" font-family="helvetica" font-size="10pt" font-style="normal" font-weight="normal" text-decoration="normal" x="38.95000076293945" y="91.39729309082031" text-anchor="start" dominant-baseline="alphabetic" transform="matrix(1, 0, 0, 1, 0.5, 0.5)">250</text><text fill="none" stroke="rgb(0,0,0)" font-family="helvetica" font-size="10pt" font-style="normal" font-weight="normal" text-decoration="normal" x="38.95000076293945" y="91.39729309082031" text-anchor="start" dominant-baseline="alphabetic" transform="matrix(1, 0, 0, 1, 0.5, 0.5)" stroke-opacity="0" stroke-linejoin="bevel" stroke-miterlimit="10">250</text><text fill="#444444" stroke="none" font-family="helvetica" font-size="10pt" font-style="normal" font-weight="normal" text-decoration="normal" x="38.95000076293945" y="52.07675552368164" text-anchor="start" dominant-baseline="alphabetic" transform="matrix(1, 0, 0, 1, 0.5, 0.5)">300</text><text fill="none" stroke="rgb(0,0,0)" font-family="helvetica" font-size="10pt" font-style="normal" font-weight="normal" text-decoration="normal" x="38.95000076293945" y="52.07675552368164" text-anchor="start" dominant-baseline="alphabetic" transform="matrix(1, 0, 0, 1, 0.5, 0.5)" stroke-opacity="0" stroke-linejoin="bevel" stroke-miterlimit="10">300</text><text fill="#444444" stroke="none" font-family="helvetica" font-size="12pt" font-style="normal" font-weight="normal" text-decoration="normal" x="-65.25833511352539" y="154" text-anchor="start" dominant-baseline="alphabetic" transform="matrix(6.123233995736766e-17, -1, 1, 6.123233995736766e-17, -126.54999923706055, 189.45000076293945)">Days suitable for transmission</text><text fill="none" stroke="rgb(0,0,0)" font-family="helvetica" font-size="12pt" font-style="normal" font-weight="normal" text-decoration="normal" x="-65.25833511352539" y="154" text-anchor="start" dominant-baseline="alphabetic" transform="matrix(6.123233995736766e-17, -1, 1, 6.123233995736766e-17, -126.54999923706055, 189.45000076293945)" stroke-opacity="0" stroke-linejoin="bevel" stroke-miterlimit="10">Days suitable for transmission</text><path fill="rgb(255,255,255)" stroke="rgb(229,229,229)" paint-order="fill" d="M 477.0333251953125 208.5 L 560.4999847412109 208.5 L 560.4999847412109 273.5 L 477.0333251953125 273.5 L 477.0333251953125 208.5 Z" fill-opacity="0.9490196078431372" clip-path="url(#fyVJHyNrVtOu)" stroke-opacity="0.5019607843137255" stroke-linejoin="bevel" stroke-miterlimit="10"/><g clip-path="url(#fyVJHyNrVtOu)"><g transform="matrix(1, 0, 0, 1, 487.5333251953125, 219)"><path fill="none" stroke="#30a2da" paint-order="fill" d="M 0.5 10.5 L 20.5 10.5" stroke-linejoin="bevel" stroke-miterlimit="10" stroke-width="2"/></g></g><g clip-path="url(#fyVJHyNrVtOu)"><text fill="#444444" stroke="none" font-family="helvetica" font-size="13px" font-style="normal" font-weight="normal" text-decoration="normal" x="512.5333251953125" y="233.5" text-anchor="start" dominant-baseline="alphabetic" transform="matrix(1, 0, 0, 1, 0.5, 0.5)">ID 001</text></g><g clip-path="url(#fyVJHyNrVtOu)"><text fill="none" stroke="rgb(0,0,0)" font-family="helvetica" font-size="13px" font-style="normal" font-weight="normal" text-decoration="normal" x="512.5333251953125" y="233.5" text-anchor="start" dominant-baseline="alphabetic" transform="matrix(1, 0, 0, 1, 0.5, 0.5)" stroke-opacity="0" stroke-linejoin="bevel" stroke-miterlimit="10">ID 001</text></g><g clip-path="url(#fyVJHyNrVtOu)"><g transform="matrix(1, 0, 0, 1, 487.5333251953125, 242)"><path fill="none" stroke="#fc4f30" paint-order="fill" d="M 0.5 10.5 L 20.5 10.5" stroke-linejoin="bevel" stroke-miterlimit="10" stroke-width="2"/></g></g><g clip-path="url(#fyVJHyNrVtOu)"><text fill="#444444" stroke="none" font-family="helvetica" font-size="13px" font-style="normal" font-weight="normal" text-decoration="normal" x="512.5333251953125" y="256.5" text-anchor="start" dominant-baseline="alphabetic" transform="matrix(1, 0, 0, 1, 0.5, 0.5)">ID 006</text></g><g clip-path="url(#fyVJHyNrVtOu)"><text fill="none" stroke="rgb(0,0,0)" font-family="helvetica" font-size="13px" font-style="normal" font-weight="normal" text-decoration="normal" x="512.5333251953125" y="256.5" text-anchor="start" dominant-baseline="alphabetic" transform="matrix(1, 0, 0, 1, 0.5, 0.5)" stroke-opacity="0" stroke-linejoin="bevel" stroke-miterlimit="10">ID 006</text></g><text fill="black" stroke="none" font-family="helvetica" font-size="14pt" font-style="normal" font-weight="normal" text-decoration="normal" x="0" y="18" text-anchor="start" dominant-baseline="alphabetic" transform="matrix(1, 0, 0, 1, 5.5, 5.5)">D. New Delhi</text><text fill="none" stroke="rgb(0,0,0)" font-family="helvetica" font-size="14pt" font-style="normal" font-weight="normal" text-decoration="normal" x="0" y="18" text-anchor="start" dominant-baseline="alphabetic" transform="matrix(1, 0, 0, 1, 5.5, 5.5)" stroke-opacity="0" stroke-linejoin="bevel" stroke-miterlimit="10">D. New Delhi</text></svg>