<svg version="1.1" xmlns="http://www.w3.org/2000/svg" width="600" height="334"><defs><clipPath id="JhIRPAHCPxsH"><path fill="none" stroke="none" d="M 70.5 33.5 L 570.5 33.5 L 570.5 283.5 L 70.5 283.5 L 70.5 33.5 Z"/></clipPath><clipPath id="eAwzADidIKQT"><path fill="none" stroke="none" d="M 70.5 33.5 L 570.5 33.5 L 570.5 283.5 L 70.5 283.5 L 70.5 33.5 Z"/></clipPath><clipPath id="kcpboMzhgOrG"><path fill="none" stroke="none" d="M 70.5 33.5 L 570.5 33.5 L 570.5 283.5 L 70.5 283.5 L 70.5 33.5 Z"/></clipPath><clipPath id="BzSpiPeusCDn"><path fill="none" stroke="none" d="M 70.5 33.5 L 570.5 33.5 L 570.5 283.5 L 70.5 283.5 L 70.5 33.5 Z"/></clipPath><clipPath id="nlIDcvLaSrVs"><path fill="none" stroke="none" d="M 70.5 33.5 L 570.5 33.5 L 570.5 283.5 L 70.5 283.5 L 70.5 33.5 Z"/></clipPath><clipPath id="WrTfuCGBnyEW"><path fill="none" stroke="none" d="M 70.5 33.5 L 570.5 33.5 L 570.5 283.5 L 70.5 283.5 L 70.5 33.5 Z"/></clipPath><clipPath id="gsXDKlCpQkMG"><path fill="none" stroke="none" d="M 70.5 33.5 L 570.5 33.5 L 570.5 283.5 L 70.5 283.5 L 70.5 33.5 Z"/></clipPath><clipPath id="JqnEOXRgxcKr"><path fill="none" stroke="none" d="M 70.5 33.5 L 570.5 33.5 L 570.5 283.5 L 70.5 283.5 L 70.5 33.5 Z"/></clipPath><clipPath id="BmrDMCsvyTLA"><path fill="none" stroke="none" d="M 70.5 33.5 L 570.5 33.5 L 570.5 283.5 L 70.5 283.5 L 70.5 33.5 Z"/></clipPath><clipPath id="uHtJUFXBsNhu"><path fill="none" stroke="none" d="M 70.5 33.5 L 570.5 33.5 L 570.5 283.5 L 70.5 283.5 L 70.5 33.5 Z"/></clipPath><clipPath id="sVtXZkKbBaGu"><path fill="none" stroke="none" d="M 70.5 33.5 L 570.5 33.5 L 570.5 283.5 L 70.5 283.5 L 70.5 33.5 Z"/></clipPath><clipPath id="DeaTtDtXwTUo"><path fill="none" stroke="none" d="M 70.5 33.5 L 570.5 33.5 L 570.5 283.5 L 70.5 283.5 L 70.5 33.5 Z"/></clipPath><clipPath id="erbVUxKAcWzV"><path fill="none" stroke="none" d="M 70.5 33.5 L 570.5 33.5 L 570.5 283.5 L 70.5 283.5 L 70.5 33.5 Z"/></clipPath><clipPath id="aegKzwIVmswA"><path fill="none" stroke="none" d="M 70.5 33.5 L 570.5 33.5 L 570.5 283.5 L 70.5 283.5 L 70.5 33.5 Z"/></clipPath><clipPath id="GQHdgZOwDHUt"><path fill="none" stroke="none" d="M 70.5 33.5 L 570.5 33.5 L 570.5 283.5 L 70.5 283.5 L 70.5 33.5 Z"/></clipPath><clipPath id="NoQztxBDHZbf"><path fill="none" stroke="none" d="M 70.5 33.5 L 570.5 33.5 L 570.5 283.5 L 70.5 283.5 L 70.5 33.5 Z"/></clipPath><clipPath id="WdQTReVQxMMQ"><path fill="none" stroke="none" d="M 70.5 33.5 L 570.5 33.5 L 570.5 283.5 L 70.5 283.5 L 70.5 33.5 Z"/></clipPath><clipPath id="fmTmNSqnrnAg"><path fill="none" stroke="none" d="M 70.5 33.5 L 570.5 33.5 L 570.5 283.5 L 70.5 283.5 L 70.5 33.5 Z"/></clipPath><clipPath id="HOyNNVUTHEoV"><path fill="none" stroke="none" d="M 70.5 33.5 L 570.5 33.5 L 570.5 283.5 L 70.5 283.5 L 70.5 33.5 Z"/></clipPath><clipPath id="ChVFTTATArUB"><path fill="none" stroke="none" d="M 70.5 33.5 L 570.5 33.5 L 570.5 283.5 L 70.5 283.5 L 70.5 33.5 Z"/></clipPath><clipPath id="yyiKZaXaeVCr"><path fill="none" stroke="none" d="M 70.5 33.5 L 570.5 33.5 L 570.5 283.5 L 70.5 283.5 L 70.5 33.5 Z"/></clipPath><clipPath id="LmHTZNMuzRUH"><path fill="none" stroke="none" d="M 70.5 33.5 L 570.5 33.5 L 570.5 283.5 L 70.5 283.5 L 70.5 33.5 Z"/></clipPath><clipPath id="oXszTXAWzpps"><path fill="none" stroke="none" d="M 70.5 33.5 L 570.5 33.5 L 570.5 283.5 L 70.5 283.5 L 70.5 33.5 Z"/></clipPath></defs><path fill="none" stroke="#e5e5e5" paint-order="fill" d="M 70.5 33.5 L 570.5 33.5 L 570.5 283.5 L 70.5 283.5 L 70.5 33.5 Z" stroke-linejoin="bevel" stroke-miterlimit="10"/><path fill="none" stroke="black" paint-order="fill" d="M 332.46172248803487 33.5 L 332.46172248803487 283.5" stroke-linejoin="bevel" stroke-miterlimit="10" stroke-width="3" stroke-dasharray="6" clip-path="url(#kcpboMzhgOrG)"/><path fill="none" stroke="#9467bd" paint-order="fill" d="M 93.2272720336914 69.51398468017578 L 117.15071868896484 116.36713409423828 L 141.07415771484375 124.05944061279297 L 164.9976043701172 102.38111877441406 L 188.92105102539062 73.70979309082031 L 212.84449768066406 122.66084289550781 L 236.7679443359375 97.48601531982422 L 260.6913757324219 90.49300384521484 L 284.6148376464844 105.1783218383789 L 308.53826904296875 98.18531799316406" stroke-linejoin="bevel" stroke-miterlimit="10" stroke-width="2" clip-path="url(#BzSpiPeusCDn)"/><path fill="none" stroke="#9467bd" paint-order="fill" d="M 93.2272720336914 69.51398468017578 L 117.15071868896484 116.36713409423828 L 141.07415771484375 124.05944061279297 L 164.9976043701172 102.38111877441406 L 188.92105102539062 73.70979309082031 L 212.84449768066406 122.66084289550781 L 236.7679443359375 97.48601531982422 L 260.6913757324219 90.49300384521484 L 284.6148376464844 105.1783218383789 L 308.53826904296875 98.18531799316406" stroke-linejoin="bevel" stroke-miterlimit="10" stroke-width="2" stroke-dasharray="6" clip-path="url(#nlIDcvLaSrVs)"/><path fill="none" stroke="#30a2da" paint-order="fill" d="M 308.53826904296875 98.18531799316406 L 332.46173095703125 75.80769348144531 L 356.3851623535156 131.0524444580078 L 380.3086242675781 98.18531799316406 L 404.2320556640625 77.90559387207031 L 428.155517578125 85.597900390625 L 452.0789489746094 102.38111877441406 L 476.00238037109375 106.57691955566406 L 499.92584228515625 118.46503448486328 L 523.8493041992188 91.89160919189453 L 547.772705078125 100.9825210571289" stroke-linejoin="bevel" stroke-miterlimit="10" stroke-width="2" clip-path="url(#WrTfuCGBnyEW)"/><path fill="none" stroke="#30a2da" paint-order="fill" d="M 332.46173095703125 94.6125259399414 L 356.3851623535156 95.56187438964844 L 380.3086242675781 96.51123046875 L 404.2320556640625 97.46058654785156 L 428.155517578125 98.4099349975586 L 452.0789489746094 99.35929107666016 L 476.00238037109375 100.30864715576172 L 499.92584228515625 101.25800323486328 L 523.8493041992188 102.20735168457031 L 547.772705078125 103.15670776367188" stroke-linejoin="bevel" stroke-miterlimit="10" stroke-width="2" stroke-dasharray="6" clip-path="url(#gsXDKlCpQkMG)"/><path fill="none" stroke="#fc4f30" paint-order="fill" d="M 308.53826904296875 98.18531799316406 L 332.46173095703125 78.60489654541016 L 356.3851623535156 91.19230651855469 L 380.3086242675781 80.70279693603516 L 404.2320556640625 95.38811492919922 L 428.155517578125 93.29020690917969 L 452.0789489746094 100.28321838378906 L 476.00238037109375 119.16433715820312 L 499.92584228515625 152.73077392578125 L 523.8493041992188 121.26223754882812 L 547.772705078125 115.66783142089844" stroke-linejoin="bevel" stroke-miterlimit="10" stroke-width="2" clip-path="url(#JqnEOXRgxcKr)"/><path fill="none" stroke="#fc4f30" paint-order="fill" d="M 332.46173095703125 78.0327377319336 L 356.3851623535156 83.98738861083984 L 380.3086242675781 89.9420394897461 L 404.2320556640625 95.89669799804688 L 428.155517578125 101.85134887695312 L 452.0789489746094 107.80599975585938 L 476.00238037109375 113.76065063476562 L 499.92584228515625 119.71530151367188 L 523.8493041992188 125.66995239257812 L 547.772705078125 131.62460327148438" stroke-linejoin="bevel" stroke-miterlimit="10" stroke-width="2" stroke-dasharray="6" clip-path="url(#BmrDMCsvyTLA)"/><path fill="none" stroke="rgb(128,128,128)" paint-order="fill" d="M 93.2272720336914 100.28321838378906 L 117.15071868896484 93.98950958251953 L 141.07415771484375 100.9825210571289 L 164.9976043701172 84.89859771728516 L 188.92105102539062 94.68881225585938 L 212.84449768066406 88.39510345458984 L 236.7679443359375 58.32517623901367 L 260.6913757324219 100.28321838378906 L 284.6148376464844 117.76573181152344 L 308.53826904296875 81.402099609375" stroke-opacity="0.7490196078431373" stroke-linejoin="bevel" stroke-miterlimit="10" clip-path="url(#uHtJUFXBsNhu)"/><path fill="none" stroke="grey" paint-order="fill" d="M 308.53826904296875 81.402099609375 L 332.46173095703125 59.02447509765625 L 356.3851623535156 109.3741226196289 L 380.3086242675781 114.9685287475586 L 404.2320556640625 93.29020690917969 L 428.155517578125 105.87762451171875 L 452.0789489746094 105.1783218383789 L 476.00238037109375 92.59091186523438 L 499.92584228515625 110.7727279663086 L 523.8493041992188 123.36013793945312 L 547.772705078125 119.86363983154297" stroke-linejoin="bevel" stroke-miterlimit="10" stroke-width="0.5" clip-path="url(#sVtXZkKbBaGu)"/><path fill="none" stroke="grey" paint-order="fill" d="M 308.53826904296875 81.402099609375 L 332.46173095703125 75.80769348144531 L 356.3851623535156 126.85664367675781 L 380.3086242675781 126.15734100341797 L 404.2320556640625 89.09440612792969 L 428.155517578125 84.89859771728516 L 452.0789489746094 142.2412567138672 L 476.00238037109375 112.8706283569336 L 499.92584228515625 96.08740997314453 L 523.8493041992188 149.23426818847656 L 547.772705078125 124.05944061279297" stroke-linejoin="bevel" stroke-miterlimit="10" stroke-width="0.5" clip-path="url(#DeaTtDtXwTUo)"/><path fill="none" stroke="rgb(128,128,128)" paint-order="fill" d="M 93.2272720336914 111.47203063964844 L 117.15071868896484 131.0524444580078 L 141.07415771484375 119.86363983154297 L 164.9976043701172 124.75874328613281 L 188.92105102539062 149.23426818847656 L 212.84449768066406 133.1503448486328 L 236.7679443359375 86.99650573730469 L 260.6913757324219 113.56993103027344 L 284.6148376464844 96.78671264648438 L 308.53826904296875 93.29020690917969" stroke-opacity="0.7490196078431373" stroke-linejoin="bevel" stroke-miterlimit="10" clip-path="url(#erbVUxKAcWzV)"/><path fill="none" stroke="grey" paint-order="fill" d="M 308.53826904296875 93.29020690917969 L 332.46173095703125 107.2762222290039 L 356.3851623535156 90.49300384521484 L 380.3086242675781 82.80069732666016 L 404.2320556640625 154.12936401367188 L 428.155517578125 78.60489654541016 L 452.0789489746094 73.70979309082031 L 476.00238037109375 82.10140228271484 L 499.92584228515625 74.40908813476562 L 523.8493041992188 154.12936401367188 L 547.772705078125 89.09440612792969" stroke-linejoin="bevel" stroke-miterlimit="10" stroke-width="0.5" clip-path="url(#aegKzwIVmswA)"/><path fill="none" stroke="grey" paint-order="fill" d="M 308.53826904296875 93.29020690917969 L 332.46173095703125 83.5 L 356.3851623535156 117.76573181152344 L 380.3086242675781 56.227272033691406 L 404.2320556640625 73.70979309082031 L 428.155517578125 73.01049041748047 L 452.0789489746094 98.18531799316406 L 476.00238037109375 89.79370880126953 L 499.92584228515625 114.9685287475586 L 523.8493041992188 75.80769348144531 L 547.772705078125 134.5489501953125" stroke-linejoin="bevel" stroke-miterlimit="10" stroke-width="0.5" clip-path="url(#GQHdgZOwDHUt)"/><path fill="none" stroke="rgb(128,128,128)" paint-order="fill" d="M 93.2272720336914 122.66084289550781 L 117.15071868896484 135.9475555419922 L 141.07415771484375 108.6748275756836 L 164.9976043701172 69.51398468017578 L 188.92105102539062 86.29720306396484 L 212.84449768066406 84.89859771728516 L 236.7679443359375 94.68881225585938 L 260.6913757324219 104.47901916503906 L 284.6148376464844 77.90559387207031 L 308.53826904296875 89.79370880126953" stroke-opacity="0.7490196078431373" stroke-linejoin="bevel" stroke-miterlimit="10" clip-path="url(#NoQztxBDHZbf)"/><path fill="none" stroke="grey" paint-order="fill" d="M 308.53826904296875 89.79370880126953 L 332.46173095703125 79.30419921875 L 356.3851623535156 104.47901916503906 L 380.3086242675781 121.26223754882812 L 404.2320556640625 117.06643676757812 L 428.155517578125 97.48601531982422 L 452.0789489746094 111.47203063964844 L 476.00238037109375 147.13636779785156 L 499.92584228515625 86.29720306396484 L 523.8493041992188 97.48601531982422 L 547.772705078125 139.44406127929688" stroke-linejoin="bevel" stroke-miterlimit="10" stroke-width="0.5" clip-path="url(#WdQTReVQxMMQ)"/><path fill="none" stroke="grey" paint-order="fill" d="M 308.53826904296875 89.79370880126953 L 332.46173095703125 63.220279693603516 L 356.3851623535156 103.77971649169922 L 380.3086242675781 77.90559387207031 L 404.2320556640625 135.9475555419922 L 428.155517578125 128.9545440673828 L 452.0789489746094 72.31118774414062 L 476.00238037109375 97.48601531982422 L 499.92584228515625 82.10140228271484 L 523.8493041992188 101.68181610107422 L 547.772705078125 74.40908813476562" stroke-linejoin="bevel" stroke-miterlimit="10" stroke-width="0.5" clip-path="url(#fmTmNSqnrnAg)"/><path fill="none" stroke="rgb(128,128,128)" paint-order="fill" d="M 93.2272720336914 108.6748275756836 L 117.15071868896484 112.8706283569336 L 141.07415771484375 145.73776245117188 L 164.9976043701172 117.76573181152344 L 188.92105102539062 103.77971649169922 L 212.84449768066406 121.26223754882812 L 236.7679443359375 109.3741226196289 L 260.6913757324219 80.70279693603516 L 284.6148376464844 102.38111877441406 L 308.53826904296875 95.38811492919922" stroke-opacity="0.7490196078431373" stroke-linejoin="bevel" stroke-miterlimit="10" clip-path="url(#HOyNNVUTHEoV)"/><path fill="none" stroke="grey" paint-order="fill" d="M 308.53826904296875 95.38811492919922 L 332.46173095703125 83.5 L 356.3851623535156 87.69580078125 L 380.3086242675781 130.3531494140625 L 404.2320556640625 84.19930267333984 L 428.155517578125 80.70279693603516 L 452.0789489746094 133.1503448486328 L 476.00238037109375 105.87762451171875 L 499.92584228515625 91.89160919189453 L 523.8493041992188 125.45803833007812 L 547.772705078125 130.3531494140625" stroke-linejoin="bevel" stroke-miterlimit="10" stroke-width="0.5" clip-path="url(#ChVFTTATArUB)"/><path fill="none" stroke="grey" paint-order="fill" d="M 308.53826904296875 95.38811492919922 L 332.46173095703125 96.08740997314453 L 356.3851623535156 93.98950958251953 L 380.3086242675781 110.7727279663086 L 404.2320556640625 105.87762451171875 L 428.155517578125 119.16433715820312 L 452.0789489746094 78.60489654541016 L 476.00238037109375 119.16433715820312 L 499.92584228515625 110.07342529296875 L 523.8493041992188 103.0804214477539 L 547.772705078125 96.78671264648438" stroke-linejoin="bevel" stroke-miterlimit="10" stroke-width="0.5" clip-path="url(#yyiKZaXaeVCr)"/><path fill="none" stroke="black" paint-order="fill" d="M 70.5 283.5 L 570.5 283.5" stroke-linejoin="bevel" stroke-miterlimit="10"/><path fill="none" stroke="black" paint-order="fill" d="M 93.5 289.5 L 93.5 281.5 M 212.5 289.5 L 212.5 281.5 M 332.5 289.5 L 332.5 281.5 M 452.5 289.5 L 452.5 281.5" stroke-linejoin="bevel" stroke-miterlimit="10"/><path fill="none" stroke="black" paint-order="fill" d="M 93.5 287.5 L 93.5 283.5 M 117.5 287.5 L 117.5 283.5 M 141.5 287.5 L 141.5 283.5 M 164.5 287.5 L 164.5 283.5 M 188.5 287.5 L 188.5 283.5 M 212.5 287.5 L 212.5 283.5 M 236.5 287.5 L 236.5 283.5 M 260.5 287.5 L 260.5 283.5 M 284.5 287.5 L 284.5 283.5 M 308.5 287.5 L 308.5 283.5 M 332.5 287.5 L 332.5 283.5 M 356.5 287.5 L 356.5 283.5 M 380.5 287.5 L 380.5 283.5 M 404.5 287.5 L 404.5 283.5 M 428.5 287.5 L 428.5 283.5 M 452.5 287.5 L 452.5 283.5 M 476.5 287.5 L 476.5 283.5 M 499.5 287.5 L 499.5 283.5 M 523.5 287.5 L 523.5 283.5 M 547.5 287.5 L 547.5 283.5" stroke-linejoin="bevel" stroke-miterlimit="10"/><text fill="#444444" stroke="none" font-family="helvetica" font-size="10pt" font-style="normal" font-weight="normal" text-decoration="normal" x="79.36060523986816" y="304" text-anchor="start" dominant-baseline="alphabetic" transform="matrix(1, 0, 0, 1, 0.5, 0.5)">2025</text><text fill="none" stroke="rgb(0,0,0)" font-family="helvetica" font-size="10pt" font-style="normal" font-weight="normal" text-decoration="normal" x="79.36060523986816" y="304" text-anchor="start" dominant-baseline="alphabetic" transform="matrix(1, 0, 0, 1, 0.5, 0.5)" stroke-opacity="0" stroke-linejoin="bevel" stroke-miterlimit="10">2025</text><text fill="#444444" stroke="none" font-family="helvetica" font-size="10pt" font-style="normal" font-weight="normal" text-decoration="normal" x="198.97783088684082" y="304" text-anchor="start" dominant-baseline="alphabetic" transform="matrix(1, 0, 0, 1, 0.5, 0.5)">2030</text><text fill="none" stroke="rgb(0,0,0)" font-family="helvetica" font-size="10pt" font-style="normal" font-weight="normal" text-decoration="normal" x="198.97783088684082" y="304" text-anchor="start" dominant-baseline="alphabetic" transform="matrix(1, 0, 0, 1, 0.5, 0.5)" stroke-opacity="0" stroke-linejoin="bevel" stroke-miterlimit="10">2030</text><text fill="#444444" stroke="none" font-family="helvetica" font-size="10pt" font-style="normal" font-weight="normal" text-decoration="normal" x="318.595064163208" y="304" text-anchor="start" dominant-baseline="alphabetic" transform="matrix(1, 0, 0, 1, 0.5, 0.5)">2035</text><text fill="none" stroke="rgb(0,0,0)" font-family="helvetica" font-size="10pt" font-style="normal" font-weight="normal" text-decoration="normal" x="318.595064163208" y="304" text-anchor="start" dominant-baseline="alphabetic" transform="matrix(1, 0, 0, 1, 0.5, 0.5)" stroke-opacity="0" stroke-linejoin="bevel" stroke-miterlimit="10">2035</text><text fill="#444444" stroke="none" font-family="helvetica" font-size="10pt" font-style="normal" font-weight="normal" text-decoration="normal" x="438.21228218078613" y="304" text-anchor="start" dominant-baseline="alphabetic" transform="matrix(1, 0, 0, 1, 0.5, 0.5)">2040</text><text fill="none" stroke="rgb(0,0,0)" font-family="helvetica" font-size="10pt" font-style="normal" font-weight="normal" text-decoration="normal" x="438.21228218078613" y="304" text-anchor="start" dominant-baseline="alphabetic" transform="matrix(1, 0, 0, 1, 0.5, 0.5)" stroke-opacity="0" stroke-linejoin="bevel" stroke-miterlimit="10">2040</text><text fill="#444444" stroke="none" font-family="helvetica" font-size="12pt" font-style="normal" font-weight="normal" text-decoration="normal" x="305.3166666030884" y="327" text-anchor="start" dominant-baseline="alphabetic" transform="matrix(1, 0, 0, 1, 0.5, 0.5)">Year</text><text fill="none" stroke="rgb(0,0,0)" font-family="helvetica" font-size="12pt" font-style="normal" font-weight="normal" text-decoration="normal" x="305.3166666030884" y="327" text-anchor="start" dominant-baseline="alphabetic" transform="matrix(1, 0, 0, 1, 0.5, 0.5)" stroke-opacity="0" stroke-linejoin="bevel" stroke-miterlimit="10">Year</text><path fill="none" stroke="black" paint-order="fill" d="M 70.5 283.5 L 70.5 33.5" stroke-linejoin="bevel" stroke-miterlimit="10"/><path fill="none" stroke="black" paint-order="fill" d="M 64.5 283.5 L 72.5 283.5 M 64.5 248.5 L 72.5 248.5 M 64.5 213.5 L 72.5 213.5 M 64.5 178.5 L 72.5 178.5 M 64.5 143.5 L 72.5 143.5 M 64.5 108.5 L 72.5 108.5 M 64.5 73.5 L 72.5 73.5 M 64.5 38.5 L 72.5 38.5" stroke-linejoin="bevel" stroke-miterlimit="10"/><path fill="none" stroke="black" paint-order="fill" d="M 66.5 283.5 L 70.5 283.5 M 66.5 276.5 L 70.5 276.5 M 66.5 269.5 L 70.5 269.5 M 66.5 262.5 L 70.5 262.5 M 66.5 255.5 L 70.5 255.5 M 66.5 248.5 L 70.5 248.5 M 66.5 241.5 L 70.5 241.5 M 66.5 234.5 L 70.5 234.5 M 66.5 227.5 L 70.5 227.5 M 66.5 220.5 L 70.5 220.5 M 66.5 213.5 L 70.5 213.5 M 66.5 206.5 L 70.5 206.5 M 66.5 199.5 L 70.5 199.5 M 66.5 192.5 L 70.5 192.5 M 66.5 185.5 L 70.5 185.5 M 66.5 178.5 L 70.5 178.5 M 66.5 171.5 L 70.5 171.5 M 66.5 164.5 L 70.5 164.5 M 66.5 157.5 L 70.5 157.5 M 66.5 150.5 L 70.5 150.5 M 66.5 143.5 L 70.5 143.5 M 66.5 136.5 L 70.5 136.5 M 66.5 129.5 L 70.5 129.5 M 66.5 122.5 L 70.5 122.5 M 66.5 115.5 L 70.5 115.5 M 66.5 108.5 L 70.5 108.5 M 66.5 101.5 L 70.5 101.5 M 66.5 94.5 L 70.5 94.5 M 66.5 87.5 L 70.5 87.5 M 66.5 80.5 L 70.5 80.5 M 66.5 73.5 L 70.5 73.5 M 66.5 66.5 L 70.5 66.5 M 66.5 59.5 L 70.5 59.5 M 66.5 52.5 L 70.5 52.5 M 66.5 45.5 L 70.5 45.5 M 66.5 38.5 L 70.5 38.5" stroke-linejoin="bevel" stroke-miterlimit="10"/><text fill="#444444" stroke="none" font-family="helvetica" font-size="10pt" font-style="normal" font-weight="normal" text-decoration="normal" x="52.31666660308838" y="288" text-anchor="start" dominant-baseline="alphabetic" transform="matrix(1, 0, 0, 1, 0.5, 0.5)">0</text><text fill="none" stroke="rgb(0,0,0)" font-family="helvetica" font-size="10pt" font-style="normal" font-weight="normal" text-decoration="normal" x="52.31666660308838" y="288" text-anchor="start" dominant-baseline="alphabetic" transform="matrix(1, 0, 0, 1, 0.5, 0.5)" stroke-opacity="0" stroke-linejoin="bevel" stroke-miterlimit="10">0</text><text fill="#444444" stroke="none" font-family="helvetica" font-size="10pt" font-style="normal" font-weight="normal" text-decoration="normal" x="45.63333320617676" y="253.0349578857422" text-anchor="start" dominant-baseline="alphabetic" transform="matrix(1, 0, 0, 1, 0.5, 0.5)">50</text><text fill="none" stroke="rgb(0,0,0)" font-family="helvetica" font-size="10pt" font-style="normal" font-weight="normal" text-decoration="normal" x="45.63333320617676" y="253.0349578857422" text-anchor="start" dominant-baseline="alphabetic" transform="matrix(1, 0, 0, 1, 0.5, 0.5)" stroke-opacity="0" stroke-linejoin="bevel" stroke-miterlimit="10">50</text><text fill="#444444" stroke="none" font-family="helvetica" font-size="10pt" font-style="normal" font-weight="normal" text-decoration="normal" x="38.95000076293945" y="218.06993103027344" text-anchor="start" dominant-baseline="alphabetic" transform="matrix(1, 0, 0, 1, 0.5, 0.5)">100</text><text fill="none" stroke="rgb(0,0,0)" font-family="helvetica" font-size="10pt" font-style="normal" font-weight="normal" text-decoration="normal" x="38.95000076293945" y="218.06993103027344" text-anchor="start" dominant-baseline="alphabetic" transform="matrix(1, 0, 0, 1, 0.5, 0.5)" stroke-opacity="0" stroke-linejoin="bevel" stroke-miterlimit="10">100</text><text fill="#444444" stroke="none" font-family="helvetica" font-size="10pt" font-style="normal" font-weight="normal" text-decoration="normal" x="38.95000076293945" y="183.10488891601562" text-anchor="start" dominant-baseline="alphabetic" transform="matrix(1, 0, 0, 1, 0.5, 0.5)">150</text><text fill="none" stroke="rgb(0,0,0)" font-family="helvetica" font-size="10pt" font-style="normal" font-weight="normal" text-decoration="normal" x="38.95000076293945" y="183.10488891601562" text-anchor="start" dominant-baseline="alphabetic" transform="matrix(1, 0, 0, 1, 0.5, 0.5)" stroke-opacity="0" stroke-linejoin="bevel" stroke-miterlimit="10">150</text><text fill="#444444" stroke="none" font-family="helvetica" font-size="10pt" font-style="normal" font-weight="normal" text-decoration="normal" x="38.95000076293945" y="148.13986206054688" text-anchor="start" dominant-baseline="alphabetic" transform="matrix(1, 0, 0, 1, 0.5, 0.5)">200</text><text fill="none" stroke="rgb(0,0,0)" font-family="helvetica" font-size="10pt" font-style="normal" font-weight="normal" text-decoration="normal" x="38.95000076293945" y="148.13986206054688" text-anchor="start" dominant-baseline="alphabetic" transform="matrix(1, 0, 0, 1, 0.5, 0.5)" stroke-opacity="0" stroke-linejoin="bevel" stroke-miterlimit="10">200</text><text fill="#444444" stroke="none" font-family="helvetica" font-size="10pt" font-style="normal" font-weight="normal" text-decoration="normal" x="38.95000076293945" y="113.1748275756836" text-anchor="start" dominant-baseline="alphabetic" transform="matrix(1, 0, 0, 1, 0.5, 0.5)">250</text><text fill="none" stroke="rgb(0,0,0)" font-family="helvetica" font-size="10pt" font-style="normal" font-weight="normal" text-decoration="normal" x="38.95000076293945" y="113.1748275756836" text-anchor="start" dominant-baseline="alphabetic" transform="matrix(1, 0, 0, 1, 0.5, 0.5)" stroke-opacity="0" stroke-linejoin="bevel" stroke-miterlimit="10">250</text><text fill="#444444" stroke="none" font-family="helvetica" font-size="10pt" font-style="normal" font-weight="normal" text-decoration="normal" x="38.95000076293945" y="78.20979309082031" text-anchor="start" dominant-baseline="alphabetic" transform="matrix(1, 0, 0, 1, 0.5, 0.5)">300</text><text fill="none" stroke="rgb(0,0,0)" font-family="helvetica" font-size="10pt" font-style="normal" font-weight="normal" text-decoration="normal" x="38.95000076293945" y="78.20979309082031" text-anchor="start" dominant-baseline="alphabetic" transform="matrix(1, 0, 0, 1, 0.5, 0.5)" stroke-opacity="0" stroke-linejoin="bevel" stroke-miterlimit="10">300</text><text fill="#444444" stroke="none" font-family="helvetica" font-size="10pt" font-style="normal" font-weight="normal" text-decoration="normal" x="38.95000076293945" y="43.244754791259766" text-anchor="start" dominant-baseline="alphabetic" transform="matrix(1, 0, 0, 1, 0.5, 0.5)">350</text><text fill="none" stroke="rgb(0,0,0)" font-family="helvetica" font-size="10pt" font-style="normal" font-weight="normal" text-decoration="normal" x="38.95000076293945" y="43.244754791259766" text-anchor="start" dominant-baseline="alphabetic" transform="matrix(1, 0, 0, 1, 0.5, 0.5)" stroke-opacity="0" stroke-linejoin="bevel" stroke-miterlimit="10">350</text><text fill="#444444" stroke="none" font-family="helvetica" font-size="12pt" font-style="normal" font-weight="normal" text-decoration="normal" x="-65.25833511352539" y="154" text-anchor="start" dominant-baseline="alphabetic" transform="matrix(6.123233995736766e-17, -1, 1, 6.123233995736766e-17, -126.54999923706055, 189.45000076293945)">Days suitable for transmission</text><text fill="none" stroke="rgb(0,0,0)" font-family="helvetica" font-size="12pt" font-style="normal" font-weight="normal" text-decoration="normal" x="-65.25833511352539" y="154" text-anchor="start" dominant-baseline="alphabetic" transform="matrix(6.123233995736766e-17, -1, 1, 6.123233995736766e-17, -126.54999923706055, 189.45000076293945)" stroke-opacity="0" stroke-linejoin="bevel" stroke-miterlimit="10">Days suitable for transmission</text><path fill="rgb(255,255,255)" stroke="rgb(229,229,229)" paint-order="fill" d="M 477.0333251953125 208.5 L 560.4999847412109 208.5 L 560.4999847412109 273.5 L 477.0333251953125 273.5 L 477.0333251953125 208.5 Z" fill-opacity="0.9490196078431372" clip-path="url(#LmHTZNMuzRUH)" stroke-opacity="0.5019607843137255" stroke-linejoin="bevel" stroke-miterlimit="10"/><g clip-path="url(#LmHTZNMuzRUH)"><g transform="matrix(1, 0, 0, 1, 487.5333251953125, 219)"><path fill="none" stroke="#30a2da" paint-order="fill" d="M 0.5 10.5 L 20.5 10.5" stroke-linejoin="bevel" stroke-miterlimit="10" stroke-width="2"/></g></g><g clip-path="url(#LmHTZNMuzRUH)"><text fill="#444444" stroke="none" font-family="helvetica" font-size="13px" font-style="normal" font-weight="normal" text-decoration="normal" x="512.5333251953125" y="233.5" text-anchor="start" dominant-baseline="alphabetic" transform="matrix(1, 0, 0, 1, 0.5, 0.5)">ID 001</text></g><g clip-path="url(#LmHTZNMuzRUH)"><text fill="none" stroke="rgb(0,0,0)" font-family="helvetica" font-size="13px" font-style="normal" font-weight="normal" text-decoration="normal" x="512.5333251953125" y="233.5" text-anchor="start" dominant-baseline="alphabetic" transform="matrix(1, 0, 0, 1, 0.5, 0.5)" stroke-opacity="0" stroke-linejoin="bevel" stroke-miterlimit="10">ID 001</text></g><g clip-path="url(#LmHTZNMuzRUH)"><g transform="matrix(1, 0, 0, 1, 487.5333251953125, 242)"><path fill="none" stroke="#fc4f30" paint-order="fill" d="M 0.5 10.5 L 20.5 10.5" stroke-linejoin="bevel" stroke-miterlimit="10" stroke-width="2"/></g></g><g clip-path="url(#LmHTZNMuzRUH)"><text fill="#444444" stroke="none" font-family="helvetica" font-size="13px" font-style="normal" font-weight="normal" text-decoration="normal" x="512.5333251953125" y="256.5" text-anchor="start" dominant-baseline="alphabetic" transform="matrix(1, 0, 0, 1, 0.5, 0.5)">ID 006</text></g><g clip-path="url(#LmHTZNMuzRUH)"><text fill="none" stroke="rgb(0,0,0)" font-family="helvetica" font-size="13px" font-style="normal" font-weight="normal" text-decoration="normal" x="512.5333251953125" y="256.5" text-anchor="start" dominant-baseline="alphabetic" transform="matrix(1, 0, 0, 1, 0.5, 0.5)" stroke-opacity="0" stroke-linejoin="bevel" stroke-miterlimit="10">ID 006</text></g><text fill="black" stroke="none" font-family="helvetica" font-size="14pt" font-style="normal" font-weight="normal" text-decoration="normal" x="0" y="18" text-anchor="start" dominant-baseline="alphabetic" transform="matrix(1, 0, 0, 1, 5.5, 5.5)">C. Addis Ababa</text><text fill="none" stroke="rgb(0,0,0)" font-family="helvetica" font-size="14pt" font-style="normal" font-weight="normal" text-decoration="normal" x="0" y="18" text-anchor="start" dominant-baseline="alphabetic" transform="matrix(1, 0, 0, 1, 5.5, 5.5)" stroke-opacity="0" stroke-linejoin="bevel" stroke-miterlimit="10">C. Addis Ababa</text></svg>