<svg version="1.1" xmlns="http://www.w3.org/2000/svg" width="600" height="334"><defs><clipPath id="GTkDxCTALgRy"><path fill="none" stroke="none" d="M 70.5 33.5 L 570.5 33.5 L 570.5 283.5 L 70.5 283.5 L 70.5 33.5 Z"/></clipPath><clipPath id="bJqIpMQQvfGo"><path fill="none" stroke="none" d="M 70.5 33.5 L 570.5 33.5 L 570.5 283.5 L 70.5 283.5 L 70.5 33.5 Z"/></clipPath><clipPath id="nWgEvfFCNvRd"><path fill="none" stroke="none" d="M 70.5 33.5 L 570.5 33.5 L 570.5 283.5 L 70.5 283.5 L 70.5 33.5 Z"/></clipPath><clipPath id="cMlFOqIMvALt"><path fill="none" stroke="none" d="M 70.5 33.5 L 570.5 33.5 L 570.5 283.5 L 70.5 283.5 L 70.5 33.5 Z"/></clipPath><clipPath id="UzcGhtGRRpeo"><path fill="none" stroke="none" d="M 70.5 33.5 L 570.5 33.5 L 570.5 283.5 L 70.5 283.5 L 70.5 33.5 Z"/></clipPath><clipPath id="CtOepIHIfFcr"><path fill="none" stroke="none" d="M 70.5 33.5 L 570.5 33.5 L 570.5 283.5 L 70.5 283.5 L 70.5 33.5 Z"/></clipPath><clipPath id="bgSyhZTyvFOn"><path fill="none" stroke="none" d="M 70.5 33.5 L 570.5 33.5 L 570.5 283.5 L 70.5 283.5 L 70.5 33.5 Z"/></clipPath><clipPath id="gKSXEmcvtNRi"><path fill="none" stroke="none" d="M 70.5 33.5 L 570.5 33.5 L 570.5 283.5 L 70.5 283.5 L 70.5 33.5 Z"/></clipPath><clipPath id="eDfuDazLgLEe"><path fill="none" stroke="none" d="M 70.5 33.5 L 570.5 33.5 L 570.5 283.5 L 70.5 283.5 L 70.5 33.5 Z"/></clipPath><clipPath id="tCcZEpQyabmX"><path fill="none" stroke="none" d="M 70.5 33.5 L 570.5 33.5 L 570.5 283.5 L 70.5 283.5 L 70.5 33.5 Z"/></clipPath><clipPath id="JRqPdBPCRCxn"><path fill="none" stroke="none" d="M 70.5 33.5 L 570.5 33.5 L 570.5 283.5 L 70.5 283.5 L 70.5 33.5 Z"/></clipPath><clipPath id="fTZpiKNdSNCT"><path fill="none" stroke="none" d="M 70.5 33.5 L 570.5 33.5 L 570.5 283.5 L 70.5 283.5 L 70.5 33.5 Z"/></clipPath><clipPath id="xTccsJZJqgwb"><path fill="none" stroke="none" d="M 70.5 33.5 L 570.5 33.5 L 570.5 283.5 L 70.5 283.5 L 70.5 33.5 Z"/></clipPath><clipPath id="uLdHfcfzIOGC"><path fill="none" stroke="none" d="M 70.5 33.5 L 570.5 33.5 L 570.5 283.5 L 70.5 283.5 L 70.5 33.5 Z"/></clipPath><clipPath id="padWfpTqkzJe"><path fill="none" stroke="none" d="M 70.5 33.5 L 570.5 33.5 L 570.5 283.5 L 70.5 283.5 L 70.5 33.5 Z"/></clipPath><clipPath id="NXlJdNkVQOeE"><path fill="none" stroke="none" d="M 70.5 33.5 L 570.5 33.5 L 570.5 283.5 L 70.5 283.5 L 70.5 33.5 Z"/></clipPath><clipPath id="TpkfpVzFPoQM"><path fill="none" stroke="none" d="M 70.5 33.5 L 570.5 33.5 L 570.5 283.5 L 70.5 283.5 L 70.5 33.5 Z"/></clipPath><clipPath id="ylBChTtGAlxs"><path fill="none" stroke="none" d="M 70.5 33.5 L 570.5 33.5 L 570.5 283.5 L 70.5 283.5 L 70.5 33.5 Z"/></clipPath><clipPath id="bRiurSTDzfMM"><path fill="none" stroke="none" d="M 70.5 33.5 L 570.5 33.5 L 570.5 283.5 L 70.5 283.5 L 70.5 33.5 Z"/></clipPath><clipPath id="CUUHkFMNgwcm"><path fill="none" stroke="none" d="M 70.5 33.5 L 570.5 33.5 L 570.5 283.5 L 70.5 283.5 L 70.5 33.5 Z"/></clipPath><clipPath id="QaVwQepOVPqT"><path fill="none" stroke="none" d="M 70.5 33.5 L 570.5 33.5 L 570.5 283.5 L 70.5 283.5 L 70.5 33.5 Z"/></clipPath><clipPath id="NvvknlapCeDd"><path fill="none" stroke="none" d="M 70.5 33.5 L 570.5 33.5 L 570.5 283.5 L 70.5 283.5 L 70.5 33.5 Z"/></clipPath><clipPath id="XBfBloiCTxsU"><path fill="none" stroke="none" d="M 70.5 33.5 L 570.5 33.5 L 570.5 283.5 L 70.5 283.5 L 70.5 33.5 Z"/></clipPath></defs><path fill="none" stroke="#e5e5e5" paint-order="fill" d="M 70.5 33.5 L 570.5 33.5 L 570.5 283.5 L 70.5 283.5 L 70.5 33.5 Z" stroke-linejoin="bevel" stroke-miterlimit="10"/><path fill="none" stroke="black" paint-order="fill" d="M 332.46172248803487 33.5 L 332.46172248803487 283.5" stroke-linejoin="bevel" stroke-miterlimit="10" stroke-width="3" stroke-dasharray="6" clip-path="url(#nWgEvfFCNvRd)"/><path fill="none" stroke="#9467bd" paint-order="fill" d="M 93.2272720336914 124.04251861572266 L 117.15071868896484 89.21847534179688 L 141.07415771484375 94.71701049804688 L 164.9976043701172 99.29911804199219 L 188.92105102539062 133.2067413330078 L 212.84449768066406 78.22140502929688 L 236.7679443359375 94.71701049804688 L 260.6913757324219 120.3768310546875 L 284.6148376464844 82.80352020263672 L 308.53826904296875 76.38856506347656" stroke-linejoin="bevel" stroke-miterlimit="10" stroke-width="2" clip-path="url(#cMlFOqIMvALt)"/><path fill="none" stroke="#9467bd" paint-order="fill" d="M 93.2272720336914 124.04251861572266 L 117.15071868896484 89.21847534179688 L 141.07415771484375 94.71701049804688 L 164.9976043701172 99.29911804199219 L 188.92105102539062 133.2067413330078 L 212.84449768066406 78.22140502929688 L 236.7679443359375 94.71701049804688 L 260.6913757324219 120.3768310546875 L 284.6148376464844 82.80352020263672 L 308.53826904296875 76.38856506347656" stroke-linejoin="bevel" stroke-miterlimit="10" stroke-width="2" stroke-dasharray="6" clip-path="url(#UzcGhtGRRpeo)"/><path fill="none" stroke="#30a2da" paint-order="fill" d="M 308.53826904296875 76.38856506347656 L 332.46173095703125 87.38562774658203 L 356.3851623535156 82.80352020263672 L 380.3086242675781 71.80644989013672 L 404.2320556640625 97.46627807617188 L 428.155517578125 102.04838562011719 L 452.0789489746094 91.05132293701172 L 476.00238037109375 97.46627807617188 L 499.92584228515625 98.38269805908203 L 523.8493041992188 61.725807189941406 L 547.772705078125 99.29911804199219" stroke-linejoin="bevel" stroke-miterlimit="10" stroke-width="2" clip-path="url(#CtOepIHIfFcr)"/><path fill="none" stroke="#30a2da" paint-order="fill" d="M 332.46173095703125 86.7191390991211 L 356.3851623535156 87.21345520019531 L 380.3086242675781 87.707763671875 L 404.2320556640625 88.20207977294922 L 428.155517578125 88.69639587402344 L 452.0789489746094 89.19070434570312 L 476.00238037109375 89.68502044677734 L 499.92584228515625 90.17932891845703 L 523.8493041992188 90.67364501953125 L 547.772705078125 91.16795349121094" stroke-linejoin="bevel" stroke-miterlimit="10" stroke-width="2" stroke-dasharray="6" clip-path="url(#bgSyhZTyvFOn)"/><path fill="none" stroke="#fc4f30" paint-order="fill" d="M 308.53826904296875 76.38856506347656 L 332.46173095703125 113.96187591552734 L 356.3851623535156 80.05425262451172 L 380.3086242675781 90.13489532470703 L 404.2320556640625 108.46334075927734 L 428.155517578125 60.809383392333984 L 452.0789489746094 94.71701049804688 L 476.00238037109375 82.80352020263672 L 499.92584228515625 78.22140502929688 L 523.8493041992188 73.63929748535156 L 547.772705078125 97.46627807617188" stroke-linejoin="bevel" stroke-miterlimit="10" stroke-width="2" clip-path="url(#gKSXEmcvtNRi)"/><path fill="none" stroke="#fc4f30" paint-order="fill" d="M 332.46173095703125 96.0999755859375 L 356.3851623535156 94.3060073852539 L 380.3086242675781 92.51203918457031 L 404.2320556640625 90.71807861328125 L 428.155517578125 88.92411041259766 L 452.0789489746094 87.13014221191406 L 476.00238037109375 85.33617401123047 L 499.92584228515625 83.5422134399414 L 523.8493041992188 81.74824523925781 L 547.772705078125 79.95427703857422" stroke-linejoin="bevel" stroke-miterlimit="10" stroke-width="2" stroke-dasharray="6" clip-path="url(#eDfuDazLgLEe)"/><path fill="none" stroke="rgb(128,128,128)" paint-order="fill" d="M 93.2272720336914 95.63343048095703 L 117.15071868896484 94.71701049804688 L 141.07415771484375 88.30205535888672 L 164.9976043701172 98.38269805908203 L 188.92105102539062 79.13783264160156 L 212.84449768066406 89.21847534179688 L 236.7679443359375 107.54692077636719 L 260.6913757324219 75.47213745117188 L 284.6148376464844 80.97067260742188 L 308.53826904296875 84.63636016845703" stroke-opacity="0.7490196078431373" stroke-linejoin="bevel" stroke-miterlimit="10" clip-path="url(#tCcZEpQyabmX)"/><path fill="none" stroke="grey" paint-order="fill" d="M 308.53826904296875 84.63636016845703 L 332.46173095703125 111.21260833740234 L 356.3851623535156 82.80352020263672 L 380.3086242675781 96.54985046386719 L 404.2320556640625 100.21554565429688 L 428.155517578125 83.71994018554688 L 452.0789489746094 107.54692077636719 L 476.00238037109375 93.80058288574219 L 499.92584228515625 69.9736099243164 L 523.8493041992188 93.80058288574219 L 547.772705078125 103.88123321533203" stroke-linejoin="bevel" stroke-miterlimit="10" stroke-width="0.5" clip-path="url(#JRqPdBPCRCxn)"/><path fill="none" stroke="grey" paint-order="fill" d="M 308.53826904296875 84.63636016845703 L 332.46173095703125 124.04251861572266 L 356.3851623535156 88.30205535888672 L 380.3086242675781 102.96480560302734 L 404.2320556640625 119.46041107177734 L 428.155517578125 107.54692077636719 L 452.0789489746094 86.46920776367188 L 476.00238037109375 68.14076232910156 L 499.92584228515625 118.54399108886719 L 523.8493041992188 62.64222717285156 L 547.772705078125 80.97067260742188" stroke-linejoin="bevel" stroke-miterlimit="10" stroke-width="0.5" clip-path="url(#fTZpiKNdSNCT)"/><path fill="none" stroke="rgb(128,128,128)" paint-order="fill" d="M 93.2272720336914 96.54985046386719 L 117.15071868896484 99.29911804199219 L 141.07415771484375 86.46920776367188 L 164.9976043701172 113.96187591552734 L 188.92105102539062 103.88123321533203 L 212.84449768066406 81.88710021972656 L 236.7679443359375 94.71701049804688 L 260.6913757324219 95.63343048095703 L 284.6148376464844 63.558650970458984 L 308.53826904296875 91.96774291992188" stroke-opacity="0.7490196078431373" stroke-linejoin="bevel" stroke-miterlimit="10" clip-path="url(#xTccsJZJqgwb)"/><path fill="none" stroke="grey" paint-order="fill" d="M 308.53826904296875 91.96774291992188 L 332.46173095703125 119.46041107177734 L 356.3851623535156 89.21847534179688 L 380.3086242675781 95.63343048095703 L 404.2320556640625 80.97067260742188 L 428.155517578125 83.71994018554688 L 452.0789489746094 96.54985046386719 L 476.00238037109375 101.13196563720703 L 499.92584228515625 102.04838562011719 L 523.8493041992188 84.63636016845703 L 547.772705078125 102.04838562011719" stroke-linejoin="bevel" stroke-miterlimit="10" stroke-width="0.5" clip-path="url(#uLdHfcfzIOGC)"/><path fill="none" stroke="grey" paint-order="fill" d="M 308.53826904296875 91.96774291992188 L 332.46173095703125 108.46334075927734 L 356.3851623535156 101.13196563720703 L 380.3086242675781 79.13783264160156 L 404.2320556640625 104.79765319824219 L 428.155517578125 108.46334075927734 L 452.0789489746094 70.89002990722656 L 476.00238037109375 98.38269805908203 L 499.92584228515625 92.88416290283203 L 523.8493041992188 93.80058288574219 L 547.772705078125 91.96774291992188" stroke-linejoin="bevel" stroke-miterlimit="10" stroke-width="0.5" clip-path="url(#padWfpTqkzJe)"/><path fill="none" stroke="rgb(128,128,128)" paint-order="fill" d="M 93.2272720336914 96.54985046386719 L 117.15071868896484 74.55571746826172 L 141.07415771484375 88.30205535888672 L 164.9976043701172 109.37976837158203 L 188.92105102539062 69.05718231201172 L 212.84449768066406 128.6246337890625 L 236.7679443359375 120.3768310546875 L 260.6913757324219 94.71701049804688 L 284.6148376464844 101.13196563720703 L 308.53826904296875 84.63636016845703" stroke-opacity="0.7490196078431373" stroke-linejoin="bevel" stroke-miterlimit="10" clip-path="url(#NXlJdNkVQOeE)"/><path fill="none" stroke="grey" paint-order="fill" d="M 308.53826904296875 84.63636016845703 L 332.46173095703125 91.05132293701172 L 356.3851623535156 70.89002990722656 L 380.3086242675781 69.05718231201172 L 404.2320556640625 98.38269805908203 L 428.155517578125 102.96480560302734 L 452.0789489746094 74.55571746826172 L 476.00238037109375 83.71994018554688 L 499.92584228515625 79.13783264160156 L 523.8493041992188 105.71407318115234 L 547.772705078125 93.80058288574219" stroke-linejoin="bevel" stroke-miterlimit="10" stroke-width="0.5" clip-path="url(#TpkfpVzFPoQM)"/><path fill="none" stroke="grey" paint-order="fill" d="M 308.53826904296875 84.63636016845703 L 332.46173095703125 92.88416290283203 L 356.3851623535156 104.79765319824219 L 380.3086242675781 104.79765319824219 L 404.2320556640625 91.96774291992188 L 428.155517578125 63.558650970458984 L 452.0789489746094 107.54692077636719 L 476.00238037109375 94.71701049804688 L 499.92584228515625 90.13489532470703 L 523.8493041992188 108.46334075927734 L 547.772705078125 105.71407318115234" stroke-linejoin="bevel" stroke-miterlimit="10" stroke-width="0.5" clip-path="url(#ylBChTtGAlxs)"/><path fill="none" stroke="rgb(128,128,128)" paint-order="fill" d="M 93.2272720336914 103.88123321533203 L 117.15071868896484 78.22140502929688 L 141.07415771484375 93.80058288574219 L 164.9976043701172 91.96774291992188 L 188.92105102539062 114.8782958984375 L 212.84449768066406 91.05132293701172 L 236.7679443359375 91.05132293701172 L 260.6913757324219 112.12903594970703 L 284.6148376464844 95.63343048095703 L 308.53826904296875 100.21554565429688" stroke-opacity="0.7490196078431373" stroke-linejoin="bevel" stroke-miterlimit="10" clip-path="url(#bRiurSTDzfMM)"/><path fill="none" stroke="grey" paint-order="fill" d="M 308.53826904296875 100.21554565429688 L 332.46173095703125 106.63050079345703 L 356.3851623535156 113.04545593261719 L 380.3086242675781 95.63343048095703 L 404.2320556640625 114.8782958984375 L 428.155517578125 92.88416290283203 L 452.0789489746094 91.96774291992188 L 476.00238037109375 115.79472351074219 L 499.92584228515625 108.46334075927734 L 523.8493041992188 73.63929748535156 L 547.772705078125 56.227272033691406" stroke-linejoin="bevel" stroke-miterlimit="10" stroke-width="0.5" clip-path="url(#CUUHkFMNgwcm)"/><path fill="none" stroke="grey" paint-order="fill" d="M 308.53826904296875 100.21554565429688 L 332.46173095703125 112.12903594970703 L 356.3851623535156 109.37976837158203 L 380.3086242675781 99.29911804199219 L 404.2320556640625 88.30205535888672 L 428.155517578125 82.80352020263672 L 452.0789489746094 91.05132293701172 L 476.00238037109375 105.71407318115234 L 499.92584228515625 95.63343048095703 L 523.8493041992188 80.97067260742188 L 547.772705078125 68.14076232910156" stroke-linejoin="bevel" stroke-miterlimit="10" stroke-width="0.5" clip-path="url(#QaVwQepOVPqT)"/><path fill="none" stroke="black" paint-order="fill" d="M 70.5 283.5 L 570.5 283.5" stroke-linejoin="bevel" stroke-miterlimit="10"/><path fill="none" stroke="black" paint-order="fill" d="M 93.5 289.5 L 93.5 281.5 M 212.5 289.5 L 212.5 281.5 M 332.5 289.5 L 332.5 281.5 M 452.5 289.5 L 452.5 281.5" stroke-linejoin="bevel" stroke-miterlimit="10"/><path fill="none" stroke="black" paint-order="fill" d="M 93.5 287.5 L 93.5 283.5 M 117.5 287.5 L 117.5 283.5 M 141.5 287.5 L 141.5 283.5 M 164.5 287.5 L 164.5 283.5 M 188.5 287.5 L 188.5 283.5 M 212.5 287.5 L 212.5 283.5 M 236.5 287.5 L 236.5 283.5 M 260.5 287.5 L 260.5 283.5 M 284.5 287.5 L 284.5 283.5 M 308.5 287.5 L 308.5 283.5 M 332.5 287.5 L 332.5 283.5 M 356.5 287.5 L 356.5 283.5 M 380.5 287.5 L 380.5 283.5 M 404.5 287.5 L 404.5 283.5 M 428.5 287.5 L 428.5 283.5 M 452.5 287.5 L 452.5 283.5 M 476.5 287.5 L 476.5 283.5 M 499.5 287.5 L 499.5 283.5 M 523.5 287.5 L 523.5 283.5 M 547.5 287.5 L 547.5 283.5" stroke-linejoin="bevel" stroke-miterlimit="10"/><text fill="#444444" stroke="none" font-family="helvetica" font-size="10pt" font-style="normal" font-weight="normal" text-decoration="normal" x="79.36060523986816" y="304" text-anchor="start" dominant-baseline="alphabetic" transform="matrix(1, 0, 0, 1, 0.5, 0.5)">2025</text><text fill="none" stroke="rgb(0,0,0)" font-family="helvetica" font-size="10pt" font-style="normal" font-weight="normal" text-decoration="normal" x="79.36060523986816" y="304" text-anchor="start" dominant-baseline="alphabetic" transform="matrix(1, 0, 0, 1, 0.5, 0.5)" stroke-opacity="0" stroke-linejoin="bevel" stroke-miterlimit="10">2025</text><text fill="#444444" stroke="none" font-family="helvetica" font-size="10pt" font-style="normal" font-weight="normal" text-decoration="normal" x="198.97783088684082" y="304" text-anchor="start" dominant-baseline="alphabetic" transform="matrix(1, 0, 0, 1, 0.5, 0.5)">2030</text><text fill="none" stroke="rgb(0,0,0)" font-family="helvetica" font-size="10pt" font-style="normal" font-weight="normal" text-decoration="normal" x="198.97783088684082" y="304" text-anchor="start" dominant-baseline="alphabetic" transform="matrix(1, 0, 0, 1, 0.5, 0.5)" stroke-opacity="0" stroke-linejoin="bevel" stroke-miterlimit="10">2030</text><text fill="#444444" stroke="none" font-family="helvetica" font-size="10pt" font-style="normal" font-weight="normal" text-decoration="normal" x="318.595064163208" y="304" text-anchor="start" dominant-baseline="alphabetic" transform="matrix(1, 0, 0, 1, 0.5, 0.5)">2035</text><text fill="none" stroke="rgb(0,0,0)" font-family="helvetica" font-size="10pt" font-style="normal" font-weight="normal" text-decoration="normal" x="318.595064163208" y="304" text-anchor="start" dominant-baseline="alphabetic" transform="matrix(1, 0, 0, 1, 0.5, 0.5)" stroke-opacity="0" stroke-linejoin="bevel" stroke-miterlimit="10">2035</text><text fill="#444444" stroke="none" font-family="helvetica" font-size="10pt" font-style="normal" font-weight="normal" text-decoration="normal" x="438.21228218078613" y="304" text-anchor="start" dominant-baseline="alphabetic" transform="matrix(1, 0, 0, 1, 0.5, 0.5)">2040</text><text fill="none" stroke="rgb(0,0,0)" font-family="helvetica" font-size="10pt" font-style="normal" font-weight="normal" text-decoration="normal" x="438.21228218078613" y="304" text-anchor="start" dominant-baseline="alphabetic" transform="matrix(1, 0, 0, 1, 0.5, 0.5)" stroke-opacity="0" stroke-linejoin="bevel" stroke-miterlimit="10">2040</text><text fill="#444444" stroke="none" font-family="helvetica" font-size="12pt" font-style="normal" font-weight="normal" text-decoration="normal" x="305.3166666030884" y="327" text-anchor="start" dominant-baseline="alphabetic" transform="matrix(1, 0, 0, 1, 0.5, 0.5)">Year</text><text fill="none" stroke="rgb(0,0,0)" font-family="helvetica" font-size="12pt" font-style="normal" font-weight="normal" text-decoration="normal" x="305.3166666030884" y="327" text-anchor="start" dominant-baseline="alphabetic" transform="matrix(1, 0, 0, 1, 0.5, 0.5)" stroke-opacity="0" stroke-linejoin="bevel" stroke-miterlimit="10">Year</text><path fill="none" stroke="black" paint-order="fill" d="M 70.5 283.5 L 70.5 33.5" stroke-linejoin="bevel" stroke-miterlimit="10"/><path fill="none" stroke="black" paint-order="fill" d="M 64.5 283.5 L 72.5 283.5 M 64.5 237.5 L 72.5 237.5 M 64.5 191.5 L 72.5 191.5 M 64.5 146.5 L 72.5 146.5 M 64.5 100.5 L 72.5 100.5 M 64.5 54.5 L 72.5 54.5" stroke-linejoin="bevel" stroke-miterlimit="10"/><path fill="none" stroke="black" paint-order="fill" d="M 66.5 283.5 L 70.5 283.5 M 66.5 274.5 L 70.5 274.5 M 66.5 265.5 L 70.5 265.5 M 66.5 256.5 L 70.5 256.5 M 66.5 246.5 L 70.5 246.5 M 66.5 237.5 L 70.5 237.5 M 66.5 228.5 L 70.5 228.5 M 66.5 219.5 L 70.5 219.5 M 66.5 210.5 L 70.5 210.5 M 66.5 201.5 L 70.5 201.5 M 66.5 191.5 L 70.5 191.5 M 66.5 182.5 L 70.5 182.5 M 66.5 173.5 L 70.5 173.5 M 66.5 164.5 L 70.5 164.5 M 66.5 155.5 L 70.5 155.5 M 66.5 146.5 L 70.5 146.5 M 66.5 136.5 L 70.5 136.5 M 66.5 127.5 L 70.5 127.5 M 66.5 118.5 L 70.5 118.5 M 66.5 109.5 L 70.5 109.5 M 66.5 100.5 L 70.5 100.5 M 66.5 91.5 L 70.5 91.5 M 66.5 81.5 L 70.5 81.5 M 66.5 72.5 L 70.5 72.5 M 66.5 63.5 L 70.5 63.5 M 66.5 54.5 L 70.5 54.5 M 66.5 45.5 L 70.5 45.5 M 66.5 36.5 L 70.5 36.5" stroke-linejoin="bevel" stroke-miterlimit="10"/><text fill="#444444" stroke="none" font-family="helvetica" font-size="10pt" font-style="normal" font-weight="normal" text-decoration="normal" x="52.31666660308838" y="288" text-anchor="start" dominant-baseline="alphabetic" transform="matrix(1, 0, 0, 1, 0.5, 0.5)">0</text><text fill="none" stroke="rgb(0,0,0)" font-family="helvetica" font-size="10pt" font-style="normal" font-weight="normal" text-decoration="normal" x="52.31666660308838" y="288" text-anchor="start" dominant-baseline="alphabetic" transform="matrix(1, 0, 0, 1, 0.5, 0.5)" stroke-opacity="0" stroke-linejoin="bevel" stroke-miterlimit="10">0</text><text fill="#444444" stroke="none" font-family="helvetica" font-size="10pt" font-style="normal" font-weight="normal" text-decoration="normal" x="45.63333320617676" y="242.1788787841797" text-anchor="start" dominant-baseline="alphabetic" transform="matrix(1, 0, 0, 1, 0.5, 0.5)">50</text><text fill="none" stroke="rgb(0,0,0)" font-family="helvetica" font-size="10pt" font-style="normal" font-weight="normal" text-decoration="normal" x="45.63333320617676" y="242.1788787841797" text-anchor="start" dominant-baseline="alphabetic" transform="matrix(1, 0, 0, 1, 0.5, 0.5)" stroke-opacity="0" stroke-linejoin="bevel" stroke-miterlimit="10">50</text><text fill="#444444" stroke="none" font-family="helvetica" font-size="10pt" font-style="normal" font-weight="normal" text-decoration="normal" x="38.95000076293945" y="196.35777282714844" text-anchor="start" dominant-baseline="alphabetic" transform="matrix(1, 0, 0, 1, 0.5, 0.5)">100</text><text fill="none" stroke="rgb(0,0,0)" font-family="helvetica" font-size="10pt" font-style="normal" font-weight="normal" text-decoration="normal" x="38.95000076293945" y="196.35777282714844" text-anchor="start" dominant-baseline="alphabetic" transform="matrix(1, 0, 0, 1, 0.5, 0.5)" stroke-opacity="0" stroke-linejoin="bevel" stroke-miterlimit="10">100</text><text fill="#444444" stroke="none" font-family="helvetica" font-size="10pt" font-style="normal" font-weight="normal" text-decoration="normal" x="38.95000076293945" y="150.53665161132812" text-anchor="start" dominant-baseline="alphabetic" transform="matrix(1, 0, 0, 1, 0.5, 0.5)">150</text><text fill="none" stroke="rgb(0,0,0)" font-family="helvetica" font-size="10pt" font-style="normal" font-weight="normal" text-decoration="normal" x="38.95000076293945" y="150.53665161132812" text-anchor="start" dominant-baseline="alphabetic" transform="matrix(1, 0, 0, 1, 0.5, 0.5)" stroke-opacity="0" stroke-linejoin="bevel" stroke-miterlimit="10">150</text><text fill="#444444" stroke="none" font-family="helvetica" font-size="10pt" font-style="normal" font-weight="normal" text-decoration="normal" x="38.95000076293945" y="104.71554565429688" text-anchor="start" dominant-baseline="alphabetic" transform="matrix(1, 0, 0, 1, 0.5, 0.5)">200</text><text fill="none" stroke="rgb(0,0,0)" font-family="helvetica" font-size="10pt" font-style="normal" font-weight="normal" text-decoration="normal" x="38.95000076293945" y="104.71554565429688" text-anchor="start" dominant-baseline="alphabetic" transform="matrix(1, 0, 0, 1, 0.5, 0.5)" stroke-opacity="0" stroke-linejoin="bevel" stroke-miterlimit="10">200</text><text fill="#444444" stroke="none" font-family="helvetica" font-size="10pt" font-style="normal" font-weight="normal" text-decoration="normal" x="38.95000076293945" y="58.89442825317383" text-anchor="start" dominant-baseline="alphabetic" transform="matrix(1, 0, 0, 1, 0.5, 0.5)">250</text><text fill="none" stroke="rgb(0,0,0)" font-family="helvetica" font-size="10pt" font-style="normal" font-weight="normal" text-decoration="normal" x="38.95000076293945" y="58.89442825317383" text-anchor="start" dominant-baseline="alphabetic" transform="matrix(1, 0, 0, 1, 0.5, 0.5)" stroke-opacity="0" stroke-linejoin="bevel" stroke-miterlimit="10">250</text><text fill="#444444" stroke="none" font-family="helvetica" font-size="12pt" font-style="normal" font-weight="normal" text-decoration="normal" x="-65.25833511352539" y="154" text-anchor="start" dominant-baseline="alphabetic" transform="matrix(6.123233995736766e-17, -1, 1, 6.123233995736766e-17, -126.54999923706055, 189.45000076293945)">Days suitable for transmission</text><text fill="none" stroke="rgb(0,0,0)" font-family="helvetica" font-size="12pt" font-style="normal" font-weight="normal" text-decoration="normal" x="-65.25833511352539" y="154" text-anchor="start" dominant-baseline="alphabetic" transform="matrix(6.123233995736766e-17, -1, 1, 6.123233995736766e-17, -126.54999923706055, 189.45000076293945)" stroke-opacity="0" stroke-linejoin="bevel" stroke-miterlimit="10">Days suitable for transmission</text><path fill="rgb(255,255,255)" stroke="rgb(229,229,229)" paint-order="fill" d="M 477.0333251953125 208.5 L 560.4999847412109 208.5 L 560.4999847412109 273.5 L 477.0333251953125 273.5 L 477.0333251953125 208.5 Z" fill-opacity="0.9490196078431372" clip-path="url(#NvvknlapCeDd)" stroke-opacity="0.5019607843137255" stroke-linejoin="bevel" stroke-miterlimit="10"/><g clip-path="url(#NvvknlapCeDd)"><g transform="matrix(1, 0, 0, 1, 487.5333251953125, 219)"><path fill="none" stroke="#30a2da" paint-order="fill" d="M 0.5 10.5 L 20.5 10.5" stroke-linejoin="bevel" stroke-miterlimit="10" stroke-width="2"/></g></g><g clip-path="url(#NvvknlapCeDd)"><text fill="#444444" stroke="none" font-family="helvetica" font-size="13px" font-style="normal" font-weight="normal" text-decoration="normal" x="512.5333251953125" y="233.5" text-anchor="start" dominant-baseline="alphabetic" transform="matrix(1, 0, 0, 1, 0.5, 0.5)">ID 001</text></g><g clip-path="url(#NvvknlapCeDd)"><text fill="none" stroke="rgb(0,0,0)" font-family="helvetica" font-size="13px" font-style="normal" font-weight="normal" text-decoration="normal" x="512.5333251953125" y="233.5" text-anchor="start" dominant-baseline="alphabetic" transform="matrix(1, 0, 0, 1, 0.5, 0.5)" stroke-opacity="0" stroke-linejoin="bevel" stroke-miterlimit="10">ID 001</text></g><g clip-path="url(#NvvknlapCeDd)"><g transform="matrix(1, 0, 0, 1, 487.5333251953125, 242)"><path fill="none" stroke="#fc4f30" paint-order="fill" d="M 0.5 10.5 L 20.5 10.5" stroke-linejoin="bevel" stroke-miterlimit="10" stroke-width="2"/></g></g><g clip-path="url(#NvvknlapCeDd)"><text fill="#444444" stroke="none" font-family="helvetica" font-size="13px" font-style="normal" font-weight="normal" text-decoration="normal" x="512.5333251953125" y="256.5" text-anchor="start" dominant-baseline="alphabetic" transform="matrix(1, 0, 0, 1, 0.5, 0.5)">ID 006</text></g><g clip-path="url(#NvvknlapCeDd)"><text fill="none" stroke="rgb(0,0,0)" font-family="helvetica" font-size="13px" font-style="normal" font-weight="normal" text-decoration="normal" x="512.5333251953125" y="256.5" text-anchor="start" dominant-baseline="alphabetic" transform="matrix(1, 0, 0, 1, 0.5, 0.5)" stroke-opacity="0" stroke-linejoin="bevel" stroke-miterlimit="10">ID 006</text></g><text fill="black" stroke="none" font-family="helvetica" font-size="14pt" font-style="normal" font-weight="normal" text-decoration="normal" x="0" y="18" text-anchor="start" dominant-baseline="alphabetic" transform="matrix(1, 0, 0, 1, 5.5, 5.5)">B. Los Angeles</text><text fill="none" stroke="rgb(0,0,0)" font-family="helvetica" font-size="14pt" font-style="normal" font-weight="normal" text-decoration="normal" x="0" y="18" text-anchor="start" dominant-baseline="alphabetic" transform="matrix(1, 0, 0, 1, 5.5, 5.5)" stroke-opacity="0" stroke-linejoin="bevel" stroke-miterlimit="10">B. Los Angeles</text></svg>