<svg version="1.1" xmlns="http://www.w3.org/2000/svg" width="600" height="334"><defs><clipPath id="pWyayowFXADT"><path fill="none" stroke="none" d="M 70.5 33.5 L 570.5 33.5 L 570.5 283.5 L 70.5 283.5 L 70.5 33.5 Z"/></clipPath><clipPath id="tkfOmVSRCwng"><path fill="none" stroke="none" d="M 70.5 33.5 L 570.5 33.5 L 570.5 283.5 L 70.5 283.5 L 70.5 33.5 Z"/></clipPath><clipPath id="KBETpnTafbuH"><path fill="none" stroke="none" d="M 70.5 33.5 L 570.5 33.5 L 570.5 283.5 L 70.5 283.5 L 70.5 33.5 Z"/></clipPath><clipPath id="EATWutBHwlRl"><path fill="none" stroke="none" d="M 70.5 33.5 L 570.5 33.5 L 570.5 283.5 L 70.5 283.5 L 70.5 33.5 Z"/></clipPath><clipPath id="JhAVASFuMSiA"><path fill="none" stroke="none" d="M 70.5 33.5 L 570.5 33.5 L 570.5 283.5 L 70.5 283.5 L 70.5 33.5 Z"/></clipPath><clipPath id="DllwQqmEiXSS"><path fill="none" stroke="none" d="M 70.5 33.5 L 570.5 33.5 L 570.5 283.5 L 70.5 283.5 L 70.5 33.5 Z"/></clipPath><clipPath id="CceJgcCbKqvo"><path fill="none" stroke="none" d="M 70.5 33.5 L 570.5 33.5 L 570.5 283.5 L 70.5 283.5 L 70.5 33.5 Z"/></clipPath><clipPath id="KgJXKJVlQZZt"><path fill="none" stroke="none" d="M 70.5 33.5 L 570.5 33.5 L 570.5 283.5 L 70.5 283.5 L 70.5 33.5 Z"/></clipPath><clipPath id="chiKkpgbiXCM"><path fill="none" stroke="none" d="M 70.5 33.5 L 570.5 33.5 L 570.5 283.5 L 70.5 283.5 L 70.5 33.5 Z"/></clipPath><clipPath id="ALiAHkZoZZqV"><path fill="none" stroke="none" d="M 70.5 33.5 L 570.5 33.5 L 570.5 283.5 L 70.5 283.5 L 70.5 33.5 Z"/></clipPath><clipPath id="yGlEANohackS"><path fill="none" stroke="none" d="M 70.5 33.5 L 570.5 33.5 L 570.5 283.5 L 70.5 283.5 L 70.5 33.5 Z"/></clipPath><clipPath id="AfCSkqbVCanx"><path fill="none" stroke="none" d="M 70.5 33.5 L 570.5 33.5 L 570.5 283.5 L 70.5 283.5 L 70.5 33.5 Z"/></clipPath><clipPath id="VzSHbQgwSAeH"><path fill="none" stroke="none" d="M 70.5 33.5 L 570.5 33.5 L 570.5 283.5 L 70.5 283.5 L 70.5 33.5 Z"/></clipPath><clipPath id="JSzNKnIFMomb"><path fill="none" stroke="none" d="M 70.5 33.5 L 570.5 33.5 L 570.5 283.5 L 70.5 283.5 L 70.5 33.5 Z"/></clipPath><clipPath id="vbSkkcvHreCK"><path fill="none" stroke="none" d="M 70.5 33.5 L 570.5 33.5 L 570.5 283.5 L 70.5 283.5 L 70.5 33.5 Z"/></clipPath><clipPath id="oqhLOkhQKiXF"><path fill="none" stroke="none" d="M 70.5 33.5 L 570.5 33.5 L 570.5 283.5 L 70.5 283.5 L 70.5 33.5 Z"/></clipPath><clipPath id="loduXTLcxKRu"><path fill="none" stroke="none" d="M 70.5 33.5 L 570.5 33.5 L 570.5 283.5 L 70.5 283.5 L 70.5 33.5 Z"/></clipPath><clipPath id="vXJlTtWUAZdN"><path fill="none" stroke="none" d="M 70.5 33.5 L 570.5 33.5 L 570.5 283.5 L 70.5 283.5 L 70.5 33.5 Z"/></clipPath><clipPath id="voLITHBwEoNq"><path fill="none" stroke="none" d="M 70.5 33.5 L 570.5 33.5 L 570.5 283.5 L 70.5 283.5 L 70.5 33.5 Z"/></clipPath><clipPath id="kVbgiDQZFodF"><path fill="none" stroke="none" d="M 70.5 33.5 L 570.5 33.5 L 570.5 283.5 L 70.5 283.5 L 70.5 33.5 Z"/></clipPath><clipPath id="afhsQOdmiKpW"><path fill="none" stroke="none" d="M 70.5 33.5 L 570.5 33.5 L 570.5 283.5 L 70.5 283.5 L 70.5 33.5 Z"/></clipPath><clipPath id="eTkXxxurhfLz"><path fill="none" stroke="none" d="M 70.5 33.5 L 570.5 33.5 L 570.5 283.5 L 70.5 283.5 L 70.5 33.5 Z"/></clipPath><clipPath id="KQRLNWifHUaF"><path fill="none" stroke="none" d="M 70.5 33.5 L 570.5 33.5 L 570.5 283.5 L 70.5 283.5 L 70.5 33.5 Z"/></clipPath></defs><path fill="none" stroke="#e5e5e5" paint-order="fill" d="M 70.5 33.5 L 570.5 33.5 L 570.5 283.5 L 70.5 283.5 L 70.5 33.5 Z" stroke-linejoin="bevel" stroke-miterlimit="10"/><path fill="none" stroke="black" paint-order="fill" d="M 332.46172248803487 33.5 L 332.46172248803487 283.5" stroke-linejoin="bevel" stroke-miterlimit="10" stroke-width="3" stroke-dasharray="6" clip-path="url(#KBETpnTafbuH)"/><path fill="none" stroke="#9467bd" paint-order="fill" d="M 93.2272720336914 160.043212890625 L 117.15071868896484 140.40235900878906 L 141.07415771484375 143.20819091796875 L 164.9976043701172 92.70314025878906 L 188.92105102539062 179.68406677246094 L 212.84449768066406 137.59652709960938 L 236.7679443359375 126.37317657470703 L 260.6913757324219 148.8198699951172 L 284.6148376464844 115.14983367919922 L 308.53826904296875 115.14983367919922" stroke-linejoin="bevel" stroke-miterlimit="10" stroke-width="2" clip-path="url(#EATWutBHwlRl)"/><path fill="none" stroke="#9467bd" paint-order="fill" d="M 93.2272720336914 160.043212890625 L 117.15071868896484 140.40235900878906 L 141.07415771484375 143.20819091796875 L 164.9976043701172 92.70314025878906 L 188.92105102539062 179.68406677246094 L 212.84449768066406 137.59652709960938 L 236.7679443359375 126.37317657470703 L 260.6913757324219 148.8198699951172 L 284.6148376464844 115.14983367919922 L 308.53826904296875 115.14983367919922" stroke-linejoin="bevel" stroke-miterlimit="10" stroke-width="2" stroke-dasharray="6" clip-path="url(#JhAVASFuMSiA)"/><path fill="none" stroke="#30a2da" paint-order="fill" d="M 308.53826904296875 115.14983367919922 L 332.46173095703125 171.2665557861328 L 356.3851623535156 210.5482635498047 L 380.3086242675781 157.2373809814453 L 404.2320556640625 75.86812591552734 L 428.155517578125 126.37317657470703 L 452.0789489746094 73.06228637695312 L 476.00238037109375 148.8198699951172 L 499.92584228515625 98.31481170654297 L 523.8493041992188 106.7323226928711 L 547.772705078125 148.8198699951172" stroke-linejoin="bevel" stroke-miterlimit="10" stroke-width="2" clip-path="url(#DllwQqmEiXSS)"/><path fill="none" stroke="#30a2da" paint-order="fill" d="M 332.46173095703125 160.55335998535156 L 356.3851623535156 154.1424560546875 L 380.3086242675781 147.73153686523438 L 404.2320556640625 141.3206329345703 L 428.155517578125 134.9097137451172 L 452.0789489746094 128.49880981445312 L 476.00238037109375 122.08789825439453 L 499.92584228515625 115.67698669433594 L 523.8493041992188 109.26607513427734 L 547.772705078125 102.85517120361328" stroke-linejoin="bevel" stroke-miterlimit="10" stroke-width="2" stroke-dasharray="6" clip-path="url(#CceJgcCbKqvo)"/><path fill="none" stroke="#fc4f30" paint-order="fill" d="M 308.53826904296875 115.14983367919922 L 332.46173095703125 182.48989868164062 L 356.3851623535156 134.79067993164062 L 380.3086242675781 101.12065124511719 L 404.2320556640625 109.53816223144531 L 428.155517578125 140.40235900878906 L 452.0789489746094 98.31481170654297 L 476.00238037109375 140.40235900878906 L 499.92584228515625 171.2665557861328 L 523.8493041992188 176.8782196044922 L 547.772705078125 185.2957305908203" stroke-linejoin="bevel" stroke-miterlimit="10" stroke-width="2" clip-path="url(#KgJXKJVlQZZt)"/><path fill="none" stroke="#fc4f30" paint-order="fill" d="M 332.46173095703125 124.38358306884766 L 356.3851623535156 128.75389099121094 L 380.3086242675781 133.1241912841797 L 404.2320556640625 137.49449157714844 L 428.155517578125 141.8647918701172 L 452.0789489746094 146.23509216308594 L 476.00238037109375 150.6053924560547 L 499.92584228515625 154.97569274902344 L 523.8493041992188 159.34600830078125 L 547.772705078125 163.71630859375" stroke-linejoin="bevel" stroke-miterlimit="10" stroke-width="2" stroke-dasharray="6" clip-path="url(#chiKkpgbiXCM)"/><path fill="none" stroke="rgb(128,128,128)" paint-order="fill" d="M 93.2272720336914 190.90740966796875 L 117.15071868896484 165.65487670898438 L 141.07415771484375 157.2373809814453 L 164.9976043701172 123.56733703613281 L 188.92105102539062 154.43153381347656 L 212.84449768066406 115.14983367919922 L 236.7679443359375 89.89730834960938 L 260.6913757324219 162.8490447998047 L 284.6148376464844 95.50897979736328 L 308.53826904296875 140.40235900878906" stroke-opacity="0.7490196078431373" stroke-linejoin="bevel" stroke-miterlimit="10" clip-path="url(#ALiAHkZoZZqV)"/><path fill="none" stroke="grey" paint-order="fill" d="M 308.53826904296875 140.40235900878906 L 332.46173095703125 157.2373809814453 L 356.3851623535156 146.01402282714844 L 380.3086242675781 134.79067993164062 L 404.2320556640625 154.43153381347656 L 428.155517578125 84.28563690185547 L 452.0789489746094 123.56733703613281 L 476.00238037109375 160.043212890625 L 499.92584228515625 112.343994140625 L 523.8493041992188 126.37317657470703 L 547.772705078125 129.17901611328125" stroke-linejoin="bevel" stroke-miterlimit="10" stroke-width="0.5" clip-path="url(#yGlEANohackS)"/><path fill="none" stroke="grey" paint-order="fill" d="M 308.53826904296875 140.40235900878906 L 332.46173095703125 137.59652709960938 L 356.3851623535156 182.48989868164062 L 380.3086242675781 185.2957305908203 L 404.2320556640625 115.14983367919922 L 428.155517578125 171.2665557861328 L 452.0789489746094 126.37317657470703 L 476.00238037109375 137.59652709960938 L 499.92584228515625 162.8490447998047 L 523.8493041992188 120.76150512695312 L 547.772705078125 154.43153381347656" stroke-linejoin="bevel" stroke-miterlimit="10" stroke-width="0.5" clip-path="url(#AfCSkqbVCanx)"/><path fill="none" stroke="rgb(128,128,128)" paint-order="fill" d="M 93.2272720336914 103.9264907836914 L 117.15071868896484 126.37317657470703 L 141.07415771484375 120.76150512695312 L 164.9976043701172 101.12065124511719 L 188.92105102539062 146.01402282714844 L 212.84449768066406 103.9264907836914 L 236.7679443359375 92.70314025878906 L 260.6913757324219 143.20819091796875 L 284.6148376464844 98.31481170654297 L 308.53826904296875 134.79067993164062" stroke-opacity="0.7490196078431373" stroke-linejoin="bevel" stroke-miterlimit="10" clip-path="url(#VzSHbQgwSAeH)"/><path fill="none" stroke="grey" paint-order="fill" d="M 308.53826904296875 134.79067993164062 L 332.46173095703125 154.43153381347656 L 356.3851623535156 109.53816223144531 L 380.3086242675781 89.89730834960938 L 404.2320556640625 78.67396545410156 L 428.155517578125 98.31481170654297 L 452.0789489746094 140.40235900878906 L 476.00238037109375 143.20819091796875 L 499.92584228515625 232.9949493408203 L 523.8493041992188 176.8782196044922 L 547.772705078125 129.17901611328125" stroke-linejoin="bevel" stroke-miterlimit="10" stroke-width="0.5" clip-path="url(#JSzNKnIFMomb)"/><path fill="none" stroke="grey" paint-order="fill" d="M 308.53826904296875 134.79067993164062 L 332.46173095703125 75.86812591552734 L 356.3851623535156 103.9264907836914 L 380.3086242675781 120.76150512695312 L 404.2320556640625 106.7323226928711 L 428.155517578125 56.227272033691406 L 452.0789489746094 120.76150512695312 L 476.00238037109375 193.71324157714844 L 499.92584228515625 146.01402282714844 L 523.8493041992188 112.343994140625 L 547.772705078125 117.9556655883789" stroke-linejoin="bevel" stroke-miterlimit="10" stroke-width="0.5" clip-path="url(#vbSkkcvHreCK)"/><path fill="none" stroke="rgb(128,128,128)" paint-order="fill" d="M 93.2272720336914 176.8782196044922 L 117.15071868896484 143.20819091796875 L 141.07415771484375 106.7323226928711 L 164.9976043701172 154.43153381347656 L 188.92105102539062 230.18911743164062 L 212.84449768066406 89.89730834960938 L 236.7679443359375 134.79067993164062 L 260.6913757324219 109.53816223144531 L 284.6148376464844 126.37317657470703 L 308.53826904296875 148.8198699951172" stroke-opacity="0.7490196078431373" stroke-linejoin="bevel" stroke-miterlimit="10" clip-path="url(#oqhLOkhQKiXF)"/><path fill="none" stroke="grey" paint-order="fill" d="M 308.53826904296875 148.8198699951172 L 332.46173095703125 137.59652709960938 L 356.3851623535156 157.2373809814453 L 380.3086242675781 157.2373809814453 L 404.2320556640625 154.43153381347656 L 428.155517578125 123.56733703613281 L 452.0789489746094 171.2665557861328 L 476.00238037109375 131.98484802246094 L 499.92584228515625 129.17901611328125 L 523.8493041992188 112.343994140625 L 547.772705078125 103.9264907836914" stroke-linejoin="bevel" stroke-miterlimit="10" stroke-width="0.5" clip-path="url(#loduXTLcxKRu)"/><path fill="none" stroke="grey" paint-order="fill" d="M 308.53826904296875 148.8198699951172 L 332.46173095703125 92.70314025878906 L 356.3851623535156 157.2373809814453 L 380.3086242675781 146.01402282714844 L 404.2320556640625 168.46072387695312 L 428.155517578125 162.8490447998047 L 452.0789489746094 120.76150512695312 L 476.00238037109375 103.9264907836914 L 499.92584228515625 73.06228637695312 L 523.8493041992188 67.45061492919922 L 547.772705078125 84.28563690185547" stroke-linejoin="bevel" stroke-miterlimit="10" stroke-width="0.5" clip-path="url(#vXJlTtWUAZdN)"/><path fill="none" stroke="rgb(128,128,128)" paint-order="fill" d="M 93.2272720336914 129.17901611328125 L 117.15071868896484 120.76150512695312 L 141.07415771484375 126.37317657470703 L 164.9976043701172 168.46072387695312 L 188.92105102539062 148.8198699951172 L 212.84449768066406 148.8198699951172 L 236.7679443359375 120.76150512695312 L 260.6913757324219 134.79067993164062 L 284.6148376464844 179.68406677246094 L 308.53826904296875 92.70314025878906" stroke-opacity="0.7490196078431373" stroke-linejoin="bevel" stroke-miterlimit="10" clip-path="url(#voLITHBwEoNq)"/><path fill="none" stroke="grey" paint-order="fill" d="M 308.53826904296875 92.70314025878906 L 332.46173095703125 117.9556655883789 L 356.3851623535156 134.79067993164062 L 380.3086242675781 109.53816223144531 L 404.2320556640625 92.70314025878906 L 428.155517578125 174.0723876953125 L 452.0789489746094 120.76150512695312 L 476.00238037109375 131.98484802246094 L 499.92584228515625 146.01402282714844 L 523.8493041992188 98.31481170654297 L 547.772705078125 112.343994140625" stroke-linejoin="bevel" stroke-miterlimit="10" stroke-width="0.5" clip-path="url(#kVbgiDQZFodF)"/><path fill="none" stroke="grey" paint-order="fill" d="M 308.53826904296875 92.70314025878906 L 332.46173095703125 151.62570190429688 L 356.3851623535156 129.17901611328125 L 380.3086242675781 160.043212890625 L 404.2320556640625 154.43153381347656 L 428.155517578125 176.8782196044922 L 452.0789489746094 179.68406677246094 L 476.00238037109375 146.01402282714844 L 499.92584228515625 179.68406677246094 L 523.8493041992188 123.56733703613281 L 547.772705078125 98.31481170654297" stroke-linejoin="bevel" stroke-miterlimit="10" stroke-width="0.5" clip-path="url(#afhsQOdmiKpW)"/><path fill="none" stroke="black" paint-order="fill" d="M 70.5 283.5 L 570.5 283.5" stroke-linejoin="bevel" stroke-miterlimit="10"/><path fill="none" stroke="black" paint-order="fill" d="M 93.5 289.5 L 93.5 281.5 M 212.5 289.5 L 212.5 281.5 M 332.5 289.5 L 332.5 281.5 M 452.5 289.5 L 452.5 281.5" stroke-linejoin="bevel" stroke-miterlimit="10"/><path fill="none" stroke="black" paint-order="fill" d="M 93.5 287.5 L 93.5 283.5 M 117.5 287.5 L 117.5 283.5 M 141.5 287.5 L 141.5 283.5 M 164.5 287.5 L 164.5 283.5 M 188.5 287.5 L 188.5 283.5 M 212.5 287.5 L 212.5 283.5 M 236.5 287.5 L 236.5 283.5 M 260.5 287.5 L 260.5 283.5 M 284.5 287.5 L 284.5 283.5 M 308.5 287.5 L 308.5 283.5 M 332.5 287.5 L 332.5 283.5 M 356.5 287.5 L 356.5 283.5 M 380.5 287.5 L 380.5 283.5 M 404.5 287.5 L 404.5 283.5 M 428.5 287.5 L 428.5 283.5 M 452.5 287.5 L 452.5 283.5 M 476.5 287.5 L 476.5 283.5 M 499.5 287.5 L 499.5 283.5 M 523.5 287.5 L 523.5 283.5 M 547.5 287.5 L 547.5 283.5" stroke-linejoin="bevel" stroke-miterlimit="10"/><text fill="#444444" stroke="none" font-family="helvetica" font-size="10pt" font-style="normal" font-weight="normal" text-decoration="normal" x="79.36060523986816" y="304" text-anchor="start" dominant-baseline="alphabetic" transform="matrix(1, 0, 0, 1, 0.5, 0.5)">2025</text><text fill="none" stroke="rgb(0,0,0)" font-family="helvetica" font-size="10pt" font-style="normal" font-weight="normal" text-decoration="normal" x="79.36060523986816" y="304" text-anchor="start" dominant-baseline="alphabetic" transform="matrix(1, 0, 0, 1, 0.5, 0.5)" stroke-opacity="0" stroke-linejoin="bevel" stroke-miterlimit="10">2025</text><text fill="#444444" stroke="none" font-family="helvetica" font-size="10pt" font-style="normal" font-weight="normal" text-decoration="normal" x="198.97783088684082" y="304" text-anchor="start" dominant-baseline="alphabetic" transform="matrix(1, 0, 0, 1, 0.5, 0.5)">2030</text><text fill="none" stroke="rgb(0,0,0)" font-family="helvetica" font-size="10pt" font-style="normal" font-weight="normal" text-decoration="normal" x="198.97783088684082" y="304" text-anchor="start" dominant-baseline="alphabetic" transform="matrix(1, 0, 0, 1, 0.5, 0.5)" stroke-opacity="0" stroke-linejoin="bevel" stroke-miterlimit="10">2030</text><text fill="#444444" stroke="none" font-family="helvetica" font-size="10pt" font-style="normal" font-weight="normal" text-decoration="normal" x="318.595064163208" y="304" text-anchor="start" dominant-baseline="alphabetic" transform="matrix(1, 0, 0, 1, 0.5, 0.5)">2035</text><text fill="none" stroke="rgb(0,0,0)" font-family="helvetica" font-size="10pt" font-style="normal" font-weight="normal" text-decoration="normal" x="318.595064163208" y="304" text-anchor="start" dominant-baseline="alphabetic" transform="matrix(1, 0, 0, 1, 0.5, 0.5)" stroke-opacity="0" stroke-linejoin="bevel" stroke-miterlimit="10">2035</text><text fill="#444444" stroke="none" font-family="helvetica" font-size="10pt" font-style="normal" font-weight="normal" text-decoration="normal" x="438.21228218078613" y="304" text-anchor="start" dominant-baseline="alphabetic" transform="matrix(1, 0, 0, 1, 0.5, 0.5)">2040</text><text fill="none" stroke="rgb(0,0,0)" font-family="helvetica" font-size="10pt" font-style="normal" font-weight="normal" text-decoration="normal" x="438.21228218078613" y="304" text-anchor="start" dominant-baseline="alphabetic" transform="matrix(1, 0, 0, 1, 0.5, 0.5)" stroke-opacity="0" stroke-linejoin="bevel" stroke-miterlimit="10">2040</text><text fill="#444444" stroke="none" font-family="helvetica" font-size="12pt" font-style="normal" font-weight="normal" text-decoration="normal" x="305.3166666030884" y="327" text-anchor="start" dominant-baseline="alphabetic" transform="matrix(1, 0, 0, 1, 0.5, 0.5)">Year</text><text fill="none" stroke="rgb(0,0,0)" font-family="helvetica" font-size="12pt" font-style="normal" font-weight="normal" text-decoration="normal" x="305.3166666030884" y="327" text-anchor="start" dominant-baseline="alphabetic" transform="matrix(1, 0, 0, 1, 0.5, 0.5)" stroke-opacity="0" stroke-linejoin="bevel" stroke-miterlimit="10">Year</text><path fill="none" stroke="black" paint-order="fill" d="M 70.5 283.5 L 70.5 33.5" stroke-linejoin="bevel" stroke-miterlimit="10"/><path fill="none" stroke="black" paint-order="fill" d="M 64.5 283.5 L 72.5 283.5 M 64.5 227.5 L 72.5 227.5 M 64.5 171.5 L 72.5 171.5 M 64.5 115.5 L 72.5 115.5 M 64.5 59.5 L 72.5 59.5" stroke-linejoin="bevel" stroke-miterlimit="10"/><path fill="none" stroke="black" paint-order="fill" d="M 66.5 283.5 L 70.5 283.5 M 66.5 272.5 L 70.5 272.5 M 66.5 261.5 L 70.5 261.5 M 66.5 249.5 L 70.5 249.5 M 66.5 238.5 L 70.5 238.5 M 66.5 227.5 L 70.5 227.5 M 66.5 216.5 L 70.5 216.5 M 66.5 204.5 L 70.5 204.5 M 66.5 193.5 L 70.5 193.5 M 66.5 182.5 L 70.5 182.5 M 66.5 171.5 L 70.5 171.5 M 66.5 160.5 L 70.5 160.5 M 66.5 148.5 L 70.5 148.5 M 66.5 137.5 L 70.5 137.5 M 66.5 126.5 L 70.5 126.5 M 66.5 115.5 L 70.5 115.5 M 66.5 103.5 L 70.5 103.5 M 66.5 92.5 L 70.5 92.5 M 66.5 81.5 L 70.5 81.5 M 66.5 70.5 L 70.5 70.5 M 66.5 59.5 L 70.5 59.5 M 66.5 47.5 L 70.5 47.5 M 66.5 36.5 L 70.5 36.5" stroke-linejoin="bevel" stroke-miterlimit="10"/><text fill="#444444" stroke="none" font-family="helvetica" font-size="10pt" font-style="normal" font-weight="normal" text-decoration="normal" x="52.31666660308838" y="288" text-anchor="start" dominant-baseline="alphabetic" transform="matrix(1, 0, 0, 1, 0.5, 0.5)">0</text><text fill="none" stroke="rgb(0,0,0)" font-family="helvetica" font-size="10pt" font-style="normal" font-weight="normal" text-decoration="normal" x="52.31666660308838" y="288" text-anchor="start" dominant-baseline="alphabetic" transform="matrix(1, 0, 0, 1, 0.5, 0.5)" stroke-opacity="0" stroke-linejoin="bevel" stroke-miterlimit="10">0</text><text fill="#444444" stroke="none" font-family="helvetica" font-size="10pt" font-style="normal" font-weight="normal" text-decoration="normal" x="45.63333320617676" y="231.88327026367188" text-anchor="start" dominant-baseline="alphabetic" transform="matrix(1, 0, 0, 1, 0.5, 0.5)">20</text><text fill="none" stroke="rgb(0,0,0)" font-family="helvetica" font-size="10pt" font-style="normal" font-weight="normal" text-decoration="normal" x="45.63333320617676" y="231.88327026367188" text-anchor="start" dominant-baseline="alphabetic" transform="matrix(1, 0, 0, 1, 0.5, 0.5)" stroke-opacity="0" stroke-linejoin="bevel" stroke-miterlimit="10">20</text><text fill="#444444" stroke="none" font-family="helvetica" font-size="10pt" font-style="normal" font-weight="normal" text-decoration="normal" x="45.63333320617676" y="175.7665557861328" text-anchor="start" dominant-baseline="alphabetic" transform="matrix(1, 0, 0, 1, 0.5, 0.5)">40</text><text fill="none" stroke="rgb(0,0,0)" font-family="helvetica" font-size="10pt" font-style="normal" font-weight="normal" text-decoration="normal" x="45.63333320617676" y="175.7665557861328" text-anchor="start" dominant-baseline="alphabetic" transform="matrix(1, 0, 0, 1, 0.5, 0.5)" stroke-opacity="0" stroke-linejoin="bevel" stroke-miterlimit="10">40</text><text fill="#444444" stroke="none" font-family="helvetica" font-size="10pt" font-style="normal" font-weight="normal" text-decoration="normal" x="45.63333320617676" y="119.64983367919922" text-anchor="start" dominant-baseline="alphabetic" transform="matrix(1, 0, 0, 1, 0.5, 0.5)">60</text><text fill="none" stroke="rgb(0,0,0)" font-family="helvetica" font-size="10pt" font-style="normal" font-weight="normal" text-decoration="normal" x="45.63333320617676" y="119.64983367919922" text-anchor="start" dominant-baseline="alphabetic" transform="matrix(1, 0, 0, 1, 0.5, 0.5)" stroke-opacity="0" stroke-linejoin="bevel" stroke-miterlimit="10">60</text><text fill="#444444" stroke="none" font-family="helvetica" font-size="10pt" font-style="normal" font-weight="normal" text-decoration="normal" x="45.63333320617676" y="63.53310775756836" text-anchor="start" dominant-baseline="alphabetic" transform="matrix(1, 0, 0, 1, 0.5, 0.5)">80</text><text fill="none" stroke="rgb(0,0,0)" font-family="helvetica" font-size="10pt" font-style="normal" font-weight="normal" text-decoration="normal" x="45.63333320617676" y="63.53310775756836" text-anchor="start" dominant-baseline="alphabetic" transform="matrix(1, 0, 0, 1, 0.5, 0.5)" stroke-opacity="0" stroke-linejoin="bevel" stroke-miterlimit="10">80</text><text fill="#444444" stroke="none" font-family="helvetica" font-size="12pt" font-style="normal" font-weight="normal" text-decoration="normal" x="-58.575002670288086" y="154" text-anchor="start" dominant-baseline="alphabetic" transform="matrix(6.123233995736766e-17, -1, 1, 6.123233995736766e-17, -119.86666679382324, 196.13333320617676)">Days suitable for transmission</text><text fill="none" stroke="rgb(0,0,0)" font-family="helvetica" font-size="12pt" font-style="normal" font-weight="normal" text-decoration="normal" x="-58.575002670288086" y="154" text-anchor="start" dominant-baseline="alphabetic" transform="matrix(6.123233995736766e-17, -1, 1, 6.123233995736766e-17, -119.86666679382324, 196.13333320617676)" stroke-opacity="0" stroke-linejoin="bevel" stroke-miterlimit="10">Days suitable for transmission</text><path fill="rgb(255,255,255)" stroke="rgb(229,229,229)" paint-order="fill" d="M 477.0333251953125 208.5 L 560.4999847412109 208.5 L 560.4999847412109 273.5 L 477.0333251953125 273.5 L 477.0333251953125 208.5 Z" fill-opacity="0.9490196078431372" clip-path="url(#eTkXxxurhfLz)" stroke-opacity="0.5019607843137255" stroke-linejoin="bevel" stroke-miterlimit="10"/><g clip-path="url(#eTkXxxurhfLz)"><g transform="matrix(1, 0, 0, 1, 487.5333251953125, 219)"><path fill="none" stroke="#30a2da" paint-order="fill" d="M 0.5 10.5 L 20.5 10.5" stroke-linejoin="bevel" stroke-miterlimit="10" stroke-width="2"/></g></g><g clip-path="url(#eTkXxxurhfLz)"><text fill="#444444" stroke="none" font-family="helvetica" font-size="13px" font-style="normal" font-weight="normal" text-decoration="normal" x="512.5333251953125" y="233.5" text-anchor="start" dominant-baseline="alphabetic" transform="matrix(1, 0, 0, 1, 0.5, 0.5)">ID 001</text></g><g clip-path="url(#eTkXxxurhfLz)"><text fill="none" stroke="rgb(0,0,0)" font-family="helvetica" font-size="13px" font-style="normal" font-weight="normal" text-decoration="normal" x="512.5333251953125" y="233.5" text-anchor="start" dominant-baseline="alphabetic" transform="matrix(1, 0, 0, 1, 0.5, 0.5)" stroke-opacity="0" stroke-linejoin="bevel" stroke-miterlimit="10">ID 001</text></g><g clip-path="url(#eTkXxxurhfLz)"><g transform="matrix(1, 0, 0, 1, 487.5333251953125, 242)"><path fill="none" stroke="#fc4f30" paint-order="fill" d="M 0.5 10.5 L 20.5 10.5" stroke-linejoin="bevel" stroke-miterlimit="10" stroke-width="2"/></g></g><g clip-path="url(#eTkXxxurhfLz)"><text fill="#444444" stroke="none" font-family="helvetica" font-size="13px" font-style="normal" font-weight="normal" text-decoration="normal" x="512.5333251953125" y="256.5" text-anchor="start" dominant-baseline="alphabetic" transform="matrix(1, 0, 0, 1, 0.5, 0.5)">ID 006</text></g><g clip-path="url(#eTkXxxurhfLz)"><text fill="none" stroke="rgb(0,0,0)" font-family="helvetica" font-size="13px" font-style="normal" font-weight="normal" text-decoration="normal" x="512.5333251953125" y="256.5" text-anchor="start" dominant-baseline="alphabetic" transform="matrix(1, 0, 0, 1, 0.5, 0.5)" stroke-opacity="0" stroke-linejoin="bevel" stroke-miterlimit="10">ID 006</text></g><text fill="black" stroke="none" font-family="helvetica" font-size="14pt" font-style="normal" font-weight="normal" text-decoration="normal" x="0" y="18" text-anchor="start" dominant-baseline="alphabetic" transform="matrix(1, 0, 0, 1, 5.5, 5.5)">B. Seattle</text><text fill="none" stroke="rgb(0,0,0)" font-family="helvetica" font-size="14pt" font-style="normal" font-weight="normal" text-decoration="normal" x="0" y="18" text-anchor="start" dominant-baseline="alphabetic" transform="matrix(1, 0, 0, 1, 5.5, 5.5)" stroke-opacity="0" stroke-linejoin="bevel" stroke-miterlimit="10">B. Seattle</text></svg>