<svg version="1.1" xmlns="http://www.w3.org/2000/svg" width="600" height="334"><defs><clipPath id="dbTCrVnhSPtM"><path fill="none" stroke="none" d="M 70.5 33.5 L 570.5 33.5 L 570.5 283.5 L 70.5 283.5 L 70.5 33.5 Z"/></clipPath><clipPath id="GGcmGDHnSQiN"><path fill="none" stroke="none" d="M 70.5 33.5 L 570.5 33.5 L 570.5 283.5 L 70.5 283.5 L 70.5 33.5 Z"/></clipPath><clipPath id="MXntEtmmsMqX"><path fill="none" stroke="none" d="M 70.5 33.5 L 570.5 33.5 L 570.5 283.5 L 70.5 283.5 L 70.5 33.5 Z"/></clipPath><clipPath id="GSGQtdxDxTXr"><path fill="none" stroke="none" d="M 70.5 33.5 L 570.5 33.5 L 570.5 283.5 L 70.5 283.5 L 70.5 33.5 Z"/></clipPath><clipPath id="XquoSiapiwbL"><path fill="none" stroke="none" d="M 70.5 33.5 L 570.5 33.5 L 570.5 283.5 L 70.5 283.5 L 70.5 33.5 Z"/></clipPath><clipPath id="fVxtzwqsLXGR"><path fill="none" stroke="none" d="M 70.5 33.5 L 570.5 33.5 L 570.5 283.5 L 70.5 283.5 L 70.5 33.5 Z"/></clipPath><clipPath id="wnkdbevymLkV"><path fill="none" stroke="none" d="M 70.5 33.5 L 570.5 33.5 L 570.5 283.5 L 70.5 283.5 L 70.5 33.5 Z"/></clipPath><clipPath id="ARlJoSWwLVLb"><path fill="none" stroke="none" d="M 70.5 33.5 L 570.5 33.5 L 570.5 283.5 L 70.5 283.5 L 70.5 33.5 Z"/></clipPath><clipPath id="FDfouBsGPzEk"><path fill="none" stroke="none" d="M 70.5 33.5 L 570.5 33.5 L 570.5 283.5 L 70.5 283.5 L 70.5 33.5 Z"/></clipPath><clipPath id="sIPxKmXgTFqZ"><path fill="none" stroke="none" d="M 70.5 33.5 L 570.5 33.5 L 570.5 283.5 L 70.5 283.5 L 70.5 33.5 Z"/></clipPath><clipPath id="EuVOCgeeypiV"><path fill="none" stroke="none" d="M 70.5 33.5 L 570.5 33.5 L 570.5 283.5 L 70.5 283.5 L 70.5 33.5 Z"/></clipPath><clipPath id="TFUtUTVfCycz"><path fill="none" stroke="none" d="M 70.5 33.5 L 570.5 33.5 L 570.5 283.5 L 70.5 283.5 L 70.5 33.5 Z"/></clipPath><clipPath id="aNrBNazNrVfd"><path fill="none" stroke="none" d="M 70.5 33.5 L 570.5 33.5 L 570.5 283.5 L 70.5 283.5 L 70.5 33.5 Z"/></clipPath><clipPath id="pTBDiHCsrnTb"><path fill="none" stroke="none" d="M 70.5 33.5 L 570.5 33.5 L 570.5 283.5 L 70.5 283.5 L 70.5 33.5 Z"/></clipPath><clipPath id="nGlJhpQaEgmy"><path fill="none" stroke="none" d="M 70.5 33.5 L 570.5 33.5 L 570.5 283.5 L 70.5 283.5 L 70.5 33.5 Z"/></clipPath><clipPath id="uGadquAWgbUe"><path fill="none" stroke="none" d="M 70.5 33.5 L 570.5 33.5 L 570.5 283.5 L 70.5 283.5 L 70.5 33.5 Z"/></clipPath><clipPath id="DJMeoWMvufmP"><path fill="none" stroke="none" d="M 70.5 33.5 L 570.5 33.5 L 570.5 283.5 L 70.5 283.5 L 70.5 33.5 Z"/></clipPath><clipPath id="FupWIBuDEkKz"><path fill="none" stroke="none" d="M 70.5 33.5 L 570.5 33.5 L 570.5 283.5 L 70.5 283.5 L 70.5 33.5 Z"/></clipPath><clipPath id="kPqhzZHgVXbt"><path fill="none" stroke="none" d="M 70.5 33.5 L 570.5 33.5 L 570.5 283.5 L 70.5 283.5 L 70.5 33.5 Z"/></clipPath><clipPath id="dDtCVKeUXmay"><path fill="none" stroke="none" d="M 70.5 33.5 L 570.5 33.5 L 570.5 283.5 L 70.5 283.5 L 70.5 33.5 Z"/></clipPath><clipPath id="fWMRDKlkthQx"><path fill="none" stroke="none" d="M 70.5 33.5 L 570.5 33.5 L 570.5 283.5 L 70.5 283.5 L 70.5 33.5 Z"/></clipPath><clipPath id="IGNcxKwCBngG"><path fill="none" stroke="none" d="M 70.5 33.5 L 570.5 33.5 L 570.5 283.5 L 70.5 283.5 L 70.5 33.5 Z"/></clipPath><clipPath id="JQcWblBeXieE"><path fill="none" stroke="none" d="M 70.5 33.5 L 570.5 33.5 L 570.5 283.5 L 70.5 283.5 L 70.5 33.5 Z"/></clipPath></defs><path fill="none" stroke="#e5e5e5" paint-order="fill" d="M 70.5 33.5 L 570.5 33.5 L 570.5 283.5 L 70.5 283.5 L 70.5 33.5 Z" stroke-linejoin="bevel" stroke-miterlimit="10"/><path fill="none" stroke="black" paint-order="fill" d="M 332.46172248803487 33.5 L 332.46172248803487 283.5" stroke-linejoin="bevel" stroke-miterlimit="10" stroke-width="3" stroke-dasharray="6" clip-path="url(#MXntEtmmsMqX)"/><path fill="none" stroke="#9467bd" paint-order="fill" d="M 93.2272720336914 90.11882019042969 L 117.15071868896484 91.11563110351562 L 141.07415771484375 86.13157653808594 L 164.9976043701172 87.12838745117188 L 188.92105102539062 79.1539077758789 L 212.84449768066406 82.14434051513672 L 236.7679443359375 84.1379623413086 L 260.6913757324219 85.134765625 L 284.6148376464844 81.14752960205078 L 308.53826904296875 71.17942810058594" stroke-linejoin="bevel" stroke-miterlimit="10" stroke-width="2" clip-path="url(#GSGQtdxDxTXr)"/><path fill="none" stroke="#9467bd" paint-order="fill" d="M 93.2272720336914 90.11882019042969 L 117.15071868896484 91.11563110351562 L 141.07415771484375 86.13157653808594 L 164.9976043701172 87.12838745117188 L 188.92105102539062 79.1539077758789 L 212.84449768066406 82.14434051513672 L 236.7679443359375 84.1379623413086 L 260.6913757324219 85.134765625 L 284.6148376464844 81.14752960205078 L 308.53826904296875 71.17942810058594" stroke-linejoin="bevel" stroke-miterlimit="10" stroke-width="2" stroke-dasharray="6" clip-path="url(#XquoSiapiwbL)"/><path fill="none" stroke="#30a2da" paint-order="fill" d="M 308.53826904296875 71.17942810058594 L 332.46173095703125 66.19537353515625 L 356.3851623535156 78.15709686279297 L 380.3086242675781 66.19537353515625 L 404.2320556640625 76.1634750366211 L 428.155517578125 80.15071868896484 L 452.0789489746094 83.14115142822266 L 476.00238037109375 87.12838745117188 L 499.92584228515625 72.17623901367188 L 523.8493041992188 88.12519836425781 L 547.772705078125 102.0805435180664" stroke-linejoin="bevel" stroke-miterlimit="10" stroke-width="2" clip-path="url(#fVxtzwqsLXGR)"/><path fill="none" stroke="#30a2da" paint-order="fill" d="M 332.46173095703125 67.44591522216797 L 356.3851623535156 70.22490692138672 L 380.3086242675781 73.00389099121094 L 404.2320556640625 75.78287506103516 L 428.155517578125 78.56185913085938 L 452.0789489746094 81.34085083007812 L 476.00238037109375 84.11983489990234 L 499.92584228515625 86.89881896972656 L 523.8493041992188 89.67780303955078 L 547.772705078125 92.45679473876953" stroke-linejoin="bevel" stroke-miterlimit="10" stroke-width="2" stroke-dasharray="6" clip-path="url(#wnkdbevymLkV)"/><path fill="none" stroke="#fc4f30" paint-order="fill" d="M 308.53826904296875 71.17942810058594 L 332.46173095703125 94.10606384277344 L 356.3851623535156 98.09329986572266 L 380.3086242675781 84.1379623413086 L 404.2320556640625 85.134765625 L 428.155517578125 75.16666412353516 L 452.0789489746094 77.16028594970703 L 476.00238037109375 77.16028594970703 L 499.92584228515625 90.11882019042969 L 523.8493041992188 103.07735443115234 L 547.772705078125 80.15071868896484" stroke-linejoin="bevel" stroke-miterlimit="10" stroke-width="2" clip-path="url(#ARlJoSWwLVLb)"/><path fill="none" stroke="#fc4f30" paint-order="fill" d="M 332.46173095703125 88.6870346069336 L 356.3851623535156 88.18561553955078 L 380.3086242675781 87.68418884277344 L 404.2320556640625 87.1827621459961 L 428.155517578125 86.68133544921875 L 452.0789489746094 86.1799087524414 L 476.00238037109375 85.67848205566406 L 499.92584228515625 85.17705535888672 L 523.8493041992188 84.67562866210938 L 547.772705078125 84.17420959472656" stroke-linejoin="bevel" stroke-miterlimit="10" stroke-width="2" stroke-dasharray="6" clip-path="url(#FDfouBsGPzEk)"/><path fill="none" stroke="rgb(128,128,128)" paint-order="fill" d="M 93.2272720336914 85.134765625 L 117.15071868896484 86.13157653808594 L 141.07415771484375 87.12838745117188 L 164.9976043701172 82.14434051513672 L 188.92105102539062 95.10286712646484 L 212.84449768066406 75.16666412353516 L 236.7679443359375 84.1379623413086 L 260.6913757324219 87.12838745117188 L 284.6148376464844 77.16028594970703 L 308.53826904296875 91.11563110351562" stroke-opacity="0.7490196078431373" stroke-linejoin="bevel" stroke-miterlimit="10" clip-path="url(#sIPxKmXgTFqZ)"/><path fill="none" stroke="grey" paint-order="fill" d="M 308.53826904296875 91.11563110351562 L 332.46173095703125 83.14115142822266 L 356.3851623535156 80.15071868896484 L 380.3086242675781 69.18580627441406 L 404.2320556640625 73.17304992675781 L 428.155517578125 91.11563110351562 L 452.0789489746094 69.18580627441406 L 476.00238037109375 76.1634750366211 L 499.92584228515625 84.1379623413086 L 523.8493041992188 75.16666412353516 L 547.772705078125 81.14752960205078" stroke-linejoin="bevel" stroke-miterlimit="10" stroke-width="0.5" clip-path="url(#EuVOCgeeypiV)"/><path fill="none" stroke="grey" paint-order="fill" d="M 308.53826904296875 91.11563110351562 L 332.46173095703125 58.22089385986328 L 356.3851623535156 75.16666412353516 L 380.3086242675781 78.15709686279297 L 404.2320556640625 73.17304992675781 L 428.155517578125 71.17942810058594 L 452.0789489746094 77.16028594970703 L 476.00238037109375 68.18899536132812 L 499.92584228515625 63.2049446105957 L 523.8493041992188 85.134765625 L 547.772705078125 74.16985321044922" stroke-linejoin="bevel" stroke-miterlimit="10" stroke-width="0.5" clip-path="url(#TFUtUTVfCycz)"/><path fill="none" stroke="rgb(128,128,128)" paint-order="fill" d="M 93.2272720336914 72.17623901367188 L 117.15071868896484 73.17304992675781 L 141.07415771484375 75.16666412353516 L 164.9976043701172 71.17942810058594 L 188.92105102539062 74.16985321044922 L 212.84449768066406 84.1379623413086 L 236.7679443359375 85.134765625 L 260.6913757324219 57.224082946777344 L 284.6148376464844 74.16985321044922 L 308.53826904296875 89.12200927734375" stroke-opacity="0.7490196078431373" stroke-linejoin="bevel" stroke-miterlimit="10" clip-path="url(#aNrBNazNrVfd)"/><path fill="none" stroke="grey" paint-order="fill" d="M 308.53826904296875 89.12200927734375 L 332.46173095703125 79.1539077758789 L 356.3851623535156 69.18580627441406 L 380.3086242675781 78.15709686279297 L 404.2320556640625 88.12519836425781 L 428.155517578125 86.13157653808594 L 452.0789489746094 79.1539077758789 L 476.00238037109375 69.18580627441406 L 499.92584228515625 85.134765625 L 523.8493041992188 82.14434051513672 L 547.772705078125 95.10286712646484" stroke-linejoin="bevel" stroke-miterlimit="10" stroke-width="0.5" clip-path="url(#pTBDiHCsrnTb)"/><path fill="none" stroke="grey" paint-order="fill" d="M 308.53826904296875 89.12200927734375 L 332.46173095703125 74.16985321044922 L 356.3851623535156 64.20175552368164 L 380.3086242675781 92.11244201660156 L 404.2320556640625 69.18580627441406 L 428.155517578125 95.10286712646484 L 452.0789489746094 85.134765625 L 476.00238037109375 85.134765625 L 499.92584228515625 63.2049446105957 L 523.8493041992188 79.1539077758789 L 547.772705078125 77.16028594970703" stroke-linejoin="bevel" stroke-miterlimit="10" stroke-width="0.5" clip-path="url(#nGlJhpQaEgmy)"/><path fill="none" stroke="rgb(128,128,128)" paint-order="fill" d="M 93.2272720336914 58.22089385986328 L 117.15071868896484 87.12838745117188 L 141.07415771484375 61.21132278442383 L 164.9976043701172 80.15071868896484 L 188.92105102539062 94.10606384277344 L 212.84449768066406 74.16985321044922 L 236.7679443359375 81.14752960205078 L 260.6913757324219 72.17623901367188 L 284.6148376464844 89.12200927734375 L 308.53826904296875 87.12838745117188" stroke-opacity="0.7490196078431373" stroke-linejoin="bevel" stroke-miterlimit="10" clip-path="url(#uGadquAWgbUe)"/><path fill="none" stroke="grey" paint-order="fill" d="M 308.53826904296875 87.12838745117188 L 332.46173095703125 79.1539077758789 L 356.3851623535156 83.14115142822266 L 380.3086242675781 89.12200927734375 L 404.2320556640625 85.134765625 L 428.155517578125 67.19218444824219 L 452.0789489746094 74.16985321044922 L 476.00238037109375 71.17942810058594 L 499.92584228515625 76.1634750366211 L 523.8493041992188 77.16028594970703 L 547.772705078125 77.16028594970703" stroke-linejoin="bevel" stroke-miterlimit="10" stroke-width="0.5" clip-path="url(#DJMeoWMvufmP)"/><path fill="none" stroke="grey" paint-order="fill" d="M 308.53826904296875 87.12838745117188 L 332.46173095703125 80.15071868896484 L 356.3851623535156 56.227272033691406 L 380.3086242675781 79.1539077758789 L 404.2320556640625 91.11563110351562 L 428.155517578125 85.134765625 L 452.0789489746094 83.14115142822266 L 476.00238037109375 93.1092529296875 L 499.92584228515625 81.14752960205078 L 523.8493041992188 77.16028594970703 L 547.772705078125 73.17304992675781" stroke-linejoin="bevel" stroke-miterlimit="10" stroke-width="0.5" clip-path="url(#FupWIBuDEkKz)"/><path fill="none" stroke="rgb(128,128,128)" paint-order="fill" d="M 93.2272720336914 73.17304992675781 L 117.15071868896484 91.11563110351562 L 141.07415771484375 71.17942810058594 L 164.9976043701172 65.19856262207031 L 188.92105102539062 72.17623901367188 L 212.84449768066406 100.08692169189453 L 236.7679443359375 84.1379623413086 L 260.6913757324219 76.1634750366211 L 284.6148376464844 73.17304992675781 L 308.53826904296875 71.17942810058594" stroke-opacity="0.7490196078431373" stroke-linejoin="bevel" stroke-miterlimit="10" clip-path="url(#kPqhzZHgVXbt)"/><path fill="none" stroke="grey" paint-order="fill" d="M 308.53826904296875 71.17942810058594 L 332.46173095703125 80.15071868896484 L 356.3851623535156 90.11882019042969 L 380.3086242675781 73.17304992675781 L 404.2320556640625 82.14434051513672 L 428.155517578125 90.11882019042969 L 452.0789489746094 83.14115142822266 L 476.00238037109375 67.19218444824219 L 499.92584228515625 69.18580627441406 L 523.8493041992188 94.10606384277344 L 547.772705078125 78.15709686279297" stroke-linejoin="bevel" stroke-miterlimit="10" stroke-width="0.5" clip-path="url(#dDtCVKeUXmay)"/><path fill="none" stroke="grey" paint-order="fill" d="M 308.53826904296875 71.17942810058594 L 332.46173095703125 66.19537353515625 L 356.3851623535156 76.1634750366211 L 380.3086242675781 80.15071868896484 L 404.2320556640625 72.17623901367188 L 428.155517578125 90.11882019042969 L 452.0789489746094 81.14752960205078 L 476.00238037109375 84.1379623413086 L 499.92584228515625 90.11882019042969 L 523.8493041992188 61.21132278442383 L 547.772705078125 80.15071868896484" stroke-linejoin="bevel" stroke-miterlimit="10" stroke-width="0.5" clip-path="url(#fWMRDKlkthQx)"/><path fill="none" stroke="black" paint-order="fill" d="M 70.5 283.5 L 570.5 283.5" stroke-linejoin="bevel" stroke-miterlimit="10"/><path fill="none" stroke="black" paint-order="fill" d="M 93.5 289.5 L 93.5 281.5 M 212.5 289.5 L 212.5 281.5 M 332.5 289.5 L 332.5 281.5 M 452.5 289.5 L 452.5 281.5" stroke-linejoin="bevel" stroke-miterlimit="10"/><path fill="none" stroke="black" paint-order="fill" d="M 93.5 287.5 L 93.5 283.5 M 117.5 287.5 L 117.5 283.5 M 141.5 287.5 L 141.5 283.5 M 164.5 287.5 L 164.5 283.5 M 188.5 287.5 L 188.5 283.5 M 212.5 287.5 L 212.5 283.5 M 236.5 287.5 L 236.5 283.5 M 260.5 287.5 L 260.5 283.5 M 284.5 287.5 L 284.5 283.5 M 308.5 287.5 L 308.5 283.5 M 332.5 287.5 L 332.5 283.5 M 356.5 287.5 L 356.5 283.5 M 380.5 287.5 L 380.5 283.5 M 404.5 287.5 L 404.5 283.5 M 428.5 287.5 L 428.5 283.5 M 452.5 287.5 L 452.5 283.5 M 476.5 287.5 L 476.5 283.5 M 499.5 287.5 L 499.5 283.5 M 523.5 287.5 L 523.5 283.5 M 547.5 287.5 L 547.5 283.5" stroke-linejoin="bevel" stroke-miterlimit="10"/><text fill="#444444" stroke="none" font-family="helvetica" font-size="10pt" font-style="normal" font-weight="normal" text-decoration="normal" x="79.36060523986816" y="304" text-anchor="start" dominant-baseline="alphabetic" transform="matrix(1, 0, 0, 1, 0.5, 0.5)">2025</text><text fill="none" stroke="rgb(0,0,0)" font-family="helvetica" font-size="10pt" font-style="normal" font-weight="normal" text-decoration="normal" x="79.36060523986816" y="304" text-anchor="start" dominant-baseline="alphabetic" transform="matrix(1, 0, 0, 1, 0.5, 0.5)" stroke-opacity="0" stroke-linejoin="bevel" stroke-miterlimit="10">2025</text><text fill="#444444" stroke="none" font-family="helvetica" font-size="10pt" font-style="normal" font-weight="normal" text-decoration="normal" x="198.97783088684082" y="304" text-anchor="start" dominant-baseline="alphabetic" transform="matrix(1, 0, 0, 1, 0.5, 0.5)">2030</text><text fill="none" stroke="rgb(0,0,0)" font-family="helvetica" font-size="10pt" font-style="normal" font-weight="normal" text-decoration="normal" x="198.97783088684082" y="304" text-anchor="start" dominant-baseline="alphabetic" transform="matrix(1, 0, 0, 1, 0.5, 0.5)" stroke-opacity="0" stroke-linejoin="bevel" stroke-miterlimit="10">2030</text><text fill="#444444" stroke="none" font-family="helvetica" font-size="10pt" font-style="normal" font-weight="normal" text-decoration="normal" x="318.595064163208" y="304" text-anchor="start" dominant-baseline="alphabetic" transform="matrix(1, 0, 0, 1, 0.5, 0.5)">2035</text><text fill="none" stroke="rgb(0,0,0)" font-family="helvetica" font-size="10pt" font-style="normal" font-weight="normal" text-decoration="normal" x="318.595064163208" y="304" text-anchor="start" dominant-baseline="alphabetic" transform="matrix(1, 0, 0, 1, 0.5, 0.5)" stroke-opacity="0" stroke-linejoin="bevel" stroke-miterlimit="10">2035</text><text fill="#444444" stroke="none" font-family="helvetica" font-size="10pt" font-style="normal" font-weight="normal" text-decoration="normal" x="438.21228218078613" y="304" text-anchor="start" dominant-baseline="alphabetic" transform="matrix(1, 0, 0, 1, 0.5, 0.5)">2040</text><text fill="none" stroke="rgb(0,0,0)" font-family="helvetica" font-size="10pt" font-style="normal" font-weight="normal" text-decoration="normal" x="438.21228218078613" y="304" text-anchor="start" dominant-baseline="alphabetic" transform="matrix(1, 0, 0, 1, 0.5, 0.5)" stroke-opacity="0" stroke-linejoin="bevel" stroke-miterlimit="10">2040</text><text fill="#444444" stroke="none" font-family="helvetica" font-size="12pt" font-style="normal" font-weight="normal" text-decoration="normal" x="305.3166666030884" y="327" text-anchor="start" dominant-baseline="alphabetic" transform="matrix(1, 0, 0, 1, 0.5, 0.5)">Year</text><text fill="none" stroke="rgb(0,0,0)" font-family="helvetica" font-size="12pt" font-style="normal" font-weight="normal" text-decoration="normal" x="305.3166666030884" y="327" text-anchor="start" dominant-baseline="alphabetic" transform="matrix(1, 0, 0, 1, 0.5, 0.5)" stroke-opacity="0" stroke-linejoin="bevel" stroke-miterlimit="10">Year</text><path fill="none" stroke="black" paint-order="fill" d="M 70.5 283.5 L 70.5 33.5" stroke-linejoin="bevel" stroke-miterlimit="10"/><path fill="none" stroke="black" paint-order="fill" d="M 64.5 283.5 L 72.5 283.5 M 64.5 233.5 L 72.5 233.5 M 64.5 183.5 L 72.5 183.5 M 64.5 133.5 L 72.5 133.5 M 64.5 84.5 L 72.5 84.5 M 64.5 34.5 L 72.5 34.5" stroke-linejoin="bevel" stroke-miterlimit="10"/><path fill="none" stroke="black" paint-order="fill" d="M 66.5 283.5 L 70.5 283.5 M 66.5 273.5 L 70.5 273.5 M 66.5 263.5 L 70.5 263.5 M 66.5 253.5 L 70.5 253.5 M 66.5 243.5 L 70.5 243.5 M 66.5 233.5 L 70.5 233.5 M 66.5 223.5 L 70.5 223.5 M 66.5 213.5 L 70.5 213.5 M 66.5 203.5 L 70.5 203.5 M 66.5 193.5 L 70.5 193.5 M 66.5 183.5 L 70.5 183.5 M 66.5 173.5 L 70.5 173.5 M 66.5 163.5 L 70.5 163.5 M 66.5 153.5 L 70.5 153.5 M 66.5 143.5 L 70.5 143.5 M 66.5 133.5 L 70.5 133.5 M 66.5 124.5 L 70.5 124.5 M 66.5 114.5 L 70.5 114.5 M 66.5 104.5 L 70.5 104.5 M 66.5 94.5 L 70.5 94.5 M 66.5 84.5 L 70.5 84.5 M 66.5 74.5 L 70.5 74.5 M 66.5 64.5 L 70.5 64.5 M 66.5 54.5 L 70.5 54.5 M 66.5 44.5 L 70.5 44.5 M 66.5 34.5 L 70.5 34.5" stroke-linejoin="bevel" stroke-miterlimit="10"/><text fill="#444444" stroke="none" font-family="helvetica" font-size="10pt" font-style="normal" font-weight="normal" text-decoration="normal" x="52.31666660308838" y="288" text-anchor="start" dominant-baseline="alphabetic" transform="matrix(1, 0, 0, 1, 0.5, 0.5)">0</text><text fill="none" stroke="rgb(0,0,0)" font-family="helvetica" font-size="10pt" font-style="normal" font-weight="normal" text-decoration="normal" x="52.31666660308838" y="288" text-anchor="start" dominant-baseline="alphabetic" transform="matrix(1, 0, 0, 1, 0.5, 0.5)" stroke-opacity="0" stroke-linejoin="bevel" stroke-miterlimit="10">0</text><text fill="#444444" stroke="none" font-family="helvetica" font-size="10pt" font-style="normal" font-weight="normal" text-decoration="normal" x="45.63333320617676" y="238.15948486328125" text-anchor="start" dominant-baseline="alphabetic" transform="matrix(1, 0, 0, 1, 0.5, 0.5)">50</text><text fill="none" stroke="rgb(0,0,0)" font-family="helvetica" font-size="10pt" font-style="normal" font-weight="normal" text-decoration="normal" x="45.63333320617676" y="238.15948486328125" text-anchor="start" dominant-baseline="alphabetic" transform="matrix(1, 0, 0, 1, 0.5, 0.5)" stroke-opacity="0" stroke-linejoin="bevel" stroke-miterlimit="10">50</text><text fill="#444444" stroke="none" font-family="helvetica" font-size="10pt" font-style="normal" font-weight="normal" text-decoration="normal" x="38.95000076293945" y="188.31898498535156" text-anchor="start" dominant-baseline="alphabetic" transform="matrix(1, 0, 0, 1, 0.5, 0.5)">100</text><text fill="none" stroke="rgb(0,0,0)" font-family="helvetica" font-size="10pt" font-style="normal" font-weight="normal" text-decoration="normal" x="38.95000076293945" y="188.31898498535156" text-anchor="start" dominant-baseline="alphabetic" transform="matrix(1, 0, 0, 1, 0.5, 0.5)" stroke-opacity="0" stroke-linejoin="bevel" stroke-miterlimit="10">100</text><text fill="#444444" stroke="none" font-family="helvetica" font-size="10pt" font-style="normal" font-weight="normal" text-decoration="normal" x="38.95000076293945" y="138.4784698486328" text-anchor="start" dominant-baseline="alphabetic" transform="matrix(1, 0, 0, 1, 0.5, 0.5)">150</text><text fill="none" stroke="rgb(0,0,0)" font-family="helvetica" font-size="10pt" font-style="normal" font-weight="normal" text-decoration="normal" x="38.95000076293945" y="138.4784698486328" text-anchor="start" dominant-baseline="alphabetic" transform="matrix(1, 0, 0, 1, 0.5, 0.5)" stroke-opacity="0" stroke-linejoin="bevel" stroke-miterlimit="10">150</text><text fill="#444444" stroke="none" font-family="helvetica" font-size="10pt" font-style="normal" font-weight="normal" text-decoration="normal" x="38.95000076293945" y="88.6379623413086" text-anchor="start" dominant-baseline="alphabetic" transform="matrix(1, 0, 0, 1, 0.5, 0.5)">200</text><text fill="none" stroke="rgb(0,0,0)" font-family="helvetica" font-size="10pt" font-style="normal" font-weight="normal" text-decoration="normal" x="38.95000076293945" y="88.6379623413086" text-anchor="start" dominant-baseline="alphabetic" transform="matrix(1, 0, 0, 1, 0.5, 0.5)" stroke-opacity="0" stroke-linejoin="bevel" stroke-miterlimit="10">200</text><text fill="#444444" stroke="none" font-family="helvetica" font-size="10pt" font-style="normal" font-weight="normal" text-decoration="normal" x="38.95000076293945" y="38.797447204589844" text-anchor="start" dominant-baseline="alphabetic" transform="matrix(1, 0, 0, 1, 0.5, 0.5)">250</text><text fill="none" stroke="rgb(0,0,0)" font-family="helvetica" font-size="10pt" font-style="normal" font-weight="normal" text-decoration="normal" x="38.95000076293945" y="38.797447204589844" text-anchor="start" dominant-baseline="alphabetic" transform="matrix(1, 0, 0, 1, 0.5, 0.5)" stroke-opacity="0" stroke-linejoin="bevel" stroke-miterlimit="10">250</text><text fill="#444444" stroke="none" font-family="helvetica" font-size="12pt" font-style="normal" font-weight="normal" text-decoration="normal" x="-65.25833511352539" y="154" text-anchor="start" dominant-baseline="alphabetic" transform="matrix(6.123233995736766e-17, -1, 1, 6.123233995736766e-17, -126.54999923706055, 189.45000076293945)">Days suitable for transmission</text><text fill="none" stroke="rgb(0,0,0)" font-family="helvetica" font-size="12pt" font-style="normal" font-weight="normal" text-decoration="normal" x="-65.25833511352539" y="154" text-anchor="start" dominant-baseline="alphabetic" transform="matrix(6.123233995736766e-17, -1, 1, 6.123233995736766e-17, -126.54999923706055, 189.45000076293945)" stroke-opacity="0" stroke-linejoin="bevel" stroke-miterlimit="10">Days suitable for transmission</text><path fill="rgb(255,255,255)" stroke="rgb(229,229,229)" paint-order="fill" d="M 477.0333251953125 208.5 L 560.4999847412109 208.5 L 560.4999847412109 273.5 L 477.0333251953125 273.5 L 477.0333251953125 208.5 Z" fill-opacity="0.9490196078431372" clip-path="url(#IGNcxKwCBngG)" stroke-opacity="0.5019607843137255" stroke-linejoin="bevel" stroke-miterlimit="10"/><g clip-path="url(#IGNcxKwCBngG)"><g transform="matrix(1, 0, 0, 1, 487.5333251953125, 219)"><path fill="none" stroke="#30a2da" paint-order="fill" d="M 0.5 10.5 L 20.5 10.5" stroke-linejoin="bevel" stroke-miterlimit="10" stroke-width="2"/></g></g><g clip-path="url(#IGNcxKwCBngG)"><text fill="#444444" stroke="none" font-family="helvetica" font-size="13px" font-style="normal" font-weight="normal" text-decoration="normal" x="512.5333251953125" y="233.5" text-anchor="start" dominant-baseline="alphabetic" transform="matrix(1, 0, 0, 1, 0.5, 0.5)">ID 001</text></g><g clip-path="url(#IGNcxKwCBngG)"><text fill="none" stroke="rgb(0,0,0)" font-family="helvetica" font-size="13px" font-style="normal" font-weight="normal" text-decoration="normal" x="512.5333251953125" y="233.5" text-anchor="start" dominant-baseline="alphabetic" transform="matrix(1, 0, 0, 1, 0.5, 0.5)" stroke-opacity="0" stroke-linejoin="bevel" stroke-miterlimit="10">ID 001</text></g><g clip-path="url(#IGNcxKwCBngG)"><g transform="matrix(1, 0, 0, 1, 487.5333251953125, 242)"><path fill="none" stroke="#fc4f30" paint-order="fill" d="M 0.5 10.5 L 20.5 10.5" stroke-linejoin="bevel" stroke-miterlimit="10" stroke-width="2"/></g></g><g clip-path="url(#IGNcxKwCBngG)"><text fill="#444444" stroke="none" font-family="helvetica" font-size="13px" font-style="normal" font-weight="normal" text-decoration="normal" x="512.5333251953125" y="256.5" text-anchor="start" dominant-baseline="alphabetic" transform="matrix(1, 0, 0, 1, 0.5, 0.5)">ID 006</text></g><g clip-path="url(#IGNcxKwCBngG)"><text fill="none" stroke="rgb(0,0,0)" font-family="helvetica" font-size="13px" font-style="normal" font-weight="normal" text-decoration="normal" x="512.5333251953125" y="256.5" text-anchor="start" dominant-baseline="alphabetic" transform="matrix(1, 0, 0, 1, 0.5, 0.5)" stroke-opacity="0" stroke-linejoin="bevel" stroke-miterlimit="10">ID 006</text></g><text fill="black" stroke="none" font-family="helvetica" font-size="14pt" font-style="normal" font-weight="normal" text-decoration="normal" x="0" y="18" text-anchor="start" dominant-baseline="alphabetic" transform="matrix(1, 0, 0, 1, 5.5, 5.5)">F. Tokyo</text><text fill="none" stroke="rgb(0,0,0)" font-family="helvetica" font-size="14pt" font-style="normal" font-weight="normal" text-decoration="normal" x="0" y="18" text-anchor="start" dominant-baseline="alphabetic" transform="matrix(1, 0, 0, 1, 5.5, 5.5)" stroke-opacity="0" stroke-linejoin="bevel" stroke-miterlimit="10">F. Tokyo</text></svg>