<svg version="1.1" xmlns="http://www.w3.org/2000/svg" width="605" height="331"><defs><clipPath id="KUEJOsWElWbT"><path fill="none" stroke="none" d="M 75.5 32.5 L 575.5 32.5 L 575.5 282.5 L 75.5 282.5 L 75.5 32.5 Z"/></clipPath><clipPath id="cCqLfQmgoemU"><path fill="none" stroke="none" d="M 75.5 32.5 L 575.5 32.5 L 575.5 282.5 L 75.5 282.5 L 75.5 32.5 Z"/></clipPath><clipPath id="BqNdfLCWhWUM"><path fill="none" stroke="none" d="M 75.5 32.5 L 575.5 32.5 L 575.5 282.5 L 75.5 282.5 L 75.5 32.5 Z"/></clipPath><clipPath id="VswLFRENWAth"><path fill="none" stroke="none" d="M 75.5 32.5 L 575.5 32.5 L 575.5 282.5 L 75.5 282.5 L 75.5 32.5 Z"/></clipPath><clipPath id="HpkQxslWAUfO"><path fill="none" stroke="none" d="M 75.5 32.5 L 575.5 32.5 L 575.5 282.5 L 75.5 282.5 L 75.5 32.5 Z"/></clipPath><clipPath id="xJifmbZXdqgA"><path fill="none" stroke="none" d="M 75.5 32.5 L 575.5 32.5 L 575.5 282.5 L 75.5 282.5 L 75.5 32.5 Z"/></clipPath><clipPath id="rsXqfOnzrpVb"><path fill="none" stroke="none" d="M 75.5 32.5 L 575.5 32.5 L 575.5 282.5 L 75.5 282.5 L 75.5 32.5 Z"/></clipPath><clipPath id="VuhHHiFKCcOf"><path fill="none" stroke="none" d="M 75.5 32.5 L 575.5 32.5 L 575.5 282.5 L 75.5 282.5 L 75.5 32.5 Z"/></clipPath><clipPath id="yPLmWfbvdqUq"><path fill="none" stroke="none" d="M 75.5 32.5 L 575.5 32.5 L 575.5 282.5 L 75.5 282.5 L 75.5 32.5 Z"/></clipPath><clipPath id="uqsABATraSiB"><path fill="none" stroke="none" d="M 75.5 32.5 L 575.5 32.5 L 575.5 282.5 L 75.5 282.5 L 75.5 32.5 Z"/></clipPath><clipPath id="gvqbsIHNqnyJ"><path fill="none" stroke="none" d="M 75.5 32.5 L 575.5 32.5 L 575.5 282.5 L 75.5 282.5 L 75.5 32.5 Z"/></clipPath><clipPath id="eevHSIUNLdEm"><path fill="none" stroke="none" d="M 75.5 32.5 L 575.5 32.5 L 575.5 282.5 L 75.5 282.5 L 75.5 32.5 Z"/></clipPath><clipPath id="bbnXRbpnmXtw"><path fill="none" stroke="none" d="M 75.5 32.5 L 575.5 32.5 L 575.5 282.5 L 75.5 282.5 L 75.5 32.5 Z"/></clipPath><clipPath id="cMBTzkJaCdPz"><path fill="none" stroke="none" d="M 75.5 32.5 L 575.5 32.5 L 575.5 282.5 L 75.5 282.5 L 75.5 32.5 Z"/></clipPath><clipPath id="UvdTFESxTXCJ"><path fill="none" stroke="none" d="M 75.5 32.5 L 575.5 32.5 L 575.5 282.5 L 75.5 282.5 L 75.5 32.5 Z"/></clipPath><clipPath id="WPgbxgBeKaua"><path fill="none" stroke="none" d="M 75.5 32.5 L 575.5 32.5 L 575.5 282.5 L 75.5 282.5 L 75.5 32.5 Z"/></clipPath><clipPath id="yJgrCxHumvTi"><path fill="none" stroke="none" d="M 75.5 32.5 L 575.5 32.5 L 575.5 282.5 L 75.5 282.5 L 75.5 32.5 Z"/></clipPath><clipPath id="nnatsCMbgvTx"><path fill="none" stroke="none" d="M 75.5 32.5 L 575.5 32.5 L 575.5 282.5 L 75.5 282.5 L 75.5 32.5 Z"/></clipPath><clipPath id="FgEXsMpNZFbx"><path fill="none" stroke="none" d="M 75.5 32.5 L 575.5 32.5 L 575.5 282.5 L 75.5 282.5 L 75.5 32.5 Z"/></clipPath><clipPath id="RnoHJHABcRnh"><path fill="none" stroke="none" d="M 75.5 32.5 L 575.5 32.5 L 575.5 282.5 L 75.5 282.5 L 75.5 32.5 Z"/></clipPath><clipPath id="uymKcaSCPorr"><path fill="none" stroke="none" d="M 75.5 32.5 L 575.5 32.5 L 575.5 282.5 L 75.5 282.5 L 75.5 32.5 Z"/></clipPath><clipPath id="OzKoWxRUPoWK"><path fill="none" stroke="none" d="M 75.5 32.5 L 575.5 32.5 L 575.5 282.5 L 75.5 282.5 L 75.5 32.5 Z"/></clipPath><clipPath id="cGBoOfgFcido"><path fill="none" stroke="none" d="M 75.5 32.5 L 575.5 32.5 L 575.5 282.5 L 75.5 282.5 L 75.5 32.5 Z"/></clipPath></defs><path fill="none" stroke="#e5e5e5" paint-order="fill" d="M 75.5 32.5 L 575.5 32.5 L 575.5 282.5 L 75.5 282.5 L 75.5 32.5 Z" stroke-linejoin="bevel" stroke-miterlimit="10"/><path fill="none" stroke="black" paint-order="fill" d="M 337.46172248803487 32.5 L 337.46172248803487 282.5" stroke-linejoin="bevel" stroke-miterlimit="10" stroke-width="3" stroke-dasharray="6" clip-path="url(#BqNdfLCWhWUM)"/><path fill="none" stroke="#9467bd" paint-order="fill" d="M 98.2272720336914 97.6934585571289 L 122.15071868896484 85.89729309082031 L 146.07415771484375 101.6255111694336 L 169.9976043701172 85.89729309082031 L 193.92105102539062 67.0234375 L 217.84449768066406 69.3826675415039 L 241.7679443359375 94.54781341552734 L 265.6913757324219 96.90704345703125 L 289.6148376464844 104.77115631103516 L 313.53826904296875 97.6934585571289" stroke-linejoin="bevel" stroke-miterlimit="10" stroke-width="2" clip-path="url(#VswLFRENWAth)"/><path fill="none" stroke="#9467bd" paint-order="fill" d="M 98.2272720336914 97.6934585571289 L 122.15071868896484 85.89729309082031 L 146.07415771484375 101.6255111694336 L 169.9976043701172 85.89729309082031 L 193.92105102539062 67.0234375 L 217.84449768066406 69.3826675415039 L 241.7679443359375 94.54781341552734 L 265.6913757324219 96.90704345703125 L 289.6148376464844 104.77115631103516 L 313.53826904296875 97.6934585571289" stroke-linejoin="bevel" stroke-miterlimit="10" stroke-width="2" stroke-dasharray="6" clip-path="url(#HpkQxslWAUfO)"/><path fill="none" stroke="#30a2da" paint-order="fill" d="M 313.53826904296875 97.6934585571289 L 337.46173095703125 59.945735931396484 L 361.3851623535156 67.80984497070312 L 385.3086242675781 92.18858337402344 L 409.2320556640625 80.39241790771484 L 433.155517578125 88.25653076171875 L 457.0789489746094 92.18858337402344 L 481.00238037109375 98.47986602783203 L 504.92584228515625 102.41191864013672 L 528.8493041992188 94.54781341552734 L 552.772705078125 102.41191864013672" stroke-linejoin="bevel" stroke-miterlimit="10" stroke-width="2" clip-path="url(#xJifmbZXdqgA)"/><path fill="none" stroke="#30a2da" paint-order="fill" d="M 337.46173095703125 69.35407257080078 L 361.3851623535156 73.46723937988281 L 385.3086242675781 77.58040618896484 L 409.2320556640625 81.69357299804688 L 433.155517578125 85.8067398071289 L 457.0789489746094 89.91990661621094 L 481.00238037109375 94.03307342529297 L 504.92584228515625 98.146240234375 L 528.8493041992188 102.25940704345703 L 552.772705078125 106.37257385253906" stroke-linejoin="bevel" stroke-miterlimit="10" stroke-width="2" stroke-dasharray="6" clip-path="url(#rsXqfOnzrpVb)"/><path fill="none" stroke="#fc4f30" paint-order="fill" d="M 313.53826904296875 97.6934585571289 L 337.46173095703125 100.05268859863281 L 361.3851623535156 89.829345703125 L 385.3086242675781 107.13038635253906 L 409.2320556640625 110.27603149414062 L 433.155517578125 76.46036529541016 L 457.0789489746094 59.15932846069336 L 481.00238037109375 95.33422088623047 L 504.92584228515625 65.45061492919922 L 528.8493041992188 69.3826675415039 L 552.772705078125 91.40216827392578" stroke-linejoin="bevel" stroke-miterlimit="10" stroke-width="2" clip-path="url(#VuhHHiFKCcOf)"/><path fill="none" stroke="#fc4f30" paint-order="fill" d="M 337.46173095703125 99.85250854492188 L 361.3851623535156 96.8736801147461 L 385.3086242675781 93.89485168457031 L 409.2320556640625 90.91602325439453 L 433.155517578125 87.93719482421875 L 457.0789489746094 84.95836639404297 L 481.00238037109375 81.97953796386719 L 504.92584228515625 79.0007095336914 L 528.8493041992188 76.02188110351562 L 552.772705078125 73.04305267333984" stroke-linejoin="bevel" stroke-miterlimit="10" stroke-width="2" stroke-dasharray="6" clip-path="url(#yPLmWfbvdqUq)"/><path fill="none" stroke="rgb(128,128,128)" paint-order="fill" d="M 98.2272720336914 93.76140594482422 L 122.15071868896484 96.12063598632812 L 146.07415771484375 106.34397888183594 L 169.9976043701172 85.11088562011719 L 193.92105102539062 111.8488540649414 L 217.84449768066406 81.96524047851562 L 241.7679443359375 74.10113525390625 L 265.6913757324219 81.1788330078125 L 289.6148376464844 88.25653076171875 L 313.53826904296875 108.70320892333984" stroke-opacity="0.7490196078431373" stroke-linejoin="bevel" stroke-miterlimit="10" clip-path="url(#uqsABATraSiB)"/><path fill="none" stroke="grey" paint-order="fill" d="M 313.53826904296875 108.70320892333984 L 337.46173095703125 74.10113525390625 L 361.3851623535156 77.24677276611328 L 385.3086242675781 81.1788330078125 L 409.2320556640625 63.87779235839844 L 433.155517578125 86.68370819091797 L 457.0789489746094 87.4701156616211 L 481.00238037109375 56.0136833190918 L 504.92584228515625 93.76140594482422 L 528.8493041992188 85.89729309082031 L 552.772705078125 108.70320892333984" stroke-linejoin="bevel" stroke-miterlimit="10" stroke-width="0.5" clip-path="url(#gvqbsIHNqnyJ)"/><path fill="none" stroke="grey" paint-order="fill" d="M 313.53826904296875 108.70320892333984 L 337.46173095703125 71.74189758300781 L 361.3851623535156 75.67395782470703 L 385.3086242675781 96.12063598632812 L 409.2320556640625 98.47986602783203 L 433.155517578125 82.75164794921875 L 457.0789489746094 62.304969787597656 L 481.00238037109375 100.05268859863281 L 504.92584228515625 60.732147216796875 L 528.8493041992188 66.23702239990234 L 552.772705078125 78.81959533691406" stroke-linejoin="bevel" stroke-miterlimit="10" stroke-width="0.5" clip-path="url(#eevHSIUNLdEm)"/><path fill="none" stroke="rgb(128,128,128)" paint-order="fill" d="M 98.2272720336914 70.95549011230469 L 122.15071868896484 71.74189758300781 L 146.07415771484375 92.18858337402344 L 169.9976043701172 90.61576080322266 L 193.92105102539062 56.80009460449219 L 217.84449768066406 122.07218933105469 L 241.7679443359375 93.76140594482422 L 265.6913757324219 64.66419982910156 L 289.6148376464844 100.05268859863281 L 313.53826904296875 94.54781341552734" stroke-opacity="0.7490196078431373" stroke-linejoin="bevel" stroke-miterlimit="10" clip-path="url(#bbnXRbpnmXtw)"/><path fill="none" stroke="grey" paint-order="fill" d="M 313.53826904296875 94.54781341552734 L 337.46173095703125 96.12063598632812 L 361.3851623535156 57.58650588989258 L 385.3086242675781 104.77115631103516 L 409.2320556640625 76.46036529541016 L 433.155517578125 115.7809066772461 L 457.0789489746094 69.3826675415039 L 481.00238037109375 110.27603149414062 L 504.92584228515625 81.1788330078125 L 528.8493041992188 78.81959533691406 L 552.772705078125 88.25653076171875" stroke-linejoin="bevel" stroke-miterlimit="10" stroke-width="0.5" clip-path="url(#cMBTzkJaCdPz)"/><path fill="none" stroke="grey" paint-order="fill" d="M 313.53826904296875 94.54781341552734 L 337.46173095703125 70.16907501220703 L 361.3851623535156 101.6255111694336 L 385.3086242675781 103.19833374023438 L 409.2320556640625 77.24677276611328 L 433.155517578125 115.7809066772461 L 457.0789489746094 102.41191864013672 L 481.00238037109375 86.68370819091797 L 504.92584228515625 104.77115631103516 L 528.8493041992188 70.95549011230469 L 552.772705078125 74.88754272460938" stroke-linejoin="bevel" stroke-miterlimit="10" stroke-width="0.5" clip-path="url(#UvdTFESxTXCJ)"/><path fill="none" stroke="rgb(128,128,128)" paint-order="fill" d="M 98.2272720336914 91.40216827392578 L 122.15071868896484 89.829345703125 L 146.07415771484375 101.6255111694336 L 169.9976043701172 60.732147216796875 L 193.92105102539062 84.32447052001953 L 217.84449768066406 89.04293823242188 L 241.7679443359375 69.3826675415039 L 265.6913757324219 98.47986602783203 L 289.6148376464844 83.5380630493164 L 313.53826904296875 81.1788330078125" stroke-opacity="0.7490196078431373" stroke-linejoin="bevel" stroke-miterlimit="10" clip-path="url(#WPgbxgBeKaua)"/><path fill="none" stroke="grey" paint-order="fill" d="M 313.53826904296875 81.1788330078125 L 337.46173095703125 81.96524047851562 L 361.3851623535156 92.97499084472656 L 385.3086242675781 79.60601043701172 L 409.2320556640625 83.5380630493164 L 433.155517578125 89.04293823242188 L 457.0789489746094 94.54781341552734 L 481.00238037109375 91.40216827392578 L 504.92584228515625 93.76140594482422 L 528.8493041992188 99.26628112792969 L 552.772705078125 83.5380630493164" stroke-linejoin="bevel" stroke-miterlimit="10" stroke-width="0.5" clip-path="url(#yJgrCxHumvTi)"/><path fill="none" stroke="grey" paint-order="fill" d="M 313.53826904296875 81.1788330078125 L 337.46173095703125 64.66419982910156 L 361.3851623535156 90.61576080322266 L 385.3086242675781 69.3826675415039 L 409.2320556640625 82.75164794921875 L 433.155517578125 85.89729309082031 L 457.0789489746094 92.18858337402344 L 481.00238037109375 74.88754272460938 L 504.92584228515625 104.77115631103516 L 528.8493041992188 79.60601043701172 L 552.772705078125 76.46036529541016" stroke-linejoin="bevel" stroke-miterlimit="10" stroke-width="0.5" clip-path="url(#nnatsCMbgvTx)"/><path fill="none" stroke="rgb(128,128,128)" paint-order="fill" d="M 98.2272720336914 80.39241790771484 L 122.15071868896484 87.4701156616211 L 146.07415771484375 94.54781341552734 L 169.9976043701172 96.90704345703125 L 193.92105102539062 85.89729309082031 L 217.84449768066406 89.04293823242188 L 241.7679443359375 102.41191864013672 L 265.6913757324219 81.1788330078125 L 289.6148376464844 88.25653076171875 L 313.53826904296875 91.40216827392578" stroke-opacity="0.7490196078431373" stroke-linejoin="bevel" stroke-miterlimit="10" clip-path="url(#FgEXsMpNZFbx)"/><path fill="none" stroke="grey" paint-order="fill" d="M 313.53826904296875 91.40216827392578 L 337.46173095703125 94.54781341552734 L 361.3851623535156 104.77115631103516 L 385.3086242675781 84.32447052001953 L 409.2320556640625 61.518558502197266 L 433.155517578125 55.227272033691406 L 457.0789489746094 83.5380630493164 L 481.00238037109375 113.42167663574219 L 504.92584228515625 70.95549011230469 L 528.8493041992188 81.96524047851562 L 552.772705078125 117.35372924804688" stroke-linejoin="bevel" stroke-miterlimit="10" stroke-width="0.5" clip-path="url(#RnoHJHABcRnh)"/><path fill="none" stroke="grey" paint-order="fill" d="M 313.53826904296875 91.40216827392578 L 337.46173095703125 103.19833374023438 L 361.3851623535156 80.39241790771484 L 385.3086242675781 63.09138107299805 L 409.2320556640625 77.24677276611328 L 433.155517578125 89.04293823242188 L 457.0789489746094 96.12063598632812 L 481.00238037109375 86.68370819091797 L 504.92584228515625 100.05268859863281 L 528.8493041992188 89.829345703125 L 552.772705078125 90.61576080322266" stroke-linejoin="bevel" stroke-miterlimit="10" stroke-width="0.5" clip-path="url(#uymKcaSCPorr)"/><path fill="none" stroke="black" paint-order="fill" d="M 75.5 282.5 L 575.5 282.5" stroke-linejoin="bevel" stroke-miterlimit="10"/><path fill="none" stroke="black" paint-order="fill" d="M 98.5 288.5 L 98.5 280.5 M 217.5 288.5 L 217.5 280.5 M 337.5 288.5 L 337.5 280.5 M 457.5 288.5 L 457.5 280.5" stroke-linejoin="bevel" stroke-miterlimit="10"/><path fill="none" stroke="black" paint-order="fill" d="M 98.5 286.5 L 98.5 282.5 M 122.5 286.5 L 122.5 282.5 M 146.5 286.5 L 146.5 282.5 M 169.5 286.5 L 169.5 282.5 M 193.5 286.5 L 193.5 282.5 M 217.5 286.5 L 217.5 282.5 M 241.5 286.5 L 241.5 282.5 M 265.5 286.5 L 265.5 282.5 M 289.5 286.5 L 289.5 282.5 M 313.5 286.5 L 313.5 282.5 M 337.5 286.5 L 337.5 282.5 M 361.5 286.5 L 361.5 282.5 M 385.5 286.5 L 385.5 282.5 M 409.5 286.5 L 409.5 282.5 M 433.5 286.5 L 433.5 282.5 M 457.5 286.5 L 457.5 282.5 M 481.5 286.5 L 481.5 282.5 M 504.5 286.5 L 504.5 282.5 M 528.5 286.5 L 528.5 282.5 M 552.5 286.5 L 552.5 282.5" stroke-linejoin="bevel" stroke-miterlimit="10"/><text fill="#444444" stroke="none" font-family="helvetica" font-size="10pt" font-style="normal" font-weight="normal" text-decoration="normal" x="82.82727241516113" y="302.59368896484375" text-anchor="start" dominant-baseline="alphabetic" transform="matrix(1, 0, 0, 1, 0.5, 0.5)">2025</text><text fill="none" stroke="rgb(0,0,0)" font-family="helvetica" font-size="10pt" font-style="normal" font-weight="normal" text-decoration="normal" x="82.82727241516113" y="302.59368896484375" text-anchor="start" dominant-baseline="alphabetic" transform="matrix(1, 0, 0, 1, 0.5, 0.5)" stroke-opacity="0" stroke-linejoin="bevel" stroke-miterlimit="10">2025</text><text fill="#444444" stroke="none" font-family="helvetica" font-size="10pt" font-style="normal" font-weight="normal" text-decoration="normal" x="202.4444980621338" y="302.59368896484375" text-anchor="start" dominant-baseline="alphabetic" transform="matrix(1, 0, 0, 1, 0.5, 0.5)">2030</text><text fill="none" stroke="rgb(0,0,0)" font-family="helvetica" font-size="10pt" font-style="normal" font-weight="normal" text-decoration="normal" x="202.4444980621338" y="302.59368896484375" text-anchor="start" dominant-baseline="alphabetic" transform="matrix(1, 0, 0, 1, 0.5, 0.5)" stroke-opacity="0" stroke-linejoin="bevel" stroke-miterlimit="10">2030</text><text fill="#444444" stroke="none" font-family="helvetica" font-size="10pt" font-style="normal" font-weight="normal" text-decoration="normal" x="322.061731338501" y="302.59368896484375" text-anchor="start" dominant-baseline="alphabetic" transform="matrix(1, 0, 0, 1, 0.5, 0.5)">2035</text><text fill="none" stroke="rgb(0,0,0)" font-family="helvetica" font-size="10pt" font-style="normal" font-weight="normal" text-decoration="normal" x="322.061731338501" y="302.59368896484375" text-anchor="start" dominant-baseline="alphabetic" transform="matrix(1, 0, 0, 1, 0.5, 0.5)" stroke-opacity="0" stroke-linejoin="bevel" stroke-miterlimit="10">2035</text><text fill="#444444" stroke="none" font-family="helvetica" font-size="10pt" font-style="normal" font-weight="normal" text-decoration="normal" x="441.6789493560791" y="302.59368896484375" text-anchor="start" dominant-baseline="alphabetic" transform="matrix(1, 0, 0, 1, 0.5, 0.5)">2040</text><text fill="none" stroke="rgb(0,0,0)" font-family="helvetica" font-size="10pt" font-style="normal" font-weight="normal" text-decoration="normal" x="441.6789493560791" y="302.59368896484375" text-anchor="start" dominant-baseline="alphabetic" transform="matrix(1, 0, 0, 1, 0.5, 0.5)" stroke-opacity="0" stroke-linejoin="bevel" stroke-miterlimit="10">2040</text><text fill="#444444" stroke="none" font-family="helvetica" font-size="12pt" font-style="normal" font-weight="normal" text-decoration="normal" x="308.8333339691162" y="323.59368896484375" text-anchor="start" dominant-baseline="alphabetic" transform="matrix(1, 0, 0, 1, 0.5, 0.5)">Year</text><text fill="none" stroke="rgb(0,0,0)" font-family="helvetica" font-size="12pt" font-style="normal" font-weight="normal" text-decoration="normal" x="308.8333339691162" y="323.59368896484375" text-anchor="start" dominant-baseline="alphabetic" transform="matrix(1, 0, 0, 1, 0.5, 0.5)" stroke-opacity="0" stroke-linejoin="bevel" stroke-miterlimit="10">Year</text><path fill="none" stroke="black" paint-order="fill" d="M 75.5 282.5 L 75.5 32.5" stroke-linejoin="bevel" stroke-miterlimit="10"/><path fill="none" stroke="black" paint-order="fill" d="M 69.5 282.5 L 77.5 282.5 M 69.5 243.5 L 77.5 243.5 M 69.5 203.5 L 77.5 203.5 M 69.5 164.5 L 77.5 164.5 M 69.5 125.5 L 77.5 125.5 M 69.5 85.5 L 77.5 85.5 M 69.5 46.5 L 77.5 46.5" stroke-linejoin="bevel" stroke-miterlimit="10"/><path fill="none" stroke="black" paint-order="fill" d="M 71.5 282.5 L 75.5 282.5 M 71.5 274.5 L 75.5 274.5 M 71.5 266.5 L 75.5 266.5 M 71.5 258.5 L 75.5 258.5 M 71.5 251.5 L 75.5 251.5 M 71.5 243.5 L 75.5 243.5 M 71.5 235.5 L 75.5 235.5 M 71.5 227.5 L 75.5 227.5 M 71.5 219.5 L 75.5 219.5 M 71.5 211.5 L 75.5 211.5 M 71.5 203.5 L 75.5 203.5 M 71.5 195.5 L 75.5 195.5 M 71.5 188.5 L 75.5 188.5 M 71.5 180.5 L 75.5 180.5 M 71.5 172.5 L 75.5 172.5 M 71.5 164.5 L 75.5 164.5 M 71.5 156.5 L 75.5 156.5 M 71.5 148.5 L 75.5 148.5 M 71.5 140.5 L 75.5 140.5 M 71.5 133.5 L 75.5 133.5 M 71.5 125.5 L 75.5 125.5 M 71.5 117.5 L 75.5 117.5 M 71.5 109.5 L 75.5 109.5 M 71.5 101.5 L 75.5 101.5 M 71.5 93.5 L 75.5 93.5 M 71.5 85.5 L 75.5 85.5 M 71.5 78.5 L 75.5 78.5 M 71.5 70.5 L 75.5 70.5 M 71.5 62.5 L 75.5 62.5 M 71.5 54.5 L 75.5 54.5 M 71.5 46.5 L 75.5 46.5 M 71.5 38.5 L 75.5 38.5" stroke-linejoin="bevel" stroke-miterlimit="10"/><text fill="#444444" stroke="none" font-family="helvetica" font-size="10pt" font-style="normal" font-weight="normal" text-decoration="normal" x="56.55000019073486" y="286.7968444824219" text-anchor="start" dominant-baseline="alphabetic" transform="matrix(1, 0, 0, 1, 0.5, 0.5)">0</text><text fill="none" stroke="rgb(0,0,0)" font-family="helvetica" font-size="10pt" font-style="normal" font-weight="normal" text-decoration="normal" x="56.55000019073486" y="286.7968444824219" text-anchor="start" dominant-baseline="alphabetic" transform="matrix(1, 0, 0, 1, 0.5, 0.5)" stroke-opacity="0" stroke-linejoin="bevel" stroke-miterlimit="10">0</text><text fill="#444444" stroke="none" font-family="helvetica" font-size="10pt" font-style="normal" font-weight="normal" text-decoration="normal" x="49.10000038146973" y="247.47630310058594" text-anchor="start" dominant-baseline="alphabetic" transform="matrix(1, 0, 0, 1, 0.5, 0.5)">50</text><text fill="none" stroke="rgb(0,0,0)" font-family="helvetica" font-size="10pt" font-style="normal" font-weight="normal" text-decoration="normal" x="49.10000038146973" y="247.47630310058594" text-anchor="start" dominant-baseline="alphabetic" transform="matrix(1, 0, 0, 1, 0.5, 0.5)" stroke-opacity="0" stroke-linejoin="bevel" stroke-miterlimit="10">50</text><text fill="#444444" stroke="none" font-family="helvetica" font-size="10pt" font-style="normal" font-weight="normal" text-decoration="normal" x="41.64999961853027" y="208.15576171875" text-anchor="start" dominant-baseline="alphabetic" transform="matrix(1, 0, 0, 1, 0.5, 0.5)">100</text><text fill="none" stroke="rgb(0,0,0)" font-family="helvetica" font-size="10pt" font-style="normal" font-weight="normal" text-decoration="normal" x="41.64999961853027" y="208.15576171875" text-anchor="start" dominant-baseline="alphabetic" transform="matrix(1, 0, 0, 1, 0.5, 0.5)" stroke-opacity="0" stroke-linejoin="bevel" stroke-miterlimit="10">100</text><text fill="#444444" stroke="none" font-family="helvetica" font-size="10pt" font-style="normal" font-weight="normal" text-decoration="normal" x="41.64999961853027" y="168.83522033691406" text-anchor="start" dominant-baseline="alphabetic" transform="matrix(1, 0, 0, 1, 0.5, 0.5)">150</text><text fill="none" stroke="rgb(0,0,0)" font-family="helvetica" font-size="10pt" font-style="normal" font-weight="normal" text-decoration="normal" x="41.64999961853027" y="168.83522033691406" text-anchor="start" dominant-baseline="alphabetic" transform="matrix(1, 0, 0, 1, 0.5, 0.5)" stroke-opacity="0" stroke-linejoin="bevel" stroke-miterlimit="10">150</text><text fill="#444444" stroke="none" font-family="helvetica" font-size="10pt" font-style="normal" font-weight="normal" text-decoration="normal" x="41.64999961853027" y="129.51467895507812" text-anchor="start" dominant-baseline="alphabetic" transform="matrix(1, 0, 0, 1, 0.5, 0.5)">200</text><text fill="none" stroke="rgb(0,0,0)" font-family="helvetica" font-size="10pt" font-style="normal" font-weight="normal" text-decoration="normal" x="41.64999961853027" y="129.51467895507812" text-anchor="start" dominant-baseline="alphabetic" transform="matrix(1, 0, 0, 1, 0.5, 0.5)" stroke-opacity="0" stroke-linejoin="bevel" stroke-miterlimit="10">200</text><text fill="#444444" stroke="none" font-family="helvetica" font-size="10pt" font-style="normal" font-weight="normal" text-decoration="normal" x="41.64999961853027" y="90.19413757324219" text-anchor="start" dominant-baseline="alphabetic" transform="matrix(1, 0, 0, 1, 0.5, 0.5)">250</text><text fill="none" stroke="rgb(0,0,0)" font-family="helvetica" font-size="10pt" font-style="normal" font-weight="normal" text-decoration="normal" x="41.64999961853027" y="90.19413757324219" text-anchor="start" dominant-baseline="alphabetic" transform="matrix(1, 0, 0, 1, 0.5, 0.5)" stroke-opacity="0" stroke-linejoin="bevel" stroke-miterlimit="10">250</text><text fill="#444444" stroke="none" font-family="helvetica" font-size="10pt" font-style="normal" font-weight="normal" text-decoration="normal" x="41.64999961853027" y="50.873600006103516" text-anchor="start" dominant-baseline="alphabetic" transform="matrix(1, 0, 0, 1, 0.5, 0.5)">300</text><text fill="none" stroke="rgb(0,0,0)" font-family="helvetica" font-size="10pt" font-style="normal" font-weight="normal" text-decoration="normal" x="41.64999961853027" y="50.873600006103516" text-anchor="start" dominant-baseline="alphabetic" transform="matrix(1, 0, 0, 1, 0.5, 0.5)" stroke-opacity="0" stroke-linejoin="bevel" stroke-miterlimit="10">300</text><text fill="#444444" stroke="none" font-family="helvetica" font-size="12pt" font-style="normal" font-weight="normal" text-decoration="normal" x="-73.07499885559082" y="153" text-anchor="start" dominant-baseline="alphabetic" transform="matrix(6.123233995736766e-17, -1, 1, 6.123233995736766e-17, -122.85000038146973, 191.14999961853027)">Days suitable for transmission</text><text fill="none" stroke="rgb(0,0,0)" font-family="helvetica" font-size="12pt" font-style="normal" font-weight="normal" text-decoration="normal" x="-73.07499885559082" y="153" text-anchor="start" dominant-baseline="alphabetic" transform="matrix(6.123233995736766e-17, -1, 1, 6.123233995736766e-17, -122.85000038146973, 191.14999961853027)" stroke-opacity="0" stroke-linejoin="bevel" stroke-miterlimit="10">Days suitable for transmission</text><path fill="rgb(255,255,255)" stroke="rgb(229,229,229)" paint-order="fill" d="M 480.183349609375 207.5 L 565.5000152587891 207.5 L 565.5000152587891 272.5 L 480.183349609375 272.5 L 480.183349609375 207.5 Z" fill-opacity="0.9490196078431372" clip-path="url(#OzKoWxRUPoWK)" stroke-opacity="0.5019607843137255" stroke-linejoin="bevel" stroke-miterlimit="10"/><g clip-path="url(#OzKoWxRUPoWK)"><g transform="matrix(1, 0, 0, 1, 490.683349609375, 218)"><path fill="none" stroke="#30a2da" paint-order="fill" d="M 0.5 10.5 L 20.5 10.5" stroke-linejoin="bevel" stroke-miterlimit="10" stroke-width="2"/></g></g><g clip-path="url(#OzKoWxRUPoWK)"><text fill="#444444" stroke="none" font-family="helvetica" font-size="13px" font-style="normal" font-weight="normal" text-decoration="normal" x="515.683349609375" y="232" text-anchor="start" dominant-baseline="alphabetic" transform="matrix(1, 0, 0, 1, 0.5, 0.5)">ID 001</text></g><g clip-path="url(#OzKoWxRUPoWK)"><text fill="none" stroke="rgb(0,0,0)" font-family="helvetica" font-size="13px" font-style="normal" font-weight="normal" text-decoration="normal" x="515.683349609375" y="232" text-anchor="start" dominant-baseline="alphabetic" transform="matrix(1, 0, 0, 1, 0.5, 0.5)" stroke-opacity="0" stroke-linejoin="bevel" stroke-miterlimit="10">ID 001</text></g><g clip-path="url(#OzKoWxRUPoWK)"><g transform="matrix(1, 0, 0, 1, 490.683349609375, 241)"><path fill="none" stroke="#fc4f30" paint-order="fill" d="M 0.5 10.5 L 20.5 10.5" stroke-linejoin="bevel" stroke-miterlimit="10" stroke-width="2"/></g></g><g clip-path="url(#OzKoWxRUPoWK)"><text fill="#444444" stroke="none" font-family="helvetica" font-size="13px" font-style="normal" font-weight="normal" text-decoration="normal" x="515.683349609375" y="255" text-anchor="start" dominant-baseline="alphabetic" transform="matrix(1, 0, 0, 1, 0.5, 0.5)">ID 006</text></g><g clip-path="url(#OzKoWxRUPoWK)"><text fill="none" stroke="rgb(0,0,0)" font-family="helvetica" font-size="13px" font-style="normal" font-weight="normal" text-decoration="normal" x="515.683349609375" y="255" text-anchor="start" dominant-baseline="alphabetic" transform="matrix(1, 0, 0, 1, 0.5, 0.5)" stroke-opacity="0" stroke-linejoin="bevel" stroke-miterlimit="10">ID 006</text></g><text fill="black" stroke="none" font-family="helvetica" font-size="14pt" font-style="normal" font-weight="normal" text-decoration="normal" x="0" y="15" text-anchor="start" dominant-baseline="alphabetic" transform="matrix(1, 0, 0, 1, 5.5, 7.5)">E. New Delhi</text><text fill="none" stroke="rgb(0,0,0)" font-family="helvetica" font-size="14pt" font-style="normal" font-weight="normal" text-decoration="normal" x="0" y="15" text-anchor="start" dominant-baseline="alphabetic" transform="matrix(1, 0, 0, 1, 5.5, 7.5)" stroke-opacity="0" stroke-linejoin="bevel" stroke-miterlimit="10">E. New Delhi</text></svg>