<svg version="1.1" xmlns="http://www.w3.org/2000/svg" width="605" height="331"><defs><clipPath id="usdqiITDDyBi"><path fill="none" stroke="none" d="M 75.5 32.5 L 575.5 32.5 L 575.5 282.5 L 75.5 282.5 L 75.5 32.5 Z"/></clipPath><clipPath id="kWNSfPkskuVl"><path fill="none" stroke="none" d="M 75.5 32.5 L 575.5 32.5 L 575.5 282.5 L 75.5 282.5 L 75.5 32.5 Z"/></clipPath><clipPath id="SOFxlRTXKeEu"><path fill="none" stroke="none" d="M 75.5 32.5 L 575.5 32.5 L 575.5 282.5 L 75.5 282.5 L 75.5 32.5 Z"/></clipPath><clipPath id="mZwOZReIclWU"><path fill="none" stroke="none" d="M 75.5 32.5 L 575.5 32.5 L 575.5 282.5 L 75.5 282.5 L 75.5 32.5 Z"/></clipPath><clipPath id="PWQUZhFtMCJG"><path fill="none" stroke="none" d="M 75.5 32.5 L 575.5 32.5 L 575.5 282.5 L 75.5 282.5 L 75.5 32.5 Z"/></clipPath><clipPath id="eoQWbJtPAnac"><path fill="none" stroke="none" d="M 75.5 32.5 L 575.5 32.5 L 575.5 282.5 L 75.5 282.5 L 75.5 32.5 Z"/></clipPath><clipPath id="vdDRJhpcyLFr"><path fill="none" stroke="none" d="M 75.5 32.5 L 575.5 32.5 L 575.5 282.5 L 75.5 282.5 L 75.5 32.5 Z"/></clipPath><clipPath id="VTwOPkFkrPuU"><path fill="none" stroke="none" d="M 75.5 32.5 L 575.5 32.5 L 575.5 282.5 L 75.5 282.5 L 75.5 32.5 Z"/></clipPath><clipPath id="DtNKFPVCSmkI"><path fill="none" stroke="none" d="M 75.5 32.5 L 575.5 32.5 L 575.5 282.5 L 75.5 282.5 L 75.5 32.5 Z"/></clipPath><clipPath id="gvoThMxITSiU"><path fill="none" stroke="none" d="M 75.5 32.5 L 575.5 32.5 L 575.5 282.5 L 75.5 282.5 L 75.5 32.5 Z"/></clipPath><clipPath id="IcamXaVNNFtR"><path fill="none" stroke="none" d="M 75.5 32.5 L 575.5 32.5 L 575.5 282.5 L 75.5 282.5 L 75.5 32.5 Z"/></clipPath><clipPath id="NTuTSPOUgkfO"><path fill="none" stroke="none" d="M 75.5 32.5 L 575.5 32.5 L 575.5 282.5 L 75.5 282.5 L 75.5 32.5 Z"/></clipPath><clipPath id="qymCwmZkQste"><path fill="none" stroke="none" d="M 75.5 32.5 L 575.5 32.5 L 575.5 282.5 L 75.5 282.5 L 75.5 32.5 Z"/></clipPath><clipPath id="wHdJPmuUATpp"><path fill="none" stroke="none" d="M 75.5 32.5 L 575.5 32.5 L 575.5 282.5 L 75.5 282.5 L 75.5 32.5 Z"/></clipPath><clipPath id="pNRipnLRDdns"><path fill="none" stroke="none" d="M 75.5 32.5 L 575.5 32.5 L 575.5 282.5 L 75.5 282.5 L 75.5 32.5 Z"/></clipPath><clipPath id="FdwkRvgftpVK"><path fill="none" stroke="none" d="M 75.5 32.5 L 575.5 32.5 L 575.5 282.5 L 75.5 282.5 L 75.5 32.5 Z"/></clipPath><clipPath id="XshPnrVwkOTh"><path fill="none" stroke="none" d="M 75.5 32.5 L 575.5 32.5 L 575.5 282.5 L 75.5 282.5 L 75.5 32.5 Z"/></clipPath><clipPath id="XEGmUqypMvPE"><path fill="none" stroke="none" d="M 75.5 32.5 L 575.5 32.5 L 575.5 282.5 L 75.5 282.5 L 75.5 32.5 Z"/></clipPath><clipPath id="IlsaLePzfmZU"><path fill="none" stroke="none" d="M 75.5 32.5 L 575.5 32.5 L 575.5 282.5 L 75.5 282.5 L 75.5 32.5 Z"/></clipPath><clipPath id="JWhrovGeafhJ"><path fill="none" stroke="none" d="M 75.5 32.5 L 575.5 32.5 L 575.5 282.5 L 75.5 282.5 L 75.5 32.5 Z"/></clipPath><clipPath id="FiOnHHFLfKoD"><path fill="none" stroke="none" d="M 75.5 32.5 L 575.5 32.5 L 575.5 282.5 L 75.5 282.5 L 75.5 32.5 Z"/></clipPath><clipPath id="LmtwLsfxQLJk"><path fill="none" stroke="none" d="M 75.5 32.5 L 575.5 32.5 L 575.5 282.5 L 75.5 282.5 L 75.5 32.5 Z"/></clipPath><clipPath id="cZGHmSLiVkyU"><path fill="none" stroke="none" d="M 75.5 32.5 L 575.5 32.5 L 575.5 282.5 L 75.5 282.5 L 75.5 32.5 Z"/></clipPath></defs><path fill="none" stroke="#e5e5e5" paint-order="fill" d="M 75.5 32.5 L 575.5 32.5 L 575.5 282.5 L 75.5 282.5 L 75.5 32.5 Z" stroke-linejoin="bevel" stroke-miterlimit="10"/><path fill="none" stroke="black" paint-order="fill" d="M 337.46172248803487 32.5 L 337.46172248803487 282.5" stroke-linejoin="bevel" stroke-miterlimit="10" stroke-width="3" stroke-dasharray="6" clip-path="url(#SOFxlRTXKeEu)"/><path fill="none" stroke="#9467bd" paint-order="fill" d="M 98.2272720336914 99.73484802246094 L 122.15071868896484 119.6212158203125 L 146.07415771484375 112.99242401123047 L 169.9976043701172 74.16666412353516 L 193.92105102539062 77.00757598876953 L 217.84449768066406 97.84091186523438 L 241.7679443359375 114.88636016845703 L 265.6913757324219 92.15908813476562 L 289.6148376464844 93.10606384277344 L 313.53826904296875 92.15908813476562" stroke-linejoin="bevel" stroke-miterlimit="10" stroke-width="2" clip-path="url(#mZwOZReIclWU)"/><path fill="none" stroke="#9467bd" paint-order="fill" d="M 98.2272720336914 99.73484802246094 L 122.15071868896484 119.6212158203125 L 146.07415771484375 112.99242401123047 L 169.9976043701172 74.16666412353516 L 193.92105102539062 77.00757598876953 L 217.84449768066406 97.84091186523438 L 241.7679443359375 114.88636016845703 L 265.6913757324219 92.15908813476562 L 289.6148376464844 93.10606384277344 L 313.53826904296875 92.15908813476562" stroke-linejoin="bevel" stroke-miterlimit="10" stroke-width="2" stroke-dasharray="6" clip-path="url(#PWQUZhFtMCJG)"/><path fill="none" stroke="#30a2da" paint-order="fill" d="M 313.53826904296875 92.15908813476562 L 337.46173095703125 74.16666412353516 L 361.3851623535156 90.26515197753906 L 385.3086242675781 89.31818389892578 L 409.2320556640625 95.94696807861328 L 433.155517578125 108.25757598876953 L 457.0789489746094 114.88636016845703 L 481.00238037109375 99.73484802246094 L 504.92584228515625 114.88636016845703 L 528.8493041992188 95.94696807861328 L 552.772705078125 86.4772720336914" stroke-linejoin="bevel" stroke-miterlimit="10" stroke-width="2" clip-path="url(#eoQWbJtPAnac)"/><path fill="none" stroke="#30a2da" paint-order="fill" d="M 337.46173095703125 88.90496063232422 L 361.3851623535156 90.70133209228516 L 385.3086242675781 92.4977035522461 L 409.2320556640625 94.29407501220703 L 433.155517578125 96.09044647216797 L 457.0789489746094 97.88682556152344 L 481.00238037109375 99.68319702148438 L 504.92584228515625 101.47956848144531 L 528.8493041992188 103.27593994140625 L 552.772705078125 105.07231140136719" stroke-linejoin="bevel" stroke-miterlimit="10" stroke-width="2" stroke-dasharray="6" clip-path="url(#vdDRJhpcyLFr)"/><path fill="none" stroke="#fc4f30" paint-order="fill" d="M 313.53826904296875 92.15908813476562 L 337.46173095703125 59.962120056152344 L 361.3851623535156 82.68939208984375 L 385.3086242675781 86.4772720336914 L 409.2320556640625 55.227272033691406 L 433.155517578125 94.05303192138672 L 457.0789489746094 85.53030395507812 L 481.00238037109375 95 L 504.92584228515625 110.1515121459961 L 528.8493041992188 130.98484802246094 L 552.772705078125 82.68939208984375" stroke-linejoin="bevel" stroke-miterlimit="10" stroke-width="2" clip-path="url(#VTwOPkFkrPuU)"/><path fill="none" stroke="#fc4f30" paint-order="fill" d="M 337.46173095703125 67.22795867919922 L 361.3851623535156 71.9054183959961 L 385.3086242675781 76.58287048339844 L 409.2320556640625 81.26033020019531 L 433.155517578125 85.93778991699219 L 457.0789489746094 90.61524200439453 L 481.00238037109375 95.2927017211914 L 504.92584228515625 99.97015380859375 L 528.8493041992188 104.64761352539062 L 552.772705078125 109.32506561279297" stroke-linejoin="bevel" stroke-miterlimit="10" stroke-width="2" stroke-dasharray="6" clip-path="url(#DtNKFPVCSmkI)"/><path fill="none" stroke="rgb(128,128,128)" paint-order="fill" d="M 98.2272720336914 114.88636016845703 L 122.15071868896484 108.25757598876953 L 146.07415771484375 84.58333587646484 L 169.9976043701172 110.1515121459961 L 193.92105102539062 101.6287841796875 L 217.84449768066406 81.74242401123047 L 241.7679443359375 95 L 265.6913757324219 74.16666412353516 L 289.6148376464844 94.05303192138672 L 313.53826904296875 117.7272720336914" stroke-opacity="0.7490196078431373" stroke-linejoin="bevel" stroke-miterlimit="10" clip-path="url(#gvoThMxITSiU)"/><path fill="none" stroke="grey" paint-order="fill" d="M 313.53826904296875 117.7272720336914 L 337.46173095703125 77.00757598876953 L 361.3851623535156 98.78787994384766 L 385.3086242675781 110.1515121459961 L 409.2320556640625 74.16666412353516 L 433.155517578125 82.68939208984375 L 457.0789489746094 90.26515197753906 L 481.00238037109375 96.89393615722656 L 504.92584228515625 104.46969604492188 L 528.8493041992188 99.73484802246094 L 552.772705078125 104.46969604492188" stroke-linejoin="bevel" stroke-miterlimit="10" stroke-width="0.5" clip-path="url(#IcamXaVNNFtR)"/><path fill="none" stroke="grey" paint-order="fill" d="M 313.53826904296875 117.7272720336914 L 337.46173095703125 82.68939208984375 L 361.3851623535156 102.57575988769531 L 385.3086242675781 96.89393615722656 L 409.2320556640625 88.3712158203125 L 433.155517578125 79.8484878540039 L 457.0789489746094 112.99242401123047 L 481.00238037109375 99.73484802246094 L 504.92584228515625 95.94696807861328 L 528.8493041992188 97.84091186523438 L 552.772705078125 127.19696807861328" stroke-linejoin="bevel" stroke-miterlimit="10" stroke-width="0.5" clip-path="url(#NTuTSPOUgkfO)"/><path fill="none" stroke="rgb(128,128,128)" paint-order="fill" d="M 98.2272720336914 111.0984878540039 L 122.15071868896484 111.0984878540039 L 146.07415771484375 100.68181610107422 L 169.9976043701172 89.31818389892578 L 193.92105102539062 102.57575988769531 L 217.84449768066406 112.04545593261719 L 241.7679443359375 114.88636016845703 L 265.6913757324219 77.95454406738281 L 289.6148376464844 95.94696807861328 L 313.53826904296875 97.84091186523438" stroke-opacity="0.7490196078431373" stroke-linejoin="bevel" stroke-miterlimit="10" clip-path="url(#qymCwmZkQste)"/><path fill="none" stroke="grey" paint-order="fill" d="M 313.53826904296875 97.84091186523438 L 337.46173095703125 107.31060791015625 L 361.3851623535156 96.89393615722656 L 385.3086242675781 112.04545593261719 L 409.2320556640625 100.68181610107422 L 433.155517578125 70.3787841796875 L 457.0789489746094 77.95454406738281 L 481.00238037109375 91.21212005615234 L 504.92584228515625 97.84091186523438 L 528.8493041992188 114.88636016845703 L 552.772705078125 109.20454406738281" stroke-linejoin="bevel" stroke-miterlimit="10" stroke-width="0.5" clip-path="url(#wHdJPmuUATpp)"/><path fill="none" stroke="grey" paint-order="fill" d="M 313.53826904296875 97.84091186523438 L 337.46173095703125 117.7272720336914 L 361.3851623535156 92.15908813476562 L 385.3086242675781 107.31060791015625 L 409.2320556640625 63.75 L 433.155517578125 92.15908813476562 L 457.0789489746094 112.04545593261719 L 481.00238037109375 115.83333587646484 L 504.92584228515625 90.26515197753906 L 528.8493041992188 94.05303192138672 L 552.772705078125 105.41666412353516" stroke-linejoin="bevel" stroke-miterlimit="10" stroke-width="0.5" clip-path="url(#pNRipnLRDdns)"/><path fill="none" stroke="rgb(128,128,128)" paint-order="fill" d="M 98.2272720336914 131.93182373046875 L 122.15071868896484 127.19696807861328 L 146.07415771484375 103.5227279663086 L 169.9976043701172 90.26515197753906 L 193.92105102539062 113.93939208984375 L 217.84449768066406 119.6212158203125 L 241.7679443359375 98.78787994384766 L 265.6913757324219 101.6287841796875 L 289.6148376464844 60.90909194946289 L 313.53826904296875 112.04545593261719" stroke-opacity="0.7490196078431373" stroke-linejoin="bevel" stroke-miterlimit="10" clip-path="url(#FdwkRvgftpVK)"/><path fill="none" stroke="grey" paint-order="fill" d="M 313.53826904296875 112.04545593261719 L 337.46173095703125 124.35606384277344 L 361.3851623535156 93.10606384277344 L 385.3086242675781 92.15908813476562 L 409.2320556640625 111.0984878540039 L 433.155517578125 104.46969604492188 L 457.0789489746094 92.15908813476562 L 481.00238037109375 106.36363983154297 L 504.92584228515625 75.11363983154297 L 528.8493041992188 76.06060791015625 L 552.772705078125 109.20454406738281" stroke-linejoin="bevel" stroke-miterlimit="10" stroke-width="0.5" clip-path="url(#XshPnrVwkOTh)"/><path fill="none" stroke="grey" paint-order="fill" d="M 313.53826904296875 112.04545593261719 L 337.46173095703125 88.3712158203125 L 361.3851623535156 93.10606384277344 L 385.3086242675781 91.21212005615234 L 409.2320556640625 98.78787994384766 L 433.155517578125 106.36363983154297 L 457.0789489746094 78.9015121459961 L 481.00238037109375 91.21212005615234 L 504.92584228515625 85.53030395507812 L 528.8493041992188 88.3712158203125 L 552.772705078125 90.26515197753906" stroke-linejoin="bevel" stroke-miterlimit="10" stroke-width="0.5" clip-path="url(#XEGmUqypMvPE)"/><path fill="none" stroke="rgb(128,128,128)" paint-order="fill" d="M 98.2272720336914 113.93939208984375 L 122.15071868896484 94.05303192138672 L 146.07415771484375 115.83333587646484 L 169.9976043701172 94.05303192138672 L 193.92105102539062 82.68939208984375 L 217.84449768066406 102.57575988769531 L 241.7679443359375 88.3712158203125 L 265.6913757324219 100.68181610107422 L 289.6148376464844 112.99242401123047 L 313.53826904296875 96.89393615722656" stroke-opacity="0.7490196078431373" stroke-linejoin="bevel" stroke-miterlimit="10" clip-path="url(#IlsaLePzfmZU)"/><path fill="none" stroke="grey" paint-order="fill" d="M 313.53826904296875 96.89393615722656 L 337.46173095703125 67.53787994384766 L 361.3851623535156 104.46969604492188 L 385.3086242675781 94.05303192138672 L 409.2320556640625 127.19696807861328 L 433.155517578125 82.68939208984375 L 457.0789489746094 107.31060791015625 L 481.00238037109375 102.57575988769531 L 504.92584228515625 83.63636016845703 L 528.8493041992188 95.94696807861328 L 552.772705078125 110.1515121459961" stroke-linejoin="bevel" stroke-miterlimit="10" stroke-width="0.5" clip-path="url(#JWhrovGeafhJ)"/><path fill="none" stroke="grey" paint-order="fill" d="M 313.53826904296875 96.89393615722656 L 337.46173095703125 72.2727279663086 L 361.3851623535156 91.21212005615234 L 385.3086242675781 77.95454406738281 L 409.2320556640625 76.06060791015625 L 433.155517578125 102.57575988769531 L 457.0789489746094 103.5227279663086 L 481.00238037109375 106.36363983154297 L 504.92584228515625 108.25757598876953 L 528.8493041992188 95 L 552.772705078125 81.74242401123047" stroke-linejoin="bevel" stroke-miterlimit="10" stroke-width="0.5" clip-path="url(#FiOnHHFLfKoD)"/><path fill="none" stroke="black" paint-order="fill" d="M 75.5 282.5 L 575.5 282.5" stroke-linejoin="bevel" stroke-miterlimit="10"/><path fill="none" stroke="black" paint-order="fill" d="M 98.5 288.5 L 98.5 280.5 M 217.5 288.5 L 217.5 280.5 M 337.5 288.5 L 337.5 280.5 M 457.5 288.5 L 457.5 280.5" stroke-linejoin="bevel" stroke-miterlimit="10"/><path fill="none" stroke="black" paint-order="fill" d="M 98.5 286.5 L 98.5 282.5 M 122.5 286.5 L 122.5 282.5 M 146.5 286.5 L 146.5 282.5 M 169.5 286.5 L 169.5 282.5 M 193.5 286.5 L 193.5 282.5 M 217.5 286.5 L 217.5 282.5 M 241.5 286.5 L 241.5 282.5 M 265.5 286.5 L 265.5 282.5 M 289.5 286.5 L 289.5 282.5 M 313.5 286.5 L 313.5 282.5 M 337.5 286.5 L 337.5 282.5 M 361.5 286.5 L 361.5 282.5 M 385.5 286.5 L 385.5 282.5 M 409.5 286.5 L 409.5 282.5 M 433.5 286.5 L 433.5 282.5 M 457.5 286.5 L 457.5 282.5 M 481.5 286.5 L 481.5 282.5 M 504.5 286.5 L 504.5 282.5 M 528.5 286.5 L 528.5 282.5 M 552.5 286.5 L 552.5 282.5" stroke-linejoin="bevel" stroke-miterlimit="10"/><text fill="#444444" stroke="none" font-family="helvetica" font-size="10pt" font-style="normal" font-weight="normal" text-decoration="normal" x="82.82727241516113" y="302.59368896484375" text-anchor="start" dominant-baseline="alphabetic" transform="matrix(1, 0, 0, 1, 0.5, 0.5)">2025</text><text fill="none" stroke="rgb(0,0,0)" font-family="helvetica" font-size="10pt" font-style="normal" font-weight="normal" text-decoration="normal" x="82.82727241516113" y="302.59368896484375" text-anchor="start" dominant-baseline="alphabetic" transform="matrix(1, 0, 0, 1, 0.5, 0.5)" stroke-opacity="0" stroke-linejoin="bevel" stroke-miterlimit="10">2025</text><text fill="#444444" stroke="none" font-family="helvetica" font-size="10pt" font-style="normal" font-weight="normal" text-decoration="normal" x="202.4444980621338" y="302.59368896484375" text-anchor="start" dominant-baseline="alphabetic" transform="matrix(1, 0, 0, 1, 0.5, 0.5)">2030</text><text fill="none" stroke="rgb(0,0,0)" font-family="helvetica" font-size="10pt" font-style="normal" font-weight="normal" text-decoration="normal" x="202.4444980621338" y="302.59368896484375" text-anchor="start" dominant-baseline="alphabetic" transform="matrix(1, 0, 0, 1, 0.5, 0.5)" stroke-opacity="0" stroke-linejoin="bevel" stroke-miterlimit="10">2030</text><text fill="#444444" stroke="none" font-family="helvetica" font-size="10pt" font-style="normal" font-weight="normal" text-decoration="normal" x="322.061731338501" y="302.59368896484375" text-anchor="start" dominant-baseline="alphabetic" transform="matrix(1, 0, 0, 1, 0.5, 0.5)">2035</text><text fill="none" stroke="rgb(0,0,0)" font-family="helvetica" font-size="10pt" font-style="normal" font-weight="normal" text-decoration="normal" x="322.061731338501" y="302.59368896484375" text-anchor="start" dominant-baseline="alphabetic" transform="matrix(1, 0, 0, 1, 0.5, 0.5)" stroke-opacity="0" stroke-linejoin="bevel" stroke-miterlimit="10">2035</text><text fill="#444444" stroke="none" font-family="helvetica" font-size="10pt" font-style="normal" font-weight="normal" text-decoration="normal" x="441.6789493560791" y="302.59368896484375" text-anchor="start" dominant-baseline="alphabetic" transform="matrix(1, 0, 0, 1, 0.5, 0.5)">2040</text><text fill="none" stroke="rgb(0,0,0)" font-family="helvetica" font-size="10pt" font-style="normal" font-weight="normal" text-decoration="normal" x="441.6789493560791" y="302.59368896484375" text-anchor="start" dominant-baseline="alphabetic" transform="matrix(1, 0, 0, 1, 0.5, 0.5)" stroke-opacity="0" stroke-linejoin="bevel" stroke-miterlimit="10">2040</text><text fill="#444444" stroke="none" font-family="helvetica" font-size="12pt" font-style="normal" font-weight="normal" text-decoration="normal" x="308.8333339691162" y="323.59368896484375" text-anchor="start" dominant-baseline="alphabetic" transform="matrix(1, 0, 0, 1, 0.5, 0.5)">Year</text><text fill="none" stroke="rgb(0,0,0)" font-family="helvetica" font-size="12pt" font-style="normal" font-weight="normal" text-decoration="normal" x="308.8333339691162" y="323.59368896484375" text-anchor="start" dominant-baseline="alphabetic" transform="matrix(1, 0, 0, 1, 0.5, 0.5)" stroke-opacity="0" stroke-linejoin="bevel" stroke-miterlimit="10">Year</text><path fill="none" stroke="black" paint-order="fill" d="M 75.5 282.5 L 75.5 32.5" stroke-linejoin="bevel" stroke-miterlimit="10"/><path fill="none" stroke="black" paint-order="fill" d="M 69.5 282.5 L 77.5 282.5 M 69.5 235.5 L 77.5 235.5 M 69.5 187.5 L 77.5 187.5 M 69.5 140.5 L 77.5 140.5 M 69.5 93.5 L 77.5 93.5 M 69.5 45.5 L 77.5 45.5" stroke-linejoin="bevel" stroke-miterlimit="10"/><path fill="none" stroke="black" paint-order="fill" d="M 71.5 282.5 L 75.5 282.5 M 71.5 273.5 L 75.5 273.5 M 71.5 263.5 L 75.5 263.5 M 71.5 254.5 L 75.5 254.5 M 71.5 244.5 L 75.5 244.5 M 71.5 235.5 L 75.5 235.5 M 71.5 225.5 L 75.5 225.5 M 71.5 216.5 L 75.5 216.5 M 71.5 206.5 L 75.5 206.5 M 71.5 197.5 L 75.5 197.5 M 71.5 187.5 L 75.5 187.5 M 71.5 178.5 L 75.5 178.5 M 71.5 168.5 L 75.5 168.5 M 71.5 159.5 L 75.5 159.5 M 71.5 149.5 L 75.5 149.5 M 71.5 140.5 L 75.5 140.5 M 71.5 130.5 L 75.5 130.5 M 71.5 121.5 L 75.5 121.5 M 71.5 112.5 L 75.5 112.5 M 71.5 102.5 L 75.5 102.5 M 71.5 93.5 L 75.5 93.5 M 71.5 83.5 L 75.5 83.5 M 71.5 74.5 L 75.5 74.5 M 71.5 64.5 L 75.5 64.5 M 71.5 55.5 L 75.5 55.5 M 71.5 45.5 L 75.5 45.5 M 71.5 36.5 L 75.5 36.5" stroke-linejoin="bevel" stroke-miterlimit="10"/><text fill="#444444" stroke="none" font-family="helvetica" font-size="10pt" font-style="normal" font-weight="normal" text-decoration="normal" x="56.55000019073486" y="286.7968444824219" text-anchor="start" dominant-baseline="alphabetic" transform="matrix(1, 0, 0, 1, 0.5, 0.5)">0</text><text fill="none" stroke="rgb(0,0,0)" font-family="helvetica" font-size="10pt" font-style="normal" font-weight="normal" text-decoration="normal" x="56.55000019073486" y="286.7968444824219" text-anchor="start" dominant-baseline="alphabetic" transform="matrix(1, 0, 0, 1, 0.5, 0.5)" stroke-opacity="0" stroke-linejoin="bevel" stroke-miterlimit="10">0</text><text fill="#444444" stroke="none" font-family="helvetica" font-size="10pt" font-style="normal" font-weight="normal" text-decoration="normal" x="49.10000038146973" y="239.4483642578125" text-anchor="start" dominant-baseline="alphabetic" transform="matrix(1, 0, 0, 1, 0.5, 0.5)">50</text><text fill="none" stroke="rgb(0,0,0)" font-family="helvetica" font-size="10pt" font-style="normal" font-weight="normal" text-decoration="normal" x="49.10000038146973" y="239.4483642578125" text-anchor="start" dominant-baseline="alphabetic" transform="matrix(1, 0, 0, 1, 0.5, 0.5)" stroke-opacity="0" stroke-linejoin="bevel" stroke-miterlimit="10">50</text><text fill="#444444" stroke="none" font-family="helvetica" font-size="10pt" font-style="normal" font-weight="normal" text-decoration="normal" x="41.64999961853027" y="192.09986877441406" text-anchor="start" dominant-baseline="alphabetic" transform="matrix(1, 0, 0, 1, 0.5, 0.5)">100</text><text fill="none" stroke="rgb(0,0,0)" font-family="helvetica" font-size="10pt" font-style="normal" font-weight="normal" text-decoration="normal" x="41.64999961853027" y="192.09986877441406" text-anchor="start" dominant-baseline="alphabetic" transform="matrix(1, 0, 0, 1, 0.5, 0.5)" stroke-opacity="0" stroke-linejoin="bevel" stroke-miterlimit="10">100</text><text fill="#444444" stroke="none" font-family="helvetica" font-size="10pt" font-style="normal" font-weight="normal" text-decoration="normal" x="41.64999961853027" y="144.7513885498047" text-anchor="start" dominant-baseline="alphabetic" transform="matrix(1, 0, 0, 1, 0.5, 0.5)">150</text><text fill="none" stroke="rgb(0,0,0)" font-family="helvetica" font-size="10pt" font-style="normal" font-weight="normal" text-decoration="normal" x="41.64999961853027" y="144.7513885498047" text-anchor="start" dominant-baseline="alphabetic" transform="matrix(1, 0, 0, 1, 0.5, 0.5)" stroke-opacity="0" stroke-linejoin="bevel" stroke-miterlimit="10">150</text><text fill="#444444" stroke="none" font-family="helvetica" font-size="10pt" font-style="normal" font-weight="normal" text-decoration="normal" x="41.64999961853027" y="97.40290832519531" text-anchor="start" dominant-baseline="alphabetic" transform="matrix(1, 0, 0, 1, 0.5, 0.5)">200</text><text fill="none" stroke="rgb(0,0,0)" font-family="helvetica" font-size="10pt" font-style="normal" font-weight="normal" text-decoration="normal" x="41.64999961853027" y="97.40290832519531" text-anchor="start" dominant-baseline="alphabetic" transform="matrix(1, 0, 0, 1, 0.5, 0.5)" stroke-opacity="0" stroke-linejoin="bevel" stroke-miterlimit="10">200</text><text fill="#444444" stroke="none" font-family="helvetica" font-size="10pt" font-style="normal" font-weight="normal" text-decoration="normal" x="41.64999961853027" y="50.054420471191406" text-anchor="start" dominant-baseline="alphabetic" transform="matrix(1, 0, 0, 1, 0.5, 0.5)">250</text><text fill="none" stroke="rgb(0,0,0)" font-family="helvetica" font-size="10pt" font-style="normal" font-weight="normal" text-decoration="normal" x="41.64999961853027" y="50.054420471191406" text-anchor="start" dominant-baseline="alphabetic" transform="matrix(1, 0, 0, 1, 0.5, 0.5)" stroke-opacity="0" stroke-linejoin="bevel" stroke-miterlimit="10">250</text><text fill="#444444" stroke="none" font-family="helvetica" font-size="12pt" font-style="normal" font-weight="normal" text-decoration="normal" x="-73.07499885559082" y="153" text-anchor="start" dominant-baseline="alphabetic" transform="matrix(6.123233995736766e-17, -1, 1, 6.123233995736766e-17, -122.85000038146973, 191.14999961853027)">Days suitable for transmission</text><text fill="none" stroke="rgb(0,0,0)" font-family="helvetica" font-size="12pt" font-style="normal" font-weight="normal" text-decoration="normal" x="-73.07499885559082" y="153" text-anchor="start" dominant-baseline="alphabetic" transform="matrix(6.123233995736766e-17, -1, 1, 6.123233995736766e-17, -122.85000038146973, 191.14999961853027)" stroke-opacity="0" stroke-linejoin="bevel" stroke-miterlimit="10">Days suitable for transmission</text><path fill="rgb(255,255,255)" stroke="rgb(229,229,229)" paint-order="fill" d="M 480.183349609375 207.5 L 565.5000152587891 207.5 L 565.5000152587891 272.5 L 480.183349609375 272.5 L 480.183349609375 207.5 Z" fill-opacity="0.9490196078431372" clip-path="url(#LmtwLsfxQLJk)" stroke-opacity="0.5019607843137255" stroke-linejoin="bevel" stroke-miterlimit="10"/><g clip-path="url(#LmtwLsfxQLJk)"><g transform="matrix(1, 0, 0, 1, 490.683349609375, 218)"><path fill="none" stroke="#30a2da" paint-order="fill" d="M 0.5 10.5 L 20.5 10.5" stroke-linejoin="bevel" stroke-miterlimit="10" stroke-width="2"/></g></g><g clip-path="url(#LmtwLsfxQLJk)"><text fill="#444444" stroke="none" font-family="helvetica" font-size="13px" font-style="normal" font-weight="normal" text-decoration="normal" x="515.683349609375" y="232" text-anchor="start" dominant-baseline="alphabetic" transform="matrix(1, 0, 0, 1, 0.5, 0.5)">ID 001</text></g><g clip-path="url(#LmtwLsfxQLJk)"><text fill="none" stroke="rgb(0,0,0)" font-family="helvetica" font-size="13px" font-style="normal" font-weight="normal" text-decoration="normal" x="515.683349609375" y="232" text-anchor="start" dominant-baseline="alphabetic" transform="matrix(1, 0, 0, 1, 0.5, 0.5)" stroke-opacity="0" stroke-linejoin="bevel" stroke-miterlimit="10">ID 001</text></g><g clip-path="url(#LmtwLsfxQLJk)"><g transform="matrix(1, 0, 0, 1, 490.683349609375, 241)"><path fill="none" stroke="#fc4f30" paint-order="fill" d="M 0.5 10.5 L 20.5 10.5" stroke-linejoin="bevel" stroke-miterlimit="10" stroke-width="2"/></g></g><g clip-path="url(#LmtwLsfxQLJk)"><text fill="#444444" stroke="none" font-family="helvetica" font-size="13px" font-style="normal" font-weight="normal" text-decoration="normal" x="515.683349609375" y="255" text-anchor="start" dominant-baseline="alphabetic" transform="matrix(1, 0, 0, 1, 0.5, 0.5)">ID 006</text></g><g clip-path="url(#LmtwLsfxQLJk)"><text fill="none" stroke="rgb(0,0,0)" font-family="helvetica" font-size="13px" font-style="normal" font-weight="normal" text-decoration="normal" x="515.683349609375" y="255" text-anchor="start" dominant-baseline="alphabetic" transform="matrix(1, 0, 0, 1, 0.5, 0.5)" stroke-opacity="0" stroke-linejoin="bevel" stroke-miterlimit="10">ID 006</text></g><text fill="black" stroke="none" font-family="helvetica" font-size="14pt" font-style="normal" font-weight="normal" text-decoration="normal" x="0" y="15" text-anchor="start" dominant-baseline="alphabetic" transform="matrix(1, 0, 0, 1, 5.5, 7.5)">H. Sydney</text><text fill="none" stroke="rgb(0,0,0)" font-family="helvetica" font-size="14pt" font-style="normal" font-weight="normal" text-decoration="normal" x="0" y="15" text-anchor="start" dominant-baseline="alphabetic" transform="matrix(1, 0, 0, 1, 5.5, 7.5)" stroke-opacity="0" stroke-linejoin="bevel" stroke-miterlimit="10">H. Sydney</text></svg>