<svg version="1.1" xmlns="http://www.w3.org/2000/svg" width="600" height="329"><defs><clipPath id="qAIiKFiOASsV"><path fill="none" stroke="none" d="M 70.5 30.5 L 570.5 30.5 L 570.5 280.5 L 70.5 280.5 L 70.5 30.5 Z"/></clipPath><clipPath id="tpRPEMWCKCqK"><path fill="none" stroke="none" d="M 70.5 30.5 L 570.5 30.5 L 570.5 280.5 L 70.5 280.5 L 70.5 30.5 Z"/></clipPath><clipPath id="luryugUKMDWP"><path fill="none" stroke="none" d="M 70.5 30.5 L 570.5 30.5 L 570.5 280.5 L 70.5 280.5 L 70.5 30.5 Z"/></clipPath><clipPath id="VNIcWaRsAUIU"><path fill="none" stroke="none" d="M 70.5 30.5 L 570.5 30.5 L 570.5 280.5 L 70.5 280.5 L 70.5 30.5 Z"/></clipPath><clipPath id="MrNIVBMvoGlT"><path fill="none" stroke="none" d="M 70.5 30.5 L 570.5 30.5 L 570.5 280.5 L 70.5 280.5 L 70.5 30.5 Z"/></clipPath><clipPath id="pXMdhUInuNAt"><path fill="none" stroke="none" d="M 70.5 30.5 L 570.5 30.5 L 570.5 280.5 L 70.5 280.5 L 70.5 30.5 Z"/></clipPath><clipPath id="IMcPhPeRZekc"><path fill="none" stroke="none" d="M 70.5 30.5 L 570.5 30.5 L 570.5 280.5 L 70.5 280.5 L 70.5 30.5 Z"/></clipPath><clipPath id="NeQltBvzUJcw"><path fill="none" stroke="none" d="M 70.5 30.5 L 570.5 30.5 L 570.5 280.5 L 70.5 280.5 L 70.5 30.5 Z"/></clipPath><clipPath id="EoFTzEbmoNIV"><path fill="none" stroke="none" d="M 70.5 30.5 L 570.5 30.5 L 570.5 280.5 L 70.5 280.5 L 70.5 30.5 Z"/></clipPath><clipPath id="cwuZnnzrOhss"><path fill="none" stroke="none" d="M 70.5 30.5 L 570.5 30.5 L 570.5 280.5 L 70.5 280.5 L 70.5 30.5 Z"/></clipPath><clipPath id="IzOBIezAJEkx"><path fill="none" stroke="none" d="M 70.5 30.5 L 570.5 30.5 L 570.5 280.5 L 70.5 280.5 L 70.5 30.5 Z"/></clipPath><clipPath id="uQGURREgWoUH"><path fill="none" stroke="none" d="M 70.5 30.5 L 570.5 30.5 L 570.5 280.5 L 70.5 280.5 L 70.5 30.5 Z"/></clipPath><clipPath id="bWatnLAySrEJ"><path fill="none" stroke="none" d="M 70.5 30.5 L 570.5 30.5 L 570.5 280.5 L 70.5 280.5 L 70.5 30.5 Z"/></clipPath><clipPath id="paXWaqkauzhk"><path fill="none" stroke="none" d="M 70.5 30.5 L 570.5 30.5 L 570.5 280.5 L 70.5 280.5 L 70.5 30.5 Z"/></clipPath><clipPath id="NLlbaZpfaMUJ"><path fill="none" stroke="none" d="M 70.5 30.5 L 570.5 30.5 L 570.5 280.5 L 70.5 280.5 L 70.5 30.5 Z"/></clipPath><clipPath id="iUwETumTtdiC"><path fill="none" stroke="none" d="M 70.5 30.5 L 570.5 30.5 L 570.5 280.5 L 70.5 280.5 L 70.5 30.5 Z"/></clipPath><clipPath id="wmxlVNRXZoJa"><path fill="none" stroke="none" d="M 70.5 30.5 L 570.5 30.5 L 570.5 280.5 L 70.5 280.5 L 70.5 30.5 Z"/></clipPath><clipPath id="RPgCTWhvGGMZ"><path fill="none" stroke="none" d="M 70.5 30.5 L 570.5 30.5 L 570.5 280.5 L 70.5 280.5 L 70.5 30.5 Z"/></clipPath><clipPath id="VFAMDKtgPPcw"><path fill="none" stroke="none" d="M 70.5 30.5 L 570.5 30.5 L 570.5 280.5 L 70.5 280.5 L 70.5 30.5 Z"/></clipPath><clipPath id="kTtIPOfdSspg"><path fill="none" stroke="none" d="M 70.5 30.5 L 570.5 30.5 L 570.5 280.5 L 70.5 280.5 L 70.5 30.5 Z"/></clipPath><clipPath id="WdqPMXUckLxw"><path fill="none" stroke="none" d="M 70.5 30.5 L 570.5 30.5 L 570.5 280.5 L 70.5 280.5 L 70.5 30.5 Z"/></clipPath><clipPath id="FqAmFdlzyeTm"><path fill="none" stroke="none" d="M 70.5 30.5 L 570.5 30.5 L 570.5 280.5 L 70.5 280.5 L 70.5 30.5 Z"/></clipPath><clipPath id="wGlAnewhsIBP"><path fill="none" stroke="none" d="M 70.5 30.5 L 570.5 30.5 L 570.5 280.5 L 70.5 280.5 L 70.5 30.5 Z"/></clipPath></defs><path fill="none" stroke="#e5e5e5" paint-order="fill" d="M 70.5 30.5 L 570.5 30.5 L 570.5 280.5 L 70.5 280.5 L 70.5 30.5 Z" stroke-linejoin="bevel" stroke-miterlimit="10"/><path fill="none" stroke="black" paint-order="fill" d="M 332.46172248803487 30.5 L 332.46172248803487 280.5" stroke-linejoin="bevel" stroke-miterlimit="10" stroke-width="3" stroke-dasharray="6" clip-path="url(#luryugUKMDWP)"/><path fill="none" stroke="#9467bd" paint-order="fill" d="M 93.2272720336914 105.5688705444336 L 117.15071868896484 91.79476928710938 L 141.07415771484375 98.68181610107422 L 164.9976043701172 106.94628143310547 L 188.92105102539062 94.5495834350586 L 212.84449768066406 84.90771484375 L 236.7679443359375 87.66253662109375 L 260.6913757324219 94.5495834350586 L 284.6148376464844 73.888427734375 L 308.53826904296875 90.4173583984375" stroke-linejoin="bevel" stroke-miterlimit="10" stroke-width="2" clip-path="url(#VNIcWaRsAUIU)"/><path fill="none" stroke="#9467bd" paint-order="fill" d="M 93.2272720336914 105.5688705444336 L 117.15071868896484 91.79476928710938 L 141.07415771484375 98.68181610107422 L 164.9976043701172 106.94628143310547 L 188.92105102539062 94.5495834350586 L 212.84449768066406 84.90771484375 L 236.7679443359375 87.66253662109375 L 260.6913757324219 94.5495834350586 L 284.6148376464844 73.888427734375 L 308.53826904296875 90.4173583984375" stroke-linejoin="bevel" stroke-miterlimit="10" stroke-width="2" stroke-dasharray="6" clip-path="url(#MrNIVBMvoGlT)"/><path fill="none" stroke="#30a2da" paint-order="fill" d="M 308.53826904296875 90.4173583984375 L 332.46173095703125 101.43663787841797 L 356.3851623535156 84.90771484375 L 380.3086242675781 86.28512573242188 L 404.2320556640625 117.96556854248047 L 428.155517578125 93.17217254638672 L 452.0789489746094 72.51101684570312 L 476.00238037109375 100.0592269897461 L 499.92584228515625 58.736915588378906 L 523.8493041992188 90.4173583984375 L 547.772705078125 75.26583862304688" stroke-linejoin="bevel" stroke-miterlimit="10" stroke-width="2" clip-path="url(#pXMdhUInuNAt)"/><path fill="none" stroke="#30a2da" paint-order="fill" d="M 332.46173095703125 99.23278045654297 L 356.3851623535156 96.7534408569336 L 380.3086242675781 94.27410125732422 L 404.2320556640625 91.79476928710938 L 428.155517578125 89.3154296875 L 452.0789489746094 86.83609008789062 L 476.00238037109375 84.35675048828125 L 499.92584228515625 81.87741088867188 L 523.8493041992188 79.3980712890625 L 547.772705078125 76.91873168945312" stroke-linejoin="bevel" stroke-miterlimit="10" stroke-width="2" stroke-dasharray="6" clip-path="url(#IMcPhPeRZekc)"/><path fill="none" stroke="#fc4f30" paint-order="fill" d="M 308.53826904296875 90.4173583984375 L 332.46173095703125 68.3787841796875 L 356.3851623535156 53.227272033691406 L 380.3086242675781 84.90771484375 L 404.2320556640625 108.32369232177734 L 428.155517578125 87.66253662109375 L 452.0789489746094 109.70110321044922 L 476.00238037109375 95.92699432373047 L 499.92584228515625 94.5495834350586 L 523.8493041992188 87.66253662109375 L 547.772705078125 115.21074676513672" stroke-linejoin="bevel" stroke-miterlimit="10" stroke-width="2" clip-path="url(#NeQltBvzUJcw)"/><path fill="none" stroke="#fc4f30" paint-order="fill" d="M 332.46173095703125 71.58439636230469 L 356.3851623535156 75.80010986328125 L 380.3086242675781 80.01581573486328 L 404.2320556640625 84.23152923583984 L 428.155517578125 88.4472427368164 L 452.0789489746094 92.66294860839844 L 476.00238037109375 96.878662109375 L 499.92584228515625 101.09437561035156 L 523.8493041992188 105.3100814819336 L 547.772705078125 109.52579498291016" stroke-linejoin="bevel" stroke-miterlimit="10" stroke-width="2" stroke-dasharray="6" clip-path="url(#EoFTzEbmoNIV)"/><path fill="none" stroke="rgb(128,128,128)" paint-order="fill" d="M 93.2272720336914 102.81404876708984 L 117.15071868896484 67.00138092041016 L 141.07415771484375 83.53030395507812 L 164.9976043701172 78.02066040039062 L 188.92105102539062 94.5495834350586 L 212.84449768066406 89.03994750976562 L 236.7679443359375 64.24655532836914 L 260.6913757324219 94.5495834350586 L 284.6148376464844 68.3787841796875 L 308.53826904296875 67.00138092041016" stroke-opacity="0.7490196078431373" stroke-linejoin="bevel" stroke-miterlimit="10" clip-path="url(#cwuZnnzrOhss)"/><path fill="none" stroke="grey" paint-order="fill" d="M 308.53826904296875 67.00138092041016 L 332.46173095703125 71.13360595703125 L 356.3851623535156 60.11432647705078 L 380.3086242675781 104.19145965576172 L 404.2320556640625 76.64324951171875 L 428.155517578125 68.3787841796875 L 452.0789489746094 119.34297180175781 L 476.00238037109375 82.15289306640625 L 499.92584228515625 93.17217254638672 L 523.8493041992188 71.13360595703125 L 547.772705078125 94.5495834350586" stroke-linejoin="bevel" stroke-miterlimit="10" stroke-width="0.5" clip-path="url(#IzOBIezAJEkx)"/><path fill="none" stroke="grey" paint-order="fill" d="M 308.53826904296875 67.00138092041016 L 332.46173095703125 89.03994750976562 L 356.3851623535156 87.66253662109375 L 380.3086242675781 76.64324951171875 L 404.2320556640625 69.75619506835938 L 428.155517578125 71.13360595703125 L 452.0789489746094 80.77548217773438 L 476.00238037109375 94.5495834350586 L 499.92584228515625 131.7396697998047 L 523.8493041992188 100.0592269897461 L 547.772705078125 86.28512573242188" stroke-linejoin="bevel" stroke-miterlimit="10" stroke-width="0.5" clip-path="url(#uQGURREgWoUH)"/><path fill="none" stroke="rgb(128,128,128)" paint-order="fill" d="M 93.2272720336914 86.28512573242188 L 117.15071868896484 90.4173583984375 L 141.07415771484375 100.0592269897461 L 164.9976043701172 79.3980712890625 L 188.92105102539062 79.3980712890625 L 212.84449768066406 79.3980712890625 L 236.7679443359375 86.28512573242188 L 260.6913757324219 78.02066040039062 L 284.6148376464844 79.3980712890625 L 308.53826904296875 122.09779357910156" stroke-opacity="0.7490196078431373" stroke-linejoin="bevel" stroke-miterlimit="10" clip-path="url(#bWatnLAySrEJ)"/><path fill="none" stroke="grey" paint-order="fill" d="M 308.53826904296875 122.09779357910156 L 332.46173095703125 86.28512573242188 L 356.3851623535156 86.28512573242188 L 380.3086242675781 73.888427734375 L 404.2320556640625 100.0592269897461 L 428.155517578125 79.3980712890625 L 452.0789489746094 84.90771484375 L 476.00238037109375 112.45592498779297 L 499.92584228515625 108.32369232177734 L 523.8493041992188 91.79476928710938 L 547.772705078125 90.4173583984375" stroke-linejoin="bevel" stroke-miterlimit="10" stroke-width="0.5" clip-path="url(#paXWaqkauzhk)"/><path fill="none" stroke="grey" paint-order="fill" d="M 308.53826904296875 122.09779357910156 L 332.46173095703125 90.4173583984375 L 356.3851623535156 95.92699432373047 L 380.3086242675781 76.64324951171875 L 404.2320556640625 93.17217254638672 L 428.155517578125 83.53030395507812 L 452.0789489746094 68.3787841796875 L 476.00238037109375 106.94628143310547 L 499.92584228515625 100.0592269897461 L 523.8493041992188 87.66253662109375 L 547.772705078125 115.21074676513672" stroke-linejoin="bevel" stroke-miterlimit="10" stroke-width="0.5" clip-path="url(#NLlbaZpfaMUJ)"/><path fill="none" stroke="rgb(128,128,128)" paint-order="fill" d="M 93.2272720336914 62.869144439697266 L 117.15071868896484 120.72038269042969 L 141.07415771484375 97.30440521240234 L 164.9976043701172 98.68181610107422 L 188.92105102539062 91.79476928710938 L 212.84449768066406 106.94628143310547 L 236.7679443359375 69.75619506835938 L 260.6913757324219 75.26583862304688 L 284.6148376464844 101.43663787841797 L 308.53826904296875 90.4173583984375" stroke-opacity="0.7490196078431373" stroke-linejoin="bevel" stroke-miterlimit="10" clip-path="url(#iUwETumTtdiC)"/><path fill="none" stroke="grey" paint-order="fill" d="M 308.53826904296875 90.4173583984375 L 332.46173095703125 97.30440521240234 L 356.3851623535156 80.77548217773438 L 380.3086242675781 68.3787841796875 L 404.2320556640625 113.83333587646484 L 428.155517578125 95.92699432373047 L 452.0789489746094 80.77548217773438 L 476.00238037109375 71.13360595703125 L 499.92584228515625 112.45592498779297 L 523.8493041992188 101.43663787841797 L 547.772705078125 83.53030395507812" stroke-linejoin="bevel" stroke-miterlimit="10" stroke-width="0.5" clip-path="url(#wmxlVNRXZoJa)"/><path fill="none" stroke="grey" paint-order="fill" d="M 308.53826904296875 90.4173583984375 L 332.46173095703125 82.15289306640625 L 356.3851623535156 113.83333587646484 L 380.3086242675781 123.47520446777344 L 404.2320556640625 111.0785140991211 L 428.155517578125 69.75619506835938 L 452.0789489746094 94.5495834350586 L 476.00238037109375 79.3980712890625 L 499.92584228515625 100.0592269897461 L 523.8493041992188 78.02066040039062 L 547.772705078125 94.5495834350586" stroke-linejoin="bevel" stroke-miterlimit="10" stroke-width="0.5" clip-path="url(#RPgCTWhvGGMZ)"/><path fill="none" stroke="rgb(128,128,128)" paint-order="fill" d="M 93.2272720336914 94.5495834350586 L 117.15071868896484 80.77548217773438 L 141.07415771484375 101.43663787841797 L 164.9976043701172 102.81404876708984 L 188.92105102539062 112.45592498779297 L 212.84449768066406 86.28512573242188 L 236.7679443359375 73.888427734375 L 260.6913757324219 83.53030395507812 L 284.6148376464844 95.92699432373047 L 308.53826904296875 67.00138092041016" stroke-opacity="0.7490196078431373" stroke-linejoin="bevel" stroke-miterlimit="10" clip-path="url(#VFAMDKtgPPcw)"/><path fill="none" stroke="grey" paint-order="fill" d="M 308.53826904296875 67.00138092041016 L 332.46173095703125 111.0785140991211 L 356.3851623535156 119.34297180175781 L 380.3086242675781 90.4173583984375 L 404.2320556640625 80.77548217773438 L 428.155517578125 83.53030395507812 L 452.0789489746094 62.869144439697266 L 476.00238037109375 75.26583862304688 L 499.92584228515625 82.15289306640625 L 523.8493041992188 83.53030395507812 L 547.772705078125 113.83333587646484" stroke-linejoin="bevel" stroke-miterlimit="10" stroke-width="0.5" clip-path="url(#kTtIPOfdSspg)"/><path fill="none" stroke="grey" paint-order="fill" d="M 308.53826904296875 67.00138092041016 L 332.46173095703125 76.64324951171875 L 356.3851623535156 94.5495834350586 L 380.3086242675781 106.94628143310547 L 404.2320556640625 89.03994750976562 L 428.155517578125 67.00138092041016 L 452.0789489746094 94.5495834350586 L 476.00238037109375 97.30440521240234 L 499.92584228515625 86.28512573242188 L 523.8493041992188 104.19145965576172 L 547.772705078125 87.66253662109375" stroke-linejoin="bevel" stroke-miterlimit="10" stroke-width="0.5" clip-path="url(#WdqPMXUckLxw)"/><path fill="none" stroke="black" paint-order="fill" d="M 70.5 280.5 L 570.5 280.5" stroke-linejoin="bevel" stroke-miterlimit="10"/><path fill="none" stroke="black" paint-order="fill" d="M 93.5 286.5 L 93.5 278.5 M 212.5 286.5 L 212.5 278.5 M 332.5 286.5 L 332.5 278.5 M 452.5 286.5 L 452.5 278.5" stroke-linejoin="bevel" stroke-miterlimit="10"/><path fill="none" stroke="black" paint-order="fill" d="M 93.5 284.5 L 93.5 280.5 M 117.5 284.5 L 117.5 280.5 M 141.5 284.5 L 141.5 280.5 M 164.5 284.5 L 164.5 280.5 M 188.5 284.5 L 188.5 280.5 M 212.5 284.5 L 212.5 280.5 M 236.5 284.5 L 236.5 280.5 M 260.5 284.5 L 260.5 280.5 M 284.5 284.5 L 284.5 280.5 M 308.5 284.5 L 308.5 280.5 M 332.5 284.5 L 332.5 280.5 M 356.5 284.5 L 356.5 280.5 M 380.5 284.5 L 380.5 280.5 M 404.5 284.5 L 404.5 280.5 M 428.5 284.5 L 428.5 280.5 M 452.5 284.5 L 452.5 280.5 M 476.5 284.5 L 476.5 280.5 M 499.5 284.5 L 499.5 280.5 M 523.5 284.5 L 523.5 280.5 M 547.5 284.5 L 547.5 280.5" stroke-linejoin="bevel" stroke-miterlimit="10"/><text fill="#444444" stroke="none" font-family="helvetica" font-size="10pt" font-style="normal" font-weight="normal" text-decoration="normal" x="77.82727241516113" y="300.59368896484375" text-anchor="start" dominant-baseline="alphabetic" transform="matrix(1, 0, 0, 1, 0.5, 0.5)">2025</text><text fill="none" stroke="rgb(0,0,0)" font-family="helvetica" font-size="10pt" font-style="normal" font-weight="normal" text-decoration="normal" x="77.82727241516113" y="300.59368896484375" text-anchor="start" dominant-baseline="alphabetic" transform="matrix(1, 0, 0, 1, 0.5, 0.5)" stroke-opacity="0" stroke-linejoin="bevel" stroke-miterlimit="10">2025</text><text fill="#444444" stroke="none" font-family="helvetica" font-size="10pt" font-style="normal" font-weight="normal" text-decoration="normal" x="197.4444980621338" y="300.59368896484375" text-anchor="start" dominant-baseline="alphabetic" transform="matrix(1, 0, 0, 1, 0.5, 0.5)">2030</text><text fill="none" stroke="rgb(0,0,0)" font-family="helvetica" font-size="10pt" font-style="normal" font-weight="normal" text-decoration="normal" x="197.4444980621338" y="300.59368896484375" text-anchor="start" dominant-baseline="alphabetic" transform="matrix(1, 0, 0, 1, 0.5, 0.5)" stroke-opacity="0" stroke-linejoin="bevel" stroke-miterlimit="10">2030</text><text fill="#444444" stroke="none" font-family="helvetica" font-size="10pt" font-style="normal" font-weight="normal" text-decoration="normal" x="317.061731338501" y="300.59368896484375" text-anchor="start" dominant-baseline="alphabetic" transform="matrix(1, 0, 0, 1, 0.5, 0.5)">2035</text><text fill="none" stroke="rgb(0,0,0)" font-family="helvetica" font-size="10pt" font-style="normal" font-weight="normal" text-decoration="normal" x="317.061731338501" y="300.59368896484375" text-anchor="start" dominant-baseline="alphabetic" transform="matrix(1, 0, 0, 1, 0.5, 0.5)" stroke-opacity="0" stroke-linejoin="bevel" stroke-miterlimit="10">2035</text><text fill="#444444" stroke="none" font-family="helvetica" font-size="10pt" font-style="normal" font-weight="normal" text-decoration="normal" x="436.6789493560791" y="300.59368896484375" text-anchor="start" dominant-baseline="alphabetic" transform="matrix(1, 0, 0, 1, 0.5, 0.5)">2040</text><text fill="none" stroke="rgb(0,0,0)" font-family="helvetica" font-size="10pt" font-style="normal" font-weight="normal" text-decoration="normal" x="436.6789493560791" y="300.59368896484375" text-anchor="start" dominant-baseline="alphabetic" transform="matrix(1, 0, 0, 1, 0.5, 0.5)" stroke-opacity="0" stroke-linejoin="bevel" stroke-miterlimit="10">2040</text><text fill="#444444" stroke="none" font-family="helvetica" font-size="12pt" font-style="normal" font-weight="normal" text-decoration="normal" x="303.8333339691162" y="321.59368896484375" text-anchor="start" dominant-baseline="alphabetic" transform="matrix(1, 0, 0, 1, 0.5, 0.5)">Year</text><text fill="none" stroke="rgb(0,0,0)" font-family="helvetica" font-size="12pt" font-style="normal" font-weight="normal" text-decoration="normal" x="303.8333339691162" y="321.59368896484375" text-anchor="start" dominant-baseline="alphabetic" transform="matrix(1, 0, 0, 1, 0.5, 0.5)" stroke-opacity="0" stroke-linejoin="bevel" stroke-miterlimit="10">Year</text><path fill="none" stroke="black" paint-order="fill" d="M 70.5 280.5 L 70.5 30.5" stroke-linejoin="bevel" stroke-miterlimit="10"/><path fill="none" stroke="black" paint-order="fill" d="M 64.5 280.5 L 72.5 280.5 M 64.5 211.5 L 72.5 211.5 M 64.5 142.5 L 72.5 142.5 M 64.5 73.5 L 72.5 73.5" stroke-linejoin="bevel" stroke-miterlimit="10"/><path fill="none" stroke="black" paint-order="fill" d="M 66.5 280.5 L 70.5 280.5 M 66.5 266.5 L 70.5 266.5 M 66.5 252.5 L 70.5 252.5 M 66.5 239.5 L 70.5 239.5 M 66.5 225.5 L 70.5 225.5 M 66.5 211.5 L 70.5 211.5 M 66.5 197.5 L 70.5 197.5 M 66.5 184.5 L 70.5 184.5 M 66.5 170.5 L 70.5 170.5 M 66.5 156.5 L 70.5 156.5 M 66.5 142.5 L 70.5 142.5 M 66.5 128.5 L 70.5 128.5 M 66.5 115.5 L 70.5 115.5 M 66.5 101.5 L 70.5 101.5 M 66.5 87.5 L 70.5 87.5 M 66.5 73.5 L 70.5 73.5 M 66.5 60.5 L 70.5 60.5 M 66.5 46.5 L 70.5 46.5 M 66.5 32.5 L 70.5 32.5" stroke-linejoin="bevel" stroke-miterlimit="10"/><text fill="#444444" stroke="none" font-family="helvetica" font-size="10pt" font-style="normal" font-weight="normal" text-decoration="normal" x="51.55000019073486" y="284.7968444824219" text-anchor="start" dominant-baseline="alphabetic" transform="matrix(1, 0, 0, 1, 0.5, 0.5)">0</text><text fill="none" stroke="rgb(0,0,0)" font-family="helvetica" font-size="10pt" font-style="normal" font-weight="normal" text-decoration="normal" x="51.55000019073486" y="284.7968444824219" text-anchor="start" dominant-baseline="alphabetic" transform="matrix(1, 0, 0, 1, 0.5, 0.5)" stroke-opacity="0" stroke-linejoin="bevel" stroke-miterlimit="10">0</text><text fill="#444444" stroke="none" font-family="helvetica" font-size="10pt" font-style="normal" font-weight="normal" text-decoration="normal" x="44.10000038146973" y="215.9263153076172" text-anchor="start" dominant-baseline="alphabetic" transform="matrix(1, 0, 0, 1, 0.5, 0.5)">50</text><text fill="none" stroke="rgb(0,0,0)" font-family="helvetica" font-size="10pt" font-style="normal" font-weight="normal" text-decoration="normal" x="44.10000038146973" y="215.9263153076172" text-anchor="start" dominant-baseline="alphabetic" transform="matrix(1, 0, 0, 1, 0.5, 0.5)" stroke-opacity="0" stroke-linejoin="bevel" stroke-miterlimit="10">50</text><text fill="#444444" stroke="none" font-family="helvetica" font-size="10pt" font-style="normal" font-weight="normal" text-decoration="normal" x="36.64999961853027" y="147.05580139160156" text-anchor="start" dominant-baseline="alphabetic" transform="matrix(1, 0, 0, 1, 0.5, 0.5)">100</text><text fill="none" stroke="rgb(0,0,0)" font-family="helvetica" font-size="10pt" font-style="normal" font-weight="normal" text-decoration="normal" x="36.64999961853027" y="147.05580139160156" text-anchor="start" dominant-baseline="alphabetic" transform="matrix(1, 0, 0, 1, 0.5, 0.5)" stroke-opacity="0" stroke-linejoin="bevel" stroke-miterlimit="10">100</text><text fill="#444444" stroke="none" font-family="helvetica" font-size="10pt" font-style="normal" font-weight="normal" text-decoration="normal" x="36.64999961853027" y="78.18527221679688" text-anchor="start" dominant-baseline="alphabetic" transform="matrix(1, 0, 0, 1, 0.5, 0.5)">150</text><text fill="none" stroke="rgb(0,0,0)" font-family="helvetica" font-size="10pt" font-style="normal" font-weight="normal" text-decoration="normal" x="36.64999961853027" y="78.18527221679688" text-anchor="start" dominant-baseline="alphabetic" transform="matrix(1, 0, 0, 1, 0.5, 0.5)" stroke-opacity="0" stroke-linejoin="bevel" stroke-miterlimit="10">150</text><text fill="#444444" stroke="none" font-family="helvetica" font-size="12pt" font-style="normal" font-weight="normal" text-decoration="normal" x="-78.07499885559082" y="151" text-anchor="start" dominant-baseline="alphabetic" transform="matrix(6.123233995736766e-17, -1, 1, 6.123233995736766e-17, -125.85000038146973, 184.14999961853027)">Days suitable for transmission</text><text fill="none" stroke="rgb(0,0,0)" font-family="helvetica" font-size="12pt" font-style="normal" font-weight="normal" text-decoration="normal" x="-78.07499885559082" y="151" text-anchor="start" dominant-baseline="alphabetic" transform="matrix(6.123233995736766e-17, -1, 1, 6.123233995736766e-17, -125.85000038146973, 184.14999961853027)" stroke-opacity="0" stroke-linejoin="bevel" stroke-miterlimit="10">Days suitable for transmission</text><path fill="rgb(255,255,255)" stroke="rgb(229,229,229)" paint-order="fill" d="M 475.183349609375 205.5 L 560.5000152587891 205.5 L 560.5000152587891 270.5 L 475.183349609375 270.5 L 475.183349609375 205.5 Z" fill-opacity="0.9490196078431372" clip-path="url(#FqAmFdlzyeTm)" stroke-opacity="0.5019607843137255" stroke-linejoin="bevel" stroke-miterlimit="10"/><g clip-path="url(#FqAmFdlzyeTm)"><g transform="matrix(1, 0, 0, 1, 485.683349609375, 216)"><path fill="none" stroke="#30a2da" paint-order="fill" d="M 0.5 10.5 L 20.5 10.5" stroke-linejoin="bevel" stroke-miterlimit="10" stroke-width="2"/></g></g><g clip-path="url(#FqAmFdlzyeTm)"><text fill="#444444" stroke="none" font-family="helvetica" font-size="13px" font-style="normal" font-weight="normal" text-decoration="normal" x="510.683349609375" y="230" text-anchor="start" dominant-baseline="alphabetic" transform="matrix(1, 0, 0, 1, 0.5, 0.5)">ID 001</text></g><g clip-path="url(#FqAmFdlzyeTm)"><text fill="none" stroke="rgb(0,0,0)" font-family="helvetica" font-size="13px" font-style="normal" font-weight="normal" text-decoration="normal" x="510.683349609375" y="230" text-anchor="start" dominant-baseline="alphabetic" transform="matrix(1, 0, 0, 1, 0.5, 0.5)" stroke-opacity="0" stroke-linejoin="bevel" stroke-miterlimit="10">ID 001</text></g><g clip-path="url(#FqAmFdlzyeTm)"><g transform="matrix(1, 0, 0, 1, 485.683349609375, 239)"><path fill="none" stroke="#fc4f30" paint-order="fill" d="M 0.5 10.5 L 20.5 10.5" stroke-linejoin="bevel" stroke-miterlimit="10" stroke-width="2"/></g></g><g clip-path="url(#FqAmFdlzyeTm)"><text fill="#444444" stroke="none" font-family="helvetica" font-size="13px" font-style="normal" font-weight="normal" text-decoration="normal" x="510.683349609375" y="253" text-anchor="start" dominant-baseline="alphabetic" transform="matrix(1, 0, 0, 1, 0.5, 0.5)">ID 006</text></g><g clip-path="url(#FqAmFdlzyeTm)"><text fill="none" stroke="rgb(0,0,0)" font-family="helvetica" font-size="13px" font-style="normal" font-weight="normal" text-decoration="normal" x="510.683349609375" y="253" text-anchor="start" dominant-baseline="alphabetic" transform="matrix(1, 0, 0, 1, 0.5, 0.5)" stroke-opacity="0" stroke-linejoin="bevel" stroke-miterlimit="10">ID 006</text></g><text fill="black" stroke="none" font-family="helvetica" font-size="14pt" font-style="normal" font-weight="normal" text-decoration="normal" x="0" y="15" text-anchor="start" dominant-baseline="alphabetic" transform="matrix(1, 0, 0, 1, 5.5, 5.5)">D. Santiago de Chile</text><text fill="none" stroke="rgb(0,0,0)" font-family="helvetica" font-size="14pt" font-style="normal" font-weight="normal" text-decoration="normal" x="0" y="15" text-anchor="start" dominant-baseline="alphabetic" transform="matrix(1, 0, 0, 1, 5.5, 5.5)" stroke-opacity="0" stroke-linejoin="bevel" stroke-miterlimit="10">D. Santiago de Chile</text></svg>