<svg version="1.1" xmlns="http://www.w3.org/2000/svg" width="605" height="331"><defs><clipPath id="CQHQPeDPeQtm"><path fill="none" stroke="none" d="M 75.5 32.5 L 575.5 32.5 L 575.5 282.5 L 75.5 282.5 L 75.5 32.5 Z"/></clipPath><clipPath id="bKTqsgiOGuNK"><path fill="none" stroke="none" d="M 75.5 32.5 L 575.5 32.5 L 575.5 282.5 L 75.5 282.5 L 75.5 32.5 Z"/></clipPath><clipPath id="qhpXLOoNcNlh"><path fill="none" stroke="none" d="M 75.5 32.5 L 575.5 32.5 L 575.5 282.5 L 75.5 282.5 L 75.5 32.5 Z"/></clipPath><clipPath id="mkBbpccPolEz"><path fill="none" stroke="none" d="M 75.5 32.5 L 575.5 32.5 L 575.5 282.5 L 75.5 282.5 L 75.5 32.5 Z"/></clipPath><clipPath id="FwDXbrzoXNsr"><path fill="none" stroke="none" d="M 75.5 32.5 L 575.5 32.5 L 575.5 282.5 L 75.5 282.5 L 75.5 32.5 Z"/></clipPath><clipPath id="JTKotpIdHXmQ"><path fill="none" stroke="none" d="M 75.5 32.5 L 575.5 32.5 L 575.5 282.5 L 75.5 282.5 L 75.5 32.5 Z"/></clipPath><clipPath id="OWELSoFNDAdX"><path fill="none" stroke="none" d="M 75.5 32.5 L 575.5 32.5 L 575.5 282.5 L 75.5 282.5 L 75.5 32.5 Z"/></clipPath><clipPath id="tGywyiTXNZcX"><path fill="none" stroke="none" d="M 75.5 32.5 L 575.5 32.5 L 575.5 282.5 L 75.5 282.5 L 75.5 32.5 Z"/></clipPath><clipPath id="xCevlTnllKNK"><path fill="none" stroke="none" d="M 75.5 32.5 L 575.5 32.5 L 575.5 282.5 L 75.5 282.5 L 75.5 32.5 Z"/></clipPath><clipPath id="vEiDLXPBIVtc"><path fill="none" stroke="none" d="M 75.5 32.5 L 575.5 32.5 L 575.5 282.5 L 75.5 282.5 L 75.5 32.5 Z"/></clipPath><clipPath id="NcfQeKWXXzFK"><path fill="none" stroke="none" d="M 75.5 32.5 L 575.5 32.5 L 575.5 282.5 L 75.5 282.5 L 75.5 32.5 Z"/></clipPath><clipPath id="WLVePoIFEtEC"><path fill="none" stroke="none" d="M 75.5 32.5 L 575.5 32.5 L 575.5 282.5 L 75.5 282.5 L 75.5 32.5 Z"/></clipPath><clipPath id="RdRtVIZKKMQR"><path fill="none" stroke="none" d="M 75.5 32.5 L 575.5 32.5 L 575.5 282.5 L 75.5 282.5 L 75.5 32.5 Z"/></clipPath><clipPath id="awtTJteBLfFL"><path fill="none" stroke="none" d="M 75.5 32.5 L 575.5 32.5 L 575.5 282.5 L 75.5 282.5 L 75.5 32.5 Z"/></clipPath><clipPath id="ivrsrqHQdJTC"><path fill="none" stroke="none" d="M 75.5 32.5 L 575.5 32.5 L 575.5 282.5 L 75.5 282.5 L 75.5 32.5 Z"/></clipPath><clipPath id="geSFQTqlzdDy"><path fill="none" stroke="none" d="M 75.5 32.5 L 575.5 32.5 L 575.5 282.5 L 75.5 282.5 L 75.5 32.5 Z"/></clipPath><clipPath id="gDrTTWVKzIkI"><path fill="none" stroke="none" d="M 75.5 32.5 L 575.5 32.5 L 575.5 282.5 L 75.5 282.5 L 75.5 32.5 Z"/></clipPath><clipPath id="vsQpuzdKDvxa"><path fill="none" stroke="none" d="M 75.5 32.5 L 575.5 32.5 L 575.5 282.5 L 75.5 282.5 L 75.5 32.5 Z"/></clipPath><clipPath id="yLckRTwzfQif"><path fill="none" stroke="none" d="M 75.5 32.5 L 575.5 32.5 L 575.5 282.5 L 75.5 282.5 L 75.5 32.5 Z"/></clipPath><clipPath id="cpQXsPkhtdtT"><path fill="none" stroke="none" d="M 75.5 32.5 L 575.5 32.5 L 575.5 282.5 L 75.5 282.5 L 75.5 32.5 Z"/></clipPath><clipPath id="NZOkiaXoatZz"><path fill="none" stroke="none" d="M 75.5 32.5 L 575.5 32.5 L 575.5 282.5 L 75.5 282.5 L 75.5 32.5 Z"/></clipPath><clipPath id="SSSTCdAnvdio"><path fill="none" stroke="none" d="M 75.5 32.5 L 575.5 32.5 L 575.5 282.5 L 75.5 282.5 L 75.5 32.5 Z"/></clipPath><clipPath id="VvGCfyekSXvx"><path fill="none" stroke="none" d="M 75.5 32.5 L 575.5 32.5 L 575.5 282.5 L 75.5 282.5 L 75.5 32.5 Z"/></clipPath></defs><path fill="none" stroke="#e5e5e5" paint-order="fill" d="M 75.5 32.5 L 575.5 32.5 L 575.5 282.5 L 75.5 282.5 L 75.5 32.5 Z" stroke-linejoin="bevel" stroke-miterlimit="10"/><path fill="none" stroke="black" paint-order="fill" d="M 337.46172248803487 32.5 L 337.46172248803487 282.5" stroke-linejoin="bevel" stroke-miterlimit="10" stroke-width="3" stroke-dasharray="6" clip-path="url(#qhpXLOoNcNlh)"/><path fill="none" stroke="#9467bd" paint-order="fill" d="M 98.2272720336914 123.04251861572266 L 122.15071868896484 88.21847534179688 L 146.07415771484375 93.71701049804688 L 169.9976043701172 98.29911804199219 L 193.92105102539062 132.2067413330078 L 217.84449768066406 77.22140502929688 L 241.7679443359375 93.71701049804688 L 265.6913757324219 119.3768310546875 L 289.6148376464844 81.80352020263672 L 313.53826904296875 75.38856506347656" stroke-linejoin="bevel" stroke-miterlimit="10" stroke-width="2" clip-path="url(#mkBbpccPolEz)"/><path fill="none" stroke="#9467bd" paint-order="fill" d="M 98.2272720336914 123.04251861572266 L 122.15071868896484 88.21847534179688 L 146.07415771484375 93.71701049804688 L 169.9976043701172 98.29911804199219 L 193.92105102539062 132.2067413330078 L 217.84449768066406 77.22140502929688 L 241.7679443359375 93.71701049804688 L 265.6913757324219 119.3768310546875 L 289.6148376464844 81.80352020263672 L 313.53826904296875 75.38856506347656" stroke-linejoin="bevel" stroke-miterlimit="10" stroke-width="2" stroke-dasharray="6" clip-path="url(#FwDXbrzoXNsr)"/><path fill="none" stroke="#30a2da" paint-order="fill" d="M 313.53826904296875 75.38856506347656 L 337.46173095703125 86.38562774658203 L 361.3851623535156 81.80352020263672 L 385.3086242675781 70.80644989013672 L 409.2320556640625 96.46627807617188 L 433.155517578125 101.04838562011719 L 457.0789489746094 90.05132293701172 L 481.00238037109375 96.46627807617188 L 504.92584228515625 97.38269805908203 L 528.8493041992188 60.725807189941406 L 552.772705078125 98.29911804199219" stroke-linejoin="bevel" stroke-miterlimit="10" stroke-width="2" clip-path="url(#JTKotpIdHXmQ)"/><path fill="none" stroke="#30a2da" paint-order="fill" d="M 337.46173095703125 85.7191390991211 L 361.3851623535156 86.21345520019531 L 385.3086242675781 86.707763671875 L 409.2320556640625 87.20207977294922 L 433.155517578125 87.69639587402344 L 457.0789489746094 88.19070434570312 L 481.00238037109375 88.68502044677734 L 504.92584228515625 89.17932891845703 L 528.8493041992188 89.67364501953125 L 552.772705078125 90.16795349121094" stroke-linejoin="bevel" stroke-miterlimit="10" stroke-width="2" stroke-dasharray="6" clip-path="url(#OWELSoFNDAdX)"/><path fill="none" stroke="#fc4f30" paint-order="fill" d="M 313.53826904296875 75.38856506347656 L 337.46173095703125 112.96187591552734 L 361.3851623535156 79.05425262451172 L 385.3086242675781 89.13489532470703 L 409.2320556640625 107.46334075927734 L 433.155517578125 59.809383392333984 L 457.0789489746094 93.71701049804688 L 481.00238037109375 81.80352020263672 L 504.92584228515625 77.22140502929688 L 528.8493041992188 72.63929748535156 L 552.772705078125 96.46627807617188" stroke-linejoin="bevel" stroke-miterlimit="10" stroke-width="2" clip-path="url(#tGywyiTXNZcX)"/><path fill="none" stroke="#fc4f30" paint-order="fill" d="M 337.46173095703125 95.0999755859375 L 361.3851623535156 93.3060073852539 L 385.3086242675781 91.51203918457031 L 409.2320556640625 89.71807861328125 L 433.155517578125 87.92411041259766 L 457.0789489746094 86.13014221191406 L 481.00238037109375 84.33617401123047 L 504.92584228515625 82.5422134399414 L 528.8493041992188 80.74824523925781 L 552.772705078125 78.95427703857422" stroke-linejoin="bevel" stroke-miterlimit="10" stroke-width="2" stroke-dasharray="6" clip-path="url(#xCevlTnllKNK)"/><path fill="none" stroke="rgb(128,128,128)" paint-order="fill" d="M 98.2272720336914 94.63343048095703 L 122.15071868896484 93.71701049804688 L 146.07415771484375 87.30205535888672 L 169.9976043701172 97.38269805908203 L 193.92105102539062 78.13783264160156 L 217.84449768066406 88.21847534179688 L 241.7679443359375 106.54692077636719 L 265.6913757324219 74.47213745117188 L 289.6148376464844 79.97067260742188 L 313.53826904296875 83.63636016845703" stroke-opacity="0.7490196078431373" stroke-linejoin="bevel" stroke-miterlimit="10" clip-path="url(#vEiDLXPBIVtc)"/><path fill="none" stroke="grey" paint-order="fill" d="M 313.53826904296875 83.63636016845703 L 337.46173095703125 110.21260833740234 L 361.3851623535156 81.80352020263672 L 385.3086242675781 95.54985046386719 L 409.2320556640625 99.21554565429688 L 433.155517578125 82.71994018554688 L 457.0789489746094 106.54692077636719 L 481.00238037109375 92.80058288574219 L 504.92584228515625 68.9736099243164 L 528.8493041992188 92.80058288574219 L 552.772705078125 102.88123321533203" stroke-linejoin="bevel" stroke-miterlimit="10" stroke-width="0.5" clip-path="url(#NcfQeKWXXzFK)"/><path fill="none" stroke="grey" paint-order="fill" d="M 313.53826904296875 83.63636016845703 L 337.46173095703125 123.04251861572266 L 361.3851623535156 87.30205535888672 L 385.3086242675781 101.96480560302734 L 409.2320556640625 118.46041107177734 L 433.155517578125 106.54692077636719 L 457.0789489746094 85.46920776367188 L 481.00238037109375 67.14076232910156 L 504.92584228515625 117.54399108886719 L 528.8493041992188 61.64222717285156 L 552.772705078125 79.97067260742188" stroke-linejoin="bevel" stroke-miterlimit="10" stroke-width="0.5" clip-path="url(#WLVePoIFEtEC)"/><path fill="none" stroke="rgb(128,128,128)" paint-order="fill" d="M 98.2272720336914 95.54985046386719 L 122.15071868896484 98.29911804199219 L 146.07415771484375 85.46920776367188 L 169.9976043701172 112.96187591552734 L 193.92105102539062 102.88123321533203 L 217.84449768066406 80.88710021972656 L 241.7679443359375 93.71701049804688 L 265.6913757324219 94.63343048095703 L 289.6148376464844 62.558650970458984 L 313.53826904296875 90.96774291992188" stroke-opacity="0.7490196078431373" stroke-linejoin="bevel" stroke-miterlimit="10" clip-path="url(#RdRtVIZKKMQR)"/><path fill="none" stroke="grey" paint-order="fill" d="M 313.53826904296875 90.96774291992188 L 337.46173095703125 118.46041107177734 L 361.3851623535156 88.21847534179688 L 385.3086242675781 94.63343048095703 L 409.2320556640625 79.97067260742188 L 433.155517578125 82.71994018554688 L 457.0789489746094 95.54985046386719 L 481.00238037109375 100.13196563720703 L 504.92584228515625 101.04838562011719 L 528.8493041992188 83.63636016845703 L 552.772705078125 101.04838562011719" stroke-linejoin="bevel" stroke-miterlimit="10" stroke-width="0.5" clip-path="url(#awtTJteBLfFL)"/><path fill="none" stroke="grey" paint-order="fill" d="M 313.53826904296875 90.96774291992188 L 337.46173095703125 107.46334075927734 L 361.3851623535156 100.13196563720703 L 385.3086242675781 78.13783264160156 L 409.2320556640625 103.79765319824219 L 433.155517578125 107.46334075927734 L 457.0789489746094 69.89002990722656 L 481.00238037109375 97.38269805908203 L 504.92584228515625 91.88416290283203 L 528.8493041992188 92.80058288574219 L 552.772705078125 90.96774291992188" stroke-linejoin="bevel" stroke-miterlimit="10" stroke-width="0.5" clip-path="url(#ivrsrqHQdJTC)"/><path fill="none" stroke="rgb(128,128,128)" paint-order="fill" d="M 98.2272720336914 95.54985046386719 L 122.15071868896484 73.55571746826172 L 146.07415771484375 87.30205535888672 L 169.9976043701172 108.37976837158203 L 193.92105102539062 68.05718231201172 L 217.84449768066406 127.6246337890625 L 241.7679443359375 119.3768310546875 L 265.6913757324219 93.71701049804688 L 289.6148376464844 100.13196563720703 L 313.53826904296875 83.63636016845703" stroke-opacity="0.7490196078431373" stroke-linejoin="bevel" stroke-miterlimit="10" clip-path="url(#geSFQTqlzdDy)"/><path fill="none" stroke="grey" paint-order="fill" d="M 313.53826904296875 83.63636016845703 L 337.46173095703125 90.05132293701172 L 361.3851623535156 69.89002990722656 L 385.3086242675781 68.05718231201172 L 409.2320556640625 97.38269805908203 L 433.155517578125 101.96480560302734 L 457.0789489746094 73.55571746826172 L 481.00238037109375 82.71994018554688 L 504.92584228515625 78.13783264160156 L 528.8493041992188 104.71407318115234 L 552.772705078125 92.80058288574219" stroke-linejoin="bevel" stroke-miterlimit="10" stroke-width="0.5" clip-path="url(#gDrTTWVKzIkI)"/><path fill="none" stroke="grey" paint-order="fill" d="M 313.53826904296875 83.63636016845703 L 337.46173095703125 91.88416290283203 L 361.3851623535156 103.79765319824219 L 385.3086242675781 103.79765319824219 L 409.2320556640625 90.96774291992188 L 433.155517578125 62.558650970458984 L 457.0789489746094 106.54692077636719 L 481.00238037109375 93.71701049804688 L 504.92584228515625 89.13489532470703 L 528.8493041992188 107.46334075927734 L 552.772705078125 104.71407318115234" stroke-linejoin="bevel" stroke-miterlimit="10" stroke-width="0.5" clip-path="url(#vsQpuzdKDvxa)"/><path fill="none" stroke="rgb(128,128,128)" paint-order="fill" d="M 98.2272720336914 102.88123321533203 L 122.15071868896484 77.22140502929688 L 146.07415771484375 92.80058288574219 L 169.9976043701172 90.96774291992188 L 193.92105102539062 113.8782958984375 L 217.84449768066406 90.05132293701172 L 241.7679443359375 90.05132293701172 L 265.6913757324219 111.12903594970703 L 289.6148376464844 94.63343048095703 L 313.53826904296875 99.21554565429688" stroke-opacity="0.7490196078431373" stroke-linejoin="bevel" stroke-miterlimit="10" clip-path="url(#yLckRTwzfQif)"/><path fill="none" stroke="grey" paint-order="fill" d="M 313.53826904296875 99.21554565429688 L 337.46173095703125 105.63050079345703 L 361.3851623535156 112.04545593261719 L 385.3086242675781 94.63343048095703 L 409.2320556640625 113.8782958984375 L 433.155517578125 91.88416290283203 L 457.0789489746094 90.96774291992188 L 481.00238037109375 114.79472351074219 L 504.92584228515625 107.46334075927734 L 528.8493041992188 72.63929748535156 L 552.772705078125 55.227272033691406" stroke-linejoin="bevel" stroke-miterlimit="10" stroke-width="0.5" clip-path="url(#cpQXsPkhtdtT)"/><path fill="none" stroke="grey" paint-order="fill" d="M 313.53826904296875 99.21554565429688 L 337.46173095703125 111.12903594970703 L 361.3851623535156 108.37976837158203 L 385.3086242675781 98.29911804199219 L 409.2320556640625 87.30205535888672 L 433.155517578125 81.80352020263672 L 457.0789489746094 90.05132293701172 L 481.00238037109375 104.71407318115234 L 504.92584228515625 94.63343048095703 L 528.8493041992188 79.97067260742188 L 552.772705078125 67.14076232910156" stroke-linejoin="bevel" stroke-miterlimit="10" stroke-width="0.5" clip-path="url(#NZOkiaXoatZz)"/><path fill="none" stroke="black" paint-order="fill" d="M 75.5 282.5 L 575.5 282.5" stroke-linejoin="bevel" stroke-miterlimit="10"/><path fill="none" stroke="black" paint-order="fill" d="M 98.5 288.5 L 98.5 280.5 M 217.5 288.5 L 217.5 280.5 M 337.5 288.5 L 337.5 280.5 M 457.5 288.5 L 457.5 280.5" stroke-linejoin="bevel" stroke-miterlimit="10"/><path fill="none" stroke="black" paint-order="fill" d="M 98.5 286.5 L 98.5 282.5 M 122.5 286.5 L 122.5 282.5 M 146.5 286.5 L 146.5 282.5 M 169.5 286.5 L 169.5 282.5 M 193.5 286.5 L 193.5 282.5 M 217.5 286.5 L 217.5 282.5 M 241.5 286.5 L 241.5 282.5 M 265.5 286.5 L 265.5 282.5 M 289.5 286.5 L 289.5 282.5 M 313.5 286.5 L 313.5 282.5 M 337.5 286.5 L 337.5 282.5 M 361.5 286.5 L 361.5 282.5 M 385.5 286.5 L 385.5 282.5 M 409.5 286.5 L 409.5 282.5 M 433.5 286.5 L 433.5 282.5 M 457.5 286.5 L 457.5 282.5 M 481.5 286.5 L 481.5 282.5 M 504.5 286.5 L 504.5 282.5 M 528.5 286.5 L 528.5 282.5 M 552.5 286.5 L 552.5 282.5" stroke-linejoin="bevel" stroke-miterlimit="10"/><text fill="#444444" stroke="none" font-family="helvetica" font-size="10pt" font-style="normal" font-weight="normal" text-decoration="normal" x="82.82727241516113" y="302.59368896484375" text-anchor="start" dominant-baseline="alphabetic" transform="matrix(1, 0, 0, 1, 0.5, 0.5)">2025</text><text fill="none" stroke="rgb(0,0,0)" font-family="helvetica" font-size="10pt" font-style="normal" font-weight="normal" text-decoration="normal" x="82.82727241516113" y="302.59368896484375" text-anchor="start" dominant-baseline="alphabetic" transform="matrix(1, 0, 0, 1, 0.5, 0.5)" stroke-opacity="0" stroke-linejoin="bevel" stroke-miterlimit="10">2025</text><text fill="#444444" stroke="none" font-family="helvetica" font-size="10pt" font-style="normal" font-weight="normal" text-decoration="normal" x="202.4444980621338" y="302.59368896484375" text-anchor="start" dominant-baseline="alphabetic" transform="matrix(1, 0, 0, 1, 0.5, 0.5)">2030</text><text fill="none" stroke="rgb(0,0,0)" font-family="helvetica" font-size="10pt" font-style="normal" font-weight="normal" text-decoration="normal" x="202.4444980621338" y="302.59368896484375" text-anchor="start" dominant-baseline="alphabetic" transform="matrix(1, 0, 0, 1, 0.5, 0.5)" stroke-opacity="0" stroke-linejoin="bevel" stroke-miterlimit="10">2030</text><text fill="#444444" stroke="none" font-family="helvetica" font-size="10pt" font-style="normal" font-weight="normal" text-decoration="normal" x="322.061731338501" y="302.59368896484375" text-anchor="start" dominant-baseline="alphabetic" transform="matrix(1, 0, 0, 1, 0.5, 0.5)">2035</text><text fill="none" stroke="rgb(0,0,0)" font-family="helvetica" font-size="10pt" font-style="normal" font-weight="normal" text-decoration="normal" x="322.061731338501" y="302.59368896484375" text-anchor="start" dominant-baseline="alphabetic" transform="matrix(1, 0, 0, 1, 0.5, 0.5)" stroke-opacity="0" stroke-linejoin="bevel" stroke-miterlimit="10">2035</text><text fill="#444444" stroke="none" font-family="helvetica" font-size="10pt" font-style="normal" font-weight="normal" text-decoration="normal" x="441.6789493560791" y="302.59368896484375" text-anchor="start" dominant-baseline="alphabetic" transform="matrix(1, 0, 0, 1, 0.5, 0.5)">2040</text><text fill="none" stroke="rgb(0,0,0)" font-family="helvetica" font-size="10pt" font-style="normal" font-weight="normal" text-decoration="normal" x="441.6789493560791" y="302.59368896484375" text-anchor="start" dominant-baseline="alphabetic" transform="matrix(1, 0, 0, 1, 0.5, 0.5)" stroke-opacity="0" stroke-linejoin="bevel" stroke-miterlimit="10">2040</text><text fill="#444444" stroke="none" font-family="helvetica" font-size="12pt" font-style="normal" font-weight="normal" text-decoration="normal" x="308.8333339691162" y="323.59368896484375" text-anchor="start" dominant-baseline="alphabetic" transform="matrix(1, 0, 0, 1, 0.5, 0.5)">Year</text><text fill="none" stroke="rgb(0,0,0)" font-family="helvetica" font-size="12pt" font-style="normal" font-weight="normal" text-decoration="normal" x="308.8333339691162" y="323.59368896484375" text-anchor="start" dominant-baseline="alphabetic" transform="matrix(1, 0, 0, 1, 0.5, 0.5)" stroke-opacity="0" stroke-linejoin="bevel" stroke-miterlimit="10">Year</text><path fill="none" stroke="black" paint-order="fill" d="M 75.5 282.5 L 75.5 32.5" stroke-linejoin="bevel" stroke-miterlimit="10"/><path fill="none" stroke="black" paint-order="fill" d="M 69.5 282.5 L 77.5 282.5 M 69.5 236.5 L 77.5 236.5 M 69.5 190.5 L 77.5 190.5 M 69.5 145.5 L 77.5 145.5 M 69.5 99.5 L 77.5 99.5 M 69.5 53.5 L 77.5 53.5" stroke-linejoin="bevel" stroke-miterlimit="10"/><path fill="none" stroke="black" paint-order="fill" d="M 71.5 282.5 L 75.5 282.5 M 71.5 273.5 L 75.5 273.5 M 71.5 264.5 L 75.5 264.5 M 71.5 255.5 L 75.5 255.5 M 71.5 245.5 L 75.5 245.5 M 71.5 236.5 L 75.5 236.5 M 71.5 227.5 L 75.5 227.5 M 71.5 218.5 L 75.5 218.5 M 71.5 209.5 L 75.5 209.5 M 71.5 200.5 L 75.5 200.5 M 71.5 190.5 L 75.5 190.5 M 71.5 181.5 L 75.5 181.5 M 71.5 172.5 L 75.5 172.5 M 71.5 163.5 L 75.5 163.5 M 71.5 154.5 L 75.5 154.5 M 71.5 145.5 L 75.5 145.5 M 71.5 135.5 L 75.5 135.5 M 71.5 126.5 L 75.5 126.5 M 71.5 117.5 L 75.5 117.5 M 71.5 108.5 L 75.5 108.5 M 71.5 99.5 L 75.5 99.5 M 71.5 90.5 L 75.5 90.5 M 71.5 80.5 L 75.5 80.5 M 71.5 71.5 L 75.5 71.5 M 71.5 62.5 L 75.5 62.5 M 71.5 53.5 L 75.5 53.5 M 71.5 44.5 L 75.5 44.5 M 71.5 35.5 L 75.5 35.5" stroke-linejoin="bevel" stroke-miterlimit="10"/><text fill="#444444" stroke="none" font-family="helvetica" font-size="10pt" font-style="normal" font-weight="normal" text-decoration="normal" x="56.55000019073486" y="286.7968444824219" text-anchor="start" dominant-baseline="alphabetic" transform="matrix(1, 0, 0, 1, 0.5, 0.5)">0</text><text fill="none" stroke="rgb(0,0,0)" font-family="helvetica" font-size="10pt" font-style="normal" font-weight="normal" text-decoration="normal" x="56.55000019073486" y="286.7968444824219" text-anchor="start" dominant-baseline="alphabetic" transform="matrix(1, 0, 0, 1, 0.5, 0.5)" stroke-opacity="0" stroke-linejoin="bevel" stroke-miterlimit="10">0</text><text fill="#444444" stroke="none" font-family="helvetica" font-size="10pt" font-style="normal" font-weight="normal" text-decoration="normal" x="49.10000038146973" y="240.97572326660156" text-anchor="start" dominant-baseline="alphabetic" transform="matrix(1, 0, 0, 1, 0.5, 0.5)">50</text><text fill="none" stroke="rgb(0,0,0)" font-family="helvetica" font-size="10pt" font-style="normal" font-weight="normal" text-decoration="normal" x="49.10000038146973" y="240.97572326660156" text-anchor="start" dominant-baseline="alphabetic" transform="matrix(1, 0, 0, 1, 0.5, 0.5)" stroke-opacity="0" stroke-linejoin="bevel" stroke-miterlimit="10">50</text><text fill="#444444" stroke="none" font-family="helvetica" font-size="10pt" font-style="normal" font-weight="normal" text-decoration="normal" x="41.64999961853027" y="195.1546173095703" text-anchor="start" dominant-baseline="alphabetic" transform="matrix(1, 0, 0, 1, 0.5, 0.5)">100</text><text fill="none" stroke="rgb(0,0,0)" font-family="helvetica" font-size="10pt" font-style="normal" font-weight="normal" text-decoration="normal" x="41.64999961853027" y="195.1546173095703" text-anchor="start" dominant-baseline="alphabetic" transform="matrix(1, 0, 0, 1, 0.5, 0.5)" stroke-opacity="0" stroke-linejoin="bevel" stroke-miterlimit="10">100</text><text fill="#444444" stroke="none" font-family="helvetica" font-size="10pt" font-style="normal" font-weight="normal" text-decoration="normal" x="41.64999961853027" y="149.33349609375" text-anchor="start" dominant-baseline="alphabetic" transform="matrix(1, 0, 0, 1, 0.5, 0.5)">150</text><text fill="none" stroke="rgb(0,0,0)" font-family="helvetica" font-size="10pt" font-style="normal" font-weight="normal" text-decoration="normal" x="41.64999961853027" y="149.33349609375" text-anchor="start" dominant-baseline="alphabetic" transform="matrix(1, 0, 0, 1, 0.5, 0.5)" stroke-opacity="0" stroke-linejoin="bevel" stroke-miterlimit="10">150</text><text fill="#444444" stroke="none" font-family="helvetica" font-size="10pt" font-style="normal" font-weight="normal" text-decoration="normal" x="41.64999961853027" y="103.51239013671875" text-anchor="start" dominant-baseline="alphabetic" transform="matrix(1, 0, 0, 1, 0.5, 0.5)">200</text><text fill="none" stroke="rgb(0,0,0)" font-family="helvetica" font-size="10pt" font-style="normal" font-weight="normal" text-decoration="normal" x="41.64999961853027" y="103.51239013671875" text-anchor="start" dominant-baseline="alphabetic" transform="matrix(1, 0, 0, 1, 0.5, 0.5)" stroke-opacity="0" stroke-linejoin="bevel" stroke-miterlimit="10">200</text><text fill="#444444" stroke="none" font-family="helvetica" font-size="10pt" font-style="normal" font-weight="normal" text-decoration="normal" x="41.64999961853027" y="57.6912727355957" text-anchor="start" dominant-baseline="alphabetic" transform="matrix(1, 0, 0, 1, 0.5, 0.5)">250</text><text fill="none" stroke="rgb(0,0,0)" font-family="helvetica" font-size="10pt" font-style="normal" font-weight="normal" text-decoration="normal" x="41.64999961853027" y="57.6912727355957" text-anchor="start" dominant-baseline="alphabetic" transform="matrix(1, 0, 0, 1, 0.5, 0.5)" stroke-opacity="0" stroke-linejoin="bevel" stroke-miterlimit="10">250</text><text fill="#444444" stroke="none" font-family="helvetica" font-size="12pt" font-style="normal" font-weight="normal" text-decoration="normal" x="-73.07499885559082" y="153" text-anchor="start" dominant-baseline="alphabetic" transform="matrix(6.123233995736766e-17, -1, 1, 6.123233995736766e-17, -122.85000038146973, 191.14999961853027)">Days suitable for transmission</text><text fill="none" stroke="rgb(0,0,0)" font-family="helvetica" font-size="12pt" font-style="normal" font-weight="normal" text-decoration="normal" x="-73.07499885559082" y="153" text-anchor="start" dominant-baseline="alphabetic" transform="matrix(6.123233995736766e-17, -1, 1, 6.123233995736766e-17, -122.85000038146973, 191.14999961853027)" stroke-opacity="0" stroke-linejoin="bevel" stroke-miterlimit="10">Days suitable for transmission</text><path fill="rgb(255,255,255)" stroke="rgb(229,229,229)" paint-order="fill" d="M 480.183349609375 207.5 L 565.5000152587891 207.5 L 565.5000152587891 272.5 L 480.183349609375 272.5 L 480.183349609375 207.5 Z" fill-opacity="0.9490196078431372" clip-path="url(#SSSTCdAnvdio)" stroke-opacity="0.5019607843137255" stroke-linejoin="bevel" stroke-miterlimit="10"/><g clip-path="url(#SSSTCdAnvdio)"><g transform="matrix(1, 0, 0, 1, 490.683349609375, 218)"><path fill="none" stroke="#30a2da" paint-order="fill" d="M 0.5 10.5 L 20.5 10.5" stroke-linejoin="bevel" stroke-miterlimit="10" stroke-width="2"/></g></g><g clip-path="url(#SSSTCdAnvdio)"><text fill="#444444" stroke="none" font-family="helvetica" font-size="13px" font-style="normal" font-weight="normal" text-decoration="normal" x="515.683349609375" y="232" text-anchor="start" dominant-baseline="alphabetic" transform="matrix(1, 0, 0, 1, 0.5, 0.5)">ID 001</text></g><g clip-path="url(#SSSTCdAnvdio)"><text fill="none" stroke="rgb(0,0,0)" font-family="helvetica" font-size="13px" font-style="normal" font-weight="normal" text-decoration="normal" x="515.683349609375" y="232" text-anchor="start" dominant-baseline="alphabetic" transform="matrix(1, 0, 0, 1, 0.5, 0.5)" stroke-opacity="0" stroke-linejoin="bevel" stroke-miterlimit="10">ID 001</text></g><g clip-path="url(#SSSTCdAnvdio)"><g transform="matrix(1, 0, 0, 1, 490.683349609375, 241)"><path fill="none" stroke="#fc4f30" paint-order="fill" d="M 0.5 10.5 L 20.5 10.5" stroke-linejoin="bevel" stroke-miterlimit="10" stroke-width="2"/></g></g><g clip-path="url(#SSSTCdAnvdio)"><text fill="#444444" stroke="none" font-family="helvetica" font-size="13px" font-style="normal" font-weight="normal" text-decoration="normal" x="515.683349609375" y="255" text-anchor="start" dominant-baseline="alphabetic" transform="matrix(1, 0, 0, 1, 0.5, 0.5)">ID 006</text></g><g clip-path="url(#SSSTCdAnvdio)"><text fill="none" stroke="rgb(0,0,0)" font-family="helvetica" font-size="13px" font-style="normal" font-weight="normal" text-decoration="normal" x="515.683349609375" y="255" text-anchor="start" dominant-baseline="alphabetic" transform="matrix(1, 0, 0, 1, 0.5, 0.5)" stroke-opacity="0" stroke-linejoin="bevel" stroke-miterlimit="10">ID 006</text></g><text fill="black" stroke="none" font-family="helvetica" font-size="14pt" font-style="normal" font-weight="normal" text-decoration="normal" x="0" y="15" text-anchor="start" dominant-baseline="alphabetic" transform="matrix(1, 0, 0, 1, 5.5, 7.5)">B. Los Angeles</text><text fill="none" stroke="rgb(0,0,0)" font-family="helvetica" font-size="14pt" font-style="normal" font-weight="normal" text-decoration="normal" x="0" y="15" text-anchor="start" dominant-baseline="alphabetic" transform="matrix(1, 0, 0, 1, 5.5, 7.5)" stroke-opacity="0" stroke-linejoin="bevel" stroke-miterlimit="10">B. Los Angeles</text></svg>