<svg version="1.1" xmlns="http://www.w3.org/2000/svg" width="600" height="334"><defs><clipPath id="doypSIBcNibl"><path fill="none" stroke="none" d="M 70.5 33.5 L 570.5 33.5 L 570.5 283.5 L 70.5 283.5 L 70.5 33.5 Z"/></clipPath><clipPath id="UqmZKTWDrMxb"><path fill="none" stroke="none" d="M 70.5 33.5 L 570.5 33.5 L 570.5 283.5 L 70.5 283.5 L 70.5 33.5 Z"/></clipPath><clipPath id="ZrpyhhXDiUgs"><path fill="none" stroke="none" d="M 70.5 33.5 L 570.5 33.5 L 570.5 283.5 L 70.5 283.5 L 70.5 33.5 Z"/></clipPath><clipPath id="HTsiSQIIHAkx"><path fill="none" stroke="none" d="M 70.5 33.5 L 570.5 33.5 L 570.5 283.5 L 70.5 283.5 L 70.5 33.5 Z"/></clipPath><clipPath id="QumRTTmZTcZU"><path fill="none" stroke="none" d="M 70.5 33.5 L 570.5 33.5 L 570.5 283.5 L 70.5 283.5 L 70.5 33.5 Z"/></clipPath><clipPath id="gKCuvkogauBD"><path fill="none" stroke="none" d="M 70.5 33.5 L 570.5 33.5 L 570.5 283.5 L 70.5 283.5 L 70.5 33.5 Z"/></clipPath><clipPath id="AaetzXcUDOZJ"><path fill="none" stroke="none" d="M 70.5 33.5 L 570.5 33.5 L 570.5 283.5 L 70.5 283.5 L 70.5 33.5 Z"/></clipPath><clipPath id="bOhbEnTzxMrU"><path fill="none" stroke="none" d="M 70.5 33.5 L 570.5 33.5 L 570.5 283.5 L 70.5 283.5 L 70.5 33.5 Z"/></clipPath><clipPath id="tDtdhLbCRGsE"><path fill="none" stroke="none" d="M 70.5 33.5 L 570.5 33.5 L 570.5 283.5 L 70.5 283.5 L 70.5 33.5 Z"/></clipPath><clipPath id="RzaTUufwzUdM"><path fill="none" stroke="none" d="M 70.5 33.5 L 570.5 33.5 L 570.5 283.5 L 70.5 283.5 L 70.5 33.5 Z"/></clipPath><clipPath id="SDNVaSyltMFG"><path fill="none" stroke="none" d="M 70.5 33.5 L 570.5 33.5 L 570.5 283.5 L 70.5 283.5 L 70.5 33.5 Z"/></clipPath><clipPath id="RDLTAoyKdQiD"><path fill="none" stroke="none" d="M 70.5 33.5 L 570.5 33.5 L 570.5 283.5 L 70.5 283.5 L 70.5 33.5 Z"/></clipPath><clipPath id="yvQzCTvZhCwV"><path fill="none" stroke="none" d="M 70.5 33.5 L 570.5 33.5 L 570.5 283.5 L 70.5 283.5 L 70.5 33.5 Z"/></clipPath><clipPath id="FlOXtKQfLWvP"><path fill="none" stroke="none" d="M 70.5 33.5 L 570.5 33.5 L 570.5 283.5 L 70.5 283.5 L 70.5 33.5 Z"/></clipPath><clipPath id="JnJdSPkUHXcl"><path fill="none" stroke="none" d="M 70.5 33.5 L 570.5 33.5 L 570.5 283.5 L 70.5 283.5 L 70.5 33.5 Z"/></clipPath><clipPath id="TXfIfCikCSHl"><path fill="none" stroke="none" d="M 70.5 33.5 L 570.5 33.5 L 570.5 283.5 L 70.5 283.5 L 70.5 33.5 Z"/></clipPath><clipPath id="BNCZUFywDwvI"><path fill="none" stroke="none" d="M 70.5 33.5 L 570.5 33.5 L 570.5 283.5 L 70.5 283.5 L 70.5 33.5 Z"/></clipPath><clipPath id="RGFtZQosNJwh"><path fill="none" stroke="none" d="M 70.5 33.5 L 570.5 33.5 L 570.5 283.5 L 70.5 283.5 L 70.5 33.5 Z"/></clipPath><clipPath id="nBSFpANsrdkJ"><path fill="none" stroke="none" d="M 70.5 33.5 L 570.5 33.5 L 570.5 283.5 L 70.5 283.5 L 70.5 33.5 Z"/></clipPath><clipPath id="taIkBSUUvAOl"><path fill="none" stroke="none" d="M 70.5 33.5 L 570.5 33.5 L 570.5 283.5 L 70.5 283.5 L 70.5 33.5 Z"/></clipPath><clipPath id="pXdhnuaZokEq"><path fill="none" stroke="none" d="M 70.5 33.5 L 570.5 33.5 L 570.5 283.5 L 70.5 283.5 L 70.5 33.5 Z"/></clipPath><clipPath id="SGGgCLlBbpZA"><path fill="none" stroke="none" d="M 70.5 33.5 L 570.5 33.5 L 570.5 283.5 L 70.5 283.5 L 70.5 33.5 Z"/></clipPath><clipPath id="RTnkXMSetyOZ"><path fill="none" stroke="none" d="M 70.5 33.5 L 570.5 33.5 L 570.5 283.5 L 70.5 283.5 L 70.5 33.5 Z"/></clipPath><clipPath id="PdTCdBZPoOCL"><path fill="none" stroke="none" d="M 70.5 33.5 L 570.5 33.5 L 570.5 283.5 L 70.5 283.5 L 70.5 33.5 Z"/></clipPath><clipPath id="VkGeRMfnlKZK"><path fill="none" stroke="none" d="M 70.5 33.5 L 570.5 33.5 L 570.5 283.5 L 70.5 283.5 L 70.5 33.5 Z"/></clipPath><clipPath id="HFXQBbuoLJkX"><path fill="none" stroke="none" d="M 70.5 33.5 L 570.5 33.5 L 570.5 283.5 L 70.5 283.5 L 70.5 33.5 Z"/></clipPath><clipPath id="LfIEdAxDMPDm"><path fill="none" stroke="none" d="M 70.5 33.5 L 570.5 33.5 L 570.5 283.5 L 70.5 283.5 L 70.5 33.5 Z"/></clipPath></defs><path fill="none" stroke="#e5e5e5" paint-order="fill" d="M 70.5 33.5 L 570.5 33.5 L 570.5 283.5 L 70.5 283.5 L 70.5 33.5 Z" stroke-linejoin="bevel" stroke-miterlimit="10"/><path fill="none" stroke="#30a2da" paint-order="fill" d="M 70.5 191.51100158691406 L 80.5 185.66339111328125 L 90.5 183.9013671875 L 100.5 179.94189453125 L 110.5 203.94384765625 L 120.5 202.55397033691406 L 130.5 179.4261932373047 L 140.5 178.83900451660156 L 150.5 186.8791046142578 L 160.5 180.0182342529297 L 170.5 166.5337371826172 L 180.5 166.68905639648438 L 190.5 170.7913818359375 L 200.5 153.0916290283203 L 210.5 151.33193969726562 L 220.5 167.5430145263672 L 230.5 161.39060974121094 L 240.5 150.27783203125 L 250.5 154.5382537841797 L 260.5 140.4387969970703 L 270.5 133.01210021972656 L 280.5 149.97711181640625 L 290.5 142.6346893310547 L 300.5 125.54724884033203 L 310.5 139.7412109375 L 320.5 127.5242691040039 L 330.5 148.1774139404297 L 340.5 148.87828063964844 L 350.5 123.26740264892578 L 360.5 112.52220153808594 L 370.5 114.64659881591797 L 380.5 101.83511352539062 L 390.5 96.8271484375 L 400.5 95.74100494384766 L 410.5 96.50505828857422 L 420.5 98.04798126220703 L 430.5 94.54344177246094 L 440.5 98.42793273925781 L 450.5 113.13064575195312 L 460.5 95.86601257324219 L 470.5 78.29735565185547 L 480.5 73.15901184082031 L 490.5 85.24546813964844 L 500.5 81.67202758789062 L 510.5 75.52565002441406 L 520.5 76.50897979736328 L 530.5 72.00428771972656 L 540.5 83.13217163085938 L 550.5 85.09516143798828 L 560.5 82.90999603271484" stroke-linejoin="bevel" stroke-miterlimit="10" stroke-width="0.5" clip-path="url(#ZrpyhhXDiUgs)"/><path fill="none" stroke="#fc4f30" paint-order="fill" d="M 270.5 130.7865753173828 L 280.5 151.69151306152344 L 290.5 154.49462890625 L 300.5 147.83192443847656 L 310.5 142.18435668945312 L 320.5 149.9214630126953 L 330.5 158.68455505371094 L 340.5 161.78338623046875 L 350.5 156.9341278076172 L 360.5 154.57847595214844 L 370.5 162.7525634765625 L 380.5 154.20742797851562 L 390.5 143.0346221923828 L 400.5 154.9612579345703 L 410.5 151.4070587158203 L 420.5 151.30125427246094 L 430.5 170.8883514404297 L 440.5 164.94692993164062 L 450.5 150.87130737304688 L 460.5 153.39776611328125 L 470.5 144.09832763671875 L 480.5 143.0519561767578 L 490.5 150.01315307617188 L 500.5 151.66586303710938 L 510.5 143.73362731933594 L 520.5 140.6080780029297 L 530.5 139.32334899902344 L 540.5 164.29800415039062 L 550.5 156.3953857421875 L 560.5 154.79043579101562" stroke-linejoin="bevel" stroke-miterlimit="10" stroke-width="0.5" clip-path="url(#HTsiSQIIHAkx)"/><path fill="none" stroke="#30a2da" paint-order="fill" d="M 70.5 193.11557006835938 L 80.5 188.58119201660156 L 90.5 180.80116271972656 L 100.5 180.0121307373047 L 110.5 177.29505920410156 L 120.5 181.89646911621094 L 130.5 180.6460418701172 L 140.5 178.64923095703125 L 150.5 175.11822509765625 L 160.5 187.73916625976562 L 170.5 173.60658264160156 L 180.5 172.2750701904297 L 190.5 166.09194946289062 L 200.5 167.958984375 L 210.5 159.98561096191406 L 220.5 143.35592651367188 L 230.5 140.53480529785156 L 240.5 165.13478088378906 L 250.5 164.65306091308594 L 260.5 154.60040283203125 L 270.5 137.1247100830078 L 280.5 150.84768676757812 L 290.5 146.52622985839844 L 300.5 136.62380981445312 L 310.5 144.83038330078125 L 320.5 142.5966796875 L 330.5 139.43296813964844 L 340.5 129.14190673828125 L 350.5 131.04722595214844 L 360.5 131.48194885253906 L 370.5 123.3692398071289 L 380.5 137.8111114501953 L 390.5 135.02488708496094 L 400.5 120.4875259399414 L 410.5 107.73358154296875 L 420.5 97.75035095214844 L 430.5 94.47085571289062 L 440.5 98.59894561767578 L 450.5 98.06190490722656 L 460.5 93.63156127929688 L 470.5 102.82929229736328 L 480.5 78.42597198486328 L 490.5 86.34098052978516 L 500.5 96.78556060791016 L 510.5 76.6606216430664 L 520.5 77.2617416381836 L 530.5 74.49919891357422 L 540.5 75.19145202636719 L 550.5 87.2065200805664 L 560.5 81.50720977783203" stroke-linejoin="bevel" stroke-miterlimit="10" stroke-width="0.5" clip-path="url(#QumRTTmZTcZU)"/><path fill="none" stroke="#fc4f30" paint-order="fill" d="M 270.5 138.8171844482422 L 280.5 154.5360565185547 L 290.5 146.22308349609375 L 300.5 144.4647674560547 L 310.5 156.69161987304688 L 320.5 148.6997528076172 L 330.5 145.67967224121094 L 340.5 156.5953826904297 L 350.5 159.46083068847656 L 360.5 159.5731201171875 L 370.5 152.31103515625 L 380.5 155.53817749023438 L 390.5 149.13604736328125 L 400.5 155.60447692871094 L 410.5 143.06631469726562 L 420.5 141.6783905029297 L 430.5 153.0584259033203 L 440.5 152.05072021484375 L 450.5 165.6162109375 L 460.5 167.34864807128906 L 470.5 161.2233123779297 L 480.5 179.323486328125 L 490.5 170.2942352294922 L 500.5 149.10194396972656 L 510.5 144.4532928466797 L 520.5 144.14512634277344 L 530.5 161.1080780029297 L 540.5 156.84854125976562 L 550.5 151.40365600585938 L 560.5 171.0590362548828" stroke-linejoin="bevel" stroke-miterlimit="10" stroke-width="0.5" clip-path="url(#gKCuvkogauBD)"/><path fill="none" stroke="#30a2da" paint-order="fill" d="M 70.5 187.9288330078125 L 80.5 185.31222534179688 L 90.5 181.7408905029297 L 100.5 179.21835327148438 L 110.5 178.3646697998047 L 120.5 174.68679809570312 L 130.5 181.91180419921875 L 140.5 167.6162872314453 L 150.5 169.09048461914062 L 160.5 172.5714111328125 L 170.5 172.4550018310547 L 180.5 170.59030151367188 L 190.5 158.7863311767578 L 200.5 157.75218200683594 L 210.5 167.03939819335938 L 220.5 167.8265838623047 L 230.5 143.96224975585938 L 240.5 146.2110595703125 L 250.5 157.79629516601562 L 260.5 148.50375366210938 L 270.5 153.17037963867188 L 280.5 141.5238494873047 L 290.5 121.42292022705078 L 300.5 113.51097106933594 L 310.5 111.21037292480469 L 320.5 132.58563232421875 L 330.5 142.4544677734375 L 340.5 119.6789779663086 L 350.5 112.19769287109375 L 360.5 118.68142700195312 L 370.5 108.19485473632812 L 380.5 117.65532684326172 L 390.5 94.55567169189453 L 400.5 91.1579360961914 L 410.5 114.92837524414062 L 420.5 97.40161895751953 L 430.5 82.53032684326172 L 440.5 82.71835327148438 L 450.5 98.17922973632812 L 460.5 87.33394622802734 L 470.5 76.77693939208984 L 480.5 78.15628814697266 L 490.5 74.78214263916016 L 500.5 77.19635009765625 L 510.5 73.02618408203125 L 520.5 69.63165283203125 L 530.5 85.10115051269531 L 540.5 73.86672973632812 L 550.5 62.80181884765625 L 560.5 76.78463745117188" stroke-linejoin="bevel" stroke-miterlimit="10" stroke-width="0.5" clip-path="url(#AaetzXcUDOZJ)"/><path fill="none" stroke="#fc4f30" paint-order="fill" d="M 270.5 160.29150390625 L 280.5 149.8760986328125 L 290.5 153.99937438964844 L 300.5 157.47621154785156 L 310.5 133.54640197753906 L 320.5 132.16610717773438 L 330.5 137.59837341308594 L 340.5 138.4258270263672 L 350.5 160.55462646484375 L 360.5 152.873291015625 L 370.5 140.18063354492188 L 380.5 152.55557250976562 L 390.5 154.2001953125 L 400.5 163.08932495117188 L 410.5 167.82655334472656 L 420.5 158.864501953125 L 430.5 163.0885009765625 L 440.5 161.4483184814453 L 450.5 153.0577392578125 L 460.5 158.38595581054688 L 470.5 163.30653381347656 L 480.5 153.58067321777344 L 490.5 164.74713134765625 L 500.5 174.7651824951172 L 510.5 177.92877197265625 L 520.5 166.36106872558594 L 530.5 159.9921112060547 L 540.5 175.0921630859375 L 550.5 161.5640869140625 L 560.5 144.1510467529297" stroke-linejoin="bevel" stroke-miterlimit="10" stroke-width="0.5" clip-path="url(#bOhbEnTzxMrU)"/><path fill="none" stroke="#30a2da" paint-order="fill" d="M 70.5 191.88119506835938 L 80.5 176.97955322265625 L 90.5 184.93035888671875 L 100.5 205.626953125 L 110.5 191.73358154296875 L 120.5 176.45831298828125 L 130.5 179.84950256347656 L 140.5 184.03414916992188 L 150.5 173.38458251953125 L 160.5 173.69532775878906 L 170.5 177.194091796875 L 180.5 177.36471557617188 L 190.5 161.3893585205078 L 200.5 154.48858642578125 L 210.5 160.0821075439453 L 220.5 145.97109985351562 L 230.5 152.6116943359375 L 240.5 135.336669921875 L 250.5 131.51840209960938 L 260.5 147.1493377685547 L 270.5 139.24305725097656 L 280.5 143.4993438720703 L 290.5 149.01441955566406 L 300.5 150.35670471191406 L 310.5 149.75030517578125 L 320.5 152.1121063232422 L 330.5 130.89662170410156 L 340.5 123.41683197021484 L 350.5 140.12786865234375 L 360.5 134.5358428955078 L 370.5 115.22425842285156 L 380.5 128.88812255859375 L 390.5 123.97957611083984 L 400.5 95.36129760742188 L 410.5 108.24649047851562 L 420.5 110.27650451660156 L 430.5 113.35294342041016 L 440.5 96.611572265625 L 450.5 86.52457427978516 L 460.5 102.03704833984375 L 470.5 89.57957458496094 L 480.5 87.88851928710938 L 490.5 81.68815612792969 L 500.5 89.4100570678711 L 510.5 104.96504974365234 L 520.5 89.47837829589844 L 530.5 83.57795715332031 L 540.5 76.1054916381836 L 550.5 71.55718231201172 L 560.5 63.0034294128418" stroke-linejoin="bevel" stroke-miterlimit="10" stroke-width="0.5" clip-path="url(#tDtdhLbCRGsE)"/><path fill="none" stroke="#fc4f30" paint-order="fill" d="M 270.5 140.94349670410156 L 280.5 152.0872344970703 L 290.5 162.04925537109375 L 300.5 174.69268798828125 L 310.5 153.2954864501953 L 320.5 154.8152618408203 L 330.5 159.41590881347656 L 340.5 142.0856475830078 L 350.5 144.73944091796875 L 360.5 167.01316833496094 L 370.5 160.79977416992188 L 380.5 150.07713317871094 L 390.5 159.78135681152344 L 400.5 155.11273193359375 L 410.5 150.3234100341797 L 420.5 149.20835876464844 L 430.5 166.99163818359375 L 440.5 159.21942138671875 L 450.5 145.7416534423828 L 460.5 174.96942138671875 L 470.5 192.60682678222656 L 480.5 190.29891967773438 L 490.5 164.15098571777344 L 500.5 138.1859130859375 L 510.5 152.0201873779297 L 520.5 165.09829711914062 L 530.5 150.654052734375 L 540.5 146.89967346191406 L 550.5 145.94122314453125 L 560.5 144.70147705078125" stroke-linejoin="bevel" stroke-miterlimit="10" stroke-width="0.5" clip-path="url(#RzaTUufwzUdM)"/><path fill="none" stroke="#30a2da" paint-order="fill" d="M 70.5 193.3232879638672 L 80.5 176.1087646484375 L 90.5 175.64292907714844 L 100.5 192.74916076660156 L 110.5 187.33705139160156 L 120.5 196.66928100585938 L 130.5 191.0953826904297 L 140.5 186.55104064941406 L 150.5 181.55740356445312 L 160.5 182.3607635498047 L 170.5 155.6851348876953 L 180.5 164.09420776367188 L 190.5 171.93707275390625 L 200.5 156.15306091308594 L 210.5 152.3023223876953 L 220.5 166.99880981445312 L 230.5 155.4578399658203 L 240.5 141.968017578125 L 250.5 152.14244079589844 L 260.5 146.9303741455078 L 270.5 126.3023910522461 L 280.5 140.70428466796875 L 290.5 163.84559631347656 L 300.5 146.8827362060547 L 310.5 120.9848861694336 L 320.5 115.14559936523438 L 330.5 131.5828857421875 L 340.5 131.09710693359375 L 350.5 108.72074890136719 L 360.5 116.29673767089844 L 370.5 116.3672866821289 L 380.5 131.2850799560547 L 390.5 133.81822204589844 L 400.5 109.31914520263672 L 410.5 96.2224349975586 L 420.5 93.74960327148438 L 430.5 97.24861145019531 L 440.5 97.71289825439453 L 450.5 95.27234649658203 L 460.5 97.8403091430664 L 470.5 91.76539611816406 L 480.5 98.03901672363281 L 490.5 93.06249237060547 L 500.5 83.53331756591797 L 510.5 95.05890655517578 L 520.5 79.89080047607422 L 530.5 74.63520050048828 L 540.5 80.45964813232422 L 550.5 61.0556755065918 L 560.5 63.60667037963867" stroke-linejoin="bevel" stroke-miterlimit="10" stroke-width="0.5" clip-path="url(#SDNVaSyltMFG)"/><path fill="none" stroke="#fc4f30" paint-order="fill" d="M 270.5 134.98619079589844 L 280.5 137.7708282470703 L 290.5 147.9114532470703 L 300.5 141.14413452148438 L 310.5 141.36041259765625 L 320.5 162.8314666748047 L 330.5 156.4630889892578 L 340.5 146.645751953125 L 350.5 173.4915008544922 L 360.5 155.26947021484375 L 370.5 144.31674194335938 L 380.5 156.30052185058594 L 390.5 151.95184326171875 L 400.5 165.88897705078125 L 410.5 152.9313507080078 L 420.5 141.97998046875 L 430.5 131.9984130859375 L 440.5 142.0675506591797 L 450.5 174.56126403808594 L 460.5 169.273193359375 L 470.5 161.533203125 L 480.5 160.26260375976562 L 490.5 147.90785217285156 L 500.5 148.4718780517578 L 510.5 152.87582397460938 L 520.5 148.27108764648438 L 530.5 163.02239990234375 L 540.5 155.78152465820312 L 550.5 151.78378295898438 L 560.5 164.82261657714844" stroke-linejoin="bevel" stroke-miterlimit="10" stroke-width="0.5" clip-path="url(#RDLTAoyKdQiD)"/><path fill="none" stroke="#30a2da" paint-order="fill" d="M 70.5 187.97451782226562 L 80.5 169.26393127441406 L 90.5 182.75450134277344 L 100.5 189.2451171875 L 110.5 190.65931701660156 L 120.5 190.16348266601562 L 130.5 183.31175231933594 L 140.5 186.2790985107422 L 150.5 170.209228515625 L 160.5 191.02142333984375 L 170.5 182.38877868652344 L 180.5 166.9724578857422 L 190.5 159.48439025878906 L 200.5 178.5496368408203 L 210.5 188.82618713378906 L 220.5 179.91864013671875 L 230.5 169.77438354492188 L 240.5 164.3258819580078 L 250.5 188.1430206298828 L 260.5 174.35543823242188 L 270.5 148.9589080810547 L 280.5 141.44378662109375 L 290.5 138.53927612304688 L 300.5 158.98504638671875 L 310.5 146.9449005126953 L 320.5 138.60047912597656 L 330.5 154.47242736816406 L 340.5 126.09954071044922 L 350.5 117.66692352294922 L 360.5 129.70745849609375 L 370.5 122.53954315185547 L 380.5 111.52864837646484 L 390.5 116.08189392089844 L 400.5 110.93021392822266 L 410.5 111.86509704589844 L 420.5 134.18898010253906 L 430.5 124.63462829589844 L 440.5 117.2072982788086 L 450.5 103.88773345947266 L 460.5 103.19146728515625 L 470.5 92.22344207763672 L 480.5 90.83161163330078 L 490.5 85.82633972167969 L 500.5 85.81400299072266 L 510.5 82.20555114746094 L 520.5 88.82512664794922 L 530.5 88.07859802246094 L 540.5 83.96163177490234 L 550.5 87.5127944946289 L 560.5 89.76202392578125" stroke-linejoin="bevel" stroke-miterlimit="10" stroke-width="0.5" clip-path="url(#yvQzCTvZhCwV)"/><path fill="none" stroke="#fc4f30" paint-order="fill" d="M 270.5 120.96160888671875 L 280.5 151.5697021484375 L 290.5 137.9737548828125 L 300.5 141.8585205078125 L 310.5 154.51583862304688 L 320.5 145.88031005859375 L 330.5 167.60464477539062 L 340.5 174.69741821289062 L 350.5 165.25384521484375 L 360.5 155.43814086914062 L 370.5 162.11676025390625 L 380.5 154.39378356933594 L 390.5 136.06533813476562 L 400.5 144.14393615722656 L 410.5 139.1299285888672 L 420.5 141.00469970703125 L 430.5 144.1006317138672 L 440.5 158.28880310058594 L 450.5 147.841552734375 L 460.5 159.76568603515625 L 470.5 178.20382690429688 L 480.5 163.634765625 L 490.5 157.4512481689453 L 500.5 164.94854736328125 L 510.5 167.46046447753906 L 520.5 162.25131225585938 L 530.5 143.2740936279297 L 540.5 156.12962341308594 L 550.5 163.4100799560547 L 560.5 154.00982666015625" stroke-linejoin="bevel" stroke-miterlimit="10" stroke-width="0.5" clip-path="url(#FlOXtKQfLWvP)"/><path fill="none" stroke="#30a2da" paint-order="fill" d="M 70.5 190.3074188232422 L 80.5 160.40533447265625 L 90.5 169.60646057128906 L 100.5 188.3265838623047 L 110.5 180.44717407226562 L 120.5 170.5135498046875 L 130.5 184.31736755371094 L 140.5 188.2123260498047 L 150.5 179.68406677246094 L 160.5 171.14466857910156 L 170.5 164.14822387695312 L 180.5 170.88571166992188 L 190.5 161.039306640625 L 200.5 151.35838317871094 L 210.5 151.9548797607422 L 220.5 154.0713653564453 L 230.5 142.6215057373047 L 240.5 150.3110809326172 L 250.5 146.82122802734375 L 260.5 139.3909149169922 L 270.5 153.45396423339844 L 280.5 141.51412963867188 L 290.5 148.3341522216797 L 300.5 138.3079071044922 L 310.5 145.2896728515625 L 320.5 131.00537109375 L 330.5 121.34137725830078 L 340.5 126.15998840332031 L 350.5 121.63648223876953 L 360.5 106.97160339355469 L 370.5 114.51222229003906 L 380.5 140.57827758789062 L 390.5 122.59806823730469 L 400.5 112.50794982910156 L 410.5 98.0599594116211 L 420.5 99.31814575195312 L 430.5 101.62870788574219 L 440.5 94.2193603515625 L 450.5 110.15345764160156 L 460.5 104.67070770263672 L 470.5 92.35145568847656 L 480.5 91.89872741699219 L 490.5 85.19611358642578 L 500.5 75.6615982055664 L 510.5 73.3201904296875 L 520.5 91.80719757080078 L 530.5 84.98321533203125 L 540.5 85.44281005859375 L 550.5 79.40450286865234 L 560.5 66.06478881835938" stroke-linejoin="bevel" stroke-miterlimit="10" stroke-width="0.5" clip-path="url(#JnJdSPkUHXcl)"/><path fill="none" stroke="#fc4f30" paint-order="fill" d="M 270.5 138.8565216064453 L 280.5 169.14979553222656 L 290.5 166.991943359375 L 300.5 159.7294158935547 L 310.5 155.41360473632812 L 320.5 162.0656280517578 L 330.5 148.6510009765625 L 340.5 148.52682495117188 L 350.5 174.98550415039062 L 360.5 171.4377899169922 L 370.5 156.66062927246094 L 380.5 141.49810791015625 L 390.5 150.44659423828125 L 400.5 151.1739044189453 L 410.5 138.07106018066406 L 420.5 132.08123779296875 L 430.5 141.8672637939453 L 440.5 156.06333923339844 L 450.5 169.16648864746094 L 460.5 167.7245330810547 L 470.5 164.41293334960938 L 480.5 150.3083038330078 L 490.5 150.53628540039062 L 500.5 151.0576629638672 L 510.5 148.71092224121094 L 520.5 145.09732055664062 L 530.5 166.7334747314453 L 540.5 162.40504455566406 L 550.5 149.0960693359375 L 560.5 141.038818359375" stroke-linejoin="bevel" stroke-miterlimit="10" stroke-width="0.5" clip-path="url(#TXfIfCikCSHl)"/><path fill="none" stroke="#30a2da" paint-order="fill" d="M 70.5 182.99417114257812 L 80.5 179.07080078125 L 90.5 180.70599365234375 L 100.5 183.20108032226562 L 110.5 178.97215270996094 L 120.5 162.8030242919922 L 130.5 177.7430877685547 L 140.5 172.5288848876953 L 150.5 180.3608856201172 L 160.5 184.46240234375 L 170.5 177.31646728515625 L 180.5 177.2214813232422 L 190.5 168.97854614257812 L 200.5 155.97950744628906 L 210.5 154.2421112060547 L 220.5 143.3295135498047 L 230.5 134.8583526611328 L 240.5 149.22593688964844 L 250.5 158.76922607421875 L 260.5 157.65826416015625 L 270.5 148.4248046875 L 280.5 136.9158935546875 L 290.5 145.9376983642578 L 300.5 138.18910217285156 L 310.5 137.2195281982422 L 320.5 141.4633026123047 L 330.5 121.52140045166016 L 340.5 117.17082214355469 L 350.5 113.96228790283203 L 360.5 120.38707733154297 L 370.5 123.80885314941406 L 380.5 105.30435943603516 L 390.5 94.97160339355469 L 400.5 113.86296844482422 L 410.5 108.02049255371094 L 420.5 90.39579010009766 L 430.5 89.4836654663086 L 440.5 90.57540130615234 L 450.5 96.1528549194336 L 460.5 95.65937805175781 L 470.5 93.27920532226562 L 480.5 106.26358795166016 L 490.5 96.13721466064453 L 500.5 92.42649841308594 L 510.5 98.67539978027344 L 520.5 79.939208984375 L 530.5 82.86498260498047 L 540.5 104.68999481201172 L 550.5 103.124755859375 L 560.5 83.51655578613281" stroke-linejoin="bevel" stroke-miterlimit="10" stroke-width="0.5" clip-path="url(#BNCZUFywDwvI)"/><path fill="none" stroke="#fc4f30" paint-order="fill" d="M 270.5 148.07058715820312 L 280.5 159.04122924804688 L 290.5 144.22080993652344 L 300.5 136.32940673828125 L 310.5 128.79806518554688 L 320.5 145.50164794921875 L 330.5 147.28176879882812 L 340.5 147.8026885986328 L 350.5 145.01522827148438 L 360.5 164.4821319580078 L 370.5 175.89480590820312 L 380.5 161.39483642578125 L 390.5 148.11459350585938 L 400.5 162.0791015625 L 410.5 167.72659301757812 L 420.5 154.0598907470703 L 430.5 144.56300354003906 L 440.5 159.58253479003906 L 450.5 155.63836669921875 L 460.5 149.3831024169922 L 470.5 135.79287719726562 L 480.5 147.81600952148438 L 490.5 170.29954528808594 L 500.5 152.5700225830078 L 510.5 146.83212280273438 L 520.5 156.08815002441406 L 530.5 163.4727325439453 L 540.5 153.1288604736328 L 550.5 162.3898162841797 L 560.5 158.7344970703125" stroke-linejoin="bevel" stroke-miterlimit="10" stroke-width="0.5" clip-path="url(#RGFtZQosNJwh)"/><path fill="none" stroke="#30a2da" paint-order="fill" d="M 70.5 186.5584716796875 L 80.5 177.32701110839844 L 90.5 183.65541076660156 L 100.5 176.9812469482422 L 110.5 170.23287963867188 L 120.5 190.52195739746094 L 130.5 170.05088806152344 L 140.5 163.87705993652344 L 150.5 184.0961151123047 L 160.5 178.17811584472656 L 170.5 161.70252990722656 L 180.5 155.27960205078125 L 190.5 159.6779022216797 L 200.5 168.4714813232422 L 210.5 150.819091796875 L 220.5 157.48916625976562 L 230.5 159.3387451171875 L 240.5 154.7174835205078 L 250.5 153.1109161376953 L 260.5 144.43927001953125 L 270.5 139.42115783691406 L 280.5 137.55191040039062 L 290.5 145.83778381347656 L 300.5 139.36074829101562 L 310.5 126.74129486083984 L 320.5 132.85948181152344 L 330.5 144.05104064941406 L 340.5 131.2496337890625 L 350.5 134.255615234375 L 360.5 134.7709503173828 L 370.5 128.60079956054688 L 380.5 128.5134735107422 L 390.5 123.02845001220703 L 400.5 124.46375274658203 L 410.5 118.70503234863281 L 420.5 94.95757293701172 L 430.5 101.49608612060547 L 440.5 98.85108184814453 L 450.5 91.54827117919922 L 460.5 87.38346862792969 L 470.5 75.30475616455078 L 480.5 82.59606170654297 L 490.5 84.7986068725586 L 500.5 95.34634399414062 L 510.5 79.7606201171875 L 520.5 85.67483520507812 L 530.5 71.18276977539062 L 540.5 76.40938568115234 L 550.5 75.95198059082031 L 560.5 101.52145385742188" stroke-linejoin="bevel" stroke-miterlimit="10" stroke-width="0.5" clip-path="url(#nBSFpANsrdkJ)"/><path fill="none" stroke="#fc4f30" paint-order="fill" d="M 270.5 147.22447204589844 L 280.5 157.55007934570312 L 290.5 160.1049346923828 L 300.5 173.35458374023438 L 310.5 167.51089477539062 L 320.5 146.54820251464844 L 330.5 144.9430694580078 L 340.5 149.77891540527344 L 350.5 148.67262268066406 L 360.5 150.6615447998047 L 370.5 156.1719970703125 L 380.5 148.93557739257812 L 390.5 137.6118927001953 L 400.5 137.79986572265625 L 410.5 137.11581420898438 L 420.5 138.74447631835938 L 430.5 168.70794677734375 L 440.5 163.29132080078125 L 450.5 160.11822509765625 L 460.5 156.5846710205078 L 470.5 159.6121063232422 L 480.5 138.67544555664062 L 490.5 148.88153076171875 L 500.5 171.40383911132812 L 510.5 159.41233825683594 L 520.5 153.64859008789062 L 530.5 151.86569213867188 L 540.5 155.9911346435547 L 550.5 160.70997619628906 L 560.5 153.72994995117188" stroke-linejoin="bevel" stroke-miterlimit="10" stroke-width="0.5" clip-path="url(#taIkBSUUvAOl)"/><path fill="none" stroke="#30a2da" paint-order="fill" d="M 70.5 184.28273010253906 L 80.5 175.1833953857422 L 90.5 178.91287231445312 L 100.5 208.4188995361328 L 110.5 208.52554321289062 L 120.5 189.40553283691406 L 130.5 183.0523223876953 L 140.5 162.1011505126953 L 150.5 176.0081329345703 L 160.5 162.39186096191406 L 170.5 165.76779174804688 L 180.5 169.03736877441406 L 190.5 162.05685424804688 L 200.5 163.557861328125 L 210.5 159.5089569091797 L 220.5 155.65713500976562 L 230.5 157.9282684326172 L 240.5 159.84085083007812 L 250.5 150.51382446289062 L 260.5 160.87350463867188 L 270.5 152.90261840820312 L 280.5 141.05604553222656 L 290.5 138.33062744140625 L 300.5 126.22166442871094 L 310.5 137.64886474609375 L 320.5 116.4811782836914 L 330.5 111.7052230834961 L 340.5 124.37085723876953 L 350.5 114.99201965332031 L 360.5 107.73880767822266 L 370.5 121.30741119384766 L 380.5 116.17666625976562 L 390.5 109.18690490722656 L 400.5 110.22750091552734 L 410.5 96.75850677490234 L 420.5 91.86060333251953 L 430.5 93.60511779785156 L 440.5 91.97549438476562 L 450.5 84.09174346923828 L 460.5 86.4030990600586 L 470.5 80.51770782470703 L 480.5 87.4780502319336 L 490.5 75.50648498535156 L 500.5 74.15449523925781 L 510.5 85.91885375976562 L 520.5 78.290283203125 L 530.5 77.5444107055664 L 540.5 73.69888305664062 L 550.5 84.9728012084961 L 560.5 70.4707260131836" stroke-linejoin="bevel" stroke-miterlimit="10" stroke-width="0.5" clip-path="url(#pXdhnuaZokEq)"/><path fill="none" stroke="#fc4f30" paint-order="fill" d="M 270.5 127.52720642089844 L 280.5 138.81788635253906 L 290.5 146.96580505371094 L 300.5 154.17718505859375 L 310.5 147.0558319091797 L 320.5 153.21588134765625 L 330.5 160.12594604492188 L 340.5 160.66311645507812 L 350.5 158.3235321044922 L 360.5 160.204345703125 L 370.5 153.5454864501953 L 380.5 140.0938262939453 L 390.5 160.76638793945312 L 400.5 151.296142578125 L 410.5 149.2514190673828 L 420.5 168.52320861816406 L 430.5 170.7046356201172 L 440.5 157.0194091796875 L 450.5 158.52871704101562 L 460.5 164.1407470703125 L 470.5 158.5933837890625 L 480.5 162.93890380859375 L 490.5 148.9986114501953 L 500.5 164.76268005371094 L 510.5 172.3683624267578 L 520.5 143.8903350830078 L 530.5 152.71116638183594 L 540.5 150.6438446044922 L 550.5 162.1309051513672 L 560.5 174.87936401367188" stroke-linejoin="bevel" stroke-miterlimit="10" stroke-width="0.5" clip-path="url(#SGGgCLlBbpZA)"/><path fill="none" stroke="#30a2da" paint-order="fill" d="M 70.5 188.9877166748047 L 80.5 177.38955688476562 L 90.5 180.26519775390625 L 100.5 188.3721466064453 L 110.5 186.75112915039062 L 120.5 183.56723022460938 L 130.5 181.1404266357422 L 140.5 176.8688201904297 L 150.5 177.63882446289062 L 160.5 178.35833740234375 L 170.5 169.67984008789062 L 180.5 169.04100036621094 L 190.5 164.0233154296875 L 200.5 160.7361297607422 L 210.5 159.60926818847656 L 220.5 158.21612548828125 L 230.5 151.84783935546875 L 240.5 151.73495483398438 L 250.5 155.80067443847656 L 260.5 151.4340057373047 L 270.5 143.201416015625 L 280.5 142.50340270996094 L 290.5 144.04234313964844 L 300.5 137.39859008789062 L 310.5 136.03614807128906 L 320.5 133.03741455078125 L 330.5 134.56358337402344 L 340.5 127.72639465332031 L 350.5 121.78742980957031 L 360.5 121.30940246582031 L 370.5 118.85710906982422 L 380.5 121.9576187133789 L 390.5 115.00724792480469 L 400.5 108.40592956542969 L 410.5 105.70450592041016 L 420.5 100.79471588134766 L 430.5 99.2994384765625 L 440.5 96.68983459472656 L 450.5 97.70027160644531 L 460.5 95.40170288085938 L 470.5 87.29251098632812 L 480.5 87.47368621826172 L 490.5 84.8583984375 L 500.5 85.20002746582031 L 510.5 84.51170349121094 L 520.5 81.73081970214844 L 530.5 79.44717407226562 L 540.5 81.29582214355469 L 550.5 79.86831665039062 L 560.5 77.91474914550781" stroke-linejoin="bevel" stroke-miterlimit="10" stroke-width="2" clip-path="url(#RTnkXMSetyOZ)"/><path fill="none" stroke="#fc4f30" paint-order="fill" d="M 270.5 138.84654235839844 L 280.5 152.20904541015625 L 290.5 152.093505859375 L 300.5 153.1058807373047 L 310.5 148.03724670410156 L 320.5 150.16456604003906 L 330.5 152.64480590820312 L 340.5 152.70050048828125 L 350.5 158.7431182861328 L 360.5 159.1531524658203 L 370.5 156.47503662109375 L 380.5 151.49949645996094 L 390.5 149.1108856201172 L 400.5 154.11497497558594 L 410.5 149.68495178222656 L 420.5 147.74459838867188 L 430.5 155.5968780517578 L 440.5 157.39784240722656 L 450.5 158.11415100097656 L 460.5 162.0973663330078 L 470.5 161.93833923339844 L 480.5 158.98910522460938 L 490.5 157.3280487060547 L 500.5 156.693359375 L 510.5 156.57958984375 L 520.5 152.5459442138672 L 530.5 155.21571350097656 L 540.5 157.7218475341797 L 550.5 156.4824981689453 L 560.5 156.19171142578125" stroke-linejoin="bevel" stroke-miterlimit="10" stroke-width="2" clip-path="url(#PdTCdBZPoOCL)"/><path fill="none" stroke="black" paint-order="fill" d="M 270.5 33.5 L 270.5 283.5" stroke-linejoin="bevel" stroke-miterlimit="10" stroke-width="3" stroke-dasharray="6" clip-path="url(#VkGeRMfnlKZK)"/><path fill="none" stroke="black" paint-order="fill" d="M 70.5 283.5 L 570.5 283.5" stroke-linejoin="bevel" stroke-miterlimit="10"/><path fill="none" stroke="black" paint-order="fill" d="M 120.5 289.5 L 120.5 281.5 M 220.5 289.5 L 220.5 281.5 M 320.5 289.5 L 320.5 281.5 M 420.5 289.5 L 420.5 281.5 M 520.5 289.5 L 520.5 281.5" stroke-linejoin="bevel" stroke-miterlimit="10"/><path fill="none" stroke="black" paint-order="fill" d="M 100.5 287.5 L 100.5 283.5 M 80.5 287.5 L 80.5 283.5 M 120.5 287.5 L 120.5 283.5 M 140.5 287.5 L 140.5 283.5 M 160.5 287.5 L 160.5 283.5 M 180.5 287.5 L 180.5 283.5 M 200.5 287.5 L 200.5 283.5 M 220.5 287.5 L 220.5 283.5 M 240.5 287.5 L 240.5 283.5 M 260.5 287.5 L 260.5 283.5 M 280.5 287.5 L 280.5 283.5 M 300.5 287.5 L 300.5 283.5 M 320.5 287.5 L 320.5 283.5 M 340.5 287.5 L 340.5 283.5 M 360.5 287.5 L 360.5 283.5 M 380.5 287.5 L 380.5 283.5 M 400.5 287.5 L 400.5 283.5 M 420.5 287.5 L 420.5 283.5 M 440.5 287.5 L 440.5 283.5 M 460.5 287.5 L 460.5 283.5 M 480.5 287.5 L 480.5 283.5 M 500.5 287.5 L 500.5 283.5 M 520.5 287.5 L 520.5 283.5 M 540.5 287.5 L 540.5 283.5 M 560.5 287.5 L 560.5 283.5" stroke-linejoin="bevel" stroke-miterlimit="10"/><text fill="#444444" stroke="none" font-family="helvetica" font-size="10pt" font-style="normal" font-weight="normal" text-decoration="normal" x="106.63333320617676" y="304" text-anchor="start" dominant-baseline="alphabetic" transform="matrix(1, 0, 0, 1, 0.5, 0.5)">2020</text><text fill="none" stroke="rgb(0,0,0)" font-family="helvetica" font-size="10pt" font-style="normal" font-weight="normal" text-decoration="normal" x="106.63333320617676" y="304" text-anchor="start" dominant-baseline="alphabetic" transform="matrix(1, 0, 0, 1, 0.5, 0.5)" stroke-opacity="0" stroke-linejoin="bevel" stroke-miterlimit="10">2020</text><text fill="#444444" stroke="none" font-family="helvetica" font-size="10pt" font-style="normal" font-weight="normal" text-decoration="normal" x="206.63333320617676" y="304" text-anchor="start" dominant-baseline="alphabetic" transform="matrix(1, 0, 0, 1, 0.5, 0.5)">2030</text><text fill="none" stroke="rgb(0,0,0)" font-family="helvetica" font-size="10pt" font-style="normal" font-weight="normal" text-decoration="normal" x="206.63333320617676" y="304" text-anchor="start" dominant-baseline="alphabetic" transform="matrix(1, 0, 0, 1, 0.5, 0.5)" stroke-opacity="0" stroke-linejoin="bevel" stroke-miterlimit="10">2030</text><text fill="#444444" stroke="none" font-family="helvetica" font-size="10pt" font-style="normal" font-weight="normal" text-decoration="normal" x="306.63333320617676" y="304" text-anchor="start" dominant-baseline="alphabetic" transform="matrix(1, 0, 0, 1, 0.5, 0.5)">2040</text><text fill="none" stroke="rgb(0,0,0)" font-family="helvetica" font-size="10pt" font-style="normal" font-weight="normal" text-decoration="normal" x="306.63333320617676" y="304" text-anchor="start" dominant-baseline="alphabetic" transform="matrix(1, 0, 0, 1, 0.5, 0.5)" stroke-opacity="0" stroke-linejoin="bevel" stroke-miterlimit="10">2040</text><text fill="#444444" stroke="none" font-family="helvetica" font-size="10pt" font-style="normal" font-weight="normal" text-decoration="normal" x="406.63333320617676" y="304" text-anchor="start" dominant-baseline="alphabetic" transform="matrix(1, 0, 0, 1, 0.5, 0.5)">2050</text><text fill="none" stroke="rgb(0,0,0)" font-family="helvetica" font-size="10pt" font-style="normal" font-weight="normal" text-decoration="normal" x="406.63333320617676" y="304" text-anchor="start" dominant-baseline="alphabetic" transform="matrix(1, 0, 0, 1, 0.5, 0.5)" stroke-opacity="0" stroke-linejoin="bevel" stroke-miterlimit="10">2050</text><text fill="#444444" stroke="none" font-family="helvetica" font-size="10pt" font-style="normal" font-weight="normal" text-decoration="normal" x="506.63333320617676" y="304" text-anchor="start" dominant-baseline="alphabetic" transform="matrix(1, 0, 0, 1, 0.5, 0.5)">2060</text><text fill="none" stroke="rgb(0,0,0)" font-family="helvetica" font-size="10pt" font-style="normal" font-weight="normal" text-decoration="normal" x="506.63333320617676" y="304" text-anchor="start" dominant-baseline="alphabetic" transform="matrix(1, 0, 0, 1, 0.5, 0.5)" stroke-opacity="0" stroke-linejoin="bevel" stroke-miterlimit="10">2060</text><text fill="#444444" stroke="none" font-family="helvetica" font-size="12pt" font-style="normal" font-weight="normal" text-decoration="normal" x="305.3166666030884" y="327" text-anchor="start" dominant-baseline="alphabetic" transform="matrix(1, 0, 0, 1, 0.5, 0.5)">Year</text><text fill="none" stroke="rgb(0,0,0)" font-family="helvetica" font-size="12pt" font-style="normal" font-weight="normal" text-decoration="normal" x="305.3166666030884" y="327" text-anchor="start" dominant-baseline="alphabetic" transform="matrix(1, 0, 0, 1, 0.5, 0.5)" stroke-opacity="0" stroke-linejoin="bevel" stroke-miterlimit="10">Year</text><path fill="none" stroke="black" paint-order="fill" d="M 70.5 283.5 L 70.5 33.5" stroke-linejoin="bevel" stroke-miterlimit="10"/><path fill="none" stroke="black" paint-order="fill" d="M 64.5 283.5 L 72.5 283.5 M 64.5 241.5 L 72.5 241.5 M 64.5 200.5 L 72.5 200.5 M 64.5 158.5 L 72.5 158.5 M 64.5 116.5 L 72.5 116.5 M 64.5 75.5 L 72.5 75.5 M 64.5 33.5 L 72.5 33.5" stroke-linejoin="bevel" stroke-miterlimit="10"/><path fill="none" stroke="black" paint-order="fill" d="M 66.5 283.5 L 70.5 283.5 M 66.5 275.5 L 70.5 275.5 M 66.5 266.5 L 70.5 266.5 M 66.5 258.5 L 70.5 258.5 M 66.5 250.5 L 70.5 250.5 M 66.5 241.5 L 70.5 241.5 M 66.5 233.5 L 70.5 233.5 M 66.5 225.5 L 70.5 225.5 M 66.5 216.5 L 70.5 216.5 M 66.5 208.5 L 70.5 208.5 M 66.5 200.5 L 70.5 200.5 M 66.5 191.5 L 70.5 191.5 M 66.5 183.5 L 70.5 183.5 M 66.5 175.5 L 70.5 175.5 M 66.5 166.5 L 70.5 166.5 M 66.5 158.5 L 70.5 158.5 M 66.5 150.5 L 70.5 150.5 M 66.5 141.5 L 70.5 141.5 M 66.5 133.5 L 70.5 133.5 M 66.5 125.5 L 70.5 125.5 M 66.5 116.5 L 70.5 116.5 M 66.5 108.5 L 70.5 108.5 M 66.5 100.5 L 70.5 100.5 M 66.5 91.5 L 70.5 91.5 M 66.5 83.5 L 70.5 83.5 M 66.5 75.5 L 70.5 75.5 M 66.5 66.5 L 70.5 66.5 M 66.5 58.5 L 70.5 58.5 M 66.5 50.5 L 70.5 50.5 M 66.5 41.5 L 70.5 41.5 M 66.5 33.5 L 70.5 33.5" stroke-linejoin="bevel" stroke-miterlimit="10"/><text fill="#444444" stroke="none" font-family="helvetica" font-size="10pt" font-style="normal" font-weight="normal" text-decoration="normal" x="45.63333320617676" y="288" text-anchor="start" dominant-baseline="alphabetic" transform="matrix(1, 0, 0, 1, 0.5, 0.5)">14</text><text fill="none" stroke="rgb(0,0,0)" font-family="helvetica" font-size="10pt" font-style="normal" font-weight="normal" text-decoration="normal" x="45.63333320617676" y="288" text-anchor="start" dominant-baseline="alphabetic" transform="matrix(1, 0, 0, 1, 0.5, 0.5)" stroke-opacity="0" stroke-linejoin="bevel" stroke-miterlimit="10">14</text><text fill="#444444" stroke="none" font-family="helvetica" font-size="10pt" font-style="normal" font-weight="normal" text-decoration="normal" x="35.60000038146973" y="246.3333282470703" text-anchor="start" dominant-baseline="alphabetic" transform="matrix(1, 0, 0, 1, 0.5, 0.5)">14.5</text><text fill="none" stroke="rgb(0,0,0)" font-family="helvetica" font-size="10pt" font-style="normal" font-weight="normal" text-decoration="normal" x="35.60000038146973" y="246.3333282470703" text-anchor="start" dominant-baseline="alphabetic" transform="matrix(1, 0, 0, 1, 0.5, 0.5)" stroke-opacity="0" stroke-linejoin="bevel" stroke-miterlimit="10">14.5</text><text fill="#444444" stroke="none" font-family="helvetica" font-size="10pt" font-style="normal" font-weight="normal" text-decoration="normal" x="45.63333320617676" y="204.6666717529297" text-anchor="start" dominant-baseline="alphabetic" transform="matrix(1, 0, 0, 1, 0.5, 0.5)">15</text><text fill="none" stroke="rgb(0,0,0)" font-family="helvetica" font-size="10pt" font-style="normal" font-weight="normal" text-decoration="normal" x="45.63333320617676" y="204.6666717529297" text-anchor="start" dominant-baseline="alphabetic" transform="matrix(1, 0, 0, 1, 0.5, 0.5)" stroke-opacity="0" stroke-linejoin="bevel" stroke-miterlimit="10">15</text><text fill="#444444" stroke="none" font-family="helvetica" font-size="10pt" font-style="normal" font-weight="normal" text-decoration="normal" x="35.60000038146973" y="163" text-anchor="start" dominant-baseline="alphabetic" transform="matrix(1, 0, 0, 1, 0.5, 0.5)">15.5</text><text fill="none" stroke="rgb(0,0,0)" font-family="helvetica" font-size="10pt" font-style="normal" font-weight="normal" text-decoration="normal" x="35.60000038146973" y="163" text-anchor="start" dominant-baseline="alphabetic" transform="matrix(1, 0, 0, 1, 0.5, 0.5)" stroke-opacity="0" stroke-linejoin="bevel" stroke-miterlimit="10">15.5</text><text fill="#444444" stroke="none" font-family="helvetica" font-size="10pt" font-style="normal" font-weight="normal" text-decoration="normal" x="45.63333320617676" y="121.33333587646484" text-anchor="start" dominant-baseline="alphabetic" transform="matrix(1, 0, 0, 1, 0.5, 0.5)">16</text><text fill="none" stroke="rgb(0,0,0)" font-family="helvetica" font-size="10pt" font-style="normal" font-weight="normal" text-decoration="normal" x="45.63333320617676" y="121.33333587646484" text-anchor="start" dominant-baseline="alphabetic" transform="matrix(1, 0, 0, 1, 0.5, 0.5)" stroke-opacity="0" stroke-linejoin="bevel" stroke-miterlimit="10">16</text><text fill="#444444" stroke="none" font-family="helvetica" font-size="10pt" font-style="normal" font-weight="normal" text-decoration="normal" x="35.60000038146973" y="79.66666412353516" text-anchor="start" dominant-baseline="alphabetic" transform="matrix(1, 0, 0, 1, 0.5, 0.5)">16.5</text><text fill="none" stroke="rgb(0,0,0)" font-family="helvetica" font-size="10pt" font-style="normal" font-weight="normal" text-decoration="normal" x="35.60000038146973" y="79.66666412353516" text-anchor="start" dominant-baseline="alphabetic" transform="matrix(1, 0, 0, 1, 0.5, 0.5)" stroke-opacity="0" stroke-linejoin="bevel" stroke-miterlimit="10">16.5</text><text fill="#444444" stroke="none" font-family="helvetica" font-size="10pt" font-style="normal" font-weight="normal" text-decoration="normal" x="45.63333320617676" y="38" text-anchor="start" dominant-baseline="alphabetic" transform="matrix(1, 0, 0, 1, 0.5, 0.5)">17</text><text fill="none" stroke="rgb(0,0,0)" font-family="helvetica" font-size="10pt" font-style="normal" font-weight="normal" text-decoration="normal" x="45.63333320617676" y="38" text-anchor="start" dominant-baseline="alphabetic" transform="matrix(1, 0, 0, 1, 0.5, 0.5)" stroke-opacity="0" stroke-linejoin="bevel" stroke-miterlimit="10">17</text><text fill="#444444" stroke="none" font-family="helvetica" font-size="12pt" font-style="normal" font-weight="normal" text-decoration="normal" x="-28.32499885559082" y="154" text-anchor="start" dominant-baseline="alphabetic" transform="matrix(6.123233995736766e-17, -1, 1, 6.123233995736766e-17, -129.89999961853027, 186.10000038146973)">Temperature (°C)</text><text fill="none" stroke="rgb(0,0,0)" font-family="helvetica" font-size="12pt" font-style="normal" font-weight="normal" text-decoration="normal" x="-28.32499885559082" y="154" text-anchor="start" dominant-baseline="alphabetic" transform="matrix(6.123233995736766e-17, -1, 1, 6.123233995736766e-17, -129.89999961853027, 186.10000038146973)" stroke-opacity="0" stroke-linejoin="bevel" stroke-miterlimit="10">Temperature (°C)</text><path fill="rgb(255,255,255)" stroke="rgb(229,229,229)" paint-order="fill" d="M 80.5 43.5 L 337.5 43.5 L 337.5 108.5 L 80.5 108.5 L 80.5 43.5 Z" fill-opacity="0.9490196078431372" clip-path="url(#HFXQBbuoLJkX)" stroke-opacity="0.5019607843137255" stroke-linejoin="bevel" stroke-miterlimit="10"/><g clip-path="url(#HFXQBbuoLJkX)"><g transform="matrix(1, 0, 0, 1, 91, 54)"><path fill="none" stroke="#30a2da" paint-order="fill" d="M 0.5 10.5 L 20.5 10.5" stroke-linejoin="bevel" stroke-miterlimit="10" stroke-width="2"/></g></g><g clip-path="url(#HFXQBbuoLJkX)"><text fill="#444444" stroke="none" font-family="helvetica" font-size="13px" font-style="normal" font-weight="normal" text-decoration="normal" x="116" y="68.5" text-anchor="start" dominant-baseline="alphabetic" transform="matrix(1, 0, 0, 1, 0.5, 0.5)">Without climate intervention (SSP2-4.5)</text></g><g clip-path="url(#HFXQBbuoLJkX)"><text fill="none" stroke="rgb(0,0,0)" font-family="helvetica" font-size="13px" font-style="normal" font-weight="normal" text-decoration="normal" x="116" y="68.5" text-anchor="start" dominant-baseline="alphabetic" transform="matrix(1, 0, 0, 1, 0.5, 0.5)" stroke-opacity="0" stroke-linejoin="bevel" stroke-miterlimit="10">Without climate intervention (SSP2-4.5)</text></g><g clip-path="url(#HFXQBbuoLJkX)"><g transform="matrix(1, 0, 0, 1, 91, 77)"><path fill="none" stroke="#fc4f30" paint-order="fill" d="M 0.5 10.5 L 20.5 10.5" stroke-linejoin="bevel" stroke-miterlimit="10" stroke-width="2"/></g></g><g clip-path="url(#HFXQBbuoLJkX)"><text fill="#444444" stroke="none" font-family="helvetica" font-size="13px" font-style="normal" font-weight="normal" text-decoration="normal" x="116" y="91.5" text-anchor="start" dominant-baseline="alphabetic" transform="matrix(1, 0, 0, 1, 0.5, 0.5)">With intervention (ARISE-SAI-1.5)</text></g><g clip-path="url(#HFXQBbuoLJkX)"><text fill="none" stroke="rgb(0,0,0)" font-family="helvetica" font-size="13px" font-style="normal" font-weight="normal" text-decoration="normal" x="116" y="91.5" text-anchor="start" dominant-baseline="alphabetic" transform="matrix(1, 0, 0, 1, 0.5, 0.5)" stroke-opacity="0" stroke-linejoin="bevel" stroke-miterlimit="10">With intervention (ARISE-SAI-1.5)</text></g><text fill="black" stroke="none" font-family="helvetica" font-size="14pt" font-style="normal" font-weight="normal" text-decoration="normal" x="0" y="18" text-anchor="start" dominant-baseline="alphabetic" transform="matrix(1, 0, 0, 1, 5.5, 5.5)">B. Global mean temperature under climate change and intervention</text><text fill="none" stroke="rgb(0,0,0)" font-family="helvetica" font-size="14pt" font-style="normal" font-weight="normal" text-decoration="normal" x="0" y="18" text-anchor="start" dominant-baseline="alphabetic" transform="matrix(1, 0, 0, 1, 5.5, 5.5)" stroke-opacity="0" stroke-linejoin="bevel" stroke-miterlimit="10">B. Global mean temperature under climate change and intervention</text></svg>