<svg version="1.1" xmlns="http://www.w3.org/2000/svg" width="605" height="336"><defs><clipPath id="MhKqprSenuQf"><path fill="none" stroke="none" d="M 75.5 35.5 L 575.5 35.5 L 575.5 285.5 L 75.5 285.5 L 75.5 35.5 Z"/></clipPath><clipPath id="mkNXWEVvlUtT"><path fill="none" stroke="none" d="M 75.5 35.5 L 575.5 35.5 L 575.5 285.5 L 75.5 285.5 L 75.5 35.5 Z"/></clipPath><clipPath id="WWRLHPpItnOz"><path fill="none" stroke="none" d="M 75.5 35.5 L 575.5 35.5 L 575.5 285.5 L 75.5 285.5 L 75.5 35.5 Z"/></clipPath><clipPath id="MKWibUXucnMQ"><path fill="none" stroke="none" d="M 75.5 35.5 L 575.5 35.5 L 575.5 285.5 L 75.5 285.5 L 75.5 35.5 Z"/></clipPath><clipPath id="nrAMKaTWyhmH"><path fill="none" stroke="none" d="M 75.5 35.5 L 575.5 35.5 L 575.5 285.5 L 75.5 285.5 L 75.5 35.5 Z"/></clipPath><clipPath id="FRbxMAEMZDiJ"><path fill="none" stroke="none" d="M 75.5 35.5 L 575.5 35.5 L 575.5 285.5 L 75.5 285.5 L 75.5 35.5 Z"/></clipPath><clipPath id="oDhaWcMZrNXV"><path fill="none" stroke="none" d="M 75.5 35.5 L 575.5 35.5 L 575.5 285.5 L 75.5 285.5 L 75.5 35.5 Z"/></clipPath><clipPath id="VHWnecHVILQS"><path fill="none" stroke="none" d="M 75.5 35.5 L 575.5 35.5 L 575.5 285.5 L 75.5 285.5 L 75.5 35.5 Z"/></clipPath><clipPath id="WNzodlklvneJ"><path fill="none" stroke="none" d="M 75.5 35.5 L 575.5 35.5 L 575.5 285.5 L 75.5 285.5 L 75.5 35.5 Z"/></clipPath><clipPath id="SmVFckWgbRZv"><path fill="none" stroke="none" d="M 75.5 35.5 L 575.5 35.5 L 575.5 285.5 L 75.5 285.5 L 75.5 35.5 Z"/></clipPath><clipPath id="NhHnIbDEQCHP"><path fill="none" stroke="none" d="M 75.5 35.5 L 575.5 35.5 L 575.5 285.5 L 75.5 285.5 L 75.5 35.5 Z"/></clipPath><clipPath id="nWgOZTZkGigG"><path fill="none" stroke="none" d="M 75.5 35.5 L 575.5 35.5 L 575.5 285.5 L 75.5 285.5 L 75.5 35.5 Z"/></clipPath><clipPath id="vIgTQEQrlpVX"><path fill="none" stroke="none" d="M 75.5 35.5 L 575.5 35.5 L 575.5 285.5 L 75.5 285.5 L 75.5 35.5 Z"/></clipPath><clipPath id="KUtKsFOUTkUp"><path fill="none" stroke="none" d="M 75.5 35.5 L 575.5 35.5 L 575.5 285.5 L 75.5 285.5 L 75.5 35.5 Z"/></clipPath><clipPath id="WwyWXhOtJeNL"><path fill="none" stroke="none" d="M 75.5 35.5 L 575.5 35.5 L 575.5 285.5 L 75.5 285.5 L 75.5 35.5 Z"/></clipPath><clipPath id="HmtOvRJuWcrL"><path fill="none" stroke="none" d="M 75.5 35.5 L 575.5 35.5 L 575.5 285.5 L 75.5 285.5 L 75.5 35.5 Z"/></clipPath><clipPath id="wQtSoThIgEAk"><path fill="none" stroke="none" d="M 75.5 35.5 L 575.5 35.5 L 575.5 285.5 L 75.5 285.5 L 75.5 35.5 Z"/></clipPath><clipPath id="WIMmkkTEJfIT"><path fill="none" stroke="none" d="M 75.5 35.5 L 575.5 35.5 L 575.5 285.5 L 75.5 285.5 L 75.5 35.5 Z"/></clipPath><clipPath id="kMIsITdlpRhD"><path fill="none" stroke="none" d="M 75.5 35.5 L 575.5 35.5 L 575.5 285.5 L 75.5 285.5 L 75.5 35.5 Z"/></clipPath><clipPath id="JTEGbSQkDaqH"><path fill="none" stroke="none" d="M 75.5 35.5 L 575.5 35.5 L 575.5 285.5 L 75.5 285.5 L 75.5 35.5 Z"/></clipPath><clipPath id="vJpRqSchNred"><path fill="none" stroke="none" d="M 75.5 35.5 L 575.5 35.5 L 575.5 285.5 L 75.5 285.5 L 75.5 35.5 Z"/></clipPath><clipPath id="kUiaifqfUhEF"><path fill="none" stroke="none" d="M 75.5 35.5 L 575.5 35.5 L 575.5 285.5 L 75.5 285.5 L 75.5 35.5 Z"/></clipPath><clipPath id="FNCoaRbJxDPg"><path fill="none" stroke="none" d="M 75.5 35.5 L 575.5 35.5 L 575.5 285.5 L 75.5 285.5 L 75.5 35.5 Z"/></clipPath></defs><path fill="none" stroke="#e5e5e5" paint-order="fill" d="M 75.5 35.5 L 575.5 35.5 L 575.5 285.5 L 75.5 285.5 L 75.5 35.5 Z" stroke-linejoin="bevel" stroke-miterlimit="10"/><path fill="none" stroke="black" paint-order="fill" d="M 337.46172248803487 35.5 L 337.46172248803487 285.5" stroke-linejoin="bevel" stroke-miterlimit="10" stroke-width="3" stroke-dasharray="6" clip-path="url(#WWRLHPpItnOz)"/><path fill="none" stroke="#9467bd" paint-order="fill" d="M 98.2272720336914 78.95123291015625 L 122.15071868896484 89.3132095336914 L 146.07415771484375 82.40522003173828 L 169.9976043701172 84.47761535644531 L 193.92105102539062 76.87883758544922 L 217.84449768066406 94.14879608154297 L 241.7679443359375 78.26042938232422 L 265.6913757324219 90.69480895996094 L 289.6148376464844 88.62240600585938 L 313.53826904296875 75.49723815917969" stroke-linejoin="bevel" stroke-miterlimit="10" stroke-width="2" clip-path="url(#MKWibUXucnMQ)"/><path fill="none" stroke="#9467bd" paint-order="fill" d="M 98.2272720336914 83.81194305419922 L 122.15071868896484 83.8370590209961 L 146.07415771484375 83.8621826171875 L 169.9976043701172 83.88729858398438 L 193.92105102539062 83.91242218017578 L 217.84449768066406 83.93753814697266 L 241.7679443359375 83.96266174316406 L 265.6913757324219 83.98777770996094 L 289.6148376464844 84.01290130615234 L 313.53826904296875 84.03801727294922" stroke-linejoin="bevel" stroke-miterlimit="10" stroke-width="2" stroke-dasharray="6" clip-path="url(#nrAMKaTWyhmH)"/><path fill="none" stroke="#30a2da" paint-order="fill" d="M 313.53826904296875 75.49723815917969 L 337.46173095703125 73.42484283447266 L 361.3851623535156 96.22119140625 L 385.3086242675781 71.35244750976562 L 409.2320556640625 90.69480895996094 L 433.155517578125 93.45800018310547 L 457.0789489746094 90.69480895996094 L 481.00238037109375 88.62240600585938 L 504.92584228515625 82.40522003173828 L 528.8493041992188 83.09602355957031 L 552.772705078125 92.76720428466797" stroke-linejoin="bevel" stroke-miterlimit="10" stroke-width="2" clip-path="url(#FRbxMAEMZDiJ)"/><path fill="none" stroke="#30a2da" paint-order="fill" d="M 337.46173095703125 82.76946258544922 L 361.3851623535156 83.54817962646484 L 385.3086242675781 84.32689666748047 L 409.2320556640625 85.1056137084961 L 433.155517578125 85.88433837890625 L 457.0789489746094 86.66305541992188 L 481.00238037109375 87.4417724609375 L 504.92584228515625 88.22048950195312 L 528.8493041992188 88.99920654296875 L 552.772705078125 89.77792358398438" stroke-linejoin="bevel" stroke-miterlimit="10" stroke-width="2" stroke-dasharray="6" clip-path="url(#oDhaWcMZrNXV)"/><path fill="none" stroke="#fc4f30" paint-order="fill" d="M 313.53826904296875 75.49723815917969 L 337.46173095703125 84.47761535644531 L 361.3851623535156 101.7475814819336 L 385.3086242675781 99.67518615722656 L 409.2320556640625 92.76720428466797 L 433.155517578125 97.60279083251953 L 457.0789489746094 79.64202880859375 L 481.00238037109375 91.38560485839844 L 504.92584228515625 97.60279083251953 L 528.8493041992188 94.839599609375 L 552.772705078125 81.02362823486328" stroke-linejoin="bevel" stroke-miterlimit="10" stroke-width="2" clip-path="url(#VHWnecHVILQS)"/><path fill="none" stroke="#fc4f30" paint-order="fill" d="M 337.46173095703125 95.12847900390625 L 361.3851623535156 94.45024108886719 L 385.3086242675781 93.7719955444336 L 409.2320556640625 93.09375762939453 L 433.155517578125 92.41551971435547 L 457.0789489746094 91.7372817993164 L 481.00238037109375 91.05904388427734 L 504.92584228515625 90.38080596923828 L 528.8493041992188 89.70256805419922 L 552.772705078125 89.02433013916016" stroke-linejoin="bevel" stroke-miterlimit="10" stroke-width="2" stroke-dasharray="6" clip-path="url(#WNzodlklvneJ)"/><path fill="none" stroke="rgb(128,128,128)" paint-order="fill" d="M 98.2272720336914 78.95123291015625 L 122.15071868896484 76.87883758544922 L 146.07415771484375 85.85921478271484 L 169.9976043701172 83.09602355957031 L 193.92105102539062 83.09602355957031 L 217.84449768066406 87.24081420898438 L 241.7679443359375 83.78681945800781 L 265.6913757324219 85.85921478271484 L 289.6148376464844 78.95123291015625 L 313.53826904296875 86.55001068115234" stroke-opacity="0.7490196078431373" stroke-linejoin="bevel" stroke-miterlimit="10" clip-path="url(#SmVFckWgbRZv)"/><path fill="none" stroke="grey" paint-order="fill" d="M 313.53826904296875 86.55001068115234 L 337.46173095703125 92.07640075683594 L 361.3851623535156 97.60279083251953 L 385.3086242675781 83.09602355957031 L 409.2320556640625 92.76720428466797 L 433.155517578125 101.7475814819336 L 457.0789489746094 77.56963348388672 L 481.00238037109375 76.87883758544922 L 504.92584228515625 83.78681945800781 L 528.8493041992188 87.93161010742188 L 552.772705078125 94.14879608154297" stroke-linejoin="bevel" stroke-miterlimit="10" stroke-width="0.5" clip-path="url(#NhHnIbDEQCHP)"/><path fill="none" stroke="grey" paint-order="fill" d="M 313.53826904296875 86.55001068115234 L 337.46173095703125 78.95123291015625 L 361.3851623535156 96.22119140625 L 385.3086242675781 92.07640075683594 L 409.2320556640625 87.24081420898438 L 433.155517578125 88.62240600585938 L 457.0789489746094 100.36598205566406 L 481.00238037109375 90.69480895996094 L 504.92584228515625 73.42484283447266 L 528.8493041992188 98.98439025878906 L 552.772705078125 94.14879608154297" stroke-linejoin="bevel" stroke-miterlimit="10" stroke-width="0.5" clip-path="url(#nWgOZTZkGigG)"/><path fill="none" stroke="rgb(128,128,128)" paint-order="fill" d="M 98.2272720336914 86.55001068115234 L 122.15071868896484 73.42484283447266 L 146.07415771484375 85.16841888427734 L 169.9976043701172 89.3132095336914 L 193.92105102539062 85.85921478271484 L 217.84449768066406 90.69480895996094 L 241.7679443359375 82.40522003173828 L 265.6913757324219 83.09602355957031 L 289.6148376464844 96.22119140625 L 313.53826904296875 84.47761535644531" stroke-opacity="0.7490196078431373" stroke-linejoin="bevel" stroke-miterlimit="10" clip-path="url(#vIgTQEQrlpVX)"/><path fill="none" stroke="grey" paint-order="fill" d="M 313.53826904296875 84.47761535644531 L 337.46173095703125 76.18803405761719 L 361.3851623535156 83.09602355957031 L 385.3086242675781 81.71442413330078 L 409.2320556640625 101.7475814819336 L 433.155517578125 69.2800521850586 L 457.0789489746094 97.60279083251953 L 481.00238037109375 92.76720428466797 L 504.92584228515625 81.02362823486328 L 528.8493041992188 96.91199493408203 L 552.772705078125 90.69480895996094" stroke-linejoin="bevel" stroke-miterlimit="10" stroke-width="0.5" clip-path="url(#KUtKsFOUTkUp)"/><path fill="none" stroke="grey" paint-order="fill" d="M 313.53826904296875 84.47761535644531 L 337.46173095703125 86.55001068115234 L 361.3851623535156 79.64202880859375 L 385.3086242675781 82.40522003173828 L 409.2320556640625 69.9708480834961 L 433.155517578125 87.93161010742188 L 457.0789489746094 85.16841888427734 L 481.00238037109375 84.47761535644531 L 504.92584228515625 84.47761535644531 L 528.8493041992188 81.02362823486328 L 552.772705078125 97.60279083251953" stroke-linejoin="bevel" stroke-miterlimit="10" stroke-width="0.5" clip-path="url(#WwyWXhOtJeNL)"/><path fill="none" stroke="rgb(128,128,128)" paint-order="fill" d="M 98.2272720336914 94.14879608154297 L 122.15071868896484 81.02362823486328 L 146.07415771484375 77.56963348388672 L 169.9976043701172 93.45800018310547 L 193.92105102539062 87.93161010742188 L 217.84449768066406 98.29358673095703 L 241.7679443359375 98.29358673095703 L 265.6913757324219 87.24081420898438 L 289.6148376464844 94.14879608154297 L 313.53826904296875 94.14879608154297" stroke-opacity="0.7490196078431373" stroke-linejoin="bevel" stroke-miterlimit="10" clip-path="url(#HmtOvRJuWcrL)"/><path fill="none" stroke="grey" paint-order="fill" d="M 313.53826904296875 94.14879608154297 L 337.46173095703125 85.85921478271484 L 361.3851623535156 58.227272033691406 L 385.3086242675781 94.839599609375 L 409.2320556640625 82.40522003173828 L 433.155517578125 96.91199493408203 L 457.0789489746094 90.0040054321289 L 481.00238037109375 83.09602355957031 L 504.92584228515625 85.16841888427734 L 528.8493041992188 98.98439025878906 L 552.772705078125 69.2800521850586" stroke-linejoin="bevel" stroke-miterlimit="10" stroke-width="0.5" clip-path="url(#wQtSoThIgEAk)"/><path fill="none" stroke="grey" paint-order="fill" d="M 313.53826904296875 94.14879608154297 L 337.46173095703125 83.09602355957031 L 361.3851623535156 67.20765686035156 L 385.3086242675781 101.0567855834961 L 409.2320556640625 105.20157623291016 L 433.155517578125 87.93161010742188 L 457.0789489746094 80.33282470703125 L 481.00238037109375 93.45800018310547 L 504.92584228515625 88.62240600585938 L 528.8493041992188 73.42484283447266 L 552.772705078125 87.93161010742188" stroke-linejoin="bevel" stroke-miterlimit="10" stroke-width="0.5" clip-path="url(#WIMmkkTEJfIT)"/><path fill="none" stroke="rgb(128,128,128)" paint-order="fill" d="M 98.2272720336914 73.42484283447266 L 122.15071868896484 87.24081420898438 L 146.07415771484375 81.02362823486328 L 169.9976043701172 78.26042938232422 L 193.92105102539062 88.62240600585938 L 217.84449768066406 72.04324340820312 L 241.7679443359375 88.62240600585938 L 265.6913757324219 84.47761535644531 L 289.6148376464844 95.5303955078125 L 313.53826904296875 87.24081420898438" stroke-opacity="0.7490196078431373" stroke-linejoin="bevel" stroke-miterlimit="10" clip-path="url(#kMIsITdlpRhD)"/><path fill="none" stroke="grey" paint-order="fill" d="M 313.53826904296875 87.24081420898438 L 337.46173095703125 69.9708480834961 L 361.3851623535156 109.34636688232422 L 385.3086242675781 80.33282470703125 L 409.2320556640625 65.13526153564453 L 433.155517578125 83.78681945800781 L 457.0789489746094 84.47761535644531 L 481.00238037109375 76.87883758544922 L 504.92584228515625 78.95123291015625 L 528.8493041992188 98.98439025878906 L 552.772705078125 75.49723815917969" stroke-linejoin="bevel" stroke-miterlimit="10" stroke-width="0.5" clip-path="url(#JTEGbSQkDaqH)"/><path fill="none" stroke="grey" paint-order="fill" d="M 313.53826904296875 87.24081420898438 L 337.46173095703125 77.56963348388672 L 361.3851623535156 88.62240600585938 L 385.3086242675781 88.62240600585938 L 409.2320556640625 76.18803405761719 L 433.155517578125 94.839599609375 L 457.0789489746094 89.3132095336914 L 481.00238037109375 69.2800521850586 L 504.92584228515625 85.85921478271484 L 528.8493041992188 87.24081420898438 L 552.772705078125 98.29358673095703" stroke-linejoin="bevel" stroke-miterlimit="10" stroke-width="0.5" clip-path="url(#vJpRqSchNred)"/><path fill="none" stroke="black" paint-order="fill" d="M 75.5 285.5 L 575.5 285.5" stroke-linejoin="bevel" stroke-miterlimit="10"/><path fill="none" stroke="black" paint-order="fill" d="M 98.5 291.5 L 98.5 283.5 M 217.5 291.5 L 217.5 283.5 M 337.5 291.5 L 337.5 283.5 M 457.5 291.5 L 457.5 283.5" stroke-linejoin="bevel" stroke-miterlimit="10"/><path fill="none" stroke="black" paint-order="fill" d="M 98.5 289.5 L 98.5 285.5 M 122.5 289.5 L 122.5 285.5 M 146.5 289.5 L 146.5 285.5 M 169.5 289.5 L 169.5 285.5 M 193.5 289.5 L 193.5 285.5 M 217.5 289.5 L 217.5 285.5 M 241.5 289.5 L 241.5 285.5 M 265.5 289.5 L 265.5 285.5 M 289.5 289.5 L 289.5 285.5 M 313.5 289.5 L 313.5 285.5 M 337.5 289.5 L 337.5 285.5 M 361.5 289.5 L 361.5 285.5 M 385.5 289.5 L 385.5 285.5 M 409.5 289.5 L 409.5 285.5 M 433.5 289.5 L 433.5 285.5 M 457.5 289.5 L 457.5 285.5 M 481.5 289.5 L 481.5 285.5 M 504.5 289.5 L 504.5 285.5 M 528.5 289.5 L 528.5 285.5 M 552.5 289.5 L 552.5 285.5" stroke-linejoin="bevel" stroke-miterlimit="10"/><text fill="#444444" stroke="none" font-family="helvetica" font-size="10pt" font-style="normal" font-weight="normal" text-decoration="normal" x="84.36060523986816" y="306" text-anchor="start" dominant-baseline="alphabetic" transform="matrix(1, 0, 0, 1, 0.5, 0.5)">2025</text><text fill="none" stroke="rgb(0,0,0)" font-family="helvetica" font-size="10pt" font-style="normal" font-weight="normal" text-decoration="normal" x="84.36060523986816" y="306" text-anchor="start" dominant-baseline="alphabetic" transform="matrix(1, 0, 0, 1, 0.5, 0.5)" stroke-opacity="0" stroke-linejoin="bevel" stroke-miterlimit="10">2025</text><text fill="#444444" stroke="none" font-family="helvetica" font-size="10pt" font-style="normal" font-weight="normal" text-decoration="normal" x="203.97783088684082" y="306" text-anchor="start" dominant-baseline="alphabetic" transform="matrix(1, 0, 0, 1, 0.5, 0.5)">2030</text><text fill="none" stroke="rgb(0,0,0)" font-family="helvetica" font-size="10pt" font-style="normal" font-weight="normal" text-decoration="normal" x="203.97783088684082" y="306" text-anchor="start" dominant-baseline="alphabetic" transform="matrix(1, 0, 0, 1, 0.5, 0.5)" stroke-opacity="0" stroke-linejoin="bevel" stroke-miterlimit="10">2030</text><text fill="#444444" stroke="none" font-family="helvetica" font-size="10pt" font-style="normal" font-weight="normal" text-decoration="normal" x="323.595064163208" y="306" text-anchor="start" dominant-baseline="alphabetic" transform="matrix(1, 0, 0, 1, 0.5, 0.5)">2035</text><text fill="none" stroke="rgb(0,0,0)" font-family="helvetica" font-size="10pt" font-style="normal" font-weight="normal" text-decoration="normal" x="323.595064163208" y="306" text-anchor="start" dominant-baseline="alphabetic" transform="matrix(1, 0, 0, 1, 0.5, 0.5)" stroke-opacity="0" stroke-linejoin="bevel" stroke-miterlimit="10">2035</text><text fill="#444444" stroke="none" font-family="helvetica" font-size="10pt" font-style="normal" font-weight="normal" text-decoration="normal" x="443.21228218078613" y="306" text-anchor="start" dominant-baseline="alphabetic" transform="matrix(1, 0, 0, 1, 0.5, 0.5)">2040</text><text fill="none" stroke="rgb(0,0,0)" font-family="helvetica" font-size="10pt" font-style="normal" font-weight="normal" text-decoration="normal" x="443.21228218078613" y="306" text-anchor="start" dominant-baseline="alphabetic" transform="matrix(1, 0, 0, 1, 0.5, 0.5)" stroke-opacity="0" stroke-linejoin="bevel" stroke-miterlimit="10">2040</text><text fill="#444444" stroke="none" font-family="helvetica" font-size="12pt" font-style="normal" font-weight="normal" text-decoration="normal" x="310.3166666030884" y="329" text-anchor="start" dominant-baseline="alphabetic" transform="matrix(1, 0, 0, 1, 0.5, 0.5)">Year</text><text fill="none" stroke="rgb(0,0,0)" font-family="helvetica" font-size="12pt" font-style="normal" font-weight="normal" text-decoration="normal" x="310.3166666030884" y="329" text-anchor="start" dominant-baseline="alphabetic" transform="matrix(1, 0, 0, 1, 0.5, 0.5)" stroke-opacity="0" stroke-linejoin="bevel" stroke-miterlimit="10">Year</text><path fill="none" stroke="black" paint-order="fill" d="M 75.5 285.5 L 75.5 35.5" stroke-linejoin="bevel" stroke-miterlimit="10"/><path fill="none" stroke="black" paint-order="fill" d="M 69.5 285.5 L 77.5 285.5 M 69.5 250.5 L 77.5 250.5 M 69.5 216.5 L 77.5 216.5 M 69.5 181.5 L 77.5 181.5 M 69.5 147.5 L 77.5 147.5 M 69.5 112.5 L 77.5 112.5 M 69.5 78.5 L 77.5 78.5 M 69.5 43.5 L 77.5 43.5" stroke-linejoin="bevel" stroke-miterlimit="10"/><path fill="none" stroke="black" paint-order="fill" d="M 71.5 285.5 L 75.5 285.5 M 71.5 278.5 L 75.5 278.5 M 71.5 271.5 L 75.5 271.5 M 71.5 264.5 L 75.5 264.5 M 71.5 257.5 L 75.5 257.5 M 71.5 250.5 L 75.5 250.5 M 71.5 244.5 L 75.5 244.5 M 71.5 237.5 L 75.5 237.5 M 71.5 230.5 L 75.5 230.5 M 71.5 223.5 L 75.5 223.5 M 71.5 216.5 L 75.5 216.5 M 71.5 209.5 L 75.5 209.5 M 71.5 202.5 L 75.5 202.5 M 71.5 195.5 L 75.5 195.5 M 71.5 188.5 L 75.5 188.5 M 71.5 181.5 L 75.5 181.5 M 71.5 174.5 L 75.5 174.5 M 71.5 168.5 L 75.5 168.5 M 71.5 161.5 L 75.5 161.5 M 71.5 154.5 L 75.5 154.5 M 71.5 147.5 L 75.5 147.5 M 71.5 140.5 L 75.5 140.5 M 71.5 133.5 L 75.5 133.5 M 71.5 126.5 L 75.5 126.5 M 71.5 119.5 L 75.5 119.5 M 71.5 112.5 L 75.5 112.5 M 71.5 105.5 L 75.5 105.5 M 71.5 98.5 L 75.5 98.5 M 71.5 92.5 L 75.5 92.5 M 71.5 85.5 L 75.5 85.5 M 71.5 78.5 L 75.5 78.5 M 71.5 71.5 L 75.5 71.5 M 71.5 64.5 L 75.5 64.5 M 71.5 57.5 L 75.5 57.5 M 71.5 50.5 L 75.5 50.5 M 71.5 43.5 L 75.5 43.5 M 71.5 36.5 L 75.5 36.5" stroke-linejoin="bevel" stroke-miterlimit="10"/><text fill="#444444" stroke="none" font-family="helvetica" font-size="10pt" font-style="normal" font-weight="normal" text-decoration="normal" x="57.31666660308838" y="290" text-anchor="start" dominant-baseline="alphabetic" transform="matrix(1, 0, 0, 1, 0.5, 0.5)">0</text><text fill="none" stroke="rgb(0,0,0)" font-family="helvetica" font-size="10pt" font-style="normal" font-weight="normal" text-decoration="normal" x="57.31666660308838" y="290" text-anchor="start" dominant-baseline="alphabetic" transform="matrix(1, 0, 0, 1, 0.5, 0.5)" stroke-opacity="0" stroke-linejoin="bevel" stroke-miterlimit="10">0</text><text fill="#444444" stroke="none" font-family="helvetica" font-size="10pt" font-style="normal" font-weight="normal" text-decoration="normal" x="50.63333320617676" y="255.46006774902344" text-anchor="start" dominant-baseline="alphabetic" transform="matrix(1, 0, 0, 1, 0.5, 0.5)">50</text><text fill="none" stroke="rgb(0,0,0)" font-family="helvetica" font-size="10pt" font-style="normal" font-weight="normal" text-decoration="normal" x="50.63333320617676" y="255.46006774902344" text-anchor="start" dominant-baseline="alphabetic" transform="matrix(1, 0, 0, 1, 0.5, 0.5)" stroke-opacity="0" stroke-linejoin="bevel" stroke-miterlimit="10">50</text><text fill="#444444" stroke="none" font-family="helvetica" font-size="10pt" font-style="normal" font-weight="normal" text-decoration="normal" x="43.95000076293945" y="220.92015075683594" text-anchor="start" dominant-baseline="alphabetic" transform="matrix(1, 0, 0, 1, 0.5, 0.5)">100</text><text fill="none" stroke="rgb(0,0,0)" font-family="helvetica" font-size="10pt" font-style="normal" font-weight="normal" text-decoration="normal" x="43.95000076293945" y="220.92015075683594" text-anchor="start" dominant-baseline="alphabetic" transform="matrix(1, 0, 0, 1, 0.5, 0.5)" stroke-opacity="0" stroke-linejoin="bevel" stroke-miterlimit="10">100</text><text fill="#444444" stroke="none" font-family="helvetica" font-size="10pt" font-style="normal" font-weight="normal" text-decoration="normal" x="43.95000076293945" y="186.38021850585938" text-anchor="start" dominant-baseline="alphabetic" transform="matrix(1, 0, 0, 1, 0.5, 0.5)">150</text><text fill="none" stroke="rgb(0,0,0)" font-family="helvetica" font-size="10pt" font-style="normal" font-weight="normal" text-decoration="normal" x="43.95000076293945" y="186.38021850585938" text-anchor="start" dominant-baseline="alphabetic" transform="matrix(1, 0, 0, 1, 0.5, 0.5)" stroke-opacity="0" stroke-linejoin="bevel" stroke-miterlimit="10">150</text><text fill="#444444" stroke="none" font-family="helvetica" font-size="10pt" font-style="normal" font-weight="normal" text-decoration="normal" x="43.95000076293945" y="151.8402862548828" text-anchor="start" dominant-baseline="alphabetic" transform="matrix(1, 0, 0, 1, 0.5, 0.5)">200</text><text fill="none" stroke="rgb(0,0,0)" font-family="helvetica" font-size="10pt" font-style="normal" font-weight="normal" text-decoration="normal" x="43.95000076293945" y="151.8402862548828" text-anchor="start" dominant-baseline="alphabetic" transform="matrix(1, 0, 0, 1, 0.5, 0.5)" stroke-opacity="0" stroke-linejoin="bevel" stroke-miterlimit="10">200</text><text fill="#444444" stroke="none" font-family="helvetica" font-size="10pt" font-style="normal" font-weight="normal" text-decoration="normal" x="43.95000076293945" y="117.30036163330078" text-anchor="start" dominant-baseline="alphabetic" transform="matrix(1, 0, 0, 1, 0.5, 0.5)">250</text><text fill="none" stroke="rgb(0,0,0)" font-family="helvetica" font-size="10pt" font-style="normal" font-weight="normal" text-decoration="normal" x="43.95000076293945" y="117.30036163330078" text-anchor="start" dominant-baseline="alphabetic" transform="matrix(1, 0, 0, 1, 0.5, 0.5)" stroke-opacity="0" stroke-linejoin="bevel" stroke-miterlimit="10">250</text><text fill="#444444" stroke="none" font-family="helvetica" font-size="10pt" font-style="normal" font-weight="normal" text-decoration="normal" x="43.95000076293945" y="82.76042938232422" text-anchor="start" dominant-baseline="alphabetic" transform="matrix(1, 0, 0, 1, 0.5, 0.5)">300</text><text fill="none" stroke="rgb(0,0,0)" font-family="helvetica" font-size="10pt" font-style="normal" font-weight="normal" text-decoration="normal" x="43.95000076293945" y="82.76042938232422" text-anchor="start" dominant-baseline="alphabetic" transform="matrix(1, 0, 0, 1, 0.5, 0.5)" stroke-opacity="0" stroke-linejoin="bevel" stroke-miterlimit="10">300</text><text fill="#444444" stroke="none" font-family="helvetica" font-size="10pt" font-style="normal" font-weight="normal" text-decoration="normal" x="43.95000076293945" y="48.22050476074219" text-anchor="start" dominant-baseline="alphabetic" transform="matrix(1, 0, 0, 1, 0.5, 0.5)">350</text><text fill="none" stroke="rgb(0,0,0)" font-family="helvetica" font-size="10pt" font-style="normal" font-weight="normal" text-decoration="normal" x="43.95000076293945" y="48.22050476074219" text-anchor="start" dominant-baseline="alphabetic" transform="matrix(1, 0, 0, 1, 0.5, 0.5)" stroke-opacity="0" stroke-linejoin="bevel" stroke-miterlimit="10">350</text><text fill="#444444" stroke="none" font-family="helvetica" font-size="12pt" font-style="normal" font-weight="normal" text-decoration="normal" x="-60.25833511352539" y="156" text-anchor="start" dominant-baseline="alphabetic" transform="matrix(6.123233995736766e-17, -1, 1, 6.123233995736766e-17, -123.54999923706055, 196.45000076293945)">Days suitable for transmission</text><text fill="none" stroke="rgb(0,0,0)" font-family="helvetica" font-size="12pt" font-style="normal" font-weight="normal" text-decoration="normal" x="-60.25833511352539" y="156" text-anchor="start" dominant-baseline="alphabetic" transform="matrix(6.123233995736766e-17, -1, 1, 6.123233995736766e-17, -123.54999923706055, 196.45000076293945)" stroke-opacity="0" stroke-linejoin="bevel" stroke-miterlimit="10">Days suitable for transmission</text><path fill="rgb(255,255,255)" stroke="rgb(229,229,229)" paint-order="fill" d="M 482.0333251953125 210.5 L 565.4999847412109 210.5 L 565.4999847412109 275.5 L 482.0333251953125 275.5 L 482.0333251953125 210.5 Z" fill-opacity="0.9490196078431372" clip-path="url(#kUiaifqfUhEF)" stroke-opacity="0.5019607843137255" stroke-linejoin="bevel" stroke-miterlimit="10"/><g clip-path="url(#kUiaifqfUhEF)"><g transform="matrix(1, 0, 0, 1, 492.5333251953125, 221)"><path fill="none" stroke="#30a2da" paint-order="fill" d="M 0.5 10.5 L 20.5 10.5" stroke-linejoin="bevel" stroke-miterlimit="10" stroke-width="2"/></g></g><g clip-path="url(#kUiaifqfUhEF)"><text fill="#444444" stroke="none" font-family="helvetica" font-size="13px" font-style="normal" font-weight="normal" text-decoration="normal" x="517.5333251953125" y="235.5" text-anchor="start" dominant-baseline="alphabetic" transform="matrix(1, 0, 0, 1, 0.5, 0.5)">ID 001</text></g><g clip-path="url(#kUiaifqfUhEF)"><text fill="none" stroke="rgb(0,0,0)" font-family="helvetica" font-size="13px" font-style="normal" font-weight="normal" text-decoration="normal" x="517.5333251953125" y="235.5" text-anchor="start" dominant-baseline="alphabetic" transform="matrix(1, 0, 0, 1, 0.5, 0.5)" stroke-opacity="0" stroke-linejoin="bevel" stroke-miterlimit="10">ID 001</text></g><g clip-path="url(#kUiaifqfUhEF)"><g transform="matrix(1, 0, 0, 1, 492.5333251953125, 244)"><path fill="none" stroke="#fc4f30" paint-order="fill" d="M 0.5 10.5 L 20.5 10.5" stroke-linejoin="bevel" stroke-miterlimit="10" stroke-width="2"/></g></g><g clip-path="url(#kUiaifqfUhEF)"><text fill="#444444" stroke="none" font-family="helvetica" font-size="13px" font-style="normal" font-weight="normal" text-decoration="normal" x="517.5333251953125" y="258.5" text-anchor="start" dominant-baseline="alphabetic" transform="matrix(1, 0, 0, 1, 0.5, 0.5)">ID 006</text></g><g clip-path="url(#kUiaifqfUhEF)"><text fill="none" stroke="rgb(0,0,0)" font-family="helvetica" font-size="13px" font-style="normal" font-weight="normal" text-decoration="normal" x="517.5333251953125" y="258.5" text-anchor="start" dominant-baseline="alphabetic" transform="matrix(1, 0, 0, 1, 0.5, 0.5)" stroke-opacity="0" stroke-linejoin="bevel" stroke-miterlimit="10">ID 006</text></g><text fill="black" stroke="none" font-family="helvetica" font-size="14pt" font-style="normal" font-weight="normal" text-decoration="normal" x="0" y="18" text-anchor="start" dominant-baseline="alphabetic" transform="matrix(1, 0, 0, 1, 5.5, 7.5)">F. Hanoi</text><text fill="none" stroke="rgb(0,0,0)" font-family="helvetica" font-size="14pt" font-style="normal" font-weight="normal" text-decoration="normal" x="0" y="18" text-anchor="start" dominant-baseline="alphabetic" transform="matrix(1, 0, 0, 1, 5.5, 7.5)" stroke-opacity="0" stroke-linejoin="bevel" stroke-miterlimit="10">F. Hanoi</text></svg>