<svg version="1.1" xmlns="http://www.w3.org/2000/svg" width="605" height="336"><defs><clipPath id="mssVkmVIoPxL"><path fill="none" stroke="none" d="M 75.5 35.5 L 575.5 35.5 L 575.5 285.5 L 75.5 285.5 L 75.5 35.5 Z"/></clipPath><clipPath id="ihZHJuGlPIKR"><path fill="none" stroke="none" d="M 75.5 35.5 L 575.5 35.5 L 575.5 285.5 L 75.5 285.5 L 75.5 35.5 Z"/></clipPath><clipPath id="TDCEClTfVCih"><path fill="none" stroke="none" d="M 75.5 35.5 L 575.5 35.5 L 575.5 285.5 L 75.5 285.5 L 75.5 35.5 Z"/></clipPath><clipPath id="MKgobdgwEQoH"><path fill="none" stroke="none" d="M 75.5 35.5 L 575.5 35.5 L 575.5 285.5 L 75.5 285.5 L 75.5 35.5 Z"/></clipPath><clipPath id="OweAISuwJZnK"><path fill="none" stroke="none" d="M 75.5 35.5 L 575.5 35.5 L 575.5 285.5 L 75.5 285.5 L 75.5 35.5 Z"/></clipPath><clipPath id="LOqEMTkmhzpq"><path fill="none" stroke="none" d="M 75.5 35.5 L 575.5 35.5 L 575.5 285.5 L 75.5 285.5 L 75.5 35.5 Z"/></clipPath><clipPath id="KUvQIIewzAWx"><path fill="none" stroke="none" d="M 75.5 35.5 L 575.5 35.5 L 575.5 285.5 L 75.5 285.5 L 75.5 35.5 Z"/></clipPath><clipPath id="kvTvTQyIGsqh"><path fill="none" stroke="none" d="M 75.5 35.5 L 575.5 35.5 L 575.5 285.5 L 75.5 285.5 L 75.5 35.5 Z"/></clipPath><clipPath id="nevSaXzgICAH"><path fill="none" stroke="none" d="M 75.5 35.5 L 575.5 35.5 L 575.5 285.5 L 75.5 285.5 L 75.5 35.5 Z"/></clipPath><clipPath id="GOenlBQRQeiM"><path fill="none" stroke="none" d="M 75.5 35.5 L 575.5 35.5 L 575.5 285.5 L 75.5 285.5 L 75.5 35.5 Z"/></clipPath><clipPath id="umppVEffszpT"><path fill="none" stroke="none" d="M 75.5 35.5 L 575.5 35.5 L 575.5 285.5 L 75.5 285.5 L 75.5 35.5 Z"/></clipPath><clipPath id="ilWXikAUsWCQ"><path fill="none" stroke="none" d="M 75.5 35.5 L 575.5 35.5 L 575.5 285.5 L 75.5 285.5 L 75.5 35.5 Z"/></clipPath><clipPath id="MVuenEpNaAPK"><path fill="none" stroke="none" d="M 75.5 35.5 L 575.5 35.5 L 575.5 285.5 L 75.5 285.5 L 75.5 35.5 Z"/></clipPath><clipPath id="PUCcxirmAveK"><path fill="none" stroke="none" d="M 75.5 35.5 L 575.5 35.5 L 575.5 285.5 L 75.5 285.5 L 75.5 35.5 Z"/></clipPath><clipPath id="DCmlrPlFuAlk"><path fill="none" stroke="none" d="M 75.5 35.5 L 575.5 35.5 L 575.5 285.5 L 75.5 285.5 L 75.5 35.5 Z"/></clipPath><clipPath id="XNtlCIgpTTfa"><path fill="none" stroke="none" d="M 75.5 35.5 L 575.5 35.5 L 575.5 285.5 L 75.5 285.5 L 75.5 35.5 Z"/></clipPath><clipPath id="QTHHhGXLoRav"><path fill="none" stroke="none" d="M 75.5 35.5 L 575.5 35.5 L 575.5 285.5 L 75.5 285.5 L 75.5 35.5 Z"/></clipPath><clipPath id="HPcQbnxHaCBT"><path fill="none" stroke="none" d="M 75.5 35.5 L 575.5 35.5 L 575.5 285.5 L 75.5 285.5 L 75.5 35.5 Z"/></clipPath><clipPath id="OqrpnqndDmeb"><path fill="none" stroke="none" d="M 75.5 35.5 L 575.5 35.5 L 575.5 285.5 L 75.5 285.5 L 75.5 35.5 Z"/></clipPath><clipPath id="hmycXANtOJQv"><path fill="none" stroke="none" d="M 75.5 35.5 L 575.5 35.5 L 575.5 285.5 L 75.5 285.5 L 75.5 35.5 Z"/></clipPath><clipPath id="NhvKWuEWagbD"><path fill="none" stroke="none" d="M 75.5 35.5 L 575.5 35.5 L 575.5 285.5 L 75.5 285.5 L 75.5 35.5 Z"/></clipPath><clipPath id="GbNyDlygHfXp"><path fill="none" stroke="none" d="M 75.5 35.5 L 575.5 35.5 L 575.5 285.5 L 75.5 285.5 L 75.5 35.5 Z"/></clipPath><clipPath id="QLPZmonuoTmr"><path fill="none" stroke="none" d="M 75.5 35.5 L 575.5 35.5 L 575.5 285.5 L 75.5 285.5 L 75.5 35.5 Z"/></clipPath></defs><path fill="none" stroke="#e5e5e5" paint-order="fill" d="M 75.5 35.5 L 575.5 35.5 L 575.5 285.5 L 75.5 285.5 L 75.5 35.5 Z" stroke-linejoin="bevel" stroke-miterlimit="10"/><path fill="none" stroke="black" paint-order="fill" d="M 337.46172248803487 35.5 L 337.46172248803487 285.5" stroke-linejoin="bevel" stroke-miterlimit="10" stroke-width="3" stroke-dasharray="6" clip-path="url(#TDCEClTfVCih)"/><path fill="none" stroke="#9467bd" paint-order="fill" d="M 98.2272720336914 126.04251861572266 L 122.15071868896484 91.21847534179688 L 146.07415771484375 96.71701049804688 L 169.9976043701172 101.29911804199219 L 193.92105102539062 135.2067413330078 L 217.84449768066406 80.22140502929688 L 241.7679443359375 96.71701049804688 L 265.6913757324219 122.3768310546875 L 289.6148376464844 84.80352020263672 L 313.53826904296875 78.38856506347656" stroke-linejoin="bevel" stroke-miterlimit="10" stroke-width="2" clip-path="url(#MKgobdgwEQoH)"/><path fill="none" stroke="#9467bd" paint-order="fill" d="M 98.2272720336914 112.59610748291016 L 122.15071868896484 110.08566284179688 L 146.07415771484375 107.57522583007812 L 169.9976043701172 105.06478118896484 L 193.92105102539062 102.5543441772461 L 217.84449768066406 100.04389953613281 L 241.7679443359375 97.53345489501953 L 265.6913757324219 95.02301788330078 L 289.6148376464844 92.5125732421875 L 313.53826904296875 90.00213623046875" stroke-linejoin="bevel" stroke-miterlimit="10" stroke-width="2" stroke-dasharray="6" clip-path="url(#OweAISuwJZnK)"/><path fill="none" stroke="#30a2da" paint-order="fill" d="M 313.53826904296875 78.38856506347656 L 337.46173095703125 89.38562774658203 L 361.3851623535156 84.80352020263672 L 385.3086242675781 73.80644989013672 L 409.2320556640625 99.46627807617188 L 433.155517578125 104.04838562011719 L 457.0789489746094 93.05132293701172 L 481.00238037109375 99.46627807617188 L 504.92584228515625 100.38269805908203 L 528.8493041992188 63.725807189941406 L 552.772705078125 101.29911804199219" stroke-linejoin="bevel" stroke-miterlimit="10" stroke-width="2" clip-path="url(#LOqEMTkmhzpq)"/><path fill="none" stroke="#30a2da" paint-order="fill" d="M 337.46173095703125 88.7191390991211 L 361.3851623535156 89.21345520019531 L 385.3086242675781 89.707763671875 L 409.2320556640625 90.20207977294922 L 433.155517578125 90.69639587402344 L 457.0789489746094 91.19070434570312 L 481.00238037109375 91.68502044677734 L 504.92584228515625 92.17932891845703 L 528.8493041992188 92.67364501953125 L 552.772705078125 93.16795349121094" stroke-linejoin="bevel" stroke-miterlimit="10" stroke-width="2" stroke-dasharray="6" clip-path="url(#KUvQIIewzAWx)"/><path fill="none" stroke="#fc4f30" paint-order="fill" d="M 313.53826904296875 78.38856506347656 L 337.46173095703125 115.96187591552734 L 361.3851623535156 82.05425262451172 L 385.3086242675781 92.13489532470703 L 409.2320556640625 110.46334075927734 L 433.155517578125 62.809383392333984 L 457.0789489746094 96.71701049804688 L 481.00238037109375 84.80352020263672 L 504.92584228515625 80.22140502929688 L 528.8493041992188 75.63929748535156 L 552.772705078125 99.46627807617188" stroke-linejoin="bevel" stroke-miterlimit="10" stroke-width="2" clip-path="url(#kvTvTQyIGsqh)"/><path fill="none" stroke="#fc4f30" paint-order="fill" d="M 337.46173095703125 98.0999755859375 L 361.3851623535156 96.3060073852539 L 385.3086242675781 94.51203918457031 L 409.2320556640625 92.71807861328125 L 433.155517578125 90.92411041259766 L 457.0789489746094 89.13014221191406 L 481.00238037109375 87.33617401123047 L 504.92584228515625 85.5422134399414 L 528.8493041992188 83.74824523925781 L 552.772705078125 81.95427703857422" stroke-linejoin="bevel" stroke-miterlimit="10" stroke-width="2" stroke-dasharray="6" clip-path="url(#nevSaXzgICAH)"/><path fill="none" stroke="rgb(128,128,128)" paint-order="fill" d="M 98.2272720336914 97.63343048095703 L 122.15071868896484 96.71701049804688 L 146.07415771484375 90.30205535888672 L 169.9976043701172 100.38269805908203 L 193.92105102539062 81.13783264160156 L 217.84449768066406 91.21847534179688 L 241.7679443359375 109.54692077636719 L 265.6913757324219 77.47213745117188 L 289.6148376464844 82.97067260742188 L 313.53826904296875 86.63636016845703" stroke-opacity="0.7490196078431373" stroke-linejoin="bevel" stroke-miterlimit="10" clip-path="url(#GOenlBQRQeiM)"/><path fill="none" stroke="grey" paint-order="fill" d="M 313.53826904296875 86.63636016845703 L 337.46173095703125 113.21260833740234 L 361.3851623535156 84.80352020263672 L 385.3086242675781 98.54985046386719 L 409.2320556640625 102.21554565429688 L 433.155517578125 85.71994018554688 L 457.0789489746094 109.54692077636719 L 481.00238037109375 95.80058288574219 L 504.92584228515625 71.9736099243164 L 528.8493041992188 95.80058288574219 L 552.772705078125 105.88123321533203" stroke-linejoin="bevel" stroke-miterlimit="10" stroke-width="0.5" clip-path="url(#umppVEffszpT)"/><path fill="none" stroke="grey" paint-order="fill" d="M 313.53826904296875 86.63636016845703 L 337.46173095703125 126.04251861572266 L 361.3851623535156 90.30205535888672 L 385.3086242675781 104.96480560302734 L 409.2320556640625 121.46041107177734 L 433.155517578125 109.54692077636719 L 457.0789489746094 88.46920776367188 L 481.00238037109375 70.14076232910156 L 504.92584228515625 120.54399108886719 L 528.8493041992188 64.64222717285156 L 552.772705078125 82.97067260742188" stroke-linejoin="bevel" stroke-miterlimit="10" stroke-width="0.5" clip-path="url(#ilWXikAUsWCQ)"/><path fill="none" stroke="rgb(128,128,128)" paint-order="fill" d="M 98.2272720336914 98.54985046386719 L 122.15071868896484 101.29911804199219 L 146.07415771484375 88.46920776367188 L 169.9976043701172 115.96187591552734 L 193.92105102539062 105.88123321533203 L 217.84449768066406 83.88710021972656 L 241.7679443359375 96.71701049804688 L 265.6913757324219 97.63343048095703 L 289.6148376464844 65.55865478515625 L 313.53826904296875 93.96774291992188" stroke-opacity="0.7490196078431373" stroke-linejoin="bevel" stroke-miterlimit="10" clip-path="url(#MVuenEpNaAPK)"/><path fill="none" stroke="grey" paint-order="fill" d="M 313.53826904296875 93.96774291992188 L 337.46173095703125 121.46041107177734 L 361.3851623535156 91.21847534179688 L 385.3086242675781 97.63343048095703 L 409.2320556640625 82.97067260742188 L 433.155517578125 85.71994018554688 L 457.0789489746094 98.54985046386719 L 481.00238037109375 103.13196563720703 L 504.92584228515625 104.04838562011719 L 528.8493041992188 86.63636016845703 L 552.772705078125 104.04838562011719" stroke-linejoin="bevel" stroke-miterlimit="10" stroke-width="0.5" clip-path="url(#PUCcxirmAveK)"/><path fill="none" stroke="grey" paint-order="fill" d="M 313.53826904296875 93.96774291992188 L 337.46173095703125 110.46334075927734 L 361.3851623535156 103.13196563720703 L 385.3086242675781 81.13783264160156 L 409.2320556640625 106.79765319824219 L 433.155517578125 110.46334075927734 L 457.0789489746094 72.89002990722656 L 481.00238037109375 100.38269805908203 L 504.92584228515625 94.88416290283203 L 528.8493041992188 95.80058288574219 L 552.772705078125 93.96774291992188" stroke-linejoin="bevel" stroke-miterlimit="10" stroke-width="0.5" clip-path="url(#DCmlrPlFuAlk)"/><path fill="none" stroke="rgb(128,128,128)" paint-order="fill" d="M 98.2272720336914 98.54985046386719 L 122.15071868896484 76.55571746826172 L 146.07415771484375 90.30205535888672 L 169.9976043701172 111.37976837158203 L 193.92105102539062 71.05718231201172 L 217.84449768066406 130.6246337890625 L 241.7679443359375 122.3768310546875 L 265.6913757324219 96.71701049804688 L 289.6148376464844 103.13196563720703 L 313.53826904296875 86.63636016845703" stroke-opacity="0.7490196078431373" stroke-linejoin="bevel" stroke-miterlimit="10" clip-path="url(#XNtlCIgpTTfa)"/><path fill="none" stroke="grey" paint-order="fill" d="M 313.53826904296875 86.63636016845703 L 337.46173095703125 93.05132293701172 L 361.3851623535156 72.89002990722656 L 385.3086242675781 71.05718231201172 L 409.2320556640625 100.38269805908203 L 433.155517578125 104.96480560302734 L 457.0789489746094 76.55571746826172 L 481.00238037109375 85.71994018554688 L 504.92584228515625 81.13783264160156 L 528.8493041992188 107.71407318115234 L 552.772705078125 95.80058288574219" stroke-linejoin="bevel" stroke-miterlimit="10" stroke-width="0.5" clip-path="url(#QTHHhGXLoRav)"/><path fill="none" stroke="grey" paint-order="fill" d="M 313.53826904296875 86.63636016845703 L 337.46173095703125 94.88416290283203 L 361.3851623535156 106.79765319824219 L 385.3086242675781 106.79765319824219 L 409.2320556640625 93.96774291992188 L 433.155517578125 65.55865478515625 L 457.0789489746094 109.54692077636719 L 481.00238037109375 96.71701049804688 L 504.92584228515625 92.13489532470703 L 528.8493041992188 110.46334075927734 L 552.772705078125 107.71407318115234" stroke-linejoin="bevel" stroke-miterlimit="10" stroke-width="0.5" clip-path="url(#HPcQbnxHaCBT)"/><path fill="none" stroke="rgb(128,128,128)" paint-order="fill" d="M 98.2272720336914 105.88123321533203 L 122.15071868896484 80.22140502929688 L 146.07415771484375 95.80058288574219 L 169.9976043701172 93.96774291992188 L 193.92105102539062 116.8782958984375 L 217.84449768066406 93.05132293701172 L 241.7679443359375 93.05132293701172 L 265.6913757324219 114.12903594970703 L 289.6148376464844 97.63343048095703 L 313.53826904296875 102.21554565429688" stroke-opacity="0.7490196078431373" stroke-linejoin="bevel" stroke-miterlimit="10" clip-path="url(#OqrpnqndDmeb)"/><path fill="none" stroke="grey" paint-order="fill" d="M 313.53826904296875 102.21554565429688 L 337.46173095703125 108.63050079345703 L 361.3851623535156 115.04545593261719 L 385.3086242675781 97.63343048095703 L 409.2320556640625 116.8782958984375 L 433.155517578125 94.88416290283203 L 457.0789489746094 93.96774291992188 L 481.00238037109375 117.79472351074219 L 504.92584228515625 110.46334075927734 L 528.8493041992188 75.63929748535156 L 552.772705078125 58.227272033691406" stroke-linejoin="bevel" stroke-miterlimit="10" stroke-width="0.5" clip-path="url(#hmycXANtOJQv)"/><path fill="none" stroke="grey" paint-order="fill" d="M 313.53826904296875 102.21554565429688 L 337.46173095703125 114.12903594970703 L 361.3851623535156 111.37976837158203 L 385.3086242675781 101.29911804199219 L 409.2320556640625 90.30205535888672 L 433.155517578125 84.80352020263672 L 457.0789489746094 93.05132293701172 L 481.00238037109375 107.71407318115234 L 504.92584228515625 97.63343048095703 L 528.8493041992188 82.97067260742188 L 552.772705078125 70.14076232910156" stroke-linejoin="bevel" stroke-miterlimit="10" stroke-width="0.5" clip-path="url(#NhvKWuEWagbD)"/><path fill="none" stroke="black" paint-order="fill" d="M 75.5 285.5 L 575.5 285.5" stroke-linejoin="bevel" stroke-miterlimit="10"/><path fill="none" stroke="black" paint-order="fill" d="M 98.5 291.5 L 98.5 283.5 M 217.5 291.5 L 217.5 283.5 M 337.5 291.5 L 337.5 283.5 M 457.5 291.5 L 457.5 283.5" stroke-linejoin="bevel" stroke-miterlimit="10"/><path fill="none" stroke="black" paint-order="fill" d="M 98.5 289.5 L 98.5 285.5 M 122.5 289.5 L 122.5 285.5 M 146.5 289.5 L 146.5 285.5 M 169.5 289.5 L 169.5 285.5 M 193.5 289.5 L 193.5 285.5 M 217.5 289.5 L 217.5 285.5 M 241.5 289.5 L 241.5 285.5 M 265.5 289.5 L 265.5 285.5 M 289.5 289.5 L 289.5 285.5 M 313.5 289.5 L 313.5 285.5 M 337.5 289.5 L 337.5 285.5 M 361.5 289.5 L 361.5 285.5 M 385.5 289.5 L 385.5 285.5 M 409.5 289.5 L 409.5 285.5 M 433.5 289.5 L 433.5 285.5 M 457.5 289.5 L 457.5 285.5 M 481.5 289.5 L 481.5 285.5 M 504.5 289.5 L 504.5 285.5 M 528.5 289.5 L 528.5 285.5 M 552.5 289.5 L 552.5 285.5" stroke-linejoin="bevel" stroke-miterlimit="10"/><text fill="#444444" stroke="none" font-family="helvetica" font-size="10pt" font-style="normal" font-weight="normal" text-decoration="normal" x="84.36060523986816" y="306" text-anchor="start" dominant-baseline="alphabetic" transform="matrix(1, 0, 0, 1, 0.5, 0.5)">2025</text><text fill="none" stroke="rgb(0,0,0)" font-family="helvetica" font-size="10pt" font-style="normal" font-weight="normal" text-decoration="normal" x="84.36060523986816" y="306" text-anchor="start" dominant-baseline="alphabetic" transform="matrix(1, 0, 0, 1, 0.5, 0.5)" stroke-opacity="0" stroke-linejoin="bevel" stroke-miterlimit="10">2025</text><text fill="#444444" stroke="none" font-family="helvetica" font-size="10pt" font-style="normal" font-weight="normal" text-decoration="normal" x="203.97783088684082" y="306" text-anchor="start" dominant-baseline="alphabetic" transform="matrix(1, 0, 0, 1, 0.5, 0.5)">2030</text><text fill="none" stroke="rgb(0,0,0)" font-family="helvetica" font-size="10pt" font-style="normal" font-weight="normal" text-decoration="normal" x="203.97783088684082" y="306" text-anchor="start" dominant-baseline="alphabetic" transform="matrix(1, 0, 0, 1, 0.5, 0.5)" stroke-opacity="0" stroke-linejoin="bevel" stroke-miterlimit="10">2030</text><text fill="#444444" stroke="none" font-family="helvetica" font-size="10pt" font-style="normal" font-weight="normal" text-decoration="normal" x="323.595064163208" y="306" text-anchor="start" dominant-baseline="alphabetic" transform="matrix(1, 0, 0, 1, 0.5, 0.5)">2035</text><text fill="none" stroke="rgb(0,0,0)" font-family="helvetica" font-size="10pt" font-style="normal" font-weight="normal" text-decoration="normal" x="323.595064163208" y="306" text-anchor="start" dominant-baseline="alphabetic" transform="matrix(1, 0, 0, 1, 0.5, 0.5)" stroke-opacity="0" stroke-linejoin="bevel" stroke-miterlimit="10">2035</text><text fill="#444444" stroke="none" font-family="helvetica" font-size="10pt" font-style="normal" font-weight="normal" text-decoration="normal" x="443.21228218078613" y="306" text-anchor="start" dominant-baseline="alphabetic" transform="matrix(1, 0, 0, 1, 0.5, 0.5)">2040</text><text fill="none" stroke="rgb(0,0,0)" font-family="helvetica" font-size="10pt" font-style="normal" font-weight="normal" text-decoration="normal" x="443.21228218078613" y="306" text-anchor="start" dominant-baseline="alphabetic" transform="matrix(1, 0, 0, 1, 0.5, 0.5)" stroke-opacity="0" stroke-linejoin="bevel" stroke-miterlimit="10">2040</text><text fill="#444444" stroke="none" font-family="helvetica" font-size="12pt" font-style="normal" font-weight="normal" text-decoration="normal" x="310.3166666030884" y="329" text-anchor="start" dominant-baseline="alphabetic" transform="matrix(1, 0, 0, 1, 0.5, 0.5)">Year</text><text fill="none" stroke="rgb(0,0,0)" font-family="helvetica" font-size="12pt" font-style="normal" font-weight="normal" text-decoration="normal" x="310.3166666030884" y="329" text-anchor="start" dominant-baseline="alphabetic" transform="matrix(1, 0, 0, 1, 0.5, 0.5)" stroke-opacity="0" stroke-linejoin="bevel" stroke-miterlimit="10">Year</text><path fill="none" stroke="black" paint-order="fill" d="M 75.5 285.5 L 75.5 35.5" stroke-linejoin="bevel" stroke-miterlimit="10"/><path fill="none" stroke="black" paint-order="fill" d="M 69.5 285.5 L 77.5 285.5 M 69.5 239.5 L 77.5 239.5 M 69.5 193.5 L 77.5 193.5 M 69.5 148.5 L 77.5 148.5 M 69.5 102.5 L 77.5 102.5 M 69.5 56.5 L 77.5 56.5" stroke-linejoin="bevel" stroke-miterlimit="10"/><path fill="none" stroke="black" paint-order="fill" d="M 71.5 285.5 L 75.5 285.5 M 71.5 276.5 L 75.5 276.5 M 71.5 267.5 L 75.5 267.5 M 71.5 258.5 L 75.5 258.5 M 71.5 248.5 L 75.5 248.5 M 71.5 239.5 L 75.5 239.5 M 71.5 230.5 L 75.5 230.5 M 71.5 221.5 L 75.5 221.5 M 71.5 212.5 L 75.5 212.5 M 71.5 203.5 L 75.5 203.5 M 71.5 193.5 L 75.5 193.5 M 71.5 184.5 L 75.5 184.5 M 71.5 175.5 L 75.5 175.5 M 71.5 166.5 L 75.5 166.5 M 71.5 157.5 L 75.5 157.5 M 71.5 148.5 L 75.5 148.5 M 71.5 138.5 L 75.5 138.5 M 71.5 129.5 L 75.5 129.5 M 71.5 120.5 L 75.5 120.5 M 71.5 111.5 L 75.5 111.5 M 71.5 102.5 L 75.5 102.5 M 71.5 93.5 L 75.5 93.5 M 71.5 83.5 L 75.5 83.5 M 71.5 74.5 L 75.5 74.5 M 71.5 65.5 L 75.5 65.5 M 71.5 56.5 L 75.5 56.5 M 71.5 47.5 L 75.5 47.5 M 71.5 38.5 L 75.5 38.5" stroke-linejoin="bevel" stroke-miterlimit="10"/><text fill="#444444" stroke="none" font-family="helvetica" font-size="10pt" font-style="normal" font-weight="normal" text-decoration="normal" x="57.31666660308838" y="290" text-anchor="start" dominant-baseline="alphabetic" transform="matrix(1, 0, 0, 1, 0.5, 0.5)">0</text><text fill="none" stroke="rgb(0,0,0)" font-family="helvetica" font-size="10pt" font-style="normal" font-weight="normal" text-decoration="normal" x="57.31666660308838" y="290" text-anchor="start" dominant-baseline="alphabetic" transform="matrix(1, 0, 0, 1, 0.5, 0.5)" stroke-opacity="0" stroke-linejoin="bevel" stroke-miterlimit="10">0</text><text fill="#444444" stroke="none" font-family="helvetica" font-size="10pt" font-style="normal" font-weight="normal" text-decoration="normal" x="50.63333320617676" y="244.1788787841797" text-anchor="start" dominant-baseline="alphabetic" transform="matrix(1, 0, 0, 1, 0.5, 0.5)">50</text><text fill="none" stroke="rgb(0,0,0)" font-family="helvetica" font-size="10pt" font-style="normal" font-weight="normal" text-decoration="normal" x="50.63333320617676" y="244.1788787841797" text-anchor="start" dominant-baseline="alphabetic" transform="matrix(1, 0, 0, 1, 0.5, 0.5)" stroke-opacity="0" stroke-linejoin="bevel" stroke-miterlimit="10">50</text><text fill="#444444" stroke="none" font-family="helvetica" font-size="10pt" font-style="normal" font-weight="normal" text-decoration="normal" x="43.95000076293945" y="198.35777282714844" text-anchor="start" dominant-baseline="alphabetic" transform="matrix(1, 0, 0, 1, 0.5, 0.5)">100</text><text fill="none" stroke="rgb(0,0,0)" font-family="helvetica" font-size="10pt" font-style="normal" font-weight="normal" text-decoration="normal" x="43.95000076293945" y="198.35777282714844" text-anchor="start" dominant-baseline="alphabetic" transform="matrix(1, 0, 0, 1, 0.5, 0.5)" stroke-opacity="0" stroke-linejoin="bevel" stroke-miterlimit="10">100</text><text fill="#444444" stroke="none" font-family="helvetica" font-size="10pt" font-style="normal" font-weight="normal" text-decoration="normal" x="43.95000076293945" y="152.53665161132812" text-anchor="start" dominant-baseline="alphabetic" transform="matrix(1, 0, 0, 1, 0.5, 0.5)">150</text><text fill="none" stroke="rgb(0,0,0)" font-family="helvetica" font-size="10pt" font-style="normal" font-weight="normal" text-decoration="normal" x="43.95000076293945" y="152.53665161132812" text-anchor="start" dominant-baseline="alphabetic" transform="matrix(1, 0, 0, 1, 0.5, 0.5)" stroke-opacity="0" stroke-linejoin="bevel" stroke-miterlimit="10">150</text><text fill="#444444" stroke="none" font-family="helvetica" font-size="10pt" font-style="normal" font-weight="normal" text-decoration="normal" x="43.95000076293945" y="106.71554565429688" text-anchor="start" dominant-baseline="alphabetic" transform="matrix(1, 0, 0, 1, 0.5, 0.5)">200</text><text fill="none" stroke="rgb(0,0,0)" font-family="helvetica" font-size="10pt" font-style="normal" font-weight="normal" text-decoration="normal" x="43.95000076293945" y="106.71554565429688" text-anchor="start" dominant-baseline="alphabetic" transform="matrix(1, 0, 0, 1, 0.5, 0.5)" stroke-opacity="0" stroke-linejoin="bevel" stroke-miterlimit="10">200</text><text fill="#444444" stroke="none" font-family="helvetica" font-size="10pt" font-style="normal" font-weight="normal" text-decoration="normal" x="43.95000076293945" y="60.89442825317383" text-anchor="start" dominant-baseline="alphabetic" transform="matrix(1, 0, 0, 1, 0.5, 0.5)">250</text><text fill="none" stroke="rgb(0,0,0)" font-family="helvetica" font-size="10pt" font-style="normal" font-weight="normal" text-decoration="normal" x="43.95000076293945" y="60.89442825317383" text-anchor="start" dominant-baseline="alphabetic" transform="matrix(1, 0, 0, 1, 0.5, 0.5)" stroke-opacity="0" stroke-linejoin="bevel" stroke-miterlimit="10">250</text><text fill="#444444" stroke="none" font-family="helvetica" font-size="12pt" font-style="normal" font-weight="normal" text-decoration="normal" x="-60.25833511352539" y="156" text-anchor="start" dominant-baseline="alphabetic" transform="matrix(6.123233995736766e-17, -1, 1, 6.123233995736766e-17, -123.54999923706055, 196.45000076293945)">Days suitable for transmission</text><text fill="none" stroke="rgb(0,0,0)" font-family="helvetica" font-size="12pt" font-style="normal" font-weight="normal" text-decoration="normal" x="-60.25833511352539" y="156" text-anchor="start" dominant-baseline="alphabetic" transform="matrix(6.123233995736766e-17, -1, 1, 6.123233995736766e-17, -123.54999923706055, 196.45000076293945)" stroke-opacity="0" stroke-linejoin="bevel" stroke-miterlimit="10">Days suitable for transmission</text><path fill="rgb(255,255,255)" stroke="rgb(229,229,229)" paint-order="fill" d="M 482.0333251953125 210.5 L 565.4999847412109 210.5 L 565.4999847412109 275.5 L 482.0333251953125 275.5 L 482.0333251953125 210.5 Z" fill-opacity="0.9490196078431372" clip-path="url(#GbNyDlygHfXp)" stroke-opacity="0.5019607843137255" stroke-linejoin="bevel" stroke-miterlimit="10"/><g clip-path="url(#GbNyDlygHfXp)"><g transform="matrix(1, 0, 0, 1, 492.5333251953125, 221)"><path fill="none" stroke="#30a2da" paint-order="fill" d="M 0.5 10.5 L 20.5 10.5" stroke-linejoin="bevel" stroke-miterlimit="10" stroke-width="2"/></g></g><g clip-path="url(#GbNyDlygHfXp)"><text fill="#444444" stroke="none" font-family="helvetica" font-size="13px" font-style="normal" font-weight="normal" text-decoration="normal" x="517.5333251953125" y="235.5" text-anchor="start" dominant-baseline="alphabetic" transform="matrix(1, 0, 0, 1, 0.5, 0.5)">ID 001</text></g><g clip-path="url(#GbNyDlygHfXp)"><text fill="none" stroke="rgb(0,0,0)" font-family="helvetica" font-size="13px" font-style="normal" font-weight="normal" text-decoration="normal" x="517.5333251953125" y="235.5" text-anchor="start" dominant-baseline="alphabetic" transform="matrix(1, 0, 0, 1, 0.5, 0.5)" stroke-opacity="0" stroke-linejoin="bevel" stroke-miterlimit="10">ID 001</text></g><g clip-path="url(#GbNyDlygHfXp)"><g transform="matrix(1, 0, 0, 1, 492.5333251953125, 244)"><path fill="none" stroke="#fc4f30" paint-order="fill" d="M 0.5 10.5 L 20.5 10.5" stroke-linejoin="bevel" stroke-miterlimit="10" stroke-width="2"/></g></g><g clip-path="url(#GbNyDlygHfXp)"><text fill="#444444" stroke="none" font-family="helvetica" font-size="13px" font-style="normal" font-weight="normal" text-decoration="normal" x="517.5333251953125" y="258.5" text-anchor="start" dominant-baseline="alphabetic" transform="matrix(1, 0, 0, 1, 0.5, 0.5)">ID 006</text></g><g clip-path="url(#GbNyDlygHfXp)"><text fill="none" stroke="rgb(0,0,0)" font-family="helvetica" font-size="13px" font-style="normal" font-weight="normal" text-decoration="normal" x="517.5333251953125" y="258.5" text-anchor="start" dominant-baseline="alphabetic" transform="matrix(1, 0, 0, 1, 0.5, 0.5)" stroke-opacity="0" stroke-linejoin="bevel" stroke-miterlimit="10">ID 006</text></g><text fill="black" stroke="none" font-family="helvetica" font-size="14pt" font-style="normal" font-weight="normal" text-decoration="normal" x="0" y="18" text-anchor="start" dominant-baseline="alphabetic" transform="matrix(1, 0, 0, 1, 5.5, 7.5)">B. Los Angeles</text><text fill="none" stroke="rgb(0,0,0)" font-family="helvetica" font-size="14pt" font-style="normal" font-weight="normal" text-decoration="normal" x="0" y="18" text-anchor="start" dominant-baseline="alphabetic" transform="matrix(1, 0, 0, 1, 5.5, 7.5)" stroke-opacity="0" stroke-linejoin="bevel" stroke-miterlimit="10">B. Los Angeles</text></svg>