<svg version="1.1" xmlns="http://www.w3.org/2000/svg" width="605" height="336"><defs><clipPath id="ttNPhssZQvSh"><path fill="none" stroke="none" d="M 75.5 35.5 L 575.5 35.5 L 575.5 285.5 L 75.5 285.5 L 75.5 35.5 Z"/></clipPath><clipPath id="lUyihaJDsOSG"><path fill="none" stroke="none" d="M 75.5 35.5 L 575.5 35.5 L 575.5 285.5 L 75.5 285.5 L 75.5 35.5 Z"/></clipPath><clipPath id="HdmnBXhaliDw"><path fill="none" stroke="none" d="M 75.5 35.5 L 575.5 35.5 L 575.5 285.5 L 75.5 285.5 L 75.5 35.5 Z"/></clipPath><clipPath id="PxTtpTxGPbrT"><path fill="none" stroke="none" d="M 75.5 35.5 L 575.5 35.5 L 575.5 285.5 L 75.5 285.5 L 75.5 35.5 Z"/></clipPath><clipPath id="wpfIqSqMKEpf"><path fill="none" stroke="none" d="M 75.5 35.5 L 575.5 35.5 L 575.5 285.5 L 75.5 285.5 L 75.5 35.5 Z"/></clipPath><clipPath id="xaksvShkKWfh"><path fill="none" stroke="none" d="M 75.5 35.5 L 575.5 35.5 L 575.5 285.5 L 75.5 285.5 L 75.5 35.5 Z"/></clipPath><clipPath id="FtHSdXsJKGop"><path fill="none" stroke="none" d="M 75.5 35.5 L 575.5 35.5 L 575.5 285.5 L 75.5 285.5 L 75.5 35.5 Z"/></clipPath><clipPath id="zVWJlIPRqUrH"><path fill="none" stroke="none" d="M 75.5 35.5 L 575.5 35.5 L 575.5 285.5 L 75.5 285.5 L 75.5 35.5 Z"/></clipPath><clipPath id="TwCbddthySLM"><path fill="none" stroke="none" d="M 75.5 35.5 L 575.5 35.5 L 575.5 285.5 L 75.5 285.5 L 75.5 35.5 Z"/></clipPath><clipPath id="QTZABUmKGysr"><path fill="none" stroke="none" d="M 75.5 35.5 L 575.5 35.5 L 575.5 285.5 L 75.5 285.5 L 75.5 35.5 Z"/></clipPath><clipPath id="JHRFXGXHokrc"><path fill="none" stroke="none" d="M 75.5 35.5 L 575.5 35.5 L 575.5 285.5 L 75.5 285.5 L 75.5 35.5 Z"/></clipPath><clipPath id="vmmeZXARRngk"><path fill="none" stroke="none" d="M 75.5 35.5 L 575.5 35.5 L 575.5 285.5 L 75.5 285.5 L 75.5 35.5 Z"/></clipPath><clipPath id="JNauZAqkPAfc"><path fill="none" stroke="none" d="M 75.5 35.5 L 575.5 35.5 L 575.5 285.5 L 75.5 285.5 L 75.5 35.5 Z"/></clipPath><clipPath id="KawPDlsFfgwL"><path fill="none" stroke="none" d="M 75.5 35.5 L 575.5 35.5 L 575.5 285.5 L 75.5 285.5 L 75.5 35.5 Z"/></clipPath><clipPath id="OJLkxpXJxaJT"><path fill="none" stroke="none" d="M 75.5 35.5 L 575.5 35.5 L 575.5 285.5 L 75.5 285.5 L 75.5 35.5 Z"/></clipPath><clipPath id="laeewhkaOXfC"><path fill="none" stroke="none" d="M 75.5 35.5 L 575.5 35.5 L 575.5 285.5 L 75.5 285.5 L 75.5 35.5 Z"/></clipPath><clipPath id="cQvxHVhTTTqA"><path fill="none" stroke="none" d="M 75.5 35.5 L 575.5 35.5 L 575.5 285.5 L 75.5 285.5 L 75.5 35.5 Z"/></clipPath><clipPath id="KiTcFIxfWlvv"><path fill="none" stroke="none" d="M 75.5 35.5 L 575.5 35.5 L 575.5 285.5 L 75.5 285.5 L 75.5 35.5 Z"/></clipPath><clipPath id="DGSHtLdpbJGq"><path fill="none" stroke="none" d="M 75.5 35.5 L 575.5 35.5 L 575.5 285.5 L 75.5 285.5 L 75.5 35.5 Z"/></clipPath><clipPath id="tLecKSidNFmn"><path fill="none" stroke="none" d="M 75.5 35.5 L 575.5 35.5 L 575.5 285.5 L 75.5 285.5 L 75.5 35.5 Z"/></clipPath><clipPath id="rZrLczLwvTdw"><path fill="none" stroke="none" d="M 75.5 35.5 L 575.5 35.5 L 575.5 285.5 L 75.5 285.5 L 75.5 35.5 Z"/></clipPath><clipPath id="yyrUsrEnerAu"><path fill="none" stroke="none" d="M 75.5 35.5 L 575.5 35.5 L 575.5 285.5 L 75.5 285.5 L 75.5 35.5 Z"/></clipPath><clipPath id="UpyNxWfLZpkt"><path fill="none" stroke="none" d="M 75.5 35.5 L 575.5 35.5 L 575.5 285.5 L 75.5 285.5 L 75.5 35.5 Z"/></clipPath></defs><path fill="none" stroke="#e5e5e5" paint-order="fill" d="M 75.5 35.5 L 575.5 35.5 L 575.5 285.5 L 75.5 285.5 L 75.5 35.5 Z" stroke-linejoin="bevel" stroke-miterlimit="10"/><path fill="none" stroke="black" paint-order="fill" d="M 337.46172248803487 35.5 L 337.46172248803487 285.5" stroke-linejoin="bevel" stroke-miterlimit="10" stroke-width="3" stroke-dasharray="6" clip-path="url(#HdmnBXhaliDw)"/><path fill="none" stroke="#9467bd" paint-order="fill" d="M 98.2272720336914 92.11882019042969 L 122.15071868896484 93.11563110351562 L 146.07415771484375 88.13157653808594 L 169.9976043701172 89.12838745117188 L 193.92105102539062 81.1539077758789 L 217.84449768066406 84.14434051513672 L 241.7679443359375 86.1379623413086 L 265.6913757324219 87.134765625 L 289.6148376464844 83.14752960205078 L 313.53826904296875 73.17942810058594" stroke-linejoin="bevel" stroke-miterlimit="10" stroke-width="2" clip-path="url(#PxTtpTxGPbrT)"/><path fill="none" stroke="#9467bd" paint-order="fill" d="M 98.2272720336914 92.59004211425781 L 122.15071868896484 91.06763458251953 L 146.07415771484375 89.54523468017578 L 169.9976043701172 88.02283477783203 L 193.92105102539062 86.50043487548828 L 217.84449768066406 84.97803497314453 L 241.7679443359375 83.45563507080078 L 265.6913757324219 81.93323516845703 L 289.6148376464844 80.41082763671875 L 313.53826904296875 78.888427734375" stroke-linejoin="bevel" stroke-miterlimit="10" stroke-width="2" stroke-dasharray="6" clip-path="url(#wpfIqSqMKEpf)"/><path fill="none" stroke="#30a2da" paint-order="fill" d="M 313.53826904296875 73.17942810058594 L 337.46173095703125 68.19537353515625 L 361.3851623535156 80.15709686279297 L 385.3086242675781 68.19537353515625 L 409.2320556640625 78.1634750366211 L 433.155517578125 82.15071868896484 L 457.0789489746094 85.14115142822266 L 481.00238037109375 89.12838745117188 L 504.92584228515625 74.17623901367188 L 528.8493041992188 90.12519836425781 L 552.772705078125 104.0805435180664" stroke-linejoin="bevel" stroke-miterlimit="10" stroke-width="2" clip-path="url(#xaksvShkKWfh)"/><path fill="none" stroke="#30a2da" paint-order="fill" d="M 337.46173095703125 69.44591522216797 L 361.3851623535156 72.22490692138672 L 385.3086242675781 75.00389099121094 L 409.2320556640625 77.78287506103516 L 433.155517578125 80.56185913085938 L 457.0789489746094 83.34085083007812 L 481.00238037109375 86.11983489990234 L 504.92584228515625 88.89881896972656 L 528.8493041992188 91.67780303955078 L 552.772705078125 94.45679473876953" stroke-linejoin="bevel" stroke-miterlimit="10" stroke-width="2" stroke-dasharray="6" clip-path="url(#FtHSdXsJKGop)"/><path fill="none" stroke="#fc4f30" paint-order="fill" d="M 313.53826904296875 73.17942810058594 L 337.46173095703125 96.10606384277344 L 361.3851623535156 100.09329986572266 L 385.3086242675781 86.1379623413086 L 409.2320556640625 87.134765625 L 433.155517578125 77.16666412353516 L 457.0789489746094 79.16028594970703 L 481.00238037109375 79.16028594970703 L 504.92584228515625 92.11882019042969 L 528.8493041992188 105.07735443115234 L 552.772705078125 82.15071868896484" stroke-linejoin="bevel" stroke-miterlimit="10" stroke-width="2" clip-path="url(#zVWJlIPRqUrH)"/><path fill="none" stroke="#fc4f30" paint-order="fill" d="M 337.46173095703125 90.6870346069336 L 361.3851623535156 90.18561553955078 L 385.3086242675781 89.68418884277344 L 409.2320556640625 89.1827621459961 L 433.155517578125 88.68133544921875 L 457.0789489746094 88.1799087524414 L 481.00238037109375 87.67848205566406 L 504.92584228515625 87.17705535888672 L 528.8493041992188 86.67562866210938 L 552.772705078125 86.17420959472656" stroke-linejoin="bevel" stroke-miterlimit="10" stroke-width="2" stroke-dasharray="6" clip-path="url(#TwCbddthySLM)"/><path fill="none" stroke="rgb(128,128,128)" paint-order="fill" d="M 98.2272720336914 87.134765625 L 122.15071868896484 88.13157653808594 L 146.07415771484375 89.12838745117188 L 169.9976043701172 84.14434051513672 L 193.92105102539062 97.10286712646484 L 217.84449768066406 77.16666412353516 L 241.7679443359375 86.1379623413086 L 265.6913757324219 89.12838745117188 L 289.6148376464844 79.16028594970703 L 313.53826904296875 93.11563110351562" stroke-opacity="0.7490196078431373" stroke-linejoin="bevel" stroke-miterlimit="10" clip-path="url(#QTZABUmKGysr)"/><path fill="none" stroke="grey" paint-order="fill" d="M 313.53826904296875 93.11563110351562 L 337.46173095703125 85.14115142822266 L 361.3851623535156 82.15071868896484 L 385.3086242675781 71.18580627441406 L 409.2320556640625 75.17304992675781 L 433.155517578125 93.11563110351562 L 457.0789489746094 71.18580627441406 L 481.00238037109375 78.1634750366211 L 504.92584228515625 86.1379623413086 L 528.8493041992188 77.16666412353516 L 552.772705078125 83.14752960205078" stroke-linejoin="bevel" stroke-miterlimit="10" stroke-width="0.5" clip-path="url(#JHRFXGXHokrc)"/><path fill="none" stroke="grey" paint-order="fill" d="M 313.53826904296875 93.11563110351562 L 337.46173095703125 60.22089385986328 L 361.3851623535156 77.16666412353516 L 385.3086242675781 80.15709686279297 L 409.2320556640625 75.17304992675781 L 433.155517578125 73.17942810058594 L 457.0789489746094 79.16028594970703 L 481.00238037109375 70.18899536132812 L 504.92584228515625 65.20494079589844 L 528.8493041992188 87.134765625 L 552.772705078125 76.16985321044922" stroke-linejoin="bevel" stroke-miterlimit="10" stroke-width="0.5" clip-path="url(#vmmeZXARRngk)"/><path fill="none" stroke="rgb(128,128,128)" paint-order="fill" d="M 98.2272720336914 74.17623901367188 L 122.15071868896484 75.17304992675781 L 146.07415771484375 77.16666412353516 L 169.9976043701172 73.17942810058594 L 193.92105102539062 76.16985321044922 L 217.84449768066406 86.1379623413086 L 241.7679443359375 87.134765625 L 265.6913757324219 59.224082946777344 L 289.6148376464844 76.16985321044922 L 313.53826904296875 91.12200927734375" stroke-opacity="0.7490196078431373" stroke-linejoin="bevel" stroke-miterlimit="10" clip-path="url(#JNauZAqkPAfc)"/><path fill="none" stroke="grey" paint-order="fill" d="M 313.53826904296875 91.12200927734375 L 337.46173095703125 81.1539077758789 L 361.3851623535156 71.18580627441406 L 385.3086242675781 80.15709686279297 L 409.2320556640625 90.12519836425781 L 433.155517578125 88.13157653808594 L 457.0789489746094 81.1539077758789 L 481.00238037109375 71.18580627441406 L 504.92584228515625 87.134765625 L 528.8493041992188 84.14434051513672 L 552.772705078125 97.10286712646484" stroke-linejoin="bevel" stroke-miterlimit="10" stroke-width="0.5" clip-path="url(#KawPDlsFfgwL)"/><path fill="none" stroke="grey" paint-order="fill" d="M 313.53826904296875 91.12200927734375 L 337.46173095703125 76.16985321044922 L 361.3851623535156 66.20175170898438 L 385.3086242675781 94.11244201660156 L 409.2320556640625 71.18580627441406 L 433.155517578125 97.10286712646484 L 457.0789489746094 87.134765625 L 481.00238037109375 87.134765625 L 504.92584228515625 65.20494079589844 L 528.8493041992188 81.1539077758789 L 552.772705078125 79.16028594970703" stroke-linejoin="bevel" stroke-miterlimit="10" stroke-width="0.5" clip-path="url(#OJLkxpXJxaJT)"/><path fill="none" stroke="rgb(128,128,128)" paint-order="fill" d="M 98.2272720336914 60.22089385986328 L 122.15071868896484 89.12838745117188 L 146.07415771484375 63.21132278442383 L 169.9976043701172 82.15071868896484 L 193.92105102539062 96.10606384277344 L 217.84449768066406 76.16985321044922 L 241.7679443359375 83.14752960205078 L 265.6913757324219 74.17623901367188 L 289.6148376464844 91.12200927734375 L 313.53826904296875 89.12838745117188" stroke-opacity="0.7490196078431373" stroke-linejoin="bevel" stroke-miterlimit="10" clip-path="url(#laeewhkaOXfC)"/><path fill="none" stroke="grey" paint-order="fill" d="M 313.53826904296875 89.12838745117188 L 337.46173095703125 81.1539077758789 L 361.3851623535156 85.14115142822266 L 385.3086242675781 91.12200927734375 L 409.2320556640625 87.134765625 L 433.155517578125 69.19218444824219 L 457.0789489746094 76.16985321044922 L 481.00238037109375 73.17942810058594 L 504.92584228515625 78.1634750366211 L 528.8493041992188 79.16028594970703 L 552.772705078125 79.16028594970703" stroke-linejoin="bevel" stroke-miterlimit="10" stroke-width="0.5" clip-path="url(#cQvxHVhTTTqA)"/><path fill="none" stroke="grey" paint-order="fill" d="M 313.53826904296875 89.12838745117188 L 337.46173095703125 82.15071868896484 L 361.3851623535156 58.227272033691406 L 385.3086242675781 81.1539077758789 L 409.2320556640625 93.11563110351562 L 433.155517578125 87.134765625 L 457.0789489746094 85.14115142822266 L 481.00238037109375 95.1092529296875 L 504.92584228515625 83.14752960205078 L 528.8493041992188 79.16028594970703 L 552.772705078125 75.17304992675781" stroke-linejoin="bevel" stroke-miterlimit="10" stroke-width="0.5" clip-path="url(#KiTcFIxfWlvv)"/><path fill="none" stroke="rgb(128,128,128)" paint-order="fill" d="M 98.2272720336914 75.17304992675781 L 122.15071868896484 93.11563110351562 L 146.07415771484375 73.17942810058594 L 169.9976043701172 67.19856262207031 L 193.92105102539062 74.17623901367188 L 217.84449768066406 102.08692169189453 L 241.7679443359375 86.1379623413086 L 265.6913757324219 78.1634750366211 L 289.6148376464844 75.17304992675781 L 313.53826904296875 73.17942810058594" stroke-opacity="0.7490196078431373" stroke-linejoin="bevel" stroke-miterlimit="10" clip-path="url(#DGSHtLdpbJGq)"/><path fill="none" stroke="grey" paint-order="fill" d="M 313.53826904296875 73.17942810058594 L 337.46173095703125 82.15071868896484 L 361.3851623535156 92.11882019042969 L 385.3086242675781 75.17304992675781 L 409.2320556640625 84.14434051513672 L 433.155517578125 92.11882019042969 L 457.0789489746094 85.14115142822266 L 481.00238037109375 69.19218444824219 L 504.92584228515625 71.18580627441406 L 528.8493041992188 96.10606384277344 L 552.772705078125 80.15709686279297" stroke-linejoin="bevel" stroke-miterlimit="10" stroke-width="0.5" clip-path="url(#tLecKSidNFmn)"/><path fill="none" stroke="grey" paint-order="fill" d="M 313.53826904296875 73.17942810058594 L 337.46173095703125 68.19537353515625 L 361.3851623535156 78.1634750366211 L 385.3086242675781 82.15071868896484 L 409.2320556640625 74.17623901367188 L 433.155517578125 92.11882019042969 L 457.0789489746094 83.14752960205078 L 481.00238037109375 86.1379623413086 L 504.92584228515625 92.11882019042969 L 528.8493041992188 63.21132278442383 L 552.772705078125 82.15071868896484" stroke-linejoin="bevel" stroke-miterlimit="10" stroke-width="0.5" clip-path="url(#rZrLczLwvTdw)"/><path fill="none" stroke="black" paint-order="fill" d="M 75.5 285.5 L 575.5 285.5" stroke-linejoin="bevel" stroke-miterlimit="10"/><path fill="none" stroke="black" paint-order="fill" d="M 98.5 291.5 L 98.5 283.5 M 217.5 291.5 L 217.5 283.5 M 337.5 291.5 L 337.5 283.5 M 457.5 291.5 L 457.5 283.5" stroke-linejoin="bevel" stroke-miterlimit="10"/><path fill="none" stroke="black" paint-order="fill" d="M 98.5 289.5 L 98.5 285.5 M 122.5 289.5 L 122.5 285.5 M 146.5 289.5 L 146.5 285.5 M 169.5 289.5 L 169.5 285.5 M 193.5 289.5 L 193.5 285.5 M 217.5 289.5 L 217.5 285.5 M 241.5 289.5 L 241.5 285.5 M 265.5 289.5 L 265.5 285.5 M 289.5 289.5 L 289.5 285.5 M 313.5 289.5 L 313.5 285.5 M 337.5 289.5 L 337.5 285.5 M 361.5 289.5 L 361.5 285.5 M 385.5 289.5 L 385.5 285.5 M 409.5 289.5 L 409.5 285.5 M 433.5 289.5 L 433.5 285.5 M 457.5 289.5 L 457.5 285.5 M 481.5 289.5 L 481.5 285.5 M 504.5 289.5 L 504.5 285.5 M 528.5 289.5 L 528.5 285.5 M 552.5 289.5 L 552.5 285.5" stroke-linejoin="bevel" stroke-miterlimit="10"/><text fill="#444444" stroke="none" font-family="helvetica" font-size="10pt" font-style="normal" font-weight="normal" text-decoration="normal" x="84.36060523986816" y="306" text-anchor="start" dominant-baseline="alphabetic" transform="matrix(1, 0, 0, 1, 0.5, 0.5)">2025</text><text fill="none" stroke="rgb(0,0,0)" font-family="helvetica" font-size="10pt" font-style="normal" font-weight="normal" text-decoration="normal" x="84.36060523986816" y="306" text-anchor="start" dominant-baseline="alphabetic" transform="matrix(1, 0, 0, 1, 0.5, 0.5)" stroke-opacity="0" stroke-linejoin="bevel" stroke-miterlimit="10">2025</text><text fill="#444444" stroke="none" font-family="helvetica" font-size="10pt" font-style="normal" font-weight="normal" text-decoration="normal" x="203.97783088684082" y="306" text-anchor="start" dominant-baseline="alphabetic" transform="matrix(1, 0, 0, 1, 0.5, 0.5)">2030</text><text fill="none" stroke="rgb(0,0,0)" font-family="helvetica" font-size="10pt" font-style="normal" font-weight="normal" text-decoration="normal" x="203.97783088684082" y="306" text-anchor="start" dominant-baseline="alphabetic" transform="matrix(1, 0, 0, 1, 0.5, 0.5)" stroke-opacity="0" stroke-linejoin="bevel" stroke-miterlimit="10">2030</text><text fill="#444444" stroke="none" font-family="helvetica" font-size="10pt" font-style="normal" font-weight="normal" text-decoration="normal" x="323.595064163208" y="306" text-anchor="start" dominant-baseline="alphabetic" transform="matrix(1, 0, 0, 1, 0.5, 0.5)">2035</text><text fill="none" stroke="rgb(0,0,0)" font-family="helvetica" font-size="10pt" font-style="normal" font-weight="normal" text-decoration="normal" x="323.595064163208" y="306" text-anchor="start" dominant-baseline="alphabetic" transform="matrix(1, 0, 0, 1, 0.5, 0.5)" stroke-opacity="0" stroke-linejoin="bevel" stroke-miterlimit="10">2035</text><text fill="#444444" stroke="none" font-family="helvetica" font-size="10pt" font-style="normal" font-weight="normal" text-decoration="normal" x="443.21228218078613" y="306" text-anchor="start" dominant-baseline="alphabetic" transform="matrix(1, 0, 0, 1, 0.5, 0.5)">2040</text><text fill="none" stroke="rgb(0,0,0)" font-family="helvetica" font-size="10pt" font-style="normal" font-weight="normal" text-decoration="normal" x="443.21228218078613" y="306" text-anchor="start" dominant-baseline="alphabetic" transform="matrix(1, 0, 0, 1, 0.5, 0.5)" stroke-opacity="0" stroke-linejoin="bevel" stroke-miterlimit="10">2040</text><text fill="#444444" stroke="none" font-family="helvetica" font-size="12pt" font-style="normal" font-weight="normal" text-decoration="normal" x="310.3166666030884" y="329" text-anchor="start" dominant-baseline="alphabetic" transform="matrix(1, 0, 0, 1, 0.5, 0.5)">Year</text><text fill="none" stroke="rgb(0,0,0)" font-family="helvetica" font-size="12pt" font-style="normal" font-weight="normal" text-decoration="normal" x="310.3166666030884" y="329" text-anchor="start" dominant-baseline="alphabetic" transform="matrix(1, 0, 0, 1, 0.5, 0.5)" stroke-opacity="0" stroke-linejoin="bevel" stroke-miterlimit="10">Year</text><path fill="none" stroke="black" paint-order="fill" d="M 75.5 285.5 L 75.5 35.5" stroke-linejoin="bevel" stroke-miterlimit="10"/><path fill="none" stroke="black" paint-order="fill" d="M 69.5 285.5 L 77.5 285.5 M 69.5 235.5 L 77.5 235.5 M 69.5 185.5 L 77.5 185.5 M 69.5 135.5 L 77.5 135.5 M 69.5 86.5 L 77.5 86.5 M 69.5 36.5 L 77.5 36.5" stroke-linejoin="bevel" stroke-miterlimit="10"/><path fill="none" stroke="black" paint-order="fill" d="M 71.5 285.5 L 75.5 285.5 M 71.5 275.5 L 75.5 275.5 M 71.5 265.5 L 75.5 265.5 M 71.5 255.5 L 75.5 255.5 M 71.5 245.5 L 75.5 245.5 M 71.5 235.5 L 75.5 235.5 M 71.5 225.5 L 75.5 225.5 M 71.5 215.5 L 75.5 215.5 M 71.5 205.5 L 75.5 205.5 M 71.5 195.5 L 75.5 195.5 M 71.5 185.5 L 75.5 185.5 M 71.5 175.5 L 75.5 175.5 M 71.5 165.5 L 75.5 165.5 M 71.5 155.5 L 75.5 155.5 M 71.5 145.5 L 75.5 145.5 M 71.5 135.5 L 75.5 135.5 M 71.5 126.5 L 75.5 126.5 M 71.5 116.5 L 75.5 116.5 M 71.5 106.5 L 75.5 106.5 M 71.5 96.5 L 75.5 96.5 M 71.5 86.5 L 75.5 86.5 M 71.5 76.5 L 75.5 76.5 M 71.5 66.5 L 75.5 66.5 M 71.5 56.5 L 75.5 56.5 M 71.5 46.5 L 75.5 46.5 M 71.5 36.5 L 75.5 36.5" stroke-linejoin="bevel" stroke-miterlimit="10"/><text fill="#444444" stroke="none" font-family="helvetica" font-size="10pt" font-style="normal" font-weight="normal" text-decoration="normal" x="57.31666660308838" y="290" text-anchor="start" dominant-baseline="alphabetic" transform="matrix(1, 0, 0, 1, 0.5, 0.5)">0</text><text fill="none" stroke="rgb(0,0,0)" font-family="helvetica" font-size="10pt" font-style="normal" font-weight="normal" text-decoration="normal" x="57.31666660308838" y="290" text-anchor="start" dominant-baseline="alphabetic" transform="matrix(1, 0, 0, 1, 0.5, 0.5)" stroke-opacity="0" stroke-linejoin="bevel" stroke-miterlimit="10">0</text><text fill="#444444" stroke="none" font-family="helvetica" font-size="10pt" font-style="normal" font-weight="normal" text-decoration="normal" x="50.63333320617676" y="240.15948486328125" text-anchor="start" dominant-baseline="alphabetic" transform="matrix(1, 0, 0, 1, 0.5, 0.5)">50</text><text fill="none" stroke="rgb(0,0,0)" font-family="helvetica" font-size="10pt" font-style="normal" font-weight="normal" text-decoration="normal" x="50.63333320617676" y="240.15948486328125" text-anchor="start" dominant-baseline="alphabetic" transform="matrix(1, 0, 0, 1, 0.5, 0.5)" stroke-opacity="0" stroke-linejoin="bevel" stroke-miterlimit="10">50</text><text fill="#444444" stroke="none" font-family="helvetica" font-size="10pt" font-style="normal" font-weight="normal" text-decoration="normal" x="43.95000076293945" y="190.31898498535156" text-anchor="start" dominant-baseline="alphabetic" transform="matrix(1, 0, 0, 1, 0.5, 0.5)">100</text><text fill="none" stroke="rgb(0,0,0)" font-family="helvetica" font-size="10pt" font-style="normal" font-weight="normal" text-decoration="normal" x="43.95000076293945" y="190.31898498535156" text-anchor="start" dominant-baseline="alphabetic" transform="matrix(1, 0, 0, 1, 0.5, 0.5)" stroke-opacity="0" stroke-linejoin="bevel" stroke-miterlimit="10">100</text><text fill="#444444" stroke="none" font-family="helvetica" font-size="10pt" font-style="normal" font-weight="normal" text-decoration="normal" x="43.95000076293945" y="140.4784698486328" text-anchor="start" dominant-baseline="alphabetic" transform="matrix(1, 0, 0, 1, 0.5, 0.5)">150</text><text fill="none" stroke="rgb(0,0,0)" font-family="helvetica" font-size="10pt" font-style="normal" font-weight="normal" text-decoration="normal" x="43.95000076293945" y="140.4784698486328" text-anchor="start" dominant-baseline="alphabetic" transform="matrix(1, 0, 0, 1, 0.5, 0.5)" stroke-opacity="0" stroke-linejoin="bevel" stroke-miterlimit="10">150</text><text fill="#444444" stroke="none" font-family="helvetica" font-size="10pt" font-style="normal" font-weight="normal" text-decoration="normal" x="43.95000076293945" y="90.6379623413086" text-anchor="start" dominant-baseline="alphabetic" transform="matrix(1, 0, 0, 1, 0.5, 0.5)">200</text><text fill="none" stroke="rgb(0,0,0)" font-family="helvetica" font-size="10pt" font-style="normal" font-weight="normal" text-decoration="normal" x="43.95000076293945" y="90.6379623413086" text-anchor="start" dominant-baseline="alphabetic" transform="matrix(1, 0, 0, 1, 0.5, 0.5)" stroke-opacity="0" stroke-linejoin="bevel" stroke-miterlimit="10">200</text><text fill="#444444" stroke="none" font-family="helvetica" font-size="10pt" font-style="normal" font-weight="normal" text-decoration="normal" x="43.95000076293945" y="40.797447204589844" text-anchor="start" dominant-baseline="alphabetic" transform="matrix(1, 0, 0, 1, 0.5, 0.5)">250</text><text fill="none" stroke="rgb(0,0,0)" font-family="helvetica" font-size="10pt" font-style="normal" font-weight="normal" text-decoration="normal" x="43.95000076293945" y="40.797447204589844" text-anchor="start" dominant-baseline="alphabetic" transform="matrix(1, 0, 0, 1, 0.5, 0.5)" stroke-opacity="0" stroke-linejoin="bevel" stroke-miterlimit="10">250</text><text fill="#444444" stroke="none" font-family="helvetica" font-size="12pt" font-style="normal" font-weight="normal" text-decoration="normal" x="-60.25833511352539" y="156" text-anchor="start" dominant-baseline="alphabetic" transform="matrix(6.123233995736766e-17, -1, 1, 6.123233995736766e-17, -123.54999923706055, 196.45000076293945)">Days suitable for transmission</text><text fill="none" stroke="rgb(0,0,0)" font-family="helvetica" font-size="12pt" font-style="normal" font-weight="normal" text-decoration="normal" x="-60.25833511352539" y="156" text-anchor="start" dominant-baseline="alphabetic" transform="matrix(6.123233995736766e-17, -1, 1, 6.123233995736766e-17, -123.54999923706055, 196.45000076293945)" stroke-opacity="0" stroke-linejoin="bevel" stroke-miterlimit="10">Days suitable for transmission</text><path fill="rgb(255,255,255)" stroke="rgb(229,229,229)" paint-order="fill" d="M 482.0333251953125 210.5 L 565.4999847412109 210.5 L 565.4999847412109 275.5 L 482.0333251953125 275.5 L 482.0333251953125 210.5 Z" fill-opacity="0.9490196078431372" clip-path="url(#yyrUsrEnerAu)" stroke-opacity="0.5019607843137255" stroke-linejoin="bevel" stroke-miterlimit="10"/><g clip-path="url(#yyrUsrEnerAu)"><g transform="matrix(1, 0, 0, 1, 492.5333251953125, 221)"><path fill="none" stroke="#30a2da" paint-order="fill" d="M 0.5 10.5 L 20.5 10.5" stroke-linejoin="bevel" stroke-miterlimit="10" stroke-width="2"/></g></g><g clip-path="url(#yyrUsrEnerAu)"><text fill="#444444" stroke="none" font-family="helvetica" font-size="13px" font-style="normal" font-weight="normal" text-decoration="normal" x="517.5333251953125" y="235.5" text-anchor="start" dominant-baseline="alphabetic" transform="matrix(1, 0, 0, 1, 0.5, 0.5)">ID 001</text></g><g clip-path="url(#yyrUsrEnerAu)"><text fill="none" stroke="rgb(0,0,0)" font-family="helvetica" font-size="13px" font-style="normal" font-weight="normal" text-decoration="normal" x="517.5333251953125" y="235.5" text-anchor="start" dominant-baseline="alphabetic" transform="matrix(1, 0, 0, 1, 0.5, 0.5)" stroke-opacity="0" stroke-linejoin="bevel" stroke-miterlimit="10">ID 001</text></g><g clip-path="url(#yyrUsrEnerAu)"><g transform="matrix(1, 0, 0, 1, 492.5333251953125, 244)"><path fill="none" stroke="#fc4f30" paint-order="fill" d="M 0.5 10.5 L 20.5 10.5" stroke-linejoin="bevel" stroke-miterlimit="10" stroke-width="2"/></g></g><g clip-path="url(#yyrUsrEnerAu)"><text fill="#444444" stroke="none" font-family="helvetica" font-size="13px" font-style="normal" font-weight="normal" text-decoration="normal" x="517.5333251953125" y="258.5" text-anchor="start" dominant-baseline="alphabetic" transform="matrix(1, 0, 0, 1, 0.5, 0.5)">ID 006</text></g><g clip-path="url(#yyrUsrEnerAu)"><text fill="none" stroke="rgb(0,0,0)" font-family="helvetica" font-size="13px" font-style="normal" font-weight="normal" text-decoration="normal" x="517.5333251953125" y="258.5" text-anchor="start" dominant-baseline="alphabetic" transform="matrix(1, 0, 0, 1, 0.5, 0.5)" stroke-opacity="0" stroke-linejoin="bevel" stroke-miterlimit="10">ID 006</text></g><text fill="black" stroke="none" font-family="helvetica" font-size="14pt" font-style="normal" font-weight="normal" text-decoration="normal" x="0" y="18" text-anchor="start" dominant-baseline="alphabetic" transform="matrix(1, 0, 0, 1, 5.5, 7.5)">G. Tokyo</text><text fill="none" stroke="rgb(0,0,0)" font-family="helvetica" font-size="14pt" font-style="normal" font-weight="normal" text-decoration="normal" x="0" y="18" text-anchor="start" dominant-baseline="alphabetic" transform="matrix(1, 0, 0, 1, 5.5, 7.5)" stroke-opacity="0" stroke-linejoin="bevel" stroke-miterlimit="10">G. Tokyo</text></svg>