<svg version="1.1" xmlns="http://www.w3.org/2000/svg" width="605" height="336"><defs><clipPath id="xsloKllAwGMP"><path fill="none" stroke="none" d="M 75.5 35.5 L 575.5 35.5 L 575.5 285.5 L 75.5 285.5 L 75.5 35.5 Z"/></clipPath><clipPath id="TAvXTShzxzvG"><path fill="none" stroke="none" d="M 75.5 35.5 L 575.5 35.5 L 575.5 285.5 L 75.5 285.5 L 75.5 35.5 Z"/></clipPath><clipPath id="gdTnyNklifRO"><path fill="none" stroke="none" d="M 75.5 35.5 L 575.5 35.5 L 575.5 285.5 L 75.5 285.5 L 75.5 35.5 Z"/></clipPath><clipPath id="gMrQugTXhzsO"><path fill="none" stroke="none" d="M 75.5 35.5 L 575.5 35.5 L 575.5 285.5 L 75.5 285.5 L 75.5 35.5 Z"/></clipPath><clipPath id="sJkhffpBczmQ"><path fill="none" stroke="none" d="M 75.5 35.5 L 575.5 35.5 L 575.5 285.5 L 75.5 285.5 L 75.5 35.5 Z"/></clipPath><clipPath id="BFzPJuILVgeU"><path fill="none" stroke="none" d="M 75.5 35.5 L 575.5 35.5 L 575.5 285.5 L 75.5 285.5 L 75.5 35.5 Z"/></clipPath><clipPath id="TChRdgJJsJVN"><path fill="none" stroke="none" d="M 75.5 35.5 L 575.5 35.5 L 575.5 285.5 L 75.5 285.5 L 75.5 35.5 Z"/></clipPath><clipPath id="JBoouLVnyKDi"><path fill="none" stroke="none" d="M 75.5 35.5 L 575.5 35.5 L 575.5 285.5 L 75.5 285.5 L 75.5 35.5 Z"/></clipPath><clipPath id="tXpbKcTlJRBP"><path fill="none" stroke="none" d="M 75.5 35.5 L 575.5 35.5 L 575.5 285.5 L 75.5 285.5 L 75.5 35.5 Z"/></clipPath><clipPath id="NTeDRLCmzTPV"><path fill="none" stroke="none" d="M 75.5 35.5 L 575.5 35.5 L 575.5 285.5 L 75.5 285.5 L 75.5 35.5 Z"/></clipPath><clipPath id="OCAaEXKpCiWx"><path fill="none" stroke="none" d="M 75.5 35.5 L 575.5 35.5 L 575.5 285.5 L 75.5 285.5 L 75.5 35.5 Z"/></clipPath><clipPath id="daTBfbLBAZEb"><path fill="none" stroke="none" d="M 75.5 35.5 L 575.5 35.5 L 575.5 285.5 L 75.5 285.5 L 75.5 35.5 Z"/></clipPath><clipPath id="PwnrQOZONsVa"><path fill="none" stroke="none" d="M 75.5 35.5 L 575.5 35.5 L 575.5 285.5 L 75.5 285.5 L 75.5 35.5 Z"/></clipPath><clipPath id="CXJFMvKaytsD"><path fill="none" stroke="none" d="M 75.5 35.5 L 575.5 35.5 L 575.5 285.5 L 75.5 285.5 L 75.5 35.5 Z"/></clipPath><clipPath id="pLVWGgsXSNbz"><path fill="none" stroke="none" d="M 75.5 35.5 L 575.5 35.5 L 575.5 285.5 L 75.5 285.5 L 75.5 35.5 Z"/></clipPath><clipPath id="dHPxWMvsMJZE"><path fill="none" stroke="none" d="M 75.5 35.5 L 575.5 35.5 L 575.5 285.5 L 75.5 285.5 L 75.5 35.5 Z"/></clipPath><clipPath id="TlZpokDUTeOS"><path fill="none" stroke="none" d="M 75.5 35.5 L 575.5 35.5 L 575.5 285.5 L 75.5 285.5 L 75.5 35.5 Z"/></clipPath><clipPath id="MrkpsnOPeqdv"><path fill="none" stroke="none" d="M 75.5 35.5 L 575.5 35.5 L 575.5 285.5 L 75.5 285.5 L 75.5 35.5 Z"/></clipPath><clipPath id="FkERrqOyQRvO"><path fill="none" stroke="none" d="M 75.5 35.5 L 575.5 35.5 L 575.5 285.5 L 75.5 285.5 L 75.5 35.5 Z"/></clipPath><clipPath id="wgnTrAwEVJHH"><path fill="none" stroke="none" d="M 75.5 35.5 L 575.5 35.5 L 575.5 285.5 L 75.5 285.5 L 75.5 35.5 Z"/></clipPath><clipPath id="cSiDuSJuZDQz"><path fill="none" stroke="none" d="M 75.5 35.5 L 575.5 35.5 L 575.5 285.5 L 75.5 285.5 L 75.5 35.5 Z"/></clipPath><clipPath id="lPsDMXZFCzxD"><path fill="none" stroke="none" d="M 75.5 35.5 L 575.5 35.5 L 575.5 285.5 L 75.5 285.5 L 75.5 35.5 Z"/></clipPath><clipPath id="TAZyqRFxLUhz"><path fill="none" stroke="none" d="M 75.5 35.5 L 575.5 35.5 L 575.5 285.5 L 75.5 285.5 L 75.5 35.5 Z"/></clipPath></defs><path fill="none" stroke="#e5e5e5" paint-order="fill" d="M 75.5 35.5 L 575.5 35.5 L 575.5 285.5 L 75.5 285.5 L 75.5 35.5 Z" stroke-linejoin="bevel" stroke-miterlimit="10"/><path fill="none" stroke="black" paint-order="fill" d="M 337.46172248803487 35.5 L 337.46172248803487 285.5" stroke-linejoin="bevel" stroke-miterlimit="10" stroke-width="3" stroke-dasharray="6" clip-path="url(#gdTnyNklifRO)"/><path fill="none" stroke="#9467bd" paint-order="fill" d="M 98.2272720336914 102.73484802246094 L 122.15071868896484 122.6212158203125 L 146.07415771484375 115.99242401123047 L 169.9976043701172 77.16666412353516 L 193.92105102539062 80.00757598876953 L 217.84449768066406 100.84091186523438 L 241.7679443359375 117.88636016845703 L 265.6913757324219 95.15908813476562 L 289.6148376464844 96.10606384277344 L 313.53826904296875 95.15908813476562" stroke-linejoin="bevel" stroke-miterlimit="10" stroke-width="2" clip-path="url(#gMrQugTXhzsO)"/><path fill="none" stroke="#9467bd" paint-order="fill" d="M 98.2272720336914 106.23002624511719 L 122.15071868896484 104.9272232055664 L 146.07415771484375 103.62442779541016 L 169.9976043701172 102.32162475585938 L 193.92105102539062 101.0188217163086 L 217.84449768066406 99.71602630615234 L 241.7679443359375 98.41322326660156 L 265.6913757324219 97.11042022705078 L 289.6148376464844 95.80762481689453 L 313.53826904296875 94.50482177734375" stroke-linejoin="bevel" stroke-miterlimit="10" stroke-width="2" stroke-dasharray="6" clip-path="url(#sJkhffpBczmQ)"/><path fill="none" stroke="#30a2da" paint-order="fill" d="M 313.53826904296875 95.15908813476562 L 337.46173095703125 77.16666412353516 L 361.3851623535156 93.26515197753906 L 385.3086242675781 92.31818389892578 L 409.2320556640625 98.94696807861328 L 433.155517578125 111.25757598876953 L 457.0789489746094 117.88636016845703 L 481.00238037109375 102.73484802246094 L 504.92584228515625 117.88636016845703 L 528.8493041992188 98.94696807861328 L 552.772705078125 89.4772720336914" stroke-linejoin="bevel" stroke-miterlimit="10" stroke-width="2" clip-path="url(#BFzPJuILVgeU)"/><path fill="none" stroke="#30a2da" paint-order="fill" d="M 337.46173095703125 91.90496063232422 L 361.3851623535156 93.70133209228516 L 385.3086242675781 95.4977035522461 L 409.2320556640625 97.29407501220703 L 433.155517578125 99.09044647216797 L 457.0789489746094 100.88682556152344 L 481.00238037109375 102.68319702148438 L 504.92584228515625 104.47956848144531 L 528.8493041992188 106.27593994140625 L 552.772705078125 108.07231140136719" stroke-linejoin="bevel" stroke-miterlimit="10" stroke-width="2" stroke-dasharray="6" clip-path="url(#TChRdgJJsJVN)"/><path fill="none" stroke="#fc4f30" paint-order="fill" d="M 313.53826904296875 95.15908813476562 L 337.46173095703125 62.962120056152344 L 361.3851623535156 85.68939208984375 L 385.3086242675781 89.4772720336914 L 409.2320556640625 58.227272033691406 L 433.155517578125 97.05303192138672 L 457.0789489746094 88.53030395507812 L 481.00238037109375 98 L 504.92584228515625 113.1515121459961 L 528.8493041992188 133.98484802246094 L 552.772705078125 85.68939208984375" stroke-linejoin="bevel" stroke-miterlimit="10" stroke-width="2" clip-path="url(#JBoouLVnyKDi)"/><path fill="none" stroke="#fc4f30" paint-order="fill" d="M 337.46173095703125 70.22795867919922 L 361.3851623535156 74.9054183959961 L 385.3086242675781 79.58287048339844 L 409.2320556640625 84.26033020019531 L 433.155517578125 88.93778991699219 L 457.0789489746094 93.61524200439453 L 481.00238037109375 98.2927017211914 L 504.92584228515625 102.97015380859375 L 528.8493041992188 107.64761352539062 L 552.772705078125 112.32506561279297" stroke-linejoin="bevel" stroke-miterlimit="10" stroke-width="2" stroke-dasharray="6" clip-path="url(#tXpbKcTlJRBP)"/><path fill="none" stroke="rgb(128,128,128)" paint-order="fill" d="M 98.2272720336914 117.88636016845703 L 122.15071868896484 111.25757598876953 L 146.07415771484375 87.58333587646484 L 169.9976043701172 113.1515121459961 L 193.92105102539062 104.6287841796875 L 217.84449768066406 84.74242401123047 L 241.7679443359375 98 L 265.6913757324219 77.16666412353516 L 289.6148376464844 97.05303192138672 L 313.53826904296875 120.7272720336914" stroke-opacity="0.7490196078431373" stroke-linejoin="bevel" stroke-miterlimit="10" clip-path="url(#NTeDRLCmzTPV)"/><path fill="none" stroke="grey" paint-order="fill" d="M 313.53826904296875 120.7272720336914 L 337.46173095703125 80.00757598876953 L 361.3851623535156 101.78787994384766 L 385.3086242675781 113.1515121459961 L 409.2320556640625 77.16666412353516 L 433.155517578125 85.68939208984375 L 457.0789489746094 93.26515197753906 L 481.00238037109375 99.89393615722656 L 504.92584228515625 107.46969604492188 L 528.8493041992188 102.73484802246094 L 552.772705078125 107.46969604492188" stroke-linejoin="bevel" stroke-miterlimit="10" stroke-width="0.5" clip-path="url(#OCAaEXKpCiWx)"/><path fill="none" stroke="grey" paint-order="fill" d="M 313.53826904296875 120.7272720336914 L 337.46173095703125 85.68939208984375 L 361.3851623535156 105.57575988769531 L 385.3086242675781 99.89393615722656 L 409.2320556640625 91.3712158203125 L 433.155517578125 82.8484878540039 L 457.0789489746094 115.99242401123047 L 481.00238037109375 102.73484802246094 L 504.92584228515625 98.94696807861328 L 528.8493041992188 100.84091186523438 L 552.772705078125 130.1969757080078" stroke-linejoin="bevel" stroke-miterlimit="10" stroke-width="0.5" clip-path="url(#daTBfbLBAZEb)"/><path fill="none" stroke="rgb(128,128,128)" paint-order="fill" d="M 98.2272720336914 114.0984878540039 L 122.15071868896484 114.0984878540039 L 146.07415771484375 103.68181610107422 L 169.9976043701172 92.31818389892578 L 193.92105102539062 105.57575988769531 L 217.84449768066406 115.04545593261719 L 241.7679443359375 117.88636016845703 L 265.6913757324219 80.95454406738281 L 289.6148376464844 98.94696807861328 L 313.53826904296875 100.84091186523438" stroke-opacity="0.7490196078431373" stroke-linejoin="bevel" stroke-miterlimit="10" clip-path="url(#PwnrQOZONsVa)"/><path fill="none" stroke="grey" paint-order="fill" d="M 313.53826904296875 100.84091186523438 L 337.46173095703125 110.31060791015625 L 361.3851623535156 99.89393615722656 L 385.3086242675781 115.04545593261719 L 409.2320556640625 103.68181610107422 L 433.155517578125 73.3787841796875 L 457.0789489746094 80.95454406738281 L 481.00238037109375 94.21212005615234 L 504.92584228515625 100.84091186523438 L 528.8493041992188 117.88636016845703 L 552.772705078125 112.20454406738281" stroke-linejoin="bevel" stroke-miterlimit="10" stroke-width="0.5" clip-path="url(#CXJFMvKaytsD)"/><path fill="none" stroke="grey" paint-order="fill" d="M 313.53826904296875 100.84091186523438 L 337.46173095703125 120.7272720336914 L 361.3851623535156 95.15908813476562 L 385.3086242675781 110.31060791015625 L 409.2320556640625 66.75 L 433.155517578125 95.15908813476562 L 457.0789489746094 115.04545593261719 L 481.00238037109375 118.83333587646484 L 504.92584228515625 93.26515197753906 L 528.8493041992188 97.05303192138672 L 552.772705078125 108.41666412353516" stroke-linejoin="bevel" stroke-miterlimit="10" stroke-width="0.5" clip-path="url(#pLVWGgsXSNbz)"/><path fill="none" stroke="rgb(128,128,128)" paint-order="fill" d="M 98.2272720336914 134.93182373046875 L 122.15071868896484 130.1969757080078 L 146.07415771484375 106.5227279663086 L 169.9976043701172 93.26515197753906 L 193.92105102539062 116.93939208984375 L 217.84449768066406 122.6212158203125 L 241.7679443359375 101.78787994384766 L 265.6913757324219 104.6287841796875 L 289.6148376464844 63.90909194946289 L 313.53826904296875 115.04545593261719" stroke-opacity="0.7490196078431373" stroke-linejoin="bevel" stroke-miterlimit="10" clip-path="url(#dHPxWMvsMJZE)"/><path fill="none" stroke="grey" paint-order="fill" d="M 313.53826904296875 115.04545593261719 L 337.46173095703125 127.35606384277344 L 361.3851623535156 96.10606384277344 L 385.3086242675781 95.15908813476562 L 409.2320556640625 114.0984878540039 L 433.155517578125 107.46969604492188 L 457.0789489746094 95.15908813476562 L 481.00238037109375 109.36363983154297 L 504.92584228515625 78.11363983154297 L 528.8493041992188 79.06060791015625 L 552.772705078125 112.20454406738281" stroke-linejoin="bevel" stroke-miterlimit="10" stroke-width="0.5" clip-path="url(#TlZpokDUTeOS)"/><path fill="none" stroke="grey" paint-order="fill" d="M 313.53826904296875 115.04545593261719 L 337.46173095703125 91.3712158203125 L 361.3851623535156 96.10606384277344 L 385.3086242675781 94.21212005615234 L 409.2320556640625 101.78787994384766 L 433.155517578125 109.36363983154297 L 457.0789489746094 81.9015121459961 L 481.00238037109375 94.21212005615234 L 504.92584228515625 88.53030395507812 L 528.8493041992188 91.3712158203125 L 552.772705078125 93.26515197753906" stroke-linejoin="bevel" stroke-miterlimit="10" stroke-width="0.5" clip-path="url(#MrkpsnOPeqdv)"/><path fill="none" stroke="rgb(128,128,128)" paint-order="fill" d="M 98.2272720336914 116.93939208984375 L 122.15071868896484 97.05303192138672 L 146.07415771484375 118.83333587646484 L 169.9976043701172 97.05303192138672 L 193.92105102539062 85.68939208984375 L 217.84449768066406 105.57575988769531 L 241.7679443359375 91.3712158203125 L 265.6913757324219 103.68181610107422 L 289.6148376464844 115.99242401123047 L 313.53826904296875 99.89393615722656" stroke-opacity="0.7490196078431373" stroke-linejoin="bevel" stroke-miterlimit="10" clip-path="url(#FkERrqOyQRvO)"/><path fill="none" stroke="grey" paint-order="fill" d="M 313.53826904296875 99.89393615722656 L 337.46173095703125 70.53787994384766 L 361.3851623535156 107.46969604492188 L 385.3086242675781 97.05303192138672 L 409.2320556640625 130.1969757080078 L 433.155517578125 85.68939208984375 L 457.0789489746094 110.31060791015625 L 481.00238037109375 105.57575988769531 L 504.92584228515625 86.63636016845703 L 528.8493041992188 98.94696807861328 L 552.772705078125 113.1515121459961" stroke-linejoin="bevel" stroke-miterlimit="10" stroke-width="0.5" clip-path="url(#wgnTrAwEVJHH)"/><path fill="none" stroke="grey" paint-order="fill" d="M 313.53826904296875 99.89393615722656 L 337.46173095703125 75.2727279663086 L 361.3851623535156 94.21212005615234 L 385.3086242675781 80.95454406738281 L 409.2320556640625 79.06060791015625 L 433.155517578125 105.57575988769531 L 457.0789489746094 106.5227279663086 L 481.00238037109375 109.36363983154297 L 504.92584228515625 111.25757598876953 L 528.8493041992188 98 L 552.772705078125 84.74242401123047" stroke-linejoin="bevel" stroke-miterlimit="10" stroke-width="0.5" clip-path="url(#cSiDuSJuZDQz)"/><path fill="none" stroke="black" paint-order="fill" d="M 75.5 285.5 L 575.5 285.5" stroke-linejoin="bevel" stroke-miterlimit="10"/><path fill="none" stroke="black" paint-order="fill" d="M 98.5 291.5 L 98.5 283.5 M 217.5 291.5 L 217.5 283.5 M 337.5 291.5 L 337.5 283.5 M 457.5 291.5 L 457.5 283.5" stroke-linejoin="bevel" stroke-miterlimit="10"/><path fill="none" stroke="black" paint-order="fill" d="M 98.5 289.5 L 98.5 285.5 M 122.5 289.5 L 122.5 285.5 M 146.5 289.5 L 146.5 285.5 M 169.5 289.5 L 169.5 285.5 M 193.5 289.5 L 193.5 285.5 M 217.5 289.5 L 217.5 285.5 M 241.5 289.5 L 241.5 285.5 M 265.5 289.5 L 265.5 285.5 M 289.5 289.5 L 289.5 285.5 M 313.5 289.5 L 313.5 285.5 M 337.5 289.5 L 337.5 285.5 M 361.5 289.5 L 361.5 285.5 M 385.5 289.5 L 385.5 285.5 M 409.5 289.5 L 409.5 285.5 M 433.5 289.5 L 433.5 285.5 M 457.5 289.5 L 457.5 285.5 M 481.5 289.5 L 481.5 285.5 M 504.5 289.5 L 504.5 285.5 M 528.5 289.5 L 528.5 285.5 M 552.5 289.5 L 552.5 285.5" stroke-linejoin="bevel" stroke-miterlimit="10"/><text fill="#444444" stroke="none" font-family="helvetica" font-size="10pt" font-style="normal" font-weight="normal" text-decoration="normal" x="84.36060523986816" y="306" text-anchor="start" dominant-baseline="alphabetic" transform="matrix(1, 0, 0, 1, 0.5, 0.5)">2025</text><text fill="none" stroke="rgb(0,0,0)" font-family="helvetica" font-size="10pt" font-style="normal" font-weight="normal" text-decoration="normal" x="84.36060523986816" y="306" text-anchor="start" dominant-baseline="alphabetic" transform="matrix(1, 0, 0, 1, 0.5, 0.5)" stroke-opacity="0" stroke-linejoin="bevel" stroke-miterlimit="10">2025</text><text fill="#444444" stroke="none" font-family="helvetica" font-size="10pt" font-style="normal" font-weight="normal" text-decoration="normal" x="203.97783088684082" y="306" text-anchor="start" dominant-baseline="alphabetic" transform="matrix(1, 0, 0, 1, 0.5, 0.5)">2030</text><text fill="none" stroke="rgb(0,0,0)" font-family="helvetica" font-size="10pt" font-style="normal" font-weight="normal" text-decoration="normal" x="203.97783088684082" y="306" text-anchor="start" dominant-baseline="alphabetic" transform="matrix(1, 0, 0, 1, 0.5, 0.5)" stroke-opacity="0" stroke-linejoin="bevel" stroke-miterlimit="10">2030</text><text fill="#444444" stroke="none" font-family="helvetica" font-size="10pt" font-style="normal" font-weight="normal" text-decoration="normal" x="323.595064163208" y="306" text-anchor="start" dominant-baseline="alphabetic" transform="matrix(1, 0, 0, 1, 0.5, 0.5)">2035</text><text fill="none" stroke="rgb(0,0,0)" font-family="helvetica" font-size="10pt" font-style="normal" font-weight="normal" text-decoration="normal" x="323.595064163208" y="306" text-anchor="start" dominant-baseline="alphabetic" transform="matrix(1, 0, 0, 1, 0.5, 0.5)" stroke-opacity="0" stroke-linejoin="bevel" stroke-miterlimit="10">2035</text><text fill="#444444" stroke="none" font-family="helvetica" font-size="10pt" font-style="normal" font-weight="normal" text-decoration="normal" x="443.21228218078613" y="306" text-anchor="start" dominant-baseline="alphabetic" transform="matrix(1, 0, 0, 1, 0.5, 0.5)">2040</text><text fill="none" stroke="rgb(0,0,0)" font-family="helvetica" font-size="10pt" font-style="normal" font-weight="normal" text-decoration="normal" x="443.21228218078613" y="306" text-anchor="start" dominant-baseline="alphabetic" transform="matrix(1, 0, 0, 1, 0.5, 0.5)" stroke-opacity="0" stroke-linejoin="bevel" stroke-miterlimit="10">2040</text><text fill="#444444" stroke="none" font-family="helvetica" font-size="12pt" font-style="normal" font-weight="normal" text-decoration="normal" x="310.3166666030884" y="329" text-anchor="start" dominant-baseline="alphabetic" transform="matrix(1, 0, 0, 1, 0.5, 0.5)">Year</text><text fill="none" stroke="rgb(0,0,0)" font-family="helvetica" font-size="12pt" font-style="normal" font-weight="normal" text-decoration="normal" x="310.3166666030884" y="329" text-anchor="start" dominant-baseline="alphabetic" transform="matrix(1, 0, 0, 1, 0.5, 0.5)" stroke-opacity="0" stroke-linejoin="bevel" stroke-miterlimit="10">Year</text><path fill="none" stroke="black" paint-order="fill" d="M 75.5 285.5 L 75.5 35.5" stroke-linejoin="bevel" stroke-miterlimit="10"/><path fill="none" stroke="black" paint-order="fill" d="M 69.5 285.5 L 77.5 285.5 M 69.5 238.5 L 77.5 238.5 M 69.5 190.5 L 77.5 190.5 M 69.5 143.5 L 77.5 143.5 M 69.5 96.5 L 77.5 96.5 M 69.5 48.5 L 77.5 48.5" stroke-linejoin="bevel" stroke-miterlimit="10"/><path fill="none" stroke="black" paint-order="fill" d="M 71.5 285.5 L 75.5 285.5 M 71.5 276.5 L 75.5 276.5 M 71.5 266.5 L 75.5 266.5 M 71.5 257.5 L 75.5 257.5 M 71.5 247.5 L 75.5 247.5 M 71.5 238.5 L 75.5 238.5 M 71.5 228.5 L 75.5 228.5 M 71.5 219.5 L 75.5 219.5 M 71.5 209.5 L 75.5 209.5 M 71.5 200.5 L 75.5 200.5 M 71.5 190.5 L 75.5 190.5 M 71.5 181.5 L 75.5 181.5 M 71.5 171.5 L 75.5 171.5 M 71.5 162.5 L 75.5 162.5 M 71.5 152.5 L 75.5 152.5 M 71.5 143.5 L 75.5 143.5 M 71.5 133.5 L 75.5 133.5 M 71.5 124.5 L 75.5 124.5 M 71.5 115.5 L 75.5 115.5 M 71.5 105.5 L 75.5 105.5 M 71.5 96.5 L 75.5 96.5 M 71.5 86.5 L 75.5 86.5 M 71.5 77.5 L 75.5 77.5 M 71.5 67.5 L 75.5 67.5 M 71.5 58.5 L 75.5 58.5 M 71.5 48.5 L 75.5 48.5 M 71.5 39.5 L 75.5 39.5" stroke-linejoin="bevel" stroke-miterlimit="10"/><text fill="#444444" stroke="none" font-family="helvetica" font-size="10pt" font-style="normal" font-weight="normal" text-decoration="normal" x="57.31666660308838" y="290" text-anchor="start" dominant-baseline="alphabetic" transform="matrix(1, 0, 0, 1, 0.5, 0.5)">0</text><text fill="none" stroke="rgb(0,0,0)" font-family="helvetica" font-size="10pt" font-style="normal" font-weight="normal" text-decoration="normal" x="57.31666660308838" y="290" text-anchor="start" dominant-baseline="alphabetic" transform="matrix(1, 0, 0, 1, 0.5, 0.5)" stroke-opacity="0" stroke-linejoin="bevel" stroke-miterlimit="10">0</text><text fill="#444444" stroke="none" font-family="helvetica" font-size="10pt" font-style="normal" font-weight="normal" text-decoration="normal" x="50.63333320617676" y="242.65151977539062" text-anchor="start" dominant-baseline="alphabetic" transform="matrix(1, 0, 0, 1, 0.5, 0.5)">50</text><text fill="none" stroke="rgb(0,0,0)" font-family="helvetica" font-size="10pt" font-style="normal" font-weight="normal" text-decoration="normal" x="50.63333320617676" y="242.65151977539062" text-anchor="start" dominant-baseline="alphabetic" transform="matrix(1, 0, 0, 1, 0.5, 0.5)" stroke-opacity="0" stroke-linejoin="bevel" stroke-miterlimit="10">50</text><text fill="#444444" stroke="none" font-family="helvetica" font-size="10pt" font-style="normal" font-weight="normal" text-decoration="normal" x="43.95000076293945" y="195.3030242919922" text-anchor="start" dominant-baseline="alphabetic" transform="matrix(1, 0, 0, 1, 0.5, 0.5)">100</text><text fill="none" stroke="rgb(0,0,0)" font-family="helvetica" font-size="10pt" font-style="normal" font-weight="normal" text-decoration="normal" x="43.95000076293945" y="195.3030242919922" text-anchor="start" dominant-baseline="alphabetic" transform="matrix(1, 0, 0, 1, 0.5, 0.5)" stroke-opacity="0" stroke-linejoin="bevel" stroke-miterlimit="10">100</text><text fill="#444444" stroke="none" font-family="helvetica" font-size="10pt" font-style="normal" font-weight="normal" text-decoration="normal" x="43.95000076293945" y="147.9545440673828" text-anchor="start" dominant-baseline="alphabetic" transform="matrix(1, 0, 0, 1, 0.5, 0.5)">150</text><text fill="none" stroke="rgb(0,0,0)" font-family="helvetica" font-size="10pt" font-style="normal" font-weight="normal" text-decoration="normal" x="43.95000076293945" y="147.9545440673828" text-anchor="start" dominant-baseline="alphabetic" transform="matrix(1, 0, 0, 1, 0.5, 0.5)" stroke-opacity="0" stroke-linejoin="bevel" stroke-miterlimit="10">150</text><text fill="#444444" stroke="none" font-family="helvetica" font-size="10pt" font-style="normal" font-weight="normal" text-decoration="normal" x="43.95000076293945" y="100.60606384277344" text-anchor="start" dominant-baseline="alphabetic" transform="matrix(1, 0, 0, 1, 0.5, 0.5)">200</text><text fill="none" stroke="rgb(0,0,0)" font-family="helvetica" font-size="10pt" font-style="normal" font-weight="normal" text-decoration="normal" x="43.95000076293945" y="100.60606384277344" text-anchor="start" dominant-baseline="alphabetic" transform="matrix(1, 0, 0, 1, 0.5, 0.5)" stroke-opacity="0" stroke-linejoin="bevel" stroke-miterlimit="10">200</text><text fill="#444444" stroke="none" font-family="helvetica" font-size="10pt" font-style="normal" font-weight="normal" text-decoration="normal" x="43.95000076293945" y="53.25757598876953" text-anchor="start" dominant-baseline="alphabetic" transform="matrix(1, 0, 0, 1, 0.5, 0.5)">250</text><text fill="none" stroke="rgb(0,0,0)" font-family="helvetica" font-size="10pt" font-style="normal" font-weight="normal" text-decoration="normal" x="43.95000076293945" y="53.25757598876953" text-anchor="start" dominant-baseline="alphabetic" transform="matrix(1, 0, 0, 1, 0.5, 0.5)" stroke-opacity="0" stroke-linejoin="bevel" stroke-miterlimit="10">250</text><text fill="#444444" stroke="none" font-family="helvetica" font-size="12pt" font-style="normal" font-weight="normal" text-decoration="normal" x="-60.25833511352539" y="156" text-anchor="start" dominant-baseline="alphabetic" transform="matrix(6.123233995736766e-17, -1, 1, 6.123233995736766e-17, -123.54999923706055, 196.45000076293945)">Days suitable for transmission</text><text fill="none" stroke="rgb(0,0,0)" font-family="helvetica" font-size="12pt" font-style="normal" font-weight="normal" text-decoration="normal" x="-60.25833511352539" y="156" text-anchor="start" dominant-baseline="alphabetic" transform="matrix(6.123233995736766e-17, -1, 1, 6.123233995736766e-17, -123.54999923706055, 196.45000076293945)" stroke-opacity="0" stroke-linejoin="bevel" stroke-miterlimit="10">Days suitable for transmission</text><path fill="rgb(255,255,255)" stroke="rgb(229,229,229)" paint-order="fill" d="M 482.0333251953125 210.5 L 565.4999847412109 210.5 L 565.4999847412109 275.5 L 482.0333251953125 275.5 L 482.0333251953125 210.5 Z" fill-opacity="0.9490196078431372" clip-path="url(#lPsDMXZFCzxD)" stroke-opacity="0.5019607843137255" stroke-linejoin="bevel" stroke-miterlimit="10"/><g clip-path="url(#lPsDMXZFCzxD)"><g transform="matrix(1, 0, 0, 1, 492.5333251953125, 221)"><path fill="none" stroke="#30a2da" paint-order="fill" d="M 0.5 10.5 L 20.5 10.5" stroke-linejoin="bevel" stroke-miterlimit="10" stroke-width="2"/></g></g><g clip-path="url(#lPsDMXZFCzxD)"><text fill="#444444" stroke="none" font-family="helvetica" font-size="13px" font-style="normal" font-weight="normal" text-decoration="normal" x="517.5333251953125" y="235.5" text-anchor="start" dominant-baseline="alphabetic" transform="matrix(1, 0, 0, 1, 0.5, 0.5)">ID 001</text></g><g clip-path="url(#lPsDMXZFCzxD)"><text fill="none" stroke="rgb(0,0,0)" font-family="helvetica" font-size="13px" font-style="normal" font-weight="normal" text-decoration="normal" x="517.5333251953125" y="235.5" text-anchor="start" dominant-baseline="alphabetic" transform="matrix(1, 0, 0, 1, 0.5, 0.5)" stroke-opacity="0" stroke-linejoin="bevel" stroke-miterlimit="10">ID 001</text></g><g clip-path="url(#lPsDMXZFCzxD)"><g transform="matrix(1, 0, 0, 1, 492.5333251953125, 244)"><path fill="none" stroke="#fc4f30" paint-order="fill" d="M 0.5 10.5 L 20.5 10.5" stroke-linejoin="bevel" stroke-miterlimit="10" stroke-width="2"/></g></g><g clip-path="url(#lPsDMXZFCzxD)"><text fill="#444444" stroke="none" font-family="helvetica" font-size="13px" font-style="normal" font-weight="normal" text-decoration="normal" x="517.5333251953125" y="258.5" text-anchor="start" dominant-baseline="alphabetic" transform="matrix(1, 0, 0, 1, 0.5, 0.5)">ID 006</text></g><g clip-path="url(#lPsDMXZFCzxD)"><text fill="none" stroke="rgb(0,0,0)" font-family="helvetica" font-size="13px" font-style="normal" font-weight="normal" text-decoration="normal" x="517.5333251953125" y="258.5" text-anchor="start" dominant-baseline="alphabetic" transform="matrix(1, 0, 0, 1, 0.5, 0.5)" stroke-opacity="0" stroke-linejoin="bevel" stroke-miterlimit="10">ID 006</text></g><text fill="black" stroke="none" font-family="helvetica" font-size="14pt" font-style="normal" font-weight="normal" text-decoration="normal" x="0" y="18" text-anchor="start" dominant-baseline="alphabetic" transform="matrix(1, 0, 0, 1, 5.5, 7.5)">H. Sydney</text><text fill="none" stroke="rgb(0,0,0)" font-family="helvetica" font-size="14pt" font-style="normal" font-weight="normal" text-decoration="normal" x="0" y="18" text-anchor="start" dominant-baseline="alphabetic" transform="matrix(1, 0, 0, 1, 5.5, 7.5)" stroke-opacity="0" stroke-linejoin="bevel" stroke-miterlimit="10">H. Sydney</text></svg>