<svg version="1.1" xmlns="http://www.w3.org/2000/svg" width="605" height="336"><defs><clipPath id="ubFqTeWKmSul"><path fill="none" stroke="none" d="M 75.5 35.5 L 575.5 35.5 L 575.5 285.5 L 75.5 285.5 L 75.5 35.5 Z"/></clipPath><clipPath id="teUTMuTcNdOI"><path fill="none" stroke="none" d="M 75.5 35.5 L 575.5 35.5 L 575.5 285.5 L 75.5 285.5 L 75.5 35.5 Z"/></clipPath><clipPath id="KpKJPHnoSfCs"><path fill="none" stroke="none" d="M 75.5 35.5 L 575.5 35.5 L 575.5 285.5 L 75.5 285.5 L 75.5 35.5 Z"/></clipPath><clipPath id="cBxRGvFKxGDC"><path fill="none" stroke="none" d="M 75.5 35.5 L 575.5 35.5 L 575.5 285.5 L 75.5 285.5 L 75.5 35.5 Z"/></clipPath><clipPath id="XwtAlKEfWRqp"><path fill="none" stroke="none" d="M 75.5 35.5 L 575.5 35.5 L 575.5 285.5 L 75.5 285.5 L 75.5 35.5 Z"/></clipPath><clipPath id="OJpVoPPkpuaq"><path fill="none" stroke="none" d="M 75.5 35.5 L 575.5 35.5 L 575.5 285.5 L 75.5 285.5 L 75.5 35.5 Z"/></clipPath><clipPath id="tqOsCCfEnAND"><path fill="none" stroke="none" d="M 75.5 35.5 L 575.5 35.5 L 575.5 285.5 L 75.5 285.5 L 75.5 35.5 Z"/></clipPath><clipPath id="OMEgZTmdceTL"><path fill="none" stroke="none" d="M 75.5 35.5 L 575.5 35.5 L 575.5 285.5 L 75.5 285.5 L 75.5 35.5 Z"/></clipPath><clipPath id="WHrSSmlvSRzn"><path fill="none" stroke="none" d="M 75.5 35.5 L 575.5 35.5 L 575.5 285.5 L 75.5 285.5 L 75.5 35.5 Z"/></clipPath><clipPath id="TnsSpckEftyz"><path fill="none" stroke="none" d="M 75.5 35.5 L 575.5 35.5 L 575.5 285.5 L 75.5 285.5 L 75.5 35.5 Z"/></clipPath><clipPath id="aEqdWqphXgZe"><path fill="none" stroke="none" d="M 75.5 35.5 L 575.5 35.5 L 575.5 285.5 L 75.5 285.5 L 75.5 35.5 Z"/></clipPath><clipPath id="EKyTTguLAFlU"><path fill="none" stroke="none" d="M 75.5 35.5 L 575.5 35.5 L 575.5 285.5 L 75.5 285.5 L 75.5 35.5 Z"/></clipPath><clipPath id="tgmsktBheTGr"><path fill="none" stroke="none" d="M 75.5 35.5 L 575.5 35.5 L 575.5 285.5 L 75.5 285.5 L 75.5 35.5 Z"/></clipPath><clipPath id="arcgKwoGupCS"><path fill="none" stroke="none" d="M 75.5 35.5 L 575.5 35.5 L 575.5 285.5 L 75.5 285.5 L 75.5 35.5 Z"/></clipPath><clipPath id="ufWlVxXsQFQb"><path fill="none" stroke="none" d="M 75.5 35.5 L 575.5 35.5 L 575.5 285.5 L 75.5 285.5 L 75.5 35.5 Z"/></clipPath><clipPath id="LrALLxKLptqU"><path fill="none" stroke="none" d="M 75.5 35.5 L 575.5 35.5 L 575.5 285.5 L 75.5 285.5 L 75.5 35.5 Z"/></clipPath><clipPath id="DrLNEDKJJCQA"><path fill="none" stroke="none" d="M 75.5 35.5 L 575.5 35.5 L 575.5 285.5 L 75.5 285.5 L 75.5 35.5 Z"/></clipPath><clipPath id="yIFElguSOiWB"><path fill="none" stroke="none" d="M 75.5 35.5 L 575.5 35.5 L 575.5 285.5 L 75.5 285.5 L 75.5 35.5 Z"/></clipPath><clipPath id="OorgNNOBbEEL"><path fill="none" stroke="none" d="M 75.5 35.5 L 575.5 35.5 L 575.5 285.5 L 75.5 285.5 L 75.5 35.5 Z"/></clipPath><clipPath id="BQeUdRRDogkJ"><path fill="none" stroke="none" d="M 75.5 35.5 L 575.5 35.5 L 575.5 285.5 L 75.5 285.5 L 75.5 35.5 Z"/></clipPath><clipPath id="HINOZimrPFzA"><path fill="none" stroke="none" d="M 75.5 35.5 L 575.5 35.5 L 575.5 285.5 L 75.5 285.5 L 75.5 35.5 Z"/></clipPath><clipPath id="CfvQTpcXUSSE"><path fill="none" stroke="none" d="M 75.5 35.5 L 575.5 35.5 L 575.5 285.5 L 75.5 285.5 L 75.5 35.5 Z"/></clipPath><clipPath id="FXsgWhlfmLnk"><path fill="none" stroke="none" d="M 75.5 35.5 L 575.5 35.5 L 575.5 285.5 L 75.5 285.5 L 75.5 35.5 Z"/></clipPath></defs><path fill="none" stroke="#e5e5e5" paint-order="fill" d="M 75.5 35.5 L 575.5 35.5 L 575.5 285.5 L 75.5 285.5 L 75.5 35.5 Z" stroke-linejoin="bevel" stroke-miterlimit="10"/><path fill="none" stroke="black" paint-order="fill" d="M 337.46172248803487 35.5 L 337.46172248803487 285.5" stroke-linejoin="bevel" stroke-miterlimit="10" stroke-width="3" stroke-dasharray="6" clip-path="url(#KpKJPHnoSfCs)"/><path fill="none" stroke="#9467bd" paint-order="fill" d="M 98.2272720336914 100.6934585571289 L 122.15071868896484 88.89729309082031 L 146.07415771484375 104.6255111694336 L 169.9976043701172 88.89729309082031 L 193.92105102539062 70.0234375 L 217.84449768066406 72.3826675415039 L 241.7679443359375 97.54781341552734 L 265.6913757324219 99.90704345703125 L 289.6148376464844 107.77115631103516 L 313.53826904296875 100.6934585571289" stroke-linejoin="bevel" stroke-miterlimit="10" stroke-width="2" clip-path="url(#cBxRGvFKxGDC)"/><path fill="none" stroke="#9467bd" paint-order="fill" d="M 98.2272720336914 89.41203308105469 L 122.15071868896484 90.24134063720703 L 146.07415771484375 91.07064819335938 L 169.9976043701172 91.89995574951172 L 193.92105102539062 92.72926330566406 L 217.84449768066406 93.55856323242188 L 241.7679443359375 94.38787078857422 L 265.6913757324219 95.21717834472656 L 289.6148376464844 96.0464859008789 L 313.53826904296875 96.87579345703125" stroke-linejoin="bevel" stroke-miterlimit="10" stroke-width="2" stroke-dasharray="6" clip-path="url(#XwtAlKEfWRqp)"/><path fill="none" stroke="#30a2da" paint-order="fill" d="M 313.53826904296875 100.6934585571289 L 337.46173095703125 62.945735931396484 L 361.3851623535156 70.80984497070312 L 385.3086242675781 95.18858337402344 L 409.2320556640625 83.39241790771484 L 433.155517578125 91.25653076171875 L 457.0789489746094 95.18858337402344 L 481.00238037109375 101.47986602783203 L 504.92584228515625 105.41191864013672 L 528.8493041992188 97.54781341552734 L 552.772705078125 105.41191864013672" stroke-linejoin="bevel" stroke-miterlimit="10" stroke-width="2" clip-path="url(#OJpVoPPkpuaq)"/><path fill="none" stroke="#30a2da" paint-order="fill" d="M 337.46173095703125 72.35407257080078 L 361.3851623535156 76.46723937988281 L 385.3086242675781 80.58040618896484 L 409.2320556640625 84.69357299804688 L 433.155517578125 88.8067398071289 L 457.0789489746094 92.91990661621094 L 481.00238037109375 97.03307342529297 L 504.92584228515625 101.146240234375 L 528.8493041992188 105.25940704345703 L 552.772705078125 109.37257385253906" stroke-linejoin="bevel" stroke-miterlimit="10" stroke-width="2" stroke-dasharray="6" clip-path="url(#tqOsCCfEnAND)"/><path fill="none" stroke="#fc4f30" paint-order="fill" d="M 313.53826904296875 100.6934585571289 L 337.46173095703125 103.05268859863281 L 361.3851623535156 92.829345703125 L 385.3086242675781 110.13038635253906 L 409.2320556640625 113.27603149414062 L 433.155517578125 79.46036529541016 L 457.0789489746094 62.15932846069336 L 481.00238037109375 98.33422088623047 L 504.92584228515625 68.45061492919922 L 528.8493041992188 72.3826675415039 L 552.772705078125 94.40216827392578" stroke-linejoin="bevel" stroke-miterlimit="10" stroke-width="2" clip-path="url(#OMEgZTmdceTL)"/><path fill="none" stroke="#fc4f30" paint-order="fill" d="M 337.46173095703125 102.85250854492188 L 361.3851623535156 99.8736801147461 L 385.3086242675781 96.89485168457031 L 409.2320556640625 93.91602325439453 L 433.155517578125 90.93719482421875 L 457.0789489746094 87.95836639404297 L 481.00238037109375 84.97953796386719 L 504.92584228515625 82.0007095336914 L 528.8493041992188 79.02188110351562 L 552.772705078125 76.04305267333984" stroke-linejoin="bevel" stroke-miterlimit="10" stroke-width="2" stroke-dasharray="6" clip-path="url(#WHrSSmlvSRzn)"/><path fill="none" stroke="rgb(128,128,128)" paint-order="fill" d="M 98.2272720336914 96.76140594482422 L 122.15071868896484 99.12063598632812 L 146.07415771484375 109.34397888183594 L 169.9976043701172 88.11088562011719 L 193.92105102539062 114.8488540649414 L 217.84449768066406 84.96524047851562 L 241.7679443359375 77.10113525390625 L 265.6913757324219 84.1788330078125 L 289.6148376464844 91.25653076171875 L 313.53826904296875 111.70320892333984" stroke-opacity="0.7490196078431373" stroke-linejoin="bevel" stroke-miterlimit="10" clip-path="url(#TnsSpckEftyz)"/><path fill="none" stroke="grey" paint-order="fill" d="M 313.53826904296875 111.70320892333984 L 337.46173095703125 77.10113525390625 L 361.3851623535156 80.24677276611328 L 385.3086242675781 84.1788330078125 L 409.2320556640625 66.87779235839844 L 433.155517578125 89.68370819091797 L 457.0789489746094 90.4701156616211 L 481.00238037109375 59.0136833190918 L 504.92584228515625 96.76140594482422 L 528.8493041992188 88.89729309082031 L 552.772705078125 111.70320892333984" stroke-linejoin="bevel" stroke-miterlimit="10" stroke-width="0.5" clip-path="url(#aEqdWqphXgZe)"/><path fill="none" stroke="grey" paint-order="fill" d="M 313.53826904296875 111.70320892333984 L 337.46173095703125 74.74189758300781 L 361.3851623535156 78.67395782470703 L 385.3086242675781 99.12063598632812 L 409.2320556640625 101.47986602783203 L 433.155517578125 85.75164794921875 L 457.0789489746094 65.30496978759766 L 481.00238037109375 103.05268859863281 L 504.92584228515625 63.732147216796875 L 528.8493041992188 69.23702239990234 L 552.772705078125 81.81959533691406" stroke-linejoin="bevel" stroke-miterlimit="10" stroke-width="0.5" clip-path="url(#EKyTTguLAFlU)"/><path fill="none" stroke="rgb(128,128,128)" paint-order="fill" d="M 98.2272720336914 73.95549011230469 L 122.15071868896484 74.74189758300781 L 146.07415771484375 95.18858337402344 L 169.9976043701172 93.61576080322266 L 193.92105102539062 59.80009460449219 L 217.84449768066406 125.07218933105469 L 241.7679443359375 96.76140594482422 L 265.6913757324219 67.66419982910156 L 289.6148376464844 103.05268859863281 L 313.53826904296875 97.54781341552734" stroke-opacity="0.7490196078431373" stroke-linejoin="bevel" stroke-miterlimit="10" clip-path="url(#tgmsktBheTGr)"/><path fill="none" stroke="grey" paint-order="fill" d="M 313.53826904296875 97.54781341552734 L 337.46173095703125 99.12063598632812 L 361.3851623535156 60.58650588989258 L 385.3086242675781 107.77115631103516 L 409.2320556640625 79.46036529541016 L 433.155517578125 118.7809066772461 L 457.0789489746094 72.3826675415039 L 481.00238037109375 113.27603149414062 L 504.92584228515625 84.1788330078125 L 528.8493041992188 81.81959533691406 L 552.772705078125 91.25653076171875" stroke-linejoin="bevel" stroke-miterlimit="10" stroke-width="0.5" clip-path="url(#arcgKwoGupCS)"/><path fill="none" stroke="grey" paint-order="fill" d="M 313.53826904296875 97.54781341552734 L 337.46173095703125 73.16907501220703 L 361.3851623535156 104.6255111694336 L 385.3086242675781 106.19833374023438 L 409.2320556640625 80.24677276611328 L 433.155517578125 118.7809066772461 L 457.0789489746094 105.41191864013672 L 481.00238037109375 89.68370819091797 L 504.92584228515625 107.77115631103516 L 528.8493041992188 73.95549011230469 L 552.772705078125 77.88754272460938" stroke-linejoin="bevel" stroke-miterlimit="10" stroke-width="0.5" clip-path="url(#ufWlVxXsQFQb)"/><path fill="none" stroke="rgb(128,128,128)" paint-order="fill" d="M 98.2272720336914 94.40216827392578 L 122.15071868896484 92.829345703125 L 146.07415771484375 104.6255111694336 L 169.9976043701172 63.732147216796875 L 193.92105102539062 87.32447052001953 L 217.84449768066406 92.04293823242188 L 241.7679443359375 72.3826675415039 L 265.6913757324219 101.47986602783203 L 289.6148376464844 86.5380630493164 L 313.53826904296875 84.1788330078125" stroke-opacity="0.7490196078431373" stroke-linejoin="bevel" stroke-miterlimit="10" clip-path="url(#LrALLxKLptqU)"/><path fill="none" stroke="grey" paint-order="fill" d="M 313.53826904296875 84.1788330078125 L 337.46173095703125 84.96524047851562 L 361.3851623535156 95.97499084472656 L 385.3086242675781 82.60601043701172 L 409.2320556640625 86.5380630493164 L 433.155517578125 92.04293823242188 L 457.0789489746094 97.54781341552734 L 481.00238037109375 94.40216827392578 L 504.92584228515625 96.76140594482422 L 528.8493041992188 102.26628112792969 L 552.772705078125 86.5380630493164" stroke-linejoin="bevel" stroke-miterlimit="10" stroke-width="0.5" clip-path="url(#DrLNEDKJJCQA)"/><path fill="none" stroke="grey" paint-order="fill" d="M 313.53826904296875 84.1788330078125 L 337.46173095703125 67.66419982910156 L 361.3851623535156 93.61576080322266 L 385.3086242675781 72.3826675415039 L 409.2320556640625 85.75164794921875 L 433.155517578125 88.89729309082031 L 457.0789489746094 95.18858337402344 L 481.00238037109375 77.88754272460938 L 504.92584228515625 107.77115631103516 L 528.8493041992188 82.60601043701172 L 552.772705078125 79.46036529541016" stroke-linejoin="bevel" stroke-miterlimit="10" stroke-width="0.5" clip-path="url(#yIFElguSOiWB)"/><path fill="none" stroke="rgb(128,128,128)" paint-order="fill" d="M 98.2272720336914 83.39241790771484 L 122.15071868896484 90.4701156616211 L 146.07415771484375 97.54781341552734 L 169.9976043701172 99.90704345703125 L 193.92105102539062 88.89729309082031 L 217.84449768066406 92.04293823242188 L 241.7679443359375 105.41191864013672 L 265.6913757324219 84.1788330078125 L 289.6148376464844 91.25653076171875 L 313.53826904296875 94.40216827392578" stroke-opacity="0.7490196078431373" stroke-linejoin="bevel" stroke-miterlimit="10" clip-path="url(#OorgNNOBbEEL)"/><path fill="none" stroke="grey" paint-order="fill" d="M 313.53826904296875 94.40216827392578 L 337.46173095703125 97.54781341552734 L 361.3851623535156 107.77115631103516 L 385.3086242675781 87.32447052001953 L 409.2320556640625 64.51856231689453 L 433.155517578125 58.227272033691406 L 457.0789489746094 86.5380630493164 L 481.00238037109375 116.42167663574219 L 504.92584228515625 73.95549011230469 L 528.8493041992188 84.96524047851562 L 552.772705078125 120.35372924804688" stroke-linejoin="bevel" stroke-miterlimit="10" stroke-width="0.5" clip-path="url(#BQeUdRRDogkJ)"/><path fill="none" stroke="grey" paint-order="fill" d="M 313.53826904296875 94.40216827392578 L 337.46173095703125 106.19833374023438 L 361.3851623535156 83.39241790771484 L 385.3086242675781 66.09137725830078 L 409.2320556640625 80.24677276611328 L 433.155517578125 92.04293823242188 L 457.0789489746094 99.12063598632812 L 481.00238037109375 89.68370819091797 L 504.92584228515625 103.05268859863281 L 528.8493041992188 92.829345703125 L 552.772705078125 93.61576080322266" stroke-linejoin="bevel" stroke-miterlimit="10" stroke-width="0.5" clip-path="url(#HINOZimrPFzA)"/><path fill="none" stroke="black" paint-order="fill" d="M 75.5 285.5 L 575.5 285.5" stroke-linejoin="bevel" stroke-miterlimit="10"/><path fill="none" stroke="black" paint-order="fill" d="M 98.5 291.5 L 98.5 283.5 M 217.5 291.5 L 217.5 283.5 M 337.5 291.5 L 337.5 283.5 M 457.5 291.5 L 457.5 283.5" stroke-linejoin="bevel" stroke-miterlimit="10"/><path fill="none" stroke="black" paint-order="fill" d="M 98.5 289.5 L 98.5 285.5 M 122.5 289.5 L 122.5 285.5 M 146.5 289.5 L 146.5 285.5 M 169.5 289.5 L 169.5 285.5 M 193.5 289.5 L 193.5 285.5 M 217.5 289.5 L 217.5 285.5 M 241.5 289.5 L 241.5 285.5 M 265.5 289.5 L 265.5 285.5 M 289.5 289.5 L 289.5 285.5 M 313.5 289.5 L 313.5 285.5 M 337.5 289.5 L 337.5 285.5 M 361.5 289.5 L 361.5 285.5 M 385.5 289.5 L 385.5 285.5 M 409.5 289.5 L 409.5 285.5 M 433.5 289.5 L 433.5 285.5 M 457.5 289.5 L 457.5 285.5 M 481.5 289.5 L 481.5 285.5 M 504.5 289.5 L 504.5 285.5 M 528.5 289.5 L 528.5 285.5 M 552.5 289.5 L 552.5 285.5" stroke-linejoin="bevel" stroke-miterlimit="10"/><text fill="#444444" stroke="none" font-family="helvetica" font-size="10pt" font-style="normal" font-weight="normal" text-decoration="normal" x="84.36060523986816" y="306" text-anchor="start" dominant-baseline="alphabetic" transform="matrix(1, 0, 0, 1, 0.5, 0.5)">2025</text><text fill="none" stroke="rgb(0,0,0)" font-family="helvetica" font-size="10pt" font-style="normal" font-weight="normal" text-decoration="normal" x="84.36060523986816" y="306" text-anchor="start" dominant-baseline="alphabetic" transform="matrix(1, 0, 0, 1, 0.5, 0.5)" stroke-opacity="0" stroke-linejoin="bevel" stroke-miterlimit="10">2025</text><text fill="#444444" stroke="none" font-family="helvetica" font-size="10pt" font-style="normal" font-weight="normal" text-decoration="normal" x="203.97783088684082" y="306" text-anchor="start" dominant-baseline="alphabetic" transform="matrix(1, 0, 0, 1, 0.5, 0.5)">2030</text><text fill="none" stroke="rgb(0,0,0)" font-family="helvetica" font-size="10pt" font-style="normal" font-weight="normal" text-decoration="normal" x="203.97783088684082" y="306" text-anchor="start" dominant-baseline="alphabetic" transform="matrix(1, 0, 0, 1, 0.5, 0.5)" stroke-opacity="0" stroke-linejoin="bevel" stroke-miterlimit="10">2030</text><text fill="#444444" stroke="none" font-family="helvetica" font-size="10pt" font-style="normal" font-weight="normal" text-decoration="normal" x="323.595064163208" y="306" text-anchor="start" dominant-baseline="alphabetic" transform="matrix(1, 0, 0, 1, 0.5, 0.5)">2035</text><text fill="none" stroke="rgb(0,0,0)" font-family="helvetica" font-size="10pt" font-style="normal" font-weight="normal" text-decoration="normal" x="323.595064163208" y="306" text-anchor="start" dominant-baseline="alphabetic" transform="matrix(1, 0, 0, 1, 0.5, 0.5)" stroke-opacity="0" stroke-linejoin="bevel" stroke-miterlimit="10">2035</text><text fill="#444444" stroke="none" font-family="helvetica" font-size="10pt" font-style="normal" font-weight="normal" text-decoration="normal" x="443.21228218078613" y="306" text-anchor="start" dominant-baseline="alphabetic" transform="matrix(1, 0, 0, 1, 0.5, 0.5)">2040</text><text fill="none" stroke="rgb(0,0,0)" font-family="helvetica" font-size="10pt" font-style="normal" font-weight="normal" text-decoration="normal" x="443.21228218078613" y="306" text-anchor="start" dominant-baseline="alphabetic" transform="matrix(1, 0, 0, 1, 0.5, 0.5)" stroke-opacity="0" stroke-linejoin="bevel" stroke-miterlimit="10">2040</text><text fill="#444444" stroke="none" font-family="helvetica" font-size="12pt" font-style="normal" font-weight="normal" text-decoration="normal" x="310.3166666030884" y="329" text-anchor="start" dominant-baseline="alphabetic" transform="matrix(1, 0, 0, 1, 0.5, 0.5)">Year</text><text fill="none" stroke="rgb(0,0,0)" font-family="helvetica" font-size="12pt" font-style="normal" font-weight="normal" text-decoration="normal" x="310.3166666030884" y="329" text-anchor="start" dominant-baseline="alphabetic" transform="matrix(1, 0, 0, 1, 0.5, 0.5)" stroke-opacity="0" stroke-linejoin="bevel" stroke-miterlimit="10">Year</text><path fill="none" stroke="black" paint-order="fill" d="M 75.5 285.5 L 75.5 35.5" stroke-linejoin="bevel" stroke-miterlimit="10"/><path fill="none" stroke="black" paint-order="fill" d="M 69.5 285.5 L 77.5 285.5 M 69.5 246.5 L 77.5 246.5 M 69.5 206.5 L 77.5 206.5 M 69.5 167.5 L 77.5 167.5 M 69.5 128.5 L 77.5 128.5 M 69.5 88.5 L 77.5 88.5 M 69.5 49.5 L 77.5 49.5" stroke-linejoin="bevel" stroke-miterlimit="10"/><path fill="none" stroke="black" paint-order="fill" d="M 71.5 285.5 L 75.5 285.5 M 71.5 277.5 L 75.5 277.5 M 71.5 269.5 L 75.5 269.5 M 71.5 261.5 L 75.5 261.5 M 71.5 254.5 L 75.5 254.5 M 71.5 246.5 L 75.5 246.5 M 71.5 238.5 L 75.5 238.5 M 71.5 230.5 L 75.5 230.5 M 71.5 222.5 L 75.5 222.5 M 71.5 214.5 L 75.5 214.5 M 71.5 206.5 L 75.5 206.5 M 71.5 198.5 L 75.5 198.5 M 71.5 191.5 L 75.5 191.5 M 71.5 183.5 L 75.5 183.5 M 71.5 175.5 L 75.5 175.5 M 71.5 167.5 L 75.5 167.5 M 71.5 159.5 L 75.5 159.5 M 71.5 151.5 L 75.5 151.5 M 71.5 143.5 L 75.5 143.5 M 71.5 136.5 L 75.5 136.5 M 71.5 128.5 L 75.5 128.5 M 71.5 120.5 L 75.5 120.5 M 71.5 112.5 L 75.5 112.5 M 71.5 104.5 L 75.5 104.5 M 71.5 96.5 L 75.5 96.5 M 71.5 88.5 L 75.5 88.5 M 71.5 81.5 L 75.5 81.5 M 71.5 73.5 L 75.5 73.5 M 71.5 65.5 L 75.5 65.5 M 71.5 57.5 L 75.5 57.5 M 71.5 49.5 L 75.5 49.5 M 71.5 41.5 L 75.5 41.5" stroke-linejoin="bevel" stroke-miterlimit="10"/><text fill="#444444" stroke="none" font-family="helvetica" font-size="10pt" font-style="normal" font-weight="normal" text-decoration="normal" x="57.31666660308838" y="290" text-anchor="start" dominant-baseline="alphabetic" transform="matrix(1, 0, 0, 1, 0.5, 0.5)">0</text><text fill="none" stroke="rgb(0,0,0)" font-family="helvetica" font-size="10pt" font-style="normal" font-weight="normal" text-decoration="normal" x="57.31666660308838" y="290" text-anchor="start" dominant-baseline="alphabetic" transform="matrix(1, 0, 0, 1, 0.5, 0.5)" stroke-opacity="0" stroke-linejoin="bevel" stroke-miterlimit="10">0</text><text fill="#444444" stroke="none" font-family="helvetica" font-size="10pt" font-style="normal" font-weight="normal" text-decoration="normal" x="50.63333320617676" y="250.67945861816406" text-anchor="start" dominant-baseline="alphabetic" transform="matrix(1, 0, 0, 1, 0.5, 0.5)">50</text><text fill="none" stroke="rgb(0,0,0)" font-family="helvetica" font-size="10pt" font-style="normal" font-weight="normal" text-decoration="normal" x="50.63333320617676" y="250.67945861816406" text-anchor="start" dominant-baseline="alphabetic" transform="matrix(1, 0, 0, 1, 0.5, 0.5)" stroke-opacity="0" stroke-linejoin="bevel" stroke-miterlimit="10">50</text><text fill="#444444" stroke="none" font-family="helvetica" font-size="10pt" font-style="normal" font-weight="normal" text-decoration="normal" x="43.95000076293945" y="211.35891723632812" text-anchor="start" dominant-baseline="alphabetic" transform="matrix(1, 0, 0, 1, 0.5, 0.5)">100</text><text fill="none" stroke="rgb(0,0,0)" font-family="helvetica" font-size="10pt" font-style="normal" font-weight="normal" text-decoration="normal" x="43.95000076293945" y="211.35891723632812" text-anchor="start" dominant-baseline="alphabetic" transform="matrix(1, 0, 0, 1, 0.5, 0.5)" stroke-opacity="0" stroke-linejoin="bevel" stroke-miterlimit="10">100</text><text fill="#444444" stroke="none" font-family="helvetica" font-size="10pt" font-style="normal" font-weight="normal" text-decoration="normal" x="43.95000076293945" y="172.0383758544922" text-anchor="start" dominant-baseline="alphabetic" transform="matrix(1, 0, 0, 1, 0.5, 0.5)">150</text><text fill="none" stroke="rgb(0,0,0)" font-family="helvetica" font-size="10pt" font-style="normal" font-weight="normal" text-decoration="normal" x="43.95000076293945" y="172.0383758544922" text-anchor="start" dominant-baseline="alphabetic" transform="matrix(1, 0, 0, 1, 0.5, 0.5)" stroke-opacity="0" stroke-linejoin="bevel" stroke-miterlimit="10">150</text><text fill="#444444" stroke="none" font-family="helvetica" font-size="10pt" font-style="normal" font-weight="normal" text-decoration="normal" x="43.95000076293945" y="132.71783447265625" text-anchor="start" dominant-baseline="alphabetic" transform="matrix(1, 0, 0, 1, 0.5, 0.5)">200</text><text fill="none" stroke="rgb(0,0,0)" font-family="helvetica" font-size="10pt" font-style="normal" font-weight="normal" text-decoration="normal" x="43.95000076293945" y="132.71783447265625" text-anchor="start" dominant-baseline="alphabetic" transform="matrix(1, 0, 0, 1, 0.5, 0.5)" stroke-opacity="0" stroke-linejoin="bevel" stroke-miterlimit="10">200</text><text fill="#444444" stroke="none" font-family="helvetica" font-size="10pt" font-style="normal" font-weight="normal" text-decoration="normal" x="43.95000076293945" y="93.39729309082031" text-anchor="start" dominant-baseline="alphabetic" transform="matrix(1, 0, 0, 1, 0.5, 0.5)">250</text><text fill="none" stroke="rgb(0,0,0)" font-family="helvetica" font-size="10pt" font-style="normal" font-weight="normal" text-decoration="normal" x="43.95000076293945" y="93.39729309082031" text-anchor="start" dominant-baseline="alphabetic" transform="matrix(1, 0, 0, 1, 0.5, 0.5)" stroke-opacity="0" stroke-linejoin="bevel" stroke-miterlimit="10">250</text><text fill="#444444" stroke="none" font-family="helvetica" font-size="10pt" font-style="normal" font-weight="normal" text-decoration="normal" x="43.95000076293945" y="54.07675552368164" text-anchor="start" dominant-baseline="alphabetic" transform="matrix(1, 0, 0, 1, 0.5, 0.5)">300</text><text fill="none" stroke="rgb(0,0,0)" font-family="helvetica" font-size="10pt" font-style="normal" font-weight="normal" text-decoration="normal" x="43.95000076293945" y="54.07675552368164" text-anchor="start" dominant-baseline="alphabetic" transform="matrix(1, 0, 0, 1, 0.5, 0.5)" stroke-opacity="0" stroke-linejoin="bevel" stroke-miterlimit="10">300</text><text fill="#444444" stroke="none" font-family="helvetica" font-size="12pt" font-style="normal" font-weight="normal" text-decoration="normal" x="-60.25833511352539" y="156" text-anchor="start" dominant-baseline="alphabetic" transform="matrix(6.123233995736766e-17, -1, 1, 6.123233995736766e-17, -123.54999923706055, 196.45000076293945)">Days suitable for transmission</text><text fill="none" stroke="rgb(0,0,0)" font-family="helvetica" font-size="12pt" font-style="normal" font-weight="normal" text-decoration="normal" x="-60.25833511352539" y="156" text-anchor="start" dominant-baseline="alphabetic" transform="matrix(6.123233995736766e-17, -1, 1, 6.123233995736766e-17, -123.54999923706055, 196.45000076293945)" stroke-opacity="0" stroke-linejoin="bevel" stroke-miterlimit="10">Days suitable for transmission</text><path fill="rgb(255,255,255)" stroke="rgb(229,229,229)" paint-order="fill" d="M 482.0333251953125 210.5 L 565.4999847412109 210.5 L 565.4999847412109 275.5 L 482.0333251953125 275.5 L 482.0333251953125 210.5 Z" fill-opacity="0.9490196078431372" clip-path="url(#CfvQTpcXUSSE)" stroke-opacity="0.5019607843137255" stroke-linejoin="bevel" stroke-miterlimit="10"/><g clip-path="url(#CfvQTpcXUSSE)"><g transform="matrix(1, 0, 0, 1, 492.5333251953125, 221)"><path fill="none" stroke="#30a2da" paint-order="fill" d="M 0.5 10.5 L 20.5 10.5" stroke-linejoin="bevel" stroke-miterlimit="10" stroke-width="2"/></g></g><g clip-path="url(#CfvQTpcXUSSE)"><text fill="#444444" stroke="none" font-family="helvetica" font-size="13px" font-style="normal" font-weight="normal" text-decoration="normal" x="517.5333251953125" y="235.5" text-anchor="start" dominant-baseline="alphabetic" transform="matrix(1, 0, 0, 1, 0.5, 0.5)">ID 001</text></g><g clip-path="url(#CfvQTpcXUSSE)"><text fill="none" stroke="rgb(0,0,0)" font-family="helvetica" font-size="13px" font-style="normal" font-weight="normal" text-decoration="normal" x="517.5333251953125" y="235.5" text-anchor="start" dominant-baseline="alphabetic" transform="matrix(1, 0, 0, 1, 0.5, 0.5)" stroke-opacity="0" stroke-linejoin="bevel" stroke-miterlimit="10">ID 001</text></g><g clip-path="url(#CfvQTpcXUSSE)"><g transform="matrix(1, 0, 0, 1, 492.5333251953125, 244)"><path fill="none" stroke="#fc4f30" paint-order="fill" d="M 0.5 10.5 L 20.5 10.5" stroke-linejoin="bevel" stroke-miterlimit="10" stroke-width="2"/></g></g><g clip-path="url(#CfvQTpcXUSSE)"><text fill="#444444" stroke="none" font-family="helvetica" font-size="13px" font-style="normal" font-weight="normal" text-decoration="normal" x="517.5333251953125" y="258.5" text-anchor="start" dominant-baseline="alphabetic" transform="matrix(1, 0, 0, 1, 0.5, 0.5)">ID 006</text></g><g clip-path="url(#CfvQTpcXUSSE)"><text fill="none" stroke="rgb(0,0,0)" font-family="helvetica" font-size="13px" font-style="normal" font-weight="normal" text-decoration="normal" x="517.5333251953125" y="258.5" text-anchor="start" dominant-baseline="alphabetic" transform="matrix(1, 0, 0, 1, 0.5, 0.5)" stroke-opacity="0" stroke-linejoin="bevel" stroke-miterlimit="10">ID 006</text></g><text fill="black" stroke="none" font-family="helvetica" font-size="14pt" font-style="normal" font-weight="normal" text-decoration="normal" x="0" y="18" text-anchor="start" dominant-baseline="alphabetic" transform="matrix(1, 0, 0, 1, 5.5, 7.5)">E. New Delhi</text><text fill="none" stroke="rgb(0,0,0)" font-family="helvetica" font-size="14pt" font-style="normal" font-weight="normal" text-decoration="normal" x="0" y="18" text-anchor="start" dominant-baseline="alphabetic" transform="matrix(1, 0, 0, 1, 5.5, 7.5)" stroke-opacity="0" stroke-linejoin="bevel" stroke-miterlimit="10">E. New Delhi</text></svg>