<svg version="1.1" xmlns="http://www.w3.org/2000/svg" width="605" height="336"><defs><clipPath id="QfyGSSMxqHkq"><path fill="none" stroke="none" d="M 75.5 35.5 L 575.5 35.5 L 575.5 285.5 L 75.5 285.5 L 75.5 35.5 Z"/></clipPath><clipPath id="IyCPfIyTTheo"><path fill="none" stroke="none" d="M 75.5 35.5 L 575.5 35.5 L 575.5 285.5 L 75.5 285.5 L 75.5 35.5 Z"/></clipPath><clipPath id="UDOwAlprSBsM"><path fill="none" stroke="none" d="M 75.5 35.5 L 575.5 35.5 L 575.5 285.5 L 75.5 285.5 L 75.5 35.5 Z"/></clipPath><clipPath id="OGADFPDyuiyk"><path fill="none" stroke="none" d="M 75.5 35.5 L 575.5 35.5 L 575.5 285.5 L 75.5 285.5 L 75.5 35.5 Z"/></clipPath><clipPath id="iytXzNRIEgvJ"><path fill="none" stroke="none" d="M 75.5 35.5 L 575.5 35.5 L 575.5 285.5 L 75.5 285.5 L 75.5 35.5 Z"/></clipPath><clipPath id="XJsMVPAfLxyg"><path fill="none" stroke="none" d="M 75.5 35.5 L 575.5 35.5 L 575.5 285.5 L 75.5 285.5 L 75.5 35.5 Z"/></clipPath><clipPath id="ozMCUTIygRzQ"><path fill="none" stroke="none" d="M 75.5 35.5 L 575.5 35.5 L 575.5 285.5 L 75.5 285.5 L 75.5 35.5 Z"/></clipPath><clipPath id="nlTPATRocGHQ"><path fill="none" stroke="none" d="M 75.5 35.5 L 575.5 35.5 L 575.5 285.5 L 75.5 285.5 L 75.5 35.5 Z"/></clipPath><clipPath id="VavyituuzbsP"><path fill="none" stroke="none" d="M 75.5 35.5 L 575.5 35.5 L 575.5 285.5 L 75.5 285.5 L 75.5 35.5 Z"/></clipPath><clipPath id="VHJNxFItVAIR"><path fill="none" stroke="none" d="M 75.5 35.5 L 575.5 35.5 L 575.5 285.5 L 75.5 285.5 L 75.5 35.5 Z"/></clipPath><clipPath id="pkCxLyUblJXE"><path fill="none" stroke="none" d="M 75.5 35.5 L 575.5 35.5 L 575.5 285.5 L 75.5 285.5 L 75.5 35.5 Z"/></clipPath><clipPath id="VPEkLPImLzqT"><path fill="none" stroke="none" d="M 75.5 35.5 L 575.5 35.5 L 575.5 285.5 L 75.5 285.5 L 75.5 35.5 Z"/></clipPath><clipPath id="RkTLokoThSxo"><path fill="none" stroke="none" d="M 75.5 35.5 L 575.5 35.5 L 575.5 285.5 L 75.5 285.5 L 75.5 35.5 Z"/></clipPath><clipPath id="hkAAVASJkyhm"><path fill="none" stroke="none" d="M 75.5 35.5 L 575.5 35.5 L 575.5 285.5 L 75.5 285.5 L 75.5 35.5 Z"/></clipPath><clipPath id="VUmTHLqXVqTT"><path fill="none" stroke="none" d="M 75.5 35.5 L 575.5 35.5 L 575.5 285.5 L 75.5 285.5 L 75.5 35.5 Z"/></clipPath><clipPath id="fXTMwIzMHbnJ"><path fill="none" stroke="none" d="M 75.5 35.5 L 575.5 35.5 L 575.5 285.5 L 75.5 285.5 L 75.5 35.5 Z"/></clipPath><clipPath id="WOwaWFUMxiXz"><path fill="none" stroke="none" d="M 75.5 35.5 L 575.5 35.5 L 575.5 285.5 L 75.5 285.5 L 75.5 35.5 Z"/></clipPath><clipPath id="brnEpbFVipOU"><path fill="none" stroke="none" d="M 75.5 35.5 L 575.5 35.5 L 575.5 285.5 L 75.5 285.5 L 75.5 35.5 Z"/></clipPath><clipPath id="rilTfTZHhEoJ"><path fill="none" stroke="none" d="M 75.5 35.5 L 575.5 35.5 L 575.5 285.5 L 75.5 285.5 L 75.5 35.5 Z"/></clipPath><clipPath id="BqWMRdQJyOhl"><path fill="none" stroke="none" d="M 75.5 35.5 L 575.5 35.5 L 575.5 285.5 L 75.5 285.5 L 75.5 35.5 Z"/></clipPath><clipPath id="veeeTGwmFDHr"><path fill="none" stroke="none" d="M 75.5 35.5 L 575.5 35.5 L 575.5 285.5 L 75.5 285.5 L 75.5 35.5 Z"/></clipPath><clipPath id="elMUJcLJkQhc"><path fill="none" stroke="none" d="M 75.5 35.5 L 575.5 35.5 L 575.5 285.5 L 75.5 285.5 L 75.5 35.5 Z"/></clipPath><clipPath id="vZhQrNNZkBZi"><path fill="none" stroke="none" d="M 75.5 35.5 L 575.5 35.5 L 575.5 285.5 L 75.5 285.5 L 75.5 35.5 Z"/></clipPath></defs><path fill="none" stroke="#e5e5e5" paint-order="fill" d="M 75.5 35.5 L 575.5 35.5 L 575.5 285.5 L 75.5 285.5 L 75.5 35.5 Z" stroke-linejoin="bevel" stroke-miterlimit="10"/><path fill="none" stroke="black" paint-order="fill" d="M 337.46172248803487 35.5 L 337.46172248803487 285.5" stroke-linejoin="bevel" stroke-miterlimit="10" stroke-width="3" stroke-dasharray="6" clip-path="url(#UDOwAlprSBsM)"/><path fill="none" stroke="#9467bd" paint-order="fill" d="M 98.2272720336914 116.40908813476562 L 122.15071868896484 107.31818389892578 L 146.07415771484375 158.22727966308594 L 169.9976043701172 143.68182373046875 L 193.92105102539062 96.40908813476562 L 217.84449768066406 127.31818389892578 L 241.7679443359375 187.31817626953125 L 265.6913757324219 121.86363983154297 L 289.6148376464844 170.9545440673828 L 313.53826904296875 141.86363220214844" stroke-linejoin="bevel" stroke-miterlimit="10" stroke-width="2" clip-path="url(#OGADFPDyuiyk)"/><path fill="none" stroke="#9467bd" paint-order="fill" d="M 98.2272720336914 119.28512573242188 L 122.15071868896484 123.25206756591797 L 146.07415771484375 127.21900939941406 L 169.9976043701172 131.18594360351562 L 193.92105102539062 135.15289306640625 L 217.84449768066406 139.1198272705078 L 241.7679443359375 143.08677673339844 L 265.6913757324219 147.05372619628906 L 289.6148376464844 151.02066040039062 L 313.53826904296875 154.98760986328125" stroke-linejoin="bevel" stroke-miterlimit="10" stroke-width="2" stroke-dasharray="6" clip-path="url(#iytXzNRIEgvJ)"/><path fill="none" stroke="#30a2da" paint-order="fill" d="M 313.53826904296875 141.86363220214844 L 337.46173095703125 103.68181610107422 L 361.3851623535156 90.95454406738281 L 385.3086242675781 103.68181610107422 L 409.2320556640625 112.7727279663086 L 433.155517578125 105.5 L 457.0789489746094 154.59091186523438 L 481.00238037109375 189.13636779785156 L 504.92584228515625 127.31818389892578 L 528.8493041992188 145.5 L 552.772705078125 201.86363220214844" stroke-linejoin="bevel" stroke-miterlimit="10" stroke-width="2" clip-path="url(#XJsMVPAfLxyg)"/><path fill="none" stroke="#30a2da" paint-order="fill" d="M 337.46173095703125 88.17768859863281 L 361.3851623535156 98.24931335449219 L 385.3086242675781 108.32093811035156 L 409.2320556640625 118.39256286621094 L 433.155517578125 128.4641876220703 L 457.0789489746094 138.5358123779297 L 481.00238037109375 148.60743713378906 L 504.92584228515625 158.67906188964844 L 528.8493041992188 168.7506866455078 L 552.772705078125 178.8223114013672" stroke-linejoin="bevel" stroke-miterlimit="10" stroke-width="2" stroke-dasharray="6" clip-path="url(#ozMCUTIygRzQ)"/><path fill="none" stroke="#fc4f30" paint-order="fill" d="M 313.53826904296875 141.86363220214844 L 337.46173095703125 94.59091186523438 L 361.3851623535156 205.5 L 385.3086242675781 181.86363220214844 L 409.2320556640625 145.5 L 433.155517578125 145.5 L 457.0789489746094 141.86363220214844 L 481.00238037109375 160.0454559326172 L 504.92584228515625 134.59091186523438 L 528.8493041992188 160.0454559326172 L 552.772705078125 96.40908813476562" stroke-linejoin="bevel" stroke-miterlimit="10" stroke-width="2" clip-path="url(#nlTPATRocGHQ)"/><path fill="none" stroke="#fc4f30" paint-order="fill" d="M 337.46173095703125 160.1776885986328 L 361.3851623535156 157.1584014892578 L 385.3086242675781 154.1391143798828 L 409.2320556640625 151.1198272705078 L 433.155517578125 148.10055541992188 L 457.0789489746094 145.08126831054688 L 481.00238037109375 142.06198120117188 L 504.92584228515625 139.04269409179688 L 528.8493041992188 136.02342224121094 L 552.772705078125 133.00413513183594" stroke-linejoin="bevel" stroke-miterlimit="10" stroke-width="2" stroke-dasharray="6" clip-path="url(#VavyituuzbsP)"/><path fill="none" stroke="rgb(128,128,128)" paint-order="fill" d="M 98.2272720336914 221.86363220214844 L 122.15071868896484 116.40908813476562 L 146.07415771484375 80.04545593261719 L 169.9976043701172 112.7727279663086 L 193.92105102539062 112.7727279663086 L 217.84449768066406 114.59091186523438 L 241.7679443359375 129.13636779785156 L 265.6913757324219 118.2272720336914 L 289.6148376464844 112.7727279663086 L 313.53826904296875 76.40908813476562" stroke-opacity="0.7490196078431373" stroke-linejoin="bevel" stroke-miterlimit="10" clip-path="url(#VHJNxFItVAIR)"/><path fill="none" stroke="grey" paint-order="fill" d="M 313.53826904296875 76.40908813476562 L 337.46173095703125 90.95454406738281 L 361.3851623535156 110.95454406738281 L 385.3086242675781 87.31818389892578 L 409.2320556640625 105.5 L 433.155517578125 94.59091186523438 L 457.0789489746094 94.59091186523438 L 481.00238037109375 129.13636779785156 L 504.92584228515625 130.9545440673828 L 528.8493041992188 172.77272033691406 L 552.772705078125 154.59091186523438" stroke-linejoin="bevel" stroke-miterlimit="10" stroke-width="0.5" clip-path="url(#pkCxLyUblJXE)"/><path fill="none" stroke="grey" paint-order="fill" d="M 313.53826904296875 76.40908813476562 L 337.46173095703125 103.68181610107422 L 361.3851623535156 130.9545440673828 L 385.3086242675781 138.22727966308594 L 409.2320556640625 174.59091186523438 L 433.155517578125 134.59091186523438 L 457.0789489746094 94.59091186523438 L 481.00238037109375 136.40908813476562 L 504.92584228515625 120.04545593261719 L 528.8493041992188 150.9545440673828 L 552.772705078125 110.95454406738281" stroke-linejoin="bevel" stroke-miterlimit="10" stroke-width="0.5" clip-path="url(#VPEkLPImLzqT)"/><path fill="none" stroke="rgb(128,128,128)" paint-order="fill" d="M 98.2272720336914 130.9545440673828 L 122.15071868896484 129.13636779785156 L 146.07415771484375 94.59091186523438 L 169.9976043701172 110.95454406738281 L 193.92105102539062 134.59091186523438 L 217.84449768066406 89.13636016845703 L 241.7679443359375 89.13636016845703 L 265.6913757324219 103.68181610107422 L 289.6148376464844 138.22727966308594 L 313.53826904296875 110.95454406738281" stroke-opacity="0.7490196078431373" stroke-linejoin="bevel" stroke-miterlimit="10" clip-path="url(#RkTLokoThSxo)"/><path fill="none" stroke="grey" paint-order="fill" d="M 313.53826904296875 110.95454406738281 L 337.46173095703125 110.95454406738281 L 361.3851623535156 107.31818389892578 L 385.3086242675781 90.95454406738281 L 409.2320556640625 114.59091186523438 L 433.155517578125 105.5 L 457.0789489746094 89.13636016845703 L 481.00238037109375 58.227272033691406 L 504.92584228515625 114.59091186523438 L 528.8493041992188 92.7727279663086 L 552.772705078125 134.59091186523438" stroke-linejoin="bevel" stroke-miterlimit="10" stroke-width="0.5" clip-path="url(#hkAAVASJkyhm)"/><path fill="none" stroke="grey" paint-order="fill" d="M 313.53826904296875 110.95454406738281 L 337.46173095703125 72.7727279663086 L 361.3851623535156 125.5 L 385.3086242675781 134.59091186523438 L 409.2320556640625 110.95454406738281 L 433.155517578125 123.68181610107422 L 457.0789489746094 167.31817626953125 L 481.00238037109375 100.04545593261719 L 504.92584228515625 152.77272033691406 L 528.8493041992188 107.31818389892578 L 552.772705078125 101.86363983154297" stroke-linejoin="bevel" stroke-miterlimit="10" stroke-width="0.5" clip-path="url(#VUmTHLqXVqTT)"/><path fill="none" stroke="rgb(128,128,128)" paint-order="fill" d="M 98.2272720336914 134.59091186523438 L 122.15071868896484 116.40908813476562 L 146.07415771484375 89.13636016845703 L 169.9976043701172 118.2272720336914 L 193.92105102539062 181.86363220214844 L 217.84449768066406 109.13636016845703 L 241.7679443359375 170.9545440673828 L 265.6913757324219 70.95454406738281 L 289.6148376464844 120.04545593261719 L 313.53826904296875 85.5" stroke-opacity="0.7490196078431373" stroke-linejoin="bevel" stroke-miterlimit="10" clip-path="url(#fXTMwIzMHbnJ)"/><path fill="none" stroke="grey" paint-order="fill" d="M 313.53826904296875 85.5 L 337.46173095703125 132.77272033691406 L 361.3851623535156 98.2272720336914 L 385.3086242675781 147.31817626953125 L 409.2320556640625 110.95454406738281 L 433.155517578125 156.40908813476562 L 457.0789489746094 96.40908813476562 L 481.00238037109375 147.31817626953125 L 504.92584228515625 120.04545593261719 L 528.8493041992188 158.22727966308594 L 552.772705078125 132.77272033691406" stroke-linejoin="bevel" stroke-miterlimit="10" stroke-width="0.5" clip-path="url(#WOwaWFUMxiXz)"/><path fill="none" stroke="grey" paint-order="fill" d="M 313.53826904296875 85.5 L 337.46173095703125 129.13636779785156 L 361.3851623535156 110.95454406738281 L 385.3086242675781 103.68181610107422 L 409.2320556640625 136.40908813476562 L 433.155517578125 147.31817626953125 L 457.0789489746094 110.95454406738281 L 481.00238037109375 130.9545440673828 L 504.92584228515625 127.31818389892578 L 528.8493041992188 123.68181610107422 L 552.772705078125 120.04545593261719" stroke-linejoin="bevel" stroke-miterlimit="10" stroke-width="0.5" clip-path="url(#brnEpbFVipOU)"/><path fill="none" stroke="rgb(128,128,128)" paint-order="fill" d="M 98.2272720336914 185.5 L 122.15071868896484 123.68181610107422 L 146.07415771484375 138.22727966308594 L 169.9976043701172 98.2272720336914 L 193.92105102539062 152.77272033691406 L 217.84449768066406 136.40908813476562 L 241.7679443359375 114.59091186523438 L 265.6913757324219 74.59091186523438 L 289.6148376464844 118.2272720336914 L 313.53826904296875 127.31818389892578" stroke-opacity="0.7490196078431373" stroke-linejoin="bevel" stroke-miterlimit="10" clip-path="url(#rilTfTZHhEoJ)"/><path fill="none" stroke="grey" paint-order="fill" d="M 313.53826904296875 127.31818389892578 L 337.46173095703125 107.31818389892578 L 361.3851623535156 129.13636779785156 L 385.3086242675781 89.13636016845703 L 409.2320556640625 107.31818389892578 L 433.155517578125 130.9545440673828 L 457.0789489746094 156.40908813476562 L 481.00238037109375 160.0454559326172 L 504.92584228515625 130.9545440673828 L 528.8493041992188 130.9545440673828 L 552.772705078125 123.68181610107422" stroke-linejoin="bevel" stroke-miterlimit="10" stroke-width="0.5" clip-path="url(#BqWMRdQJyOhl)"/><path fill="none" stroke="grey" paint-order="fill" d="M 313.53826904296875 127.31818389892578 L 337.46173095703125 94.59091186523438 L 361.3851623535156 107.31818389892578 L 385.3086242675781 121.86363983154297 L 409.2320556640625 136.40908813476562 L 433.155517578125 134.59091186523438 L 457.0789489746094 105.5 L 481.00238037109375 158.22727966308594 L 504.92584228515625 161.86363220214844 L 528.8493041992188 109.13636016845703 L 552.772705078125 109.13636016845703" stroke-linejoin="bevel" stroke-miterlimit="10" stroke-width="0.5" clip-path="url(#veeeTGwmFDHr)"/><path fill="none" stroke="black" paint-order="fill" d="M 75.5 285.5 L 575.5 285.5" stroke-linejoin="bevel" stroke-miterlimit="10"/><path fill="none" stroke="black" paint-order="fill" d="M 98.5 291.5 L 98.5 283.5 M 217.5 291.5 L 217.5 283.5 M 337.5 291.5 L 337.5 283.5 M 457.5 291.5 L 457.5 283.5" stroke-linejoin="bevel" stroke-miterlimit="10"/><path fill="none" stroke="black" paint-order="fill" d="M 98.5 289.5 L 98.5 285.5 M 122.5 289.5 L 122.5 285.5 M 146.5 289.5 L 146.5 285.5 M 169.5 289.5 L 169.5 285.5 M 193.5 289.5 L 193.5 285.5 M 217.5 289.5 L 217.5 285.5 M 241.5 289.5 L 241.5 285.5 M 265.5 289.5 L 265.5 285.5 M 289.5 289.5 L 289.5 285.5 M 313.5 289.5 L 313.5 285.5 M 337.5 289.5 L 337.5 285.5 M 361.5 289.5 L 361.5 285.5 M 385.5 289.5 L 385.5 285.5 M 409.5 289.5 L 409.5 285.5 M 433.5 289.5 L 433.5 285.5 M 457.5 289.5 L 457.5 285.5 M 481.5 289.5 L 481.5 285.5 M 504.5 289.5 L 504.5 285.5 M 528.5 289.5 L 528.5 285.5 M 552.5 289.5 L 552.5 285.5" stroke-linejoin="bevel" stroke-miterlimit="10"/><text fill="#444444" stroke="none" font-family="helvetica" font-size="10pt" font-style="normal" font-weight="normal" text-decoration="normal" x="84.36060523986816" y="306" text-anchor="start" dominant-baseline="alphabetic" transform="matrix(1, 0, 0, 1, 0.5, 0.5)">2025</text><text fill="none" stroke="rgb(0,0,0)" font-family="helvetica" font-size="10pt" font-style="normal" font-weight="normal" text-decoration="normal" x="84.36060523986816" y="306" text-anchor="start" dominant-baseline="alphabetic" transform="matrix(1, 0, 0, 1, 0.5, 0.5)" stroke-opacity="0" stroke-linejoin="bevel" stroke-miterlimit="10">2025</text><text fill="#444444" stroke="none" font-family="helvetica" font-size="10pt" font-style="normal" font-weight="normal" text-decoration="normal" x="203.97783088684082" y="306" text-anchor="start" dominant-baseline="alphabetic" transform="matrix(1, 0, 0, 1, 0.5, 0.5)">2030</text><text fill="none" stroke="rgb(0,0,0)" font-family="helvetica" font-size="10pt" font-style="normal" font-weight="normal" text-decoration="normal" x="203.97783088684082" y="306" text-anchor="start" dominant-baseline="alphabetic" transform="matrix(1, 0, 0, 1, 0.5, 0.5)" stroke-opacity="0" stroke-linejoin="bevel" stroke-miterlimit="10">2030</text><text fill="#444444" stroke="none" font-family="helvetica" font-size="10pt" font-style="normal" font-weight="normal" text-decoration="normal" x="323.595064163208" y="306" text-anchor="start" dominant-baseline="alphabetic" transform="matrix(1, 0, 0, 1, 0.5, 0.5)">2035</text><text fill="none" stroke="rgb(0,0,0)" font-family="helvetica" font-size="10pt" font-style="normal" font-weight="normal" text-decoration="normal" x="323.595064163208" y="306" text-anchor="start" dominant-baseline="alphabetic" transform="matrix(1, 0, 0, 1, 0.5, 0.5)" stroke-opacity="0" stroke-linejoin="bevel" stroke-miterlimit="10">2035</text><text fill="#444444" stroke="none" font-family="helvetica" font-size="10pt" font-style="normal" font-weight="normal" text-decoration="normal" x="443.21228218078613" y="306" text-anchor="start" dominant-baseline="alphabetic" transform="matrix(1, 0, 0, 1, 0.5, 0.5)">2040</text><text fill="none" stroke="rgb(0,0,0)" font-family="helvetica" font-size="10pt" font-style="normal" font-weight="normal" text-decoration="normal" x="443.21228218078613" y="306" text-anchor="start" dominant-baseline="alphabetic" transform="matrix(1, 0, 0, 1, 0.5, 0.5)" stroke-opacity="0" stroke-linejoin="bevel" stroke-miterlimit="10">2040</text><text fill="#444444" stroke="none" font-family="helvetica" font-size="12pt" font-style="normal" font-weight="normal" text-decoration="normal" x="310.3166666030884" y="329" text-anchor="start" dominant-baseline="alphabetic" transform="matrix(1, 0, 0, 1, 0.5, 0.5)">Year</text><text fill="none" stroke="rgb(0,0,0)" font-family="helvetica" font-size="12pt" font-style="normal" font-weight="normal" text-decoration="normal" x="310.3166666030884" y="329" text-anchor="start" dominant-baseline="alphabetic" transform="matrix(1, 0, 0, 1, 0.5, 0.5)" stroke-opacity="0" stroke-linejoin="bevel" stroke-miterlimit="10">Year</text><path fill="none" stroke="black" paint-order="fill" d="M 75.5 285.5 L 75.5 35.5" stroke-linejoin="bevel" stroke-miterlimit="10"/><path fill="none" stroke="black" paint-order="fill" d="M 69.5 285.5 L 77.5 285.5 M 69.5 249.5 L 77.5 249.5 M 69.5 212.5 L 77.5 212.5 M 69.5 176.5 L 77.5 176.5 M 69.5 140.5 L 77.5 140.5 M 69.5 103.5 L 77.5 103.5 M 69.5 67.5 L 77.5 67.5" stroke-linejoin="bevel" stroke-miterlimit="10"/><path fill="none" stroke="black" paint-order="fill" d="M 71.5 285.5 L 75.5 285.5 M 71.5 278.5 L 75.5 278.5 M 71.5 270.5 L 75.5 270.5 M 71.5 263.5 L 75.5 263.5 M 71.5 256.5 L 75.5 256.5 M 71.5 249.5 L 75.5 249.5 M 71.5 241.5 L 75.5 241.5 M 71.5 234.5 L 75.5 234.5 M 71.5 227.5 L 75.5 227.5 M 71.5 220.5 L 75.5 220.5 M 71.5 212.5 L 75.5 212.5 M 71.5 205.5 L 75.5 205.5 M 71.5 198.5 L 75.5 198.5 M 71.5 190.5 L 75.5 190.5 M 71.5 183.5 L 75.5 183.5 M 71.5 176.5 L 75.5 176.5 M 71.5 169.5 L 75.5 169.5 M 71.5 161.5 L 75.5 161.5 M 71.5 154.5 L 75.5 154.5 M 71.5 147.5 L 75.5 147.5 M 71.5 140.5 L 75.5 140.5 M 71.5 132.5 L 75.5 132.5 M 71.5 125.5 L 75.5 125.5 M 71.5 118.5 L 75.5 118.5 M 71.5 110.5 L 75.5 110.5 M 71.5 103.5 L 75.5 103.5 M 71.5 96.5 L 75.5 96.5 M 71.5 89.5 L 75.5 89.5 M 71.5 81.5 L 75.5 81.5 M 71.5 74.5 L 75.5 74.5 M 71.5 67.5 L 75.5 67.5 M 71.5 60.5 L 75.5 60.5 M 71.5 52.5 L 75.5 52.5 M 71.5 45.5 L 75.5 45.5 M 71.5 38.5 L 75.5 38.5" stroke-linejoin="bevel" stroke-miterlimit="10"/><text fill="#444444" stroke="none" font-family="helvetica" font-size="10pt" font-style="normal" font-weight="normal" text-decoration="normal" x="57.31666660308838" y="290" text-anchor="start" dominant-baseline="alphabetic" transform="matrix(1, 0, 0, 1, 0.5, 0.5)">0</text><text fill="none" stroke="rgb(0,0,0)" font-family="helvetica" font-size="10pt" font-style="normal" font-weight="normal" text-decoration="normal" x="57.31666660308838" y="290" text-anchor="start" dominant-baseline="alphabetic" transform="matrix(1, 0, 0, 1, 0.5, 0.5)" stroke-opacity="0" stroke-linejoin="bevel" stroke-miterlimit="10">0</text><text fill="#444444" stroke="none" font-family="helvetica" font-size="10pt" font-style="normal" font-weight="normal" text-decoration="normal" x="50.63333320617676" y="253.63636779785156" text-anchor="start" dominant-baseline="alphabetic" transform="matrix(1, 0, 0, 1, 0.5, 0.5)">20</text><text fill="none" stroke="rgb(0,0,0)" font-family="helvetica" font-size="10pt" font-style="normal" font-weight="normal" text-decoration="normal" x="50.63333320617676" y="253.63636779785156" text-anchor="start" dominant-baseline="alphabetic" transform="matrix(1, 0, 0, 1, 0.5, 0.5)" stroke-opacity="0" stroke-linejoin="bevel" stroke-miterlimit="10">20</text><text fill="#444444" stroke="none" font-family="helvetica" font-size="10pt" font-style="normal" font-weight="normal" text-decoration="normal" x="50.63333320617676" y="217.27272033691406" text-anchor="start" dominant-baseline="alphabetic" transform="matrix(1, 0, 0, 1, 0.5, 0.5)">40</text><text fill="none" stroke="rgb(0,0,0)" font-family="helvetica" font-size="10pt" font-style="normal" font-weight="normal" text-decoration="normal" x="50.63333320617676" y="217.27272033691406" text-anchor="start" dominant-baseline="alphabetic" transform="matrix(1, 0, 0, 1, 0.5, 0.5)" stroke-opacity="0" stroke-linejoin="bevel" stroke-miterlimit="10">40</text><text fill="#444444" stroke="none" font-family="helvetica" font-size="10pt" font-style="normal" font-weight="normal" text-decoration="normal" x="50.63333320617676" y="180.90908813476562" text-anchor="start" dominant-baseline="alphabetic" transform="matrix(1, 0, 0, 1, 0.5, 0.5)">60</text><text fill="none" stroke="rgb(0,0,0)" font-family="helvetica" font-size="10pt" font-style="normal" font-weight="normal" text-decoration="normal" x="50.63333320617676" y="180.90908813476562" text-anchor="start" dominant-baseline="alphabetic" transform="matrix(1, 0, 0, 1, 0.5, 0.5)" stroke-opacity="0" stroke-linejoin="bevel" stroke-miterlimit="10">60</text><text fill="#444444" stroke="none" font-family="helvetica" font-size="10pt" font-style="normal" font-weight="normal" text-decoration="normal" x="50.63333320617676" y="144.5454559326172" text-anchor="start" dominant-baseline="alphabetic" transform="matrix(1, 0, 0, 1, 0.5, 0.5)">80</text><text fill="none" stroke="rgb(0,0,0)" font-family="helvetica" font-size="10pt" font-style="normal" font-weight="normal" text-decoration="normal" x="50.63333320617676" y="144.5454559326172" text-anchor="start" dominant-baseline="alphabetic" transform="matrix(1, 0, 0, 1, 0.5, 0.5)" stroke-opacity="0" stroke-linejoin="bevel" stroke-miterlimit="10">80</text><text fill="#444444" stroke="none" font-family="helvetica" font-size="10pt" font-style="normal" font-weight="normal" text-decoration="normal" x="43.95000076293945" y="108.18181610107422" text-anchor="start" dominant-baseline="alphabetic" transform="matrix(1, 0, 0, 1, 0.5, 0.5)">100</text><text fill="none" stroke="rgb(0,0,0)" font-family="helvetica" font-size="10pt" font-style="normal" font-weight="normal" text-decoration="normal" x="43.95000076293945" y="108.18181610107422" text-anchor="start" dominant-baseline="alphabetic" transform="matrix(1, 0, 0, 1, 0.5, 0.5)" stroke-opacity="0" stroke-linejoin="bevel" stroke-miterlimit="10">100</text><text fill="#444444" stroke="none" font-family="helvetica" font-size="10pt" font-style="normal" font-weight="normal" text-decoration="normal" x="43.95000076293945" y="71.81818389892578" text-anchor="start" dominant-baseline="alphabetic" transform="matrix(1, 0, 0, 1, 0.5, 0.5)">120</text><text fill="none" stroke="rgb(0,0,0)" font-family="helvetica" font-size="10pt" font-style="normal" font-weight="normal" text-decoration="normal" x="43.95000076293945" y="71.81818389892578" text-anchor="start" dominant-baseline="alphabetic" transform="matrix(1, 0, 0, 1, 0.5, 0.5)" stroke-opacity="0" stroke-linejoin="bevel" stroke-miterlimit="10">120</text><text fill="#444444" stroke="none" font-family="helvetica" font-size="12pt" font-style="normal" font-weight="normal" text-decoration="normal" x="-60.25833511352539" y="156" text-anchor="start" dominant-baseline="alphabetic" transform="matrix(6.123233995736766e-17, -1, 1, 6.123233995736766e-17, -123.54999923706055, 196.45000076293945)">Days suitable for transmission</text><text fill="none" stroke="rgb(0,0,0)" font-family="helvetica" font-size="12pt" font-style="normal" font-weight="normal" text-decoration="normal" x="-60.25833511352539" y="156" text-anchor="start" dominant-baseline="alphabetic" transform="matrix(6.123233995736766e-17, -1, 1, 6.123233995736766e-17, -123.54999923706055, 196.45000076293945)" stroke-opacity="0" stroke-linejoin="bevel" stroke-miterlimit="10">Days suitable for transmission</text><path fill="rgb(255,255,255)" stroke="rgb(229,229,229)" paint-order="fill" d="M 482.0333251953125 210.5 L 565.4999847412109 210.5 L 565.4999847412109 275.5 L 482.0333251953125 275.5 L 482.0333251953125 210.5 Z" fill-opacity="0.9490196078431372" clip-path="url(#elMUJcLJkQhc)" stroke-opacity="0.5019607843137255" stroke-linejoin="bevel" stroke-miterlimit="10"/><g clip-path="url(#elMUJcLJkQhc)"><g transform="matrix(1, 0, 0, 1, 492.5333251953125, 221)"><path fill="none" stroke="#30a2da" paint-order="fill" d="M 0.5 10.5 L 20.5 10.5" stroke-linejoin="bevel" stroke-miterlimit="10" stroke-width="2"/></g></g><g clip-path="url(#elMUJcLJkQhc)"><text fill="#444444" stroke="none" font-family="helvetica" font-size="13px" font-style="normal" font-weight="normal" text-decoration="normal" x="517.5333251953125" y="235.5" text-anchor="start" dominant-baseline="alphabetic" transform="matrix(1, 0, 0, 1, 0.5, 0.5)">ID 001</text></g><g clip-path="url(#elMUJcLJkQhc)"><text fill="none" stroke="rgb(0,0,0)" font-family="helvetica" font-size="13px" font-style="normal" font-weight="normal" text-decoration="normal" x="517.5333251953125" y="235.5" text-anchor="start" dominant-baseline="alphabetic" transform="matrix(1, 0, 0, 1, 0.5, 0.5)" stroke-opacity="0" stroke-linejoin="bevel" stroke-miterlimit="10">ID 001</text></g><g clip-path="url(#elMUJcLJkQhc)"><g transform="matrix(1, 0, 0, 1, 492.5333251953125, 244)"><path fill="none" stroke="#fc4f30" paint-order="fill" d="M 0.5 10.5 L 20.5 10.5" stroke-linejoin="bevel" stroke-miterlimit="10" stroke-width="2"/></g></g><g clip-path="url(#elMUJcLJkQhc)"><text fill="#444444" stroke="none" font-family="helvetica" font-size="13px" font-style="normal" font-weight="normal" text-decoration="normal" x="517.5333251953125" y="258.5" text-anchor="start" dominant-baseline="alphabetic" transform="matrix(1, 0, 0, 1, 0.5, 0.5)">ID 006</text></g><g clip-path="url(#elMUJcLJkQhc)"><text fill="none" stroke="rgb(0,0,0)" font-family="helvetica" font-size="13px" font-style="normal" font-weight="normal" text-decoration="normal" x="517.5333251953125" y="258.5" text-anchor="start" dominant-baseline="alphabetic" transform="matrix(1, 0, 0, 1, 0.5, 0.5)" stroke-opacity="0" stroke-linejoin="bevel" stroke-miterlimit="10">ID 006</text></g><text fill="black" stroke="none" font-family="helvetica" font-size="14pt" font-style="normal" font-weight="normal" text-decoration="normal" x="0" y="18" text-anchor="start" dominant-baseline="alphabetic" transform="matrix(1, 0, 0, 1, 5.5, 7.5)">C. London</text><text fill="none" stroke="rgb(0,0,0)" font-family="helvetica" font-size="14pt" font-style="normal" font-weight="normal" text-decoration="normal" x="0" y="18" text-anchor="start" dominant-baseline="alphabetic" transform="matrix(1, 0, 0, 1, 5.5, 7.5)" stroke-opacity="0" stroke-linejoin="bevel" stroke-miterlimit="10">C. London</text></svg>