<svg version="1.1" xmlns="http://www.w3.org/2000/svg" width="605" height="336"><defs><clipPath id="DVvFvbTmCKxw"><path fill="none" stroke="none" d="M 75.5 35.5 L 575.5 35.5 L 575.5 285.5 L 75.5 285.5 L 75.5 35.5 Z"/></clipPath><clipPath id="GavvgVABgTMd"><path fill="none" stroke="none" d="M 75.5 35.5 L 575.5 35.5 L 575.5 285.5 L 75.5 285.5 L 75.5 35.5 Z"/></clipPath><clipPath id="MiDsoOlOEJdi"><path fill="none" stroke="none" d="M 75.5 35.5 L 575.5 35.5 L 575.5 285.5 L 75.5 285.5 L 75.5 35.5 Z"/></clipPath><clipPath id="TGTCkdfzgPzX"><path fill="none" stroke="none" d="M 75.5 35.5 L 575.5 35.5 L 575.5 285.5 L 75.5 285.5 L 75.5 35.5 Z"/></clipPath><clipPath id="JGfuoKTRqKRu"><path fill="none" stroke="none" d="M 75.5 35.5 L 575.5 35.5 L 575.5 285.5 L 75.5 285.5 L 75.5 35.5 Z"/></clipPath><clipPath id="ZzloTgQoFZTh"><path fill="none" stroke="none" d="M 75.5 35.5 L 575.5 35.5 L 575.5 285.5 L 75.5 285.5 L 75.5 35.5 Z"/></clipPath><clipPath id="BsQXfDUQuzAQ"><path fill="none" stroke="none" d="M 75.5 35.5 L 575.5 35.5 L 575.5 285.5 L 75.5 285.5 L 75.5 35.5 Z"/></clipPath><clipPath id="zmutgiBrsVgK"><path fill="none" stroke="none" d="M 75.5 35.5 L 575.5 35.5 L 575.5 285.5 L 75.5 285.5 L 75.5 35.5 Z"/></clipPath><clipPath id="KWBDwgLokeUI"><path fill="none" stroke="none" d="M 75.5 35.5 L 575.5 35.5 L 575.5 285.5 L 75.5 285.5 L 75.5 35.5 Z"/></clipPath><clipPath id="NplFomVZtcMd"><path fill="none" stroke="none" d="M 75.5 35.5 L 575.5 35.5 L 575.5 285.5 L 75.5 285.5 L 75.5 35.5 Z"/></clipPath><clipPath id="MPKDNaRqyqVW"><path fill="none" stroke="none" d="M 75.5 35.5 L 575.5 35.5 L 575.5 285.5 L 75.5 285.5 L 75.5 35.5 Z"/></clipPath><clipPath id="bITNzawDpJPI"><path fill="none" stroke="none" d="M 75.5 35.5 L 575.5 35.5 L 575.5 285.5 L 75.5 285.5 L 75.5 35.5 Z"/></clipPath><clipPath id="ychRumxZNGeM"><path fill="none" stroke="none" d="M 75.5 35.5 L 575.5 35.5 L 575.5 285.5 L 75.5 285.5 L 75.5 35.5 Z"/></clipPath><clipPath id="SMvBGDBsGpzG"><path fill="none" stroke="none" d="M 75.5 35.5 L 575.5 35.5 L 575.5 285.5 L 75.5 285.5 L 75.5 35.5 Z"/></clipPath><clipPath id="bkxvJdtWxadN"><path fill="none" stroke="none" d="M 75.5 35.5 L 575.5 35.5 L 575.5 285.5 L 75.5 285.5 L 75.5 35.5 Z"/></clipPath><clipPath id="knQbCsfaBLQk"><path fill="none" stroke="none" d="M 75.5 35.5 L 575.5 35.5 L 575.5 285.5 L 75.5 285.5 L 75.5 35.5 Z"/></clipPath><clipPath id="DIWTWhMhqrhC"><path fill="none" stroke="none" d="M 75.5 35.5 L 575.5 35.5 L 575.5 285.5 L 75.5 285.5 L 75.5 35.5 Z"/></clipPath><clipPath id="uKWiulnCpFJi"><path fill="none" stroke="none" d="M 75.5 35.5 L 575.5 35.5 L 575.5 285.5 L 75.5 285.5 L 75.5 35.5 Z"/></clipPath><clipPath id="VeknucQMimnw"><path fill="none" stroke="none" d="M 75.5 35.5 L 575.5 35.5 L 575.5 285.5 L 75.5 285.5 L 75.5 35.5 Z"/></clipPath><clipPath id="fhMvdpWzzBvt"><path fill="none" stroke="none" d="M 75.5 35.5 L 575.5 35.5 L 575.5 285.5 L 75.5 285.5 L 75.5 35.5 Z"/></clipPath><clipPath id="vEkLuLSCTxHd"><path fill="none" stroke="none" d="M 75.5 35.5 L 575.5 35.5 L 575.5 285.5 L 75.5 285.5 L 75.5 35.5 Z"/></clipPath><clipPath id="kXTXcLFEIVPf"><path fill="none" stroke="none" d="M 75.5 35.5 L 575.5 35.5 L 575.5 285.5 L 75.5 285.5 L 75.5 35.5 Z"/></clipPath><clipPath id="aiMiTDMEPqkp"><path fill="none" stroke="none" d="M 75.5 35.5 L 575.5 35.5 L 575.5 285.5 L 75.5 285.5 L 75.5 35.5 Z"/></clipPath></defs><path fill="none" stroke="#e5e5e5" paint-order="fill" d="M 75.5 35.5 L 575.5 35.5 L 575.5 285.5 L 75.5 285.5 L 75.5 35.5 Z" stroke-linejoin="bevel" stroke-miterlimit="10"/><path fill="none" stroke="black" paint-order="fill" d="M 337.46172248803487 35.5 L 337.46172248803487 285.5" stroke-linejoin="bevel" stroke-miterlimit="10" stroke-width="3" stroke-dasharray="6" clip-path="url(#MiDsoOlOEJdi)"/><path fill="none" stroke="#9467bd" paint-order="fill" d="M 98.2272720336914 110.5688705444336 L 122.15071868896484 96.79476928710938 L 146.07415771484375 103.68181610107422 L 169.9976043701172 111.94628143310547 L 193.92105102539062 99.5495834350586 L 217.84449768066406 89.90771484375 L 241.7679443359375 92.66253662109375 L 265.6913757324219 99.5495834350586 L 289.6148376464844 78.888427734375 L 313.53826904296875 95.4173583984375" stroke-linejoin="bevel" stroke-miterlimit="10" stroke-width="2" clip-path="url(#TGTCkdfzgPzX)"/><path fill="none" stroke="#9467bd" paint-order="fill" d="M 98.2272720336914 107.43839263916016 L 122.15071868896484 105.3180160522461 L 146.07415771484375 103.19763946533203 L 169.9976043701172 101.07726287841797 L 193.92105102539062 98.9568862915039 L 217.84449768066406 96.83650207519531 L 241.7679443359375 94.71612548828125 L 265.6913757324219 92.59574890136719 L 289.6148376464844 90.47537231445312 L 313.53826904296875 88.35499572753906" stroke-linejoin="bevel" stroke-miterlimit="10" stroke-width="2" stroke-dasharray="6" clip-path="url(#JGfuoKTRqKRu)"/><path fill="none" stroke="#30a2da" paint-order="fill" d="M 313.53826904296875 95.4173583984375 L 337.46173095703125 106.43663787841797 L 361.3851623535156 89.90771484375 L 385.3086242675781 91.28512573242188 L 409.2320556640625 122.96556854248047 L 433.155517578125 98.17217254638672 L 457.0789489746094 77.51101684570312 L 481.00238037109375 105.0592269897461 L 504.92584228515625 63.736915588378906 L 528.8493041992188 95.4173583984375 L 552.772705078125 80.26583862304688" stroke-linejoin="bevel" stroke-miterlimit="10" stroke-width="2" clip-path="url(#ZzloTgQoFZTh)"/><path fill="none" stroke="#30a2da" paint-order="fill" d="M 337.46173095703125 104.23278045654297 L 361.3851623535156 101.7534408569336 L 385.3086242675781 99.27410125732422 L 409.2320556640625 96.79476928710938 L 433.155517578125 94.3154296875 L 457.0789489746094 91.83609008789062 L 481.00238037109375 89.35675048828125 L 504.92584228515625 86.87741088867188 L 528.8493041992188 84.3980712890625 L 552.772705078125 81.91873168945312" stroke-linejoin="bevel" stroke-miterlimit="10" stroke-width="2" stroke-dasharray="6" clip-path="url(#BsQXfDUQuzAQ)"/><path fill="none" stroke="#fc4f30" paint-order="fill" d="M 313.53826904296875 95.4173583984375 L 337.46173095703125 73.3787841796875 L 361.3851623535156 58.227272033691406 L 385.3086242675781 89.90771484375 L 409.2320556640625 113.32369232177734 L 433.155517578125 92.66253662109375 L 457.0789489746094 114.70110321044922 L 481.00238037109375 100.92699432373047 L 504.92584228515625 99.5495834350586 L 528.8493041992188 92.66253662109375 L 552.772705078125 120.21074676513672" stroke-linejoin="bevel" stroke-miterlimit="10" stroke-width="2" clip-path="url(#zmutgiBrsVgK)"/><path fill="none" stroke="#fc4f30" paint-order="fill" d="M 337.46173095703125 76.58439636230469 L 361.3851623535156 80.80010986328125 L 385.3086242675781 85.01581573486328 L 409.2320556640625 89.23152923583984 L 433.155517578125 93.4472427368164 L 457.0789489746094 97.66294860839844 L 481.00238037109375 101.878662109375 L 504.92584228515625 106.09437561035156 L 528.8493041992188 110.3100814819336 L 552.772705078125 114.52579498291016" stroke-linejoin="bevel" stroke-miterlimit="10" stroke-width="2" stroke-dasharray="6" clip-path="url(#KWBDwgLokeUI)"/><path fill="none" stroke="rgb(128,128,128)" paint-order="fill" d="M 98.2272720336914 107.81404876708984 L 122.15071868896484 72.00138092041016 L 146.07415771484375 88.53030395507812 L 169.9976043701172 83.02066040039062 L 193.92105102539062 99.5495834350586 L 217.84449768066406 94.03994750976562 L 241.7679443359375 69.2465591430664 L 265.6913757324219 99.5495834350586 L 289.6148376464844 73.3787841796875 L 313.53826904296875 72.00138092041016" stroke-opacity="0.7490196078431373" stroke-linejoin="bevel" stroke-miterlimit="10" clip-path="url(#NplFomVZtcMd)"/><path fill="none" stroke="grey" paint-order="fill" d="M 313.53826904296875 72.00138092041016 L 337.46173095703125 76.13360595703125 L 361.3851623535156 65.11432647705078 L 385.3086242675781 109.19145965576172 L 409.2320556640625 81.64324951171875 L 433.155517578125 73.3787841796875 L 457.0789489746094 124.34297180175781 L 481.00238037109375 87.15289306640625 L 504.92584228515625 98.17217254638672 L 528.8493041992188 76.13360595703125 L 552.772705078125 99.5495834350586" stroke-linejoin="bevel" stroke-miterlimit="10" stroke-width="0.5" clip-path="url(#MPKDNaRqyqVW)"/><path fill="none" stroke="grey" paint-order="fill" d="M 313.53826904296875 72.00138092041016 L 337.46173095703125 94.03994750976562 L 361.3851623535156 92.66253662109375 L 385.3086242675781 81.64324951171875 L 409.2320556640625 74.75619506835938 L 433.155517578125 76.13360595703125 L 457.0789489746094 85.77548217773438 L 481.00238037109375 99.5495834350586 L 504.92584228515625 136.7396697998047 L 528.8493041992188 105.0592269897461 L 552.772705078125 91.28512573242188" stroke-linejoin="bevel" stroke-miterlimit="10" stroke-width="0.5" clip-path="url(#bITNzawDpJPI)"/><path fill="none" stroke="rgb(128,128,128)" paint-order="fill" d="M 98.2272720336914 91.28512573242188 L 122.15071868896484 95.4173583984375 L 146.07415771484375 105.0592269897461 L 169.9976043701172 84.3980712890625 L 193.92105102539062 84.3980712890625 L 217.84449768066406 84.3980712890625 L 241.7679443359375 91.28512573242188 L 265.6913757324219 83.02066040039062 L 289.6148376464844 84.3980712890625 L 313.53826904296875 127.09779357910156" stroke-opacity="0.7490196078431373" stroke-linejoin="bevel" stroke-miterlimit="10" clip-path="url(#ychRumxZNGeM)"/><path fill="none" stroke="grey" paint-order="fill" d="M 313.53826904296875 127.09779357910156 L 337.46173095703125 91.28512573242188 L 361.3851623535156 91.28512573242188 L 385.3086242675781 78.888427734375 L 409.2320556640625 105.0592269897461 L 433.155517578125 84.3980712890625 L 457.0789489746094 89.90771484375 L 481.00238037109375 117.45592498779297 L 504.92584228515625 113.32369232177734 L 528.8493041992188 96.79476928710938 L 552.772705078125 95.4173583984375" stroke-linejoin="bevel" stroke-miterlimit="10" stroke-width="0.5" clip-path="url(#SMvBGDBsGpzG)"/><path fill="none" stroke="grey" paint-order="fill" d="M 313.53826904296875 127.09779357910156 L 337.46173095703125 95.4173583984375 L 361.3851623535156 100.92699432373047 L 385.3086242675781 81.64324951171875 L 409.2320556640625 98.17217254638672 L 433.155517578125 88.53030395507812 L 457.0789489746094 73.3787841796875 L 481.00238037109375 111.94628143310547 L 504.92584228515625 105.0592269897461 L 528.8493041992188 92.66253662109375 L 552.772705078125 120.21074676513672" stroke-linejoin="bevel" stroke-miterlimit="10" stroke-width="0.5" clip-path="url(#bkxvJdtWxadN)"/><path fill="none" stroke="rgb(128,128,128)" paint-order="fill" d="M 98.2272720336914 67.86914825439453 L 122.15071868896484 125.72038269042969 L 146.07415771484375 102.30440521240234 L 169.9976043701172 103.68181610107422 L 193.92105102539062 96.79476928710938 L 217.84449768066406 111.94628143310547 L 241.7679443359375 74.75619506835938 L 265.6913757324219 80.26583862304688 L 289.6148376464844 106.43663787841797 L 313.53826904296875 95.4173583984375" stroke-opacity="0.7490196078431373" stroke-linejoin="bevel" stroke-miterlimit="10" clip-path="url(#knQbCsfaBLQk)"/><path fill="none" stroke="grey" paint-order="fill" d="M 313.53826904296875 95.4173583984375 L 337.46173095703125 102.30440521240234 L 361.3851623535156 85.77548217773438 L 385.3086242675781 73.3787841796875 L 409.2320556640625 118.83333587646484 L 433.155517578125 100.92699432373047 L 457.0789489746094 85.77548217773438 L 481.00238037109375 76.13360595703125 L 504.92584228515625 117.45592498779297 L 528.8493041992188 106.43663787841797 L 552.772705078125 88.53030395507812" stroke-linejoin="bevel" stroke-miterlimit="10" stroke-width="0.5" clip-path="url(#DIWTWhMhqrhC)"/><path fill="none" stroke="grey" paint-order="fill" d="M 313.53826904296875 95.4173583984375 L 337.46173095703125 87.15289306640625 L 361.3851623535156 118.83333587646484 L 385.3086242675781 128.47520446777344 L 409.2320556640625 116.0785140991211 L 433.155517578125 74.75619506835938 L 457.0789489746094 99.5495834350586 L 481.00238037109375 84.3980712890625 L 504.92584228515625 105.0592269897461 L 528.8493041992188 83.02066040039062 L 552.772705078125 99.5495834350586" stroke-linejoin="bevel" stroke-miterlimit="10" stroke-width="0.5" clip-path="url(#uKWiulnCpFJi)"/><path fill="none" stroke="rgb(128,128,128)" paint-order="fill" d="M 98.2272720336914 99.5495834350586 L 122.15071868896484 85.77548217773438 L 146.07415771484375 106.43663787841797 L 169.9976043701172 107.81404876708984 L 193.92105102539062 117.45592498779297 L 217.84449768066406 91.28512573242188 L 241.7679443359375 78.888427734375 L 265.6913757324219 88.53030395507812 L 289.6148376464844 100.92699432373047 L 313.53826904296875 72.00138092041016" stroke-opacity="0.7490196078431373" stroke-linejoin="bevel" stroke-miterlimit="10" clip-path="url(#VeknucQMimnw)"/><path fill="none" stroke="grey" paint-order="fill" d="M 313.53826904296875 72.00138092041016 L 337.46173095703125 116.0785140991211 L 361.3851623535156 124.34297180175781 L 385.3086242675781 95.4173583984375 L 409.2320556640625 85.77548217773438 L 433.155517578125 88.53030395507812 L 457.0789489746094 67.86914825439453 L 481.00238037109375 80.26583862304688 L 504.92584228515625 87.15289306640625 L 528.8493041992188 88.53030395507812 L 552.772705078125 118.83333587646484" stroke-linejoin="bevel" stroke-miterlimit="10" stroke-width="0.5" clip-path="url(#fhMvdpWzzBvt)"/><path fill="none" stroke="grey" paint-order="fill" d="M 313.53826904296875 72.00138092041016 L 337.46173095703125 81.64324951171875 L 361.3851623535156 99.5495834350586 L 385.3086242675781 111.94628143310547 L 409.2320556640625 94.03994750976562 L 433.155517578125 72.00138092041016 L 457.0789489746094 99.5495834350586 L 481.00238037109375 102.30440521240234 L 504.92584228515625 91.28512573242188 L 528.8493041992188 109.19145965576172 L 552.772705078125 92.66253662109375" stroke-linejoin="bevel" stroke-miterlimit="10" stroke-width="0.5" clip-path="url(#vEkLuLSCTxHd)"/><path fill="none" stroke="black" paint-order="fill" d="M 75.5 285.5 L 575.5 285.5" stroke-linejoin="bevel" stroke-miterlimit="10"/><path fill="none" stroke="black" paint-order="fill" d="M 98.5 291.5 L 98.5 283.5 M 217.5 291.5 L 217.5 283.5 M 337.5 291.5 L 337.5 283.5 M 457.5 291.5 L 457.5 283.5" stroke-linejoin="bevel" stroke-miterlimit="10"/><path fill="none" stroke="black" paint-order="fill" d="M 98.5 289.5 L 98.5 285.5 M 122.5 289.5 L 122.5 285.5 M 146.5 289.5 L 146.5 285.5 M 169.5 289.5 L 169.5 285.5 M 193.5 289.5 L 193.5 285.5 M 217.5 289.5 L 217.5 285.5 M 241.5 289.5 L 241.5 285.5 M 265.5 289.5 L 265.5 285.5 M 289.5 289.5 L 289.5 285.5 M 313.5 289.5 L 313.5 285.5 M 337.5 289.5 L 337.5 285.5 M 361.5 289.5 L 361.5 285.5 M 385.5 289.5 L 385.5 285.5 M 409.5 289.5 L 409.5 285.5 M 433.5 289.5 L 433.5 285.5 M 457.5 289.5 L 457.5 285.5 M 481.5 289.5 L 481.5 285.5 M 504.5 289.5 L 504.5 285.5 M 528.5 289.5 L 528.5 285.5 M 552.5 289.5 L 552.5 285.5" stroke-linejoin="bevel" stroke-miterlimit="10"/><text fill="#444444" stroke="none" font-family="helvetica" font-size="10pt" font-style="normal" font-weight="normal" text-decoration="normal" x="84.36060523986816" y="306" text-anchor="start" dominant-baseline="alphabetic" transform="matrix(1, 0, 0, 1, 0.5, 0.5)">2025</text><text fill="none" stroke="rgb(0,0,0)" font-family="helvetica" font-size="10pt" font-style="normal" font-weight="normal" text-decoration="normal" x="84.36060523986816" y="306" text-anchor="start" dominant-baseline="alphabetic" transform="matrix(1, 0, 0, 1, 0.5, 0.5)" stroke-opacity="0" stroke-linejoin="bevel" stroke-miterlimit="10">2025</text><text fill="#444444" stroke="none" font-family="helvetica" font-size="10pt" font-style="normal" font-weight="normal" text-decoration="normal" x="203.97783088684082" y="306" text-anchor="start" dominant-baseline="alphabetic" transform="matrix(1, 0, 0, 1, 0.5, 0.5)">2030</text><text fill="none" stroke="rgb(0,0,0)" font-family="helvetica" font-size="10pt" font-style="normal" font-weight="normal" text-decoration="normal" x="203.97783088684082" y="306" text-anchor="start" dominant-baseline="alphabetic" transform="matrix(1, 0, 0, 1, 0.5, 0.5)" stroke-opacity="0" stroke-linejoin="bevel" stroke-miterlimit="10">2030</text><text fill="#444444" stroke="none" font-family="helvetica" font-size="10pt" font-style="normal" font-weight="normal" text-decoration="normal" x="323.595064163208" y="306" text-anchor="start" dominant-baseline="alphabetic" transform="matrix(1, 0, 0, 1, 0.5, 0.5)">2035</text><text fill="none" stroke="rgb(0,0,0)" font-family="helvetica" font-size="10pt" font-style="normal" font-weight="normal" text-decoration="normal" x="323.595064163208" y="306" text-anchor="start" dominant-baseline="alphabetic" transform="matrix(1, 0, 0, 1, 0.5, 0.5)" stroke-opacity="0" stroke-linejoin="bevel" stroke-miterlimit="10">2035</text><text fill="#444444" stroke="none" font-family="helvetica" font-size="10pt" font-style="normal" font-weight="normal" text-decoration="normal" x="443.21228218078613" y="306" text-anchor="start" dominant-baseline="alphabetic" transform="matrix(1, 0, 0, 1, 0.5, 0.5)">2040</text><text fill="none" stroke="rgb(0,0,0)" font-family="helvetica" font-size="10pt" font-style="normal" font-weight="normal" text-decoration="normal" x="443.21228218078613" y="306" text-anchor="start" dominant-baseline="alphabetic" transform="matrix(1, 0, 0, 1, 0.5, 0.5)" stroke-opacity="0" stroke-linejoin="bevel" stroke-miterlimit="10">2040</text><text fill="#444444" stroke="none" font-family="helvetica" font-size="12pt" font-style="normal" font-weight="normal" text-decoration="normal" x="310.3166666030884" y="329" text-anchor="start" dominant-baseline="alphabetic" transform="matrix(1, 0, 0, 1, 0.5, 0.5)">Year</text><text fill="none" stroke="rgb(0,0,0)" font-family="helvetica" font-size="12pt" font-style="normal" font-weight="normal" text-decoration="normal" x="310.3166666030884" y="329" text-anchor="start" dominant-baseline="alphabetic" transform="matrix(1, 0, 0, 1, 0.5, 0.5)" stroke-opacity="0" stroke-linejoin="bevel" stroke-miterlimit="10">Year</text><path fill="none" stroke="black" paint-order="fill" d="M 75.5 285.5 L 75.5 35.5" stroke-linejoin="bevel" stroke-miterlimit="10"/><path fill="none" stroke="black" paint-order="fill" d="M 69.5 285.5 L 77.5 285.5 M 69.5 216.5 L 77.5 216.5 M 69.5 147.5 L 77.5 147.5 M 69.5 78.5 L 77.5 78.5" stroke-linejoin="bevel" stroke-miterlimit="10"/><path fill="none" stroke="black" paint-order="fill" d="M 71.5 285.5 L 75.5 285.5 M 71.5 271.5 L 75.5 271.5 M 71.5 257.5 L 75.5 257.5 M 71.5 244.5 L 75.5 244.5 M 71.5 230.5 L 75.5 230.5 M 71.5 216.5 L 75.5 216.5 M 71.5 202.5 L 75.5 202.5 M 71.5 189.5 L 75.5 189.5 M 71.5 175.5 L 75.5 175.5 M 71.5 161.5 L 75.5 161.5 M 71.5 147.5 L 75.5 147.5 M 71.5 133.5 L 75.5 133.5 M 71.5 120.5 L 75.5 120.5 M 71.5 106.5 L 75.5 106.5 M 71.5 92.5 L 75.5 92.5 M 71.5 78.5 L 75.5 78.5 M 71.5 65.5 L 75.5 65.5 M 71.5 51.5 L 75.5 51.5 M 71.5 37.5 L 75.5 37.5" stroke-linejoin="bevel" stroke-miterlimit="10"/><text fill="#444444" stroke="none" font-family="helvetica" font-size="10pt" font-style="normal" font-weight="normal" text-decoration="normal" x="57.31666660308838" y="290" text-anchor="start" dominant-baseline="alphabetic" transform="matrix(1, 0, 0, 1, 0.5, 0.5)">0</text><text fill="none" stroke="rgb(0,0,0)" font-family="helvetica" font-size="10pt" font-style="normal" font-weight="normal" text-decoration="normal" x="57.31666660308838" y="290" text-anchor="start" dominant-baseline="alphabetic" transform="matrix(1, 0, 0, 1, 0.5, 0.5)" stroke-opacity="0" stroke-linejoin="bevel" stroke-miterlimit="10">0</text><text fill="#444444" stroke="none" font-family="helvetica" font-size="10pt" font-style="normal" font-weight="normal" text-decoration="normal" x="50.63333320617676" y="221.1294708251953" text-anchor="start" dominant-baseline="alphabetic" transform="matrix(1, 0, 0, 1, 0.5, 0.5)">50</text><text fill="none" stroke="rgb(0,0,0)" font-family="helvetica" font-size="10pt" font-style="normal" font-weight="normal" text-decoration="normal" x="50.63333320617676" y="221.1294708251953" text-anchor="start" dominant-baseline="alphabetic" transform="matrix(1, 0, 0, 1, 0.5, 0.5)" stroke-opacity="0" stroke-linejoin="bevel" stroke-miterlimit="10">50</text><text fill="#444444" stroke="none" font-family="helvetica" font-size="10pt" font-style="normal" font-weight="normal" text-decoration="normal" x="43.95000076293945" y="152.2589569091797" text-anchor="start" dominant-baseline="alphabetic" transform="matrix(1, 0, 0, 1, 0.5, 0.5)">100</text><text fill="none" stroke="rgb(0,0,0)" font-family="helvetica" font-size="10pt" font-style="normal" font-weight="normal" text-decoration="normal" x="43.95000076293945" y="152.2589569091797" text-anchor="start" dominant-baseline="alphabetic" transform="matrix(1, 0, 0, 1, 0.5, 0.5)" stroke-opacity="0" stroke-linejoin="bevel" stroke-miterlimit="10">100</text><text fill="#444444" stroke="none" font-family="helvetica" font-size="10pt" font-style="normal" font-weight="normal" text-decoration="normal" x="43.95000076293945" y="83.388427734375" text-anchor="start" dominant-baseline="alphabetic" transform="matrix(1, 0, 0, 1, 0.5, 0.5)">150</text><text fill="none" stroke="rgb(0,0,0)" font-family="helvetica" font-size="10pt" font-style="normal" font-weight="normal" text-decoration="normal" x="43.95000076293945" y="83.388427734375" text-anchor="start" dominant-baseline="alphabetic" transform="matrix(1, 0, 0, 1, 0.5, 0.5)" stroke-opacity="0" stroke-linejoin="bevel" stroke-miterlimit="10">150</text><text fill="#444444" stroke="none" font-family="helvetica" font-size="12pt" font-style="normal" font-weight="normal" text-decoration="normal" x="-60.25833511352539" y="156" text-anchor="start" dominant-baseline="alphabetic" transform="matrix(6.123233995736766e-17, -1, 1, 6.123233995736766e-17, -123.54999923706055, 196.45000076293945)">Days suitable for transmission</text><text fill="none" stroke="rgb(0,0,0)" font-family="helvetica" font-size="12pt" font-style="normal" font-weight="normal" text-decoration="normal" x="-60.25833511352539" y="156" text-anchor="start" dominant-baseline="alphabetic" transform="matrix(6.123233995736766e-17, -1, 1, 6.123233995736766e-17, -123.54999923706055, 196.45000076293945)" stroke-opacity="0" stroke-linejoin="bevel" stroke-miterlimit="10">Days suitable for transmission</text><path fill="rgb(255,255,255)" stroke="rgb(229,229,229)" paint-order="fill" d="M 482.0333251953125 210.5 L 565.4999847412109 210.5 L 565.4999847412109 275.5 L 482.0333251953125 275.5 L 482.0333251953125 210.5 Z" fill-opacity="0.9490196078431372" clip-path="url(#kXTXcLFEIVPf)" stroke-opacity="0.5019607843137255" stroke-linejoin="bevel" stroke-miterlimit="10"/><g clip-path="url(#kXTXcLFEIVPf)"><g transform="matrix(1, 0, 0, 1, 492.5333251953125, 221)"><path fill="none" stroke="#30a2da" paint-order="fill" d="M 0.5 10.5 L 20.5 10.5" stroke-linejoin="bevel" stroke-miterlimit="10" stroke-width="2"/></g></g><g clip-path="url(#kXTXcLFEIVPf)"><text fill="#444444" stroke="none" font-family="helvetica" font-size="13px" font-style="normal" font-weight="normal" text-decoration="normal" x="517.5333251953125" y="235.5" text-anchor="start" dominant-baseline="alphabetic" transform="matrix(1, 0, 0, 1, 0.5, 0.5)">ID 001</text></g><g clip-path="url(#kXTXcLFEIVPf)"><text fill="none" stroke="rgb(0,0,0)" font-family="helvetica" font-size="13px" font-style="normal" font-weight="normal" text-decoration="normal" x="517.5333251953125" y="235.5" text-anchor="start" dominant-baseline="alphabetic" transform="matrix(1, 0, 0, 1, 0.5, 0.5)" stroke-opacity="0" stroke-linejoin="bevel" stroke-miterlimit="10">ID 001</text></g><g clip-path="url(#kXTXcLFEIVPf)"><g transform="matrix(1, 0, 0, 1, 492.5333251953125, 244)"><path fill="none" stroke="#fc4f30" paint-order="fill" d="M 0.5 10.5 L 20.5 10.5" stroke-linejoin="bevel" stroke-miterlimit="10" stroke-width="2"/></g></g><g clip-path="url(#kXTXcLFEIVPf)"><text fill="#444444" stroke="none" font-family="helvetica" font-size="13px" font-style="normal" font-weight="normal" text-decoration="normal" x="517.5333251953125" y="258.5" text-anchor="start" dominant-baseline="alphabetic" transform="matrix(1, 0, 0, 1, 0.5, 0.5)">ID 006</text></g><g clip-path="url(#kXTXcLFEIVPf)"><text fill="none" stroke="rgb(0,0,0)" font-family="helvetica" font-size="13px" font-style="normal" font-weight="normal" text-decoration="normal" x="517.5333251953125" y="258.5" text-anchor="start" dominant-baseline="alphabetic" transform="matrix(1, 0, 0, 1, 0.5, 0.5)" stroke-opacity="0" stroke-linejoin="bevel" stroke-miterlimit="10">ID 006</text></g><text fill="black" stroke="none" font-family="helvetica" font-size="14pt" font-style="normal" font-weight="normal" text-decoration="normal" x="0" y="18" text-anchor="start" dominant-baseline="alphabetic" transform="matrix(1, 0, 0, 1, 5.5, 7.5)">C. Santiago de Chile</text><text fill="none" stroke="rgb(0,0,0)" font-family="helvetica" font-size="14pt" font-style="normal" font-weight="normal" text-decoration="normal" x="0" y="18" text-anchor="start" dominant-baseline="alphabetic" transform="matrix(1, 0, 0, 1, 5.5, 7.5)" stroke-opacity="0" stroke-linejoin="bevel" stroke-miterlimit="10">C. Santiago de Chile</text></svg>