<svg version="1.1" xmlns="http://www.w3.org/2000/svg" width="605" height="336"><defs><clipPath id="xdVbVzCChZAT"><path fill="none" stroke="none" d="M 75.5 35.5 L 575.5 35.5 L 575.5 285.5 L 75.5 285.5 L 75.5 35.5 Z"/></clipPath><clipPath id="wGfuSkyQHOoa"><path fill="none" stroke="none" d="M 75.5 35.5 L 575.5 35.5 L 575.5 285.5 L 75.5 285.5 L 75.5 35.5 Z"/></clipPath><clipPath id="IEyspatKttER"><path fill="none" stroke="none" d="M 75.5 35.5 L 575.5 35.5 L 575.5 285.5 L 75.5 285.5 L 75.5 35.5 Z"/></clipPath><clipPath id="dkavFwrFWarV"><path fill="none" stroke="none" d="M 75.5 35.5 L 575.5 35.5 L 575.5 285.5 L 75.5 285.5 L 75.5 35.5 Z"/></clipPath><clipPath id="yMcSoUwTCIZk"><path fill="none" stroke="none" d="M 75.5 35.5 L 575.5 35.5 L 575.5 285.5 L 75.5 285.5 L 75.5 35.5 Z"/></clipPath><clipPath id="kBekBeCeBzLd"><path fill="none" stroke="none" d="M 75.5 35.5 L 575.5 35.5 L 575.5 285.5 L 75.5 285.5 L 75.5 35.5 Z"/></clipPath><clipPath id="NKJuUgCGNSgW"><path fill="none" stroke="none" d="M 75.5 35.5 L 575.5 35.5 L 575.5 285.5 L 75.5 285.5 L 75.5 35.5 Z"/></clipPath><clipPath id="dfITUeRvgNaI"><path fill="none" stroke="none" d="M 75.5 35.5 L 575.5 35.5 L 575.5 285.5 L 75.5 285.5 L 75.5 35.5 Z"/></clipPath><clipPath id="oIResBwHiraJ"><path fill="none" stroke="none" d="M 75.5 35.5 L 575.5 35.5 L 575.5 285.5 L 75.5 285.5 L 75.5 35.5 Z"/></clipPath><clipPath id="RkGKEmDmSUIR"><path fill="none" stroke="none" d="M 75.5 35.5 L 575.5 35.5 L 575.5 285.5 L 75.5 285.5 L 75.5 35.5 Z"/></clipPath><clipPath id="FZtHdcvxTKhJ"><path fill="none" stroke="none" d="M 75.5 35.5 L 575.5 35.5 L 575.5 285.5 L 75.5 285.5 L 75.5 35.5 Z"/></clipPath><clipPath id="uKRoBMRcltlE"><path fill="none" stroke="none" d="M 75.5 35.5 L 575.5 35.5 L 575.5 285.5 L 75.5 285.5 L 75.5 35.5 Z"/></clipPath><clipPath id="LOXhOeTxamfp"><path fill="none" stroke="none" d="M 75.5 35.5 L 575.5 35.5 L 575.5 285.5 L 75.5 285.5 L 75.5 35.5 Z"/></clipPath><clipPath id="tnhzXbyNZeCE"><path fill="none" stroke="none" d="M 75.5 35.5 L 575.5 35.5 L 575.5 285.5 L 75.5 285.5 L 75.5 35.5 Z"/></clipPath><clipPath id="MdhvQfUgTlXq"><path fill="none" stroke="none" d="M 75.5 35.5 L 575.5 35.5 L 575.5 285.5 L 75.5 285.5 L 75.5 35.5 Z"/></clipPath><clipPath id="ceadyTcQUSoa"><path fill="none" stroke="none" d="M 75.5 35.5 L 575.5 35.5 L 575.5 285.5 L 75.5 285.5 L 75.5 35.5 Z"/></clipPath><clipPath id="ZaoUmaJUshwV"><path fill="none" stroke="none" d="M 75.5 35.5 L 575.5 35.5 L 575.5 285.5 L 75.5 285.5 L 75.5 35.5 Z"/></clipPath><clipPath id="GeMHLkSAqXIi"><path fill="none" stroke="none" d="M 75.5 35.5 L 575.5 35.5 L 575.5 285.5 L 75.5 285.5 L 75.5 35.5 Z"/></clipPath><clipPath id="TSBIaXXHaLQm"><path fill="none" stroke="none" d="M 75.5 35.5 L 575.5 35.5 L 575.5 285.5 L 75.5 285.5 L 75.5 35.5 Z"/></clipPath><clipPath id="JtziRWJPnNGX"><path fill="none" stroke="none" d="M 75.5 35.5 L 575.5 35.5 L 575.5 285.5 L 75.5 285.5 L 75.5 35.5 Z"/></clipPath><clipPath id="ysFwubIyQigD"><path fill="none" stroke="none" d="M 75.5 35.5 L 575.5 35.5 L 575.5 285.5 L 75.5 285.5 L 75.5 35.5 Z"/></clipPath><clipPath id="aCfkKCMUInZZ"><path fill="none" stroke="none" d="M 75.5 35.5 L 575.5 35.5 L 575.5 285.5 L 75.5 285.5 L 75.5 35.5 Z"/></clipPath><clipPath id="ImPlanOuhmCI"><path fill="none" stroke="none" d="M 75.5 35.5 L 575.5 35.5 L 575.5 285.5 L 75.5 285.5 L 75.5 35.5 Z"/></clipPath></defs><path fill="none" stroke="#e5e5e5" paint-order="fill" d="M 75.5 35.5 L 575.5 35.5 L 575.5 285.5 L 75.5 285.5 L 75.5 35.5 Z" stroke-linejoin="bevel" stroke-miterlimit="10"/><path fill="none" stroke="black" paint-order="fill" d="M 337.46172248803487 35.5 L 337.46172248803487 285.5" stroke-linejoin="bevel" stroke-miterlimit="10" stroke-width="3" stroke-dasharray="6" clip-path="url(#IEyspatKttER)"/><path fill="none" stroke="#9467bd" paint-order="fill" d="M 98.2272720336914 71.51398468017578 L 122.15071868896484 118.36713409423828 L 146.07415771484375 126.05944061279297 L 169.9976043701172 104.38111877441406 L 193.92105102539062 75.70979309082031 L 217.84449768066406 124.66084289550781 L 241.7679443359375 99.48601531982422 L 265.6913757324219 92.49300384521484 L 289.6148376464844 107.1783218383789 L 313.53826904296875 100.18531799316406" stroke-linejoin="bevel" stroke-miterlimit="10" stroke-width="2" clip-path="url(#dkavFwrFWarV)"/><path fill="none" stroke="#9467bd" paint-order="fill" d="M 98.2272720336914 100.74475860595703 L 122.15071868896484 101.02447509765625 L 146.07415771484375 101.30419921875 L 169.9976043701172 101.58391571044922 L 193.92105102539062 101.86363983154297 L 217.84449768066406 102.14335632324219 L 241.7679443359375 102.42308044433594 L 265.6913757324219 102.70279693603516 L 289.6148376464844 102.9825210571289 L 313.53826904296875 103.26223754882812" stroke-linejoin="bevel" stroke-miterlimit="10" stroke-width="2" stroke-dasharray="6" clip-path="url(#yMcSoUwTCIZk)"/><path fill="none" stroke="#30a2da" paint-order="fill" d="M 313.53826904296875 100.18531799316406 L 337.46173095703125 77.80769348144531 L 361.3851623535156 133.0524444580078 L 385.3086242675781 100.18531799316406 L 409.2320556640625 79.90559387207031 L 433.155517578125 87.597900390625 L 457.0789489746094 104.38111877441406 L 481.00238037109375 108.57691955566406 L 504.92584228515625 120.46503448486328 L 528.8493041992188 93.89160919189453 L 552.772705078125 102.9825210571289" stroke-linejoin="bevel" stroke-miterlimit="10" stroke-width="2" clip-path="url(#kBekBeCeBzLd)"/><path fill="none" stroke="#30a2da" paint-order="fill" d="M 337.46173095703125 96.6125259399414 L 361.3851623535156 97.56187438964844 L 385.3086242675781 98.51123046875 L 409.2320556640625 99.46058654785156 L 433.155517578125 100.4099349975586 L 457.0789489746094 101.35929107666016 L 481.00238037109375 102.30864715576172 L 504.92584228515625 103.25800323486328 L 528.8493041992188 104.20735168457031 L 552.772705078125 105.15670776367188" stroke-linejoin="bevel" stroke-miterlimit="10" stroke-width="2" stroke-dasharray="6" clip-path="url(#NKJuUgCGNSgW)"/><path fill="none" stroke="#fc4f30" paint-order="fill" d="M 313.53826904296875 100.18531799316406 L 337.46173095703125 80.60489654541016 L 361.3851623535156 93.19230651855469 L 385.3086242675781 82.70279693603516 L 409.2320556640625 97.38811492919922 L 433.155517578125 95.29020690917969 L 457.0789489746094 102.28321838378906 L 481.00238037109375 121.16433715820312 L 504.92584228515625 154.73077392578125 L 528.8493041992188 123.26223754882812 L 552.772705078125 117.66783142089844" stroke-linejoin="bevel" stroke-miterlimit="10" stroke-width="2" clip-path="url(#dfITUeRvgNaI)"/><path fill="none" stroke="#fc4f30" paint-order="fill" d="M 337.46173095703125 80.0327377319336 L 361.3851623535156 85.98738861083984 L 385.3086242675781 91.9420394897461 L 409.2320556640625 97.89669799804688 L 433.155517578125 103.85134887695312 L 457.0789489746094 109.80599975585938 L 481.00238037109375 115.76065063476562 L 504.92584228515625 121.71530151367188 L 528.8493041992188 127.66995239257812 L 552.772705078125 133.62460327148438" stroke-linejoin="bevel" stroke-miterlimit="10" stroke-width="2" stroke-dasharray="6" clip-path="url(#oIResBwHiraJ)"/><path fill="none" stroke="rgb(128,128,128)" paint-order="fill" d="M 98.2272720336914 102.28321838378906 L 122.15071868896484 95.98950958251953 L 146.07415771484375 102.9825210571289 L 169.9976043701172 86.89859771728516 L 193.92105102539062 96.68881225585938 L 217.84449768066406 90.39510345458984 L 241.7679443359375 60.32517623901367 L 265.6913757324219 102.28321838378906 L 289.6148376464844 119.76573181152344 L 313.53826904296875 83.402099609375" stroke-opacity="0.7490196078431373" stroke-linejoin="bevel" stroke-miterlimit="10" clip-path="url(#RkGKEmDmSUIR)"/><path fill="none" stroke="grey" paint-order="fill" d="M 313.53826904296875 83.402099609375 L 337.46173095703125 61.02447509765625 L 361.3851623535156 111.3741226196289 L 385.3086242675781 116.9685287475586 L 409.2320556640625 95.29020690917969 L 433.155517578125 107.87762451171875 L 457.0789489746094 107.1783218383789 L 481.00238037109375 94.59091186523438 L 504.92584228515625 112.7727279663086 L 528.8493041992188 125.36013793945312 L 552.772705078125 121.86363983154297" stroke-linejoin="bevel" stroke-miterlimit="10" stroke-width="0.5" clip-path="url(#FZtHdcvxTKhJ)"/><path fill="none" stroke="grey" paint-order="fill" d="M 313.53826904296875 83.402099609375 L 337.46173095703125 77.80769348144531 L 361.3851623535156 128.8566436767578 L 385.3086242675781 128.15734100341797 L 409.2320556640625 91.09440612792969 L 433.155517578125 86.89859771728516 L 457.0789489746094 144.2412567138672 L 481.00238037109375 114.8706283569336 L 504.92584228515625 98.08740997314453 L 528.8493041992188 151.23426818847656 L 552.772705078125 126.05944061279297" stroke-linejoin="bevel" stroke-miterlimit="10" stroke-width="0.5" clip-path="url(#uKRoBMRcltlE)"/><path fill="none" stroke="rgb(128,128,128)" paint-order="fill" d="M 98.2272720336914 113.47203063964844 L 122.15071868896484 133.0524444580078 L 146.07415771484375 121.86363983154297 L 169.9976043701172 126.75874328613281 L 193.92105102539062 151.23426818847656 L 217.84449768066406 135.1503448486328 L 241.7679443359375 88.99650573730469 L 265.6913757324219 115.56993103027344 L 289.6148376464844 98.78671264648438 L 313.53826904296875 95.29020690917969" stroke-opacity="0.7490196078431373" stroke-linejoin="bevel" stroke-miterlimit="10" clip-path="url(#LOXhOeTxamfp)"/><path fill="none" stroke="grey" paint-order="fill" d="M 313.53826904296875 95.29020690917969 L 337.46173095703125 109.2762222290039 L 361.3851623535156 92.49300384521484 L 385.3086242675781 84.80069732666016 L 409.2320556640625 156.12936401367188 L 433.155517578125 80.60489654541016 L 457.0789489746094 75.70979309082031 L 481.00238037109375 84.10140228271484 L 504.92584228515625 76.40908813476562 L 528.8493041992188 156.12936401367188 L 552.772705078125 91.09440612792969" stroke-linejoin="bevel" stroke-miterlimit="10" stroke-width="0.5" clip-path="url(#tnhzXbyNZeCE)"/><path fill="none" stroke="grey" paint-order="fill" d="M 313.53826904296875 95.29020690917969 L 337.46173095703125 85.5 L 361.3851623535156 119.76573181152344 L 385.3086242675781 58.227272033691406 L 409.2320556640625 75.70979309082031 L 433.155517578125 75.01049041748047 L 457.0789489746094 100.18531799316406 L 481.00238037109375 91.79370880126953 L 504.92584228515625 116.9685287475586 L 528.8493041992188 77.80769348144531 L 552.772705078125 136.5489501953125" stroke-linejoin="bevel" stroke-miterlimit="10" stroke-width="0.5" clip-path="url(#MdhvQfUgTlXq)"/><path fill="none" stroke="rgb(128,128,128)" paint-order="fill" d="M 98.2272720336914 124.66084289550781 L 122.15071868896484 137.9475555419922 L 146.07415771484375 110.6748275756836 L 169.9976043701172 71.51398468017578 L 193.92105102539062 88.29720306396484 L 217.84449768066406 86.89859771728516 L 241.7679443359375 96.68881225585938 L 265.6913757324219 106.47901916503906 L 289.6148376464844 79.90559387207031 L 313.53826904296875 91.79370880126953" stroke-opacity="0.7490196078431373" stroke-linejoin="bevel" stroke-miterlimit="10" clip-path="url(#ceadyTcQUSoa)"/><path fill="none" stroke="grey" paint-order="fill" d="M 313.53826904296875 91.79370880126953 L 337.46173095703125 81.30419921875 L 361.3851623535156 106.47901916503906 L 385.3086242675781 123.26223754882812 L 409.2320556640625 119.06643676757812 L 433.155517578125 99.48601531982422 L 457.0789489746094 113.47203063964844 L 481.00238037109375 149.13636779785156 L 504.92584228515625 88.29720306396484 L 528.8493041992188 99.48601531982422 L 552.772705078125 141.44406127929688" stroke-linejoin="bevel" stroke-miterlimit="10" stroke-width="0.5" clip-path="url(#ZaoUmaJUshwV)"/><path fill="none" stroke="grey" paint-order="fill" d="M 313.53826904296875 91.79370880126953 L 337.46173095703125 65.22028350830078 L 361.3851623535156 105.77971649169922 L 385.3086242675781 79.90559387207031 L 409.2320556640625 137.9475555419922 L 433.155517578125 130.9545440673828 L 457.0789489746094 74.31118774414062 L 481.00238037109375 99.48601531982422 L 504.92584228515625 84.10140228271484 L 528.8493041992188 103.68181610107422 L 552.772705078125 76.40908813476562" stroke-linejoin="bevel" stroke-miterlimit="10" stroke-width="0.5" clip-path="url(#GeMHLkSAqXIi)"/><path fill="none" stroke="rgb(128,128,128)" paint-order="fill" d="M 98.2272720336914 110.6748275756836 L 122.15071868896484 114.8706283569336 L 146.07415771484375 147.73776245117188 L 169.9976043701172 119.76573181152344 L 193.92105102539062 105.77971649169922 L 217.84449768066406 123.26223754882812 L 241.7679443359375 111.3741226196289 L 265.6913757324219 82.70279693603516 L 289.6148376464844 104.38111877441406 L 313.53826904296875 97.38811492919922" stroke-opacity="0.7490196078431373" stroke-linejoin="bevel" stroke-miterlimit="10" clip-path="url(#TSBIaXXHaLQm)"/><path fill="none" stroke="grey" paint-order="fill" d="M 313.53826904296875 97.38811492919922 L 337.46173095703125 85.5 L 361.3851623535156 89.69580078125 L 385.3086242675781 132.3531494140625 L 409.2320556640625 86.19930267333984 L 433.155517578125 82.70279693603516 L 457.0789489746094 135.1503448486328 L 481.00238037109375 107.87762451171875 L 504.92584228515625 93.89160919189453 L 528.8493041992188 127.45803833007812 L 552.772705078125 132.3531494140625" stroke-linejoin="bevel" stroke-miterlimit="10" stroke-width="0.5" clip-path="url(#JtziRWJPnNGX)"/><path fill="none" stroke="grey" paint-order="fill" d="M 313.53826904296875 97.38811492919922 L 337.46173095703125 98.08740997314453 L 361.3851623535156 95.98950958251953 L 385.3086242675781 112.7727279663086 L 409.2320556640625 107.87762451171875 L 433.155517578125 121.16433715820312 L 457.0789489746094 80.60489654541016 L 481.00238037109375 121.16433715820312 L 504.92584228515625 112.07342529296875 L 528.8493041992188 105.0804214477539 L 552.772705078125 98.78671264648438" stroke-linejoin="bevel" stroke-miterlimit="10" stroke-width="0.5" clip-path="url(#ysFwubIyQigD)"/><path fill="none" stroke="black" paint-order="fill" d="M 75.5 285.5 L 575.5 285.5" stroke-linejoin="bevel" stroke-miterlimit="10"/><path fill="none" stroke="black" paint-order="fill" d="M 98.5 291.5 L 98.5 283.5 M 217.5 291.5 L 217.5 283.5 M 337.5 291.5 L 337.5 283.5 M 457.5 291.5 L 457.5 283.5" stroke-linejoin="bevel" stroke-miterlimit="10"/><path fill="none" stroke="black" paint-order="fill" d="M 98.5 289.5 L 98.5 285.5 M 122.5 289.5 L 122.5 285.5 M 146.5 289.5 L 146.5 285.5 M 169.5 289.5 L 169.5 285.5 M 193.5 289.5 L 193.5 285.5 M 217.5 289.5 L 217.5 285.5 M 241.5 289.5 L 241.5 285.5 M 265.5 289.5 L 265.5 285.5 M 289.5 289.5 L 289.5 285.5 M 313.5 289.5 L 313.5 285.5 M 337.5 289.5 L 337.5 285.5 M 361.5 289.5 L 361.5 285.5 M 385.5 289.5 L 385.5 285.5 M 409.5 289.5 L 409.5 285.5 M 433.5 289.5 L 433.5 285.5 M 457.5 289.5 L 457.5 285.5 M 481.5 289.5 L 481.5 285.5 M 504.5 289.5 L 504.5 285.5 M 528.5 289.5 L 528.5 285.5 M 552.5 289.5 L 552.5 285.5" stroke-linejoin="bevel" stroke-miterlimit="10"/><text fill="#444444" stroke="none" font-family="helvetica" font-size="10pt" font-style="normal" font-weight="normal" text-decoration="normal" x="84.36060523986816" y="306" text-anchor="start" dominant-baseline="alphabetic" transform="matrix(1, 0, 0, 1, 0.5, 0.5)">2025</text><text fill="none" stroke="rgb(0,0,0)" font-family="helvetica" font-size="10pt" font-style="normal" font-weight="normal" text-decoration="normal" x="84.36060523986816" y="306" text-anchor="start" dominant-baseline="alphabetic" transform="matrix(1, 0, 0, 1, 0.5, 0.5)" stroke-opacity="0" stroke-linejoin="bevel" stroke-miterlimit="10">2025</text><text fill="#444444" stroke="none" font-family="helvetica" font-size="10pt" font-style="normal" font-weight="normal" text-decoration="normal" x="203.97783088684082" y="306" text-anchor="start" dominant-baseline="alphabetic" transform="matrix(1, 0, 0, 1, 0.5, 0.5)">2030</text><text fill="none" stroke="rgb(0,0,0)" font-family="helvetica" font-size="10pt" font-style="normal" font-weight="normal" text-decoration="normal" x="203.97783088684082" y="306" text-anchor="start" dominant-baseline="alphabetic" transform="matrix(1, 0, 0, 1, 0.5, 0.5)" stroke-opacity="0" stroke-linejoin="bevel" stroke-miterlimit="10">2030</text><text fill="#444444" stroke="none" font-family="helvetica" font-size="10pt" font-style="normal" font-weight="normal" text-decoration="normal" x="323.595064163208" y="306" text-anchor="start" dominant-baseline="alphabetic" transform="matrix(1, 0, 0, 1, 0.5, 0.5)">2035</text><text fill="none" stroke="rgb(0,0,0)" font-family="helvetica" font-size="10pt" font-style="normal" font-weight="normal" text-decoration="normal" x="323.595064163208" y="306" text-anchor="start" dominant-baseline="alphabetic" transform="matrix(1, 0, 0, 1, 0.5, 0.5)" stroke-opacity="0" stroke-linejoin="bevel" stroke-miterlimit="10">2035</text><text fill="#444444" stroke="none" font-family="helvetica" font-size="10pt" font-style="normal" font-weight="normal" text-decoration="normal" x="443.21228218078613" y="306" text-anchor="start" dominant-baseline="alphabetic" transform="matrix(1, 0, 0, 1, 0.5, 0.5)">2040</text><text fill="none" stroke="rgb(0,0,0)" font-family="helvetica" font-size="10pt" font-style="normal" font-weight="normal" text-decoration="normal" x="443.21228218078613" y="306" text-anchor="start" dominant-baseline="alphabetic" transform="matrix(1, 0, 0, 1, 0.5, 0.5)" stroke-opacity="0" stroke-linejoin="bevel" stroke-miterlimit="10">2040</text><text fill="#444444" stroke="none" font-family="helvetica" font-size="12pt" font-style="normal" font-weight="normal" text-decoration="normal" x="310.3166666030884" y="329" text-anchor="start" dominant-baseline="alphabetic" transform="matrix(1, 0, 0, 1, 0.5, 0.5)">Year</text><text fill="none" stroke="rgb(0,0,0)" font-family="helvetica" font-size="12pt" font-style="normal" font-weight="normal" text-decoration="normal" x="310.3166666030884" y="329" text-anchor="start" dominant-baseline="alphabetic" transform="matrix(1, 0, 0, 1, 0.5, 0.5)" stroke-opacity="0" stroke-linejoin="bevel" stroke-miterlimit="10">Year</text><path fill="none" stroke="black" paint-order="fill" d="M 75.5 285.5 L 75.5 35.5" stroke-linejoin="bevel" stroke-miterlimit="10"/><path fill="none" stroke="black" paint-order="fill" d="M 69.5 285.5 L 77.5 285.5 M 69.5 250.5 L 77.5 250.5 M 69.5 215.5 L 77.5 215.5 M 69.5 180.5 L 77.5 180.5 M 69.5 145.5 L 77.5 145.5 M 69.5 110.5 L 77.5 110.5 M 69.5 75.5 L 77.5 75.5 M 69.5 40.5 L 77.5 40.5" stroke-linejoin="bevel" stroke-miterlimit="10"/><path fill="none" stroke="black" paint-order="fill" d="M 71.5 285.5 L 75.5 285.5 M 71.5 278.5 L 75.5 278.5 M 71.5 271.5 L 75.5 271.5 M 71.5 264.5 L 75.5 264.5 M 71.5 257.5 L 75.5 257.5 M 71.5 250.5 L 75.5 250.5 M 71.5 243.5 L 75.5 243.5 M 71.5 236.5 L 75.5 236.5 M 71.5 229.5 L 75.5 229.5 M 71.5 222.5 L 75.5 222.5 M 71.5 215.5 L 75.5 215.5 M 71.5 208.5 L 75.5 208.5 M 71.5 201.5 L 75.5 201.5 M 71.5 194.5 L 75.5 194.5 M 71.5 187.5 L 75.5 187.5 M 71.5 180.5 L 75.5 180.5 M 71.5 173.5 L 75.5 173.5 M 71.5 166.5 L 75.5 166.5 M 71.5 159.5 L 75.5 159.5 M 71.5 152.5 L 75.5 152.5 M 71.5 145.5 L 75.5 145.5 M 71.5 138.5 L 75.5 138.5 M 71.5 131.5 L 75.5 131.5 M 71.5 124.5 L 75.5 124.5 M 71.5 117.5 L 75.5 117.5 M 71.5 110.5 L 75.5 110.5 M 71.5 103.5 L 75.5 103.5 M 71.5 96.5 L 75.5 96.5 M 71.5 89.5 L 75.5 89.5 M 71.5 82.5 L 75.5 82.5 M 71.5 75.5 L 75.5 75.5 M 71.5 68.5 L 75.5 68.5 M 71.5 61.5 L 75.5 61.5 M 71.5 54.5 L 75.5 54.5 M 71.5 47.5 L 75.5 47.5 M 71.5 40.5 L 75.5 40.5" stroke-linejoin="bevel" stroke-miterlimit="10"/><text fill="#444444" stroke="none" font-family="helvetica" font-size="10pt" font-style="normal" font-weight="normal" text-decoration="normal" x="57.31666660308838" y="290" text-anchor="start" dominant-baseline="alphabetic" transform="matrix(1, 0, 0, 1, 0.5, 0.5)">0</text><text fill="none" stroke="rgb(0,0,0)" font-family="helvetica" font-size="10pt" font-style="normal" font-weight="normal" text-decoration="normal" x="57.31666660308838" y="290" text-anchor="start" dominant-baseline="alphabetic" transform="matrix(1, 0, 0, 1, 0.5, 0.5)" stroke-opacity="0" stroke-linejoin="bevel" stroke-miterlimit="10">0</text><text fill="#444444" stroke="none" font-family="helvetica" font-size="10pt" font-style="normal" font-weight="normal" text-decoration="normal" x="50.63333320617676" y="255.0349578857422" text-anchor="start" dominant-baseline="alphabetic" transform="matrix(1, 0, 0, 1, 0.5, 0.5)">50</text><text fill="none" stroke="rgb(0,0,0)" font-family="helvetica" font-size="10pt" font-style="normal" font-weight="normal" text-decoration="normal" x="50.63333320617676" y="255.0349578857422" text-anchor="start" dominant-baseline="alphabetic" transform="matrix(1, 0, 0, 1, 0.5, 0.5)" stroke-opacity="0" stroke-linejoin="bevel" stroke-miterlimit="10">50</text><text fill="#444444" stroke="none" font-family="helvetica" font-size="10pt" font-style="normal" font-weight="normal" text-decoration="normal" x="43.95000076293945" y="220.06993103027344" text-anchor="start" dominant-baseline="alphabetic" transform="matrix(1, 0, 0, 1, 0.5, 0.5)">100</text><text fill="none" stroke="rgb(0,0,0)" font-family="helvetica" font-size="10pt" font-style="normal" font-weight="normal" text-decoration="normal" x="43.95000076293945" y="220.06993103027344" text-anchor="start" dominant-baseline="alphabetic" transform="matrix(1, 0, 0, 1, 0.5, 0.5)" stroke-opacity="0" stroke-linejoin="bevel" stroke-miterlimit="10">100</text><text fill="#444444" stroke="none" font-family="helvetica" font-size="10pt" font-style="normal" font-weight="normal" text-decoration="normal" x="43.95000076293945" y="185.10488891601562" text-anchor="start" dominant-baseline="alphabetic" transform="matrix(1, 0, 0, 1, 0.5, 0.5)">150</text><text fill="none" stroke="rgb(0,0,0)" font-family="helvetica" font-size="10pt" font-style="normal" font-weight="normal" text-decoration="normal" x="43.95000076293945" y="185.10488891601562" text-anchor="start" dominant-baseline="alphabetic" transform="matrix(1, 0, 0, 1, 0.5, 0.5)" stroke-opacity="0" stroke-linejoin="bevel" stroke-miterlimit="10">150</text><text fill="#444444" stroke="none" font-family="helvetica" font-size="10pt" font-style="normal" font-weight="normal" text-decoration="normal" x="43.95000076293945" y="150.13986206054688" text-anchor="start" dominant-baseline="alphabetic" transform="matrix(1, 0, 0, 1, 0.5, 0.5)">200</text><text fill="none" stroke="rgb(0,0,0)" font-family="helvetica" font-size="10pt" font-style="normal" font-weight="normal" text-decoration="normal" x="43.95000076293945" y="150.13986206054688" text-anchor="start" dominant-baseline="alphabetic" transform="matrix(1, 0, 0, 1, 0.5, 0.5)" stroke-opacity="0" stroke-linejoin="bevel" stroke-miterlimit="10">200</text><text fill="#444444" stroke="none" font-family="helvetica" font-size="10pt" font-style="normal" font-weight="normal" text-decoration="normal" x="43.95000076293945" y="115.1748275756836" text-anchor="start" dominant-baseline="alphabetic" transform="matrix(1, 0, 0, 1, 0.5, 0.5)">250</text><text fill="none" stroke="rgb(0,0,0)" font-family="helvetica" font-size="10pt" font-style="normal" font-weight="normal" text-decoration="normal" x="43.95000076293945" y="115.1748275756836" text-anchor="start" dominant-baseline="alphabetic" transform="matrix(1, 0, 0, 1, 0.5, 0.5)" stroke-opacity="0" stroke-linejoin="bevel" stroke-miterlimit="10">250</text><text fill="#444444" stroke="none" font-family="helvetica" font-size="10pt" font-style="normal" font-weight="normal" text-decoration="normal" x="43.95000076293945" y="80.20979309082031" text-anchor="start" dominant-baseline="alphabetic" transform="matrix(1, 0, 0, 1, 0.5, 0.5)">300</text><text fill="none" stroke="rgb(0,0,0)" font-family="helvetica" font-size="10pt" font-style="normal" font-weight="normal" text-decoration="normal" x="43.95000076293945" y="80.20979309082031" text-anchor="start" dominant-baseline="alphabetic" transform="matrix(1, 0, 0, 1, 0.5, 0.5)" stroke-opacity="0" stroke-linejoin="bevel" stroke-miterlimit="10">300</text><text fill="#444444" stroke="none" font-family="helvetica" font-size="10pt" font-style="normal" font-weight="normal" text-decoration="normal" x="43.95000076293945" y="45.244754791259766" text-anchor="start" dominant-baseline="alphabetic" transform="matrix(1, 0, 0, 1, 0.5, 0.5)">350</text><text fill="none" stroke="rgb(0,0,0)" font-family="helvetica" font-size="10pt" font-style="normal" font-weight="normal" text-decoration="normal" x="43.95000076293945" y="45.244754791259766" text-anchor="start" dominant-baseline="alphabetic" transform="matrix(1, 0, 0, 1, 0.5, 0.5)" stroke-opacity="0" stroke-linejoin="bevel" stroke-miterlimit="10">350</text><text fill="#444444" stroke="none" font-family="helvetica" font-size="12pt" font-style="normal" font-weight="normal" text-decoration="normal" x="-60.25833511352539" y="156" text-anchor="start" dominant-baseline="alphabetic" transform="matrix(6.123233995736766e-17, -1, 1, 6.123233995736766e-17, -123.54999923706055, 196.45000076293945)">Days suitable for transmission</text><text fill="none" stroke="rgb(0,0,0)" font-family="helvetica" font-size="12pt" font-style="normal" font-weight="normal" text-decoration="normal" x="-60.25833511352539" y="156" text-anchor="start" dominant-baseline="alphabetic" transform="matrix(6.123233995736766e-17, -1, 1, 6.123233995736766e-17, -123.54999923706055, 196.45000076293945)" stroke-opacity="0" stroke-linejoin="bevel" stroke-miterlimit="10">Days suitable for transmission</text><path fill="rgb(255,255,255)" stroke="rgb(229,229,229)" paint-order="fill" d="M 482.0333251953125 210.5 L 565.4999847412109 210.5 L 565.4999847412109 275.5 L 482.0333251953125 275.5 L 482.0333251953125 210.5 Z" fill-opacity="0.9490196078431372" clip-path="url(#aCfkKCMUInZZ)" stroke-opacity="0.5019607843137255" stroke-linejoin="bevel" stroke-miterlimit="10"/><g clip-path="url(#aCfkKCMUInZZ)"><g transform="matrix(1, 0, 0, 1, 492.5333251953125, 221)"><path fill="none" stroke="#30a2da" paint-order="fill" d="M 0.5 10.5 L 20.5 10.5" stroke-linejoin="bevel" stroke-miterlimit="10" stroke-width="2"/></g></g><g clip-path="url(#aCfkKCMUInZZ)"><text fill="#444444" stroke="none" font-family="helvetica" font-size="13px" font-style="normal" font-weight="normal" text-decoration="normal" x="517.5333251953125" y="235.5" text-anchor="start" dominant-baseline="alphabetic" transform="matrix(1, 0, 0, 1, 0.5, 0.5)">ID 001</text></g><g clip-path="url(#aCfkKCMUInZZ)"><text fill="none" stroke="rgb(0,0,0)" font-family="helvetica" font-size="13px" font-style="normal" font-weight="normal" text-decoration="normal" x="517.5333251953125" y="235.5" text-anchor="start" dominant-baseline="alphabetic" transform="matrix(1, 0, 0, 1, 0.5, 0.5)" stroke-opacity="0" stroke-linejoin="bevel" stroke-miterlimit="10">ID 001</text></g><g clip-path="url(#aCfkKCMUInZZ)"><g transform="matrix(1, 0, 0, 1, 492.5333251953125, 244)"><path fill="none" stroke="#fc4f30" paint-order="fill" d="M 0.5 10.5 L 20.5 10.5" stroke-linejoin="bevel" stroke-miterlimit="10" stroke-width="2"/></g></g><g clip-path="url(#aCfkKCMUInZZ)"><text fill="#444444" stroke="none" font-family="helvetica" font-size="13px" font-style="normal" font-weight="normal" text-decoration="normal" x="517.5333251953125" y="258.5" text-anchor="start" dominant-baseline="alphabetic" transform="matrix(1, 0, 0, 1, 0.5, 0.5)">ID 006</text></g><g clip-path="url(#aCfkKCMUInZZ)"><text fill="none" stroke="rgb(0,0,0)" font-family="helvetica" font-size="13px" font-style="normal" font-weight="normal" text-decoration="normal" x="517.5333251953125" y="258.5" text-anchor="start" dominant-baseline="alphabetic" transform="matrix(1, 0, 0, 1, 0.5, 0.5)" stroke-opacity="0" stroke-linejoin="bevel" stroke-miterlimit="10">ID 006</text></g><text fill="black" stroke="none" font-family="helvetica" font-size="14pt" font-style="normal" font-weight="normal" text-decoration="normal" x="0" y="18" text-anchor="start" dominant-baseline="alphabetic" transform="matrix(1, 0, 0, 1, 5.5, 7.5)">D. Addis Ababa</text><text fill="none" stroke="rgb(0,0,0)" font-family="helvetica" font-size="14pt" font-style="normal" font-weight="normal" text-decoration="normal" x="0" y="18" text-anchor="start" dominant-baseline="alphabetic" transform="matrix(1, 0, 0, 1, 5.5, 7.5)" stroke-opacity="0" stroke-linejoin="bevel" stroke-miterlimit="10">D. Addis Ababa</text></svg>