<svg version="1.1" xmlns="http://www.w3.org/2000/svg" width="605" height="336"><defs><clipPath id="tyTAwbatTXqT"><path fill="none" stroke="none" d="M 75.5 35.5 L 575.5 35.5 L 575.5 285.5 L 75.5 285.5 L 75.5 35.5 Z"/></clipPath><clipPath id="FJvcSsiRPBdg"><path fill="none" stroke="none" d="M 75.5 35.5 L 575.5 35.5 L 575.5 285.5 L 75.5 285.5 L 75.5 35.5 Z"/></clipPath><clipPath id="lvSIUnMfZvoK"><path fill="none" stroke="none" d="M 75.5 35.5 L 575.5 35.5 L 575.5 285.5 L 75.5 285.5 L 75.5 35.5 Z"/></clipPath><clipPath id="EhQvzrEiXttU"><path fill="none" stroke="none" d="M 75.5 35.5 L 575.5 35.5 L 575.5 285.5 L 75.5 285.5 L 75.5 35.5 Z"/></clipPath><clipPath id="PiusmPCvlGVa"><path fill="none" stroke="none" d="M 75.5 35.5 L 575.5 35.5 L 575.5 285.5 L 75.5 285.5 L 75.5 35.5 Z"/></clipPath><clipPath id="tUTgHKrJQmHi"><path fill="none" stroke="none" d="M 75.5 35.5 L 575.5 35.5 L 575.5 285.5 L 75.5 285.5 L 75.5 35.5 Z"/></clipPath><clipPath id="NzPuPScNdGiS"><path fill="none" stroke="none" d="M 75.5 35.5 L 575.5 35.5 L 575.5 285.5 L 75.5 285.5 L 75.5 35.5 Z"/></clipPath><clipPath id="TluXfGTzExQL"><path fill="none" stroke="none" d="M 75.5 35.5 L 575.5 35.5 L 575.5 285.5 L 75.5 285.5 L 75.5 35.5 Z"/></clipPath><clipPath id="LRLRUdgZSKCn"><path fill="none" stroke="none" d="M 75.5 35.5 L 575.5 35.5 L 575.5 285.5 L 75.5 285.5 L 75.5 35.5 Z"/></clipPath><clipPath id="TDcqevzsLThO"><path fill="none" stroke="none" d="M 75.5 35.5 L 575.5 35.5 L 575.5 285.5 L 75.5 285.5 L 75.5 35.5 Z"/></clipPath><clipPath id="KvAhMyrqTbgh"><path fill="none" stroke="none" d="M 75.5 35.5 L 575.5 35.5 L 575.5 285.5 L 75.5 285.5 L 75.5 35.5 Z"/></clipPath><clipPath id="SrkhImdOhXbV"><path fill="none" stroke="none" d="M 75.5 35.5 L 575.5 35.5 L 575.5 285.5 L 75.5 285.5 L 75.5 35.5 Z"/></clipPath><clipPath id="CWVotEVelsMb"><path fill="none" stroke="none" d="M 75.5 35.5 L 575.5 35.5 L 575.5 285.5 L 75.5 285.5 L 75.5 35.5 Z"/></clipPath><clipPath id="PlAkdsVgkZaa"><path fill="none" stroke="none" d="M 75.5 35.5 L 575.5 35.5 L 575.5 285.5 L 75.5 285.5 L 75.5 35.5 Z"/></clipPath><clipPath id="lHqyxgDMtaMK"><path fill="none" stroke="none" d="M 75.5 35.5 L 575.5 35.5 L 575.5 285.5 L 75.5 285.5 L 75.5 35.5 Z"/></clipPath><clipPath id="JVCbNIvhaOxG"><path fill="none" stroke="none" d="M 75.5 35.5 L 575.5 35.5 L 575.5 285.5 L 75.5 285.5 L 75.5 35.5 Z"/></clipPath><clipPath id="UpdvaIVXfBpK"><path fill="none" stroke="none" d="M 75.5 35.5 L 575.5 35.5 L 575.5 285.5 L 75.5 285.5 L 75.5 35.5 Z"/></clipPath><clipPath id="qaCanHXoPhNF"><path fill="none" stroke="none" d="M 75.5 35.5 L 575.5 35.5 L 575.5 285.5 L 75.5 285.5 L 75.5 35.5 Z"/></clipPath><clipPath id="TAAkTtFGnrQy"><path fill="none" stroke="none" d="M 75.5 35.5 L 575.5 35.5 L 575.5 285.5 L 75.5 285.5 L 75.5 35.5 Z"/></clipPath><clipPath id="gftUqSgZkbWx"><path fill="none" stroke="none" d="M 75.5 35.5 L 575.5 35.5 L 575.5 285.5 L 75.5 285.5 L 75.5 35.5 Z"/></clipPath><clipPath id="JRAGJBTnPlWy"><path fill="none" stroke="none" d="M 75.5 35.5 L 575.5 35.5 L 575.5 285.5 L 75.5 285.5 L 75.5 35.5 Z"/></clipPath><clipPath id="wDwwfzvTudbV"><path fill="none" stroke="none" d="M 75.5 35.5 L 575.5 35.5 L 575.5 285.5 L 75.5 285.5 L 75.5 35.5 Z"/></clipPath><clipPath id="izyTxTngXggH"><path fill="none" stroke="none" d="M 75.5 35.5 L 575.5 35.5 L 575.5 285.5 L 75.5 285.5 L 75.5 35.5 Z"/></clipPath></defs><path fill="none" stroke="#e5e5e5" paint-order="fill" d="M 75.5 35.5 L 575.5 35.5 L 575.5 285.5 L 75.5 285.5 L 75.5 35.5 Z" stroke-linejoin="bevel" stroke-miterlimit="10"/><path fill="none" stroke="black" paint-order="fill" d="M 337.46172248803487 35.5 L 337.46172248803487 285.5" stroke-linejoin="bevel" stroke-miterlimit="10" stroke-width="3" stroke-dasharray="6" clip-path="url(#lvSIUnMfZvoK)"/><path fill="none" stroke="#9467bd" paint-order="fill" d="M 98.2272720336914 109.80690002441406 L 122.15071868896484 100.1357192993164 L 146.07415771484375 104.97130584716797 L 169.9976043701172 111.41876220703125 L 193.92105102539062 92.07640075683594 L 217.84449768066406 119.47808074951172 L 241.7679443359375 137.2085723876953 L 265.6913757324219 125.92552947998047 L 289.6148376464844 154.93907165527344 L 313.53826904296875 116.25434875488281" stroke-linejoin="bevel" stroke-miterlimit="10" stroke-width="2" clip-path="url(#EhQvzrEiXttU)"/><path fill="none" stroke="#9467bd" paint-order="fill" d="M 98.2272720336914 99.461669921875 L 122.15071868896484 103.40828704833984 L 146.07415771484375 107.35491180419922 L 169.9976043701172 111.3015365600586 L 193.92105102539062 115.24816131591797 L 217.84449768066406 119.19477844238281 L 241.7679443359375 123.14140319824219 L 265.6913757324219 127.08802795410156 L 289.6148376464844 131.03465270996094 L 313.53826904296875 134.9812774658203" stroke-linejoin="bevel" stroke-miterlimit="10" stroke-width="2" stroke-dasharray="6" clip-path="url(#PiusmPCvlGVa)"/><path fill="none" stroke="#30a2da" paint-order="fill" d="M 313.53826904296875 116.25434875488281 L 337.46173095703125 93.68826293945312 L 361.3851623535156 85.62895202636719 L 385.3086242675781 100.1357192993164 L 409.2320556640625 84.01708221435547 L 433.155517578125 93.68826293945312 L 457.0789489746094 129.14926147460938 L 481.00238037109375 146.8797607421875 L 504.92584228515625 103.35944366455078 L 528.8493041992188 132.37298583984375 L 552.772705078125 166.2221221923828" stroke-linejoin="bevel" stroke-miterlimit="10" stroke-width="2" clip-path="url(#tUTgHKrJQmHi)"/><path fill="none" stroke="#30a2da" paint-order="fill" d="M 337.46173095703125 80.23653411865234 L 361.3851623535156 87.6315689086914 L 385.3086242675781 95.02660369873047 L 409.2320556640625 102.421630859375 L 433.155517578125 109.81666564941406 L 457.0789489746094 117.21170043945312 L 481.00238037109375 124.60673522949219 L 504.92584228515625 132.00177001953125 L 528.8493041992188 139.3968048095703 L 552.772705078125 146.79183959960938" stroke-linejoin="bevel" stroke-miterlimit="10" stroke-width="2" stroke-dasharray="6" clip-path="url(#NzPuPScNdGiS)"/><path fill="none" stroke="#fc4f30" paint-order="fill" d="M 313.53826904296875 116.25434875488281 L 337.46173095703125 72.73403930664062 L 361.3851623535156 187.17633056640625 L 385.3086242675781 129.14926147460938 L 409.2320556640625 109.80690002441406 L 433.155517578125 130.76112365722656 L 457.0789489746094 106.58317565917969 L 481.00238037109375 138.8204345703125 L 504.92584228515625 117.86621856689453 L 528.8493041992188 133.98484802246094 L 552.772705078125 84.01708221435547" stroke-linejoin="bevel" stroke-miterlimit="10" stroke-width="2" clip-path="url(#TluXfGTzExQL)"/><path fill="none" stroke="#fc4f30" paint-order="fill" d="M 337.46173095703125 128.29936981201172 L 361.3851623535156 126.69727325439453 L 385.3086242675781 125.09517669677734 L 409.2320556640625 123.49308013916016 L 433.155517578125 121.8909912109375 L 457.0789489746094 120.28889465332031 L 481.00238037109375 118.68679809570312 L 504.92584228515625 117.08470916748047 L 528.8493041992188 115.48261260986328 L 552.772705078125 113.8805160522461" stroke-linejoin="bevel" stroke-miterlimit="10" stroke-width="2" stroke-dasharray="6" clip-path="url(#LRLRUdgZSKCn)"/><path fill="none" stroke="rgb(128,128,128)" paint-order="fill" d="M 98.2272720336914 180.7288818359375 L 122.15071868896484 95.30013275146484 L 146.07415771484375 82.40522003173828 L 169.9976043701172 132.37298583984375 L 193.92105102539062 103.35944366455078 L 217.84449768066406 85.62895202636719 L 241.7679443359375 111.41876220703125 L 265.6913757324219 101.7475814819336 L 289.6148376464844 95.30013275146484 L 313.53826904296875 58.227272033691406" stroke-opacity="0.7490196078431373" stroke-linejoin="bevel" stroke-miterlimit="10" clip-path="url(#TDcqevzsLThO)"/><path fill="none" stroke="grey" paint-order="fill" d="M 313.53826904296875 58.227272033691406 L 337.46173095703125 79.1814956665039 L 361.3851623535156 104.97130584716797 L 385.3086242675781 90.46453857421875 L 409.2320556640625 87.24081420898438 L 433.155517578125 75.95777130126953 L 457.0789489746094 88.85267639160156 L 481.00238037109375 80.7933578491211 L 504.92584228515625 95.30013275146484 L 528.8493041992188 114.64248657226562 L 552.772705078125 125.92552947998047" stroke-linejoin="bevel" stroke-miterlimit="10" stroke-width="0.5" clip-path="url(#KvAhMyrqTbgh)"/><path fill="none" stroke="grey" paint-order="fill" d="M 313.53826904296875 58.227272033691406 L 337.46173095703125 90.46453857421875 L 361.3851623535156 71.12217712402344 L 385.3086242675781 111.41876220703125 L 409.2320556640625 124.31366729736328 L 433.155517578125 125.92552947998047 L 457.0789489746094 88.85267639160156 L 481.00238037109375 114.64248657226562 L 504.92584228515625 122.7018051147461 L 528.8493041992188 108.19503784179688 L 552.772705078125 84.01708221435547" stroke-linejoin="bevel" stroke-miterlimit="10" stroke-width="0.5" clip-path="url(#SrkhImdOhXbV)"/><path fill="none" stroke="rgb(128,128,128)" paint-order="fill" d="M 98.2272720336914 130.76112365722656 L 122.15071868896484 116.25434875488281 L 146.07415771484375 95.30013275146484 L 169.9976043701172 79.1814956665039 L 193.92105102539062 124.31366729736328 L 217.84449768066406 88.85267639160156 L 241.7679443359375 85.62895202636719 L 265.6913757324219 92.07640075683594 L 289.6148376464844 119.47808074951172 L 313.53826904296875 63.062862396240234" stroke-opacity="0.7490196078431373" stroke-linejoin="bevel" stroke-miterlimit="10" clip-path="url(#CWVotEVelsMb)"/><path fill="none" stroke="grey" paint-order="fill" d="M 313.53826904296875 63.062862396240234 L 337.46173095703125 100.1357192993164 L 361.3851623535156 96.91199493408203 L 385.3086242675781 92.07640075683594 L 409.2320556640625 87.24081420898438 L 433.155517578125 64.67472839355469 L 457.0789489746094 74.34590911865234 L 481.00238037109375 58.227272033691406 L 504.92584228515625 108.19503784179688 L 528.8493041992188 75.95777130126953 L 552.772705078125 108.19503784179688" stroke-linejoin="bevel" stroke-miterlimit="10" stroke-width="0.5" clip-path="url(#PlAkdsVgkZaa)"/><path fill="none" stroke="grey" paint-order="fill" d="M 313.53826904296875 63.062862396240234 L 337.46173095703125 87.24081420898438 L 361.3851623535156 104.97130584716797 L 385.3086242675781 129.14926147460938 L 409.2320556640625 103.35944366455078 L 433.155517578125 111.41876220703125 L 457.0789489746094 133.98484802246094 L 481.00238037109375 100.1357192993164 L 504.92584228515625 138.8204345703125 L 528.8493041992188 71.12217712402344 L 552.772705078125 88.85267639160156" stroke-linejoin="bevel" stroke-miterlimit="10" stroke-width="0.5" clip-path="url(#lHqyxgDMtaMK)"/><path fill="none" stroke="rgb(128,128,128)" paint-order="fill" d="M 98.2272720336914 106.58317565917969 L 122.15071868896484 84.01708221435547 L 146.07415771484375 80.7933578491211 L 169.9976043701172 119.47808074951172 L 193.92105102539062 150.10348510742188 L 217.84449768066406 108.19503784179688 L 241.7679443359375 138.8204345703125 L 265.6913757324219 63.062862396240234 L 289.6148376464844 92.07640075683594 L 313.53826904296875 80.7933578491211" stroke-opacity="0.7490196078431373" stroke-linejoin="bevel" stroke-miterlimit="10" clip-path="url(#JVCbNIvhaOxG)"/><path fill="none" stroke="grey" paint-order="fill" d="M 313.53826904296875 80.7933578491211 L 337.46173095703125 114.64248657226562 L 361.3851623535156 95.30013275146484 L 385.3086242675781 106.58317565917969 L 409.2320556640625 108.19503784179688 L 433.155517578125 119.47808074951172 L 457.0789489746094 96.91199493408203 L 481.00238037109375 114.64248657226562 L 504.92584228515625 101.7475814819336 L 528.8493041992188 129.14926147460938 L 552.772705078125 96.91199493408203" stroke-linejoin="bevel" stroke-miterlimit="10" stroke-width="0.5" clip-path="url(#UpdvaIVXfBpK)"/><path fill="none" stroke="grey" paint-order="fill" d="M 313.53826904296875 80.7933578491211 L 337.46173095703125 111.41876220703125 L 361.3851623535156 77.56963348388672 L 385.3086242675781 88.85267639160156 L 409.2320556640625 116.25434875488281 L 433.155517578125 132.37298583984375 L 457.0789489746094 93.68826293945312 L 481.00238037109375 113.03062438964844 L 504.92584228515625 104.97130584716797 L 528.8493041992188 96.91199493408203 L 552.772705078125 104.97130584716797" stroke-linejoin="bevel" stroke-miterlimit="10" stroke-width="0.5" clip-path="url(#qaCanHXoPhNF)"/><path fill="none" stroke="rgb(128,128,128)" paint-order="fill" d="M 98.2272720336914 137.2085723876953 L 122.15071868896484 103.35944366455078 L 146.07415771484375 133.98484802246094 L 169.9976043701172 100.1357192993164 L 193.92105102539062 106.58317565917969 L 217.84449768066406 106.58317565917969 L 241.7679443359375 108.19503784179688 L 265.6913757324219 69.51031494140625 L 289.6148376464844 113.03062438964844 L 313.53826904296875 88.85267639160156" stroke-opacity="0.7490196078431373" stroke-linejoin="bevel" stroke-miterlimit="10" clip-path="url(#TAAkTtFGnrQy)"/><path fill="none" stroke="grey" paint-order="fill" d="M 313.53826904296875 88.85267639160156 L 337.46173095703125 85.62895202636719 L 361.3851623535156 85.62895202636719 L 385.3086242675781 79.1814956665039 L 409.2320556640625 79.1814956665039 L 433.155517578125 108.19503784179688 L 457.0789489746094 130.76112365722656 L 481.00238037109375 121.0899429321289 L 504.92584228515625 93.68826293945312 L 528.8493041992188 113.03062438964844 L 552.772705078125 104.97130584716797" stroke-linejoin="bevel" stroke-miterlimit="10" stroke-width="0.5" clip-path="url(#gftUqSgZkbWx)"/><path fill="none" stroke="grey" paint-order="fill" d="M 313.53826904296875 88.85267639160156 L 337.46173095703125 96.91199493408203 L 361.3851623535156 106.58317565917969 L 385.3086242675781 101.7475814819336 L 409.2320556640625 122.7018051147461 L 433.155517578125 109.80690002441406 L 457.0789489746094 100.1357192993164 L 481.00238037109375 129.14926147460938 L 504.92584228515625 121.0899429321289 L 528.8493041992188 92.07640075683594 L 552.772705078125 96.91199493408203" stroke-linejoin="bevel" stroke-miterlimit="10" stroke-width="0.5" clip-path="url(#JRAGJBTnPlWy)"/><path fill="none" stroke="black" paint-order="fill" d="M 75.5 285.5 L 575.5 285.5" stroke-linejoin="bevel" stroke-miterlimit="10"/><path fill="none" stroke="black" paint-order="fill" d="M 98.5 291.5 L 98.5 283.5 M 217.5 291.5 L 217.5 283.5 M 337.5 291.5 L 337.5 283.5 M 457.5 291.5 L 457.5 283.5" stroke-linejoin="bevel" stroke-miterlimit="10"/><path fill="none" stroke="black" paint-order="fill" d="M 98.5 289.5 L 98.5 285.5 M 122.5 289.5 L 122.5 285.5 M 146.5 289.5 L 146.5 285.5 M 169.5 289.5 L 169.5 285.5 M 193.5 289.5 L 193.5 285.5 M 217.5 289.5 L 217.5 285.5 M 241.5 289.5 L 241.5 285.5 M 265.5 289.5 L 265.5 285.5 M 289.5 289.5 L 289.5 285.5 M 313.5 289.5 L 313.5 285.5 M 337.5 289.5 L 337.5 285.5 M 361.5 289.5 L 361.5 285.5 M 385.5 289.5 L 385.5 285.5 M 409.5 289.5 L 409.5 285.5 M 433.5 289.5 L 433.5 285.5 M 457.5 289.5 L 457.5 285.5 M 481.5 289.5 L 481.5 285.5 M 504.5 289.5 L 504.5 285.5 M 528.5 289.5 L 528.5 285.5 M 552.5 289.5 L 552.5 285.5" stroke-linejoin="bevel" stroke-miterlimit="10"/><text fill="#444444" stroke="none" font-family="helvetica" font-size="10pt" font-style="normal" font-weight="normal" text-decoration="normal" x="84.36060523986816" y="306" text-anchor="start" dominant-baseline="alphabetic" transform="matrix(1, 0, 0, 1, 0.5, 0.5)">2025</text><text fill="none" stroke="rgb(0,0,0)" font-family="helvetica" font-size="10pt" font-style="normal" font-weight="normal" text-decoration="normal" x="84.36060523986816" y="306" text-anchor="start" dominant-baseline="alphabetic" transform="matrix(1, 0, 0, 1, 0.5, 0.5)" stroke-opacity="0" stroke-linejoin="bevel" stroke-miterlimit="10">2025</text><text fill="#444444" stroke="none" font-family="helvetica" font-size="10pt" font-style="normal" font-weight="normal" text-decoration="normal" x="203.97783088684082" y="306" text-anchor="start" dominant-baseline="alphabetic" transform="matrix(1, 0, 0, 1, 0.5, 0.5)">2030</text><text fill="none" stroke="rgb(0,0,0)" font-family="helvetica" font-size="10pt" font-style="normal" font-weight="normal" text-decoration="normal" x="203.97783088684082" y="306" text-anchor="start" dominant-baseline="alphabetic" transform="matrix(1, 0, 0, 1, 0.5, 0.5)" stroke-opacity="0" stroke-linejoin="bevel" stroke-miterlimit="10">2030</text><text fill="#444444" stroke="none" font-family="helvetica" font-size="10pt" font-style="normal" font-weight="normal" text-decoration="normal" x="323.595064163208" y="306" text-anchor="start" dominant-baseline="alphabetic" transform="matrix(1, 0, 0, 1, 0.5, 0.5)">2035</text><text fill="none" stroke="rgb(0,0,0)" font-family="helvetica" font-size="10pt" font-style="normal" font-weight="normal" text-decoration="normal" x="323.595064163208" y="306" text-anchor="start" dominant-baseline="alphabetic" transform="matrix(1, 0, 0, 1, 0.5, 0.5)" stroke-opacity="0" stroke-linejoin="bevel" stroke-miterlimit="10">2035</text><text fill="#444444" stroke="none" font-family="helvetica" font-size="10pt" font-style="normal" font-weight="normal" text-decoration="normal" x="443.21228218078613" y="306" text-anchor="start" dominant-baseline="alphabetic" transform="matrix(1, 0, 0, 1, 0.5, 0.5)">2040</text><text fill="none" stroke="rgb(0,0,0)" font-family="helvetica" font-size="10pt" font-style="normal" font-weight="normal" text-decoration="normal" x="443.21228218078613" y="306" text-anchor="start" dominant-baseline="alphabetic" transform="matrix(1, 0, 0, 1, 0.5, 0.5)" stroke-opacity="0" stroke-linejoin="bevel" stroke-miterlimit="10">2040</text><text fill="#444444" stroke="none" font-family="helvetica" font-size="12pt" font-style="normal" font-weight="normal" text-decoration="normal" x="310.3166666030884" y="329" text-anchor="start" dominant-baseline="alphabetic" transform="matrix(1, 0, 0, 1, 0.5, 0.5)">Year</text><text fill="none" stroke="rgb(0,0,0)" font-family="helvetica" font-size="12pt" font-style="normal" font-weight="normal" text-decoration="normal" x="310.3166666030884" y="329" text-anchor="start" dominant-baseline="alphabetic" transform="matrix(1, 0, 0, 1, 0.5, 0.5)" stroke-opacity="0" stroke-linejoin="bevel" stroke-miterlimit="10">Year</text><path fill="none" stroke="black" paint-order="fill" d="M 75.5 285.5 L 75.5 35.5" stroke-linejoin="bevel" stroke-miterlimit="10"/><path fill="none" stroke="black" paint-order="fill" d="M 69.5 285.5 L 77.5 285.5 M 69.5 253.5 L 77.5 253.5 M 69.5 221.5 L 77.5 221.5 M 69.5 188.5 L 77.5 188.5 M 69.5 156.5 L 77.5 156.5 M 69.5 124.5 L 77.5 124.5 M 69.5 92.5 L 77.5 92.5 M 69.5 59.5 L 77.5 59.5" stroke-linejoin="bevel" stroke-miterlimit="10"/><path fill="none" stroke="black" paint-order="fill" d="M 71.5 285.5 L 75.5 285.5 M 71.5 279.5 L 75.5 279.5 M 71.5 272.5 L 75.5 272.5 M 71.5 266.5 L 75.5 266.5 M 71.5 259.5 L 75.5 259.5 M 71.5 253.5 L 75.5 253.5 M 71.5 246.5 L 75.5 246.5 M 71.5 240.5 L 75.5 240.5 M 71.5 233.5 L 75.5 233.5 M 71.5 227.5 L 75.5 227.5 M 71.5 221.5 L 75.5 221.5 M 71.5 214.5 L 75.5 214.5 M 71.5 208.5 L 75.5 208.5 M 71.5 201.5 L 75.5 201.5 M 71.5 195.5 L 75.5 195.5 M 71.5 188.5 L 75.5 188.5 M 71.5 182.5 L 75.5 182.5 M 71.5 175.5 L 75.5 175.5 M 71.5 169.5 L 75.5 169.5 M 71.5 162.5 L 75.5 162.5 M 71.5 156.5 L 75.5 156.5 M 71.5 150.5 L 75.5 150.5 M 71.5 143.5 L 75.5 143.5 M 71.5 137.5 L 75.5 137.5 M 71.5 130.5 L 75.5 130.5 M 71.5 124.5 L 75.5 124.5 M 71.5 117.5 L 75.5 117.5 M 71.5 111.5 L 75.5 111.5 M 71.5 104.5 L 75.5 104.5 M 71.5 98.5 L 75.5 98.5 M 71.5 92.5 L 75.5 92.5 M 71.5 85.5 L 75.5 85.5 M 71.5 79.5 L 75.5 79.5 M 71.5 72.5 L 75.5 72.5 M 71.5 66.5 L 75.5 66.5 M 71.5 59.5 L 75.5 59.5 M 71.5 53.5 L 75.5 53.5 M 71.5 46.5 L 75.5 46.5 M 71.5 40.5 L 75.5 40.5" stroke-linejoin="bevel" stroke-miterlimit="10"/><text fill="#444444" stroke="none" font-family="helvetica" font-size="10pt" font-style="normal" font-weight="normal" text-decoration="normal" x="57.31666660308838" y="290" text-anchor="start" dominant-baseline="alphabetic" transform="matrix(1, 0, 0, 1, 0.5, 0.5)">0</text><text fill="none" stroke="rgb(0,0,0)" font-family="helvetica" font-size="10pt" font-style="normal" font-weight="normal" text-decoration="normal" x="57.31666660308838" y="290" text-anchor="start" dominant-baseline="alphabetic" transform="matrix(1, 0, 0, 1, 0.5, 0.5)" stroke-opacity="0" stroke-linejoin="bevel" stroke-miterlimit="10">0</text><text fill="#444444" stroke="none" font-family="helvetica" font-size="10pt" font-style="normal" font-weight="normal" text-decoration="normal" x="50.63333320617676" y="257.7627410888672" text-anchor="start" dominant-baseline="alphabetic" transform="matrix(1, 0, 0, 1, 0.5, 0.5)">20</text><text fill="none" stroke="rgb(0,0,0)" font-family="helvetica" font-size="10pt" font-style="normal" font-weight="normal" text-decoration="normal" x="50.63333320617676" y="257.7627410888672" text-anchor="start" dominant-baseline="alphabetic" transform="matrix(1, 0, 0, 1, 0.5, 0.5)" stroke-opacity="0" stroke-linejoin="bevel" stroke-miterlimit="10">20</text><text fill="#444444" stroke="none" font-family="helvetica" font-size="10pt" font-style="normal" font-weight="normal" text-decoration="normal" x="50.63333320617676" y="225.5254669189453" text-anchor="start" dominant-baseline="alphabetic" transform="matrix(1, 0, 0, 1, 0.5, 0.5)">40</text><text fill="none" stroke="rgb(0,0,0)" font-family="helvetica" font-size="10pt" font-style="normal" font-weight="normal" text-decoration="normal" x="50.63333320617676" y="225.5254669189453" text-anchor="start" dominant-baseline="alphabetic" transform="matrix(1, 0, 0, 1, 0.5, 0.5)" stroke-opacity="0" stroke-linejoin="bevel" stroke-miterlimit="10">40</text><text fill="#444444" stroke="none" font-family="helvetica" font-size="10pt" font-style="normal" font-weight="normal" text-decoration="normal" x="50.63333320617676" y="193.2882080078125" text-anchor="start" dominant-baseline="alphabetic" transform="matrix(1, 0, 0, 1, 0.5, 0.5)">60</text><text fill="none" stroke="rgb(0,0,0)" font-family="helvetica" font-size="10pt" font-style="normal" font-weight="normal" text-decoration="normal" x="50.63333320617676" y="193.2882080078125" text-anchor="start" dominant-baseline="alphabetic" transform="matrix(1, 0, 0, 1, 0.5, 0.5)" stroke-opacity="0" stroke-linejoin="bevel" stroke-miterlimit="10">60</text><text fill="#444444" stroke="none" font-family="helvetica" font-size="10pt" font-style="normal" font-weight="normal" text-decoration="normal" x="50.63333320617676" y="161.05093383789062" text-anchor="start" dominant-baseline="alphabetic" transform="matrix(1, 0, 0, 1, 0.5, 0.5)">80</text><text fill="none" stroke="rgb(0,0,0)" font-family="helvetica" font-size="10pt" font-style="normal" font-weight="normal" text-decoration="normal" x="50.63333320617676" y="161.05093383789062" text-anchor="start" dominant-baseline="alphabetic" transform="matrix(1, 0, 0, 1, 0.5, 0.5)" stroke-opacity="0" stroke-linejoin="bevel" stroke-miterlimit="10">80</text><text fill="#444444" stroke="none" font-family="helvetica" font-size="10pt" font-style="normal" font-weight="normal" text-decoration="normal" x="43.95000076293945" y="128.81366729736328" text-anchor="start" dominant-baseline="alphabetic" transform="matrix(1, 0, 0, 1, 0.5, 0.5)">100</text><text fill="none" stroke="rgb(0,0,0)" font-family="helvetica" font-size="10pt" font-style="normal" font-weight="normal" text-decoration="normal" x="43.95000076293945" y="128.81366729736328" text-anchor="start" dominant-baseline="alphabetic" transform="matrix(1, 0, 0, 1, 0.5, 0.5)" stroke-opacity="0" stroke-linejoin="bevel" stroke-miterlimit="10">100</text><text fill="#444444" stroke="none" font-family="helvetica" font-size="10pt" font-style="normal" font-weight="normal" text-decoration="normal" x="43.95000076293945" y="96.57640075683594" text-anchor="start" dominant-baseline="alphabetic" transform="matrix(1, 0, 0, 1, 0.5, 0.5)">120</text><text fill="none" stroke="rgb(0,0,0)" font-family="helvetica" font-size="10pt" font-style="normal" font-weight="normal" text-decoration="normal" x="43.95000076293945" y="96.57640075683594" text-anchor="start" dominant-baseline="alphabetic" transform="matrix(1, 0, 0, 1, 0.5, 0.5)" stroke-opacity="0" stroke-linejoin="bevel" stroke-miterlimit="10">120</text><text fill="#444444" stroke="none" font-family="helvetica" font-size="10pt" font-style="normal" font-weight="normal" text-decoration="normal" x="43.95000076293945" y="64.3391342163086" text-anchor="start" dominant-baseline="alphabetic" transform="matrix(1, 0, 0, 1, 0.5, 0.5)">140</text><text fill="none" stroke="rgb(0,0,0)" font-family="helvetica" font-size="10pt" font-style="normal" font-weight="normal" text-decoration="normal" x="43.95000076293945" y="64.3391342163086" text-anchor="start" dominant-baseline="alphabetic" transform="matrix(1, 0, 0, 1, 0.5, 0.5)" stroke-opacity="0" stroke-linejoin="bevel" stroke-miterlimit="10">140</text><text fill="#444444" stroke="none" font-family="helvetica" font-size="12pt" font-style="normal" font-weight="normal" text-decoration="normal" x="-60.25833511352539" y="156" text-anchor="start" dominant-baseline="alphabetic" transform="matrix(6.123233995736766e-17, -1, 1, 6.123233995736766e-17, -123.54999923706055, 196.45000076293945)">Days suitable for transmission</text><text fill="none" stroke="rgb(0,0,0)" font-family="helvetica" font-size="12pt" font-style="normal" font-weight="normal" text-decoration="normal" x="-60.25833511352539" y="156" text-anchor="start" dominant-baseline="alphabetic" transform="matrix(6.123233995736766e-17, -1, 1, 6.123233995736766e-17, -123.54999923706055, 196.45000076293945)" stroke-opacity="0" stroke-linejoin="bevel" stroke-miterlimit="10">Days suitable for transmission</text><path fill="rgb(255,255,255)" stroke="rgb(229,229,229)" paint-order="fill" d="M 482.0333251953125 210.5 L 565.4999847412109 210.5 L 565.4999847412109 275.5 L 482.0333251953125 275.5 L 482.0333251953125 210.5 Z" fill-opacity="0.9490196078431372" clip-path="url(#wDwwfzvTudbV)" stroke-opacity="0.5019607843137255" stroke-linejoin="bevel" stroke-miterlimit="10"/><g clip-path="url(#wDwwfzvTudbV)"><g transform="matrix(1, 0, 0, 1, 492.5333251953125, 221)"><path fill="none" stroke="#30a2da" paint-order="fill" d="M 0.5 10.5 L 20.5 10.5" stroke-linejoin="bevel" stroke-miterlimit="10" stroke-width="2"/></g></g><g clip-path="url(#wDwwfzvTudbV)"><text fill="#444444" stroke="none" font-family="helvetica" font-size="13px" font-style="normal" font-weight="normal" text-decoration="normal" x="517.5333251953125" y="235.5" text-anchor="start" dominant-baseline="alphabetic" transform="matrix(1, 0, 0, 1, 0.5, 0.5)">ID 001</text></g><g clip-path="url(#wDwwfzvTudbV)"><text fill="none" stroke="rgb(0,0,0)" font-family="helvetica" font-size="13px" font-style="normal" font-weight="normal" text-decoration="normal" x="517.5333251953125" y="235.5" text-anchor="start" dominant-baseline="alphabetic" transform="matrix(1, 0, 0, 1, 0.5, 0.5)" stroke-opacity="0" stroke-linejoin="bevel" stroke-miterlimit="10">ID 001</text></g><g clip-path="url(#wDwwfzvTudbV)"><g transform="matrix(1, 0, 0, 1, 492.5333251953125, 244)"><path fill="none" stroke="#fc4f30" paint-order="fill" d="M 0.5 10.5 L 20.5 10.5" stroke-linejoin="bevel" stroke-miterlimit="10" stroke-width="2"/></g></g><g clip-path="url(#wDwwfzvTudbV)"><text fill="#444444" stroke="none" font-family="helvetica" font-size="13px" font-style="normal" font-weight="normal" text-decoration="normal" x="517.5333251953125" y="258.5" text-anchor="start" dominant-baseline="alphabetic" transform="matrix(1, 0, 0, 1, 0.5, 0.5)">ID 006</text></g><g clip-path="url(#wDwwfzvTudbV)"><text fill="none" stroke="rgb(0,0,0)" font-family="helvetica" font-size="13px" font-style="normal" font-weight="normal" text-decoration="normal" x="517.5333251953125" y="258.5" text-anchor="start" dominant-baseline="alphabetic" transform="matrix(1, 0, 0, 1, 0.5, 0.5)" stroke-opacity="0" stroke-linejoin="bevel" stroke-miterlimit="10">ID 006</text></g><text fill="black" stroke="none" font-family="helvetica" font-size="14pt" font-style="normal" font-weight="normal" text-decoration="normal" x="0" y="18" text-anchor="start" dominant-baseline="alphabetic" transform="matrix(1, 0, 0, 1, 5.5, 7.5)">A. Paris</text><text fill="none" stroke="rgb(0,0,0)" font-family="helvetica" font-size="14pt" font-style="normal" font-weight="normal" text-decoration="normal" x="0" y="18" text-anchor="start" dominant-baseline="alphabetic" transform="matrix(1, 0, 0, 1, 5.5, 7.5)" stroke-opacity="0" stroke-linejoin="bevel" stroke-miterlimit="10">A. Paris</text></svg>