<svg version="1.1" xmlns="http://www.w3.org/2000/svg" width="605" height="336"><defs><clipPath id="MoxnsOCUxgQM"><path fill="none" stroke="none" d="M 75.5 35.5 L 575.5 35.5 L 575.5 285.5 L 75.5 285.5 L 75.5 35.5 Z"/></clipPath><clipPath id="gmGqTBPQkVTQ"><path fill="none" stroke="none" d="M 75.5 35.5 L 575.5 35.5 L 575.5 285.5 L 75.5 285.5 L 75.5 35.5 Z"/></clipPath><clipPath id="okgKVhaSGqPr"><path fill="none" stroke="none" d="M 75.5 35.5 L 575.5 35.5 L 575.5 285.5 L 75.5 285.5 L 75.5 35.5 Z"/></clipPath><clipPath id="cxnCgVPMtBTF"><path fill="none" stroke="none" d="M 75.5 35.5 L 575.5 35.5 L 575.5 285.5 L 75.5 285.5 L 75.5 35.5 Z"/></clipPath><clipPath id="DTRWedCnZWJs"><path fill="none" stroke="none" d="M 75.5 35.5 L 575.5 35.5 L 575.5 285.5 L 75.5 285.5 L 75.5 35.5 Z"/></clipPath><clipPath id="HLqShEbGpNHI"><path fill="none" stroke="none" d="M 75.5 35.5 L 575.5 35.5 L 575.5 285.5 L 75.5 285.5 L 75.5 35.5 Z"/></clipPath><clipPath id="gXaUzJGqdKOg"><path fill="none" stroke="none" d="M 75.5 35.5 L 575.5 35.5 L 575.5 285.5 L 75.5 285.5 L 75.5 35.5 Z"/></clipPath></defs><path fill="none" stroke="#e5e5e5" paint-order="fill" d="M 75.5 35.5 L 575.5 35.5 L 575.5 285.5 L 75.5 285.5 L 75.5 35.5 Z" stroke-linejoin="bevel" stroke-miterlimit="10"/><path fill="none" stroke="black" paint-order="fill" d="M 75.5 122.08902740478516 L 101.81578826904297 86.40158081054688 L 128.13157653808594 92.03643798828125 L 154.44737243652344 96.7321548461914 L 180.76315307617188 131.48046875 L 207.07894897460938 75.1318588256836 L 233.3947296142578 92.03643798828125 L 259.7105407714844 118.33245849609375 L 286.02630615234375 79.82757568359375 L 312.34210205078125 73.25357055664062 L 338.65789794921875 84.5232925415039 L 364.97369384765625 79.82757568359375 L 391.2894592285156 68.55785369873047 L 417.6052551269531 94.85386657714844 L 443.9210510253906 99.5495834350586 L 470.2368469238281 88.27986145019531 L 496.5526428222656 94.85386657714844 L 522.868408203125 95.79301452636719 L 549.1842041015625 58.227272033691406 L 575.5 96.7321548461914" stroke-linejoin="bevel" stroke-miterlimit="10" stroke-width="2" clip-path="url(#okgKVhaSGqPr)"/><path fill="none" stroke="blue" paint-order="fill" d="M 75.5 108.30923461914062 L 101.81578826904297 105.7365493774414 L 128.13157653808594 103.16386413574219 L 154.44737243652344 100.59117889404297 L 180.76315307617188 98.01850128173828 L 207.07894897460938 95.44581604003906 L 233.3947296142578 92.87313079833984 L 259.7105407714844 90.30044555664062 L 286.02630615234375 87.7277603149414 L 312.34210205078125 85.15507507324219" stroke-linejoin="bevel" stroke-miterlimit="10" stroke-width="2" clip-path="url(#cxnCgVPMtBTF)"/><path fill="none" stroke="blue" paint-order="fill" d="M 338.65789794921875 83.84027862548828 L 364.97369384765625 84.34684753417969 L 391.2894592285156 84.8534164428711 L 417.6052551269531 85.3599853515625 L 443.9210510253906 85.8665542602539 L 470.2368469238281 86.37311553955078 L 496.5526428222656 86.87968444824219 L 522.868408203125 87.3862533569336 L 549.1842041015625 87.892822265625 L 575.5 88.3993911743164" stroke-linejoin="bevel" stroke-miterlimit="10" stroke-width="2" clip-path="url(#DTRWedCnZWJs)"/><path fill="none" stroke="grey" paint-order="fill" d="M 338.6578947368471 35.5 L 338.6578947368471 285.5" stroke-linejoin="bevel" stroke-miterlimit="10" stroke-width="3" stroke-dasharray="6" clip-path="url(#HLqShEbGpNHI)"/><path fill="none" stroke="black" paint-order="fill" d="M 75.5 285.5 L 575.5 285.5" stroke-linejoin="bevel" stroke-miterlimit="10"/><path fill="none" stroke="black" paint-order="fill" d="M 75.5 291.5 L 75.5 283.5 M 207.5 291.5 L 207.5 283.5 M 338.5 291.5 L 338.5 283.5 M 470.5 291.5 L 470.5 283.5" stroke-linejoin="bevel" stroke-miterlimit="10"/><path fill="none" stroke="black" paint-order="fill" d="M 75.5 289.5 L 75.5 285.5 M 101.5 289.5 L 101.5 285.5 M 128.5 289.5 L 128.5 285.5 M 154.5 289.5 L 154.5 285.5 M 180.5 289.5 L 180.5 285.5 M 207.5 289.5 L 207.5 285.5 M 233.5 289.5 L 233.5 285.5 M 259.5 289.5 L 259.5 285.5 M 286.5 289.5 L 286.5 285.5 M 312.5 289.5 L 312.5 285.5 M 338.5 289.5 L 338.5 285.5 M 364.5 289.5 L 364.5 285.5 M 391.5 289.5 L 391.5 285.5 M 417.5 289.5 L 417.5 285.5 M 443.5 289.5 L 443.5 285.5 M 470.5 289.5 L 470.5 285.5 M 496.5 289.5 L 496.5 285.5 M 522.5 289.5 L 522.5 285.5 M 549.5 289.5 L 549.5 285.5 M 575.5 289.5 L 575.5 285.5" stroke-linejoin="bevel" stroke-miterlimit="10"/><text fill="#444444" stroke="none" font-family="helvetica" font-size="10pt" font-style="normal" font-weight="normal" text-decoration="normal" x="61.63333320617676" y="306" text-anchor="start" dominant-baseline="alphabetic" transform="matrix(1, 0, 0, 1, 0.5, 0.5)">2025</text><text fill="none" stroke="rgb(0,0,0)" font-family="helvetica" font-size="10pt" font-style="normal" font-weight="normal" text-decoration="normal" x="61.63333320617676" y="306" text-anchor="start" dominant-baseline="alphabetic" transform="matrix(1, 0, 0, 1, 0.5, 0.5)" stroke-opacity="0" stroke-linejoin="bevel" stroke-miterlimit="10">2025</text><text fill="#444444" stroke="none" font-family="helvetica" font-size="10pt" font-style="normal" font-weight="normal" text-decoration="normal" x="193.21228218078613" y="306" text-anchor="start" dominant-baseline="alphabetic" transform="matrix(1, 0, 0, 1, 0.5, 0.5)">2030</text><text fill="none" stroke="rgb(0,0,0)" font-family="helvetica" font-size="10pt" font-style="normal" font-weight="normal" text-decoration="normal" x="193.21228218078613" y="306" text-anchor="start" dominant-baseline="alphabetic" transform="matrix(1, 0, 0, 1, 0.5, 0.5)" stroke-opacity="0" stroke-linejoin="bevel" stroke-miterlimit="10">2030</text><text fill="#444444" stroke="none" font-family="helvetica" font-size="10pt" font-style="normal" font-weight="normal" text-decoration="normal" x="324.7912311553955" y="306" text-anchor="start" dominant-baseline="alphabetic" transform="matrix(1, 0, 0, 1, 0.5, 0.5)">2035</text><text fill="none" stroke="rgb(0,0,0)" font-family="helvetica" font-size="10pt" font-style="normal" font-weight="normal" text-decoration="normal" x="324.7912311553955" y="306" text-anchor="start" dominant-baseline="alphabetic" transform="matrix(1, 0, 0, 1, 0.5, 0.5)" stroke-opacity="0" stroke-linejoin="bevel" stroke-miterlimit="10">2035</text><text fill="#444444" stroke="none" font-family="helvetica" font-size="10pt" font-style="normal" font-weight="normal" text-decoration="normal" x="456.3701801300049" y="306" text-anchor="start" dominant-baseline="alphabetic" transform="matrix(1, 0, 0, 1, 0.5, 0.5)">2040</text><text fill="none" stroke="rgb(0,0,0)" font-family="helvetica" font-size="10pt" font-style="normal" font-weight="normal" text-decoration="normal" x="456.3701801300049" y="306" text-anchor="start" dominant-baseline="alphabetic" transform="matrix(1, 0, 0, 1, 0.5, 0.5)" stroke-opacity="0" stroke-linejoin="bevel" stroke-miterlimit="10">2040</text><text fill="#444444" stroke="none" font-family="helvetica" font-size="12pt" font-style="normal" font-weight="normal" text-decoration="normal" x="310.3166666030884" y="329" text-anchor="start" dominant-baseline="alphabetic" transform="matrix(1, 0, 0, 1, 0.5, 0.5)">Year</text><text fill="none" stroke="rgb(0,0,0)" font-family="helvetica" font-size="12pt" font-style="normal" font-weight="normal" text-decoration="normal" x="310.3166666030884" y="329" text-anchor="start" dominant-baseline="alphabetic" transform="matrix(1, 0, 0, 1, 0.5, 0.5)" stroke-opacity="0" stroke-linejoin="bevel" stroke-miterlimit="10">Year</text><path fill="none" stroke="black" paint-order="fill" d="M 75.5 285.5 L 75.5 35.5" stroke-linejoin="bevel" stroke-miterlimit="10"/><path fill="none" stroke="black" paint-order="fill" d="M 69.5 285.5 L 77.5 285.5 M 69.5 238.5 L 77.5 238.5 M 69.5 191.5 L 77.5 191.5 M 69.5 144.5 L 77.5 144.5 M 69.5 97.5 L 77.5 97.5 M 69.5 50.5 L 77.5 50.5" stroke-linejoin="bevel" stroke-miterlimit="10"/><path fill="none" stroke="black" paint-order="fill" d="M 71.5 285.5 L 75.5 285.5 M 71.5 276.5 L 75.5 276.5 M 71.5 266.5 L 75.5 266.5 M 71.5 257.5 L 75.5 257.5 M 71.5 247.5 L 75.5 247.5 M 71.5 238.5 L 75.5 238.5 M 71.5 229.5 L 75.5 229.5 M 71.5 219.5 L 75.5 219.5 M 71.5 210.5 L 75.5 210.5 M 71.5 200.5 L 75.5 200.5 M 71.5 191.5 L 75.5 191.5 M 71.5 182.5 L 75.5 182.5 M 71.5 172.5 L 75.5 172.5 M 71.5 163.5 L 75.5 163.5 M 71.5 154.5 L 75.5 154.5 M 71.5 144.5 L 75.5 144.5 M 71.5 135.5 L 75.5 135.5 M 71.5 125.5 L 75.5 125.5 M 71.5 116.5 L 75.5 116.5 M 71.5 107.5 L 75.5 107.5 M 71.5 97.5 L 75.5 97.5 M 71.5 88.5 L 75.5 88.5 M 71.5 78.5 L 75.5 78.5 M 71.5 69.5 L 75.5 69.5 M 71.5 60.5 L 75.5 60.5 M 71.5 50.5 L 75.5 50.5 M 71.5 41.5 L 75.5 41.5" stroke-linejoin="bevel" stroke-miterlimit="10"/><text fill="#444444" stroke="none" font-family="helvetica" font-size="10pt" font-style="normal" font-weight="normal" text-decoration="normal" x="57.31666660308838" y="290" text-anchor="start" dominant-baseline="alphabetic" transform="matrix(1, 0, 0, 1, 0.5, 0.5)">0</text><text fill="none" stroke="rgb(0,0,0)" font-family="helvetica" font-size="10pt" font-style="normal" font-weight="normal" text-decoration="normal" x="57.31666660308838" y="290" text-anchor="start" dominant-baseline="alphabetic" transform="matrix(1, 0, 0, 1, 0.5, 0.5)" stroke-opacity="0" stroke-linejoin="bevel" stroke-miterlimit="10">0</text><text fill="#444444" stroke="none" font-family="helvetica" font-size="10pt" font-style="normal" font-weight="normal" text-decoration="normal" x="50.63333320617676" y="243.04283142089844" text-anchor="start" dominant-baseline="alphabetic" transform="matrix(1, 0, 0, 1, 0.5, 0.5)">50</text><text fill="none" stroke="rgb(0,0,0)" font-family="helvetica" font-size="10pt" font-style="normal" font-weight="normal" text-decoration="normal" x="50.63333320617676" y="243.04283142089844" text-anchor="start" dominant-baseline="alphabetic" transform="matrix(1, 0, 0, 1, 0.5, 0.5)" stroke-opacity="0" stroke-linejoin="bevel" stroke-miterlimit="10">50</text><text fill="#444444" stroke="none" font-family="helvetica" font-size="10pt" font-style="normal" font-weight="normal" text-decoration="normal" x="43.95000076293945" y="196.0856475830078" text-anchor="start" dominant-baseline="alphabetic" transform="matrix(1, 0, 0, 1, 0.5, 0.5)">100</text><text fill="none" stroke="rgb(0,0,0)" font-family="helvetica" font-size="10pt" font-style="normal" font-weight="normal" text-decoration="normal" x="43.95000076293945" y="196.0856475830078" text-anchor="start" dominant-baseline="alphabetic" transform="matrix(1, 0, 0, 1, 0.5, 0.5)" stroke-opacity="0" stroke-linejoin="bevel" stroke-miterlimit="10">100</text><text fill="#444444" stroke="none" font-family="helvetica" font-size="10pt" font-style="normal" font-weight="normal" text-decoration="normal" x="43.95000076293945" y="149.12847900390625" text-anchor="start" dominant-baseline="alphabetic" transform="matrix(1, 0, 0, 1, 0.5, 0.5)">150</text><text fill="none" stroke="rgb(0,0,0)" font-family="helvetica" font-size="10pt" font-style="normal" font-weight="normal" text-decoration="normal" x="43.95000076293945" y="149.12847900390625" text-anchor="start" dominant-baseline="alphabetic" transform="matrix(1, 0, 0, 1, 0.5, 0.5)" stroke-opacity="0" stroke-linejoin="bevel" stroke-miterlimit="10">150</text><text fill="#444444" stroke="none" font-family="helvetica" font-size="10pt" font-style="normal" font-weight="normal" text-decoration="normal" x="43.95000076293945" y="102.17130279541016" text-anchor="start" dominant-baseline="alphabetic" transform="matrix(1, 0, 0, 1, 0.5, 0.5)">200</text><text fill="none" stroke="rgb(0,0,0)" font-family="helvetica" font-size="10pt" font-style="normal" font-weight="normal" text-decoration="normal" x="43.95000076293945" y="102.17130279541016" text-anchor="start" dominant-baseline="alphabetic" transform="matrix(1, 0, 0, 1, 0.5, 0.5)" stroke-opacity="0" stroke-linejoin="bevel" stroke-miterlimit="10">200</text><text fill="#444444" stroke="none" font-family="helvetica" font-size="10pt" font-style="normal" font-weight="normal" text-decoration="normal" x="43.95000076293945" y="55.21412658691406" text-anchor="start" dominant-baseline="alphabetic" transform="matrix(1, 0, 0, 1, 0.5, 0.5)">250</text><text fill="none" stroke="rgb(0,0,0)" font-family="helvetica" font-size="10pt" font-style="normal" font-weight="normal" text-decoration="normal" x="43.95000076293945" y="55.21412658691406" text-anchor="start" dominant-baseline="alphabetic" transform="matrix(1, 0, 0, 1, 0.5, 0.5)" stroke-opacity="0" stroke-linejoin="bevel" stroke-miterlimit="10">250</text><text fill="#444444" stroke="none" font-family="helvetica" font-size="12pt" font-style="normal" font-weight="normal" text-decoration="normal" x="-60.25833511352539" y="156" text-anchor="start" dominant-baseline="alphabetic" transform="matrix(6.123233995736766e-17, -1, 1, 6.123233995736766e-17, -123.54999923706055, 196.45000076293945)">Days suitable for transmission</text><text fill="none" stroke="rgb(0,0,0)" font-family="helvetica" font-size="12pt" font-style="normal" font-weight="normal" text-decoration="normal" x="-60.25833511352539" y="156" text-anchor="start" dominant-baseline="alphabetic" transform="matrix(6.123233995736766e-17, -1, 1, 6.123233995736766e-17, -123.54999923706055, 196.45000076293945)" stroke-opacity="0" stroke-linejoin="bevel" stroke-miterlimit="10">Days suitable for transmission</text><text fill="black" stroke="none" font-family="helvetica" font-size="14pt" font-style="normal" font-weight="normal" text-decoration="normal" x="0" y="18" text-anchor="start" dominant-baseline="alphabetic" transform="matrix(1, 0, 0, 1, 5.5, 7.5)">C. ID 001, Los Angeles</text><text fill="none" stroke="rgb(0,0,0)" font-family="helvetica" font-size="14pt" font-style="normal" font-weight="normal" text-decoration="normal" x="0" y="18" text-anchor="start" dominant-baseline="alphabetic" transform="matrix(1, 0, 0, 1, 5.5, 7.5)" stroke-opacity="0" stroke-linejoin="bevel" stroke-miterlimit="10">C. ID 001, Los Angeles</text></svg>