<svg version="1.1" xmlns="http://www.w3.org/2000/svg" width="605" height="336"><defs><clipPath id="nHBIyFKlDTHK"><path fill="none" stroke="none" d="M 75.5 35.5 L 575.5 35.5 L 575.5 285.5 L 75.5 285.5 L 75.5 35.5 Z"/></clipPath><clipPath id="eizSveVtxvFK"><path fill="none" stroke="none" d="M 75.5 35.5 L 575.5 35.5 L 575.5 285.5 L 75.5 285.5 L 75.5 35.5 Z"/></clipPath><clipPath id="GuBIyUOyGkTs"><path fill="none" stroke="none" d="M 75.5 35.5 L 575.5 35.5 L 575.5 285.5 L 75.5 285.5 L 75.5 35.5 Z"/></clipPath><clipPath id="ymvTlbiIRmtM"><path fill="none" stroke="none" d="M 75.5 35.5 L 575.5 35.5 L 575.5 285.5 L 75.5 285.5 L 75.5 35.5 Z"/></clipPath><clipPath id="tOrLpdAXLMZy"><path fill="none" stroke="none" d="M 75.5 35.5 L 575.5 35.5 L 575.5 285.5 L 75.5 285.5 L 75.5 35.5 Z"/></clipPath><clipPath id="PdDdzyvgGyCy"><path fill="none" stroke="none" d="M 75.5 35.5 L 575.5 35.5 L 575.5 285.5 L 75.5 285.5 L 75.5 35.5 Z"/></clipPath><clipPath id="TTvpscOtHyIf"><path fill="none" stroke="none" d="M 75.5 35.5 L 575.5 35.5 L 575.5 285.5 L 75.5 285.5 L 75.5 35.5 Z"/></clipPath></defs><path fill="none" stroke="#e5e5e5" paint-order="fill" d="M 75.5 35.5 L 575.5 35.5 L 575.5 285.5 L 75.5 285.5 L 75.5 35.5 Z" stroke-linejoin="bevel" stroke-miterlimit="10"/><path fill="none" stroke="black" paint-order="fill" d="M 75.5 105.88123321533203 L 101.81578826904297 80.22140502929688 L 128.13157653808594 95.80058288574219 L 154.44737243652344 93.96774291992188 L 180.76315307617188 116.8782958984375 L 207.07894897460938 93.05132293701172 L 233.3947296142578 93.05132293701172 L 259.7105407714844 114.12903594970703 L 286.02630615234375 97.63343048095703 L 312.34210205078125 102.21554565429688 L 338.65789794921875 108.63050079345703 L 364.97369384765625 115.04545593261719 L 391.2894592285156 97.63343048095703 L 417.6052551269531 116.8782958984375 L 443.9210510253906 94.88416290283203 L 470.2368469238281 93.96774291992188 L 496.5526428222656 117.79472351074219 L 522.868408203125 110.46334075927734 L 549.1842041015625 75.63929748535156 L 575.5 58.227272033691406" stroke-linejoin="bevel" stroke-miterlimit="10" stroke-width="2" clip-path="url(#GuBIyUOyGkTs)"/><path fill="none" stroke="blue" paint-order="fill" d="M 75.5 95.08411407470703 L 101.81578826904297 96.01719665527344 L 128.13157653808594 96.95027923583984 L 154.44737243652344 97.88336181640625 L 180.76315307617188 98.81645202636719 L 207.07894897460938 99.7495346069336 L 233.3947296142578 100.6826171875 L 259.7105407714844 101.6156997680664 L 286.02630615234375 102.54878997802734 L 312.34210205078125 103.48187255859375" stroke-linejoin="bevel" stroke-miterlimit="10" stroke-width="2" clip-path="url(#ymvTlbiIRmtM)"/><path fill="none" stroke="blue" paint-order="fill" d="M 338.65789794921875 117.0115966796875 L 364.97369384765625 112.99044799804688 L 391.2894592285156 108.96929931640625 L 417.6052551269531 104.94815063476562 L 443.9210510253906 100.92699432373047 L 470.2368469238281 96.90584564208984 L 496.5526428222656 92.88469696044922 L 522.868408203125 88.8635482788086 L 549.1842041015625 84.84239959716797 L 575.5 80.82125091552734" stroke-linejoin="bevel" stroke-miterlimit="10" stroke-width="2" clip-path="url(#tOrLpdAXLMZy)"/><path fill="none" stroke="grey" paint-order="fill" d="M 338.6578947368471 35.5 L 338.6578947368471 285.5" stroke-linejoin="bevel" stroke-miterlimit="10" stroke-width="3" stroke-dasharray="6" clip-path="url(#PdDdzyvgGyCy)"/><path fill="none" stroke="black" paint-order="fill" d="M 75.5 285.5 L 575.5 285.5" stroke-linejoin="bevel" stroke-miterlimit="10"/><path fill="none" stroke="black" paint-order="fill" d="M 75.5 291.5 L 75.5 283.5 M 207.5 291.5 L 207.5 283.5 M 338.5 291.5 L 338.5 283.5 M 470.5 291.5 L 470.5 283.5" stroke-linejoin="bevel" stroke-miterlimit="10"/><path fill="none" stroke="black" paint-order="fill" d="M 75.5 289.5 L 75.5 285.5 M 101.5 289.5 L 101.5 285.5 M 128.5 289.5 L 128.5 285.5 M 154.5 289.5 L 154.5 285.5 M 180.5 289.5 L 180.5 285.5 M 207.5 289.5 L 207.5 285.5 M 233.5 289.5 L 233.5 285.5 M 259.5 289.5 L 259.5 285.5 M 286.5 289.5 L 286.5 285.5 M 312.5 289.5 L 312.5 285.5 M 338.5 289.5 L 338.5 285.5 M 364.5 289.5 L 364.5 285.5 M 391.5 289.5 L 391.5 285.5 M 417.5 289.5 L 417.5 285.5 M 443.5 289.5 L 443.5 285.5 M 470.5 289.5 L 470.5 285.5 M 496.5 289.5 L 496.5 285.5 M 522.5 289.5 L 522.5 285.5 M 549.5 289.5 L 549.5 285.5 M 575.5 289.5 L 575.5 285.5" stroke-linejoin="bevel" stroke-miterlimit="10"/><text fill="#444444" stroke="none" font-family="helvetica" font-size="10pt" font-style="normal" font-weight="normal" text-decoration="normal" x="61.63333320617676" y="306" text-anchor="start" dominant-baseline="alphabetic" transform="matrix(1, 0, 0, 1, 0.5, 0.5)">2025</text><text fill="none" stroke="rgb(0,0,0)" font-family="helvetica" font-size="10pt" font-style="normal" font-weight="normal" text-decoration="normal" x="61.63333320617676" y="306" text-anchor="start" dominant-baseline="alphabetic" transform="matrix(1, 0, 0, 1, 0.5, 0.5)" stroke-opacity="0" stroke-linejoin="bevel" stroke-miterlimit="10">2025</text><text fill="#444444" stroke="none" font-family="helvetica" font-size="10pt" font-style="normal" font-weight="normal" text-decoration="normal" x="193.21228218078613" y="306" text-anchor="start" dominant-baseline="alphabetic" transform="matrix(1, 0, 0, 1, 0.5, 0.5)">2030</text><text fill="none" stroke="rgb(0,0,0)" font-family="helvetica" font-size="10pt" font-style="normal" font-weight="normal" text-decoration="normal" x="193.21228218078613" y="306" text-anchor="start" dominant-baseline="alphabetic" transform="matrix(1, 0, 0, 1, 0.5, 0.5)" stroke-opacity="0" stroke-linejoin="bevel" stroke-miterlimit="10">2030</text><text fill="#444444" stroke="none" font-family="helvetica" font-size="10pt" font-style="normal" font-weight="normal" text-decoration="normal" x="324.7912311553955" y="306" text-anchor="start" dominant-baseline="alphabetic" transform="matrix(1, 0, 0, 1, 0.5, 0.5)">2035</text><text fill="none" stroke="rgb(0,0,0)" font-family="helvetica" font-size="10pt" font-style="normal" font-weight="normal" text-decoration="normal" x="324.7912311553955" y="306" text-anchor="start" dominant-baseline="alphabetic" transform="matrix(1, 0, 0, 1, 0.5, 0.5)" stroke-opacity="0" stroke-linejoin="bevel" stroke-miterlimit="10">2035</text><text fill="#444444" stroke="none" font-family="helvetica" font-size="10pt" font-style="normal" font-weight="normal" text-decoration="normal" x="456.3701801300049" y="306" text-anchor="start" dominant-baseline="alphabetic" transform="matrix(1, 0, 0, 1, 0.5, 0.5)">2040</text><text fill="none" stroke="rgb(0,0,0)" font-family="helvetica" font-size="10pt" font-style="normal" font-weight="normal" text-decoration="normal" x="456.3701801300049" y="306" text-anchor="start" dominant-baseline="alphabetic" transform="matrix(1, 0, 0, 1, 0.5, 0.5)" stroke-opacity="0" stroke-linejoin="bevel" stroke-miterlimit="10">2040</text><text fill="#444444" stroke="none" font-family="helvetica" font-size="12pt" font-style="normal" font-weight="normal" text-decoration="normal" x="310.3166666030884" y="329" text-anchor="start" dominant-baseline="alphabetic" transform="matrix(1, 0, 0, 1, 0.5, 0.5)">Year</text><text fill="none" stroke="rgb(0,0,0)" font-family="helvetica" font-size="12pt" font-style="normal" font-weight="normal" text-decoration="normal" x="310.3166666030884" y="329" text-anchor="start" dominant-baseline="alphabetic" transform="matrix(1, 0, 0, 1, 0.5, 0.5)" stroke-opacity="0" stroke-linejoin="bevel" stroke-miterlimit="10">Year</text><path fill="none" stroke="black" paint-order="fill" d="M 75.5 285.5 L 75.5 35.5" stroke-linejoin="bevel" stroke-miterlimit="10"/><path fill="none" stroke="black" paint-order="fill" d="M 69.5 285.5 L 77.5 285.5 M 69.5 239.5 L 77.5 239.5 M 69.5 193.5 L 77.5 193.5 M 69.5 148.5 L 77.5 148.5 M 69.5 102.5 L 77.5 102.5 M 69.5 56.5 L 77.5 56.5" stroke-linejoin="bevel" stroke-miterlimit="10"/><path fill="none" stroke="black" paint-order="fill" d="M 71.5 285.5 L 75.5 285.5 M 71.5 276.5 L 75.5 276.5 M 71.5 267.5 L 75.5 267.5 M 71.5 258.5 L 75.5 258.5 M 71.5 248.5 L 75.5 248.5 M 71.5 239.5 L 75.5 239.5 M 71.5 230.5 L 75.5 230.5 M 71.5 221.5 L 75.5 221.5 M 71.5 212.5 L 75.5 212.5 M 71.5 203.5 L 75.5 203.5 M 71.5 193.5 L 75.5 193.5 M 71.5 184.5 L 75.5 184.5 M 71.5 175.5 L 75.5 175.5 M 71.5 166.5 L 75.5 166.5 M 71.5 157.5 L 75.5 157.5 M 71.5 148.5 L 75.5 148.5 M 71.5 138.5 L 75.5 138.5 M 71.5 129.5 L 75.5 129.5 M 71.5 120.5 L 75.5 120.5 M 71.5 111.5 L 75.5 111.5 M 71.5 102.5 L 75.5 102.5 M 71.5 93.5 L 75.5 93.5 M 71.5 83.5 L 75.5 83.5 M 71.5 74.5 L 75.5 74.5 M 71.5 65.5 L 75.5 65.5 M 71.5 56.5 L 75.5 56.5 M 71.5 47.5 L 75.5 47.5 M 71.5 38.5 L 75.5 38.5" stroke-linejoin="bevel" stroke-miterlimit="10"/><text fill="#444444" stroke="none" font-family="helvetica" font-size="10pt" font-style="normal" font-weight="normal" text-decoration="normal" x="57.31666660308838" y="290" text-anchor="start" dominant-baseline="alphabetic" transform="matrix(1, 0, 0, 1, 0.5, 0.5)">0</text><text fill="none" stroke="rgb(0,0,0)" font-family="helvetica" font-size="10pt" font-style="normal" font-weight="normal" text-decoration="normal" x="57.31666660308838" y="290" text-anchor="start" dominant-baseline="alphabetic" transform="matrix(1, 0, 0, 1, 0.5, 0.5)" stroke-opacity="0" stroke-linejoin="bevel" stroke-miterlimit="10">0</text><text fill="#444444" stroke="none" font-family="helvetica" font-size="10pt" font-style="normal" font-weight="normal" text-decoration="normal" x="50.63333320617676" y="244.1788787841797" text-anchor="start" dominant-baseline="alphabetic" transform="matrix(1, 0, 0, 1, 0.5, 0.5)">50</text><text fill="none" stroke="rgb(0,0,0)" font-family="helvetica" font-size="10pt" font-style="normal" font-weight="normal" text-decoration="normal" x="50.63333320617676" y="244.1788787841797" text-anchor="start" dominant-baseline="alphabetic" transform="matrix(1, 0, 0, 1, 0.5, 0.5)" stroke-opacity="0" stroke-linejoin="bevel" stroke-miterlimit="10">50</text><text fill="#444444" stroke="none" font-family="helvetica" font-size="10pt" font-style="normal" font-weight="normal" text-decoration="normal" x="43.95000076293945" y="198.35777282714844" text-anchor="start" dominant-baseline="alphabetic" transform="matrix(1, 0, 0, 1, 0.5, 0.5)">100</text><text fill="none" stroke="rgb(0,0,0)" font-family="helvetica" font-size="10pt" font-style="normal" font-weight="normal" text-decoration="normal" x="43.95000076293945" y="198.35777282714844" text-anchor="start" dominant-baseline="alphabetic" transform="matrix(1, 0, 0, 1, 0.5, 0.5)" stroke-opacity="0" stroke-linejoin="bevel" stroke-miterlimit="10">100</text><text fill="#444444" stroke="none" font-family="helvetica" font-size="10pt" font-style="normal" font-weight="normal" text-decoration="normal" x="43.95000076293945" y="152.53665161132812" text-anchor="start" dominant-baseline="alphabetic" transform="matrix(1, 0, 0, 1, 0.5, 0.5)">150</text><text fill="none" stroke="rgb(0,0,0)" font-family="helvetica" font-size="10pt" font-style="normal" font-weight="normal" text-decoration="normal" x="43.95000076293945" y="152.53665161132812" text-anchor="start" dominant-baseline="alphabetic" transform="matrix(1, 0, 0, 1, 0.5, 0.5)" stroke-opacity="0" stroke-linejoin="bevel" stroke-miterlimit="10">150</text><text fill="#444444" stroke="none" font-family="helvetica" font-size="10pt" font-style="normal" font-weight="normal" text-decoration="normal" x="43.95000076293945" y="106.71554565429688" text-anchor="start" dominant-baseline="alphabetic" transform="matrix(1, 0, 0, 1, 0.5, 0.5)">200</text><text fill="none" stroke="rgb(0,0,0)" font-family="helvetica" font-size="10pt" font-style="normal" font-weight="normal" text-decoration="normal" x="43.95000076293945" y="106.71554565429688" text-anchor="start" dominant-baseline="alphabetic" transform="matrix(1, 0, 0, 1, 0.5, 0.5)" stroke-opacity="0" stroke-linejoin="bevel" stroke-miterlimit="10">200</text><text fill="#444444" stroke="none" font-family="helvetica" font-size="10pt" font-style="normal" font-weight="normal" text-decoration="normal" x="43.95000076293945" y="60.89442825317383" text-anchor="start" dominant-baseline="alphabetic" transform="matrix(1, 0, 0, 1, 0.5, 0.5)">250</text><text fill="none" stroke="rgb(0,0,0)" font-family="helvetica" font-size="10pt" font-style="normal" font-weight="normal" text-decoration="normal" x="43.95000076293945" y="60.89442825317383" text-anchor="start" dominant-baseline="alphabetic" transform="matrix(1, 0, 0, 1, 0.5, 0.5)" stroke-opacity="0" stroke-linejoin="bevel" stroke-miterlimit="10">250</text><text fill="#444444" stroke="none" font-family="helvetica" font-size="12pt" font-style="normal" font-weight="normal" text-decoration="normal" x="-60.25833511352539" y="156" text-anchor="start" dominant-baseline="alphabetic" transform="matrix(6.123233995736766e-17, -1, 1, 6.123233995736766e-17, -123.54999923706055, 196.45000076293945)">Days suitable for transmission</text><text fill="none" stroke="rgb(0,0,0)" font-family="helvetica" font-size="12pt" font-style="normal" font-weight="normal" text-decoration="normal" x="-60.25833511352539" y="156" text-anchor="start" dominant-baseline="alphabetic" transform="matrix(6.123233995736766e-17, -1, 1, 6.123233995736766e-17, -123.54999923706055, 196.45000076293945)" stroke-opacity="0" stroke-linejoin="bevel" stroke-miterlimit="10">Days suitable for transmission</text><text fill="black" stroke="none" font-family="helvetica" font-size="14pt" font-style="normal" font-weight="normal" text-decoration="normal" x="0" y="18" text-anchor="start" dominant-baseline="alphabetic" transform="matrix(1, 0, 0, 1, 5.5, 7.5)">G. ID 005, Los Angeles</text><text fill="none" stroke="rgb(0,0,0)" font-family="helvetica" font-size="14pt" font-style="normal" font-weight="normal" text-decoration="normal" x="0" y="18" text-anchor="start" dominant-baseline="alphabetic" transform="matrix(1, 0, 0, 1, 5.5, 7.5)" stroke-opacity="0" stroke-linejoin="bevel" stroke-miterlimit="10">G. ID 005, Los Angeles</text></svg>