<svg version="1.1" xmlns="http://www.w3.org/2000/svg" width="605" height="336"><defs><clipPath id="CXMzdlzTzuru"><path fill="none" stroke="none" d="M 75.5 35.5 L 575.5 35.5 L 575.5 285.5 L 75.5 285.5 L 75.5 35.5 Z"/></clipPath><clipPath id="cNTtBIUlqaIQ"><path fill="none" stroke="none" d="M 75.5 35.5 L 575.5 35.5 L 575.5 285.5 L 75.5 285.5 L 75.5 35.5 Z"/></clipPath><clipPath id="gHvXNXXWgGuo"><path fill="none" stroke="none" d="M 75.5 35.5 L 575.5 35.5 L 575.5 285.5 L 75.5 285.5 L 75.5 35.5 Z"/></clipPath><clipPath id="JnrPodBmwiLL"><path fill="none" stroke="none" d="M 75.5 35.5 L 575.5 35.5 L 575.5 285.5 L 75.5 285.5 L 75.5 35.5 Z"/></clipPath><clipPath id="cBNHiPcidLIg"><path fill="none" stroke="none" d="M 75.5 35.5 L 575.5 35.5 L 575.5 285.5 L 75.5 285.5 L 75.5 35.5 Z"/></clipPath><clipPath id="KxdspaLnOIvp"><path fill="none" stroke="none" d="M 75.5 35.5 L 575.5 35.5 L 575.5 285.5 L 75.5 285.5 L 75.5 35.5 Z"/></clipPath><clipPath id="JChmlAlwaUCO"><path fill="none" stroke="none" d="M 75.5 35.5 L 575.5 35.5 L 575.5 285.5 L 75.5 285.5 L 75.5 35.5 Z"/></clipPath></defs><path fill="none" stroke="#e5e5e5" paint-order="fill" d="M 75.5 35.5 L 575.5 35.5 L 575.5 285.5 L 75.5 285.5 L 75.5 35.5 Z" stroke-linejoin="bevel" stroke-miterlimit="10"/><path fill="none" stroke="black" paint-order="fill" d="M 75.5 97.58185577392578 L 101.81578826904297 75.93683624267578 L 128.13157653808594 121.19461059570312 L 154.44737243652344 73.96910858154297 L 180.76315307617188 58.227272033691406 L 207.07894897460938 73.96910858154297 L 233.3947296142578 64.13045883178711 L 259.7105407714844 114.30755615234375 L 286.02630615234375 79.8722915649414 L 312.34210205078125 81.84002685546875 L 338.65789794921875 74.95297241210938 L 364.97369384765625 99.5495834350586 L 391.2894592285156 97.58185577392578 L 417.6052551269531 72.00138092041016 L 443.9210510253906 61.17886734008789 L 470.2368469238281 80.85615539550781 L 496.5526428222656 103.48504638671875 L 522.868408203125 89.7109375 L 549.1842041015625 105.45277404785156 L 575.5 89.7109375" stroke-linejoin="bevel" stroke-miterlimit="10" stroke-width="2" clip-path="url(#gHvXNXXWgGuo)"/><path fill="none" stroke="blue" paint-order="fill" d="M 75.5 88.53030395507812 L 101.81578826904297 87.54644012451172 L 128.13157653808594 86.56257629394531 L 154.44737243652344 85.5787124633789 L 180.76315307617188 84.59484100341797 L 207.07894897460938 83.61097717285156 L 233.3947296142578 82.62711334228516 L 259.7105407714844 81.64324951171875 L 286.02630615234375 80.65938568115234 L 312.34210205078125 79.67552185058594" stroke-linejoin="bevel" stroke-miterlimit="10" stroke-width="2" clip-path="url(#JnrPodBmwiLL)"/><path fill="none" stroke="blue" paint-order="fill" d="M 338.65789794921875 80.65938568115234 L 364.97369384765625 82.16797637939453 L 391.2894592285156 83.67657470703125 L 417.6052551269531 85.18516540527344 L 443.9210510253906 86.69375610351562 L 470.2368469238281 88.20234680175781 L 496.5526428222656 89.7109375 L 522.868408203125 91.21953582763672 L 549.1842041015625 92.7281265258789 L 575.5 94.2367172241211" stroke-linejoin="bevel" stroke-miterlimit="10" stroke-width="2" clip-path="url(#cBNHiPcidLIg)"/><path fill="none" stroke="grey" paint-order="fill" d="M 338.6578947368471 35.5 L 338.6578947368471 285.5" stroke-linejoin="bevel" stroke-miterlimit="10" stroke-width="3" stroke-dasharray="6" clip-path="url(#KxdspaLnOIvp)"/><path fill="none" stroke="black" paint-order="fill" d="M 75.5 285.5 L 575.5 285.5" stroke-linejoin="bevel" stroke-miterlimit="10"/><path fill="none" stroke="black" paint-order="fill" d="M 75.5 291.5 L 75.5 283.5 M 207.5 291.5 L 207.5 283.5 M 338.5 291.5 L 338.5 283.5 M 470.5 291.5 L 470.5 283.5" stroke-linejoin="bevel" stroke-miterlimit="10"/><path fill="none" stroke="black" paint-order="fill" d="M 75.5 289.5 L 75.5 285.5 M 101.5 289.5 L 101.5 285.5 M 128.5 289.5 L 128.5 285.5 M 154.5 289.5 L 154.5 285.5 M 180.5 289.5 L 180.5 285.5 M 207.5 289.5 L 207.5 285.5 M 233.5 289.5 L 233.5 285.5 M 259.5 289.5 L 259.5 285.5 M 286.5 289.5 L 286.5 285.5 M 312.5 289.5 L 312.5 285.5 M 338.5 289.5 L 338.5 285.5 M 364.5 289.5 L 364.5 285.5 M 391.5 289.5 L 391.5 285.5 M 417.5 289.5 L 417.5 285.5 M 443.5 289.5 L 443.5 285.5 M 470.5 289.5 L 470.5 285.5 M 496.5 289.5 L 496.5 285.5 M 522.5 289.5 L 522.5 285.5 M 549.5 289.5 L 549.5 285.5 M 575.5 289.5 L 575.5 285.5" stroke-linejoin="bevel" stroke-miterlimit="10"/><text fill="#444444" stroke="none" font-family="helvetica" font-size="10pt" font-style="normal" font-weight="normal" text-decoration="normal" x="61.63333320617676" y="306" text-anchor="start" dominant-baseline="alphabetic" transform="matrix(1, 0, 0, 1, 0.5, 0.5)">2025</text><text fill="none" stroke="rgb(0,0,0)" font-family="helvetica" font-size="10pt" font-style="normal" font-weight="normal" text-decoration="normal" x="61.63333320617676" y="306" text-anchor="start" dominant-baseline="alphabetic" transform="matrix(1, 0, 0, 1, 0.5, 0.5)" stroke-opacity="0" stroke-linejoin="bevel" stroke-miterlimit="10">2025</text><text fill="#444444" stroke="none" font-family="helvetica" font-size="10pt" font-style="normal" font-weight="normal" text-decoration="normal" x="193.21228218078613" y="306" text-anchor="start" dominant-baseline="alphabetic" transform="matrix(1, 0, 0, 1, 0.5, 0.5)">2030</text><text fill="none" stroke="rgb(0,0,0)" font-family="helvetica" font-size="10pt" font-style="normal" font-weight="normal" text-decoration="normal" x="193.21228218078613" y="306" text-anchor="start" dominant-baseline="alphabetic" transform="matrix(1, 0, 0, 1, 0.5, 0.5)" stroke-opacity="0" stroke-linejoin="bevel" stroke-miterlimit="10">2030</text><text fill="#444444" stroke="none" font-family="helvetica" font-size="10pt" font-style="normal" font-weight="normal" text-decoration="normal" x="324.7912311553955" y="306" text-anchor="start" dominant-baseline="alphabetic" transform="matrix(1, 0, 0, 1, 0.5, 0.5)">2035</text><text fill="none" stroke="rgb(0,0,0)" font-family="helvetica" font-size="10pt" font-style="normal" font-weight="normal" text-decoration="normal" x="324.7912311553955" y="306" text-anchor="start" dominant-baseline="alphabetic" transform="matrix(1, 0, 0, 1, 0.5, 0.5)" stroke-opacity="0" stroke-linejoin="bevel" stroke-miterlimit="10">2035</text><text fill="#444444" stroke="none" font-family="helvetica" font-size="10pt" font-style="normal" font-weight="normal" text-decoration="normal" x="456.3701801300049" y="306" text-anchor="start" dominant-baseline="alphabetic" transform="matrix(1, 0, 0, 1, 0.5, 0.5)">2040</text><text fill="none" stroke="rgb(0,0,0)" font-family="helvetica" font-size="10pt" font-style="normal" font-weight="normal" text-decoration="normal" x="456.3701801300049" y="306" text-anchor="start" dominant-baseline="alphabetic" transform="matrix(1, 0, 0, 1, 0.5, 0.5)" stroke-opacity="0" stroke-linejoin="bevel" stroke-miterlimit="10">2040</text><text fill="#444444" stroke="none" font-family="helvetica" font-size="12pt" font-style="normal" font-weight="normal" text-decoration="normal" x="310.3166666030884" y="329" text-anchor="start" dominant-baseline="alphabetic" transform="matrix(1, 0, 0, 1, 0.5, 0.5)">Year</text><text fill="none" stroke="rgb(0,0,0)" font-family="helvetica" font-size="12pt" font-style="normal" font-weight="normal" text-decoration="normal" x="310.3166666030884" y="329" text-anchor="start" dominant-baseline="alphabetic" transform="matrix(1, 0, 0, 1, 0.5, 0.5)" stroke-opacity="0" stroke-linejoin="bevel" stroke-miterlimit="10">Year</text><path fill="none" stroke="black" paint-order="fill" d="M 75.5 285.5 L 75.5 35.5" stroke-linejoin="bevel" stroke-miterlimit="10"/><path fill="none" stroke="black" paint-order="fill" d="M 69.5 285.5 L 77.5 285.5 M 69.5 236.5 L 77.5 236.5 M 69.5 187.5 L 77.5 187.5 M 69.5 137.5 L 77.5 137.5 M 69.5 88.5 L 77.5 88.5 M 69.5 39.5 L 77.5 39.5" stroke-linejoin="bevel" stroke-miterlimit="10"/><path fill="none" stroke="black" paint-order="fill" d="M 71.5 285.5 L 75.5 285.5 M 71.5 275.5 L 75.5 275.5 M 71.5 265.5 L 75.5 265.5 M 71.5 255.5 L 75.5 255.5 M 71.5 246.5 L 75.5 246.5 M 71.5 236.5 L 75.5 236.5 M 71.5 226.5 L 75.5 226.5 M 71.5 216.5 L 75.5 216.5 M 71.5 206.5 L 75.5 206.5 M 71.5 196.5 L 75.5 196.5 M 71.5 187.5 L 75.5 187.5 M 71.5 177.5 L 75.5 177.5 M 71.5 167.5 L 75.5 167.5 M 71.5 157.5 L 75.5 157.5 M 71.5 147.5 L 75.5 147.5 M 71.5 137.5 L 75.5 137.5 M 71.5 128.5 L 75.5 128.5 M 71.5 118.5 L 75.5 118.5 M 71.5 108.5 L 75.5 108.5 M 71.5 98.5 L 75.5 98.5 M 71.5 88.5 L 75.5 88.5 M 71.5 78.5 L 75.5 78.5 M 71.5 69.5 L 75.5 69.5 M 71.5 59.5 L 75.5 59.5 M 71.5 49.5 L 75.5 49.5 M 71.5 39.5 L 75.5 39.5" stroke-linejoin="bevel" stroke-miterlimit="10"/><text fill="#444444" stroke="none" font-family="helvetica" font-size="10pt" font-style="normal" font-weight="normal" text-decoration="normal" x="57.31666660308838" y="290" text-anchor="start" dominant-baseline="alphabetic" transform="matrix(1, 0, 0, 1, 0.5, 0.5)">0</text><text fill="none" stroke="rgb(0,0,0)" font-family="helvetica" font-size="10pt" font-style="normal" font-weight="normal" text-decoration="normal" x="57.31666660308838" y="290" text-anchor="start" dominant-baseline="alphabetic" transform="matrix(1, 0, 0, 1, 0.5, 0.5)" stroke-opacity="0" stroke-linejoin="bevel" stroke-miterlimit="10">0</text><text fill="#444444" stroke="none" font-family="helvetica" font-size="10pt" font-style="normal" font-weight="normal" text-decoration="normal" x="50.63333320617676" y="240.8067626953125" text-anchor="start" dominant-baseline="alphabetic" transform="matrix(1, 0, 0, 1, 0.5, 0.5)">50</text><text fill="none" stroke="rgb(0,0,0)" font-family="helvetica" font-size="10pt" font-style="normal" font-weight="normal" text-decoration="normal" x="50.63333320617676" y="240.8067626953125" text-anchor="start" dominant-baseline="alphabetic" transform="matrix(1, 0, 0, 1, 0.5, 0.5)" stroke-opacity="0" stroke-linejoin="bevel" stroke-miterlimit="10">50</text><text fill="#444444" stroke="none" font-family="helvetica" font-size="10pt" font-style="normal" font-weight="normal" text-decoration="normal" x="43.95000076293945" y="191.61354064941406" text-anchor="start" dominant-baseline="alphabetic" transform="matrix(1, 0, 0, 1, 0.5, 0.5)">100</text><text fill="none" stroke="rgb(0,0,0)" font-family="helvetica" font-size="10pt" font-style="normal" font-weight="normal" text-decoration="normal" x="43.95000076293945" y="191.61354064941406" text-anchor="start" dominant-baseline="alphabetic" transform="matrix(1, 0, 0, 1, 0.5, 0.5)" stroke-opacity="0" stroke-linejoin="bevel" stroke-miterlimit="10">100</text><text fill="#444444" stroke="none" font-family="helvetica" font-size="10pt" font-style="normal" font-weight="normal" text-decoration="normal" x="43.95000076293945" y="142.42030334472656" text-anchor="start" dominant-baseline="alphabetic" transform="matrix(1, 0, 0, 1, 0.5, 0.5)">150</text><text fill="none" stroke="rgb(0,0,0)" font-family="helvetica" font-size="10pt" font-style="normal" font-weight="normal" text-decoration="normal" x="43.95000076293945" y="142.42030334472656" text-anchor="start" dominant-baseline="alphabetic" transform="matrix(1, 0, 0, 1, 0.5, 0.5)" stroke-opacity="0" stroke-linejoin="bevel" stroke-miterlimit="10">150</text><text fill="#444444" stroke="none" font-family="helvetica" font-size="10pt" font-style="normal" font-weight="normal" text-decoration="normal" x="43.95000076293945" y="93.2270736694336" text-anchor="start" dominant-baseline="alphabetic" transform="matrix(1, 0, 0, 1, 0.5, 0.5)">200</text><text fill="none" stroke="rgb(0,0,0)" font-family="helvetica" font-size="10pt" font-style="normal" font-weight="normal" text-decoration="normal" x="43.95000076293945" y="93.2270736694336" text-anchor="start" dominant-baseline="alphabetic" transform="matrix(1, 0, 0, 1, 0.5, 0.5)" stroke-opacity="0" stroke-linejoin="bevel" stroke-miterlimit="10">200</text><text fill="#444444" stroke="none" font-family="helvetica" font-size="10pt" font-style="normal" font-weight="normal" text-decoration="normal" x="43.95000076293945" y="44.033843994140625" text-anchor="start" dominant-baseline="alphabetic" transform="matrix(1, 0, 0, 1, 0.5, 0.5)">250</text><text fill="none" stroke="rgb(0,0,0)" font-family="helvetica" font-size="10pt" font-style="normal" font-weight="normal" text-decoration="normal" x="43.95000076293945" y="44.033843994140625" text-anchor="start" dominant-baseline="alphabetic" transform="matrix(1, 0, 0, 1, 0.5, 0.5)" stroke-opacity="0" stroke-linejoin="bevel" stroke-miterlimit="10">250</text><text fill="#444444" stroke="none" font-family="helvetica" font-size="12pt" font-style="normal" font-weight="normal" text-decoration="normal" x="-60.25833511352539" y="156" text-anchor="start" dominant-baseline="alphabetic" transform="matrix(6.123233995736766e-17, -1, 1, 6.123233995736766e-17, -123.54999923706055, 196.45000076293945)">Days suitable for transmission</text><text fill="none" stroke="rgb(0,0,0)" font-family="helvetica" font-size="12pt" font-style="normal" font-weight="normal" text-decoration="normal" x="-60.25833511352539" y="156" text-anchor="start" dominant-baseline="alphabetic" transform="matrix(6.123233995736766e-17, -1, 1, 6.123233995736766e-17, -123.54999923706055, 196.45000076293945)" stroke-opacity="0" stroke-linejoin="bevel" stroke-miterlimit="10">Days suitable for transmission</text><text fill="black" stroke="none" font-family="helvetica" font-size="14pt" font-style="normal" font-weight="normal" text-decoration="normal" x="0" y="18" text-anchor="start" dominant-baseline="alphabetic" transform="matrix(1, 0, 0, 1, 5.5, 7.5)">F. ID 006, Islamabad</text><text fill="none" stroke="rgb(0,0,0)" font-family="helvetica" font-size="14pt" font-style="normal" font-weight="normal" text-decoration="normal" x="0" y="18" text-anchor="start" dominant-baseline="alphabetic" transform="matrix(1, 0, 0, 1, 5.5, 7.5)" stroke-opacity="0" stroke-linejoin="bevel" stroke-miterlimit="10">F. ID 006, Islamabad</text></svg>