<svg version="1.1" xmlns="http://www.w3.org/2000/svg" width="600" height="334"><defs><clipPath id="PUkrVLGqVTpz"><path fill="none" stroke="none" d="M 70.5 33.5 L 570.5 33.5 L 570.5 283.5 L 70.5 283.5 L 70.5 33.5 Z"/></clipPath><clipPath id="QoTLmqTvsTCw"><path fill="none" stroke="none" d="M 70.5 33.5 L 570.5 33.5 L 570.5 283.5 L 70.5 283.5 L 70.5 33.5 Z"/></clipPath><clipPath id="bJSKZJmoeOJt"><path fill="none" stroke="none" d="M 70.5 33.5 L 570.5 33.5 L 570.5 283.5 L 70.5 283.5 L 70.5 33.5 Z"/></clipPath><clipPath id="dWwhLkDEFSBh"><path fill="none" stroke="none" d="M 70.5 33.5 L 570.5 33.5 L 570.5 283.5 L 70.5 283.5 L 70.5 33.5 Z"/></clipPath><clipPath id="fIhaWkqRAdeW"><path fill="none" stroke="none" d="M 70.5 33.5 L 570.5 33.5 L 570.5 283.5 L 70.5 283.5 L 70.5 33.5 Z"/></clipPath><clipPath id="lMcsZmPyavuM"><path fill="none" stroke="none" d="M 70.5 33.5 L 570.5 33.5 L 570.5 283.5 L 70.5 283.5 L 70.5 33.5 Z"/></clipPath><clipPath id="VmzGfihypGsJ"><path fill="none" stroke="none" d="M 70.5 33.5 L 570.5 33.5 L 570.5 283.5 L 70.5 283.5 L 70.5 33.5 Z"/></clipPath><clipPath id="ENBuPNiSnDqM"><path fill="none" stroke="none" d="M 70.5 33.5 L 570.5 33.5 L 570.5 283.5 L 70.5 283.5 L 70.5 33.5 Z"/></clipPath><clipPath id="pcOWwcNcAgdp"><path fill="none" stroke="none" d="M 70.5 33.5 L 570.5 33.5 L 570.5 283.5 L 70.5 283.5 L 70.5 33.5 Z"/></clipPath><clipPath id="eRTWrheqHWVr"><path fill="none" stroke="none" d="M 70.5 33.5 L 570.5 33.5 L 570.5 283.5 L 70.5 283.5 L 70.5 33.5 Z"/></clipPath><clipPath id="oUgSUCNuIQNe"><path fill="none" stroke="none" d="M 70.5 33.5 L 570.5 33.5 L 570.5 283.5 L 70.5 283.5 L 70.5 33.5 Z"/></clipPath><clipPath id="hhyQOcTALVFq"><path fill="none" stroke="none" d="M 70.5 33.5 L 570.5 33.5 L 570.5 283.5 L 70.5 283.5 L 70.5 33.5 Z"/></clipPath><clipPath id="NUISHTAEubhc"><path fill="none" stroke="none" d="M 70.5 33.5 L 570.5 33.5 L 570.5 283.5 L 70.5 283.5 L 70.5 33.5 Z"/></clipPath><clipPath id="ZsQLnGcqueVd"><path fill="none" stroke="none" d="M 70.5 33.5 L 570.5 33.5 L 570.5 283.5 L 70.5 283.5 L 70.5 33.5 Z"/></clipPath><clipPath id="vHHXsEodFNNZ"><path fill="none" stroke="none" d="M 70.5 33.5 L 570.5 33.5 L 570.5 283.5 L 70.5 283.5 L 70.5 33.5 Z"/></clipPath><clipPath id="muheHJFbIvZR"><path fill="none" stroke="none" d="M 70.5 33.5 L 570.5 33.5 L 570.5 283.5 L 70.5 283.5 L 70.5 33.5 Z"/></clipPath><clipPath id="olIpnmlgRrKu"><path fill="none" stroke="none" d="M 70.5 33.5 L 570.5 33.5 L 570.5 283.5 L 70.5 283.5 L 70.5 33.5 Z"/></clipPath><clipPath id="HzQukrGTGZGl"><path fill="none" stroke="none" d="M 70.5 33.5 L 570.5 33.5 L 570.5 283.5 L 70.5 283.5 L 70.5 33.5 Z"/></clipPath><clipPath id="dmkferVkHkFk"><path fill="none" stroke="none" d="M 70.5 33.5 L 570.5 33.5 L 570.5 283.5 L 70.5 283.5 L 70.5 33.5 Z"/></clipPath><clipPath id="VEPxVZUtCiqv"><path fill="none" stroke="none" d="M 70.5 33.5 L 570.5 33.5 L 570.5 283.5 L 70.5 283.5 L 70.5 33.5 Z"/></clipPath><clipPath id="heXUMJKKTLyq"><path fill="none" stroke="none" d="M 70.5 33.5 L 570.5 33.5 L 570.5 283.5 L 70.5 283.5 L 70.5 33.5 Z"/></clipPath><clipPath id="SUTxJPBbiTJw"><path fill="none" stroke="none" d="M 70.5 33.5 L 570.5 33.5 L 570.5 283.5 L 70.5 283.5 L 70.5 33.5 Z"/></clipPath><clipPath id="WPzTQhmBxcOW"><path fill="none" stroke="none" d="M 70.5 33.5 L 570.5 33.5 L 570.5 283.5 L 70.5 283.5 L 70.5 33.5 Z"/></clipPath></defs><path fill="none" stroke="#e5e5e5" paint-order="fill" d="M 70.5 33.5 L 570.5 33.5 L 570.5 283.5 L 70.5 283.5 L 70.5 33.5 Z" stroke-linejoin="bevel" stroke-miterlimit="10"/><path fill="none" stroke="black" paint-order="fill" d="M 332.46172248803487 33.5 L 332.46172248803487 283.5" stroke-linejoin="bevel" stroke-miterlimit="10" stroke-width="3" stroke-dasharray="6" clip-path="url(#bJSKZJmoeOJt)"/><path fill="none" stroke="#9467bd" paint-order="fill" d="M 93.2272720336914 128.9545440673828 L 117.15071868896484 210.77272033691406 L 141.07415771484375 150.77272033691406 L 164.9976043701172 161.68182373046875 L 188.92105102539062 170.77272033691406 L 212.84449768066406 145.31817626953125 L 236.7679443359375 145.31817626953125 L 260.6913757324219 94.40908813476562 L 284.6148376464844 161.68182373046875 L 308.53826904296875 121.68181610107422" stroke-linejoin="bevel" stroke-miterlimit="10" stroke-width="2" clip-path="url(#dWwhLkDEFSBh)"/><path fill="none" stroke="#9467bd" paint-order="fill" d="M 93.2272720336914 128.9545440673828 L 117.15071868896484 210.77272033691406 L 141.07415771484375 150.77272033691406 L 164.9976043701172 161.68182373046875 L 188.92105102539062 170.77272033691406 L 212.84449768066406 145.31817626953125 L 236.7679443359375 145.31817626953125 L 260.6913757324219 94.40908813476562 L 284.6148376464844 161.68182373046875 L 308.53826904296875 121.68181610107422" stroke-linejoin="bevel" stroke-miterlimit="10" stroke-width="2" stroke-dasharray="6" clip-path="url(#fIhaWkqRAdeW)"/><path fill="none" stroke="#30a2da" paint-order="fill" d="M 308.53826904296875 121.68181610107422 L 332.46173095703125 139.86363220214844 L 356.3851623535156 163.5 L 380.3086242675781 145.31817626953125 L 404.2320556640625 152.59091186523438 L 428.155517578125 130.77272033691406 L 452.0789489746094 148.9545440673828 L 476.00238037109375 174.40908813476562 L 499.92584228515625 201.68182373046875 L 523.8493041992188 125.31818389892578 L 547.772705078125 158.0454559326172" stroke-linejoin="bevel" stroke-miterlimit="10" stroke-width="2" clip-path="url(#lMcsZmPyavuM)"/><path fill="none" stroke="#30a2da" paint-order="fill" d="M 332.46173095703125 146.9049530029297 L 356.3851623535156 148.49172973632812 L 380.3086242675781 150.07850646972656 L 404.2320556640625 151.665283203125 L 428.155517578125 153.25205993652344 L 452.0789489746094 154.83883666992188 L 476.00238037109375 156.4256134033203 L 499.92584228515625 158.01239013671875 L 523.8493041992188 159.5991668701172 L 547.772705078125 161.18594360351562" stroke-linejoin="bevel" stroke-miterlimit="10" stroke-width="2" stroke-dasharray="6" clip-path="url(#VmzGfihypGsJ)"/><path fill="none" stroke="#fc4f30" paint-order="fill" d="M 308.53826904296875 121.68181610107422 L 332.46173095703125 128.9545440673828 L 356.3851623535156 90.7727279663086 L 380.3086242675781 172.59091186523438 L 404.2320556640625 156.22727966308594 L 428.155517578125 127.13636016845703 L 452.0789489746094 181.68182373046875 L 476.00238037109375 207.13636779785156 L 499.92584228515625 181.68182373046875 L 523.8493041992188 159.86363220214844 L 547.772705078125 121.68181610107422" stroke-linejoin="bevel" stroke-miterlimit="10" stroke-width="2" clip-path="url(#ENBuPNiSnDqM)"/><path fill="none" stroke="#fc4f30" paint-order="fill" d="M 332.46173095703125 134.47520446777344 L 356.3851623535156 138.54132080078125 L 380.3086242675781 142.60743713378906 L 404.2320556640625 146.67355346679688 L 428.155517578125 150.7396697998047 L 452.0789489746094 154.8057861328125 L 476.00238037109375 158.8719024658203 L 499.92584228515625 162.93801879882812 L 523.8493041992188 167.00413513183594 L 547.772705078125 171.07025146484375" stroke-linejoin="bevel" stroke-miterlimit="10" stroke-width="2" stroke-dasharray="6" clip-path="url(#pcOWwcNcAgdp)"/><path fill="none" stroke="rgb(128,128,128)" paint-order="fill" d="M 93.2272720336914 88.95454406738281 L 117.15071868896484 128.9545440673828 L 141.07415771484375 158.0454559326172 L 164.9976043701172 121.68181610107422 L 188.92105102539062 119.86363983154297 L 212.84449768066406 94.40908813476562 L 236.7679443359375 107.13636016845703 L 260.6913757324219 163.5 L 284.6148376464844 141.68182373046875 L 308.53826904296875 99.86363983154297" stroke-opacity="0.7490196078431373" stroke-linejoin="bevel" stroke-miterlimit="10" clip-path="url(#eRTWrheqHWVr)"/><path fill="none" stroke="grey" paint-order="fill" d="M 308.53826904296875 99.86363983154297 L 332.46173095703125 143.5 L 356.3851623535156 125.31818389892578 L 380.3086242675781 161.68182373046875 L 404.2320556640625 165.31817626953125 L 428.155517578125 101.68181610107422 L 452.0789489746094 176.22727966308594 L 476.00238037109375 138.0454559326172 L 499.92584228515625 176.22727966308594 L 523.8493041992188 228.9545440673828 L 547.772705078125 185.31817626953125" stroke-linejoin="bevel" stroke-miterlimit="10" stroke-width="0.5" clip-path="url(#oUgSUCNuIQNe)"/><path fill="none" stroke="grey" paint-order="fill" d="M 308.53826904296875 99.86363983154297 L 332.46173095703125 128.9545440673828 L 356.3851623535156 99.86363983154297 L 380.3086242675781 161.68182373046875 L 404.2320556640625 139.86363220214844 L 428.155517578125 101.68181610107422 L 452.0789489746094 163.5 L 476.00238037109375 159.86363220214844 L 499.92584228515625 183.5 L 523.8493041992188 156.22727966308594 L 547.772705078125 216.22727966308594" stroke-linejoin="bevel" stroke-miterlimit="10" stroke-width="0.5" clip-path="url(#hhyQOcTALVFq)"/><path fill="none" stroke="rgb(128,128,128)" paint-order="fill" d="M 93.2272720336914 132.59091186523438 L 117.15071868896484 188.9545440673828 L 141.07415771484375 152.59091186523438 L 164.9976043701172 158.0454559326172 L 188.92105102539062 188.9545440673828 L 212.84449768066406 143.5 L 236.7679443359375 143.5 L 260.6913757324219 176.22727966308594 L 284.6148376464844 127.13636016845703 L 308.53826904296875 196.22727966308594" stroke-opacity="0.7490196078431373" stroke-linejoin="bevel" stroke-miterlimit="10" clip-path="url(#NUISHTAEubhc)"/><path fill="none" stroke="grey" paint-order="fill" d="M 308.53826904296875 196.22727966308594 L 332.46173095703125 167.13636779785156 L 356.3851623535156 118.04545593261719 L 380.3086242675781 134.40908813476562 L 404.2320556640625 194.40908813476562 L 428.155517578125 88.95454406738281 L 452.0789489746094 148.9545440673828 L 476.00238037109375 99.86363983154297 L 499.92584228515625 98.04545593261719 L 523.8493041992188 216.22727966308594 L 547.772705078125 96.2272720336914" stroke-linejoin="bevel" stroke-miterlimit="10" stroke-width="0.5" clip-path="url(#ZsQLnGcqueVd)"/><path fill="none" stroke="grey" paint-order="fill" d="M 308.53826904296875 196.22727966308594 L 332.46173095703125 170.77272033691406 L 356.3851623535156 210.77272033691406 L 380.3086242675781 132.59091186523438 L 404.2320556640625 132.59091186523438 L 428.155517578125 127.13636016845703 L 452.0789489746094 98.04545593261719 L 476.00238037109375 172.59091186523438 L 499.92584228515625 167.13636779785156 L 523.8493041992188 132.59091186523438 L 547.772705078125 185.31817626953125" stroke-linejoin="bevel" stroke-miterlimit="10" stroke-width="0.5" clip-path="url(#vHHXsEodFNNZ)"/><path fill="none" stroke="rgb(128,128,128)" paint-order="fill" d="M 93.2272720336914 168.9545440673828 L 117.15071868896484 227.13636779785156 L 141.07415771484375 198.0454559326172 L 164.9976043701172 179.86363220214844 L 188.92105102539062 56.227272033691406 L 212.84449768066406 136.22727966308594 L 236.7679443359375 105.31818389892578 L 260.6913757324219 148.9545440673828 L 284.6148376464844 101.68181610107422 L 308.53826904296875 116.2272720336914" stroke-opacity="0.7490196078431373" stroke-linejoin="bevel" stroke-miterlimit="10" clip-path="url(#muheHJFbIvZR)"/><path fill="none" stroke="grey" paint-order="fill" d="M 308.53826904296875 116.2272720336914 L 332.46173095703125 159.86363220214844 L 356.3851623535156 152.59091186523438 L 380.3086242675781 94.40908813476562 L 404.2320556640625 147.13636779785156 L 428.155517578125 147.13636779785156 L 452.0789489746094 167.13636779785156 L 476.00238037109375 214.40908813476562 L 499.92584228515625 168.9545440673828 L 523.8493041992188 139.86363220214844 L 547.772705078125 196.22727966308594" stroke-linejoin="bevel" stroke-miterlimit="10" stroke-width="0.5" clip-path="url(#olIpnmlgRrKu)"/><path fill="none" stroke="grey" paint-order="fill" d="M 308.53826904296875 116.2272720336914 L 332.46173095703125 138.0454559326172 L 356.3851623535156 141.68182373046875 L 380.3086242675781 165.31817626953125 L 404.2320556640625 158.0454559326172 L 428.155517578125 170.77272033691406 L 452.0789489746094 145.31817626953125 L 476.00238037109375 123.5 L 499.92584228515625 98.04545593261719 L 523.8493041992188 216.22727966308594 L 547.772705078125 168.9545440673828" stroke-linejoin="bevel" stroke-miterlimit="10" stroke-width="0.5" clip-path="url(#HzQukrGTGZGl)"/><path fill="none" stroke="rgb(128,128,128)" paint-order="fill" d="M 93.2272720336914 145.31817626953125 L 117.15071868896484 181.68182373046875 L 141.07415771484375 221.68182373046875 L 164.9976043701172 161.68182373046875 L 188.92105102539062 167.13636779785156 L 212.84449768066406 154.40908813476562 L 236.7679443359375 128.9545440673828 L 260.6913757324219 134.40908813476562 L 284.6148376464844 170.77272033691406 L 308.53826904296875 154.40908813476562" stroke-opacity="0.7490196078431373" stroke-linejoin="bevel" stroke-miterlimit="10" clip-path="url(#dmkferVkHkFk)"/><path fill="none" stroke="grey" paint-order="fill" d="M 308.53826904296875 154.40908813476562 L 332.46173095703125 172.59091186523438 L 356.3851623535156 134.40908813476562 L 380.3086242675781 194.40908813476562 L 404.2320556640625 99.86363983154297 L 428.155517578125 176.22727966308594 L 452.0789489746094 165.31817626953125 L 476.00238037109375 221.68182373046875 L 499.92584228515625 201.68182373046875 L 523.8493041992188 134.40908813476562 L 547.772705078125 136.22727966308594" stroke-linejoin="bevel" stroke-miterlimit="10" stroke-width="0.5" clip-path="url(#VEPxVZUtCiqv)"/><path fill="none" stroke="grey" paint-order="fill" d="M 308.53826904296875 154.40908813476562 L 332.46173095703125 170.77272033691406 L 356.3851623535156 176.22727966308594 L 380.3086242675781 176.22727966308594 L 404.2320556640625 159.86363220214844 L 428.155517578125 165.31817626953125 L 452.0789489746094 130.77272033691406 L 476.00238037109375 143.5 L 499.92584228515625 168.9545440673828 L 523.8493041992188 156.22727966308594 L 547.772705078125 174.40908813476562" stroke-linejoin="bevel" stroke-miterlimit="10" stroke-width="0.5" clip-path="url(#heXUMJKKTLyq)"/><path fill="none" stroke="black" paint-order="fill" d="M 70.5 283.5 L 570.5 283.5" stroke-linejoin="bevel" stroke-miterlimit="10"/><path fill="none" stroke="black" paint-order="fill" d="M 93.5 289.5 L 93.5 281.5 M 212.5 289.5 L 212.5 281.5 M 332.5 289.5 L 332.5 281.5 M 452.5 289.5 L 452.5 281.5" stroke-linejoin="bevel" stroke-miterlimit="10"/><path fill="none" stroke="black" paint-order="fill" d="M 93.5 287.5 L 93.5 283.5 M 117.5 287.5 L 117.5 283.5 M 141.5 287.5 L 141.5 283.5 M 164.5 287.5 L 164.5 283.5 M 188.5 287.5 L 188.5 283.5 M 212.5 287.5 L 212.5 283.5 M 236.5 287.5 L 236.5 283.5 M 260.5 287.5 L 260.5 283.5 M 284.5 287.5 L 284.5 283.5 M 308.5 287.5 L 308.5 283.5 M 332.5 287.5 L 332.5 283.5 M 356.5 287.5 L 356.5 283.5 M 380.5 287.5 L 380.5 283.5 M 404.5 287.5 L 404.5 283.5 M 428.5 287.5 L 428.5 283.5 M 452.5 287.5 L 452.5 283.5 M 476.5 287.5 L 476.5 283.5 M 499.5 287.5 L 499.5 283.5 M 523.5 287.5 L 523.5 283.5 M 547.5 287.5 L 547.5 283.5" stroke-linejoin="bevel" stroke-miterlimit="10"/><text fill="#444444" stroke="none" font-family="helvetica" font-size="10pt" font-style="normal" font-weight="normal" text-decoration="normal" x="79.36060523986816" y="304" text-anchor="start" dominant-baseline="alphabetic" transform="matrix(1, 0, 0, 1, 0.5, 0.5)">2025</text><text fill="none" stroke="rgb(0,0,0)" font-family="helvetica" font-size="10pt" font-style="normal" font-weight="normal" text-decoration="normal" x="79.36060523986816" y="304" text-anchor="start" dominant-baseline="alphabetic" transform="matrix(1, 0, 0, 1, 0.5, 0.5)" stroke-opacity="0" stroke-linejoin="bevel" stroke-miterlimit="10">2025</text><text fill="#444444" stroke="none" font-family="helvetica" font-size="10pt" font-style="normal" font-weight="normal" text-decoration="normal" x="198.97783088684082" y="304" text-anchor="start" dominant-baseline="alphabetic" transform="matrix(1, 0, 0, 1, 0.5, 0.5)">2030</text><text fill="none" stroke="rgb(0,0,0)" font-family="helvetica" font-size="10pt" font-style="normal" font-weight="normal" text-decoration="normal" x="198.97783088684082" y="304" text-anchor="start" dominant-baseline="alphabetic" transform="matrix(1, 0, 0, 1, 0.5, 0.5)" stroke-opacity="0" stroke-linejoin="bevel" stroke-miterlimit="10">2030</text><text fill="#444444" stroke="none" font-family="helvetica" font-size="10pt" font-style="normal" font-weight="normal" text-decoration="normal" x="318.595064163208" y="304" text-anchor="start" dominant-baseline="alphabetic" transform="matrix(1, 0, 0, 1, 0.5, 0.5)">2035</text><text fill="none" stroke="rgb(0,0,0)" font-family="helvetica" font-size="10pt" font-style="normal" font-weight="normal" text-decoration="normal" x="318.595064163208" y="304" text-anchor="start" dominant-baseline="alphabetic" transform="matrix(1, 0, 0, 1, 0.5, 0.5)" stroke-opacity="0" stroke-linejoin="bevel" stroke-miterlimit="10">2035</text><text fill="#444444" stroke="none" font-family="helvetica" font-size="10pt" font-style="normal" font-weight="normal" text-decoration="normal" x="438.21228218078613" y="304" text-anchor="start" dominant-baseline="alphabetic" transform="matrix(1, 0, 0, 1, 0.5, 0.5)">2040</text><text fill="none" stroke="rgb(0,0,0)" font-family="helvetica" font-size="10pt" font-style="normal" font-weight="normal" text-decoration="normal" x="438.21228218078613" y="304" text-anchor="start" dominant-baseline="alphabetic" transform="matrix(1, 0, 0, 1, 0.5, 0.5)" stroke-opacity="0" stroke-linejoin="bevel" stroke-miterlimit="10">2040</text><text fill="#444444" stroke="none" font-family="helvetica" font-size="12pt" font-style="normal" font-weight="normal" text-decoration="normal" x="305.3166666030884" y="327" text-anchor="start" dominant-baseline="alphabetic" transform="matrix(1, 0, 0, 1, 0.5, 0.5)">Year</text><text fill="none" stroke="rgb(0,0,0)" font-family="helvetica" font-size="12pt" font-style="normal" font-weight="normal" text-decoration="normal" x="305.3166666030884" y="327" text-anchor="start" dominant-baseline="alphabetic" transform="matrix(1, 0, 0, 1, 0.5, 0.5)" stroke-opacity="0" stroke-linejoin="bevel" stroke-miterlimit="10">Year</text><path fill="none" stroke="black" paint-order="fill" d="M 70.5 283.5 L 70.5 33.5" stroke-linejoin="bevel" stroke-miterlimit="10"/><path fill="none" stroke="black" paint-order="fill" d="M 64.5 283.5 L 72.5 283.5 M 64.5 247.5 L 72.5 247.5 M 64.5 210.5 L 72.5 210.5 M 64.5 174.5 L 72.5 174.5 M 64.5 138.5 L 72.5 138.5 M 64.5 101.5 L 72.5 101.5 M 64.5 65.5 L 72.5 65.5" stroke-linejoin="bevel" stroke-miterlimit="10"/><path fill="none" stroke="black" paint-order="fill" d="M 66.5 283.5 L 70.5 283.5 M 66.5 276.5 L 70.5 276.5 M 66.5 268.5 L 70.5 268.5 M 66.5 261.5 L 70.5 261.5 M 66.5 254.5 L 70.5 254.5 M 66.5 247.5 L 70.5 247.5 M 66.5 239.5 L 70.5 239.5 M 66.5 232.5 L 70.5 232.5 M 66.5 225.5 L 70.5 225.5 M 66.5 218.5 L 70.5 218.5 M 66.5 210.5 L 70.5 210.5 M 66.5 203.5 L 70.5 203.5 M 66.5 196.5 L 70.5 196.5 M 66.5 188.5 L 70.5 188.5 M 66.5 181.5 L 70.5 181.5 M 66.5 174.5 L 70.5 174.5 M 66.5 167.5 L 70.5 167.5 M 66.5 159.5 L 70.5 159.5 M 66.5 152.5 L 70.5 152.5 M 66.5 145.5 L 70.5 145.5 M 66.5 138.5 L 70.5 138.5 M 66.5 130.5 L 70.5 130.5 M 66.5 123.5 L 70.5 123.5 M 66.5 116.5 L 70.5 116.5 M 66.5 108.5 L 70.5 108.5 M 66.5 101.5 L 70.5 101.5 M 66.5 94.5 L 70.5 94.5 M 66.5 87.5 L 70.5 87.5 M 66.5 79.5 L 70.5 79.5 M 66.5 72.5 L 70.5 72.5 M 66.5 65.5 L 70.5 65.5 M 66.5 58.5 L 70.5 58.5 M 66.5 50.5 L 70.5 50.5 M 66.5 43.5 L 70.5 43.5 M 66.5 36.5 L 70.5 36.5" stroke-linejoin="bevel" stroke-miterlimit="10"/><text fill="#444444" stroke="none" font-family="helvetica" font-size="10pt" font-style="normal" font-weight="normal" text-decoration="normal" x="52.31666660308838" y="288" text-anchor="start" dominant-baseline="alphabetic" transform="matrix(1, 0, 0, 1, 0.5, 0.5)">0</text><text fill="none" stroke="rgb(0,0,0)" font-family="helvetica" font-size="10pt" font-style="normal" font-weight="normal" text-decoration="normal" x="52.31666660308838" y="288" text-anchor="start" dominant-baseline="alphabetic" transform="matrix(1, 0, 0, 1, 0.5, 0.5)" stroke-opacity="0" stroke-linejoin="bevel" stroke-miterlimit="10">0</text><text fill="#444444" stroke="none" font-family="helvetica" font-size="10pt" font-style="normal" font-weight="normal" text-decoration="normal" x="45.63333320617676" y="251.63636779785156" text-anchor="start" dominant-baseline="alphabetic" transform="matrix(1, 0, 0, 1, 0.5, 0.5)">20</text><text fill="none" stroke="rgb(0,0,0)" font-family="helvetica" font-size="10pt" font-style="normal" font-weight="normal" text-decoration="normal" x="45.63333320617676" y="251.63636779785156" text-anchor="start" dominant-baseline="alphabetic" transform="matrix(1, 0, 0, 1, 0.5, 0.5)" stroke-opacity="0" stroke-linejoin="bevel" stroke-miterlimit="10">20</text><text fill="#444444" stroke="none" font-family="helvetica" font-size="10pt" font-style="normal" font-weight="normal" text-decoration="normal" x="45.63333320617676" y="215.27272033691406" text-anchor="start" dominant-baseline="alphabetic" transform="matrix(1, 0, 0, 1, 0.5, 0.5)">40</text><text fill="none" stroke="rgb(0,0,0)" font-family="helvetica" font-size="10pt" font-style="normal" font-weight="normal" text-decoration="normal" x="45.63333320617676" y="215.27272033691406" text-anchor="start" dominant-baseline="alphabetic" transform="matrix(1, 0, 0, 1, 0.5, 0.5)" stroke-opacity="0" stroke-linejoin="bevel" stroke-miterlimit="10">40</text><text fill="#444444" stroke="none" font-family="helvetica" font-size="10pt" font-style="normal" font-weight="normal" text-decoration="normal" x="45.63333320617676" y="178.90908813476562" text-anchor="start" dominant-baseline="alphabetic" transform="matrix(1, 0, 0, 1, 0.5, 0.5)">60</text><text fill="none" stroke="rgb(0,0,0)" font-family="helvetica" font-size="10pt" font-style="normal" font-weight="normal" text-decoration="normal" x="45.63333320617676" y="178.90908813476562" text-anchor="start" dominant-baseline="alphabetic" transform="matrix(1, 0, 0, 1, 0.5, 0.5)" stroke-opacity="0" stroke-linejoin="bevel" stroke-miterlimit="10">60</text><text fill="#444444" stroke="none" font-family="helvetica" font-size="10pt" font-style="normal" font-weight="normal" text-decoration="normal" x="45.63333320617676" y="142.5454559326172" text-anchor="start" dominant-baseline="alphabetic" transform="matrix(1, 0, 0, 1, 0.5, 0.5)">80</text><text fill="none" stroke="rgb(0,0,0)" font-family="helvetica" font-size="10pt" font-style="normal" font-weight="normal" text-decoration="normal" x="45.63333320617676" y="142.5454559326172" text-anchor="start" dominant-baseline="alphabetic" transform="matrix(1, 0, 0, 1, 0.5, 0.5)" stroke-opacity="0" stroke-linejoin="bevel" stroke-miterlimit="10">80</text><text fill="#444444" stroke="none" font-family="helvetica" font-size="10pt" font-style="normal" font-weight="normal" text-decoration="normal" x="38.95000076293945" y="106.18181610107422" text-anchor="start" dominant-baseline="alphabetic" transform="matrix(1, 0, 0, 1, 0.5, 0.5)">100</text><text fill="none" stroke="rgb(0,0,0)" font-family="helvetica" font-size="10pt" font-style="normal" font-weight="normal" text-decoration="normal" x="38.95000076293945" y="106.18181610107422" text-anchor="start" dominant-baseline="alphabetic" transform="matrix(1, 0, 0, 1, 0.5, 0.5)" stroke-opacity="0" stroke-linejoin="bevel" stroke-miterlimit="10">100</text><text fill="#444444" stroke="none" font-family="helvetica" font-size="10pt" font-style="normal" font-weight="normal" text-decoration="normal" x="38.95000076293945" y="69.81818389892578" text-anchor="start" dominant-baseline="alphabetic" transform="matrix(1, 0, 0, 1, 0.5, 0.5)">120</text><text fill="none" stroke="rgb(0,0,0)" font-family="helvetica" font-size="10pt" font-style="normal" font-weight="normal" text-decoration="normal" x="38.95000076293945" y="69.81818389892578" text-anchor="start" dominant-baseline="alphabetic" transform="matrix(1, 0, 0, 1, 0.5, 0.5)" stroke-opacity="0" stroke-linejoin="bevel" stroke-miterlimit="10">120</text><text fill="#444444" stroke="none" font-family="helvetica" font-size="12pt" font-style="normal" font-weight="normal" text-decoration="normal" x="-65.25833511352539" y="154" text-anchor="start" dominant-baseline="alphabetic" transform="matrix(6.123233995736766e-17, -1, 1, 6.123233995736766e-17, -126.54999923706055, 189.45000076293945)">Days suitable for transmission</text><text fill="none" stroke="rgb(0,0,0)" font-family="helvetica" font-size="12pt" font-style="normal" font-weight="normal" text-decoration="normal" x="-65.25833511352539" y="154" text-anchor="start" dominant-baseline="alphabetic" transform="matrix(6.123233995736766e-17, -1, 1, 6.123233995736766e-17, -126.54999923706055, 189.45000076293945)" stroke-opacity="0" stroke-linejoin="bevel" stroke-miterlimit="10">Days suitable for transmission</text><path fill="rgb(255,255,255)" stroke="rgb(229,229,229)" paint-order="fill" d="M 477.0333251953125 208.5 L 560.4999847412109 208.5 L 560.4999847412109 273.5 L 477.0333251953125 273.5 L 477.0333251953125 208.5 Z" fill-opacity="0.9490196078431372" clip-path="url(#SUTxJPBbiTJw)" stroke-opacity="0.5019607843137255" stroke-linejoin="bevel" stroke-miterlimit="10"/><g clip-path="url(#SUTxJPBbiTJw)"><g transform="matrix(1, 0, 0, 1, 487.5333251953125, 219)"><path fill="none" stroke="#30a2da" paint-order="fill" d="M 0.5 10.5 L 20.5 10.5" stroke-linejoin="bevel" stroke-miterlimit="10" stroke-width="2"/></g></g><g clip-path="url(#SUTxJPBbiTJw)"><text fill="#444444" stroke="none" font-family="helvetica" font-size="13px" font-style="normal" font-weight="normal" text-decoration="normal" x="512.5333251953125" y="233.5" text-anchor="start" dominant-baseline="alphabetic" transform="matrix(1, 0, 0, 1, 0.5, 0.5)">ID 001</text></g><g clip-path="url(#SUTxJPBbiTJw)"><text fill="none" stroke="rgb(0,0,0)" font-family="helvetica" font-size="13px" font-style="normal" font-weight="normal" text-decoration="normal" x="512.5333251953125" y="233.5" text-anchor="start" dominant-baseline="alphabetic" transform="matrix(1, 0, 0, 1, 0.5, 0.5)" stroke-opacity="0" stroke-linejoin="bevel" stroke-miterlimit="10">ID 001</text></g><g clip-path="url(#SUTxJPBbiTJw)"><g transform="matrix(1, 0, 0, 1, 487.5333251953125, 242)"><path fill="none" stroke="#fc4f30" paint-order="fill" d="M 0.5 10.5 L 20.5 10.5" stroke-linejoin="bevel" stroke-miterlimit="10" stroke-width="2"/></g></g><g clip-path="url(#SUTxJPBbiTJw)"><text fill="#444444" stroke="none" font-family="helvetica" font-size="13px" font-style="normal" font-weight="normal" text-decoration="normal" x="512.5333251953125" y="256.5" text-anchor="start" dominant-baseline="alphabetic" transform="matrix(1, 0, 0, 1, 0.5, 0.5)">ID 006</text></g><g clip-path="url(#SUTxJPBbiTJw)"><text fill="none" stroke="rgb(0,0,0)" font-family="helvetica" font-size="13px" font-style="normal" font-weight="normal" text-decoration="normal" x="512.5333251953125" y="256.5" text-anchor="start" dominant-baseline="alphabetic" transform="matrix(1, 0, 0, 1, 0.5, 0.5)" stroke-opacity="0" stroke-linejoin="bevel" stroke-miterlimit="10">ID 006</text></g><text fill="black" stroke="none" font-family="helvetica" font-size="14pt" font-style="normal" font-weight="normal" text-decoration="normal" x="0" y="18" text-anchor="start" dominant-baseline="alphabetic" transform="matrix(1, 0, 0, 1, 5.5, 5.5)">C. Addis Ababa</text><text fill="none" stroke="rgb(0,0,0)" font-family="helvetica" font-size="14pt" font-style="normal" font-weight="normal" text-decoration="normal" x="0" y="18" text-anchor="start" dominant-baseline="alphabetic" transform="matrix(1, 0, 0, 1, 5.5, 5.5)" stroke-opacity="0" stroke-linejoin="bevel" stroke-miterlimit="10">C. Addis Ababa</text></svg>