<svg version="1.1" xmlns="http://www.w3.org/2000/svg" width="600" height="334"><defs><clipPath id="LWBNCvCiMdRU"><path fill="none" stroke="none" d="M 70.5 33.5 L 570.5 33.5 L 570.5 283.5 L 70.5 283.5 L 70.5 33.5 Z"/></clipPath><clipPath id="qTsXKrTDAXCz"><path fill="none" stroke="none" d="M 70.5 33.5 L 570.5 33.5 L 570.5 283.5 L 70.5 283.5 L 70.5 33.5 Z"/></clipPath><clipPath id="KAUTPZEuiGLA"><path fill="none" stroke="none" d="M 70.5 33.5 L 570.5 33.5 L 570.5 283.5 L 70.5 283.5 L 70.5 33.5 Z"/></clipPath><clipPath id="usWDuKwKTPwl"><path fill="none" stroke="none" d="M 70.5 33.5 L 570.5 33.5 L 570.5 283.5 L 70.5 283.5 L 70.5 33.5 Z"/></clipPath><clipPath id="PuItfbwGwKdd"><path fill="none" stroke="none" d="M 70.5 33.5 L 570.5 33.5 L 570.5 283.5 L 70.5 283.5 L 70.5 33.5 Z"/></clipPath><clipPath id="zBNtmLvhwrxg"><path fill="none" stroke="none" d="M 70.5 33.5 L 570.5 33.5 L 570.5 283.5 L 70.5 283.5 L 70.5 33.5 Z"/></clipPath><clipPath id="VPwEWbuQTDGl"><path fill="none" stroke="none" d="M 70.5 33.5 L 570.5 33.5 L 570.5 283.5 L 70.5 283.5 L 70.5 33.5 Z"/></clipPath><clipPath id="KNtanFcLUTRB"><path fill="none" stroke="none" d="M 70.5 33.5 L 570.5 33.5 L 570.5 283.5 L 70.5 283.5 L 70.5 33.5 Z"/></clipPath><clipPath id="QGcIALJaeuPc"><path fill="none" stroke="none" d="M 70.5 33.5 L 570.5 33.5 L 570.5 283.5 L 70.5 283.5 L 70.5 33.5 Z"/></clipPath><clipPath id="HWQlKidrRFVa"><path fill="none" stroke="none" d="M 70.5 33.5 L 570.5 33.5 L 570.5 283.5 L 70.5 283.5 L 70.5 33.5 Z"/></clipPath><clipPath id="DTTuxiDecTKh"><path fill="none" stroke="none" d="M 70.5 33.5 L 570.5 33.5 L 570.5 283.5 L 70.5 283.5 L 70.5 33.5 Z"/></clipPath><clipPath id="ruFMHSyrrzca"><path fill="none" stroke="none" d="M 70.5 33.5 L 570.5 33.5 L 570.5 283.5 L 70.5 283.5 L 70.5 33.5 Z"/></clipPath><clipPath id="qzmOVVEeDegF"><path fill="none" stroke="none" d="M 70.5 33.5 L 570.5 33.5 L 570.5 283.5 L 70.5 283.5 L 70.5 33.5 Z"/></clipPath><clipPath id="ccraXakFQKiq"><path fill="none" stroke="none" d="M 70.5 33.5 L 570.5 33.5 L 570.5 283.5 L 70.5 283.5 L 70.5 33.5 Z"/></clipPath><clipPath id="wTRTHVFrHnoF"><path fill="none" stroke="none" d="M 70.5 33.5 L 570.5 33.5 L 570.5 283.5 L 70.5 283.5 L 70.5 33.5 Z"/></clipPath><clipPath id="rLCNCtqlMXOi"><path fill="none" stroke="none" d="M 70.5 33.5 L 570.5 33.5 L 570.5 283.5 L 70.5 283.5 L 70.5 33.5 Z"/></clipPath><clipPath id="ydmtAHIxVZim"><path fill="none" stroke="none" d="M 70.5 33.5 L 570.5 33.5 L 570.5 283.5 L 70.5 283.5 L 70.5 33.5 Z"/></clipPath><clipPath id="ZHRoxHnyUswa"><path fill="none" stroke="none" d="M 70.5 33.5 L 570.5 33.5 L 570.5 283.5 L 70.5 283.5 L 70.5 33.5 Z"/></clipPath><clipPath id="RbRvicHamTbF"><path fill="none" stroke="none" d="M 70.5 33.5 L 570.5 33.5 L 570.5 283.5 L 70.5 283.5 L 70.5 33.5 Z"/></clipPath><clipPath id="uMSgVyUPyGZA"><path fill="none" stroke="none" d="M 70.5 33.5 L 570.5 33.5 L 570.5 283.5 L 70.5 283.5 L 70.5 33.5 Z"/></clipPath><clipPath id="ywBTvTmlJWZC"><path fill="none" stroke="none" d="M 70.5 33.5 L 570.5 33.5 L 570.5 283.5 L 70.5 283.5 L 70.5 33.5 Z"/></clipPath><clipPath id="xRUJoFsUOWrE"><path fill="none" stroke="none" d="M 70.5 33.5 L 570.5 33.5 L 570.5 283.5 L 70.5 283.5 L 70.5 33.5 Z"/></clipPath><clipPath id="wQMJPnbTCvdD"><path fill="none" stroke="none" d="M 70.5 33.5 L 570.5 33.5 L 570.5 283.5 L 70.5 283.5 L 70.5 33.5 Z"/></clipPath></defs><path fill="none" stroke="#e5e5e5" paint-order="fill" d="M 70.5 33.5 L 570.5 33.5 L 570.5 283.5 L 70.5 283.5 L 70.5 33.5 Z" stroke-linejoin="bevel" stroke-miterlimit="10"/><path fill="none" stroke="black" paint-order="fill" d="M 332.46172248803487 33.5 L 332.46172248803487 283.5" stroke-linejoin="bevel" stroke-miterlimit="10" stroke-width="3" stroke-dasharray="6" clip-path="url(#KAUTPZEuiGLA)"/><path fill="none" stroke="#9467bd" paint-order="fill" d="M 93.2272720336914 91.49372863769531 L 117.15071868896484 96.1959228515625 L 141.07415771484375 77.38714599609375 L 164.9976043701172 82.87303924560547 L 188.92105102539062 81.3056411743164 L 212.84449768066406 83.65673828125 L 236.7679443359375 70.33385467529297 L 260.6913757324219 93.06112670898438 L 284.6148376464844 67.19905853271484 L 308.53826904296875 67.19905853271484" stroke-linejoin="bevel" stroke-miterlimit="10" stroke-width="2" clip-path="url(#usWDuKwKTPwl)"/><path fill="none" stroke="#9467bd" paint-order="fill" d="M 93.2272720336914 91.49372863769531 L 117.15071868896484 96.1959228515625 L 141.07415771484375 77.38714599609375 L 164.9976043701172 82.87303924560547 L 188.92105102539062 81.3056411743164 L 212.84449768066406 83.65673828125 L 236.7679443359375 70.33385467529297 L 260.6913757324219 93.06112670898438 L 284.6148376464844 67.19905853271484 L 308.53826904296875 67.19905853271484" stroke-linejoin="bevel" stroke-miterlimit="10" stroke-width="2" stroke-dasharray="6" clip-path="url(#PuItfbwGwKdd)"/><path fill="none" stroke="#30a2da" paint-order="fill" d="M 308.53826904296875 67.19905853271484 L 332.46173095703125 72.68495178222656 L 356.3851623535156 73.4686508178711 L 380.3086242675781 68.7664566040039 L 404.2320556640625 77.38714599609375 L 428.155517578125 69.55015563964844 L 452.0789489746094 78.17084503173828 L 476.00238037109375 74.25234985351562 L 499.92584228515625 78.17084503173828 L 523.8493041992188 88.35893249511719 L 547.772705078125 86.0078353881836" stroke-linejoin="bevel" stroke-miterlimit="10" stroke-width="2" clip-path="url(#zBNtmLvhwrxg)"/><path fill="none" stroke="#30a2da" paint-order="fill" d="M 332.46173095703125 69.30792236328125 L 356.3851623535156 70.94656372070312 L 380.3086242675781 72.58521270751953 L 404.2320556640625 74.2238540649414 L 428.155517578125 75.86249542236328 L 452.0789489746094 77.50113677978516 L 476.00238037109375 79.13978576660156 L 499.92584228515625 80.77842712402344 L 523.8493041992188 82.41706848144531 L 547.772705078125 84.05571746826172" stroke-linejoin="bevel" stroke-miterlimit="10" stroke-width="2" stroke-dasharray="6" clip-path="url(#VPwEWbuQTDGl)"/><path fill="none" stroke="#fc4f30" paint-order="fill" d="M 308.53826904296875 67.19905853271484 L 332.46173095703125 93.06112670898438 L 356.3851623535156 76.60344696044922 L 380.3086242675781 107.16770935058594 L 404.2320556640625 86.0078353881836 L 428.155517578125 93.06112670898438 L 452.0789489746094 77.38714599609375 L 476.00238037109375 90.71002960205078 L 499.92584228515625 74.25234985351562 L 523.8493041992188 93.06112670898438 L 547.772705078125 78.95454406738281" stroke-linejoin="bevel" stroke-miterlimit="10" stroke-width="2" clip-path="url(#KNtanFcLUTRB)"/><path fill="none" stroke="#fc4f30" paint-order="fill" d="M 332.46173095703125 91.87845611572266 L 356.3851623535156 90.80027770996094 L 380.3086242675781 89.72209930419922 L 404.2320556640625 88.64391326904297 L 428.155517578125 87.56573486328125 L 452.0789489746094 86.48755645751953 L 476.00238037109375 85.40937805175781 L 499.92584228515625 84.3311996459961 L 523.8493041992188 83.25301361083984 L 547.772705078125 82.17483520507812" stroke-linejoin="bevel" stroke-miterlimit="10" stroke-width="2" stroke-dasharray="6" clip-path="url(#QGcIALJaeuPc)"/><path fill="none" stroke="rgb(128,128,128)" paint-order="fill" d="M 93.2272720336914 81.3056411743164 L 117.15071868896484 103.24921417236328 L 141.07415771484375 100.89811706542969 L 164.9976043701172 74.25234985351562 L 188.92105102539062 81.3056411743164 L 212.84449768066406 88.35893249511719 L 236.7679443359375 78.95454406738281 L 260.6913757324219 70.33385467529297 L 284.6148376464844 66.41535949707031 L 308.53826904296875 94.62852478027344" stroke-opacity="0.7490196078431373" stroke-linejoin="bevel" stroke-miterlimit="10" clip-path="url(#HWQlKidrRFVa)"/><path fill="none" stroke="grey" paint-order="fill" d="M 308.53826904296875 94.62852478027344 L 332.46173095703125 60.929466247558594 L 356.3851623535156 76.60344696044922 L 380.3086242675781 72.68495178222656 L 404.2320556640625 70.33385467529297 L 428.155517578125 83.65673828125 L 452.0789489746094 96.1959228515625 L 476.00238037109375 64.84796142578125 L 499.92584228515625 82.87303924560547 L 523.8493041992188 76.60344696044922 L 547.772705078125 73.4686508178711" stroke-linejoin="bevel" stroke-miterlimit="10" stroke-width="0.5" clip-path="url(#DTTuxiDecTKh)"/><path fill="none" stroke="grey" paint-order="fill" d="M 308.53826904296875 94.62852478027344 L 332.46173095703125 82.08934020996094 L 356.3851623535156 56.227272033691406 L 380.3086242675781 82.87303924560547 L 404.2320556640625 69.55015563964844 L 428.155517578125 80.52194213867188 L 452.0789489746094 74.25234985351562 L 476.00238037109375 92.27742767333984 L 499.92584228515625 57.79467010498047 L 523.8493041992188 75.03604888916016 L 547.772705078125 68.7664566040039" stroke-linejoin="bevel" stroke-miterlimit="10" stroke-width="0.5" clip-path="url(#ruFMHSyrrzca)"/><path fill="none" stroke="rgb(128,128,128)" paint-order="fill" d="M 93.2272720336914 78.95454406738281 L 117.15071868896484 96.97962188720703 L 141.07415771484375 78.95454406738281 L 164.9976043701172 93.8448257446289 L 188.92105102539062 70.33385467529297 L 212.84449768066406 75.81974792480469 L 236.7679443359375 94.62852478027344 L 260.6913757324219 71.90125274658203 L 284.6148376464844 78.17084503173828 L 308.53826904296875 105.60031127929688" stroke-opacity="0.7490196078431373" stroke-linejoin="bevel" stroke-miterlimit="10" clip-path="url(#qzmOVVEeDegF)"/><path fill="none" stroke="grey" paint-order="fill" d="M 308.53826904296875 105.60031127929688 L 332.46173095703125 92.27742767333984 L 356.3851623535156 67.19905853271484 L 380.3086242675781 100.89811706542969 L 404.2320556640625 82.87303924560547 L 428.155517578125 80.52194213867188 L 452.0789489746094 93.06112670898438 L 476.00238037109375 78.17084503173828 L 499.92584228515625 75.81974792480469 L 523.8493041992188 78.17084503173828 L 547.772705078125 100.11441802978516" stroke-linejoin="bevel" stroke-miterlimit="10" stroke-width="0.5" clip-path="url(#ccraXakFQKiq)"/><path fill="none" stroke="grey" paint-order="fill" d="M 308.53826904296875 105.60031127929688 L 332.46173095703125 93.8448257446289 L 356.3851623535156 72.68495178222656 L 380.3086242675781 96.97962188720703 L 404.2320556640625 92.27742767333984 L 428.155517578125 104.03291320800781 L 452.0789489746094 86.0078353881836 L 476.00238037109375 99.33071899414062 L 499.92584228515625 90.71002960205078 L 523.8493041992188 89.14263153076172 L 547.772705078125 71.90125274658203" stroke-linejoin="bevel" stroke-miterlimit="10" stroke-width="0.5" clip-path="url(#wTRTHVFrHnoF)"/><path fill="none" stroke="rgb(128,128,128)" paint-order="fill" d="M 93.2272720336914 85.22413635253906 L 117.15071868896484 74.25234985351562 L 141.07415771484375 100.89811706542969 L 164.9976043701172 75.81974792480469 L 188.92105102539062 70.33385467529297 L 212.84449768066406 78.17084503173828 L 236.7679443359375 99.33071899414062 L 260.6913757324219 101.68181610107422 L 284.6148376464844 97.76332092285156 L 308.53826904296875 70.33385467529297" stroke-opacity="0.7490196078431373" stroke-linejoin="bevel" stroke-miterlimit="10" clip-path="url(#rLCNCtqlMXOi)"/><path fill="none" stroke="grey" paint-order="fill" d="M 308.53826904296875 70.33385467529297 L 332.46173095703125 86.79153442382812 L 356.3851623535156 91.49372863769531 L 380.3086242675781 93.06112670898438 L 404.2320556640625 65.63166046142578 L 428.155517578125 74.25234985351562 L 452.0789489746094 60.929466247558594 L 476.00238037109375 73.4686508178711 L 499.92584228515625 93.8448257446289 L 523.8493041992188 98.5470199584961 L 547.772705078125 83.65673828125" stroke-linejoin="bevel" stroke-miterlimit="10" stroke-width="0.5" clip-path="url(#ydmtAHIxVZim)"/><path fill="none" stroke="grey" paint-order="fill" d="M 308.53826904296875 70.33385467529297 L 332.46173095703125 80.52194213867188 L 356.3851623535156 67.19905853271484 L 380.3086242675781 67.98275756835938 L 404.2320556640625 71.1175537109375 L 428.155517578125 71.90125274658203 L 452.0789489746094 94.62852478027344 L 476.00238037109375 75.81974792480469 L 499.92584228515625 100.89811706542969 L 523.8493041992188 71.90125274658203 L 547.772705078125 80.52194213867188" stroke-linejoin="bevel" stroke-miterlimit="10" stroke-width="0.5" clip-path="url(#ZHRoxHnyUswa)"/><path fill="none" stroke="rgb(128,128,128)" paint-order="fill" d="M 93.2272720336914 65.63166046142578 L 117.15071868896484 65.63166046142578 L 141.07415771484375 71.90125274658203 L 164.9976043701172 104.03291320800781 L 188.92105102539062 90.71002960205078 L 212.84449768066406 73.4686508178711 L 236.7679443359375 106.3840103149414 L 260.6913757324219 76.60344696044922 L 284.6148376464844 80.52194213867188 L 308.53826904296875 81.3056411743164" stroke-opacity="0.7490196078431373" stroke-linejoin="bevel" stroke-miterlimit="10" clip-path="url(#RbRvicHamTbF)"/><path fill="none" stroke="grey" paint-order="fill" d="M 308.53826904296875 81.3056411743164 L 332.46173095703125 85.22413635253906 L 356.3851623535156 104.81661224365234 L 380.3086242675781 80.52194213867188 L 404.2320556640625 74.25234985351562 L 428.155517578125 67.19905853271484 L 452.0789489746094 71.90125274658203 L 476.00238037109375 86.0078353881836 L 499.92584228515625 68.7664566040039 L 523.8493041992188 75.81974792480469 L 547.772705078125 98.5470199584961" stroke-linejoin="bevel" stroke-miterlimit="10" stroke-width="0.5" clip-path="url(#uMSgVyUPyGZA)"/><path fill="none" stroke="grey" paint-order="fill" d="M 308.53826904296875 81.3056411743164 L 332.46173095703125 78.95454406738281 L 356.3851623535156 85.22413635253906 L 380.3086242675781 77.38714599609375 L 404.2320556640625 81.3056411743164 L 428.155517578125 79.73824310302734 L 452.0789489746094 86.79153442382812 L 476.00238037109375 91.49372863769531 L 499.92584228515625 87.57523345947266 L 523.8493041992188 111.86990356445312 L 547.772705078125 65.63166046142578" stroke-linejoin="bevel" stroke-miterlimit="10" stroke-width="0.5" clip-path="url(#ywBTvTmlJWZC)"/><path fill="none" stroke="black" paint-order="fill" d="M 70.5 283.5 L 570.5 283.5" stroke-linejoin="bevel" stroke-miterlimit="10"/><path fill="none" stroke="black" paint-order="fill" d="M 93.5 289.5 L 93.5 281.5 M 212.5 289.5 L 212.5 281.5 M 332.5 289.5 L 332.5 281.5 M 452.5 289.5 L 452.5 281.5" stroke-linejoin="bevel" stroke-miterlimit="10"/><path fill="none" stroke="black" paint-order="fill" d="M 93.5 287.5 L 93.5 283.5 M 117.5 287.5 L 117.5 283.5 M 141.5 287.5 L 141.5 283.5 M 164.5 287.5 L 164.5 283.5 M 188.5 287.5 L 188.5 283.5 M 212.5 287.5 L 212.5 283.5 M 236.5 287.5 L 236.5 283.5 M 260.5 287.5 L 260.5 283.5 M 284.5 287.5 L 284.5 283.5 M 308.5 287.5 L 308.5 283.5 M 332.5 287.5 L 332.5 283.5 M 356.5 287.5 L 356.5 283.5 M 380.5 287.5 L 380.5 283.5 M 404.5 287.5 L 404.5 283.5 M 428.5 287.5 L 428.5 283.5 M 452.5 287.5 L 452.5 283.5 M 476.5 287.5 L 476.5 283.5 M 499.5 287.5 L 499.5 283.5 M 523.5 287.5 L 523.5 283.5 M 547.5 287.5 L 547.5 283.5" stroke-linejoin="bevel" stroke-miterlimit="10"/><text fill="#444444" stroke="none" font-family="helvetica" font-size="10pt" font-style="normal" font-weight="normal" text-decoration="normal" x="79.36060523986816" y="304" text-anchor="start" dominant-baseline="alphabetic" transform="matrix(1, 0, 0, 1, 0.5, 0.5)">2025</text><text fill="none" stroke="rgb(0,0,0)" font-family="helvetica" font-size="10pt" font-style="normal" font-weight="normal" text-decoration="normal" x="79.36060523986816" y="304" text-anchor="start" dominant-baseline="alphabetic" transform="matrix(1, 0, 0, 1, 0.5, 0.5)" stroke-opacity="0" stroke-linejoin="bevel" stroke-miterlimit="10">2025</text><text fill="#444444" stroke="none" font-family="helvetica" font-size="10pt" font-style="normal" font-weight="normal" text-decoration="normal" x="198.97783088684082" y="304" text-anchor="start" dominant-baseline="alphabetic" transform="matrix(1, 0, 0, 1, 0.5, 0.5)">2030</text><text fill="none" stroke="rgb(0,0,0)" font-family="helvetica" font-size="10pt" font-style="normal" font-weight="normal" text-decoration="normal" x="198.97783088684082" y="304" text-anchor="start" dominant-baseline="alphabetic" transform="matrix(1, 0, 0, 1, 0.5, 0.5)" stroke-opacity="0" stroke-linejoin="bevel" stroke-miterlimit="10">2030</text><text fill="#444444" stroke="none" font-family="helvetica" font-size="10pt" font-style="normal" font-weight="normal" text-decoration="normal" x="318.595064163208" y="304" text-anchor="start" dominant-baseline="alphabetic" transform="matrix(1, 0, 0, 1, 0.5, 0.5)">2035</text><text fill="none" stroke="rgb(0,0,0)" font-family="helvetica" font-size="10pt" font-style="normal" font-weight="normal" text-decoration="normal" x="318.595064163208" y="304" text-anchor="start" dominant-baseline="alphabetic" transform="matrix(1, 0, 0, 1, 0.5, 0.5)" stroke-opacity="0" stroke-linejoin="bevel" stroke-miterlimit="10">2035</text><text fill="#444444" stroke="none" font-family="helvetica" font-size="10pt" font-style="normal" font-weight="normal" text-decoration="normal" x="438.21228218078613" y="304" text-anchor="start" dominant-baseline="alphabetic" transform="matrix(1, 0, 0, 1, 0.5, 0.5)">2040</text><text fill="none" stroke="rgb(0,0,0)" font-family="helvetica" font-size="10pt" font-style="normal" font-weight="normal" text-decoration="normal" x="438.21228218078613" y="304" text-anchor="start" dominant-baseline="alphabetic" transform="matrix(1, 0, 0, 1, 0.5, 0.5)" stroke-opacity="0" stroke-linejoin="bevel" stroke-miterlimit="10">2040</text><text fill="#444444" stroke="none" font-family="helvetica" font-size="12pt" font-style="normal" font-weight="normal" text-decoration="normal" x="305.3166666030884" y="327" text-anchor="start" dominant-baseline="alphabetic" transform="matrix(1, 0, 0, 1, 0.5, 0.5)">Year</text><text fill="none" stroke="rgb(0,0,0)" font-family="helvetica" font-size="12pt" font-style="normal" font-weight="normal" text-decoration="normal" x="305.3166666030884" y="327" text-anchor="start" dominant-baseline="alphabetic" transform="matrix(1, 0, 0, 1, 0.5, 0.5)" stroke-opacity="0" stroke-linejoin="bevel" stroke-miterlimit="10">Year</text><path fill="none" stroke="black" paint-order="fill" d="M 70.5 283.5 L 70.5 33.5" stroke-linejoin="bevel" stroke-miterlimit="10"/><path fill="none" stroke="black" paint-order="fill" d="M 64.5 283.5 L 72.5 283.5 M 64.5 244.5 L 72.5 244.5 M 64.5 205.5 L 72.5 205.5 M 64.5 165.5 L 72.5 165.5 M 64.5 126.5 L 72.5 126.5 M 64.5 87.5 L 72.5 87.5 M 64.5 48.5 L 72.5 48.5" stroke-linejoin="bevel" stroke-miterlimit="10"/><path fill="none" stroke="black" paint-order="fill" d="M 66.5 283.5 L 70.5 283.5 M 66.5 275.5 L 70.5 275.5 M 66.5 267.5 L 70.5 267.5 M 66.5 259.5 L 70.5 259.5 M 66.5 252.5 L 70.5 252.5 M 66.5 244.5 L 70.5 244.5 M 66.5 236.5 L 70.5 236.5 M 66.5 228.5 L 70.5 228.5 M 66.5 220.5 L 70.5 220.5 M 66.5 212.5 L 70.5 212.5 M 66.5 205.5 L 70.5 205.5 M 66.5 197.5 L 70.5 197.5 M 66.5 189.5 L 70.5 189.5 M 66.5 181.5 L 70.5 181.5 M 66.5 173.5 L 70.5 173.5 M 66.5 165.5 L 70.5 165.5 M 66.5 158.5 L 70.5 158.5 M 66.5 150.5 L 70.5 150.5 M 66.5 142.5 L 70.5 142.5 M 66.5 134.5 L 70.5 134.5 M 66.5 126.5 L 70.5 126.5 M 66.5 118.5 L 70.5 118.5 M 66.5 111.5 L 70.5 111.5 M 66.5 103.5 L 70.5 103.5 M 66.5 95.5 L 70.5 95.5 M 66.5 87.5 L 70.5 87.5 M 66.5 79.5 L 70.5 79.5 M 66.5 71.5 L 70.5 71.5 M 66.5 64.5 L 70.5 64.5 M 66.5 56.5 L 70.5 56.5 M 66.5 48.5 L 70.5 48.5 M 66.5 40.5 L 70.5 40.5" stroke-linejoin="bevel" stroke-miterlimit="10"/><text fill="#444444" stroke="none" font-family="helvetica" font-size="10pt" font-style="normal" font-weight="normal" text-decoration="normal" x="52.31666660308838" y="288" text-anchor="start" dominant-baseline="alphabetic" transform="matrix(1, 0, 0, 1, 0.5, 0.5)">0</text><text fill="none" stroke="rgb(0,0,0)" font-family="helvetica" font-size="10pt" font-style="normal" font-weight="normal" text-decoration="normal" x="52.31666660308838" y="288" text-anchor="start" dominant-baseline="alphabetic" transform="matrix(1, 0, 0, 1, 0.5, 0.5)" stroke-opacity="0" stroke-linejoin="bevel" stroke-miterlimit="10">0</text><text fill="#444444" stroke="none" font-family="helvetica" font-size="10pt" font-style="normal" font-weight="normal" text-decoration="normal" x="45.63333320617676" y="248.81504821777344" text-anchor="start" dominant-baseline="alphabetic" transform="matrix(1, 0, 0, 1, 0.5, 0.5)">50</text><text fill="none" stroke="rgb(0,0,0)" font-family="helvetica" font-size="10pt" font-style="normal" font-weight="normal" text-decoration="normal" x="45.63333320617676" y="248.81504821777344" text-anchor="start" dominant-baseline="alphabetic" transform="matrix(1, 0, 0, 1, 0.5, 0.5)" stroke-opacity="0" stroke-linejoin="bevel" stroke-miterlimit="10">50</text><text fill="#444444" stroke="none" font-family="helvetica" font-size="10pt" font-style="normal" font-weight="normal" text-decoration="normal" x="38.95000076293945" y="209.63009643554688" text-anchor="start" dominant-baseline="alphabetic" transform="matrix(1, 0, 0, 1, 0.5, 0.5)">100</text><text fill="none" stroke="rgb(0,0,0)" font-family="helvetica" font-size="10pt" font-style="normal" font-weight="normal" text-decoration="normal" x="38.95000076293945" y="209.63009643554688" text-anchor="start" dominant-baseline="alphabetic" transform="matrix(1, 0, 0, 1, 0.5, 0.5)" stroke-opacity="0" stroke-linejoin="bevel" stroke-miterlimit="10">100</text><text fill="#444444" stroke="none" font-family="helvetica" font-size="10pt" font-style="normal" font-weight="normal" text-decoration="normal" x="38.95000076293945" y="170.4451446533203" text-anchor="start" dominant-baseline="alphabetic" transform="matrix(1, 0, 0, 1, 0.5, 0.5)">150</text><text fill="none" stroke="rgb(0,0,0)" font-family="helvetica" font-size="10pt" font-style="normal" font-weight="normal" text-decoration="normal" x="38.95000076293945" y="170.4451446533203" text-anchor="start" dominant-baseline="alphabetic" transform="matrix(1, 0, 0, 1, 0.5, 0.5)" stroke-opacity="0" stroke-linejoin="bevel" stroke-miterlimit="10">150</text><text fill="#444444" stroke="none" font-family="helvetica" font-size="10pt" font-style="normal" font-weight="normal" text-decoration="normal" x="38.95000076293945" y="131.26018524169922" text-anchor="start" dominant-baseline="alphabetic" transform="matrix(1, 0, 0, 1, 0.5, 0.5)">200</text><text fill="none" stroke="rgb(0,0,0)" font-family="helvetica" font-size="10pt" font-style="normal" font-weight="normal" text-decoration="normal" x="38.95000076293945" y="131.26018524169922" text-anchor="start" dominant-baseline="alphabetic" transform="matrix(1, 0, 0, 1, 0.5, 0.5)" stroke-opacity="0" stroke-linejoin="bevel" stroke-miterlimit="10">200</text><text fill="#444444" stroke="none" font-family="helvetica" font-size="10pt" font-style="normal" font-weight="normal" text-decoration="normal" x="38.95000076293945" y="92.07523345947266" text-anchor="start" dominant-baseline="alphabetic" transform="matrix(1, 0, 0, 1, 0.5, 0.5)">250</text><text fill="none" stroke="rgb(0,0,0)" font-family="helvetica" font-size="10pt" font-style="normal" font-weight="normal" text-decoration="normal" x="38.95000076293945" y="92.07523345947266" text-anchor="start" dominant-baseline="alphabetic" transform="matrix(1, 0, 0, 1, 0.5, 0.5)" stroke-opacity="0" stroke-linejoin="bevel" stroke-miterlimit="10">250</text><text fill="#444444" stroke="none" font-family="helvetica" font-size="10pt" font-style="normal" font-weight="normal" text-decoration="normal" x="38.95000076293945" y="52.890281677246094" text-anchor="start" dominant-baseline="alphabetic" transform="matrix(1, 0, 0, 1, 0.5, 0.5)">300</text><text fill="none" stroke="rgb(0,0,0)" font-family="helvetica" font-size="10pt" font-style="normal" font-weight="normal" text-decoration="normal" x="38.95000076293945" y="52.890281677246094" text-anchor="start" dominant-baseline="alphabetic" transform="matrix(1, 0, 0, 1, 0.5, 0.5)" stroke-opacity="0" stroke-linejoin="bevel" stroke-miterlimit="10">300</text><text fill="#444444" stroke="none" font-family="helvetica" font-size="12pt" font-style="normal" font-weight="normal" text-decoration="normal" x="-65.25833511352539" y="154" text-anchor="start" dominant-baseline="alphabetic" transform="matrix(6.123233995736766e-17, -1, 1, 6.123233995736766e-17, -126.54999923706055, 189.45000076293945)">Days suitable for transmission</text><text fill="none" stroke="rgb(0,0,0)" font-family="helvetica" font-size="12pt" font-style="normal" font-weight="normal" text-decoration="normal" x="-65.25833511352539" y="154" text-anchor="start" dominant-baseline="alphabetic" transform="matrix(6.123233995736766e-17, -1, 1, 6.123233995736766e-17, -126.54999923706055, 189.45000076293945)" stroke-opacity="0" stroke-linejoin="bevel" stroke-miterlimit="10">Days suitable for transmission</text><path fill="rgb(255,255,255)" stroke="rgb(229,229,229)" paint-order="fill" d="M 477.0333251953125 208.5 L 560.4999847412109 208.5 L 560.4999847412109 273.5 L 477.0333251953125 273.5 L 477.0333251953125 208.5 Z" fill-opacity="0.9490196078431372" clip-path="url(#xRUJoFsUOWrE)" stroke-opacity="0.5019607843137255" stroke-linejoin="bevel" stroke-miterlimit="10"/><g clip-path="url(#xRUJoFsUOWrE)"><g transform="matrix(1, 0, 0, 1, 487.5333251953125, 219)"><path fill="none" stroke="#30a2da" paint-order="fill" d="M 0.5 10.5 L 20.5 10.5" stroke-linejoin="bevel" stroke-miterlimit="10" stroke-width="2"/></g></g><g clip-path="url(#xRUJoFsUOWrE)"><text fill="#444444" stroke="none" font-family="helvetica" font-size="13px" font-style="normal" font-weight="normal" text-decoration="normal" x="512.5333251953125" y="233.5" text-anchor="start" dominant-baseline="alphabetic" transform="matrix(1, 0, 0, 1, 0.5, 0.5)">ID 001</text></g><g clip-path="url(#xRUJoFsUOWrE)"><text fill="none" stroke="rgb(0,0,0)" font-family="helvetica" font-size="13px" font-style="normal" font-weight="normal" text-decoration="normal" x="512.5333251953125" y="233.5" text-anchor="start" dominant-baseline="alphabetic" transform="matrix(1, 0, 0, 1, 0.5, 0.5)" stroke-opacity="0" stroke-linejoin="bevel" stroke-miterlimit="10">ID 001</text></g><g clip-path="url(#xRUJoFsUOWrE)"><g transform="matrix(1, 0, 0, 1, 487.5333251953125, 242)"><path fill="none" stroke="#fc4f30" paint-order="fill" d="M 0.5 10.5 L 20.5 10.5" stroke-linejoin="bevel" stroke-miterlimit="10" stroke-width="2"/></g></g><g clip-path="url(#xRUJoFsUOWrE)"><text fill="#444444" stroke="none" font-family="helvetica" font-size="13px" font-style="normal" font-weight="normal" text-decoration="normal" x="512.5333251953125" y="256.5" text-anchor="start" dominant-baseline="alphabetic" transform="matrix(1, 0, 0, 1, 0.5, 0.5)">ID 006</text></g><g clip-path="url(#xRUJoFsUOWrE)"><text fill="none" stroke="rgb(0,0,0)" font-family="helvetica" font-size="13px" font-style="normal" font-weight="normal" text-decoration="normal" x="512.5333251953125" y="256.5" text-anchor="start" dominant-baseline="alphabetic" transform="matrix(1, 0, 0, 1, 0.5, 0.5)" stroke-opacity="0" stroke-linejoin="bevel" stroke-miterlimit="10">ID 006</text></g><text fill="black" stroke="none" font-family="helvetica" font-size="14pt" font-style="normal" font-weight="normal" text-decoration="normal" x="0" y="18" text-anchor="start" dominant-baseline="alphabetic" transform="matrix(1, 0, 0, 1, 5.5, 5.5)">D. New Delhi</text><text fill="none" stroke="rgb(0,0,0)" font-family="helvetica" font-size="14pt" font-style="normal" font-weight="normal" text-decoration="normal" x="0" y="18" text-anchor="start" dominant-baseline="alphabetic" transform="matrix(1, 0, 0, 1, 5.5, 5.5)" stroke-opacity="0" stroke-linejoin="bevel" stroke-miterlimit="10">D. New Delhi</text></svg>