<svg version="1.1" xmlns="http://www.w3.org/2000/svg" width="600" height="329"><defs><clipPath id="zFgyVwLqTGQy"><path fill="none" stroke="none" d="M 70.5 30.5 L 570.5 30.5 L 570.5 280.5 L 70.5 280.5 L 70.5 30.5 Z"/></clipPath><clipPath id="oMUrqxzUhkAc"><path fill="none" stroke="none" d="M 70.5 30.5 L 570.5 30.5 L 570.5 280.5 L 70.5 280.5 L 70.5 30.5 Z"/></clipPath><clipPath id="LylPndaJqdai"><path fill="none" stroke="none" d="M 70.5 30.5 L 570.5 30.5 L 570.5 280.5 L 70.5 280.5 L 70.5 30.5 Z"/></clipPath><clipPath id="mRNfUVEopsQV"><path fill="none" stroke="none" d="M 70.5 30.5 L 570.5 30.5 L 570.5 280.5 L 70.5 280.5 L 70.5 30.5 Z"/></clipPath><clipPath id="OZbtkaiyvEkl"><path fill="none" stroke="none" d="M 70.5 30.5 L 570.5 30.5 L 570.5 280.5 L 70.5 280.5 L 70.5 30.5 Z"/></clipPath><clipPath id="DoDNSeScaRNz"><path fill="none" stroke="none" d="M 70.5 30.5 L 570.5 30.5 L 570.5 280.5 L 70.5 280.5 L 70.5 30.5 Z"/></clipPath><clipPath id="GfmDtosqAOId"><path fill="none" stroke="none" d="M 70.5 30.5 L 570.5 30.5 L 570.5 280.5 L 70.5 280.5 L 70.5 30.5 Z"/></clipPath><clipPath id="qCSELrXtVVLG"><path fill="none" stroke="none" d="M 70.5 30.5 L 570.5 30.5 L 570.5 280.5 L 70.5 280.5 L 70.5 30.5 Z"/></clipPath><clipPath id="sJkIDlKMoDQQ"><path fill="none" stroke="none" d="M 70.5 30.5 L 570.5 30.5 L 570.5 280.5 L 70.5 280.5 L 70.5 30.5 Z"/></clipPath><clipPath id="PhwoJOnXQQNF"><path fill="none" stroke="none" d="M 70.5 30.5 L 570.5 30.5 L 570.5 280.5 L 70.5 280.5 L 70.5 30.5 Z"/></clipPath><clipPath id="SsGWQKxqyWlF"><path fill="none" stroke="none" d="M 70.5 30.5 L 570.5 30.5 L 570.5 280.5 L 70.5 280.5 L 70.5 30.5 Z"/></clipPath><clipPath id="cEnHJSJWNpTW"><path fill="none" stroke="none" d="M 70.5 30.5 L 570.5 30.5 L 570.5 280.5 L 70.5 280.5 L 70.5 30.5 Z"/></clipPath><clipPath id="sDAUTxnkcENr"><path fill="none" stroke="none" d="M 70.5 30.5 L 570.5 30.5 L 570.5 280.5 L 70.5 280.5 L 70.5 30.5 Z"/></clipPath><clipPath id="ODJGbeWlDUgc"><path fill="none" stroke="none" d="M 70.5 30.5 L 570.5 30.5 L 570.5 280.5 L 70.5 280.5 L 70.5 30.5 Z"/></clipPath><clipPath id="ozcTsTFtlKNc"><path fill="none" stroke="none" d="M 70.5 30.5 L 570.5 30.5 L 570.5 280.5 L 70.5 280.5 L 70.5 30.5 Z"/></clipPath><clipPath id="fEJTXLkdyfeM"><path fill="none" stroke="none" d="M 70.5 30.5 L 570.5 30.5 L 570.5 280.5 L 70.5 280.5 L 70.5 30.5 Z"/></clipPath><clipPath id="RXdLfeTKsUhV"><path fill="none" stroke="none" d="M 70.5 30.5 L 570.5 30.5 L 570.5 280.5 L 70.5 280.5 L 70.5 30.5 Z"/></clipPath><clipPath id="HNmrDyRNGycT"><path fill="none" stroke="none" d="M 70.5 30.5 L 570.5 30.5 L 570.5 280.5 L 70.5 280.5 L 70.5 30.5 Z"/></clipPath><clipPath id="OMZHggynysTt"><path fill="none" stroke="none" d="M 70.5 30.5 L 570.5 30.5 L 570.5 280.5 L 70.5 280.5 L 70.5 30.5 Z"/></clipPath><clipPath id="gCNQGPanaTGs"><path fill="none" stroke="none" d="M 70.5 30.5 L 570.5 30.5 L 570.5 280.5 L 70.5 280.5 L 70.5 30.5 Z"/></clipPath><clipPath id="WOGJsSeubcCe"><path fill="none" stroke="none" d="M 70.5 30.5 L 570.5 30.5 L 570.5 280.5 L 70.5 280.5 L 70.5 30.5 Z"/></clipPath><clipPath id="LnbdCktqdPgE"><path fill="none" stroke="none" d="M 70.5 30.5 L 570.5 30.5 L 570.5 280.5 L 70.5 280.5 L 70.5 30.5 Z"/></clipPath><clipPath id="kOUWNiepIOWS"><path fill="none" stroke="none" d="M 70.5 30.5 L 570.5 30.5 L 570.5 280.5 L 70.5 280.5 L 70.5 30.5 Z"/></clipPath></defs><path fill="none" stroke="#e5e5e5" paint-order="fill" d="M 70.5 30.5 L 570.5 30.5 L 570.5 280.5 L 70.5 280.5 L 70.5 30.5 Z" stroke-linejoin="bevel" stroke-miterlimit="10"/><path fill="none" stroke="black" paint-order="fill" d="M 332.46172248803487 30.5 L 332.46172248803487 280.5" stroke-linejoin="bevel" stroke-miterlimit="10" stroke-width="3" stroke-dasharray="6" clip-path="url(#LylPndaJqdai)"/><path fill="none" stroke="#9467bd" paint-order="fill" d="M 93.2272720336914 120.638671875 L 117.15071868896484 87.89599609375 L 141.07415771484375 91.74807739257812 L 164.9976043701172 95.60015106201172 L 188.92105102539062 134.12095642089844 L 212.84449768066406 75.3767318725586 L 236.7679443359375 88.85901641845703 L 260.6913757324219 116.7865982055664 L 284.6148376464844 78.26579284667969 L 308.53826904296875 72.4876708984375" stroke-linejoin="bevel" stroke-miterlimit="10" stroke-width="2" clip-path="url(#mRNfUVEopsQV)"/><path fill="none" stroke="#9467bd" paint-order="fill" d="M 93.2272720336914 120.638671875 L 117.15071868896484 87.89599609375 L 141.07415771484375 91.74807739257812 L 164.9976043701172 95.60015106201172 L 188.92105102539062 134.12095642089844 L 212.84449768066406 75.3767318725586 L 236.7679443359375 88.85901641845703 L 260.6913757324219 116.7865982055664 L 284.6148376464844 78.26579284667969 L 308.53826904296875 72.4876708984375" stroke-linejoin="bevel" stroke-miterlimit="10" stroke-width="2" stroke-dasharray="6" clip-path="url(#OZbtkaiyvEkl)"/><path fill="none" stroke="#30a2da" paint-order="fill" d="M 308.53826904296875 72.4876708984375 L 332.46173095703125 84.04391479492188 L 356.3851623535156 83.08089447021484 L 380.3086242675781 73.45069122314453 L 404.2320556640625 92.71109771728516 L 428.155517578125 95.60015106201172 L 452.0789489746094 85.96995544433594 L 476.00238037109375 91.74807739257812 L 499.92584228515625 104.267333984375 L 523.8493041992188 59.968414306640625 L 547.772705078125 103.30431365966797" stroke-linejoin="bevel" stroke-miterlimit="10" stroke-width="2" clip-path="url(#DoDNSeScaRNz)"/><path fill="none" stroke="#30a2da" paint-order="fill" d="M 332.46173095703125 83.23847961425781 L 356.3851623535156 84.1664810180664 L 380.3086242675781 85.094482421875 L 404.2320556640625 86.0224838256836 L 428.155517578125 86.95048522949219 L 452.0789489746094 87.87848663330078 L 476.00238037109375 88.80648803710938 L 499.92584228515625 89.73448944091797 L 523.8493041992188 90.66249084472656 L 547.772705078125 91.59049224853516" stroke-linejoin="bevel" stroke-miterlimit="10" stroke-width="2" stroke-dasharray="6" clip-path="url(#GfmDtosqAOId)"/><path fill="none" stroke="#fc4f30" paint-order="fill" d="M 308.53826904296875 72.4876708984375 L 332.46173095703125 118.71263122558594 L 356.3851623535156 75.3767318725586 L 380.3086242675781 93.67411041259766 L 404.2320556640625 112.93451690673828 L 428.155517578125 55.15331268310547 L 452.0789489746094 91.74807739257812 L 476.00238037109375 78.26579284667969 L 499.92584228515625 84.04391479492188 L 523.8493041992188 61.89445114135742 L 547.772705078125 90.7850570678711" stroke-linejoin="bevel" stroke-miterlimit="10" stroke-width="2" clip-path="url(#qCSELrXtVVLG)"/><path fill="none" stroke="#fc4f30" paint-order="fill" d="M 332.46173095703125 98.83940124511719 L 356.3851623535156 96.0437240600586 L 380.3086242675781 93.248046875 L 404.2320556640625 90.45237731933594 L 428.155517578125 87.65670013427734 L 452.0789489746094 84.86102294921875 L 476.00238037109375 82.06534576416016 L 499.92584228515625 79.26966857910156 L 523.8493041992188 76.47399139404297 L 547.772705078125 73.67831420898438" stroke-linejoin="bevel" stroke-miterlimit="10" stroke-width="2" stroke-dasharray="6" clip-path="url(#sJkIDlKMoDQQ)"/><path fill="none" stroke="rgb(128,128,128)" paint-order="fill" d="M 93.2272720336914 85.96995544433594 L 117.15071868896484 90.7850570678711 L 141.07415771484375 82.11787414550781 L 164.9976043701172 89.82203674316406 L 188.92105102539062 64.78351593017578 L 212.84449768066406 77.30277252197266 L 236.7679443359375 102.34129333496094 L 260.6913757324219 73.45069122314453 L 284.6148376464844 68.63558959960938 L 308.53826904296875 82.11787414550781" stroke-opacity="0.7490196078431373" stroke-linejoin="bevel" stroke-miterlimit="10" clip-path="url(#PhwoJOnXQQNF)"/><path fill="none" stroke="grey" paint-order="fill" d="M 308.53826904296875 82.11787414550781 L 332.46173095703125 111.00847625732422 L 356.3851623535156 80.19183349609375 L 380.3086242675781 92.71109771728516 L 404.2320556640625 102.34129333496094 L 428.155517578125 80.19183349609375 L 452.0789489746094 117.74961853027344 L 476.00238037109375 85.0069351196289 L 499.92584228515625 66.70955657958984 L 523.8493041992188 87.89599609375 L 547.772705078125 100.41525268554688" stroke-linejoin="bevel" stroke-miterlimit="10" stroke-width="0.5" clip-path="url(#SsGWQKxqyWlF)"/><path fill="none" stroke="grey" paint-order="fill" d="M 308.53826904296875 82.11787414550781 L 332.46173095703125 130.2688751220703 L 356.3851623535156 91.74807739257812 L 380.3086242675781 103.30431365966797 L 404.2320556640625 124.49075317382812 L 428.155517578125 114.86055755615234 L 452.0789489746094 79.22881317138672 L 476.00238037109375 71.52465057373047 L 499.92584228515625 120.638671875 L 523.8493041992188 55.15331268310547 L 547.772705078125 93.67411041259766" stroke-linejoin="bevel" stroke-miterlimit="10" stroke-width="0.5" clip-path="url(#cEnHJSJWNpTW)"/><path fill="none" stroke="rgb(128,128,128)" paint-order="fill" d="M 93.2272720336914 89.82203674316406 L 117.15071868896484 99.45223236083984 L 141.07415771484375 81.15485382080078 L 164.9976043701172 104.267333984375 L 188.92105102539062 98.48921203613281 L 212.84449768066406 72.4876708984375 L 236.7679443359375 87.89599609375 L 260.6913757324219 94.63713073730469 L 284.6148376464844 62.85747146606445 L 308.53826904296875 91.74807739257812" stroke-opacity="0.7490196078431373" stroke-linejoin="bevel" stroke-miterlimit="10" clip-path="url(#sDAUTxnkcENr)"/><path fill="none" stroke="grey" paint-order="fill" d="M 308.53826904296875 91.74807739257812 L 332.46173095703125 111.97149658203125 L 356.3851623535156 86.93297576904297 L 380.3086242675781 87.89599609375 L 404.2320556640625 75.3767318725586 L 428.155517578125 80.19183349609375 L 452.0789489746094 92.71109771728516 L 476.00238037109375 101.3782730102539 L 499.92584228515625 108.11941528320312 L 523.8493041992188 79.22881317138672 L 547.772705078125 106.19337463378906" stroke-linejoin="bevel" stroke-miterlimit="10" stroke-width="0.5" clip-path="url(#ODJGbeWlDUgc)"/><path fill="none" stroke="grey" paint-order="fill" d="M 308.53826904296875 91.74807739257812 L 332.46173095703125 112.93451690673828 L 356.3851623535156 96.56317138671875 L 380.3086242675781 70.56163024902344 L 404.2320556640625 100.41525268554688 L 428.155517578125 108.11941528320312 L 452.0789489746094 73.45069122314453 L 476.00238037109375 98.48921203613281 L 499.92584228515625 89.82203674316406 L 523.8493041992188 92.71109771728516 L 547.772705078125 82.11787414550781" stroke-linejoin="bevel" stroke-miterlimit="10" stroke-width="0.5" clip-path="url(#ozcTsTFtlKNc)"/><path fill="none" stroke="rgb(128,128,128)" paint-order="fill" d="M 93.2272720336914 92.71109771728516 L 117.15071868896484 64.78351593017578 L 141.07415771484375 89.82203674316406 L 164.9976043701172 104.267333984375 L 188.92105102539062 69.5986099243164 L 212.84449768066406 120.638671875 L 236.7679443359375 118.71263122558594 L 260.6913757324219 96.56317138671875 L 284.6148376464844 101.3782730102539 L 308.53826904296875 81.15485382080078" stroke-opacity="0.7490196078431373" stroke-linejoin="bevel" stroke-miterlimit="10" clip-path="url(#fEJTXLkdyfeM)"/><path fill="none" stroke="grey" paint-order="fill" d="M 308.53826904296875 81.15485382080078 L 332.46173095703125 92.71109771728516 L 356.3851623535156 65.74653625488281 L 380.3086242675781 66.70955657958984 L 404.2320556640625 102.34129333496094 L 428.155517578125 112.93451690673828 L 452.0789489746094 71.52465057373047 L 476.00238037109375 85.0069351196289 L 499.92584228515625 70.56163024902344 L 523.8493041992188 102.34129333496094 L 547.772705078125 89.82203674316406" stroke-linejoin="bevel" stroke-miterlimit="10" stroke-width="0.5" clip-path="url(#RXdLfeTKsUhV)"/><path fill="none" stroke="grey" paint-order="fill" d="M 308.53826904296875 81.15485382080078 L 332.46173095703125 84.04391479492188 L 356.3851623535156 101.3782730102539 L 380.3086242675781 104.267333984375 L 404.2320556640625 86.93297576904297 L 428.155517578125 65.74653625488281 L 452.0789489746094 108.11941528320312 L 476.00238037109375 98.48921203613281 L 499.92584228515625 91.74807739257812 L 523.8493041992188 108.11941528320312 L 547.772705078125 99.45223236083984" stroke-linejoin="bevel" stroke-miterlimit="10" stroke-width="0.5" clip-path="url(#HNmrDyRNGycT)"/><path fill="none" stroke="rgb(128,128,128)" paint-order="fill" d="M 93.2272720336914 103.30431365966797 L 117.15071868896484 74.41371154785156 L 141.07415771484375 90.7850570678711 L 164.9976043701172 90.7850570678711 L 188.92105102539062 120.638671875 L 212.84449768066406 93.67411041259766 L 236.7679443359375 88.85901641845703 L 260.6913757324219 107.1563949584961 L 284.6148376464844 92.71109771728516 L 308.53826904296875 104.267333984375" stroke-opacity="0.7490196078431373" stroke-linejoin="bevel" stroke-miterlimit="10" clip-path="url(#OMZHggynysTt)"/><path fill="none" stroke="grey" paint-order="fill" d="M 308.53826904296875 104.267333984375 L 332.46173095703125 104.267333984375 L 356.3851623535156 102.34129333496094 L 380.3086242675781 90.7850570678711 L 404.2320556640625 112.93451690673828 L 428.155517578125 89.82203674316406 L 452.0789489746094 88.85901641845703 L 476.00238037109375 111.97149658203125 L 499.92584228515625 113.89753723144531 L 523.8493041992188 63.820491790771484 L 547.772705078125 53.227272033691406" stroke-linejoin="bevel" stroke-miterlimit="10" stroke-width="0.5" clip-path="url(#gCNQGPanaTGs)"/><path fill="none" stroke="grey" paint-order="fill" d="M 308.53826904296875 104.267333984375 L 332.46173095703125 117.74961853027344 L 356.3851623535156 111.97149658203125 L 380.3086242675781 95.60015106201172 L 404.2320556640625 90.7850570678711 L 428.155517578125 85.0069351196289 L 452.0789489746094 87.89599609375 L 476.00238037109375 112.93451690673828 L 499.92584228515625 91.74807739257812 L 523.8493041992188 87.89599609375 L 547.772705078125 64.78351593017578" stroke-linejoin="bevel" stroke-miterlimit="10" stroke-width="0.5" clip-path="url(#WOGJsSeubcCe)"/><path fill="none" stroke="black" paint-order="fill" d="M 70.5 280.5 L 570.5 280.5" stroke-linejoin="bevel" stroke-miterlimit="10"/><path fill="none" stroke="black" paint-order="fill" d="M 93.5 286.5 L 93.5 278.5 M 212.5 286.5 L 212.5 278.5 M 332.5 286.5 L 332.5 278.5 M 452.5 286.5 L 452.5 278.5" stroke-linejoin="bevel" stroke-miterlimit="10"/><path fill="none" stroke="black" paint-order="fill" d="M 93.5 284.5 L 93.5 280.5 M 117.5 284.5 L 117.5 280.5 M 141.5 284.5 L 141.5 280.5 M 164.5 284.5 L 164.5 280.5 M 188.5 284.5 L 188.5 280.5 M 212.5 284.5 L 212.5 280.5 M 236.5 284.5 L 236.5 280.5 M 260.5 284.5 L 260.5 280.5 M 284.5 284.5 L 284.5 280.5 M 308.5 284.5 L 308.5 280.5 M 332.5 284.5 L 332.5 280.5 M 356.5 284.5 L 356.5 280.5 M 380.5 284.5 L 380.5 280.5 M 404.5 284.5 L 404.5 280.5 M 428.5 284.5 L 428.5 280.5 M 452.5 284.5 L 452.5 280.5 M 476.5 284.5 L 476.5 280.5 M 499.5 284.5 L 499.5 280.5 M 523.5 284.5 L 523.5 280.5 M 547.5 284.5 L 547.5 280.5" stroke-linejoin="bevel" stroke-miterlimit="10"/><text fill="#444444" stroke="none" font-family="helvetica" font-size="10pt" font-style="normal" font-weight="normal" text-decoration="normal" x="77.86060523986816" y="301" text-anchor="start" dominant-baseline="alphabetic" transform="matrix(1, 0, 0, 1, 0.5, 0.5)">2025</text><text fill="none" stroke="rgb(0,0,0)" font-family="helvetica" font-size="10pt" font-style="normal" font-weight="normal" text-decoration="normal" x="77.86060523986816" y="301" text-anchor="start" dominant-baseline="alphabetic" transform="matrix(1, 0, 0, 1, 0.5, 0.5)" stroke-opacity="0" stroke-linejoin="bevel" stroke-miterlimit="10">2025</text><text fill="#444444" stroke="none" font-family="helvetica" font-size="10pt" font-style="normal" font-weight="normal" text-decoration="normal" x="197.47783088684082" y="301" text-anchor="start" dominant-baseline="alphabetic" transform="matrix(1, 0, 0, 1, 0.5, 0.5)">2030</text><text fill="none" stroke="rgb(0,0,0)" font-family="helvetica" font-size="10pt" font-style="normal" font-weight="normal" text-decoration="normal" x="197.47783088684082" y="301" text-anchor="start" dominant-baseline="alphabetic" transform="matrix(1, 0, 0, 1, 0.5, 0.5)" stroke-opacity="0" stroke-linejoin="bevel" stroke-miterlimit="10">2030</text><text fill="#444444" stroke="none" font-family="helvetica" font-size="10pt" font-style="normal" font-weight="normal" text-decoration="normal" x="317.095064163208" y="301" text-anchor="start" dominant-baseline="alphabetic" transform="matrix(1, 0, 0, 1, 0.5, 0.5)">2035</text><text fill="none" stroke="rgb(0,0,0)" font-family="helvetica" font-size="10pt" font-style="normal" font-weight="normal" text-decoration="normal" x="317.095064163208" y="301" text-anchor="start" dominant-baseline="alphabetic" transform="matrix(1, 0, 0, 1, 0.5, 0.5)" stroke-opacity="0" stroke-linejoin="bevel" stroke-miterlimit="10">2035</text><text fill="#444444" stroke="none" font-family="helvetica" font-size="10pt" font-style="normal" font-weight="normal" text-decoration="normal" x="436.71228218078613" y="301" text-anchor="start" dominant-baseline="alphabetic" transform="matrix(1, 0, 0, 1, 0.5, 0.5)">2040</text><text fill="none" stroke="rgb(0,0,0)" font-family="helvetica" font-size="10pt" font-style="normal" font-weight="normal" text-decoration="normal" x="436.71228218078613" y="301" text-anchor="start" dominant-baseline="alphabetic" transform="matrix(1, 0, 0, 1, 0.5, 0.5)" stroke-opacity="0" stroke-linejoin="bevel" stroke-miterlimit="10">2040</text><text fill="#444444" stroke="none" font-family="helvetica" font-size="12pt" font-style="normal" font-weight="normal" text-decoration="normal" x="303.8500003814697" y="321" text-anchor="start" dominant-baseline="alphabetic" transform="matrix(1, 0, 0, 1, 0.5, 0.5)">Year</text><text fill="none" stroke="rgb(0,0,0)" font-family="helvetica" font-size="12pt" font-style="normal" font-weight="normal" text-decoration="normal" x="303.8500003814697" y="321" text-anchor="start" dominant-baseline="alphabetic" transform="matrix(1, 0, 0, 1, 0.5, 0.5)" stroke-opacity="0" stroke-linejoin="bevel" stroke-miterlimit="10">Year</text><path fill="none" stroke="black" paint-order="fill" d="M 70.5 280.5 L 70.5 30.5" stroke-linejoin="bevel" stroke-miterlimit="10"/><path fill="none" stroke="black" paint-order="fill" d="M 64.5 280.5 L 72.5 280.5 M 64.5 232.5 L 72.5 232.5 M 64.5 184.5 L 72.5 184.5 M 64.5 136.5 L 72.5 136.5 M 64.5 87.5 L 72.5 87.5 M 64.5 39.5 L 72.5 39.5" stroke-linejoin="bevel" stroke-miterlimit="10"/><path fill="none" stroke="black" paint-order="fill" d="M 66.5 280.5 L 70.5 280.5 M 66.5 270.5 L 70.5 270.5 M 66.5 261.5 L 70.5 261.5 M 66.5 251.5 L 70.5 251.5 M 66.5 241.5 L 70.5 241.5 M 66.5 232.5 L 70.5 232.5 M 66.5 222.5 L 70.5 222.5 M 66.5 213.5 L 70.5 213.5 M 66.5 203.5 L 70.5 203.5 M 66.5 193.5 L 70.5 193.5 M 66.5 184.5 L 70.5 184.5 M 66.5 174.5 L 70.5 174.5 M 66.5 164.5 L 70.5 164.5 M 66.5 155.5 L 70.5 155.5 M 66.5 145.5 L 70.5 145.5 M 66.5 136.5 L 70.5 136.5 M 66.5 126.5 L 70.5 126.5 M 66.5 116.5 L 70.5 116.5 M 66.5 107.5 L 70.5 107.5 M 66.5 97.5 L 70.5 97.5 M 66.5 87.5 L 70.5 87.5 M 66.5 78.5 L 70.5 78.5 M 66.5 68.5 L 70.5 68.5 M 66.5 59.5 L 70.5 59.5 M 66.5 49.5 L 70.5 49.5 M 66.5 39.5 L 70.5 39.5" stroke-linejoin="bevel" stroke-miterlimit="10"/><text fill="#444444" stroke="none" font-family="helvetica" font-size="10pt" font-style="normal" font-weight="normal" text-decoration="normal" x="51.56666660308838" y="285" text-anchor="start" dominant-baseline="alphabetic" transform="matrix(1, 0, 0, 1, 0.5, 0.5)">0</text><text fill="none" stroke="rgb(0,0,0)" font-family="helvetica" font-size="10pt" font-style="normal" font-weight="normal" text-decoration="normal" x="51.56666660308838" y="285" text-anchor="start" dominant-baseline="alphabetic" transform="matrix(1, 0, 0, 1, 0.5, 0.5)" stroke-opacity="0" stroke-linejoin="bevel" stroke-miterlimit="10">0</text><text fill="#444444" stroke="none" font-family="helvetica" font-size="10pt" font-style="normal" font-weight="normal" text-decoration="normal" x="44.13333320617676" y="236.8489990234375" text-anchor="start" dominant-baseline="alphabetic" transform="matrix(1, 0, 0, 1, 0.5, 0.5)">50</text><text fill="none" stroke="rgb(0,0,0)" font-family="helvetica" font-size="10pt" font-style="normal" font-weight="normal" text-decoration="normal" x="44.13333320617676" y="236.8489990234375" text-anchor="start" dominant-baseline="alphabetic" transform="matrix(1, 0, 0, 1, 0.5, 0.5)" stroke-opacity="0" stroke-linejoin="bevel" stroke-miterlimit="10">50</text><text fill="#444444" stroke="none" font-family="helvetica" font-size="10pt" font-style="normal" font-weight="normal" text-decoration="normal" x="36.70000076293945" y="188.697998046875" text-anchor="start" dominant-baseline="alphabetic" transform="matrix(1, 0, 0, 1, 0.5, 0.5)">100</text><text fill="none" stroke="rgb(0,0,0)" font-family="helvetica" font-size="10pt" font-style="normal" font-weight="normal" text-decoration="normal" x="36.70000076293945" y="188.697998046875" text-anchor="start" dominant-baseline="alphabetic" transform="matrix(1, 0, 0, 1, 0.5, 0.5)" stroke-opacity="0" stroke-linejoin="bevel" stroke-miterlimit="10">100</text><text fill="#444444" stroke="none" font-family="helvetica" font-size="10pt" font-style="normal" font-weight="normal" text-decoration="normal" x="36.70000076293945" y="140.5469970703125" text-anchor="start" dominant-baseline="alphabetic" transform="matrix(1, 0, 0, 1, 0.5, 0.5)">150</text><text fill="none" stroke="rgb(0,0,0)" font-family="helvetica" font-size="10pt" font-style="normal" font-weight="normal" text-decoration="normal" x="36.70000076293945" y="140.5469970703125" text-anchor="start" dominant-baseline="alphabetic" transform="matrix(1, 0, 0, 1, 0.5, 0.5)" stroke-opacity="0" stroke-linejoin="bevel" stroke-miterlimit="10">150</text><text fill="#444444" stroke="none" font-family="helvetica" font-size="10pt" font-style="normal" font-weight="normal" text-decoration="normal" x="36.70000076293945" y="92.39599609375" text-anchor="start" dominant-baseline="alphabetic" transform="matrix(1, 0, 0, 1, 0.5, 0.5)">200</text><text fill="none" stroke="rgb(0,0,0)" font-family="helvetica" font-size="10pt" font-style="normal" font-weight="normal" text-decoration="normal" x="36.70000076293945" y="92.39599609375" text-anchor="start" dominant-baseline="alphabetic" transform="matrix(1, 0, 0, 1, 0.5, 0.5)" stroke-opacity="0" stroke-linejoin="bevel" stroke-miterlimit="10">200</text><text fill="#444444" stroke="none" font-family="helvetica" font-size="10pt" font-style="normal" font-weight="normal" text-decoration="normal" x="36.70000076293945" y="44.244991302490234" text-anchor="start" dominant-baseline="alphabetic" transform="matrix(1, 0, 0, 1, 0.5, 0.5)">250</text><text fill="none" stroke="rgb(0,0,0)" font-family="helvetica" font-size="10pt" font-style="normal" font-weight="normal" text-decoration="normal" x="36.70000076293945" y="44.244991302490234" text-anchor="start" dominant-baseline="alphabetic" transform="matrix(1, 0, 0, 1, 0.5, 0.5)" stroke-opacity="0" stroke-linejoin="bevel" stroke-miterlimit="10">250</text><text fill="#444444" stroke="none" font-family="helvetica" font-size="12pt" font-style="normal" font-weight="normal" text-decoration="normal" x="-77.44166946411133" y="150" text-anchor="start" dominant-baseline="alphabetic" transform="matrix(6.123233995736766e-17, -1, 1, 6.123233995736766e-17, -125.79999923706055, 184.20000076293945)">Days suitable for transmission</text><text fill="none" stroke="rgb(0,0,0)" font-family="helvetica" font-size="12pt" font-style="normal" font-weight="normal" text-decoration="normal" x="-77.44166946411133" y="150" text-anchor="start" dominant-baseline="alphabetic" transform="matrix(6.123233995736766e-17, -1, 1, 6.123233995736766e-17, -125.79999923706055, 184.20000076293945)" stroke-opacity="0" stroke-linejoin="bevel" stroke-miterlimit="10">Days suitable for transmission</text><path fill="rgb(255,255,255)" stroke="rgb(229,229,229)" paint-order="fill" d="M 475.183349609375 205.5 L 560.5000152587891 205.5 L 560.5000152587891 270.5 L 475.183349609375 270.5 L 475.183349609375 205.5 Z" fill-opacity="0.9490196078431372" clip-path="url(#LnbdCktqdPgE)" stroke-opacity="0.5019607843137255" stroke-linejoin="bevel" stroke-miterlimit="10"/><g clip-path="url(#LnbdCktqdPgE)"><g transform="matrix(1, 0, 0, 1, 485.683349609375, 216)"><path fill="none" stroke="#30a2da" paint-order="fill" d="M 0.5 10.5 L 20.5 10.5" stroke-linejoin="bevel" stroke-miterlimit="10" stroke-width="2"/></g></g><g clip-path="url(#LnbdCktqdPgE)"><text fill="#444444" stroke="none" font-family="helvetica" font-size="13px" font-style="normal" font-weight="normal" text-decoration="normal" x="510.683349609375" y="229" text-anchor="start" dominant-baseline="alphabetic" transform="matrix(1, 0, 0, 1, 0.5, 0.5)">ID 001</text></g><g clip-path="url(#LnbdCktqdPgE)"><text fill="none" stroke="rgb(0,0,0)" font-family="helvetica" font-size="13px" font-style="normal" font-weight="normal" text-decoration="normal" x="510.683349609375" y="229" text-anchor="start" dominant-baseline="alphabetic" transform="matrix(1, 0, 0, 1, 0.5, 0.5)" stroke-opacity="0" stroke-linejoin="bevel" stroke-miterlimit="10">ID 001</text></g><g clip-path="url(#LnbdCktqdPgE)"><g transform="matrix(1, 0, 0, 1, 485.683349609375, 239)"><path fill="none" stroke="#fc4f30" paint-order="fill" d="M 0.5 10.5 L 20.5 10.5" stroke-linejoin="bevel" stroke-miterlimit="10" stroke-width="2"/></g></g><g clip-path="url(#LnbdCktqdPgE)"><text fill="#444444" stroke="none" font-family="helvetica" font-size="13px" font-style="normal" font-weight="normal" text-decoration="normal" x="510.683349609375" y="252" text-anchor="start" dominant-baseline="alphabetic" transform="matrix(1, 0, 0, 1, 0.5, 0.5)">ID 006</text></g><g clip-path="url(#LnbdCktqdPgE)"><text fill="none" stroke="rgb(0,0,0)" font-family="helvetica" font-size="13px" font-style="normal" font-weight="normal" text-decoration="normal" x="510.683349609375" y="252" text-anchor="start" dominant-baseline="alphabetic" transform="matrix(1, 0, 0, 1, 0.5, 0.5)" stroke-opacity="0" stroke-linejoin="bevel" stroke-miterlimit="10">ID 006</text></g><text fill="black" stroke="none" font-family="helvetica" font-size="14pt" font-style="normal" font-weight="normal" text-decoration="normal" x="0" y="14" text-anchor="start" dominant-baseline="alphabetic" transform="matrix(1, 0, 0, 1, 5.5, 5.5)">B. Los Angeles</text><text fill="none" stroke="rgb(0,0,0)" font-family="helvetica" font-size="14pt" font-style="normal" font-weight="normal" text-decoration="normal" x="0" y="14" text-anchor="start" dominant-baseline="alphabetic" transform="matrix(1, 0, 0, 1, 5.5, 5.5)" stroke-opacity="0" stroke-linejoin="bevel" stroke-miterlimit="10">B. Los Angeles</text></svg>