<svg version="1.1" xmlns="http://www.w3.org/2000/svg" width="600" height="329"><defs><clipPath id="mvupemLKiOFc"><path fill="none" stroke="none" d="M 70.5 30.5 L 570.5 30.5 L 570.5 280.5 L 70.5 280.5 L 70.5 30.5 Z"/></clipPath><clipPath id="hszHDZtofDyw"><path fill="none" stroke="none" d="M 70.5 30.5 L 570.5 30.5 L 570.5 280.5 L 70.5 280.5 L 70.5 30.5 Z"/></clipPath><clipPath id="ZraPxLWaouiD"><path fill="none" stroke="none" d="M 70.5 30.5 L 570.5 30.5 L 570.5 280.5 L 70.5 280.5 L 70.5 30.5 Z"/></clipPath><clipPath id="JMsGbZntaiWp"><path fill="none" stroke="none" d="M 70.5 30.5 L 570.5 30.5 L 570.5 280.5 L 70.5 280.5 L 70.5 30.5 Z"/></clipPath><clipPath id="NLDduUZIVQWs"><path fill="none" stroke="none" d="M 70.5 30.5 L 570.5 30.5 L 570.5 280.5 L 70.5 280.5 L 70.5 30.5 Z"/></clipPath><clipPath id="oieELxvlksxJ"><path fill="none" stroke="none" d="M 70.5 30.5 L 570.5 30.5 L 570.5 280.5 L 70.5 280.5 L 70.5 30.5 Z"/></clipPath><clipPath id="HZiPggHxfTtw"><path fill="none" stroke="none" d="M 70.5 30.5 L 570.5 30.5 L 570.5 280.5 L 70.5 280.5 L 70.5 30.5 Z"/></clipPath><clipPath id="wwybndsQTXnB"><path fill="none" stroke="none" d="M 70.5 30.5 L 570.5 30.5 L 570.5 280.5 L 70.5 280.5 L 70.5 30.5 Z"/></clipPath><clipPath id="beTLIZFLTixo"><path fill="none" stroke="none" d="M 70.5 30.5 L 570.5 30.5 L 570.5 280.5 L 70.5 280.5 L 70.5 30.5 Z"/></clipPath><clipPath id="PdsPUhwEsMUb"><path fill="none" stroke="none" d="M 70.5 30.5 L 570.5 30.5 L 570.5 280.5 L 70.5 280.5 L 70.5 30.5 Z"/></clipPath><clipPath id="yzGGWhcWPGQc"><path fill="none" stroke="none" d="M 70.5 30.5 L 570.5 30.5 L 570.5 280.5 L 70.5 280.5 L 70.5 30.5 Z"/></clipPath><clipPath id="KSnNmynQCkxv"><path fill="none" stroke="none" d="M 70.5 30.5 L 570.5 30.5 L 570.5 280.5 L 70.5 280.5 L 70.5 30.5 Z"/></clipPath><clipPath id="LVqoVAOKoaAr"><path fill="none" stroke="none" d="M 70.5 30.5 L 570.5 30.5 L 570.5 280.5 L 70.5 280.5 L 70.5 30.5 Z"/></clipPath><clipPath id="gyzwEcRowfbW"><path fill="none" stroke="none" d="M 70.5 30.5 L 570.5 30.5 L 570.5 280.5 L 70.5 280.5 L 70.5 30.5 Z"/></clipPath><clipPath id="LXqcZyfAXEkQ"><path fill="none" stroke="none" d="M 70.5 30.5 L 570.5 30.5 L 570.5 280.5 L 70.5 280.5 L 70.5 30.5 Z"/></clipPath><clipPath id="UpFDNQONyLAH"><path fill="none" stroke="none" d="M 70.5 30.5 L 570.5 30.5 L 570.5 280.5 L 70.5 280.5 L 70.5 30.5 Z"/></clipPath><clipPath id="gERuVBGAGKvG"><path fill="none" stroke="none" d="M 70.5 30.5 L 570.5 30.5 L 570.5 280.5 L 70.5 280.5 L 70.5 30.5 Z"/></clipPath><clipPath id="VLQNqWuEcXBJ"><path fill="none" stroke="none" d="M 70.5 30.5 L 570.5 30.5 L 570.5 280.5 L 70.5 280.5 L 70.5 30.5 Z"/></clipPath><clipPath id="MrWxzTPlpHGl"><path fill="none" stroke="none" d="M 70.5 30.5 L 570.5 30.5 L 570.5 280.5 L 70.5 280.5 L 70.5 30.5 Z"/></clipPath><clipPath id="tMMRRctvzkSo"><path fill="none" stroke="none" d="M 70.5 30.5 L 570.5 30.5 L 570.5 280.5 L 70.5 280.5 L 70.5 30.5 Z"/></clipPath><clipPath id="INITEQIetrNU"><path fill="none" stroke="none" d="M 70.5 30.5 L 570.5 30.5 L 570.5 280.5 L 70.5 280.5 L 70.5 30.5 Z"/></clipPath><clipPath id="pePZzcrQHynL"><path fill="none" stroke="none" d="M 70.5 30.5 L 570.5 30.5 L 570.5 280.5 L 70.5 280.5 L 70.5 30.5 Z"/></clipPath><clipPath id="CZeqTXtJqFNG"><path fill="none" stroke="none" d="M 70.5 30.5 L 570.5 30.5 L 570.5 280.5 L 70.5 280.5 L 70.5 30.5 Z"/></clipPath></defs><path fill="none" stroke="#e5e5e5" paint-order="fill" d="M 70.5 30.5 L 570.5 30.5 L 570.5 280.5 L 70.5 280.5 L 70.5 30.5 Z" stroke-linejoin="bevel" stroke-miterlimit="10"/><path fill="none" stroke="black" paint-order="fill" d="M 332.46172248803487 30.5 L 332.46172248803487 280.5" stroke-linejoin="bevel" stroke-miterlimit="10" stroke-width="3" stroke-dasharray="6" clip-path="url(#ZraPxLWaouiD)"/><path fill="none" stroke="#9467bd" paint-order="fill" d="M 93.2272720336914 128.41666412353516 L 117.15071868896484 90.91666412353516 L 141.07415771484375 134.6666717529297 L 164.9976043701172 151.3333282470703 L 188.92105102539062 88.83333587646484 L 212.84449768066406 118 L 236.7679443359375 176.3333282470703 L 260.6913757324219 109.66666412353516 L 284.6148376464844 168 L 308.53826904296875 134.6666717529297" stroke-linejoin="bevel" stroke-miterlimit="10" stroke-width="2" clip-path="url(#JMsGbZntaiWp)"/><path fill="none" stroke="#9467bd" paint-order="fill" d="M 93.2272720336914 114.4015121459961 L 117.15071868896484 117.88636016845703 L 141.07415771484375 121.3712158203125 L 164.9976043701172 124.85606384277344 L 188.92105102539062 128.34091186523438 L 212.84449768066406 131.8257598876953 L 236.7679443359375 135.31060791015625 L 260.6913757324219 138.7954559326172 L 284.6148376464844 142.28030395507812 L 308.53826904296875 145.76515197753906" stroke-linejoin="bevel" stroke-miterlimit="10" stroke-width="2" stroke-dasharray="6" clip-path="url(#NLDduUZIVQWs)"/><path fill="none" stroke="#30a2da" paint-order="fill" d="M 308.53826904296875 134.6666717529297 L 332.46173095703125 88.83333587646484 L 356.3851623535156 74.25 L 380.3086242675781 115.91666412353516 L 404.2320556640625 99.25 L 428.155517578125 72.16666412353516 L 452.0789489746094 136.75 L 476.00238037109375 157.5833282470703 L 499.92584228515625 111.75 L 523.8493041992188 132.5833282470703 L 547.772705078125 182.5833282470703" stroke-linejoin="bevel" stroke-miterlimit="10" stroke-width="2" clip-path="url(#oieELxvlksxJ)"/><path fill="none" stroke="#30a2da" paint-order="fill" d="M 332.46173095703125 77.05303192138672 L 356.3851623535156 85.96717071533203 L 380.3086242675781 94.88130950927734 L 404.2320556640625 103.79545593261719 L 428.155517578125 112.7095947265625 L 452.0789489746094 121.62374114990234 L 476.00238037109375 130.53787231445312 L 499.92584228515625 139.4520263671875 L 523.8493041992188 148.3661651611328 L 547.772705078125 157.28030395507812" stroke-linejoin="bevel" stroke-miterlimit="10" stroke-width="2" stroke-dasharray="6" clip-path="url(#HZiPggHxfTtw)"/><path fill="none" stroke="#fc4f30" paint-order="fill" d="M 308.53826904296875 134.6666717529297 L 332.46173095703125 80.5 L 356.3851623535156 207.5833282470703 L 380.3086242675781 151.3333282470703 L 404.2320556640625 124.25 L 428.155517578125 115.91666412353516 L 452.0789489746094 128.41666412353516 L 476.00238037109375 163.8333282470703 L 499.92584228515625 115.91666412353516 L 523.8493041992188 145.0833282470703 L 547.772705078125 55.5" stroke-linejoin="bevel" stroke-miterlimit="10" stroke-width="2" clip-path="url(#wwybndsQTXnB)"/><path fill="none" stroke="#fc4f30" paint-order="fill" d="M 332.46173095703125 148.15151977539062 L 356.3851623535156 143.85858154296875 L 380.3086242675781 139.56565856933594 L 404.2320556640625 135.27272033691406 L 428.155517578125 130.97979736328125 L 452.0789489746094 126.6868667602539 L 476.00238037109375 122.39393615722656 L 499.92584228515625 118.10101318359375 L 523.8493041992188 113.8080825805664 L 547.772705078125 109.51515197753906" stroke-linejoin="bevel" stroke-miterlimit="10" stroke-width="2" stroke-dasharray="6" clip-path="url(#beTLIZFLTixo)"/><path fill="none" stroke="rgb(128,128,128)" paint-order="fill" d="M 93.2272720336914 207.5833282470703 L 117.15071868896484 103.41666412353516 L 141.07415771484375 53.41666793823242 L 164.9976043701172 143 L 188.92105102539062 82.58333587646484 L 212.84449768066406 103.41666412353516 L 236.7679443359375 111.75 L 260.6913757324219 93 L 284.6148376464844 93 L 308.53826904296875 36.75" stroke-opacity="0.7490196078431373" stroke-linejoin="bevel" stroke-miterlimit="10" clip-path="url(#PdsPUhwEsMUb)"/><path fill="none" stroke="grey" paint-order="fill" d="M 308.53826904296875 36.75 L 332.46173095703125 84.66666412353516 L 356.3851623535156 78.41666412353516 L 380.3086242675781 61.75 L 404.2320556640625 74.25 L 428.155517578125 65.91666412353516 L 452.0789489746094 88.83333587646484 L 476.00238037109375 115.91666412353516 L 499.92584228515625 109.66666412353516 L 523.8493041992188 149.25 L 547.772705078125 111.75" stroke-linejoin="bevel" stroke-miterlimit="10" stroke-width="0.5" clip-path="url(#yzGGWhcWPGQc)"/><path fill="none" stroke="grey" paint-order="fill" d="M 308.53826904296875 36.75 L 332.46173095703125 84.66666412353516 L 356.3851623535156 103.41666412353516 L 380.3086242675781 157.5833282470703 L 404.2320556640625 157.5833282470703 L 428.155517578125 115.91666412353516 L 452.0789489746094 74.25 L 476.00238037109375 115.91666412353516 L 499.92584228515625 147.1666717529297 L 523.8493041992188 105.5 L 547.772705078125 65.91666412353516" stroke-linejoin="bevel" stroke-miterlimit="10" stroke-width="0.5" clip-path="url(#KSnNmynQCkxv)"/><path fill="none" stroke="rgb(128,128,128)" paint-order="fill" d="M 93.2272720336914 122.16666412353516 L 117.15071868896484 107.58333587646484 L 141.07415771484375 86.75 L 164.9976043701172 105.5 L 188.92105102539062 118 L 212.84449768066406 90.91666412353516 L 236.7679443359375 109.66666412353516 L 260.6913757324219 80.5 L 284.6148376464844 138.8333282470703 L 308.53826904296875 90.91666412353516" stroke-opacity="0.7490196078431373" stroke-linejoin="bevel" stroke-miterlimit="10" clip-path="url(#LVqoVAOKoaAr)"/><path fill="none" stroke="grey" paint-order="fill" d="M 308.53826904296875 90.91666412353516 L 332.46173095703125 103.41666412353516 L 356.3851623535156 101.33333587646484 L 380.3086242675781 95.08333587646484 L 404.2320556640625 99.25 L 428.155517578125 86.75 L 452.0789489746094 95.08333587646484 L 476.00238037109375 68 L 499.92584228515625 88.83333587646484 L 523.8493041992188 74.25 L 547.772705078125 111.75" stroke-linejoin="bevel" stroke-miterlimit="10" stroke-width="0.5" clip-path="url(#gyzwEcRowfbW)"/><path fill="none" stroke="grey" paint-order="fill" d="M 308.53826904296875 90.91666412353516 L 332.46173095703125 68 L 356.3851623535156 124.25 L 380.3086242675781 163.8333282470703 L 404.2320556640625 88.83333587646484 L 428.155517578125 111.75 L 452.0789489746094 168 L 476.00238037109375 95.08333587646484 L 499.92584228515625 143 L 523.8493041992188 68 L 547.772705078125 70.08333587646484" stroke-linejoin="bevel" stroke-miterlimit="10" stroke-width="0.5" clip-path="url(#LXqcZyfAXEkQ)"/><path fill="none" stroke="rgb(128,128,128)" paint-order="fill" d="M 93.2272720336914 130.5 L 117.15071868896484 74.25 L 141.07415771484375 84.66666412353516 L 164.9976043701172 124.25 L 188.92105102539062 186.75 L 212.84449768066406 107.58333587646484 L 236.7679443359375 180.5 L 260.6913757324219 63.83333206176758 L 284.6148376464844 88.83333587646484 L 308.53826904296875 63.83333206176758" stroke-opacity="0.7490196078431373" stroke-linejoin="bevel" stroke-miterlimit="10" clip-path="url(#UpFDNQONyLAH)"/><path fill="none" stroke="grey" paint-order="fill" d="M 308.53826904296875 63.83333206176758 L 332.46173095703125 113.83333587646484 L 356.3851623535156 93 L 380.3086242675781 107.58333587646484 L 404.2320556640625 113.83333587646484 L 428.155517578125 134.6666717529297 L 452.0789489746094 93 L 476.00238037109375 109.66666412353516 L 499.92584228515625 93 L 523.8493041992188 161.75 L 547.772705078125 93" stroke-linejoin="bevel" stroke-miterlimit="10" stroke-width="0.5" clip-path="url(#gERuVBGAGKvG)"/><path fill="none" stroke="grey" paint-order="fill" d="M 308.53826904296875 63.83333206176758 L 332.46173095703125 122.16666412353516 L 356.3851623535156 84.66666412353516 L 380.3086242675781 86.75 L 404.2320556640625 145.0833282470703 L 428.155517578125 140.9166717529297 L 452.0789489746094 78.41666412353516 L 476.00238037109375 113.83333587646484 L 499.92584228515625 103.41666412353516 L 523.8493041992188 103.41666412353516 L 547.772705078125 99.25" stroke-linejoin="bevel" stroke-miterlimit="10" stroke-width="0.5" clip-path="url(#VLQNqWuEcXBJ)"/><path fill="none" stroke="rgb(128,128,128)" paint-order="fill" d="M 93.2272720336914 149.25 L 117.15071868896484 90.91666412353516 L 141.07415771484375 155.5 L 164.9976043701172 80.5 L 188.92105102539062 126.33333587646484 L 212.84449768066406 145.0833282470703 L 236.7679443359375 109.66666412353516 L 260.6913757324219 65.91666412353516 L 284.6148376464844 120.08333587646484 L 308.53826904296875 115.91666412353516" stroke-opacity="0.7490196078431373" stroke-linejoin="bevel" stroke-miterlimit="10" clip-path="url(#MrWxzTPlpHGl)"/><path fill="none" stroke="grey" paint-order="fill" d="M 308.53826904296875 115.91666412353516 L 332.46173095703125 97.16666412353516 L 356.3851623535156 86.75 L 380.3086242675781 74.25 L 404.2320556640625 68 L 428.155517578125 82.58333587646484 L 452.0789489746094 165.9166717529297 L 476.00238037109375 138.8333282470703 L 499.92584228515625 97.16666412353516 L 523.8493041992188 132.5833282470703 L 547.772705078125 88.83333587646484" stroke-linejoin="bevel" stroke-miterlimit="10" stroke-width="0.5" clip-path="url(#tMMRRctvzkSo)"/><path fill="none" stroke="grey" paint-order="fill" d="M 308.53826904296875 115.91666412353516 L 332.46173095703125 97.16666412353516 L 356.3851623535156 111.75 L 380.3086242675781 95.08333587646484 L 404.2320556640625 138.8333282470703 L 428.155517578125 149.25 L 452.0789489746094 80.5 L 476.00238037109375 149.25 L 499.92584228515625 136.75 L 523.8493041992188 74.25 L 547.772705078125 78.41666412353516" stroke-linejoin="bevel" stroke-miterlimit="10" stroke-width="0.5" clip-path="url(#INITEQIetrNU)"/><path fill="none" stroke="black" paint-order="fill" d="M 70.5 280.5 L 570.5 280.5" stroke-linejoin="bevel" stroke-miterlimit="10"/><path fill="none" stroke="black" paint-order="fill" d="M 93.5 286.5 L 93.5 278.5 M 212.5 286.5 L 212.5 278.5 M 332.5 286.5 L 332.5 278.5 M 452.5 286.5 L 452.5 278.5" stroke-linejoin="bevel" stroke-miterlimit="10"/><path fill="none" stroke="black" paint-order="fill" d="M 93.5 284.5 L 93.5 280.5 M 117.5 284.5 L 117.5 280.5 M 141.5 284.5 L 141.5 280.5 M 164.5 284.5 L 164.5 280.5 M 188.5 284.5 L 188.5 280.5 M 212.5 284.5 L 212.5 280.5 M 236.5 284.5 L 236.5 280.5 M 260.5 284.5 L 260.5 280.5 M 284.5 284.5 L 284.5 280.5 M 308.5 284.5 L 308.5 280.5 M 332.5 284.5 L 332.5 280.5 M 356.5 284.5 L 356.5 280.5 M 380.5 284.5 L 380.5 280.5 M 404.5 284.5 L 404.5 280.5 M 428.5 284.5 L 428.5 280.5 M 452.5 284.5 L 452.5 280.5 M 476.5 284.5 L 476.5 280.5 M 499.5 284.5 L 499.5 280.5 M 523.5 284.5 L 523.5 280.5 M 547.5 284.5 L 547.5 280.5" stroke-linejoin="bevel" stroke-miterlimit="10"/><text fill="#444444" stroke="none" font-family="helvetica" font-size="10pt" font-style="normal" font-weight="normal" text-decoration="normal" x="77.86060523986816" y="301" text-anchor="start" dominant-baseline="alphabetic" transform="matrix(1, 0, 0, 1, 0.5, 0.5)">2025</text><text fill="none" stroke="rgb(0,0,0)" font-family="helvetica" font-size="10pt" font-style="normal" font-weight="normal" text-decoration="normal" x="77.86060523986816" y="301" text-anchor="start" dominant-baseline="alphabetic" transform="matrix(1, 0, 0, 1, 0.5, 0.5)" stroke-opacity="0" stroke-linejoin="bevel" stroke-miterlimit="10">2025</text><text fill="#444444" stroke="none" font-family="helvetica" font-size="10pt" font-style="normal" font-weight="normal" text-decoration="normal" x="197.47783088684082" y="301" text-anchor="start" dominant-baseline="alphabetic" transform="matrix(1, 0, 0, 1, 0.5, 0.5)">2030</text><text fill="none" stroke="rgb(0,0,0)" font-family="helvetica" font-size="10pt" font-style="normal" font-weight="normal" text-decoration="normal" x="197.47783088684082" y="301" text-anchor="start" dominant-baseline="alphabetic" transform="matrix(1, 0, 0, 1, 0.5, 0.5)" stroke-opacity="0" stroke-linejoin="bevel" stroke-miterlimit="10">2030</text><text fill="#444444" stroke="none" font-family="helvetica" font-size="10pt" font-style="normal" font-weight="normal" text-decoration="normal" x="317.095064163208" y="301" text-anchor="start" dominant-baseline="alphabetic" transform="matrix(1, 0, 0, 1, 0.5, 0.5)">2035</text><text fill="none" stroke="rgb(0,0,0)" font-family="helvetica" font-size="10pt" font-style="normal" font-weight="normal" text-decoration="normal" x="317.095064163208" y="301" text-anchor="start" dominant-baseline="alphabetic" transform="matrix(1, 0, 0, 1, 0.5, 0.5)" stroke-opacity="0" stroke-linejoin="bevel" stroke-miterlimit="10">2035</text><text fill="#444444" stroke="none" font-family="helvetica" font-size="10pt" font-style="normal" font-weight="normal" text-decoration="normal" x="436.71228218078613" y="301" text-anchor="start" dominant-baseline="alphabetic" transform="matrix(1, 0, 0, 1, 0.5, 0.5)">2040</text><text fill="none" stroke="rgb(0,0,0)" font-family="helvetica" font-size="10pt" font-style="normal" font-weight="normal" text-decoration="normal" x="436.71228218078613" y="301" text-anchor="start" dominant-baseline="alphabetic" transform="matrix(1, 0, 0, 1, 0.5, 0.5)" stroke-opacity="0" stroke-linejoin="bevel" stroke-miterlimit="10">2040</text><text fill="#444444" stroke="none" font-family="helvetica" font-size="12pt" font-style="normal" font-weight="normal" text-decoration="normal" x="303.8500003814697" y="321" text-anchor="start" dominant-baseline="alphabetic" transform="matrix(1, 0, 0, 1, 0.5, 0.5)">Year</text><text fill="none" stroke="rgb(0,0,0)" font-family="helvetica" font-size="12pt" font-style="normal" font-weight="normal" text-decoration="normal" x="303.8500003814697" y="321" text-anchor="start" dominant-baseline="alphabetic" transform="matrix(1, 0, 0, 1, 0.5, 0.5)" stroke-opacity="0" stroke-linejoin="bevel" stroke-miterlimit="10">Year</text><path fill="none" stroke="black" paint-order="fill" d="M 70.5 280.5 L 70.5 30.5" stroke-linejoin="bevel" stroke-miterlimit="10"/><path fill="none" stroke="black" paint-order="fill" d="M 64.5 280.5 L 72.5 280.5 M 64.5 218.5 L 72.5 218.5 M 64.5 155.5 L 72.5 155.5 M 64.5 93.5 L 72.5 93.5 M 64.5 30.5 L 72.5 30.5" stroke-linejoin="bevel" stroke-miterlimit="10"/><path fill="none" stroke="black" paint-order="fill" d="" stroke-linejoin="bevel" stroke-miterlimit="10"/><text fill="#444444" stroke="none" font-family="helvetica" font-size="10pt" font-style="normal" font-weight="normal" text-decoration="normal" x="51.56666660308838" y="285" text-anchor="start" dominant-baseline="alphabetic" transform="matrix(1, 0, 0, 1, 0.5, 0.5)">0</text><text fill="none" stroke="rgb(0,0,0)" font-family="helvetica" font-size="10pt" font-style="normal" font-weight="normal" text-decoration="normal" x="51.56666660308838" y="285" text-anchor="start" dominant-baseline="alphabetic" transform="matrix(1, 0, 0, 1, 0.5, 0.5)" stroke-opacity="0" stroke-linejoin="bevel" stroke-miterlimit="10">0</text><text fill="#444444" stroke="none" font-family="helvetica" font-size="10pt" font-style="normal" font-weight="normal" text-decoration="normal" x="44.13333320617676" y="222.5" text-anchor="start" dominant-baseline="alphabetic" transform="matrix(1, 0, 0, 1, 0.5, 0.5)">30</text><text fill="none" stroke="rgb(0,0,0)" font-family="helvetica" font-size="10pt" font-style="normal" font-weight="normal" text-decoration="normal" x="44.13333320617676" y="222.5" text-anchor="start" dominant-baseline="alphabetic" transform="matrix(1, 0, 0, 1, 0.5, 0.5)" stroke-opacity="0" stroke-linejoin="bevel" stroke-miterlimit="10">30</text><text fill="#444444" stroke="none" font-family="helvetica" font-size="10pt" font-style="normal" font-weight="normal" text-decoration="normal" x="44.13333320617676" y="160" text-anchor="start" dominant-baseline="alphabetic" transform="matrix(1, 0, 0, 1, 0.5, 0.5)">60</text><text fill="none" stroke="rgb(0,0,0)" font-family="helvetica" font-size="10pt" font-style="normal" font-weight="normal" text-decoration="normal" x="44.13333320617676" y="160" text-anchor="start" dominant-baseline="alphabetic" transform="matrix(1, 0, 0, 1, 0.5, 0.5)" stroke-opacity="0" stroke-linejoin="bevel" stroke-miterlimit="10">60</text><text fill="#444444" stroke="none" font-family="helvetica" font-size="10pt" font-style="normal" font-weight="normal" text-decoration="normal" x="44.13333320617676" y="97.5" text-anchor="start" dominant-baseline="alphabetic" transform="matrix(1, 0, 0, 1, 0.5, 0.5)">90</text><text fill="none" stroke="rgb(0,0,0)" font-family="helvetica" font-size="10pt" font-style="normal" font-weight="normal" text-decoration="normal" x="44.13333320617676" y="97.5" text-anchor="start" dominant-baseline="alphabetic" transform="matrix(1, 0, 0, 1, 0.5, 0.5)" stroke-opacity="0" stroke-linejoin="bevel" stroke-miterlimit="10">90</text><text fill="#444444" stroke="none" font-family="helvetica" font-size="10pt" font-style="normal" font-weight="normal" text-decoration="normal" x="36.70000076293945" y="35" text-anchor="start" dominant-baseline="alphabetic" transform="matrix(1, 0, 0, 1, 0.5, 0.5)">120</text><text fill="none" stroke="rgb(0,0,0)" font-family="helvetica" font-size="10pt" font-style="normal" font-weight="normal" text-decoration="normal" x="36.70000076293945" y="35" text-anchor="start" dominant-baseline="alphabetic" transform="matrix(1, 0, 0, 1, 0.5, 0.5)" stroke-opacity="0" stroke-linejoin="bevel" stroke-miterlimit="10">120</text><text fill="#444444" stroke="none" font-family="helvetica" font-size="12pt" font-style="normal" font-weight="normal" text-decoration="normal" x="-77.44166946411133" y="150" text-anchor="start" dominant-baseline="alphabetic" transform="matrix(6.123233995736766e-17, -1, 1, 6.123233995736766e-17, -125.79999923706055, 184.20000076293945)">Days suitable for transmission</text><text fill="none" stroke="rgb(0,0,0)" font-family="helvetica" font-size="12pt" font-style="normal" font-weight="normal" text-decoration="normal" x="-77.44166946411133" y="150" text-anchor="start" dominant-baseline="alphabetic" transform="matrix(6.123233995736766e-17, -1, 1, 6.123233995736766e-17, -125.79999923706055, 184.20000076293945)" stroke-opacity="0" stroke-linejoin="bevel" stroke-miterlimit="10">Days suitable for transmission</text><path fill="rgb(255,255,255)" stroke="rgb(229,229,229)" paint-order="fill" d="M 475.183349609375 205.5 L 560.5000152587891 205.5 L 560.5000152587891 270.5 L 475.183349609375 270.5 L 475.183349609375 205.5 Z" fill-opacity="0.9490196078431372" clip-path="url(#pePZzcrQHynL)" stroke-opacity="0.5019607843137255" stroke-linejoin="bevel" stroke-miterlimit="10"/><g clip-path="url(#pePZzcrQHynL)"><g transform="matrix(1, 0, 0, 1, 485.683349609375, 216)"><path fill="none" stroke="#30a2da" paint-order="fill" d="M 0.5 10.5 L 20.5 10.5" stroke-linejoin="bevel" stroke-miterlimit="10" stroke-width="2"/></g></g><g clip-path="url(#pePZzcrQHynL)"><text fill="#444444" stroke="none" font-family="helvetica" font-size="13px" font-style="normal" font-weight="normal" text-decoration="normal" x="510.683349609375" y="229" text-anchor="start" dominant-baseline="alphabetic" transform="matrix(1, 0, 0, 1, 0.5, 0.5)">ID 001</text></g><g clip-path="url(#pePZzcrQHynL)"><text fill="none" stroke="rgb(0,0,0)" font-family="helvetica" font-size="13px" font-style="normal" font-weight="normal" text-decoration="normal" x="510.683349609375" y="229" text-anchor="start" dominant-baseline="alphabetic" transform="matrix(1, 0, 0, 1, 0.5, 0.5)" stroke-opacity="0" stroke-linejoin="bevel" stroke-miterlimit="10">ID 001</text></g><g clip-path="url(#pePZzcrQHynL)"><g transform="matrix(1, 0, 0, 1, 485.683349609375, 239)"><path fill="none" stroke="#fc4f30" paint-order="fill" d="M 0.5 10.5 L 20.5 10.5" stroke-linejoin="bevel" stroke-miterlimit="10" stroke-width="2"/></g></g><g clip-path="url(#pePZzcrQHynL)"><text fill="#444444" stroke="none" font-family="helvetica" font-size="13px" font-style="normal" font-weight="normal" text-decoration="normal" x="510.683349609375" y="252" text-anchor="start" dominant-baseline="alphabetic" transform="matrix(1, 0, 0, 1, 0.5, 0.5)">ID 006</text></g><g clip-path="url(#pePZzcrQHynL)"><text fill="none" stroke="rgb(0,0,0)" font-family="helvetica" font-size="13px" font-style="normal" font-weight="normal" text-decoration="normal" x="510.683349609375" y="252" text-anchor="start" dominant-baseline="alphabetic" transform="matrix(1, 0, 0, 1, 0.5, 0.5)" stroke-opacity="0" stroke-linejoin="bevel" stroke-miterlimit="10">ID 006</text></g><text fill="black" stroke="none" font-family="helvetica" font-size="14pt" font-style="normal" font-weight="normal" text-decoration="normal" x="0" y="14" text-anchor="start" dominant-baseline="alphabetic" transform="matrix(1, 0, 0, 1, 5.5, 5.5)">A. Paris</text><text fill="none" stroke="rgb(0,0,0)" font-family="helvetica" font-size="14pt" font-style="normal" font-weight="normal" text-decoration="normal" x="0" y="14" text-anchor="start" dominant-baseline="alphabetic" transform="matrix(1, 0, 0, 1, 5.5, 5.5)" stroke-opacity="0" stroke-linejoin="bevel" stroke-miterlimit="10">A. Paris</text></svg>