<svg version="1.1" xmlns="http://www.w3.org/2000/svg" width="600" height="329"><defs><clipPath id="FwcoBdaHlwTK"><path fill="none" stroke="none" d="M 70.5 30.5 L 570.5 30.5 L 570.5 280.5 L 70.5 280.5 L 70.5 30.5 Z"/></clipPath><clipPath id="asUkidOhzDJD"><path fill="none" stroke="none" d="M 70.5 30.5 L 570.5 30.5 L 570.5 280.5 L 70.5 280.5 L 70.5 30.5 Z"/></clipPath><clipPath id="dperEqmtJGSb"><path fill="none" stroke="none" d="M 70.5 30.5 L 570.5 30.5 L 570.5 280.5 L 70.5 280.5 L 70.5 30.5 Z"/></clipPath><clipPath id="ltBkZLlDsqxN"><path fill="none" stroke="none" d="M 70.5 30.5 L 570.5 30.5 L 570.5 280.5 L 70.5 280.5 L 70.5 30.5 Z"/></clipPath><clipPath id="KGBaJAUaxNMW"><path fill="none" stroke="none" d="M 70.5 30.5 L 570.5 30.5 L 570.5 280.5 L 70.5 280.5 L 70.5 30.5 Z"/></clipPath><clipPath id="NZOFGdTnaTcc"><path fill="none" stroke="none" d="M 70.5 30.5 L 570.5 30.5 L 570.5 280.5 L 70.5 280.5 L 70.5 30.5 Z"/></clipPath><clipPath id="QWLRJgqPFFxH"><path fill="none" stroke="none" d="M 70.5 30.5 L 570.5 30.5 L 570.5 280.5 L 70.5 280.5 L 70.5 30.5 Z"/></clipPath><clipPath id="PBXdZvTUXyfn"><path fill="none" stroke="none" d="M 70.5 30.5 L 570.5 30.5 L 570.5 280.5 L 70.5 280.5 L 70.5 30.5 Z"/></clipPath><clipPath id="zAEyQlEWnkiv"><path fill="none" stroke="none" d="M 70.5 30.5 L 570.5 30.5 L 570.5 280.5 L 70.5 280.5 L 70.5 30.5 Z"/></clipPath><clipPath id="tuGBXMveVTzD"><path fill="none" stroke="none" d="M 70.5 30.5 L 570.5 30.5 L 570.5 280.5 L 70.5 280.5 L 70.5 30.5 Z"/></clipPath><clipPath id="xdcATOGXVcVW"><path fill="none" stroke="none" d="M 70.5 30.5 L 570.5 30.5 L 570.5 280.5 L 70.5 280.5 L 70.5 30.5 Z"/></clipPath><clipPath id="abZaodqMfvXu"><path fill="none" stroke="none" d="M 70.5 30.5 L 570.5 30.5 L 570.5 280.5 L 70.5 280.5 L 70.5 30.5 Z"/></clipPath><clipPath id="ZMZPNtQaBGvI"><path fill="none" stroke="none" d="M 70.5 30.5 L 570.5 30.5 L 570.5 280.5 L 70.5 280.5 L 70.5 30.5 Z"/></clipPath><clipPath id="RbmNydbDhLDD"><path fill="none" stroke="none" d="M 70.5 30.5 L 570.5 30.5 L 570.5 280.5 L 70.5 280.5 L 70.5 30.5 Z"/></clipPath><clipPath id="nHOfHkCuAvPs"><path fill="none" stroke="none" d="M 70.5 30.5 L 570.5 30.5 L 570.5 280.5 L 70.5 280.5 L 70.5 30.5 Z"/></clipPath><clipPath id="KIJLwuvbwTfK"><path fill="none" stroke="none" d="M 70.5 30.5 L 570.5 30.5 L 570.5 280.5 L 70.5 280.5 L 70.5 30.5 Z"/></clipPath><clipPath id="oCTGOKgEqLOi"><path fill="none" stroke="none" d="M 70.5 30.5 L 570.5 30.5 L 570.5 280.5 L 70.5 280.5 L 70.5 30.5 Z"/></clipPath><clipPath id="EKlWldRzEhJn"><path fill="none" stroke="none" d="M 70.5 30.5 L 570.5 30.5 L 570.5 280.5 L 70.5 280.5 L 70.5 30.5 Z"/></clipPath><clipPath id="PdcZGOnWefeW"><path fill="none" stroke="none" d="M 70.5 30.5 L 570.5 30.5 L 570.5 280.5 L 70.5 280.5 L 70.5 30.5 Z"/></clipPath><clipPath id="alMcMvqFMFcr"><path fill="none" stroke="none" d="M 70.5 30.5 L 570.5 30.5 L 570.5 280.5 L 70.5 280.5 L 70.5 30.5 Z"/></clipPath><clipPath id="EpRpzKRZyKTa"><path fill="none" stroke="none" d="M 70.5 30.5 L 570.5 30.5 L 570.5 280.5 L 70.5 280.5 L 70.5 30.5 Z"/></clipPath><clipPath id="esfxnyTsznwW"><path fill="none" stroke="none" d="M 70.5 30.5 L 570.5 30.5 L 570.5 280.5 L 70.5 280.5 L 70.5 30.5 Z"/></clipPath><clipPath id="qzceLrbQDvJi"><path fill="none" stroke="none" d="M 70.5 30.5 L 570.5 30.5 L 570.5 280.5 L 70.5 280.5 L 70.5 30.5 Z"/></clipPath></defs><path fill="none" stroke="#e5e5e5" paint-order="fill" d="M 70.5 30.5 L 570.5 30.5 L 570.5 280.5 L 70.5 280.5 L 70.5 30.5 Z" stroke-linejoin="bevel" stroke-miterlimit="10"/><path fill="none" stroke="black" paint-order="fill" d="M 332.46172248803487 30.5 L 332.46172248803487 280.5" stroke-linejoin="bevel" stroke-miterlimit="10" stroke-width="3" stroke-dasharray="6" clip-path="url(#dperEqmtJGSb)"/><path fill="none" stroke="#9467bd" paint-order="fill" d="M 93.2272720336914 142.82518005371094 L 117.15071868896484 134.08392333984375 L 141.07415771484375 118.78671264648438 L 164.9976043701172 94.74825286865234 L 188.92105102539062 169.0489501953125 L 212.84449768066406 140.63986206054688 L 236.7679443359375 120.97203063964844 L 260.6913757324219 120.97203063964844 L 284.6148376464844 125.34265899658203 L 308.53826904296875 131.8986053466797" stroke-linejoin="bevel" stroke-miterlimit="10" stroke-width="2" clip-path="url(#ltBkZLlDsqxN)"/><path fill="none" stroke="#9467bd" paint-order="fill" d="M 93.2272720336914 142.82518005371094 L 117.15071868896484 134.08392333984375 L 141.07415771484375 118.78671264648438 L 164.9976043701172 94.74825286865234 L 188.92105102539062 169.0489501953125 L 212.84449768066406 140.63986206054688 L 236.7679443359375 120.97203063964844 L 260.6913757324219 120.97203063964844 L 284.6148376464844 125.34265899658203 L 308.53826904296875 131.8986053466797" stroke-linejoin="bevel" stroke-miterlimit="10" stroke-width="2" stroke-dasharray="6" clip-path="url(#KGBaJAUaxNMW)"/><path fill="none" stroke="#30a2da" paint-order="fill" d="M 308.53826904296875 131.8986053466797 L 332.46173095703125 155.9370574951172 L 356.3851623535156 175.60488891601562 L 380.3086242675781 153.7517547607422 L 404.2320556640625 66.33915710449219 L 428.155517578125 118.78671264648438 L 452.0789489746094 68.52447509765625 L 476.00238037109375 136.26922607421875 L 499.92584228515625 103.48950958251953 L 523.8493041992188 101.30419921875 L 547.772705078125 131.8986053466797" stroke-linejoin="bevel" stroke-miterlimit="10" stroke-width="2" clip-path="url(#NZOFGdTnaTcc)"/><path fill="none" stroke="#30a2da" paint-order="fill" d="M 332.46173095703125 143.7787628173828 L 356.3851623535156 138.75917053222656 L 380.3086242675781 133.73956298828125 L 404.2320556640625 128.71995544433594 L 428.155517578125 123.70036315917969 L 452.0789489746094 118.68075561523438 L 476.00238037109375 113.6611557006836 L 499.92584228515625 108.64155578613281 L 523.8493041992188 103.62195587158203 L 547.772705078125 98.60235595703125" stroke-linejoin="bevel" stroke-miterlimit="10" stroke-width="2" stroke-dasharray="6" clip-path="url(#QWLRJgqPFFxH)"/><path fill="none" stroke="#fc4f30" paint-order="fill" d="M 308.53826904296875 131.8986053466797 L 332.46173095703125 164.67831420898438 L 356.3851623535156 127.52796936035156 L 380.3086242675781 101.30419921875 L 404.2320556640625 114.41608428955078 L 428.155517578125 120.97203063964844 L 452.0789489746094 112.23076629638672 L 476.00238037109375 138.4545440673828 L 499.92584228515625 158.12237548828125 L 523.8493041992188 158.12237548828125 L 547.772705078125 160.3076934814453" stroke-linejoin="bevel" stroke-miterlimit="10" stroke-width="2" clip-path="url(#PBXdZvTUXyfn)"/><path fill="none" stroke="#fc4f30" paint-order="fill" d="M 332.46173095703125 121.36935424804688 L 356.3851623535156 124.53475189208984 L 380.3086242675781 127.70014953613281 L 404.2320556640625 130.86553955078125 L 428.155517578125 134.03094482421875 L 452.0789489746094 137.1963348388672 L 476.00238037109375 140.36172485351562 L 499.92584228515625 143.52713012695312 L 523.8493041992188 146.69252014160156 L 547.772705078125 149.85791015625" stroke-linejoin="bevel" stroke-miterlimit="10" stroke-width="2" stroke-dasharray="6" clip-path="url(#zAEyQlEWnkiv)"/><path fill="none" stroke="rgb(128,128,128)" paint-order="fill" d="M 93.2272720336914 186.53146362304688 L 117.15071868896484 155.9370574951172 L 141.07415771484375 145.01048278808594 L 164.9976043701172 116.60140228271484 L 188.92105102539062 127.52796936035156 L 212.84449768066406 116.60140228271484 L 236.7679443359375 72.89510345458984 L 260.6913757324219 140.63986206054688 L 284.6148376464844 107.86013793945312 L 308.53826904296875 114.41608428955078" stroke-opacity="0.7490196078431373" stroke-linejoin="bevel" stroke-miterlimit="10" clip-path="url(#tuGBXMveVTzD)"/><path fill="none" stroke="grey" paint-order="fill" d="M 308.53826904296875 114.41608428955078 L 332.46173095703125 140.63986206054688 L 356.3851623535156 145.01048278808594 L 380.3086242675781 136.26922607421875 L 404.2320556640625 138.4545440673828 L 428.155517578125 96.93356323242188 L 452.0789489746094 116.60140228271484 L 476.00238037109375 140.63986206054688 L 499.92584228515625 103.48950958251953 L 523.8493041992188 110.04545593261719 L 547.772705078125 136.26922607421875" stroke-linejoin="bevel" stroke-miterlimit="10" stroke-width="0.5" clip-path="url(#xdcATOGXVcVW)"/><path fill="none" stroke="grey" paint-order="fill" d="M 308.53826904296875 114.41608428955078 L 332.46173095703125 110.04545593261719 L 356.3851623535156 162.49301147460938 L 380.3086242675781 162.49301147460938 L 404.2320556640625 136.26922607421875 L 428.155517578125 153.7517547607422 L 452.0789489746094 125.34265899658203 L 476.00238037109375 140.63986206054688 L 499.92584228515625 162.49301147460938 L 523.8493041992188 129.71328735351562 L 547.772705078125 134.08392333984375" stroke-linejoin="bevel" stroke-miterlimit="10" stroke-width="0.5" clip-path="url(#abZaodqMfvXu)"/><path fill="none" stroke="rgb(128,128,128)" paint-order="fill" d="M 93.2272720336914 101.30419921875 L 117.15071868896484 107.86013793945312 L 141.07415771484375 131.8986053466797 L 164.9976043701172 92.56293487548828 L 188.92105102539062 149.38111877441406 L 212.84449768066406 107.86013793945312 L 236.7679443359375 105.6748275756836 L 260.6913757324219 140.63986206054688 L 284.6148376464844 101.30419921875 L 308.53826904296875 142.82518005371094" stroke-opacity="0.7490196078431373" stroke-linejoin="bevel" stroke-miterlimit="10" clip-path="url(#ZMZPNtQaBGvI)"/><path fill="none" stroke="grey" paint-order="fill" d="M 308.53826904296875 142.82518005371094 L 332.46173095703125 140.63986206054688 L 356.3851623535156 107.86013793945312 L 380.3086242675781 103.48950958251953 L 404.2320556640625 90.37762451171875 L 428.155517578125 83.8216781616211 L 452.0789489746094 127.52796936035156 L 476.00238037109375 129.71328735351562 L 499.92584228515625 195.27272033691406 L 523.8493041992188 160.3076934814453 L 547.772705078125 96.93356323242188" stroke-linejoin="bevel" stroke-miterlimit="10" stroke-width="0.5" clip-path="url(#RbmNydbDhLDD)"/><path fill="none" stroke="grey" paint-order="fill" d="M 308.53826904296875 142.82518005371094 L 332.46173095703125 88.19230651855469 L 356.3851623535156 112.23076629638672 L 380.3086242675781 105.6748275756836 L 404.2320556640625 103.48950958251953 L 428.155517578125 55.4125862121582 L 452.0789489746094 131.8986053466797 L 476.00238037109375 162.49301147460938 L 499.92584228515625 118.78671264648438 L 523.8493041992188 116.60140228271484 L 547.772705078125 116.60140228271484" stroke-linejoin="bevel" stroke-miterlimit="10" stroke-width="0.5" clip-path="url(#nHOfHkCuAvPs)"/><path fill="none" stroke="rgb(128,128,128)" paint-order="fill" d="M 93.2272720336914 169.0489501953125 L 117.15071868896484 138.4545440673828 L 141.07415771484375 112.23076629638672 L 164.9976043701172 145.01048278808594 L 188.92105102539062 210.56993103027344 L 212.84449768066406 105.6748275756836 L 236.7679443359375 127.52796936035156 L 260.6913757324219 116.60140228271484 L 284.6148376464844 123.15734100341797 L 308.53826904296875 138.4545440673828" stroke-opacity="0.7490196078431373" stroke-linejoin="bevel" stroke-miterlimit="10" clip-path="url(#KIJLwuvbwTfK)"/><path fill="none" stroke="grey" paint-order="fill" d="M 308.53826904296875 138.4545440673828 L 332.46173095703125 107.86013793945312 L 356.3851623535156 138.4545440673828 L 380.3086242675781 145.01048278808594 L 404.2320556640625 129.71328735351562 L 428.155517578125 105.6748275756836 L 452.0789489746094 142.82518005371094 L 476.00238037109375 131.8986053466797 L 499.92584228515625 114.41608428955078 L 523.8493041992188 120.97203063964844 L 547.772705078125 110.04545593261719" stroke-linejoin="bevel" stroke-miterlimit="10" stroke-width="0.5" clip-path="url(#oCTGOKgEqLOi)"/><path fill="none" stroke="grey" paint-order="fill" d="M 308.53826904296875 138.4545440673828 L 332.46173095703125 105.6748275756836 L 356.3851623535156 153.7517547607422 L 380.3086242675781 138.4545440673828 L 404.2320556640625 162.49301147460938 L 428.155517578125 153.7517547607422 L 452.0789489746094 99.11888122558594 L 476.00238037109375 116.60140228271484 L 499.92584228515625 75.0804214477539 L 523.8493041992188 53.227272033691406 L 547.772705078125 79.4510498046875" stroke-linejoin="bevel" stroke-miterlimit="10" stroke-width="0.5" clip-path="url(#EKlWldRzEhJn)"/><path fill="none" stroke="rgb(128,128,128)" paint-order="fill" d="M 93.2272720336914 114.41608428955078 L 117.15071868896484 116.60140228271484 L 141.07415771484375 112.23076629638672 L 164.9976043701172 149.38111877441406 L 188.92105102539062 103.48950958251953 L 212.84449768066406 136.26922607421875 L 236.7679443359375 131.8986053466797 L 260.6913757324219 138.4545440673828 L 284.6148376464844 158.12237548828125 L 308.53826904296875 94.74825286865234" stroke-opacity="0.7490196078431373" stroke-linejoin="bevel" stroke-miterlimit="10" clip-path="url(#PdcZGOnWefeW)"/><path fill="none" stroke="grey" paint-order="fill" d="M 308.53826904296875 94.74825286865234 L 332.46173095703125 118.78671264648438 L 356.3851623535156 129.71328735351562 L 380.3086242675781 103.48950958251953 L 404.2320556640625 105.6748275756836 L 428.155517578125 131.8986053466797 L 452.0789489746094 103.48950958251953 L 476.00238037109375 142.82518005371094 L 499.92584228515625 125.34265899658203 L 523.8493041992188 99.11888122558594 L 547.772705078125 112.23076629638672" stroke-linejoin="bevel" stroke-miterlimit="10" stroke-width="0.5" clip-path="url(#alMcMvqFMFcr)"/><path fill="none" stroke="grey" paint-order="fill" d="M 308.53826904296875 94.74825286865234 L 332.46173095703125 136.26922607421875 L 356.3851623535156 120.97203063964844 L 380.3086242675781 151.56643676757812 L 404.2320556640625 136.26922607421875 L 428.155517578125 142.82518005371094 L 452.0789489746094 136.26922607421875 L 476.00238037109375 140.63986206054688 L 499.92584228515625 147.19580078125 L 523.8493041992188 114.41608428955078 L 547.772705078125 83.8216781616211" stroke-linejoin="bevel" stroke-miterlimit="10" stroke-width="0.5" clip-path="url(#EpRpzKRZyKTa)"/><path fill="none" stroke="black" paint-order="fill" d="M 70.5 280.5 L 570.5 280.5" stroke-linejoin="bevel" stroke-miterlimit="10"/><path fill="none" stroke="black" paint-order="fill" d="M 93.5 286.5 L 93.5 278.5 M 212.5 286.5 L 212.5 278.5 M 332.5 286.5 L 332.5 278.5 M 452.5 286.5 L 452.5 278.5" stroke-linejoin="bevel" stroke-miterlimit="10"/><path fill="none" stroke="black" paint-order="fill" d="M 93.5 284.5 L 93.5 280.5 M 117.5 284.5 L 117.5 280.5 M 141.5 284.5 L 141.5 280.5 M 164.5 284.5 L 164.5 280.5 M 188.5 284.5 L 188.5 280.5 M 212.5 284.5 L 212.5 280.5 M 236.5 284.5 L 236.5 280.5 M 260.5 284.5 L 260.5 280.5 M 284.5 284.5 L 284.5 280.5 M 308.5 284.5 L 308.5 280.5 M 332.5 284.5 L 332.5 280.5 M 356.5 284.5 L 356.5 280.5 M 380.5 284.5 L 380.5 280.5 M 404.5 284.5 L 404.5 280.5 M 428.5 284.5 L 428.5 280.5 M 452.5 284.5 L 452.5 280.5 M 476.5 284.5 L 476.5 280.5 M 499.5 284.5 L 499.5 280.5 M 523.5 284.5 L 523.5 280.5 M 547.5 284.5 L 547.5 280.5" stroke-linejoin="bevel" stroke-miterlimit="10"/><text fill="#444444" stroke="none" font-family="helvetica" font-size="10pt" font-style="normal" font-weight="normal" text-decoration="normal" x="77.82727241516113" y="300.59368896484375" text-anchor="start" dominant-baseline="alphabetic" transform="matrix(1, 0, 0, 1, 0.5, 0.5)">2025</text><text fill="none" stroke="rgb(0,0,0)" font-family="helvetica" font-size="10pt" font-style="normal" font-weight="normal" text-decoration="normal" x="77.82727241516113" y="300.59368896484375" text-anchor="start" dominant-baseline="alphabetic" transform="matrix(1, 0, 0, 1, 0.5, 0.5)" stroke-opacity="0" stroke-linejoin="bevel" stroke-miterlimit="10">2025</text><text fill="#444444" stroke="none" font-family="helvetica" font-size="10pt" font-style="normal" font-weight="normal" text-decoration="normal" x="197.4444980621338" y="300.59368896484375" text-anchor="start" dominant-baseline="alphabetic" transform="matrix(1, 0, 0, 1, 0.5, 0.5)">2030</text><text fill="none" stroke="rgb(0,0,0)" font-family="helvetica" font-size="10pt" font-style="normal" font-weight="normal" text-decoration="normal" x="197.4444980621338" y="300.59368896484375" text-anchor="start" dominant-baseline="alphabetic" transform="matrix(1, 0, 0, 1, 0.5, 0.5)" stroke-opacity="0" stroke-linejoin="bevel" stroke-miterlimit="10">2030</text><text fill="#444444" stroke="none" font-family="helvetica" font-size="10pt" font-style="normal" font-weight="normal" text-decoration="normal" x="317.061731338501" y="300.59368896484375" text-anchor="start" dominant-baseline="alphabetic" transform="matrix(1, 0, 0, 1, 0.5, 0.5)">2035</text><text fill="none" stroke="rgb(0,0,0)" font-family="helvetica" font-size="10pt" font-style="normal" font-weight="normal" text-decoration="normal" x="317.061731338501" y="300.59368896484375" text-anchor="start" dominant-baseline="alphabetic" transform="matrix(1, 0, 0, 1, 0.5, 0.5)" stroke-opacity="0" stroke-linejoin="bevel" stroke-miterlimit="10">2035</text><text fill="#444444" stroke="none" font-family="helvetica" font-size="10pt" font-style="normal" font-weight="normal" text-decoration="normal" x="436.6789493560791" y="300.59368896484375" text-anchor="start" dominant-baseline="alphabetic" transform="matrix(1, 0, 0, 1, 0.5, 0.5)">2040</text><text fill="none" stroke="rgb(0,0,0)" font-family="helvetica" font-size="10pt" font-style="normal" font-weight="normal" text-decoration="normal" x="436.6789493560791" y="300.59368896484375" text-anchor="start" dominant-baseline="alphabetic" transform="matrix(1, 0, 0, 1, 0.5, 0.5)" stroke-opacity="0" stroke-linejoin="bevel" stroke-miterlimit="10">2040</text><text fill="#444444" stroke="none" font-family="helvetica" font-size="12pt" font-style="normal" font-weight="normal" text-decoration="normal" x="303.8333339691162" y="321.59368896484375" text-anchor="start" dominant-baseline="alphabetic" transform="matrix(1, 0, 0, 1, 0.5, 0.5)">Year</text><text fill="none" stroke="rgb(0,0,0)" font-family="helvetica" font-size="12pt" font-style="normal" font-weight="normal" text-decoration="normal" x="303.8333339691162" y="321.59368896484375" text-anchor="start" dominant-baseline="alphabetic" transform="matrix(1, 0, 0, 1, 0.5, 0.5)" stroke-opacity="0" stroke-linejoin="bevel" stroke-miterlimit="10">Year</text><path fill="none" stroke="black" paint-order="fill" d="M 70.5 280.5 L 70.5 30.5" stroke-linejoin="bevel" stroke-miterlimit="10"/><path fill="none" stroke="black" paint-order="fill" d="M 64.5 280.5 L 72.5 280.5 M 64.5 236.5 L 72.5 236.5 M 64.5 193.5 L 72.5 193.5 M 64.5 149.5 L 72.5 149.5 M 64.5 105.5 L 72.5 105.5 M 64.5 61.5 L 72.5 61.5" stroke-linejoin="bevel" stroke-miterlimit="10"/><path fill="none" stroke="black" paint-order="fill" d="M 66.5 280.5 L 70.5 280.5 M 66.5 271.5 L 70.5 271.5 M 66.5 263.5 L 70.5 263.5 M 66.5 254.5 L 70.5 254.5 M 66.5 245.5 L 70.5 245.5 M 66.5 236.5 L 70.5 236.5 M 66.5 228.5 L 70.5 228.5 M 66.5 219.5 L 70.5 219.5 M 66.5 210.5 L 70.5 210.5 M 66.5 201.5 L 70.5 201.5 M 66.5 193.5 L 70.5 193.5 M 66.5 184.5 L 70.5 184.5 M 66.5 175.5 L 70.5 175.5 M 66.5 166.5 L 70.5 166.5 M 66.5 158.5 L 70.5 158.5 M 66.5 149.5 L 70.5 149.5 M 66.5 140.5 L 70.5 140.5 M 66.5 131.5 L 70.5 131.5 M 66.5 123.5 L 70.5 123.5 M 66.5 114.5 L 70.5 114.5 M 66.5 105.5 L 70.5 105.5 M 66.5 96.5 L 70.5 96.5 M 66.5 88.5 L 70.5 88.5 M 66.5 79.5 L 70.5 79.5 M 66.5 70.5 L 70.5 70.5 M 66.5 61.5 L 70.5 61.5 M 66.5 53.5 L 70.5 53.5 M 66.5 44.5 L 70.5 44.5 M 66.5 35.5 L 70.5 35.5" stroke-linejoin="bevel" stroke-miterlimit="10"/><text fill="#444444" stroke="none" font-family="helvetica" font-size="10pt" font-style="normal" font-weight="normal" text-decoration="normal" x="51.55000019073486" y="284.7968444824219" text-anchor="start" dominant-baseline="alphabetic" transform="matrix(1, 0, 0, 1, 0.5, 0.5)">0</text><text fill="none" stroke="rgb(0,0,0)" font-family="helvetica" font-size="10pt" font-style="normal" font-weight="normal" text-decoration="normal" x="51.55000019073486" y="284.7968444824219" text-anchor="start" dominant-baseline="alphabetic" transform="matrix(1, 0, 0, 1, 0.5, 0.5)" stroke-opacity="0" stroke-linejoin="bevel" stroke-miterlimit="10">0</text><text fill="#444444" stroke="none" font-family="helvetica" font-size="10pt" font-style="normal" font-weight="normal" text-decoration="normal" x="44.10000038146973" y="241.09054565429688" text-anchor="start" dominant-baseline="alphabetic" transform="matrix(1, 0, 0, 1, 0.5, 0.5)">20</text><text fill="none" stroke="rgb(0,0,0)" font-family="helvetica" font-size="10pt" font-style="normal" font-weight="normal" text-decoration="normal" x="44.10000038146973" y="241.09054565429688" text-anchor="start" dominant-baseline="alphabetic" transform="matrix(1, 0, 0, 1, 0.5, 0.5)" stroke-opacity="0" stroke-linejoin="bevel" stroke-miterlimit="10">20</text><text fill="#444444" stroke="none" font-family="helvetica" font-size="10pt" font-style="normal" font-weight="normal" text-decoration="normal" x="44.10000038146973" y="197.38426208496094" text-anchor="start" dominant-baseline="alphabetic" transform="matrix(1, 0, 0, 1, 0.5, 0.5)">40</text><text fill="none" stroke="rgb(0,0,0)" font-family="helvetica" font-size="10pt" font-style="normal" font-weight="normal" text-decoration="normal" x="44.10000038146973" y="197.38426208496094" text-anchor="start" dominant-baseline="alphabetic" transform="matrix(1, 0, 0, 1, 0.5, 0.5)" stroke-opacity="0" stroke-linejoin="bevel" stroke-miterlimit="10">40</text><text fill="#444444" stroke="none" font-family="helvetica" font-size="10pt" font-style="normal" font-weight="normal" text-decoration="normal" x="44.10000038146973" y="153.67796325683594" text-anchor="start" dominant-baseline="alphabetic" transform="matrix(1, 0, 0, 1, 0.5, 0.5)">60</text><text fill="none" stroke="rgb(0,0,0)" font-family="helvetica" font-size="10pt" font-style="normal" font-weight="normal" text-decoration="normal" x="44.10000038146973" y="153.67796325683594" text-anchor="start" dominant-baseline="alphabetic" transform="matrix(1, 0, 0, 1, 0.5, 0.5)" stroke-opacity="0" stroke-linejoin="bevel" stroke-miterlimit="10">60</text><text fill="#444444" stroke="none" font-family="helvetica" font-size="10pt" font-style="normal" font-weight="normal" text-decoration="normal" x="44.10000038146973" y="109.97167205810547" text-anchor="start" dominant-baseline="alphabetic" transform="matrix(1, 0, 0, 1, 0.5, 0.5)">80</text><text fill="none" stroke="rgb(0,0,0)" font-family="helvetica" font-size="10pt" font-style="normal" font-weight="normal" text-decoration="normal" x="44.10000038146973" y="109.97167205810547" text-anchor="start" dominant-baseline="alphabetic" transform="matrix(1, 0, 0, 1, 0.5, 0.5)" stroke-opacity="0" stroke-linejoin="bevel" stroke-miterlimit="10">80</text><text fill="#444444" stroke="none" font-family="helvetica" font-size="10pt" font-style="normal" font-weight="normal" text-decoration="normal" x="36.64999961853027" y="66.26537704467773" text-anchor="start" dominant-baseline="alphabetic" transform="matrix(1, 0, 0, 1, 0.5, 0.5)">100</text><text fill="none" stroke="rgb(0,0,0)" font-family="helvetica" font-size="10pt" font-style="normal" font-weight="normal" text-decoration="normal" x="36.64999961853027" y="66.26537704467773" text-anchor="start" dominant-baseline="alphabetic" transform="matrix(1, 0, 0, 1, 0.5, 0.5)" stroke-opacity="0" stroke-linejoin="bevel" stroke-miterlimit="10">100</text><text fill="#444444" stroke="none" font-family="helvetica" font-size="12pt" font-style="normal" font-weight="normal" text-decoration="normal" x="-78.07499885559082" y="151" text-anchor="start" dominant-baseline="alphabetic" transform="matrix(6.123233995736766e-17, -1, 1, 6.123233995736766e-17, -125.85000038146973, 184.14999961853027)">Days suitable for transmission</text><text fill="none" stroke="rgb(0,0,0)" font-family="helvetica" font-size="12pt" font-style="normal" font-weight="normal" text-decoration="normal" x="-78.07499885559082" y="151" text-anchor="start" dominant-baseline="alphabetic" transform="matrix(6.123233995736766e-17, -1, 1, 6.123233995736766e-17, -125.85000038146973, 184.14999961853027)" stroke-opacity="0" stroke-linejoin="bevel" stroke-miterlimit="10">Days suitable for transmission</text><path fill="rgb(255,255,255)" stroke="rgb(229,229,229)" paint-order="fill" d="M 475.183349609375 205.5 L 560.5000152587891 205.5 L 560.5000152587891 270.5 L 475.183349609375 270.5 L 475.183349609375 205.5 Z" fill-opacity="0.9490196078431372" clip-path="url(#esfxnyTsznwW)" stroke-opacity="0.5019607843137255" stroke-linejoin="bevel" stroke-miterlimit="10"/><g clip-path="url(#esfxnyTsznwW)"><g transform="matrix(1, 0, 0, 1, 485.683349609375, 216)"><path fill="none" stroke="#30a2da" paint-order="fill" d="M 0.5 10.5 L 20.5 10.5" stroke-linejoin="bevel" stroke-miterlimit="10" stroke-width="2"/></g></g><g clip-path="url(#esfxnyTsznwW)"><text fill="#444444" stroke="none" font-family="helvetica" font-size="13px" font-style="normal" font-weight="normal" text-decoration="normal" x="510.683349609375" y="230" text-anchor="start" dominant-baseline="alphabetic" transform="matrix(1, 0, 0, 1, 0.5, 0.5)">ID 001</text></g><g clip-path="url(#esfxnyTsznwW)"><text fill="none" stroke="rgb(0,0,0)" font-family="helvetica" font-size="13px" font-style="normal" font-weight="normal" text-decoration="normal" x="510.683349609375" y="230" text-anchor="start" dominant-baseline="alphabetic" transform="matrix(1, 0, 0, 1, 0.5, 0.5)" stroke-opacity="0" stroke-linejoin="bevel" stroke-miterlimit="10">ID 001</text></g><g clip-path="url(#esfxnyTsznwW)"><g transform="matrix(1, 0, 0, 1, 485.683349609375, 239)"><path fill="none" stroke="#fc4f30" paint-order="fill" d="M 0.5 10.5 L 20.5 10.5" stroke-linejoin="bevel" stroke-miterlimit="10" stroke-width="2"/></g></g><g clip-path="url(#esfxnyTsznwW)"><text fill="#444444" stroke="none" font-family="helvetica" font-size="13px" font-style="normal" font-weight="normal" text-decoration="normal" x="510.683349609375" y="253" text-anchor="start" dominant-baseline="alphabetic" transform="matrix(1, 0, 0, 1, 0.5, 0.5)">ID 006</text></g><g clip-path="url(#esfxnyTsznwW)"><text fill="none" stroke="rgb(0,0,0)" font-family="helvetica" font-size="13px" font-style="normal" font-weight="normal" text-decoration="normal" x="510.683349609375" y="253" text-anchor="start" dominant-baseline="alphabetic" transform="matrix(1, 0, 0, 1, 0.5, 0.5)" stroke-opacity="0" stroke-linejoin="bevel" stroke-miterlimit="10">ID 006</text></g><text fill="black" stroke="none" font-family="helvetica" font-size="14pt" font-style="normal" font-weight="normal" text-decoration="normal" x="0" y="15" text-anchor="start" dominant-baseline="alphabetic" transform="matrix(1, 0, 0, 1, 5.5, 5.5)">B. Seattle</text><text fill="none" stroke="rgb(0,0,0)" font-family="helvetica" font-size="14pt" font-style="normal" font-weight="normal" text-decoration="normal" x="0" y="15" text-anchor="start" dominant-baseline="alphabetic" transform="matrix(1, 0, 0, 1, 5.5, 5.5)" stroke-opacity="0" stroke-linejoin="bevel" stroke-miterlimit="10">B. Seattle</text></svg>