<svg version="1.1" xmlns="http://www.w3.org/2000/svg" width="600" height="329"><defs><clipPath id="AWAzduukCTfV"><path fill="none" stroke="none" d="M 70.5 30.5 L 570.5 30.5 L 570.5 280.5 L 70.5 280.5 L 70.5 30.5 Z"/></clipPath><clipPath id="xrPGzxEUcMqs"><path fill="none" stroke="none" d="M 70.5 30.5 L 570.5 30.5 L 570.5 280.5 L 70.5 280.5 L 70.5 30.5 Z"/></clipPath><clipPath id="ytypzgbPRRfw"><path fill="none" stroke="none" d="M 70.5 30.5 L 570.5 30.5 L 570.5 280.5 L 70.5 280.5 L 70.5 30.5 Z"/></clipPath><clipPath id="xVmWtpRHFiCn"><path fill="none" stroke="none" d="M 70.5 30.5 L 570.5 30.5 L 570.5 280.5 L 70.5 280.5 L 70.5 30.5 Z"/></clipPath><clipPath id="PASTXAZTCmAe"><path fill="none" stroke="none" d="M 70.5 30.5 L 570.5 30.5 L 570.5 280.5 L 70.5 280.5 L 70.5 30.5 Z"/></clipPath><clipPath id="DdgHmJJstwst"><path fill="none" stroke="none" d="M 70.5 30.5 L 570.5 30.5 L 570.5 280.5 L 70.5 280.5 L 70.5 30.5 Z"/></clipPath><clipPath id="axcoVTLvHuOI"><path fill="none" stroke="none" d="M 70.5 30.5 L 570.5 30.5 L 570.5 280.5 L 70.5 280.5 L 70.5 30.5 Z"/></clipPath><clipPath id="GceZLtFcvTXF"><path fill="none" stroke="none" d="M 70.5 30.5 L 570.5 30.5 L 570.5 280.5 L 70.5 280.5 L 70.5 30.5 Z"/></clipPath><clipPath id="DFeicDJwlBAJ"><path fill="none" stroke="none" d="M 70.5 30.5 L 570.5 30.5 L 570.5 280.5 L 70.5 280.5 L 70.5 30.5 Z"/></clipPath><clipPath id="UhbTbDSguVBx"><path fill="none" stroke="none" d="M 70.5 30.5 L 570.5 30.5 L 570.5 280.5 L 70.5 280.5 L 70.5 30.5 Z"/></clipPath><clipPath id="GmpaLXEPvrxx"><path fill="none" stroke="none" d="M 70.5 30.5 L 570.5 30.5 L 570.5 280.5 L 70.5 280.5 L 70.5 30.5 Z"/></clipPath><clipPath id="gXmqcdcBnScB"><path fill="none" stroke="none" d="M 70.5 30.5 L 570.5 30.5 L 570.5 280.5 L 70.5 280.5 L 70.5 30.5 Z"/></clipPath><clipPath id="PdLmMJRIzori"><path fill="none" stroke="none" d="M 70.5 30.5 L 570.5 30.5 L 570.5 280.5 L 70.5 280.5 L 70.5 30.5 Z"/></clipPath><clipPath id="iXgZFqrDRiiN"><path fill="none" stroke="none" d="M 70.5 30.5 L 570.5 30.5 L 570.5 280.5 L 70.5 280.5 L 70.5 30.5 Z"/></clipPath><clipPath id="BuNQsmGMTqFB"><path fill="none" stroke="none" d="M 70.5 30.5 L 570.5 30.5 L 570.5 280.5 L 70.5 280.5 L 70.5 30.5 Z"/></clipPath><clipPath id="LLQtbpenZkOX"><path fill="none" stroke="none" d="M 70.5 30.5 L 570.5 30.5 L 570.5 280.5 L 70.5 280.5 L 70.5 30.5 Z"/></clipPath><clipPath id="ZFDEFeJlJEVy"><path fill="none" stroke="none" d="M 70.5 30.5 L 570.5 30.5 L 570.5 280.5 L 70.5 280.5 L 70.5 30.5 Z"/></clipPath><clipPath id="VGyIDNVaSSwL"><path fill="none" stroke="none" d="M 70.5 30.5 L 570.5 30.5 L 570.5 280.5 L 70.5 280.5 L 70.5 30.5 Z"/></clipPath><clipPath id="VzxtxozloZNL"><path fill="none" stroke="none" d="M 70.5 30.5 L 570.5 30.5 L 570.5 280.5 L 70.5 280.5 L 70.5 30.5 Z"/></clipPath><clipPath id="aGWGgUkGnrJm"><path fill="none" stroke="none" d="M 70.5 30.5 L 570.5 30.5 L 570.5 280.5 L 70.5 280.5 L 70.5 30.5 Z"/></clipPath><clipPath id="pmTEmpagJeir"><path fill="none" stroke="none" d="M 70.5 30.5 L 570.5 30.5 L 570.5 280.5 L 70.5 280.5 L 70.5 30.5 Z"/></clipPath><clipPath id="dWEZaHnluHcS"><path fill="none" stroke="none" d="M 70.5 30.5 L 570.5 30.5 L 570.5 280.5 L 70.5 280.5 L 70.5 30.5 Z"/></clipPath><clipPath id="qpIhFZimTEay"><path fill="none" stroke="none" d="M 70.5 30.5 L 570.5 30.5 L 570.5 280.5 L 70.5 280.5 L 70.5 30.5 Z"/></clipPath></defs><path fill="none" stroke="#e5e5e5" paint-order="fill" d="M 70.5 30.5 L 570.5 30.5 L 570.5 280.5 L 70.5 280.5 L 70.5 30.5 Z" stroke-linejoin="bevel" stroke-miterlimit="10"/><path fill="none" stroke="black" paint-order="fill" d="M 332.46172248803487 30.5 L 332.46172248803487 280.5" stroke-linejoin="bevel" stroke-miterlimit="10" stroke-width="3" stroke-dasharray="6" clip-path="url(#ytypzgbPRRfw)"/><path fill="none" stroke="#9467bd" paint-order="fill" d="M 93.2272720336914 140.85049438476562 L 117.15071868896484 127.15936279296875 L 141.07415771484375 225.73548889160156 L 164.9976043701172 203.82968139648438 L 188.92105102539062 105.2535629272461 L 212.84449768066406 151.8033905029297 L 236.7679443359375 239.42662048339844 L 260.6913757324219 140.85049438476562 L 284.6148376464844 212.0443572998047 L 308.53826904296875 176.4474334716797" stroke-linejoin="bevel" stroke-miterlimit="10" stroke-width="2" clip-path="url(#xVmWtpRHFiCn)"/><path fill="none" stroke="#9467bd" paint-order="fill" d="M 93.2272720336914 140.85049438476562 L 117.15071868896484 127.15936279296875 L 141.07415771484375 225.73548889160156 L 164.9976043701172 203.82968139648438 L 188.92105102539062 105.2535629272461 L 212.84449768066406 151.8033905029297 L 236.7679443359375 239.42662048339844 L 260.6913757324219 140.85049438476562 L 284.6148376464844 212.0443572998047 L 308.53826904296875 176.4474334716797" stroke-linejoin="bevel" stroke-miterlimit="10" stroke-width="2" stroke-dasharray="6" clip-path="url(#PASTXAZTCmAe)"/><path fill="none" stroke="#30a2da" paint-order="fill" d="M 308.53826904296875 176.4474334716797 L 332.46173095703125 138.11227416992188 L 356.3851623535156 99.77710723876953 L 380.3086242675781 162.7563018798828 L 404.2320556640625 190.1385498046875 L 428.155517578125 66.91840362548828 L 452.0789489746094 179.18565368652344 L 476.00238037109375 212.0443572998047 L 499.92584228515625 140.85049438476562 L 523.8493041992188 157.27984619140625 L 547.772705078125 212.0443572998047" stroke-linejoin="bevel" stroke-miterlimit="10" stroke-width="2" clip-path="url(#DdgHmJJstwst)"/><path fill="none" stroke="#30a2da" paint-order="fill" d="M 332.46173095703125 124.91899871826172 L 356.3851623535156 131.80604553222656 L 380.3086242675781 138.69309997558594 L 404.2320556640625 145.5801544189453 L 428.155517578125 152.4672088623047 L 452.0789489746094 159.35426330566406 L 476.00238037109375 166.24131774902344 L 499.92584228515625 173.1283721923828 L 523.8493041992188 180.01541137695312 L 547.772705078125 186.9024658203125" stroke-linejoin="bevel" stroke-miterlimit="10" stroke-width="2" stroke-dasharray="6" clip-path="url(#axcoVTLvHuOI)"/><path fill="none" stroke="#fc4f30" paint-order="fill" d="M 308.53826904296875 176.4474334716797 L 332.46173095703125 107.99178314208984 L 356.3851623535156 239.42662048339844 L 380.3086242675781 217.52081298828125 L 404.2320556640625 170.97097778320312 L 428.155517578125 124.421142578125 L 452.0789489746094 179.18565368652344 L 476.00238037109375 192.8767852783203 L 499.92584228515625 165.49452209472656 L 523.8493041992188 154.5416259765625 L 547.772705078125 97.03887939453125" stroke-linejoin="bevel" stroke-miterlimit="10" stroke-width="2" clip-path="url(#GceZLtFcvTXF)"/><path fill="none" stroke="#fc4f30" paint-order="fill" d="M 332.46173095703125 187.64926147460938 L 356.3851623535156 182.60427856445312 L 380.3086242675781 177.55931091308594 L 404.2320556640625 172.51434326171875 L 428.155517578125 167.4693603515625 L 452.0789489746094 162.4243927001953 L 476.00238037109375 157.37942504882812 L 499.92584228515625 152.33444213867188 L 523.8493041992188 147.2894744873047 L 547.772705078125 142.24449157714844" stroke-linejoin="bevel" stroke-miterlimit="10" stroke-width="2" stroke-dasharray="6" clip-path="url(#DFeicDJwlBAJ)"/><path fill="none" stroke="rgb(128,128,128)" paint-order="fill" d="M 93.2272720336914 247.64129638671875 L 117.15071868896484 160.01806640625 L 141.07415771484375 58.7037239074707 L 164.9976043701172 129.8975830078125 L 188.92105102539062 99.77710723876953 L 212.84449768066406 146.3269500732422 L 236.7679443359375 138.11227416992188 L 260.6913757324219 138.11227416992188 L 284.6148376464844 140.85049438476562 L 308.53826904296875 105.2535629272461" stroke-opacity="0.7490196078431373" stroke-linejoin="bevel" stroke-miterlimit="10" clip-path="url(#UhbTbDSguVBx)"/><path fill="none" stroke="grey" paint-order="fill" d="M 308.53826904296875 105.2535629272461 L 332.46173095703125 83.3477554321289 L 356.3851623535156 132.6358184814453 L 380.3086242675781 69.65662384033203 L 404.2320556640625 107.99178314208984 L 428.155517578125 99.77710723876953 L 452.0789489746094 99.77710723876953 L 476.00238037109375 228.4737091064453 L 499.92584228515625 149.06517028808594 L 523.8493041992188 242.1648406982422 L 547.772705078125 214.78257751464844" stroke-linejoin="bevel" stroke-miterlimit="10" stroke-width="0.5" clip-path="url(#GmpaLXEPvrxx)"/><path fill="none" stroke="grey" paint-order="fill" d="M 308.53826904296875 105.2535629272461 L 332.46173095703125 116.20645904541016 L 356.3851623535156 138.11227416992188 L 380.3086242675781 201.09146118164062 L 404.2320556640625 206.56790161132812 L 428.155517578125 179.18565368652344 L 452.0789489746094 80.60952758789062 L 476.00238037109375 132.6358184814453 L 499.92584228515625 146.3269500732422 L 523.8493041992188 160.01806640625 L 547.772705078125 143.58871459960938" stroke-linejoin="bevel" stroke-miterlimit="10" stroke-width="0.5" clip-path="url(#gXmqcdcBnScB)"/><path fill="none" stroke="rgb(128,128,128)" paint-order="fill" d="M 93.2272720336914 107.99178314208984 L 117.15071868896484 132.6358184814453 L 141.07415771484375 88.82420349121094 L 164.9976043701172 206.56790161132812 L 188.92105102539062 195.61500549316406 L 212.84449768066406 127.15936279296875 L 236.7679443359375 176.4474334716797 L 260.6913757324219 99.77710723876953 L 284.6148376464844 201.09146118164062 L 308.53826904296875 162.7563018798828" stroke-opacity="0.7490196078431373" stroke-linejoin="bevel" stroke-miterlimit="10" clip-path="url(#PdLmMJRIzori)"/><path fill="none" stroke="grey" paint-order="fill" d="M 308.53826904296875 162.7563018798828 L 332.46173095703125 121.68291473388672 L 356.3851623535156 135.37403869628906 L 380.3086242675781 102.51533508300781 L 404.2320556640625 127.15936279296875 L 428.155517578125 116.20645904541016 L 452.0789489746094 129.8975830078125 L 476.00238037109375 83.3477554321289 L 499.92584228515625 121.68291473388672 L 523.8493041992188 110.73001098632812 L 547.772705078125 184.662109375" stroke-linejoin="bevel" stroke-miterlimit="10" stroke-width="0.5" clip-path="url(#iXgZFqrDRiiN)"/><path fill="none" stroke="grey" paint-order="fill" d="M 308.53826904296875 162.7563018798828 L 332.46173095703125 53.227272033691406 L 356.3851623535156 168.2327423095703 L 380.3086242675781 184.662109375 L 404.2320556640625 140.85049438476562 L 428.155517578125 116.20645904541016 L 452.0789489746094 203.82968139648438 L 476.00238037109375 143.58871459960938 L 499.92584228515625 192.8767852783203 L 523.8493041992188 97.03887939453125 L 547.772705078125 75.1330795288086" stroke-linejoin="bevel" stroke-miterlimit="10" stroke-width="0.5" clip-path="url(#BuNQsmGMTqFB)"/><path fill="none" stroke="rgb(128,128,128)" paint-order="fill" d="M 93.2272720336914 195.61500549316406 L 117.15071868896484 127.15936279296875 L 141.07415771484375 127.15936279296875 L 164.9976043701172 154.5416259765625 L 188.92105102539062 222.9972686767578 L 212.84449768066406 110.73001098632812 L 236.7679443359375 247.64129638671875 L 260.6913757324219 94.3006591796875 L 284.6148376464844 154.5416259765625 L 308.53826904296875 69.65662384033203" stroke-opacity="0.7490196078431373" stroke-linejoin="bevel" stroke-miterlimit="10" clip-path="url(#LLQtbpenZkOX)"/><path fill="none" stroke="grey" paint-order="fill" d="M 308.53826904296875 69.65662384033203 L 332.46173095703125 187.40032958984375 L 356.3851623535156 121.68291473388672 L 380.3086242675781 132.6358184814453 L 404.2320556640625 176.4474334716797 L 428.155517578125 203.82968139648438 L 452.0789489746094 151.8033905029297 L 476.00238037109375 173.70919799804688 L 499.92584228515625 138.11227416992188 L 523.8493041992188 190.1385498046875 L 547.772705078125 151.8033905029297" stroke-linejoin="bevel" stroke-miterlimit="10" stroke-width="0.5" clip-path="url(#ZFDEFeJlJEVy)"/><path fill="none" stroke="grey" paint-order="fill" d="M 308.53826904296875 69.65662384033203 L 332.46173095703125 135.37403869628906 L 356.3851623535156 132.6358184814453 L 380.3086242675781 170.97097778320312 L 404.2320556640625 187.40032958984375 L 428.155517578125 176.4474334716797 L 452.0789489746094 127.15936279296875 L 476.00238037109375 138.11227416992188 L 499.92584228515625 124.421142578125 L 523.8493041992188 173.70919799804688 L 547.772705078125 118.94468688964844" stroke-linejoin="bevel" stroke-miterlimit="10" stroke-width="0.5" clip-path="url(#VGyIDNVaSSwL)"/><path fill="none" stroke="rgb(128,128,128)" paint-order="fill" d="M 93.2272720336914 228.4737091064453 L 117.15071868896484 138.11227416992188 L 141.07415771484375 160.01806640625 L 164.9976043701172 124.421142578125 L 188.92105102539062 203.82968139648438 L 212.84449768066406 209.30613708496094 L 236.7679443359375 179.18565368652344 L 260.6913757324219 127.15936279296875 L 284.6148376464844 138.11227416992188 L 308.53826904296875 190.1385498046875" stroke-opacity="0.7490196078431373" stroke-linejoin="bevel" stroke-miterlimit="10" clip-path="url(#VzxtxozloZNL)"/><path fill="none" stroke="grey" paint-order="fill" d="M 308.53826904296875 190.1385498046875 L 332.46173095703125 140.85049438476562 L 356.3851623535156 170.97097778320312 L 380.3086242675781 58.7037239074707 L 404.2320556640625 86.08598327636719 L 428.155517578125 143.58871459960938 L 452.0789489746094 228.4737091064453 L 476.00238037109375 214.78257751464844 L 499.92584228515625 140.85049438476562 L 523.8493041992188 173.70919799804688 L 547.772705078125 118.94468688964844" stroke-linejoin="bevel" stroke-miterlimit="10" stroke-width="0.5" clip-path="url(#aGWGgUkGnrJm)"/><path fill="none" stroke="grey" paint-order="fill" d="M 308.53826904296875 190.1385498046875 L 332.46173095703125 146.3269500732422 L 356.3851623535156 118.94468688964844 L 380.3086242675781 124.421142578125 L 404.2320556640625 181.9238739013672 L 428.155517578125 168.2327423095703 L 452.0789489746094 116.20645904541016 L 476.00238037109375 209.30613708496094 L 499.92584228515625 149.06517028808594 L 523.8493041992188 118.94468688964844 L 547.772705078125 75.1330795288086" stroke-linejoin="bevel" stroke-miterlimit="10" stroke-width="0.5" clip-path="url(#pmTEmpagJeir)"/><path fill="none" stroke="black" paint-order="fill" d="M 70.5 280.5 L 570.5 280.5" stroke-linejoin="bevel" stroke-miterlimit="10"/><path fill="none" stroke="black" paint-order="fill" d="M 93.5 286.5 L 93.5 278.5 M 212.5 286.5 L 212.5 278.5 M 332.5 286.5 L 332.5 278.5 M 452.5 286.5 L 452.5 278.5" stroke-linejoin="bevel" stroke-miterlimit="10"/><path fill="none" stroke="black" paint-order="fill" d="M 93.5 284.5 L 93.5 280.5 M 117.5 284.5 L 117.5 280.5 M 141.5 284.5 L 141.5 280.5 M 164.5 284.5 L 164.5 280.5 M 188.5 284.5 L 188.5 280.5 M 212.5 284.5 L 212.5 280.5 M 236.5 284.5 L 236.5 280.5 M 260.5 284.5 L 260.5 280.5 M 284.5 284.5 L 284.5 280.5 M 308.5 284.5 L 308.5 280.5 M 332.5 284.5 L 332.5 280.5 M 356.5 284.5 L 356.5 280.5 M 380.5 284.5 L 380.5 280.5 M 404.5 284.5 L 404.5 280.5 M 428.5 284.5 L 428.5 280.5 M 452.5 284.5 L 452.5 280.5 M 476.5 284.5 L 476.5 280.5 M 499.5 284.5 L 499.5 280.5 M 523.5 284.5 L 523.5 280.5 M 547.5 284.5 L 547.5 280.5" stroke-linejoin="bevel" stroke-miterlimit="10"/><text fill="#444444" stroke="none" font-family="helvetica" font-size="10pt" font-style="normal" font-weight="normal" text-decoration="normal" x="77.86060523986816" y="301" text-anchor="start" dominant-baseline="alphabetic" transform="matrix(1, 0, 0, 1, 0.5, 0.5)">2025</text><text fill="none" stroke="rgb(0,0,0)" font-family="helvetica" font-size="10pt" font-style="normal" font-weight="normal" text-decoration="normal" x="77.86060523986816" y="301" text-anchor="start" dominant-baseline="alphabetic" transform="matrix(1, 0, 0, 1, 0.5, 0.5)" stroke-opacity="0" stroke-linejoin="bevel" stroke-miterlimit="10">2025</text><text fill="#444444" stroke="none" font-family="helvetica" font-size="10pt" font-style="normal" font-weight="normal" text-decoration="normal" x="197.47783088684082" y="301" text-anchor="start" dominant-baseline="alphabetic" transform="matrix(1, 0, 0, 1, 0.5, 0.5)">2030</text><text fill="none" stroke="rgb(0,0,0)" font-family="helvetica" font-size="10pt" font-style="normal" font-weight="normal" text-decoration="normal" x="197.47783088684082" y="301" text-anchor="start" dominant-baseline="alphabetic" transform="matrix(1, 0, 0, 1, 0.5, 0.5)" stroke-opacity="0" stroke-linejoin="bevel" stroke-miterlimit="10">2030</text><text fill="#444444" stroke="none" font-family="helvetica" font-size="10pt" font-style="normal" font-weight="normal" text-decoration="normal" x="317.095064163208" y="301" text-anchor="start" dominant-baseline="alphabetic" transform="matrix(1, 0, 0, 1, 0.5, 0.5)">2035</text><text fill="none" stroke="rgb(0,0,0)" font-family="helvetica" font-size="10pt" font-style="normal" font-weight="normal" text-decoration="normal" x="317.095064163208" y="301" text-anchor="start" dominant-baseline="alphabetic" transform="matrix(1, 0, 0, 1, 0.5, 0.5)" stroke-opacity="0" stroke-linejoin="bevel" stroke-miterlimit="10">2035</text><text fill="#444444" stroke="none" font-family="helvetica" font-size="10pt" font-style="normal" font-weight="normal" text-decoration="normal" x="436.71228218078613" y="301" text-anchor="start" dominant-baseline="alphabetic" transform="matrix(1, 0, 0, 1, 0.5, 0.5)">2040</text><text fill="none" stroke="rgb(0,0,0)" font-family="helvetica" font-size="10pt" font-style="normal" font-weight="normal" text-decoration="normal" x="436.71228218078613" y="301" text-anchor="start" dominant-baseline="alphabetic" transform="matrix(1, 0, 0, 1, 0.5, 0.5)" stroke-opacity="0" stroke-linejoin="bevel" stroke-miterlimit="10">2040</text><text fill="#444444" stroke="none" font-family="helvetica" font-size="12pt" font-style="normal" font-weight="normal" text-decoration="normal" x="303.8500003814697" y="321" text-anchor="start" dominant-baseline="alphabetic" transform="matrix(1, 0, 0, 1, 0.5, 0.5)">Year</text><text fill="none" stroke="rgb(0,0,0)" font-family="helvetica" font-size="12pt" font-style="normal" font-weight="normal" text-decoration="normal" x="303.8500003814697" y="321" text-anchor="start" dominant-baseline="alphabetic" transform="matrix(1, 0, 0, 1, 0.5, 0.5)" stroke-opacity="0" stroke-linejoin="bevel" stroke-miterlimit="10">Year</text><path fill="none" stroke="black" paint-order="fill" d="M 70.5 280.5 L 70.5 30.5" stroke-linejoin="bevel" stroke-miterlimit="10"/><path fill="none" stroke="black" paint-order="fill" d="M 64.5 280.5 L 72.5 280.5 M 64.5 225.5 L 72.5 225.5 M 64.5 170.5 L 72.5 170.5 M 64.5 116.5 L 72.5 116.5 M 64.5 61.5 L 72.5 61.5" stroke-linejoin="bevel" stroke-miterlimit="10"/><path fill="none" stroke="black" paint-order="fill" d="M 66.5 280.5 L 70.5 280.5 M 66.5 269.5 L 70.5 269.5 M 66.5 258.5 L 70.5 258.5 M 66.5 247.5 L 70.5 247.5 M 66.5 236.5 L 70.5 236.5 M 66.5 225.5 L 70.5 225.5 M 66.5 214.5 L 70.5 214.5 M 66.5 203.5 L 70.5 203.5 M 66.5 192.5 L 70.5 192.5 M 66.5 181.5 L 70.5 181.5 M 66.5 170.5 L 70.5 170.5 M 66.5 160.5 L 70.5 160.5 M 66.5 149.5 L 70.5 149.5 M 66.5 138.5 L 70.5 138.5 M 66.5 127.5 L 70.5 127.5 M 66.5 116.5 L 70.5 116.5 M 66.5 105.5 L 70.5 105.5 M 66.5 94.5 L 70.5 94.5 M 66.5 83.5 L 70.5 83.5 M 66.5 72.5 L 70.5 72.5 M 66.5 61.5 L 70.5 61.5 M 66.5 50.5 L 70.5 50.5 M 66.5 39.5 L 70.5 39.5" stroke-linejoin="bevel" stroke-miterlimit="10"/><text fill="#444444" stroke="none" font-family="helvetica" font-size="10pt" font-style="normal" font-weight="normal" text-decoration="normal" x="51.56666660308838" y="285" text-anchor="start" dominant-baseline="alphabetic" transform="matrix(1, 0, 0, 1, 0.5, 0.5)">0</text><text fill="none" stroke="rgb(0,0,0)" font-family="helvetica" font-size="10pt" font-style="normal" font-weight="normal" text-decoration="normal" x="51.56666660308838" y="285" text-anchor="start" dominant-baseline="alphabetic" transform="matrix(1, 0, 0, 1, 0.5, 0.5)" stroke-opacity="0" stroke-linejoin="bevel" stroke-miterlimit="10">0</text><text fill="#444444" stroke="none" font-family="helvetica" font-size="10pt" font-style="normal" font-weight="normal" text-decoration="normal" x="44.13333320617676" y="230.23548889160156" text-anchor="start" dominant-baseline="alphabetic" transform="matrix(1, 0, 0, 1, 0.5, 0.5)">20</text><text fill="none" stroke="rgb(0,0,0)" font-family="helvetica" font-size="10pt" font-style="normal" font-weight="normal" text-decoration="normal" x="44.13333320617676" y="230.23548889160156" text-anchor="start" dominant-baseline="alphabetic" transform="matrix(1, 0, 0, 1, 0.5, 0.5)" stroke-opacity="0" stroke-linejoin="bevel" stroke-miterlimit="10">20</text><text fill="#444444" stroke="none" font-family="helvetica" font-size="10pt" font-style="normal" font-weight="normal" text-decoration="normal" x="44.13333320617676" y="175.47097778320312" text-anchor="start" dominant-baseline="alphabetic" transform="matrix(1, 0, 0, 1, 0.5, 0.5)">40</text><text fill="none" stroke="rgb(0,0,0)" font-family="helvetica" font-size="10pt" font-style="normal" font-weight="normal" text-decoration="normal" x="44.13333320617676" y="175.47097778320312" text-anchor="start" dominant-baseline="alphabetic" transform="matrix(1, 0, 0, 1, 0.5, 0.5)" stroke-opacity="0" stroke-linejoin="bevel" stroke-miterlimit="10">40</text><text fill="#444444" stroke="none" font-family="helvetica" font-size="10pt" font-style="normal" font-weight="normal" text-decoration="normal" x="44.13333320617676" y="120.70645904541016" text-anchor="start" dominant-baseline="alphabetic" transform="matrix(1, 0, 0, 1, 0.5, 0.5)">60</text><text fill="none" stroke="rgb(0,0,0)" font-family="helvetica" font-size="10pt" font-style="normal" font-weight="normal" text-decoration="normal" x="44.13333320617676" y="120.70645904541016" text-anchor="start" dominant-baseline="alphabetic" transform="matrix(1, 0, 0, 1, 0.5, 0.5)" stroke-opacity="0" stroke-linejoin="bevel" stroke-miterlimit="10">60</text><text fill="#444444" stroke="none" font-family="helvetica" font-size="10pt" font-style="normal" font-weight="normal" text-decoration="normal" x="44.13333320617676" y="65.94194793701172" text-anchor="start" dominant-baseline="alphabetic" transform="matrix(1, 0, 0, 1, 0.5, 0.5)">80</text><text fill="none" stroke="rgb(0,0,0)" font-family="helvetica" font-size="10pt" font-style="normal" font-weight="normal" text-decoration="normal" x="44.13333320617676" y="65.94194793701172" text-anchor="start" dominant-baseline="alphabetic" transform="matrix(1, 0, 0, 1, 0.5, 0.5)" stroke-opacity="0" stroke-linejoin="bevel" stroke-miterlimit="10">80</text><text fill="#444444" stroke="none" font-family="helvetica" font-size="12pt" font-style="normal" font-weight="normal" text-decoration="normal" x="-70.00833702087402" y="150" text-anchor="start" dominant-baseline="alphabetic" transform="matrix(6.123233995736766e-17, -1, 1, 6.123233995736766e-17, -118.36666679382324, 191.63333320617676)">Days suitable for transmission</text><text fill="none" stroke="rgb(0,0,0)" font-family="helvetica" font-size="12pt" font-style="normal" font-weight="normal" text-decoration="normal" x="-70.00833702087402" y="150" text-anchor="start" dominant-baseline="alphabetic" transform="matrix(6.123233995736766e-17, -1, 1, 6.123233995736766e-17, -118.36666679382324, 191.63333320617676)" stroke-opacity="0" stroke-linejoin="bevel" stroke-miterlimit="10">Days suitable for transmission</text><path fill="rgb(255,255,255)" stroke="rgb(229,229,229)" paint-order="fill" d="M 475.183349609375 205.5 L 560.5000152587891 205.5 L 560.5000152587891 270.5 L 475.183349609375 270.5 L 475.183349609375 205.5 Z" fill-opacity="0.9490196078431372" clip-path="url(#dWEZaHnluHcS)" stroke-opacity="0.5019607843137255" stroke-linejoin="bevel" stroke-miterlimit="10"/><g clip-path="url(#dWEZaHnluHcS)"><g transform="matrix(1, 0, 0, 1, 485.683349609375, 216)"><path fill="none" stroke="#30a2da" paint-order="fill" d="M 0.5 10.5 L 20.5 10.5" stroke-linejoin="bevel" stroke-miterlimit="10" stroke-width="2"/></g></g><g clip-path="url(#dWEZaHnluHcS)"><text fill="#444444" stroke="none" font-family="helvetica" font-size="13px" font-style="normal" font-weight="normal" text-decoration="normal" x="510.683349609375" y="229" text-anchor="start" dominant-baseline="alphabetic" transform="matrix(1, 0, 0, 1, 0.5, 0.5)">ID 001</text></g><g clip-path="url(#dWEZaHnluHcS)"><text fill="none" stroke="rgb(0,0,0)" font-family="helvetica" font-size="13px" font-style="normal" font-weight="normal" text-decoration="normal" x="510.683349609375" y="229" text-anchor="start" dominant-baseline="alphabetic" transform="matrix(1, 0, 0, 1, 0.5, 0.5)" stroke-opacity="0" stroke-linejoin="bevel" stroke-miterlimit="10">ID 001</text></g><g clip-path="url(#dWEZaHnluHcS)"><g transform="matrix(1, 0, 0, 1, 485.683349609375, 239)"><path fill="none" stroke="#fc4f30" paint-order="fill" d="M 0.5 10.5 L 20.5 10.5" stroke-linejoin="bevel" stroke-miterlimit="10" stroke-width="2"/></g></g><g clip-path="url(#dWEZaHnluHcS)"><text fill="#444444" stroke="none" font-family="helvetica" font-size="13px" font-style="normal" font-weight="normal" text-decoration="normal" x="510.683349609375" y="252" text-anchor="start" dominant-baseline="alphabetic" transform="matrix(1, 0, 0, 1, 0.5, 0.5)">ID 006</text></g><g clip-path="url(#dWEZaHnluHcS)"><text fill="none" stroke="rgb(0,0,0)" font-family="helvetica" font-size="13px" font-style="normal" font-weight="normal" text-decoration="normal" x="510.683349609375" y="252" text-anchor="start" dominant-baseline="alphabetic" transform="matrix(1, 0, 0, 1, 0.5, 0.5)" stroke-opacity="0" stroke-linejoin="bevel" stroke-miterlimit="10">ID 006</text></g><text fill="black" stroke="none" font-family="helvetica" font-size="14pt" font-style="normal" font-weight="normal" text-decoration="normal" x="0" y="14" text-anchor="start" dominant-baseline="alphabetic" transform="matrix(1, 0, 0, 1, 5.5, 5.5)">A. London</text><text fill="none" stroke="rgb(0,0,0)" font-family="helvetica" font-size="14pt" font-style="normal" font-weight="normal" text-decoration="normal" x="0" y="14" text-anchor="start" dominant-baseline="alphabetic" transform="matrix(1, 0, 0, 1, 5.5, 5.5)" stroke-opacity="0" stroke-linejoin="bevel" stroke-miterlimit="10">A. London</text></svg>