<svg version="1.1" xmlns="http://www.w3.org/2000/svg" width="600" height="334"><defs><clipPath id="oKOaRtyuHTUr"><path fill="none" stroke="none" d="M 70.5 33.5 L 570.5 33.5 L 570.5 283.5 L 70.5 283.5 L 70.5 33.5 Z"/></clipPath><clipPath id="hWFUMMmoWrBO"><path fill="none" stroke="none" d="M 70.5 33.5 L 570.5 33.5 L 570.5 283.5 L 70.5 283.5 L 70.5 33.5 Z"/></clipPath><clipPath id="iPAVLOSUUNCX"><path fill="none" stroke="none" d="M 70.5 33.5 L 570.5 33.5 L 570.5 283.5 L 70.5 283.5 L 70.5 33.5 Z"/></clipPath><clipPath id="AxLXSwHflzxD"><path fill="none" stroke="none" d="M 70.5 33.5 L 570.5 33.5 L 570.5 283.5 L 70.5 283.5 L 70.5 33.5 Z"/></clipPath><clipPath id="RQKZEJrrLolD"><path fill="none" stroke="none" d="M 70.5 33.5 L 570.5 33.5 L 570.5 283.5 L 70.5 283.5 L 70.5 33.5 Z"/></clipPath><clipPath id="IqTREnWcImwR"><path fill="none" stroke="none" d="M 70.5 33.5 L 570.5 33.5 L 570.5 283.5 L 70.5 283.5 L 70.5 33.5 Z"/></clipPath><clipPath id="FOwOAzosdNAU"><path fill="none" stroke="none" d="M 70.5 33.5 L 570.5 33.5 L 570.5 283.5 L 70.5 283.5 L 70.5 33.5 Z"/></clipPath><clipPath id="HlBBOgLEuwMC"><path fill="none" stroke="none" d="M 70.5 33.5 L 570.5 33.5 L 570.5 283.5 L 70.5 283.5 L 70.5 33.5 Z"/></clipPath><clipPath id="TGxJmeCOaJmH"><path fill="none" stroke="none" d="M 70.5 33.5 L 570.5 33.5 L 570.5 283.5 L 70.5 283.5 L 70.5 33.5 Z"/></clipPath><clipPath id="XtNUJOcQZiwf"><path fill="none" stroke="none" d="M 70.5 33.5 L 570.5 33.5 L 570.5 283.5 L 70.5 283.5 L 70.5 33.5 Z"/></clipPath><clipPath id="fZgaeXQiIqzH"><path fill="none" stroke="none" d="M 70.5 33.5 L 570.5 33.5 L 570.5 283.5 L 70.5 283.5 L 70.5 33.5 Z"/></clipPath><clipPath id="pfJmxGKdAWla"><path fill="none" stroke="none" d="M 70.5 33.5 L 570.5 33.5 L 570.5 283.5 L 70.5 283.5 L 70.5 33.5 Z"/></clipPath><clipPath id="maRJMTNVQnEn"><path fill="none" stroke="none" d="M 70.5 33.5 L 570.5 33.5 L 570.5 283.5 L 70.5 283.5 L 70.5 33.5 Z"/></clipPath><clipPath id="uLhlRNIubnWp"><path fill="none" stroke="none" d="M 70.5 33.5 L 570.5 33.5 L 570.5 283.5 L 70.5 283.5 L 70.5 33.5 Z"/></clipPath><clipPath id="oxgVwDsRRKUT"><path fill="none" stroke="none" d="M 70.5 33.5 L 570.5 33.5 L 570.5 283.5 L 70.5 283.5 L 70.5 33.5 Z"/></clipPath><clipPath id="qiCVbPlqeyTL"><path fill="none" stroke="none" d="M 70.5 33.5 L 570.5 33.5 L 570.5 283.5 L 70.5 283.5 L 70.5 33.5 Z"/></clipPath><clipPath id="LibfcKXhJJPz"><path fill="none" stroke="none" d="M 70.5 33.5 L 570.5 33.5 L 570.5 283.5 L 70.5 283.5 L 70.5 33.5 Z"/></clipPath><clipPath id="etVeEDnuwgIz"><path fill="none" stroke="none" d="M 70.5 33.5 L 570.5 33.5 L 570.5 283.5 L 70.5 283.5 L 70.5 33.5 Z"/></clipPath><clipPath id="MqZgfIrXvFLA"><path fill="none" stroke="none" d="M 70.5 33.5 L 570.5 33.5 L 570.5 283.5 L 70.5 283.5 L 70.5 33.5 Z"/></clipPath><clipPath id="LstSOpMaTEhy"><path fill="none" stroke="none" d="M 70.5 33.5 L 570.5 33.5 L 570.5 283.5 L 70.5 283.5 L 70.5 33.5 Z"/></clipPath><clipPath id="oblKpSLtAAAI"><path fill="none" stroke="none" d="M 70.5 33.5 L 570.5 33.5 L 570.5 283.5 L 70.5 283.5 L 70.5 33.5 Z"/></clipPath><clipPath id="GJllKydUnKhD"><path fill="none" stroke="none" d="M 70.5 33.5 L 570.5 33.5 L 570.5 283.5 L 70.5 283.5 L 70.5 33.5 Z"/></clipPath><clipPath id="fhbNGwDODklH"><path fill="none" stroke="none" d="M 70.5 33.5 L 570.5 33.5 L 570.5 283.5 L 70.5 283.5 L 70.5 33.5 Z"/></clipPath></defs><path fill="none" stroke="#e5e5e5" paint-order="fill" d="M 70.5 33.5 L 570.5 33.5 L 570.5 283.5 L 70.5 283.5 L 70.5 33.5 Z" stroke-linejoin="bevel" stroke-miterlimit="10"/><path fill="none" stroke="black" paint-order="fill" d="M 332.46172248803487 33.5 L 332.46172248803487 283.5" stroke-linejoin="bevel" stroke-miterlimit="10" stroke-width="3" stroke-dasharray="6" clip-path="url(#iPAVLOSUUNCX)"/><path fill="none" stroke="#9467bd" paint-order="fill" d="M 93.2272720336914 141.69735717773438 L 117.15071868896484 106.7323226928711 L 141.07415771484375 147.5248565673828 L 164.9976043701172 163.06488037109375 L 188.92105102539062 104.7898178100586 L 212.84449768066406 131.98484802246094 L 236.7679443359375 186.37490844726562 L 260.6913757324219 124.21484375 L 284.6148376464844 178.60488891601562 L 308.53826904296875 147.5248565673828" stroke-linejoin="bevel" stroke-miterlimit="10" stroke-width="2" clip-path="url(#AxLXSwHflzxD)"/><path fill="none" stroke="#9467bd" paint-order="fill" d="M 93.2272720336914 141.69735717773438 L 117.15071868896484 106.7323226928711 L 141.07415771484375 147.5248565673828 L 164.9976043701172 163.06488037109375 L 188.92105102539062 104.7898178100586 L 212.84449768066406 131.98484802246094 L 236.7679443359375 186.37490844726562 L 260.6913757324219 124.21484375 L 284.6148376464844 178.60488891601562 L 308.53826904296875 147.5248565673828" stroke-linejoin="bevel" stroke-miterlimit="10" stroke-width="2" stroke-dasharray="6" clip-path="url(#RQKZEJrrLolD)"/><path fill="none" stroke="#30a2da" paint-order="fill" d="M 308.53826904296875 147.5248565673828 L 332.46173095703125 104.7898178100586 L 356.3851623535156 91.19230651855469 L 380.3086242675781 130.04234313964844 L 404.2320556640625 114.50233459472656 L 428.155517578125 89.24980926513672 L 452.0789489746094 149.4673614501953 L 476.00238037109375 168.8923797607422 L 499.92584228515625 126.15734100341797 L 523.8493041992188 145.58236694335938 L 547.772705078125 192.20240783691406" stroke-linejoin="bevel" stroke-miterlimit="10" stroke-width="2" clip-path="url(#IqTREnWcImwR)"/><path fill="none" stroke="#30a2da" paint-order="fill" d="M 332.46173095703125 93.80585479736328 L 356.3851623535156 102.1174087524414 L 380.3086242675781 110.42896270751953 L 404.2320556640625 118.74051666259766 L 428.155517578125 127.05207061767578 L 452.0789489746094 135.36363220214844 L 476.00238037109375 143.6751708984375 L 499.92584228515625 151.98672485351562 L 523.8493041992188 160.29827880859375 L 547.772705078125 168.60983276367188" stroke-linejoin="bevel" stroke-miterlimit="10" stroke-width="2" stroke-dasharray="6" clip-path="url(#FOwOAzosdNAU)"/><path fill="none" stroke="#fc4f30" paint-order="fill" d="M 308.53826904296875 147.5248565673828 L 332.46173095703125 97.01981353759766 L 356.3851623535156 215.51243591308594 L 380.3086242675781 163.06488037109375 L 404.2320556640625 137.81234741210938 L 428.155517578125 130.04234313964844 L 452.0789489746094 141.69735717773438 L 476.00238037109375 174.7198944091797 L 499.92584228515625 130.04234313964844 L 523.8493041992188 157.2373809814453 L 547.772705078125 73.70979309082031" stroke-linejoin="bevel" stroke-miterlimit="10" stroke-width="2" clip-path="url(#HlBBOgLEuwMC)"/><path fill="none" stroke="#fc4f30" paint-order="fill" d="M 332.46173095703125 160.09814453125 L 356.3851623535156 156.0954132080078 L 380.3086242675781 152.09268188476562 L 404.2320556640625 148.08995056152344 L 428.155517578125 144.08721923828125 L 452.0789489746094 140.08448791503906 L 476.00238037109375 136.08175659179688 L 499.92584228515625 132.0790252685547 L 523.8493041992188 128.07630157470703 L 547.772705078125 124.07357025146484" stroke-linejoin="bevel" stroke-miterlimit="10" stroke-width="2" stroke-dasharray="6" clip-path="url(#TGxJmeCOaJmH)"/><path fill="none" stroke="rgb(128,128,128)" paint-order="fill" d="M 93.2272720336914 215.51243591308594 L 117.15071868896484 118.38733673095703 L 141.07415771484375 71.76728820800781 L 164.9976043701172 155.2948760986328 L 188.92105102539062 98.96231842041016 L 212.84449768066406 118.38733673095703 L 236.7679443359375 126.15734100341797 L 260.6913757324219 108.6748275756836 L 284.6148376464844 108.6748275756836 L 308.53826904296875 56.227272033691406" stroke-opacity="0.7490196078431373" stroke-linejoin="bevel" stroke-miterlimit="10" clip-path="url(#XtNUJOcQZiwf)"/><path fill="none" stroke="grey" paint-order="fill" d="M 308.53826904296875 56.227272033691406 L 332.46173095703125 100.90481567382812 L 356.3851623535156 95.07730865478516 L 380.3086242675781 79.53729248046875 L 404.2320556640625 91.19230651855469 L 428.155517578125 83.42230224609375 L 452.0789489746094 104.7898178100586 L 476.00238037109375 130.04234313964844 L 499.92584228515625 124.21484375 L 523.8493041992188 161.12237548828125 L 547.772705078125 126.15734100341797" stroke-linejoin="bevel" stroke-miterlimit="10" stroke-width="0.5" clip-path="url(#fZgaeXQiIqzH)"/><path fill="none" stroke="grey" paint-order="fill" d="M 308.53826904296875 56.227272033691406 L 332.46173095703125 100.90481567382812 L 356.3851623535156 118.38733673095703 L 380.3086242675781 168.8923797607422 L 404.2320556640625 168.8923797607422 L 428.155517578125 130.04234313964844 L 452.0789489746094 91.19230651855469 L 476.00238037109375 130.04234313964844 L 499.92584228515625 159.17987060546875 L 523.8493041992188 120.329833984375 L 547.772705078125 83.42230224609375" stroke-linejoin="bevel" stroke-miterlimit="10" stroke-width="0.5" clip-path="url(#pfJmxGKdAWla)"/><path fill="none" stroke="rgb(128,128,128)" paint-order="fill" d="M 93.2272720336914 135.86985778808594 L 117.15071868896484 122.2723388671875 L 141.07415771484375 102.84732055664062 L 164.9976043701172 120.329833984375 L 188.92105102539062 131.98484802246094 L 212.84449768066406 106.7323226928711 L 236.7679443359375 124.21484375 L 260.6913757324219 97.01981353759766 L 284.6148376464844 151.4098663330078 L 308.53826904296875 106.7323226928711" stroke-opacity="0.7490196078431373" stroke-linejoin="bevel" stroke-miterlimit="10" clip-path="url(#maRJMTNVQnEn)"/><path fill="none" stroke="grey" paint-order="fill" d="M 308.53826904296875 106.7323226928711 L 332.46173095703125 118.38733673095703 L 356.3851623535156 116.44483184814453 L 380.3086242675781 110.61732482910156 L 404.2320556640625 114.50233459472656 L 428.155517578125 102.84732055664062 L 452.0789489746094 110.61732482910156 L 476.00238037109375 85.36479949951172 L 499.92584228515625 104.7898178100586 L 523.8493041992188 91.19230651855469 L 547.772705078125 126.15734100341797" stroke-linejoin="bevel" stroke-miterlimit="10" stroke-width="0.5" clip-path="url(#uLhlRNIubnWp)"/><path fill="none" stroke="grey" paint-order="fill" d="M 308.53826904296875 106.7323226928711 L 332.46173095703125 85.36479949951172 L 356.3851623535156 137.81234741210938 L 380.3086242675781 174.7198944091797 L 404.2320556640625 104.7898178100586 L 428.155517578125 126.15734100341797 L 452.0789489746094 178.60488891601562 L 476.00238037109375 110.61732482910156 L 499.92584228515625 155.2948760986328 L 523.8493041992188 85.36479949951172 L 547.772705078125 87.30730438232422" stroke-linejoin="bevel" stroke-miterlimit="10" stroke-width="0.5" clip-path="url(#oxgVwDsRRKUT)"/><path fill="none" stroke="rgb(128,128,128)" paint-order="fill" d="M 93.2272720336914 143.63986206054688 L 117.15071868896484 91.19230651855469 L 141.07415771484375 100.90481567382812 L 164.9976043701172 137.81234741210938 L 188.92105102539062 196.08741760253906 L 212.84449768066406 122.2723388671875 L 236.7679443359375 190.25990295410156 L 260.6913757324219 81.47979736328125 L 284.6148376464844 104.7898178100586 L 308.53826904296875 81.47979736328125" stroke-opacity="0.7490196078431373" stroke-linejoin="bevel" stroke-miterlimit="10" clip-path="url(#qiCVbPlqeyTL)"/><path fill="none" stroke="grey" paint-order="fill" d="M 308.53826904296875 81.47979736328125 L 332.46173095703125 128.09984588623047 L 356.3851623535156 108.6748275756836 L 380.3086242675781 122.2723388671875 L 404.2320556640625 128.09984588623047 L 428.155517578125 147.5248565673828 L 452.0789489746094 108.6748275756836 L 476.00238037109375 124.21484375 L 499.92584228515625 108.6748275756836 L 523.8493041992188 172.7773895263672 L 547.772705078125 108.6748275756836" stroke-linejoin="bevel" stroke-miterlimit="10" stroke-width="0.5" clip-path="url(#LibfcKXhJJPz)"/><path fill="none" stroke="grey" paint-order="fill" d="M 308.53826904296875 81.47979736328125 L 332.46173095703125 135.86985778808594 L 356.3851623535156 100.90481567382812 L 380.3086242675781 102.84732055664062 L 404.2320556640625 157.2373809814453 L 428.155517578125 153.3523712158203 L 452.0789489746094 95.07730865478516 L 476.00238037109375 128.09984588623047 L 499.92584228515625 118.38733673095703 L 523.8493041992188 118.38733673095703 L 547.772705078125 114.50233459472656" stroke-linejoin="bevel" stroke-miterlimit="10" stroke-width="0.5" clip-path="url(#etVeEDnuwgIz)"/><path fill="none" stroke="rgb(128,128,128)" paint-order="fill" d="M 93.2272720336914 161.12237548828125 L 117.15071868896484 106.7323226928711 L 141.07415771484375 166.94989013671875 L 164.9976043701172 97.01981353759766 L 188.92105102539062 139.75485229492188 L 212.84449768066406 157.2373809814453 L 236.7679443359375 124.21484375 L 260.6913757324219 83.42230224609375 L 284.6148376464844 133.92735290527344 L 308.53826904296875 130.04234313964844" stroke-opacity="0.7490196078431373" stroke-linejoin="bevel" stroke-miterlimit="10" clip-path="url(#MqZgfIrXvFLA)"/><path fill="none" stroke="grey" paint-order="fill" d="M 308.53826904296875 130.04234313964844 L 332.46173095703125 112.55982971191406 L 356.3851623535156 102.84732055664062 L 380.3086242675781 91.19230651855469 L 404.2320556640625 85.36479949951172 L 428.155517578125 98.96231842041016 L 452.0789489746094 176.6623992919922 L 476.00238037109375 151.4098663330078 L 499.92584228515625 112.55982971191406 L 523.8493041992188 145.58236694335938 L 547.772705078125 104.7898178100586" stroke-linejoin="bevel" stroke-miterlimit="10" stroke-width="0.5" clip-path="url(#LstSOpMaTEhy)"/><path fill="none" stroke="grey" paint-order="fill" d="M 308.53826904296875 130.04234313964844 L 332.46173095703125 112.55982971191406 L 356.3851623535156 126.15734100341797 L 380.3086242675781 110.61732482910156 L 404.2320556640625 151.4098663330078 L 428.155517578125 161.12237548828125 L 452.0789489746094 97.01981353759766 L 476.00238037109375 161.12237548828125 L 499.92584228515625 149.4673614501953 L 523.8493041992188 91.19230651855469 L 547.772705078125 95.07730865478516" stroke-linejoin="bevel" stroke-miterlimit="10" stroke-width="0.5" clip-path="url(#oblKpSLtAAAI)"/><path fill="none" stroke="black" paint-order="fill" d="M 70.5 283.5 L 570.5 283.5" stroke-linejoin="bevel" stroke-miterlimit="10"/><path fill="none" stroke="black" paint-order="fill" d="M 93.5 289.5 L 93.5 281.5 M 212.5 289.5 L 212.5 281.5 M 332.5 289.5 L 332.5 281.5 M 452.5 289.5 L 452.5 281.5" stroke-linejoin="bevel" stroke-miterlimit="10"/><path fill="none" stroke="black" paint-order="fill" d="M 93.5 287.5 L 93.5 283.5 M 117.5 287.5 L 117.5 283.5 M 141.5 287.5 L 141.5 283.5 M 164.5 287.5 L 164.5 283.5 M 188.5 287.5 L 188.5 283.5 M 212.5 287.5 L 212.5 283.5 M 236.5 287.5 L 236.5 283.5 M 260.5 287.5 L 260.5 283.5 M 284.5 287.5 L 284.5 283.5 M 308.5 287.5 L 308.5 283.5 M 332.5 287.5 L 332.5 283.5 M 356.5 287.5 L 356.5 283.5 M 380.5 287.5 L 380.5 283.5 M 404.5 287.5 L 404.5 283.5 M 428.5 287.5 L 428.5 283.5 M 452.5 287.5 L 452.5 283.5 M 476.5 287.5 L 476.5 283.5 M 499.5 287.5 L 499.5 283.5 M 523.5 287.5 L 523.5 283.5 M 547.5 287.5 L 547.5 283.5" stroke-linejoin="bevel" stroke-miterlimit="10"/><text fill="#444444" stroke="none" font-family="helvetica" font-size="10pt" font-style="normal" font-weight="normal" text-decoration="normal" x="79.36060523986816" y="304" text-anchor="start" dominant-baseline="alphabetic" transform="matrix(1, 0, 0, 1, 0.5, 0.5)">2025</text><text fill="none" stroke="rgb(0,0,0)" font-family="helvetica" font-size="10pt" font-style="normal" font-weight="normal" text-decoration="normal" x="79.36060523986816" y="304" text-anchor="start" dominant-baseline="alphabetic" transform="matrix(1, 0, 0, 1, 0.5, 0.5)" stroke-opacity="0" stroke-linejoin="bevel" stroke-miterlimit="10">2025</text><text fill="#444444" stroke="none" font-family="helvetica" font-size="10pt" font-style="normal" font-weight="normal" text-decoration="normal" x="198.97783088684082" y="304" text-anchor="start" dominant-baseline="alphabetic" transform="matrix(1, 0, 0, 1, 0.5, 0.5)">2030</text><text fill="none" stroke="rgb(0,0,0)" font-family="helvetica" font-size="10pt" font-style="normal" font-weight="normal" text-decoration="normal" x="198.97783088684082" y="304" text-anchor="start" dominant-baseline="alphabetic" transform="matrix(1, 0, 0, 1, 0.5, 0.5)" stroke-opacity="0" stroke-linejoin="bevel" stroke-miterlimit="10">2030</text><text fill="#444444" stroke="none" font-family="helvetica" font-size="10pt" font-style="normal" font-weight="normal" text-decoration="normal" x="318.595064163208" y="304" text-anchor="start" dominant-baseline="alphabetic" transform="matrix(1, 0, 0, 1, 0.5, 0.5)">2035</text><text fill="none" stroke="rgb(0,0,0)" font-family="helvetica" font-size="10pt" font-style="normal" font-weight="normal" text-decoration="normal" x="318.595064163208" y="304" text-anchor="start" dominant-baseline="alphabetic" transform="matrix(1, 0, 0, 1, 0.5, 0.5)" stroke-opacity="0" stroke-linejoin="bevel" stroke-miterlimit="10">2035</text><text fill="#444444" stroke="none" font-family="helvetica" font-size="10pt" font-style="normal" font-weight="normal" text-decoration="normal" x="438.21228218078613" y="304" text-anchor="start" dominant-baseline="alphabetic" transform="matrix(1, 0, 0, 1, 0.5, 0.5)">2040</text><text fill="none" stroke="rgb(0,0,0)" font-family="helvetica" font-size="10pt" font-style="normal" font-weight="normal" text-decoration="normal" x="438.21228218078613" y="304" text-anchor="start" dominant-baseline="alphabetic" transform="matrix(1, 0, 0, 1, 0.5, 0.5)" stroke-opacity="0" stroke-linejoin="bevel" stroke-miterlimit="10">2040</text><text fill="#444444" stroke="none" font-family="helvetica" font-size="12pt" font-style="normal" font-weight="normal" text-decoration="normal" x="305.3166666030884" y="327" text-anchor="start" dominant-baseline="alphabetic" transform="matrix(1, 0, 0, 1, 0.5, 0.5)">Year</text><text fill="none" stroke="rgb(0,0,0)" font-family="helvetica" font-size="12pt" font-style="normal" font-weight="normal" text-decoration="normal" x="305.3166666030884" y="327" text-anchor="start" dominant-baseline="alphabetic" transform="matrix(1, 0, 0, 1, 0.5, 0.5)" stroke-opacity="0" stroke-linejoin="bevel" stroke-miterlimit="10">Year</text><path fill="none" stroke="black" paint-order="fill" d="M 70.5 283.5 L 70.5 33.5" stroke-linejoin="bevel" stroke-miterlimit="10"/><path fill="none" stroke="black" paint-order="fill" d="M 64.5 283.5 L 72.5 283.5 M 64.5 244.5 L 72.5 244.5 M 64.5 205.5 L 72.5 205.5 M 64.5 166.5 L 72.5 166.5 M 64.5 128.5 L 72.5 128.5 M 64.5 89.5 L 72.5 89.5 M 64.5 50.5 L 72.5 50.5" stroke-linejoin="bevel" stroke-miterlimit="10"/><path fill="none" stroke="black" paint-order="fill" d="M 66.5 283.5 L 70.5 283.5 M 66.5 275.5 L 70.5 275.5 M 66.5 267.5 L 70.5 267.5 M 66.5 260.5 L 70.5 260.5 M 66.5 252.5 L 70.5 252.5 M 66.5 244.5 L 70.5 244.5 M 66.5 236.5 L 70.5 236.5 M 66.5 229.5 L 70.5 229.5 M 66.5 221.5 L 70.5 221.5 M 66.5 213.5 L 70.5 213.5 M 66.5 205.5 L 70.5 205.5 M 66.5 198.5 L 70.5 198.5 M 66.5 190.5 L 70.5 190.5 M 66.5 182.5 L 70.5 182.5 M 66.5 174.5 L 70.5 174.5 M 66.5 166.5 L 70.5 166.5 M 66.5 159.5 L 70.5 159.5 M 66.5 151.5 L 70.5 151.5 M 66.5 143.5 L 70.5 143.5 M 66.5 135.5 L 70.5 135.5 M 66.5 128.5 L 70.5 128.5 M 66.5 120.5 L 70.5 120.5 M 66.5 112.5 L 70.5 112.5 M 66.5 104.5 L 70.5 104.5 M 66.5 97.5 L 70.5 97.5 M 66.5 89.5 L 70.5 89.5 M 66.5 81.5 L 70.5 81.5 M 66.5 73.5 L 70.5 73.5 M 66.5 65.5 L 70.5 65.5 M 66.5 58.5 L 70.5 58.5 M 66.5 50.5 L 70.5 50.5 M 66.5 42.5 L 70.5 42.5 M 66.5 34.5 L 70.5 34.5" stroke-linejoin="bevel" stroke-miterlimit="10"/><text fill="#444444" stroke="none" font-family="helvetica" font-size="10pt" font-style="normal" font-weight="normal" text-decoration="normal" x="52.31666660308838" y="288" text-anchor="start" dominant-baseline="alphabetic" transform="matrix(1, 0, 0, 1, 0.5, 0.5)">0</text><text fill="none" stroke="rgb(0,0,0)" font-family="helvetica" font-size="10pt" font-style="normal" font-weight="normal" text-decoration="normal" x="52.31666660308838" y="288" text-anchor="start" dominant-baseline="alphabetic" transform="matrix(1, 0, 0, 1, 0.5, 0.5)" stroke-opacity="0" stroke-linejoin="bevel" stroke-miterlimit="10">0</text><text fill="#444444" stroke="none" font-family="helvetica" font-size="10pt" font-style="normal" font-weight="normal" text-decoration="normal" x="45.63333320617676" y="249.14996337890625" text-anchor="start" dominant-baseline="alphabetic" transform="matrix(1, 0, 0, 1, 0.5, 0.5)">20</text><text fill="none" stroke="rgb(0,0,0)" font-family="helvetica" font-size="10pt" font-style="normal" font-weight="normal" text-decoration="normal" x="45.63333320617676" y="249.14996337890625" text-anchor="start" dominant-baseline="alphabetic" transform="matrix(1, 0, 0, 1, 0.5, 0.5)" stroke-opacity="0" stroke-linejoin="bevel" stroke-miterlimit="10">20</text><text fill="#444444" stroke="none" font-family="helvetica" font-size="10pt" font-style="normal" font-weight="normal" text-decoration="normal" x="45.63333320617676" y="210.2999267578125" text-anchor="start" dominant-baseline="alphabetic" transform="matrix(1, 0, 0, 1, 0.5, 0.5)">40</text><text fill="none" stroke="rgb(0,0,0)" font-family="helvetica" font-size="10pt" font-style="normal" font-weight="normal" text-decoration="normal" x="45.63333320617676" y="210.2999267578125" text-anchor="start" dominant-baseline="alphabetic" transform="matrix(1, 0, 0, 1, 0.5, 0.5)" stroke-opacity="0" stroke-linejoin="bevel" stroke-miterlimit="10">40</text><text fill="#444444" stroke="none" font-family="helvetica" font-size="10pt" font-style="normal" font-weight="normal" text-decoration="normal" x="45.63333320617676" y="171.44989013671875" text-anchor="start" dominant-baseline="alphabetic" transform="matrix(1, 0, 0, 1, 0.5, 0.5)">60</text><text fill="none" stroke="rgb(0,0,0)" font-family="helvetica" font-size="10pt" font-style="normal" font-weight="normal" text-decoration="normal" x="45.63333320617676" y="171.44989013671875" text-anchor="start" dominant-baseline="alphabetic" transform="matrix(1, 0, 0, 1, 0.5, 0.5)" stroke-opacity="0" stroke-linejoin="bevel" stroke-miterlimit="10">60</text><text fill="#444444" stroke="none" font-family="helvetica" font-size="10pt" font-style="normal" font-weight="normal" text-decoration="normal" x="45.63333320617676" y="132.59984588623047" text-anchor="start" dominant-baseline="alphabetic" transform="matrix(1, 0, 0, 1, 0.5, 0.5)">80</text><text fill="none" stroke="rgb(0,0,0)" font-family="helvetica" font-size="10pt" font-style="normal" font-weight="normal" text-decoration="normal" x="45.63333320617676" y="132.59984588623047" text-anchor="start" dominant-baseline="alphabetic" transform="matrix(1, 0, 0, 1, 0.5, 0.5)" stroke-opacity="0" stroke-linejoin="bevel" stroke-miterlimit="10">80</text><text fill="#444444" stroke="none" font-family="helvetica" font-size="10pt" font-style="normal" font-weight="normal" text-decoration="normal" x="38.95000076293945" y="93.74980926513672" text-anchor="start" dominant-baseline="alphabetic" transform="matrix(1, 0, 0, 1, 0.5, 0.5)">100</text><text fill="none" stroke="rgb(0,0,0)" font-family="helvetica" font-size="10pt" font-style="normal" font-weight="normal" text-decoration="normal" x="38.95000076293945" y="93.74980926513672" text-anchor="start" dominant-baseline="alphabetic" transform="matrix(1, 0, 0, 1, 0.5, 0.5)" stroke-opacity="0" stroke-linejoin="bevel" stroke-miterlimit="10">100</text><text fill="#444444" stroke="none" font-family="helvetica" font-size="10pt" font-style="normal" font-weight="normal" text-decoration="normal" x="38.95000076293945" y="54.89976501464844" text-anchor="start" dominant-baseline="alphabetic" transform="matrix(1, 0, 0, 1, 0.5, 0.5)">120</text><text fill="none" stroke="rgb(0,0,0)" font-family="helvetica" font-size="10pt" font-style="normal" font-weight="normal" text-decoration="normal" x="38.95000076293945" y="54.89976501464844" text-anchor="start" dominant-baseline="alphabetic" transform="matrix(1, 0, 0, 1, 0.5, 0.5)" stroke-opacity="0" stroke-linejoin="bevel" stroke-miterlimit="10">120</text><text fill="#444444" stroke="none" font-family="helvetica" font-size="12pt" font-style="normal" font-weight="normal" text-decoration="normal" x="-65.25833511352539" y="154" text-anchor="start" dominant-baseline="alphabetic" transform="matrix(6.123233995736766e-17, -1, 1, 6.123233995736766e-17, -126.54999923706055, 189.45000076293945)">Days suitable for transmission</text><text fill="none" stroke="rgb(0,0,0)" font-family="helvetica" font-size="12pt" font-style="normal" font-weight="normal" text-decoration="normal" x="-65.25833511352539" y="154" text-anchor="start" dominant-baseline="alphabetic" transform="matrix(6.123233995736766e-17, -1, 1, 6.123233995736766e-17, -126.54999923706055, 189.45000076293945)" stroke-opacity="0" stroke-linejoin="bevel" stroke-miterlimit="10">Days suitable for transmission</text><path fill="rgb(255,255,255)" stroke="rgb(229,229,229)" paint-order="fill" d="M 477.0333251953125 208.5 L 560.4999847412109 208.5 L 560.4999847412109 273.5 L 477.0333251953125 273.5 L 477.0333251953125 208.5 Z" fill-opacity="0.9490196078431372" clip-path="url(#GJllKydUnKhD)" stroke-opacity="0.5019607843137255" stroke-linejoin="bevel" stroke-miterlimit="10"/><g clip-path="url(#GJllKydUnKhD)"><g transform="matrix(1, 0, 0, 1, 487.5333251953125, 219)"><path fill="none" stroke="#30a2da" paint-order="fill" d="M 0.5 10.5 L 20.5 10.5" stroke-linejoin="bevel" stroke-miterlimit="10" stroke-width="2"/></g></g><g clip-path="url(#GJllKydUnKhD)"><text fill="#444444" stroke="none" font-family="helvetica" font-size="13px" font-style="normal" font-weight="normal" text-decoration="normal" x="512.5333251953125" y="233.5" text-anchor="start" dominant-baseline="alphabetic" transform="matrix(1, 0, 0, 1, 0.5, 0.5)">ID 001</text></g><g clip-path="url(#GJllKydUnKhD)"><text fill="none" stroke="rgb(0,0,0)" font-family="helvetica" font-size="13px" font-style="normal" font-weight="normal" text-decoration="normal" x="512.5333251953125" y="233.5" text-anchor="start" dominant-baseline="alphabetic" transform="matrix(1, 0, 0, 1, 0.5, 0.5)" stroke-opacity="0" stroke-linejoin="bevel" stroke-miterlimit="10">ID 001</text></g><g clip-path="url(#GJllKydUnKhD)"><g transform="matrix(1, 0, 0, 1, 487.5333251953125, 242)"><path fill="none" stroke="#fc4f30" paint-order="fill" d="M 0.5 10.5 L 20.5 10.5" stroke-linejoin="bevel" stroke-miterlimit="10" stroke-width="2"/></g></g><g clip-path="url(#GJllKydUnKhD)"><text fill="#444444" stroke="none" font-family="helvetica" font-size="13px" font-style="normal" font-weight="normal" text-decoration="normal" x="512.5333251953125" y="256.5" text-anchor="start" dominant-baseline="alphabetic" transform="matrix(1, 0, 0, 1, 0.5, 0.5)">ID 006</text></g><g clip-path="url(#GJllKydUnKhD)"><text fill="none" stroke="rgb(0,0,0)" font-family="helvetica" font-size="13px" font-style="normal" font-weight="normal" text-decoration="normal" x="512.5333251953125" y="256.5" text-anchor="start" dominant-baseline="alphabetic" transform="matrix(1, 0, 0, 1, 0.5, 0.5)" stroke-opacity="0" stroke-linejoin="bevel" stroke-miterlimit="10">ID 006</text></g><text fill="black" stroke="none" font-family="helvetica" font-size="14pt" font-style="normal" font-weight="normal" text-decoration="normal" x="0" y="18" text-anchor="start" dominant-baseline="alphabetic" transform="matrix(1, 0, 0, 1, 5.5, 5.5)">A. Paris</text><text fill="none" stroke="rgb(0,0,0)" font-family="helvetica" font-size="14pt" font-style="normal" font-weight="normal" text-decoration="normal" x="0" y="18" text-anchor="start" dominant-baseline="alphabetic" transform="matrix(1, 0, 0, 1, 5.5, 5.5)" stroke-opacity="0" stroke-linejoin="bevel" stroke-miterlimit="10">A. Paris</text></svg>