<svg version="1.1" xmlns="http://www.w3.org/2000/svg" width="600" height="334"><defs><clipPath id="kuZNAxiTkLqQ"><path fill="none" stroke="none" d="M 70.5 33.5 L 570.5 33.5 L 570.5 283.5 L 70.5 283.5 L 70.5 33.5 Z"/></clipPath><clipPath id="xiMosAMpItMt"><path fill="none" stroke="none" d="M 70.5 33.5 L 570.5 33.5 L 570.5 283.5 L 70.5 283.5 L 70.5 33.5 Z"/></clipPath><clipPath id="MJuTcHUJGPUE"><path fill="none" stroke="none" d="M 70.5 33.5 L 570.5 33.5 L 570.5 283.5 L 70.5 283.5 L 70.5 33.5 Z"/></clipPath><clipPath id="aanTAGBPPEHe"><path fill="none" stroke="none" d="M 70.5 33.5 L 570.5 33.5 L 570.5 283.5 L 70.5 283.5 L 70.5 33.5 Z"/></clipPath><clipPath id="OsxyVpHaWaeW"><path fill="none" stroke="none" d="M 70.5 33.5 L 570.5 33.5 L 570.5 283.5 L 70.5 283.5 L 70.5 33.5 Z"/></clipPath><clipPath id="ogsgXTBdBWzH"><path fill="none" stroke="none" d="M 70.5 33.5 L 570.5 33.5 L 570.5 283.5 L 70.5 283.5 L 70.5 33.5 Z"/></clipPath><clipPath id="UDPrtKTkKqLT"><path fill="none" stroke="none" d="M 70.5 33.5 L 570.5 33.5 L 570.5 283.5 L 70.5 283.5 L 70.5 33.5 Z"/></clipPath><clipPath id="npycRugrvcko"><path fill="none" stroke="none" d="M 70.5 33.5 L 570.5 33.5 L 570.5 283.5 L 70.5 283.5 L 70.5 33.5 Z"/></clipPath><clipPath id="ZZbUdWGKvvUA"><path fill="none" stroke="none" d="M 70.5 33.5 L 570.5 33.5 L 570.5 283.5 L 70.5 283.5 L 70.5 33.5 Z"/></clipPath><clipPath id="EQkBNeXEqwNJ"><path fill="none" stroke="none" d="M 70.5 33.5 L 570.5 33.5 L 570.5 283.5 L 70.5 283.5 L 70.5 33.5 Z"/></clipPath><clipPath id="nPAkhOTPHOtr"><path fill="none" stroke="none" d="M 70.5 33.5 L 570.5 33.5 L 570.5 283.5 L 70.5 283.5 L 70.5 33.5 Z"/></clipPath><clipPath id="fSdeTnTMlGrT"><path fill="none" stroke="none" d="M 70.5 33.5 L 570.5 33.5 L 570.5 283.5 L 70.5 283.5 L 70.5 33.5 Z"/></clipPath><clipPath id="cXVgTAChnXSy"><path fill="none" stroke="none" d="M 70.5 33.5 L 570.5 33.5 L 570.5 283.5 L 70.5 283.5 L 70.5 33.5 Z"/></clipPath><clipPath id="alMGwpMrIMJb"><path fill="none" stroke="none" d="M 70.5 33.5 L 570.5 33.5 L 570.5 283.5 L 70.5 283.5 L 70.5 33.5 Z"/></clipPath><clipPath id="KkPdyoTKTteb"><path fill="none" stroke="none" d="M 70.5 33.5 L 570.5 33.5 L 570.5 283.5 L 70.5 283.5 L 70.5 33.5 Z"/></clipPath><clipPath id="QnCgbAcIMEqT"><path fill="none" stroke="none" d="M 70.5 33.5 L 570.5 33.5 L 570.5 283.5 L 70.5 283.5 L 70.5 33.5 Z"/></clipPath><clipPath id="gcPHsPMPOdEX"><path fill="none" stroke="none" d="M 70.5 33.5 L 570.5 33.5 L 570.5 283.5 L 70.5 283.5 L 70.5 33.5 Z"/></clipPath><clipPath id="QPLNblSkRCzS"><path fill="none" stroke="none" d="M 70.5 33.5 L 570.5 33.5 L 570.5 283.5 L 70.5 283.5 L 70.5 33.5 Z"/></clipPath><clipPath id="KVrbZmJGfxPR"><path fill="none" stroke="none" d="M 70.5 33.5 L 570.5 33.5 L 570.5 283.5 L 70.5 283.5 L 70.5 33.5 Z"/></clipPath><clipPath id="ErlITpPreGwX"><path fill="none" stroke="none" d="M 70.5 33.5 L 570.5 33.5 L 570.5 283.5 L 70.5 283.5 L 70.5 33.5 Z"/></clipPath><clipPath id="TVFfpKonzmzC"><path fill="none" stroke="none" d="M 70.5 33.5 L 570.5 33.5 L 570.5 283.5 L 70.5 283.5 L 70.5 33.5 Z"/></clipPath><clipPath id="ZmQScZABsOzK"><path fill="none" stroke="none" d="M 70.5 33.5 L 570.5 33.5 L 570.5 283.5 L 70.5 283.5 L 70.5 33.5 Z"/></clipPath><clipPath id="akAtoyQnDnFV"><path fill="none" stroke="none" d="M 70.5 33.5 L 570.5 33.5 L 570.5 283.5 L 70.5 283.5 L 70.5 33.5 Z"/></clipPath></defs><path fill="none" stroke="#e5e5e5" paint-order="fill" d="M 70.5 33.5 L 570.5 33.5 L 570.5 283.5 L 70.5 283.5 L 70.5 33.5 Z" stroke-linejoin="bevel" stroke-miterlimit="10"/><path fill="none" stroke="black" paint-order="fill" d="M 332.46172248803487 33.5 L 332.46172248803487 283.5" stroke-linejoin="bevel" stroke-miterlimit="10" stroke-width="3" stroke-dasharray="6" clip-path="url(#MJuTcHUJGPUE)"/><path fill="none" stroke="#9467bd" paint-order="fill" d="M 93.2272720336914 108.2841567993164 L 117.15071868896484 81.6208724975586 L 141.07415771484375 90.50863647460938 L 164.9976043701172 100.66607666015625 L 188.92105102539062 86.69959259033203 L 212.84449768066406 90.50863647460938 L 236.7679443359375 95.58735656738281 L 260.6913757324219 99.39639282226562 L 284.6148376464844 81.6208724975586 L 308.53826904296875 99.39639282226562" stroke-linejoin="bevel" stroke-miterlimit="10" stroke-width="2" clip-path="url(#aanTAGBPPEHe)"/><path fill="none" stroke="#9467bd" paint-order="fill" d="M 93.2272720336914 108.2841567993164 L 117.15071868896484 81.6208724975586 L 141.07415771484375 90.50863647460938 L 164.9976043701172 100.66607666015625 L 188.92105102539062 86.69959259033203 L 212.84449768066406 90.50863647460938 L 236.7679443359375 95.58735656738281 L 260.6913757324219 99.39639282226562 L 284.6148376464844 81.6208724975586 L 308.53826904296875 99.39639282226562" stroke-linejoin="bevel" stroke-miterlimit="10" stroke-width="2" stroke-dasharray="6" clip-path="url(#OsxyVpHaWaeW)"/><path fill="none" stroke="#30a2da" paint-order="fill" d="M 308.53826904296875 99.39639282226562 L 332.46173095703125 90.50863647460938 L 356.3851623535156 79.08151245117188 L 380.3086242675781 95.58735656738281 L 404.2320556640625 108.2841567993164 L 428.155517578125 94.31767272949219 L 452.0789489746094 68.924072265625 L 476.00238037109375 96.8570327758789 L 499.92584228515625 71.46343231201172 L 523.8493041992188 96.8570327758789 L 547.772705078125 77.81183624267578" stroke-linejoin="bevel" stroke-miterlimit="10" stroke-width="2" clip-path="url(#ogsgXTBdBWzH)"/><path fill="none" stroke="#30a2da" paint-order="fill" d="M 332.46173095703125 92.609375 L 356.3851623535156 91.57823944091797 L 380.3086242675781 90.54711151123047 L 404.2320556640625 89.51597595214844 L 428.155517578125 88.4848403930664 L 452.0789489746094 87.45370483398438 L 476.00238037109375 86.42256927490234 L 499.92584228515625 85.39144134521484 L 523.8493041992188 84.36030578613281 L 547.772705078125 83.32917022705078" stroke-linejoin="bevel" stroke-miterlimit="10" stroke-width="2" stroke-dasharray="6" clip-path="url(#UDPrtKTkKqLT)"/><path fill="none" stroke="#fc4f30" paint-order="fill" d="M 308.53826904296875 99.39639282226562 L 332.46173095703125 79.08151245117188 L 356.3851623535156 65.11503601074219 L 380.3086242675781 91.77831268310547 L 404.2320556640625 93.0479965209961 L 428.155517578125 89.23895263671875 L 452.0789489746094 108.2841567993164 L 476.00238037109375 86.69959259033203 L 499.92584228515625 94.31767272949219 L 523.8493041992188 86.69959259033203 L 547.772705078125 113.36287689208984" stroke-linejoin="bevel" stroke-miterlimit="10" stroke-width="2" clip-path="url(#npycRugrvcko)"/><path fill="none" stroke="#fc4f30" paint-order="fill" d="M 332.46173095703125 77.88108825683594 L 356.3851623535156 80.74363708496094 L 380.3086242675781 83.60619354248047 L 404.2320556640625 86.46874237060547 L 428.155517578125 89.33129119873047 L 452.0789489746094 92.19384765625 L 476.00238037109375 95.056396484375 L 499.92584228515625 97.9189453125 L 523.8493041992188 100.78150177001953 L 547.772705078125 103.64405059814453" stroke-linejoin="bevel" stroke-miterlimit="10" stroke-width="2" stroke-dasharray="6" clip-path="url(#ZZbUdWGKvvUA)"/><path fill="none" stroke="rgb(128,128,128)" paint-order="fill" d="M 93.2272720336914 103.20543670654297 L 117.15071868896484 68.924072265625 L 141.07415771484375 82.89055633544922 L 164.9976043701172 68.924072265625 L 188.92105102539062 96.8570327758789 L 212.84449768066406 91.77831268310547 L 236.7679443359375 65.11503601074219 L 260.6913757324219 77.81183624267578 L 284.6148376464844 67.6543960571289 L 308.53826904296875 71.46343231201172" stroke-opacity="0.7490196078431373" stroke-linejoin="bevel" stroke-miterlimit="10" clip-path="url(#EQkBNeXEqwNJ)"/><path fill="none" stroke="grey" paint-order="fill" d="M 308.53826904296875 71.46343231201172 L 332.46173095703125 74.00279235839844 L 356.3851623535156 68.924072265625 L 380.3086242675781 103.20543670654297 L 404.2320556640625 61.305992126464844 L 428.155517578125 71.46343231201172 L 452.0789489746094 112.09319305419922 L 476.00238037109375 89.23895263671875 L 499.92584228515625 89.23895263671875 L 523.8493041992188 81.6208724975586 L 547.772705078125 98.12671661376953" stroke-linejoin="bevel" stroke-miterlimit="10" stroke-width="0.5" clip-path="url(#nPAkhOTPHOtr)"/><path fill="none" stroke="grey" paint-order="fill" d="M 308.53826904296875 71.46343231201172 L 332.46173095703125 84.16023254394531 L 356.3851623535156 85.42991638183594 L 380.3086242675781 76.54215240478516 L 404.2320556640625 81.6208724975586 L 428.155517578125 76.54215240478516 L 452.0789489746094 79.08151245117188 L 476.00238037109375 87.96927642822266 L 499.92584228515625 103.20543670654297 L 523.8493041992188 90.50863647460938 L 547.772705078125 80.3511962890625" stroke-linejoin="bevel" stroke-miterlimit="10" stroke-width="0.5" clip-path="url(#fSdeTnTMlGrT)"/><path fill="none" stroke="rgb(128,128,128)" paint-order="fill" d="M 93.2272720336914 89.23895263671875 L 117.15071868896484 93.0479965209961 L 141.07415771484375 89.23895263671875 L 164.9976043701172 86.69959259033203 L 188.92105102539062 80.3511962890625 L 212.84449768066406 68.924072265625 L 236.7679443359375 90.50863647460938 L 260.6913757324219 89.23895263671875 L 284.6148376464844 82.89055633544922 L 308.53826904296875 107.01447296142578" stroke-opacity="0.7490196078431373" stroke-linejoin="bevel" stroke-miterlimit="10" clip-path="url(#cXVgTAChnXSy)"/><path fill="none" stroke="grey" paint-order="fill" d="M 308.53826904296875 107.01447296142578 L 332.46173095703125 79.08151245117188 L 356.3851623535156 77.81183624267578 L 380.3086242675781 77.81183624267578 L 404.2320556640625 94.31767272949219 L 428.155517578125 91.77831268310547 L 452.0789489746094 87.96927642822266 L 476.00238037109375 113.36287689208984 L 499.92584228515625 104.47511291503906 L 523.8493041992188 89.23895263671875 L 547.772705078125 84.16023254394531" stroke-linejoin="bevel" stroke-miterlimit="10" stroke-width="0.5" clip-path="url(#alMGwpMrIMJb)"/><path fill="none" stroke="grey" paint-order="fill" d="M 308.53826904296875 107.01447296142578 L 332.46173095703125 86.69959259033203 L 356.3851623535156 95.58735656738281 L 380.3086242675781 79.08151245117188 L 404.2320556640625 94.31767272949219 L 428.155517578125 89.23895263671875 L 452.0789489746094 72.73311614990234 L 476.00238037109375 100.66607666015625 L 499.92584228515625 96.8570327758789 L 523.8493041992188 85.42991638183594 L 547.772705078125 104.47511291503906" stroke-linejoin="bevel" stroke-miterlimit="10" stroke-width="0.5" clip-path="url(#KkPdyoTKTteb)"/><path fill="none" stroke="rgb(128,128,128)" paint-order="fill" d="M 93.2272720336914 75.27247619628906 L 117.15071868896484 101.93575286865234 L 141.07415771484375 101.93575286865234 L 164.9976043701172 77.81183624267578 L 188.92105102539062 85.42991638183594 L 212.84449768066406 101.93575286865234 L 236.7679443359375 72.73311614990234 L 260.6913757324219 76.54215240478516 L 284.6148376464844 91.77831268310547 L 308.53826904296875 84.16023254394531" stroke-opacity="0.7490196078431373" stroke-linejoin="bevel" stroke-miterlimit="10" clip-path="url(#QnCgbAcIMEqT)"/><path fill="none" stroke="grey" paint-order="fill" d="M 308.53826904296875 84.16023254394531 L 332.46173095703125 98.12671661376953 L 356.3851623535156 89.23895263671875 L 380.3086242675781 66.38471221923828 L 404.2320556640625 100.66607666015625 L 428.155517578125 99.39639282226562 L 452.0789489746094 89.23895263671875 L 476.00238037109375 74.00279235839844 L 499.92584228515625 95.58735656738281 L 523.8493041992188 103.20543670654297 L 547.772705078125 84.16023254394531" stroke-linejoin="bevel" stroke-miterlimit="10" stroke-width="0.5" clip-path="url(#gcPHsPMPOdEX)"/><path fill="none" stroke="grey" paint-order="fill" d="M 308.53826904296875 84.16023254394531 L 332.46173095703125 82.89055633544922 L 356.3851623535156 118.44159698486328 L 380.3086242675781 105.74479675292969 L 404.2320556640625 99.39639282226562 L 428.155517578125 62.5756721496582 L 452.0789489746094 99.39639282226562 L 476.00238037109375 74.00279235839844 L 499.92584228515625 100.66607666015625 L 523.8493041992188 67.6543960571289 L 547.772705078125 79.08151245117188" stroke-linejoin="bevel" stroke-miterlimit="10" stroke-width="0.5" clip-path="url(#QPLNblSkRCzS)"/><path fill="none" stroke="rgb(128,128,128)" paint-order="fill" d="M 93.2272720336914 99.39639282226562 L 117.15071868896484 82.89055633544922 L 141.07415771484375 87.96927642822266 L 164.9976043701172 96.8570327758789 L 188.92105102539062 104.47511291503906 L 212.84449768066406 90.50863647460938 L 236.7679443359375 79.08151245117188 L 260.6913757324219 80.3511962890625 L 284.6148376464844 81.6208724975586 L 308.53826904296875 74.00279235839844" stroke-opacity="0.7490196078431373" stroke-linejoin="bevel" stroke-miterlimit="10" clip-path="url(#KVrbZmJGfxPR)"/><path fill="none" stroke="grey" paint-order="fill" d="M 308.53826904296875 74.00279235839844 L 332.46173095703125 100.66607666015625 L 356.3851623535156 107.01447296142578 L 380.3086242675781 93.0479965209961 L 404.2320556640625 80.3511962890625 L 428.155517578125 81.6208724975586 L 452.0789489746094 56.227272033691406 L 476.00238037109375 80.3511962890625 L 499.92584228515625 84.16023254394531 L 523.8493041992188 77.81183624267578 L 547.772705078125 108.2841567993164" stroke-linejoin="bevel" stroke-miterlimit="10" stroke-width="0.5" clip-path="url(#ErlITpPreGwX)"/><path fill="none" stroke="grey" paint-order="fill" d="M 308.53826904296875 74.00279235839844 L 332.46173095703125 87.96927642822266 L 356.3851623535156 80.3511962890625 L 380.3086242675781 98.12671661376953 L 404.2320556640625 86.69959259033203 L 428.155517578125 62.5756721496582 L 452.0789489746094 99.39639282226562 L 476.00238037109375 100.66607666015625 L 499.92584228515625 90.50863647460938 L 523.8493041992188 100.66607666015625 L 547.772705078125 91.77831268310547" stroke-linejoin="bevel" stroke-miterlimit="10" stroke-width="0.5" clip-path="url(#TVFfpKonzmzC)"/><path fill="none" stroke="black" paint-order="fill" d="M 70.5 283.5 L 570.5 283.5" stroke-linejoin="bevel" stroke-miterlimit="10"/><path fill="none" stroke="black" paint-order="fill" d="M 93.5 289.5 L 93.5 281.5 M 212.5 289.5 L 212.5 281.5 M 332.5 289.5 L 332.5 281.5 M 452.5 289.5 L 452.5 281.5" stroke-linejoin="bevel" stroke-miterlimit="10"/><path fill="none" stroke="black" paint-order="fill" d="M 93.5 287.5 L 93.5 283.5 M 117.5 287.5 L 117.5 283.5 M 141.5 287.5 L 141.5 283.5 M 164.5 287.5 L 164.5 283.5 M 188.5 287.5 L 188.5 283.5 M 212.5 287.5 L 212.5 283.5 M 236.5 287.5 L 236.5 283.5 M 260.5 287.5 L 260.5 283.5 M 284.5 287.5 L 284.5 283.5 M 308.5 287.5 L 308.5 283.5 M 332.5 287.5 L 332.5 283.5 M 356.5 287.5 L 356.5 283.5 M 380.5 287.5 L 380.5 283.5 M 404.5 287.5 L 404.5 283.5 M 428.5 287.5 L 428.5 283.5 M 452.5 287.5 L 452.5 283.5 M 476.5 287.5 L 476.5 283.5 M 499.5 287.5 L 499.5 283.5 M 523.5 287.5 L 523.5 283.5 M 547.5 287.5 L 547.5 283.5" stroke-linejoin="bevel" stroke-miterlimit="10"/><text fill="#444444" stroke="none" font-family="helvetica" font-size="10pt" font-style="normal" font-weight="normal" text-decoration="normal" x="79.36060523986816" y="304" text-anchor="start" dominant-baseline="alphabetic" transform="matrix(1, 0, 0, 1, 0.5, 0.5)">2025</text><text fill="none" stroke="rgb(0,0,0)" font-family="helvetica" font-size="10pt" font-style="normal" font-weight="normal" text-decoration="normal" x="79.36060523986816" y="304" text-anchor="start" dominant-baseline="alphabetic" transform="matrix(1, 0, 0, 1, 0.5, 0.5)" stroke-opacity="0" stroke-linejoin="bevel" stroke-miterlimit="10">2025</text><text fill="#444444" stroke="none" font-family="helvetica" font-size="10pt" font-style="normal" font-weight="normal" text-decoration="normal" x="198.97783088684082" y="304" text-anchor="start" dominant-baseline="alphabetic" transform="matrix(1, 0, 0, 1, 0.5, 0.5)">2030</text><text fill="none" stroke="rgb(0,0,0)" font-family="helvetica" font-size="10pt" font-style="normal" font-weight="normal" text-decoration="normal" x="198.97783088684082" y="304" text-anchor="start" dominant-baseline="alphabetic" transform="matrix(1, 0, 0, 1, 0.5, 0.5)" stroke-opacity="0" stroke-linejoin="bevel" stroke-miterlimit="10">2030</text><text fill="#444444" stroke="none" font-family="helvetica" font-size="10pt" font-style="normal" font-weight="normal" text-decoration="normal" x="318.595064163208" y="304" text-anchor="start" dominant-baseline="alphabetic" transform="matrix(1, 0, 0, 1, 0.5, 0.5)">2035</text><text fill="none" stroke="rgb(0,0,0)" font-family="helvetica" font-size="10pt" font-style="normal" font-weight="normal" text-decoration="normal" x="318.595064163208" y="304" text-anchor="start" dominant-baseline="alphabetic" transform="matrix(1, 0, 0, 1, 0.5, 0.5)" stroke-opacity="0" stroke-linejoin="bevel" stroke-miterlimit="10">2035</text><text fill="#444444" stroke="none" font-family="helvetica" font-size="10pt" font-style="normal" font-weight="normal" text-decoration="normal" x="438.21228218078613" y="304" text-anchor="start" dominant-baseline="alphabetic" transform="matrix(1, 0, 0, 1, 0.5, 0.5)">2040</text><text fill="none" stroke="rgb(0,0,0)" font-family="helvetica" font-size="10pt" font-style="normal" font-weight="normal" text-decoration="normal" x="438.21228218078613" y="304" text-anchor="start" dominant-baseline="alphabetic" transform="matrix(1, 0, 0, 1, 0.5, 0.5)" stroke-opacity="0" stroke-linejoin="bevel" stroke-miterlimit="10">2040</text><text fill="#444444" stroke="none" font-family="helvetica" font-size="12pt" font-style="normal" font-weight="normal" text-decoration="normal" x="305.3166666030884" y="327" text-anchor="start" dominant-baseline="alphabetic" transform="matrix(1, 0, 0, 1, 0.5, 0.5)">Year</text><text fill="none" stroke="rgb(0,0,0)" font-family="helvetica" font-size="12pt" font-style="normal" font-weight="normal" text-decoration="normal" x="305.3166666030884" y="327" text-anchor="start" dominant-baseline="alphabetic" transform="matrix(1, 0, 0, 1, 0.5, 0.5)" stroke-opacity="0" stroke-linejoin="bevel" stroke-miterlimit="10">Year</text><path fill="none" stroke="black" paint-order="fill" d="M 70.5 283.5 L 70.5 33.5" stroke-linejoin="bevel" stroke-miterlimit="10"/><path fill="none" stroke="black" paint-order="fill" d="M 64.5 283.5 L 72.5 283.5 M 64.5 220.5 L 72.5 220.5 M 64.5 156.5 L 72.5 156.5 M 64.5 93.5 L 72.5 93.5" stroke-linejoin="bevel" stroke-miterlimit="10"/><path fill="none" stroke="black" paint-order="fill" d="M 66.5 283.5 L 70.5 283.5 M 66.5 270.5 L 70.5 270.5 M 66.5 258.5 L 70.5 258.5 M 66.5 245.5 L 70.5 245.5 M 66.5 232.5 L 70.5 232.5 M 66.5 220.5 L 70.5 220.5 M 66.5 207.5 L 70.5 207.5 M 66.5 194.5 L 70.5 194.5 M 66.5 181.5 L 70.5 181.5 M 66.5 169.5 L 70.5 169.5 M 66.5 156.5 L 70.5 156.5 M 66.5 143.5 L 70.5 143.5 M 66.5 131.5 L 70.5 131.5 M 66.5 118.5 L 70.5 118.5 M 66.5 105.5 L 70.5 105.5 M 66.5 93.5 L 70.5 93.5 M 66.5 80.5 L 70.5 80.5 M 66.5 67.5 L 70.5 67.5 M 66.5 54.5 L 70.5 54.5 M 66.5 42.5 L 70.5 42.5" stroke-linejoin="bevel" stroke-miterlimit="10"/><text fill="#444444" stroke="none" font-family="helvetica" font-size="10pt" font-style="normal" font-weight="normal" text-decoration="normal" x="52.31666660308838" y="288" text-anchor="start" dominant-baseline="alphabetic" transform="matrix(1, 0, 0, 1, 0.5, 0.5)">0</text><text fill="none" stroke="rgb(0,0,0)" font-family="helvetica" font-size="10pt" font-style="normal" font-weight="normal" text-decoration="normal" x="52.31666660308838" y="288" text-anchor="start" dominant-baseline="alphabetic" transform="matrix(1, 0, 0, 1, 0.5, 0.5)" stroke-opacity="0" stroke-linejoin="bevel" stroke-miterlimit="10">0</text><text fill="#444444" stroke="none" font-family="helvetica" font-size="10pt" font-style="normal" font-weight="normal" text-decoration="normal" x="45.63333320617676" y="224.5159912109375" text-anchor="start" dominant-baseline="alphabetic" transform="matrix(1, 0, 0, 1, 0.5, 0.5)">50</text><text fill="none" stroke="rgb(0,0,0)" font-family="helvetica" font-size="10pt" font-style="normal" font-weight="normal" text-decoration="normal" x="45.63333320617676" y="224.5159912109375" text-anchor="start" dominant-baseline="alphabetic" transform="matrix(1, 0, 0, 1, 0.5, 0.5)" stroke-opacity="0" stroke-linejoin="bevel" stroke-miterlimit="10">50</text><text fill="#444444" stroke="none" font-family="helvetica" font-size="10pt" font-style="normal" font-weight="normal" text-decoration="normal" x="38.95000076293945" y="161.03199768066406" text-anchor="start" dominant-baseline="alphabetic" transform="matrix(1, 0, 0, 1, 0.5, 0.5)">100</text><text fill="none" stroke="rgb(0,0,0)" font-family="helvetica" font-size="10pt" font-style="normal" font-weight="normal" text-decoration="normal" x="38.95000076293945" y="161.03199768066406" text-anchor="start" dominant-baseline="alphabetic" transform="matrix(1, 0, 0, 1, 0.5, 0.5)" stroke-opacity="0" stroke-linejoin="bevel" stroke-miterlimit="10">100</text><text fill="#444444" stroke="none" font-family="helvetica" font-size="10pt" font-style="normal" font-weight="normal" text-decoration="normal" x="38.95000076293945" y="97.5479965209961" text-anchor="start" dominant-baseline="alphabetic" transform="matrix(1, 0, 0, 1, 0.5, 0.5)">150</text><text fill="none" stroke="rgb(0,0,0)" font-family="helvetica" font-size="10pt" font-style="normal" font-weight="normal" text-decoration="normal" x="38.95000076293945" y="97.5479965209961" text-anchor="start" dominant-baseline="alphabetic" transform="matrix(1, 0, 0, 1, 0.5, 0.5)" stroke-opacity="0" stroke-linejoin="bevel" stroke-miterlimit="10">150</text><text fill="#444444" stroke="none" font-family="helvetica" font-size="12pt" font-style="normal" font-weight="normal" text-decoration="normal" x="-65.25833511352539" y="154" text-anchor="start" dominant-baseline="alphabetic" transform="matrix(6.123233995736766e-17, -1, 1, 6.123233995736766e-17, -126.54999923706055, 189.45000076293945)">Days suitable for transmission</text><text fill="none" stroke="rgb(0,0,0)" font-family="helvetica" font-size="12pt" font-style="normal" font-weight="normal" text-decoration="normal" x="-65.25833511352539" y="154" text-anchor="start" dominant-baseline="alphabetic" transform="matrix(6.123233995736766e-17, -1, 1, 6.123233995736766e-17, -126.54999923706055, 189.45000076293945)" stroke-opacity="0" stroke-linejoin="bevel" stroke-miterlimit="10">Days suitable for transmission</text><path fill="rgb(255,255,255)" stroke="rgb(229,229,229)" paint-order="fill" d="M 477.0333251953125 208.5 L 560.4999847412109 208.5 L 560.4999847412109 273.5 L 477.0333251953125 273.5 L 477.0333251953125 208.5 Z" fill-opacity="0.9490196078431372" clip-path="url(#ZmQScZABsOzK)" stroke-opacity="0.5019607843137255" stroke-linejoin="bevel" stroke-miterlimit="10"/><g clip-path="url(#ZmQScZABsOzK)"><g transform="matrix(1, 0, 0, 1, 487.5333251953125, 219)"><path fill="none" stroke="#30a2da" paint-order="fill" d="M 0.5 10.5 L 20.5 10.5" stroke-linejoin="bevel" stroke-miterlimit="10" stroke-width="2"/></g></g><g clip-path="url(#ZmQScZABsOzK)"><text fill="#444444" stroke="none" font-family="helvetica" font-size="13px" font-style="normal" font-weight="normal" text-decoration="normal" x="512.5333251953125" y="233.5" text-anchor="start" dominant-baseline="alphabetic" transform="matrix(1, 0, 0, 1, 0.5, 0.5)">ID 001</text></g><g clip-path="url(#ZmQScZABsOzK)"><text fill="none" stroke="rgb(0,0,0)" font-family="helvetica" font-size="13px" font-style="normal" font-weight="normal" text-decoration="normal" x="512.5333251953125" y="233.5" text-anchor="start" dominant-baseline="alphabetic" transform="matrix(1, 0, 0, 1, 0.5, 0.5)" stroke-opacity="0" stroke-linejoin="bevel" stroke-miterlimit="10">ID 001</text></g><g clip-path="url(#ZmQScZABsOzK)"><g transform="matrix(1, 0, 0, 1, 487.5333251953125, 242)"><path fill="none" stroke="#fc4f30" paint-order="fill" d="M 0.5 10.5 L 20.5 10.5" stroke-linejoin="bevel" stroke-miterlimit="10" stroke-width="2"/></g></g><g clip-path="url(#ZmQScZABsOzK)"><text fill="#444444" stroke="none" font-family="helvetica" font-size="13px" font-style="normal" font-weight="normal" text-decoration="normal" x="512.5333251953125" y="256.5" text-anchor="start" dominant-baseline="alphabetic" transform="matrix(1, 0, 0, 1, 0.5, 0.5)">ID 006</text></g><g clip-path="url(#ZmQScZABsOzK)"><text fill="none" stroke="rgb(0,0,0)" font-family="helvetica" font-size="13px" font-style="normal" font-weight="normal" text-decoration="normal" x="512.5333251953125" y="256.5" text-anchor="start" dominant-baseline="alphabetic" transform="matrix(1, 0, 0, 1, 0.5, 0.5)" stroke-opacity="0" stroke-linejoin="bevel" stroke-miterlimit="10">ID 006</text></g><text fill="black" stroke="none" font-family="helvetica" font-size="14pt" font-style="normal" font-weight="normal" text-decoration="normal" x="0" y="18" text-anchor="start" dominant-baseline="alphabetic" transform="matrix(1, 0, 0, 1, 5.5, 5.5)">D. Santiago de Chile</text><text fill="none" stroke="rgb(0,0,0)" font-family="helvetica" font-size="14pt" font-style="normal" font-weight="normal" text-decoration="normal" x="0" y="18" text-anchor="start" dominant-baseline="alphabetic" transform="matrix(1, 0, 0, 1, 5.5, 5.5)" stroke-opacity="0" stroke-linejoin="bevel" stroke-miterlimit="10">D. Santiago de Chile</text></svg>