<svg version="1.1" xmlns="http://www.w3.org/2000/svg" width="605" height="336"><defs><clipPath id="JqlFrhskrCRC"><path fill="none" stroke="none" d="M 75.5 35.5 L 575.5 35.5 L 575.5 285.5 L 75.5 285.5 L 75.5 35.5 Z"/></clipPath><clipPath id="TryxSvKdLNpw"><path fill="none" stroke="none" d="M 75.5 35.5 L 575.5 35.5 L 575.5 285.5 L 75.5 285.5 L 75.5 35.5 Z"/></clipPath><clipPath id="rmtleRvMrdMz"><path fill="none" stroke="none" d="M 75.5 35.5 L 575.5 35.5 L 575.5 285.5 L 75.5 285.5 L 75.5 35.5 Z"/></clipPath><clipPath id="zPDbWIOBRsAQ"><path fill="none" stroke="none" d="M 75.5 35.5 L 575.5 35.5 L 575.5 285.5 L 75.5 285.5 L 75.5 35.5 Z"/></clipPath><clipPath id="RCZMKupIWKoM"><path fill="none" stroke="none" d="M 75.5 35.5 L 575.5 35.5 L 575.5 285.5 L 75.5 285.5 L 75.5 35.5 Z"/></clipPath><clipPath id="SimMtaTQPcKJ"><path fill="none" stroke="none" d="M 75.5 35.5 L 575.5 35.5 L 575.5 285.5 L 75.5 285.5 L 75.5 35.5 Z"/></clipPath><clipPath id="cztFRwueUxOe"><path fill="none" stroke="none" d="M 75.5 35.5 L 575.5 35.5 L 575.5 285.5 L 75.5 285.5 L 75.5 35.5 Z"/></clipPath><clipPath id="NEQaGdHDyOyG"><path fill="none" stroke="none" d="M 75.5 35.5 L 575.5 35.5 L 575.5 285.5 L 75.5 285.5 L 75.5 35.5 Z"/></clipPath><clipPath id="musvsBbhFmdJ"><path fill="none" stroke="none" d="M 75.5 35.5 L 575.5 35.5 L 575.5 285.5 L 75.5 285.5 L 75.5 35.5 Z"/></clipPath><clipPath id="dNzWIrmhgxaf"><path fill="none" stroke="none" d="M 75.5 35.5 L 575.5 35.5 L 575.5 285.5 L 75.5 285.5 L 75.5 35.5 Z"/></clipPath><clipPath id="CONaDMcTtpEg"><path fill="none" stroke="none" d="M 75.5 35.5 L 575.5 35.5 L 575.5 285.5 L 75.5 285.5 L 75.5 35.5 Z"/></clipPath><clipPath id="lIIvhNtzrHMV"><path fill="none" stroke="none" d="M 75.5 35.5 L 575.5 35.5 L 575.5 285.5 L 75.5 285.5 L 75.5 35.5 Z"/></clipPath><clipPath id="amaVAsXbRCdv"><path fill="none" stroke="none" d="M 75.5 35.5 L 575.5 35.5 L 575.5 285.5 L 75.5 285.5 L 75.5 35.5 Z"/></clipPath><clipPath id="GxqdeSZuqlEg"><path fill="none" stroke="none" d="M 75.5 35.5 L 575.5 35.5 L 575.5 285.5 L 75.5 285.5 L 75.5 35.5 Z"/></clipPath><clipPath id="NmSuDeTilIlf"><path fill="none" stroke="none" d="M 75.5 35.5 L 575.5 35.5 L 575.5 285.5 L 75.5 285.5 L 75.5 35.5 Z"/></clipPath><clipPath id="cEZwVEMWUezJ"><path fill="none" stroke="none" d="M 75.5 35.5 L 575.5 35.5 L 575.5 285.5 L 75.5 285.5 L 75.5 35.5 Z"/></clipPath><clipPath id="eoixXAOeluUr"><path fill="none" stroke="none" d="M 75.5 35.5 L 575.5 35.5 L 575.5 285.5 L 75.5 285.5 L 75.5 35.5 Z"/></clipPath><clipPath id="RTETErCJTWSG"><path fill="none" stroke="none" d="M 75.5 35.5 L 575.5 35.5 L 575.5 285.5 L 75.5 285.5 L 75.5 35.5 Z"/></clipPath><clipPath id="EcsBHSkVJkdW"><path fill="none" stroke="none" d="M 75.5 35.5 L 575.5 35.5 L 575.5 285.5 L 75.5 285.5 L 75.5 35.5 Z"/></clipPath><clipPath id="hhFrnzynvahc"><path fill="none" stroke="none" d="M 75.5 35.5 L 575.5 35.5 L 575.5 285.5 L 75.5 285.5 L 75.5 35.5 Z"/></clipPath><clipPath id="rHpFrQLiqHAi"><path fill="none" stroke="none" d="M 75.5 35.5 L 575.5 35.5 L 575.5 285.5 L 75.5 285.5 L 75.5 35.5 Z"/></clipPath><clipPath id="TZDlpKUDplyQ"><path fill="none" stroke="none" d="M 75.5 35.5 L 575.5 35.5 L 575.5 285.5 L 75.5 285.5 L 75.5 35.5 Z"/></clipPath><clipPath id="TcycWTrZCmSW"><path fill="none" stroke="none" d="M 75.5 35.5 L 575.5 35.5 L 575.5 285.5 L 75.5 285.5 L 75.5 35.5 Z"/></clipPath></defs><path fill="none" stroke="#e5e5e5" paint-order="fill" d="M 75.5 35.5 L 575.5 35.5 L 575.5 285.5 L 75.5 285.5 L 75.5 35.5 Z" stroke-linejoin="bevel" stroke-miterlimit="10"/><path fill="none" stroke="black" paint-order="fill" d="M 337.46172248803487 35.5 L 337.46172248803487 285.5" stroke-linejoin="bevel" stroke-miterlimit="10" stroke-width="3" stroke-dasharray="6" clip-path="url(#rmtleRvMrdMz)"/><path fill="none" stroke="#9467bd" paint-order="fill" d="M 98.2272720336914 130.9545440673828 L 122.15071868896484 212.77272033691406 L 146.07415771484375 152.77272033691406 L 169.9976043701172 163.68182373046875 L 193.92105102539062 172.77272033691406 L 217.84449768066406 147.31817626953125 L 241.7679443359375 147.31817626953125 L 265.6913757324219 96.40908813476562 L 289.6148376464844 163.68182373046875 L 313.53826904296875 123.68181610107422" stroke-linejoin="bevel" stroke-miterlimit="10" stroke-width="2" clip-path="url(#zPDbWIOBRsAQ)"/><path fill="none" stroke="#9467bd" paint-order="fill" d="M 98.2272720336914 172.01239013671875 L 122.15071868896484 167.37327575683594 L 146.07415771484375 162.73416137695312 L 169.9976043701172 158.0950469970703 L 193.92105102539062 153.45591735839844 L 217.84449768066406 148.81680297851562 L 241.7679443359375 144.1776885986328 L 265.6913757324219 139.53857421875 L 289.6148376464844 134.89944458007812 L 313.53826904296875 130.2603302001953" stroke-linejoin="bevel" stroke-miterlimit="10" stroke-width="2" stroke-dasharray="6" clip-path="url(#RCZMKupIWKoM)"/><path fill="none" stroke="#30a2da" paint-order="fill" d="M 313.53826904296875 123.68181610107422 L 337.46173095703125 141.86363220214844 L 361.3851623535156 165.5 L 385.3086242675781 147.31817626953125 L 409.2320556640625 154.59091186523438 L 433.155517578125 132.77272033691406 L 457.0789489746094 150.9545440673828 L 481.00238037109375 176.40908813476562 L 504.92584228515625 203.68182373046875 L 528.8493041992188 127.31818389892578 L 552.772705078125 160.0454559326172" stroke-linejoin="bevel" stroke-miterlimit="10" stroke-width="2" clip-path="url(#SimMtaTQPcKJ)"/><path fill="none" stroke="#30a2da" paint-order="fill" d="M 337.46173095703125 148.9049530029297 L 361.3851623535156 150.49172973632812 L 385.3086242675781 152.07850646972656 L 409.2320556640625 153.665283203125 L 433.155517578125 155.25205993652344 L 457.0789489746094 156.83883666992188 L 481.00238037109375 158.4256134033203 L 504.92584228515625 160.01239013671875 L 528.8493041992188 161.5991668701172 L 552.772705078125 163.18594360351562" stroke-linejoin="bevel" stroke-miterlimit="10" stroke-width="2" stroke-dasharray="6" clip-path="url(#cztFRwueUxOe)"/><path fill="none" stroke="#fc4f30" paint-order="fill" d="M 313.53826904296875 123.68181610107422 L 337.46173095703125 130.9545440673828 L 361.3851623535156 92.7727279663086 L 385.3086242675781 174.59091186523438 L 409.2320556640625 158.22727966308594 L 433.155517578125 129.13636779785156 L 457.0789489746094 183.68182373046875 L 481.00238037109375 209.13636779785156 L 504.92584228515625 183.68182373046875 L 528.8493041992188 161.86363220214844 L 552.772705078125 123.68181610107422" stroke-linejoin="bevel" stroke-miterlimit="10" stroke-width="2" clip-path="url(#NEQaGdHDyOyG)"/><path fill="none" stroke="#fc4f30" paint-order="fill" d="M 337.46173095703125 136.47520446777344 L 361.3851623535156 140.54132080078125 L 385.3086242675781 144.60743713378906 L 409.2320556640625 148.67355346679688 L 433.155517578125 152.7396697998047 L 457.0789489746094 156.8057861328125 L 481.00238037109375 160.8719024658203 L 504.92584228515625 164.93801879882812 L 528.8493041992188 169.00413513183594 L 552.772705078125 173.07025146484375" stroke-linejoin="bevel" stroke-miterlimit="10" stroke-width="2" stroke-dasharray="6" clip-path="url(#musvsBbhFmdJ)"/><path fill="none" stroke="rgb(128,128,128)" paint-order="fill" d="M 98.2272720336914 90.95454406738281 L 122.15071868896484 130.9545440673828 L 146.07415771484375 160.0454559326172 L 169.9976043701172 123.68181610107422 L 193.92105102539062 121.86363983154297 L 217.84449768066406 96.40908813476562 L 241.7679443359375 109.13636016845703 L 265.6913757324219 165.5 L 289.6148376464844 143.68182373046875 L 313.53826904296875 101.86363983154297" stroke-opacity="0.7490196078431373" stroke-linejoin="bevel" stroke-miterlimit="10" clip-path="url(#dNzWIrmhgxaf)"/><path fill="none" stroke="grey" paint-order="fill" d="M 313.53826904296875 101.86363983154297 L 337.46173095703125 145.5 L 361.3851623535156 127.31818389892578 L 385.3086242675781 163.68182373046875 L 409.2320556640625 167.31817626953125 L 433.155517578125 103.68181610107422 L 457.0789489746094 178.22727966308594 L 481.00238037109375 140.0454559326172 L 504.92584228515625 178.22727966308594 L 528.8493041992188 230.9545440673828 L 552.772705078125 187.31817626953125" stroke-linejoin="bevel" stroke-miterlimit="10" stroke-width="0.5" clip-path="url(#CONaDMcTtpEg)"/><path fill="none" stroke="grey" paint-order="fill" d="M 313.53826904296875 101.86363983154297 L 337.46173095703125 130.9545440673828 L 361.3851623535156 101.86363983154297 L 385.3086242675781 163.68182373046875 L 409.2320556640625 141.86363220214844 L 433.155517578125 103.68181610107422 L 457.0789489746094 165.5 L 481.00238037109375 161.86363220214844 L 504.92584228515625 185.5 L 528.8493041992188 158.22727966308594 L 552.772705078125 218.22727966308594" stroke-linejoin="bevel" stroke-miterlimit="10" stroke-width="0.5" clip-path="url(#lIIvhNtzrHMV)"/><path fill="none" stroke="rgb(128,128,128)" paint-order="fill" d="M 98.2272720336914 134.59091186523438 L 122.15071868896484 190.9545440673828 L 146.07415771484375 154.59091186523438 L 169.9976043701172 160.0454559326172 L 193.92105102539062 190.9545440673828 L 217.84449768066406 145.5 L 241.7679443359375 145.5 L 265.6913757324219 178.22727966308594 L 289.6148376464844 129.13636779785156 L 313.53826904296875 198.22727966308594" stroke-opacity="0.7490196078431373" stroke-linejoin="bevel" stroke-miterlimit="10" clip-path="url(#amaVAsXbRCdv)"/><path fill="none" stroke="grey" paint-order="fill" d="M 313.53826904296875 198.22727966308594 L 337.46173095703125 169.13636779785156 L 361.3851623535156 120.04545593261719 L 385.3086242675781 136.40908813476562 L 409.2320556640625 196.40908813476562 L 433.155517578125 90.95454406738281 L 457.0789489746094 150.9545440673828 L 481.00238037109375 101.86363983154297 L 504.92584228515625 100.04545593261719 L 528.8493041992188 218.22727966308594 L 552.772705078125 98.2272720336914" stroke-linejoin="bevel" stroke-miterlimit="10" stroke-width="0.5" clip-path="url(#GxqdeSZuqlEg)"/><path fill="none" stroke="grey" paint-order="fill" d="M 313.53826904296875 198.22727966308594 L 337.46173095703125 172.77272033691406 L 361.3851623535156 212.77272033691406 L 385.3086242675781 134.59091186523438 L 409.2320556640625 134.59091186523438 L 433.155517578125 129.13636779785156 L 457.0789489746094 100.04545593261719 L 481.00238037109375 174.59091186523438 L 504.92584228515625 169.13636779785156 L 528.8493041992188 134.59091186523438 L 552.772705078125 187.31817626953125" stroke-linejoin="bevel" stroke-miterlimit="10" stroke-width="0.5" clip-path="url(#NmSuDeTilIlf)"/><path fill="none" stroke="rgb(128,128,128)" paint-order="fill" d="M 98.2272720336914 170.9545440673828 L 122.15071868896484 229.13636779785156 L 146.07415771484375 200.0454559326172 L 169.9976043701172 181.86363220214844 L 193.92105102539062 58.227272033691406 L 217.84449768066406 138.22727966308594 L 241.7679443359375 107.31818389892578 L 265.6913757324219 150.9545440673828 L 289.6148376464844 103.68181610107422 L 313.53826904296875 118.2272720336914" stroke-opacity="0.7490196078431373" stroke-linejoin="bevel" stroke-miterlimit="10" clip-path="url(#cEZwVEMWUezJ)"/><path fill="none" stroke="grey" paint-order="fill" d="M 313.53826904296875 118.2272720336914 L 337.46173095703125 161.86363220214844 L 361.3851623535156 154.59091186523438 L 385.3086242675781 96.40908813476562 L 409.2320556640625 149.13636779785156 L 433.155517578125 149.13636779785156 L 457.0789489746094 169.13636779785156 L 481.00238037109375 216.40908813476562 L 504.92584228515625 170.9545440673828 L 528.8493041992188 141.86363220214844 L 552.772705078125 198.22727966308594" stroke-linejoin="bevel" stroke-miterlimit="10" stroke-width="0.5" clip-path="url(#eoixXAOeluUr)"/><path fill="none" stroke="grey" paint-order="fill" d="M 313.53826904296875 118.2272720336914 L 337.46173095703125 140.0454559326172 L 361.3851623535156 143.68182373046875 L 385.3086242675781 167.31817626953125 L 409.2320556640625 160.0454559326172 L 433.155517578125 172.77272033691406 L 457.0789489746094 147.31817626953125 L 481.00238037109375 125.5 L 504.92584228515625 100.04545593261719 L 528.8493041992188 218.22727966308594 L 552.772705078125 170.9545440673828" stroke-linejoin="bevel" stroke-miterlimit="10" stroke-width="0.5" clip-path="url(#RTETErCJTWSG)"/><path fill="none" stroke="rgb(128,128,128)" paint-order="fill" d="M 98.2272720336914 147.31817626953125 L 122.15071868896484 183.68182373046875 L 146.07415771484375 223.68182373046875 L 169.9976043701172 163.68182373046875 L 193.92105102539062 169.13636779785156 L 217.84449768066406 156.40908813476562 L 241.7679443359375 130.9545440673828 L 265.6913757324219 136.40908813476562 L 289.6148376464844 172.77272033691406 L 313.53826904296875 156.40908813476562" stroke-opacity="0.7490196078431373" stroke-linejoin="bevel" stroke-miterlimit="10" clip-path="url(#EcsBHSkVJkdW)"/><path fill="none" stroke="grey" paint-order="fill" d="M 313.53826904296875 156.40908813476562 L 337.46173095703125 174.59091186523438 L 361.3851623535156 136.40908813476562 L 385.3086242675781 196.40908813476562 L 409.2320556640625 101.86363983154297 L 433.155517578125 178.22727966308594 L 457.0789489746094 167.31817626953125 L 481.00238037109375 223.68182373046875 L 504.92584228515625 203.68182373046875 L 528.8493041992188 136.40908813476562 L 552.772705078125 138.22727966308594" stroke-linejoin="bevel" stroke-miterlimit="10" stroke-width="0.5" clip-path="url(#hhFrnzynvahc)"/><path fill="none" stroke="grey" paint-order="fill" d="M 313.53826904296875 156.40908813476562 L 337.46173095703125 172.77272033691406 L 361.3851623535156 178.22727966308594 L 385.3086242675781 178.22727966308594 L 409.2320556640625 161.86363220214844 L 433.155517578125 167.31817626953125 L 457.0789489746094 132.77272033691406 L 481.00238037109375 145.5 L 504.92584228515625 170.9545440673828 L 528.8493041992188 158.22727966308594 L 552.772705078125 176.40908813476562" stroke-linejoin="bevel" stroke-miterlimit="10" stroke-width="0.5" clip-path="url(#rHpFrQLiqHAi)"/><path fill="none" stroke="black" paint-order="fill" d="M 75.5 285.5 L 575.5 285.5" stroke-linejoin="bevel" stroke-miterlimit="10"/><path fill="none" stroke="black" paint-order="fill" d="M 98.5 291.5 L 98.5 283.5 M 217.5 291.5 L 217.5 283.5 M 337.5 291.5 L 337.5 283.5 M 457.5 291.5 L 457.5 283.5" stroke-linejoin="bevel" stroke-miterlimit="10"/><path fill="none" stroke="black" paint-order="fill" d="M 98.5 289.5 L 98.5 285.5 M 122.5 289.5 L 122.5 285.5 M 146.5 289.5 L 146.5 285.5 M 169.5 289.5 L 169.5 285.5 M 193.5 289.5 L 193.5 285.5 M 217.5 289.5 L 217.5 285.5 M 241.5 289.5 L 241.5 285.5 M 265.5 289.5 L 265.5 285.5 M 289.5 289.5 L 289.5 285.5 M 313.5 289.5 L 313.5 285.5 M 337.5 289.5 L 337.5 285.5 M 361.5 289.5 L 361.5 285.5 M 385.5 289.5 L 385.5 285.5 M 409.5 289.5 L 409.5 285.5 M 433.5 289.5 L 433.5 285.5 M 457.5 289.5 L 457.5 285.5 M 481.5 289.5 L 481.5 285.5 M 504.5 289.5 L 504.5 285.5 M 528.5 289.5 L 528.5 285.5 M 552.5 289.5 L 552.5 285.5" stroke-linejoin="bevel" stroke-miterlimit="10"/><text fill="#444444" stroke="none" font-family="helvetica" font-size="10pt" font-style="normal" font-weight="normal" text-decoration="normal" x="84.36060523986816" y="306" text-anchor="start" dominant-baseline="alphabetic" transform="matrix(1, 0, 0, 1, 0.5, 0.5)">2025</text><text fill="none" stroke="rgb(0,0,0)" font-family="helvetica" font-size="10pt" font-style="normal" font-weight="normal" text-decoration="normal" x="84.36060523986816" y="306" text-anchor="start" dominant-baseline="alphabetic" transform="matrix(1, 0, 0, 1, 0.5, 0.5)" stroke-opacity="0" stroke-linejoin="bevel" stroke-miterlimit="10">2025</text><text fill="#444444" stroke="none" font-family="helvetica" font-size="10pt" font-style="normal" font-weight="normal" text-decoration="normal" x="203.97783088684082" y="306" text-anchor="start" dominant-baseline="alphabetic" transform="matrix(1, 0, 0, 1, 0.5, 0.5)">2030</text><text fill="none" stroke="rgb(0,0,0)" font-family="helvetica" font-size="10pt" font-style="normal" font-weight="normal" text-decoration="normal" x="203.97783088684082" y="306" text-anchor="start" dominant-baseline="alphabetic" transform="matrix(1, 0, 0, 1, 0.5, 0.5)" stroke-opacity="0" stroke-linejoin="bevel" stroke-miterlimit="10">2030</text><text fill="#444444" stroke="none" font-family="helvetica" font-size="10pt" font-style="normal" font-weight="normal" text-decoration="normal" x="323.595064163208" y="306" text-anchor="start" dominant-baseline="alphabetic" transform="matrix(1, 0, 0, 1, 0.5, 0.5)">2035</text><text fill="none" stroke="rgb(0,0,0)" font-family="helvetica" font-size="10pt" font-style="normal" font-weight="normal" text-decoration="normal" x="323.595064163208" y="306" text-anchor="start" dominant-baseline="alphabetic" transform="matrix(1, 0, 0, 1, 0.5, 0.5)" stroke-opacity="0" stroke-linejoin="bevel" stroke-miterlimit="10">2035</text><text fill="#444444" stroke="none" font-family="helvetica" font-size="10pt" font-style="normal" font-weight="normal" text-decoration="normal" x="443.21228218078613" y="306" text-anchor="start" dominant-baseline="alphabetic" transform="matrix(1, 0, 0, 1, 0.5, 0.5)">2040</text><text fill="none" stroke="rgb(0,0,0)" font-family="helvetica" font-size="10pt" font-style="normal" font-weight="normal" text-decoration="normal" x="443.21228218078613" y="306" text-anchor="start" dominant-baseline="alphabetic" transform="matrix(1, 0, 0, 1, 0.5, 0.5)" stroke-opacity="0" stroke-linejoin="bevel" stroke-miterlimit="10">2040</text><text fill="#444444" stroke="none" font-family="helvetica" font-size="12pt" font-style="normal" font-weight="normal" text-decoration="normal" x="310.3166666030884" y="329" text-anchor="start" dominant-baseline="alphabetic" transform="matrix(1, 0, 0, 1, 0.5, 0.5)">Year</text><text fill="none" stroke="rgb(0,0,0)" font-family="helvetica" font-size="12pt" font-style="normal" font-weight="normal" text-decoration="normal" x="310.3166666030884" y="329" text-anchor="start" dominant-baseline="alphabetic" transform="matrix(1, 0, 0, 1, 0.5, 0.5)" stroke-opacity="0" stroke-linejoin="bevel" stroke-miterlimit="10">Year</text><path fill="none" stroke="black" paint-order="fill" d="M 75.5 285.5 L 75.5 35.5" stroke-linejoin="bevel" stroke-miterlimit="10"/><path fill="none" stroke="black" paint-order="fill" d="M 69.5 285.5 L 77.5 285.5 M 69.5 249.5 L 77.5 249.5 M 69.5 212.5 L 77.5 212.5 M 69.5 176.5 L 77.5 176.5 M 69.5 140.5 L 77.5 140.5 M 69.5 103.5 L 77.5 103.5 M 69.5 67.5 L 77.5 67.5" stroke-linejoin="bevel" stroke-miterlimit="10"/><path fill="none" stroke="black" paint-order="fill" d="M 71.5 285.5 L 75.5 285.5 M 71.5 278.5 L 75.5 278.5 M 71.5 270.5 L 75.5 270.5 M 71.5 263.5 L 75.5 263.5 M 71.5 256.5 L 75.5 256.5 M 71.5 249.5 L 75.5 249.5 M 71.5 241.5 L 75.5 241.5 M 71.5 234.5 L 75.5 234.5 M 71.5 227.5 L 75.5 227.5 M 71.5 220.5 L 75.5 220.5 M 71.5 212.5 L 75.5 212.5 M 71.5 205.5 L 75.5 205.5 M 71.5 198.5 L 75.5 198.5 M 71.5 190.5 L 75.5 190.5 M 71.5 183.5 L 75.5 183.5 M 71.5 176.5 L 75.5 176.5 M 71.5 169.5 L 75.5 169.5 M 71.5 161.5 L 75.5 161.5 M 71.5 154.5 L 75.5 154.5 M 71.5 147.5 L 75.5 147.5 M 71.5 140.5 L 75.5 140.5 M 71.5 132.5 L 75.5 132.5 M 71.5 125.5 L 75.5 125.5 M 71.5 118.5 L 75.5 118.5 M 71.5 110.5 L 75.5 110.5 M 71.5 103.5 L 75.5 103.5 M 71.5 96.5 L 75.5 96.5 M 71.5 89.5 L 75.5 89.5 M 71.5 81.5 L 75.5 81.5 M 71.5 74.5 L 75.5 74.5 M 71.5 67.5 L 75.5 67.5 M 71.5 60.5 L 75.5 60.5 M 71.5 52.5 L 75.5 52.5 M 71.5 45.5 L 75.5 45.5 M 71.5 38.5 L 75.5 38.5" stroke-linejoin="bevel" stroke-miterlimit="10"/><text fill="#444444" stroke="none" font-family="helvetica" font-size="10pt" font-style="normal" font-weight="normal" text-decoration="normal" x="57.31666660308838" y="290" text-anchor="start" dominant-baseline="alphabetic" transform="matrix(1, 0, 0, 1, 0.5, 0.5)">0</text><text fill="none" stroke="rgb(0,0,0)" font-family="helvetica" font-size="10pt" font-style="normal" font-weight="normal" text-decoration="normal" x="57.31666660308838" y="290" text-anchor="start" dominant-baseline="alphabetic" transform="matrix(1, 0, 0, 1, 0.5, 0.5)" stroke-opacity="0" stroke-linejoin="bevel" stroke-miterlimit="10">0</text><text fill="#444444" stroke="none" font-family="helvetica" font-size="10pt" font-style="normal" font-weight="normal" text-decoration="normal" x="50.63333320617676" y="253.63636779785156" text-anchor="start" dominant-baseline="alphabetic" transform="matrix(1, 0, 0, 1, 0.5, 0.5)">20</text><text fill="none" stroke="rgb(0,0,0)" font-family="helvetica" font-size="10pt" font-style="normal" font-weight="normal" text-decoration="normal" x="50.63333320617676" y="253.63636779785156" text-anchor="start" dominant-baseline="alphabetic" transform="matrix(1, 0, 0, 1, 0.5, 0.5)" stroke-opacity="0" stroke-linejoin="bevel" stroke-miterlimit="10">20</text><text fill="#444444" stroke="none" font-family="helvetica" font-size="10pt" font-style="normal" font-weight="normal" text-decoration="normal" x="50.63333320617676" y="217.27272033691406" text-anchor="start" dominant-baseline="alphabetic" transform="matrix(1, 0, 0, 1, 0.5, 0.5)">40</text><text fill="none" stroke="rgb(0,0,0)" font-family="helvetica" font-size="10pt" font-style="normal" font-weight="normal" text-decoration="normal" x="50.63333320617676" y="217.27272033691406" text-anchor="start" dominant-baseline="alphabetic" transform="matrix(1, 0, 0, 1, 0.5, 0.5)" stroke-opacity="0" stroke-linejoin="bevel" stroke-miterlimit="10">40</text><text fill="#444444" stroke="none" font-family="helvetica" font-size="10pt" font-style="normal" font-weight="normal" text-decoration="normal" x="50.63333320617676" y="180.90908813476562" text-anchor="start" dominant-baseline="alphabetic" transform="matrix(1, 0, 0, 1, 0.5, 0.5)">60</text><text fill="none" stroke="rgb(0,0,0)" font-family="helvetica" font-size="10pt" font-style="normal" font-weight="normal" text-decoration="normal" x="50.63333320617676" y="180.90908813476562" text-anchor="start" dominant-baseline="alphabetic" transform="matrix(1, 0, 0, 1, 0.5, 0.5)" stroke-opacity="0" stroke-linejoin="bevel" stroke-miterlimit="10">60</text><text fill="#444444" stroke="none" font-family="helvetica" font-size="10pt" font-style="normal" font-weight="normal" text-decoration="normal" x="50.63333320617676" y="144.5454559326172" text-anchor="start" dominant-baseline="alphabetic" transform="matrix(1, 0, 0, 1, 0.5, 0.5)">80</text><text fill="none" stroke="rgb(0,0,0)" font-family="helvetica" font-size="10pt" font-style="normal" font-weight="normal" text-decoration="normal" x="50.63333320617676" y="144.5454559326172" text-anchor="start" dominant-baseline="alphabetic" transform="matrix(1, 0, 0, 1, 0.5, 0.5)" stroke-opacity="0" stroke-linejoin="bevel" stroke-miterlimit="10">80</text><text fill="#444444" stroke="none" font-family="helvetica" font-size="10pt" font-style="normal" font-weight="normal" text-decoration="normal" x="43.95000076293945" y="108.18181610107422" text-anchor="start" dominant-baseline="alphabetic" transform="matrix(1, 0, 0, 1, 0.5, 0.5)">100</text><text fill="none" stroke="rgb(0,0,0)" font-family="helvetica" font-size="10pt" font-style="normal" font-weight="normal" text-decoration="normal" x="43.95000076293945" y="108.18181610107422" text-anchor="start" dominant-baseline="alphabetic" transform="matrix(1, 0, 0, 1, 0.5, 0.5)" stroke-opacity="0" stroke-linejoin="bevel" stroke-miterlimit="10">100</text><text fill="#444444" stroke="none" font-family="helvetica" font-size="10pt" font-style="normal" font-weight="normal" text-decoration="normal" x="43.95000076293945" y="71.81818389892578" text-anchor="start" dominant-baseline="alphabetic" transform="matrix(1, 0, 0, 1, 0.5, 0.5)">120</text><text fill="none" stroke="rgb(0,0,0)" font-family="helvetica" font-size="10pt" font-style="normal" font-weight="normal" text-decoration="normal" x="43.95000076293945" y="71.81818389892578" text-anchor="start" dominant-baseline="alphabetic" transform="matrix(1, 0, 0, 1, 0.5, 0.5)" stroke-opacity="0" stroke-linejoin="bevel" stroke-miterlimit="10">120</text><text fill="#444444" stroke="none" font-family="helvetica" font-size="12pt" font-style="normal" font-weight="normal" text-decoration="normal" x="-60.25833511352539" y="156" text-anchor="start" dominant-baseline="alphabetic" transform="matrix(6.123233995736766e-17, -1, 1, 6.123233995736766e-17, -123.54999923706055, 196.45000076293945)">Days suitable for transmission</text><text fill="none" stroke="rgb(0,0,0)" font-family="helvetica" font-size="12pt" font-style="normal" font-weight="normal" text-decoration="normal" x="-60.25833511352539" y="156" text-anchor="start" dominant-baseline="alphabetic" transform="matrix(6.123233995736766e-17, -1, 1, 6.123233995736766e-17, -123.54999923706055, 196.45000076293945)" stroke-opacity="0" stroke-linejoin="bevel" stroke-miterlimit="10">Days suitable for transmission</text><path fill="rgb(255,255,255)" stroke="rgb(229,229,229)" paint-order="fill" d="M 482.0333251953125 210.5 L 565.4999847412109 210.5 L 565.4999847412109 275.5 L 482.0333251953125 275.5 L 482.0333251953125 210.5 Z" fill-opacity="0.9490196078431372" clip-path="url(#TZDlpKUDplyQ)" stroke-opacity="0.5019607843137255" stroke-linejoin="bevel" stroke-miterlimit="10"/><g clip-path="url(#TZDlpKUDplyQ)"><g transform="matrix(1, 0, 0, 1, 492.5333251953125, 221)"><path fill="none" stroke="#30a2da" paint-order="fill" d="M 0.5 10.5 L 20.5 10.5" stroke-linejoin="bevel" stroke-miterlimit="10" stroke-width="2"/></g></g><g clip-path="url(#TZDlpKUDplyQ)"><text fill="#444444" stroke="none" font-family="helvetica" font-size="13px" font-style="normal" font-weight="normal" text-decoration="normal" x="517.5333251953125" y="235.5" text-anchor="start" dominant-baseline="alphabetic" transform="matrix(1, 0, 0, 1, 0.5, 0.5)">ID 001</text></g><g clip-path="url(#TZDlpKUDplyQ)"><text fill="none" stroke="rgb(0,0,0)" font-family="helvetica" font-size="13px" font-style="normal" font-weight="normal" text-decoration="normal" x="517.5333251953125" y="235.5" text-anchor="start" dominant-baseline="alphabetic" transform="matrix(1, 0, 0, 1, 0.5, 0.5)" stroke-opacity="0" stroke-linejoin="bevel" stroke-miterlimit="10">ID 001</text></g><g clip-path="url(#TZDlpKUDplyQ)"><g transform="matrix(1, 0, 0, 1, 492.5333251953125, 244)"><path fill="none" stroke="#fc4f30" paint-order="fill" d="M 0.5 10.5 L 20.5 10.5" stroke-linejoin="bevel" stroke-miterlimit="10" stroke-width="2"/></g></g><g clip-path="url(#TZDlpKUDplyQ)"><text fill="#444444" stroke="none" font-family="helvetica" font-size="13px" font-style="normal" font-weight="normal" text-decoration="normal" x="517.5333251953125" y="258.5" text-anchor="start" dominant-baseline="alphabetic" transform="matrix(1, 0, 0, 1, 0.5, 0.5)">ID 006</text></g><g clip-path="url(#TZDlpKUDplyQ)"><text fill="none" stroke="rgb(0,0,0)" font-family="helvetica" font-size="13px" font-style="normal" font-weight="normal" text-decoration="normal" x="517.5333251953125" y="258.5" text-anchor="start" dominant-baseline="alphabetic" transform="matrix(1, 0, 0, 1, 0.5, 0.5)" stroke-opacity="0" stroke-linejoin="bevel" stroke-miterlimit="10">ID 006</text></g><text fill="black" stroke="none" font-family="helvetica" font-size="14pt" font-style="normal" font-weight="normal" text-decoration="normal" x="0" y="18" text-anchor="start" dominant-baseline="alphabetic" transform="matrix(1, 0, 0, 1, 5.5, 7.5)">D. Addis Ababa</text><text fill="none" stroke="rgb(0,0,0)" font-family="helvetica" font-size="14pt" font-style="normal" font-weight="normal" text-decoration="normal" x="0" y="18" text-anchor="start" dominant-baseline="alphabetic" transform="matrix(1, 0, 0, 1, 5.5, 7.5)" stroke-opacity="0" stroke-linejoin="bevel" stroke-miterlimit="10">D. Addis Ababa</text></svg>