<svg version="1.1" xmlns="http://www.w3.org/2000/svg" width="600" height="334"><defs><clipPath id="NqxGrWXHROex"><path fill="none" stroke="none" d="M 70.5 33.5 L 570.5 33.5 L 570.5 283.5 L 70.5 283.5 L 70.5 33.5 Z"/></clipPath><clipPath id="DEGIInfczZhH"><path fill="none" stroke="none" d="M 70.5 33.5 L 570.5 33.5 L 570.5 283.5 L 70.5 283.5 L 70.5 33.5 Z"/></clipPath><clipPath id="fukOnATFQuhS"><path fill="none" stroke="none" d="M 70.5 33.5 L 570.5 33.5 L 570.5 283.5 L 70.5 283.5 L 70.5 33.5 Z"/></clipPath><clipPath id="LDqUTEkPRASR"><path fill="none" stroke="none" d="M 70.5 33.5 L 570.5 33.5 L 570.5 283.5 L 70.5 283.5 L 70.5 33.5 Z"/></clipPath><clipPath id="vHmOXZTByfbh"><path fill="none" stroke="none" d="M 70.5 33.5 L 570.5 33.5 L 570.5 283.5 L 70.5 283.5 L 70.5 33.5 Z"/></clipPath><clipPath id="AwuMwTKLtdHt"><path fill="none" stroke="none" d="M 70.5 33.5 L 570.5 33.5 L 570.5 283.5 L 70.5 283.5 L 70.5 33.5 Z"/></clipPath><clipPath id="rfKCzmsumztl"><path fill="none" stroke="none" d="M 70.5 33.5 L 570.5 33.5 L 570.5 283.5 L 70.5 283.5 L 70.5 33.5 Z"/></clipPath><clipPath id="CNMhzJslqvfp"><path fill="none" stroke="none" d="M 70.5 33.5 L 570.5 33.5 L 570.5 283.5 L 70.5 283.5 L 70.5 33.5 Z"/></clipPath><clipPath id="TDCedFeLqzOW"><path fill="none" stroke="none" d="M 70.5 33.5 L 570.5 33.5 L 570.5 283.5 L 70.5 283.5 L 70.5 33.5 Z"/></clipPath><clipPath id="EIFFVTSSkwam"><path fill="none" stroke="none" d="M 70.5 33.5 L 570.5 33.5 L 570.5 283.5 L 70.5 283.5 L 70.5 33.5 Z"/></clipPath><clipPath id="liEcVfiMzrPl"><path fill="none" stroke="none" d="M 70.5 33.5 L 570.5 33.5 L 570.5 283.5 L 70.5 283.5 L 70.5 33.5 Z"/></clipPath><clipPath id="wmqUJiZINLFT"><path fill="none" stroke="none" d="M 70.5 33.5 L 570.5 33.5 L 570.5 283.5 L 70.5 283.5 L 70.5 33.5 Z"/></clipPath><clipPath id="pRbLZsLTrXnf"><path fill="none" stroke="none" d="M 70.5 33.5 L 570.5 33.5 L 570.5 283.5 L 70.5 283.5 L 70.5 33.5 Z"/></clipPath><clipPath id="JLUZSOcQRKFs"><path fill="none" stroke="none" d="M 70.5 33.5 L 570.5 33.5 L 570.5 283.5 L 70.5 283.5 L 70.5 33.5 Z"/></clipPath><clipPath id="WqXgxSBARJKo"><path fill="none" stroke="none" d="M 70.5 33.5 L 570.5 33.5 L 570.5 283.5 L 70.5 283.5 L 70.5 33.5 Z"/></clipPath><clipPath id="TQBIEqEhluTv"><path fill="none" stroke="none" d="M 70.5 33.5 L 570.5 33.5 L 570.5 283.5 L 70.5 283.5 L 70.5 33.5 Z"/></clipPath><clipPath id="RWUsohHUlcVZ"><path fill="none" stroke="none" d="M 70.5 33.5 L 570.5 33.5 L 570.5 283.5 L 70.5 283.5 L 70.5 33.5 Z"/></clipPath><clipPath id="ADwvnTQvBuFt"><path fill="none" stroke="none" d="M 70.5 33.5 L 570.5 33.5 L 570.5 283.5 L 70.5 283.5 L 70.5 33.5 Z"/></clipPath><clipPath id="npEJmUzrLeqb"><path fill="none" stroke="none" d="M 70.5 33.5 L 570.5 33.5 L 570.5 283.5 L 70.5 283.5 L 70.5 33.5 Z"/></clipPath><clipPath id="vcAaoETtXPTo"><path fill="none" stroke="none" d="M 70.5 33.5 L 570.5 33.5 L 570.5 283.5 L 70.5 283.5 L 70.5 33.5 Z"/></clipPath><clipPath id="PxtmDAqqOwOp"><path fill="none" stroke="none" d="M 70.5 33.5 L 570.5 33.5 L 570.5 283.5 L 70.5 283.5 L 70.5 33.5 Z"/></clipPath><clipPath id="iTNVfzwUvDoN"><path fill="none" stroke="none" d="M 70.5 33.5 L 570.5 33.5 L 570.5 283.5 L 70.5 283.5 L 70.5 33.5 Z"/></clipPath><clipPath id="pUbwhHwsHbmx"><path fill="none" stroke="none" d="M 70.5 33.5 L 570.5 33.5 L 570.5 283.5 L 70.5 283.5 L 70.5 33.5 Z"/></clipPath></defs><path fill="none" stroke="#e5e5e5" paint-order="fill" d="M 70.5 33.5 L 570.5 33.5 L 570.5 283.5 L 70.5 283.5 L 70.5 33.5 Z" stroke-linejoin="bevel" stroke-miterlimit="10"/><path fill="none" stroke="black" paint-order="fill" d="M 332.46172248803487 33.5 L 332.46172248803487 283.5" stroke-linejoin="bevel" stroke-miterlimit="10" stroke-width="3" stroke-dasharray="6" clip-path="url(#fukOnATFQuhS)"/><path fill="none" stroke="#9467bd" paint-order="fill" d="M 93.2272720336914 145.82518005371094 L 117.15071868896484 137.08392333984375 L 141.07415771484375 121.78671264648438 L 164.9976043701172 97.74825286865234 L 188.92105102539062 172.0489501953125 L 212.84449768066406 143.63986206054688 L 236.7679443359375 123.97203063964844 L 260.6913757324219 123.97203063964844 L 284.6148376464844 128.34265899658203 L 308.53826904296875 134.8986053466797" stroke-linejoin="bevel" stroke-miterlimit="10" stroke-width="2" clip-path="url(#LDqUTEkPRASR)"/><path fill="none" stroke="#9467bd" paint-order="fill" d="M 93.2272720336914 145.82518005371094 L 117.15071868896484 137.08392333984375 L 141.07415771484375 121.78671264648438 L 164.9976043701172 97.74825286865234 L 188.92105102539062 172.0489501953125 L 212.84449768066406 143.63986206054688 L 236.7679443359375 123.97203063964844 L 260.6913757324219 123.97203063964844 L 284.6148376464844 128.34265899658203 L 308.53826904296875 134.8986053466797" stroke-linejoin="bevel" stroke-miterlimit="10" stroke-width="2" stroke-dasharray="6" clip-path="url(#vHmOXZTByfbh)"/><path fill="none" stroke="#30a2da" paint-order="fill" d="M 308.53826904296875 134.8986053466797 L 332.46173095703125 158.9370574951172 L 356.3851623535156 178.60488891601562 L 380.3086242675781 156.7517547607422 L 404.2320556640625 69.33915710449219 L 428.155517578125 121.78671264648438 L 452.0789489746094 71.52447509765625 L 476.00238037109375 139.26922607421875 L 499.92584228515625 106.48950958251953 L 523.8493041992188 104.30419921875 L 547.772705078125 134.8986053466797" stroke-linejoin="bevel" stroke-miterlimit="10" stroke-width="2" clip-path="url(#AwuMwTKLtdHt)"/><path fill="none" stroke="#30a2da" paint-order="fill" d="M 332.46173095703125 146.7787628173828 L 356.3851623535156 141.75917053222656 L 380.3086242675781 136.73956298828125 L 404.2320556640625 131.71995544433594 L 428.155517578125 126.70036315917969 L 452.0789489746094 121.68075561523438 L 476.00238037109375 116.6611557006836 L 499.92584228515625 111.64155578613281 L 523.8493041992188 106.62195587158203 L 547.772705078125 101.60235595703125" stroke-linejoin="bevel" stroke-miterlimit="10" stroke-width="2" stroke-dasharray="6" clip-path="url(#rfKCzmsumztl)"/><path fill="none" stroke="#fc4f30" paint-order="fill" d="M 308.53826904296875 134.8986053466797 L 332.46173095703125 167.67831420898438 L 356.3851623535156 130.52796936035156 L 380.3086242675781 104.30419921875 L 404.2320556640625 117.41608428955078 L 428.155517578125 123.97203063964844 L 452.0789489746094 115.23076629638672 L 476.00238037109375 141.4545440673828 L 499.92584228515625 161.12237548828125 L 523.8493041992188 161.12237548828125 L 547.772705078125 163.3076934814453" stroke-linejoin="bevel" stroke-miterlimit="10" stroke-width="2" clip-path="url(#CNMhzJslqvfp)"/><path fill="none" stroke="#fc4f30" paint-order="fill" d="M 332.46173095703125 124.36935424804688 L 356.3851623535156 127.53475189208984 L 380.3086242675781 130.7001495361328 L 404.2320556640625 133.86553955078125 L 428.155517578125 137.03094482421875 L 452.0789489746094 140.1963348388672 L 476.00238037109375 143.36172485351562 L 499.92584228515625 146.52713012695312 L 523.8493041992188 149.69252014160156 L 547.772705078125 152.85791015625" stroke-linejoin="bevel" stroke-miterlimit="10" stroke-width="2" stroke-dasharray="6" clip-path="url(#TDCedFeLqzOW)"/><path fill="none" stroke="rgb(128,128,128)" paint-order="fill" d="M 93.2272720336914 189.53146362304688 L 117.15071868896484 158.9370574951172 L 141.07415771484375 148.01048278808594 L 164.9976043701172 119.60140228271484 L 188.92105102539062 130.52796936035156 L 212.84449768066406 119.60140228271484 L 236.7679443359375 75.89510345458984 L 260.6913757324219 143.63986206054688 L 284.6148376464844 110.86013793945312 L 308.53826904296875 117.41608428955078" stroke-opacity="0.7490196078431373" stroke-linejoin="bevel" stroke-miterlimit="10" clip-path="url(#EIFFVTSSkwam)"/><path fill="none" stroke="grey" paint-order="fill" d="M 308.53826904296875 117.41608428955078 L 332.46173095703125 143.63986206054688 L 356.3851623535156 148.01048278808594 L 380.3086242675781 139.26922607421875 L 404.2320556640625 141.4545440673828 L 428.155517578125 99.93356323242188 L 452.0789489746094 119.60140228271484 L 476.00238037109375 143.63986206054688 L 499.92584228515625 106.48950958251953 L 523.8493041992188 113.04545593261719 L 547.772705078125 139.26922607421875" stroke-linejoin="bevel" stroke-miterlimit="10" stroke-width="0.5" clip-path="url(#liEcVfiMzrPl)"/><path fill="none" stroke="grey" paint-order="fill" d="M 308.53826904296875 117.41608428955078 L 332.46173095703125 113.04545593261719 L 356.3851623535156 165.49301147460938 L 380.3086242675781 165.49301147460938 L 404.2320556640625 139.26922607421875 L 428.155517578125 156.7517547607422 L 452.0789489746094 128.34265899658203 L 476.00238037109375 143.63986206054688 L 499.92584228515625 165.49301147460938 L 523.8493041992188 132.71328735351562 L 547.772705078125 137.08392333984375" stroke-linejoin="bevel" stroke-miterlimit="10" stroke-width="0.5" clip-path="url(#wmqUJiZINLFT)"/><path fill="none" stroke="rgb(128,128,128)" paint-order="fill" d="M 93.2272720336914 104.30419921875 L 117.15071868896484 110.86013793945312 L 141.07415771484375 134.8986053466797 L 164.9976043701172 95.56293487548828 L 188.92105102539062 152.38111877441406 L 212.84449768066406 110.86013793945312 L 236.7679443359375 108.6748275756836 L 260.6913757324219 143.63986206054688 L 284.6148376464844 104.30419921875 L 308.53826904296875 145.82518005371094" stroke-opacity="0.7490196078431373" stroke-linejoin="bevel" stroke-miterlimit="10" clip-path="url(#pRbLZsLTrXnf)"/><path fill="none" stroke="grey" paint-order="fill" d="M 308.53826904296875 145.82518005371094 L 332.46173095703125 143.63986206054688 L 356.3851623535156 110.86013793945312 L 380.3086242675781 106.48950958251953 L 404.2320556640625 93.37762451171875 L 428.155517578125 86.8216781616211 L 452.0789489746094 130.52796936035156 L 476.00238037109375 132.71328735351562 L 499.92584228515625 198.27272033691406 L 523.8493041992188 163.3076934814453 L 547.772705078125 99.93356323242188" stroke-linejoin="bevel" stroke-miterlimit="10" stroke-width="0.5" clip-path="url(#JLUZSOcQRKFs)"/><path fill="none" stroke="grey" paint-order="fill" d="M 308.53826904296875 145.82518005371094 L 332.46173095703125 91.19230651855469 L 356.3851623535156 115.23076629638672 L 380.3086242675781 108.6748275756836 L 404.2320556640625 106.48950958251953 L 428.155517578125 58.4125862121582 L 452.0789489746094 134.8986053466797 L 476.00238037109375 165.49301147460938 L 499.92584228515625 121.78671264648438 L 523.8493041992188 119.60140228271484 L 547.772705078125 119.60140228271484" stroke-linejoin="bevel" stroke-miterlimit="10" stroke-width="0.5" clip-path="url(#WqXgxSBARJKo)"/><path fill="none" stroke="rgb(128,128,128)" paint-order="fill" d="M 93.2272720336914 172.0489501953125 L 117.15071868896484 141.4545440673828 L 141.07415771484375 115.23076629638672 L 164.9976043701172 148.01048278808594 L 188.92105102539062 213.56993103027344 L 212.84449768066406 108.6748275756836 L 236.7679443359375 130.52796936035156 L 260.6913757324219 119.60140228271484 L 284.6148376464844 126.15734100341797 L 308.53826904296875 141.4545440673828" stroke-opacity="0.7490196078431373" stroke-linejoin="bevel" stroke-miterlimit="10" clip-path="url(#TQBIEqEhluTv)"/><path fill="none" stroke="grey" paint-order="fill" d="M 308.53826904296875 141.4545440673828 L 332.46173095703125 110.86013793945312 L 356.3851623535156 141.4545440673828 L 380.3086242675781 148.01048278808594 L 404.2320556640625 132.71328735351562 L 428.155517578125 108.6748275756836 L 452.0789489746094 145.82518005371094 L 476.00238037109375 134.8986053466797 L 499.92584228515625 117.41608428955078 L 523.8493041992188 123.97203063964844 L 547.772705078125 113.04545593261719" stroke-linejoin="bevel" stroke-miterlimit="10" stroke-width="0.5" clip-path="url(#RWUsohHUlcVZ)"/><path fill="none" stroke="grey" paint-order="fill" d="M 308.53826904296875 141.4545440673828 L 332.46173095703125 108.6748275756836 L 356.3851623535156 156.7517547607422 L 380.3086242675781 141.4545440673828 L 404.2320556640625 165.49301147460938 L 428.155517578125 156.7517547607422 L 452.0789489746094 102.11888122558594 L 476.00238037109375 119.60140228271484 L 499.92584228515625 78.0804214477539 L 523.8493041992188 56.227272033691406 L 547.772705078125 82.4510498046875" stroke-linejoin="bevel" stroke-miterlimit="10" stroke-width="0.5" clip-path="url(#ADwvnTQvBuFt)"/><path fill="none" stroke="rgb(128,128,128)" paint-order="fill" d="M 93.2272720336914 117.41608428955078 L 117.15071868896484 119.60140228271484 L 141.07415771484375 115.23076629638672 L 164.9976043701172 152.38111877441406 L 188.92105102539062 106.48950958251953 L 212.84449768066406 139.26922607421875 L 236.7679443359375 134.8986053466797 L 260.6913757324219 141.4545440673828 L 284.6148376464844 161.12237548828125 L 308.53826904296875 97.74825286865234" stroke-opacity="0.7490196078431373" stroke-linejoin="bevel" stroke-miterlimit="10" clip-path="url(#npEJmUzrLeqb)"/><path fill="none" stroke="grey" paint-order="fill" d="M 308.53826904296875 97.74825286865234 L 332.46173095703125 121.78671264648438 L 356.3851623535156 132.71328735351562 L 380.3086242675781 106.48950958251953 L 404.2320556640625 108.6748275756836 L 428.155517578125 134.8986053466797 L 452.0789489746094 106.48950958251953 L 476.00238037109375 145.82518005371094 L 499.92584228515625 128.34265899658203 L 523.8493041992188 102.11888122558594 L 547.772705078125 115.23076629638672" stroke-linejoin="bevel" stroke-miterlimit="10" stroke-width="0.5" clip-path="url(#vcAaoETtXPTo)"/><path fill="none" stroke="grey" paint-order="fill" d="M 308.53826904296875 97.74825286865234 L 332.46173095703125 139.26922607421875 L 356.3851623535156 123.97203063964844 L 380.3086242675781 154.56643676757812 L 404.2320556640625 139.26922607421875 L 428.155517578125 145.82518005371094 L 452.0789489746094 139.26922607421875 L 476.00238037109375 143.63986206054688 L 499.92584228515625 150.19580078125 L 523.8493041992188 117.41608428955078 L 547.772705078125 86.8216781616211" stroke-linejoin="bevel" stroke-miterlimit="10" stroke-width="0.5" clip-path="url(#PxtmDAqqOwOp)"/><path fill="none" stroke="black" paint-order="fill" d="M 70.5 283.5 L 570.5 283.5" stroke-linejoin="bevel" stroke-miterlimit="10"/><path fill="none" stroke="black" paint-order="fill" d="M 93.5 289.5 L 93.5 281.5 M 212.5 289.5 L 212.5 281.5 M 332.5 289.5 L 332.5 281.5 M 452.5 289.5 L 452.5 281.5" stroke-linejoin="bevel" stroke-miterlimit="10"/><path fill="none" stroke="black" paint-order="fill" d="M 93.5 287.5 L 93.5 283.5 M 117.5 287.5 L 117.5 283.5 M 141.5 287.5 L 141.5 283.5 M 164.5 287.5 L 164.5 283.5 M 188.5 287.5 L 188.5 283.5 M 212.5 287.5 L 212.5 283.5 M 236.5 287.5 L 236.5 283.5 M 260.5 287.5 L 260.5 283.5 M 284.5 287.5 L 284.5 283.5 M 308.5 287.5 L 308.5 283.5 M 332.5 287.5 L 332.5 283.5 M 356.5 287.5 L 356.5 283.5 M 380.5 287.5 L 380.5 283.5 M 404.5 287.5 L 404.5 283.5 M 428.5 287.5 L 428.5 283.5 M 452.5 287.5 L 452.5 283.5 M 476.5 287.5 L 476.5 283.5 M 499.5 287.5 L 499.5 283.5 M 523.5 287.5 L 523.5 283.5 M 547.5 287.5 L 547.5 283.5" stroke-linejoin="bevel" stroke-miterlimit="10"/><text fill="#444444" stroke="none" font-family="helvetica" font-size="10pt" font-style="normal" font-weight="normal" text-decoration="normal" x="79.36060523986816" y="304" text-anchor="start" dominant-baseline="alphabetic" transform="matrix(1, 0, 0, 1, 0.5, 0.5)">2025</text><text fill="none" stroke="rgb(0,0,0)" font-family="helvetica" font-size="10pt" font-style="normal" font-weight="normal" text-decoration="normal" x="79.36060523986816" y="304" text-anchor="start" dominant-baseline="alphabetic" transform="matrix(1, 0, 0, 1, 0.5, 0.5)" stroke-opacity="0" stroke-linejoin="bevel" stroke-miterlimit="10">2025</text><text fill="#444444" stroke="none" font-family="helvetica" font-size="10pt" font-style="normal" font-weight="normal" text-decoration="normal" x="198.97783088684082" y="304" text-anchor="start" dominant-baseline="alphabetic" transform="matrix(1, 0, 0, 1, 0.5, 0.5)">2030</text><text fill="none" stroke="rgb(0,0,0)" font-family="helvetica" font-size="10pt" font-style="normal" font-weight="normal" text-decoration="normal" x="198.97783088684082" y="304" text-anchor="start" dominant-baseline="alphabetic" transform="matrix(1, 0, 0, 1, 0.5, 0.5)" stroke-opacity="0" stroke-linejoin="bevel" stroke-miterlimit="10">2030</text><text fill="#444444" stroke="none" font-family="helvetica" font-size="10pt" font-style="normal" font-weight="normal" text-decoration="normal" x="318.595064163208" y="304" text-anchor="start" dominant-baseline="alphabetic" transform="matrix(1, 0, 0, 1, 0.5, 0.5)">2035</text><text fill="none" stroke="rgb(0,0,0)" font-family="helvetica" font-size="10pt" font-style="normal" font-weight="normal" text-decoration="normal" x="318.595064163208" y="304" text-anchor="start" dominant-baseline="alphabetic" transform="matrix(1, 0, 0, 1, 0.5, 0.5)" stroke-opacity="0" stroke-linejoin="bevel" stroke-miterlimit="10">2035</text><text fill="#444444" stroke="none" font-family="helvetica" font-size="10pt" font-style="normal" font-weight="normal" text-decoration="normal" x="438.21228218078613" y="304" text-anchor="start" dominant-baseline="alphabetic" transform="matrix(1, 0, 0, 1, 0.5, 0.5)">2040</text><text fill="none" stroke="rgb(0,0,0)" font-family="helvetica" font-size="10pt" font-style="normal" font-weight="normal" text-decoration="normal" x="438.21228218078613" y="304" text-anchor="start" dominant-baseline="alphabetic" transform="matrix(1, 0, 0, 1, 0.5, 0.5)" stroke-opacity="0" stroke-linejoin="bevel" stroke-miterlimit="10">2040</text><text fill="#444444" stroke="none" font-family="helvetica" font-size="12pt" font-style="normal" font-weight="normal" text-decoration="normal" x="305.3166666030884" y="327" text-anchor="start" dominant-baseline="alphabetic" transform="matrix(1, 0, 0, 1, 0.5, 0.5)">Year</text><text fill="none" stroke="rgb(0,0,0)" font-family="helvetica" font-size="12pt" font-style="normal" font-weight="normal" text-decoration="normal" x="305.3166666030884" y="327" text-anchor="start" dominant-baseline="alphabetic" transform="matrix(1, 0, 0, 1, 0.5, 0.5)" stroke-opacity="0" stroke-linejoin="bevel" stroke-miterlimit="10">Year</text><path fill="none" stroke="black" paint-order="fill" d="M 70.5 283.5 L 70.5 33.5" stroke-linejoin="bevel" stroke-miterlimit="10"/><path fill="none" stroke="black" paint-order="fill" d="M 64.5 283.5 L 72.5 283.5 M 64.5 239.5 L 72.5 239.5 M 64.5 196.5 L 72.5 196.5 M 64.5 152.5 L 72.5 152.5 M 64.5 108.5 L 72.5 108.5 M 64.5 64.5 L 72.5 64.5" stroke-linejoin="bevel" stroke-miterlimit="10"/><path fill="none" stroke="black" paint-order="fill" d="M 66.5 283.5 L 70.5 283.5 M 66.5 274.5 L 70.5 274.5 M 66.5 266.5 L 70.5 266.5 M 66.5 257.5 L 70.5 257.5 M 66.5 248.5 L 70.5 248.5 M 66.5 239.5 L 70.5 239.5 M 66.5 231.5 L 70.5 231.5 M 66.5 222.5 L 70.5 222.5 M 66.5 213.5 L 70.5 213.5 M 66.5 204.5 L 70.5 204.5 M 66.5 196.5 L 70.5 196.5 M 66.5 187.5 L 70.5 187.5 M 66.5 178.5 L 70.5 178.5 M 66.5 169.5 L 70.5 169.5 M 66.5 161.5 L 70.5 161.5 M 66.5 152.5 L 70.5 152.5 M 66.5 143.5 L 70.5 143.5 M 66.5 134.5 L 70.5 134.5 M 66.5 126.5 L 70.5 126.5 M 66.5 117.5 L 70.5 117.5 M 66.5 108.5 L 70.5 108.5 M 66.5 99.5 L 70.5 99.5 M 66.5 91.5 L 70.5 91.5 M 66.5 82.5 L 70.5 82.5 M 66.5 73.5 L 70.5 73.5 M 66.5 64.5 L 70.5 64.5 M 66.5 56.5 L 70.5 56.5 M 66.5 47.5 L 70.5 47.5 M 66.5 38.5 L 70.5 38.5" stroke-linejoin="bevel" stroke-miterlimit="10"/><text fill="#444444" stroke="none" font-family="helvetica" font-size="10pt" font-style="normal" font-weight="normal" text-decoration="normal" x="52.31666660308838" y="288" text-anchor="start" dominant-baseline="alphabetic" transform="matrix(1, 0, 0, 1, 0.5, 0.5)">0</text><text fill="none" stroke="rgb(0,0,0)" font-family="helvetica" font-size="10pt" font-style="normal" font-weight="normal" text-decoration="normal" x="52.31666660308838" y="288" text-anchor="start" dominant-baseline="alphabetic" transform="matrix(1, 0, 0, 1, 0.5, 0.5)" stroke-opacity="0" stroke-linejoin="bevel" stroke-miterlimit="10">0</text><text fill="#444444" stroke="none" font-family="helvetica" font-size="10pt" font-style="normal" font-weight="normal" text-decoration="normal" x="45.63333320617676" y="244.293701171875" text-anchor="start" dominant-baseline="alphabetic" transform="matrix(1, 0, 0, 1, 0.5, 0.5)">20</text><text fill="none" stroke="rgb(0,0,0)" font-family="helvetica" font-size="10pt" font-style="normal" font-weight="normal" text-decoration="normal" x="45.63333320617676" y="244.293701171875" text-anchor="start" dominant-baseline="alphabetic" transform="matrix(1, 0, 0, 1, 0.5, 0.5)" stroke-opacity="0" stroke-linejoin="bevel" stroke-miterlimit="10">20</text><text fill="#444444" stroke="none" font-family="helvetica" font-size="10pt" font-style="normal" font-weight="normal" text-decoration="normal" x="45.63333320617676" y="200.58741760253906" text-anchor="start" dominant-baseline="alphabetic" transform="matrix(1, 0, 0, 1, 0.5, 0.5)">40</text><text fill="none" stroke="rgb(0,0,0)" font-family="helvetica" font-size="10pt" font-style="normal" font-weight="normal" text-decoration="normal" x="45.63333320617676" y="200.58741760253906" text-anchor="start" dominant-baseline="alphabetic" transform="matrix(1, 0, 0, 1, 0.5, 0.5)" stroke-opacity="0" stroke-linejoin="bevel" stroke-miterlimit="10">40</text><text fill="#444444" stroke="none" font-family="helvetica" font-size="10pt" font-style="normal" font-weight="normal" text-decoration="normal" x="45.63333320617676" y="156.88111877441406" text-anchor="start" dominant-baseline="alphabetic" transform="matrix(1, 0, 0, 1, 0.5, 0.5)">60</text><text fill="none" stroke="rgb(0,0,0)" font-family="helvetica" font-size="10pt" font-style="normal" font-weight="normal" text-decoration="normal" x="45.63333320617676" y="156.88111877441406" text-anchor="start" dominant-baseline="alphabetic" transform="matrix(1, 0, 0, 1, 0.5, 0.5)" stroke-opacity="0" stroke-linejoin="bevel" stroke-miterlimit="10">60</text><text fill="#444444" stroke="none" font-family="helvetica" font-size="10pt" font-style="normal" font-weight="normal" text-decoration="normal" x="45.63333320617676" y="113.1748275756836" text-anchor="start" dominant-baseline="alphabetic" transform="matrix(1, 0, 0, 1, 0.5, 0.5)">80</text><text fill="none" stroke="rgb(0,0,0)" font-family="helvetica" font-size="10pt" font-style="normal" font-weight="normal" text-decoration="normal" x="45.63333320617676" y="113.1748275756836" text-anchor="start" dominant-baseline="alphabetic" transform="matrix(1, 0, 0, 1, 0.5, 0.5)" stroke-opacity="0" stroke-linejoin="bevel" stroke-miterlimit="10">80</text><text fill="#444444" stroke="none" font-family="helvetica" font-size="10pt" font-style="normal" font-weight="normal" text-decoration="normal" x="38.95000076293945" y="69.4685287475586" text-anchor="start" dominant-baseline="alphabetic" transform="matrix(1, 0, 0, 1, 0.5, 0.5)">100</text><text fill="none" stroke="rgb(0,0,0)" font-family="helvetica" font-size="10pt" font-style="normal" font-weight="normal" text-decoration="normal" x="38.95000076293945" y="69.4685287475586" text-anchor="start" dominant-baseline="alphabetic" transform="matrix(1, 0, 0, 1, 0.5, 0.5)" stroke-opacity="0" stroke-linejoin="bevel" stroke-miterlimit="10">100</text><text fill="#444444" stroke="none" font-family="helvetica" font-size="12pt" font-style="normal" font-weight="normal" text-decoration="normal" x="-65.25833511352539" y="154" text-anchor="start" dominant-baseline="alphabetic" transform="matrix(6.123233995736766e-17, -1, 1, 6.123233995736766e-17, -126.54999923706055, 189.45000076293945)">Days suitable for transmission</text><text fill="none" stroke="rgb(0,0,0)" font-family="helvetica" font-size="12pt" font-style="normal" font-weight="normal" text-decoration="normal" x="-65.25833511352539" y="154" text-anchor="start" dominant-baseline="alphabetic" transform="matrix(6.123233995736766e-17, -1, 1, 6.123233995736766e-17, -126.54999923706055, 189.45000076293945)" stroke-opacity="0" stroke-linejoin="bevel" stroke-miterlimit="10">Days suitable for transmission</text><path fill="rgb(255,255,255)" stroke="rgb(229,229,229)" paint-order="fill" d="M 477.0333251953125 208.5 L 560.4999847412109 208.5 L 560.4999847412109 273.5 L 477.0333251953125 273.5 L 477.0333251953125 208.5 Z" fill-opacity="0.9490196078431372" clip-path="url(#iTNVfzwUvDoN)" stroke-opacity="0.5019607843137255" stroke-linejoin="bevel" stroke-miterlimit="10"/><g clip-path="url(#iTNVfzwUvDoN)"><g transform="matrix(1, 0, 0, 1, 487.5333251953125, 219)"><path fill="none" stroke="#30a2da" paint-order="fill" d="M 0.5 10.5 L 20.5 10.5" stroke-linejoin="bevel" stroke-miterlimit="10" stroke-width="2"/></g></g><g clip-path="url(#iTNVfzwUvDoN)"><text fill="#444444" stroke="none" font-family="helvetica" font-size="13px" font-style="normal" font-weight="normal" text-decoration="normal" x="512.5333251953125" y="233.5" text-anchor="start" dominant-baseline="alphabetic" transform="matrix(1, 0, 0, 1, 0.5, 0.5)">ID 001</text></g><g clip-path="url(#iTNVfzwUvDoN)"><text fill="none" stroke="rgb(0,0,0)" font-family="helvetica" font-size="13px" font-style="normal" font-weight="normal" text-decoration="normal" x="512.5333251953125" y="233.5" text-anchor="start" dominant-baseline="alphabetic" transform="matrix(1, 0, 0, 1, 0.5, 0.5)" stroke-opacity="0" stroke-linejoin="bevel" stroke-miterlimit="10">ID 001</text></g><g clip-path="url(#iTNVfzwUvDoN)"><g transform="matrix(1, 0, 0, 1, 487.5333251953125, 242)"><path fill="none" stroke="#fc4f30" paint-order="fill" d="M 0.5 10.5 L 20.5 10.5" stroke-linejoin="bevel" stroke-miterlimit="10" stroke-width="2"/></g></g><g clip-path="url(#iTNVfzwUvDoN)"><text fill="#444444" stroke="none" font-family="helvetica" font-size="13px" font-style="normal" font-weight="normal" text-decoration="normal" x="512.5333251953125" y="256.5" text-anchor="start" dominant-baseline="alphabetic" transform="matrix(1, 0, 0, 1, 0.5, 0.5)">ID 006</text></g><g clip-path="url(#iTNVfzwUvDoN)"><text fill="none" stroke="rgb(0,0,0)" font-family="helvetica" font-size="13px" font-style="normal" font-weight="normal" text-decoration="normal" x="512.5333251953125" y="256.5" text-anchor="start" dominant-baseline="alphabetic" transform="matrix(1, 0, 0, 1, 0.5, 0.5)" stroke-opacity="0" stroke-linejoin="bevel" stroke-miterlimit="10">ID 006</text></g><text fill="black" stroke="none" font-family="helvetica" font-size="14pt" font-style="normal" font-weight="normal" text-decoration="normal" x="0" y="18" text-anchor="start" dominant-baseline="alphabetic" transform="matrix(1, 0, 0, 1, 5.5, 5.5)">B. Seattle</text><text fill="none" stroke="rgb(0,0,0)" font-family="helvetica" font-size="14pt" font-style="normal" font-weight="normal" text-decoration="normal" x="0" y="18" text-anchor="start" dominant-baseline="alphabetic" transform="matrix(1, 0, 0, 1, 5.5, 5.5)" stroke-opacity="0" stroke-linejoin="bevel" stroke-miterlimit="10">B. Seattle</text></svg>