<svg version="1.1" xmlns="http://www.w3.org/2000/svg" width="600" height="329"><defs><clipPath id="tFxepTDdOWRQ"><path fill="none" stroke="none" d="M 70.5 30.5 L 570.5 30.5 L 570.5 280.5 L 70.5 280.5 L 70.5 30.5 Z"/></clipPath><clipPath id="upzKqpXMMdkb"><path fill="none" stroke="none" d="M 70.5 30.5 L 570.5 30.5 L 570.5 280.5 L 70.5 280.5 L 70.5 30.5 Z"/></clipPath><clipPath id="TrXruMAnAqZo"><path fill="none" stroke="none" d="M 70.5 30.5 L 570.5 30.5 L 570.5 280.5 L 70.5 280.5 L 70.5 30.5 Z"/></clipPath><clipPath id="IJKboyoJADUn"><path fill="none" stroke="none" d="M 70.5 30.5 L 570.5 30.5 L 570.5 280.5 L 70.5 280.5 L 70.5 30.5 Z"/></clipPath><clipPath id="DtfVwTcVWpeF"><path fill="none" stroke="none" d="M 70.5 30.5 L 570.5 30.5 L 570.5 280.5 L 70.5 280.5 L 70.5 30.5 Z"/></clipPath><clipPath id="PmBhVQEbgVxl"><path fill="none" stroke="none" d="M 70.5 30.5 L 570.5 30.5 L 570.5 280.5 L 70.5 280.5 L 70.5 30.5 Z"/></clipPath><clipPath id="FQGnQwfGKCiB"><path fill="none" stroke="none" d="M 70.5 30.5 L 570.5 30.5 L 570.5 280.5 L 70.5 280.5 L 70.5 30.5 Z"/></clipPath><clipPath id="zFxnrmnwUahv"><path fill="none" stroke="none" d="M 70.5 30.5 L 570.5 30.5 L 570.5 280.5 L 70.5 280.5 L 70.5 30.5 Z"/></clipPath><clipPath id="rkDuAlLwHCrl"><path fill="none" stroke="none" d="M 70.5 30.5 L 570.5 30.5 L 570.5 280.5 L 70.5 280.5 L 70.5 30.5 Z"/></clipPath><clipPath id="rChPTUTNtwpH"><path fill="none" stroke="none" d="M 70.5 30.5 L 570.5 30.5 L 570.5 280.5 L 70.5 280.5 L 70.5 30.5 Z"/></clipPath><clipPath id="yOzqqMBheGrh"><path fill="none" stroke="none" d="M 70.5 30.5 L 570.5 30.5 L 570.5 280.5 L 70.5 280.5 L 70.5 30.5 Z"/></clipPath><clipPath id="cNlgogvxcXdA"><path fill="none" stroke="none" d="M 70.5 30.5 L 570.5 30.5 L 570.5 280.5 L 70.5 280.5 L 70.5 30.5 Z"/></clipPath><clipPath id="ytZQIMfZUVRt"><path fill="none" stroke="none" d="M 70.5 30.5 L 570.5 30.5 L 570.5 280.5 L 70.5 280.5 L 70.5 30.5 Z"/></clipPath><clipPath id="SyWgTtCEuhWa"><path fill="none" stroke="none" d="M 70.5 30.5 L 570.5 30.5 L 570.5 280.5 L 70.5 280.5 L 70.5 30.5 Z"/></clipPath><clipPath id="WlFxJgtTsDpF"><path fill="none" stroke="none" d="M 70.5 30.5 L 570.5 30.5 L 570.5 280.5 L 70.5 280.5 L 70.5 30.5 Z"/></clipPath><clipPath id="cAsXQeqTINDn"><path fill="none" stroke="none" d="M 70.5 30.5 L 570.5 30.5 L 570.5 280.5 L 70.5 280.5 L 70.5 30.5 Z"/></clipPath><clipPath id="RyVdtpJoaXfm"><path fill="none" stroke="none" d="M 70.5 30.5 L 570.5 30.5 L 570.5 280.5 L 70.5 280.5 L 70.5 30.5 Z"/></clipPath><clipPath id="fMCrvOrSUyfh"><path fill="none" stroke="none" d="M 70.5 30.5 L 570.5 30.5 L 570.5 280.5 L 70.5 280.5 L 70.5 30.5 Z"/></clipPath><clipPath id="eJOuJOsZhENz"><path fill="none" stroke="none" d="M 70.5 30.5 L 570.5 30.5 L 570.5 280.5 L 70.5 280.5 L 70.5 30.5 Z"/></clipPath><clipPath id="BzrVdDTHrTLd"><path fill="none" stroke="none" d="M 70.5 30.5 L 570.5 30.5 L 570.5 280.5 L 70.5 280.5 L 70.5 30.5 Z"/></clipPath><clipPath id="gUQiXIcRpmoX"><path fill="none" stroke="none" d="M 70.5 30.5 L 570.5 30.5 L 570.5 280.5 L 70.5 280.5 L 70.5 30.5 Z"/></clipPath><clipPath id="iplCMdKxGHCD"><path fill="none" stroke="none" d="M 70.5 30.5 L 570.5 30.5 L 570.5 280.5 L 70.5 280.5 L 70.5 30.5 Z"/></clipPath><clipPath id="fFVrOqVnkqdT"><path fill="none" stroke="none" d="M 70.5 30.5 L 570.5 30.5 L 570.5 280.5 L 70.5 280.5 L 70.5 30.5 Z"/></clipPath></defs><path fill="none" stroke="#e5e5e5" paint-order="fill" d="M 70.5 30.5 L 570.5 30.5 L 570.5 280.5 L 70.5 280.5 L 70.5 30.5 Z" stroke-linejoin="bevel" stroke-miterlimit="10"/><path fill="none" stroke="black" paint-order="fill" d="M 332.46172248803487 30.5 L 332.46172248803487 280.5" stroke-linejoin="bevel" stroke-miterlimit="10" stroke-width="3" stroke-dasharray="6" clip-path="url(#TrXruMAnAqZo)"/><path fill="none" stroke="#9467bd" paint-order="fill" d="M 93.2272720336914 86.85436248779297 L 117.15071868896484 81.05658721923828 L 141.07415771484375 90.33302307128906 L 164.9976043701172 88.013916015625 L 188.92105102539062 88.013916015625 L 212.84449768066406 84.53524780273438 L 236.7679443359375 78.73748016357422 L 260.6913757324219 86.85436248779297 L 284.6148376464844 67.14192962646484 L 308.53826904296875 69.4610366821289" stroke-linejoin="bevel" stroke-miterlimit="10" stroke-width="2" clip-path="url(#IJKboyoJADUn)"/><path fill="none" stroke="#9467bd" paint-order="fill" d="M 93.2272720336914 86.85436248779297 L 117.15071868896484 81.05658721923828 L 141.07415771484375 90.33302307128906 L 164.9976043701172 88.013916015625 L 188.92105102539062 88.013916015625 L 212.84449768066406 84.53524780273438 L 236.7679443359375 78.73748016357422 L 260.6913757324219 86.85436248779297 L 284.6148376464844 67.14192962646484 L 308.53826904296875 69.4610366821289" stroke-linejoin="bevel" stroke-miterlimit="10" stroke-width="2" stroke-dasharray="6" clip-path="url(#DtfVwTcVWpeF)"/><path fill="none" stroke="#30a2da" paint-order="fill" d="M 308.53826904296875 69.4610366821289 L 332.46173095703125 67.14192962646484 L 356.3851623535156 70.62059020996094 L 380.3086242675781 64.82282257080078 L 404.2320556640625 69.4610366821289 L 428.155517578125 79.89703369140625 L 452.0789489746094 86.85436248779297 L 476.00238037109375 79.89703369140625 L 499.92584228515625 63.663265228271484 L 523.8493041992188 85.69480895996094 L 547.772705078125 91.4925765991211" stroke-linejoin="bevel" stroke-miterlimit="10" stroke-width="2" clip-path="url(#PmBhVQEbgVxl)"/><path fill="none" stroke="#30a2da" paint-order="fill" d="M 332.46173095703125 66.21428680419922 L 356.3851623535156 68.3787841796875 L 380.3086242675781 70.54328918457031 L 404.2320556640625 72.70779418945312 L 428.155517578125 74.8722915649414 L 452.0789489746094 77.03679656982422 L 476.00238037109375 79.20130157470703 L 499.92584228515625 81.36579895019531 L 523.8493041992188 83.53030395507812 L 547.772705078125 85.69480895996094" stroke-linejoin="bevel" stroke-miterlimit="10" stroke-width="2" stroke-dasharray="6" clip-path="url(#FQGnQwfGKCiB)"/><path fill="none" stroke="#fc4f30" paint-order="fill" d="M 308.53826904296875 69.4610366821289 L 332.46173095703125 90.33302307128906 L 356.3851623535156 96.13079833984375 L 380.3086242675781 85.69480895996094 L 404.2320556640625 75.2588119506836 L 428.155517578125 64.82282257080078 L 452.0789489746094 78.73748016357422 L 476.00238037109375 72.93970489501953 L 499.92584228515625 79.89703369140625 L 523.8493041992188 98.44990539550781 L 547.772705078125 90.33302307128906" stroke-linejoin="bevel" stroke-miterlimit="10" stroke-width="2" clip-path="url(#zFxnrmnwUahv)"/><path fill="none" stroke="#fc4f30" paint-order="fill" d="M 332.46173095703125 83.41786193847656 L 356.3851623535156 83.38272094726562 L 380.3086242675781 83.34758758544922 L 404.2320556640625 83.31244659423828 L 428.155517578125 83.27730560302734 L 452.0789489746094 83.24217224121094 L 476.00238037109375 83.20703125 L 499.92584228515625 83.1718978881836 L 523.8493041992188 83.13675689697266 L 547.772705078125 83.10161590576172" stroke-linejoin="bevel" stroke-miterlimit="10" stroke-width="2" stroke-dasharray="6" clip-path="url(#rkDuAlLwHCrl)"/><path fill="none" stroke="rgb(128,128,128)" paint-order="fill" d="M 93.2272720336914 79.89703369140625 L 117.15071868896484 91.4925765991211 L 141.07415771484375 83.37569427490234 L 164.9976043701172 76.41836547851562 L 188.92105102539062 96.13079833984375 L 212.84449768066406 74.09925842285156 L 236.7679443359375 82.21614074707031 L 260.6913757324219 74.09925842285156 L 284.6148376464844 93.81169128417969 L 308.53826904296875 93.81169128417969" stroke-opacity="0.7490196078431373" stroke-linejoin="bevel" stroke-miterlimit="10" clip-path="url(#rChPTUTNtwpH)"/><path fill="none" stroke="grey" paint-order="fill" d="M 308.53826904296875 93.81169128417969 L 332.46173095703125 82.21614074707031 L 356.3851623535156 79.89703369140625 L 380.3086242675781 74.09925842285156 L 404.2320556640625 71.7801513671875 L 428.155517578125 86.85436248779297 L 452.0789489746094 76.41836547851562 L 476.00238037109375 86.85436248779297 L 499.92584228515625 68.30148315429688 L 523.8493041992188 75.2588119506836 L 547.772705078125 70.62059020996094" stroke-linejoin="bevel" stroke-miterlimit="10" stroke-width="0.5" clip-path="url(#yOzqqMBheGrh)"/><path fill="none" stroke="grey" paint-order="fill" d="M 308.53826904296875 93.81169128417969 L 332.46173095703125 60.184600830078125 L 356.3851623535156 63.663265228271484 L 380.3086242675781 76.41836547851562 L 404.2320556640625 68.30148315429688 L 428.155517578125 69.4610366821289 L 452.0789489746094 65.98237609863281 L 476.00238037109375 65.98237609863281 L 499.92584228515625 65.98237609863281 L 523.8493041992188 75.2588119506836 L 547.772705078125 76.41836547851562" stroke-linejoin="bevel" stroke-miterlimit="10" stroke-width="0.5" clip-path="url(#cNlgogvxcXdA)"/><path fill="none" stroke="rgb(128,128,128)" paint-order="fill" d="M 93.2272720336914 70.62059020996094 L 117.15071868896484 70.62059020996094 L 141.07415771484375 69.4610366821289 L 164.9976043701172 77.57791900634766 L 188.92105102539062 69.4610366821289 L 212.84449768066406 77.57791900634766 L 236.7679443359375 67.14192962646484 L 260.6913757324219 56.705936431884766 L 284.6148376464844 64.82282257080078 L 308.53826904296875 79.89703369140625" stroke-opacity="0.7490196078431373" stroke-linejoin="bevel" stroke-miterlimit="10" clip-path="url(#ytZQIMfZUVRt)"/><path fill="none" stroke="grey" paint-order="fill" d="M 308.53826904296875 79.89703369140625 L 332.46173095703125 74.09925842285156 L 356.3851623535156 75.2588119506836 L 380.3086242675781 86.85436248779297 L 404.2320556640625 77.57791900634766 L 428.155517578125 82.21614074707031 L 452.0789489746094 82.21614074707031 L 476.00238037109375 83.37569427490234 L 499.92584228515625 78.73748016357422 L 523.8493041992188 74.09925842285156 L 547.772705078125 92.65213012695312" stroke-linejoin="bevel" stroke-miterlimit="10" stroke-width="0.5" clip-path="url(#SyWgTtCEuhWa)"/><path fill="none" stroke="grey" paint-order="fill" d="M 308.53826904296875 79.89703369140625 L 332.46173095703125 72.93970489501953 L 356.3851623535156 76.41836547851562 L 380.3086242675781 91.4925765991211 L 404.2320556640625 71.7801513671875 L 428.155517578125 89.17346954345703 L 452.0789489746094 77.57791900634766 L 476.00238037109375 86.85436248779297 L 499.92584228515625 69.4610366821289 L 523.8493041992188 78.73748016357422 L 547.772705078125 83.37569427490234" stroke-linejoin="bevel" stroke-miterlimit="10" stroke-width="0.5" clip-path="url(#WlFxJgtTsDpF)"/><path fill="none" stroke="rgb(128,128,128)" paint-order="fill" d="M 93.2272720336914 57.8654899597168 L 117.15071868896484 76.41836547851562 L 141.07415771484375 59.025047302246094 L 164.9976043701172 75.2588119506836 L 188.92105102539062 78.73748016357422 L 212.84449768066406 71.7801513671875 L 236.7679443359375 71.7801513671875 L 260.6913757324219 75.2588119506836 L 284.6148376464844 76.41836547851562 L 308.53826904296875 70.62059020996094" stroke-opacity="0.7490196078431373" stroke-linejoin="bevel" stroke-miterlimit="10" clip-path="url(#cAsXQeqTINDn)"/><path fill="none" stroke="grey" paint-order="fill" d="M 308.53826904296875 70.62059020996094 L 332.46173095703125 77.57791900634766 L 356.3851623535156 83.37569427490234 L 380.3086242675781 88.013916015625 L 404.2320556640625 77.57791900634766 L 428.155517578125 72.93970489501953 L 452.0789489746094 72.93970489501953 L 476.00238037109375 70.62059020996094 L 499.92584228515625 69.4610366821289 L 523.8493041992188 69.4610366821289 L 547.772705078125 71.7801513671875" stroke-linejoin="bevel" stroke-miterlimit="10" stroke-width="0.5" clip-path="url(#RyVdtpJoaXfm)"/><path fill="none" stroke="grey" paint-order="fill" d="M 308.53826904296875 70.62059020996094 L 332.46173095703125 84.53524780273438 L 356.3851623535156 64.82282257080078 L 380.3086242675781 69.4610366821289 L 404.2320556640625 83.37569427490234 L 428.155517578125 81.05658721923828 L 452.0789489746094 79.89703369140625 L 476.00238037109375 85.69480895996094 L 499.92584228515625 78.73748016357422 L 523.8493041992188 79.89703369140625 L 547.772705078125 76.41836547851562" stroke-linejoin="bevel" stroke-miterlimit="10" stroke-width="0.5" clip-path="url(#fMCrvOrSUyfh)"/><path fill="none" stroke="rgb(128,128,128)" paint-order="fill" d="M 93.2272720336914 78.73748016357422 L 117.15071868896484 79.89703369140625 L 141.07415771484375 64.82282257080078 L 164.9976043701172 76.41836547851562 L 188.92105102539062 71.7801513671875 L 212.84449768066406 79.89703369140625 L 236.7679443359375 71.7801513671875 L 260.6913757324219 83.37569427490234 L 284.6148376464844 64.82282257080078 L 308.53826904296875 72.93970489501953" stroke-opacity="0.7490196078431373" stroke-linejoin="bevel" stroke-miterlimit="10" clip-path="url(#eJOuJOsZhENz)"/><path fill="none" stroke="grey" paint-order="fill" d="M 308.53826904296875 72.93970489501953 L 332.46173095703125 78.73748016357422 L 356.3851623535156 83.37569427490234 L 380.3086242675781 78.73748016357422 L 404.2320556640625 77.57791900634766 L 428.155517578125 83.37569427490234 L 452.0789489746094 72.93970489501953 L 476.00238037109375 53.227272033691406 L 499.92584228515625 70.62059020996094 L 523.8493041992188 85.69480895996094 L 547.772705078125 82.21614074707031" stroke-linejoin="bevel" stroke-miterlimit="10" stroke-width="0.5" clip-path="url(#BzrVdDTHrTLd)"/><path fill="none" stroke="grey" paint-order="fill" d="M 308.53826904296875 72.93970489501953 L 332.46173095703125 62.50371170043945 L 356.3851623535156 84.53524780273438 L 380.3086242675781 70.62059020996094 L 404.2320556640625 59.025047302246094 L 428.155517578125 81.05658721923828 L 452.0789489746094 88.013916015625 L 476.00238037109375 78.73748016357422 L 499.92584228515625 81.05658721923828 L 523.8493041992188 65.98237609863281 L 547.772705078125 86.85436248779297" stroke-linejoin="bevel" stroke-miterlimit="10" stroke-width="0.5" clip-path="url(#gUQiXIcRpmoX)"/><path fill="none" stroke="black" paint-order="fill" d="M 70.5 280.5 L 570.5 280.5" stroke-linejoin="bevel" stroke-miterlimit="10"/><path fill="none" stroke="black" paint-order="fill" d="M 93.5 286.5 L 93.5 278.5 M 212.5 286.5 L 212.5 278.5 M 332.5 286.5 L 332.5 278.5 M 452.5 286.5 L 452.5 278.5" stroke-linejoin="bevel" stroke-miterlimit="10"/><path fill="none" stroke="black" paint-order="fill" d="M 93.5 284.5 L 93.5 280.5 M 117.5 284.5 L 117.5 280.5 M 141.5 284.5 L 141.5 280.5 M 164.5 284.5 L 164.5 280.5 M 188.5 284.5 L 188.5 280.5 M 212.5 284.5 L 212.5 280.5 M 236.5 284.5 L 236.5 280.5 M 260.5 284.5 L 260.5 280.5 M 284.5 284.5 L 284.5 280.5 M 308.5 284.5 L 308.5 280.5 M 332.5 284.5 L 332.5 280.5 M 356.5 284.5 L 356.5 280.5 M 380.5 284.5 L 380.5 280.5 M 404.5 284.5 L 404.5 280.5 M 428.5 284.5 L 428.5 280.5 M 452.5 284.5 L 452.5 280.5 M 476.5 284.5 L 476.5 280.5 M 499.5 284.5 L 499.5 280.5 M 523.5 284.5 L 523.5 280.5 M 547.5 284.5 L 547.5 280.5" stroke-linejoin="bevel" stroke-miterlimit="10"/><text fill="#444444" stroke="none" font-family="helvetica" font-size="10pt" font-style="normal" font-weight="normal" text-decoration="normal" x="77.82727241516113" y="300.59368896484375" text-anchor="start" dominant-baseline="alphabetic" transform="matrix(1, 0, 0, 1, 0.5, 0.5)">2025</text><text fill="none" stroke="rgb(0,0,0)" font-family="helvetica" font-size="10pt" font-style="normal" font-weight="normal" text-decoration="normal" x="77.82727241516113" y="300.59368896484375" text-anchor="start" dominant-baseline="alphabetic" transform="matrix(1, 0, 0, 1, 0.5, 0.5)" stroke-opacity="0" stroke-linejoin="bevel" stroke-miterlimit="10">2025</text><text fill="#444444" stroke="none" font-family="helvetica" font-size="10pt" font-style="normal" font-weight="normal" text-decoration="normal" x="197.4444980621338" y="300.59368896484375" text-anchor="start" dominant-baseline="alphabetic" transform="matrix(1, 0, 0, 1, 0.5, 0.5)">2030</text><text fill="none" stroke="rgb(0,0,0)" font-family="helvetica" font-size="10pt" font-style="normal" font-weight="normal" text-decoration="normal" x="197.4444980621338" y="300.59368896484375" text-anchor="start" dominant-baseline="alphabetic" transform="matrix(1, 0, 0, 1, 0.5, 0.5)" stroke-opacity="0" stroke-linejoin="bevel" stroke-miterlimit="10">2030</text><text fill="#444444" stroke="none" font-family="helvetica" font-size="10pt" font-style="normal" font-weight="normal" text-decoration="normal" x="317.061731338501" y="300.59368896484375" text-anchor="start" dominant-baseline="alphabetic" transform="matrix(1, 0, 0, 1, 0.5, 0.5)">2035</text><text fill="none" stroke="rgb(0,0,0)" font-family="helvetica" font-size="10pt" font-style="normal" font-weight="normal" text-decoration="normal" x="317.061731338501" y="300.59368896484375" text-anchor="start" dominant-baseline="alphabetic" transform="matrix(1, 0, 0, 1, 0.5, 0.5)" stroke-opacity="0" stroke-linejoin="bevel" stroke-miterlimit="10">2035</text><text fill="#444444" stroke="none" font-family="helvetica" font-size="10pt" font-style="normal" font-weight="normal" text-decoration="normal" x="436.6789493560791" y="300.59368896484375" text-anchor="start" dominant-baseline="alphabetic" transform="matrix(1, 0, 0, 1, 0.5, 0.5)">2040</text><text fill="none" stroke="rgb(0,0,0)" font-family="helvetica" font-size="10pt" font-style="normal" font-weight="normal" text-decoration="normal" x="436.6789493560791" y="300.59368896484375" text-anchor="start" dominant-baseline="alphabetic" transform="matrix(1, 0, 0, 1, 0.5, 0.5)" stroke-opacity="0" stroke-linejoin="bevel" stroke-miterlimit="10">2040</text><text fill="#444444" stroke="none" font-family="helvetica" font-size="12pt" font-style="normal" font-weight="normal" text-decoration="normal" x="303.8333339691162" y="321.59368896484375" text-anchor="start" dominant-baseline="alphabetic" transform="matrix(1, 0, 0, 1, 0.5, 0.5)">Year</text><text fill="none" stroke="rgb(0,0,0)" font-family="helvetica" font-size="12pt" font-style="normal" font-weight="normal" text-decoration="normal" x="303.8333339691162" y="321.59368896484375" text-anchor="start" dominant-baseline="alphabetic" transform="matrix(1, 0, 0, 1, 0.5, 0.5)" stroke-opacity="0" stroke-linejoin="bevel" stroke-miterlimit="10">Year</text><path fill="none" stroke="black" paint-order="fill" d="M 70.5 280.5 L 70.5 30.5" stroke-linejoin="bevel" stroke-miterlimit="10"/><path fill="none" stroke="black" paint-order="fill" d="M 64.5 280.5 L 72.5 280.5 M 64.5 222.5 L 72.5 222.5 M 64.5 164.5 L 72.5 164.5 M 64.5 106.5 L 72.5 106.5 M 64.5 48.5 L 72.5 48.5" stroke-linejoin="bevel" stroke-miterlimit="10"/><path fill="none" stroke="black" paint-order="fill" d="M 66.5 280.5 L 70.5 280.5 M 66.5 268.5 L 70.5 268.5 M 66.5 257.5 L 70.5 257.5 M 66.5 245.5 L 70.5 245.5 M 66.5 234.5 L 70.5 234.5 M 66.5 222.5 L 70.5 222.5 M 66.5 210.5 L 70.5 210.5 M 66.5 199.5 L 70.5 199.5 M 66.5 187.5 L 70.5 187.5 M 66.5 176.5 L 70.5 176.5 M 66.5 164.5 L 70.5 164.5 M 66.5 152.5 L 70.5 152.5 M 66.5 141.5 L 70.5 141.5 M 66.5 129.5 L 70.5 129.5 M 66.5 118.5 L 70.5 118.5 M 66.5 106.5 L 70.5 106.5 M 66.5 94.5 L 70.5 94.5 M 66.5 83.5 L 70.5 83.5 M 66.5 71.5 L 70.5 71.5 M 66.5 60.5 L 70.5 60.5 M 66.5 48.5 L 70.5 48.5 M 66.5 36.5 L 70.5 36.5" stroke-linejoin="bevel" stroke-miterlimit="10"/><text fill="#444444" stroke="none" font-family="helvetica" font-size="10pt" font-style="normal" font-weight="normal" text-decoration="normal" x="51.55000019073486" y="284.7968444824219" text-anchor="start" dominant-baseline="alphabetic" transform="matrix(1, 0, 0, 1, 0.5, 0.5)">0</text><text fill="none" stroke="rgb(0,0,0)" font-family="helvetica" font-size="10pt" font-style="normal" font-weight="normal" text-decoration="normal" x="51.55000019073486" y="284.7968444824219" text-anchor="start" dominant-baseline="alphabetic" transform="matrix(1, 0, 0, 1, 0.5, 0.5)" stroke-opacity="0" stroke-linejoin="bevel" stroke-miterlimit="10">0</text><text fill="#444444" stroke="none" font-family="helvetica" font-size="10pt" font-style="normal" font-weight="normal" text-decoration="normal" x="44.10000038146973" y="226.81910705566406" text-anchor="start" dominant-baseline="alphabetic" transform="matrix(1, 0, 0, 1, 0.5, 0.5)">50</text><text fill="none" stroke="rgb(0,0,0)" font-family="helvetica" font-size="10pt" font-style="normal" font-weight="normal" text-decoration="normal" x="44.10000038146973" y="226.81910705566406" text-anchor="start" dominant-baseline="alphabetic" transform="matrix(1, 0, 0, 1, 0.5, 0.5)" stroke-opacity="0" stroke-linejoin="bevel" stroke-miterlimit="10">50</text><text fill="#444444" stroke="none" font-family="helvetica" font-size="10pt" font-style="normal" font-weight="normal" text-decoration="normal" x="36.64999961853027" y="168.84136962890625" text-anchor="start" dominant-baseline="alphabetic" transform="matrix(1, 0, 0, 1, 0.5, 0.5)">100</text><text fill="none" stroke="rgb(0,0,0)" font-family="helvetica" font-size="10pt" font-style="normal" font-weight="normal" text-decoration="normal" x="36.64999961853027" y="168.84136962890625" text-anchor="start" dominant-baseline="alphabetic" transform="matrix(1, 0, 0, 1, 0.5, 0.5)" stroke-opacity="0" stroke-linejoin="bevel" stroke-miterlimit="10">100</text><text fill="#444444" stroke="none" font-family="helvetica" font-size="10pt" font-style="normal" font-weight="normal" text-decoration="normal" x="36.64999961853027" y="110.86363220214844" text-anchor="start" dominant-baseline="alphabetic" transform="matrix(1, 0, 0, 1, 0.5, 0.5)">150</text><text fill="none" stroke="rgb(0,0,0)" font-family="helvetica" font-size="10pt" font-style="normal" font-weight="normal" text-decoration="normal" x="36.64999961853027" y="110.86363220214844" text-anchor="start" dominant-baseline="alphabetic" transform="matrix(1, 0, 0, 1, 0.5, 0.5)" stroke-opacity="0" stroke-linejoin="bevel" stroke-miterlimit="10">150</text><text fill="#444444" stroke="none" font-family="helvetica" font-size="10pt" font-style="normal" font-weight="normal" text-decoration="normal" x="36.64999961853027" y="52.88589859008789" text-anchor="start" dominant-baseline="alphabetic" transform="matrix(1, 0, 0, 1, 0.5, 0.5)">200</text><text fill="none" stroke="rgb(0,0,0)" font-family="helvetica" font-size="10pt" font-style="normal" font-weight="normal" text-decoration="normal" x="36.64999961853027" y="52.88589859008789" text-anchor="start" dominant-baseline="alphabetic" transform="matrix(1, 0, 0, 1, 0.5, 0.5)" stroke-opacity="0" stroke-linejoin="bevel" stroke-miterlimit="10">200</text><text fill="#444444" stroke="none" font-family="helvetica" font-size="12pt" font-style="normal" font-weight="normal" text-decoration="normal" x="-78.07499885559082" y="151" text-anchor="start" dominant-baseline="alphabetic" transform="matrix(6.123233995736766e-17, -1, 1, 6.123233995736766e-17, -125.85000038146973, 184.14999961853027)">Days suitable for transmission</text><text fill="none" stroke="rgb(0,0,0)" font-family="helvetica" font-size="12pt" font-style="normal" font-weight="normal" text-decoration="normal" x="-78.07499885559082" y="151" text-anchor="start" dominant-baseline="alphabetic" transform="matrix(6.123233995736766e-17, -1, 1, 6.123233995736766e-17, -125.85000038146973, 184.14999961853027)" stroke-opacity="0" stroke-linejoin="bevel" stroke-miterlimit="10">Days suitable for transmission</text><path fill="rgb(255,255,255)" stroke="rgb(229,229,229)" paint-order="fill" d="M 475.183349609375 205.5 L 560.5000152587891 205.5 L 560.5000152587891 270.5 L 475.183349609375 270.5 L 475.183349609375 205.5 Z" fill-opacity="0.9490196078431372" clip-path="url(#iplCMdKxGHCD)" stroke-opacity="0.5019607843137255" stroke-linejoin="bevel" stroke-miterlimit="10"/><g clip-path="url(#iplCMdKxGHCD)"><g transform="matrix(1, 0, 0, 1, 485.683349609375, 216)"><path fill="none" stroke="#30a2da" paint-order="fill" d="M 0.5 10.5 L 20.5 10.5" stroke-linejoin="bevel" stroke-miterlimit="10" stroke-width="2"/></g></g><g clip-path="url(#iplCMdKxGHCD)"><text fill="#444444" stroke="none" font-family="helvetica" font-size="13px" font-style="normal" font-weight="normal" text-decoration="normal" x="510.683349609375" y="230" text-anchor="start" dominant-baseline="alphabetic" transform="matrix(1, 0, 0, 1, 0.5, 0.5)">ID 001</text></g><g clip-path="url(#iplCMdKxGHCD)"><text fill="none" stroke="rgb(0,0,0)" font-family="helvetica" font-size="13px" font-style="normal" font-weight="normal" text-decoration="normal" x="510.683349609375" y="230" text-anchor="start" dominant-baseline="alphabetic" transform="matrix(1, 0, 0, 1, 0.5, 0.5)" stroke-opacity="0" stroke-linejoin="bevel" stroke-miterlimit="10">ID 001</text></g><g clip-path="url(#iplCMdKxGHCD)"><g transform="matrix(1, 0, 0, 1, 485.683349609375, 239)"><path fill="none" stroke="#fc4f30" paint-order="fill" d="M 0.5 10.5 L 20.5 10.5" stroke-linejoin="bevel" stroke-miterlimit="10" stroke-width="2"/></g></g><g clip-path="url(#iplCMdKxGHCD)"><text fill="#444444" stroke="none" font-family="helvetica" font-size="13px" font-style="normal" font-weight="normal" text-decoration="normal" x="510.683349609375" y="253" text-anchor="start" dominant-baseline="alphabetic" transform="matrix(1, 0, 0, 1, 0.5, 0.5)">ID 006</text></g><g clip-path="url(#iplCMdKxGHCD)"><text fill="none" stroke="rgb(0,0,0)" font-family="helvetica" font-size="13px" font-style="normal" font-weight="normal" text-decoration="normal" x="510.683349609375" y="253" text-anchor="start" dominant-baseline="alphabetic" transform="matrix(1, 0, 0, 1, 0.5, 0.5)" stroke-opacity="0" stroke-linejoin="bevel" stroke-miterlimit="10">ID 006</text></g><text fill="black" stroke="none" font-family="helvetica" font-size="14pt" font-style="normal" font-weight="normal" text-decoration="normal" x="0" y="15" text-anchor="start" dominant-baseline="alphabetic" transform="matrix(1, 0, 0, 1, 5.5, 5.5)">F. Tokyo</text><text fill="none" stroke="rgb(0,0,0)" font-family="helvetica" font-size="14pt" font-style="normal" font-weight="normal" text-decoration="normal" x="0" y="15" text-anchor="start" dominant-baseline="alphabetic" transform="matrix(1, 0, 0, 1, 5.5, 5.5)" stroke-opacity="0" stroke-linejoin="bevel" stroke-miterlimit="10">F. Tokyo</text></svg>