<svg version="1.1" xmlns="http://www.w3.org/2000/svg" width="600" height="334"><defs><clipPath id="EmOBlSqWqVPT"><path fill="none" stroke="none" d="M 70.5 33.5 L 570.5 33.5 L 570.5 283.5 L 70.5 283.5 L 70.5 33.5 Z"/></clipPath><clipPath id="FTbvGQQeRaXP"><path fill="none" stroke="none" d="M 70.5 33.5 L 570.5 33.5 L 570.5 283.5 L 70.5 283.5 L 70.5 33.5 Z"/></clipPath><clipPath id="TfyJHMZFAmSI"><path fill="none" stroke="none" d="M 70.5 33.5 L 570.5 33.5 L 570.5 283.5 L 70.5 283.5 L 70.5 33.5 Z"/></clipPath><clipPath id="mtADroVqbQPr"><path fill="none" stroke="none" d="M 70.5 33.5 L 570.5 33.5 L 570.5 283.5 L 70.5 283.5 L 70.5 33.5 Z"/></clipPath><clipPath id="GhseENsmBmDo"><path fill="none" stroke="none" d="M 70.5 33.5 L 570.5 33.5 L 570.5 283.5 L 70.5 283.5 L 70.5 33.5 Z"/></clipPath><clipPath id="pmaOlvPqWFDi"><path fill="none" stroke="none" d="M 70.5 33.5 L 570.5 33.5 L 570.5 283.5 L 70.5 283.5 L 70.5 33.5 Z"/></clipPath><clipPath id="tffduOQmHUXS"><path fill="none" stroke="none" d="M 70.5 33.5 L 570.5 33.5 L 570.5 283.5 L 70.5 283.5 L 70.5 33.5 Z"/></clipPath><clipPath id="EHgUylFkTAAX"><path fill="none" stroke="none" d="M 70.5 33.5 L 570.5 33.5 L 570.5 283.5 L 70.5 283.5 L 70.5 33.5 Z"/></clipPath><clipPath id="CyAhxtliRsXe"><path fill="none" stroke="none" d="M 70.5 33.5 L 570.5 33.5 L 570.5 283.5 L 70.5 283.5 L 70.5 33.5 Z"/></clipPath><clipPath id="QEUlzrZrkKbl"><path fill="none" stroke="none" d="M 70.5 33.5 L 570.5 33.5 L 570.5 283.5 L 70.5 283.5 L 70.5 33.5 Z"/></clipPath><clipPath id="OEAdDwWODIkX"><path fill="none" stroke="none" d="M 70.5 33.5 L 570.5 33.5 L 570.5 283.5 L 70.5 283.5 L 70.5 33.5 Z"/></clipPath><clipPath id="ozsBJViyTocG"><path fill="none" stroke="none" d="M 70.5 33.5 L 570.5 33.5 L 570.5 283.5 L 70.5 283.5 L 70.5 33.5 Z"/></clipPath><clipPath id="rPrWSSqIGCPO"><path fill="none" stroke="none" d="M 70.5 33.5 L 570.5 33.5 L 570.5 283.5 L 70.5 283.5 L 70.5 33.5 Z"/></clipPath><clipPath id="VmaRCTdnZeQT"><path fill="none" stroke="none" d="M 70.5 33.5 L 570.5 33.5 L 570.5 283.5 L 70.5 283.5 L 70.5 33.5 Z"/></clipPath><clipPath id="BwxiJoZhJTog"><path fill="none" stroke="none" d="M 70.5 33.5 L 570.5 33.5 L 570.5 283.5 L 70.5 283.5 L 70.5 33.5 Z"/></clipPath><clipPath id="LbiZEimyPLVf"><path fill="none" stroke="none" d="M 70.5 33.5 L 570.5 33.5 L 570.5 283.5 L 70.5 283.5 L 70.5 33.5 Z"/></clipPath><clipPath id="oxTrTcqJwtDk"><path fill="none" stroke="none" d="M 70.5 33.5 L 570.5 33.5 L 570.5 283.5 L 70.5 283.5 L 70.5 33.5 Z"/></clipPath><clipPath id="UsKebwyfpToo"><path fill="none" stroke="none" d="M 70.5 33.5 L 570.5 33.5 L 570.5 283.5 L 70.5 283.5 L 70.5 33.5 Z"/></clipPath><clipPath id="fsvlwZIsgiHk"><path fill="none" stroke="none" d="M 70.5 33.5 L 570.5 33.5 L 570.5 283.5 L 70.5 283.5 L 70.5 33.5 Z"/></clipPath><clipPath id="CnTVkPZcTuRT"><path fill="none" stroke="none" d="M 70.5 33.5 L 570.5 33.5 L 570.5 283.5 L 70.5 283.5 L 70.5 33.5 Z"/></clipPath><clipPath id="mAwsHPUGKQHr"><path fill="none" stroke="none" d="M 70.5 33.5 L 570.5 33.5 L 570.5 283.5 L 70.5 283.5 L 70.5 33.5 Z"/></clipPath><clipPath id="xlfsAXSTFJuc"><path fill="none" stroke="none" d="M 70.5 33.5 L 570.5 33.5 L 570.5 283.5 L 70.5 283.5 L 70.5 33.5 Z"/></clipPath><clipPath id="pFwXtlSDzHTx"><path fill="none" stroke="none" d="M 70.5 33.5 L 570.5 33.5 L 570.5 283.5 L 70.5 283.5 L 70.5 33.5 Z"/></clipPath></defs><path fill="none" stroke="#e5e5e5" paint-order="fill" d="M 70.5 33.5 L 570.5 33.5 L 570.5 283.5 L 70.5 283.5 L 70.5 33.5 Z" stroke-linejoin="bevel" stroke-miterlimit="10"/><path fill="none" stroke="black" paint-order="fill" d="M 332.46172248803487 33.5 L 332.46172248803487 283.5" stroke-linejoin="bevel" stroke-miterlimit="10" stroke-width="3" stroke-dasharray="6" clip-path="url(#TfyJHMZFAmSI)"/><path fill="none" stroke="#9467bd" paint-order="fill" d="M 93.2272720336914 89.85436248779297 L 117.15071868896484 84.05658721923828 L 141.07415771484375 93.33302307128906 L 164.9976043701172 91.013916015625 L 188.92105102539062 91.013916015625 L 212.84449768066406 87.53524780273438 L 236.7679443359375 81.73748016357422 L 260.6913757324219 89.85436248779297 L 284.6148376464844 70.14192962646484 L 308.53826904296875 72.4610366821289" stroke-linejoin="bevel" stroke-miterlimit="10" stroke-width="2" clip-path="url(#mtADroVqbQPr)"/><path fill="none" stroke="#9467bd" paint-order="fill" d="M 93.2272720336914 89.85436248779297 L 117.15071868896484 84.05658721923828 L 141.07415771484375 93.33302307128906 L 164.9976043701172 91.013916015625 L 188.92105102539062 91.013916015625 L 212.84449768066406 87.53524780273438 L 236.7679443359375 81.73748016357422 L 260.6913757324219 89.85436248779297 L 284.6148376464844 70.14192962646484 L 308.53826904296875 72.4610366821289" stroke-linejoin="bevel" stroke-miterlimit="10" stroke-width="2" stroke-dasharray="6" clip-path="url(#GhseENsmBmDo)"/><path fill="none" stroke="#30a2da" paint-order="fill" d="M 308.53826904296875 72.4610366821289 L 332.46173095703125 70.14192962646484 L 356.3851623535156 73.62059020996094 L 380.3086242675781 67.82282257080078 L 404.2320556640625 72.4610366821289 L 428.155517578125 82.89703369140625 L 452.0789489746094 89.85436248779297 L 476.00238037109375 82.89703369140625 L 499.92584228515625 66.66326904296875 L 523.8493041992188 88.69480895996094 L 547.772705078125 94.4925765991211" stroke-linejoin="bevel" stroke-miterlimit="10" stroke-width="2" clip-path="url(#pmaOlvPqWFDi)"/><path fill="none" stroke="#30a2da" paint-order="fill" d="M 332.46173095703125 69.21428680419922 L 356.3851623535156 71.3787841796875 L 380.3086242675781 73.54328918457031 L 404.2320556640625 75.70779418945312 L 428.155517578125 77.8722915649414 L 452.0789489746094 80.03679656982422 L 476.00238037109375 82.20130157470703 L 499.92584228515625 84.36579895019531 L 523.8493041992188 86.53030395507812 L 547.772705078125 88.69480895996094" stroke-linejoin="bevel" stroke-miterlimit="10" stroke-width="2" stroke-dasharray="6" clip-path="url(#tffduOQmHUXS)"/><path fill="none" stroke="#fc4f30" paint-order="fill" d="M 308.53826904296875 72.4610366821289 L 332.46173095703125 93.33302307128906 L 356.3851623535156 99.13079833984375 L 380.3086242675781 88.69480895996094 L 404.2320556640625 78.2588119506836 L 428.155517578125 67.82282257080078 L 452.0789489746094 81.73748016357422 L 476.00238037109375 75.93970489501953 L 499.92584228515625 82.89703369140625 L 523.8493041992188 101.44990539550781 L 547.772705078125 93.33302307128906" stroke-linejoin="bevel" stroke-miterlimit="10" stroke-width="2" clip-path="url(#EHgUylFkTAAX)"/><path fill="none" stroke="#fc4f30" paint-order="fill" d="M 332.46173095703125 86.41786193847656 L 356.3851623535156 86.38272094726562 L 380.3086242675781 86.34758758544922 L 404.2320556640625 86.31244659423828 L 428.155517578125 86.27730560302734 L 452.0789489746094 86.24217224121094 L 476.00238037109375 86.20703125 L 499.92584228515625 86.1718978881836 L 523.8493041992188 86.13675689697266 L 547.772705078125 86.10161590576172" stroke-linejoin="bevel" stroke-miterlimit="10" stroke-width="2" stroke-dasharray="6" clip-path="url(#CyAhxtliRsXe)"/><path fill="none" stroke="rgb(128,128,128)" paint-order="fill" d="M 93.2272720336914 82.89703369140625 L 117.15071868896484 94.4925765991211 L 141.07415771484375 86.37569427490234 L 164.9976043701172 79.41836547851562 L 188.92105102539062 99.13079833984375 L 212.84449768066406 77.09925842285156 L 236.7679443359375 85.21614074707031 L 260.6913757324219 77.09925842285156 L 284.6148376464844 96.81169128417969 L 308.53826904296875 96.81169128417969" stroke-opacity="0.7490196078431373" stroke-linejoin="bevel" stroke-miterlimit="10" clip-path="url(#QEUlzrZrkKbl)"/><path fill="none" stroke="grey" paint-order="fill" d="M 308.53826904296875 96.81169128417969 L 332.46173095703125 85.21614074707031 L 356.3851623535156 82.89703369140625 L 380.3086242675781 77.09925842285156 L 404.2320556640625 74.7801513671875 L 428.155517578125 89.85436248779297 L 452.0789489746094 79.41836547851562 L 476.00238037109375 89.85436248779297 L 499.92584228515625 71.30148315429688 L 523.8493041992188 78.2588119506836 L 547.772705078125 73.62059020996094" stroke-linejoin="bevel" stroke-miterlimit="10" stroke-width="0.5" clip-path="url(#OEAdDwWODIkX)"/><path fill="none" stroke="grey" paint-order="fill" d="M 308.53826904296875 96.81169128417969 L 332.46173095703125 63.184600830078125 L 356.3851623535156 66.66326904296875 L 380.3086242675781 79.41836547851562 L 404.2320556640625 71.30148315429688 L 428.155517578125 72.4610366821289 L 452.0789489746094 68.98237609863281 L 476.00238037109375 68.98237609863281 L 499.92584228515625 68.98237609863281 L 523.8493041992188 78.2588119506836 L 547.772705078125 79.41836547851562" stroke-linejoin="bevel" stroke-miterlimit="10" stroke-width="0.5" clip-path="url(#ozsBJViyTocG)"/><path fill="none" stroke="rgb(128,128,128)" paint-order="fill" d="M 93.2272720336914 73.62059020996094 L 117.15071868896484 73.62059020996094 L 141.07415771484375 72.4610366821289 L 164.9976043701172 80.57791900634766 L 188.92105102539062 72.4610366821289 L 212.84449768066406 80.57791900634766 L 236.7679443359375 70.14192962646484 L 260.6913757324219 59.705936431884766 L 284.6148376464844 67.82282257080078 L 308.53826904296875 82.89703369140625" stroke-opacity="0.7490196078431373" stroke-linejoin="bevel" stroke-miterlimit="10" clip-path="url(#rPrWSSqIGCPO)"/><path fill="none" stroke="grey" paint-order="fill" d="M 308.53826904296875 82.89703369140625 L 332.46173095703125 77.09925842285156 L 356.3851623535156 78.2588119506836 L 380.3086242675781 89.85436248779297 L 404.2320556640625 80.57791900634766 L 428.155517578125 85.21614074707031 L 452.0789489746094 85.21614074707031 L 476.00238037109375 86.37569427490234 L 499.92584228515625 81.73748016357422 L 523.8493041992188 77.09925842285156 L 547.772705078125 95.65213012695312" stroke-linejoin="bevel" stroke-miterlimit="10" stroke-width="0.5" clip-path="url(#VmaRCTdnZeQT)"/><path fill="none" stroke="grey" paint-order="fill" d="M 308.53826904296875 82.89703369140625 L 332.46173095703125 75.93970489501953 L 356.3851623535156 79.41836547851562 L 380.3086242675781 94.4925765991211 L 404.2320556640625 74.7801513671875 L 428.155517578125 92.17346954345703 L 452.0789489746094 80.57791900634766 L 476.00238037109375 89.85436248779297 L 499.92584228515625 72.4610366821289 L 523.8493041992188 81.73748016357422 L 547.772705078125 86.37569427490234" stroke-linejoin="bevel" stroke-miterlimit="10" stroke-width="0.5" clip-path="url(#BwxiJoZhJTog)"/><path fill="none" stroke="rgb(128,128,128)" paint-order="fill" d="M 93.2272720336914 60.8654899597168 L 117.15071868896484 79.41836547851562 L 141.07415771484375 62.025047302246094 L 164.9976043701172 78.2588119506836 L 188.92105102539062 81.73748016357422 L 212.84449768066406 74.7801513671875 L 236.7679443359375 74.7801513671875 L 260.6913757324219 78.2588119506836 L 284.6148376464844 79.41836547851562 L 308.53826904296875 73.62059020996094" stroke-opacity="0.7490196078431373" stroke-linejoin="bevel" stroke-miterlimit="10" clip-path="url(#LbiZEimyPLVf)"/><path fill="none" stroke="grey" paint-order="fill" d="M 308.53826904296875 73.62059020996094 L 332.46173095703125 80.57791900634766 L 356.3851623535156 86.37569427490234 L 380.3086242675781 91.013916015625 L 404.2320556640625 80.57791900634766 L 428.155517578125 75.93970489501953 L 452.0789489746094 75.93970489501953 L 476.00238037109375 73.62059020996094 L 499.92584228515625 72.4610366821289 L 523.8493041992188 72.4610366821289 L 547.772705078125 74.7801513671875" stroke-linejoin="bevel" stroke-miterlimit="10" stroke-width="0.5" clip-path="url(#oxTrTcqJwtDk)"/><path fill="none" stroke="grey" paint-order="fill" d="M 308.53826904296875 73.62059020996094 L 332.46173095703125 87.53524780273438 L 356.3851623535156 67.82282257080078 L 380.3086242675781 72.4610366821289 L 404.2320556640625 86.37569427490234 L 428.155517578125 84.05658721923828 L 452.0789489746094 82.89703369140625 L 476.00238037109375 88.69480895996094 L 499.92584228515625 81.73748016357422 L 523.8493041992188 82.89703369140625 L 547.772705078125 79.41836547851562" stroke-linejoin="bevel" stroke-miterlimit="10" stroke-width="0.5" clip-path="url(#UsKebwyfpToo)"/><path fill="none" stroke="rgb(128,128,128)" paint-order="fill" d="M 93.2272720336914 81.73748016357422 L 117.15071868896484 82.89703369140625 L 141.07415771484375 67.82282257080078 L 164.9976043701172 79.41836547851562 L 188.92105102539062 74.7801513671875 L 212.84449768066406 82.89703369140625 L 236.7679443359375 74.7801513671875 L 260.6913757324219 86.37569427490234 L 284.6148376464844 67.82282257080078 L 308.53826904296875 75.93970489501953" stroke-opacity="0.7490196078431373" stroke-linejoin="bevel" stroke-miterlimit="10" clip-path="url(#fsvlwZIsgiHk)"/><path fill="none" stroke="grey" paint-order="fill" d="M 308.53826904296875 75.93970489501953 L 332.46173095703125 81.73748016357422 L 356.3851623535156 86.37569427490234 L 380.3086242675781 81.73748016357422 L 404.2320556640625 80.57791900634766 L 428.155517578125 86.37569427490234 L 452.0789489746094 75.93970489501953 L 476.00238037109375 56.227272033691406 L 499.92584228515625 73.62059020996094 L 523.8493041992188 88.69480895996094 L 547.772705078125 85.21614074707031" stroke-linejoin="bevel" stroke-miterlimit="10" stroke-width="0.5" clip-path="url(#CnTVkPZcTuRT)"/><path fill="none" stroke="grey" paint-order="fill" d="M 308.53826904296875 75.93970489501953 L 332.46173095703125 65.50370788574219 L 356.3851623535156 87.53524780273438 L 380.3086242675781 73.62059020996094 L 404.2320556640625 62.025047302246094 L 428.155517578125 84.05658721923828 L 452.0789489746094 91.013916015625 L 476.00238037109375 81.73748016357422 L 499.92584228515625 84.05658721923828 L 523.8493041992188 68.98237609863281 L 547.772705078125 89.85436248779297" stroke-linejoin="bevel" stroke-miterlimit="10" stroke-width="0.5" clip-path="url(#mAwsHPUGKQHr)"/><path fill="none" stroke="black" paint-order="fill" d="M 70.5 283.5 L 570.5 283.5" stroke-linejoin="bevel" stroke-miterlimit="10"/><path fill="none" stroke="black" paint-order="fill" d="M 93.5 289.5 L 93.5 281.5 M 212.5 289.5 L 212.5 281.5 M 332.5 289.5 L 332.5 281.5 M 452.5 289.5 L 452.5 281.5" stroke-linejoin="bevel" stroke-miterlimit="10"/><path fill="none" stroke="black" paint-order="fill" d="M 93.5 287.5 L 93.5 283.5 M 117.5 287.5 L 117.5 283.5 M 141.5 287.5 L 141.5 283.5 M 164.5 287.5 L 164.5 283.5 M 188.5 287.5 L 188.5 283.5 M 212.5 287.5 L 212.5 283.5 M 236.5 287.5 L 236.5 283.5 M 260.5 287.5 L 260.5 283.5 M 284.5 287.5 L 284.5 283.5 M 308.5 287.5 L 308.5 283.5 M 332.5 287.5 L 332.5 283.5 M 356.5 287.5 L 356.5 283.5 M 380.5 287.5 L 380.5 283.5 M 404.5 287.5 L 404.5 283.5 M 428.5 287.5 L 428.5 283.5 M 452.5 287.5 L 452.5 283.5 M 476.5 287.5 L 476.5 283.5 M 499.5 287.5 L 499.5 283.5 M 523.5 287.5 L 523.5 283.5 M 547.5 287.5 L 547.5 283.5" stroke-linejoin="bevel" stroke-miterlimit="10"/><text fill="#444444" stroke="none" font-family="helvetica" font-size="10pt" font-style="normal" font-weight="normal" text-decoration="normal" x="79.36060523986816" y="304" text-anchor="start" dominant-baseline="alphabetic" transform="matrix(1, 0, 0, 1, 0.5, 0.5)">2025</text><text fill="none" stroke="rgb(0,0,0)" font-family="helvetica" font-size="10pt" font-style="normal" font-weight="normal" text-decoration="normal" x="79.36060523986816" y="304" text-anchor="start" dominant-baseline="alphabetic" transform="matrix(1, 0, 0, 1, 0.5, 0.5)" stroke-opacity="0" stroke-linejoin="bevel" stroke-miterlimit="10">2025</text><text fill="#444444" stroke="none" font-family="helvetica" font-size="10pt" font-style="normal" font-weight="normal" text-decoration="normal" x="198.97783088684082" y="304" text-anchor="start" dominant-baseline="alphabetic" transform="matrix(1, 0, 0, 1, 0.5, 0.5)">2030</text><text fill="none" stroke="rgb(0,0,0)" font-family="helvetica" font-size="10pt" font-style="normal" font-weight="normal" text-decoration="normal" x="198.97783088684082" y="304" text-anchor="start" dominant-baseline="alphabetic" transform="matrix(1, 0, 0, 1, 0.5, 0.5)" stroke-opacity="0" stroke-linejoin="bevel" stroke-miterlimit="10">2030</text><text fill="#444444" stroke="none" font-family="helvetica" font-size="10pt" font-style="normal" font-weight="normal" text-decoration="normal" x="318.595064163208" y="304" text-anchor="start" dominant-baseline="alphabetic" transform="matrix(1, 0, 0, 1, 0.5, 0.5)">2035</text><text fill="none" stroke="rgb(0,0,0)" font-family="helvetica" font-size="10pt" font-style="normal" font-weight="normal" text-decoration="normal" x="318.595064163208" y="304" text-anchor="start" dominant-baseline="alphabetic" transform="matrix(1, 0, 0, 1, 0.5, 0.5)" stroke-opacity="0" stroke-linejoin="bevel" stroke-miterlimit="10">2035</text><text fill="#444444" stroke="none" font-family="helvetica" font-size="10pt" font-style="normal" font-weight="normal" text-decoration="normal" x="438.21228218078613" y="304" text-anchor="start" dominant-baseline="alphabetic" transform="matrix(1, 0, 0, 1, 0.5, 0.5)">2040</text><text fill="none" stroke="rgb(0,0,0)" font-family="helvetica" font-size="10pt" font-style="normal" font-weight="normal" text-decoration="normal" x="438.21228218078613" y="304" text-anchor="start" dominant-baseline="alphabetic" transform="matrix(1, 0, 0, 1, 0.5, 0.5)" stroke-opacity="0" stroke-linejoin="bevel" stroke-miterlimit="10">2040</text><text fill="#444444" stroke="none" font-family="helvetica" font-size="12pt" font-style="normal" font-weight="normal" text-decoration="normal" x="305.3166666030884" y="327" text-anchor="start" dominant-baseline="alphabetic" transform="matrix(1, 0, 0, 1, 0.5, 0.5)">Year</text><text fill="none" stroke="rgb(0,0,0)" font-family="helvetica" font-size="12pt" font-style="normal" font-weight="normal" text-decoration="normal" x="305.3166666030884" y="327" text-anchor="start" dominant-baseline="alphabetic" transform="matrix(1, 0, 0, 1, 0.5, 0.5)" stroke-opacity="0" stroke-linejoin="bevel" stroke-miterlimit="10">Year</text><path fill="none" stroke="black" paint-order="fill" d="M 70.5 283.5 L 70.5 33.5" stroke-linejoin="bevel" stroke-miterlimit="10"/><path fill="none" stroke="black" paint-order="fill" d="M 64.5 283.5 L 72.5 283.5 M 64.5 225.5 L 72.5 225.5 M 64.5 167.5 L 72.5 167.5 M 64.5 109.5 L 72.5 109.5 M 64.5 51.5 L 72.5 51.5" stroke-linejoin="bevel" stroke-miterlimit="10"/><path fill="none" stroke="black" paint-order="fill" d="M 66.5 283.5 L 70.5 283.5 M 66.5 271.5 L 70.5 271.5 M 66.5 260.5 L 70.5 260.5 M 66.5 248.5 L 70.5 248.5 M 66.5 237.5 L 70.5 237.5 M 66.5 225.5 L 70.5 225.5 M 66.5 213.5 L 70.5 213.5 M 66.5 202.5 L 70.5 202.5 M 66.5 190.5 L 70.5 190.5 M 66.5 179.5 L 70.5 179.5 M 66.5 167.5 L 70.5 167.5 M 66.5 155.5 L 70.5 155.5 M 66.5 144.5 L 70.5 144.5 M 66.5 132.5 L 70.5 132.5 M 66.5 121.5 L 70.5 121.5 M 66.5 109.5 L 70.5 109.5 M 66.5 97.5 L 70.5 97.5 M 66.5 86.5 L 70.5 86.5 M 66.5 74.5 L 70.5 74.5 M 66.5 63.5 L 70.5 63.5 M 66.5 51.5 L 70.5 51.5 M 66.5 39.5 L 70.5 39.5" stroke-linejoin="bevel" stroke-miterlimit="10"/><text fill="#444444" stroke="none" font-family="helvetica" font-size="10pt" font-style="normal" font-weight="normal" text-decoration="normal" x="52.31666660308838" y="288" text-anchor="start" dominant-baseline="alphabetic" transform="matrix(1, 0, 0, 1, 0.5, 0.5)">0</text><text fill="none" stroke="rgb(0,0,0)" font-family="helvetica" font-size="10pt" font-style="normal" font-weight="normal" text-decoration="normal" x="52.31666660308838" y="288" text-anchor="start" dominant-baseline="alphabetic" transform="matrix(1, 0, 0, 1, 0.5, 0.5)" stroke-opacity="0" stroke-linejoin="bevel" stroke-miterlimit="10">0</text><text fill="#444444" stroke="none" font-family="helvetica" font-size="10pt" font-style="normal" font-weight="normal" text-decoration="normal" x="45.63333320617676" y="230.0222625732422" text-anchor="start" dominant-baseline="alphabetic" transform="matrix(1, 0, 0, 1, 0.5, 0.5)">50</text><text fill="none" stroke="rgb(0,0,0)" font-family="helvetica" font-size="10pt" font-style="normal" font-weight="normal" text-decoration="normal" x="45.63333320617676" y="230.0222625732422" text-anchor="start" dominant-baseline="alphabetic" transform="matrix(1, 0, 0, 1, 0.5, 0.5)" stroke-opacity="0" stroke-linejoin="bevel" stroke-miterlimit="10">50</text><text fill="#444444" stroke="none" font-family="helvetica" font-size="10pt" font-style="normal" font-weight="normal" text-decoration="normal" x="38.95000076293945" y="172.04452514648438" text-anchor="start" dominant-baseline="alphabetic" transform="matrix(1, 0, 0, 1, 0.5, 0.5)">100</text><text fill="none" stroke="rgb(0,0,0)" font-family="helvetica" font-size="10pt" font-style="normal" font-weight="normal" text-decoration="normal" x="38.95000076293945" y="172.04452514648438" text-anchor="start" dominant-baseline="alphabetic" transform="matrix(1, 0, 0, 1, 0.5, 0.5)" stroke-opacity="0" stroke-linejoin="bevel" stroke-miterlimit="10">100</text><text fill="#444444" stroke="none" font-family="helvetica" font-size="10pt" font-style="normal" font-weight="normal" text-decoration="normal" x="38.95000076293945" y="114.06678771972656" text-anchor="start" dominant-baseline="alphabetic" transform="matrix(1, 0, 0, 1, 0.5, 0.5)">150</text><text fill="none" stroke="rgb(0,0,0)" font-family="helvetica" font-size="10pt" font-style="normal" font-weight="normal" text-decoration="normal" x="38.95000076293945" y="114.06678771972656" text-anchor="start" dominant-baseline="alphabetic" transform="matrix(1, 0, 0, 1, 0.5, 0.5)" stroke-opacity="0" stroke-linejoin="bevel" stroke-miterlimit="10">150</text><text fill="#444444" stroke="none" font-family="helvetica" font-size="10pt" font-style="normal" font-weight="normal" text-decoration="normal" x="38.95000076293945" y="56.089054107666016" text-anchor="start" dominant-baseline="alphabetic" transform="matrix(1, 0, 0, 1, 0.5, 0.5)">200</text><text fill="none" stroke="rgb(0,0,0)" font-family="helvetica" font-size="10pt" font-style="normal" font-weight="normal" text-decoration="normal" x="38.95000076293945" y="56.089054107666016" text-anchor="start" dominant-baseline="alphabetic" transform="matrix(1, 0, 0, 1, 0.5, 0.5)" stroke-opacity="0" stroke-linejoin="bevel" stroke-miterlimit="10">200</text><text fill="#444444" stroke="none" font-family="helvetica" font-size="12pt" font-style="normal" font-weight="normal" text-decoration="normal" x="-65.25833511352539" y="154" text-anchor="start" dominant-baseline="alphabetic" transform="matrix(6.123233995736766e-17, -1, 1, 6.123233995736766e-17, -126.54999923706055, 189.45000076293945)">Days suitable for transmission</text><text fill="none" stroke="rgb(0,0,0)" font-family="helvetica" font-size="12pt" font-style="normal" font-weight="normal" text-decoration="normal" x="-65.25833511352539" y="154" text-anchor="start" dominant-baseline="alphabetic" transform="matrix(6.123233995736766e-17, -1, 1, 6.123233995736766e-17, -126.54999923706055, 189.45000076293945)" stroke-opacity="0" stroke-linejoin="bevel" stroke-miterlimit="10">Days suitable for transmission</text><path fill="rgb(255,255,255)" stroke="rgb(229,229,229)" paint-order="fill" d="M 477.0333251953125 208.5 L 560.4999847412109 208.5 L 560.4999847412109 273.5 L 477.0333251953125 273.5 L 477.0333251953125 208.5 Z" fill-opacity="0.9490196078431372" clip-path="url(#xlfsAXSTFJuc)" stroke-opacity="0.5019607843137255" stroke-linejoin="bevel" stroke-miterlimit="10"/><g clip-path="url(#xlfsAXSTFJuc)"><g transform="matrix(1, 0, 0, 1, 487.5333251953125, 219)"><path fill="none" stroke="#30a2da" paint-order="fill" d="M 0.5 10.5 L 20.5 10.5" stroke-linejoin="bevel" stroke-miterlimit="10" stroke-width="2"/></g></g><g clip-path="url(#xlfsAXSTFJuc)"><text fill="#444444" stroke="none" font-family="helvetica" font-size="13px" font-style="normal" font-weight="normal" text-decoration="normal" x="512.5333251953125" y="233.5" text-anchor="start" dominant-baseline="alphabetic" transform="matrix(1, 0, 0, 1, 0.5, 0.5)">ID 001</text></g><g clip-path="url(#xlfsAXSTFJuc)"><text fill="none" stroke="rgb(0,0,0)" font-family="helvetica" font-size="13px" font-style="normal" font-weight="normal" text-decoration="normal" x="512.5333251953125" y="233.5" text-anchor="start" dominant-baseline="alphabetic" transform="matrix(1, 0, 0, 1, 0.5, 0.5)" stroke-opacity="0" stroke-linejoin="bevel" stroke-miterlimit="10">ID 001</text></g><g clip-path="url(#xlfsAXSTFJuc)"><g transform="matrix(1, 0, 0, 1, 487.5333251953125, 242)"><path fill="none" stroke="#fc4f30" paint-order="fill" d="M 0.5 10.5 L 20.5 10.5" stroke-linejoin="bevel" stroke-miterlimit="10" stroke-width="2"/></g></g><g clip-path="url(#xlfsAXSTFJuc)"><text fill="#444444" stroke="none" font-family="helvetica" font-size="13px" font-style="normal" font-weight="normal" text-decoration="normal" x="512.5333251953125" y="256.5" text-anchor="start" dominant-baseline="alphabetic" transform="matrix(1, 0, 0, 1, 0.5, 0.5)">ID 006</text></g><g clip-path="url(#xlfsAXSTFJuc)"><text fill="none" stroke="rgb(0,0,0)" font-family="helvetica" font-size="13px" font-style="normal" font-weight="normal" text-decoration="normal" x="512.5333251953125" y="256.5" text-anchor="start" dominant-baseline="alphabetic" transform="matrix(1, 0, 0, 1, 0.5, 0.5)" stroke-opacity="0" stroke-linejoin="bevel" stroke-miterlimit="10">ID 006</text></g><text fill="black" stroke="none" font-family="helvetica" font-size="14pt" font-style="normal" font-weight="normal" text-decoration="normal" x="0" y="18" text-anchor="start" dominant-baseline="alphabetic" transform="matrix(1, 0, 0, 1, 5.5, 5.5)">F. Tokyo</text><text fill="none" stroke="rgb(0,0,0)" font-family="helvetica" font-size="14pt" font-style="normal" font-weight="normal" text-decoration="normal" x="0" y="18" text-anchor="start" dominant-baseline="alphabetic" transform="matrix(1, 0, 0, 1, 5.5, 5.5)" stroke-opacity="0" stroke-linejoin="bevel" stroke-miterlimit="10">F. Tokyo</text></svg>