<svg version="1.1" xmlns="http://www.w3.org/2000/svg" width="600" height="329"><defs><clipPath id="mtFfKuLtcOdh"><path fill="none" stroke="none" d="M 70.5 30.5 L 570.5 30.5 L 570.5 280.5 L 70.5 280.5 L 70.5 30.5 Z"/></clipPath><clipPath id="JaaPthhTqhTB"><path fill="none" stroke="none" d="M 70.5 30.5 L 570.5 30.5 L 570.5 280.5 L 70.5 280.5 L 70.5 30.5 Z"/></clipPath><clipPath id="OOfVSFDmFefr"><path fill="none" stroke="none" d="M 70.5 30.5 L 570.5 30.5 L 570.5 280.5 L 70.5 280.5 L 70.5 30.5 Z"/></clipPath><clipPath id="sELWBVtkSAUy"><path fill="none" stroke="none" d="M 70.5 30.5 L 570.5 30.5 L 570.5 280.5 L 70.5 280.5 L 70.5 30.5 Z"/></clipPath><clipPath id="tbvGrPXOGsxn"><path fill="none" stroke="none" d="M 70.5 30.5 L 570.5 30.5 L 570.5 280.5 L 70.5 280.5 L 70.5 30.5 Z"/></clipPath><clipPath id="oPOZLlQzruEA"><path fill="none" stroke="none" d="M 70.5 30.5 L 570.5 30.5 L 570.5 280.5 L 70.5 280.5 L 70.5 30.5 Z"/></clipPath><clipPath id="PRAMkoTSZThW"><path fill="none" stroke="none" d="M 70.5 30.5 L 570.5 30.5 L 570.5 280.5 L 70.5 280.5 L 70.5 30.5 Z"/></clipPath><clipPath id="wQxqPbMSXTbq"><path fill="none" stroke="none" d="M 70.5 30.5 L 570.5 30.5 L 570.5 280.5 L 70.5 280.5 L 70.5 30.5 Z"/></clipPath><clipPath id="cTKpshMRewTJ"><path fill="none" stroke="none" d="M 70.5 30.5 L 570.5 30.5 L 570.5 280.5 L 70.5 280.5 L 70.5 30.5 Z"/></clipPath><clipPath id="fWgIZEhgDIZc"><path fill="none" stroke="none" d="M 70.5 30.5 L 570.5 30.5 L 570.5 280.5 L 70.5 280.5 L 70.5 30.5 Z"/></clipPath><clipPath id="OVgKuOpLcQpa"><path fill="none" stroke="none" d="M 70.5 30.5 L 570.5 30.5 L 570.5 280.5 L 70.5 280.5 L 70.5 30.5 Z"/></clipPath><clipPath id="REDCbRtFPWeN"><path fill="none" stroke="none" d="M 70.5 30.5 L 570.5 30.5 L 570.5 280.5 L 70.5 280.5 L 70.5 30.5 Z"/></clipPath><clipPath id="aeBfhaPmvAMk"><path fill="none" stroke="none" d="M 70.5 30.5 L 570.5 30.5 L 570.5 280.5 L 70.5 280.5 L 70.5 30.5 Z"/></clipPath><clipPath id="ZOgUAUIgwNwm"><path fill="none" stroke="none" d="M 70.5 30.5 L 570.5 30.5 L 570.5 280.5 L 70.5 280.5 L 70.5 30.5 Z"/></clipPath><clipPath id="boUaIrxzsQxE"><path fill="none" stroke="none" d="M 70.5 30.5 L 570.5 30.5 L 570.5 280.5 L 70.5 280.5 L 70.5 30.5 Z"/></clipPath><clipPath id="BoJMBpNagFHa"><path fill="none" stroke="none" d="M 70.5 30.5 L 570.5 30.5 L 570.5 280.5 L 70.5 280.5 L 70.5 30.5 Z"/></clipPath><clipPath id="TKnrFzCgtgIM"><path fill="none" stroke="none" d="M 70.5 30.5 L 570.5 30.5 L 570.5 280.5 L 70.5 280.5 L 70.5 30.5 Z"/></clipPath><clipPath id="CcRvHAqWsIkc"><path fill="none" stroke="none" d="M 70.5 30.5 L 570.5 30.5 L 570.5 280.5 L 70.5 280.5 L 70.5 30.5 Z"/></clipPath><clipPath id="KNQrSkwfofKi"><path fill="none" stroke="none" d="M 70.5 30.5 L 570.5 30.5 L 570.5 280.5 L 70.5 280.5 L 70.5 30.5 Z"/></clipPath><clipPath id="wUWxxfCTlpgO"><path fill="none" stroke="none" d="M 70.5 30.5 L 570.5 30.5 L 570.5 280.5 L 70.5 280.5 L 70.5 30.5 Z"/></clipPath><clipPath id="oivCSZcqfoAM"><path fill="none" stroke="none" d="M 70.5 30.5 L 570.5 30.5 L 570.5 280.5 L 70.5 280.5 L 70.5 30.5 Z"/></clipPath><clipPath id="uAKNsugTDOuS"><path fill="none" stroke="none" d="M 70.5 30.5 L 570.5 30.5 L 570.5 280.5 L 70.5 280.5 L 70.5 30.5 Z"/></clipPath><clipPath id="XlnJSUvhADkm"><path fill="none" stroke="none" d="M 70.5 30.5 L 570.5 30.5 L 570.5 280.5 L 70.5 280.5 L 70.5 30.5 Z"/></clipPath></defs><path fill="none" stroke="#e5e5e5" paint-order="fill" d="M 70.5 30.5 L 570.5 30.5 L 570.5 280.5 L 70.5 280.5 L 70.5 30.5 Z" stroke-linejoin="bevel" stroke-miterlimit="10"/><path fill="none" stroke="black" paint-order="fill" d="M 332.46172248803487 30.5 L 332.46172248803487 280.5" stroke-linejoin="bevel" stroke-miterlimit="10" stroke-width="3" stroke-dasharray="6" clip-path="url(#OOfVSFDmFefr)"/><path fill="none" stroke="#9467bd" paint-order="fill" d="M 93.2272720336914 111.50233459472656 L 117.15071868896484 87.02680969238281 L 141.07415771484375 110.33683013916016 L 164.9976043701172 77.70279693603516 L 188.92105102539062 98.68181610107422 L 212.84449768066406 123.15734100341797 L 236.7679443359375 104.50932312011719 L 260.6913757324219 125.48834228515625 L 284.6148376464844 119.66084289550781 L 308.53826904296875 77.70279693603516" stroke-linejoin="bevel" stroke-miterlimit="10" stroke-width="2" clip-path="url(#sELWBVtkSAUy)"/><path fill="none" stroke="#9467bd" paint-order="fill" d="M 93.2272720336914 111.50233459472656 L 117.15071868896484 87.02680969238281 L 141.07415771484375 110.33683013916016 L 164.9976043701172 77.70279693603516 L 188.92105102539062 98.68181610107422 L 212.84449768066406 123.15734100341797 L 236.7679443359375 104.50932312011719 L 260.6913757324219 125.48834228515625 L 284.6148376464844 119.66084289550781 L 308.53826904296875 77.70279693603516" stroke-linejoin="bevel" stroke-miterlimit="10" stroke-width="2" stroke-dasharray="6" clip-path="url(#tbvGrPXOGsxn)"/><path fill="none" stroke="#30a2da" paint-order="fill" d="M 308.53826904296875 77.70279693603516 L 332.46173095703125 88.19230651855469 L 356.3851623535156 102.1783218383789 L 380.3086242675781 96.35081481933594 L 404.2320556640625 131.31585693359375 L 428.155517578125 95.18531799316406 L 452.0789489746094 123.15734100341797 L 476.00238037109375 125.48834228515625 L 499.92584228515625 130.1503448486328 L 523.8493041992188 113.83333587646484 L 547.772705078125 94.01981353759766" stroke-linejoin="bevel" stroke-miterlimit="10" stroke-width="2" clip-path="url(#oPOZLlQzruEA)"/><path fill="none" stroke="#30a2da" paint-order="fill" d="M 332.46173095703125 101.43663787841797 L 356.3851623535156 103.33676147460938 L 380.3086242675781 105.23687744140625 L 404.2320556640625 107.13700103759766 L 428.155517578125 109.03711700439453 L 452.0789489746094 110.93724060058594 L 476.00238037109375 112.83735656738281 L 499.92584228515625 114.73748016357422 L 523.8493041992188 116.6375961303711 L 547.772705078125 118.5377197265625" stroke-linejoin="bevel" stroke-miterlimit="10" stroke-width="2" stroke-dasharray="6" clip-path="url(#PRAMkoTSZThW)"/><path fill="none" stroke="#fc4f30" paint-order="fill" d="M 308.53826904296875 77.70279693603516 L 332.46173095703125 78.86830139160156 L 356.3851623535156 101.0128173828125 L 380.3086242675781 54.39277267456055 L 404.2320556640625 61.385780334472656 L 428.155517578125 110.33683013916016 L 452.0789489746094 67.21328735351562 L 476.00238037109375 123.15734100341797 L 499.92584228515625 132.48135375976562 L 523.8493041992188 137.1433563232422 L 547.772705078125 78.86830139160156" stroke-linejoin="bevel" stroke-miterlimit="10" stroke-width="2" clip-path="url(#wQxqPbMSXTbq)"/><path fill="none" stroke="#fc4f30" paint-order="fill" d="M 332.46173095703125 73.06198120117188 L 356.3851623535156 77.8228759765625 L 380.3086242675781 82.58377838134766 L 404.2320556640625 87.34467315673828 L 428.155517578125 92.1055679321289 L 452.0789489746094 96.86646270751953 L 476.00238037109375 101.62735748291016 L 499.92584228515625 106.38825225830078 L 523.8493041992188 111.1491470336914 L 547.772705078125 115.91004180908203" stroke-linejoin="bevel" stroke-miterlimit="10" stroke-width="2" stroke-dasharray="6" clip-path="url(#cTKpshMRewTJ)"/><path fill="none" stroke="rgb(128,128,128)" paint-order="fill" d="M 93.2272720336914 97.51631927490234 L 117.15071868896484 99.84732055664062 L 141.07415771484375 97.51631927490234 L 164.9976043701172 138.30885314941406 L 188.92105102539062 96.35081481933594 L 212.84449768066406 106.84032440185547 L 236.7679443359375 91.68881225585938 L 260.6913757324219 120.82633972167969 L 284.6148376464844 151.12936401367188 L 308.53826904296875 84.69580078125" stroke-opacity="0.7490196078431373" stroke-linejoin="bevel" stroke-miterlimit="10" clip-path="url(#fWgIZEhgDIZc)"/><path fill="none" stroke="grey" paint-order="fill" d="M 308.53826904296875 84.69580078125 L 332.46173095703125 103.34382629394531 L 356.3851623535156 109.17132568359375 L 380.3086242675781 87.02680969238281 L 404.2320556640625 118.4953384399414 L 428.155517578125 138.30885314941406 L 452.0789489746094 110.33683013916016 L 476.00238037109375 105.6748275756836 L 499.92584228515625 128.98484802246094 L 523.8493041992188 118.4953384399414 L 547.772705078125 110.33683013916016" stroke-linejoin="bevel" stroke-miterlimit="10" stroke-width="0.5" clip-path="url(#OVgKuOpLcQpa)"/><path fill="none" stroke="grey" paint-order="fill" d="M 308.53826904296875 84.69580078125 L 332.46173095703125 101.0128173828125 L 356.3851623535156 114.99883270263672 L 380.3086242675781 101.0128173828125 L 404.2320556640625 98.68181610107422 L 428.155517578125 94.01981353759766 L 452.0789489746094 119.66084289550781 L 476.00238037109375 66.04778289794922 L 499.92584228515625 94.01981353759766 L 523.8493041992188 132.48135375976562 L 547.772705078125 155.7913818359375" stroke-linejoin="bevel" stroke-miterlimit="10" stroke-width="0.5" clip-path="url(#REDCbRtFPWeN)"/><path fill="none" stroke="rgb(128,128,128)" paint-order="fill" d="M 93.2272720336914 96.35081481933594 L 117.15071868896484 119.66084289550781 L 141.07415771484375 83.53030395507812 L 164.9976043701172 124.32284545898438 L 188.92105102539062 128.98484802246094 L 212.84449768066406 98.68181610107422 L 236.7679443359375 97.51631927490234 L 260.6913757324219 89.3578109741211 L 284.6148376464844 139.474365234375 L 308.53826904296875 108.00582885742188" stroke-opacity="0.7490196078431373" stroke-linejoin="bevel" stroke-miterlimit="10" clip-path="url(#aeBfhaPmvAMk)"/><path fill="none" stroke="grey" paint-order="fill" d="M 308.53826904296875 108.00582885742188 L 332.46173095703125 111.50233459472656 L 356.3851623535156 84.69580078125 L 380.3086242675781 87.02680969238281 L 404.2320556640625 98.68181610107422 L 428.155517578125 91.68881225585938 L 452.0789489746094 98.68181610107422 L 476.00238037109375 66.04778289794922 L 499.92584228515625 113.83333587646484 L 523.8493041992188 133.6468505859375 L 547.772705078125 131.31585693359375" stroke-linejoin="bevel" stroke-miterlimit="10" stroke-width="0.5" clip-path="url(#ZOgUAUIgwNwm)"/><path fill="none" stroke="grey" paint-order="fill" d="M 308.53826904296875 108.00582885742188 L 332.46173095703125 116.16433715820312 L 356.3851623535156 126.65384674072266 L 380.3086242675781 109.17132568359375 L 404.2320556640625 98.68181610107422 L 428.155517578125 95.18531799316406 L 452.0789489746094 87.02680969238281 L 476.00238037109375 114.99883270263672 L 499.92584228515625 104.50932312011719 L 523.8493041992188 87.02680969238281 L 547.772705078125 133.6468505859375" stroke-linejoin="bevel" stroke-miterlimit="10" stroke-width="0.5" clip-path="url(#boUaIrxzsQxE)"/><path fill="none" stroke="rgb(128,128,128)" paint-order="fill" d="M 93.2272720336914 128.98484802246094 L 117.15071868896484 137.1433563232422 L 141.07415771484375 88.19230651855469 L 164.9976043701172 116.16433715820312 L 188.92105102539062 105.6748275756836 L 212.84449768066406 81.19930267333984 L 236.7679443359375 99.84732055664062 L 260.6913757324219 94.01981353759766 L 284.6148376464844 125.48834228515625 L 308.53826904296875 104.50932312011719" stroke-opacity="0.7490196078431373" stroke-linejoin="bevel" stroke-miterlimit="10" clip-path="url(#BoJMBpNagFHa)"/><path fill="none" stroke="grey" paint-order="fill" d="M 308.53826904296875 104.50932312011719 L 332.46173095703125 104.50932312011719 L 356.3851623535156 96.35081481933594 L 380.3086242675781 118.4953384399414 L 404.2320556640625 113.83333587646484 L 428.155517578125 103.34382629394531 L 452.0789489746094 94.01981353759766 L 476.00238037109375 114.99883270263672 L 499.92584228515625 108.00582885742188 L 523.8493041992188 91.68881225585938 L 547.772705078125 126.65384674072266" stroke-linejoin="bevel" stroke-miterlimit="10" stroke-width="0.5" clip-path="url(#TKnrFzCgtgIM)"/><path fill="none" stroke="grey" paint-order="fill" d="M 308.53826904296875 104.50932312011719 L 332.46173095703125 109.17132568359375 L 356.3851623535156 74.20629119873047 L 380.3086242675781 112.66783142089844 L 404.2320556640625 112.66783142089844 L 428.155517578125 108.00582885742188 L 452.0789489746094 113.83333587646484 L 476.00238037109375 98.68181610107422 L 499.92584228515625 111.50233459472656 L 523.8493041992188 102.1783218383789 L 547.772705078125 106.84032440185547" stroke-linejoin="bevel" stroke-miterlimit="10" stroke-width="0.5" clip-path="url(#CcRvHAqWsIkc)"/><path fill="none" stroke="rgb(128,128,128)" paint-order="fill" d="M 93.2272720336914 114.99883270263672 L 117.15071868896484 123.15734100341797 L 141.07415771484375 161.61888122558594 L 164.9976043701172 110.33683013916016 L 188.92105102539062 95.18531799316406 L 212.84449768066406 131.31585693359375 L 236.7679443359375 111.50233459472656 L 260.6913757324219 108.00582885742188 L 284.6148376464844 145.30186462402344 L 308.53826904296875 101.0128173828125" stroke-opacity="0.7490196078431373" stroke-linejoin="bevel" stroke-miterlimit="10" clip-path="url(#KNQrSkwfofKi)"/><path fill="none" stroke="grey" paint-order="fill" d="M 308.53826904296875 101.0128173828125 L 332.46173095703125 53.227272033691406 L 356.3851623535156 114.99883270263672 L 380.3086242675781 99.84732055664062 L 404.2320556640625 55.55827331542969 L 428.155517578125 124.32284545898438 L 452.0789489746094 131.31585693359375 L 476.00238037109375 90.52330780029297 L 499.92584228515625 98.68181610107422 L 523.8493041992188 108.00582885742188 L 547.772705078125 78.86830139160156" stroke-linejoin="bevel" stroke-miterlimit="10" stroke-width="0.5" clip-path="url(#wUWxxfCTlpgO)"/><path fill="none" stroke="grey" paint-order="fill" d="M 308.53826904296875 101.0128173828125 L 332.46173095703125 62.5512809753418 L 356.3851623535156 89.3578109741211 L 380.3086242675781 108.00582885742188 L 404.2320556640625 105.6748275756836 L 428.155517578125 95.18531799316406 L 452.0789489746094 116.16433715820312 L 476.00238037109375 118.4953384399414 L 499.92584228515625 118.4953384399414 L 523.8493041992188 105.6748275756836 L 547.772705078125 111.50233459472656" stroke-linejoin="bevel" stroke-miterlimit="10" stroke-width="0.5" clip-path="url(#oivCSZcqfoAM)"/><path fill="none" stroke="black" paint-order="fill" d="M 70.5 280.5 L 570.5 280.5" stroke-linejoin="bevel" stroke-miterlimit="10"/><path fill="none" stroke="black" paint-order="fill" d="M 93.5 286.5 L 93.5 278.5 M 212.5 286.5 L 212.5 278.5 M 332.5 286.5 L 332.5 278.5 M 452.5 286.5 L 452.5 278.5" stroke-linejoin="bevel" stroke-miterlimit="10"/><path fill="none" stroke="black" paint-order="fill" d="M 93.5 284.5 L 93.5 280.5 M 117.5 284.5 L 117.5 280.5 M 141.5 284.5 L 141.5 280.5 M 164.5 284.5 L 164.5 280.5 M 188.5 284.5 L 188.5 280.5 M 212.5 284.5 L 212.5 280.5 M 236.5 284.5 L 236.5 280.5 M 260.5 284.5 L 260.5 280.5 M 284.5 284.5 L 284.5 280.5 M 308.5 284.5 L 308.5 280.5 M 332.5 284.5 L 332.5 280.5 M 356.5 284.5 L 356.5 280.5 M 380.5 284.5 L 380.5 280.5 M 404.5 284.5 L 404.5 280.5 M 428.5 284.5 L 428.5 280.5 M 452.5 284.5 L 452.5 280.5 M 476.5 284.5 L 476.5 280.5 M 499.5 284.5 L 499.5 280.5 M 523.5 284.5 L 523.5 280.5 M 547.5 284.5 L 547.5 280.5" stroke-linejoin="bevel" stroke-miterlimit="10"/><text fill="#444444" stroke="none" font-family="helvetica" font-size="10pt" font-style="normal" font-weight="normal" text-decoration="normal" x="77.82727241516113" y="300.59368896484375" text-anchor="start" dominant-baseline="alphabetic" transform="matrix(1, 0, 0, 1, 0.5, 0.5)">2025</text><text fill="none" stroke="rgb(0,0,0)" font-family="helvetica" font-size="10pt" font-style="normal" font-weight="normal" text-decoration="normal" x="77.82727241516113" y="300.59368896484375" text-anchor="start" dominant-baseline="alphabetic" transform="matrix(1, 0, 0, 1, 0.5, 0.5)" stroke-opacity="0" stroke-linejoin="bevel" stroke-miterlimit="10">2025</text><text fill="#444444" stroke="none" font-family="helvetica" font-size="10pt" font-style="normal" font-weight="normal" text-decoration="normal" x="197.4444980621338" y="300.59368896484375" text-anchor="start" dominant-baseline="alphabetic" transform="matrix(1, 0, 0, 1, 0.5, 0.5)">2030</text><text fill="none" stroke="rgb(0,0,0)" font-family="helvetica" font-size="10pt" font-style="normal" font-weight="normal" text-decoration="normal" x="197.4444980621338" y="300.59368896484375" text-anchor="start" dominant-baseline="alphabetic" transform="matrix(1, 0, 0, 1, 0.5, 0.5)" stroke-opacity="0" stroke-linejoin="bevel" stroke-miterlimit="10">2030</text><text fill="#444444" stroke="none" font-family="helvetica" font-size="10pt" font-style="normal" font-weight="normal" text-decoration="normal" x="317.061731338501" y="300.59368896484375" text-anchor="start" dominant-baseline="alphabetic" transform="matrix(1, 0, 0, 1, 0.5, 0.5)">2035</text><text fill="none" stroke="rgb(0,0,0)" font-family="helvetica" font-size="10pt" font-style="normal" font-weight="normal" text-decoration="normal" x="317.061731338501" y="300.59368896484375" text-anchor="start" dominant-baseline="alphabetic" transform="matrix(1, 0, 0, 1, 0.5, 0.5)" stroke-opacity="0" stroke-linejoin="bevel" stroke-miterlimit="10">2035</text><text fill="#444444" stroke="none" font-family="helvetica" font-size="10pt" font-style="normal" font-weight="normal" text-decoration="normal" x="436.6789493560791" y="300.59368896484375" text-anchor="start" dominant-baseline="alphabetic" transform="matrix(1, 0, 0, 1, 0.5, 0.5)">2040</text><text fill="none" stroke="rgb(0,0,0)" font-family="helvetica" font-size="10pt" font-style="normal" font-weight="normal" text-decoration="normal" x="436.6789493560791" y="300.59368896484375" text-anchor="start" dominant-baseline="alphabetic" transform="matrix(1, 0, 0, 1, 0.5, 0.5)" stroke-opacity="0" stroke-linejoin="bevel" stroke-miterlimit="10">2040</text><text fill="#444444" stroke="none" font-family="helvetica" font-size="12pt" font-style="normal" font-weight="normal" text-decoration="normal" x="303.8333339691162" y="321.59368896484375" text-anchor="start" dominant-baseline="alphabetic" transform="matrix(1, 0, 0, 1, 0.5, 0.5)">Year</text><text fill="none" stroke="rgb(0,0,0)" font-family="helvetica" font-size="12pt" font-style="normal" font-weight="normal" text-decoration="normal" x="303.8333339691162" y="321.59368896484375" text-anchor="start" dominant-baseline="alphabetic" transform="matrix(1, 0, 0, 1, 0.5, 0.5)" stroke-opacity="0" stroke-linejoin="bevel" stroke-miterlimit="10">Year</text><path fill="none" stroke="black" paint-order="fill" d="M 70.5 280.5 L 70.5 30.5" stroke-linejoin="bevel" stroke-miterlimit="10"/><path fill="none" stroke="black" paint-order="fill" d="M 64.5 280.5 L 72.5 280.5 M 64.5 222.5 L 72.5 222.5 M 64.5 163.5 L 72.5 163.5 M 64.5 105.5 L 72.5 105.5 M 64.5 47.5 L 72.5 47.5" stroke-linejoin="bevel" stroke-miterlimit="10"/><path fill="none" stroke="black" paint-order="fill" d="M 66.5 280.5 L 70.5 280.5 M 66.5 268.5 L 70.5 268.5 M 66.5 257.5 L 70.5 257.5 M 66.5 245.5 L 70.5 245.5 M 66.5 233.5 L 70.5 233.5 M 66.5 222.5 L 70.5 222.5 M 66.5 210.5 L 70.5 210.5 M 66.5 198.5 L 70.5 198.5 M 66.5 187.5 L 70.5 187.5 M 66.5 175.5 L 70.5 175.5 M 66.5 163.5 L 70.5 163.5 M 66.5 152.5 L 70.5 152.5 M 66.5 140.5 L 70.5 140.5 M 66.5 128.5 L 70.5 128.5 M 66.5 117.5 L 70.5 117.5 M 66.5 105.5 L 70.5 105.5 M 66.5 94.5 L 70.5 94.5 M 66.5 82.5 L 70.5 82.5 M 66.5 70.5 L 70.5 70.5 M 66.5 59.5 L 70.5 59.5 M 66.5 47.5 L 70.5 47.5 M 66.5 35.5 L 70.5 35.5" stroke-linejoin="bevel" stroke-miterlimit="10"/><text fill="#444444" stroke="none" font-family="helvetica" font-size="10pt" font-style="normal" font-weight="normal" text-decoration="normal" x="51.55000019073486" y="284.7968444824219" text-anchor="start" dominant-baseline="alphabetic" transform="matrix(1, 0, 0, 1, 0.5, 0.5)">0</text><text fill="none" stroke="rgb(0,0,0)" font-family="helvetica" font-size="10pt" font-style="normal" font-weight="normal" text-decoration="normal" x="51.55000019073486" y="284.7968444824219" text-anchor="start" dominant-baseline="alphabetic" transform="matrix(1, 0, 0, 1, 0.5, 0.5)" stroke-opacity="0" stroke-linejoin="bevel" stroke-miterlimit="10">0</text><text fill="#444444" stroke="none" font-family="helvetica" font-size="10pt" font-style="normal" font-weight="normal" text-decoration="normal" x="44.10000038146973" y="226.52178955078125" text-anchor="start" dominant-baseline="alphabetic" transform="matrix(1, 0, 0, 1, 0.5, 0.5)">50</text><text fill="none" stroke="rgb(0,0,0)" font-family="helvetica" font-size="10pt" font-style="normal" font-weight="normal" text-decoration="normal" x="44.10000038146973" y="226.52178955078125" text-anchor="start" dominant-baseline="alphabetic" transform="matrix(1, 0, 0, 1, 0.5, 0.5)" stroke-opacity="0" stroke-linejoin="bevel" stroke-miterlimit="10">50</text><text fill="#444444" stroke="none" font-family="helvetica" font-size="10pt" font-style="normal" font-weight="normal" text-decoration="normal" x="36.64999961853027" y="168.24673461914062" text-anchor="start" dominant-baseline="alphabetic" transform="matrix(1, 0, 0, 1, 0.5, 0.5)">100</text><text fill="none" stroke="rgb(0,0,0)" font-family="helvetica" font-size="10pt" font-style="normal" font-weight="normal" text-decoration="normal" x="36.64999961853027" y="168.24673461914062" text-anchor="start" dominant-baseline="alphabetic" transform="matrix(1, 0, 0, 1, 0.5, 0.5)" stroke-opacity="0" stroke-linejoin="bevel" stroke-miterlimit="10">100</text><text fill="#444444" stroke="none" font-family="helvetica" font-size="10pt" font-style="normal" font-weight="normal" text-decoration="normal" x="36.64999961853027" y="109.97167205810547" text-anchor="start" dominant-baseline="alphabetic" transform="matrix(1, 0, 0, 1, 0.5, 0.5)">150</text><text fill="none" stroke="rgb(0,0,0)" font-family="helvetica" font-size="10pt" font-style="normal" font-weight="normal" text-decoration="normal" x="36.64999961853027" y="109.97167205810547" text-anchor="start" dominant-baseline="alphabetic" transform="matrix(1, 0, 0, 1, 0.5, 0.5)" stroke-opacity="0" stroke-linejoin="bevel" stroke-miterlimit="10">150</text><text fill="#444444" stroke="none" font-family="helvetica" font-size="10pt" font-style="normal" font-weight="normal" text-decoration="normal" x="36.64999961853027" y="51.69660949707031" text-anchor="start" dominant-baseline="alphabetic" transform="matrix(1, 0, 0, 1, 0.5, 0.5)">200</text><text fill="none" stroke="rgb(0,0,0)" font-family="helvetica" font-size="10pt" font-style="normal" font-weight="normal" text-decoration="normal" x="36.64999961853027" y="51.69660949707031" text-anchor="start" dominant-baseline="alphabetic" transform="matrix(1, 0, 0, 1, 0.5, 0.5)" stroke-opacity="0" stroke-linejoin="bevel" stroke-miterlimit="10">200</text><text fill="#444444" stroke="none" font-family="helvetica" font-size="12pt" font-style="normal" font-weight="normal" text-decoration="normal" x="-78.07499885559082" y="151" text-anchor="start" dominant-baseline="alphabetic" transform="matrix(6.123233995736766e-17, -1, 1, 6.123233995736766e-17, -125.85000038146973, 184.14999961853027)">Days suitable for transmission</text><text fill="none" stroke="rgb(0,0,0)" font-family="helvetica" font-size="12pt" font-style="normal" font-weight="normal" text-decoration="normal" x="-78.07499885559082" y="151" text-anchor="start" dominant-baseline="alphabetic" transform="matrix(6.123233995736766e-17, -1, 1, 6.123233995736766e-17, -125.85000038146973, 184.14999961853027)" stroke-opacity="0" stroke-linejoin="bevel" stroke-miterlimit="10">Days suitable for transmission</text><path fill="rgb(255,255,255)" stroke="rgb(229,229,229)" paint-order="fill" d="M 475.183349609375 205.5 L 560.5000152587891 205.5 L 560.5000152587891 270.5 L 475.183349609375 270.5 L 475.183349609375 205.5 Z" fill-opacity="0.9490196078431372" clip-path="url(#uAKNsugTDOuS)" stroke-opacity="0.5019607843137255" stroke-linejoin="bevel" stroke-miterlimit="10"/><g clip-path="url(#uAKNsugTDOuS)"><g transform="matrix(1, 0, 0, 1, 485.683349609375, 216)"><path fill="none" stroke="#30a2da" paint-order="fill" d="M 0.5 10.5 L 20.5 10.5" stroke-linejoin="bevel" stroke-miterlimit="10" stroke-width="2"/></g></g><g clip-path="url(#uAKNsugTDOuS)"><text fill="#444444" stroke="none" font-family="helvetica" font-size="13px" font-style="normal" font-weight="normal" text-decoration="normal" x="510.683349609375" y="230" text-anchor="start" dominant-baseline="alphabetic" transform="matrix(1, 0, 0, 1, 0.5, 0.5)">ID 001</text></g><g clip-path="url(#uAKNsugTDOuS)"><text fill="none" stroke="rgb(0,0,0)" font-family="helvetica" font-size="13px" font-style="normal" font-weight="normal" text-decoration="normal" x="510.683349609375" y="230" text-anchor="start" dominant-baseline="alphabetic" transform="matrix(1, 0, 0, 1, 0.5, 0.5)" stroke-opacity="0" stroke-linejoin="bevel" stroke-miterlimit="10">ID 001</text></g><g clip-path="url(#uAKNsugTDOuS)"><g transform="matrix(1, 0, 0, 1, 485.683349609375, 239)"><path fill="none" stroke="#fc4f30" paint-order="fill" d="M 0.5 10.5 L 20.5 10.5" stroke-linejoin="bevel" stroke-miterlimit="10" stroke-width="2"/></g></g><g clip-path="url(#uAKNsugTDOuS)"><text fill="#444444" stroke="none" font-family="helvetica" font-size="13px" font-style="normal" font-weight="normal" text-decoration="normal" x="510.683349609375" y="253" text-anchor="start" dominant-baseline="alphabetic" transform="matrix(1, 0, 0, 1, 0.5, 0.5)">ID 006</text></g><g clip-path="url(#uAKNsugTDOuS)"><text fill="none" stroke="rgb(0,0,0)" font-family="helvetica" font-size="13px" font-style="normal" font-weight="normal" text-decoration="normal" x="510.683349609375" y="253" text-anchor="start" dominant-baseline="alphabetic" transform="matrix(1, 0, 0, 1, 0.5, 0.5)" stroke-opacity="0" stroke-linejoin="bevel" stroke-miterlimit="10">ID 006</text></g><text fill="black" stroke="none" font-family="helvetica" font-size="14pt" font-style="normal" font-weight="normal" text-decoration="normal" x="0" y="15" text-anchor="start" dominant-baseline="alphabetic" transform="matrix(1, 0, 0, 1, 5.5, 5.5)">C. Cape Town</text><text fill="none" stroke="rgb(0,0,0)" font-family="helvetica" font-size="14pt" font-style="normal" font-weight="normal" text-decoration="normal" x="0" y="15" text-anchor="start" dominant-baseline="alphabetic" transform="matrix(1, 0, 0, 1, 5.5, 5.5)" stroke-opacity="0" stroke-linejoin="bevel" stroke-miterlimit="10">C. Cape Town</text></svg>