<svg version="1.1" xmlns="http://www.w3.org/2000/svg" width="605" height="336"><defs><clipPath id="TbZgRuioypoh"><path fill="none" stroke="none" d="M 75.5 35.5 L 575.5 35.5 L 575.5 285.5 L 75.5 285.5 L 75.5 35.5 Z"/></clipPath><clipPath id="MifASJRqRZHa"><path fill="none" stroke="none" d="M 75.5 35.5 L 575.5 35.5 L 575.5 285.5 L 75.5 285.5 L 75.5 35.5 Z"/></clipPath><clipPath id="rZwrMenBZqMm"><path fill="none" stroke="none" d="M 75.5 35.5 L 575.5 35.5 L 575.5 285.5 L 75.5 285.5 L 75.5 35.5 Z"/></clipPath><clipPath id="KMnwqwkoOXdi"><path fill="none" stroke="none" d="M 75.5 35.5 L 575.5 35.5 L 575.5 285.5 L 75.5 285.5 L 75.5 35.5 Z"/></clipPath><clipPath id="HdXLnTkDXyUL"><path fill="none" stroke="none" d="M 75.5 35.5 L 575.5 35.5 L 575.5 285.5 L 75.5 285.5 L 75.5 35.5 Z"/></clipPath><clipPath id="xniTTTLzgyvp"><path fill="none" stroke="none" d="M 75.5 35.5 L 575.5 35.5 L 575.5 285.5 L 75.5 285.5 L 75.5 35.5 Z"/></clipPath><clipPath id="CQeqwWBuyTwA"><path fill="none" stroke="none" d="M 75.5 35.5 L 575.5 35.5 L 575.5 285.5 L 75.5 285.5 L 75.5 35.5 Z"/></clipPath><clipPath id="RJaxPnTQxDuJ"><path fill="none" stroke="none" d="M 75.5 35.5 L 575.5 35.5 L 575.5 285.5 L 75.5 285.5 L 75.5 35.5 Z"/></clipPath><clipPath id="hJtDFrwQePNB"><path fill="none" stroke="none" d="M 75.5 35.5 L 575.5 35.5 L 575.5 285.5 L 75.5 285.5 L 75.5 35.5 Z"/></clipPath><clipPath id="PlGVPeakfpVm"><path fill="none" stroke="none" d="M 75.5 35.5 L 575.5 35.5 L 575.5 285.5 L 75.5 285.5 L 75.5 35.5 Z"/></clipPath><clipPath id="SrdJZGnybfRt"><path fill="none" stroke="none" d="M 75.5 35.5 L 575.5 35.5 L 575.5 285.5 L 75.5 285.5 L 75.5 35.5 Z"/></clipPath><clipPath id="tTlwbFGbiZuB"><path fill="none" stroke="none" d="M 75.5 35.5 L 575.5 35.5 L 575.5 285.5 L 75.5 285.5 L 75.5 35.5 Z"/></clipPath><clipPath id="PqwPMfBNRaQE"><path fill="none" stroke="none" d="M 75.5 35.5 L 575.5 35.5 L 575.5 285.5 L 75.5 285.5 L 75.5 35.5 Z"/></clipPath><clipPath id="fxkrUxgQbLDK"><path fill="none" stroke="none" d="M 75.5 35.5 L 575.5 35.5 L 575.5 285.5 L 75.5 285.5 L 75.5 35.5 Z"/></clipPath><clipPath id="nfCDZphDutha"><path fill="none" stroke="none" d="M 75.5 35.5 L 575.5 35.5 L 575.5 285.5 L 75.5 285.5 L 75.5 35.5 Z"/></clipPath><clipPath id="ryIhakakEyap"><path fill="none" stroke="none" d="M 75.5 35.5 L 575.5 35.5 L 575.5 285.5 L 75.5 285.5 L 75.5 35.5 Z"/></clipPath><clipPath id="TsNkxvXDZJDx"><path fill="none" stroke="none" d="M 75.5 35.5 L 575.5 35.5 L 575.5 285.5 L 75.5 285.5 L 75.5 35.5 Z"/></clipPath><clipPath id="VpcobeDGxZSe"><path fill="none" stroke="none" d="M 75.5 35.5 L 575.5 35.5 L 575.5 285.5 L 75.5 285.5 L 75.5 35.5 Z"/></clipPath><clipPath id="swkiPsedLtks"><path fill="none" stroke="none" d="M 75.5 35.5 L 575.5 35.5 L 575.5 285.5 L 75.5 285.5 L 75.5 35.5 Z"/></clipPath><clipPath id="TCBqiOBlOMTf"><path fill="none" stroke="none" d="M 75.5 35.5 L 575.5 35.5 L 575.5 285.5 L 75.5 285.5 L 75.5 35.5 Z"/></clipPath><clipPath id="orTdWaiABnXX"><path fill="none" stroke="none" d="M 75.5 35.5 L 575.5 35.5 L 575.5 285.5 L 75.5 285.5 L 75.5 35.5 Z"/></clipPath><clipPath id="hVIofFQwpscJ"><path fill="none" stroke="none" d="M 75.5 35.5 L 575.5 35.5 L 575.5 285.5 L 75.5 285.5 L 75.5 35.5 Z"/></clipPath><clipPath id="OwEdSSNRibPH"><path fill="none" stroke="none" d="M 75.5 35.5 L 575.5 35.5 L 575.5 285.5 L 75.5 285.5 L 75.5 35.5 Z"/></clipPath></defs><path fill="none" stroke="#e5e5e5" paint-order="fill" d="M 75.5 35.5 L 575.5 35.5 L 575.5 285.5 L 75.5 285.5 L 75.5 35.5 Z" stroke-linejoin="bevel" stroke-miterlimit="10"/><path fill="none" stroke="black" paint-order="fill" d="M 337.46172248803487 35.5 L 337.46172248803487 285.5" stroke-linejoin="bevel" stroke-miterlimit="10" stroke-width="3" stroke-dasharray="6" clip-path="url(#rZwrMenBZqMm)"/><path fill="none" stroke="#9467bd" paint-order="fill" d="M 98.2272720336914 145.85049438476562 L 122.15071868896484 132.15936279296875 L 146.07415771484375 230.73548889160156 L 169.9976043701172 208.82968139648438 L 193.92105102539062 110.2535629272461 L 217.84449768066406 156.8033905029297 L 241.7679443359375 244.42662048339844 L 265.6913757324219 145.85049438476562 L 289.6148376464844 217.0443572998047 L 313.53826904296875 181.4474334716797" stroke-linejoin="bevel" stroke-miterlimit="10" stroke-width="2" clip-path="url(#KMnwqwkoOXdi)"/><path fill="none" stroke="#9467bd" paint-order="fill" d="M 98.2272720336914 145.85049438476562 L 122.15071868896484 132.15936279296875 L 146.07415771484375 230.73548889160156 L 169.9976043701172 208.82968139648438 L 193.92105102539062 110.2535629272461 L 217.84449768066406 156.8033905029297 L 241.7679443359375 244.42662048339844 L 265.6913757324219 145.85049438476562 L 289.6148376464844 217.0443572998047 L 313.53826904296875 181.4474334716797" stroke-linejoin="bevel" stroke-miterlimit="10" stroke-width="2" stroke-dasharray="6" clip-path="url(#HdXLnTkDXyUL)"/><path fill="none" stroke="#30a2da" paint-order="fill" d="M 313.53826904296875 181.4474334716797 L 337.46173095703125 143.11227416992188 L 361.3851623535156 104.77710723876953 L 385.3086242675781 167.7563018798828 L 409.2320556640625 195.1385498046875 L 433.155517578125 71.91840362548828 L 457.0789489746094 184.18565368652344 L 481.00238037109375 217.0443572998047 L 504.92584228515625 145.85049438476562 L 528.8493041992188 162.27984619140625 L 552.772705078125 217.0443572998047" stroke-linejoin="bevel" stroke-miterlimit="10" stroke-width="2" clip-path="url(#xniTTTLzgyvp)"/><path fill="none" stroke="#30a2da" paint-order="fill" d="M 337.46173095703125 129.9189910888672 L 361.3851623535156 136.80604553222656 L 385.3086242675781 143.69309997558594 L 409.2320556640625 150.5801544189453 L 433.155517578125 157.4672088623047 L 457.0789489746094 164.35426330566406 L 481.00238037109375 171.24131774902344 L 504.92584228515625 178.1283721923828 L 528.8493041992188 185.01541137695312 L 552.772705078125 191.9024658203125" stroke-linejoin="bevel" stroke-miterlimit="10" stroke-width="2" stroke-dasharray="6" clip-path="url(#CQeqwWBuyTwA)"/><path fill="none" stroke="#fc4f30" paint-order="fill" d="M 313.53826904296875 181.4474334716797 L 337.46173095703125 112.99178314208984 L 361.3851623535156 244.42662048339844 L 385.3086242675781 222.52081298828125 L 409.2320556640625 175.97097778320312 L 433.155517578125 129.421142578125 L 457.0789489746094 184.18565368652344 L 481.00238037109375 197.8767852783203 L 504.92584228515625 170.49452209472656 L 528.8493041992188 159.5416259765625 L 552.772705078125 102.03887939453125" stroke-linejoin="bevel" stroke-miterlimit="10" stroke-width="2" clip-path="url(#RJaxPnTQxDuJ)"/><path fill="none" stroke="#fc4f30" paint-order="fill" d="M 337.46173095703125 192.64926147460938 L 361.3851623535156 187.60427856445312 L 385.3086242675781 182.55931091308594 L 409.2320556640625 177.51434326171875 L 433.155517578125 172.4693603515625 L 457.0789489746094 167.4243927001953 L 481.00238037109375 162.37942504882812 L 504.92584228515625 157.33444213867188 L 528.8493041992188 152.2894744873047 L 552.772705078125 147.24449157714844" stroke-linejoin="bevel" stroke-miterlimit="10" stroke-width="2" stroke-dasharray="6" clip-path="url(#hJtDFrwQePNB)"/><path fill="none" stroke="rgb(128,128,128)" paint-order="fill" d="M 98.2272720336914 252.64129638671875 L 122.15071868896484 165.01806640625 L 146.07415771484375 63.7037239074707 L 169.9976043701172 134.8975830078125 L 193.92105102539062 104.77710723876953 L 217.84449768066406 151.3269500732422 L 241.7679443359375 143.11227416992188 L 265.6913757324219 143.11227416992188 L 289.6148376464844 145.85049438476562 L 313.53826904296875 110.2535629272461" stroke-opacity="0.7490196078431373" stroke-linejoin="bevel" stroke-miterlimit="10" clip-path="url(#PlGVPeakfpVm)"/><path fill="none" stroke="grey" paint-order="fill" d="M 313.53826904296875 110.2535629272461 L 337.46173095703125 88.3477554321289 L 361.3851623535156 137.6358184814453 L 385.3086242675781 74.65662384033203 L 409.2320556640625 112.99178314208984 L 433.155517578125 104.77710723876953 L 457.0789489746094 104.77710723876953 L 481.00238037109375 233.4737091064453 L 504.92584228515625 154.06517028808594 L 528.8493041992188 247.1648406982422 L 552.772705078125 219.78257751464844" stroke-linejoin="bevel" stroke-miterlimit="10" stroke-width="0.5" clip-path="url(#SrdJZGnybfRt)"/><path fill="none" stroke="grey" paint-order="fill" d="M 313.53826904296875 110.2535629272461 L 337.46173095703125 121.20645904541016 L 361.3851623535156 143.11227416992188 L 385.3086242675781 206.09146118164062 L 409.2320556640625 211.56790161132812 L 433.155517578125 184.18565368652344 L 457.0789489746094 85.60952758789062 L 481.00238037109375 137.6358184814453 L 504.92584228515625 151.3269500732422 L 528.8493041992188 165.01806640625 L 552.772705078125 148.58871459960938" stroke-linejoin="bevel" stroke-miterlimit="10" stroke-width="0.5" clip-path="url(#tTlwbFGbiZuB)"/><path fill="none" stroke="rgb(128,128,128)" paint-order="fill" d="M 98.2272720336914 112.99178314208984 L 122.15071868896484 137.6358184814453 L 146.07415771484375 93.82420349121094 L 169.9976043701172 211.56790161132812 L 193.92105102539062 200.61500549316406 L 217.84449768066406 132.15936279296875 L 241.7679443359375 181.4474334716797 L 265.6913757324219 104.77710723876953 L 289.6148376464844 206.09146118164062 L 313.53826904296875 167.7563018798828" stroke-opacity="0.7490196078431373" stroke-linejoin="bevel" stroke-miterlimit="10" clip-path="url(#PqwPMfBNRaQE)"/><path fill="none" stroke="grey" paint-order="fill" d="M 313.53826904296875 167.7563018798828 L 337.46173095703125 126.68291473388672 L 361.3851623535156 140.37403869628906 L 385.3086242675781 107.51533508300781 L 409.2320556640625 132.15936279296875 L 433.155517578125 121.20645904541016 L 457.0789489746094 134.8975830078125 L 481.00238037109375 88.3477554321289 L 504.92584228515625 126.68291473388672 L 528.8493041992188 115.73001098632812 L 552.772705078125 189.662109375" stroke-linejoin="bevel" stroke-miterlimit="10" stroke-width="0.5" clip-path="url(#fxkrUxgQbLDK)"/><path fill="none" stroke="grey" paint-order="fill" d="M 313.53826904296875 167.7563018798828 L 337.46173095703125 58.227272033691406 L 361.3851623535156 173.2327423095703 L 385.3086242675781 189.662109375 L 409.2320556640625 145.85049438476562 L 433.155517578125 121.20645904541016 L 457.0789489746094 208.82968139648438 L 481.00238037109375 148.58871459960938 L 504.92584228515625 197.8767852783203 L 528.8493041992188 102.03887939453125 L 552.772705078125 80.1330795288086" stroke-linejoin="bevel" stroke-miterlimit="10" stroke-width="0.5" clip-path="url(#nfCDZphDutha)"/><path fill="none" stroke="rgb(128,128,128)" paint-order="fill" d="M 98.2272720336914 200.61500549316406 L 122.15071868896484 132.15936279296875 L 146.07415771484375 132.15936279296875 L 169.9976043701172 159.5416259765625 L 193.92105102539062 227.9972686767578 L 217.84449768066406 115.73001098632812 L 241.7679443359375 252.64129638671875 L 265.6913757324219 99.3006591796875 L 289.6148376464844 159.5416259765625 L 313.53826904296875 74.65662384033203" stroke-opacity="0.7490196078431373" stroke-linejoin="bevel" stroke-miterlimit="10" clip-path="url(#ryIhakakEyap)"/><path fill="none" stroke="grey" paint-order="fill" d="M 313.53826904296875 74.65662384033203 L 337.46173095703125 192.40032958984375 L 361.3851623535156 126.68291473388672 L 385.3086242675781 137.6358184814453 L 409.2320556640625 181.4474334716797 L 433.155517578125 208.82968139648438 L 457.0789489746094 156.8033905029297 L 481.00238037109375 178.70919799804688 L 504.92584228515625 143.11227416992188 L 528.8493041992188 195.1385498046875 L 552.772705078125 156.8033905029297" stroke-linejoin="bevel" stroke-miterlimit="10" stroke-width="0.5" clip-path="url(#TsNkxvXDZJDx)"/><path fill="none" stroke="grey" paint-order="fill" d="M 313.53826904296875 74.65662384033203 L 337.46173095703125 140.37403869628906 L 361.3851623535156 137.6358184814453 L 385.3086242675781 175.97097778320312 L 409.2320556640625 192.40032958984375 L 433.155517578125 181.4474334716797 L 457.0789489746094 132.15936279296875 L 481.00238037109375 143.11227416992188 L 504.92584228515625 129.421142578125 L 528.8493041992188 178.70919799804688 L 552.772705078125 123.94468688964844" stroke-linejoin="bevel" stroke-miterlimit="10" stroke-width="0.5" clip-path="url(#VpcobeDGxZSe)"/><path fill="none" stroke="rgb(128,128,128)" paint-order="fill" d="M 98.2272720336914 233.4737091064453 L 122.15071868896484 143.11227416992188 L 146.07415771484375 165.01806640625 L 169.9976043701172 129.421142578125 L 193.92105102539062 208.82968139648438 L 217.84449768066406 214.30613708496094 L 241.7679443359375 184.18565368652344 L 265.6913757324219 132.15936279296875 L 289.6148376464844 143.11227416992188 L 313.53826904296875 195.1385498046875" stroke-opacity="0.7490196078431373" stroke-linejoin="bevel" stroke-miterlimit="10" clip-path="url(#swkiPsedLtks)"/><path fill="none" stroke="grey" paint-order="fill" d="M 313.53826904296875 195.1385498046875 L 337.46173095703125 145.85049438476562 L 361.3851623535156 175.97097778320312 L 385.3086242675781 63.7037239074707 L 409.2320556640625 91.08598327636719 L 433.155517578125 148.58871459960938 L 457.0789489746094 233.4737091064453 L 481.00238037109375 219.78257751464844 L 504.92584228515625 145.85049438476562 L 528.8493041992188 178.70919799804688 L 552.772705078125 123.94468688964844" stroke-linejoin="bevel" stroke-miterlimit="10" stroke-width="0.5" clip-path="url(#TCBqiOBlOMTf)"/><path fill="none" stroke="grey" paint-order="fill" d="M 313.53826904296875 195.1385498046875 L 337.46173095703125 151.3269500732422 L 361.3851623535156 123.94468688964844 L 385.3086242675781 129.421142578125 L 409.2320556640625 186.9238739013672 L 433.155517578125 173.2327423095703 L 457.0789489746094 121.20645904541016 L 481.00238037109375 214.30613708496094 L 504.92584228515625 154.06517028808594 L 528.8493041992188 123.94468688964844 L 552.772705078125 80.1330795288086" stroke-linejoin="bevel" stroke-miterlimit="10" stroke-width="0.5" clip-path="url(#orTdWaiABnXX)"/><path fill="none" stroke="black" paint-order="fill" d="M 75.5 285.5 L 575.5 285.5" stroke-linejoin="bevel" stroke-miterlimit="10"/><path fill="none" stroke="black" paint-order="fill" d="M 98.5 291.5 L 98.5 283.5 M 217.5 291.5 L 217.5 283.5 M 337.5 291.5 L 337.5 283.5 M 457.5 291.5 L 457.5 283.5" stroke-linejoin="bevel" stroke-miterlimit="10"/><path fill="none" stroke="black" paint-order="fill" d="M 98.5 289.5 L 98.5 285.5 M 122.5 289.5 L 122.5 285.5 M 146.5 289.5 L 146.5 285.5 M 169.5 289.5 L 169.5 285.5 M 193.5 289.5 L 193.5 285.5 M 217.5 289.5 L 217.5 285.5 M 241.5 289.5 L 241.5 285.5 M 265.5 289.5 L 265.5 285.5 M 289.5 289.5 L 289.5 285.5 M 313.5 289.5 L 313.5 285.5 M 337.5 289.5 L 337.5 285.5 M 361.5 289.5 L 361.5 285.5 M 385.5 289.5 L 385.5 285.5 M 409.5 289.5 L 409.5 285.5 M 433.5 289.5 L 433.5 285.5 M 457.5 289.5 L 457.5 285.5 M 481.5 289.5 L 481.5 285.5 M 504.5 289.5 L 504.5 285.5 M 528.5 289.5 L 528.5 285.5 M 552.5 289.5 L 552.5 285.5" stroke-linejoin="bevel" stroke-miterlimit="10"/><text fill="#444444" stroke="none" font-family="helvetica" font-size="10pt" font-style="normal" font-weight="normal" text-decoration="normal" x="84.36060523986816" y="306" text-anchor="start" dominant-baseline="alphabetic" transform="matrix(1, 0, 0, 1, 0.5, 0.5)">2025</text><text fill="none" stroke="rgb(0,0,0)" font-family="helvetica" font-size="10pt" font-style="normal" font-weight="normal" text-decoration="normal" x="84.36060523986816" y="306" text-anchor="start" dominant-baseline="alphabetic" transform="matrix(1, 0, 0, 1, 0.5, 0.5)" stroke-opacity="0" stroke-linejoin="bevel" stroke-miterlimit="10">2025</text><text fill="#444444" stroke="none" font-family="helvetica" font-size="10pt" font-style="normal" font-weight="normal" text-decoration="normal" x="203.97783088684082" y="306" text-anchor="start" dominant-baseline="alphabetic" transform="matrix(1, 0, 0, 1, 0.5, 0.5)">2030</text><text fill="none" stroke="rgb(0,0,0)" font-family="helvetica" font-size="10pt" font-style="normal" font-weight="normal" text-decoration="normal" x="203.97783088684082" y="306" text-anchor="start" dominant-baseline="alphabetic" transform="matrix(1, 0, 0, 1, 0.5, 0.5)" stroke-opacity="0" stroke-linejoin="bevel" stroke-miterlimit="10">2030</text><text fill="#444444" stroke="none" font-family="helvetica" font-size="10pt" font-style="normal" font-weight="normal" text-decoration="normal" x="323.595064163208" y="306" text-anchor="start" dominant-baseline="alphabetic" transform="matrix(1, 0, 0, 1, 0.5, 0.5)">2035</text><text fill="none" stroke="rgb(0,0,0)" font-family="helvetica" font-size="10pt" font-style="normal" font-weight="normal" text-decoration="normal" x="323.595064163208" y="306" text-anchor="start" dominant-baseline="alphabetic" transform="matrix(1, 0, 0, 1, 0.5, 0.5)" stroke-opacity="0" stroke-linejoin="bevel" stroke-miterlimit="10">2035</text><text fill="#444444" stroke="none" font-family="helvetica" font-size="10pt" font-style="normal" font-weight="normal" text-decoration="normal" x="443.21228218078613" y="306" text-anchor="start" dominant-baseline="alphabetic" transform="matrix(1, 0, 0, 1, 0.5, 0.5)">2040</text><text fill="none" stroke="rgb(0,0,0)" font-family="helvetica" font-size="10pt" font-style="normal" font-weight="normal" text-decoration="normal" x="443.21228218078613" y="306" text-anchor="start" dominant-baseline="alphabetic" transform="matrix(1, 0, 0, 1, 0.5, 0.5)" stroke-opacity="0" stroke-linejoin="bevel" stroke-miterlimit="10">2040</text><text fill="#444444" stroke="none" font-family="helvetica" font-size="12pt" font-style="normal" font-weight="normal" text-decoration="normal" x="310.3166666030884" y="329" text-anchor="start" dominant-baseline="alphabetic" transform="matrix(1, 0, 0, 1, 0.5, 0.5)">Year</text><text fill="none" stroke="rgb(0,0,0)" font-family="helvetica" font-size="12pt" font-style="normal" font-weight="normal" text-decoration="normal" x="310.3166666030884" y="329" text-anchor="start" dominant-baseline="alphabetic" transform="matrix(1, 0, 0, 1, 0.5, 0.5)" stroke-opacity="0" stroke-linejoin="bevel" stroke-miterlimit="10">Year</text><path fill="none" stroke="black" paint-order="fill" d="M 75.5 285.5 L 75.5 35.5" stroke-linejoin="bevel" stroke-miterlimit="10"/><path fill="none" stroke="black" paint-order="fill" d="M 69.5 285.5 L 77.5 285.5 M 69.5 230.5 L 77.5 230.5 M 69.5 175.5 L 77.5 175.5 M 69.5 121.5 L 77.5 121.5 M 69.5 66.5 L 77.5 66.5" stroke-linejoin="bevel" stroke-miterlimit="10"/><path fill="none" stroke="black" paint-order="fill" d="M 71.5 285.5 L 75.5 285.5 M 71.5 274.5 L 75.5 274.5 M 71.5 263.5 L 75.5 263.5 M 71.5 252.5 L 75.5 252.5 M 71.5 241.5 L 75.5 241.5 M 71.5 230.5 L 75.5 230.5 M 71.5 219.5 L 75.5 219.5 M 71.5 208.5 L 75.5 208.5 M 71.5 197.5 L 75.5 197.5 M 71.5 186.5 L 75.5 186.5 M 71.5 175.5 L 75.5 175.5 M 71.5 165.5 L 75.5 165.5 M 71.5 154.5 L 75.5 154.5 M 71.5 143.5 L 75.5 143.5 M 71.5 132.5 L 75.5 132.5 M 71.5 121.5 L 75.5 121.5 M 71.5 110.5 L 75.5 110.5 M 71.5 99.5 L 75.5 99.5 M 71.5 88.5 L 75.5 88.5 M 71.5 77.5 L 75.5 77.5 M 71.5 66.5 L 75.5 66.5 M 71.5 55.5 L 75.5 55.5 M 71.5 44.5 L 75.5 44.5" stroke-linejoin="bevel" stroke-miterlimit="10"/><text fill="#444444" stroke="none" font-family="helvetica" font-size="10pt" font-style="normal" font-weight="normal" text-decoration="normal" x="57.31666660308838" y="290" text-anchor="start" dominant-baseline="alphabetic" transform="matrix(1, 0, 0, 1, 0.5, 0.5)">0</text><text fill="none" stroke="rgb(0,0,0)" font-family="helvetica" font-size="10pt" font-style="normal" font-weight="normal" text-decoration="normal" x="57.31666660308838" y="290" text-anchor="start" dominant-baseline="alphabetic" transform="matrix(1, 0, 0, 1, 0.5, 0.5)" stroke-opacity="0" stroke-linejoin="bevel" stroke-miterlimit="10">0</text><text fill="#444444" stroke="none" font-family="helvetica" font-size="10pt" font-style="normal" font-weight="normal" text-decoration="normal" x="50.63333320617676" y="235.23548889160156" text-anchor="start" dominant-baseline="alphabetic" transform="matrix(1, 0, 0, 1, 0.5, 0.5)">20</text><text fill="none" stroke="rgb(0,0,0)" font-family="helvetica" font-size="10pt" font-style="normal" font-weight="normal" text-decoration="normal" x="50.63333320617676" y="235.23548889160156" text-anchor="start" dominant-baseline="alphabetic" transform="matrix(1, 0, 0, 1, 0.5, 0.5)" stroke-opacity="0" stroke-linejoin="bevel" stroke-miterlimit="10">20</text><text fill="#444444" stroke="none" font-family="helvetica" font-size="10pt" font-style="normal" font-weight="normal" text-decoration="normal" x="50.63333320617676" y="180.47097778320312" text-anchor="start" dominant-baseline="alphabetic" transform="matrix(1, 0, 0, 1, 0.5, 0.5)">40</text><text fill="none" stroke="rgb(0,0,0)" font-family="helvetica" font-size="10pt" font-style="normal" font-weight="normal" text-decoration="normal" x="50.63333320617676" y="180.47097778320312" text-anchor="start" dominant-baseline="alphabetic" transform="matrix(1, 0, 0, 1, 0.5, 0.5)" stroke-opacity="0" stroke-linejoin="bevel" stroke-miterlimit="10">40</text><text fill="#444444" stroke="none" font-family="helvetica" font-size="10pt" font-style="normal" font-weight="normal" text-decoration="normal" x="50.63333320617676" y="125.70645904541016" text-anchor="start" dominant-baseline="alphabetic" transform="matrix(1, 0, 0, 1, 0.5, 0.5)">60</text><text fill="none" stroke="rgb(0,0,0)" font-family="helvetica" font-size="10pt" font-style="normal" font-weight="normal" text-decoration="normal" x="50.63333320617676" y="125.70645904541016" text-anchor="start" dominant-baseline="alphabetic" transform="matrix(1, 0, 0, 1, 0.5, 0.5)" stroke-opacity="0" stroke-linejoin="bevel" stroke-miterlimit="10">60</text><text fill="#444444" stroke="none" font-family="helvetica" font-size="10pt" font-style="normal" font-weight="normal" text-decoration="normal" x="50.63333320617676" y="70.94194793701172" text-anchor="start" dominant-baseline="alphabetic" transform="matrix(1, 0, 0, 1, 0.5, 0.5)">80</text><text fill="none" stroke="rgb(0,0,0)" font-family="helvetica" font-size="10pt" font-style="normal" font-weight="normal" text-decoration="normal" x="50.63333320617676" y="70.94194793701172" text-anchor="start" dominant-baseline="alphabetic" transform="matrix(1, 0, 0, 1, 0.5, 0.5)" stroke-opacity="0" stroke-linejoin="bevel" stroke-miterlimit="10">80</text><text fill="#444444" stroke="none" font-family="helvetica" font-size="12pt" font-style="normal" font-weight="normal" text-decoration="normal" x="-53.575002670288086" y="156" text-anchor="start" dominant-baseline="alphabetic" transform="matrix(6.123233995736766e-17, -1, 1, 6.123233995736766e-17, -116.86666679382324, 203.13333320617676)">Days suitable for transmission</text><text fill="none" stroke="rgb(0,0,0)" font-family="helvetica" font-size="12pt" font-style="normal" font-weight="normal" text-decoration="normal" x="-53.575002670288086" y="156" text-anchor="start" dominant-baseline="alphabetic" transform="matrix(6.123233995736766e-17, -1, 1, 6.123233995736766e-17, -116.86666679382324, 203.13333320617676)" stroke-opacity="0" stroke-linejoin="bevel" stroke-miterlimit="10">Days suitable for transmission</text><path fill="rgb(255,255,255)" stroke="rgb(229,229,229)" paint-order="fill" d="M 482.0333251953125 210.5 L 565.4999847412109 210.5 L 565.4999847412109 275.5 L 482.0333251953125 275.5 L 482.0333251953125 210.5 Z" fill-opacity="0.9490196078431372" clip-path="url(#hVIofFQwpscJ)" stroke-opacity="0.5019607843137255" stroke-linejoin="bevel" stroke-miterlimit="10"/><g clip-path="url(#hVIofFQwpscJ)"><g transform="matrix(1, 0, 0, 1, 492.5333251953125, 221)"><path fill="none" stroke="#30a2da" paint-order="fill" d="M 0.5 10.5 L 20.5 10.5" stroke-linejoin="bevel" stroke-miterlimit="10" stroke-width="2"/></g></g><g clip-path="url(#hVIofFQwpscJ)"><text fill="#444444" stroke="none" font-family="helvetica" font-size="13px" font-style="normal" font-weight="normal" text-decoration="normal" x="517.5333251953125" y="235.5" text-anchor="start" dominant-baseline="alphabetic" transform="matrix(1, 0, 0, 1, 0.5, 0.5)">ID 001</text></g><g clip-path="url(#hVIofFQwpscJ)"><text fill="none" stroke="rgb(0,0,0)" font-family="helvetica" font-size="13px" font-style="normal" font-weight="normal" text-decoration="normal" x="517.5333251953125" y="235.5" text-anchor="start" dominant-baseline="alphabetic" transform="matrix(1, 0, 0, 1, 0.5, 0.5)" stroke-opacity="0" stroke-linejoin="bevel" stroke-miterlimit="10">ID 001</text></g><g clip-path="url(#hVIofFQwpscJ)"><g transform="matrix(1, 0, 0, 1, 492.5333251953125, 244)"><path fill="none" stroke="#fc4f30" paint-order="fill" d="M 0.5 10.5 L 20.5 10.5" stroke-linejoin="bevel" stroke-miterlimit="10" stroke-width="2"/></g></g><g clip-path="url(#hVIofFQwpscJ)"><text fill="#444444" stroke="none" font-family="helvetica" font-size="13px" font-style="normal" font-weight="normal" text-decoration="normal" x="517.5333251953125" y="258.5" text-anchor="start" dominant-baseline="alphabetic" transform="matrix(1, 0, 0, 1, 0.5, 0.5)">ID 006</text></g><g clip-path="url(#hVIofFQwpscJ)"><text fill="none" stroke="rgb(0,0,0)" font-family="helvetica" font-size="13px" font-style="normal" font-weight="normal" text-decoration="normal" x="517.5333251953125" y="258.5" text-anchor="start" dominant-baseline="alphabetic" transform="matrix(1, 0, 0, 1, 0.5, 0.5)" stroke-opacity="0" stroke-linejoin="bevel" stroke-miterlimit="10">ID 006</text></g><text fill="black" stroke="none" font-family="helvetica" font-size="14pt" font-style="normal" font-weight="normal" text-decoration="normal" x="0" y="18" text-anchor="start" dominant-baseline="alphabetic" transform="matrix(1, 0, 0, 1, 5.5, 7.5)">C. London</text><text fill="none" stroke="rgb(0,0,0)" font-family="helvetica" font-size="14pt" font-style="normal" font-weight="normal" text-decoration="normal" x="0" y="18" text-anchor="start" dominant-baseline="alphabetic" transform="matrix(1, 0, 0, 1, 5.5, 7.5)" stroke-opacity="0" stroke-linejoin="bevel" stroke-miterlimit="10">C. London</text></svg>