<svg version="1.1" xmlns="http://www.w3.org/2000/svg" width="600" height="329"><defs><clipPath id="gokQQtqQXDrM"><path fill="none" stroke="none" d="M 70.5 30.5 L 570.5 30.5 L 570.5 280.5 L 70.5 280.5 L 70.5 30.5 Z"/></clipPath><clipPath id="kMgPzEJSGkAC"><path fill="none" stroke="none" d="M 70.5 30.5 L 570.5 30.5 L 570.5 280.5 L 70.5 280.5 L 70.5 30.5 Z"/></clipPath><clipPath id="BvKpMlxFxAVc"><path fill="none" stroke="none" d="M 70.5 30.5 L 570.5 30.5 L 570.5 280.5 L 70.5 280.5 L 70.5 30.5 Z"/></clipPath><clipPath id="qyGFPhGlsTGr"><path fill="none" stroke="none" d="M 70.5 30.5 L 570.5 30.5 L 570.5 280.5 L 70.5 280.5 L 70.5 30.5 Z"/></clipPath><clipPath id="NIoWObpTNoQX"><path fill="none" stroke="none" d="M 70.5 30.5 L 570.5 30.5 L 570.5 280.5 L 70.5 280.5 L 70.5 30.5 Z"/></clipPath><clipPath id="gZGifaMcZsvo"><path fill="none" stroke="none" d="M 70.5 30.5 L 570.5 30.5 L 570.5 280.5 L 70.5 280.5 L 70.5 30.5 Z"/></clipPath><clipPath id="sLbCIDZxCTIG"><path fill="none" stroke="none" d="M 70.5 30.5 L 570.5 30.5 L 570.5 280.5 L 70.5 280.5 L 70.5 30.5 Z"/></clipPath><clipPath id="GhDAxRgpRHRI"><path fill="none" stroke="none" d="M 70.5 30.5 L 570.5 30.5 L 570.5 280.5 L 70.5 280.5 L 70.5 30.5 Z"/></clipPath><clipPath id="kMZMaORuqLGN"><path fill="none" stroke="none" d="M 70.5 30.5 L 570.5 30.5 L 570.5 280.5 L 70.5 280.5 L 70.5 30.5 Z"/></clipPath><clipPath id="yTeIFuwLeoxr"><path fill="none" stroke="none" d="M 70.5 30.5 L 570.5 30.5 L 570.5 280.5 L 70.5 280.5 L 70.5 30.5 Z"/></clipPath><clipPath id="HxmSqLNUzTPb"><path fill="none" stroke="none" d="M 70.5 30.5 L 570.5 30.5 L 570.5 280.5 L 70.5 280.5 L 70.5 30.5 Z"/></clipPath><clipPath id="KTitaGBVVFwU"><path fill="none" stroke="none" d="M 70.5 30.5 L 570.5 30.5 L 570.5 280.5 L 70.5 280.5 L 70.5 30.5 Z"/></clipPath><clipPath id="EeLXUrPRpFOu"><path fill="none" stroke="none" d="M 70.5 30.5 L 570.5 30.5 L 570.5 280.5 L 70.5 280.5 L 70.5 30.5 Z"/></clipPath><clipPath id="TftnsUSEImIL"><path fill="none" stroke="none" d="M 70.5 30.5 L 570.5 30.5 L 570.5 280.5 L 70.5 280.5 L 70.5 30.5 Z"/></clipPath><clipPath id="ANLDvhLdZMKH"><path fill="none" stroke="none" d="M 70.5 30.5 L 570.5 30.5 L 570.5 280.5 L 70.5 280.5 L 70.5 30.5 Z"/></clipPath><clipPath id="BeaCpSDWsVnk"><path fill="none" stroke="none" d="M 70.5 30.5 L 570.5 30.5 L 570.5 280.5 L 70.5 280.5 L 70.5 30.5 Z"/></clipPath><clipPath id="uTGxPpSSUmGo"><path fill="none" stroke="none" d="M 70.5 30.5 L 570.5 30.5 L 570.5 280.5 L 70.5 280.5 L 70.5 30.5 Z"/></clipPath><clipPath id="vUiekTUHZNpl"><path fill="none" stroke="none" d="M 70.5 30.5 L 570.5 30.5 L 570.5 280.5 L 70.5 280.5 L 70.5 30.5 Z"/></clipPath><clipPath id="zGbprNmLhveV"><path fill="none" stroke="none" d="M 70.5 30.5 L 570.5 30.5 L 570.5 280.5 L 70.5 280.5 L 70.5 30.5 Z"/></clipPath><clipPath id="OOdPdIBcuxgZ"><path fill="none" stroke="none" d="M 70.5 30.5 L 570.5 30.5 L 570.5 280.5 L 70.5 280.5 L 70.5 30.5 Z"/></clipPath><clipPath id="UDytchAdoxqf"><path fill="none" stroke="none" d="M 70.5 30.5 L 570.5 30.5 L 570.5 280.5 L 70.5 280.5 L 70.5 30.5 Z"/></clipPath><clipPath id="sqEQLvWJTHxN"><path fill="none" stroke="none" d="M 70.5 30.5 L 570.5 30.5 L 570.5 280.5 L 70.5 280.5 L 70.5 30.5 Z"/></clipPath><clipPath id="mkmTQshIKnwC"><path fill="none" stroke="none" d="M 70.5 30.5 L 570.5 30.5 L 570.5 280.5 L 70.5 280.5 L 70.5 30.5 Z"/></clipPath></defs><path fill="none" stroke="#e5e5e5" paint-order="fill" d="M 70.5 30.5 L 570.5 30.5 L 570.5 280.5 L 70.5 280.5 L 70.5 30.5 Z" stroke-linejoin="bevel" stroke-miterlimit="10"/><path fill="none" stroke="black" paint-order="fill" d="M 332.46172248803487 30.5 L 332.46172248803487 280.5" stroke-linejoin="bevel" stroke-miterlimit="10" stroke-width="3" stroke-dasharray="6" clip-path="url(#BvKpMlxFxAVc)"/><path fill="none" stroke="#9467bd" paint-order="fill" d="M 93.2272720336914 125.95454406738281 L 117.15071868896484 207.77272033691406 L 141.07415771484375 147.77272033691406 L 164.9976043701172 158.68182373046875 L 188.92105102539062 167.77272033691406 L 212.84449768066406 142.31817626953125 L 236.7679443359375 142.31817626953125 L 260.6913757324219 91.40908813476562 L 284.6148376464844 158.68182373046875 L 308.53826904296875 118.68181610107422" stroke-linejoin="bevel" stroke-miterlimit="10" stroke-width="2" clip-path="url(#qyGFPhGlsTGr)"/><path fill="none" stroke="#9467bd" paint-order="fill" d="M 93.2272720336914 125.95454406738281 L 117.15071868896484 207.77272033691406 L 141.07415771484375 147.77272033691406 L 164.9976043701172 158.68182373046875 L 188.92105102539062 167.77272033691406 L 212.84449768066406 142.31817626953125 L 236.7679443359375 142.31817626953125 L 260.6913757324219 91.40908813476562 L 284.6148376464844 158.68182373046875 L 308.53826904296875 118.68181610107422" stroke-linejoin="bevel" stroke-miterlimit="10" stroke-width="2" stroke-dasharray="6" clip-path="url(#NIoWObpTNoQX)"/><path fill="none" stroke="#30a2da" paint-order="fill" d="M 308.53826904296875 118.68181610107422 L 332.46173095703125 136.86363220214844 L 356.3851623535156 160.5 L 380.3086242675781 142.31817626953125 L 404.2320556640625 149.59091186523438 L 428.155517578125 127.7727279663086 L 452.0789489746094 145.9545440673828 L 476.00238037109375 171.40908813476562 L 499.92584228515625 198.68182373046875 L 523.8493041992188 122.31818389892578 L 547.772705078125 155.0454559326172" stroke-linejoin="bevel" stroke-miterlimit="10" stroke-width="2" clip-path="url(#gZGifaMcZsvo)"/><path fill="none" stroke="#30a2da" paint-order="fill" d="M 332.46173095703125 143.9049530029297 L 356.3851623535156 145.49172973632812 L 380.3086242675781 147.07850646972656 L 404.2320556640625 148.665283203125 L 428.155517578125 150.25205993652344 L 452.0789489746094 151.83883666992188 L 476.00238037109375 153.4256134033203 L 499.92584228515625 155.01239013671875 L 523.8493041992188 156.5991668701172 L 547.772705078125 158.18594360351562" stroke-linejoin="bevel" stroke-miterlimit="10" stroke-width="2" stroke-dasharray="6" clip-path="url(#sLbCIDZxCTIG)"/><path fill="none" stroke="#fc4f30" paint-order="fill" d="M 308.53826904296875 118.68181610107422 L 332.46173095703125 125.95454406738281 L 356.3851623535156 87.7727279663086 L 380.3086242675781 169.59091186523438 L 404.2320556640625 153.22727966308594 L 428.155517578125 124.13636016845703 L 452.0789489746094 178.68182373046875 L 476.00238037109375 204.13636779785156 L 499.92584228515625 178.68182373046875 L 523.8493041992188 156.86363220214844 L 547.772705078125 118.68181610107422" stroke-linejoin="bevel" stroke-miterlimit="10" stroke-width="2" clip-path="url(#GhDAxRgpRHRI)"/><path fill="none" stroke="#fc4f30" paint-order="fill" d="M 332.46173095703125 131.47520446777344 L 356.3851623535156 135.54132080078125 L 380.3086242675781 139.60743713378906 L 404.2320556640625 143.67355346679688 L 428.155517578125 147.7396697998047 L 452.0789489746094 151.8057861328125 L 476.00238037109375 155.8719024658203 L 499.92584228515625 159.93801879882812 L 523.8493041992188 164.00413513183594 L 547.772705078125 168.07025146484375" stroke-linejoin="bevel" stroke-miterlimit="10" stroke-width="2" stroke-dasharray="6" clip-path="url(#kMZMaORuqLGN)"/><path fill="none" stroke="rgb(128,128,128)" paint-order="fill" d="M 93.2272720336914 85.95454406738281 L 117.15071868896484 125.95454406738281 L 141.07415771484375 155.0454559326172 L 164.9976043701172 118.68181610107422 L 188.92105102539062 116.86363983154297 L 212.84449768066406 91.40908813476562 L 236.7679443359375 104.13636016845703 L 260.6913757324219 160.5 L 284.6148376464844 138.68182373046875 L 308.53826904296875 96.86363983154297" stroke-opacity="0.7490196078431373" stroke-linejoin="bevel" stroke-miterlimit="10" clip-path="url(#yTeIFuwLeoxr)"/><path fill="none" stroke="grey" paint-order="fill" d="M 308.53826904296875 96.86363983154297 L 332.46173095703125 140.5 L 356.3851623535156 122.31818389892578 L 380.3086242675781 158.68182373046875 L 404.2320556640625 162.31817626953125 L 428.155517578125 98.68181610107422 L 452.0789489746094 173.22727966308594 L 476.00238037109375 135.0454559326172 L 499.92584228515625 173.22727966308594 L 523.8493041992188 225.9545440673828 L 547.772705078125 182.31817626953125" stroke-linejoin="bevel" stroke-miterlimit="10" stroke-width="0.5" clip-path="url(#HxmSqLNUzTPb)"/><path fill="none" stroke="grey" paint-order="fill" d="M 308.53826904296875 96.86363983154297 L 332.46173095703125 125.95454406738281 L 356.3851623535156 96.86363983154297 L 380.3086242675781 158.68182373046875 L 404.2320556640625 136.86363220214844 L 428.155517578125 98.68181610107422 L 452.0789489746094 160.5 L 476.00238037109375 156.86363220214844 L 499.92584228515625 180.5 L 523.8493041992188 153.22727966308594 L 547.772705078125 213.22727966308594" stroke-linejoin="bevel" stroke-miterlimit="10" stroke-width="0.5" clip-path="url(#KTitaGBVVFwU)"/><path fill="none" stroke="rgb(128,128,128)" paint-order="fill" d="M 93.2272720336914 129.59091186523438 L 117.15071868896484 185.9545440673828 L 141.07415771484375 149.59091186523438 L 164.9976043701172 155.0454559326172 L 188.92105102539062 185.9545440673828 L 212.84449768066406 140.5 L 236.7679443359375 140.5 L 260.6913757324219 173.22727966308594 L 284.6148376464844 124.13636016845703 L 308.53826904296875 193.22727966308594" stroke-opacity="0.7490196078431373" stroke-linejoin="bevel" stroke-miterlimit="10" clip-path="url(#EeLXUrPRpFOu)"/><path fill="none" stroke="grey" paint-order="fill" d="M 308.53826904296875 193.22727966308594 L 332.46173095703125 164.13636779785156 L 356.3851623535156 115.04545593261719 L 380.3086242675781 131.40908813476562 L 404.2320556640625 191.40908813476562 L 428.155517578125 85.95454406738281 L 452.0789489746094 145.9545440673828 L 476.00238037109375 96.86363983154297 L 499.92584228515625 95.04545593261719 L 523.8493041992188 213.22727966308594 L 547.772705078125 93.2272720336914" stroke-linejoin="bevel" stroke-miterlimit="10" stroke-width="0.5" clip-path="url(#TftnsUSEImIL)"/><path fill="none" stroke="grey" paint-order="fill" d="M 308.53826904296875 193.22727966308594 L 332.46173095703125 167.77272033691406 L 356.3851623535156 207.77272033691406 L 380.3086242675781 129.59091186523438 L 404.2320556640625 129.59091186523438 L 428.155517578125 124.13636016845703 L 452.0789489746094 95.04545593261719 L 476.00238037109375 169.59091186523438 L 499.92584228515625 164.13636779785156 L 523.8493041992188 129.59091186523438 L 547.772705078125 182.31817626953125" stroke-linejoin="bevel" stroke-miterlimit="10" stroke-width="0.5" clip-path="url(#ANLDvhLdZMKH)"/><path fill="none" stroke="rgb(128,128,128)" paint-order="fill" d="M 93.2272720336914 165.9545440673828 L 117.15071868896484 224.13636779785156 L 141.07415771484375 195.0454559326172 L 164.9976043701172 176.86363220214844 L 188.92105102539062 53.227272033691406 L 212.84449768066406 133.22727966308594 L 236.7679443359375 102.31818389892578 L 260.6913757324219 145.9545440673828 L 284.6148376464844 98.68181610107422 L 308.53826904296875 113.2272720336914" stroke-opacity="0.7490196078431373" stroke-linejoin="bevel" stroke-miterlimit="10" clip-path="url(#BeaCpSDWsVnk)"/><path fill="none" stroke="grey" paint-order="fill" d="M 308.53826904296875 113.2272720336914 L 332.46173095703125 156.86363220214844 L 356.3851623535156 149.59091186523438 L 380.3086242675781 91.40908813476562 L 404.2320556640625 144.13636779785156 L 428.155517578125 144.13636779785156 L 452.0789489746094 164.13636779785156 L 476.00238037109375 211.40908813476562 L 499.92584228515625 165.9545440673828 L 523.8493041992188 136.86363220214844 L 547.772705078125 193.22727966308594" stroke-linejoin="bevel" stroke-miterlimit="10" stroke-width="0.5" clip-path="url(#uTGxPpSSUmGo)"/><path fill="none" stroke="grey" paint-order="fill" d="M 308.53826904296875 113.2272720336914 L 332.46173095703125 135.0454559326172 L 356.3851623535156 138.68182373046875 L 380.3086242675781 162.31817626953125 L 404.2320556640625 155.0454559326172 L 428.155517578125 167.77272033691406 L 452.0789489746094 142.31817626953125 L 476.00238037109375 120.5 L 499.92584228515625 95.04545593261719 L 523.8493041992188 213.22727966308594 L 547.772705078125 165.9545440673828" stroke-linejoin="bevel" stroke-miterlimit="10" stroke-width="0.5" clip-path="url(#vUiekTUHZNpl)"/><path fill="none" stroke="rgb(128,128,128)" paint-order="fill" d="M 93.2272720336914 142.31817626953125 L 117.15071868896484 178.68182373046875 L 141.07415771484375 218.68182373046875 L 164.9976043701172 158.68182373046875 L 188.92105102539062 164.13636779785156 L 212.84449768066406 151.40908813476562 L 236.7679443359375 125.95454406738281 L 260.6913757324219 131.40908813476562 L 284.6148376464844 167.77272033691406 L 308.53826904296875 151.40908813476562" stroke-opacity="0.7490196078431373" stroke-linejoin="bevel" stroke-miterlimit="10" clip-path="url(#zGbprNmLhveV)"/><path fill="none" stroke="grey" paint-order="fill" d="M 308.53826904296875 151.40908813476562 L 332.46173095703125 169.59091186523438 L 356.3851623535156 131.40908813476562 L 380.3086242675781 191.40908813476562 L 404.2320556640625 96.86363983154297 L 428.155517578125 173.22727966308594 L 452.0789489746094 162.31817626953125 L 476.00238037109375 218.68182373046875 L 499.92584228515625 198.68182373046875 L 523.8493041992188 131.40908813476562 L 547.772705078125 133.22727966308594" stroke-linejoin="bevel" stroke-miterlimit="10" stroke-width="0.5" clip-path="url(#OOdPdIBcuxgZ)"/><path fill="none" stroke="grey" paint-order="fill" d="M 308.53826904296875 151.40908813476562 L 332.46173095703125 167.77272033691406 L 356.3851623535156 173.22727966308594 L 380.3086242675781 173.22727966308594 L 404.2320556640625 156.86363220214844 L 428.155517578125 162.31817626953125 L 452.0789489746094 127.7727279663086 L 476.00238037109375 140.5 L 499.92584228515625 165.9545440673828 L 523.8493041992188 153.22727966308594 L 547.772705078125 171.40908813476562" stroke-linejoin="bevel" stroke-miterlimit="10" stroke-width="0.5" clip-path="url(#UDytchAdoxqf)"/><path fill="none" stroke="black" paint-order="fill" d="M 70.5 280.5 L 570.5 280.5" stroke-linejoin="bevel" stroke-miterlimit="10"/><path fill="none" stroke="black" paint-order="fill" d="M 93.5 286.5 L 93.5 278.5 M 212.5 286.5 L 212.5 278.5 M 332.5 286.5 L 332.5 278.5 M 452.5 286.5 L 452.5 278.5" stroke-linejoin="bevel" stroke-miterlimit="10"/><path fill="none" stroke="black" paint-order="fill" d="M 93.5 284.5 L 93.5 280.5 M 117.5 284.5 L 117.5 280.5 M 141.5 284.5 L 141.5 280.5 M 164.5 284.5 L 164.5 280.5 M 188.5 284.5 L 188.5 280.5 M 212.5 284.5 L 212.5 280.5 M 236.5 284.5 L 236.5 280.5 M 260.5 284.5 L 260.5 280.5 M 284.5 284.5 L 284.5 280.5 M 308.5 284.5 L 308.5 280.5 M 332.5 284.5 L 332.5 280.5 M 356.5 284.5 L 356.5 280.5 M 380.5 284.5 L 380.5 280.5 M 404.5 284.5 L 404.5 280.5 M 428.5 284.5 L 428.5 280.5 M 452.5 284.5 L 452.5 280.5 M 476.5 284.5 L 476.5 280.5 M 499.5 284.5 L 499.5 280.5 M 523.5 284.5 L 523.5 280.5 M 547.5 284.5 L 547.5 280.5" stroke-linejoin="bevel" stroke-miterlimit="10"/><text fill="#444444" stroke="none" font-family="helvetica" font-size="10pt" font-style="normal" font-weight="normal" text-decoration="normal" x="77.82727241516113" y="300.59368896484375" text-anchor="start" dominant-baseline="alphabetic" transform="matrix(1, 0, 0, 1, 0.5, 0.5)">2025</text><text fill="none" stroke="rgb(0,0,0)" font-family="helvetica" font-size="10pt" font-style="normal" font-weight="normal" text-decoration="normal" x="77.82727241516113" y="300.59368896484375" text-anchor="start" dominant-baseline="alphabetic" transform="matrix(1, 0, 0, 1, 0.5, 0.5)" stroke-opacity="0" stroke-linejoin="bevel" stroke-miterlimit="10">2025</text><text fill="#444444" stroke="none" font-family="helvetica" font-size="10pt" font-style="normal" font-weight="normal" text-decoration="normal" x="197.4444980621338" y="300.59368896484375" text-anchor="start" dominant-baseline="alphabetic" transform="matrix(1, 0, 0, 1, 0.5, 0.5)">2030</text><text fill="none" stroke="rgb(0,0,0)" font-family="helvetica" font-size="10pt" font-style="normal" font-weight="normal" text-decoration="normal" x="197.4444980621338" y="300.59368896484375" text-anchor="start" dominant-baseline="alphabetic" transform="matrix(1, 0, 0, 1, 0.5, 0.5)" stroke-opacity="0" stroke-linejoin="bevel" stroke-miterlimit="10">2030</text><text fill="#444444" stroke="none" font-family="helvetica" font-size="10pt" font-style="normal" font-weight="normal" text-decoration="normal" x="317.061731338501" y="300.59368896484375" text-anchor="start" dominant-baseline="alphabetic" transform="matrix(1, 0, 0, 1, 0.5, 0.5)">2035</text><text fill="none" stroke="rgb(0,0,0)" font-family="helvetica" font-size="10pt" font-style="normal" font-weight="normal" text-decoration="normal" x="317.061731338501" y="300.59368896484375" text-anchor="start" dominant-baseline="alphabetic" transform="matrix(1, 0, 0, 1, 0.5, 0.5)" stroke-opacity="0" stroke-linejoin="bevel" stroke-miterlimit="10">2035</text><text fill="#444444" stroke="none" font-family="helvetica" font-size="10pt" font-style="normal" font-weight="normal" text-decoration="normal" x="436.6789493560791" y="300.59368896484375" text-anchor="start" dominant-baseline="alphabetic" transform="matrix(1, 0, 0, 1, 0.5, 0.5)">2040</text><text fill="none" stroke="rgb(0,0,0)" font-family="helvetica" font-size="10pt" font-style="normal" font-weight="normal" text-decoration="normal" x="436.6789493560791" y="300.59368896484375" text-anchor="start" dominant-baseline="alphabetic" transform="matrix(1, 0, 0, 1, 0.5, 0.5)" stroke-opacity="0" stroke-linejoin="bevel" stroke-miterlimit="10">2040</text><text fill="#444444" stroke="none" font-family="helvetica" font-size="12pt" font-style="normal" font-weight="normal" text-decoration="normal" x="303.8333339691162" y="321.59368896484375" text-anchor="start" dominant-baseline="alphabetic" transform="matrix(1, 0, 0, 1, 0.5, 0.5)">Year</text><text fill="none" stroke="rgb(0,0,0)" font-family="helvetica" font-size="12pt" font-style="normal" font-weight="normal" text-decoration="normal" x="303.8333339691162" y="321.59368896484375" text-anchor="start" dominant-baseline="alphabetic" transform="matrix(1, 0, 0, 1, 0.5, 0.5)" stroke-opacity="0" stroke-linejoin="bevel" stroke-miterlimit="10">Year</text><path fill="none" stroke="black" paint-order="fill" d="M 70.5 280.5 L 70.5 30.5" stroke-linejoin="bevel" stroke-miterlimit="10"/><path fill="none" stroke="black" paint-order="fill" d="M 64.5 280.5 L 72.5 280.5 M 64.5 244.5 L 72.5 244.5 M 64.5 207.5 L 72.5 207.5 M 64.5 171.5 L 72.5 171.5 M 64.5 135.5 L 72.5 135.5 M 64.5 98.5 L 72.5 98.5 M 64.5 62.5 L 72.5 62.5" stroke-linejoin="bevel" stroke-miterlimit="10"/><path fill="none" stroke="black" paint-order="fill" d="M 66.5 280.5 L 70.5 280.5 M 66.5 273.5 L 70.5 273.5 M 66.5 265.5 L 70.5 265.5 M 66.5 258.5 L 70.5 258.5 M 66.5 251.5 L 70.5 251.5 M 66.5 244.5 L 70.5 244.5 M 66.5 236.5 L 70.5 236.5 M 66.5 229.5 L 70.5 229.5 M 66.5 222.5 L 70.5 222.5 M 66.5 215.5 L 70.5 215.5 M 66.5 207.5 L 70.5 207.5 M 66.5 200.5 L 70.5 200.5 M 66.5 193.5 L 70.5 193.5 M 66.5 185.5 L 70.5 185.5 M 66.5 178.5 L 70.5 178.5 M 66.5 171.5 L 70.5 171.5 M 66.5 164.5 L 70.5 164.5 M 66.5 156.5 L 70.5 156.5 M 66.5 149.5 L 70.5 149.5 M 66.5 142.5 L 70.5 142.5 M 66.5 135.5 L 70.5 135.5 M 66.5 127.5 L 70.5 127.5 M 66.5 120.5 L 70.5 120.5 M 66.5 113.5 L 70.5 113.5 M 66.5 105.5 L 70.5 105.5 M 66.5 98.5 L 70.5 98.5 M 66.5 91.5 L 70.5 91.5 M 66.5 84.5 L 70.5 84.5 M 66.5 76.5 L 70.5 76.5 M 66.5 69.5 L 70.5 69.5 M 66.5 62.5 L 70.5 62.5 M 66.5 55.5 L 70.5 55.5 M 66.5 47.5 L 70.5 47.5 M 66.5 40.5 L 70.5 40.5 M 66.5 33.5 L 70.5 33.5" stroke-linejoin="bevel" stroke-miterlimit="10"/><text fill="#444444" stroke="none" font-family="helvetica" font-size="10pt" font-style="normal" font-weight="normal" text-decoration="normal" x="51.55000019073486" y="284.7968444824219" text-anchor="start" dominant-baseline="alphabetic" transform="matrix(1, 0, 0, 1, 0.5, 0.5)">0</text><text fill="none" stroke="rgb(0,0,0)" font-family="helvetica" font-size="10pt" font-style="normal" font-weight="normal" text-decoration="normal" x="51.55000019073486" y="284.7968444824219" text-anchor="start" dominant-baseline="alphabetic" transform="matrix(1, 0, 0, 1, 0.5, 0.5)" stroke-opacity="0" stroke-linejoin="bevel" stroke-miterlimit="10">0</text><text fill="#444444" stroke="none" font-family="helvetica" font-size="10pt" font-style="normal" font-weight="normal" text-decoration="normal" x="44.10000038146973" y="248.43321228027344" text-anchor="start" dominant-baseline="alphabetic" transform="matrix(1, 0, 0, 1, 0.5, 0.5)">20</text><text fill="none" stroke="rgb(0,0,0)" font-family="helvetica" font-size="10pt" font-style="normal" font-weight="normal" text-decoration="normal" x="44.10000038146973" y="248.43321228027344" text-anchor="start" dominant-baseline="alphabetic" transform="matrix(1, 0, 0, 1, 0.5, 0.5)" stroke-opacity="0" stroke-linejoin="bevel" stroke-miterlimit="10">20</text><text fill="#444444" stroke="none" font-family="helvetica" font-size="10pt" font-style="normal" font-weight="normal" text-decoration="normal" x="44.10000038146973" y="212.06956481933594" text-anchor="start" dominant-baseline="alphabetic" transform="matrix(1, 0, 0, 1, 0.5, 0.5)">40</text><text fill="none" stroke="rgb(0,0,0)" font-family="helvetica" font-size="10pt" font-style="normal" font-weight="normal" text-decoration="normal" x="44.10000038146973" y="212.06956481933594" text-anchor="start" dominant-baseline="alphabetic" transform="matrix(1, 0, 0, 1, 0.5, 0.5)" stroke-opacity="0" stroke-linejoin="bevel" stroke-miterlimit="10">40</text><text fill="#444444" stroke="none" font-family="helvetica" font-size="10pt" font-style="normal" font-weight="normal" text-decoration="normal" x="44.10000038146973" y="175.7059326171875" text-anchor="start" dominant-baseline="alphabetic" transform="matrix(1, 0, 0, 1, 0.5, 0.5)">60</text><text fill="none" stroke="rgb(0,0,0)" font-family="helvetica" font-size="10pt" font-style="normal" font-weight="normal" text-decoration="normal" x="44.10000038146973" y="175.7059326171875" text-anchor="start" dominant-baseline="alphabetic" transform="matrix(1, 0, 0, 1, 0.5, 0.5)" stroke-opacity="0" stroke-linejoin="bevel" stroke-miterlimit="10">60</text><text fill="#444444" stroke="none" font-family="helvetica" font-size="10pt" font-style="normal" font-weight="normal" text-decoration="normal" x="44.10000038146973" y="139.34230041503906" text-anchor="start" dominant-baseline="alphabetic" transform="matrix(1, 0, 0, 1, 0.5, 0.5)">80</text><text fill="none" stroke="rgb(0,0,0)" font-family="helvetica" font-size="10pt" font-style="normal" font-weight="normal" text-decoration="normal" x="44.10000038146973" y="139.34230041503906" text-anchor="start" dominant-baseline="alphabetic" transform="matrix(1, 0, 0, 1, 0.5, 0.5)" stroke-opacity="0" stroke-linejoin="bevel" stroke-miterlimit="10">80</text><text fill="#444444" stroke="none" font-family="helvetica" font-size="10pt" font-style="normal" font-weight="normal" text-decoration="normal" x="36.64999961853027" y="102.9786605834961" text-anchor="start" dominant-baseline="alphabetic" transform="matrix(1, 0, 0, 1, 0.5, 0.5)">100</text><text fill="none" stroke="rgb(0,0,0)" font-family="helvetica" font-size="10pt" font-style="normal" font-weight="normal" text-decoration="normal" x="36.64999961853027" y="102.9786605834961" text-anchor="start" dominant-baseline="alphabetic" transform="matrix(1, 0, 0, 1, 0.5, 0.5)" stroke-opacity="0" stroke-linejoin="bevel" stroke-miterlimit="10">100</text><text fill="#444444" stroke="none" font-family="helvetica" font-size="10pt" font-style="normal" font-weight="normal" text-decoration="normal" x="36.64999961853027" y="66.61502456665039" text-anchor="start" dominant-baseline="alphabetic" transform="matrix(1, 0, 0, 1, 0.5, 0.5)">120</text><text fill="none" stroke="rgb(0,0,0)" font-family="helvetica" font-size="10pt" font-style="normal" font-weight="normal" text-decoration="normal" x="36.64999961853027" y="66.61502456665039" text-anchor="start" dominant-baseline="alphabetic" transform="matrix(1, 0, 0, 1, 0.5, 0.5)" stroke-opacity="0" stroke-linejoin="bevel" stroke-miterlimit="10">120</text><text fill="#444444" stroke="none" font-family="helvetica" font-size="12pt" font-style="normal" font-weight="normal" text-decoration="normal" x="-78.07499885559082" y="151" text-anchor="start" dominant-baseline="alphabetic" transform="matrix(6.123233995736766e-17, -1, 1, 6.123233995736766e-17, -125.85000038146973, 184.14999961853027)">Days suitable for transmission</text><text fill="none" stroke="rgb(0,0,0)" font-family="helvetica" font-size="12pt" font-style="normal" font-weight="normal" text-decoration="normal" x="-78.07499885559082" y="151" text-anchor="start" dominant-baseline="alphabetic" transform="matrix(6.123233995736766e-17, -1, 1, 6.123233995736766e-17, -125.85000038146973, 184.14999961853027)" stroke-opacity="0" stroke-linejoin="bevel" stroke-miterlimit="10">Days suitable for transmission</text><path fill="rgb(255,255,255)" stroke="rgb(229,229,229)" paint-order="fill" d="M 475.183349609375 205.5 L 560.5000152587891 205.5 L 560.5000152587891 270.5 L 475.183349609375 270.5 L 475.183349609375 205.5 Z" fill-opacity="0.9490196078431372" clip-path="url(#sqEQLvWJTHxN)" stroke-opacity="0.5019607843137255" stroke-linejoin="bevel" stroke-miterlimit="10"/><g clip-path="url(#sqEQLvWJTHxN)"><g transform="matrix(1, 0, 0, 1, 485.683349609375, 216)"><path fill="none" stroke="#30a2da" paint-order="fill" d="M 0.5 10.5 L 20.5 10.5" stroke-linejoin="bevel" stroke-miterlimit="10" stroke-width="2"/></g></g><g clip-path="url(#sqEQLvWJTHxN)"><text fill="#444444" stroke="none" font-family="helvetica" font-size="13px" font-style="normal" font-weight="normal" text-decoration="normal" x="510.683349609375" y="230" text-anchor="start" dominant-baseline="alphabetic" transform="matrix(1, 0, 0, 1, 0.5, 0.5)">ID 001</text></g><g clip-path="url(#sqEQLvWJTHxN)"><text fill="none" stroke="rgb(0,0,0)" font-family="helvetica" font-size="13px" font-style="normal" font-weight="normal" text-decoration="normal" x="510.683349609375" y="230" text-anchor="start" dominant-baseline="alphabetic" transform="matrix(1, 0, 0, 1, 0.5, 0.5)" stroke-opacity="0" stroke-linejoin="bevel" stroke-miterlimit="10">ID 001</text></g><g clip-path="url(#sqEQLvWJTHxN)"><g transform="matrix(1, 0, 0, 1, 485.683349609375, 239)"><path fill="none" stroke="#fc4f30" paint-order="fill" d="M 0.5 10.5 L 20.5 10.5" stroke-linejoin="bevel" stroke-miterlimit="10" stroke-width="2"/></g></g><g clip-path="url(#sqEQLvWJTHxN)"><text fill="#444444" stroke="none" font-family="helvetica" font-size="13px" font-style="normal" font-weight="normal" text-decoration="normal" x="510.683349609375" y="253" text-anchor="start" dominant-baseline="alphabetic" transform="matrix(1, 0, 0, 1, 0.5, 0.5)">ID 006</text></g><g clip-path="url(#sqEQLvWJTHxN)"><text fill="none" stroke="rgb(0,0,0)" font-family="helvetica" font-size="13px" font-style="normal" font-weight="normal" text-decoration="normal" x="510.683349609375" y="253" text-anchor="start" dominant-baseline="alphabetic" transform="matrix(1, 0, 0, 1, 0.5, 0.5)" stroke-opacity="0" stroke-linejoin="bevel" stroke-miterlimit="10">ID 006</text></g><text fill="black" stroke="none" font-family="helvetica" font-size="14pt" font-style="normal" font-weight="normal" text-decoration="normal" x="0" y="15" text-anchor="start" dominant-baseline="alphabetic" transform="matrix(1, 0, 0, 1, 5.5, 5.5)">C. Addis Ababa</text><text fill="none" stroke="rgb(0,0,0)" font-family="helvetica" font-size="14pt" font-style="normal" font-weight="normal" text-decoration="normal" x="0" y="15" text-anchor="start" dominant-baseline="alphabetic" transform="matrix(1, 0, 0, 1, 5.5, 5.5)" stroke-opacity="0" stroke-linejoin="bevel" stroke-miterlimit="10">C. Addis Ababa</text></svg>