<svg version="1.1" xmlns="http://www.w3.org/2000/svg" width="600" height="334"><defs><clipPath id="RofJKnCOBicb"><path fill="none" stroke="none" d="M 70.5 33.5 L 570.5 33.5 L 570.5 283.5 L 70.5 283.5 L 70.5 33.5 Z"/></clipPath><clipPath id="dThwkmfURahE"><path fill="none" stroke="none" d="M 70.5 33.5 L 570.5 33.5 L 570.5 283.5 L 70.5 283.5 L 70.5 33.5 Z"/></clipPath><clipPath id="xDhfxkGTnCFl"><path fill="none" stroke="none" d="M 70.5 33.5 L 570.5 33.5 L 570.5 283.5 L 70.5 283.5 L 70.5 33.5 Z"/></clipPath><clipPath id="UHpzLdrkcdXO"><path fill="none" stroke="none" d="M 70.5 33.5 L 570.5 33.5 L 570.5 283.5 L 70.5 283.5 L 70.5 33.5 Z"/></clipPath><clipPath id="LVLWOINnCzCa"><path fill="none" stroke="none" d="M 70.5 33.5 L 570.5 33.5 L 570.5 283.5 L 70.5 283.5 L 70.5 33.5 Z"/></clipPath><clipPath id="mgkLJzeCxhEz"><path fill="none" stroke="none" d="M 70.5 33.5 L 570.5 33.5 L 570.5 283.5 L 70.5 283.5 L 70.5 33.5 Z"/></clipPath><clipPath id="rbneItfBCcei"><path fill="none" stroke="none" d="M 70.5 33.5 L 570.5 33.5 L 570.5 283.5 L 70.5 283.5 L 70.5 33.5 Z"/></clipPath><clipPath id="wNUbbRXsIAEA"><path fill="none" stroke="none" d="M 70.5 33.5 L 570.5 33.5 L 570.5 283.5 L 70.5 283.5 L 70.5 33.5 Z"/></clipPath><clipPath id="RAotZWINmmcJ"><path fill="none" stroke="none" d="M 70.5 33.5 L 570.5 33.5 L 570.5 283.5 L 70.5 283.5 L 70.5 33.5 Z"/></clipPath><clipPath id="bcNQCsTrzNBc"><path fill="none" stroke="none" d="M 70.5 33.5 L 570.5 33.5 L 570.5 283.5 L 70.5 283.5 L 70.5 33.5 Z"/></clipPath><clipPath id="vFMBtztbFotH"><path fill="none" stroke="none" d="M 70.5 33.5 L 570.5 33.5 L 570.5 283.5 L 70.5 283.5 L 70.5 33.5 Z"/></clipPath><clipPath id="nZJTrtArIhHi"><path fill="none" stroke="none" d="M 70.5 33.5 L 570.5 33.5 L 570.5 283.5 L 70.5 283.5 L 70.5 33.5 Z"/></clipPath><clipPath id="MnyPlQHyhUoD"><path fill="none" stroke="none" d="M 70.5 33.5 L 570.5 33.5 L 570.5 283.5 L 70.5 283.5 L 70.5 33.5 Z"/></clipPath><clipPath id="GaTKhUVBvesF"><path fill="none" stroke="none" d="M 70.5 33.5 L 570.5 33.5 L 570.5 283.5 L 70.5 283.5 L 70.5 33.5 Z"/></clipPath><clipPath id="VTNfHBknPkkh"><path fill="none" stroke="none" d="M 70.5 33.5 L 570.5 33.5 L 570.5 283.5 L 70.5 283.5 L 70.5 33.5 Z"/></clipPath><clipPath id="tZgZJGtTgskD"><path fill="none" stroke="none" d="M 70.5 33.5 L 570.5 33.5 L 570.5 283.5 L 70.5 283.5 L 70.5 33.5 Z"/></clipPath><clipPath id="HdroaMkdHTWH"><path fill="none" stroke="none" d="M 70.5 33.5 L 570.5 33.5 L 570.5 283.5 L 70.5 283.5 L 70.5 33.5 Z"/></clipPath><clipPath id="hvUBZdkwNbqD"><path fill="none" stroke="none" d="M 70.5 33.5 L 570.5 33.5 L 570.5 283.5 L 70.5 283.5 L 70.5 33.5 Z"/></clipPath><clipPath id="zzWuhiNaHvTG"><path fill="none" stroke="none" d="M 70.5 33.5 L 570.5 33.5 L 570.5 283.5 L 70.5 283.5 L 70.5 33.5 Z"/></clipPath><clipPath id="WuxrNfzxbspI"><path fill="none" stroke="none" d="M 70.5 33.5 L 570.5 33.5 L 570.5 283.5 L 70.5 283.5 L 70.5 33.5 Z"/></clipPath><clipPath id="ZFPnUqOqElnD"><path fill="none" stroke="none" d="M 70.5 33.5 L 570.5 33.5 L 570.5 283.5 L 70.5 283.5 L 70.5 33.5 Z"/></clipPath><clipPath id="EBMJBJebPFGF"><path fill="none" stroke="none" d="M 70.5 33.5 L 570.5 33.5 L 570.5 283.5 L 70.5 283.5 L 70.5 33.5 Z"/></clipPath><clipPath id="PtoliCGvCJWQ"><path fill="none" stroke="none" d="M 70.5 33.5 L 570.5 33.5 L 570.5 283.5 L 70.5 283.5 L 70.5 33.5 Z"/></clipPath></defs><path fill="none" stroke="#e5e5e5" paint-order="fill" d="M 70.5 33.5 L 570.5 33.5 L 570.5 283.5 L 70.5 283.5 L 70.5 33.5 Z" stroke-linejoin="bevel" stroke-miterlimit="10"/><path fill="none" stroke="black" paint-order="fill" d="M 332.46172248803487 33.5 L 332.46172248803487 283.5" stroke-linejoin="bevel" stroke-miterlimit="10" stroke-width="3" stroke-dasharray="6" clip-path="url(#xDhfxkGTnCFl)"/><path fill="none" stroke="#9467bd" paint-order="fill" d="M 93.2272720336914 143.85049438476562 L 117.15071868896484 130.15936279296875 L 141.07415771484375 228.73548889160156 L 164.9976043701172 206.82968139648438 L 188.92105102539062 108.2535629272461 L 212.84449768066406 154.8033905029297 L 236.7679443359375 242.42662048339844 L 260.6913757324219 143.85049438476562 L 284.6148376464844 215.0443572998047 L 308.53826904296875 179.4474334716797" stroke-linejoin="bevel" stroke-miterlimit="10" stroke-width="2" clip-path="url(#UHpzLdrkcdXO)"/><path fill="none" stroke="#9467bd" paint-order="fill" d="M 93.2272720336914 143.85049438476562 L 117.15071868896484 130.15936279296875 L 141.07415771484375 228.73548889160156 L 164.9976043701172 206.82968139648438 L 188.92105102539062 108.2535629272461 L 212.84449768066406 154.8033905029297 L 236.7679443359375 242.42662048339844 L 260.6913757324219 143.85049438476562 L 284.6148376464844 215.0443572998047 L 308.53826904296875 179.4474334716797" stroke-linejoin="bevel" stroke-miterlimit="10" stroke-width="2" stroke-dasharray="6" clip-path="url(#LVLWOINnCzCa)"/><path fill="none" stroke="#30a2da" paint-order="fill" d="M 308.53826904296875 179.4474334716797 L 332.46173095703125 141.11227416992188 L 356.3851623535156 102.77710723876953 L 380.3086242675781 165.7563018798828 L 404.2320556640625 193.1385498046875 L 428.155517578125 69.91840362548828 L 452.0789489746094 182.18565368652344 L 476.00238037109375 215.0443572998047 L 499.92584228515625 143.85049438476562 L 523.8493041992188 160.27984619140625 L 547.772705078125 215.0443572998047" stroke-linejoin="bevel" stroke-miterlimit="10" stroke-width="2" clip-path="url(#mgkLJzeCxhEz)"/><path fill="none" stroke="#30a2da" paint-order="fill" d="M 332.46173095703125 127.91899871826172 L 356.3851623535156 134.80604553222656 L 380.3086242675781 141.69309997558594 L 404.2320556640625 148.5801544189453 L 428.155517578125 155.4672088623047 L 452.0789489746094 162.35426330566406 L 476.00238037109375 169.24131774902344 L 499.92584228515625 176.1283721923828 L 523.8493041992188 183.01541137695312 L 547.772705078125 189.9024658203125" stroke-linejoin="bevel" stroke-miterlimit="10" stroke-width="2" stroke-dasharray="6" clip-path="url(#rbneItfBCcei)"/><path fill="none" stroke="#fc4f30" paint-order="fill" d="M 308.53826904296875 179.4474334716797 L 332.46173095703125 110.99178314208984 L 356.3851623535156 242.42662048339844 L 380.3086242675781 220.52081298828125 L 404.2320556640625 173.97097778320312 L 428.155517578125 127.421142578125 L 452.0789489746094 182.18565368652344 L 476.00238037109375 195.8767852783203 L 499.92584228515625 168.49452209472656 L 523.8493041992188 157.5416259765625 L 547.772705078125 100.03887939453125" stroke-linejoin="bevel" stroke-miterlimit="10" stroke-width="2" clip-path="url(#wNUbbRXsIAEA)"/><path fill="none" stroke="#fc4f30" paint-order="fill" d="M 332.46173095703125 190.64926147460938 L 356.3851623535156 185.60427856445312 L 380.3086242675781 180.55931091308594 L 404.2320556640625 175.51434326171875 L 428.155517578125 170.4693603515625 L 452.0789489746094 165.4243927001953 L 476.00238037109375 160.37942504882812 L 499.92584228515625 155.33444213867188 L 523.8493041992188 150.2894744873047 L 547.772705078125 145.24449157714844" stroke-linejoin="bevel" stroke-miterlimit="10" stroke-width="2" stroke-dasharray="6" clip-path="url(#RAotZWINmmcJ)"/><path fill="none" stroke="rgb(128,128,128)" paint-order="fill" d="M 93.2272720336914 250.64129638671875 L 117.15071868896484 163.01806640625 L 141.07415771484375 61.7037239074707 L 164.9976043701172 132.8975830078125 L 188.92105102539062 102.77710723876953 L 212.84449768066406 149.3269500732422 L 236.7679443359375 141.11227416992188 L 260.6913757324219 141.11227416992188 L 284.6148376464844 143.85049438476562 L 308.53826904296875 108.2535629272461" stroke-opacity="0.7490196078431373" stroke-linejoin="bevel" stroke-miterlimit="10" clip-path="url(#bcNQCsTrzNBc)"/><path fill="none" stroke="grey" paint-order="fill" d="M 308.53826904296875 108.2535629272461 L 332.46173095703125 86.3477554321289 L 356.3851623535156 135.6358184814453 L 380.3086242675781 72.65662384033203 L 404.2320556640625 110.99178314208984 L 428.155517578125 102.77710723876953 L 452.0789489746094 102.77710723876953 L 476.00238037109375 231.4737091064453 L 499.92584228515625 152.06517028808594 L 523.8493041992188 245.1648406982422 L 547.772705078125 217.78257751464844" stroke-linejoin="bevel" stroke-miterlimit="10" stroke-width="0.5" clip-path="url(#vFMBtztbFotH)"/><path fill="none" stroke="grey" paint-order="fill" d="M 308.53826904296875 108.2535629272461 L 332.46173095703125 119.20645904541016 L 356.3851623535156 141.11227416992188 L 380.3086242675781 204.09146118164062 L 404.2320556640625 209.56790161132812 L 428.155517578125 182.18565368652344 L 452.0789489746094 83.60952758789062 L 476.00238037109375 135.6358184814453 L 499.92584228515625 149.3269500732422 L 523.8493041992188 163.01806640625 L 547.772705078125 146.58871459960938" stroke-linejoin="bevel" stroke-miterlimit="10" stroke-width="0.5" clip-path="url(#nZJTrtArIhHi)"/><path fill="none" stroke="rgb(128,128,128)" paint-order="fill" d="M 93.2272720336914 110.99178314208984 L 117.15071868896484 135.6358184814453 L 141.07415771484375 91.82420349121094 L 164.9976043701172 209.56790161132812 L 188.92105102539062 198.61500549316406 L 212.84449768066406 130.15936279296875 L 236.7679443359375 179.4474334716797 L 260.6913757324219 102.77710723876953 L 284.6148376464844 204.09146118164062 L 308.53826904296875 165.7563018798828" stroke-opacity="0.7490196078431373" stroke-linejoin="bevel" stroke-miterlimit="10" clip-path="url(#MnyPlQHyhUoD)"/><path fill="none" stroke="grey" paint-order="fill" d="M 308.53826904296875 165.7563018798828 L 332.46173095703125 124.68291473388672 L 356.3851623535156 138.37403869628906 L 380.3086242675781 105.51533508300781 L 404.2320556640625 130.15936279296875 L 428.155517578125 119.20645904541016 L 452.0789489746094 132.8975830078125 L 476.00238037109375 86.3477554321289 L 499.92584228515625 124.68291473388672 L 523.8493041992188 113.73001098632812 L 547.772705078125 187.662109375" stroke-linejoin="bevel" stroke-miterlimit="10" stroke-width="0.5" clip-path="url(#GaTKhUVBvesF)"/><path fill="none" stroke="grey" paint-order="fill" d="M 308.53826904296875 165.7563018798828 L 332.46173095703125 56.227272033691406 L 356.3851623535156 171.2327423095703 L 380.3086242675781 187.662109375 L 404.2320556640625 143.85049438476562 L 428.155517578125 119.20645904541016 L 452.0789489746094 206.82968139648438 L 476.00238037109375 146.58871459960938 L 499.92584228515625 195.8767852783203 L 523.8493041992188 100.03887939453125 L 547.772705078125 78.1330795288086" stroke-linejoin="bevel" stroke-miterlimit="10" stroke-width="0.5" clip-path="url(#VTNfHBknPkkh)"/><path fill="none" stroke="rgb(128,128,128)" paint-order="fill" d="M 93.2272720336914 198.61500549316406 L 117.15071868896484 130.15936279296875 L 141.07415771484375 130.15936279296875 L 164.9976043701172 157.5416259765625 L 188.92105102539062 225.9972686767578 L 212.84449768066406 113.73001098632812 L 236.7679443359375 250.64129638671875 L 260.6913757324219 97.3006591796875 L 284.6148376464844 157.5416259765625 L 308.53826904296875 72.65662384033203" stroke-opacity="0.7490196078431373" stroke-linejoin="bevel" stroke-miterlimit="10" clip-path="url(#tZgZJGtTgskD)"/><path fill="none" stroke="grey" paint-order="fill" d="M 308.53826904296875 72.65662384033203 L 332.46173095703125 190.40032958984375 L 356.3851623535156 124.68291473388672 L 380.3086242675781 135.6358184814453 L 404.2320556640625 179.4474334716797 L 428.155517578125 206.82968139648438 L 452.0789489746094 154.8033905029297 L 476.00238037109375 176.70919799804688 L 499.92584228515625 141.11227416992188 L 523.8493041992188 193.1385498046875 L 547.772705078125 154.8033905029297" stroke-linejoin="bevel" stroke-miterlimit="10" stroke-width="0.5" clip-path="url(#HdroaMkdHTWH)"/><path fill="none" stroke="grey" paint-order="fill" d="M 308.53826904296875 72.65662384033203 L 332.46173095703125 138.37403869628906 L 356.3851623535156 135.6358184814453 L 380.3086242675781 173.97097778320312 L 404.2320556640625 190.40032958984375 L 428.155517578125 179.4474334716797 L 452.0789489746094 130.15936279296875 L 476.00238037109375 141.11227416992188 L 499.92584228515625 127.421142578125 L 523.8493041992188 176.70919799804688 L 547.772705078125 121.94468688964844" stroke-linejoin="bevel" stroke-miterlimit="10" stroke-width="0.5" clip-path="url(#hvUBZdkwNbqD)"/><path fill="none" stroke="rgb(128,128,128)" paint-order="fill" d="M 93.2272720336914 231.4737091064453 L 117.15071868896484 141.11227416992188 L 141.07415771484375 163.01806640625 L 164.9976043701172 127.421142578125 L 188.92105102539062 206.82968139648438 L 212.84449768066406 212.30613708496094 L 236.7679443359375 182.18565368652344 L 260.6913757324219 130.15936279296875 L 284.6148376464844 141.11227416992188 L 308.53826904296875 193.1385498046875" stroke-opacity="0.7490196078431373" stroke-linejoin="bevel" stroke-miterlimit="10" clip-path="url(#zzWuhiNaHvTG)"/><path fill="none" stroke="grey" paint-order="fill" d="M 308.53826904296875 193.1385498046875 L 332.46173095703125 143.85049438476562 L 356.3851623535156 173.97097778320312 L 380.3086242675781 61.7037239074707 L 404.2320556640625 89.08598327636719 L 428.155517578125 146.58871459960938 L 452.0789489746094 231.4737091064453 L 476.00238037109375 217.78257751464844 L 499.92584228515625 143.85049438476562 L 523.8493041992188 176.70919799804688 L 547.772705078125 121.94468688964844" stroke-linejoin="bevel" stroke-miterlimit="10" stroke-width="0.5" clip-path="url(#WuxrNfzxbspI)"/><path fill="none" stroke="grey" paint-order="fill" d="M 308.53826904296875 193.1385498046875 L 332.46173095703125 149.3269500732422 L 356.3851623535156 121.94468688964844 L 380.3086242675781 127.421142578125 L 404.2320556640625 184.9238739013672 L 428.155517578125 171.2327423095703 L 452.0789489746094 119.20645904541016 L 476.00238037109375 212.30613708496094 L 499.92584228515625 152.06517028808594 L 523.8493041992188 121.94468688964844 L 547.772705078125 78.1330795288086" stroke-linejoin="bevel" stroke-miterlimit="10" stroke-width="0.5" clip-path="url(#ZFPnUqOqElnD)"/><path fill="none" stroke="black" paint-order="fill" d="M 70.5 283.5 L 570.5 283.5" stroke-linejoin="bevel" stroke-miterlimit="10"/><path fill="none" stroke="black" paint-order="fill" d="M 93.5 289.5 L 93.5 281.5 M 212.5 289.5 L 212.5 281.5 M 332.5 289.5 L 332.5 281.5 M 452.5 289.5 L 452.5 281.5" stroke-linejoin="bevel" stroke-miterlimit="10"/><path fill="none" stroke="black" paint-order="fill" d="M 93.5 287.5 L 93.5 283.5 M 117.5 287.5 L 117.5 283.5 M 141.5 287.5 L 141.5 283.5 M 164.5 287.5 L 164.5 283.5 M 188.5 287.5 L 188.5 283.5 M 212.5 287.5 L 212.5 283.5 M 236.5 287.5 L 236.5 283.5 M 260.5 287.5 L 260.5 283.5 M 284.5 287.5 L 284.5 283.5 M 308.5 287.5 L 308.5 283.5 M 332.5 287.5 L 332.5 283.5 M 356.5 287.5 L 356.5 283.5 M 380.5 287.5 L 380.5 283.5 M 404.5 287.5 L 404.5 283.5 M 428.5 287.5 L 428.5 283.5 M 452.5 287.5 L 452.5 283.5 M 476.5 287.5 L 476.5 283.5 M 499.5 287.5 L 499.5 283.5 M 523.5 287.5 L 523.5 283.5 M 547.5 287.5 L 547.5 283.5" stroke-linejoin="bevel" stroke-miterlimit="10"/><text fill="#444444" stroke="none" font-family="helvetica" font-size="10pt" font-style="normal" font-weight="normal" text-decoration="normal" x="79.36060523986816" y="304" text-anchor="start" dominant-baseline="alphabetic" transform="matrix(1, 0, 0, 1, 0.5, 0.5)">2025</text><text fill="none" stroke="rgb(0,0,0)" font-family="helvetica" font-size="10pt" font-style="normal" font-weight="normal" text-decoration="normal" x="79.36060523986816" y="304" text-anchor="start" dominant-baseline="alphabetic" transform="matrix(1, 0, 0, 1, 0.5, 0.5)" stroke-opacity="0" stroke-linejoin="bevel" stroke-miterlimit="10">2025</text><text fill="#444444" stroke="none" font-family="helvetica" font-size="10pt" font-style="normal" font-weight="normal" text-decoration="normal" x="198.97783088684082" y="304" text-anchor="start" dominant-baseline="alphabetic" transform="matrix(1, 0, 0, 1, 0.5, 0.5)">2030</text><text fill="none" stroke="rgb(0,0,0)" font-family="helvetica" font-size="10pt" font-style="normal" font-weight="normal" text-decoration="normal" x="198.97783088684082" y="304" text-anchor="start" dominant-baseline="alphabetic" transform="matrix(1, 0, 0, 1, 0.5, 0.5)" stroke-opacity="0" stroke-linejoin="bevel" stroke-miterlimit="10">2030</text><text fill="#444444" stroke="none" font-family="helvetica" font-size="10pt" font-style="normal" font-weight="normal" text-decoration="normal" x="318.595064163208" y="304" text-anchor="start" dominant-baseline="alphabetic" transform="matrix(1, 0, 0, 1, 0.5, 0.5)">2035</text><text fill="none" stroke="rgb(0,0,0)" font-family="helvetica" font-size="10pt" font-style="normal" font-weight="normal" text-decoration="normal" x="318.595064163208" y="304" text-anchor="start" dominant-baseline="alphabetic" transform="matrix(1, 0, 0, 1, 0.5, 0.5)" stroke-opacity="0" stroke-linejoin="bevel" stroke-miterlimit="10">2035</text><text fill="#444444" stroke="none" font-family="helvetica" font-size="10pt" font-style="normal" font-weight="normal" text-decoration="normal" x="438.21228218078613" y="304" text-anchor="start" dominant-baseline="alphabetic" transform="matrix(1, 0, 0, 1, 0.5, 0.5)">2040</text><text fill="none" stroke="rgb(0,0,0)" font-family="helvetica" font-size="10pt" font-style="normal" font-weight="normal" text-decoration="normal" x="438.21228218078613" y="304" text-anchor="start" dominant-baseline="alphabetic" transform="matrix(1, 0, 0, 1, 0.5, 0.5)" stroke-opacity="0" stroke-linejoin="bevel" stroke-miterlimit="10">2040</text><text fill="#444444" stroke="none" font-family="helvetica" font-size="12pt" font-style="normal" font-weight="normal" text-decoration="normal" x="305.3166666030884" y="327" text-anchor="start" dominant-baseline="alphabetic" transform="matrix(1, 0, 0, 1, 0.5, 0.5)">Year</text><text fill="none" stroke="rgb(0,0,0)" font-family="helvetica" font-size="12pt" font-style="normal" font-weight="normal" text-decoration="normal" x="305.3166666030884" y="327" text-anchor="start" dominant-baseline="alphabetic" transform="matrix(1, 0, 0, 1, 0.5, 0.5)" stroke-opacity="0" stroke-linejoin="bevel" stroke-miterlimit="10">Year</text><path fill="none" stroke="black" paint-order="fill" d="M 70.5 283.5 L 70.5 33.5" stroke-linejoin="bevel" stroke-miterlimit="10"/><path fill="none" stroke="black" paint-order="fill" d="M 64.5 283.5 L 72.5 283.5 M 64.5 228.5 L 72.5 228.5 M 64.5 173.5 L 72.5 173.5 M 64.5 119.5 L 72.5 119.5 M 64.5 64.5 L 72.5 64.5" stroke-linejoin="bevel" stroke-miterlimit="10"/><path fill="none" stroke="black" paint-order="fill" d="M 66.5 283.5 L 70.5 283.5 M 66.5 272.5 L 70.5 272.5 M 66.5 261.5 L 70.5 261.5 M 66.5 250.5 L 70.5 250.5 M 66.5 239.5 L 70.5 239.5 M 66.5 228.5 L 70.5 228.5 M 66.5 217.5 L 70.5 217.5 M 66.5 206.5 L 70.5 206.5 M 66.5 195.5 L 70.5 195.5 M 66.5 184.5 L 70.5 184.5 M 66.5 173.5 L 70.5 173.5 M 66.5 163.5 L 70.5 163.5 M 66.5 152.5 L 70.5 152.5 M 66.5 141.5 L 70.5 141.5 M 66.5 130.5 L 70.5 130.5 M 66.5 119.5 L 70.5 119.5 M 66.5 108.5 L 70.5 108.5 M 66.5 97.5 L 70.5 97.5 M 66.5 86.5 L 70.5 86.5 M 66.5 75.5 L 70.5 75.5 M 66.5 64.5 L 70.5 64.5 M 66.5 53.5 L 70.5 53.5 M 66.5 42.5 L 70.5 42.5" stroke-linejoin="bevel" stroke-miterlimit="10"/><text fill="#444444" stroke="none" font-family="helvetica" font-size="10pt" font-style="normal" font-weight="normal" text-decoration="normal" x="52.31666660308838" y="288" text-anchor="start" dominant-baseline="alphabetic" transform="matrix(1, 0, 0, 1, 0.5, 0.5)">0</text><text fill="none" stroke="rgb(0,0,0)" font-family="helvetica" font-size="10pt" font-style="normal" font-weight="normal" text-decoration="normal" x="52.31666660308838" y="288" text-anchor="start" dominant-baseline="alphabetic" transform="matrix(1, 0, 0, 1, 0.5, 0.5)" stroke-opacity="0" stroke-linejoin="bevel" stroke-miterlimit="10">0</text><text fill="#444444" stroke="none" font-family="helvetica" font-size="10pt" font-style="normal" font-weight="normal" text-decoration="normal" x="45.63333320617676" y="233.23548889160156" text-anchor="start" dominant-baseline="alphabetic" transform="matrix(1, 0, 0, 1, 0.5, 0.5)">20</text><text fill="none" stroke="rgb(0,0,0)" font-family="helvetica" font-size="10pt" font-style="normal" font-weight="normal" text-decoration="normal" x="45.63333320617676" y="233.23548889160156" text-anchor="start" dominant-baseline="alphabetic" transform="matrix(1, 0, 0, 1, 0.5, 0.5)" stroke-opacity="0" stroke-linejoin="bevel" stroke-miterlimit="10">20</text><text fill="#444444" stroke="none" font-family="helvetica" font-size="10pt" font-style="normal" font-weight="normal" text-decoration="normal" x="45.63333320617676" y="178.47097778320312" text-anchor="start" dominant-baseline="alphabetic" transform="matrix(1, 0, 0, 1, 0.5, 0.5)">40</text><text fill="none" stroke="rgb(0,0,0)" font-family="helvetica" font-size="10pt" font-style="normal" font-weight="normal" text-decoration="normal" x="45.63333320617676" y="178.47097778320312" text-anchor="start" dominant-baseline="alphabetic" transform="matrix(1, 0, 0, 1, 0.5, 0.5)" stroke-opacity="0" stroke-linejoin="bevel" stroke-miterlimit="10">40</text><text fill="#444444" stroke="none" font-family="helvetica" font-size="10pt" font-style="normal" font-weight="normal" text-decoration="normal" x="45.63333320617676" y="123.70645904541016" text-anchor="start" dominant-baseline="alphabetic" transform="matrix(1, 0, 0, 1, 0.5, 0.5)">60</text><text fill="none" stroke="rgb(0,0,0)" font-family="helvetica" font-size="10pt" font-style="normal" font-weight="normal" text-decoration="normal" x="45.63333320617676" y="123.70645904541016" text-anchor="start" dominant-baseline="alphabetic" transform="matrix(1, 0, 0, 1, 0.5, 0.5)" stroke-opacity="0" stroke-linejoin="bevel" stroke-miterlimit="10">60</text><text fill="#444444" stroke="none" font-family="helvetica" font-size="10pt" font-style="normal" font-weight="normal" text-decoration="normal" x="45.63333320617676" y="68.94194793701172" text-anchor="start" dominant-baseline="alphabetic" transform="matrix(1, 0, 0, 1, 0.5, 0.5)">80</text><text fill="none" stroke="rgb(0,0,0)" font-family="helvetica" font-size="10pt" font-style="normal" font-weight="normal" text-decoration="normal" x="45.63333320617676" y="68.94194793701172" text-anchor="start" dominant-baseline="alphabetic" transform="matrix(1, 0, 0, 1, 0.5, 0.5)" stroke-opacity="0" stroke-linejoin="bevel" stroke-miterlimit="10">80</text><text fill="#444444" stroke="none" font-family="helvetica" font-size="12pt" font-style="normal" font-weight="normal" text-decoration="normal" x="-58.575002670288086" y="154" text-anchor="start" dominant-baseline="alphabetic" transform="matrix(6.123233995736766e-17, -1, 1, 6.123233995736766e-17, -119.86666679382324, 196.13333320617676)">Days suitable for transmission</text><text fill="none" stroke="rgb(0,0,0)" font-family="helvetica" font-size="12pt" font-style="normal" font-weight="normal" text-decoration="normal" x="-58.575002670288086" y="154" text-anchor="start" dominant-baseline="alphabetic" transform="matrix(6.123233995736766e-17, -1, 1, 6.123233995736766e-17, -119.86666679382324, 196.13333320617676)" stroke-opacity="0" stroke-linejoin="bevel" stroke-miterlimit="10">Days suitable for transmission</text><path fill="rgb(255,255,255)" stroke="rgb(229,229,229)" paint-order="fill" d="M 477.0333251953125 208.5 L 560.4999847412109 208.5 L 560.4999847412109 273.5 L 477.0333251953125 273.5 L 477.0333251953125 208.5 Z" fill-opacity="0.9490196078431372" clip-path="url(#EBMJBJebPFGF)" stroke-opacity="0.5019607843137255" stroke-linejoin="bevel" stroke-miterlimit="10"/><g clip-path="url(#EBMJBJebPFGF)"><g transform="matrix(1, 0, 0, 1, 487.5333251953125, 219)"><path fill="none" stroke="#30a2da" paint-order="fill" d="M 0.5 10.5 L 20.5 10.5" stroke-linejoin="bevel" stroke-miterlimit="10" stroke-width="2"/></g></g><g clip-path="url(#EBMJBJebPFGF)"><text fill="#444444" stroke="none" font-family="helvetica" font-size="13px" font-style="normal" font-weight="normal" text-decoration="normal" x="512.5333251953125" y="233.5" text-anchor="start" dominant-baseline="alphabetic" transform="matrix(1, 0, 0, 1, 0.5, 0.5)">ID 001</text></g><g clip-path="url(#EBMJBJebPFGF)"><text fill="none" stroke="rgb(0,0,0)" font-family="helvetica" font-size="13px" font-style="normal" font-weight="normal" text-decoration="normal" x="512.5333251953125" y="233.5" text-anchor="start" dominant-baseline="alphabetic" transform="matrix(1, 0, 0, 1, 0.5, 0.5)" stroke-opacity="0" stroke-linejoin="bevel" stroke-miterlimit="10">ID 001</text></g><g clip-path="url(#EBMJBJebPFGF)"><g transform="matrix(1, 0, 0, 1, 487.5333251953125, 242)"><path fill="none" stroke="#fc4f30" paint-order="fill" d="M 0.5 10.5 L 20.5 10.5" stroke-linejoin="bevel" stroke-miterlimit="10" stroke-width="2"/></g></g><g clip-path="url(#EBMJBJebPFGF)"><text fill="#444444" stroke="none" font-family="helvetica" font-size="13px" font-style="normal" font-weight="normal" text-decoration="normal" x="512.5333251953125" y="256.5" text-anchor="start" dominant-baseline="alphabetic" transform="matrix(1, 0, 0, 1, 0.5, 0.5)">ID 006</text></g><g clip-path="url(#EBMJBJebPFGF)"><text fill="none" stroke="rgb(0,0,0)" font-family="helvetica" font-size="13px" font-style="normal" font-weight="normal" text-decoration="normal" x="512.5333251953125" y="256.5" text-anchor="start" dominant-baseline="alphabetic" transform="matrix(1, 0, 0, 1, 0.5, 0.5)" stroke-opacity="0" stroke-linejoin="bevel" stroke-miterlimit="10">ID 006</text></g><text fill="black" stroke="none" font-family="helvetica" font-size="14pt" font-style="normal" font-weight="normal" text-decoration="normal" x="0" y="18" text-anchor="start" dominant-baseline="alphabetic" transform="matrix(1, 0, 0, 1, 5.5, 5.5)">A. London</text><text fill="none" stroke="rgb(0,0,0)" font-family="helvetica" font-size="14pt" font-style="normal" font-weight="normal" text-decoration="normal" x="0" y="18" text-anchor="start" dominant-baseline="alphabetic" transform="matrix(1, 0, 0, 1, 5.5, 5.5)" stroke-opacity="0" stroke-linejoin="bevel" stroke-miterlimit="10">A. London</text></svg>