<svg version="1.1" xmlns="http://www.w3.org/2000/svg" width="605" height="336"><defs><clipPath id="LHEAGDsIxIhx"><path fill="none" stroke="none" d="M 75.5 35.5 L 575.5 35.5 L 575.5 285.5 L 75.5 285.5 L 75.5 35.5 Z"/></clipPath><clipPath id="itBlAKSfyFIk"><path fill="none" stroke="none" d="M 75.5 35.5 L 575.5 35.5 L 575.5 285.5 L 75.5 285.5 L 75.5 35.5 Z"/></clipPath><clipPath id="afsMbWyzaBEO"><path fill="none" stroke="none" d="M 75.5 35.5 L 575.5 35.5 L 575.5 285.5 L 75.5 285.5 L 75.5 35.5 Z"/></clipPath><clipPath id="AnODqcIWNauv"><path fill="none" stroke="none" d="M 75.5 35.5 L 575.5 35.5 L 575.5 285.5 L 75.5 285.5 L 75.5 35.5 Z"/></clipPath><clipPath id="KedVVCelDtDE"><path fill="none" stroke="none" d="M 75.5 35.5 L 575.5 35.5 L 575.5 285.5 L 75.5 285.5 L 75.5 35.5 Z"/></clipPath><clipPath id="XTqvhTKzylPs"><path fill="none" stroke="none" d="M 75.5 35.5 L 575.5 35.5 L 575.5 285.5 L 75.5 285.5 L 75.5 35.5 Z"/></clipPath><clipPath id="cWrTvFuQFrlU"><path fill="none" stroke="none" d="M 75.5 35.5 L 575.5 35.5 L 575.5 285.5 L 75.5 285.5 L 75.5 35.5 Z"/></clipPath><clipPath id="dkCaorDfbSaT"><path fill="none" stroke="none" d="M 75.5 35.5 L 575.5 35.5 L 575.5 285.5 L 75.5 285.5 L 75.5 35.5 Z"/></clipPath><clipPath id="JVevCJFaTApe"><path fill="none" stroke="none" d="M 75.5 35.5 L 575.5 35.5 L 575.5 285.5 L 75.5 285.5 L 75.5 35.5 Z"/></clipPath><clipPath id="euzUXUGMkEBf"><path fill="none" stroke="none" d="M 75.5 35.5 L 575.5 35.5 L 575.5 285.5 L 75.5 285.5 L 75.5 35.5 Z"/></clipPath><clipPath id="cmthQtkgOTbB"><path fill="none" stroke="none" d="M 75.5 35.5 L 575.5 35.5 L 575.5 285.5 L 75.5 285.5 L 75.5 35.5 Z"/></clipPath><clipPath id="oKGxyyXlRrAm"><path fill="none" stroke="none" d="M 75.5 35.5 L 575.5 35.5 L 575.5 285.5 L 75.5 285.5 L 75.5 35.5 Z"/></clipPath><clipPath id="OfFwAgziqmKh"><path fill="none" stroke="none" d="M 75.5 35.5 L 575.5 35.5 L 575.5 285.5 L 75.5 285.5 L 75.5 35.5 Z"/></clipPath><clipPath id="ugXApFdzpyKr"><path fill="none" stroke="none" d="M 75.5 35.5 L 575.5 35.5 L 575.5 285.5 L 75.5 285.5 L 75.5 35.5 Z"/></clipPath><clipPath id="GTHrbdQNLbPT"><path fill="none" stroke="none" d="M 75.5 35.5 L 575.5 35.5 L 575.5 285.5 L 75.5 285.5 L 75.5 35.5 Z"/></clipPath><clipPath id="fwaNSXCLNlgU"><path fill="none" stroke="none" d="M 75.5 35.5 L 575.5 35.5 L 575.5 285.5 L 75.5 285.5 L 75.5 35.5 Z"/></clipPath><clipPath id="EROaNnsMlrCV"><path fill="none" stroke="none" d="M 75.5 35.5 L 575.5 35.5 L 575.5 285.5 L 75.5 285.5 L 75.5 35.5 Z"/></clipPath><clipPath id="FRcellCiDnWv"><path fill="none" stroke="none" d="M 75.5 35.5 L 575.5 35.5 L 575.5 285.5 L 75.5 285.5 L 75.5 35.5 Z"/></clipPath><clipPath id="WzVQtFtstugL"><path fill="none" stroke="none" d="M 75.5 35.5 L 575.5 35.5 L 575.5 285.5 L 75.5 285.5 L 75.5 35.5 Z"/></clipPath><clipPath id="WRbfswRnDVqZ"><path fill="none" stroke="none" d="M 75.5 35.5 L 575.5 35.5 L 575.5 285.5 L 75.5 285.5 L 75.5 35.5 Z"/></clipPath><clipPath id="kBDDvRGkeeBq"><path fill="none" stroke="none" d="M 75.5 35.5 L 575.5 35.5 L 575.5 285.5 L 75.5 285.5 L 75.5 35.5 Z"/></clipPath><clipPath id="omgCUCzbLbSq"><path fill="none" stroke="none" d="M 75.5 35.5 L 575.5 35.5 L 575.5 285.5 L 75.5 285.5 L 75.5 35.5 Z"/></clipPath><clipPath id="MQidgLOtgyxW"><path fill="none" stroke="none" d="M 75.5 35.5 L 575.5 35.5 L 575.5 285.5 L 75.5 285.5 L 75.5 35.5 Z"/></clipPath></defs><path fill="none" stroke="#e5e5e5" paint-order="fill" d="M 75.5 35.5 L 575.5 35.5 L 575.5 285.5 L 75.5 285.5 L 75.5 35.5 Z" stroke-linejoin="bevel" stroke-miterlimit="10"/><path fill="none" stroke="black" paint-order="fill" d="M 337.46172248803487 35.5 L 337.46172248803487 285.5" stroke-linejoin="bevel" stroke-miterlimit="10" stroke-width="3" stroke-dasharray="6" clip-path="url(#afsMbWyzaBEO)"/><path fill="none" stroke="#9467bd" paint-order="fill" d="M 98.2272720336914 125.638671875 L 122.15071868896484 92.89599609375 L 146.07415771484375 96.74807739257812 L 169.9976043701172 100.60015106201172 L 193.92105102539062 139.12095642089844 L 217.84449768066406 80.3767318725586 L 241.7679443359375 93.85901641845703 L 265.6913757324219 121.7865982055664 L 289.6148376464844 83.26579284667969 L 313.53826904296875 77.4876708984375" stroke-linejoin="bevel" stroke-miterlimit="10" stroke-width="2" clip-path="url(#AnODqcIWNauv)"/><path fill="none" stroke="#9467bd" paint-order="fill" d="M 98.2272720336914 113.57466125488281 L 122.15071868896484 110.81983947753906 L 146.07415771484375 108.06501770019531 L 169.9976043701172 105.31019592285156 L 193.92105102539062 102.55537414550781 L 217.84449768066406 99.80055236816406 L 241.7679443359375 97.04573822021484 L 265.6913757324219 94.2909164428711 L 289.6148376464844 91.53609466552734 L 313.53826904296875 88.7812728881836" stroke-linejoin="bevel" stroke-miterlimit="10" stroke-width="2" stroke-dasharray="6" clip-path="url(#KedVVCelDtDE)"/><path fill="none" stroke="#30a2da" paint-order="fill" d="M 313.53826904296875 77.4876708984375 L 337.46173095703125 89.04391479492188 L 361.3851623535156 88.08089447021484 L 385.3086242675781 78.45069122314453 L 409.2320556640625 97.71109771728516 L 433.155517578125 100.60015106201172 L 457.0789489746094 90.96995544433594 L 481.00238037109375 96.74807739257812 L 504.92584228515625 109.267333984375 L 528.8493041992188 64.96841430664062 L 552.772705078125 108.30431365966797" stroke-linejoin="bevel" stroke-miterlimit="10" stroke-width="2" clip-path="url(#XTqvhTKzylPs)"/><path fill="none" stroke="#30a2da" paint-order="fill" d="M 337.46173095703125 88.23847961425781 L 361.3851623535156 89.1664810180664 L 385.3086242675781 90.094482421875 L 409.2320556640625 91.0224838256836 L 433.155517578125 91.95048522949219 L 457.0789489746094 92.87848663330078 L 481.00238037109375 93.80648803710938 L 504.92584228515625 94.73448944091797 L 528.8493041992188 95.66249084472656 L 552.772705078125 96.59049224853516" stroke-linejoin="bevel" stroke-miterlimit="10" stroke-width="2" stroke-dasharray="6" clip-path="url(#cWrTvFuQFrlU)"/><path fill="none" stroke="#fc4f30" paint-order="fill" d="M 313.53826904296875 77.4876708984375 L 337.46173095703125 123.71263122558594 L 361.3851623535156 80.3767318725586 L 385.3086242675781 98.67411041259766 L 409.2320556640625 117.93451690673828 L 433.155517578125 60.15331268310547 L 457.0789489746094 96.74807739257812 L 481.00238037109375 83.26579284667969 L 504.92584228515625 89.04391479492188 L 528.8493041992188 66.89445495605469 L 552.772705078125 95.7850570678711" stroke-linejoin="bevel" stroke-miterlimit="10" stroke-width="2" clip-path="url(#dkCaorDfbSaT)"/><path fill="none" stroke="#fc4f30" paint-order="fill" d="M 337.46173095703125 103.83940124511719 L 361.3851623535156 101.0437240600586 L 385.3086242675781 98.248046875 L 409.2320556640625 95.45237731933594 L 433.155517578125 92.65670013427734 L 457.0789489746094 89.86102294921875 L 481.00238037109375 87.06534576416016 L 504.92584228515625 84.26966857910156 L 528.8493041992188 81.47399139404297 L 552.772705078125 78.67831420898438" stroke-linejoin="bevel" stroke-miterlimit="10" stroke-width="2" stroke-dasharray="6" clip-path="url(#JVevCJFaTApe)"/><path fill="none" stroke="rgb(128,128,128)" paint-order="fill" d="M 98.2272720336914 90.96995544433594 L 122.15071868896484 95.7850570678711 L 146.07415771484375 87.11787414550781 L 169.9976043701172 94.82203674316406 L 193.92105102539062 69.78351593017578 L 217.84449768066406 82.30277252197266 L 241.7679443359375 107.34129333496094 L 265.6913757324219 78.45069122314453 L 289.6148376464844 73.63558959960938 L 313.53826904296875 87.11787414550781" stroke-opacity="0.7490196078431373" stroke-linejoin="bevel" stroke-miterlimit="10" clip-path="url(#euzUXUGMkEBf)"/><path fill="none" stroke="grey" paint-order="fill" d="M 313.53826904296875 87.11787414550781 L 337.46173095703125 116.00847625732422 L 361.3851623535156 85.19183349609375 L 385.3086242675781 97.71109771728516 L 409.2320556640625 107.34129333496094 L 433.155517578125 85.19183349609375 L 457.0789489746094 122.74961853027344 L 481.00238037109375 90.0069351196289 L 504.92584228515625 71.70955657958984 L 528.8493041992188 92.89599609375 L 552.772705078125 105.41525268554688" stroke-linejoin="bevel" stroke-miterlimit="10" stroke-width="0.5" clip-path="url(#cmthQtkgOTbB)"/><path fill="none" stroke="grey" paint-order="fill" d="M 313.53826904296875 87.11787414550781 L 337.46173095703125 135.2688751220703 L 361.3851623535156 96.74807739257812 L 385.3086242675781 108.30431365966797 L 409.2320556640625 129.49075317382812 L 433.155517578125 119.86055755615234 L 457.0789489746094 84.22881317138672 L 481.00238037109375 76.52465057373047 L 504.92584228515625 125.638671875 L 528.8493041992188 60.15331268310547 L 552.772705078125 98.67411041259766" stroke-linejoin="bevel" stroke-miterlimit="10" stroke-width="0.5" clip-path="url(#oKGxyyXlRrAm)"/><path fill="none" stroke="rgb(128,128,128)" paint-order="fill" d="M 98.2272720336914 94.82203674316406 L 122.15071868896484 104.45223236083984 L 146.07415771484375 86.15485382080078 L 169.9976043701172 109.267333984375 L 193.92105102539062 103.48921203613281 L 217.84449768066406 77.4876708984375 L 241.7679443359375 92.89599609375 L 265.6913757324219 99.63713073730469 L 289.6148376464844 67.85747528076172 L 313.53826904296875 96.74807739257812" stroke-opacity="0.7490196078431373" stroke-linejoin="bevel" stroke-miterlimit="10" clip-path="url(#OfFwAgziqmKh)"/><path fill="none" stroke="grey" paint-order="fill" d="M 313.53826904296875 96.74807739257812 L 337.46173095703125 116.97149658203125 L 361.3851623535156 91.93297576904297 L 385.3086242675781 92.89599609375 L 409.2320556640625 80.3767318725586 L 433.155517578125 85.19183349609375 L 457.0789489746094 97.71109771728516 L 481.00238037109375 106.3782730102539 L 504.92584228515625 113.11941528320312 L 528.8493041992188 84.22881317138672 L 552.772705078125 111.19337463378906" stroke-linejoin="bevel" stroke-miterlimit="10" stroke-width="0.5" clip-path="url(#ugXApFdzpyKr)"/><path fill="none" stroke="grey" paint-order="fill" d="M 313.53826904296875 96.74807739257812 L 337.46173095703125 117.93451690673828 L 361.3851623535156 101.56317138671875 L 385.3086242675781 75.56163024902344 L 409.2320556640625 105.41525268554688 L 433.155517578125 113.11941528320312 L 457.0789489746094 78.45069122314453 L 481.00238037109375 103.48921203613281 L 504.92584228515625 94.82203674316406 L 528.8493041992188 97.71109771728516 L 552.772705078125 87.11787414550781" stroke-linejoin="bevel" stroke-miterlimit="10" stroke-width="0.5" clip-path="url(#GTHrbdQNLbPT)"/><path fill="none" stroke="rgb(128,128,128)" paint-order="fill" d="M 98.2272720336914 97.71109771728516 L 122.15071868896484 69.78351593017578 L 146.07415771484375 94.82203674316406 L 169.9976043701172 109.267333984375 L 193.92105102539062 74.5986099243164 L 217.84449768066406 125.638671875 L 241.7679443359375 123.71263122558594 L 265.6913757324219 101.56317138671875 L 289.6148376464844 106.3782730102539 L 313.53826904296875 86.15485382080078" stroke-opacity="0.7490196078431373" stroke-linejoin="bevel" stroke-miterlimit="10" clip-path="url(#fwaNSXCLNlgU)"/><path fill="none" stroke="grey" paint-order="fill" d="M 313.53826904296875 86.15485382080078 L 337.46173095703125 97.71109771728516 L 361.3851623535156 70.74653625488281 L 385.3086242675781 71.70955657958984 L 409.2320556640625 107.34129333496094 L 433.155517578125 117.93451690673828 L 457.0789489746094 76.52465057373047 L 481.00238037109375 90.0069351196289 L 504.92584228515625 75.56163024902344 L 528.8493041992188 107.34129333496094 L 552.772705078125 94.82203674316406" stroke-linejoin="bevel" stroke-miterlimit="10" stroke-width="0.5" clip-path="url(#EROaNnsMlrCV)"/><path fill="none" stroke="grey" paint-order="fill" d="M 313.53826904296875 86.15485382080078 L 337.46173095703125 89.04391479492188 L 361.3851623535156 106.3782730102539 L 385.3086242675781 109.267333984375 L 409.2320556640625 91.93297576904297 L 433.155517578125 70.74653625488281 L 457.0789489746094 113.11941528320312 L 481.00238037109375 103.48921203613281 L 504.92584228515625 96.74807739257812 L 528.8493041992188 113.11941528320312 L 552.772705078125 104.45223236083984" stroke-linejoin="bevel" stroke-miterlimit="10" stroke-width="0.5" clip-path="url(#FRcellCiDnWv)"/><path fill="none" stroke="rgb(128,128,128)" paint-order="fill" d="M 98.2272720336914 108.30431365966797 L 122.15071868896484 79.41371154785156 L 146.07415771484375 95.7850570678711 L 169.9976043701172 95.7850570678711 L 193.92105102539062 125.638671875 L 217.84449768066406 98.67411041259766 L 241.7679443359375 93.85901641845703 L 265.6913757324219 112.1563949584961 L 289.6148376464844 97.71109771728516 L 313.53826904296875 109.267333984375" stroke-opacity="0.7490196078431373" stroke-linejoin="bevel" stroke-miterlimit="10" clip-path="url(#WzVQtFtstugL)"/><path fill="none" stroke="grey" paint-order="fill" d="M 313.53826904296875 109.267333984375 L 337.46173095703125 109.267333984375 L 361.3851623535156 107.34129333496094 L 385.3086242675781 95.7850570678711 L 409.2320556640625 117.93451690673828 L 433.155517578125 94.82203674316406 L 457.0789489746094 93.85901641845703 L 481.00238037109375 116.97149658203125 L 504.92584228515625 118.89753723144531 L 528.8493041992188 68.82049560546875 L 552.772705078125 58.227272033691406" stroke-linejoin="bevel" stroke-miterlimit="10" stroke-width="0.5" clip-path="url(#WRbfswRnDVqZ)"/><path fill="none" stroke="grey" paint-order="fill" d="M 313.53826904296875 109.267333984375 L 337.46173095703125 122.74961853027344 L 361.3851623535156 116.97149658203125 L 385.3086242675781 100.60015106201172 L 409.2320556640625 95.7850570678711 L 433.155517578125 90.0069351196289 L 457.0789489746094 92.89599609375 L 481.00238037109375 117.93451690673828 L 504.92584228515625 96.74807739257812 L 528.8493041992188 92.89599609375 L 552.772705078125 69.78351593017578" stroke-linejoin="bevel" stroke-miterlimit="10" stroke-width="0.5" clip-path="url(#kBDDvRGkeeBq)"/><path fill="none" stroke="black" paint-order="fill" d="M 75.5 285.5 L 575.5 285.5" stroke-linejoin="bevel" stroke-miterlimit="10"/><path fill="none" stroke="black" paint-order="fill" d="M 98.5 291.5 L 98.5 283.5 M 217.5 291.5 L 217.5 283.5 M 337.5 291.5 L 337.5 283.5 M 457.5 291.5 L 457.5 283.5" stroke-linejoin="bevel" stroke-miterlimit="10"/><path fill="none" stroke="black" paint-order="fill" d="M 98.5 289.5 L 98.5 285.5 M 122.5 289.5 L 122.5 285.5 M 146.5 289.5 L 146.5 285.5 M 169.5 289.5 L 169.5 285.5 M 193.5 289.5 L 193.5 285.5 M 217.5 289.5 L 217.5 285.5 M 241.5 289.5 L 241.5 285.5 M 265.5 289.5 L 265.5 285.5 M 289.5 289.5 L 289.5 285.5 M 313.5 289.5 L 313.5 285.5 M 337.5 289.5 L 337.5 285.5 M 361.5 289.5 L 361.5 285.5 M 385.5 289.5 L 385.5 285.5 M 409.5 289.5 L 409.5 285.5 M 433.5 289.5 L 433.5 285.5 M 457.5 289.5 L 457.5 285.5 M 481.5 289.5 L 481.5 285.5 M 504.5 289.5 L 504.5 285.5 M 528.5 289.5 L 528.5 285.5 M 552.5 289.5 L 552.5 285.5" stroke-linejoin="bevel" stroke-miterlimit="10"/><text fill="#444444" stroke="none" font-family="helvetica" font-size="10pt" font-style="normal" font-weight="normal" text-decoration="normal" x="84.36060523986816" y="306" text-anchor="start" dominant-baseline="alphabetic" transform="matrix(1, 0, 0, 1, 0.5, 0.5)">2025</text><text fill="none" stroke="rgb(0,0,0)" font-family="helvetica" font-size="10pt" font-style="normal" font-weight="normal" text-decoration="normal" x="84.36060523986816" y="306" text-anchor="start" dominant-baseline="alphabetic" transform="matrix(1, 0, 0, 1, 0.5, 0.5)" stroke-opacity="0" stroke-linejoin="bevel" stroke-miterlimit="10">2025</text><text fill="#444444" stroke="none" font-family="helvetica" font-size="10pt" font-style="normal" font-weight="normal" text-decoration="normal" x="203.97783088684082" y="306" text-anchor="start" dominant-baseline="alphabetic" transform="matrix(1, 0, 0, 1, 0.5, 0.5)">2030</text><text fill="none" stroke="rgb(0,0,0)" font-family="helvetica" font-size="10pt" font-style="normal" font-weight="normal" text-decoration="normal" x="203.97783088684082" y="306" text-anchor="start" dominant-baseline="alphabetic" transform="matrix(1, 0, 0, 1, 0.5, 0.5)" stroke-opacity="0" stroke-linejoin="bevel" stroke-miterlimit="10">2030</text><text fill="#444444" stroke="none" font-family="helvetica" font-size="10pt" font-style="normal" font-weight="normal" text-decoration="normal" x="323.595064163208" y="306" text-anchor="start" dominant-baseline="alphabetic" transform="matrix(1, 0, 0, 1, 0.5, 0.5)">2035</text><text fill="none" stroke="rgb(0,0,0)" font-family="helvetica" font-size="10pt" font-style="normal" font-weight="normal" text-decoration="normal" x="323.595064163208" y="306" text-anchor="start" dominant-baseline="alphabetic" transform="matrix(1, 0, 0, 1, 0.5, 0.5)" stroke-opacity="0" stroke-linejoin="bevel" stroke-miterlimit="10">2035</text><text fill="#444444" stroke="none" font-family="helvetica" font-size="10pt" font-style="normal" font-weight="normal" text-decoration="normal" x="443.21228218078613" y="306" text-anchor="start" dominant-baseline="alphabetic" transform="matrix(1, 0, 0, 1, 0.5, 0.5)">2040</text><text fill="none" stroke="rgb(0,0,0)" font-family="helvetica" font-size="10pt" font-style="normal" font-weight="normal" text-decoration="normal" x="443.21228218078613" y="306" text-anchor="start" dominant-baseline="alphabetic" transform="matrix(1, 0, 0, 1, 0.5, 0.5)" stroke-opacity="0" stroke-linejoin="bevel" stroke-miterlimit="10">2040</text><text fill="#444444" stroke="none" font-family="helvetica" font-size="12pt" font-style="normal" font-weight="normal" text-decoration="normal" x="310.3166666030884" y="329" text-anchor="start" dominant-baseline="alphabetic" transform="matrix(1, 0, 0, 1, 0.5, 0.5)">Year</text><text fill="none" stroke="rgb(0,0,0)" font-family="helvetica" font-size="12pt" font-style="normal" font-weight="normal" text-decoration="normal" x="310.3166666030884" y="329" text-anchor="start" dominant-baseline="alphabetic" transform="matrix(1, 0, 0, 1, 0.5, 0.5)" stroke-opacity="0" stroke-linejoin="bevel" stroke-miterlimit="10">Year</text><path fill="none" stroke="black" paint-order="fill" d="M 75.5 285.5 L 75.5 35.5" stroke-linejoin="bevel" stroke-miterlimit="10"/><path fill="none" stroke="black" paint-order="fill" d="M 69.5 285.5 L 77.5 285.5 M 69.5 237.5 L 77.5 237.5 M 69.5 189.5 L 77.5 189.5 M 69.5 141.5 L 77.5 141.5 M 69.5 92.5 L 77.5 92.5 M 69.5 44.5 L 77.5 44.5" stroke-linejoin="bevel" stroke-miterlimit="10"/><path fill="none" stroke="black" paint-order="fill" d="M 71.5 285.5 L 75.5 285.5 M 71.5 275.5 L 75.5 275.5 M 71.5 266.5 L 75.5 266.5 M 71.5 256.5 L 75.5 256.5 M 71.5 246.5 L 75.5 246.5 M 71.5 237.5 L 75.5 237.5 M 71.5 227.5 L 75.5 227.5 M 71.5 218.5 L 75.5 218.5 M 71.5 208.5 L 75.5 208.5 M 71.5 198.5 L 75.5 198.5 M 71.5 189.5 L 75.5 189.5 M 71.5 179.5 L 75.5 179.5 M 71.5 169.5 L 75.5 169.5 M 71.5 160.5 L 75.5 160.5 M 71.5 150.5 L 75.5 150.5 M 71.5 141.5 L 75.5 141.5 M 71.5 131.5 L 75.5 131.5 M 71.5 121.5 L 75.5 121.5 M 71.5 112.5 L 75.5 112.5 M 71.5 102.5 L 75.5 102.5 M 71.5 92.5 L 75.5 92.5 M 71.5 83.5 L 75.5 83.5 M 71.5 73.5 L 75.5 73.5 M 71.5 64.5 L 75.5 64.5 M 71.5 54.5 L 75.5 54.5 M 71.5 44.5 L 75.5 44.5" stroke-linejoin="bevel" stroke-miterlimit="10"/><text fill="#444444" stroke="none" font-family="helvetica" font-size="10pt" font-style="normal" font-weight="normal" text-decoration="normal" x="57.31666660308838" y="290" text-anchor="start" dominant-baseline="alphabetic" transform="matrix(1, 0, 0, 1, 0.5, 0.5)">0</text><text fill="none" stroke="rgb(0,0,0)" font-family="helvetica" font-size="10pt" font-style="normal" font-weight="normal" text-decoration="normal" x="57.31666660308838" y="290" text-anchor="start" dominant-baseline="alphabetic" transform="matrix(1, 0, 0, 1, 0.5, 0.5)" stroke-opacity="0" stroke-linejoin="bevel" stroke-miterlimit="10">0</text><text fill="#444444" stroke="none" font-family="helvetica" font-size="10pt" font-style="normal" font-weight="normal" text-decoration="normal" x="50.63333320617676" y="241.8489990234375" text-anchor="start" dominant-baseline="alphabetic" transform="matrix(1, 0, 0, 1, 0.5, 0.5)">50</text><text fill="none" stroke="rgb(0,0,0)" font-family="helvetica" font-size="10pt" font-style="normal" font-weight="normal" text-decoration="normal" x="50.63333320617676" y="241.8489990234375" text-anchor="start" dominant-baseline="alphabetic" transform="matrix(1, 0, 0, 1, 0.5, 0.5)" stroke-opacity="0" stroke-linejoin="bevel" stroke-miterlimit="10">50</text><text fill="#444444" stroke="none" font-family="helvetica" font-size="10pt" font-style="normal" font-weight="normal" text-decoration="normal" x="43.95000076293945" y="193.697998046875" text-anchor="start" dominant-baseline="alphabetic" transform="matrix(1, 0, 0, 1, 0.5, 0.5)">100</text><text fill="none" stroke="rgb(0,0,0)" font-family="helvetica" font-size="10pt" font-style="normal" font-weight="normal" text-decoration="normal" x="43.95000076293945" y="193.697998046875" text-anchor="start" dominant-baseline="alphabetic" transform="matrix(1, 0, 0, 1, 0.5, 0.5)" stroke-opacity="0" stroke-linejoin="bevel" stroke-miterlimit="10">100</text><text fill="#444444" stroke="none" font-family="helvetica" font-size="10pt" font-style="normal" font-weight="normal" text-decoration="normal" x="43.95000076293945" y="145.5469970703125" text-anchor="start" dominant-baseline="alphabetic" transform="matrix(1, 0, 0, 1, 0.5, 0.5)">150</text><text fill="none" stroke="rgb(0,0,0)" font-family="helvetica" font-size="10pt" font-style="normal" font-weight="normal" text-decoration="normal" x="43.95000076293945" y="145.5469970703125" text-anchor="start" dominant-baseline="alphabetic" transform="matrix(1, 0, 0, 1, 0.5, 0.5)" stroke-opacity="0" stroke-linejoin="bevel" stroke-miterlimit="10">150</text><text fill="#444444" stroke="none" font-family="helvetica" font-size="10pt" font-style="normal" font-weight="normal" text-decoration="normal" x="43.95000076293945" y="97.39599609375" text-anchor="start" dominant-baseline="alphabetic" transform="matrix(1, 0, 0, 1, 0.5, 0.5)">200</text><text fill="none" stroke="rgb(0,0,0)" font-family="helvetica" font-size="10pt" font-style="normal" font-weight="normal" text-decoration="normal" x="43.95000076293945" y="97.39599609375" text-anchor="start" dominant-baseline="alphabetic" transform="matrix(1, 0, 0, 1, 0.5, 0.5)" stroke-opacity="0" stroke-linejoin="bevel" stroke-miterlimit="10">200</text><text fill="#444444" stroke="none" font-family="helvetica" font-size="10pt" font-style="normal" font-weight="normal" text-decoration="normal" x="43.95000076293945" y="49.244991302490234" text-anchor="start" dominant-baseline="alphabetic" transform="matrix(1, 0, 0, 1, 0.5, 0.5)">250</text><text fill="none" stroke="rgb(0,0,0)" font-family="helvetica" font-size="10pt" font-style="normal" font-weight="normal" text-decoration="normal" x="43.95000076293945" y="49.244991302490234" text-anchor="start" dominant-baseline="alphabetic" transform="matrix(1, 0, 0, 1, 0.5, 0.5)" stroke-opacity="0" stroke-linejoin="bevel" stroke-miterlimit="10">250</text><text fill="#444444" stroke="none" font-family="helvetica" font-size="12pt" font-style="normal" font-weight="normal" text-decoration="normal" x="-60.25833511352539" y="156" text-anchor="start" dominant-baseline="alphabetic" transform="matrix(6.123233995736766e-17, -1, 1, 6.123233995736766e-17, -123.54999923706055, 196.45000076293945)">Days suitable for transmission</text><text fill="none" stroke="rgb(0,0,0)" font-family="helvetica" font-size="12pt" font-style="normal" font-weight="normal" text-decoration="normal" x="-60.25833511352539" y="156" text-anchor="start" dominant-baseline="alphabetic" transform="matrix(6.123233995736766e-17, -1, 1, 6.123233995736766e-17, -123.54999923706055, 196.45000076293945)" stroke-opacity="0" stroke-linejoin="bevel" stroke-miterlimit="10">Days suitable for transmission</text><path fill="rgb(255,255,255)" stroke="rgb(229,229,229)" paint-order="fill" d="M 482.0333251953125 210.5 L 565.4999847412109 210.5 L 565.4999847412109 275.5 L 482.0333251953125 275.5 L 482.0333251953125 210.5 Z" fill-opacity="0.9490196078431372" clip-path="url(#omgCUCzbLbSq)" stroke-opacity="0.5019607843137255" stroke-linejoin="bevel" stroke-miterlimit="10"/><g clip-path="url(#omgCUCzbLbSq)"><g transform="matrix(1, 0, 0, 1, 492.5333251953125, 221)"><path fill="none" stroke="#30a2da" paint-order="fill" d="M 0.5 10.5 L 20.5 10.5" stroke-linejoin="bevel" stroke-miterlimit="10" stroke-width="2"/></g></g><g clip-path="url(#omgCUCzbLbSq)"><text fill="#444444" stroke="none" font-family="helvetica" font-size="13px" font-style="normal" font-weight="normal" text-decoration="normal" x="517.5333251953125" y="235.5" text-anchor="start" dominant-baseline="alphabetic" transform="matrix(1, 0, 0, 1, 0.5, 0.5)">ID 001</text></g><g clip-path="url(#omgCUCzbLbSq)"><text fill="none" stroke="rgb(0,0,0)" font-family="helvetica" font-size="13px" font-style="normal" font-weight="normal" text-decoration="normal" x="517.5333251953125" y="235.5" text-anchor="start" dominant-baseline="alphabetic" transform="matrix(1, 0, 0, 1, 0.5, 0.5)" stroke-opacity="0" stroke-linejoin="bevel" stroke-miterlimit="10">ID 001</text></g><g clip-path="url(#omgCUCzbLbSq)"><g transform="matrix(1, 0, 0, 1, 492.5333251953125, 244)"><path fill="none" stroke="#fc4f30" paint-order="fill" d="M 0.5 10.5 L 20.5 10.5" stroke-linejoin="bevel" stroke-miterlimit="10" stroke-width="2"/></g></g><g clip-path="url(#omgCUCzbLbSq)"><text fill="#444444" stroke="none" font-family="helvetica" font-size="13px" font-style="normal" font-weight="normal" text-decoration="normal" x="517.5333251953125" y="258.5" text-anchor="start" dominant-baseline="alphabetic" transform="matrix(1, 0, 0, 1, 0.5, 0.5)">ID 006</text></g><g clip-path="url(#omgCUCzbLbSq)"><text fill="none" stroke="rgb(0,0,0)" font-family="helvetica" font-size="13px" font-style="normal" font-weight="normal" text-decoration="normal" x="517.5333251953125" y="258.5" text-anchor="start" dominant-baseline="alphabetic" transform="matrix(1, 0, 0, 1, 0.5, 0.5)" stroke-opacity="0" stroke-linejoin="bevel" stroke-miterlimit="10">ID 006</text></g><text fill="black" stroke="none" font-family="helvetica" font-size="14pt" font-style="normal" font-weight="normal" text-decoration="normal" x="0" y="18" text-anchor="start" dominant-baseline="alphabetic" transform="matrix(1, 0, 0, 1, 5.5, 7.5)">B. Los Angeles</text><text fill="none" stroke="rgb(0,0,0)" font-family="helvetica" font-size="14pt" font-style="normal" font-weight="normal" text-decoration="normal" x="0" y="18" text-anchor="start" dominant-baseline="alphabetic" transform="matrix(1, 0, 0, 1, 5.5, 7.5)" stroke-opacity="0" stroke-linejoin="bevel" stroke-miterlimit="10">B. Los Angeles</text></svg>