<svg version="1.1" xmlns="http://www.w3.org/2000/svg" width="600" height="329"><defs><clipPath id="BcTHfIxIhEdN"><path fill="none" stroke="none" d="M 70.5 30.5 L 570.5 30.5 L 570.5 280.5 L 70.5 280.5 L 70.5 30.5 Z"/></clipPath><clipPath id="zgWrBxlGGodQ"><path fill="none" stroke="none" d="M 70.5 30.5 L 570.5 30.5 L 570.5 280.5 L 70.5 280.5 L 70.5 30.5 Z"/></clipPath><clipPath id="ygrCxCEByiVx"><path fill="none" stroke="none" d="M 70.5 30.5 L 570.5 30.5 L 570.5 280.5 L 70.5 280.5 L 70.5 30.5 Z"/></clipPath><clipPath id="sqkgdARaRKmf"><path fill="none" stroke="none" d="M 70.5 30.5 L 570.5 30.5 L 570.5 280.5 L 70.5 280.5 L 70.5 30.5 Z"/></clipPath><clipPath id="agotUqUpRIun"><path fill="none" stroke="none" d="M 70.5 30.5 L 570.5 30.5 L 570.5 280.5 L 70.5 280.5 L 70.5 30.5 Z"/></clipPath><clipPath id="DrpceofvsLxe"><path fill="none" stroke="none" d="M 70.5 30.5 L 570.5 30.5 L 570.5 280.5 L 70.5 280.5 L 70.5 30.5 Z"/></clipPath><clipPath id="fNMqTfKWbbDK"><path fill="none" stroke="none" d="M 70.5 30.5 L 570.5 30.5 L 570.5 280.5 L 70.5 280.5 L 70.5 30.5 Z"/></clipPath><clipPath id="ibOBLXhOqmpt"><path fill="none" stroke="none" d="M 70.5 30.5 L 570.5 30.5 L 570.5 280.5 L 70.5 280.5 L 70.5 30.5 Z"/></clipPath><clipPath id="tuIPxCFHWQeB"><path fill="none" stroke="none" d="M 70.5 30.5 L 570.5 30.5 L 570.5 280.5 L 70.5 280.5 L 70.5 30.5 Z"/></clipPath><clipPath id="LOdPXHzkcCTC"><path fill="none" stroke="none" d="M 70.5 30.5 L 570.5 30.5 L 570.5 280.5 L 70.5 280.5 L 70.5 30.5 Z"/></clipPath><clipPath id="DUVWDCZLSHTH"><path fill="none" stroke="none" d="M 70.5 30.5 L 570.5 30.5 L 570.5 280.5 L 70.5 280.5 L 70.5 30.5 Z"/></clipPath><clipPath id="TvIpQSWWsRHR"><path fill="none" stroke="none" d="M 70.5 30.5 L 570.5 30.5 L 570.5 280.5 L 70.5 280.5 L 70.5 30.5 Z"/></clipPath><clipPath id="EhQwgZDSzGNg"><path fill="none" stroke="none" d="M 70.5 30.5 L 570.5 30.5 L 570.5 280.5 L 70.5 280.5 L 70.5 30.5 Z"/></clipPath><clipPath id="vBTcKJmaVfpl"><path fill="none" stroke="none" d="M 70.5 30.5 L 570.5 30.5 L 570.5 280.5 L 70.5 280.5 L 70.5 30.5 Z"/></clipPath><clipPath id="XfewwBmwZhWt"><path fill="none" stroke="none" d="M 70.5 30.5 L 570.5 30.5 L 570.5 280.5 L 70.5 280.5 L 70.5 30.5 Z"/></clipPath><clipPath id="aeFkQHXDODEs"><path fill="none" stroke="none" d="M 70.5 30.5 L 570.5 30.5 L 570.5 280.5 L 70.5 280.5 L 70.5 30.5 Z"/></clipPath><clipPath id="xdSVyxknthOG"><path fill="none" stroke="none" d="M 70.5 30.5 L 570.5 30.5 L 570.5 280.5 L 70.5 280.5 L 70.5 30.5 Z"/></clipPath><clipPath id="bLRRdOTkvRBJ"><path fill="none" stroke="none" d="M 70.5 30.5 L 570.5 30.5 L 570.5 280.5 L 70.5 280.5 L 70.5 30.5 Z"/></clipPath><clipPath id="pzNVIOLFVSLM"><path fill="none" stroke="none" d="M 70.5 30.5 L 570.5 30.5 L 570.5 280.5 L 70.5 280.5 L 70.5 30.5 Z"/></clipPath><clipPath id="MShzlpeRUEzU"><path fill="none" stroke="none" d="M 70.5 30.5 L 570.5 30.5 L 570.5 280.5 L 70.5 280.5 L 70.5 30.5 Z"/></clipPath><clipPath id="OuuCaWsWkuES"><path fill="none" stroke="none" d="M 70.5 30.5 L 570.5 30.5 L 570.5 280.5 L 70.5 280.5 L 70.5 30.5 Z"/></clipPath><clipPath id="btIiCRfuEPHo"><path fill="none" stroke="none" d="M 70.5 30.5 L 570.5 30.5 L 570.5 280.5 L 70.5 280.5 L 70.5 30.5 Z"/></clipPath><clipPath id="AprTRhXzlOVr"><path fill="none" stroke="none" d="M 70.5 30.5 L 570.5 30.5 L 570.5 280.5 L 70.5 280.5 L 70.5 30.5 Z"/></clipPath></defs><path fill="none" stroke="#e5e5e5" paint-order="fill" d="M 70.5 30.5 L 570.5 30.5 L 570.5 280.5 L 70.5 280.5 L 70.5 30.5 Z" stroke-linejoin="bevel" stroke-miterlimit="10"/><path fill="none" stroke="black" paint-order="fill" d="M 332.46172248803487 30.5 L 332.46172248803487 280.5" stroke-linejoin="bevel" stroke-miterlimit="10" stroke-width="3" stroke-dasharray="6" clip-path="url(#ygrCxCEByiVx)"/><path fill="none" stroke="#9467bd" paint-order="fill" d="M 93.2272720336914 105.2841567993164 L 117.15071868896484 78.6208724975586 L 141.07415771484375 87.50863647460938 L 164.9976043701172 97.66607666015625 L 188.92105102539062 83.69959259033203 L 212.84449768066406 87.50863647460938 L 236.7679443359375 92.58735656738281 L 260.6913757324219 96.39639282226562 L 284.6148376464844 78.6208724975586 L 308.53826904296875 96.39639282226562" stroke-linejoin="bevel" stroke-miterlimit="10" stroke-width="2" clip-path="url(#sqkgdARaRKmf)"/><path fill="none" stroke="#9467bd" paint-order="fill" d="M 93.2272720336914 105.2841567993164 L 117.15071868896484 78.6208724975586 L 141.07415771484375 87.50863647460938 L 164.9976043701172 97.66607666015625 L 188.92105102539062 83.69959259033203 L 212.84449768066406 87.50863647460938 L 236.7679443359375 92.58735656738281 L 260.6913757324219 96.39639282226562 L 284.6148376464844 78.6208724975586 L 308.53826904296875 96.39639282226562" stroke-linejoin="bevel" stroke-miterlimit="10" stroke-width="2" stroke-dasharray="6" clip-path="url(#agotUqUpRIun)"/><path fill="none" stroke="#30a2da" paint-order="fill" d="M 308.53826904296875 96.39639282226562 L 332.46173095703125 87.50863647460938 L 356.3851623535156 76.08151245117188 L 380.3086242675781 92.58735656738281 L 404.2320556640625 105.2841567993164 L 428.155517578125 91.31767272949219 L 452.0789489746094 65.924072265625 L 476.00238037109375 93.8570327758789 L 499.92584228515625 68.46343231201172 L 523.8493041992188 93.8570327758789 L 547.772705078125 74.81183624267578" stroke-linejoin="bevel" stroke-miterlimit="10" stroke-width="2" clip-path="url(#DrpceofvsLxe)"/><path fill="none" stroke="#30a2da" paint-order="fill" d="M 332.46173095703125 89.609375 L 356.3851623535156 88.57823944091797 L 380.3086242675781 87.54711151123047 L 404.2320556640625 86.51597595214844 L 428.155517578125 85.4848403930664 L 452.0789489746094 84.45370483398438 L 476.00238037109375 83.42256927490234 L 499.92584228515625 82.39144134521484 L 523.8493041992188 81.36030578613281 L 547.772705078125 80.32917022705078" stroke-linejoin="bevel" stroke-miterlimit="10" stroke-width="2" stroke-dasharray="6" clip-path="url(#fNMqTfKWbbDK)"/><path fill="none" stroke="#fc4f30" paint-order="fill" d="M 308.53826904296875 96.39639282226562 L 332.46173095703125 76.08151245117188 L 356.3851623535156 62.11503219604492 L 380.3086242675781 88.77831268310547 L 404.2320556640625 90.0479965209961 L 428.155517578125 86.23895263671875 L 452.0789489746094 105.2841567993164 L 476.00238037109375 83.69959259033203 L 499.92584228515625 91.31767272949219 L 523.8493041992188 83.69959259033203 L 547.772705078125 110.36287689208984" stroke-linejoin="bevel" stroke-miterlimit="10" stroke-width="2" clip-path="url(#ibOBLXhOqmpt)"/><path fill="none" stroke="#fc4f30" paint-order="fill" d="M 332.46173095703125 74.88108825683594 L 356.3851623535156 77.74363708496094 L 380.3086242675781 80.60619354248047 L 404.2320556640625 83.46874237060547 L 428.155517578125 86.33129119873047 L 452.0789489746094 89.19384765625 L 476.00238037109375 92.056396484375 L 499.92584228515625 94.9189453125 L 523.8493041992188 97.78150177001953 L 547.772705078125 100.64405059814453" stroke-linejoin="bevel" stroke-miterlimit="10" stroke-width="2" stroke-dasharray="6" clip-path="url(#tuIPxCFHWQeB)"/><path fill="none" stroke="rgb(128,128,128)" paint-order="fill" d="M 93.2272720336914 100.20543670654297 L 117.15071868896484 65.924072265625 L 141.07415771484375 79.89055633544922 L 164.9976043701172 65.924072265625 L 188.92105102539062 93.8570327758789 L 212.84449768066406 88.77831268310547 L 236.7679443359375 62.11503219604492 L 260.6913757324219 74.81183624267578 L 284.6148376464844 64.6543960571289 L 308.53826904296875 68.46343231201172" stroke-opacity="0.7490196078431373" stroke-linejoin="bevel" stroke-miterlimit="10" clip-path="url(#LOdPXHzkcCTC)"/><path fill="none" stroke="grey" paint-order="fill" d="M 308.53826904296875 68.46343231201172 L 332.46173095703125 71.00279235839844 L 356.3851623535156 65.924072265625 L 380.3086242675781 100.20543670654297 L 404.2320556640625 58.305992126464844 L 428.155517578125 68.46343231201172 L 452.0789489746094 109.09319305419922 L 476.00238037109375 86.23895263671875 L 499.92584228515625 86.23895263671875 L 523.8493041992188 78.6208724975586 L 547.772705078125 95.12671661376953" stroke-linejoin="bevel" stroke-miterlimit="10" stroke-width="0.5" clip-path="url(#DUVWDCZLSHTH)"/><path fill="none" stroke="grey" paint-order="fill" d="M 308.53826904296875 68.46343231201172 L 332.46173095703125 81.16023254394531 L 356.3851623535156 82.42991638183594 L 380.3086242675781 73.54215240478516 L 404.2320556640625 78.6208724975586 L 428.155517578125 73.54215240478516 L 452.0789489746094 76.08151245117188 L 476.00238037109375 84.96927642822266 L 499.92584228515625 100.20543670654297 L 523.8493041992188 87.50863647460938 L 547.772705078125 77.3511962890625" stroke-linejoin="bevel" stroke-miterlimit="10" stroke-width="0.5" clip-path="url(#TvIpQSWWsRHR)"/><path fill="none" stroke="rgb(128,128,128)" paint-order="fill" d="M 93.2272720336914 86.23895263671875 L 117.15071868896484 90.0479965209961 L 141.07415771484375 86.23895263671875 L 164.9976043701172 83.69959259033203 L 188.92105102539062 77.3511962890625 L 212.84449768066406 65.924072265625 L 236.7679443359375 87.50863647460938 L 260.6913757324219 86.23895263671875 L 284.6148376464844 79.89055633544922 L 308.53826904296875 104.01447296142578" stroke-opacity="0.7490196078431373" stroke-linejoin="bevel" stroke-miterlimit="10" clip-path="url(#EhQwgZDSzGNg)"/><path fill="none" stroke="grey" paint-order="fill" d="M 308.53826904296875 104.01447296142578 L 332.46173095703125 76.08151245117188 L 356.3851623535156 74.81183624267578 L 380.3086242675781 74.81183624267578 L 404.2320556640625 91.31767272949219 L 428.155517578125 88.77831268310547 L 452.0789489746094 84.96927642822266 L 476.00238037109375 110.36287689208984 L 499.92584228515625 101.47511291503906 L 523.8493041992188 86.23895263671875 L 547.772705078125 81.16023254394531" stroke-linejoin="bevel" stroke-miterlimit="10" stroke-width="0.5" clip-path="url(#vBTcKJmaVfpl)"/><path fill="none" stroke="grey" paint-order="fill" d="M 308.53826904296875 104.01447296142578 L 332.46173095703125 83.69959259033203 L 356.3851623535156 92.58735656738281 L 380.3086242675781 76.08151245117188 L 404.2320556640625 91.31767272949219 L 428.155517578125 86.23895263671875 L 452.0789489746094 69.73311614990234 L 476.00238037109375 97.66607666015625 L 499.92584228515625 93.8570327758789 L 523.8493041992188 82.42991638183594 L 547.772705078125 101.47511291503906" stroke-linejoin="bevel" stroke-miterlimit="10" stroke-width="0.5" clip-path="url(#XfewwBmwZhWt)"/><path fill="none" stroke="rgb(128,128,128)" paint-order="fill" d="M 93.2272720336914 72.27247619628906 L 117.15071868896484 98.93575286865234 L 141.07415771484375 98.93575286865234 L 164.9976043701172 74.81183624267578 L 188.92105102539062 82.42991638183594 L 212.84449768066406 98.93575286865234 L 236.7679443359375 69.73311614990234 L 260.6913757324219 73.54215240478516 L 284.6148376464844 88.77831268310547 L 308.53826904296875 81.16023254394531" stroke-opacity="0.7490196078431373" stroke-linejoin="bevel" stroke-miterlimit="10" clip-path="url(#aeFkQHXDODEs)"/><path fill="none" stroke="grey" paint-order="fill" d="M 308.53826904296875 81.16023254394531 L 332.46173095703125 95.12671661376953 L 356.3851623535156 86.23895263671875 L 380.3086242675781 63.38471221923828 L 404.2320556640625 97.66607666015625 L 428.155517578125 96.39639282226562 L 452.0789489746094 86.23895263671875 L 476.00238037109375 71.00279235839844 L 499.92584228515625 92.58735656738281 L 523.8493041992188 100.20543670654297 L 547.772705078125 81.16023254394531" stroke-linejoin="bevel" stroke-miterlimit="10" stroke-width="0.5" clip-path="url(#xdSVyxknthOG)"/><path fill="none" stroke="grey" paint-order="fill" d="M 308.53826904296875 81.16023254394531 L 332.46173095703125 79.89055633544922 L 356.3851623535156 115.44159698486328 L 380.3086242675781 102.74479675292969 L 404.2320556640625 96.39639282226562 L 428.155517578125 59.5756721496582 L 452.0789489746094 96.39639282226562 L 476.00238037109375 71.00279235839844 L 499.92584228515625 97.66607666015625 L 523.8493041992188 64.6543960571289 L 547.772705078125 76.08151245117188" stroke-linejoin="bevel" stroke-miterlimit="10" stroke-width="0.5" clip-path="url(#bLRRdOTkvRBJ)"/><path fill="none" stroke="rgb(128,128,128)" paint-order="fill" d="M 93.2272720336914 96.39639282226562 L 117.15071868896484 79.89055633544922 L 141.07415771484375 84.96927642822266 L 164.9976043701172 93.8570327758789 L 188.92105102539062 101.47511291503906 L 212.84449768066406 87.50863647460938 L 236.7679443359375 76.08151245117188 L 260.6913757324219 77.3511962890625 L 284.6148376464844 78.6208724975586 L 308.53826904296875 71.00279235839844" stroke-opacity="0.7490196078431373" stroke-linejoin="bevel" stroke-miterlimit="10" clip-path="url(#pzNVIOLFVSLM)"/><path fill="none" stroke="grey" paint-order="fill" d="M 308.53826904296875 71.00279235839844 L 332.46173095703125 97.66607666015625 L 356.3851623535156 104.01447296142578 L 380.3086242675781 90.0479965209961 L 404.2320556640625 77.3511962890625 L 428.155517578125 78.6208724975586 L 452.0789489746094 53.227272033691406 L 476.00238037109375 77.3511962890625 L 499.92584228515625 81.16023254394531 L 523.8493041992188 74.81183624267578 L 547.772705078125 105.2841567993164" stroke-linejoin="bevel" stroke-miterlimit="10" stroke-width="0.5" clip-path="url(#MShzlpeRUEzU)"/><path fill="none" stroke="grey" paint-order="fill" d="M 308.53826904296875 71.00279235839844 L 332.46173095703125 84.96927642822266 L 356.3851623535156 77.3511962890625 L 380.3086242675781 95.12671661376953 L 404.2320556640625 83.69959259033203 L 428.155517578125 59.5756721496582 L 452.0789489746094 96.39639282226562 L 476.00238037109375 97.66607666015625 L 499.92584228515625 87.50863647460938 L 523.8493041992188 97.66607666015625 L 547.772705078125 88.77831268310547" stroke-linejoin="bevel" stroke-miterlimit="10" stroke-width="0.5" clip-path="url(#OuuCaWsWkuES)"/><path fill="none" stroke="black" paint-order="fill" d="M 70.5 280.5 L 570.5 280.5" stroke-linejoin="bevel" stroke-miterlimit="10"/><path fill="none" stroke="black" paint-order="fill" d="M 93.5 286.5 L 93.5 278.5 M 212.5 286.5 L 212.5 278.5 M 332.5 286.5 L 332.5 278.5 M 452.5 286.5 L 452.5 278.5" stroke-linejoin="bevel" stroke-miterlimit="10"/><path fill="none" stroke="black" paint-order="fill" d="M 93.5 284.5 L 93.5 280.5 M 117.5 284.5 L 117.5 280.5 M 141.5 284.5 L 141.5 280.5 M 164.5 284.5 L 164.5 280.5 M 188.5 284.5 L 188.5 280.5 M 212.5 284.5 L 212.5 280.5 M 236.5 284.5 L 236.5 280.5 M 260.5 284.5 L 260.5 280.5 M 284.5 284.5 L 284.5 280.5 M 308.5 284.5 L 308.5 280.5 M 332.5 284.5 L 332.5 280.5 M 356.5 284.5 L 356.5 280.5 M 380.5 284.5 L 380.5 280.5 M 404.5 284.5 L 404.5 280.5 M 428.5 284.5 L 428.5 280.5 M 452.5 284.5 L 452.5 280.5 M 476.5 284.5 L 476.5 280.5 M 499.5 284.5 L 499.5 280.5 M 523.5 284.5 L 523.5 280.5 M 547.5 284.5 L 547.5 280.5" stroke-linejoin="bevel" stroke-miterlimit="10"/><text fill="#444444" stroke="none" font-family="helvetica" font-size="10pt" font-style="normal" font-weight="normal" text-decoration="normal" x="77.82727241516113" y="300.59368896484375" text-anchor="start" dominant-baseline="alphabetic" transform="matrix(1, 0, 0, 1, 0.5, 0.5)">2025</text><text fill="none" stroke="rgb(0,0,0)" font-family="helvetica" font-size="10pt" font-style="normal" font-weight="normal" text-decoration="normal" x="77.82727241516113" y="300.59368896484375" text-anchor="start" dominant-baseline="alphabetic" transform="matrix(1, 0, 0, 1, 0.5, 0.5)" stroke-opacity="0" stroke-linejoin="bevel" stroke-miterlimit="10">2025</text><text fill="#444444" stroke="none" font-family="helvetica" font-size="10pt" font-style="normal" font-weight="normal" text-decoration="normal" x="197.4444980621338" y="300.59368896484375" text-anchor="start" dominant-baseline="alphabetic" transform="matrix(1, 0, 0, 1, 0.5, 0.5)">2030</text><text fill="none" stroke="rgb(0,0,0)" font-family="helvetica" font-size="10pt" font-style="normal" font-weight="normal" text-decoration="normal" x="197.4444980621338" y="300.59368896484375" text-anchor="start" dominant-baseline="alphabetic" transform="matrix(1, 0, 0, 1, 0.5, 0.5)" stroke-opacity="0" stroke-linejoin="bevel" stroke-miterlimit="10">2030</text><text fill="#444444" stroke="none" font-family="helvetica" font-size="10pt" font-style="normal" font-weight="normal" text-decoration="normal" x="317.061731338501" y="300.59368896484375" text-anchor="start" dominant-baseline="alphabetic" transform="matrix(1, 0, 0, 1, 0.5, 0.5)">2035</text><text fill="none" stroke="rgb(0,0,0)" font-family="helvetica" font-size="10pt" font-style="normal" font-weight="normal" text-decoration="normal" x="317.061731338501" y="300.59368896484375" text-anchor="start" dominant-baseline="alphabetic" transform="matrix(1, 0, 0, 1, 0.5, 0.5)" stroke-opacity="0" stroke-linejoin="bevel" stroke-miterlimit="10">2035</text><text fill="#444444" stroke="none" font-family="helvetica" font-size="10pt" font-style="normal" font-weight="normal" text-decoration="normal" x="436.6789493560791" y="300.59368896484375" text-anchor="start" dominant-baseline="alphabetic" transform="matrix(1, 0, 0, 1, 0.5, 0.5)">2040</text><text fill="none" stroke="rgb(0,0,0)" font-family="helvetica" font-size="10pt" font-style="normal" font-weight="normal" text-decoration="normal" x="436.6789493560791" y="300.59368896484375" text-anchor="start" dominant-baseline="alphabetic" transform="matrix(1, 0, 0, 1, 0.5, 0.5)" stroke-opacity="0" stroke-linejoin="bevel" stroke-miterlimit="10">2040</text><text fill="#444444" stroke="none" font-family="helvetica" font-size="12pt" font-style="normal" font-weight="normal" text-decoration="normal" x="303.8333339691162" y="321.59368896484375" text-anchor="start" dominant-baseline="alphabetic" transform="matrix(1, 0, 0, 1, 0.5, 0.5)">Year</text><text fill="none" stroke="rgb(0,0,0)" font-family="helvetica" font-size="12pt" font-style="normal" font-weight="normal" text-decoration="normal" x="303.8333339691162" y="321.59368896484375" text-anchor="start" dominant-baseline="alphabetic" transform="matrix(1, 0, 0, 1, 0.5, 0.5)" stroke-opacity="0" stroke-linejoin="bevel" stroke-miterlimit="10">Year</text><path fill="none" stroke="black" paint-order="fill" d="M 70.5 280.5 L 70.5 30.5" stroke-linejoin="bevel" stroke-miterlimit="10"/><path fill="none" stroke="black" paint-order="fill" d="M 64.5 280.5 L 72.5 280.5 M 64.5 217.5 L 72.5 217.5 M 64.5 153.5 L 72.5 153.5 M 64.5 90.5 L 72.5 90.5" stroke-linejoin="bevel" stroke-miterlimit="10"/><path fill="none" stroke="black" paint-order="fill" d="M 66.5 280.5 L 70.5 280.5 M 66.5 267.5 L 70.5 267.5 M 66.5 255.5 L 70.5 255.5 M 66.5 242.5 L 70.5 242.5 M 66.5 229.5 L 70.5 229.5 M 66.5 217.5 L 70.5 217.5 M 66.5 204.5 L 70.5 204.5 M 66.5 191.5 L 70.5 191.5 M 66.5 178.5 L 70.5 178.5 M 66.5 166.5 L 70.5 166.5 M 66.5 153.5 L 70.5 153.5 M 66.5 140.5 L 70.5 140.5 M 66.5 128.5 L 70.5 128.5 M 66.5 115.5 L 70.5 115.5 M 66.5 102.5 L 70.5 102.5 M 66.5 90.5 L 70.5 90.5 M 66.5 77.5 L 70.5 77.5 M 66.5 64.5 L 70.5 64.5 M 66.5 51.5 L 70.5 51.5 M 66.5 39.5 L 70.5 39.5" stroke-linejoin="bevel" stroke-miterlimit="10"/><text fill="#444444" stroke="none" font-family="helvetica" font-size="10pt" font-style="normal" font-weight="normal" text-decoration="normal" x="51.55000019073486" y="284.7968444824219" text-anchor="start" dominant-baseline="alphabetic" transform="matrix(1, 0, 0, 1, 0.5, 0.5)">0</text><text fill="none" stroke="rgb(0,0,0)" font-family="helvetica" font-size="10pt" font-style="normal" font-weight="normal" text-decoration="normal" x="51.55000019073486" y="284.7968444824219" text-anchor="start" dominant-baseline="alphabetic" transform="matrix(1, 0, 0, 1, 0.5, 0.5)" stroke-opacity="0" stroke-linejoin="bevel" stroke-miterlimit="10">0</text><text fill="#444444" stroke="none" font-family="helvetica" font-size="10pt" font-style="normal" font-weight="normal" text-decoration="normal" x="44.10000038146973" y="221.31283569335938" text-anchor="start" dominant-baseline="alphabetic" transform="matrix(1, 0, 0, 1, 0.5, 0.5)">50</text><text fill="none" stroke="rgb(0,0,0)" font-family="helvetica" font-size="10pt" font-style="normal" font-weight="normal" text-decoration="normal" x="44.10000038146973" y="221.31283569335938" text-anchor="start" dominant-baseline="alphabetic" transform="matrix(1, 0, 0, 1, 0.5, 0.5)" stroke-opacity="0" stroke-linejoin="bevel" stroke-miterlimit="10">50</text><text fill="#444444" stroke="none" font-family="helvetica" font-size="10pt" font-style="normal" font-weight="normal" text-decoration="normal" x="36.64999961853027" y="157.82884216308594" text-anchor="start" dominant-baseline="alphabetic" transform="matrix(1, 0, 0, 1, 0.5, 0.5)">100</text><text fill="none" stroke="rgb(0,0,0)" font-family="helvetica" font-size="10pt" font-style="normal" font-weight="normal" text-decoration="normal" x="36.64999961853027" y="157.82884216308594" text-anchor="start" dominant-baseline="alphabetic" transform="matrix(1, 0, 0, 1, 0.5, 0.5)" stroke-opacity="0" stroke-linejoin="bevel" stroke-miterlimit="10">100</text><text fill="#444444" stroke="none" font-family="helvetica" font-size="10pt" font-style="normal" font-weight="normal" text-decoration="normal" x="36.64999961853027" y="94.34484100341797" text-anchor="start" dominant-baseline="alphabetic" transform="matrix(1, 0, 0, 1, 0.5, 0.5)">150</text><text fill="none" stroke="rgb(0,0,0)" font-family="helvetica" font-size="10pt" font-style="normal" font-weight="normal" text-decoration="normal" x="36.64999961853027" y="94.34484100341797" text-anchor="start" dominant-baseline="alphabetic" transform="matrix(1, 0, 0, 1, 0.5, 0.5)" stroke-opacity="0" stroke-linejoin="bevel" stroke-miterlimit="10">150</text><text fill="#444444" stroke="none" font-family="helvetica" font-size="12pt" font-style="normal" font-weight="normal" text-decoration="normal" x="-78.07499885559082" y="151" text-anchor="start" dominant-baseline="alphabetic" transform="matrix(6.123233995736766e-17, -1, 1, 6.123233995736766e-17, -125.85000038146973, 184.14999961853027)">Days suitable for transmission</text><text fill="none" stroke="rgb(0,0,0)" font-family="helvetica" font-size="12pt" font-style="normal" font-weight="normal" text-decoration="normal" x="-78.07499885559082" y="151" text-anchor="start" dominant-baseline="alphabetic" transform="matrix(6.123233995736766e-17, -1, 1, 6.123233995736766e-17, -125.85000038146973, 184.14999961853027)" stroke-opacity="0" stroke-linejoin="bevel" stroke-miterlimit="10">Days suitable for transmission</text><path fill="rgb(255,255,255)" stroke="rgb(229,229,229)" paint-order="fill" d="M 475.183349609375 205.5 L 560.5000152587891 205.5 L 560.5000152587891 270.5 L 475.183349609375 270.5 L 475.183349609375 205.5 Z" fill-opacity="0.9490196078431372" clip-path="url(#btIiCRfuEPHo)" stroke-opacity="0.5019607843137255" stroke-linejoin="bevel" stroke-miterlimit="10"/><g clip-path="url(#btIiCRfuEPHo)"><g transform="matrix(1, 0, 0, 1, 485.683349609375, 216)"><path fill="none" stroke="#30a2da" paint-order="fill" d="M 0.5 10.5 L 20.5 10.5" stroke-linejoin="bevel" stroke-miterlimit="10" stroke-width="2"/></g></g><g clip-path="url(#btIiCRfuEPHo)"><text fill="#444444" stroke="none" font-family="helvetica" font-size="13px" font-style="normal" font-weight="normal" text-decoration="normal" x="510.683349609375" y="230" text-anchor="start" dominant-baseline="alphabetic" transform="matrix(1, 0, 0, 1, 0.5, 0.5)">ID 001</text></g><g clip-path="url(#btIiCRfuEPHo)"><text fill="none" stroke="rgb(0,0,0)" font-family="helvetica" font-size="13px" font-style="normal" font-weight="normal" text-decoration="normal" x="510.683349609375" y="230" text-anchor="start" dominant-baseline="alphabetic" transform="matrix(1, 0, 0, 1, 0.5, 0.5)" stroke-opacity="0" stroke-linejoin="bevel" stroke-miterlimit="10">ID 001</text></g><g clip-path="url(#btIiCRfuEPHo)"><g transform="matrix(1, 0, 0, 1, 485.683349609375, 239)"><path fill="none" stroke="#fc4f30" paint-order="fill" d="M 0.5 10.5 L 20.5 10.5" stroke-linejoin="bevel" stroke-miterlimit="10" stroke-width="2"/></g></g><g clip-path="url(#btIiCRfuEPHo)"><text fill="#444444" stroke="none" font-family="helvetica" font-size="13px" font-style="normal" font-weight="normal" text-decoration="normal" x="510.683349609375" y="253" text-anchor="start" dominant-baseline="alphabetic" transform="matrix(1, 0, 0, 1, 0.5, 0.5)">ID 006</text></g><g clip-path="url(#btIiCRfuEPHo)"><text fill="none" stroke="rgb(0,0,0)" font-family="helvetica" font-size="13px" font-style="normal" font-weight="normal" text-decoration="normal" x="510.683349609375" y="253" text-anchor="start" dominant-baseline="alphabetic" transform="matrix(1, 0, 0, 1, 0.5, 0.5)" stroke-opacity="0" stroke-linejoin="bevel" stroke-miterlimit="10">ID 006</text></g><text fill="black" stroke="none" font-family="helvetica" font-size="14pt" font-style="normal" font-weight="normal" text-decoration="normal" x="0" y="15" text-anchor="start" dominant-baseline="alphabetic" transform="matrix(1, 0, 0, 1, 5.5, 5.5)">D. Santiago de Chile</text><text fill="none" stroke="rgb(0,0,0)" font-family="helvetica" font-size="14pt" font-style="normal" font-weight="normal" text-decoration="normal" x="0" y="15" text-anchor="start" dominant-baseline="alphabetic" transform="matrix(1, 0, 0, 1, 5.5, 5.5)" stroke-opacity="0" stroke-linejoin="bevel" stroke-miterlimit="10">D. Santiago de Chile</text></svg>