<svg version="1.1" xmlns="http://www.w3.org/2000/svg" width="605" height="336"><defs><clipPath id="BHELGfvRgfZM"><path fill="none" stroke="none" d="M 75.5 35.5 L 575.5 35.5 L 575.5 285.5 L 75.5 285.5 L 75.5 35.5 Z"/></clipPath><clipPath id="cXJOJMHtzZoe"><path fill="none" stroke="none" d="M 75.5 35.5 L 575.5 35.5 L 575.5 285.5 L 75.5 285.5 L 75.5 35.5 Z"/></clipPath><clipPath id="aBgKEVGcMQHk"><path fill="none" stroke="none" d="M 75.5 35.5 L 575.5 35.5 L 575.5 285.5 L 75.5 285.5 L 75.5 35.5 Z"/></clipPath><clipPath id="icVUiPAlJEEE"><path fill="none" stroke="none" d="M 75.5 35.5 L 575.5 35.5 L 575.5 285.5 L 75.5 285.5 L 75.5 35.5 Z"/></clipPath><clipPath id="ruQVpSMTyiVb"><path fill="none" stroke="none" d="M 75.5 35.5 L 575.5 35.5 L 575.5 285.5 L 75.5 285.5 L 75.5 35.5 Z"/></clipPath><clipPath id="vATWGGUPqcpi"><path fill="none" stroke="none" d="M 75.5 35.5 L 575.5 35.5 L 575.5 285.5 L 75.5 285.5 L 75.5 35.5 Z"/></clipPath><clipPath id="hXlbsdNcSbIn"><path fill="none" stroke="none" d="M 75.5 35.5 L 575.5 35.5 L 575.5 285.5 L 75.5 285.5 L 75.5 35.5 Z"/></clipPath><clipPath id="DCtHXozlZXGp"><path fill="none" stroke="none" d="M 75.5 35.5 L 575.5 35.5 L 575.5 285.5 L 75.5 285.5 L 75.5 35.5 Z"/></clipPath><clipPath id="MOOzkcZuPTqm"><path fill="none" stroke="none" d="M 75.5 35.5 L 575.5 35.5 L 575.5 285.5 L 75.5 285.5 L 75.5 35.5 Z"/></clipPath><clipPath id="MBplJiftgSpW"><path fill="none" stroke="none" d="M 75.5 35.5 L 575.5 35.5 L 575.5 285.5 L 75.5 285.5 L 75.5 35.5 Z"/></clipPath><clipPath id="vPKWSRbGXtvr"><path fill="none" stroke="none" d="M 75.5 35.5 L 575.5 35.5 L 575.5 285.5 L 75.5 285.5 L 75.5 35.5 Z"/></clipPath><clipPath id="rtrJbkEThEAi"><path fill="none" stroke="none" d="M 75.5 35.5 L 575.5 35.5 L 575.5 285.5 L 75.5 285.5 L 75.5 35.5 Z"/></clipPath><clipPath id="knOnoUoOwsyB"><path fill="none" stroke="none" d="M 75.5 35.5 L 575.5 35.5 L 575.5 285.5 L 75.5 285.5 L 75.5 35.5 Z"/></clipPath><clipPath id="riNVGLyuvVrN"><path fill="none" stroke="none" d="M 75.5 35.5 L 575.5 35.5 L 575.5 285.5 L 75.5 285.5 L 75.5 35.5 Z"/></clipPath><clipPath id="nnJMkUseCeqp"><path fill="none" stroke="none" d="M 75.5 35.5 L 575.5 35.5 L 575.5 285.5 L 75.5 285.5 L 75.5 35.5 Z"/></clipPath><clipPath id="WobJwJLKLNlO"><path fill="none" stroke="none" d="M 75.5 35.5 L 575.5 35.5 L 575.5 285.5 L 75.5 285.5 L 75.5 35.5 Z"/></clipPath><clipPath id="QSmVruxcLkmK"><path fill="none" stroke="none" d="M 75.5 35.5 L 575.5 35.5 L 575.5 285.5 L 75.5 285.5 L 75.5 35.5 Z"/></clipPath><clipPath id="mtOCufEIxtNk"><path fill="none" stroke="none" d="M 75.5 35.5 L 575.5 35.5 L 575.5 285.5 L 75.5 285.5 L 75.5 35.5 Z"/></clipPath><clipPath id="PVsfDLZAZkiA"><path fill="none" stroke="none" d="M 75.5 35.5 L 575.5 35.5 L 575.5 285.5 L 75.5 285.5 L 75.5 35.5 Z"/></clipPath><clipPath id="hhyTsNPQVoqL"><path fill="none" stroke="none" d="M 75.5 35.5 L 575.5 35.5 L 575.5 285.5 L 75.5 285.5 L 75.5 35.5 Z"/></clipPath><clipPath id="KEZFLMeMuXkD"><path fill="none" stroke="none" d="M 75.5 35.5 L 575.5 35.5 L 575.5 285.5 L 75.5 285.5 L 75.5 35.5 Z"/></clipPath><clipPath id="QyZTCloGTdom"><path fill="none" stroke="none" d="M 75.5 35.5 L 575.5 35.5 L 575.5 285.5 L 75.5 285.5 L 75.5 35.5 Z"/></clipPath><clipPath id="aNdWgugrmaCx"><path fill="none" stroke="none" d="M 75.5 35.5 L 575.5 35.5 L 575.5 285.5 L 75.5 285.5 L 75.5 35.5 Z"/></clipPath></defs><path fill="none" stroke="#e5e5e5" paint-order="fill" d="M 75.5 35.5 L 575.5 35.5 L 575.5 285.5 L 75.5 285.5 L 75.5 35.5 Z" stroke-linejoin="bevel" stroke-miterlimit="10"/><path fill="none" stroke="black" paint-order="fill" d="M 337.46172248803487 35.5 L 337.46172248803487 285.5" stroke-linejoin="bevel" stroke-miterlimit="10" stroke-width="3" stroke-dasharray="6" clip-path="url(#aBgKEVGcMQHk)"/><path fill="none" stroke="#9467bd" paint-order="fill" d="M 98.2272720336914 73.46713256835938 L 122.15071868896484 82.74357604980469 L 146.07415771484375 81.41836547851562 L 169.9976043701172 88.04439544677734 L 193.92105102539062 75.45494079589844 L 217.84449768066406 80.0931625366211 L 241.7679443359375 73.46713256835938 L 265.6913757324219 86.05658721923828 L 289.6148376464844 67.50370788574219 L 313.53826904296875 66.17850494384766" stroke-linejoin="bevel" stroke-miterlimit="10" stroke-width="2" clip-path="url(#icVUiPAlJEEE)"/><path fill="none" stroke="#9467bd" paint-order="fill" d="M 98.2272720336914 82.57491302490234 L 122.15071868896484 81.43443298339844 L 146.07415771484375 80.29395294189453 L 169.9976043701172 79.15347290039062 L 193.92105102539062 78.01299285888672 L 217.84449768066406 76.87251281738281 L 241.7679443359375 75.7320327758789 L 265.6913757324219 74.591552734375 L 289.6148376464844 73.4510726928711 L 313.53826904296875 72.31059265136719" stroke-linejoin="bevel" stroke-miterlimit="10" stroke-width="2" stroke-dasharray="6" clip-path="url(#ruQVpSMTyiVb)"/><path fill="none" stroke="#30a2da" paint-order="fill" d="M 313.53826904296875 66.17850494384766 L 337.46173095703125 68.82891845703125 L 361.3851623535156 88.70700073242188 L 385.3086242675781 70.81672668457031 L 409.2320556640625 86.05658721923828 L 433.155517578125 88.70700073242188 L 457.0789489746094 82.08097076416016 L 481.00238037109375 86.05658721923828 L 504.92584228515625 80.75576782226562 L 528.8493041992188 75.45494079589844 L 552.772705078125 87.38179016113281" stroke-linejoin="bevel" stroke-miterlimit="10" stroke-width="2" clip-path="url(#vATWGGUPqcpi)"/><path fill="none" stroke="#30a2da" paint-order="fill" d="M 337.46173095703125 78.28606414794922 L 361.3851623535156 78.99685668945312 L 385.3086242675781 79.70764923095703 L 409.2320556640625 80.41844177246094 L 433.155517578125 81.12923431396484 L 457.0789489746094 81.84002685546875 L 481.00238037109375 82.55081939697266 L 504.92584228515625 83.26160430908203 L 528.8493041992188 83.97239685058594 L 552.772705078125 84.68318939208984" stroke-linejoin="bevel" stroke-miterlimit="10" stroke-width="2" stroke-dasharray="6" clip-path="url(#hXlbsdNcSbIn)"/><path fill="none" stroke="#fc4f30" paint-order="fill" d="M 313.53826904296875 66.17850494384766 L 337.46173095703125 82.08097076416016 L 361.3851623535156 97.32083129882812 L 385.3086242675781 98.64603424072266 L 409.2320556640625 86.05658721923828 L 433.155517578125 87.38179016113281 L 457.0789489746094 78.10535430908203 L 481.00238037109375 86.71919250488281 L 504.92584228515625 94.00782012939453 L 528.8493041992188 86.71919250488281 L 552.772705078125 80.75576782226562" stroke-linejoin="bevel" stroke-miterlimit="10" stroke-width="2" clip-path="url(#DCtHXozlZXGp)"/><path fill="none" stroke="#fc4f30" paint-order="fill" d="M 337.46173095703125 90.95984649658203 L 361.3851623535156 90.25306701660156 L 385.3086242675781 89.54629516601562 L 409.2320556640625 88.83951568603516 L 433.155517578125 88.13274383544922 L 457.0789489746094 87.42596435546875 L 481.00238037109375 86.71919250488281 L 504.92584228515625 86.01241302490234 L 528.8493041992188 85.30563354492188 L 552.772705078125 84.59886169433594" stroke-linejoin="bevel" stroke-miterlimit="10" stroke-width="2" stroke-dasharray="6" clip-path="url(#MOOzkcZuPTqm)"/><path fill="none" stroke="rgb(128,128,128)" paint-order="fill" d="M 98.2272720336914 78.76795959472656 L 122.15071868896484 69.49151611328125 L 146.07415771484375 80.75576782226562 L 169.9976043701172 72.80453491210938 L 193.92105102539062 83.40617370605469 L 217.84449768066406 85.39398193359375 L 241.7679443359375 80.0931625366211 L 265.6913757324219 84.73138427734375 L 289.6148376464844 77.4427490234375 L 313.53826904296875 80.75576782226562" stroke-opacity="0.7490196078431373" stroke-linejoin="bevel" stroke-miterlimit="10" clip-path="url(#MBplJiftgSpW)"/><path fill="none" stroke="grey" paint-order="fill" d="M 313.53826904296875 80.75576782226562 L 337.46173095703125 82.08097076416016 L 361.3851623535156 87.38179016113281 L 385.3086242675781 82.08097076416016 L 409.2320556640625 85.39398193359375 L 433.155517578125 90.69480895996094 L 457.0789489746094 77.4427490234375 L 481.00238037109375 74.79234313964844 L 504.92584228515625 84.73138427734375 L 528.8493041992188 76.11754608154297 L 552.772705078125 88.04439544677734" stroke-linejoin="bevel" stroke-miterlimit="10" stroke-width="0.5" clip-path="url(#vPKWSRbGXtvr)"/><path fill="none" stroke="grey" paint-order="fill" d="M 313.53826904296875 80.75576782226562 L 337.46173095703125 72.80453491210938 L 361.3851623535156 89.36959838867188 L 385.3086242675781 82.08097076416016 L 409.2320556640625 88.70700073242188 L 433.155517578125 82.74357604980469 L 457.0789489746094 84.73138427734375 L 481.00238037109375 84.06877899169922 L 504.92584228515625 68.82891845703125 L 528.8493041992188 89.36959838867188 L 552.772705078125 91.35740661621094" stroke-linejoin="bevel" stroke-miterlimit="10" stroke-width="0.5" clip-path="url(#rtrJbkEThEAi)"/><path fill="none" stroke="rgb(128,128,128)" paint-order="fill" d="M 98.2272720336914 74.1297378540039 L 122.15071868896484 78.10535430908203 L 146.07415771484375 80.0931625366211 L 169.9976043701172 91.35740661621094 L 193.92105102539062 78.10535430908203 L 217.84449768066406 82.08097076416016 L 241.7679443359375 80.75576782226562 L 265.6913757324219 76.7801513671875 L 289.6148376464844 92.68260955810547 L 313.53826904296875 82.08097076416016" stroke-opacity="0.7490196078431373" stroke-linejoin="bevel" stroke-miterlimit="10" clip-path="url(#knOnoUoOwsyB)"/><path fill="none" stroke="grey" paint-order="fill" d="M 313.53826904296875 82.08097076416016 L 337.46173095703125 72.14192962646484 L 361.3851623535156 77.4427490234375 L 385.3086242675781 79.43055725097656 L 409.2320556640625 94.00782012939453 L 433.155517578125 68.82891845703125 L 457.0789489746094 88.04439544677734 L 481.00238037109375 95.9956283569336 L 504.92584228515625 82.08097076416016 L 528.8493041992188 88.70700073242188 L 552.772705078125 82.08097076416016" stroke-linejoin="bevel" stroke-miterlimit="10" stroke-width="0.5" clip-path="url(#riNVGLyuvVrN)"/><path fill="none" stroke="grey" paint-order="fill" d="M 313.53826904296875 82.08097076416016 L 337.46173095703125 71.47932434082031 L 361.3851623535156 76.11754608154297 L 385.3086242675781 74.1297378540039 L 409.2320556640625 68.16631317138672 L 433.155517578125 82.74357604980469 L 457.0789489746094 78.76795959472656 L 481.00238037109375 84.06877899169922 L 504.92584228515625 85.39398193359375 L 528.8493041992188 74.79234313964844 L 552.772705078125 87.38179016113281" stroke-linejoin="bevel" stroke-miterlimit="10" stroke-width="0.5" clip-path="url(#nnJMkUseCeqp)"/><path fill="none" stroke="rgb(128,128,128)" paint-order="fill" d="M 98.2272720336914 87.38179016113281 L 122.15071868896484 76.7801513671875 L 146.07415771484375 80.0931625366211 L 169.9976043701172 95.33302307128906 L 193.92105102539062 86.05658721923828 L 217.84449768066406 86.71919250488281 L 241.7679443359375 91.35740661621094 L 265.6913757324219 78.10535430908203 L 289.6148376464844 84.06877899169922 L 313.53826904296875 79.43055725097656" stroke-opacity="0.7490196078431373" stroke-linejoin="bevel" stroke-miterlimit="10" clip-path="url(#WobJwJLKLNlO)"/><path fill="none" stroke="grey" paint-order="fill" d="M 313.53826904296875 79.43055725097656 L 337.46173095703125 80.75576782226562 L 361.3851623535156 59.5524787902832 L 385.3086242675781 84.73138427734375 L 409.2320556640625 72.80453491210938 L 433.155517578125 90.69480895996094 L 457.0789489746094 78.10535430908203 L 481.00238037109375 78.76795959472656 L 504.92584228515625 82.74357604980469 L 528.8493041992188 102.62165069580078 L 552.772705078125 64.85330200195312" stroke-linejoin="bevel" stroke-miterlimit="10" stroke-width="0.5" clip-path="url(#QSmVruxcLkmK)"/><path fill="none" stroke="grey" paint-order="fill" d="M 313.53826904296875 79.43055725097656 L 337.46173095703125 76.7801513671875 L 361.3851623535156 66.17850494384766 L 385.3086242675781 97.32083129882812 L 409.2320556640625 97.98343658447266 L 433.155517578125 81.41836547851562 L 457.0789489746094 79.43055725097656 L 481.00238037109375 82.74357604980469 L 504.92584228515625 86.71919250488281 L 528.8493041992188 72.80453491210938 L 552.772705078125 78.76795959472656" stroke-linejoin="bevel" stroke-miterlimit="10" stroke-width="0.5" clip-path="url(#mtOCufEIxtNk)"/><path fill="none" stroke="rgb(128,128,128)" paint-order="fill" d="M 98.2272720336914 77.4427490234375 L 122.15071868896484 75.45494079589844 L 146.07415771484375 78.76795959472656 L 169.9976043701172 74.1297378540039 L 193.92105102539062 90.0322036743164 L 217.84449768066406 71.47932434082031 L 241.7679443359375 78.10535430908203 L 265.6913757324219 87.38179016113281 L 289.6148376464844 92.68260955810547 L 313.53826904296875 82.74357604980469" stroke-opacity="0.7490196078431373" stroke-linejoin="bevel" stroke-miterlimit="10" clip-path="url(#PVsfDLZAZkiA)"/><path fill="none" stroke="grey" paint-order="fill" d="M 313.53826904296875 82.74357604980469 L 337.46173095703125 66.84111022949219 L 361.3851623535156 101.29644775390625 L 385.3086242675781 69.49151611328125 L 409.2320556640625 58.227272033691406 L 433.155517578125 76.11754608154297 L 457.0789489746094 76.11754608154297 L 481.00238037109375 75.45494079589844 L 504.92584228515625 83.40617370605469 L 528.8493041992188 95.33302307128906 L 552.772705078125 70.15412139892578" stroke-linejoin="bevel" stroke-miterlimit="10" stroke-width="0.5" clip-path="url(#hhyTsNPQVoqL)"/><path fill="none" stroke="grey" paint-order="fill" d="M 313.53826904296875 82.74357604980469 L 337.46173095703125 73.46713256835938 L 361.3851623535156 85.39398193359375 L 385.3086242675781 85.39398193359375 L 409.2320556640625 71.47932434082031 L 433.155517578125 90.0322036743164 L 457.0789489746094 80.0931625366211 L 481.00238037109375 64.1906967163086 L 504.92584228515625 82.08097076416016 L 528.8493041992188 77.4427490234375 L 552.772705078125 93.34521484375" stroke-linejoin="bevel" stroke-miterlimit="10" stroke-width="0.5" clip-path="url(#KEZFLMeMuXkD)"/><path fill="none" stroke="black" paint-order="fill" d="M 75.5 285.5 L 575.5 285.5" stroke-linejoin="bevel" stroke-miterlimit="10"/><path fill="none" stroke="black" paint-order="fill" d="M 98.5 291.5 L 98.5 283.5 M 217.5 291.5 L 217.5 283.5 M 337.5 291.5 L 337.5 283.5 M 457.5 291.5 L 457.5 283.5" stroke-linejoin="bevel" stroke-miterlimit="10"/><path fill="none" stroke="black" paint-order="fill" d="M 98.5 289.5 L 98.5 285.5 M 122.5 289.5 L 122.5 285.5 M 146.5 289.5 L 146.5 285.5 M 169.5 289.5 L 169.5 285.5 M 193.5 289.5 L 193.5 285.5 M 217.5 289.5 L 217.5 285.5 M 241.5 289.5 L 241.5 285.5 M 265.5 289.5 L 265.5 285.5 M 289.5 289.5 L 289.5 285.5 M 313.5 289.5 L 313.5 285.5 M 337.5 289.5 L 337.5 285.5 M 361.5 289.5 L 361.5 285.5 M 385.5 289.5 L 385.5 285.5 M 409.5 289.5 L 409.5 285.5 M 433.5 289.5 L 433.5 285.5 M 457.5 289.5 L 457.5 285.5 M 481.5 289.5 L 481.5 285.5 M 504.5 289.5 L 504.5 285.5 M 528.5 289.5 L 528.5 285.5 M 552.5 289.5 L 552.5 285.5" stroke-linejoin="bevel" stroke-miterlimit="10"/><text fill="#444444" stroke="none" font-family="helvetica" font-size="10pt" font-style="normal" font-weight="normal" text-decoration="normal" x="84.36060523986816" y="306" text-anchor="start" dominant-baseline="alphabetic" transform="matrix(1, 0, 0, 1, 0.5, 0.5)">2025</text><text fill="none" stroke="rgb(0,0,0)" font-family="helvetica" font-size="10pt" font-style="normal" font-weight="normal" text-decoration="normal" x="84.36060523986816" y="306" text-anchor="start" dominant-baseline="alphabetic" transform="matrix(1, 0, 0, 1, 0.5, 0.5)" stroke-opacity="0" stroke-linejoin="bevel" stroke-miterlimit="10">2025</text><text fill="#444444" stroke="none" font-family="helvetica" font-size="10pt" font-style="normal" font-weight="normal" text-decoration="normal" x="203.97783088684082" y="306" text-anchor="start" dominant-baseline="alphabetic" transform="matrix(1, 0, 0, 1, 0.5, 0.5)">2030</text><text fill="none" stroke="rgb(0,0,0)" font-family="helvetica" font-size="10pt" font-style="normal" font-weight="normal" text-decoration="normal" x="203.97783088684082" y="306" text-anchor="start" dominant-baseline="alphabetic" transform="matrix(1, 0, 0, 1, 0.5, 0.5)" stroke-opacity="0" stroke-linejoin="bevel" stroke-miterlimit="10">2030</text><text fill="#444444" stroke="none" font-family="helvetica" font-size="10pt" font-style="normal" font-weight="normal" text-decoration="normal" x="323.595064163208" y="306" text-anchor="start" dominant-baseline="alphabetic" transform="matrix(1, 0, 0, 1, 0.5, 0.5)">2035</text><text fill="none" stroke="rgb(0,0,0)" font-family="helvetica" font-size="10pt" font-style="normal" font-weight="normal" text-decoration="normal" x="323.595064163208" y="306" text-anchor="start" dominant-baseline="alphabetic" transform="matrix(1, 0, 0, 1, 0.5, 0.5)" stroke-opacity="0" stroke-linejoin="bevel" stroke-miterlimit="10">2035</text><text fill="#444444" stroke="none" font-family="helvetica" font-size="10pt" font-style="normal" font-weight="normal" text-decoration="normal" x="443.21228218078613" y="306" text-anchor="start" dominant-baseline="alphabetic" transform="matrix(1, 0, 0, 1, 0.5, 0.5)">2040</text><text fill="none" stroke="rgb(0,0,0)" font-family="helvetica" font-size="10pt" font-style="normal" font-weight="normal" text-decoration="normal" x="443.21228218078613" y="306" text-anchor="start" dominant-baseline="alphabetic" transform="matrix(1, 0, 0, 1, 0.5, 0.5)" stroke-opacity="0" stroke-linejoin="bevel" stroke-miterlimit="10">2040</text><text fill="#444444" stroke="none" font-family="helvetica" font-size="12pt" font-style="normal" font-weight="normal" text-decoration="normal" x="310.3166666030884" y="329" text-anchor="start" dominant-baseline="alphabetic" transform="matrix(1, 0, 0, 1, 0.5, 0.5)">Year</text><text fill="none" stroke="rgb(0,0,0)" font-family="helvetica" font-size="12pt" font-style="normal" font-weight="normal" text-decoration="normal" x="310.3166666030884" y="329" text-anchor="start" dominant-baseline="alphabetic" transform="matrix(1, 0, 0, 1, 0.5, 0.5)" stroke-opacity="0" stroke-linejoin="bevel" stroke-miterlimit="10">Year</text><path fill="none" stroke="black" paint-order="fill" d="M 75.5 285.5 L 75.5 35.5" stroke-linejoin="bevel" stroke-miterlimit="10"/><path fill="none" stroke="black" paint-order="fill" d="M 69.5 285.5 L 77.5 285.5 M 69.5 252.5 L 77.5 252.5 M 69.5 219.5 L 77.5 219.5 M 69.5 186.5 L 77.5 186.5 M 69.5 152.5 L 77.5 152.5 M 69.5 119.5 L 77.5 119.5 M 69.5 86.5 L 77.5 86.5 M 69.5 53.5 L 77.5 53.5" stroke-linejoin="bevel" stroke-miterlimit="10"/><path fill="none" stroke="black" paint-order="fill" d="M 71.5 285.5 L 75.5 285.5 M 71.5 278.5 L 75.5 278.5 M 71.5 272.5 L 75.5 272.5 M 71.5 265.5 L 75.5 265.5 M 71.5 258.5 L 75.5 258.5 M 71.5 252.5 L 75.5 252.5 M 71.5 245.5 L 75.5 245.5 M 71.5 239.5 L 75.5 239.5 M 71.5 232.5 L 75.5 232.5 M 71.5 225.5 L 75.5 225.5 M 71.5 219.5 L 75.5 219.5 M 71.5 212.5 L 75.5 212.5 M 71.5 205.5 L 75.5 205.5 M 71.5 199.5 L 75.5 199.5 M 71.5 192.5 L 75.5 192.5 M 71.5 186.5 L 75.5 186.5 M 71.5 179.5 L 75.5 179.5 M 71.5 172.5 L 75.5 172.5 M 71.5 166.5 L 75.5 166.5 M 71.5 159.5 L 75.5 159.5 M 71.5 152.5 L 75.5 152.5 M 71.5 146.5 L 75.5 146.5 M 71.5 139.5 L 75.5 139.5 M 71.5 133.5 L 75.5 133.5 M 71.5 126.5 L 75.5 126.5 M 71.5 119.5 L 75.5 119.5 M 71.5 113.5 L 75.5 113.5 M 71.5 106.5 L 75.5 106.5 M 71.5 99.5 L 75.5 99.5 M 71.5 93.5 L 75.5 93.5 M 71.5 86.5 L 75.5 86.5 M 71.5 80.5 L 75.5 80.5 M 71.5 73.5 L 75.5 73.5 M 71.5 66.5 L 75.5 66.5 M 71.5 60.5 L 75.5 60.5 M 71.5 53.5 L 75.5 53.5 M 71.5 46.5 L 75.5 46.5 M 71.5 40.5 L 75.5 40.5" stroke-linejoin="bevel" stroke-miterlimit="10"/><text fill="#444444" stroke="none" font-family="helvetica" font-size="10pt" font-style="normal" font-weight="normal" text-decoration="normal" x="57.31666660308838" y="290" text-anchor="start" dominant-baseline="alphabetic" transform="matrix(1, 0, 0, 1, 0.5, 0.5)">0</text><text fill="none" stroke="rgb(0,0,0)" font-family="helvetica" font-size="10pt" font-style="normal" font-weight="normal" text-decoration="normal" x="57.31666660308838" y="290" text-anchor="start" dominant-baseline="alphabetic" transform="matrix(1, 0, 0, 1, 0.5, 0.5)" stroke-opacity="0" stroke-linejoin="bevel" stroke-miterlimit="10">0</text><text fill="#444444" stroke="none" font-family="helvetica" font-size="10pt" font-style="normal" font-weight="normal" text-decoration="normal" x="50.63333320617676" y="256.86985778808594" text-anchor="start" dominant-baseline="alphabetic" transform="matrix(1, 0, 0, 1, 0.5, 0.5)">50</text><text fill="none" stroke="rgb(0,0,0)" font-family="helvetica" font-size="10pt" font-style="normal" font-weight="normal" text-decoration="normal" x="50.63333320617676" y="256.86985778808594" text-anchor="start" dominant-baseline="alphabetic" transform="matrix(1, 0, 0, 1, 0.5, 0.5)" stroke-opacity="0" stroke-linejoin="bevel" stroke-miterlimit="10">50</text><text fill="#444444" stroke="none" font-family="helvetica" font-size="10pt" font-style="normal" font-weight="normal" text-decoration="normal" x="43.95000076293945" y="223.73973083496094" text-anchor="start" dominant-baseline="alphabetic" transform="matrix(1, 0, 0, 1, 0.5, 0.5)">100</text><text fill="none" stroke="rgb(0,0,0)" font-family="helvetica" font-size="10pt" font-style="normal" font-weight="normal" text-decoration="normal" x="43.95000076293945" y="223.73973083496094" text-anchor="start" dominant-baseline="alphabetic" transform="matrix(1, 0, 0, 1, 0.5, 0.5)" stroke-opacity="0" stroke-linejoin="bevel" stroke-miterlimit="10">100</text><text fill="#444444" stroke="none" font-family="helvetica" font-size="10pt" font-style="normal" font-weight="normal" text-decoration="normal" x="43.95000076293945" y="190.60958862304688" text-anchor="start" dominant-baseline="alphabetic" transform="matrix(1, 0, 0, 1, 0.5, 0.5)">150</text><text fill="none" stroke="rgb(0,0,0)" font-family="helvetica" font-size="10pt" font-style="normal" font-weight="normal" text-decoration="normal" x="43.95000076293945" y="190.60958862304688" text-anchor="start" dominant-baseline="alphabetic" transform="matrix(1, 0, 0, 1, 0.5, 0.5)" stroke-opacity="0" stroke-linejoin="bevel" stroke-miterlimit="10">150</text><text fill="#444444" stroke="none" font-family="helvetica" font-size="10pt" font-style="normal" font-weight="normal" text-decoration="normal" x="43.95000076293945" y="157.47946166992188" text-anchor="start" dominant-baseline="alphabetic" transform="matrix(1, 0, 0, 1, 0.5, 0.5)">200</text><text fill="none" stroke="rgb(0,0,0)" font-family="helvetica" font-size="10pt" font-style="normal" font-weight="normal" text-decoration="normal" x="43.95000076293945" y="157.47946166992188" text-anchor="start" dominant-baseline="alphabetic" transform="matrix(1, 0, 0, 1, 0.5, 0.5)" stroke-opacity="0" stroke-linejoin="bevel" stroke-miterlimit="10">200</text><text fill="#444444" stroke="none" font-family="helvetica" font-size="10pt" font-style="normal" font-weight="normal" text-decoration="normal" x="43.95000076293945" y="124.34932708740234" text-anchor="start" dominant-baseline="alphabetic" transform="matrix(1, 0, 0, 1, 0.5, 0.5)">250</text><text fill="none" stroke="rgb(0,0,0)" font-family="helvetica" font-size="10pt" font-style="normal" font-weight="normal" text-decoration="normal" x="43.95000076293945" y="124.34932708740234" text-anchor="start" dominant-baseline="alphabetic" transform="matrix(1, 0, 0, 1, 0.5, 0.5)" stroke-opacity="0" stroke-linejoin="bevel" stroke-miterlimit="10">250</text><text fill="#444444" stroke="none" font-family="helvetica" font-size="10pt" font-style="normal" font-weight="normal" text-decoration="normal" x="43.95000076293945" y="91.21919250488281" text-anchor="start" dominant-baseline="alphabetic" transform="matrix(1, 0, 0, 1, 0.5, 0.5)">300</text><text fill="none" stroke="rgb(0,0,0)" font-family="helvetica" font-size="10pt" font-style="normal" font-weight="normal" text-decoration="normal" x="43.95000076293945" y="91.21919250488281" text-anchor="start" dominant-baseline="alphabetic" transform="matrix(1, 0, 0, 1, 0.5, 0.5)" stroke-opacity="0" stroke-linejoin="bevel" stroke-miterlimit="10">300</text><text fill="#444444" stroke="none" font-family="helvetica" font-size="10pt" font-style="normal" font-weight="normal" text-decoration="normal" x="43.95000076293945" y="58.089054107666016" text-anchor="start" dominant-baseline="alphabetic" transform="matrix(1, 0, 0, 1, 0.5, 0.5)">350</text><text fill="none" stroke="rgb(0,0,0)" font-family="helvetica" font-size="10pt" font-style="normal" font-weight="normal" text-decoration="normal" x="43.95000076293945" y="58.089054107666016" text-anchor="start" dominant-baseline="alphabetic" transform="matrix(1, 0, 0, 1, 0.5, 0.5)" stroke-opacity="0" stroke-linejoin="bevel" stroke-miterlimit="10">350</text><text fill="#444444" stroke="none" font-family="helvetica" font-size="12pt" font-style="normal" font-weight="normal" text-decoration="normal" x="-60.25833511352539" y="156" text-anchor="start" dominant-baseline="alphabetic" transform="matrix(6.123233995736766e-17, -1, 1, 6.123233995736766e-17, -123.54999923706055, 196.45000076293945)">Days suitable for transmission</text><text fill="none" stroke="rgb(0,0,0)" font-family="helvetica" font-size="12pt" font-style="normal" font-weight="normal" text-decoration="normal" x="-60.25833511352539" y="156" text-anchor="start" dominant-baseline="alphabetic" transform="matrix(6.123233995736766e-17, -1, 1, 6.123233995736766e-17, -123.54999923706055, 196.45000076293945)" stroke-opacity="0" stroke-linejoin="bevel" stroke-miterlimit="10">Days suitable for transmission</text><path fill="rgb(255,255,255)" stroke="rgb(229,229,229)" paint-order="fill" d="M 482.0333251953125 210.5 L 565.4999847412109 210.5 L 565.4999847412109 275.5 L 482.0333251953125 275.5 L 482.0333251953125 210.5 Z" fill-opacity="0.9490196078431372" clip-path="url(#QyZTCloGTdom)" stroke-opacity="0.5019607843137255" stroke-linejoin="bevel" stroke-miterlimit="10"/><g clip-path="url(#QyZTCloGTdom)"><g transform="matrix(1, 0, 0, 1, 492.5333251953125, 221)"><path fill="none" stroke="#30a2da" paint-order="fill" d="M 0.5 10.5 L 20.5 10.5" stroke-linejoin="bevel" stroke-miterlimit="10" stroke-width="2"/></g></g><g clip-path="url(#QyZTCloGTdom)"><text fill="#444444" stroke="none" font-family="helvetica" font-size="13px" font-style="normal" font-weight="normal" text-decoration="normal" x="517.5333251953125" y="235.5" text-anchor="start" dominant-baseline="alphabetic" transform="matrix(1, 0, 0, 1, 0.5, 0.5)">ID 001</text></g><g clip-path="url(#QyZTCloGTdom)"><text fill="none" stroke="rgb(0,0,0)" font-family="helvetica" font-size="13px" font-style="normal" font-weight="normal" text-decoration="normal" x="517.5333251953125" y="235.5" text-anchor="start" dominant-baseline="alphabetic" transform="matrix(1, 0, 0, 1, 0.5, 0.5)" stroke-opacity="0" stroke-linejoin="bevel" stroke-miterlimit="10">ID 001</text></g><g clip-path="url(#QyZTCloGTdom)"><g transform="matrix(1, 0, 0, 1, 492.5333251953125, 244)"><path fill="none" stroke="#fc4f30" paint-order="fill" d="M 0.5 10.5 L 20.5 10.5" stroke-linejoin="bevel" stroke-miterlimit="10" stroke-width="2"/></g></g><g clip-path="url(#QyZTCloGTdom)"><text fill="#444444" stroke="none" font-family="helvetica" font-size="13px" font-style="normal" font-weight="normal" text-decoration="normal" x="517.5333251953125" y="258.5" text-anchor="start" dominant-baseline="alphabetic" transform="matrix(1, 0, 0, 1, 0.5, 0.5)">ID 006</text></g><g clip-path="url(#QyZTCloGTdom)"><text fill="none" stroke="rgb(0,0,0)" font-family="helvetica" font-size="13px" font-style="normal" font-weight="normal" text-decoration="normal" x="517.5333251953125" y="258.5" text-anchor="start" dominant-baseline="alphabetic" transform="matrix(1, 0, 0, 1, 0.5, 0.5)" stroke-opacity="0" stroke-linejoin="bevel" stroke-miterlimit="10">ID 006</text></g><text fill="black" stroke="none" font-family="helvetica" font-size="14pt" font-style="normal" font-weight="normal" text-decoration="normal" x="0" y="18" text-anchor="start" dominant-baseline="alphabetic" transform="matrix(1, 0, 0, 1, 5.5, 7.5)">F. Hanoi</text><text fill="none" stroke="rgb(0,0,0)" font-family="helvetica" font-size="14pt" font-style="normal" font-weight="normal" text-decoration="normal" x="0" y="18" text-anchor="start" dominant-baseline="alphabetic" transform="matrix(1, 0, 0, 1, 5.5, 7.5)" stroke-opacity="0" stroke-linejoin="bevel" stroke-miterlimit="10">F. Hanoi</text></svg>