<svg version="1.1" xmlns="http://www.w3.org/2000/svg" width="600" height="329"><defs><clipPath id="TIBVHzOmJTao"><path fill="none" stroke="none" d="M 70.5 30.5 L 570.5 30.5 L 570.5 280.5 L 70.5 280.5 L 70.5 30.5 Z"/></clipPath><clipPath id="NimzTFegJnaf"><path fill="none" stroke="none" d="M 70.5 30.5 L 570.5 30.5 L 570.5 280.5 L 70.5 280.5 L 70.5 30.5 Z"/></clipPath><clipPath id="hdacMBAUeKOw"><path fill="none" stroke="none" d="M 70.5 30.5 L 570.5 30.5 L 570.5 280.5 L 70.5 280.5 L 70.5 30.5 Z"/></clipPath><clipPath id="ocHzQvACDTFg"><path fill="none" stroke="none" d="M 70.5 30.5 L 570.5 30.5 L 570.5 280.5 L 70.5 280.5 L 70.5 30.5 Z"/></clipPath><clipPath id="FbMwbgXrgtJN"><path fill="none" stroke="none" d="M 70.5 30.5 L 570.5 30.5 L 570.5 280.5 L 70.5 280.5 L 70.5 30.5 Z"/></clipPath><clipPath id="GBsyZIFMkxyF"><path fill="none" stroke="none" d="M 70.5 30.5 L 570.5 30.5 L 570.5 280.5 L 70.5 280.5 L 70.5 30.5 Z"/></clipPath><clipPath id="NWolTCxtarNo"><path fill="none" stroke="none" d="M 70.5 30.5 L 570.5 30.5 L 570.5 280.5 L 70.5 280.5 L 70.5 30.5 Z"/></clipPath><clipPath id="wpLVhohtBKaO"><path fill="none" stroke="none" d="M 70.5 30.5 L 570.5 30.5 L 570.5 280.5 L 70.5 280.5 L 70.5 30.5 Z"/></clipPath><clipPath id="dwdizOTUFEfW"><path fill="none" stroke="none" d="M 70.5 30.5 L 570.5 30.5 L 570.5 280.5 L 70.5 280.5 L 70.5 30.5 Z"/></clipPath><clipPath id="WuJnvpTcClDc"><path fill="none" stroke="none" d="M 70.5 30.5 L 570.5 30.5 L 570.5 280.5 L 70.5 280.5 L 70.5 30.5 Z"/></clipPath><clipPath id="KHJIpRvAJTFQ"><path fill="none" stroke="none" d="M 70.5 30.5 L 570.5 30.5 L 570.5 280.5 L 70.5 280.5 L 70.5 30.5 Z"/></clipPath><clipPath id="TyroiGITrQip"><path fill="none" stroke="none" d="M 70.5 30.5 L 570.5 30.5 L 570.5 280.5 L 70.5 280.5 L 70.5 30.5 Z"/></clipPath><clipPath id="sOtEQKwnZHqV"><path fill="none" stroke="none" d="M 70.5 30.5 L 570.5 30.5 L 570.5 280.5 L 70.5 280.5 L 70.5 30.5 Z"/></clipPath><clipPath id="QlGnooRtywDr"><path fill="none" stroke="none" d="M 70.5 30.5 L 570.5 30.5 L 570.5 280.5 L 70.5 280.5 L 70.5 30.5 Z"/></clipPath><clipPath id="WPGTSVbvocuo"><path fill="none" stroke="none" d="M 70.5 30.5 L 570.5 30.5 L 570.5 280.5 L 70.5 280.5 L 70.5 30.5 Z"/></clipPath><clipPath id="mqCuaAfHTtEs"><path fill="none" stroke="none" d="M 70.5 30.5 L 570.5 30.5 L 570.5 280.5 L 70.5 280.5 L 70.5 30.5 Z"/></clipPath><clipPath id="aTOTloyvtnQE"><path fill="none" stroke="none" d="M 70.5 30.5 L 570.5 30.5 L 570.5 280.5 L 70.5 280.5 L 70.5 30.5 Z"/></clipPath><clipPath id="vSGaZOyGuTRp"><path fill="none" stroke="none" d="M 70.5 30.5 L 570.5 30.5 L 570.5 280.5 L 70.5 280.5 L 70.5 30.5 Z"/></clipPath><clipPath id="nICshGZVvdTs"><path fill="none" stroke="none" d="M 70.5 30.5 L 570.5 30.5 L 570.5 280.5 L 70.5 280.5 L 70.5 30.5 Z"/></clipPath><clipPath id="eIVxJGaUbIqJ"><path fill="none" stroke="none" d="M 70.5 30.5 L 570.5 30.5 L 570.5 280.5 L 70.5 280.5 L 70.5 30.5 Z"/></clipPath><clipPath id="OkUTZoQoEvtk"><path fill="none" stroke="none" d="M 70.5 30.5 L 570.5 30.5 L 570.5 280.5 L 70.5 280.5 L 70.5 30.5 Z"/></clipPath><clipPath id="JkyarvgWlZZm"><path fill="none" stroke="none" d="M 70.5 30.5 L 570.5 30.5 L 570.5 280.5 L 70.5 280.5 L 70.5 30.5 Z"/></clipPath><clipPath id="JmrIehWtgLtl"><path fill="none" stroke="none" d="M 70.5 30.5 L 570.5 30.5 L 570.5 280.5 L 70.5 280.5 L 70.5 30.5 Z"/></clipPath></defs><path fill="none" stroke="#e5e5e5" paint-order="fill" d="M 70.5 30.5 L 570.5 30.5 L 570.5 280.5 L 70.5 280.5 L 70.5 30.5 Z" stroke-linejoin="bevel" stroke-miterlimit="10"/><path fill="none" stroke="black" paint-order="fill" d="M 332.46172248803487 30.5 L 332.46172248803487 280.5" stroke-linejoin="bevel" stroke-miterlimit="10" stroke-width="3" stroke-dasharray="6" clip-path="url(#hdacMBAUeKOw)"/><path fill="none" stroke="#9467bd" paint-order="fill" d="M 93.2272720336914 68.46713256835938 L 117.15071868896484 77.74357604980469 L 141.07415771484375 76.41836547851562 L 164.9976043701172 83.04439544677734 L 188.92105102539062 70.45494079589844 L 212.84449768066406 75.0931625366211 L 236.7679443359375 68.46713256835938 L 260.6913757324219 81.05658721923828 L 284.6148376464844 62.50371170043945 L 308.53826904296875 61.178504943847656" stroke-linejoin="bevel" stroke-miterlimit="10" stroke-width="2" clip-path="url(#ocHzQvACDTFg)"/><path fill="none" stroke="#9467bd" paint-order="fill" d="M 93.2272720336914 68.46713256835938 L 117.15071868896484 77.74357604980469 L 141.07415771484375 76.41836547851562 L 164.9976043701172 83.04439544677734 L 188.92105102539062 70.45494079589844 L 212.84449768066406 75.0931625366211 L 236.7679443359375 68.46713256835938 L 260.6913757324219 81.05658721923828 L 284.6148376464844 62.50371170043945 L 308.53826904296875 61.178504943847656" stroke-linejoin="bevel" stroke-miterlimit="10" stroke-width="2" stroke-dasharray="6" clip-path="url(#FbMwbgXrgtJN)"/><path fill="none" stroke="#30a2da" paint-order="fill" d="M 308.53826904296875 61.178504943847656 L 332.46173095703125 63.828914642333984 L 356.3851623535156 83.70700073242188 L 380.3086242675781 65.81672668457031 L 404.2320556640625 81.05658721923828 L 428.155517578125 83.70700073242188 L 452.0789489746094 77.08097076416016 L 476.00238037109375 81.05658721923828 L 499.92584228515625 75.75576782226562 L 523.8493041992188 70.45494079589844 L 547.772705078125 82.38179016113281" stroke-linejoin="bevel" stroke-miterlimit="10" stroke-width="2" clip-path="url(#GBsyZIFMkxyF)"/><path fill="none" stroke="#30a2da" paint-order="fill" d="M 332.46173095703125 73.28606414794922 L 356.3851623535156 73.99685668945312 L 380.3086242675781 74.70764923095703 L 404.2320556640625 75.41844177246094 L 428.155517578125 76.12923431396484 L 452.0789489746094 76.84002685546875 L 476.00238037109375 77.55081939697266 L 499.92584228515625 78.26160430908203 L 523.8493041992188 78.97239685058594 L 547.772705078125 79.68318939208984" stroke-linejoin="bevel" stroke-miterlimit="10" stroke-width="2" stroke-dasharray="6" clip-path="url(#NWolTCxtarNo)"/><path fill="none" stroke="#fc4f30" paint-order="fill" d="M 308.53826904296875 61.178504943847656 L 332.46173095703125 77.08097076416016 L 356.3851623535156 92.32083129882812 L 380.3086242675781 93.64603424072266 L 404.2320556640625 81.05658721923828 L 428.155517578125 82.38179016113281 L 452.0789489746094 73.10535430908203 L 476.00238037109375 81.71919250488281 L 499.92584228515625 89.00782012939453 L 523.8493041992188 81.71919250488281 L 547.772705078125 75.75576782226562" stroke-linejoin="bevel" stroke-miterlimit="10" stroke-width="2" clip-path="url(#wpLVhohtBKaO)"/><path fill="none" stroke="#fc4f30" paint-order="fill" d="M 332.46173095703125 85.95984649658203 L 356.3851623535156 85.25306701660156 L 380.3086242675781 84.54629516601562 L 404.2320556640625 83.83951568603516 L 428.155517578125 83.13274383544922 L 452.0789489746094 82.42596435546875 L 476.00238037109375 81.71919250488281 L 499.92584228515625 81.01241302490234 L 523.8493041992188 80.30563354492188 L 547.772705078125 79.59886169433594" stroke-linejoin="bevel" stroke-miterlimit="10" stroke-width="2" stroke-dasharray="6" clip-path="url(#dwdizOTUFEfW)"/><path fill="none" stroke="rgb(128,128,128)" paint-order="fill" d="M 93.2272720336914 73.76795959472656 L 117.15071868896484 64.49151992797852 L 141.07415771484375 75.75576782226562 L 164.9976043701172 67.80453491210938 L 188.92105102539062 78.40617370605469 L 212.84449768066406 80.39398193359375 L 236.7679443359375 75.0931625366211 L 260.6913757324219 79.73138427734375 L 284.6148376464844 72.4427490234375 L 308.53826904296875 75.75576782226562" stroke-opacity="0.7490196078431373" stroke-linejoin="bevel" stroke-miterlimit="10" clip-path="url(#WuJnvpTcClDc)"/><path fill="none" stroke="grey" paint-order="fill" d="M 308.53826904296875 75.75576782226562 L 332.46173095703125 77.08097076416016 L 356.3851623535156 82.38179016113281 L 380.3086242675781 77.08097076416016 L 404.2320556640625 80.39398193359375 L 428.155517578125 85.69480895996094 L 452.0789489746094 72.4427490234375 L 476.00238037109375 69.79234313964844 L 499.92584228515625 79.73138427734375 L 523.8493041992188 71.11754608154297 L 547.772705078125 83.04439544677734" stroke-linejoin="bevel" stroke-miterlimit="10" stroke-width="0.5" clip-path="url(#KHJIpRvAJTFQ)"/><path fill="none" stroke="grey" paint-order="fill" d="M 308.53826904296875 75.75576782226562 L 332.46173095703125 67.80453491210938 L 356.3851623535156 84.36959838867188 L 380.3086242675781 77.08097076416016 L 404.2320556640625 83.70700073242188 L 428.155517578125 77.74357604980469 L 452.0789489746094 79.73138427734375 L 476.00238037109375 79.06877899169922 L 499.92584228515625 63.828914642333984 L 523.8493041992188 84.36959838867188 L 547.772705078125 86.35740661621094" stroke-linejoin="bevel" stroke-miterlimit="10" stroke-width="0.5" clip-path="url(#TyroiGITrQip)"/><path fill="none" stroke="rgb(128,128,128)" paint-order="fill" d="M 93.2272720336914 69.1297378540039 L 117.15071868896484 73.10535430908203 L 141.07415771484375 75.0931625366211 L 164.9976043701172 86.35740661621094 L 188.92105102539062 73.10535430908203 L 212.84449768066406 77.08097076416016 L 236.7679443359375 75.75576782226562 L 260.6913757324219 71.7801513671875 L 284.6148376464844 87.68260955810547 L 308.53826904296875 77.08097076416016" stroke-opacity="0.7490196078431373" stroke-linejoin="bevel" stroke-miterlimit="10" clip-path="url(#sOtEQKwnZHqV)"/><path fill="none" stroke="grey" paint-order="fill" d="M 308.53826904296875 77.08097076416016 L 332.46173095703125 67.14192962646484 L 356.3851623535156 72.4427490234375 L 380.3086242675781 74.43055725097656 L 404.2320556640625 89.00782012939453 L 428.155517578125 63.828914642333984 L 452.0789489746094 83.04439544677734 L 476.00238037109375 90.9956283569336 L 499.92584228515625 77.08097076416016 L 523.8493041992188 83.70700073242188 L 547.772705078125 77.08097076416016" stroke-linejoin="bevel" stroke-miterlimit="10" stroke-width="0.5" clip-path="url(#QlGnooRtywDr)"/><path fill="none" stroke="grey" paint-order="fill" d="M 308.53826904296875 77.08097076416016 L 332.46173095703125 66.47932434082031 L 356.3851623535156 71.11754608154297 L 380.3086242675781 69.1297378540039 L 404.2320556640625 63.16631317138672 L 428.155517578125 77.74357604980469 L 452.0789489746094 73.76795959472656 L 476.00238037109375 79.06877899169922 L 499.92584228515625 80.39398193359375 L 523.8493041992188 69.79234313964844 L 547.772705078125 82.38179016113281" stroke-linejoin="bevel" stroke-miterlimit="10" stroke-width="0.5" clip-path="url(#WPGTSVbvocuo)"/><path fill="none" stroke="rgb(128,128,128)" paint-order="fill" d="M 93.2272720336914 82.38179016113281 L 117.15071868896484 71.7801513671875 L 141.07415771484375 75.0931625366211 L 164.9976043701172 90.33302307128906 L 188.92105102539062 81.05658721923828 L 212.84449768066406 81.71919250488281 L 236.7679443359375 86.35740661621094 L 260.6913757324219 73.10535430908203 L 284.6148376464844 79.06877899169922 L 308.53826904296875 74.43055725097656" stroke-opacity="0.7490196078431373" stroke-linejoin="bevel" stroke-miterlimit="10" clip-path="url(#mqCuaAfHTtEs)"/><path fill="none" stroke="grey" paint-order="fill" d="M 308.53826904296875 74.43055725097656 L 332.46173095703125 75.75576782226562 L 356.3851623535156 54.5524787902832 L 380.3086242675781 79.73138427734375 L 404.2320556640625 67.80453491210938 L 428.155517578125 85.69480895996094 L 452.0789489746094 73.10535430908203 L 476.00238037109375 73.76795959472656 L 499.92584228515625 77.74357604980469 L 523.8493041992188 97.62165069580078 L 547.772705078125 59.85329818725586" stroke-linejoin="bevel" stroke-miterlimit="10" stroke-width="0.5" clip-path="url(#aTOTloyvtnQE)"/><path fill="none" stroke="grey" paint-order="fill" d="M 308.53826904296875 74.43055725097656 L 332.46173095703125 71.7801513671875 L 356.3851623535156 61.178504943847656 L 380.3086242675781 92.32083129882812 L 404.2320556640625 92.98343658447266 L 428.155517578125 76.41836547851562 L 452.0789489746094 74.43055725097656 L 476.00238037109375 77.74357604980469 L 499.92584228515625 81.71919250488281 L 523.8493041992188 67.80453491210938 L 547.772705078125 73.76795959472656" stroke-linejoin="bevel" stroke-miterlimit="10" stroke-width="0.5" clip-path="url(#vSGaZOyGuTRp)"/><path fill="none" stroke="rgb(128,128,128)" paint-order="fill" d="M 93.2272720336914 72.4427490234375 L 117.15071868896484 70.45494079589844 L 141.07415771484375 73.76795959472656 L 164.9976043701172 69.1297378540039 L 188.92105102539062 85.0322036743164 L 212.84449768066406 66.47932434082031 L 236.7679443359375 73.10535430908203 L 260.6913757324219 82.38179016113281 L 284.6148376464844 87.68260955810547 L 308.53826904296875 77.74357604980469" stroke-opacity="0.7490196078431373" stroke-linejoin="bevel" stroke-miterlimit="10" clip-path="url(#nICshGZVvdTs)"/><path fill="none" stroke="grey" paint-order="fill" d="M 308.53826904296875 77.74357604980469 L 332.46173095703125 61.84110641479492 L 356.3851623535156 96.29644775390625 L 380.3086242675781 64.49151992797852 L 404.2320556640625 53.227272033691406 L 428.155517578125 71.11754608154297 L 452.0789489746094 71.11754608154297 L 476.00238037109375 70.45494079589844 L 499.92584228515625 78.40617370605469 L 523.8493041992188 90.33302307128906 L 547.772705078125 65.15412139892578" stroke-linejoin="bevel" stroke-miterlimit="10" stroke-width="0.5" clip-path="url(#eIVxJGaUbIqJ)"/><path fill="none" stroke="grey" paint-order="fill" d="M 308.53826904296875 77.74357604980469 L 332.46173095703125 68.46713256835938 L 356.3851623535156 80.39398193359375 L 380.3086242675781 80.39398193359375 L 404.2320556640625 66.47932434082031 L 428.155517578125 85.0322036743164 L 452.0789489746094 75.0931625366211 L 476.00238037109375 59.190696716308594 L 499.92584228515625 77.08097076416016 L 523.8493041992188 72.4427490234375 L 547.772705078125 88.34521484375" stroke-linejoin="bevel" stroke-miterlimit="10" stroke-width="0.5" clip-path="url(#OkUTZoQoEvtk)"/><path fill="none" stroke="black" paint-order="fill" d="M 70.5 280.5 L 570.5 280.5" stroke-linejoin="bevel" stroke-miterlimit="10"/><path fill="none" stroke="black" paint-order="fill" d="M 93.5 286.5 L 93.5 278.5 M 212.5 286.5 L 212.5 278.5 M 332.5 286.5 L 332.5 278.5 M 452.5 286.5 L 452.5 278.5" stroke-linejoin="bevel" stroke-miterlimit="10"/><path fill="none" stroke="black" paint-order="fill" d="M 93.5 284.5 L 93.5 280.5 M 117.5 284.5 L 117.5 280.5 M 141.5 284.5 L 141.5 280.5 M 164.5 284.5 L 164.5 280.5 M 188.5 284.5 L 188.5 280.5 M 212.5 284.5 L 212.5 280.5 M 236.5 284.5 L 236.5 280.5 M 260.5 284.5 L 260.5 280.5 M 284.5 284.5 L 284.5 280.5 M 308.5 284.5 L 308.5 280.5 M 332.5 284.5 L 332.5 280.5 M 356.5 284.5 L 356.5 280.5 M 380.5 284.5 L 380.5 280.5 M 404.5 284.5 L 404.5 280.5 M 428.5 284.5 L 428.5 280.5 M 452.5 284.5 L 452.5 280.5 M 476.5 284.5 L 476.5 280.5 M 499.5 284.5 L 499.5 280.5 M 523.5 284.5 L 523.5 280.5 M 547.5 284.5 L 547.5 280.5" stroke-linejoin="bevel" stroke-miterlimit="10"/><text fill="#444444" stroke="none" font-family="helvetica" font-size="10pt" font-style="normal" font-weight="normal" text-decoration="normal" x="77.82727241516113" y="300.59368896484375" text-anchor="start" dominant-baseline="alphabetic" transform="matrix(1, 0, 0, 1, 0.5, 0.5)">2025</text><text fill="none" stroke="rgb(0,0,0)" font-family="helvetica" font-size="10pt" font-style="normal" font-weight="normal" text-decoration="normal" x="77.82727241516113" y="300.59368896484375" text-anchor="start" dominant-baseline="alphabetic" transform="matrix(1, 0, 0, 1, 0.5, 0.5)" stroke-opacity="0" stroke-linejoin="bevel" stroke-miterlimit="10">2025</text><text fill="#444444" stroke="none" font-family="helvetica" font-size="10pt" font-style="normal" font-weight="normal" text-decoration="normal" x="197.4444980621338" y="300.59368896484375" text-anchor="start" dominant-baseline="alphabetic" transform="matrix(1, 0, 0, 1, 0.5, 0.5)">2030</text><text fill="none" stroke="rgb(0,0,0)" font-family="helvetica" font-size="10pt" font-style="normal" font-weight="normal" text-decoration="normal" x="197.4444980621338" y="300.59368896484375" text-anchor="start" dominant-baseline="alphabetic" transform="matrix(1, 0, 0, 1, 0.5, 0.5)" stroke-opacity="0" stroke-linejoin="bevel" stroke-miterlimit="10">2030</text><text fill="#444444" stroke="none" font-family="helvetica" font-size="10pt" font-style="normal" font-weight="normal" text-decoration="normal" x="317.061731338501" y="300.59368896484375" text-anchor="start" dominant-baseline="alphabetic" transform="matrix(1, 0, 0, 1, 0.5, 0.5)">2035</text><text fill="none" stroke="rgb(0,0,0)" font-family="helvetica" font-size="10pt" font-style="normal" font-weight="normal" text-decoration="normal" x="317.061731338501" y="300.59368896484375" text-anchor="start" dominant-baseline="alphabetic" transform="matrix(1, 0, 0, 1, 0.5, 0.5)" stroke-opacity="0" stroke-linejoin="bevel" stroke-miterlimit="10">2035</text><text fill="#444444" stroke="none" font-family="helvetica" font-size="10pt" font-style="normal" font-weight="normal" text-decoration="normal" x="436.6789493560791" y="300.59368896484375" text-anchor="start" dominant-baseline="alphabetic" transform="matrix(1, 0, 0, 1, 0.5, 0.5)">2040</text><text fill="none" stroke="rgb(0,0,0)" font-family="helvetica" font-size="10pt" font-style="normal" font-weight="normal" text-decoration="normal" x="436.6789493560791" y="300.59368896484375" text-anchor="start" dominant-baseline="alphabetic" transform="matrix(1, 0, 0, 1, 0.5, 0.5)" stroke-opacity="0" stroke-linejoin="bevel" stroke-miterlimit="10">2040</text><text fill="#444444" stroke="none" font-family="helvetica" font-size="12pt" font-style="normal" font-weight="normal" text-decoration="normal" x="303.8333339691162" y="321.59368896484375" text-anchor="start" dominant-baseline="alphabetic" transform="matrix(1, 0, 0, 1, 0.5, 0.5)">Year</text><text fill="none" stroke="rgb(0,0,0)" font-family="helvetica" font-size="12pt" font-style="normal" font-weight="normal" text-decoration="normal" x="303.8333339691162" y="321.59368896484375" text-anchor="start" dominant-baseline="alphabetic" transform="matrix(1, 0, 0, 1, 0.5, 0.5)" stroke-opacity="0" stroke-linejoin="bevel" stroke-miterlimit="10">Year</text><path fill="none" stroke="black" paint-order="fill" d="M 70.5 280.5 L 70.5 30.5" stroke-linejoin="bevel" stroke-miterlimit="10"/><path fill="none" stroke="black" paint-order="fill" d="M 64.5 280.5 L 72.5 280.5 M 64.5 247.5 L 72.5 247.5 M 64.5 214.5 L 72.5 214.5 M 64.5 181.5 L 72.5 181.5 M 64.5 147.5 L 72.5 147.5 M 64.5 114.5 L 72.5 114.5 M 64.5 81.5 L 72.5 81.5 M 64.5 48.5 L 72.5 48.5" stroke-linejoin="bevel" stroke-miterlimit="10"/><path fill="none" stroke="black" paint-order="fill" d="M 66.5 280.5 L 70.5 280.5 M 66.5 273.5 L 70.5 273.5 M 66.5 267.5 L 70.5 267.5 M 66.5 260.5 L 70.5 260.5 M 66.5 253.5 L 70.5 253.5 M 66.5 247.5 L 70.5 247.5 M 66.5 240.5 L 70.5 240.5 M 66.5 234.5 L 70.5 234.5 M 66.5 227.5 L 70.5 227.5 M 66.5 220.5 L 70.5 220.5 M 66.5 214.5 L 70.5 214.5 M 66.5 207.5 L 70.5 207.5 M 66.5 200.5 L 70.5 200.5 M 66.5 194.5 L 70.5 194.5 M 66.5 187.5 L 70.5 187.5 M 66.5 181.5 L 70.5 181.5 M 66.5 174.5 L 70.5 174.5 M 66.5 167.5 L 70.5 167.5 M 66.5 161.5 L 70.5 161.5 M 66.5 154.5 L 70.5 154.5 M 66.5 147.5 L 70.5 147.5 M 66.5 141.5 L 70.5 141.5 M 66.5 134.5 L 70.5 134.5 M 66.5 128.5 L 70.5 128.5 M 66.5 121.5 L 70.5 121.5 M 66.5 114.5 L 70.5 114.5 M 66.5 108.5 L 70.5 108.5 M 66.5 101.5 L 70.5 101.5 M 66.5 94.5 L 70.5 94.5 M 66.5 88.5 L 70.5 88.5 M 66.5 81.5 L 70.5 81.5 M 66.5 75.5 L 70.5 75.5 M 66.5 68.5 L 70.5 68.5 M 66.5 61.5 L 70.5 61.5 M 66.5 55.5 L 70.5 55.5 M 66.5 48.5 L 70.5 48.5 M 66.5 41.5 L 70.5 41.5 M 66.5 35.5 L 70.5 35.5" stroke-linejoin="bevel" stroke-miterlimit="10"/><text fill="#444444" stroke="none" font-family="helvetica" font-size="10pt" font-style="normal" font-weight="normal" text-decoration="normal" x="51.55000019073486" y="284.7968444824219" text-anchor="start" dominant-baseline="alphabetic" transform="matrix(1, 0, 0, 1, 0.5, 0.5)">0</text><text fill="none" stroke="rgb(0,0,0)" font-family="helvetica" font-size="10pt" font-style="normal" font-weight="normal" text-decoration="normal" x="51.55000019073486" y="284.7968444824219" text-anchor="start" dominant-baseline="alphabetic" transform="matrix(1, 0, 0, 1, 0.5, 0.5)" stroke-opacity="0" stroke-linejoin="bevel" stroke-miterlimit="10">0</text><text fill="#444444" stroke="none" font-family="helvetica" font-size="10pt" font-style="normal" font-weight="normal" text-decoration="normal" x="44.10000038146973" y="251.6667022705078" text-anchor="start" dominant-baseline="alphabetic" transform="matrix(1, 0, 0, 1, 0.5, 0.5)">50</text><text fill="none" stroke="rgb(0,0,0)" font-family="helvetica" font-size="10pt" font-style="normal" font-weight="normal" text-decoration="normal" x="44.10000038146973" y="251.6667022705078" text-anchor="start" dominant-baseline="alphabetic" transform="matrix(1, 0, 0, 1, 0.5, 0.5)" stroke-opacity="0" stroke-linejoin="bevel" stroke-miterlimit="10">50</text><text fill="#444444" stroke="none" font-family="helvetica" font-size="10pt" font-style="normal" font-weight="normal" text-decoration="normal" x="36.64999961853027" y="218.5365753173828" text-anchor="start" dominant-baseline="alphabetic" transform="matrix(1, 0, 0, 1, 0.5, 0.5)">100</text><text fill="none" stroke="rgb(0,0,0)" font-family="helvetica" font-size="10pt" font-style="normal" font-weight="normal" text-decoration="normal" x="36.64999961853027" y="218.5365753173828" text-anchor="start" dominant-baseline="alphabetic" transform="matrix(1, 0, 0, 1, 0.5, 0.5)" stroke-opacity="0" stroke-linejoin="bevel" stroke-miterlimit="10">100</text><text fill="#444444" stroke="none" font-family="helvetica" font-size="10pt" font-style="normal" font-weight="normal" text-decoration="normal" x="36.64999961853027" y="185.40643310546875" text-anchor="start" dominant-baseline="alphabetic" transform="matrix(1, 0, 0, 1, 0.5, 0.5)">150</text><text fill="none" stroke="rgb(0,0,0)" font-family="helvetica" font-size="10pt" font-style="normal" font-weight="normal" text-decoration="normal" x="36.64999961853027" y="185.40643310546875" text-anchor="start" dominant-baseline="alphabetic" transform="matrix(1, 0, 0, 1, 0.5, 0.5)" stroke-opacity="0" stroke-linejoin="bevel" stroke-miterlimit="10">150</text><text fill="#444444" stroke="none" font-family="helvetica" font-size="10pt" font-style="normal" font-weight="normal" text-decoration="normal" x="36.64999961853027" y="152.27630615234375" text-anchor="start" dominant-baseline="alphabetic" transform="matrix(1, 0, 0, 1, 0.5, 0.5)">200</text><text fill="none" stroke="rgb(0,0,0)" font-family="helvetica" font-size="10pt" font-style="normal" font-weight="normal" text-decoration="normal" x="36.64999961853027" y="152.27630615234375" text-anchor="start" dominant-baseline="alphabetic" transform="matrix(1, 0, 0, 1, 0.5, 0.5)" stroke-opacity="0" stroke-linejoin="bevel" stroke-miterlimit="10">200</text><text fill="#444444" stroke="none" font-family="helvetica" font-size="10pt" font-style="normal" font-weight="normal" text-decoration="normal" x="36.64999961853027" y="119.14617156982422" text-anchor="start" dominant-baseline="alphabetic" transform="matrix(1, 0, 0, 1, 0.5, 0.5)">250</text><text fill="none" stroke="rgb(0,0,0)" font-family="helvetica" font-size="10pt" font-style="normal" font-weight="normal" text-decoration="normal" x="36.64999961853027" y="119.14617156982422" text-anchor="start" dominant-baseline="alphabetic" transform="matrix(1, 0, 0, 1, 0.5, 0.5)" stroke-opacity="0" stroke-linejoin="bevel" stroke-miterlimit="10">250</text><text fill="#444444" stroke="none" font-family="helvetica" font-size="10pt" font-style="normal" font-weight="normal" text-decoration="normal" x="36.64999961853027" y="86.01603698730469" text-anchor="start" dominant-baseline="alphabetic" transform="matrix(1, 0, 0, 1, 0.5, 0.5)">300</text><text fill="none" stroke="rgb(0,0,0)" font-family="helvetica" font-size="10pt" font-style="normal" font-weight="normal" text-decoration="normal" x="36.64999961853027" y="86.01603698730469" text-anchor="start" dominant-baseline="alphabetic" transform="matrix(1, 0, 0, 1, 0.5, 0.5)" stroke-opacity="0" stroke-linejoin="bevel" stroke-miterlimit="10">300</text><text fill="#444444" stroke="none" font-family="helvetica" font-size="10pt" font-style="normal" font-weight="normal" text-decoration="normal" x="36.64999961853027" y="52.88589859008789" text-anchor="start" dominant-baseline="alphabetic" transform="matrix(1, 0, 0, 1, 0.5, 0.5)">350</text><text fill="none" stroke="rgb(0,0,0)" font-family="helvetica" font-size="10pt" font-style="normal" font-weight="normal" text-decoration="normal" x="36.64999961853027" y="52.88589859008789" text-anchor="start" dominant-baseline="alphabetic" transform="matrix(1, 0, 0, 1, 0.5, 0.5)" stroke-opacity="0" stroke-linejoin="bevel" stroke-miterlimit="10">350</text><text fill="#444444" stroke="none" font-family="helvetica" font-size="12pt" font-style="normal" font-weight="normal" text-decoration="normal" x="-78.07499885559082" y="151" text-anchor="start" dominant-baseline="alphabetic" transform="matrix(6.123233995736766e-17, -1, 1, 6.123233995736766e-17, -125.85000038146973, 184.14999961853027)">Days suitable for transmission</text><text fill="none" stroke="rgb(0,0,0)" font-family="helvetica" font-size="12pt" font-style="normal" font-weight="normal" text-decoration="normal" x="-78.07499885559082" y="151" text-anchor="start" dominant-baseline="alphabetic" transform="matrix(6.123233995736766e-17, -1, 1, 6.123233995736766e-17, -125.85000038146973, 184.14999961853027)" stroke-opacity="0" stroke-linejoin="bevel" stroke-miterlimit="10">Days suitable for transmission</text><path fill="rgb(255,255,255)" stroke="rgb(229,229,229)" paint-order="fill" d="M 475.183349609375 205.5 L 560.5000152587891 205.5 L 560.5000152587891 270.5 L 475.183349609375 270.5 L 475.183349609375 205.5 Z" fill-opacity="0.9490196078431372" clip-path="url(#JkyarvgWlZZm)" stroke-opacity="0.5019607843137255" stroke-linejoin="bevel" stroke-miterlimit="10"/><g clip-path="url(#JkyarvgWlZZm)"><g transform="matrix(1, 0, 0, 1, 485.683349609375, 216)"><path fill="none" stroke="#30a2da" paint-order="fill" d="M 0.5 10.5 L 20.5 10.5" stroke-linejoin="bevel" stroke-miterlimit="10" stroke-width="2"/></g></g><g clip-path="url(#JkyarvgWlZZm)"><text fill="#444444" stroke="none" font-family="helvetica" font-size="13px" font-style="normal" font-weight="normal" text-decoration="normal" x="510.683349609375" y="230" text-anchor="start" dominant-baseline="alphabetic" transform="matrix(1, 0, 0, 1, 0.5, 0.5)">ID 001</text></g><g clip-path="url(#JkyarvgWlZZm)"><text fill="none" stroke="rgb(0,0,0)" font-family="helvetica" font-size="13px" font-style="normal" font-weight="normal" text-decoration="normal" x="510.683349609375" y="230" text-anchor="start" dominant-baseline="alphabetic" transform="matrix(1, 0, 0, 1, 0.5, 0.5)" stroke-opacity="0" stroke-linejoin="bevel" stroke-miterlimit="10">ID 001</text></g><g clip-path="url(#JkyarvgWlZZm)"><g transform="matrix(1, 0, 0, 1, 485.683349609375, 239)"><path fill="none" stroke="#fc4f30" paint-order="fill" d="M 0.5 10.5 L 20.5 10.5" stroke-linejoin="bevel" stroke-miterlimit="10" stroke-width="2"/></g></g><g clip-path="url(#JkyarvgWlZZm)"><text fill="#444444" stroke="none" font-family="helvetica" font-size="13px" font-style="normal" font-weight="normal" text-decoration="normal" x="510.683349609375" y="253" text-anchor="start" dominant-baseline="alphabetic" transform="matrix(1, 0, 0, 1, 0.5, 0.5)">ID 006</text></g><g clip-path="url(#JkyarvgWlZZm)"><text fill="none" stroke="rgb(0,0,0)" font-family="helvetica" font-size="13px" font-style="normal" font-weight="normal" text-decoration="normal" x="510.683349609375" y="253" text-anchor="start" dominant-baseline="alphabetic" transform="matrix(1, 0, 0, 1, 0.5, 0.5)" stroke-opacity="0" stroke-linejoin="bevel" stroke-miterlimit="10">ID 006</text></g><text fill="black" stroke="none" font-family="helvetica" font-size="14pt" font-style="normal" font-weight="normal" text-decoration="normal" x="0" y="15" text-anchor="start" dominant-baseline="alphabetic" transform="matrix(1, 0, 0, 1, 5.5, 5.5)">E. Hanoi</text><text fill="none" stroke="rgb(0,0,0)" font-family="helvetica" font-size="14pt" font-style="normal" font-weight="normal" text-decoration="normal" x="0" y="15" text-anchor="start" dominant-baseline="alphabetic" transform="matrix(1, 0, 0, 1, 5.5, 5.5)" stroke-opacity="0" stroke-linejoin="bevel" stroke-miterlimit="10">E. Hanoi</text></svg>