<svg version="1.1" xmlns="http://www.w3.org/2000/svg" width="600" height="334"><defs><clipPath id="srSTADARpmdl"><path fill="none" stroke="none" d="M 70.5 33.5 L 570.5 33.5 L 570.5 283.5 L 70.5 283.5 L 70.5 33.5 Z"/></clipPath><clipPath id="uHOwsiseFnFq"><path fill="none" stroke="none" d="M 70.5 33.5 L 570.5 33.5 L 570.5 283.5 L 70.5 283.5 L 70.5 33.5 Z"/></clipPath><clipPath id="aGrnfclurvSG"><path fill="none" stroke="none" d="M 70.5 33.5 L 570.5 33.5 L 570.5 283.5 L 70.5 283.5 L 70.5 33.5 Z"/></clipPath><clipPath id="hBfchxEZQPuR"><path fill="none" stroke="none" d="M 70.5 33.5 L 570.5 33.5 L 570.5 283.5 L 70.5 283.5 L 70.5 33.5 Z"/></clipPath><clipPath id="EOTzsHLNOXrr"><path fill="none" stroke="none" d="M 70.5 33.5 L 570.5 33.5 L 570.5 283.5 L 70.5 283.5 L 70.5 33.5 Z"/></clipPath><clipPath id="aaTaygCnETSm"><path fill="none" stroke="none" d="M 70.5 33.5 L 570.5 33.5 L 570.5 283.5 L 70.5 283.5 L 70.5 33.5 Z"/></clipPath><clipPath id="bMPGrOkLyAon"><path fill="none" stroke="none" d="M 70.5 33.5 L 570.5 33.5 L 570.5 283.5 L 70.5 283.5 L 70.5 33.5 Z"/></clipPath><clipPath id="SFxgogqzmtmZ"><path fill="none" stroke="none" d="M 70.5 33.5 L 570.5 33.5 L 570.5 283.5 L 70.5 283.5 L 70.5 33.5 Z"/></clipPath><clipPath id="nitlMbBbaUqM"><path fill="none" stroke="none" d="M 70.5 33.5 L 570.5 33.5 L 570.5 283.5 L 70.5 283.5 L 70.5 33.5 Z"/></clipPath><clipPath id="ElrWKqVhbzEh"><path fill="none" stroke="none" d="M 70.5 33.5 L 570.5 33.5 L 570.5 283.5 L 70.5 283.5 L 70.5 33.5 Z"/></clipPath><clipPath id="dULcXiyvGDdZ"><path fill="none" stroke="none" d="M 70.5 33.5 L 570.5 33.5 L 570.5 283.5 L 70.5 283.5 L 70.5 33.5 Z"/></clipPath><clipPath id="wGsVpWFQkMyh"><path fill="none" stroke="none" d="M 70.5 33.5 L 570.5 33.5 L 570.5 283.5 L 70.5 283.5 L 70.5 33.5 Z"/></clipPath><clipPath id="qLhJpmDIrgIk"><path fill="none" stroke="none" d="M 70.5 33.5 L 570.5 33.5 L 570.5 283.5 L 70.5 283.5 L 70.5 33.5 Z"/></clipPath><clipPath id="OsrWpMcHpBhZ"><path fill="none" stroke="none" d="M 70.5 33.5 L 570.5 33.5 L 570.5 283.5 L 70.5 283.5 L 70.5 33.5 Z"/></clipPath><clipPath id="sOldpBgBhLma"><path fill="none" stroke="none" d="M 70.5 33.5 L 570.5 33.5 L 570.5 283.5 L 70.5 283.5 L 70.5 33.5 Z"/></clipPath><clipPath id="HMltIMvEWvRe"><path fill="none" stroke="none" d="M 70.5 33.5 L 570.5 33.5 L 570.5 283.5 L 70.5 283.5 L 70.5 33.5 Z"/></clipPath><clipPath id="CuHBFVZtExOb"><path fill="none" stroke="none" d="M 70.5 33.5 L 570.5 33.5 L 570.5 283.5 L 70.5 283.5 L 70.5 33.5 Z"/></clipPath><clipPath id="wtSBGiZvokRw"><path fill="none" stroke="none" d="M 70.5 33.5 L 570.5 33.5 L 570.5 283.5 L 70.5 283.5 L 70.5 33.5 Z"/></clipPath><clipPath id="eLgVUQBeXgnX"><path fill="none" stroke="none" d="M 70.5 33.5 L 570.5 33.5 L 570.5 283.5 L 70.5 283.5 L 70.5 33.5 Z"/></clipPath><clipPath id="TbSTBbaIMJNN"><path fill="none" stroke="none" d="M 70.5 33.5 L 570.5 33.5 L 570.5 283.5 L 70.5 283.5 L 70.5 33.5 Z"/></clipPath><clipPath id="cAxmwAItUhwV"><path fill="none" stroke="none" d="M 70.5 33.5 L 570.5 33.5 L 570.5 283.5 L 70.5 283.5 L 70.5 33.5 Z"/></clipPath><clipPath id="ymdDcRvmLsOn"><path fill="none" stroke="none" d="M 70.5 33.5 L 570.5 33.5 L 570.5 283.5 L 70.5 283.5 L 70.5 33.5 Z"/></clipPath><clipPath id="ypBmVMlWGGiC"><path fill="none" stroke="none" d="M 70.5 33.5 L 570.5 33.5 L 570.5 283.5 L 70.5 283.5 L 70.5 33.5 Z"/></clipPath></defs><path fill="none" stroke="#e5e5e5" paint-order="fill" d="M 70.5 33.5 L 570.5 33.5 L 570.5 283.5 L 70.5 283.5 L 70.5 33.5 Z" stroke-linejoin="bevel" stroke-miterlimit="10"/><path fill="none" stroke="black" paint-order="fill" d="M 332.46172248803487 33.5 L 332.46172248803487 283.5" stroke-linejoin="bevel" stroke-miterlimit="10" stroke-width="3" stroke-dasharray="6" clip-path="url(#aGrnfclurvSG)"/><path fill="none" stroke="#9467bd" paint-order="fill" d="M 93.2272720336914 114.50233459472656 L 117.15071868896484 90.02680969238281 L 141.07415771484375 113.33683013916016 L 164.9976043701172 80.70279693603516 L 188.92105102539062 101.68181610107422 L 212.84449768066406 126.15734100341797 L 236.7679443359375 107.50932312011719 L 260.6913757324219 128.48834228515625 L 284.6148376464844 122.66084289550781 L 308.53826904296875 80.70279693603516" stroke-linejoin="bevel" stroke-miterlimit="10" stroke-width="2" clip-path="url(#hBfchxEZQPuR)"/><path fill="none" stroke="#9467bd" paint-order="fill" d="M 93.2272720336914 114.50233459472656 L 117.15071868896484 90.02680969238281 L 141.07415771484375 113.33683013916016 L 164.9976043701172 80.70279693603516 L 188.92105102539062 101.68181610107422 L 212.84449768066406 126.15734100341797 L 236.7679443359375 107.50932312011719 L 260.6913757324219 128.48834228515625 L 284.6148376464844 122.66084289550781 L 308.53826904296875 80.70279693603516" stroke-linejoin="bevel" stroke-miterlimit="10" stroke-width="2" stroke-dasharray="6" clip-path="url(#EOTzsHLNOXrr)"/><path fill="none" stroke="#30a2da" paint-order="fill" d="M 308.53826904296875 80.70279693603516 L 332.46173095703125 91.19230651855469 L 356.3851623535156 105.1783218383789 L 380.3086242675781 99.35081481933594 L 404.2320556640625 134.31585693359375 L 428.155517578125 98.18531799316406 L 452.0789489746094 126.15734100341797 L 476.00238037109375 128.48834228515625 L 499.92584228515625 133.1503448486328 L 523.8493041992188 116.83333587646484 L 547.772705078125 97.01981353759766" stroke-linejoin="bevel" stroke-miterlimit="10" stroke-width="2" clip-path="url(#aaTaygCnETSm)"/><path fill="none" stroke="#30a2da" paint-order="fill" d="M 332.46173095703125 104.43663787841797 L 356.3851623535156 106.33676147460938 L 380.3086242675781 108.23687744140625 L 404.2320556640625 110.13700103759766 L 428.155517578125 112.03711700439453 L 452.0789489746094 113.93724060058594 L 476.00238037109375 115.83735656738281 L 499.92584228515625 117.73748016357422 L 523.8493041992188 119.6375961303711 L 547.772705078125 121.5377197265625" stroke-linejoin="bevel" stroke-miterlimit="10" stroke-width="2" stroke-dasharray="6" clip-path="url(#bMPGrOkLyAon)"/><path fill="none" stroke="#fc4f30" paint-order="fill" d="M 308.53826904296875 80.70279693603516 L 332.46173095703125 81.86830139160156 L 356.3851623535156 104.0128173828125 L 380.3086242675781 57.39277267456055 L 404.2320556640625 64.38578033447266 L 428.155517578125 113.33683013916016 L 452.0789489746094 70.21328735351562 L 476.00238037109375 126.15734100341797 L 499.92584228515625 135.48135375976562 L 523.8493041992188 140.1433563232422 L 547.772705078125 81.86830139160156" stroke-linejoin="bevel" stroke-miterlimit="10" stroke-width="2" clip-path="url(#SFxgogqzmtmZ)"/><path fill="none" stroke="#fc4f30" paint-order="fill" d="M 332.46173095703125 76.06198120117188 L 356.3851623535156 80.8228759765625 L 380.3086242675781 85.58377838134766 L 404.2320556640625 90.34467315673828 L 428.155517578125 95.1055679321289 L 452.0789489746094 99.86646270751953 L 476.00238037109375 104.62735748291016 L 499.92584228515625 109.38825225830078 L 523.8493041992188 114.1491470336914 L 547.772705078125 118.91004180908203" stroke-linejoin="bevel" stroke-miterlimit="10" stroke-width="2" stroke-dasharray="6" clip-path="url(#nitlMbBbaUqM)"/><path fill="none" stroke="rgb(128,128,128)" paint-order="fill" d="M 93.2272720336914 100.51631927490234 L 117.15071868896484 102.84732055664062 L 141.07415771484375 100.51631927490234 L 164.9976043701172 141.30885314941406 L 188.92105102539062 99.35081481933594 L 212.84449768066406 109.84032440185547 L 236.7679443359375 94.68881225585938 L 260.6913757324219 123.82633972167969 L 284.6148376464844 154.12936401367188 L 308.53826904296875 87.69580078125" stroke-opacity="0.7490196078431373" stroke-linejoin="bevel" stroke-miterlimit="10" clip-path="url(#ElrWKqVhbzEh)"/><path fill="none" stroke="grey" paint-order="fill" d="M 308.53826904296875 87.69580078125 L 332.46173095703125 106.34382629394531 L 356.3851623535156 112.17132568359375 L 380.3086242675781 90.02680969238281 L 404.2320556640625 121.4953384399414 L 428.155517578125 141.30885314941406 L 452.0789489746094 113.33683013916016 L 476.00238037109375 108.6748275756836 L 499.92584228515625 131.98484802246094 L 523.8493041992188 121.4953384399414 L 547.772705078125 113.33683013916016" stroke-linejoin="bevel" stroke-miterlimit="10" stroke-width="0.5" clip-path="url(#dULcXiyvGDdZ)"/><path fill="none" stroke="grey" paint-order="fill" d="M 308.53826904296875 87.69580078125 L 332.46173095703125 104.0128173828125 L 356.3851623535156 117.99883270263672 L 380.3086242675781 104.0128173828125 L 404.2320556640625 101.68181610107422 L 428.155517578125 97.01981353759766 L 452.0789489746094 122.66084289550781 L 476.00238037109375 69.04778289794922 L 499.92584228515625 97.01981353759766 L 523.8493041992188 135.48135375976562 L 547.772705078125 158.7913818359375" stroke-linejoin="bevel" stroke-miterlimit="10" stroke-width="0.5" clip-path="url(#wGsVpWFQkMyh)"/><path fill="none" stroke="rgb(128,128,128)" paint-order="fill" d="M 93.2272720336914 99.35081481933594 L 117.15071868896484 122.66084289550781 L 141.07415771484375 86.53030395507812 L 164.9976043701172 127.32284545898438 L 188.92105102539062 131.98484802246094 L 212.84449768066406 101.68181610107422 L 236.7679443359375 100.51631927490234 L 260.6913757324219 92.3578109741211 L 284.6148376464844 142.474365234375 L 308.53826904296875 111.00582885742188" stroke-opacity="0.7490196078431373" stroke-linejoin="bevel" stroke-miterlimit="10" clip-path="url(#qLhJpmDIrgIk)"/><path fill="none" stroke="grey" paint-order="fill" d="M 308.53826904296875 111.00582885742188 L 332.46173095703125 114.50233459472656 L 356.3851623535156 87.69580078125 L 380.3086242675781 90.02680969238281 L 404.2320556640625 101.68181610107422 L 428.155517578125 94.68881225585938 L 452.0789489746094 101.68181610107422 L 476.00238037109375 69.04778289794922 L 499.92584228515625 116.83333587646484 L 523.8493041992188 136.6468505859375 L 547.772705078125 134.31585693359375" stroke-linejoin="bevel" stroke-miterlimit="10" stroke-width="0.5" clip-path="url(#OsrWpMcHpBhZ)"/><path fill="none" stroke="grey" paint-order="fill" d="M 308.53826904296875 111.00582885742188 L 332.46173095703125 119.16433715820312 L 356.3851623535156 129.65383911132812 L 380.3086242675781 112.17132568359375 L 404.2320556640625 101.68181610107422 L 428.155517578125 98.18531799316406 L 452.0789489746094 90.02680969238281 L 476.00238037109375 117.99883270263672 L 499.92584228515625 107.50932312011719 L 523.8493041992188 90.02680969238281 L 547.772705078125 136.6468505859375" stroke-linejoin="bevel" stroke-miterlimit="10" stroke-width="0.5" clip-path="url(#sOldpBgBhLma)"/><path fill="none" stroke="rgb(128,128,128)" paint-order="fill" d="M 93.2272720336914 131.98484802246094 L 117.15071868896484 140.1433563232422 L 141.07415771484375 91.19230651855469 L 164.9976043701172 119.16433715820312 L 188.92105102539062 108.6748275756836 L 212.84449768066406 84.19930267333984 L 236.7679443359375 102.84732055664062 L 260.6913757324219 97.01981353759766 L 284.6148376464844 128.48834228515625 L 308.53826904296875 107.50932312011719" stroke-opacity="0.7490196078431373" stroke-linejoin="bevel" stroke-miterlimit="10" clip-path="url(#HMltIMvEWvRe)"/><path fill="none" stroke="grey" paint-order="fill" d="M 308.53826904296875 107.50932312011719 L 332.46173095703125 107.50932312011719 L 356.3851623535156 99.35081481933594 L 380.3086242675781 121.4953384399414 L 404.2320556640625 116.83333587646484 L 428.155517578125 106.34382629394531 L 452.0789489746094 97.01981353759766 L 476.00238037109375 117.99883270263672 L 499.92584228515625 111.00582885742188 L 523.8493041992188 94.68881225585938 L 547.772705078125 129.65383911132812" stroke-linejoin="bevel" stroke-miterlimit="10" stroke-width="0.5" clip-path="url(#CuHBFVZtExOb)"/><path fill="none" stroke="grey" paint-order="fill" d="M 308.53826904296875 107.50932312011719 L 332.46173095703125 112.17132568359375 L 356.3851623535156 77.20629119873047 L 380.3086242675781 115.66783142089844 L 404.2320556640625 115.66783142089844 L 428.155517578125 111.00582885742188 L 452.0789489746094 116.83333587646484 L 476.00238037109375 101.68181610107422 L 499.92584228515625 114.50233459472656 L 523.8493041992188 105.1783218383789 L 547.772705078125 109.84032440185547" stroke-linejoin="bevel" stroke-miterlimit="10" stroke-width="0.5" clip-path="url(#wtSBGiZvokRw)"/><path fill="none" stroke="rgb(128,128,128)" paint-order="fill" d="M 93.2272720336914 117.99883270263672 L 117.15071868896484 126.15734100341797 L 141.07415771484375 164.61888122558594 L 164.9976043701172 113.33683013916016 L 188.92105102539062 98.18531799316406 L 212.84449768066406 134.31585693359375 L 236.7679443359375 114.50233459472656 L 260.6913757324219 111.00582885742188 L 284.6148376464844 148.30186462402344 L 308.53826904296875 104.0128173828125" stroke-opacity="0.7490196078431373" stroke-linejoin="bevel" stroke-miterlimit="10" clip-path="url(#eLgVUQBeXgnX)"/><path fill="none" stroke="grey" paint-order="fill" d="M 308.53826904296875 104.0128173828125 L 332.46173095703125 56.227272033691406 L 356.3851623535156 117.99883270263672 L 380.3086242675781 102.84732055664062 L 404.2320556640625 58.55827331542969 L 428.155517578125 127.32284545898438 L 452.0789489746094 134.31585693359375 L 476.00238037109375 93.52330780029297 L 499.92584228515625 101.68181610107422 L 523.8493041992188 111.00582885742188 L 547.772705078125 81.86830139160156" stroke-linejoin="bevel" stroke-miterlimit="10" stroke-width="0.5" clip-path="url(#TbSTBbaIMJNN)"/><path fill="none" stroke="grey" paint-order="fill" d="M 308.53826904296875 104.0128173828125 L 332.46173095703125 65.55128479003906 L 356.3851623535156 92.3578109741211 L 380.3086242675781 111.00582885742188 L 404.2320556640625 108.6748275756836 L 428.155517578125 98.18531799316406 L 452.0789489746094 119.16433715820312 L 476.00238037109375 121.4953384399414 L 499.92584228515625 121.4953384399414 L 523.8493041992188 108.6748275756836 L 547.772705078125 114.50233459472656" stroke-linejoin="bevel" stroke-miterlimit="10" stroke-width="0.5" clip-path="url(#cAxmwAItUhwV)"/><path fill="none" stroke="black" paint-order="fill" d="M 70.5 283.5 L 570.5 283.5" stroke-linejoin="bevel" stroke-miterlimit="10"/><path fill="none" stroke="black" paint-order="fill" d="M 93.5 289.5 L 93.5 281.5 M 212.5 289.5 L 212.5 281.5 M 332.5 289.5 L 332.5 281.5 M 452.5 289.5 L 452.5 281.5" stroke-linejoin="bevel" stroke-miterlimit="10"/><path fill="none" stroke="black" paint-order="fill" d="M 93.5 287.5 L 93.5 283.5 M 117.5 287.5 L 117.5 283.5 M 141.5 287.5 L 141.5 283.5 M 164.5 287.5 L 164.5 283.5 M 188.5 287.5 L 188.5 283.5 M 212.5 287.5 L 212.5 283.5 M 236.5 287.5 L 236.5 283.5 M 260.5 287.5 L 260.5 283.5 M 284.5 287.5 L 284.5 283.5 M 308.5 287.5 L 308.5 283.5 M 332.5 287.5 L 332.5 283.5 M 356.5 287.5 L 356.5 283.5 M 380.5 287.5 L 380.5 283.5 M 404.5 287.5 L 404.5 283.5 M 428.5 287.5 L 428.5 283.5 M 452.5 287.5 L 452.5 283.5 M 476.5 287.5 L 476.5 283.5 M 499.5 287.5 L 499.5 283.5 M 523.5 287.5 L 523.5 283.5 M 547.5 287.5 L 547.5 283.5" stroke-linejoin="bevel" stroke-miterlimit="10"/><text fill="#444444" stroke="none" font-family="helvetica" font-size="10pt" font-style="normal" font-weight="normal" text-decoration="normal" x="79.36060523986816" y="304" text-anchor="start" dominant-baseline="alphabetic" transform="matrix(1, 0, 0, 1, 0.5, 0.5)">2025</text><text fill="none" stroke="rgb(0,0,0)" font-family="helvetica" font-size="10pt" font-style="normal" font-weight="normal" text-decoration="normal" x="79.36060523986816" y="304" text-anchor="start" dominant-baseline="alphabetic" transform="matrix(1, 0, 0, 1, 0.5, 0.5)" stroke-opacity="0" stroke-linejoin="bevel" stroke-miterlimit="10">2025</text><text fill="#444444" stroke="none" font-family="helvetica" font-size="10pt" font-style="normal" font-weight="normal" text-decoration="normal" x="198.97783088684082" y="304" text-anchor="start" dominant-baseline="alphabetic" transform="matrix(1, 0, 0, 1, 0.5, 0.5)">2030</text><text fill="none" stroke="rgb(0,0,0)" font-family="helvetica" font-size="10pt" font-style="normal" font-weight="normal" text-decoration="normal" x="198.97783088684082" y="304" text-anchor="start" dominant-baseline="alphabetic" transform="matrix(1, 0, 0, 1, 0.5, 0.5)" stroke-opacity="0" stroke-linejoin="bevel" stroke-miterlimit="10">2030</text><text fill="#444444" stroke="none" font-family="helvetica" font-size="10pt" font-style="normal" font-weight="normal" text-decoration="normal" x="318.595064163208" y="304" text-anchor="start" dominant-baseline="alphabetic" transform="matrix(1, 0, 0, 1, 0.5, 0.5)">2035</text><text fill="none" stroke="rgb(0,0,0)" font-family="helvetica" font-size="10pt" font-style="normal" font-weight="normal" text-decoration="normal" x="318.595064163208" y="304" text-anchor="start" dominant-baseline="alphabetic" transform="matrix(1, 0, 0, 1, 0.5, 0.5)" stroke-opacity="0" stroke-linejoin="bevel" stroke-miterlimit="10">2035</text><text fill="#444444" stroke="none" font-family="helvetica" font-size="10pt" font-style="normal" font-weight="normal" text-decoration="normal" x="438.21228218078613" y="304" text-anchor="start" dominant-baseline="alphabetic" transform="matrix(1, 0, 0, 1, 0.5, 0.5)">2040</text><text fill="none" stroke="rgb(0,0,0)" font-family="helvetica" font-size="10pt" font-style="normal" font-weight="normal" text-decoration="normal" x="438.21228218078613" y="304" text-anchor="start" dominant-baseline="alphabetic" transform="matrix(1, 0, 0, 1, 0.5, 0.5)" stroke-opacity="0" stroke-linejoin="bevel" stroke-miterlimit="10">2040</text><text fill="#444444" stroke="none" font-family="helvetica" font-size="12pt" font-style="normal" font-weight="normal" text-decoration="normal" x="305.3166666030884" y="327" text-anchor="start" dominant-baseline="alphabetic" transform="matrix(1, 0, 0, 1, 0.5, 0.5)">Year</text><text fill="none" stroke="rgb(0,0,0)" font-family="helvetica" font-size="12pt" font-style="normal" font-weight="normal" text-decoration="normal" x="305.3166666030884" y="327" text-anchor="start" dominant-baseline="alphabetic" transform="matrix(1, 0, 0, 1, 0.5, 0.5)" stroke-opacity="0" stroke-linejoin="bevel" stroke-miterlimit="10">Year</text><path fill="none" stroke="black" paint-order="fill" d="M 70.5 283.5 L 70.5 33.5" stroke-linejoin="bevel" stroke-miterlimit="10"/><path fill="none" stroke="black" paint-order="fill" d="M 64.5 283.5 L 72.5 283.5 M 64.5 225.5 L 72.5 225.5 M 64.5 166.5 L 72.5 166.5 M 64.5 108.5 L 72.5 108.5 M 64.5 50.5 L 72.5 50.5" stroke-linejoin="bevel" stroke-miterlimit="10"/><path fill="none" stroke="black" paint-order="fill" d="M 66.5 283.5 L 70.5 283.5 M 66.5 271.5 L 70.5 271.5 M 66.5 260.5 L 70.5 260.5 M 66.5 248.5 L 70.5 248.5 M 66.5 236.5 L 70.5 236.5 M 66.5 225.5 L 70.5 225.5 M 66.5 213.5 L 70.5 213.5 M 66.5 201.5 L 70.5 201.5 M 66.5 190.5 L 70.5 190.5 M 66.5 178.5 L 70.5 178.5 M 66.5 166.5 L 70.5 166.5 M 66.5 155.5 L 70.5 155.5 M 66.5 143.5 L 70.5 143.5 M 66.5 131.5 L 70.5 131.5 M 66.5 120.5 L 70.5 120.5 M 66.5 108.5 L 70.5 108.5 M 66.5 97.5 L 70.5 97.5 M 66.5 85.5 L 70.5 85.5 M 66.5 73.5 L 70.5 73.5 M 66.5 62.5 L 70.5 62.5 M 66.5 50.5 L 70.5 50.5 M 66.5 38.5 L 70.5 38.5" stroke-linejoin="bevel" stroke-miterlimit="10"/><text fill="#444444" stroke="none" font-family="helvetica" font-size="10pt" font-style="normal" font-weight="normal" text-decoration="normal" x="52.31666660308838" y="288" text-anchor="start" dominant-baseline="alphabetic" transform="matrix(1, 0, 0, 1, 0.5, 0.5)">0</text><text fill="none" stroke="rgb(0,0,0)" font-family="helvetica" font-size="10pt" font-style="normal" font-weight="normal" text-decoration="normal" x="52.31666660308838" y="288" text-anchor="start" dominant-baseline="alphabetic" transform="matrix(1, 0, 0, 1, 0.5, 0.5)" stroke-opacity="0" stroke-linejoin="bevel" stroke-miterlimit="10">0</text><text fill="#444444" stroke="none" font-family="helvetica" font-size="10pt" font-style="normal" font-weight="normal" text-decoration="normal" x="45.63333320617676" y="229.72494506835938" text-anchor="start" dominant-baseline="alphabetic" transform="matrix(1, 0, 0, 1, 0.5, 0.5)">50</text><text fill="none" stroke="rgb(0,0,0)" font-family="helvetica" font-size="10pt" font-style="normal" font-weight="normal" text-decoration="normal" x="45.63333320617676" y="229.72494506835938" text-anchor="start" dominant-baseline="alphabetic" transform="matrix(1, 0, 0, 1, 0.5, 0.5)" stroke-opacity="0" stroke-linejoin="bevel" stroke-miterlimit="10">50</text><text fill="#444444" stroke="none" font-family="helvetica" font-size="10pt" font-style="normal" font-weight="normal" text-decoration="normal" x="38.95000076293945" y="171.44989013671875" text-anchor="start" dominant-baseline="alphabetic" transform="matrix(1, 0, 0, 1, 0.5, 0.5)">100</text><text fill="none" stroke="rgb(0,0,0)" font-family="helvetica" font-size="10pt" font-style="normal" font-weight="normal" text-decoration="normal" x="38.95000076293945" y="171.44989013671875" text-anchor="start" dominant-baseline="alphabetic" transform="matrix(1, 0, 0, 1, 0.5, 0.5)" stroke-opacity="0" stroke-linejoin="bevel" stroke-miterlimit="10">100</text><text fill="#444444" stroke="none" font-family="helvetica" font-size="10pt" font-style="normal" font-weight="normal" text-decoration="normal" x="38.95000076293945" y="113.1748275756836" text-anchor="start" dominant-baseline="alphabetic" transform="matrix(1, 0, 0, 1, 0.5, 0.5)">150</text><text fill="none" stroke="rgb(0,0,0)" font-family="helvetica" font-size="10pt" font-style="normal" font-weight="normal" text-decoration="normal" x="38.95000076293945" y="113.1748275756836" text-anchor="start" dominant-baseline="alphabetic" transform="matrix(1, 0, 0, 1, 0.5, 0.5)" stroke-opacity="0" stroke-linejoin="bevel" stroke-miterlimit="10">150</text><text fill="#444444" stroke="none" font-family="helvetica" font-size="10pt" font-style="normal" font-weight="normal" text-decoration="normal" x="38.95000076293945" y="54.89976501464844" text-anchor="start" dominant-baseline="alphabetic" transform="matrix(1, 0, 0, 1, 0.5, 0.5)">200</text><text fill="none" stroke="rgb(0,0,0)" font-family="helvetica" font-size="10pt" font-style="normal" font-weight="normal" text-decoration="normal" x="38.95000076293945" y="54.89976501464844" text-anchor="start" dominant-baseline="alphabetic" transform="matrix(1, 0, 0, 1, 0.5, 0.5)" stroke-opacity="0" stroke-linejoin="bevel" stroke-miterlimit="10">200</text><text fill="#444444" stroke="none" font-family="helvetica" font-size="12pt" font-style="normal" font-weight="normal" text-decoration="normal" x="-65.25833511352539" y="154" text-anchor="start" dominant-baseline="alphabetic" transform="matrix(6.123233995736766e-17, -1, 1, 6.123233995736766e-17, -126.54999923706055, 189.45000076293945)">Days suitable for transmission</text><text fill="none" stroke="rgb(0,0,0)" font-family="helvetica" font-size="12pt" font-style="normal" font-weight="normal" text-decoration="normal" x="-65.25833511352539" y="154" text-anchor="start" dominant-baseline="alphabetic" transform="matrix(6.123233995736766e-17, -1, 1, 6.123233995736766e-17, -126.54999923706055, 189.45000076293945)" stroke-opacity="0" stroke-linejoin="bevel" stroke-miterlimit="10">Days suitable for transmission</text><path fill="rgb(255,255,255)" stroke="rgb(229,229,229)" paint-order="fill" d="M 477.0333251953125 208.5 L 560.4999847412109 208.5 L 560.4999847412109 273.5 L 477.0333251953125 273.5 L 477.0333251953125 208.5 Z" fill-opacity="0.9490196078431372" clip-path="url(#ymdDcRvmLsOn)" stroke-opacity="0.5019607843137255" stroke-linejoin="bevel" stroke-miterlimit="10"/><g clip-path="url(#ymdDcRvmLsOn)"><g transform="matrix(1, 0, 0, 1, 487.5333251953125, 219)"><path fill="none" stroke="#30a2da" paint-order="fill" d="M 0.5 10.5 L 20.5 10.5" stroke-linejoin="bevel" stroke-miterlimit="10" stroke-width="2"/></g></g><g clip-path="url(#ymdDcRvmLsOn)"><text fill="#444444" stroke="none" font-family="helvetica" font-size="13px" font-style="normal" font-weight="normal" text-decoration="normal" x="512.5333251953125" y="233.5" text-anchor="start" dominant-baseline="alphabetic" transform="matrix(1, 0, 0, 1, 0.5, 0.5)">ID 001</text></g><g clip-path="url(#ymdDcRvmLsOn)"><text fill="none" stroke="rgb(0,0,0)" font-family="helvetica" font-size="13px" font-style="normal" font-weight="normal" text-decoration="normal" x="512.5333251953125" y="233.5" text-anchor="start" dominant-baseline="alphabetic" transform="matrix(1, 0, 0, 1, 0.5, 0.5)" stroke-opacity="0" stroke-linejoin="bevel" stroke-miterlimit="10">ID 001</text></g><g clip-path="url(#ymdDcRvmLsOn)"><g transform="matrix(1, 0, 0, 1, 487.5333251953125, 242)"><path fill="none" stroke="#fc4f30" paint-order="fill" d="M 0.5 10.5 L 20.5 10.5" stroke-linejoin="bevel" stroke-miterlimit="10" stroke-width="2"/></g></g><g clip-path="url(#ymdDcRvmLsOn)"><text fill="#444444" stroke="none" font-family="helvetica" font-size="13px" font-style="normal" font-weight="normal" text-decoration="normal" x="512.5333251953125" y="256.5" text-anchor="start" dominant-baseline="alphabetic" transform="matrix(1, 0, 0, 1, 0.5, 0.5)">ID 006</text></g><g clip-path="url(#ymdDcRvmLsOn)"><text fill="none" stroke="rgb(0,0,0)" font-family="helvetica" font-size="13px" font-style="normal" font-weight="normal" text-decoration="normal" x="512.5333251953125" y="256.5" text-anchor="start" dominant-baseline="alphabetic" transform="matrix(1, 0, 0, 1, 0.5, 0.5)" stroke-opacity="0" stroke-linejoin="bevel" stroke-miterlimit="10">ID 006</text></g><text fill="black" stroke="none" font-family="helvetica" font-size="14pt" font-style="normal" font-weight="normal" text-decoration="normal" x="0" y="18" text-anchor="start" dominant-baseline="alphabetic" transform="matrix(1, 0, 0, 1, 5.5, 5.5)">C. Cape Town</text><text fill="none" stroke="rgb(0,0,0)" font-family="helvetica" font-size="14pt" font-style="normal" font-weight="normal" text-decoration="normal" x="0" y="18" text-anchor="start" dominant-baseline="alphabetic" transform="matrix(1, 0, 0, 1, 5.5, 5.5)" stroke-opacity="0" stroke-linejoin="bevel" stroke-miterlimit="10">C. Cape Town</text></svg>