<svg version="1.1" xmlns="http://www.w3.org/2000/svg" width="600" height="334"><defs><clipPath id="KIbqlpwIUBHv"><path fill="none" stroke="none" d="M 70.5 33.5 L 570.5 33.5 L 570.5 283.5 L 70.5 283.5 L 70.5 33.5 Z"/></clipPath><clipPath id="lysoSrTbhDcq"><path fill="none" stroke="none" d="M 70.5 33.5 L 570.5 33.5 L 570.5 283.5 L 70.5 283.5 L 70.5 33.5 Z"/></clipPath><clipPath id="AltxXAlQrUug"><path fill="none" stroke="none" d="M 70.5 33.5 L 570.5 33.5 L 570.5 283.5 L 70.5 283.5 L 70.5 33.5 Z"/></clipPath><clipPath id="UXZPdIuPItGt"><path fill="none" stroke="none" d="M 70.5 33.5 L 570.5 33.5 L 570.5 283.5 L 70.5 283.5 L 70.5 33.5 Z"/></clipPath><clipPath id="FlwiCUcXNAJg"><path fill="none" stroke="none" d="M 70.5 33.5 L 570.5 33.5 L 570.5 283.5 L 70.5 283.5 L 70.5 33.5 Z"/></clipPath><clipPath id="NTzMpJDVdqoH"><path fill="none" stroke="none" d="M 70.5 33.5 L 570.5 33.5 L 570.5 283.5 L 70.5 283.5 L 70.5 33.5 Z"/></clipPath><clipPath id="bMfKVdbQTZzs"><path fill="none" stroke="none" d="M 70.5 33.5 L 570.5 33.5 L 570.5 283.5 L 70.5 283.5 L 70.5 33.5 Z"/></clipPath><clipPath id="mvLAAZyUrCUv"><path fill="none" stroke="none" d="M 70.5 33.5 L 570.5 33.5 L 570.5 283.5 L 70.5 283.5 L 70.5 33.5 Z"/></clipPath><clipPath id="ndIJtWGvILIh"><path fill="none" stroke="none" d="M 70.5 33.5 L 570.5 33.5 L 570.5 283.5 L 70.5 283.5 L 70.5 33.5 Z"/></clipPath><clipPath id="XpngSBQSDTHs"><path fill="none" stroke="none" d="M 70.5 33.5 L 570.5 33.5 L 570.5 283.5 L 70.5 283.5 L 70.5 33.5 Z"/></clipPath><clipPath id="asEmbAyUFQxV"><path fill="none" stroke="none" d="M 70.5 33.5 L 570.5 33.5 L 570.5 283.5 L 70.5 283.5 L 70.5 33.5 Z"/></clipPath><clipPath id="yhADTtOedDTh"><path fill="none" stroke="none" d="M 70.5 33.5 L 570.5 33.5 L 570.5 283.5 L 70.5 283.5 L 70.5 33.5 Z"/></clipPath><clipPath id="LJSvLKEhWGmM"><path fill="none" stroke="none" d="M 70.5 33.5 L 570.5 33.5 L 570.5 283.5 L 70.5 283.5 L 70.5 33.5 Z"/></clipPath><clipPath id="RklRsTDVxyTn"><path fill="none" stroke="none" d="M 70.5 33.5 L 570.5 33.5 L 570.5 283.5 L 70.5 283.5 L 70.5 33.5 Z"/></clipPath><clipPath id="zPCEygXNJkgl"><path fill="none" stroke="none" d="M 70.5 33.5 L 570.5 33.5 L 570.5 283.5 L 70.5 283.5 L 70.5 33.5 Z"/></clipPath><clipPath id="GRcluSNTHQim"><path fill="none" stroke="none" d="M 70.5 33.5 L 570.5 33.5 L 570.5 283.5 L 70.5 283.5 L 70.5 33.5 Z"/></clipPath><clipPath id="foHtJhWOOgWL"><path fill="none" stroke="none" d="M 70.5 33.5 L 570.5 33.5 L 570.5 283.5 L 70.5 283.5 L 70.5 33.5 Z"/></clipPath><clipPath id="DEZNZkLmBuRV"><path fill="none" stroke="none" d="M 70.5 33.5 L 570.5 33.5 L 570.5 283.5 L 70.5 283.5 L 70.5 33.5 Z"/></clipPath><clipPath id="nlTFQgxWgKAZ"><path fill="none" stroke="none" d="M 70.5 33.5 L 570.5 33.5 L 570.5 283.5 L 70.5 283.5 L 70.5 33.5 Z"/></clipPath><clipPath id="WWznRalSDmHO"><path fill="none" stroke="none" d="M 70.5 33.5 L 570.5 33.5 L 570.5 283.5 L 70.5 283.5 L 70.5 33.5 Z"/></clipPath><clipPath id="WqMAOwIGGgFm"><path fill="none" stroke="none" d="M 70.5 33.5 L 570.5 33.5 L 570.5 283.5 L 70.5 283.5 L 70.5 33.5 Z"/></clipPath><clipPath id="QeLymuyPmVzx"><path fill="none" stroke="none" d="M 70.5 33.5 L 570.5 33.5 L 570.5 283.5 L 70.5 283.5 L 70.5 33.5 Z"/></clipPath><clipPath id="lDvNdueGIBMI"><path fill="none" stroke="none" d="M 70.5 33.5 L 570.5 33.5 L 570.5 283.5 L 70.5 283.5 L 70.5 33.5 Z"/></clipPath></defs><path fill="none" stroke="#e5e5e5" paint-order="fill" d="M 70.5 33.5 L 570.5 33.5 L 570.5 283.5 L 70.5 283.5 L 70.5 33.5 Z" stroke-linejoin="bevel" stroke-miterlimit="10"/><path fill="none" stroke="black" paint-order="fill" d="M 332.46172248803487 33.5 L 332.46172248803487 283.5" stroke-linejoin="bevel" stroke-miterlimit="10" stroke-width="3" stroke-dasharray="6" clip-path="url(#AltxXAlQrUug)"/><path fill="none" stroke="#9467bd" paint-order="fill" d="M 93.2272720336914 123.638671875 L 117.15071868896484 90.89599609375 L 141.07415771484375 94.74807739257812 L 164.9976043701172 98.60015106201172 L 188.92105102539062 137.12095642089844 L 212.84449768066406 78.3767318725586 L 236.7679443359375 91.85901641845703 L 260.6913757324219 119.7865982055664 L 284.6148376464844 81.26579284667969 L 308.53826904296875 75.4876708984375" stroke-linejoin="bevel" stroke-miterlimit="10" stroke-width="2" clip-path="url(#UXZPdIuPItGt)"/><path fill="none" stroke="#9467bd" paint-order="fill" d="M 93.2272720336914 123.638671875 L 117.15071868896484 90.89599609375 L 141.07415771484375 94.74807739257812 L 164.9976043701172 98.60015106201172 L 188.92105102539062 137.12095642089844 L 212.84449768066406 78.3767318725586 L 236.7679443359375 91.85901641845703 L 260.6913757324219 119.7865982055664 L 284.6148376464844 81.26579284667969 L 308.53826904296875 75.4876708984375" stroke-linejoin="bevel" stroke-miterlimit="10" stroke-width="2" stroke-dasharray="6" clip-path="url(#FlwiCUcXNAJg)"/><path fill="none" stroke="#30a2da" paint-order="fill" d="M 308.53826904296875 75.4876708984375 L 332.46173095703125 87.04391479492188 L 356.3851623535156 86.08089447021484 L 380.3086242675781 76.45069122314453 L 404.2320556640625 95.71109771728516 L 428.155517578125 98.60015106201172 L 452.0789489746094 88.96995544433594 L 476.00238037109375 94.74807739257812 L 499.92584228515625 107.267333984375 L 523.8493041992188 62.968414306640625 L 547.772705078125 106.30431365966797" stroke-linejoin="bevel" stroke-miterlimit="10" stroke-width="2" clip-path="url(#NTzMpJDVdqoH)"/><path fill="none" stroke="#30a2da" paint-order="fill" d="M 332.46173095703125 86.23847961425781 L 356.3851623535156 87.1664810180664 L 380.3086242675781 88.094482421875 L 404.2320556640625 89.0224838256836 L 428.155517578125 89.95048522949219 L 452.0789489746094 90.87848663330078 L 476.00238037109375 91.80648803710938 L 499.92584228515625 92.73448944091797 L 523.8493041992188 93.66249084472656 L 547.772705078125 94.59049224853516" stroke-linejoin="bevel" stroke-miterlimit="10" stroke-width="2" stroke-dasharray="6" clip-path="url(#bMfKVdbQTZzs)"/><path fill="none" stroke="#fc4f30" paint-order="fill" d="M 308.53826904296875 75.4876708984375 L 332.46173095703125 121.71263122558594 L 356.3851623535156 78.3767318725586 L 380.3086242675781 96.67411041259766 L 404.2320556640625 115.93451690673828 L 428.155517578125 58.15331268310547 L 452.0789489746094 94.74807739257812 L 476.00238037109375 81.26579284667969 L 499.92584228515625 87.04391479492188 L 523.8493041992188 64.89445495605469 L 547.772705078125 93.7850570678711" stroke-linejoin="bevel" stroke-miterlimit="10" stroke-width="2" clip-path="url(#mvLAAZyUrCUv)"/><path fill="none" stroke="#fc4f30" paint-order="fill" d="M 332.46173095703125 101.83940124511719 L 356.3851623535156 99.0437240600586 L 380.3086242675781 96.248046875 L 404.2320556640625 93.45237731933594 L 428.155517578125 90.65670013427734 L 452.0789489746094 87.86102294921875 L 476.00238037109375 85.06534576416016 L 499.92584228515625 82.26966857910156 L 523.8493041992188 79.47399139404297 L 547.772705078125 76.67831420898438" stroke-linejoin="bevel" stroke-miterlimit="10" stroke-width="2" stroke-dasharray="6" clip-path="url(#ndIJtWGvILIh)"/><path fill="none" stroke="rgb(128,128,128)" paint-order="fill" d="M 93.2272720336914 88.96995544433594 L 117.15071868896484 93.7850570678711 L 141.07415771484375 85.11787414550781 L 164.9976043701172 92.82203674316406 L 188.92105102539062 67.78351593017578 L 212.84449768066406 80.30277252197266 L 236.7679443359375 105.34129333496094 L 260.6913757324219 76.45069122314453 L 284.6148376464844 71.63558959960938 L 308.53826904296875 85.11787414550781" stroke-opacity="0.7490196078431373" stroke-linejoin="bevel" stroke-miterlimit="10" clip-path="url(#XpngSBQSDTHs)"/><path fill="none" stroke="grey" paint-order="fill" d="M 308.53826904296875 85.11787414550781 L 332.46173095703125 114.00847625732422 L 356.3851623535156 83.19183349609375 L 380.3086242675781 95.71109771728516 L 404.2320556640625 105.34129333496094 L 428.155517578125 83.19183349609375 L 452.0789489746094 120.74961853027344 L 476.00238037109375 88.0069351196289 L 499.92584228515625 69.70955657958984 L 523.8493041992188 90.89599609375 L 547.772705078125 103.41525268554688" stroke-linejoin="bevel" stroke-miterlimit="10" stroke-width="0.5" clip-path="url(#asEmbAyUFQxV)"/><path fill="none" stroke="grey" paint-order="fill" d="M 308.53826904296875 85.11787414550781 L 332.46173095703125 133.2688751220703 L 356.3851623535156 94.74807739257812 L 380.3086242675781 106.30431365966797 L 404.2320556640625 127.49075317382812 L 428.155517578125 117.86055755615234 L 452.0789489746094 82.22881317138672 L 476.00238037109375 74.52465057373047 L 499.92584228515625 123.638671875 L 523.8493041992188 58.15331268310547 L 547.772705078125 96.67411041259766" stroke-linejoin="bevel" stroke-miterlimit="10" stroke-width="0.5" clip-path="url(#yhADTtOedDTh)"/><path fill="none" stroke="rgb(128,128,128)" paint-order="fill" d="M 93.2272720336914 92.82203674316406 L 117.15071868896484 102.45223236083984 L 141.07415771484375 84.15485382080078 L 164.9976043701172 107.267333984375 L 188.92105102539062 101.48921203613281 L 212.84449768066406 75.4876708984375 L 236.7679443359375 90.89599609375 L 260.6913757324219 97.63713073730469 L 284.6148376464844 65.85747528076172 L 308.53826904296875 94.74807739257812" stroke-opacity="0.7490196078431373" stroke-linejoin="bevel" stroke-miterlimit="10" clip-path="url(#LJSvLKEhWGmM)"/><path fill="none" stroke="grey" paint-order="fill" d="M 308.53826904296875 94.74807739257812 L 332.46173095703125 114.97149658203125 L 356.3851623535156 89.93297576904297 L 380.3086242675781 90.89599609375 L 404.2320556640625 78.3767318725586 L 428.155517578125 83.19183349609375 L 452.0789489746094 95.71109771728516 L 476.00238037109375 104.3782730102539 L 499.92584228515625 111.11941528320312 L 523.8493041992188 82.22881317138672 L 547.772705078125 109.19337463378906" stroke-linejoin="bevel" stroke-miterlimit="10" stroke-width="0.5" clip-path="url(#RklRsTDVxyTn)"/><path fill="none" stroke="grey" paint-order="fill" d="M 308.53826904296875 94.74807739257812 L 332.46173095703125 115.93451690673828 L 356.3851623535156 99.56317138671875 L 380.3086242675781 73.56163024902344 L 404.2320556640625 103.41525268554688 L 428.155517578125 111.11941528320312 L 452.0789489746094 76.45069122314453 L 476.00238037109375 101.48921203613281 L 499.92584228515625 92.82203674316406 L 523.8493041992188 95.71109771728516 L 547.772705078125 85.11787414550781" stroke-linejoin="bevel" stroke-miterlimit="10" stroke-width="0.5" clip-path="url(#zPCEygXNJkgl)"/><path fill="none" stroke="rgb(128,128,128)" paint-order="fill" d="M 93.2272720336914 95.71109771728516 L 117.15071868896484 67.78351593017578 L 141.07415771484375 92.82203674316406 L 164.9976043701172 107.267333984375 L 188.92105102539062 72.5986099243164 L 212.84449768066406 123.638671875 L 236.7679443359375 121.71263122558594 L 260.6913757324219 99.56317138671875 L 284.6148376464844 104.3782730102539 L 308.53826904296875 84.15485382080078" stroke-opacity="0.7490196078431373" stroke-linejoin="bevel" stroke-miterlimit="10" clip-path="url(#GRcluSNTHQim)"/><path fill="none" stroke="grey" paint-order="fill" d="M 308.53826904296875 84.15485382080078 L 332.46173095703125 95.71109771728516 L 356.3851623535156 68.74653625488281 L 380.3086242675781 69.70955657958984 L 404.2320556640625 105.34129333496094 L 428.155517578125 115.93451690673828 L 452.0789489746094 74.52465057373047 L 476.00238037109375 88.0069351196289 L 499.92584228515625 73.56163024902344 L 523.8493041992188 105.34129333496094 L 547.772705078125 92.82203674316406" stroke-linejoin="bevel" stroke-miterlimit="10" stroke-width="0.5" clip-path="url(#foHtJhWOOgWL)"/><path fill="none" stroke="grey" paint-order="fill" d="M 308.53826904296875 84.15485382080078 L 332.46173095703125 87.04391479492188 L 356.3851623535156 104.3782730102539 L 380.3086242675781 107.267333984375 L 404.2320556640625 89.93297576904297 L 428.155517578125 68.74653625488281 L 452.0789489746094 111.11941528320312 L 476.00238037109375 101.48921203613281 L 499.92584228515625 94.74807739257812 L 523.8493041992188 111.11941528320312 L 547.772705078125 102.45223236083984" stroke-linejoin="bevel" stroke-miterlimit="10" stroke-width="0.5" clip-path="url(#DEZNZkLmBuRV)"/><path fill="none" stroke="rgb(128,128,128)" paint-order="fill" d="M 93.2272720336914 106.30431365966797 L 117.15071868896484 77.41371154785156 L 141.07415771484375 93.7850570678711 L 164.9976043701172 93.7850570678711 L 188.92105102539062 123.638671875 L 212.84449768066406 96.67411041259766 L 236.7679443359375 91.85901641845703 L 260.6913757324219 110.1563949584961 L 284.6148376464844 95.71109771728516 L 308.53826904296875 107.267333984375" stroke-opacity="0.7490196078431373" stroke-linejoin="bevel" stroke-miterlimit="10" clip-path="url(#nlTFQgxWgKAZ)"/><path fill="none" stroke="grey" paint-order="fill" d="M 308.53826904296875 107.267333984375 L 332.46173095703125 107.267333984375 L 356.3851623535156 105.34129333496094 L 380.3086242675781 93.7850570678711 L 404.2320556640625 115.93451690673828 L 428.155517578125 92.82203674316406 L 452.0789489746094 91.85901641845703 L 476.00238037109375 114.97149658203125 L 499.92584228515625 116.89753723144531 L 523.8493041992188 66.82049560546875 L 547.772705078125 56.227272033691406" stroke-linejoin="bevel" stroke-miterlimit="10" stroke-width="0.5" clip-path="url(#WWznRalSDmHO)"/><path fill="none" stroke="grey" paint-order="fill" d="M 308.53826904296875 107.267333984375 L 332.46173095703125 120.74961853027344 L 356.3851623535156 114.97149658203125 L 380.3086242675781 98.60015106201172 L 404.2320556640625 93.7850570678711 L 428.155517578125 88.0069351196289 L 452.0789489746094 90.89599609375 L 476.00238037109375 115.93451690673828 L 499.92584228515625 94.74807739257812 L 523.8493041992188 90.89599609375 L 547.772705078125 67.78351593017578" stroke-linejoin="bevel" stroke-miterlimit="10" stroke-width="0.5" clip-path="url(#WqMAOwIGGgFm)"/><path fill="none" stroke="black" paint-order="fill" d="M 70.5 283.5 L 570.5 283.5" stroke-linejoin="bevel" stroke-miterlimit="10"/><path fill="none" stroke="black" paint-order="fill" d="M 93.5 289.5 L 93.5 281.5 M 212.5 289.5 L 212.5 281.5 M 332.5 289.5 L 332.5 281.5 M 452.5 289.5 L 452.5 281.5" stroke-linejoin="bevel" stroke-miterlimit="10"/><path fill="none" stroke="black" paint-order="fill" d="M 93.5 287.5 L 93.5 283.5 M 117.5 287.5 L 117.5 283.5 M 141.5 287.5 L 141.5 283.5 M 164.5 287.5 L 164.5 283.5 M 188.5 287.5 L 188.5 283.5 M 212.5 287.5 L 212.5 283.5 M 236.5 287.5 L 236.5 283.5 M 260.5 287.5 L 260.5 283.5 M 284.5 287.5 L 284.5 283.5 M 308.5 287.5 L 308.5 283.5 M 332.5 287.5 L 332.5 283.5 M 356.5 287.5 L 356.5 283.5 M 380.5 287.5 L 380.5 283.5 M 404.5 287.5 L 404.5 283.5 M 428.5 287.5 L 428.5 283.5 M 452.5 287.5 L 452.5 283.5 M 476.5 287.5 L 476.5 283.5 M 499.5 287.5 L 499.5 283.5 M 523.5 287.5 L 523.5 283.5 M 547.5 287.5 L 547.5 283.5" stroke-linejoin="bevel" stroke-miterlimit="10"/><text fill="#444444" stroke="none" font-family="helvetica" font-size="10pt" font-style="normal" font-weight="normal" text-decoration="normal" x="79.36060523986816" y="304" text-anchor="start" dominant-baseline="alphabetic" transform="matrix(1, 0, 0, 1, 0.5, 0.5)">2025</text><text fill="none" stroke="rgb(0,0,0)" font-family="helvetica" font-size="10pt" font-style="normal" font-weight="normal" text-decoration="normal" x="79.36060523986816" y="304" text-anchor="start" dominant-baseline="alphabetic" transform="matrix(1, 0, 0, 1, 0.5, 0.5)" stroke-opacity="0" stroke-linejoin="bevel" stroke-miterlimit="10">2025</text><text fill="#444444" stroke="none" font-family="helvetica" font-size="10pt" font-style="normal" font-weight="normal" text-decoration="normal" x="198.97783088684082" y="304" text-anchor="start" dominant-baseline="alphabetic" transform="matrix(1, 0, 0, 1, 0.5, 0.5)">2030</text><text fill="none" stroke="rgb(0,0,0)" font-family="helvetica" font-size="10pt" font-style="normal" font-weight="normal" text-decoration="normal" x="198.97783088684082" y="304" text-anchor="start" dominant-baseline="alphabetic" transform="matrix(1, 0, 0, 1, 0.5, 0.5)" stroke-opacity="0" stroke-linejoin="bevel" stroke-miterlimit="10">2030</text><text fill="#444444" stroke="none" font-family="helvetica" font-size="10pt" font-style="normal" font-weight="normal" text-decoration="normal" x="318.595064163208" y="304" text-anchor="start" dominant-baseline="alphabetic" transform="matrix(1, 0, 0, 1, 0.5, 0.5)">2035</text><text fill="none" stroke="rgb(0,0,0)" font-family="helvetica" font-size="10pt" font-style="normal" font-weight="normal" text-decoration="normal" x="318.595064163208" y="304" text-anchor="start" dominant-baseline="alphabetic" transform="matrix(1, 0, 0, 1, 0.5, 0.5)" stroke-opacity="0" stroke-linejoin="bevel" stroke-miterlimit="10">2035</text><text fill="#444444" stroke="none" font-family="helvetica" font-size="10pt" font-style="normal" font-weight="normal" text-decoration="normal" x="438.21228218078613" y="304" text-anchor="start" dominant-baseline="alphabetic" transform="matrix(1, 0, 0, 1, 0.5, 0.5)">2040</text><text fill="none" stroke="rgb(0,0,0)" font-family="helvetica" font-size="10pt" font-style="normal" font-weight="normal" text-decoration="normal" x="438.21228218078613" y="304" text-anchor="start" dominant-baseline="alphabetic" transform="matrix(1, 0, 0, 1, 0.5, 0.5)" stroke-opacity="0" stroke-linejoin="bevel" stroke-miterlimit="10">2040</text><text fill="#444444" stroke="none" font-family="helvetica" font-size="12pt" font-style="normal" font-weight="normal" text-decoration="normal" x="305.3166666030884" y="327" text-anchor="start" dominant-baseline="alphabetic" transform="matrix(1, 0, 0, 1, 0.5, 0.5)">Year</text><text fill="none" stroke="rgb(0,0,0)" font-family="helvetica" font-size="12pt" font-style="normal" font-weight="normal" text-decoration="normal" x="305.3166666030884" y="327" text-anchor="start" dominant-baseline="alphabetic" transform="matrix(1, 0, 0, 1, 0.5, 0.5)" stroke-opacity="0" stroke-linejoin="bevel" stroke-miterlimit="10">Year</text><path fill="none" stroke="black" paint-order="fill" d="M 70.5 283.5 L 70.5 33.5" stroke-linejoin="bevel" stroke-miterlimit="10"/><path fill="none" stroke="black" paint-order="fill" d="M 64.5 283.5 L 72.5 283.5 M 64.5 235.5 L 72.5 235.5 M 64.5 187.5 L 72.5 187.5 M 64.5 139.5 L 72.5 139.5 M 64.5 90.5 L 72.5 90.5 M 64.5 42.5 L 72.5 42.5" stroke-linejoin="bevel" stroke-miterlimit="10"/><path fill="none" stroke="black" paint-order="fill" d="M 66.5 283.5 L 70.5 283.5 M 66.5 273.5 L 70.5 273.5 M 66.5 264.5 L 70.5 264.5 M 66.5 254.5 L 70.5 254.5 M 66.5 244.5 L 70.5 244.5 M 66.5 235.5 L 70.5 235.5 M 66.5 225.5 L 70.5 225.5 M 66.5 216.5 L 70.5 216.5 M 66.5 206.5 L 70.5 206.5 M 66.5 196.5 L 70.5 196.5 M 66.5 187.5 L 70.5 187.5 M 66.5 177.5 L 70.5 177.5 M 66.5 167.5 L 70.5 167.5 M 66.5 158.5 L 70.5 158.5 M 66.5 148.5 L 70.5 148.5 M 66.5 139.5 L 70.5 139.5 M 66.5 129.5 L 70.5 129.5 M 66.5 119.5 L 70.5 119.5 M 66.5 110.5 L 70.5 110.5 M 66.5 100.5 L 70.5 100.5 M 66.5 90.5 L 70.5 90.5 M 66.5 81.5 L 70.5 81.5 M 66.5 71.5 L 70.5 71.5 M 66.5 62.5 L 70.5 62.5 M 66.5 52.5 L 70.5 52.5 M 66.5 42.5 L 70.5 42.5" stroke-linejoin="bevel" stroke-miterlimit="10"/><text fill="#444444" stroke="none" font-family="helvetica" font-size="10pt" font-style="normal" font-weight="normal" text-decoration="normal" x="52.31666660308838" y="288" text-anchor="start" dominant-baseline="alphabetic" transform="matrix(1, 0, 0, 1, 0.5, 0.5)">0</text><text fill="none" stroke="rgb(0,0,0)" font-family="helvetica" font-size="10pt" font-style="normal" font-weight="normal" text-decoration="normal" x="52.31666660308838" y="288" text-anchor="start" dominant-baseline="alphabetic" transform="matrix(1, 0, 0, 1, 0.5, 0.5)" stroke-opacity="0" stroke-linejoin="bevel" stroke-miterlimit="10">0</text><text fill="#444444" stroke="none" font-family="helvetica" font-size="10pt" font-style="normal" font-weight="normal" text-decoration="normal" x="45.63333320617676" y="239.8489990234375" text-anchor="start" dominant-baseline="alphabetic" transform="matrix(1, 0, 0, 1, 0.5, 0.5)">50</text><text fill="none" stroke="rgb(0,0,0)" font-family="helvetica" font-size="10pt" font-style="normal" font-weight="normal" text-decoration="normal" x="45.63333320617676" y="239.8489990234375" text-anchor="start" dominant-baseline="alphabetic" transform="matrix(1, 0, 0, 1, 0.5, 0.5)" stroke-opacity="0" stroke-linejoin="bevel" stroke-miterlimit="10">50</text><text fill="#444444" stroke="none" font-family="helvetica" font-size="10pt" font-style="normal" font-weight="normal" text-decoration="normal" x="38.95000076293945" y="191.697998046875" text-anchor="start" dominant-baseline="alphabetic" transform="matrix(1, 0, 0, 1, 0.5, 0.5)">100</text><text fill="none" stroke="rgb(0,0,0)" font-family="helvetica" font-size="10pt" font-style="normal" font-weight="normal" text-decoration="normal" x="38.95000076293945" y="191.697998046875" text-anchor="start" dominant-baseline="alphabetic" transform="matrix(1, 0, 0, 1, 0.5, 0.5)" stroke-opacity="0" stroke-linejoin="bevel" stroke-miterlimit="10">100</text><text fill="#444444" stroke="none" font-family="helvetica" font-size="10pt" font-style="normal" font-weight="normal" text-decoration="normal" x="38.95000076293945" y="143.5469970703125" text-anchor="start" dominant-baseline="alphabetic" transform="matrix(1, 0, 0, 1, 0.5, 0.5)">150</text><text fill="none" stroke="rgb(0,0,0)" font-family="helvetica" font-size="10pt" font-style="normal" font-weight="normal" text-decoration="normal" x="38.95000076293945" y="143.5469970703125" text-anchor="start" dominant-baseline="alphabetic" transform="matrix(1, 0, 0, 1, 0.5, 0.5)" stroke-opacity="0" stroke-linejoin="bevel" stroke-miterlimit="10">150</text><text fill="#444444" stroke="none" font-family="helvetica" font-size="10pt" font-style="normal" font-weight="normal" text-decoration="normal" x="38.95000076293945" y="95.39599609375" text-anchor="start" dominant-baseline="alphabetic" transform="matrix(1, 0, 0, 1, 0.5, 0.5)">200</text><text fill="none" stroke="rgb(0,0,0)" font-family="helvetica" font-size="10pt" font-style="normal" font-weight="normal" text-decoration="normal" x="38.95000076293945" y="95.39599609375" text-anchor="start" dominant-baseline="alphabetic" transform="matrix(1, 0, 0, 1, 0.5, 0.5)" stroke-opacity="0" stroke-linejoin="bevel" stroke-miterlimit="10">200</text><text fill="#444444" stroke="none" font-family="helvetica" font-size="10pt" font-style="normal" font-weight="normal" text-decoration="normal" x="38.95000076293945" y="47.244991302490234" text-anchor="start" dominant-baseline="alphabetic" transform="matrix(1, 0, 0, 1, 0.5, 0.5)">250</text><text fill="none" stroke="rgb(0,0,0)" font-family="helvetica" font-size="10pt" font-style="normal" font-weight="normal" text-decoration="normal" x="38.95000076293945" y="47.244991302490234" text-anchor="start" dominant-baseline="alphabetic" transform="matrix(1, 0, 0, 1, 0.5, 0.5)" stroke-opacity="0" stroke-linejoin="bevel" stroke-miterlimit="10">250</text><text fill="#444444" stroke="none" font-family="helvetica" font-size="12pt" font-style="normal" font-weight="normal" text-decoration="normal" x="-65.25833511352539" y="154" text-anchor="start" dominant-baseline="alphabetic" transform="matrix(6.123233995736766e-17, -1, 1, 6.123233995736766e-17, -126.54999923706055, 189.45000076293945)">Days suitable for transmission</text><text fill="none" stroke="rgb(0,0,0)" font-family="helvetica" font-size="12pt" font-style="normal" font-weight="normal" text-decoration="normal" x="-65.25833511352539" y="154" text-anchor="start" dominant-baseline="alphabetic" transform="matrix(6.123233995736766e-17, -1, 1, 6.123233995736766e-17, -126.54999923706055, 189.45000076293945)" stroke-opacity="0" stroke-linejoin="bevel" stroke-miterlimit="10">Days suitable for transmission</text><path fill="rgb(255,255,255)" stroke="rgb(229,229,229)" paint-order="fill" d="M 477.0333251953125 208.5 L 560.4999847412109 208.5 L 560.4999847412109 273.5 L 477.0333251953125 273.5 L 477.0333251953125 208.5 Z" fill-opacity="0.9490196078431372" clip-path="url(#QeLymuyPmVzx)" stroke-opacity="0.5019607843137255" stroke-linejoin="bevel" stroke-miterlimit="10"/><g clip-path="url(#QeLymuyPmVzx)"><g transform="matrix(1, 0, 0, 1, 487.5333251953125, 219)"><path fill="none" stroke="#30a2da" paint-order="fill" d="M 0.5 10.5 L 20.5 10.5" stroke-linejoin="bevel" stroke-miterlimit="10" stroke-width="2"/></g></g><g clip-path="url(#QeLymuyPmVzx)"><text fill="#444444" stroke="none" font-family="helvetica" font-size="13px" font-style="normal" font-weight="normal" text-decoration="normal" x="512.5333251953125" y="233.5" text-anchor="start" dominant-baseline="alphabetic" transform="matrix(1, 0, 0, 1, 0.5, 0.5)">ID 001</text></g><g clip-path="url(#QeLymuyPmVzx)"><text fill="none" stroke="rgb(0,0,0)" font-family="helvetica" font-size="13px" font-style="normal" font-weight="normal" text-decoration="normal" x="512.5333251953125" y="233.5" text-anchor="start" dominant-baseline="alphabetic" transform="matrix(1, 0, 0, 1, 0.5, 0.5)" stroke-opacity="0" stroke-linejoin="bevel" stroke-miterlimit="10">ID 001</text></g><g clip-path="url(#QeLymuyPmVzx)"><g transform="matrix(1, 0, 0, 1, 487.5333251953125, 242)"><path fill="none" stroke="#fc4f30" paint-order="fill" d="M 0.5 10.5 L 20.5 10.5" stroke-linejoin="bevel" stroke-miterlimit="10" stroke-width="2"/></g></g><g clip-path="url(#QeLymuyPmVzx)"><text fill="#444444" stroke="none" font-family="helvetica" font-size="13px" font-style="normal" font-weight="normal" text-decoration="normal" x="512.5333251953125" y="256.5" text-anchor="start" dominant-baseline="alphabetic" transform="matrix(1, 0, 0, 1, 0.5, 0.5)">ID 006</text></g><g clip-path="url(#QeLymuyPmVzx)"><text fill="none" stroke="rgb(0,0,0)" font-family="helvetica" font-size="13px" font-style="normal" font-weight="normal" text-decoration="normal" x="512.5333251953125" y="256.5" text-anchor="start" dominant-baseline="alphabetic" transform="matrix(1, 0, 0, 1, 0.5, 0.5)" stroke-opacity="0" stroke-linejoin="bevel" stroke-miterlimit="10">ID 006</text></g><text fill="black" stroke="none" font-family="helvetica" font-size="14pt" font-style="normal" font-weight="normal" text-decoration="normal" x="0" y="18" text-anchor="start" dominant-baseline="alphabetic" transform="matrix(1, 0, 0, 1, 5.5, 5.5)">B. Los Angeles</text><text fill="none" stroke="rgb(0,0,0)" font-family="helvetica" font-size="14pt" font-style="normal" font-weight="normal" text-decoration="normal" x="0" y="18" text-anchor="start" dominant-baseline="alphabetic" transform="matrix(1, 0, 0, 1, 5.5, 5.5)" stroke-opacity="0" stroke-linejoin="bevel" stroke-miterlimit="10">B. Los Angeles</text></svg>