<svg version="1.1" xmlns="http://www.w3.org/2000/svg" width="600" height="329"><defs><clipPath id="TpBkdpkpPHiJ"><path fill="none" stroke="none" d="M 70.5 30.5 L 570.5 30.5 L 570.5 280.5 L 70.5 280.5 L 70.5 30.5 Z"/></clipPath><clipPath id="UEMoAutKrouI"><path fill="none" stroke="none" d="M 70.5 30.5 L 570.5 30.5 L 570.5 280.5 L 70.5 280.5 L 70.5 30.5 Z"/></clipPath><clipPath id="JKAqsuRAemCo"><path fill="none" stroke="none" d="M 70.5 30.5 L 570.5 30.5 L 570.5 280.5 L 70.5 280.5 L 70.5 30.5 Z"/></clipPath><clipPath id="ecVFpNPzWtEE"><path fill="none" stroke="none" d="M 70.5 30.5 L 570.5 30.5 L 570.5 280.5 L 70.5 280.5 L 70.5 30.5 Z"/></clipPath><clipPath id="fnFEeyklKJFu"><path fill="none" stroke="none" d="M 70.5 30.5 L 570.5 30.5 L 570.5 280.5 L 70.5 280.5 L 70.5 30.5 Z"/></clipPath><clipPath id="wusnPFigDGTr"><path fill="none" stroke="none" d="M 70.5 30.5 L 570.5 30.5 L 570.5 280.5 L 70.5 280.5 L 70.5 30.5 Z"/></clipPath><clipPath id="ieWmRupkXSKO"><path fill="none" stroke="none" d="M 70.5 30.5 L 570.5 30.5 L 570.5 280.5 L 70.5 280.5 L 70.5 30.5 Z"/></clipPath><clipPath id="XhOKEHbQoQum"><path fill="none" stroke="none" d="M 70.5 30.5 L 570.5 30.5 L 570.5 280.5 L 70.5 280.5 L 70.5 30.5 Z"/></clipPath><clipPath id="IFlyUSGoMdXL"><path fill="none" stroke="none" d="M 70.5 30.5 L 570.5 30.5 L 570.5 280.5 L 70.5 280.5 L 70.5 30.5 Z"/></clipPath><clipPath id="xyOehuEZTSOX"><path fill="none" stroke="none" d="M 70.5 30.5 L 570.5 30.5 L 570.5 280.5 L 70.5 280.5 L 70.5 30.5 Z"/></clipPath><clipPath id="KDbSoiDHsszD"><path fill="none" stroke="none" d="M 70.5 30.5 L 570.5 30.5 L 570.5 280.5 L 70.5 280.5 L 70.5 30.5 Z"/></clipPath><clipPath id="fMOVbiazWBBb"><path fill="none" stroke="none" d="M 70.5 30.5 L 570.5 30.5 L 570.5 280.5 L 70.5 280.5 L 70.5 30.5 Z"/></clipPath><clipPath id="qtUGUzkdTiMv"><path fill="none" stroke="none" d="M 70.5 30.5 L 570.5 30.5 L 570.5 280.5 L 70.5 280.5 L 70.5 30.5 Z"/></clipPath><clipPath id="BsiStJhyoskH"><path fill="none" stroke="none" d="M 70.5 30.5 L 570.5 30.5 L 570.5 280.5 L 70.5 280.5 L 70.5 30.5 Z"/></clipPath><clipPath id="KlgdsSGdGhTg"><path fill="none" stroke="none" d="M 70.5 30.5 L 570.5 30.5 L 570.5 280.5 L 70.5 280.5 L 70.5 30.5 Z"/></clipPath><clipPath id="gWcXpoGwVqIp"><path fill="none" stroke="none" d="M 70.5 30.5 L 570.5 30.5 L 570.5 280.5 L 70.5 280.5 L 70.5 30.5 Z"/></clipPath><clipPath id="diILvDmqolTr"><path fill="none" stroke="none" d="M 70.5 30.5 L 570.5 30.5 L 570.5 280.5 L 70.5 280.5 L 70.5 30.5 Z"/></clipPath><clipPath id="wlicAEMqkKWg"><path fill="none" stroke="none" d="M 70.5 30.5 L 570.5 30.5 L 570.5 280.5 L 70.5 280.5 L 70.5 30.5 Z"/></clipPath><clipPath id="ttIqMxIvESvi"><path fill="none" stroke="none" d="M 70.5 30.5 L 570.5 30.5 L 570.5 280.5 L 70.5 280.5 L 70.5 30.5 Z"/></clipPath><clipPath id="JLtGEhLFJqde"><path fill="none" stroke="none" d="M 70.5 30.5 L 570.5 30.5 L 570.5 280.5 L 70.5 280.5 L 70.5 30.5 Z"/></clipPath><clipPath id="NJHyreiBQKqU"><path fill="none" stroke="none" d="M 70.5 30.5 L 570.5 30.5 L 570.5 280.5 L 70.5 280.5 L 70.5 30.5 Z"/></clipPath><clipPath id="pwRcxkTIRVpa"><path fill="none" stroke="none" d="M 70.5 30.5 L 570.5 30.5 L 570.5 280.5 L 70.5 280.5 L 70.5 30.5 Z"/></clipPath><clipPath id="QTULEVzeqcof"><path fill="none" stroke="none" d="M 70.5 30.5 L 570.5 30.5 L 570.5 280.5 L 70.5 280.5 L 70.5 30.5 Z"/></clipPath></defs><path fill="none" stroke="#e5e5e5" paint-order="fill" d="M 70.5 30.5 L 570.5 30.5 L 570.5 280.5 L 70.5 280.5 L 70.5 30.5 Z" stroke-linejoin="bevel" stroke-miterlimit="10"/><path fill="none" stroke="black" paint-order="fill" d="M 332.46172248803487 30.5 L 332.46172248803487 280.5" stroke-linejoin="bevel" stroke-miterlimit="10" stroke-width="3" stroke-dasharray="6" clip-path="url(#JKAqsuRAemCo)"/><path fill="none" stroke="#9467bd" paint-order="fill" d="M 93.2272720336914 92.96894836425781 L 117.15071868896484 80.54967498779297 L 141.07415771484375 88.0012435913086 L 164.9976043701172 84.27545928955078 L 188.92105102539062 86.75931549072266 L 212.84449768066406 83.03353118896484 L 236.7679443359375 91.7270278930664 L 260.6913757324219 100.42051696777344 L 284.6148376464844 107.87207794189453 L 308.53826904296875 64.40462112426758" stroke-linejoin="bevel" stroke-miterlimit="10" stroke-width="2" clip-path="url(#ecVFpNPzWtEE)"/><path fill="none" stroke="#9467bd" paint-order="fill" d="M 93.2272720336914 92.96894836425781 L 117.15071868896484 80.54967498779297 L 141.07415771484375 88.0012435913086 L 164.9976043701172 84.27545928955078 L 188.92105102539062 86.75931549072266 L 212.84449768066406 83.03353118896484 L 236.7679443359375 91.7270278930664 L 260.6913757324219 100.42051696777344 L 284.6148376464844 107.87207794189453 L 308.53826904296875 64.40462112426758" stroke-linejoin="bevel" stroke-miterlimit="10" stroke-width="2" stroke-dasharray="6" clip-path="url(#fnFEeyklKJFu)"/><path fill="none" stroke="#30a2da" paint-order="fill" d="M 308.53826904296875 64.40462112426758 L 332.46173095703125 89.24317169189453 L 356.3851623535156 70.6142578125 L 380.3086242675781 109.11400604248047 L 404.2320556640625 90.48509979248047 L 428.155517578125 90.48509979248047 L 452.0789489746094 80.54967498779297 L 476.00238037109375 109.11400604248047 L 499.92584228515625 92.96894836425781 L 523.8493041992188 90.48509979248047 L 547.772705078125 95.45280456542969" stroke-linejoin="bevel" stroke-miterlimit="10" stroke-width="2" clip-path="url(#wusnPFigDGTr)"/><path fill="none" stroke="#30a2da" paint-order="fill" d="M 332.46173095703125 87.48188781738281 L 356.3851623535156 88.45285034179688 L 380.3086242675781 89.42381286621094 L 404.2320556640625 90.394775390625 L 428.155517578125 91.36573791503906 L 452.0789489746094 92.33670043945312 L 476.00238037109375 93.30766296386719 L 499.92584228515625 94.27861785888672 L 523.8493041992188 95.24958038330078 L 547.772705078125 96.22054290771484" stroke-linejoin="bevel" stroke-miterlimit="10" stroke-width="2" stroke-dasharray="6" clip-path="url(#ieWmRupkXSKO)"/><path fill="none" stroke="#fc4f30" paint-order="fill" d="M 308.53826904296875 64.40462112426758 L 332.46173095703125 74.34004211425781 L 356.3851623535156 109.11400604248047 L 380.3086242675781 94.21087646484375 L 404.2320556640625 80.54967498779297 L 428.155517578125 84.27545928955078 L 452.0789489746094 86.75931549072266 L 476.00238037109375 105.38822937011719 L 499.92584228515625 101.66244506835938 L 523.8493041992188 78.0658187866211 L 547.772705078125 94.21087646484375" stroke-linejoin="bevel" stroke-miterlimit="10" stroke-width="2" clip-path="url(#XhOKEHbQoQum)"/><path fill="none" stroke="#fc4f30" paint-order="fill" d="M 332.46173095703125 88.79155731201172 L 356.3851623535156 89.25069427490234 L 380.3086242675781 89.70983123779297 L 404.2320556640625 90.1689682006836 L 428.155517578125 90.62810516357422 L 452.0789489746094 91.08724212646484 L 476.00238037109375 91.54637908935547 L 499.92584228515625 92.0055160522461 L 523.8493041992188 92.46465301513672 L 547.772705078125 92.92378997802734" stroke-linejoin="bevel" stroke-miterlimit="10" stroke-width="2" stroke-dasharray="6" clip-path="url(#IFlyUSGoMdXL)"/><path fill="none" stroke="rgb(128,128,128)" paint-order="fill" d="M 93.2272720336914 92.96894836425781 L 117.15071868896484 88.0012435913086 L 141.07415771484375 69.37232971191406 L 164.9976043701172 96.69473266601562 L 188.92105102539062 91.7270278930664 L 212.84449768066406 76.82389831542969 L 236.7679443359375 88.0012435913086 L 260.6913757324219 96.69473266601562 L 284.6148376464844 79.30774688720703 L 308.53826904296875 86.75931549072266" stroke-opacity="0.7490196078431373" stroke-linejoin="bevel" stroke-miterlimit="10" clip-path="url(#xyOehuEZTSOX)"/><path fill="none" stroke="grey" paint-order="fill" d="M 308.53826904296875 86.75931549072266 L 332.46173095703125 65.64654541015625 L 356.3851623535156 95.45280456542969 L 380.3086242675781 110.3559341430664 L 404.2320556640625 76.82389831542969 L 428.155517578125 53.227272033691406 L 452.0789489746094 90.48509979248047 L 476.00238037109375 84.27545928955078 L 499.92584228515625 74.34004211425781 L 523.8493041992188 104.14630126953125 L 547.772705078125 97.93666076660156" stroke-linejoin="bevel" stroke-miterlimit="10" stroke-width="0.5" clip-path="url(#KDbSoiDHsszD)"/><path fill="none" stroke="grey" paint-order="fill" d="M 308.53826904296875 86.75931549072266 L 332.46173095703125 84.27545928955078 L 356.3851623535156 79.30774688720703 L 380.3086242675781 89.24317169189453 L 404.2320556640625 70.6142578125 L 428.155517578125 105.38822937011719 L 452.0789489746094 76.82389831542969 L 476.00238037109375 86.75931549072266 L 499.92584228515625 95.45280456542969 L 523.8493041992188 66.88847351074219 L 547.772705078125 81.7916030883789" stroke-linejoin="bevel" stroke-miterlimit="10" stroke-width="0.5" clip-path="url(#fMOVbiazWBBb)"/><path fill="none" stroke="rgb(128,128,128)" paint-order="fill" d="M 93.2272720336914 94.21087646484375 L 117.15071868896484 84.27545928955078 L 141.07415771484375 96.69473266601562 L 164.9976043701172 75.58197021484375 L 188.92105102539062 91.7270278930664 L 212.84449768066406 91.7270278930664 L 236.7679443359375 96.69473266601562 L 260.6913757324219 80.54967498779297 L 284.6148376464844 86.75931549072266 L 308.53826904296875 69.37232971191406" stroke-opacity="0.7490196078431373" stroke-linejoin="bevel" stroke-miterlimit="10" clip-path="url(#qtUGUzkdTiMv)"/><path fill="none" stroke="grey" paint-order="fill" d="M 308.53826904296875 69.37232971191406 L 332.46173095703125 75.58197021484375 L 356.3851623535156 107.87207794189453 L 380.3086242675781 95.45280456542969 L 404.2320556640625 73.09811401367188 L 428.155517578125 61.9207649230957 L 452.0789489746094 88.0012435913086 L 476.00238037109375 78.0658187866211 L 499.92584228515625 89.24317169189453 L 523.8493041992188 79.30774688720703 L 547.772705078125 74.34004211425781" stroke-linejoin="bevel" stroke-miterlimit="10" stroke-width="0.5" clip-path="url(#BsiStJhyoskH)"/><path fill="none" stroke="grey" paint-order="fill" d="M 308.53826904296875 69.37232971191406 L 332.46173095703125 86.75931549072266 L 356.3851623535156 66.88847351074219 L 380.3086242675781 101.66244506835938 L 404.2320556640625 96.69473266601562 L 428.155517578125 89.24317169189453 L 452.0789489746094 84.27545928955078 L 476.00238037109375 73.09811401367188 L 499.92584228515625 100.42051696777344 L 523.8493041992188 69.37232971191406 L 547.772705078125 94.21087646484375" stroke-linejoin="bevel" stroke-miterlimit="10" stroke-width="0.5" clip-path="url(#KlgdsSGdGhTg)"/><path fill="none" stroke="rgb(128,128,128)" paint-order="fill" d="M 93.2272720336914 86.75931549072266 L 117.15071868896484 91.7270278930664 L 141.07415771484375 75.58197021484375 L 164.9976043701172 95.45280456542969 L 188.92105102539062 96.69473266601562 L 212.84449768066406 71.85618591308594 L 236.7679443359375 90.48509979248047 L 260.6913757324219 73.09811401367188 L 284.6148376464844 76.82389831542969 L 308.53826904296875 73.09811401367188" stroke-opacity="0.7490196078431373" stroke-linejoin="bevel" stroke-miterlimit="10" clip-path="url(#gWcXpoGwVqIp)"/><path fill="none" stroke="grey" paint-order="fill" d="M 308.53826904296875 73.09811401367188 L 332.46173095703125 102.90437316894531 L 356.3851623535156 96.69473266601562 L 380.3086242675781 85.51738739013672 L 404.2320556640625 91.7270278930664 L 428.155517578125 90.48509979248047 L 452.0789489746094 97.93666076660156 L 476.00238037109375 63.16269302368164 L 499.92584228515625 80.54967498779297 L 523.8493041992188 92.96894836425781 L 547.772705078125 68.13040161132812" stroke-linejoin="bevel" stroke-miterlimit="10" stroke-width="0.5" clip-path="url(#diILvDmqolTr)"/><path fill="none" stroke="grey" paint-order="fill" d="M 308.53826904296875 73.09811401367188 L 332.46173095703125 86.75931549072266 L 356.3851623535156 66.88847351074219 L 380.3086242675781 76.82389831542969 L 404.2320556640625 76.82389831542969 L 428.155517578125 86.75931549072266 L 452.0789489746094 85.51738739013672 L 476.00238037109375 106.63015747070312 L 499.92584228515625 99.1785888671875 L 523.8493041992188 66.88847351074219 L 547.772705078125 90.48509979248047" stroke-linejoin="bevel" stroke-miterlimit="10" stroke-width="0.5" clip-path="url(#wlicAEMqkKWg)"/><path fill="none" stroke="rgb(128,128,128)" paint-order="fill" d="M 93.2272720336914 63.16269302368164 L 117.15071868896484 80.54967498779297 L 141.07415771484375 95.45280456542969 L 164.9976043701172 60.678836822509766 L 188.92105102539062 68.13040161132812 L 212.84449768066406 101.66244506835938 L 236.7679443359375 78.0658187866211 L 260.6913757324219 54.469200134277344 L 284.6148376464844 91.7270278930664 L 308.53826904296875 86.75931549072266" stroke-opacity="0.7490196078431373" stroke-linejoin="bevel" stroke-miterlimit="10" clip-path="url(#ttIqMxIvESvi)"/><path fill="none" stroke="grey" paint-order="fill" d="M 308.53826904296875 86.75931549072266 L 332.46173095703125 78.0658187866211 L 356.3851623535156 65.64654541015625 L 380.3086242675781 66.88847351074219 L 404.2320556640625 81.7916030883789 L 428.155517578125 74.34004211425781 L 452.0789489746094 97.93666076660156 L 476.00238037109375 90.48509979248047 L 499.92584228515625 78.0658187866211 L 523.8493041992188 88.0012435913086 L 547.772705078125 94.21087646484375" stroke-linejoin="bevel" stroke-miterlimit="10" stroke-width="0.5" clip-path="url(#JLtGEhLFJqde)"/><path fill="none" stroke="grey" paint-order="fill" d="M 308.53826904296875 86.75931549072266 L 332.46173095703125 81.7916030883789 L 356.3851623535156 89.24317169189453 L 380.3086242675781 63.16269302368164 L 404.2320556640625 109.11400604248047 L 428.155517578125 73.09811401367188 L 452.0789489746094 81.7916030883789 L 476.00238037109375 85.51738739013672 L 499.92584228515625 81.7916030883789 L 523.8493041992188 84.27545928955078 L 547.772705078125 107.87207794189453" stroke-linejoin="bevel" stroke-miterlimit="10" stroke-width="0.5" clip-path="url(#NJHyreiBQKqU)"/><path fill="none" stroke="black" paint-order="fill" d="M 70.5 280.5 L 570.5 280.5" stroke-linejoin="bevel" stroke-miterlimit="10"/><path fill="none" stroke="black" paint-order="fill" d="M 93.5 286.5 L 93.5 278.5 M 212.5 286.5 L 212.5 278.5 M 332.5 286.5 L 332.5 278.5 M 452.5 286.5 L 452.5 278.5" stroke-linejoin="bevel" stroke-miterlimit="10"/><path fill="none" stroke="black" paint-order="fill" d="M 93.5 284.5 L 93.5 280.5 M 117.5 284.5 L 117.5 280.5 M 141.5 284.5 L 141.5 280.5 M 164.5 284.5 L 164.5 280.5 M 188.5 284.5 L 188.5 280.5 M 212.5 284.5 L 212.5 280.5 M 236.5 284.5 L 236.5 280.5 M 260.5 284.5 L 260.5 280.5 M 284.5 284.5 L 284.5 280.5 M 308.5 284.5 L 308.5 280.5 M 332.5 284.5 L 332.5 280.5 M 356.5 284.5 L 356.5 280.5 M 380.5 284.5 L 380.5 280.5 M 404.5 284.5 L 404.5 280.5 M 428.5 284.5 L 428.5 280.5 M 452.5 284.5 L 452.5 280.5 M 476.5 284.5 L 476.5 280.5 M 499.5 284.5 L 499.5 280.5 M 523.5 284.5 L 523.5 280.5 M 547.5 284.5 L 547.5 280.5" stroke-linejoin="bevel" stroke-miterlimit="10"/><text fill="#444444" stroke="none" font-family="helvetica" font-size="10pt" font-style="normal" font-weight="normal" text-decoration="normal" x="77.86060523986816" y="301" text-anchor="start" dominant-baseline="alphabetic" transform="matrix(1, 0, 0, 1, 0.5, 0.5)">2025</text><text fill="none" stroke="rgb(0,0,0)" font-family="helvetica" font-size="10pt" font-style="normal" font-weight="normal" text-decoration="normal" x="77.86060523986816" y="301" text-anchor="start" dominant-baseline="alphabetic" transform="matrix(1, 0, 0, 1, 0.5, 0.5)" stroke-opacity="0" stroke-linejoin="bevel" stroke-miterlimit="10">2025</text><text fill="#444444" stroke="none" font-family="helvetica" font-size="10pt" font-style="normal" font-weight="normal" text-decoration="normal" x="197.47783088684082" y="301" text-anchor="start" dominant-baseline="alphabetic" transform="matrix(1, 0, 0, 1, 0.5, 0.5)">2030</text><text fill="none" stroke="rgb(0,0,0)" font-family="helvetica" font-size="10pt" font-style="normal" font-weight="normal" text-decoration="normal" x="197.47783088684082" y="301" text-anchor="start" dominant-baseline="alphabetic" transform="matrix(1, 0, 0, 1, 0.5, 0.5)" stroke-opacity="0" stroke-linejoin="bevel" stroke-miterlimit="10">2030</text><text fill="#444444" stroke="none" font-family="helvetica" font-size="10pt" font-style="normal" font-weight="normal" text-decoration="normal" x="317.095064163208" y="301" text-anchor="start" dominant-baseline="alphabetic" transform="matrix(1, 0, 0, 1, 0.5, 0.5)">2035</text><text fill="none" stroke="rgb(0,0,0)" font-family="helvetica" font-size="10pt" font-style="normal" font-weight="normal" text-decoration="normal" x="317.095064163208" y="301" text-anchor="start" dominant-baseline="alphabetic" transform="matrix(1, 0, 0, 1, 0.5, 0.5)" stroke-opacity="0" stroke-linejoin="bevel" stroke-miterlimit="10">2035</text><text fill="#444444" stroke="none" font-family="helvetica" font-size="10pt" font-style="normal" font-weight="normal" text-decoration="normal" x="436.71228218078613" y="301" text-anchor="start" dominant-baseline="alphabetic" transform="matrix(1, 0, 0, 1, 0.5, 0.5)">2040</text><text fill="none" stroke="rgb(0,0,0)" font-family="helvetica" font-size="10pt" font-style="normal" font-weight="normal" text-decoration="normal" x="436.71228218078613" y="301" text-anchor="start" dominant-baseline="alphabetic" transform="matrix(1, 0, 0, 1, 0.5, 0.5)" stroke-opacity="0" stroke-linejoin="bevel" stroke-miterlimit="10">2040</text><text fill="#444444" stroke="none" font-family="helvetica" font-size="12pt" font-style="normal" font-weight="normal" text-decoration="normal" x="303.8500003814697" y="321" text-anchor="start" dominant-baseline="alphabetic" transform="matrix(1, 0, 0, 1, 0.5, 0.5)">Year</text><text fill="none" stroke="rgb(0,0,0)" font-family="helvetica" font-size="12pt" font-style="normal" font-weight="normal" text-decoration="normal" x="303.8500003814697" y="321" text-anchor="start" dominant-baseline="alphabetic" transform="matrix(1, 0, 0, 1, 0.5, 0.5)" stroke-opacity="0" stroke-linejoin="bevel" stroke-miterlimit="10">Year</text><path fill="none" stroke="black" paint-order="fill" d="M 70.5 280.5 L 70.5 30.5" stroke-linejoin="bevel" stroke-miterlimit="10"/><path fill="none" stroke="black" paint-order="fill" d="M 64.5 280.5 L 72.5 280.5 M 64.5 218.5 L 72.5 218.5 M 64.5 156.5 L 72.5 156.5 M 64.5 94.5 L 72.5 94.5 M 64.5 32.5 L 72.5 32.5" stroke-linejoin="bevel" stroke-miterlimit="10"/><path fill="none" stroke="black" paint-order="fill" d="M 66.5 280.5 L 70.5 280.5 M 66.5 268.5 L 70.5 268.5 M 66.5 255.5 L 70.5 255.5 M 66.5 243.5 L 70.5 243.5 M 66.5 230.5 L 70.5 230.5 M 66.5 218.5 L 70.5 218.5 M 66.5 205.5 L 70.5 205.5 M 66.5 193.5 L 70.5 193.5 M 66.5 181.5 L 70.5 181.5 M 66.5 168.5 L 70.5 168.5 M 66.5 156.5 L 70.5 156.5 M 66.5 143.5 L 70.5 143.5 M 66.5 131.5 L 70.5 131.5 M 66.5 119.5 L 70.5 119.5 M 66.5 106.5 L 70.5 106.5 M 66.5 94.5 L 70.5 94.5 M 66.5 81.5 L 70.5 81.5 M 66.5 69.5 L 70.5 69.5 M 66.5 56.5 L 70.5 56.5 M 66.5 44.5 L 70.5 44.5 M 66.5 32.5 L 70.5 32.5" stroke-linejoin="bevel" stroke-miterlimit="10"/><text fill="#444444" stroke="none" font-family="helvetica" font-size="10pt" font-style="normal" font-weight="normal" text-decoration="normal" x="51.56666660308838" y="285" text-anchor="start" dominant-baseline="alphabetic" transform="matrix(1, 0, 0, 1, 0.5, 0.5)">0</text><text fill="none" stroke="rgb(0,0,0)" font-family="helvetica" font-size="10pt" font-style="normal" font-weight="normal" text-decoration="normal" x="51.56666660308838" y="285" text-anchor="start" dominant-baseline="alphabetic" transform="matrix(1, 0, 0, 1, 0.5, 0.5)" stroke-opacity="0" stroke-linejoin="bevel" stroke-miterlimit="10">0</text><text fill="#444444" stroke="none" font-family="helvetica" font-size="10pt" font-style="normal" font-weight="normal" text-decoration="normal" x="44.13333320617676" y="222.90362548828125" text-anchor="start" dominant-baseline="alphabetic" transform="matrix(1, 0, 0, 1, 0.5, 0.5)">50</text><text fill="none" stroke="rgb(0,0,0)" font-family="helvetica" font-size="10pt" font-style="normal" font-weight="normal" text-decoration="normal" x="44.13333320617676" y="222.90362548828125" text-anchor="start" dominant-baseline="alphabetic" transform="matrix(1, 0, 0, 1, 0.5, 0.5)" stroke-opacity="0" stroke-linejoin="bevel" stroke-miterlimit="10">50</text><text fill="#444444" stroke="none" font-family="helvetica" font-size="10pt" font-style="normal" font-weight="normal" text-decoration="normal" x="36.70000076293945" y="160.8072509765625" text-anchor="start" dominant-baseline="alphabetic" transform="matrix(1, 0, 0, 1, 0.5, 0.5)">100</text><text fill="none" stroke="rgb(0,0,0)" font-family="helvetica" font-size="10pt" font-style="normal" font-weight="normal" text-decoration="normal" x="36.70000076293945" y="160.8072509765625" text-anchor="start" dominant-baseline="alphabetic" transform="matrix(1, 0, 0, 1, 0.5, 0.5)" stroke-opacity="0" stroke-linejoin="bevel" stroke-miterlimit="10">100</text><text fill="#444444" stroke="none" font-family="helvetica" font-size="10pt" font-style="normal" font-weight="normal" text-decoration="normal" x="36.70000076293945" y="98.71087646484375" text-anchor="start" dominant-baseline="alphabetic" transform="matrix(1, 0, 0, 1, 0.5, 0.5)">150</text><text fill="none" stroke="rgb(0,0,0)" font-family="helvetica" font-size="10pt" font-style="normal" font-weight="normal" text-decoration="normal" x="36.70000076293945" y="98.71087646484375" text-anchor="start" dominant-baseline="alphabetic" transform="matrix(1, 0, 0, 1, 0.5, 0.5)" stroke-opacity="0" stroke-linejoin="bevel" stroke-miterlimit="10">150</text><text fill="#444444" stroke="none" font-family="helvetica" font-size="10pt" font-style="normal" font-weight="normal" text-decoration="normal" x="36.70000076293945" y="36.614505767822266" text-anchor="start" dominant-baseline="alphabetic" transform="matrix(1, 0, 0, 1, 0.5, 0.5)">200</text><text fill="none" stroke="rgb(0,0,0)" font-family="helvetica" font-size="10pt" font-style="normal" font-weight="normal" text-decoration="normal" x="36.70000076293945" y="36.614505767822266" text-anchor="start" dominant-baseline="alphabetic" transform="matrix(1, 0, 0, 1, 0.5, 0.5)" stroke-opacity="0" stroke-linejoin="bevel" stroke-miterlimit="10">200</text><text fill="#444444" stroke="none" font-family="helvetica" font-size="12pt" font-style="normal" font-weight="normal" text-decoration="normal" x="-77.44166946411133" y="150" text-anchor="start" dominant-baseline="alphabetic" transform="matrix(6.123233995736766e-17, -1, 1, 6.123233995736766e-17, -125.79999923706055, 184.20000076293945)">Days suitable for transmission</text><text fill="none" stroke="rgb(0,0,0)" font-family="helvetica" font-size="12pt" font-style="normal" font-weight="normal" text-decoration="normal" x="-77.44166946411133" y="150" text-anchor="start" dominant-baseline="alphabetic" transform="matrix(6.123233995736766e-17, -1, 1, 6.123233995736766e-17, -125.79999923706055, 184.20000076293945)" stroke-opacity="0" stroke-linejoin="bevel" stroke-miterlimit="10">Days suitable for transmission</text><path fill="rgb(255,255,255)" stroke="rgb(229,229,229)" paint-order="fill" d="M 475.183349609375 205.5 L 560.5000152587891 205.5 L 560.5000152587891 270.5 L 475.183349609375 270.5 L 475.183349609375 205.5 Z" fill-opacity="0.9490196078431372" clip-path="url(#pwRcxkTIRVpa)" stroke-opacity="0.5019607843137255" stroke-linejoin="bevel" stroke-miterlimit="10"/><g clip-path="url(#pwRcxkTIRVpa)"><g transform="matrix(1, 0, 0, 1, 485.683349609375, 216)"><path fill="none" stroke="#30a2da" paint-order="fill" d="M 0.5 10.5 L 20.5 10.5" stroke-linejoin="bevel" stroke-miterlimit="10" stroke-width="2"/></g></g><g clip-path="url(#pwRcxkTIRVpa)"><text fill="#444444" stroke="none" font-family="helvetica" font-size="13px" font-style="normal" font-weight="normal" text-decoration="normal" x="510.683349609375" y="229" text-anchor="start" dominant-baseline="alphabetic" transform="matrix(1, 0, 0, 1, 0.5, 0.5)">ID 001</text></g><g clip-path="url(#pwRcxkTIRVpa)"><text fill="none" stroke="rgb(0,0,0)" font-family="helvetica" font-size="13px" font-style="normal" font-weight="normal" text-decoration="normal" x="510.683349609375" y="229" text-anchor="start" dominant-baseline="alphabetic" transform="matrix(1, 0, 0, 1, 0.5, 0.5)" stroke-opacity="0" stroke-linejoin="bevel" stroke-miterlimit="10">ID 001</text></g><g clip-path="url(#pwRcxkTIRVpa)"><g transform="matrix(1, 0, 0, 1, 485.683349609375, 239)"><path fill="none" stroke="#fc4f30" paint-order="fill" d="M 0.5 10.5 L 20.5 10.5" stroke-linejoin="bevel" stroke-miterlimit="10" stroke-width="2"/></g></g><g clip-path="url(#pwRcxkTIRVpa)"><text fill="#444444" stroke="none" font-family="helvetica" font-size="13px" font-style="normal" font-weight="normal" text-decoration="normal" x="510.683349609375" y="252" text-anchor="start" dominant-baseline="alphabetic" transform="matrix(1, 0, 0, 1, 0.5, 0.5)">ID 006</text></g><g clip-path="url(#pwRcxkTIRVpa)"><text fill="none" stroke="rgb(0,0,0)" font-family="helvetica" font-size="13px" font-style="normal" font-weight="normal" text-decoration="normal" x="510.683349609375" y="252" text-anchor="start" dominant-baseline="alphabetic" transform="matrix(1, 0, 0, 1, 0.5, 0.5)" stroke-opacity="0" stroke-linejoin="bevel" stroke-miterlimit="10">ID 006</text></g><text fill="black" stroke="none" font-family="helvetica" font-size="14pt" font-style="normal" font-weight="normal" text-decoration="normal" x="0" y="14" text-anchor="start" dominant-baseline="alphabetic" transform="matrix(1, 0, 0, 1, 5.5, 5.5)">G. Rome</text><text fill="none" stroke="rgb(0,0,0)" font-family="helvetica" font-size="14pt" font-style="normal" font-weight="normal" text-decoration="normal" x="0" y="14" text-anchor="start" dominant-baseline="alphabetic" transform="matrix(1, 0, 0, 1, 5.5, 5.5)" stroke-opacity="0" stroke-linejoin="bevel" stroke-miterlimit="10">G. Rome</text></svg>