<svg version="1.1" xmlns="http://www.w3.org/2000/svg" width="600" height="329"><defs><clipPath id="pkkiMxbeNLIM"><path fill="none" stroke="none" d="M 70.5 30.5 L 570.5 30.5 L 570.5 280.5 L 70.5 280.5 L 70.5 30.5 Z"/></clipPath><clipPath id="pCfWNXQmnvoP"><path fill="none" stroke="none" d="M 70.5 30.5 L 570.5 30.5 L 570.5 280.5 L 70.5 280.5 L 70.5 30.5 Z"/></clipPath><clipPath id="sepFCakXaEnF"><path fill="none" stroke="none" d="M 70.5 30.5 L 570.5 30.5 L 570.5 280.5 L 70.5 280.5 L 70.5 30.5 Z"/></clipPath><clipPath id="WOuuvIoazUmD"><path fill="none" stroke="none" d="M 70.5 30.5 L 570.5 30.5 L 570.5 280.5 L 70.5 280.5 L 70.5 30.5 Z"/></clipPath><clipPath id="mRxthMZyKbwt"><path fill="none" stroke="none" d="M 70.5 30.5 L 570.5 30.5 L 570.5 280.5 L 70.5 280.5 L 70.5 30.5 Z"/></clipPath><clipPath id="DdwffvcGUrJQ"><path fill="none" stroke="none" d="M 70.5 30.5 L 570.5 30.5 L 570.5 280.5 L 70.5 280.5 L 70.5 30.5 Z"/></clipPath><clipPath id="KGfIqqDRtrKl"><path fill="none" stroke="none" d="M 70.5 30.5 L 570.5 30.5 L 570.5 280.5 L 70.5 280.5 L 70.5 30.5 Z"/></clipPath><clipPath id="vTLDneOHGUXw"><path fill="none" stroke="none" d="M 70.5 30.5 L 570.5 30.5 L 570.5 280.5 L 70.5 280.5 L 70.5 30.5 Z"/></clipPath><clipPath id="HTnfzTFdsFVt"><path fill="none" stroke="none" d="M 70.5 30.5 L 570.5 30.5 L 570.5 280.5 L 70.5 280.5 L 70.5 30.5 Z"/></clipPath><clipPath id="oiWgpbtXzvFV"><path fill="none" stroke="none" d="M 70.5 30.5 L 570.5 30.5 L 570.5 280.5 L 70.5 280.5 L 70.5 30.5 Z"/></clipPath><clipPath id="NKoqJMAvQgBq"><path fill="none" stroke="none" d="M 70.5 30.5 L 570.5 30.5 L 570.5 280.5 L 70.5 280.5 L 70.5 30.5 Z"/></clipPath><clipPath id="UQHARyCqJWZA"><path fill="none" stroke="none" d="M 70.5 30.5 L 570.5 30.5 L 570.5 280.5 L 70.5 280.5 L 70.5 30.5 Z"/></clipPath><clipPath id="tTnFrULvZcaB"><path fill="none" stroke="none" d="M 70.5 30.5 L 570.5 30.5 L 570.5 280.5 L 70.5 280.5 L 70.5 30.5 Z"/></clipPath><clipPath id="FaZTsLxnVVef"><path fill="none" stroke="none" d="M 70.5 30.5 L 570.5 30.5 L 570.5 280.5 L 70.5 280.5 L 70.5 30.5 Z"/></clipPath><clipPath id="ZdGTcuCUvQul"><path fill="none" stroke="none" d="M 70.5 30.5 L 570.5 30.5 L 570.5 280.5 L 70.5 280.5 L 70.5 30.5 Z"/></clipPath><clipPath id="CeaIocSRbRCx"><path fill="none" stroke="none" d="M 70.5 30.5 L 570.5 30.5 L 570.5 280.5 L 70.5 280.5 L 70.5 30.5 Z"/></clipPath><clipPath id="rgKFrLRDfqIu"><path fill="none" stroke="none" d="M 70.5 30.5 L 570.5 30.5 L 570.5 280.5 L 70.5 280.5 L 70.5 30.5 Z"/></clipPath><clipPath id="kwSnSFUWaPbJ"><path fill="none" stroke="none" d="M 70.5 30.5 L 570.5 30.5 L 570.5 280.5 L 70.5 280.5 L 70.5 30.5 Z"/></clipPath><clipPath id="ATaqMMiZpXDX"><path fill="none" stroke="none" d="M 70.5 30.5 L 570.5 30.5 L 570.5 280.5 L 70.5 280.5 L 70.5 30.5 Z"/></clipPath><clipPath id="HTuiXTZKQxKQ"><path fill="none" stroke="none" d="M 70.5 30.5 L 570.5 30.5 L 570.5 280.5 L 70.5 280.5 L 70.5 30.5 Z"/></clipPath><clipPath id="zqEzqPPHItTq"><path fill="none" stroke="none" d="M 70.5 30.5 L 570.5 30.5 L 570.5 280.5 L 70.5 280.5 L 70.5 30.5 Z"/></clipPath><clipPath id="OuBnxDyEKbRp"><path fill="none" stroke="none" d="M 70.5 30.5 L 570.5 30.5 L 570.5 280.5 L 70.5 280.5 L 70.5 30.5 Z"/></clipPath><clipPath id="JkWGPXZEmkiS"><path fill="none" stroke="none" d="M 70.5 30.5 L 570.5 30.5 L 570.5 280.5 L 70.5 280.5 L 70.5 30.5 Z"/></clipPath></defs><path fill="none" stroke="#e5e5e5" paint-order="fill" d="M 70.5 30.5 L 570.5 30.5 L 570.5 280.5 L 70.5 280.5 L 70.5 30.5 Z" stroke-linejoin="bevel" stroke-miterlimit="10"/><path fill="none" stroke="black" paint-order="fill" d="M 332.46172248803487 30.5 L 332.46172248803487 280.5" stroke-linejoin="bevel" stroke-miterlimit="10" stroke-width="3" stroke-dasharray="6" clip-path="url(#sepFCakXaEnF)"/><path fill="none" stroke="#9467bd" paint-order="fill" d="M 93.2272720336914 138.69735717773438 L 117.15071868896484 103.7323226928711 L 141.07415771484375 144.5248565673828 L 164.9976043701172 160.06488037109375 L 188.92105102539062 101.7898178100586 L 212.84449768066406 128.98484802246094 L 236.7679443359375 183.37490844726562 L 260.6913757324219 121.21484375 L 284.6148376464844 175.60488891601562 L 308.53826904296875 144.5248565673828" stroke-linejoin="bevel" stroke-miterlimit="10" stroke-width="2" clip-path="url(#WOuuvIoazUmD)"/><path fill="none" stroke="#9467bd" paint-order="fill" d="M 93.2272720336914 138.69735717773438 L 117.15071868896484 103.7323226928711 L 141.07415771484375 144.5248565673828 L 164.9976043701172 160.06488037109375 L 188.92105102539062 101.7898178100586 L 212.84449768066406 128.98484802246094 L 236.7679443359375 183.37490844726562 L 260.6913757324219 121.21484375 L 284.6148376464844 175.60488891601562 L 308.53826904296875 144.5248565673828" stroke-linejoin="bevel" stroke-miterlimit="10" stroke-width="2" stroke-dasharray="6" clip-path="url(#mRxthMZyKbwt)"/><path fill="none" stroke="#30a2da" paint-order="fill" d="M 308.53826904296875 144.5248565673828 L 332.46173095703125 101.7898178100586 L 356.3851623535156 88.19230651855469 L 380.3086242675781 127.04234313964844 L 404.2320556640625 111.50233459472656 L 428.155517578125 86.24980926513672 L 452.0789489746094 146.4673614501953 L 476.00238037109375 165.8923797607422 L 499.92584228515625 123.15734100341797 L 523.8493041992188 142.58236694335938 L 547.772705078125 189.20240783691406" stroke-linejoin="bevel" stroke-miterlimit="10" stroke-width="2" clip-path="url(#DdwffvcGUrJQ)"/><path fill="none" stroke="#30a2da" paint-order="fill" d="M 332.46173095703125 90.80585479736328 L 356.3851623535156 99.1174087524414 L 380.3086242675781 107.42896270751953 L 404.2320556640625 115.74051666259766 L 428.155517578125 124.05207061767578 L 452.0789489746094 132.36363220214844 L 476.00238037109375 140.6751708984375 L 499.92584228515625 148.98672485351562 L 523.8493041992188 157.29827880859375 L 547.772705078125 165.60983276367188" stroke-linejoin="bevel" stroke-miterlimit="10" stroke-width="2" stroke-dasharray="6" clip-path="url(#KGfIqqDRtrKl)"/><path fill="none" stroke="#fc4f30" paint-order="fill" d="M 308.53826904296875 144.5248565673828 L 332.46173095703125 94.01981353759766 L 356.3851623535156 212.51243591308594 L 380.3086242675781 160.06488037109375 L 404.2320556640625 134.81234741210938 L 428.155517578125 127.04234313964844 L 452.0789489746094 138.69735717773438 L 476.00238037109375 171.7198944091797 L 499.92584228515625 127.04234313964844 L 523.8493041992188 154.2373809814453 L 547.772705078125 70.70979309082031" stroke-linejoin="bevel" stroke-miterlimit="10" stroke-width="2" clip-path="url(#vTLDneOHGUXw)"/><path fill="none" stroke="#fc4f30" paint-order="fill" d="M 332.46173095703125 157.09814453125 L 356.3851623535156 153.0954132080078 L 380.3086242675781 149.09268188476562 L 404.2320556640625 145.08995056152344 L 428.155517578125 141.08721923828125 L 452.0789489746094 137.08448791503906 L 476.00238037109375 133.08175659179688 L 499.92584228515625 129.0790252685547 L 523.8493041992188 125.07630157470703 L 547.772705078125 121.07357025146484" stroke-linejoin="bevel" stroke-miterlimit="10" stroke-width="2" stroke-dasharray="6" clip-path="url(#HTnfzTFdsFVt)"/><path fill="none" stroke="rgb(128,128,128)" paint-order="fill" d="M 93.2272720336914 212.51243591308594 L 117.15071868896484 115.38733673095703 L 141.07415771484375 68.76728820800781 L 164.9976043701172 152.2948760986328 L 188.92105102539062 95.96231842041016 L 212.84449768066406 115.38733673095703 L 236.7679443359375 123.15734100341797 L 260.6913757324219 105.6748275756836 L 284.6148376464844 105.6748275756836 L 308.53826904296875 53.227272033691406" stroke-opacity="0.7490196078431373" stroke-linejoin="bevel" stroke-miterlimit="10" clip-path="url(#oiWgpbtXzvFV)"/><path fill="none" stroke="grey" paint-order="fill" d="M 308.53826904296875 53.227272033691406 L 332.46173095703125 97.90481567382812 L 356.3851623535156 92.07730865478516 L 380.3086242675781 76.53729248046875 L 404.2320556640625 88.19230651855469 L 428.155517578125 80.42230224609375 L 452.0789489746094 101.7898178100586 L 476.00238037109375 127.04234313964844 L 499.92584228515625 121.21484375 L 523.8493041992188 158.12237548828125 L 547.772705078125 123.15734100341797" stroke-linejoin="bevel" stroke-miterlimit="10" stroke-width="0.5" clip-path="url(#NKoqJMAvQgBq)"/><path fill="none" stroke="grey" paint-order="fill" d="M 308.53826904296875 53.227272033691406 L 332.46173095703125 97.90481567382812 L 356.3851623535156 115.38733673095703 L 380.3086242675781 165.8923797607422 L 404.2320556640625 165.8923797607422 L 428.155517578125 127.04234313964844 L 452.0789489746094 88.19230651855469 L 476.00238037109375 127.04234313964844 L 499.92584228515625 156.17987060546875 L 523.8493041992188 117.329833984375 L 547.772705078125 80.42230224609375" stroke-linejoin="bevel" stroke-miterlimit="10" stroke-width="0.5" clip-path="url(#UQHARyCqJWZA)"/><path fill="none" stroke="rgb(128,128,128)" paint-order="fill" d="M 93.2272720336914 132.86985778808594 L 117.15071868896484 119.2723388671875 L 141.07415771484375 99.84732055664062 L 164.9976043701172 117.329833984375 L 188.92105102539062 128.98484802246094 L 212.84449768066406 103.7323226928711 L 236.7679443359375 121.21484375 L 260.6913757324219 94.01981353759766 L 284.6148376464844 148.4098663330078 L 308.53826904296875 103.7323226928711" stroke-opacity="0.7490196078431373" stroke-linejoin="bevel" stroke-miterlimit="10" clip-path="url(#tTnFrULvZcaB)"/><path fill="none" stroke="grey" paint-order="fill" d="M 308.53826904296875 103.7323226928711 L 332.46173095703125 115.38733673095703 L 356.3851623535156 113.44483184814453 L 380.3086242675781 107.61732482910156 L 404.2320556640625 111.50233459472656 L 428.155517578125 99.84732055664062 L 452.0789489746094 107.61732482910156 L 476.00238037109375 82.36479949951172 L 499.92584228515625 101.7898178100586 L 523.8493041992188 88.19230651855469 L 547.772705078125 123.15734100341797" stroke-linejoin="bevel" stroke-miterlimit="10" stroke-width="0.5" clip-path="url(#FaZTsLxnVVef)"/><path fill="none" stroke="grey" paint-order="fill" d="M 308.53826904296875 103.7323226928711 L 332.46173095703125 82.36479949951172 L 356.3851623535156 134.81234741210938 L 380.3086242675781 171.7198944091797 L 404.2320556640625 101.7898178100586 L 428.155517578125 123.15734100341797 L 452.0789489746094 175.60488891601562 L 476.00238037109375 107.61732482910156 L 499.92584228515625 152.2948760986328 L 523.8493041992188 82.36479949951172 L 547.772705078125 84.30730438232422" stroke-linejoin="bevel" stroke-miterlimit="10" stroke-width="0.5" clip-path="url(#ZdGTcuCUvQul)"/><path fill="none" stroke="rgb(128,128,128)" paint-order="fill" d="M 93.2272720336914 140.63986206054688 L 117.15071868896484 88.19230651855469 L 141.07415771484375 97.90481567382812 L 164.9976043701172 134.81234741210938 L 188.92105102539062 193.08741760253906 L 212.84449768066406 119.2723388671875 L 236.7679443359375 187.25990295410156 L 260.6913757324219 78.47979736328125 L 284.6148376464844 101.7898178100586 L 308.53826904296875 78.47979736328125" stroke-opacity="0.7490196078431373" stroke-linejoin="bevel" stroke-miterlimit="10" clip-path="url(#CeaIocSRbRCx)"/><path fill="none" stroke="grey" paint-order="fill" d="M 308.53826904296875 78.47979736328125 L 332.46173095703125 125.09984588623047 L 356.3851623535156 105.6748275756836 L 380.3086242675781 119.2723388671875 L 404.2320556640625 125.09984588623047 L 428.155517578125 144.5248565673828 L 452.0789489746094 105.6748275756836 L 476.00238037109375 121.21484375 L 499.92584228515625 105.6748275756836 L 523.8493041992188 169.7773895263672 L 547.772705078125 105.6748275756836" stroke-linejoin="bevel" stroke-miterlimit="10" stroke-width="0.5" clip-path="url(#rgKFrLRDfqIu)"/><path fill="none" stroke="grey" paint-order="fill" d="M 308.53826904296875 78.47979736328125 L 332.46173095703125 132.86985778808594 L 356.3851623535156 97.90481567382812 L 380.3086242675781 99.84732055664062 L 404.2320556640625 154.2373809814453 L 428.155517578125 150.3523712158203 L 452.0789489746094 92.07730865478516 L 476.00238037109375 125.09984588623047 L 499.92584228515625 115.38733673095703 L 523.8493041992188 115.38733673095703 L 547.772705078125 111.50233459472656" stroke-linejoin="bevel" stroke-miterlimit="10" stroke-width="0.5" clip-path="url(#kwSnSFUWaPbJ)"/><path fill="none" stroke="rgb(128,128,128)" paint-order="fill" d="M 93.2272720336914 158.12237548828125 L 117.15071868896484 103.7323226928711 L 141.07415771484375 163.94989013671875 L 164.9976043701172 94.01981353759766 L 188.92105102539062 136.75485229492188 L 212.84449768066406 154.2373809814453 L 236.7679443359375 121.21484375 L 260.6913757324219 80.42230224609375 L 284.6148376464844 130.92735290527344 L 308.53826904296875 127.04234313964844" stroke-opacity="0.7490196078431373" stroke-linejoin="bevel" stroke-miterlimit="10" clip-path="url(#ATaqMMiZpXDX)"/><path fill="none" stroke="grey" paint-order="fill" d="M 308.53826904296875 127.04234313964844 L 332.46173095703125 109.55982971191406 L 356.3851623535156 99.84732055664062 L 380.3086242675781 88.19230651855469 L 404.2320556640625 82.36479949951172 L 428.155517578125 95.96231842041016 L 452.0789489746094 173.6623992919922 L 476.00238037109375 148.4098663330078 L 499.92584228515625 109.55982971191406 L 523.8493041992188 142.58236694335938 L 547.772705078125 101.7898178100586" stroke-linejoin="bevel" stroke-miterlimit="10" stroke-width="0.5" clip-path="url(#HTuiXTZKQxKQ)"/><path fill="none" stroke="grey" paint-order="fill" d="M 308.53826904296875 127.04234313964844 L 332.46173095703125 109.55982971191406 L 356.3851623535156 123.15734100341797 L 380.3086242675781 107.61732482910156 L 404.2320556640625 148.4098663330078 L 428.155517578125 158.12237548828125 L 452.0789489746094 94.01981353759766 L 476.00238037109375 158.12237548828125 L 499.92584228515625 146.4673614501953 L 523.8493041992188 88.19230651855469 L 547.772705078125 92.07730865478516" stroke-linejoin="bevel" stroke-miterlimit="10" stroke-width="0.5" clip-path="url(#zqEzqPPHItTq)"/><path fill="none" stroke="black" paint-order="fill" d="M 70.5 280.5 L 570.5 280.5" stroke-linejoin="bevel" stroke-miterlimit="10"/><path fill="none" stroke="black" paint-order="fill" d="M 93.5 286.5 L 93.5 278.5 M 212.5 286.5 L 212.5 278.5 M 332.5 286.5 L 332.5 278.5 M 452.5 286.5 L 452.5 278.5" stroke-linejoin="bevel" stroke-miterlimit="10"/><path fill="none" stroke="black" paint-order="fill" d="M 93.5 284.5 L 93.5 280.5 M 117.5 284.5 L 117.5 280.5 M 141.5 284.5 L 141.5 280.5 M 164.5 284.5 L 164.5 280.5 M 188.5 284.5 L 188.5 280.5 M 212.5 284.5 L 212.5 280.5 M 236.5 284.5 L 236.5 280.5 M 260.5 284.5 L 260.5 280.5 M 284.5 284.5 L 284.5 280.5 M 308.5 284.5 L 308.5 280.5 M 332.5 284.5 L 332.5 280.5 M 356.5 284.5 L 356.5 280.5 M 380.5 284.5 L 380.5 280.5 M 404.5 284.5 L 404.5 280.5 M 428.5 284.5 L 428.5 280.5 M 452.5 284.5 L 452.5 280.5 M 476.5 284.5 L 476.5 280.5 M 499.5 284.5 L 499.5 280.5 M 523.5 284.5 L 523.5 280.5 M 547.5 284.5 L 547.5 280.5" stroke-linejoin="bevel" stroke-miterlimit="10"/><text fill="#444444" stroke="none" font-family="helvetica" font-size="10pt" font-style="normal" font-weight="normal" text-decoration="normal" x="77.82727241516113" y="300.59368896484375" text-anchor="start" dominant-baseline="alphabetic" transform="matrix(1, 0, 0, 1, 0.5, 0.5)">2025</text><text fill="none" stroke="rgb(0,0,0)" font-family="helvetica" font-size="10pt" font-style="normal" font-weight="normal" text-decoration="normal" x="77.82727241516113" y="300.59368896484375" text-anchor="start" dominant-baseline="alphabetic" transform="matrix(1, 0, 0, 1, 0.5, 0.5)" stroke-opacity="0" stroke-linejoin="bevel" stroke-miterlimit="10">2025</text><text fill="#444444" stroke="none" font-family="helvetica" font-size="10pt" font-style="normal" font-weight="normal" text-decoration="normal" x="197.4444980621338" y="300.59368896484375" text-anchor="start" dominant-baseline="alphabetic" transform="matrix(1, 0, 0, 1, 0.5, 0.5)">2030</text><text fill="none" stroke="rgb(0,0,0)" font-family="helvetica" font-size="10pt" font-style="normal" font-weight="normal" text-decoration="normal" x="197.4444980621338" y="300.59368896484375" text-anchor="start" dominant-baseline="alphabetic" transform="matrix(1, 0, 0, 1, 0.5, 0.5)" stroke-opacity="0" stroke-linejoin="bevel" stroke-miterlimit="10">2030</text><text fill="#444444" stroke="none" font-family="helvetica" font-size="10pt" font-style="normal" font-weight="normal" text-decoration="normal" x="317.061731338501" y="300.59368896484375" text-anchor="start" dominant-baseline="alphabetic" transform="matrix(1, 0, 0, 1, 0.5, 0.5)">2035</text><text fill="none" stroke="rgb(0,0,0)" font-family="helvetica" font-size="10pt" font-style="normal" font-weight="normal" text-decoration="normal" x="317.061731338501" y="300.59368896484375" text-anchor="start" dominant-baseline="alphabetic" transform="matrix(1, 0, 0, 1, 0.5, 0.5)" stroke-opacity="0" stroke-linejoin="bevel" stroke-miterlimit="10">2035</text><text fill="#444444" stroke="none" font-family="helvetica" font-size="10pt" font-style="normal" font-weight="normal" text-decoration="normal" x="436.6789493560791" y="300.59368896484375" text-anchor="start" dominant-baseline="alphabetic" transform="matrix(1, 0, 0, 1, 0.5, 0.5)">2040</text><text fill="none" stroke="rgb(0,0,0)" font-family="helvetica" font-size="10pt" font-style="normal" font-weight="normal" text-decoration="normal" x="436.6789493560791" y="300.59368896484375" text-anchor="start" dominant-baseline="alphabetic" transform="matrix(1, 0, 0, 1, 0.5, 0.5)" stroke-opacity="0" stroke-linejoin="bevel" stroke-miterlimit="10">2040</text><text fill="#444444" stroke="none" font-family="helvetica" font-size="12pt" font-style="normal" font-weight="normal" text-decoration="normal" x="303.8333339691162" y="321.59368896484375" text-anchor="start" dominant-baseline="alphabetic" transform="matrix(1, 0, 0, 1, 0.5, 0.5)">Year</text><text fill="none" stroke="rgb(0,0,0)" font-family="helvetica" font-size="12pt" font-style="normal" font-weight="normal" text-decoration="normal" x="303.8333339691162" y="321.59368896484375" text-anchor="start" dominant-baseline="alphabetic" transform="matrix(1, 0, 0, 1, 0.5, 0.5)" stroke-opacity="0" stroke-linejoin="bevel" stroke-miterlimit="10">Year</text><path fill="none" stroke="black" paint-order="fill" d="M 70.5 280.5 L 70.5 30.5" stroke-linejoin="bevel" stroke-miterlimit="10"/><path fill="none" stroke="black" paint-order="fill" d="M 64.5 280.5 L 72.5 280.5 M 64.5 241.5 L 72.5 241.5 M 64.5 202.5 L 72.5 202.5 M 64.5 163.5 L 72.5 163.5 M 64.5 125.5 L 72.5 125.5 M 64.5 86.5 L 72.5 86.5 M 64.5 47.5 L 72.5 47.5" stroke-linejoin="bevel" stroke-miterlimit="10"/><path fill="none" stroke="black" paint-order="fill" d="M 66.5 280.5 L 70.5 280.5 M 66.5 272.5 L 70.5 272.5 M 66.5 264.5 L 70.5 264.5 M 66.5 257.5 L 70.5 257.5 M 66.5 249.5 L 70.5 249.5 M 66.5 241.5 L 70.5 241.5 M 66.5 233.5 L 70.5 233.5 M 66.5 226.5 L 70.5 226.5 M 66.5 218.5 L 70.5 218.5 M 66.5 210.5 L 70.5 210.5 M 66.5 202.5 L 70.5 202.5 M 66.5 195.5 L 70.5 195.5 M 66.5 187.5 L 70.5 187.5 M 66.5 179.5 L 70.5 179.5 M 66.5 171.5 L 70.5 171.5 M 66.5 163.5 L 70.5 163.5 M 66.5 156.5 L 70.5 156.5 M 66.5 148.5 L 70.5 148.5 M 66.5 140.5 L 70.5 140.5 M 66.5 132.5 L 70.5 132.5 M 66.5 125.5 L 70.5 125.5 M 66.5 117.5 L 70.5 117.5 M 66.5 109.5 L 70.5 109.5 M 66.5 101.5 L 70.5 101.5 M 66.5 94.5 L 70.5 94.5 M 66.5 86.5 L 70.5 86.5 M 66.5 78.5 L 70.5 78.5 M 66.5 70.5 L 70.5 70.5 M 66.5 62.5 L 70.5 62.5 M 66.5 55.5 L 70.5 55.5 M 66.5 47.5 L 70.5 47.5 M 66.5 39.5 L 70.5 39.5 M 66.5 31.5 L 70.5 31.5" stroke-linejoin="bevel" stroke-miterlimit="10"/><text fill="#444444" stroke="none" font-family="helvetica" font-size="10pt" font-style="normal" font-weight="normal" text-decoration="normal" x="51.55000019073486" y="284.7968444824219" text-anchor="start" dominant-baseline="alphabetic" transform="matrix(1, 0, 0, 1, 0.5, 0.5)">0</text><text fill="none" stroke="rgb(0,0,0)" font-family="helvetica" font-size="10pt" font-style="normal" font-weight="normal" text-decoration="normal" x="51.55000019073486" y="284.7968444824219" text-anchor="start" dominant-baseline="alphabetic" transform="matrix(1, 0, 0, 1, 0.5, 0.5)" stroke-opacity="0" stroke-linejoin="bevel" stroke-miterlimit="10">0</text><text fill="#444444" stroke="none" font-family="helvetica" font-size="10pt" font-style="normal" font-weight="normal" text-decoration="normal" x="44.10000038146973" y="245.94680786132812" text-anchor="start" dominant-baseline="alphabetic" transform="matrix(1, 0, 0, 1, 0.5, 0.5)">20</text><text fill="none" stroke="rgb(0,0,0)" font-family="helvetica" font-size="10pt" font-style="normal" font-weight="normal" text-decoration="normal" x="44.10000038146973" y="245.94680786132812" text-anchor="start" dominant-baseline="alphabetic" transform="matrix(1, 0, 0, 1, 0.5, 0.5)" stroke-opacity="0" stroke-linejoin="bevel" stroke-miterlimit="10">20</text><text fill="#444444" stroke="none" font-family="helvetica" font-size="10pt" font-style="normal" font-weight="normal" text-decoration="normal" x="44.10000038146973" y="207.09677124023438" text-anchor="start" dominant-baseline="alphabetic" transform="matrix(1, 0, 0, 1, 0.5, 0.5)">40</text><text fill="none" stroke="rgb(0,0,0)" font-family="helvetica" font-size="10pt" font-style="normal" font-weight="normal" text-decoration="normal" x="44.10000038146973" y="207.09677124023438" text-anchor="start" dominant-baseline="alphabetic" transform="matrix(1, 0, 0, 1, 0.5, 0.5)" stroke-opacity="0" stroke-linejoin="bevel" stroke-miterlimit="10">40</text><text fill="#444444" stroke="none" font-family="helvetica" font-size="10pt" font-style="normal" font-weight="normal" text-decoration="normal" x="44.10000038146973" y="168.24673461914062" text-anchor="start" dominant-baseline="alphabetic" transform="matrix(1, 0, 0, 1, 0.5, 0.5)">60</text><text fill="none" stroke="rgb(0,0,0)" font-family="helvetica" font-size="10pt" font-style="normal" font-weight="normal" text-decoration="normal" x="44.10000038146973" y="168.24673461914062" text-anchor="start" dominant-baseline="alphabetic" transform="matrix(1, 0, 0, 1, 0.5, 0.5)" stroke-opacity="0" stroke-linejoin="bevel" stroke-miterlimit="10">60</text><text fill="#444444" stroke="none" font-family="helvetica" font-size="10pt" font-style="normal" font-weight="normal" text-decoration="normal" x="44.10000038146973" y="129.39669036865234" text-anchor="start" dominant-baseline="alphabetic" transform="matrix(1, 0, 0, 1, 0.5, 0.5)">80</text><text fill="none" stroke="rgb(0,0,0)" font-family="helvetica" font-size="10pt" font-style="normal" font-weight="normal" text-decoration="normal" x="44.10000038146973" y="129.39669036865234" text-anchor="start" dominant-baseline="alphabetic" transform="matrix(1, 0, 0, 1, 0.5, 0.5)" stroke-opacity="0" stroke-linejoin="bevel" stroke-miterlimit="10">80</text><text fill="#444444" stroke="none" font-family="helvetica" font-size="10pt" font-style="normal" font-weight="normal" text-decoration="normal" x="36.64999961853027" y="90.5466537475586" text-anchor="start" dominant-baseline="alphabetic" transform="matrix(1, 0, 0, 1, 0.5, 0.5)">100</text><text fill="none" stroke="rgb(0,0,0)" font-family="helvetica" font-size="10pt" font-style="normal" font-weight="normal" text-decoration="normal" x="36.64999961853027" y="90.5466537475586" text-anchor="start" dominant-baseline="alphabetic" transform="matrix(1, 0, 0, 1, 0.5, 0.5)" stroke-opacity="0" stroke-linejoin="bevel" stroke-miterlimit="10">100</text><text fill="#444444" stroke="none" font-family="helvetica" font-size="10pt" font-style="normal" font-weight="normal" text-decoration="normal" x="36.64999961853027" y="51.69660949707031" text-anchor="start" dominant-baseline="alphabetic" transform="matrix(1, 0, 0, 1, 0.5, 0.5)">120</text><text fill="none" stroke="rgb(0,0,0)" font-family="helvetica" font-size="10pt" font-style="normal" font-weight="normal" text-decoration="normal" x="36.64999961853027" y="51.69660949707031" text-anchor="start" dominant-baseline="alphabetic" transform="matrix(1, 0, 0, 1, 0.5, 0.5)" stroke-opacity="0" stroke-linejoin="bevel" stroke-miterlimit="10">120</text><text fill="#444444" stroke="none" font-family="helvetica" font-size="12pt" font-style="normal" font-weight="normal" text-decoration="normal" x="-78.07499885559082" y="151" text-anchor="start" dominant-baseline="alphabetic" transform="matrix(6.123233995736766e-17, -1, 1, 6.123233995736766e-17, -125.85000038146973, 184.14999961853027)">Days suitable for transmission</text><text fill="none" stroke="rgb(0,0,0)" font-family="helvetica" font-size="12pt" font-style="normal" font-weight="normal" text-decoration="normal" x="-78.07499885559082" y="151" text-anchor="start" dominant-baseline="alphabetic" transform="matrix(6.123233995736766e-17, -1, 1, 6.123233995736766e-17, -125.85000038146973, 184.14999961853027)" stroke-opacity="0" stroke-linejoin="bevel" stroke-miterlimit="10">Days suitable for transmission</text><path fill="rgb(255,255,255)" stroke="rgb(229,229,229)" paint-order="fill" d="M 475.183349609375 205.5 L 560.5000152587891 205.5 L 560.5000152587891 270.5 L 475.183349609375 270.5 L 475.183349609375 205.5 Z" fill-opacity="0.9490196078431372" clip-path="url(#OuBnxDyEKbRp)" stroke-opacity="0.5019607843137255" stroke-linejoin="bevel" stroke-miterlimit="10"/><g clip-path="url(#OuBnxDyEKbRp)"><g transform="matrix(1, 0, 0, 1, 485.683349609375, 216)"><path fill="none" stroke="#30a2da" paint-order="fill" d="M 0.5 10.5 L 20.5 10.5" stroke-linejoin="bevel" stroke-miterlimit="10" stroke-width="2"/></g></g><g clip-path="url(#OuBnxDyEKbRp)"><text fill="#444444" stroke="none" font-family="helvetica" font-size="13px" font-style="normal" font-weight="normal" text-decoration="normal" x="510.683349609375" y="230" text-anchor="start" dominant-baseline="alphabetic" transform="matrix(1, 0, 0, 1, 0.5, 0.5)">ID 001</text></g><g clip-path="url(#OuBnxDyEKbRp)"><text fill="none" stroke="rgb(0,0,0)" font-family="helvetica" font-size="13px" font-style="normal" font-weight="normal" text-decoration="normal" x="510.683349609375" y="230" text-anchor="start" dominant-baseline="alphabetic" transform="matrix(1, 0, 0, 1, 0.5, 0.5)" stroke-opacity="0" stroke-linejoin="bevel" stroke-miterlimit="10">ID 001</text></g><g clip-path="url(#OuBnxDyEKbRp)"><g transform="matrix(1, 0, 0, 1, 485.683349609375, 239)"><path fill="none" stroke="#fc4f30" paint-order="fill" d="M 0.5 10.5 L 20.5 10.5" stroke-linejoin="bevel" stroke-miterlimit="10" stroke-width="2"/></g></g><g clip-path="url(#OuBnxDyEKbRp)"><text fill="#444444" stroke="none" font-family="helvetica" font-size="13px" font-style="normal" font-weight="normal" text-decoration="normal" x="510.683349609375" y="253" text-anchor="start" dominant-baseline="alphabetic" transform="matrix(1, 0, 0, 1, 0.5, 0.5)">ID 006</text></g><g clip-path="url(#OuBnxDyEKbRp)"><text fill="none" stroke="rgb(0,0,0)" font-family="helvetica" font-size="13px" font-style="normal" font-weight="normal" text-decoration="normal" x="510.683349609375" y="253" text-anchor="start" dominant-baseline="alphabetic" transform="matrix(1, 0, 0, 1, 0.5, 0.5)" stroke-opacity="0" stroke-linejoin="bevel" stroke-miterlimit="10">ID 006</text></g><text fill="black" stroke="none" font-family="helvetica" font-size="14pt" font-style="normal" font-weight="normal" text-decoration="normal" x="0" y="15" text-anchor="start" dominant-baseline="alphabetic" transform="matrix(1, 0, 0, 1, 5.5, 5.5)">A. Paris</text><text fill="none" stroke="rgb(0,0,0)" font-family="helvetica" font-size="14pt" font-style="normal" font-weight="normal" text-decoration="normal" x="0" y="15" text-anchor="start" dominant-baseline="alphabetic" transform="matrix(1, 0, 0, 1, 5.5, 5.5)" stroke-opacity="0" stroke-linejoin="bevel" stroke-miterlimit="10">A. Paris</text></svg>