<svg version="1.1" xmlns="http://www.w3.org/2000/svg" width="600" height="334"><defs><clipPath id="zzocZVybTHrF"><path fill="none" stroke="none" d="M 70.5 33.5 L 570.5 33.5 L 570.5 283.5 L 70.5 283.5 L 70.5 33.5 Z"/></clipPath><clipPath id="XWLXORHIrfht"><path fill="none" stroke="none" d="M 70.5 33.5 L 570.5 33.5 L 570.5 283.5 L 70.5 283.5 L 70.5 33.5 Z"/></clipPath><clipPath id="KImVaZxGTisp"><path fill="none" stroke="none" d="M 70.5 33.5 L 570.5 33.5 L 570.5 283.5 L 70.5 283.5 L 70.5 33.5 Z"/></clipPath><clipPath id="rGfTXpmuWvpD"><path fill="none" stroke="none" d="M 70.5 33.5 L 570.5 33.5 L 570.5 283.5 L 70.5 283.5 L 70.5 33.5 Z"/></clipPath><clipPath id="BsAwZXkPSUOg"><path fill="none" stroke="none" d="M 70.5 33.5 L 570.5 33.5 L 570.5 283.5 L 70.5 283.5 L 70.5 33.5 Z"/></clipPath><clipPath id="zwWtxvNavMmC"><path fill="none" stroke="none" d="M 70.5 33.5 L 570.5 33.5 L 570.5 283.5 L 70.5 283.5 L 70.5 33.5 Z"/></clipPath><clipPath id="XRLbCdkOgIQo"><path fill="none" stroke="none" d="M 70.5 33.5 L 570.5 33.5 L 570.5 283.5 L 70.5 283.5 L 70.5 33.5 Z"/></clipPath><clipPath id="RKiaBonJKifr"><path fill="none" stroke="none" d="M 70.5 33.5 L 570.5 33.5 L 570.5 283.5 L 70.5 283.5 L 70.5 33.5 Z"/></clipPath><clipPath id="KiEmOMipTvTd"><path fill="none" stroke="none" d="M 70.5 33.5 L 570.5 33.5 L 570.5 283.5 L 70.5 283.5 L 70.5 33.5 Z"/></clipPath><clipPath id="MrMFlXoJqaaD"><path fill="none" stroke="none" d="M 70.5 33.5 L 570.5 33.5 L 570.5 283.5 L 70.5 283.5 L 70.5 33.5 Z"/></clipPath><clipPath id="hyvCNMuaLDSZ"><path fill="none" stroke="none" d="M 70.5 33.5 L 570.5 33.5 L 570.5 283.5 L 70.5 283.5 L 70.5 33.5 Z"/></clipPath><clipPath id="bmQPsroMvtxL"><path fill="none" stroke="none" d="M 70.5 33.5 L 570.5 33.5 L 570.5 283.5 L 70.5 283.5 L 70.5 33.5 Z"/></clipPath><clipPath id="DDBtCkCgCfVv"><path fill="none" stroke="none" d="M 70.5 33.5 L 570.5 33.5 L 570.5 283.5 L 70.5 283.5 L 70.5 33.5 Z"/></clipPath><clipPath id="xzQtGIsoxUnd"><path fill="none" stroke="none" d="M 70.5 33.5 L 570.5 33.5 L 570.5 283.5 L 70.5 283.5 L 70.5 33.5 Z"/></clipPath><clipPath id="RHlZOIizJlUw"><path fill="none" stroke="none" d="M 70.5 33.5 L 570.5 33.5 L 570.5 283.5 L 70.5 283.5 L 70.5 33.5 Z"/></clipPath><clipPath id="IbBICQiQNadG"><path fill="none" stroke="none" d="M 70.5 33.5 L 570.5 33.5 L 570.5 283.5 L 70.5 283.5 L 70.5 33.5 Z"/></clipPath><clipPath id="ixqMTiLNdAkB"><path fill="none" stroke="none" d="M 70.5 33.5 L 570.5 33.5 L 570.5 283.5 L 70.5 283.5 L 70.5 33.5 Z"/></clipPath><clipPath id="pBmfMSyRTAtg"><path fill="none" stroke="none" d="M 70.5 33.5 L 570.5 33.5 L 570.5 283.5 L 70.5 283.5 L 70.5 33.5 Z"/></clipPath><clipPath id="THQvIdSHZprZ"><path fill="none" stroke="none" d="M 70.5 33.5 L 570.5 33.5 L 570.5 283.5 L 70.5 283.5 L 70.5 33.5 Z"/></clipPath><clipPath id="mPJLIFgsAyMt"><path fill="none" stroke="none" d="M 70.5 33.5 L 570.5 33.5 L 570.5 283.5 L 70.5 283.5 L 70.5 33.5 Z"/></clipPath><clipPath id="FdeOUKubyJFt"><path fill="none" stroke="none" d="M 70.5 33.5 L 570.5 33.5 L 570.5 283.5 L 70.5 283.5 L 70.5 33.5 Z"/></clipPath><clipPath id="fKBLIqUpCezn"><path fill="none" stroke="none" d="M 70.5 33.5 L 570.5 33.5 L 570.5 283.5 L 70.5 283.5 L 70.5 33.5 Z"/></clipPath><clipPath id="vmzJJlSpizTH"><path fill="none" stroke="none" d="M 70.5 33.5 L 570.5 33.5 L 570.5 283.5 L 70.5 283.5 L 70.5 33.5 Z"/></clipPath></defs><path fill="none" stroke="#e5e5e5" paint-order="fill" d="M 70.5 33.5 L 570.5 33.5 L 570.5 283.5 L 70.5 283.5 L 70.5 33.5 Z" stroke-linejoin="bevel" stroke-miterlimit="10"/><path fill="none" stroke="black" paint-order="fill" d="M 332.46172248803487 33.5 L 332.46172248803487 283.5" stroke-linejoin="bevel" stroke-miterlimit="10" stroke-width="3" stroke-dasharray="6" clip-path="url(#KImVaZxGTisp)"/><path fill="none" stroke="#9467bd" paint-order="fill" d="M 93.2272720336914 71.46713256835938 L 117.15071868896484 80.74357604980469 L 141.07415771484375 79.41836547851562 L 164.9976043701172 86.04439544677734 L 188.92105102539062 73.45494079589844 L 212.84449768066406 78.0931625366211 L 236.7679443359375 71.46713256835938 L 260.6913757324219 84.05658721923828 L 284.6148376464844 65.50370788574219 L 308.53826904296875 64.17850494384766" stroke-linejoin="bevel" stroke-miterlimit="10" stroke-width="2" clip-path="url(#rGfTXpmuWvpD)"/><path fill="none" stroke="#9467bd" paint-order="fill" d="M 93.2272720336914 71.46713256835938 L 117.15071868896484 80.74357604980469 L 141.07415771484375 79.41836547851562 L 164.9976043701172 86.04439544677734 L 188.92105102539062 73.45494079589844 L 212.84449768066406 78.0931625366211 L 236.7679443359375 71.46713256835938 L 260.6913757324219 84.05658721923828 L 284.6148376464844 65.50370788574219 L 308.53826904296875 64.17850494384766" stroke-linejoin="bevel" stroke-miterlimit="10" stroke-width="2" stroke-dasharray="6" clip-path="url(#BsAwZXkPSUOg)"/><path fill="none" stroke="#30a2da" paint-order="fill" d="M 308.53826904296875 64.17850494384766 L 332.46173095703125 66.82891845703125 L 356.3851623535156 86.70700073242188 L 380.3086242675781 68.81672668457031 L 404.2320556640625 84.05658721923828 L 428.155517578125 86.70700073242188 L 452.0789489746094 80.08097076416016 L 476.00238037109375 84.05658721923828 L 499.92584228515625 78.75576782226562 L 523.8493041992188 73.45494079589844 L 547.772705078125 85.38179016113281" stroke-linejoin="bevel" stroke-miterlimit="10" stroke-width="2" clip-path="url(#zwWtxvNavMmC)"/><path fill="none" stroke="#30a2da" paint-order="fill" d="M 332.46173095703125 76.28606414794922 L 356.3851623535156 76.99685668945312 L 380.3086242675781 77.70764923095703 L 404.2320556640625 78.41844177246094 L 428.155517578125 79.12923431396484 L 452.0789489746094 79.84002685546875 L 476.00238037109375 80.55081939697266 L 499.92584228515625 81.26160430908203 L 523.8493041992188 81.97239685058594 L 547.772705078125 82.68318939208984" stroke-linejoin="bevel" stroke-miterlimit="10" stroke-width="2" stroke-dasharray="6" clip-path="url(#XRLbCdkOgIQo)"/><path fill="none" stroke="#fc4f30" paint-order="fill" d="M 308.53826904296875 64.17850494384766 L 332.46173095703125 80.08097076416016 L 356.3851623535156 95.32083129882812 L 380.3086242675781 96.64603424072266 L 404.2320556640625 84.05658721923828 L 428.155517578125 85.38179016113281 L 452.0789489746094 76.10535430908203 L 476.00238037109375 84.71919250488281 L 499.92584228515625 92.00782012939453 L 523.8493041992188 84.71919250488281 L 547.772705078125 78.75576782226562" stroke-linejoin="bevel" stroke-miterlimit="10" stroke-width="2" clip-path="url(#RKiaBonJKifr)"/><path fill="none" stroke="#fc4f30" paint-order="fill" d="M 332.46173095703125 88.95984649658203 L 356.3851623535156 88.25306701660156 L 380.3086242675781 87.54629516601562 L 404.2320556640625 86.83951568603516 L 428.155517578125 86.13274383544922 L 452.0789489746094 85.42596435546875 L 476.00238037109375 84.71919250488281 L 499.92584228515625 84.01241302490234 L 523.8493041992188 83.30563354492188 L 547.772705078125 82.59886169433594" stroke-linejoin="bevel" stroke-miterlimit="10" stroke-width="2" stroke-dasharray="6" clip-path="url(#KiEmOMipTvTd)"/><path fill="none" stroke="rgb(128,128,128)" paint-order="fill" d="M 93.2272720336914 76.76795959472656 L 117.15071868896484 67.49151611328125 L 141.07415771484375 78.75576782226562 L 164.9976043701172 70.80453491210938 L 188.92105102539062 81.40617370605469 L 212.84449768066406 83.39398193359375 L 236.7679443359375 78.0931625366211 L 260.6913757324219 82.73138427734375 L 284.6148376464844 75.4427490234375 L 308.53826904296875 78.75576782226562" stroke-opacity="0.7490196078431373" stroke-linejoin="bevel" stroke-miterlimit="10" clip-path="url(#MrMFlXoJqaaD)"/><path fill="none" stroke="grey" paint-order="fill" d="M 308.53826904296875 78.75576782226562 L 332.46173095703125 80.08097076416016 L 356.3851623535156 85.38179016113281 L 380.3086242675781 80.08097076416016 L 404.2320556640625 83.39398193359375 L 428.155517578125 88.69480895996094 L 452.0789489746094 75.4427490234375 L 476.00238037109375 72.79234313964844 L 499.92584228515625 82.73138427734375 L 523.8493041992188 74.11754608154297 L 547.772705078125 86.04439544677734" stroke-linejoin="bevel" stroke-miterlimit="10" stroke-width="0.5" clip-path="url(#hyvCNMuaLDSZ)"/><path fill="none" stroke="grey" paint-order="fill" d="M 308.53826904296875 78.75576782226562 L 332.46173095703125 70.80453491210938 L 356.3851623535156 87.36959838867188 L 380.3086242675781 80.08097076416016 L 404.2320556640625 86.70700073242188 L 428.155517578125 80.74357604980469 L 452.0789489746094 82.73138427734375 L 476.00238037109375 82.06877899169922 L 499.92584228515625 66.82891845703125 L 523.8493041992188 87.36959838867188 L 547.772705078125 89.35740661621094" stroke-linejoin="bevel" stroke-miterlimit="10" stroke-width="0.5" clip-path="url(#bmQPsroMvtxL)"/><path fill="none" stroke="rgb(128,128,128)" paint-order="fill" d="M 93.2272720336914 72.1297378540039 L 117.15071868896484 76.10535430908203 L 141.07415771484375 78.0931625366211 L 164.9976043701172 89.35740661621094 L 188.92105102539062 76.10535430908203 L 212.84449768066406 80.08097076416016 L 236.7679443359375 78.75576782226562 L 260.6913757324219 74.7801513671875 L 284.6148376464844 90.68260955810547 L 308.53826904296875 80.08097076416016" stroke-opacity="0.7490196078431373" stroke-linejoin="bevel" stroke-miterlimit="10" clip-path="url(#DDBtCkCgCfVv)"/><path fill="none" stroke="grey" paint-order="fill" d="M 308.53826904296875 80.08097076416016 L 332.46173095703125 70.14192962646484 L 356.3851623535156 75.4427490234375 L 380.3086242675781 77.43055725097656 L 404.2320556640625 92.00782012939453 L 428.155517578125 66.82891845703125 L 452.0789489746094 86.04439544677734 L 476.00238037109375 93.9956283569336 L 499.92584228515625 80.08097076416016 L 523.8493041992188 86.70700073242188 L 547.772705078125 80.08097076416016" stroke-linejoin="bevel" stroke-miterlimit="10" stroke-width="0.5" clip-path="url(#xzQtGIsoxUnd)"/><path fill="none" stroke="grey" paint-order="fill" d="M 308.53826904296875 80.08097076416016 L 332.46173095703125 69.47932434082031 L 356.3851623535156 74.11754608154297 L 380.3086242675781 72.1297378540039 L 404.2320556640625 66.16631317138672 L 428.155517578125 80.74357604980469 L 452.0789489746094 76.76795959472656 L 476.00238037109375 82.06877899169922 L 499.92584228515625 83.39398193359375 L 523.8493041992188 72.79234313964844 L 547.772705078125 85.38179016113281" stroke-linejoin="bevel" stroke-miterlimit="10" stroke-width="0.5" clip-path="url(#RHlZOIizJlUw)"/><path fill="none" stroke="rgb(128,128,128)" paint-order="fill" d="M 93.2272720336914 85.38179016113281 L 117.15071868896484 74.7801513671875 L 141.07415771484375 78.0931625366211 L 164.9976043701172 93.33302307128906 L 188.92105102539062 84.05658721923828 L 212.84449768066406 84.71919250488281 L 236.7679443359375 89.35740661621094 L 260.6913757324219 76.10535430908203 L 284.6148376464844 82.06877899169922 L 308.53826904296875 77.43055725097656" stroke-opacity="0.7490196078431373" stroke-linejoin="bevel" stroke-miterlimit="10" clip-path="url(#IbBICQiQNadG)"/><path fill="none" stroke="grey" paint-order="fill" d="M 308.53826904296875 77.43055725097656 L 332.46173095703125 78.75576782226562 L 356.3851623535156 57.5524787902832 L 380.3086242675781 82.73138427734375 L 404.2320556640625 70.80453491210938 L 428.155517578125 88.69480895996094 L 452.0789489746094 76.10535430908203 L 476.00238037109375 76.76795959472656 L 499.92584228515625 80.74357604980469 L 523.8493041992188 100.62165069580078 L 547.772705078125 62.85329818725586" stroke-linejoin="bevel" stroke-miterlimit="10" stroke-width="0.5" clip-path="url(#ixqMTiLNdAkB)"/><path fill="none" stroke="grey" paint-order="fill" d="M 308.53826904296875 77.43055725097656 L 332.46173095703125 74.7801513671875 L 356.3851623535156 64.17850494384766 L 380.3086242675781 95.32083129882812 L 404.2320556640625 95.98343658447266 L 428.155517578125 79.41836547851562 L 452.0789489746094 77.43055725097656 L 476.00238037109375 80.74357604980469 L 499.92584228515625 84.71919250488281 L 523.8493041992188 70.80453491210938 L 547.772705078125 76.76795959472656" stroke-linejoin="bevel" stroke-miterlimit="10" stroke-width="0.5" clip-path="url(#pBmfMSyRTAtg)"/><path fill="none" stroke="rgb(128,128,128)" paint-order="fill" d="M 93.2272720336914 75.4427490234375 L 117.15071868896484 73.45494079589844 L 141.07415771484375 76.76795959472656 L 164.9976043701172 72.1297378540039 L 188.92105102539062 88.0322036743164 L 212.84449768066406 69.47932434082031 L 236.7679443359375 76.10535430908203 L 260.6913757324219 85.38179016113281 L 284.6148376464844 90.68260955810547 L 308.53826904296875 80.74357604980469" stroke-opacity="0.7490196078431373" stroke-linejoin="bevel" stroke-miterlimit="10" clip-path="url(#THQvIdSHZprZ)"/><path fill="none" stroke="grey" paint-order="fill" d="M 308.53826904296875 80.74357604980469 L 332.46173095703125 64.84111022949219 L 356.3851623535156 99.29644775390625 L 380.3086242675781 67.49151611328125 L 404.2320556640625 56.227272033691406 L 428.155517578125 74.11754608154297 L 452.0789489746094 74.11754608154297 L 476.00238037109375 73.45494079589844 L 499.92584228515625 81.40617370605469 L 523.8493041992188 93.33302307128906 L 547.772705078125 68.15412139892578" stroke-linejoin="bevel" stroke-miterlimit="10" stroke-width="0.5" clip-path="url(#mPJLIFgsAyMt)"/><path fill="none" stroke="grey" paint-order="fill" d="M 308.53826904296875 80.74357604980469 L 332.46173095703125 71.46713256835938 L 356.3851623535156 83.39398193359375 L 380.3086242675781 83.39398193359375 L 404.2320556640625 69.47932434082031 L 428.155517578125 88.0322036743164 L 452.0789489746094 78.0931625366211 L 476.00238037109375 62.190696716308594 L 499.92584228515625 80.08097076416016 L 523.8493041992188 75.4427490234375 L 547.772705078125 91.34521484375" stroke-linejoin="bevel" stroke-miterlimit="10" stroke-width="0.5" clip-path="url(#FdeOUKubyJFt)"/><path fill="none" stroke="black" paint-order="fill" d="M 70.5 283.5 L 570.5 283.5" stroke-linejoin="bevel" stroke-miterlimit="10"/><path fill="none" stroke="black" paint-order="fill" d="M 93.5 289.5 L 93.5 281.5 M 212.5 289.5 L 212.5 281.5 M 332.5 289.5 L 332.5 281.5 M 452.5 289.5 L 452.5 281.5" stroke-linejoin="bevel" stroke-miterlimit="10"/><path fill="none" stroke="black" paint-order="fill" d="M 93.5 287.5 L 93.5 283.5 M 117.5 287.5 L 117.5 283.5 M 141.5 287.5 L 141.5 283.5 M 164.5 287.5 L 164.5 283.5 M 188.5 287.5 L 188.5 283.5 M 212.5 287.5 L 212.5 283.5 M 236.5 287.5 L 236.5 283.5 M 260.5 287.5 L 260.5 283.5 M 284.5 287.5 L 284.5 283.5 M 308.5 287.5 L 308.5 283.5 M 332.5 287.5 L 332.5 283.5 M 356.5 287.5 L 356.5 283.5 M 380.5 287.5 L 380.5 283.5 M 404.5 287.5 L 404.5 283.5 M 428.5 287.5 L 428.5 283.5 M 452.5 287.5 L 452.5 283.5 M 476.5 287.5 L 476.5 283.5 M 499.5 287.5 L 499.5 283.5 M 523.5 287.5 L 523.5 283.5 M 547.5 287.5 L 547.5 283.5" stroke-linejoin="bevel" stroke-miterlimit="10"/><text fill="#444444" stroke="none" font-family="helvetica" font-size="10pt" font-style="normal" font-weight="normal" text-decoration="normal" x="79.36060523986816" y="304" text-anchor="start" dominant-baseline="alphabetic" transform="matrix(1, 0, 0, 1, 0.5, 0.5)">2025</text><text fill="none" stroke="rgb(0,0,0)" font-family="helvetica" font-size="10pt" font-style="normal" font-weight="normal" text-decoration="normal" x="79.36060523986816" y="304" text-anchor="start" dominant-baseline="alphabetic" transform="matrix(1, 0, 0, 1, 0.5, 0.5)" stroke-opacity="0" stroke-linejoin="bevel" stroke-miterlimit="10">2025</text><text fill="#444444" stroke="none" font-family="helvetica" font-size="10pt" font-style="normal" font-weight="normal" text-decoration="normal" x="198.97783088684082" y="304" text-anchor="start" dominant-baseline="alphabetic" transform="matrix(1, 0, 0, 1, 0.5, 0.5)">2030</text><text fill="none" stroke="rgb(0,0,0)" font-family="helvetica" font-size="10pt" font-style="normal" font-weight="normal" text-decoration="normal" x="198.97783088684082" y="304" text-anchor="start" dominant-baseline="alphabetic" transform="matrix(1, 0, 0, 1, 0.5, 0.5)" stroke-opacity="0" stroke-linejoin="bevel" stroke-miterlimit="10">2030</text><text fill="#444444" stroke="none" font-family="helvetica" font-size="10pt" font-style="normal" font-weight="normal" text-decoration="normal" x="318.595064163208" y="304" text-anchor="start" dominant-baseline="alphabetic" transform="matrix(1, 0, 0, 1, 0.5, 0.5)">2035</text><text fill="none" stroke="rgb(0,0,0)" font-family="helvetica" font-size="10pt" font-style="normal" font-weight="normal" text-decoration="normal" x="318.595064163208" y="304" text-anchor="start" dominant-baseline="alphabetic" transform="matrix(1, 0, 0, 1, 0.5, 0.5)" stroke-opacity="0" stroke-linejoin="bevel" stroke-miterlimit="10">2035</text><text fill="#444444" stroke="none" font-family="helvetica" font-size="10pt" font-style="normal" font-weight="normal" text-decoration="normal" x="438.21228218078613" y="304" text-anchor="start" dominant-baseline="alphabetic" transform="matrix(1, 0, 0, 1, 0.5, 0.5)">2040</text><text fill="none" stroke="rgb(0,0,0)" font-family="helvetica" font-size="10pt" font-style="normal" font-weight="normal" text-decoration="normal" x="438.21228218078613" y="304" text-anchor="start" dominant-baseline="alphabetic" transform="matrix(1, 0, 0, 1, 0.5, 0.5)" stroke-opacity="0" stroke-linejoin="bevel" stroke-miterlimit="10">2040</text><text fill="#444444" stroke="none" font-family="helvetica" font-size="12pt" font-style="normal" font-weight="normal" text-decoration="normal" x="305.3166666030884" y="327" text-anchor="start" dominant-baseline="alphabetic" transform="matrix(1, 0, 0, 1, 0.5, 0.5)">Year</text><text fill="none" stroke="rgb(0,0,0)" font-family="helvetica" font-size="12pt" font-style="normal" font-weight="normal" text-decoration="normal" x="305.3166666030884" y="327" text-anchor="start" dominant-baseline="alphabetic" transform="matrix(1, 0, 0, 1, 0.5, 0.5)" stroke-opacity="0" stroke-linejoin="bevel" stroke-miterlimit="10">Year</text><path fill="none" stroke="black" paint-order="fill" d="M 70.5 283.5 L 70.5 33.5" stroke-linejoin="bevel" stroke-miterlimit="10"/><path fill="none" stroke="black" paint-order="fill" d="M 64.5 283.5 L 72.5 283.5 M 64.5 250.5 L 72.5 250.5 M 64.5 217.5 L 72.5 217.5 M 64.5 184.5 L 72.5 184.5 M 64.5 150.5 L 72.5 150.5 M 64.5 117.5 L 72.5 117.5 M 64.5 84.5 L 72.5 84.5 M 64.5 51.5 L 72.5 51.5" stroke-linejoin="bevel" stroke-miterlimit="10"/><path fill="none" stroke="black" paint-order="fill" d="M 66.5 283.5 L 70.5 283.5 M 66.5 276.5 L 70.5 276.5 M 66.5 270.5 L 70.5 270.5 M 66.5 263.5 L 70.5 263.5 M 66.5 256.5 L 70.5 256.5 M 66.5 250.5 L 70.5 250.5 M 66.5 243.5 L 70.5 243.5 M 66.5 237.5 L 70.5 237.5 M 66.5 230.5 L 70.5 230.5 M 66.5 223.5 L 70.5 223.5 M 66.5 217.5 L 70.5 217.5 M 66.5 210.5 L 70.5 210.5 M 66.5 203.5 L 70.5 203.5 M 66.5 197.5 L 70.5 197.5 M 66.5 190.5 L 70.5 190.5 M 66.5 184.5 L 70.5 184.5 M 66.5 177.5 L 70.5 177.5 M 66.5 170.5 L 70.5 170.5 M 66.5 164.5 L 70.5 164.5 M 66.5 157.5 L 70.5 157.5 M 66.5 150.5 L 70.5 150.5 M 66.5 144.5 L 70.5 144.5 M 66.5 137.5 L 70.5 137.5 M 66.5 131.5 L 70.5 131.5 M 66.5 124.5 L 70.5 124.5 M 66.5 117.5 L 70.5 117.5 M 66.5 111.5 L 70.5 111.5 M 66.5 104.5 L 70.5 104.5 M 66.5 97.5 L 70.5 97.5 M 66.5 91.5 L 70.5 91.5 M 66.5 84.5 L 70.5 84.5 M 66.5 78.5 L 70.5 78.5 M 66.5 71.5 L 70.5 71.5 M 66.5 64.5 L 70.5 64.5 M 66.5 58.5 L 70.5 58.5 M 66.5 51.5 L 70.5 51.5 M 66.5 44.5 L 70.5 44.5 M 66.5 38.5 L 70.5 38.5" stroke-linejoin="bevel" stroke-miterlimit="10"/><text fill="#444444" stroke="none" font-family="helvetica" font-size="10pt" font-style="normal" font-weight="normal" text-decoration="normal" x="52.31666660308838" y="288" text-anchor="start" dominant-baseline="alphabetic" transform="matrix(1, 0, 0, 1, 0.5, 0.5)">0</text><text fill="none" stroke="rgb(0,0,0)" font-family="helvetica" font-size="10pt" font-style="normal" font-weight="normal" text-decoration="normal" x="52.31666660308838" y="288" text-anchor="start" dominant-baseline="alphabetic" transform="matrix(1, 0, 0, 1, 0.5, 0.5)" stroke-opacity="0" stroke-linejoin="bevel" stroke-miterlimit="10">0</text><text fill="#444444" stroke="none" font-family="helvetica" font-size="10pt" font-style="normal" font-weight="normal" text-decoration="normal" x="45.63333320617676" y="254.86985778808594" text-anchor="start" dominant-baseline="alphabetic" transform="matrix(1, 0, 0, 1, 0.5, 0.5)">50</text><text fill="none" stroke="rgb(0,0,0)" font-family="helvetica" font-size="10pt" font-style="normal" font-weight="normal" text-decoration="normal" x="45.63333320617676" y="254.86985778808594" text-anchor="start" dominant-baseline="alphabetic" transform="matrix(1, 0, 0, 1, 0.5, 0.5)" stroke-opacity="0" stroke-linejoin="bevel" stroke-miterlimit="10">50</text><text fill="#444444" stroke="none" font-family="helvetica" font-size="10pt" font-style="normal" font-weight="normal" text-decoration="normal" x="38.95000076293945" y="221.73973083496094" text-anchor="start" dominant-baseline="alphabetic" transform="matrix(1, 0, 0, 1, 0.5, 0.5)">100</text><text fill="none" stroke="rgb(0,0,0)" font-family="helvetica" font-size="10pt" font-style="normal" font-weight="normal" text-decoration="normal" x="38.95000076293945" y="221.73973083496094" text-anchor="start" dominant-baseline="alphabetic" transform="matrix(1, 0, 0, 1, 0.5, 0.5)" stroke-opacity="0" stroke-linejoin="bevel" stroke-miterlimit="10">100</text><text fill="#444444" stroke="none" font-family="helvetica" font-size="10pt" font-style="normal" font-weight="normal" text-decoration="normal" x="38.95000076293945" y="188.60958862304688" text-anchor="start" dominant-baseline="alphabetic" transform="matrix(1, 0, 0, 1, 0.5, 0.5)">150</text><text fill="none" stroke="rgb(0,0,0)" font-family="helvetica" font-size="10pt" font-style="normal" font-weight="normal" text-decoration="normal" x="38.95000076293945" y="188.60958862304688" text-anchor="start" dominant-baseline="alphabetic" transform="matrix(1, 0, 0, 1, 0.5, 0.5)" stroke-opacity="0" stroke-linejoin="bevel" stroke-miterlimit="10">150</text><text fill="#444444" stroke="none" font-family="helvetica" font-size="10pt" font-style="normal" font-weight="normal" text-decoration="normal" x="38.95000076293945" y="155.47946166992188" text-anchor="start" dominant-baseline="alphabetic" transform="matrix(1, 0, 0, 1, 0.5, 0.5)">200</text><text fill="none" stroke="rgb(0,0,0)" font-family="helvetica" font-size="10pt" font-style="normal" font-weight="normal" text-decoration="normal" x="38.95000076293945" y="155.47946166992188" text-anchor="start" dominant-baseline="alphabetic" transform="matrix(1, 0, 0, 1, 0.5, 0.5)" stroke-opacity="0" stroke-linejoin="bevel" stroke-miterlimit="10">200</text><text fill="#444444" stroke="none" font-family="helvetica" font-size="10pt" font-style="normal" font-weight="normal" text-decoration="normal" x="38.95000076293945" y="122.34932708740234" text-anchor="start" dominant-baseline="alphabetic" transform="matrix(1, 0, 0, 1, 0.5, 0.5)">250</text><text fill="none" stroke="rgb(0,0,0)" font-family="helvetica" font-size="10pt" font-style="normal" font-weight="normal" text-decoration="normal" x="38.95000076293945" y="122.34932708740234" text-anchor="start" dominant-baseline="alphabetic" transform="matrix(1, 0, 0, 1, 0.5, 0.5)" stroke-opacity="0" stroke-linejoin="bevel" stroke-miterlimit="10">250</text><text fill="#444444" stroke="none" font-family="helvetica" font-size="10pt" font-style="normal" font-weight="normal" text-decoration="normal" x="38.95000076293945" y="89.21919250488281" text-anchor="start" dominant-baseline="alphabetic" transform="matrix(1, 0, 0, 1, 0.5, 0.5)">300</text><text fill="none" stroke="rgb(0,0,0)" font-family="helvetica" font-size="10pt" font-style="normal" font-weight="normal" text-decoration="normal" x="38.95000076293945" y="89.21919250488281" text-anchor="start" dominant-baseline="alphabetic" transform="matrix(1, 0, 0, 1, 0.5, 0.5)" stroke-opacity="0" stroke-linejoin="bevel" stroke-miterlimit="10">300</text><text fill="#444444" stroke="none" font-family="helvetica" font-size="10pt" font-style="normal" font-weight="normal" text-decoration="normal" x="38.95000076293945" y="56.089054107666016" text-anchor="start" dominant-baseline="alphabetic" transform="matrix(1, 0, 0, 1, 0.5, 0.5)">350</text><text fill="none" stroke="rgb(0,0,0)" font-family="helvetica" font-size="10pt" font-style="normal" font-weight="normal" text-decoration="normal" x="38.95000076293945" y="56.089054107666016" text-anchor="start" dominant-baseline="alphabetic" transform="matrix(1, 0, 0, 1, 0.5, 0.5)" stroke-opacity="0" stroke-linejoin="bevel" stroke-miterlimit="10">350</text><text fill="#444444" stroke="none" font-family="helvetica" font-size="12pt" font-style="normal" font-weight="normal" text-decoration="normal" x="-65.25833511352539" y="154" text-anchor="start" dominant-baseline="alphabetic" transform="matrix(6.123233995736766e-17, -1, 1, 6.123233995736766e-17, -126.54999923706055, 189.45000076293945)">Days suitable for transmission</text><text fill="none" stroke="rgb(0,0,0)" font-family="helvetica" font-size="12pt" font-style="normal" font-weight="normal" text-decoration="normal" x="-65.25833511352539" y="154" text-anchor="start" dominant-baseline="alphabetic" transform="matrix(6.123233995736766e-17, -1, 1, 6.123233995736766e-17, -126.54999923706055, 189.45000076293945)" stroke-opacity="0" stroke-linejoin="bevel" stroke-miterlimit="10">Days suitable for transmission</text><path fill="rgb(255,255,255)" stroke="rgb(229,229,229)" paint-order="fill" d="M 477.0333251953125 208.5 L 560.4999847412109 208.5 L 560.4999847412109 273.5 L 477.0333251953125 273.5 L 477.0333251953125 208.5 Z" fill-opacity="0.9490196078431372" clip-path="url(#fKBLIqUpCezn)" stroke-opacity="0.5019607843137255" stroke-linejoin="bevel" stroke-miterlimit="10"/><g clip-path="url(#fKBLIqUpCezn)"><g transform="matrix(1, 0, 0, 1, 487.5333251953125, 219)"><path fill="none" stroke="#30a2da" paint-order="fill" d="M 0.5 10.5 L 20.5 10.5" stroke-linejoin="bevel" stroke-miterlimit="10" stroke-width="2"/></g></g><g clip-path="url(#fKBLIqUpCezn)"><text fill="#444444" stroke="none" font-family="helvetica" font-size="13px" font-style="normal" font-weight="normal" text-decoration="normal" x="512.5333251953125" y="233.5" text-anchor="start" dominant-baseline="alphabetic" transform="matrix(1, 0, 0, 1, 0.5, 0.5)">ID 001</text></g><g clip-path="url(#fKBLIqUpCezn)"><text fill="none" stroke="rgb(0,0,0)" font-family="helvetica" font-size="13px" font-style="normal" font-weight="normal" text-decoration="normal" x="512.5333251953125" y="233.5" text-anchor="start" dominant-baseline="alphabetic" transform="matrix(1, 0, 0, 1, 0.5, 0.5)" stroke-opacity="0" stroke-linejoin="bevel" stroke-miterlimit="10">ID 001</text></g><g clip-path="url(#fKBLIqUpCezn)"><g transform="matrix(1, 0, 0, 1, 487.5333251953125, 242)"><path fill="none" stroke="#fc4f30" paint-order="fill" d="M 0.5 10.5 L 20.5 10.5" stroke-linejoin="bevel" stroke-miterlimit="10" stroke-width="2"/></g></g><g clip-path="url(#fKBLIqUpCezn)"><text fill="#444444" stroke="none" font-family="helvetica" font-size="13px" font-style="normal" font-weight="normal" text-decoration="normal" x="512.5333251953125" y="256.5" text-anchor="start" dominant-baseline="alphabetic" transform="matrix(1, 0, 0, 1, 0.5, 0.5)">ID 006</text></g><g clip-path="url(#fKBLIqUpCezn)"><text fill="none" stroke="rgb(0,0,0)" font-family="helvetica" font-size="13px" font-style="normal" font-weight="normal" text-decoration="normal" x="512.5333251953125" y="256.5" text-anchor="start" dominant-baseline="alphabetic" transform="matrix(1, 0, 0, 1, 0.5, 0.5)" stroke-opacity="0" stroke-linejoin="bevel" stroke-miterlimit="10">ID 006</text></g><text fill="black" stroke="none" font-family="helvetica" font-size="14pt" font-style="normal" font-weight="normal" text-decoration="normal" x="0" y="18" text-anchor="start" dominant-baseline="alphabetic" transform="matrix(1, 0, 0, 1, 5.5, 5.5)">E. Hanoi</text><text fill="none" stroke="rgb(0,0,0)" font-family="helvetica" font-size="14pt" font-style="normal" font-weight="normal" text-decoration="normal" x="0" y="18" text-anchor="start" dominant-baseline="alphabetic" transform="matrix(1, 0, 0, 1, 5.5, 5.5)" stroke-opacity="0" stroke-linejoin="bevel" stroke-miterlimit="10">E. Hanoi</text></svg>