<svg version="1.1" xmlns="http://www.w3.org/2000/svg" width="600" height="329"><defs><clipPath id="tnyRNNdWyPPZ"><path fill="none" stroke="none" d="M 70.5 30.5 L 570.5 30.5 L 570.5 280.5 L 70.5 280.5 L 70.5 30.5 Z"/></clipPath><clipPath id="arATBOwJNtnt"><path fill="none" stroke="none" d="M 70.5 30.5 L 570.5 30.5 L 570.5 280.5 L 70.5 280.5 L 70.5 30.5 Z"/></clipPath><clipPath id="TrvxEzaQmhki"><path fill="none" stroke="none" d="M 70.5 30.5 L 570.5 30.5 L 570.5 280.5 L 70.5 280.5 L 70.5 30.5 Z"/></clipPath><clipPath id="fWGSptuZDgTh"><path fill="none" stroke="none" d="M 70.5 30.5 L 570.5 30.5 L 570.5 280.5 L 70.5 280.5 L 70.5 30.5 Z"/></clipPath><clipPath id="OCwZvJdstXlI"><path fill="none" stroke="none" d="M 70.5 30.5 L 570.5 30.5 L 570.5 280.5 L 70.5 280.5 L 70.5 30.5 Z"/></clipPath><clipPath id="RmrvuiRqrREM"><path fill="none" stroke="none" d="M 70.5 30.5 L 570.5 30.5 L 570.5 280.5 L 70.5 280.5 L 70.5 30.5 Z"/></clipPath><clipPath id="qnnJgLXmuhyJ"><path fill="none" stroke="none" d="M 70.5 30.5 L 570.5 30.5 L 570.5 280.5 L 70.5 280.5 L 70.5 30.5 Z"/></clipPath><clipPath id="MpVlvkJzVGDu"><path fill="none" stroke="none" d="M 70.5 30.5 L 570.5 30.5 L 570.5 280.5 L 70.5 280.5 L 70.5 30.5 Z"/></clipPath><clipPath id="HJTUZxtMmdbs"><path fill="none" stroke="none" d="M 70.5 30.5 L 570.5 30.5 L 570.5 280.5 L 70.5 280.5 L 70.5 30.5 Z"/></clipPath><clipPath id="GVlQxOVqDoMu"><path fill="none" stroke="none" d="M 70.5 30.5 L 570.5 30.5 L 570.5 280.5 L 70.5 280.5 L 70.5 30.5 Z"/></clipPath><clipPath id="JcUQASmPHCCT"><path fill="none" stroke="none" d="M 70.5 30.5 L 570.5 30.5 L 570.5 280.5 L 70.5 280.5 L 70.5 30.5 Z"/></clipPath><clipPath id="dycXmBLDBWba"><path fill="none" stroke="none" d="M 70.5 30.5 L 570.5 30.5 L 570.5 280.5 L 70.5 280.5 L 70.5 30.5 Z"/></clipPath><clipPath id="OvZKztxNCwWb"><path fill="none" stroke="none" d="M 70.5 30.5 L 570.5 30.5 L 570.5 280.5 L 70.5 280.5 L 70.5 30.5 Z"/></clipPath><clipPath id="GcmnMmueNcwt"><path fill="none" stroke="none" d="M 70.5 30.5 L 570.5 30.5 L 570.5 280.5 L 70.5 280.5 L 70.5 30.5 Z"/></clipPath><clipPath id="uPTyzATXWvlL"><path fill="none" stroke="none" d="M 70.5 30.5 L 570.5 30.5 L 570.5 280.5 L 70.5 280.5 L 70.5 30.5 Z"/></clipPath><clipPath id="dJCgyekoiwoJ"><path fill="none" stroke="none" d="M 70.5 30.5 L 570.5 30.5 L 570.5 280.5 L 70.5 280.5 L 70.5 30.5 Z"/></clipPath><clipPath id="qpMvPEzVJSXS"><path fill="none" stroke="none" d="M 70.5 30.5 L 570.5 30.5 L 570.5 280.5 L 70.5 280.5 L 70.5 30.5 Z"/></clipPath><clipPath id="dlvFKxyJmTxi"><path fill="none" stroke="none" d="M 70.5 30.5 L 570.5 30.5 L 570.5 280.5 L 70.5 280.5 L 70.5 30.5 Z"/></clipPath><clipPath id="nXidKyahTttG"><path fill="none" stroke="none" d="M 70.5 30.5 L 570.5 30.5 L 570.5 280.5 L 70.5 280.5 L 70.5 30.5 Z"/></clipPath><clipPath id="SWXipLGuaTHb"><path fill="none" stroke="none" d="M 70.5 30.5 L 570.5 30.5 L 570.5 280.5 L 70.5 280.5 L 70.5 30.5 Z"/></clipPath><clipPath id="rxrDnzQBZwCi"><path fill="none" stroke="none" d="M 70.5 30.5 L 570.5 30.5 L 570.5 280.5 L 70.5 280.5 L 70.5 30.5 Z"/></clipPath><clipPath id="UDMIsJnmOtqm"><path fill="none" stroke="none" d="M 70.5 30.5 L 570.5 30.5 L 570.5 280.5 L 70.5 280.5 L 70.5 30.5 Z"/></clipPath><clipPath id="gfbJIXbqFwKD"><path fill="none" stroke="none" d="M 70.5 30.5 L 570.5 30.5 L 570.5 280.5 L 70.5 280.5 L 70.5 30.5 Z"/></clipPath></defs><path fill="none" stroke="#e5e5e5" paint-order="fill" d="M 70.5 30.5 L 570.5 30.5 L 570.5 280.5 L 70.5 280.5 L 70.5 30.5 Z" stroke-linejoin="bevel" stroke-miterlimit="10"/><path fill="none" stroke="black" paint-order="fill" d="M 332.46172248803487 30.5 L 332.46172248803487 280.5" stroke-linejoin="bevel" stroke-miterlimit="10" stroke-width="3" stroke-dasharray="6" clip-path="url(#TrvxEzaQmhki)"/><path fill="none" stroke="#9467bd" paint-order="fill" d="M 93.2272720336914 88.49372863769531 L 117.15071868896484 93.1959228515625 L 141.07415771484375 74.38714599609375 L 164.9976043701172 79.87303924560547 L 188.92105102539062 78.3056411743164 L 212.84449768066406 80.65673828125 L 236.7679443359375 67.33385467529297 L 260.6913757324219 90.06112670898438 L 284.6148376464844 64.19905853271484 L 308.53826904296875 64.19905853271484" stroke-linejoin="bevel" stroke-miterlimit="10" stroke-width="2" clip-path="url(#fWGSptuZDgTh)"/><path fill="none" stroke="#9467bd" paint-order="fill" d="M 93.2272720336914 88.49372863769531 L 117.15071868896484 93.1959228515625 L 141.07415771484375 74.38714599609375 L 164.9976043701172 79.87303924560547 L 188.92105102539062 78.3056411743164 L 212.84449768066406 80.65673828125 L 236.7679443359375 67.33385467529297 L 260.6913757324219 90.06112670898438 L 284.6148376464844 64.19905853271484 L 308.53826904296875 64.19905853271484" stroke-linejoin="bevel" stroke-miterlimit="10" stroke-width="2" stroke-dasharray="6" clip-path="url(#OCwZvJdstXlI)"/><path fill="none" stroke="#30a2da" paint-order="fill" d="M 308.53826904296875 64.19905853271484 L 332.46173095703125 69.68495178222656 L 356.3851623535156 70.4686508178711 L 380.3086242675781 65.7664566040039 L 404.2320556640625 74.38714599609375 L 428.155517578125 66.55015563964844 L 452.0789489746094 75.17084503173828 L 476.00238037109375 71.25234985351562 L 499.92584228515625 75.17084503173828 L 523.8493041992188 85.35893249511719 L 547.772705078125 83.0078353881836" stroke-linejoin="bevel" stroke-miterlimit="10" stroke-width="2" clip-path="url(#RmrvuiRqrREM)"/><path fill="none" stroke="#30a2da" paint-order="fill" d="M 332.46173095703125 66.30792236328125 L 356.3851623535156 67.94656372070312 L 380.3086242675781 69.58521270751953 L 404.2320556640625 71.2238540649414 L 428.155517578125 72.86249542236328 L 452.0789489746094 74.50113677978516 L 476.00238037109375 76.13978576660156 L 499.92584228515625 77.77842712402344 L 523.8493041992188 79.41706848144531 L 547.772705078125 81.05571746826172" stroke-linejoin="bevel" stroke-miterlimit="10" stroke-width="2" stroke-dasharray="6" clip-path="url(#qnnJgLXmuhyJ)"/><path fill="none" stroke="#fc4f30" paint-order="fill" d="M 308.53826904296875 64.19905853271484 L 332.46173095703125 90.06112670898438 L 356.3851623535156 73.60344696044922 L 380.3086242675781 104.16770935058594 L 404.2320556640625 83.0078353881836 L 428.155517578125 90.06112670898438 L 452.0789489746094 74.38714599609375 L 476.00238037109375 87.71002960205078 L 499.92584228515625 71.25234985351562 L 523.8493041992188 90.06112670898438 L 547.772705078125 75.95454406738281" stroke-linejoin="bevel" stroke-miterlimit="10" stroke-width="2" clip-path="url(#MpVlvkJzVGDu)"/><path fill="none" stroke="#fc4f30" paint-order="fill" d="M 332.46173095703125 88.87845611572266 L 356.3851623535156 87.80027770996094 L 380.3086242675781 86.72209930419922 L 404.2320556640625 85.64391326904297 L 428.155517578125 84.56573486328125 L 452.0789489746094 83.48755645751953 L 476.00238037109375 82.40937805175781 L 499.92584228515625 81.3311996459961 L 523.8493041992188 80.25301361083984 L 547.772705078125 79.17483520507812" stroke-linejoin="bevel" stroke-miterlimit="10" stroke-width="2" stroke-dasharray="6" clip-path="url(#HJTUZxtMmdbs)"/><path fill="none" stroke="rgb(128,128,128)" paint-order="fill" d="M 93.2272720336914 78.3056411743164 L 117.15071868896484 100.24921417236328 L 141.07415771484375 97.89811706542969 L 164.9976043701172 71.25234985351562 L 188.92105102539062 78.3056411743164 L 212.84449768066406 85.35893249511719 L 236.7679443359375 75.95454406738281 L 260.6913757324219 67.33385467529297 L 284.6148376464844 63.41535949707031 L 308.53826904296875 91.62852478027344" stroke-opacity="0.7490196078431373" stroke-linejoin="bevel" stroke-miterlimit="10" clip-path="url(#GVlQxOVqDoMu)"/><path fill="none" stroke="grey" paint-order="fill" d="M 308.53826904296875 91.62852478027344 L 332.46173095703125 57.929466247558594 L 356.3851623535156 73.60344696044922 L 380.3086242675781 69.68495178222656 L 404.2320556640625 67.33385467529297 L 428.155517578125 80.65673828125 L 452.0789489746094 93.1959228515625 L 476.00238037109375 61.84796142578125 L 499.92584228515625 79.87303924560547 L 523.8493041992188 73.60344696044922 L 547.772705078125 70.4686508178711" stroke-linejoin="bevel" stroke-miterlimit="10" stroke-width="0.5" clip-path="url(#JcUQASmPHCCT)"/><path fill="none" stroke="grey" paint-order="fill" d="M 308.53826904296875 91.62852478027344 L 332.46173095703125 79.08934020996094 L 356.3851623535156 53.227272033691406 L 380.3086242675781 79.87303924560547 L 404.2320556640625 66.55015563964844 L 428.155517578125 77.52194213867188 L 452.0789489746094 71.25234985351562 L 476.00238037109375 89.27742767333984 L 499.92584228515625 54.79467010498047 L 523.8493041992188 72.03604888916016 L 547.772705078125 65.7664566040039" stroke-linejoin="bevel" stroke-miterlimit="10" stroke-width="0.5" clip-path="url(#dycXmBLDBWba)"/><path fill="none" stroke="rgb(128,128,128)" paint-order="fill" d="M 93.2272720336914 75.95454406738281 L 117.15071868896484 93.97962188720703 L 141.07415771484375 75.95454406738281 L 164.9976043701172 90.8448257446289 L 188.92105102539062 67.33385467529297 L 212.84449768066406 72.81974792480469 L 236.7679443359375 91.62852478027344 L 260.6913757324219 68.90125274658203 L 284.6148376464844 75.17084503173828 L 308.53826904296875 102.60031127929688" stroke-opacity="0.7490196078431373" stroke-linejoin="bevel" stroke-miterlimit="10" clip-path="url(#OvZKztxNCwWb)"/><path fill="none" stroke="grey" paint-order="fill" d="M 308.53826904296875 102.60031127929688 L 332.46173095703125 89.27742767333984 L 356.3851623535156 64.19905853271484 L 380.3086242675781 97.89811706542969 L 404.2320556640625 79.87303924560547 L 428.155517578125 77.52194213867188 L 452.0789489746094 90.06112670898438 L 476.00238037109375 75.17084503173828 L 499.92584228515625 72.81974792480469 L 523.8493041992188 75.17084503173828 L 547.772705078125 97.11441802978516" stroke-linejoin="bevel" stroke-miterlimit="10" stroke-width="0.5" clip-path="url(#GcmnMmueNcwt)"/><path fill="none" stroke="grey" paint-order="fill" d="M 308.53826904296875 102.60031127929688 L 332.46173095703125 90.8448257446289 L 356.3851623535156 69.68495178222656 L 380.3086242675781 93.97962188720703 L 404.2320556640625 89.27742767333984 L 428.155517578125 101.03291320800781 L 452.0789489746094 83.0078353881836 L 476.00238037109375 96.33071899414062 L 499.92584228515625 87.71002960205078 L 523.8493041992188 86.14263153076172 L 547.772705078125 68.90125274658203" stroke-linejoin="bevel" stroke-miterlimit="10" stroke-width="0.5" clip-path="url(#uPTyzATXWvlL)"/><path fill="none" stroke="rgb(128,128,128)" paint-order="fill" d="M 93.2272720336914 82.22413635253906 L 117.15071868896484 71.25234985351562 L 141.07415771484375 97.89811706542969 L 164.9976043701172 72.81974792480469 L 188.92105102539062 67.33385467529297 L 212.84449768066406 75.17084503173828 L 236.7679443359375 96.33071899414062 L 260.6913757324219 98.68181610107422 L 284.6148376464844 94.76332092285156 L 308.53826904296875 67.33385467529297" stroke-opacity="0.7490196078431373" stroke-linejoin="bevel" stroke-miterlimit="10" clip-path="url(#dJCgyekoiwoJ)"/><path fill="none" stroke="grey" paint-order="fill" d="M 308.53826904296875 67.33385467529297 L 332.46173095703125 83.79153442382812 L 356.3851623535156 88.49372863769531 L 380.3086242675781 90.06112670898438 L 404.2320556640625 62.63166046142578 L 428.155517578125 71.25234985351562 L 452.0789489746094 57.929466247558594 L 476.00238037109375 70.4686508178711 L 499.92584228515625 90.8448257446289 L 523.8493041992188 95.5470199584961 L 547.772705078125 80.65673828125" stroke-linejoin="bevel" stroke-miterlimit="10" stroke-width="0.5" clip-path="url(#qpMvPEzVJSXS)"/><path fill="none" stroke="grey" paint-order="fill" d="M 308.53826904296875 67.33385467529297 L 332.46173095703125 77.52194213867188 L 356.3851623535156 64.19905853271484 L 380.3086242675781 64.98275756835938 L 404.2320556640625 68.1175537109375 L 428.155517578125 68.90125274658203 L 452.0789489746094 91.62852478027344 L 476.00238037109375 72.81974792480469 L 499.92584228515625 97.89811706542969 L 523.8493041992188 68.90125274658203 L 547.772705078125 77.52194213867188" stroke-linejoin="bevel" stroke-miterlimit="10" stroke-width="0.5" clip-path="url(#dlvFKxyJmTxi)"/><path fill="none" stroke="rgb(128,128,128)" paint-order="fill" d="M 93.2272720336914 62.63166046142578 L 117.15071868896484 62.63166046142578 L 141.07415771484375 68.90125274658203 L 164.9976043701172 101.03291320800781 L 188.92105102539062 87.71002960205078 L 212.84449768066406 70.4686508178711 L 236.7679443359375 103.3840103149414 L 260.6913757324219 73.60344696044922 L 284.6148376464844 77.52194213867188 L 308.53826904296875 78.3056411743164" stroke-opacity="0.7490196078431373" stroke-linejoin="bevel" stroke-miterlimit="10" clip-path="url(#nXidKyahTttG)"/><path fill="none" stroke="grey" paint-order="fill" d="M 308.53826904296875 78.3056411743164 L 332.46173095703125 82.22413635253906 L 356.3851623535156 101.81661224365234 L 380.3086242675781 77.52194213867188 L 404.2320556640625 71.25234985351562 L 428.155517578125 64.19905853271484 L 452.0789489746094 68.90125274658203 L 476.00238037109375 83.0078353881836 L 499.92584228515625 65.7664566040039 L 523.8493041992188 72.81974792480469 L 547.772705078125 95.5470199584961" stroke-linejoin="bevel" stroke-miterlimit="10" stroke-width="0.5" clip-path="url(#SWXipLGuaTHb)"/><path fill="none" stroke="grey" paint-order="fill" d="M 308.53826904296875 78.3056411743164 L 332.46173095703125 75.95454406738281 L 356.3851623535156 82.22413635253906 L 380.3086242675781 74.38714599609375 L 404.2320556640625 78.3056411743164 L 428.155517578125 76.73824310302734 L 452.0789489746094 83.79153442382812 L 476.00238037109375 88.49372863769531 L 499.92584228515625 84.57523345947266 L 523.8493041992188 108.86990356445312 L 547.772705078125 62.63166046142578" stroke-linejoin="bevel" stroke-miterlimit="10" stroke-width="0.5" clip-path="url(#rxrDnzQBZwCi)"/><path fill="none" stroke="black" paint-order="fill" d="M 70.5 280.5 L 570.5 280.5" stroke-linejoin="bevel" stroke-miterlimit="10"/><path fill="none" stroke="black" paint-order="fill" d="M 93.5 286.5 L 93.5 278.5 M 212.5 286.5 L 212.5 278.5 M 332.5 286.5 L 332.5 278.5 M 452.5 286.5 L 452.5 278.5" stroke-linejoin="bevel" stroke-miterlimit="10"/><path fill="none" stroke="black" paint-order="fill" d="M 93.5 284.5 L 93.5 280.5 M 117.5 284.5 L 117.5 280.5 M 141.5 284.5 L 141.5 280.5 M 164.5 284.5 L 164.5 280.5 M 188.5 284.5 L 188.5 280.5 M 212.5 284.5 L 212.5 280.5 M 236.5 284.5 L 236.5 280.5 M 260.5 284.5 L 260.5 280.5 M 284.5 284.5 L 284.5 280.5 M 308.5 284.5 L 308.5 280.5 M 332.5 284.5 L 332.5 280.5 M 356.5 284.5 L 356.5 280.5 M 380.5 284.5 L 380.5 280.5 M 404.5 284.5 L 404.5 280.5 M 428.5 284.5 L 428.5 280.5 M 452.5 284.5 L 452.5 280.5 M 476.5 284.5 L 476.5 280.5 M 499.5 284.5 L 499.5 280.5 M 523.5 284.5 L 523.5 280.5 M 547.5 284.5 L 547.5 280.5" stroke-linejoin="bevel" stroke-miterlimit="10"/><text fill="#444444" stroke="none" font-family="helvetica" font-size="10pt" font-style="normal" font-weight="normal" text-decoration="normal" x="77.86060523986816" y="301" text-anchor="start" dominant-baseline="alphabetic" transform="matrix(1, 0, 0, 1, 0.5, 0.5)">2025</text><text fill="none" stroke="rgb(0,0,0)" font-family="helvetica" font-size="10pt" font-style="normal" font-weight="normal" text-decoration="normal" x="77.86060523986816" y="301" text-anchor="start" dominant-baseline="alphabetic" transform="matrix(1, 0, 0, 1, 0.5, 0.5)" stroke-opacity="0" stroke-linejoin="bevel" stroke-miterlimit="10">2025</text><text fill="#444444" stroke="none" font-family="helvetica" font-size="10pt" font-style="normal" font-weight="normal" text-decoration="normal" x="197.47783088684082" y="301" text-anchor="start" dominant-baseline="alphabetic" transform="matrix(1, 0, 0, 1, 0.5, 0.5)">2030</text><text fill="none" stroke="rgb(0,0,0)" font-family="helvetica" font-size="10pt" font-style="normal" font-weight="normal" text-decoration="normal" x="197.47783088684082" y="301" text-anchor="start" dominant-baseline="alphabetic" transform="matrix(1, 0, 0, 1, 0.5, 0.5)" stroke-opacity="0" stroke-linejoin="bevel" stroke-miterlimit="10">2030</text><text fill="#444444" stroke="none" font-family="helvetica" font-size="10pt" font-style="normal" font-weight="normal" text-decoration="normal" x="317.095064163208" y="301" text-anchor="start" dominant-baseline="alphabetic" transform="matrix(1, 0, 0, 1, 0.5, 0.5)">2035</text><text fill="none" stroke="rgb(0,0,0)" font-family="helvetica" font-size="10pt" font-style="normal" font-weight="normal" text-decoration="normal" x="317.095064163208" y="301" text-anchor="start" dominant-baseline="alphabetic" transform="matrix(1, 0, 0, 1, 0.5, 0.5)" stroke-opacity="0" stroke-linejoin="bevel" stroke-miterlimit="10">2035</text><text fill="#444444" stroke="none" font-family="helvetica" font-size="10pt" font-style="normal" font-weight="normal" text-decoration="normal" x="436.71228218078613" y="301" text-anchor="start" dominant-baseline="alphabetic" transform="matrix(1, 0, 0, 1, 0.5, 0.5)">2040</text><text fill="none" stroke="rgb(0,0,0)" font-family="helvetica" font-size="10pt" font-style="normal" font-weight="normal" text-decoration="normal" x="436.71228218078613" y="301" text-anchor="start" dominant-baseline="alphabetic" transform="matrix(1, 0, 0, 1, 0.5, 0.5)" stroke-opacity="0" stroke-linejoin="bevel" stroke-miterlimit="10">2040</text><text fill="#444444" stroke="none" font-family="helvetica" font-size="12pt" font-style="normal" font-weight="normal" text-decoration="normal" x="303.8500003814697" y="321" text-anchor="start" dominant-baseline="alphabetic" transform="matrix(1, 0, 0, 1, 0.5, 0.5)">Year</text><text fill="none" stroke="rgb(0,0,0)" font-family="helvetica" font-size="12pt" font-style="normal" font-weight="normal" text-decoration="normal" x="303.8500003814697" y="321" text-anchor="start" dominant-baseline="alphabetic" transform="matrix(1, 0, 0, 1, 0.5, 0.5)" stroke-opacity="0" stroke-linejoin="bevel" stroke-miterlimit="10">Year</text><path fill="none" stroke="black" paint-order="fill" d="M 70.5 280.5 L 70.5 30.5" stroke-linejoin="bevel" stroke-miterlimit="10"/><path fill="none" stroke="black" paint-order="fill" d="M 64.5 280.5 L 72.5 280.5 M 64.5 241.5 L 72.5 241.5 M 64.5 202.5 L 72.5 202.5 M 64.5 162.5 L 72.5 162.5 M 64.5 123.5 L 72.5 123.5 M 64.5 84.5 L 72.5 84.5 M 64.5 45.5 L 72.5 45.5" stroke-linejoin="bevel" stroke-miterlimit="10"/><path fill="none" stroke="black" paint-order="fill" d="M 66.5 280.5 L 70.5 280.5 M 66.5 272.5 L 70.5 272.5 M 66.5 264.5 L 70.5 264.5 M 66.5 256.5 L 70.5 256.5 M 66.5 249.5 L 70.5 249.5 M 66.5 241.5 L 70.5 241.5 M 66.5 233.5 L 70.5 233.5 M 66.5 225.5 L 70.5 225.5 M 66.5 217.5 L 70.5 217.5 M 66.5 209.5 L 70.5 209.5 M 66.5 202.5 L 70.5 202.5 M 66.5 194.5 L 70.5 194.5 M 66.5 186.5 L 70.5 186.5 M 66.5 178.5 L 70.5 178.5 M 66.5 170.5 L 70.5 170.5 M 66.5 162.5 L 70.5 162.5 M 66.5 155.5 L 70.5 155.5 M 66.5 147.5 L 70.5 147.5 M 66.5 139.5 L 70.5 139.5 M 66.5 131.5 L 70.5 131.5 M 66.5 123.5 L 70.5 123.5 M 66.5 115.5 L 70.5 115.5 M 66.5 108.5 L 70.5 108.5 M 66.5 100.5 L 70.5 100.5 M 66.5 92.5 L 70.5 92.5 M 66.5 84.5 L 70.5 84.5 M 66.5 76.5 L 70.5 76.5 M 66.5 68.5 L 70.5 68.5 M 66.5 61.5 L 70.5 61.5 M 66.5 53.5 L 70.5 53.5 M 66.5 45.5 L 70.5 45.5 M 66.5 37.5 L 70.5 37.5" stroke-linejoin="bevel" stroke-miterlimit="10"/><text fill="#444444" stroke="none" font-family="helvetica" font-size="10pt" font-style="normal" font-weight="normal" text-decoration="normal" x="51.56666660308838" y="285" text-anchor="start" dominant-baseline="alphabetic" transform="matrix(1, 0, 0, 1, 0.5, 0.5)">0</text><text fill="none" stroke="rgb(0,0,0)" font-family="helvetica" font-size="10pt" font-style="normal" font-weight="normal" text-decoration="normal" x="51.56666660308838" y="285" text-anchor="start" dominant-baseline="alphabetic" transform="matrix(1, 0, 0, 1, 0.5, 0.5)" stroke-opacity="0" stroke-linejoin="bevel" stroke-miterlimit="10">0</text><text fill="#444444" stroke="none" font-family="helvetica" font-size="10pt" font-style="normal" font-weight="normal" text-decoration="normal" x="44.13333320617676" y="245.81504821777344" text-anchor="start" dominant-baseline="alphabetic" transform="matrix(1, 0, 0, 1, 0.5, 0.5)">50</text><text fill="none" stroke="rgb(0,0,0)" font-family="helvetica" font-size="10pt" font-style="normal" font-weight="normal" text-decoration="normal" x="44.13333320617676" y="245.81504821777344" text-anchor="start" dominant-baseline="alphabetic" transform="matrix(1, 0, 0, 1, 0.5, 0.5)" stroke-opacity="0" stroke-linejoin="bevel" stroke-miterlimit="10">50</text><text fill="#444444" stroke="none" font-family="helvetica" font-size="10pt" font-style="normal" font-weight="normal" text-decoration="normal" x="36.70000076293945" y="206.63009643554688" text-anchor="start" dominant-baseline="alphabetic" transform="matrix(1, 0, 0, 1, 0.5, 0.5)">100</text><text fill="none" stroke="rgb(0,0,0)" font-family="helvetica" font-size="10pt" font-style="normal" font-weight="normal" text-decoration="normal" x="36.70000076293945" y="206.63009643554688" text-anchor="start" dominant-baseline="alphabetic" transform="matrix(1, 0, 0, 1, 0.5, 0.5)" stroke-opacity="0" stroke-linejoin="bevel" stroke-miterlimit="10">100</text><text fill="#444444" stroke="none" font-family="helvetica" font-size="10pt" font-style="normal" font-weight="normal" text-decoration="normal" x="36.70000076293945" y="167.4451446533203" text-anchor="start" dominant-baseline="alphabetic" transform="matrix(1, 0, 0, 1, 0.5, 0.5)">150</text><text fill="none" stroke="rgb(0,0,0)" font-family="helvetica" font-size="10pt" font-style="normal" font-weight="normal" text-decoration="normal" x="36.70000076293945" y="167.4451446533203" text-anchor="start" dominant-baseline="alphabetic" transform="matrix(1, 0, 0, 1, 0.5, 0.5)" stroke-opacity="0" stroke-linejoin="bevel" stroke-miterlimit="10">150</text><text fill="#444444" stroke="none" font-family="helvetica" font-size="10pt" font-style="normal" font-weight="normal" text-decoration="normal" x="36.70000076293945" y="128.26018524169922" text-anchor="start" dominant-baseline="alphabetic" transform="matrix(1, 0, 0, 1, 0.5, 0.5)">200</text><text fill="none" stroke="rgb(0,0,0)" font-family="helvetica" font-size="10pt" font-style="normal" font-weight="normal" text-decoration="normal" x="36.70000076293945" y="128.26018524169922" text-anchor="start" dominant-baseline="alphabetic" transform="matrix(1, 0, 0, 1, 0.5, 0.5)" stroke-opacity="0" stroke-linejoin="bevel" stroke-miterlimit="10">200</text><text fill="#444444" stroke="none" font-family="helvetica" font-size="10pt" font-style="normal" font-weight="normal" text-decoration="normal" x="36.70000076293945" y="89.07523345947266" text-anchor="start" dominant-baseline="alphabetic" transform="matrix(1, 0, 0, 1, 0.5, 0.5)">250</text><text fill="none" stroke="rgb(0,0,0)" font-family="helvetica" font-size="10pt" font-style="normal" font-weight="normal" text-decoration="normal" x="36.70000076293945" y="89.07523345947266" text-anchor="start" dominant-baseline="alphabetic" transform="matrix(1, 0, 0, 1, 0.5, 0.5)" stroke-opacity="0" stroke-linejoin="bevel" stroke-miterlimit="10">250</text><text fill="#444444" stroke="none" font-family="helvetica" font-size="10pt" font-style="normal" font-weight="normal" text-decoration="normal" x="36.70000076293945" y="49.890281677246094" text-anchor="start" dominant-baseline="alphabetic" transform="matrix(1, 0, 0, 1, 0.5, 0.5)">300</text><text fill="none" stroke="rgb(0,0,0)" font-family="helvetica" font-size="10pt" font-style="normal" font-weight="normal" text-decoration="normal" x="36.70000076293945" y="49.890281677246094" text-anchor="start" dominant-baseline="alphabetic" transform="matrix(1, 0, 0, 1, 0.5, 0.5)" stroke-opacity="0" stroke-linejoin="bevel" stroke-miterlimit="10">300</text><text fill="#444444" stroke="none" font-family="helvetica" font-size="12pt" font-style="normal" font-weight="normal" text-decoration="normal" x="-77.44166946411133" y="150" text-anchor="start" dominant-baseline="alphabetic" transform="matrix(6.123233995736766e-17, -1, 1, 6.123233995736766e-17, -125.79999923706055, 184.20000076293945)">Days suitable for transmission</text><text fill="none" stroke="rgb(0,0,0)" font-family="helvetica" font-size="12pt" font-style="normal" font-weight="normal" text-decoration="normal" x="-77.44166946411133" y="150" text-anchor="start" dominant-baseline="alphabetic" transform="matrix(6.123233995736766e-17, -1, 1, 6.123233995736766e-17, -125.79999923706055, 184.20000076293945)" stroke-opacity="0" stroke-linejoin="bevel" stroke-miterlimit="10">Days suitable for transmission</text><path fill="rgb(255,255,255)" stroke="rgb(229,229,229)" paint-order="fill" d="M 475.183349609375 205.5 L 560.5000152587891 205.5 L 560.5000152587891 270.5 L 475.183349609375 270.5 L 475.183349609375 205.5 Z" fill-opacity="0.9490196078431372" clip-path="url(#UDMIsJnmOtqm)" stroke-opacity="0.5019607843137255" stroke-linejoin="bevel" stroke-miterlimit="10"/><g clip-path="url(#UDMIsJnmOtqm)"><g transform="matrix(1, 0, 0, 1, 485.683349609375, 216)"><path fill="none" stroke="#30a2da" paint-order="fill" d="M 0.5 10.5 L 20.5 10.5" stroke-linejoin="bevel" stroke-miterlimit="10" stroke-width="2"/></g></g><g clip-path="url(#UDMIsJnmOtqm)"><text fill="#444444" stroke="none" font-family="helvetica" font-size="13px" font-style="normal" font-weight="normal" text-decoration="normal" x="510.683349609375" y="229" text-anchor="start" dominant-baseline="alphabetic" transform="matrix(1, 0, 0, 1, 0.5, 0.5)">ID 001</text></g><g clip-path="url(#UDMIsJnmOtqm)"><text fill="none" stroke="rgb(0,0,0)" font-family="helvetica" font-size="13px" font-style="normal" font-weight="normal" text-decoration="normal" x="510.683349609375" y="229" text-anchor="start" dominant-baseline="alphabetic" transform="matrix(1, 0, 0, 1, 0.5, 0.5)" stroke-opacity="0" stroke-linejoin="bevel" stroke-miterlimit="10">ID 001</text></g><g clip-path="url(#UDMIsJnmOtqm)"><g transform="matrix(1, 0, 0, 1, 485.683349609375, 239)"><path fill="none" stroke="#fc4f30" paint-order="fill" d="M 0.5 10.5 L 20.5 10.5" stroke-linejoin="bevel" stroke-miterlimit="10" stroke-width="2"/></g></g><g clip-path="url(#UDMIsJnmOtqm)"><text fill="#444444" stroke="none" font-family="helvetica" font-size="13px" font-style="normal" font-weight="normal" text-decoration="normal" x="510.683349609375" y="252" text-anchor="start" dominant-baseline="alphabetic" transform="matrix(1, 0, 0, 1, 0.5, 0.5)">ID 006</text></g><g clip-path="url(#UDMIsJnmOtqm)"><text fill="none" stroke="rgb(0,0,0)" font-family="helvetica" font-size="13px" font-style="normal" font-weight="normal" text-decoration="normal" x="510.683349609375" y="252" text-anchor="start" dominant-baseline="alphabetic" transform="matrix(1, 0, 0, 1, 0.5, 0.5)" stroke-opacity="0" stroke-linejoin="bevel" stroke-miterlimit="10">ID 006</text></g><text fill="black" stroke="none" font-family="helvetica" font-size="14pt" font-style="normal" font-weight="normal" text-decoration="normal" x="0" y="14" text-anchor="start" dominant-baseline="alphabetic" transform="matrix(1, 0, 0, 1, 5.5, 5.5)">D. New Delhi</text><text fill="none" stroke="rgb(0,0,0)" font-family="helvetica" font-size="14pt" font-style="normal" font-weight="normal" text-decoration="normal" x="0" y="14" text-anchor="start" dominant-baseline="alphabetic" transform="matrix(1, 0, 0, 1, 5.5, 5.5)" stroke-opacity="0" stroke-linejoin="bevel" stroke-miterlimit="10">D. New Delhi</text></svg>