<svg version="1.1" xmlns="http://www.w3.org/2000/svg" width="625" height="329"><defs><clipPath id="vdNRQlcvAKnk"><path fill="none" stroke="none" d="M 95.5 30.5 L 595.5 30.5 L 595.5 280.5 L 95.5 280.5 L 95.5 30.5 Z"/></clipPath><clipPath id="FISWTcQBTCro"><path fill="none" stroke="none" d="M 95.5 30.5 L 595.5 30.5 L 595.5 280.5 L 95.5 280.5 L 95.5 30.5 Z"/></clipPath><clipPath id="qfSSdTmnvpDU"><path fill="none" stroke="none" d="M 95.5 30.5 L 595.5 30.5 L 595.5 280.5 L 95.5 280.5 L 95.5 30.5 Z"/></clipPath><clipPath id="aXxbWKcBIKKp"><path fill="none" stroke="none" d="M 95.5 30.5 L 595.5 30.5 L 595.5 280.5 L 95.5 280.5 L 95.5 30.5 Z"/></clipPath><clipPath id="arDTbytCzbnC"><path fill="none" stroke="none" d="M 95.5 30.5 L 595.5 30.5 L 595.5 280.5 L 95.5 280.5 L 95.5 30.5 Z"/></clipPath><clipPath id="AAOmGrxOzqNl"><path fill="none" stroke="none" d="M 95.5 30.5 L 595.5 30.5 L 595.5 280.5 L 95.5 280.5 L 95.5 30.5 Z"/></clipPath><clipPath id="ToWueXSJBzIf"><path fill="none" stroke="none" d="M 95.5 30.5 L 595.5 30.5 L 595.5 280.5 L 95.5 280.5 L 95.5 30.5 Z"/></clipPath><clipPath id="qDTJZPDedfOZ"><path fill="none" stroke="none" d="M 95.5 30.5 L 595.5 30.5 L 595.5 280.5 L 95.5 280.5 L 95.5 30.5 Z"/></clipPath><clipPath id="QQOWXaMUasNt"><path fill="none" stroke="none" d="M 95.5 30.5 L 595.5 30.5 L 595.5 280.5 L 95.5 280.5 L 95.5 30.5 Z"/></clipPath><clipPath id="IfpazolOzayD"><path fill="none" stroke="none" d="M 95.5 30.5 L 595.5 30.5 L 595.5 280.5 L 95.5 280.5 L 95.5 30.5 Z"/></clipPath><clipPath id="KcbhsqwbWCkO"><path fill="none" stroke="none" d="M 95.5 30.5 L 595.5 30.5 L 595.5 280.5 L 95.5 280.5 L 95.5 30.5 Z"/></clipPath><clipPath id="MySDszHtlTFo"><path fill="none" stroke="none" d="M 95.5 30.5 L 595.5 30.5 L 595.5 280.5 L 95.5 280.5 L 95.5 30.5 Z"/></clipPath><clipPath id="BVMxUCuRfIpM"><path fill="none" stroke="none" d="M 95.5 30.5 L 595.5 30.5 L 595.5 280.5 L 95.5 280.5 L 95.5 30.5 Z"/></clipPath><clipPath id="ocRZyiFUrMKt"><path fill="none" stroke="none" d="M 95.5 30.5 L 595.5 30.5 L 595.5 280.5 L 95.5 280.5 L 95.5 30.5 Z"/></clipPath><clipPath id="AFzXTvciPisf"><path fill="none" stroke="none" d="M 95.5 30.5 L 595.5 30.5 L 595.5 280.5 L 95.5 280.5 L 95.5 30.5 Z"/></clipPath><clipPath id="RLXgxgkEauCl"><path fill="none" stroke="none" d="M 95.5 30.5 L 595.5 30.5 L 595.5 280.5 L 95.5 280.5 L 95.5 30.5 Z"/></clipPath><clipPath id="dVFabgKIUgax"><path fill="none" stroke="none" d="M 95.5 30.5 L 595.5 30.5 L 595.5 280.5 L 95.5 280.5 L 95.5 30.5 Z"/></clipPath><clipPath id="ZlwlzXJssUhh"><path fill="none" stroke="none" d="M 95.5 30.5 L 595.5 30.5 L 595.5 280.5 L 95.5 280.5 L 95.5 30.5 Z"/></clipPath><clipPath id="ImufyTPkCFQG"><path fill="none" stroke="none" d="M 95.5 30.5 L 595.5 30.5 L 595.5 280.5 L 95.5 280.5 L 95.5 30.5 Z"/></clipPath><clipPath id="GadBGVgPyEfN"><path fill="none" stroke="none" d="M 95.5 30.5 L 595.5 30.5 L 595.5 280.5 L 95.5 280.5 L 95.5 30.5 Z"/></clipPath><clipPath id="puCcbLORXsaw"><path fill="none" stroke="none" d="M 95.5 30.5 L 595.5 30.5 L 595.5 280.5 L 95.5 280.5 L 95.5 30.5 Z"/></clipPath><clipPath id="QadTrmcqLXqe"><path fill="none" stroke="none" d="M 95.5 30.5 L 595.5 30.5 L 595.5 280.5 L 95.5 280.5 L 95.5 30.5 Z"/></clipPath><clipPath id="IuOHHonXBGMy"><path fill="none" stroke="none" d="M 95.5 30.5 L 595.5 30.5 L 595.5 280.5 L 95.5 280.5 L 95.5 30.5 Z"/></clipPath><clipPath id="rEuWWdGgAzmG"><path fill="none" stroke="none" d="M 95.5 30.5 L 595.5 30.5 L 595.5 280.5 L 95.5 280.5 L 95.5 30.5 Z"/></clipPath><clipPath id="JAiKuIlMkuLJ"><path fill="none" stroke="none" d="M 95.5 30.5 L 595.5 30.5 L 595.5 280.5 L 95.5 280.5 L 95.5 30.5 Z"/></clipPath><clipPath id="cVSfooadGHQV"><path fill="none" stroke="none" d="M 95.5 30.5 L 595.5 30.5 L 595.5 280.5 L 95.5 280.5 L 95.5 30.5 Z"/></clipPath><clipPath id="PyMVMUJeONtw"><path fill="none" stroke="none" d="M 95.5 30.5 L 595.5 30.5 L 595.5 280.5 L 95.5 280.5 L 95.5 30.5 Z"/></clipPath></defs><path fill="none" stroke="#e5e5e5" paint-order="fill" d="M 95.5 30.5 L 595.5 30.5 L 595.5 280.5 L 95.5 280.5 L 95.5 30.5 Z" stroke-linejoin="bevel" stroke-miterlimit="10"/><path fill="none" stroke="#30a2da" paint-order="fill" d="M 95.5 225.56253051757812 L 105.5 219.5626983642578 L 115.5 217.97274780273438 L 125.5 213.83639526367188 L 135.5 238.8475799560547 L 145.5 237.37237548828125 L 155.5 212.29150390625 L 165.5 211.4468231201172 L 175.5 220.72604370117188 L 185.5 213.09046936035156 L 195.5 198.32501220703125 L 205.5 197.9176483154297 L 215.5 202.77980041503906 L 225.5 182.10531616210938 L 235.5 179.72067260742188 L 245.5 199.3353271484375 L 255.5 192.41224670410156 L 265.5 179.05445861816406 L 275.5 184.11880493164062 L 285.5 167.4993896484375 L 295.5 159.70509338378906 L 305.5 179.3388671875 L 315.5 170.59576416015625 L 325.5 150.48153686523438 L 335.5 166.91590881347656 L 345.5 153.13824462890625 L 355.5 177.9147186279297 L 365.5 178.4248504638672 L 375.5 149.3536834716797 L 385.5 135.23016357421875 L 395.5 139.07318115234375 L 405.5 122.0335922241211 L 415.5 116.8393325805664 L 425.5 115.8293228149414 L 435.5 116.3095703125 L 445.5 118.62250518798828 L 455.5 114.96725463867188 L 465.5 119.58737182617188 L 475.5 138.5394287109375 L 485.5 116.95111083984375 L 495.5 96.56244659423828 L 505.5 89.34412384033203 L 515.5 103.97142791748047 L 525.5 99.6501235961914 L 535.5 93.77561950683594 L 545.5 94.22151184082031 L 555.5 89.74193572998047 L 565.5 102.12798309326172 L 575.5 103.90924835205078 L 585.5 102.0040512084961" stroke-linejoin="bevel" stroke-miterlimit="10" stroke-width="0.5" clip-path="url(#qfSSdTmnvpDU)"/><path fill="none" stroke="#fc4f30" paint-order="fill" d="M 295.5 153.94781494140625 L 305.5 177.05770874023438 L 315.5 181.1201629638672 L 325.5 172.54164123535156 L 335.5 166.75209045410156 L 345.5 175.12152099609375 L 355.5 186.12893676757812 L 365.5 188.85325622558594 L 375.5 183.5912628173828 L 385.5 180.86647033691406 L 395.5 189.76858520507812 L 405.5 181.066650390625 L 415.5 167.28639221191406 L 425.5 182.0675811767578 L 435.5 176.7665252685547 L 445.5 176.47377014160156 L 455.5 198.97276306152344 L 465.5 192.63497924804688 L 475.5 175.8509979248047 L 485.5 179.79409790039062 L 495.5 168.3958740234375 L 505.5 166.73773193359375 L 515.5 176.4718017578125 L 525.5 177.101806640625 L 535.5 167.43186950683594 L 545.5 164.1259765625 L 555.5 163.131103515625 L 565.5 191.7673797607422 L 575.5 182.12342834472656 L 585.5 181.42308044433594" stroke-linejoin="bevel" stroke-miterlimit="10" stroke-width="0.5" clip-path="url(#aXxbWKcBIKKp)"/><path fill="none" stroke="#30a2da" paint-order="fill" d="M 95.5 227.0858154296875 L 105.5 222.0753936767578 L 115.5 212.95172119140625 L 125.5 212.60227966308594 L 135.5 209.31309509277344 L 145.5 214.32974243164062 L 155.5 213.628662109375 L 165.5 209.97193908691406 L 175.5 207.8322296142578 L 185.5 221.66781616210938 L 195.5 205.31260681152344 L 205.5 203.69854736328125 L 215.5 196.92306518554688 L 225.5 198.70054626464844 L 235.5 190.20938110351562 L 245.5 171.12669372558594 L 255.5 166.7788848876953 L 265.5 196.04647827148438 L 275.5 195.686767578125 L 285.5 183.1434783935547 L 295.5 163.22557067871094 L 305.5 179.56729125976562 L 315.5 174.4498291015625 L 325.5 163.4538116455078 L 335.5 172.91917419433594 L 345.5 170.8760223388672 L 355.5 166.43116760253906 L 365.5 154.64158630371094 L 375.5 156.04049682617188 L 385.5 156.8253631591797 L 395.5 147.807861328125 L 405.5 164.52105712890625 L 415.5 162.47459411621094 L 425.5 144.1956787109375 L 435.5 129.60093688964844 L 445.5 118.23197174072266 L 455.5 115.32349395751953 L 465.5 120.19200897216797 L 475.5 117.9171371459961 L 485.5 114.29237365722656 L 495.5 125.42144012451172 L 505.5 95.26419067382812 L 515.5 104.37000274658203 L 525.5 118.57445526123047 L 535.5 93.73257446289062 L 545.5 94.24665832519531 L 555.5 91.88430786132812 L 565.5 92.98003387451172 L 575.5 107.77631378173828 L 585.5 100.31455993652344" stroke-linejoin="bevel" stroke-miterlimit="10" stroke-width="0.5" clip-path="url(#arDTbytCzbnC)"/><path fill="none" stroke="#fc4f30" paint-order="fill" d="M 295.5 162.28392028808594 L 305.5 181.2058868408203 L 315.5 170.947509765625 L 325.5 169.17559814453125 L 335.5 183.2452392578125 L 345.5 173.3730010986328 L 355.5 169.0800323486328 L 365.5 182.8684539794922 L 375.5 185.73193359375 L 385.5 187.17047119140625 L 395.5 177.33876037597656 L 405.5 181.41644287109375 L 415.5 173.0582275390625 L 425.5 181.85923767089844 L 435.5 167.47555541992188 L 445.5 165.62522888183594 L 455.5 178.8057403564453 L 465.5 178.66952514648438 L 475.5 193.3320770263672 L 485.5 196.36610412597656 L 495.5 186.7986297607422 L 505.5 208.2309112548828 L 515.5 197.33990478515625 L 525.5 174.08279418945312 L 535.5 169.30538940429688 L 545.5 169.0163116455078 L 555.5 188.33267211914062 L 565.5 183.35986328125 L 575.5 176.78111267089844 L 585.5 199.69972229003906" stroke-linejoin="bevel" stroke-miterlimit="10" stroke-width="0.5" clip-path="url(#AAOmGrxOzqNl)"/><path fill="none" stroke="#30a2da" paint-order="fill" d="M 95.5 221.7941436767578 L 105.5 218.9652862548828 L 115.5 215.540771484375 L 125.5 212.61534118652344 L 135.5 212.77711486816406 L 145.5 207.1553955078125 L 155.5 215.2353973388672 L 165.5 198.96144104003906 L 175.5 201.57586669921875 L 185.5 204.30276489257812 L 195.5 204.49256896972656 L 205.5 203.68783569335938 L 215.5 189.96546936035156 L 225.5 188.72886657714844 L 235.5 198.80770874023438 L 245.5 199.823974609375 L 255.5 172.68797302246094 L 265.5 175.65167236328125 L 275.5 189.31321716308594 L 285.5 178.5252227783203 L 295.5 183.3931884765625 L 305.5 170.72457885742188 L 315.5 146.3470458984375 L 325.5 137.55809020996094 L 335.5 135.46356201171875 L 345.5 160.262939453125 L 355.5 171.27638244628906 L 365.5 144.4709930419922 L 375.5 135.3795928955078 L 385.5 143.509521484375 L 395.5 131.31985473632812 L 405.5 142.88589477539062 L 415.5 115.48065185546875 L 425.5 113.10782623291016 L 435.5 140.31040954589844 L 445.5 118.98536682128906 L 455.5 101.16019439697266 L 465.5 101.69647979736328 L 475.5 120.21951293945312 L 485.5 106.72599029541016 L 495.5 94.53430938720703 L 505.5 95.86373138427734 L 515.5 93.50027465820312 L 525.5 96.86642456054688 L 535.5 91.10840606689453 L 545.5 88.01871490478516 L 555.5 106.354736328125 L 565.5 91.52074432373047 L 575.5 78.33755493164062 L 585.5 95.07678985595703" stroke-linejoin="bevel" stroke-miterlimit="10" stroke-width="0.5" clip-path="url(#ToWueXSJBzIf)"/><path fill="none" stroke="#fc4f30" paint-order="fill" d="M 295.5 187.1915740966797 L 305.5 176.0888671875 L 315.5 179.7908477783203 L 325.5 184.0126190185547 L 335.5 156.43429565429688 L 345.5 155.41590881347656 L 355.5 161.25543212890625 L 365.5 161.88262939453125 L 375.5 188.50486755371094 L 385.5 178.83407592773438 L 395.5 165.2084197998047 L 405.5 178.47462463378906 L 415.5 179.7989959716797 L 425.5 190.47418212890625 L 435.5 195.52932739257812 L 445.5 185.62661743164062 L 455.5 189.3114013671875 L 465.5 188.00628662109375 L 475.5 178.85043334960938 L 485.5 184.41786193847656 L 495.5 190.95217895507812 L 505.5 180.1864776611328 L 515.5 193.03472900390625 L 525.5 204.37530517578125 L 535.5 207.73614501953125 L 545.5 194.89736938476562 L 555.5 186.1002197265625 L 565.5 205.6100616455078 L 575.5 189.40931701660156 L 585.5 169.91802978515625" stroke-linejoin="bevel" stroke-miterlimit="10" stroke-width="0.5" clip-path="url(#qDTJZPDedfOZ)"/><path fill="none" stroke="#30a2da" paint-order="fill" d="M 95.5 225.6193389892578 L 105.5 209.80015563964844 L 115.5 219.2335205078125 L 125.5 241.5054168701172 L 135.5 225.91537475585938 L 145.5 207.6829376220703 L 155.5 212.20973205566406 L 165.5 217.36924743652344 L 175.5 205.03750610351562 L 185.5 205.12225341796875 L 195.5 209.58753967285156 L 205.5 209.45831298828125 L 215.5 191.78538513183594 L 225.5 183.2991943359375 L 235.5 191.08168029785156 L 245.5 173.391357421875 L 255.5 181.8944549560547 L 265.5 160.9521484375 L 275.5 158.63157653808594 L 285.5 176.21514892578125 L 295.5 165.88404846191406 L 305.5 170.75140380859375 L 315.5 177.7086181640625 L 325.5 179.56959533691406 L 335.5 178.36669921875 L 345.5 181.36447143554688 L 355.5 156.87200927734375 L 365.5 148.86378479003906 L 375.5 168.7408905029297 L 385.5 161.3621368408203 L 395.5 138.8961944580078 L 405.5 154.45867919921875 L 415.5 149.84690856933594 L 425.5 116.13545989990234 L 435.5 130.41270446777344 L 445.5 132.63162231445312 L 455.5 136.01571655273438 L 465.5 116.93833923339844 L 475.5 105.96376037597656 L 485.5 123.60790252685547 L 495.5 108.52574157714844 L 505.5 106.88871765136719 L 515.5 99.3432846069336 L 525.5 107.8637924194336 L 535.5 128.33650970458984 L 545.5 109.01073455810547 L 555.5 100.65339660644531 L 565.5 93.69380950927734 L 575.5 88.67062377929688 L 585.5 77.44020080566406" stroke-linejoin="bevel" stroke-miterlimit="10" stroke-width="0.5" clip-path="url(#QQOWXaMUasNt)"/><path fill="none" stroke="#fc4f30" paint-order="fill" d="M 295.5 165.1162567138672 L 305.5 178.74195861816406 L 315.5 189.08966064453125 L 325.5 202.9851837158203 L 335.5 178.7874298095703 L 345.5 180.86585998535156 L 355.5 185.7017364501953 L 365.5 165.94082641601562 L 375.5 169.67697143554688 L 385.5 195.595947265625 L 395.5 188.29412841796875 L 405.5 174.8504638671875 L 415.5 186.9571990966797 L 425.5 181.27444458007812 L 435.5 175.67343139648438 L 445.5 173.80050659179688 L 455.5 195.8903045654297 L 465.5 186.2720184326172 L 475.5 170.7147979736328 L 485.5 204.7852783203125 L 495.5 223.63427734375 L 505.5 221.2218780517578 L 515.5 192.0777130126953 L 525.5 161.7296905517578 L 535.5 177.9509735107422 L 545.5 193.4008026123047 L 555.5 176.77906799316406 L 565.5 171.78408813476562 L 575.5 171.29681396484375 L 585.5 169.3683624267578" stroke-linejoin="bevel" stroke-miterlimit="10" stroke-width="0.5" clip-path="url(#IfpazolOzayD)"/><path fill="none" stroke="#30a2da" paint-order="fill" d="M 95.5 228.44566345214844 L 105.5 209.325927734375 L 115.5 207.74839782714844 L 125.5 226.91127014160156 L 135.5 220.6759796142578 L 145.5 230.91285705566406 L 155.5 224.6781463623047 L 165.5 219.92138671875 L 175.5 214.5176239013672 L 185.5 214.94456481933594 L 195.5 184.71690368652344 L 205.5 194.298828125 L 215.5 204.336181640625 L 225.5 186.24636840820312 L 235.5 180.4920654296875 L 245.5 199.7869110107422 L 255.5 185.46487426757812 L 265.5 169.8182373046875 L 275.5 181.6464385986328 L 285.5 175.29298400878906 L 295.5 153.0406036376953 L 305.5 168.12985229492188 L 315.5 194.5068817138672 L 325.5 175.08909606933594 L 335.5 145.27748107910156 L 345.5 139.33973693847656 L 355.5 157.3617706298828 L 365.5 157.44920349121094 L 375.5 130.64828491210938 L 385.5 141.3977813720703 L 395.5 140.04896545410156 L 405.5 157.86373901367188 L 415.5 161.38609313964844 L 425.5 133.39146423339844 L 435.5 116.61856842041016 L 445.5 114.56961059570312 L 455.5 118.69681549072266 L 465.5 118.51087188720703 L 475.5 115.76063537597656 L 485.5 118.88456726074219 L 495.5 110.87553405761719 L 505.5 119.78557586669922 L 515.5 113.40592193603516 L 525.5 102.37699890136719 L 535.5 116.70476531982422 L 545.5 97.79393005371094 L 555.5 91.93450164794922 L 565.5 99.25102233886719 L 575.5 76.05604553222656 L 585.5 78.1413803100586" stroke-linejoin="bevel" stroke-miterlimit="10" stroke-width="0.5" clip-path="url(#KcbhsqwbWCkO)"/><path fill="none" stroke="#fc4f30" paint-order="fill" d="M 295.5 157.85467529296875 L 305.5 162.1526641845703 L 315.5 172.51974487304688 L 325.5 164.60426330566406 L 335.5 165.88433837890625 L 345.5 191.02330017089844 L 355.5 183.6295623779297 L 365.5 171.35546875 L 375.5 202.25035095214844 L 385.5 181.45672607421875 L 395.5 168.64601135253906 L 405.5 182.80096435546875 L 415.5 177.55743408203125 L 425.5 194.61575317382812 L 435.5 177.74832153320312 L 445.5 166.01727294921875 L 455.5 155.56932067871094 L 465.5 166.8301239013672 L 475.5 203.91793823242188 L 485.5 197.7051544189453 L 495.5 188.42794799804688 L 505.5 187.3726043701172 L 515.5 173.9204559326172 L 525.5 173.0167999267578 L 535.5 178.16163635253906 L 545.5 173.57737731933594 L 555.5 189.79425048828125 L 565.5 181.6947784423828 L 575.5 176.8343505859375 L 585.5 192.1536102294922" stroke-linejoin="bevel" stroke-miterlimit="10" stroke-width="0.5" clip-path="url(#MySDszHtlTFo)"/><path fill="none" stroke="#30a2da" paint-order="fill" d="M 95.5 220.3755340576172 L 105.5 200.47328186035156 L 115.5 215.5260009765625 L 125.5 222.6480255126953 L 135.5 223.53347778320312 L 145.5 222.67315673828125 L 155.5 216.6241455078125 L 165.5 219.19204711914062 L 175.5 200.9210205078125 L 185.5 223.71461486816406 L 195.5 214.8694305419922 L 205.5 197.5011444091797 L 215.5 188.4917449951172 L 225.5 210.7771759033203 L 235.5 222.54132080078125 L 245.5 212.29959106445312 L 255.5 200.9639892578125 L 265.5 194.0896453857422 L 275.5 221.25669860839844 L 285.5 206.32183837890625 L 295.5 176.85836791992188 L 305.5 167.91546630859375 L 315.5 164.84193420410156 L 325.5 188.4203643798828 L 335.5 174.79544067382812 L 345.5 165.22592163085938 L 355.5 183.2775421142578 L 365.5 151.71644592285156 L 375.5 140.7400360107422 L 385.5 155.4774169921875 L 395.5 145.75033569335938 L 405.5 133.3444061279297 L 415.5 138.6722869873047 L 425.5 132.8977508544922 L 435.5 134.31666564941406 L 445.5 161.13589477539062 L 455.5 149.5657196044922 L 465.5 140.66392517089844 L 475.5 124.85982513427734 L 485.5 125.1651611328125 L 495.5 111.13007354736328 L 505.5 110.07275390625 L 515.5 103.66651916503906 L 525.5 104.0456314086914 L 535.5 99.99415588378906 L 545.5 107.37198638916016 L 555.5 106.24951171875 L 565.5 101.85798645019531 L 575.5 106.61802673339844 L 585.5 109.20655059814453" stroke-linejoin="bevel" stroke-miterlimit="10" stroke-width="0.5" clip-path="url(#BVMxUCuRfIpM)"/><path fill="none" stroke="#fc4f30" paint-order="fill" d="M 295.5 143.3633575439453 L 305.5 177.13392639160156 L 315.5 161.50613403320312 L 325.5 165.59494018554688 L 335.5 180.49929809570312 L 345.5 170.45851135253906 L 355.5 195.57711791992188 L 365.5 202.56259155273438 L 375.5 191.0819549560547 L 385.5 181.01979064941406 L 395.5 189.0247039794922 L 405.5 180.12940979003906 L 415.5 158.86061096191406 L 425.5 169.13815307617188 L 435.5 162.00186157226562 L 445.5 164.21263122558594 L 455.5 167.99049377441406 L 465.5 185.17506408691406 L 475.5 173.09762573242188 L 485.5 185.06558227539062 L 495.5 206.69110107421875 L 505.5 190.7248992919922 L 515.5 183.80615234375 L 525.5 192.7818145751953 L 535.5 194.27191162109375 L 545.5 188.62464904785156 L 555.5 167.02520751953125 L 565.5 181.59022521972656 L 575.5 189.9351348876953 L 585.5 179.57241821289062" stroke-linejoin="bevel" stroke-miterlimit="10" stroke-width="0.5" clip-path="url(#ocRZyiFUrMKt)"/><path fill="none" stroke="#30a2da" paint-order="fill" d="M 95.5 223.54673767089844 L 105.5 191.84132385253906 L 115.5 201.3640899658203 L 125.5 222.2309112548828 L 135.5 212.6547088623047 L 145.5 202.4130401611328 L 155.5 217.53543090820312 L 165.5 222.77760314941406 L 175.5 211.97959899902344 L 185.5 203.0952911376953 L 195.5 195.45852661132812 L 205.5 203.9973907470703 L 215.5 191.72950744628906 L 225.5 179.2577667236328 L 235.5 179.9597625732422 L 245.5 183.7748260498047 L 255.5 170.3926239013672 L 265.5 178.84202575683594 L 275.5 174.50839233398438 L 285.5 167.53848266601562 L 295.5 183.0498046875 L 305.5 169.43389892578125 L 315.5 177.19447326660156 L 325.5 164.95936584472656 L 335.5 173.8738250732422 L 345.5 157.45706176757812 L 355.5 146.13583374023438 L 365.5 151.4875946044922 L 375.5 146.29690551757812 L 385.5 128.95437622070312 L 395.5 138.57521057128906 L 405.5 169.44686889648438 L 415.5 148.65406799316406 L 425.5 136.75453186035156 L 435.5 119.9229965209961 L 445.5 120.99867248535156 L 455.5 123.65321350097656 L 465.5 115.04948425292969 L 475.5 134.11512756347656 L 485.5 128.66969299316406 L 495.5 112.4071044921875 L 505.5 112.474365234375 L 515.5 104.13211822509766 L 525.5 92.45531463623047 L 535.5 90.91596984863281 L 545.5 112.33837890625 L 555.5 105.16639709472656 L 565.5 104.62339782714844 L 575.5 97.82969665527344 L 585.5 81.60002136230469" stroke-linejoin="bevel" stroke-miterlimit="10" stroke-width="0.5" clip-path="url(#AFzXTvciPisf)"/><path fill="none" stroke="#fc4f30" paint-order="fill" d="M 295.5 163.60357666015625 L 305.5 198.89834594726562 L 315.5 196.22203063964844 L 325.5 187.2335968017578 L 335.5 181.98098754882812 L 345.5 190.42364501953125 L 355.5 172.9291534423828 L 365.5 174.10740661621094 L 375.5 204.78636169433594 L 385.5 200.4124298095703 L 395.5 184.4429168701172 L 405.5 166.52821350097656 L 415.5 177.37318420410156 L 425.5 177.1766357421875 L 435.5 162.87857055664062 L 445.5 154.58840942382812 L 455.5 166.52178955078125 L 465.5 183.28915405273438 L 475.5 197.15335083007812 L 485.5 195.3552703857422 L 495.5 191.40769958496094 L 505.5 175.99974060058594 L 515.5 176.44729614257812 L 525.5 176.1869659423828 L 535.5 174.38592529296875 L 545.5 169.9075164794922 L 555.5 194.9959259033203 L 565.5 188.96075439453125 L 575.5 174.42027282714844 L 585.5 165.6131591796875" stroke-linejoin="bevel" stroke-miterlimit="10" stroke-width="0.5" clip-path="url(#RLXgxgkEauCl)"/><path fill="none" stroke="#30a2da" paint-order="fill" d="M 95.5 215.6104736328125 L 105.5 212.13775634765625 L 115.5 213.56130981445312 L 125.5 216.0533905029297 L 135.5 212.66714477539062 L 145.5 193.50161743164062 L 155.5 210.72518920898438 L 165.5 203.77716064453125 L 175.5 213.52838134765625 L 185.5 218.3568572998047 L 195.5 210.60137939453125 L 205.5 209.31065368652344 M 225.5 186.14744567871094 L 235.5 184.90823364257812 L 245.5 170.64382934570312 L 255.5 160.67457580566406 L 265.5 178.26583862304688 L 275.5 189.99200439453125 L 285.5 187.0807647705078 L 295.5 176.83285522460938 L 305.5 163.66554260253906 L 315.5 175.22756958007812 L 325.5 166.12466430664062 L 335.5 165.07408142089844 L 345.5 169.9417724609375 L 355.5 146.17393493652344 L 365.5 141.3668212890625 L 375.5 137.28395080566406 L 385.5 143.4678955078125 L 395.5 148.8998565673828 L 405.5 127.79894256591797 L 415.5 116.48236083984375 L 425.5 137.4270477294922 L 435.5 131.1387481689453 L 445.5 108.88688659667969 L 455.5 108.29854583740234 L 465.5 109.52884674072266 L 475.5 115.88561248779297 L 485.5 115.51034545898438 L 495.5 113.317626953125 L 505.5 128.01773834228516 L 515.5 116.33722686767578 L 525.5 111.77381134033203 L 535.5 120.13934326171875 L 545.5 98.32154846191406 L 555.5 101.258056640625 L 565.5 127.8481674194336 L 575.5 125.0656509399414 L 585.5 102.1465072631836" stroke-linejoin="bevel" stroke-miterlimit="10" stroke-width="0.5" clip-path="url(#dVFabgKIUgax)"/><path fill="none" stroke="#fc4f30" paint-order="fill" d="M 295.5 173.48545837402344 L 305.5 187.43438720703125 L 315.5 169.2904052734375 L 325.5 159.33758544921875 L 335.5 150.5502166748047 L 345.5 169.72108459472656 L 355.5 173.0172882080078 L 365.5 172.50421142578125 L 375.5 169.96563720703125 L 385.5 192.7704620361328 L 395.5 204.34825134277344 L 405.5 188.18031311035156 L 415.5 173.155029296875 L 425.5 189.04209899902344 L 435.5 195.867431640625 L 445.5 180.2317352294922 L 455.5 169.4772186279297 L 465.5 187.51425170898438 L 475.5 182.23428344726562 L 485.5 174.4613037109375 L 495.5 158.48135375976562 L 505.5 172.95606994628906 L 515.5 198.29388427734375 L 525.5 178.47137451171875 L 535.5 172.0375518798828 L 545.5 182.504638671875 L 555.5 191.76829528808594 L 565.5 179.07521057128906 L 575.5 189.7152862548828 L 585.5 185.61903381347656" stroke-linejoin="bevel" stroke-miterlimit="10" stroke-width="0.5" clip-path="url(#ZlwlzXJssUhh)"/><path fill="none" stroke="#30a2da" paint-order="fill" d="M 95.5 220.0215606689453 L 105.5 210.08184814453125 L 115.5 217.11729431152344 L 125.5 208.97439575195312 L 135.5 201.89979553222656 L 145.5 224.4633026123047 L 155.5 201.1336212158203 L 165.5 194.6304168701172 L 175.5 217.94081115722656 L 185.5 211.36148071289062 L 195.5 191.5104522705078 L 205.5 185.5562286376953 L 215.5 188.6673583984375 L 225.5 200.03060913085938 L 235.5 180.06024169921875 L 245.5 188.3000946044922 L 255.5 190.8397216796875 L 265.5 184.1061553955078 L 275.5 181.92257690429688 L 285.5 172.45791625976562 L 295.5 165.6992950439453 L 305.5 163.88720703125 L 315.5 173.74017333984375 L 325.5 168.01759338378906 L 335.5 152.28253173828125 L 345.5 158.5968475341797 L 355.5 172.73448181152344 L 365.5 157.91868591308594 L 375.5 161.61941528320312 L 385.5 161.92642211914062 L 395.5 154.32933044433594 L 405.5 154.7032012939453 L 415.5 146.83151245117188 L 425.5 150.977783203125 L 435.5 143.8703155517578 L 445.5 115.33209228515625 L 455.5 122.84142303466797 L 465.5 120.4020767211914 L 475.5 111.08599090576172 L 485.5 106.13236236572266 L 495.5 92.73575592041016 L 505.5 101.92271423339844 L 515.5 103.64888000488281 L 525.5 115.12857818603516 L 535.5 97.87551879882812 L 545.5 104.80315399169922 L 555.5 88.039794921875 L 565.5 94.24723052978516 L 575.5 93.63774871826172 L 585.5 123.8521957397461" stroke-linejoin="bevel" stroke-miterlimit="10" stroke-width="0.5" clip-path="url(#ImufyTPkCFQG)"/><path fill="none" stroke="#fc4f30" paint-order="fill" d="M 295.5 172.03260803222656 L 305.5 184.7576904296875 L 315.5 186.51956176757812 L 325.5 202.11572265625 L 335.5 195.57838439941406 L 345.5 171.74349975585938 L 355.5 169.61532592773438 L 365.5 176.05279541015625 L 375.5 173.92877197265625 L 385.5 175.80596923828125 L 395.5 182.5078887939453 L 405.5 175.0472412109375 L 415.5 161.38250732421875 L 425.5 160.31549072265625 L 435.5 160.80397033691406 L 445.5 161.7938232421875 L 455.5 197.396728515625 L 465.5 190.2318115234375 L 475.5 186.5852813720703 L 485.5 182.71408081054688 L 495.5 185.55287170410156 L 505.5 162.48654174804688 L 515.5 174.076904296875 L 525.5 200.48831176757812 L 535.5 186.2776336669922 L 545.5 180.80213928222656 L 555.5 177.5726776123047 L 565.5 181.74769592285156 L 575.5 187.5945587158203 L 585.5 180.5618133544922" stroke-linejoin="bevel" stroke-miterlimit="10" stroke-width="0.5" clip-path="url(#GadBGVgPyEfN)"/><path fill="none" stroke="#30a2da" paint-order="fill" d="M 95.5 218.14328002929688 L 105.5 208.1140594482422 L 115.5 212.26272583007812 L 125.5 245.72528076171875 L 135.5 243.9323272705078 L 145.5 223.1864013671875 L 155.5 217.20889282226562 L 165.5 193.63552856445312 L 175.5 208.37826538085938 L 185.5 192.7725372314453 L 195.5 195.7970428466797 L 205.5 201.30625915527344 L 215.5 193.19488525390625 L 225.5 194.08436584472656 L 235.5 190.6040496826172 L 245.5 186.3402099609375 L 255.5 187.99444580078125 L 265.5 189.12457275390625 L 275.5 180.18077087402344 L 285.5 191.02293395996094 L 295.5 183.3102569580078 L 305.5 168.3502197265625 L 315.5 165.41685485839844 L 325.5 151.2151336669922 L 335.5 165.6788787841797 L 345.5 140.25494384765625 L 355.5 134.80596923828125 L 365.5 150.8023223876953 L 375.5 141.026611328125 L 385.5 130.4191436767578 L 395.5 145.79441833496094 L 405.5 140.38983154296875 L 415.5 131.95455932617188 L 425.5 133.67564392089844 L 435.5 118.31448364257812 L 445.5 112.3570785522461 L 455.5 114.82783508300781 L 465.5 112.9632568359375 L 475.5 103.55970001220703 L 485.5 106.26142120361328 L 495.5 98.94047546386719 L 505.5 107.94116973876953 L 515.5 94.22126770019531 L 525.5 91.08113861083984 L 535.5 105.87306213378906 L 545.5 95.64897918701172 L 555.5 95.41343688964844 L 565.5 90.88060760498047 L 575.5 104.47711944580078 L 585.5 87.72073364257812" stroke-linejoin="bevel" stroke-miterlimit="10" stroke-width="0.5" clip-path="url(#puCcbLORXsaw)"/><path fill="none" stroke="#fc4f30" paint-order="fill" d="M 295.5 149.79507446289062 L 305.5 163.22076416015625 L 315.5 172.47146606445312 L 325.5 180.642333984375 L 335.5 171.54315185546875 L 345.5 179.59915161132812 L 355.5 186.92230224609375 L 365.5 187.87640380859375 L 375.5 184.42391967773438 L 385.5 186.4294891357422 L 395.5 179.44818115234375 L 405.5 164.91656494140625 L 415.5 187.75851440429688 L 425.5 177.0956573486328 L 435.5 174.63446044921875 L 445.5 197.73118591308594 L 455.5 198.7431640625 L 465.5 182.96304321289062 L 475.5 184.80108642578125 L 485.5 191.71212768554688 L 495.5 184.8160858154297 L 505.5 190.25132751464844 L 515.5 173.7612762451172 L 525.5 191.91854858398438 L 535.5 200.8652801513672 L 545.5 168.24502563476562 L 555.5 178.7312469482422 L 565.5 176.32284545898438 L 575.5 188.8268280029297 L 585.5 205.2141571044922" stroke-linejoin="bevel" stroke-miterlimit="10" stroke-width="0.5" clip-path="url(#QadTrmcqLXqe)"/><path fill="none" stroke="#30a2da" paint-order="fill" d="M 95.5 222.62051391601562 L 105.5 210.23777770996094 L 115.5 213.32786560058594 L 125.5 222.31027221679688 L 135.5 220.22166442871094 L 145.5 216.36907958984375 L 155.5 214.1270751953125 L 165.5 209.16835021972656 L 175.5 210.2437286376953 L 185.5 210.84286499023438 L 195.5 201.067138671875 L 205.5 200.67327880859375 L 215.5 194.20816040039062 L 225.5 190.93775939941406 L 235.5 189.83851623535156 L 245.5 188.48228454589844 L 255.5 181.0103759765625 L 265.5 180.59512329101562 L 275.5 185.72572326660156 L 285.5 180.5098114013672 L 295.5 171.09991455078125 L 305.5 170.1764373779297 L 315.5 172.00291442871094 L 325.5 164.48892211914062 L 335.5 163.06475830078125 L 345.5 159.6457977294922 L 355.5 161.2983856201172 L 365.5 153.7142333984375 L 375.5 146.71298217773438 L 385.5 145.85702514648438 L 395.5 143.04953002929688 L 405.5 146.74461364746094 L 415.5 138.8622283935547 L 425.5 131.4392547607422 L 435.5 128.08154296875 L 445.5 122.1751708984375 L 455.5 120.53501892089844 L 465.5 117.55326843261719 L 475.5 118.7906723022461 L 485.5 116.2200927734375 L 495.5 106.44505310058594 L 505.5 106.75750732421875 L 515.5 103.6596908569336 L 525.5 103.98162841796875 L 535.5 103.84558868408203 L 545.5 100.17755889892578 L 555.5 97.66960906982422 L 565.5 99.9030990600586 L 575.5 98.23780059814453 L 585.5 95.75029754638672" stroke-linejoin="bevel" stroke-miterlimit="10" stroke-width="2" clip-path="url(#IuOHHonXBGMy)"/><path fill="none" stroke="#fc4f30" paint-order="fill" d="M 295.5 162.867431640625 L 305.5 178.66921997070312 L 315.5 177.94775390625 L 325.5 178.8243408203125 L 335.5 173.12554931640625 L 345.5 175.77455139160156 L 355.5 178.38568115234375 L 365.5 178.40040588378906 L 375.5 185.39419555664062 L 385.5 186.0361785888672 L 395.5 182.9027862548828 L 405.5 177.34109497070312 L 415.5 174.31881713867188 L 425.5 180.30592346191406 L 435.5 174.9379425048828 L 445.5 172.61012268066406 L 455.5 181.86788940429688 L 465.5 184.15863037109375 L 475.5 184.65377807617188 L 485.5 189.23768615722656 L 495.5 188.51580810546875 L 505.5 185.6168212890625 L 515.5 183.92300415039062 L 525.5 183.0153350830078 L 535.5 182.84243774414062 L 545.5 178.5101776123047 L 555.5 181.42306518554688 L 565.5 184.1912841796875 L 575.5 182.69371032714844 L 585.5 182.91433715820312" stroke-linejoin="bevel" stroke-miterlimit="10" stroke-width="2" clip-path="url(#rEuWWdGgAzmG)"/><path fill="none" stroke="black" paint-order="fill" d="M 295.5 30.5 L 295.5 280.5" stroke-linejoin="bevel" stroke-miterlimit="10" stroke-width="3" stroke-dasharray="6" clip-path="url(#JAiKuIlMkuLJ)"/><path fill="none" stroke="black" paint-order="fill" d="M 95.5 280.5 L 595.5 280.5" stroke-linejoin="bevel" stroke-miterlimit="10"/><path fill="none" stroke="black" paint-order="fill" d="M 145.5 286.5 L 145.5 278.5 M 245.5 286.5 L 245.5 278.5 M 345.5 286.5 L 345.5 278.5 M 445.5 286.5 L 445.5 278.5 M 545.5 286.5 L 545.5 278.5" stroke-linejoin="bevel" stroke-miterlimit="10"/><path fill="none" stroke="black" paint-order="fill" d="M 125.5 284.5 L 125.5 280.5 M 105.5 284.5 L 105.5 280.5 M 145.5 284.5 L 145.5 280.5 M 165.5 284.5 L 165.5 280.5 M 185.5 284.5 L 185.5 280.5 M 205.5 284.5 L 205.5 280.5 M 225.5 284.5 L 225.5 280.5 M 245.5 284.5 L 245.5 280.5 M 265.5 284.5 L 265.5 280.5 M 285.5 284.5 L 285.5 280.5 M 305.5 284.5 L 305.5 280.5 M 325.5 284.5 L 325.5 280.5 M 345.5 284.5 L 345.5 280.5 M 365.5 284.5 L 365.5 280.5 M 385.5 284.5 L 385.5 280.5 M 405.5 284.5 L 405.5 280.5 M 425.5 284.5 L 425.5 280.5 M 445.5 284.5 L 445.5 280.5 M 465.5 284.5 L 465.5 280.5 M 485.5 284.5 L 485.5 280.5 M 505.5 284.5 L 505.5 280.5 M 525.5 284.5 L 525.5 280.5 M 545.5 284.5 L 545.5 280.5 M 565.5 284.5 L 565.5 280.5 M 585.5 284.5 L 585.5 280.5" stroke-linejoin="bevel" stroke-miterlimit="10"/><text fill="#444444" stroke="none" font-family="helvetica" font-size="10pt" font-style="normal" font-weight="normal" text-decoration="normal" x="130.10000038146973" y="300.59368896484375" text-anchor="start" dominant-baseline="alphabetic" transform="matrix(1, 0, 0, 1, 0.5, 0.5)">2020</text><text fill="none" stroke="rgb(0,0,0)" font-family="helvetica" font-size="10pt" font-style="normal" font-weight="normal" text-decoration="normal" x="130.10000038146973" y="300.59368896484375" text-anchor="start" dominant-baseline="alphabetic" transform="matrix(1, 0, 0, 1, 0.5, 0.5)" stroke-opacity="0" stroke-linejoin="bevel" stroke-miterlimit="10">2020</text><text fill="#444444" stroke="none" font-family="helvetica" font-size="10pt" font-style="normal" font-weight="normal" text-decoration="normal" x="230.10000038146973" y="300.59368896484375" text-anchor="start" dominant-baseline="alphabetic" transform="matrix(1, 0, 0, 1, 0.5, 0.5)">2030</text><text fill="none" stroke="rgb(0,0,0)" font-family="helvetica" font-size="10pt" font-style="normal" font-weight="normal" text-decoration="normal" x="230.10000038146973" y="300.59368896484375" text-anchor="start" dominant-baseline="alphabetic" transform="matrix(1, 0, 0, 1, 0.5, 0.5)" stroke-opacity="0" stroke-linejoin="bevel" stroke-miterlimit="10">2030</text><text fill="#444444" stroke="none" font-family="helvetica" font-size="10pt" font-style="normal" font-weight="normal" text-decoration="normal" x="330.1000003814697" y="300.59368896484375" text-anchor="start" dominant-baseline="alphabetic" transform="matrix(1, 0, 0, 1, 0.5, 0.5)">2040</text><text fill="none" stroke="rgb(0,0,0)" font-family="helvetica" font-size="10pt" font-style="normal" font-weight="normal" text-decoration="normal" x="330.1000003814697" y="300.59368896484375" text-anchor="start" dominant-baseline="alphabetic" transform="matrix(1, 0, 0, 1, 0.5, 0.5)" stroke-opacity="0" stroke-linejoin="bevel" stroke-miterlimit="10">2040</text><text fill="#444444" stroke="none" font-family="helvetica" font-size="10pt" font-style="normal" font-weight="normal" text-decoration="normal" x="430.1000003814697" y="300.59368896484375" text-anchor="start" dominant-baseline="alphabetic" transform="matrix(1, 0, 0, 1, 0.5, 0.5)">2050</text><text fill="none" stroke="rgb(0,0,0)" font-family="helvetica" font-size="10pt" font-style="normal" font-weight="normal" text-decoration="normal" x="430.1000003814697" y="300.59368896484375" text-anchor="start" dominant-baseline="alphabetic" transform="matrix(1, 0, 0, 1, 0.5, 0.5)" stroke-opacity="0" stroke-linejoin="bevel" stroke-miterlimit="10">2050</text><text fill="#444444" stroke="none" font-family="helvetica" font-size="10pt" font-style="normal" font-weight="normal" text-decoration="normal" x="530.1000003814697" y="300.59368896484375" text-anchor="start" dominant-baseline="alphabetic" transform="matrix(1, 0, 0, 1, 0.5, 0.5)">2060</text><text fill="none" stroke="rgb(0,0,0)" font-family="helvetica" font-size="10pt" font-style="normal" font-weight="normal" text-decoration="normal" x="530.1000003814697" y="300.59368896484375" text-anchor="start" dominant-baseline="alphabetic" transform="matrix(1, 0, 0, 1, 0.5, 0.5)" stroke-opacity="0" stroke-linejoin="bevel" stroke-miterlimit="10">2060</text><text fill="#444444" stroke="none" font-family="helvetica" font-size="12pt" font-style="normal" font-weight="normal" text-decoration="normal" x="328.8333339691162" y="321.59368896484375" text-anchor="start" dominant-baseline="alphabetic" transform="matrix(1, 0, 0, 1, 0.5, 0.5)">Year</text><text fill="none" stroke="rgb(0,0,0)" font-family="helvetica" font-size="12pt" font-style="normal" font-weight="normal" text-decoration="normal" x="328.8333339691162" y="321.59368896484375" text-anchor="start" dominant-baseline="alphabetic" transform="matrix(1, 0, 0, 1, 0.5, 0.5)" stroke-opacity="0" stroke-linejoin="bevel" stroke-miterlimit="10">Year</text><path fill="none" stroke="black" paint-order="fill" d="M 95.5 280.5 L 95.5 30.5" stroke-linejoin="bevel" stroke-miterlimit="10"/><path fill="none" stroke="black" paint-order="fill" d="M 89.5 280.5 L 97.5 280.5 M 89.5 238.5 L 97.5 238.5 M 89.5 197.5 L 97.5 197.5 M 89.5 155.5 L 97.5 155.5 M 89.5 113.5 L 97.5 113.5 M 89.5 72.5 L 97.5 72.5 M 89.5 30.5 L 97.5 30.5" stroke-linejoin="bevel" stroke-miterlimit="10"/><path fill="none" stroke="black" paint-order="fill" d="M 91.5 280.5 L 95.5 280.5 M 91.5 272.5 L 95.5 272.5 M 91.5 263.5 L 95.5 263.5 M 91.5 255.5 L 95.5 255.5 M 91.5 247.5 L 95.5 247.5 M 91.5 238.5 L 95.5 238.5 M 91.5 230.5 L 95.5 230.5 M 91.5 222.5 L 95.5 222.5 M 91.5 213.5 L 95.5 213.5 M 91.5 205.5 L 95.5 205.5 M 91.5 197.5 L 95.5 197.5 M 91.5 188.5 L 95.5 188.5 M 91.5 180.5 L 95.5 180.5 M 91.5 172.5 L 95.5 172.5 M 91.5 163.5 L 95.5 163.5 M 91.5 155.5 L 95.5 155.5 M 91.5 147.5 L 95.5 147.5 M 91.5 138.5 L 95.5 138.5 M 91.5 130.5 L 95.5 130.5 M 91.5 122.5 L 95.5 122.5 M 91.5 113.5 L 95.5 113.5 M 91.5 105.5 L 95.5 105.5 M 91.5 97.5 L 95.5 97.5 M 91.5 88.5 L 95.5 88.5 M 91.5 80.5 L 95.5 80.5 M 91.5 72.5 L 95.5 72.5 M 91.5 63.5 L 95.5 63.5 M 91.5 55.5 L 95.5 55.5 M 91.5 47.5 L 95.5 47.5 M 91.5 38.5 L 95.5 38.5 M 91.5 30.5 L 95.5 30.5" stroke-linejoin="bevel" stroke-miterlimit="10"/><text fill="#444444" stroke="none" font-family="helvetica" font-size="10pt" font-style="normal" font-weight="normal" text-decoration="normal" x="69.10000038146973" y="284.7968444824219" text-anchor="start" dominant-baseline="alphabetic" transform="matrix(1, 0, 0, 1, 0.5, 0.5)">14</text><text fill="none" stroke="rgb(0,0,0)" font-family="helvetica" font-size="10pt" font-style="normal" font-weight="normal" text-decoration="normal" x="69.10000038146973" y="284.7968444824219" text-anchor="start" dominant-baseline="alphabetic" transform="matrix(1, 0, 0, 1, 0.5, 0.5)" stroke-opacity="0" stroke-linejoin="bevel" stroke-miterlimit="10">14</text><text fill="#444444" stroke="none" font-family="helvetica" font-size="10pt" font-style="normal" font-weight="normal" text-decoration="normal" x="57.933332443237305" y="243.1301727294922" text-anchor="start" dominant-baseline="alphabetic" transform="matrix(1, 0, 0, 1, 0.5, 0.5)">14.5</text><text fill="none" stroke="rgb(0,0,0)" font-family="helvetica" font-size="10pt" font-style="normal" font-weight="normal" text-decoration="normal" x="57.933332443237305" y="243.1301727294922" text-anchor="start" dominant-baseline="alphabetic" transform="matrix(1, 0, 0, 1, 0.5, 0.5)" stroke-opacity="0" stroke-linejoin="bevel" stroke-miterlimit="10">14.5</text><text fill="#444444" stroke="none" font-family="helvetica" font-size="10pt" font-style="normal" font-weight="normal" text-decoration="normal" x="69.10000038146973" y="201.46351623535156" text-anchor="start" dominant-baseline="alphabetic" transform="matrix(1, 0, 0, 1, 0.5, 0.5)">15</text><text fill="none" stroke="rgb(0,0,0)" font-family="helvetica" font-size="10pt" font-style="normal" font-weight="normal" text-decoration="normal" x="69.10000038146973" y="201.46351623535156" text-anchor="start" dominant-baseline="alphabetic" transform="matrix(1, 0, 0, 1, 0.5, 0.5)" stroke-opacity="0" stroke-linejoin="bevel" stroke-miterlimit="10">15</text><text fill="#444444" stroke="none" font-family="helvetica" font-size="10pt" font-style="normal" font-weight="normal" text-decoration="normal" x="57.933332443237305" y="159.79684448242188" text-anchor="start" dominant-baseline="alphabetic" transform="matrix(1, 0, 0, 1, 0.5, 0.5)">15.5</text><text fill="none" stroke="rgb(0,0,0)" font-family="helvetica" font-size="10pt" font-style="normal" font-weight="normal" text-decoration="normal" x="57.933332443237305" y="159.79684448242188" text-anchor="start" dominant-baseline="alphabetic" transform="matrix(1, 0, 0, 1, 0.5, 0.5)" stroke-opacity="0" stroke-linejoin="bevel" stroke-miterlimit="10">15.5</text><text fill="#444444" stroke="none" font-family="helvetica" font-size="10pt" font-style="normal" font-weight="normal" text-decoration="normal" x="69.10000038146973" y="118.13018035888672" text-anchor="start" dominant-baseline="alphabetic" transform="matrix(1, 0, 0, 1, 0.5, 0.5)">16</text><text fill="none" stroke="rgb(0,0,0)" font-family="helvetica" font-size="10pt" font-style="normal" font-weight="normal" text-decoration="normal" x="69.10000038146973" y="118.13018035888672" text-anchor="start" dominant-baseline="alphabetic" transform="matrix(1, 0, 0, 1, 0.5, 0.5)" stroke-opacity="0" stroke-linejoin="bevel" stroke-miterlimit="10">16</text><text fill="#444444" stroke="none" font-family="helvetica" font-size="10pt" font-style="normal" font-weight="normal" text-decoration="normal" x="57.933332443237305" y="76.46350860595703" text-anchor="start" dominant-baseline="alphabetic" transform="matrix(1, 0, 0, 1, 0.5, 0.5)">16.5</text><text fill="none" stroke="rgb(0,0,0)" font-family="helvetica" font-size="10pt" font-style="normal" font-weight="normal" text-decoration="normal" x="57.933332443237305" y="76.46350860595703" text-anchor="start" dominant-baseline="alphabetic" transform="matrix(1, 0, 0, 1, 0.5, 0.5)" stroke-opacity="0" stroke-linejoin="bevel" stroke-miterlimit="10">16.5</text><text fill="#444444" stroke="none" font-family="helvetica" font-size="10pt" font-style="normal" font-weight="normal" text-decoration="normal" x="69.10000038146973" y="34.796844482421875" text-anchor="start" dominant-baseline="alphabetic" transform="matrix(1, 0, 0, 1, 0.5, 0.5)">17</text><text fill="none" stroke="rgb(0,0,0)" font-family="helvetica" font-size="10pt" font-style="normal" font-weight="normal" text-decoration="normal" x="69.10000038146973" y="34.796844482421875" text-anchor="start" dominant-baseline="alphabetic" transform="matrix(1, 0, 0, 1, 0.5, 0.5)" stroke-opacity="0" stroke-linejoin="bevel" stroke-miterlimit="10">17</text><text fill="#444444" stroke="none" font-family="helvetica" font-size="12pt" font-style="normal" font-weight="normal" text-decoration="normal" x="-11.524999618530273" y="151" text-anchor="start" dominant-baseline="alphabetic" transform="matrix(6.123233995736766e-17, -1, 1, 6.123233995736766e-17, -104.5666675567627, 205.4333324432373)">Temperature (°C)</text><text fill="none" stroke="rgb(0,0,0)" font-family="helvetica" font-size="12pt" font-style="normal" font-weight="normal" text-decoration="normal" x="-11.524999618530273" y="151" text-anchor="start" dominant-baseline="alphabetic" transform="matrix(6.123233995736766e-17, -1, 1, 6.123233995736766e-17, -104.5666675567627, 205.4333324432373)" stroke-opacity="0" stroke-linejoin="bevel" stroke-miterlimit="10">Temperature (°C)</text><path fill="rgb(255,255,255)" stroke="rgb(229,229,229)" paint-order="fill" d="M 105.5 40.5 L 380.16668701171875 40.5 L 380.16668701171875 105.5 L 105.5 105.5 L 105.5 40.5 Z" fill-opacity="0.9490196078431372" clip-path="url(#cVSfooadGHQV)" stroke-opacity="0.5019607843137255" stroke-linejoin="bevel" stroke-miterlimit="10"/><g clip-path="url(#cVSfooadGHQV)"><g transform="matrix(1, 0, 0, 1, 116, 51)"><path fill="none" stroke="#30a2da" paint-order="fill" d="M 0.5 10.5 L 20.5 10.5" stroke-linejoin="bevel" stroke-miterlimit="10" stroke-width="2"/></g></g><g clip-path="url(#cVSfooadGHQV)"><text fill="#444444" stroke="none" font-family="helvetica" font-size="13px" font-style="normal" font-weight="normal" text-decoration="normal" x="141" y="65" text-anchor="start" dominant-baseline="alphabetic" transform="matrix(1, 0, 0, 1, 0.5, 0.5)">Without climate intervention (SSP2-4.5)</text></g><g clip-path="url(#cVSfooadGHQV)"><text fill="none" stroke="rgb(0,0,0)" font-family="helvetica" font-size="13px" font-style="normal" font-weight="normal" text-decoration="normal" x="141" y="65" text-anchor="start" dominant-baseline="alphabetic" transform="matrix(1, 0, 0, 1, 0.5, 0.5)" stroke-opacity="0" stroke-linejoin="bevel" stroke-miterlimit="10">Without climate intervention (SSP2-4.5)</text></g><g clip-path="url(#cVSfooadGHQV)"><g transform="matrix(1, 0, 0, 1, 116, 74)"><path fill="none" stroke="#fc4f30" paint-order="fill" d="M 0.5 10.5 L 20.5 10.5" stroke-linejoin="bevel" stroke-miterlimit="10" stroke-width="2"/></g></g><g clip-path="url(#cVSfooadGHQV)"><text fill="#444444" stroke="none" font-family="helvetica" font-size="13px" font-style="normal" font-weight="normal" text-decoration="normal" x="141" y="88" text-anchor="start" dominant-baseline="alphabetic" transform="matrix(1, 0, 0, 1, 0.5, 0.5)">With intervention (ARISE-SAI-1.5)</text></g><g clip-path="url(#cVSfooadGHQV)"><text fill="none" stroke="rgb(0,0,0)" font-family="helvetica" font-size="13px" font-style="normal" font-weight="normal" text-decoration="normal" x="141" y="88" text-anchor="start" dominant-baseline="alphabetic" transform="matrix(1, 0, 0, 1, 0.5, 0.5)" stroke-opacity="0" stroke-linejoin="bevel" stroke-miterlimit="10">With intervention (ARISE-SAI-1.5)</text></g><text fill="black" stroke="none" font-family="helvetica" font-size="14pt" font-style="normal" font-weight="normal" text-decoration="normal" x="0" y="15" text-anchor="start" dominant-baseline="alphabetic" transform="matrix(1, 0, 0, 1, 5.5, 5.5)">B. Global mean temperature under climate change and intervention</text><text fill="none" stroke="rgb(0,0,0)" font-family="helvetica" font-size="14pt" font-style="normal" font-weight="normal" text-decoration="normal" x="0" y="15" text-anchor="start" dominant-baseline="alphabetic" transform="matrix(1, 0, 0, 1, 5.5, 5.5)" stroke-opacity="0" stroke-linejoin="bevel" stroke-miterlimit="10">B. Global mean temperature under climate change and intervention</text></svg>