<svg version="1.1" xmlns="http://www.w3.org/2000/svg" width="600" height="329"><defs><clipPath id="OWSTWVZpNwGm"><path fill="none" stroke="none" d="M 70.5 30.5 L 570.5 30.5 L 570.5 280.5 L 70.5 280.5 L 70.5 30.5 Z"/></clipPath><clipPath id="KTtDtXfVtlUk"><path fill="none" stroke="none" d="M 70.5 30.5 L 570.5 30.5 L 570.5 280.5 L 70.5 280.5 L 70.5 30.5 Z"/></clipPath><clipPath id="TCCAvtcDHzzG"><path fill="none" stroke="none" d="M 70.5 30.5 L 570.5 30.5 L 570.5 280.5 L 70.5 280.5 L 70.5 30.5 Z"/></clipPath><clipPath id="gzmxlhKbpitR"><path fill="none" stroke="none" d="M 70.5 30.5 L 570.5 30.5 L 570.5 280.5 L 70.5 280.5 L 70.5 30.5 Z"/></clipPath><clipPath id="yXxvFlUqwVPV"><path fill="none" stroke="none" d="M 70.5 30.5 L 570.5 30.5 L 570.5 280.5 L 70.5 280.5 L 70.5 30.5 Z"/></clipPath><clipPath id="bsShZqIWZmXV"><path fill="none" stroke="none" d="M 70.5 30.5 L 570.5 30.5 L 570.5 280.5 L 70.5 280.5 L 70.5 30.5 Z"/></clipPath><clipPath id="VAnvwViRXhbu"><path fill="none" stroke="none" d="M 70.5 30.5 L 570.5 30.5 L 570.5 280.5 L 70.5 280.5 L 70.5 30.5 Z"/></clipPath><clipPath id="WLKtzKxHtbke"><path fill="none" stroke="none" d="M 70.5 30.5 L 570.5 30.5 L 570.5 280.5 L 70.5 280.5 L 70.5 30.5 Z"/></clipPath><clipPath id="UgUMywlldXyn"><path fill="none" stroke="none" d="M 70.5 30.5 L 570.5 30.5 L 570.5 280.5 L 70.5 280.5 L 70.5 30.5 Z"/></clipPath><clipPath id="fVQXUZddTfMH"><path fill="none" stroke="none" d="M 70.5 30.5 L 570.5 30.5 L 570.5 280.5 L 70.5 280.5 L 70.5 30.5 Z"/></clipPath><clipPath id="isHMxXlTknRl"><path fill="none" stroke="none" d="M 70.5 30.5 L 570.5 30.5 L 570.5 280.5 L 70.5 280.5 L 70.5 30.5 Z"/></clipPath><clipPath id="oHlFySuIGvaf"><path fill="none" stroke="none" d="M 70.5 30.5 L 570.5 30.5 L 570.5 280.5 L 70.5 280.5 L 70.5 30.5 Z"/></clipPath><clipPath id="ExKOXQCFcXzc"><path fill="none" stroke="none" d="M 70.5 30.5 L 570.5 30.5 L 570.5 280.5 L 70.5 280.5 L 70.5 30.5 Z"/></clipPath><clipPath id="NQVnOdBdEPKd"><path fill="none" stroke="none" d="M 70.5 30.5 L 570.5 30.5 L 570.5 280.5 L 70.5 280.5 L 70.5 30.5 Z"/></clipPath><clipPath id="IAOFgdaxvsPG"><path fill="none" stroke="none" d="M 70.5 30.5 L 570.5 30.5 L 570.5 280.5 L 70.5 280.5 L 70.5 30.5 Z"/></clipPath><clipPath id="kLDVVSOLlOHK"><path fill="none" stroke="none" d="M 70.5 30.5 L 570.5 30.5 L 570.5 280.5 L 70.5 280.5 L 70.5 30.5 Z"/></clipPath><clipPath id="GwLehnQTtihG"><path fill="none" stroke="none" d="M 70.5 30.5 L 570.5 30.5 L 570.5 280.5 L 70.5 280.5 L 70.5 30.5 Z"/></clipPath><clipPath id="PtuMNKVmZlMb"><path fill="none" stroke="none" d="M 70.5 30.5 L 570.5 30.5 L 570.5 280.5 L 70.5 280.5 L 70.5 30.5 Z"/></clipPath><clipPath id="SpwfesbNESlw"><path fill="none" stroke="none" d="M 70.5 30.5 L 570.5 30.5 L 570.5 280.5 L 70.5 280.5 L 70.5 30.5 Z"/></clipPath><clipPath id="TqqsidtVboax"><path fill="none" stroke="none" d="M 70.5 30.5 L 570.5 30.5 L 570.5 280.5 L 70.5 280.5 L 70.5 30.5 Z"/></clipPath><clipPath id="ggwbNEtItVef"><path fill="none" stroke="none" d="M 70.5 30.5 L 570.5 30.5 L 570.5 280.5 L 70.5 280.5 L 70.5 30.5 Z"/></clipPath><clipPath id="bWSzNasHiyUh"><path fill="none" stroke="none" d="M 70.5 30.5 L 570.5 30.5 L 570.5 280.5 L 70.5 280.5 L 70.5 30.5 Z"/></clipPath><clipPath id="QizqrVodCKCy"><path fill="none" stroke="none" d="M 70.5 30.5 L 570.5 30.5 L 570.5 280.5 L 70.5 280.5 L 70.5 30.5 Z"/></clipPath></defs><path fill="none" stroke="#e5e5e5" paint-order="fill" d="M 70.5 30.5 L 570.5 30.5 L 570.5 280.5 L 70.5 280.5 L 70.5 30.5 Z" stroke-linejoin="bevel" stroke-miterlimit="10"/><path fill="none" stroke="black" paint-order="fill" d="M 332.46172248803487 30.5 L 332.46172248803487 280.5" stroke-linejoin="bevel" stroke-miterlimit="10" stroke-width="3" stroke-dasharray="6" clip-path="url(#TCCAvtcDHzzG)"/><path fill="none" stroke="#9467bd" paint-order="fill" d="M 93.2272720336914 109.3973388671875 L 117.15071868896484 88.65762329101562 L 141.07415771484375 94.70670318603516 L 164.9976043701172 73.96698760986328 L 188.92105102539062 87.79346466064453 L 212.84449768066406 114.58226776123047 L 236.7679443359375 99.02748107910156 L 260.6913757324219 104.21240997314453 L 284.6148376464844 114.58226776123047 L 308.53826904296875 69.6462173461914" stroke-linejoin="bevel" stroke-miterlimit="10" stroke-width="2" clip-path="url(#gzmxlhKbpitR)"/><path fill="none" stroke="#9467bd" paint-order="fill" d="M 93.2272720336914 109.3973388671875 L 117.15071868896484 88.65762329101562 L 141.07415771484375 94.70670318603516 L 164.9976043701172 73.96698760986328 L 188.92105102539062 87.79346466064453 L 212.84449768066406 114.58226776123047 L 236.7679443359375 99.02748107910156 L 260.6913757324219 104.21240997314453 L 284.6148376464844 114.58226776123047 L 308.53826904296875 69.6462173461914" stroke-linejoin="bevel" stroke-miterlimit="10" stroke-width="2" stroke-dasharray="6" clip-path="url(#yXxvFlUqwVPV)"/><path fill="none" stroke="#30a2da" paint-order="fill" d="M 308.53826904296875 69.6462173461914 L 332.46173095703125 80.8802261352539 L 356.3851623535156 99.02748107910156 L 380.3086242675781 88.65762329101562 L 404.2320556640625 113.71810913085938 L 428.155517578125 95.57086181640625 L 452.0789489746094 105.94071960449219 L 476.00238037109375 111.98979949951172 L 499.92584228515625 111.98979949951172 L 523.8493041992188 99.02748107910156 L 547.772705078125 96.43501281738281" stroke-linejoin="bevel" stroke-miterlimit="10" stroke-width="2" clip-path="url(#bsShZqIWZmXV)"/><path fill="none" stroke="#30a2da" paint-order="fill" d="M 332.46173095703125 93.18264770507812 L 356.3851623535156 94.7695541381836 L 380.3086242675781 96.35645294189453 L 404.2320556640625 97.943359375 L 428.155517578125 99.53025817871094 L 452.0789489746094 101.1171646118164 L 476.00238037109375 102.70406341552734 L 499.92584228515625 104.29096984863281 L 523.8493041992188 105.87786865234375 L 547.772705078125 107.46477508544922" stroke-linejoin="bevel" stroke-miterlimit="10" stroke-width="2" stroke-dasharray="6" clip-path="url(#VAnvwViRXhbu)"/><path fill="none" stroke="#fc4f30" paint-order="fill" d="M 308.53826904296875 69.6462173461914 L 332.46173095703125 79.15191650390625 L 356.3851623535156 100.75579071044922 L 380.3086242675781 61.86882019042969 L 404.2320556640625 77.4236068725586 L 428.155517578125 103.34825134277344 L 452.0789489746094 53.227272033691406 L 476.00238037109375 104.21240997314453 L 499.92584228515625 114.58226776123047 L 523.8493041992188 118.90303802490234 L 547.772705078125 69.6462173461914" stroke-linejoin="bevel" stroke-miterlimit="10" stroke-width="2" clip-path="url(#WLKtzKxHtbke)"/><path fill="none" stroke="#fc4f30" paint-order="fill" d="M 332.46173095703125 79.16763305664062 L 356.3851623535156 81.19970703125 L 380.3086242675781 83.23177337646484 L 404.2320556640625 85.26384735107422 L 428.155517578125 87.2959213256836 L 452.0789489746094 89.32799530029297 L 476.00238037109375 91.36006927490234 L 499.92584228515625 93.39214324951172 L 523.8493041992188 95.4242172241211 L 547.772705078125 97.45629119873047" stroke-linejoin="bevel" stroke-miterlimit="10" stroke-width="2" stroke-dasharray="6" clip-path="url(#UgUMywlldXyn)"/><path fill="none" stroke="rgb(128,128,128)" paint-order="fill" d="M 93.2272720336914 96.43501281738281 L 117.15071868896484 94.70670318603516 L 141.07415771484375 81.744384765625 L 164.9976043701172 104.21240997314453 L 188.92105102539062 104.21240997314453 L 212.84449768066406 92.11424255371094 L 236.7679443359375 85.20100402832031 L 260.6913757324219 110.26148986816406 L 284.6148376464844 131.86537170410156 L 308.53826904296875 61.86882019042969" stroke-opacity="0.7490196078431373" stroke-linejoin="bevel" stroke-miterlimit="10" clip-path="url(#fVQXUZddTfMH)"/><path fill="none" stroke="grey" paint-order="fill" d="M 308.53826904296875 61.86882019042969 L 332.46173095703125 108.5331802368164 L 356.3851623535156 99.02748107910156 L 380.3086242675781 90.38593292236328 L 404.2320556640625 99.89163208007812 L 428.155517578125 121.4955062866211 L 452.0789489746094 104.21240997314453 L 476.00238037109375 87.79346466064453 L 499.92584228515625 124.08797454833984 L 523.8493041992188 102.48410034179688 L 547.772705078125 93.8425521850586" stroke-linejoin="bevel" stroke-miterlimit="10" stroke-width="0.5" clip-path="url(#isHMxXlTknRl)"/><path fill="none" stroke="grey" paint-order="fill" d="M 308.53826904296875 61.86882019042969 L 332.46173095703125 98.16332244873047 L 356.3851623535156 115.44641876220703 L 380.3086242675781 99.02748107910156 L 404.2320556640625 99.89163208007812 L 428.155517578125 105.94071960449219 L 452.0789489746094 123.22381591796875 L 476.00238037109375 64.46128463745117 L 499.92584228515625 95.57086181640625 L 523.8493041992188 119.76719665527344 L 547.772705078125 127.54459381103516" stroke-linejoin="bevel" stroke-miterlimit="10" stroke-width="0.5" clip-path="url(#oHlFySuIGvaf)"/><path fill="none" stroke="rgb(128,128,128)" paint-order="fill" d="M 93.2272720336914 90.38593292236328 L 117.15071868896484 117.17472839355469 L 141.07415771484375 89.52177429199219 L 164.9976043701172 96.43501281738281 L 188.92105102539062 110.26148986816406 L 212.84449768066406 100.75579071044922 L 236.7679443359375 99.89163208007812 L 260.6913757324219 91.25008392333984 L 284.6148376464844 122.35966491699219 L 308.53826904296875 99.89163208007812" stroke-opacity="0.7490196078431373" stroke-linejoin="bevel" stroke-miterlimit="10" clip-path="url(#ExKOXQCFcXzc)"/><path fill="none" stroke="grey" paint-order="fill" d="M 308.53826904296875 99.89163208007812 L 332.46173095703125 111.12564849853516 L 356.3851623535156 88.65762329101562 L 380.3086242675781 99.02748107910156 L 404.2320556640625 92.9783935546875 L 428.155517578125 86.92931365966797 L 452.0789489746094 89.52177429199219 L 476.00238037109375 72.23867797851562 L 499.92584228515625 104.21240997314453 L 523.8493041992188 120.63135528564453 L 547.772705078125 105.94071960449219" stroke-linejoin="bevel" stroke-miterlimit="10" stroke-width="0.5" clip-path="url(#NQVnOdBdEPKd)"/><path fill="none" stroke="grey" paint-order="fill" d="M 308.53826904296875 99.89163208007812 L 332.46173095703125 107.66902923583984 L 356.3851623535156 107.66902923583984 L 380.3086242675781 92.9783935546875 L 404.2320556640625 93.8425521850586 L 428.155517578125 86.92931365966797 L 452.0789489746094 96.43501281738281 L 476.00238037109375 98.16332244873047 L 499.92584228515625 86.06515502929688 L 523.8493041992188 85.20100402832031 L 547.772705078125 131.00120544433594" stroke-linejoin="bevel" stroke-miterlimit="10" stroke-width="0.5" clip-path="url(#IAOFgdaxvsPG)"/><path fill="none" stroke="rgb(128,128,128)" paint-order="fill" d="M 93.2272720336914 112.85395812988281 L 117.15071868896484 105.0765609741211 L 141.07415771484375 81.744384765625 L 164.9976043701172 99.02748107910156 L 188.92105102539062 105.94071960449219 L 212.84449768066406 69.6462173461914 L 236.7679443359375 92.9783935546875 L 260.6913757324219 81.744384765625 L 284.6148376464844 111.12564849853516 L 308.53826904296875 99.89163208007812" stroke-opacity="0.7490196078431373" stroke-linejoin="bevel" stroke-miterlimit="10" clip-path="url(#kLDVVSOLlOHK)"/><path fill="none" stroke="grey" paint-order="fill" d="M 308.53826904296875 99.89163208007812 L 332.46173095703125 94.70670318603516 L 356.3851623535156 92.9783935546875 L 380.3086242675781 115.44641876220703 L 404.2320556640625 114.58226776123047 L 428.155517578125 100.75579071044922 L 452.0789489746094 97.2991714477539 L 476.00238037109375 111.98979949951172 L 499.92584228515625 92.9783935546875 L 523.8493041992188 91.25008392333984 L 547.772705078125 115.44641876220703" stroke-linejoin="bevel" stroke-miterlimit="10" stroke-width="0.5" clip-path="url(#GwLehnQTtihG)"/><path fill="none" stroke="grey" paint-order="fill" d="M 308.53826904296875 99.89163208007812 L 332.46173095703125 91.25008392333984 L 356.3851623535156 80.8802261352539 L 380.3086242675781 99.89163208007812 L 404.2320556640625 114.58226776123047 L 428.155517578125 101.61994171142578 L 452.0789489746094 99.89163208007812 L 476.00238037109375 98.16332244873047 L 499.92584228515625 103.34825134277344 L 523.8493041992188 96.43501281738281 L 547.772705078125 99.89163208007812" stroke-linejoin="bevel" stroke-miterlimit="10" stroke-width="0.5" clip-path="url(#PtuMNKVmZlMb)"/><path fill="none" stroke="rgb(128,128,128)" paint-order="fill" d="M 93.2272720336914 99.02748107910156 L 117.15071868896484 116.31057739257812 L 141.07415771484375 128.40874481201172 L 164.9976043701172 86.06515502929688 L 188.92105102539062 86.06515502929688 L 212.84449768066406 117.17472839355469 L 236.7679443359375 88.65762329101562 L 260.6913757324219 92.11424255371094 L 284.6148376464844 123.22381591796875 L 308.53826904296875 91.25008392333984" stroke-opacity="0.7490196078431373" stroke-linejoin="bevel" stroke-miterlimit="10" clip-path="url(#SpwfesbNESlw)"/><path fill="none" stroke="grey" paint-order="fill" d="M 308.53826904296875 91.25008392333984 L 332.46173095703125 55.81973648071289 L 356.3851623535156 99.89163208007812 L 380.3086242675781 91.25008392333984 L 404.2320556640625 65.325439453125 L 428.155517578125 113.71810913085938 L 452.0789489746094 114.58226776123047 L 476.00238037109375 81.744384765625 L 499.92584228515625 96.43501281738281 L 523.8493041992188 100.75579071044922 L 547.772705078125 79.15191650390625" stroke-linejoin="bevel" stroke-miterlimit="10" stroke-width="0.5" clip-path="url(#TqqsidtVboax)"/><path fill="none" stroke="grey" paint-order="fill" d="M 308.53826904296875 91.25008392333984 L 332.46173095703125 69.6462173461914 L 356.3851623535156 94.70670318603516 L 380.3086242675781 99.02748107910156 L 404.2320556640625 111.98979949951172 L 428.155517578125 90.38593292236328 L 452.0789489746094 99.89163208007812 L 476.00238037109375 111.12564849853516 L 499.92584228515625 95.57086181640625 L 523.8493041992188 80.8802261352539 L 547.772705078125 114.58226776123047" stroke-linejoin="bevel" stroke-miterlimit="10" stroke-width="0.5" clip-path="url(#ggwbNEtItVef)"/><path fill="none" stroke="black" paint-order="fill" d="M 70.5 280.5 L 570.5 280.5" stroke-linejoin="bevel" stroke-miterlimit="10"/><path fill="none" stroke="black" paint-order="fill" d="M 93.5 286.5 L 93.5 278.5 M 212.5 286.5 L 212.5 278.5 M 332.5 286.5 L 332.5 278.5 M 452.5 286.5 L 452.5 278.5" stroke-linejoin="bevel" stroke-miterlimit="10"/><path fill="none" stroke="black" paint-order="fill" d="M 93.5 284.5 L 93.5 280.5 M 117.5 284.5 L 117.5 280.5 M 141.5 284.5 L 141.5 280.5 M 164.5 284.5 L 164.5 280.5 M 188.5 284.5 L 188.5 280.5 M 212.5 284.5 L 212.5 280.5 M 236.5 284.5 L 236.5 280.5 M 260.5 284.5 L 260.5 280.5 M 284.5 284.5 L 284.5 280.5 M 308.5 284.5 L 308.5 280.5 M 332.5 284.5 L 332.5 280.5 M 356.5 284.5 L 356.5 280.5 M 380.5 284.5 L 380.5 280.5 M 404.5 284.5 L 404.5 280.5 M 428.5 284.5 L 428.5 280.5 M 452.5 284.5 L 452.5 280.5 M 476.5 284.5 L 476.5 280.5 M 499.5 284.5 L 499.5 280.5 M 523.5 284.5 L 523.5 280.5 M 547.5 284.5 L 547.5 280.5" stroke-linejoin="bevel" stroke-miterlimit="10"/><text fill="#444444" stroke="none" font-family="helvetica" font-size="10pt" font-style="normal" font-weight="normal" text-decoration="normal" x="77.82727241516113" y="300.59368896484375" text-anchor="start" dominant-baseline="alphabetic" transform="matrix(1, 0, 0, 1, 0.5, 0.5)">2025</text><text fill="none" stroke="rgb(0,0,0)" font-family="helvetica" font-size="10pt" font-style="normal" font-weight="normal" text-decoration="normal" x="77.82727241516113" y="300.59368896484375" text-anchor="start" dominant-baseline="alphabetic" transform="matrix(1, 0, 0, 1, 0.5, 0.5)" stroke-opacity="0" stroke-linejoin="bevel" stroke-miterlimit="10">2025</text><text fill="#444444" stroke="none" font-family="helvetica" font-size="10pt" font-style="normal" font-weight="normal" text-decoration="normal" x="197.4444980621338" y="300.59368896484375" text-anchor="start" dominant-baseline="alphabetic" transform="matrix(1, 0, 0, 1, 0.5, 0.5)">2030</text><text fill="none" stroke="rgb(0,0,0)" font-family="helvetica" font-size="10pt" font-style="normal" font-weight="normal" text-decoration="normal" x="197.4444980621338" y="300.59368896484375" text-anchor="start" dominant-baseline="alphabetic" transform="matrix(1, 0, 0, 1, 0.5, 0.5)" stroke-opacity="0" stroke-linejoin="bevel" stroke-miterlimit="10">2030</text><text fill="#444444" stroke="none" font-family="helvetica" font-size="10pt" font-style="normal" font-weight="normal" text-decoration="normal" x="317.061731338501" y="300.59368896484375" text-anchor="start" dominant-baseline="alphabetic" transform="matrix(1, 0, 0, 1, 0.5, 0.5)">2035</text><text fill="none" stroke="rgb(0,0,0)" font-family="helvetica" font-size="10pt" font-style="normal" font-weight="normal" text-decoration="normal" x="317.061731338501" y="300.59368896484375" text-anchor="start" dominant-baseline="alphabetic" transform="matrix(1, 0, 0, 1, 0.5, 0.5)" stroke-opacity="0" stroke-linejoin="bevel" stroke-miterlimit="10">2035</text><text fill="#444444" stroke="none" font-family="helvetica" font-size="10pt" font-style="normal" font-weight="normal" text-decoration="normal" x="436.6789493560791" y="300.59368896484375" text-anchor="start" dominant-baseline="alphabetic" transform="matrix(1, 0, 0, 1, 0.5, 0.5)">2040</text><text fill="none" stroke="rgb(0,0,0)" font-family="helvetica" font-size="10pt" font-style="normal" font-weight="normal" text-decoration="normal" x="436.6789493560791" y="300.59368896484375" text-anchor="start" dominant-baseline="alphabetic" transform="matrix(1, 0, 0, 1, 0.5, 0.5)" stroke-opacity="0" stroke-linejoin="bevel" stroke-miterlimit="10">2040</text><text fill="#444444" stroke="none" font-family="helvetica" font-size="12pt" font-style="normal" font-weight="normal" text-decoration="normal" x="303.8333339691162" y="321.59368896484375" text-anchor="start" dominant-baseline="alphabetic" transform="matrix(1, 0, 0, 1, 0.5, 0.5)">Year</text><text fill="none" stroke="rgb(0,0,0)" font-family="helvetica" font-size="12pt" font-style="normal" font-weight="normal" text-decoration="normal" x="303.8333339691162" y="321.59368896484375" text-anchor="start" dominant-baseline="alphabetic" transform="matrix(1, 0, 0, 1, 0.5, 0.5)" stroke-opacity="0" stroke-linejoin="bevel" stroke-miterlimit="10">Year</text><path fill="none" stroke="black" paint-order="fill" d="M 70.5 280.5 L 70.5 30.5" stroke-linejoin="bevel" stroke-miterlimit="10"/><path fill="none" stroke="black" paint-order="fill" d="M 64.5 280.5 L 72.5 280.5 M 64.5 237.5 L 72.5 237.5 M 64.5 194.5 L 72.5 194.5 M 64.5 150.5 L 72.5 150.5 M 64.5 107.5 L 72.5 107.5 M 64.5 64.5 L 72.5 64.5" stroke-linejoin="bevel" stroke-miterlimit="10"/><path fill="none" stroke="black" paint-order="fill" d="M 66.5 280.5 L 70.5 280.5 M 66.5 271.5 L 70.5 271.5 M 66.5 263.5 L 70.5 263.5 M 66.5 254.5 L 70.5 254.5 M 66.5 245.5 L 70.5 245.5 M 66.5 237.5 L 70.5 237.5 M 66.5 228.5 L 70.5 228.5 M 66.5 220.5 L 70.5 220.5 M 66.5 211.5 L 70.5 211.5 M 66.5 202.5 L 70.5 202.5 M 66.5 194.5 L 70.5 194.5 M 66.5 185.5 L 70.5 185.5 M 66.5 176.5 L 70.5 176.5 M 66.5 168.5 L 70.5 168.5 M 66.5 159.5 L 70.5 159.5 M 66.5 150.5 L 70.5 150.5 M 66.5 142.5 L 70.5 142.5 M 66.5 133.5 L 70.5 133.5 M 66.5 124.5 L 70.5 124.5 M 66.5 116.5 L 70.5 116.5 M 66.5 107.5 L 70.5 107.5 M 66.5 99.5 L 70.5 99.5 M 66.5 90.5 L 70.5 90.5 M 66.5 81.5 L 70.5 81.5 M 66.5 73.5 L 70.5 73.5 M 66.5 64.5 L 70.5 64.5 M 66.5 55.5 L 70.5 55.5 M 66.5 47.5 L 70.5 47.5 M 66.5 38.5 L 70.5 38.5" stroke-linejoin="bevel" stroke-miterlimit="10"/><text fill="#444444" stroke="none" font-family="helvetica" font-size="10pt" font-style="normal" font-weight="normal" text-decoration="normal" x="51.55000019073486" y="284.7968444824219" text-anchor="start" dominant-baseline="alphabetic" transform="matrix(1, 0, 0, 1, 0.5, 0.5)">0</text><text fill="none" stroke="rgb(0,0,0)" font-family="helvetica" font-size="10pt" font-style="normal" font-weight="normal" text-decoration="normal" x="51.55000019073486" y="284.7968444824219" text-anchor="start" dominant-baseline="alphabetic" transform="matrix(1, 0, 0, 1, 0.5, 0.5)" stroke-opacity="0" stroke-linejoin="bevel" stroke-miterlimit="10">0</text><text fill="#444444" stroke="none" font-family="helvetica" font-size="10pt" font-style="normal" font-weight="normal" text-decoration="normal" x="44.10000038146973" y="241.58909606933594" text-anchor="start" dominant-baseline="alphabetic" transform="matrix(1, 0, 0, 1, 0.5, 0.5)">50</text><text fill="none" stroke="rgb(0,0,0)" font-family="helvetica" font-size="10pt" font-style="normal" font-weight="normal" text-decoration="normal" x="44.10000038146973" y="241.58909606933594" text-anchor="start" dominant-baseline="alphabetic" transform="matrix(1, 0, 0, 1, 0.5, 0.5)" stroke-opacity="0" stroke-linejoin="bevel" stroke-miterlimit="10">50</text><text fill="#444444" stroke="none" font-family="helvetica" font-size="10pt" font-style="normal" font-weight="normal" text-decoration="normal" x="36.64999961853027" y="198.38136291503906" text-anchor="start" dominant-baseline="alphabetic" transform="matrix(1, 0, 0, 1, 0.5, 0.5)">100</text><text fill="none" stroke="rgb(0,0,0)" font-family="helvetica" font-size="10pt" font-style="normal" font-weight="normal" text-decoration="normal" x="36.64999961853027" y="198.38136291503906" text-anchor="start" dominant-baseline="alphabetic" transform="matrix(1, 0, 0, 1, 0.5, 0.5)" stroke-opacity="0" stroke-linejoin="bevel" stroke-miterlimit="10">100</text><text fill="#444444" stroke="none" font-family="helvetica" font-size="10pt" font-style="normal" font-weight="normal" text-decoration="normal" x="36.64999961853027" y="155.17361450195312" text-anchor="start" dominant-baseline="alphabetic" transform="matrix(1, 0, 0, 1, 0.5, 0.5)">150</text><text fill="none" stroke="rgb(0,0,0)" font-family="helvetica" font-size="10pt" font-style="normal" font-weight="normal" text-decoration="normal" x="36.64999961853027" y="155.17361450195312" text-anchor="start" dominant-baseline="alphabetic" transform="matrix(1, 0, 0, 1, 0.5, 0.5)" stroke-opacity="0" stroke-linejoin="bevel" stroke-miterlimit="10">150</text><text fill="#444444" stroke="none" font-family="helvetica" font-size="10pt" font-style="normal" font-weight="normal" text-decoration="normal" x="36.64999961853027" y="111.96587371826172" text-anchor="start" dominant-baseline="alphabetic" transform="matrix(1, 0, 0, 1, 0.5, 0.5)">200</text><text fill="none" stroke="rgb(0,0,0)" font-family="helvetica" font-size="10pt" font-style="normal" font-weight="normal" text-decoration="normal" x="36.64999961853027" y="111.96587371826172" text-anchor="start" dominant-baseline="alphabetic" transform="matrix(1, 0, 0, 1, 0.5, 0.5)" stroke-opacity="0" stroke-linejoin="bevel" stroke-miterlimit="10">200</text><text fill="#444444" stroke="none" font-family="helvetica" font-size="10pt" font-style="normal" font-weight="normal" text-decoration="normal" x="36.64999961853027" y="68.75812911987305" text-anchor="start" dominant-baseline="alphabetic" transform="matrix(1, 0, 0, 1, 0.5, 0.5)">250</text><text fill="none" stroke="rgb(0,0,0)" font-family="helvetica" font-size="10pt" font-style="normal" font-weight="normal" text-decoration="normal" x="36.64999961853027" y="68.75812911987305" text-anchor="start" dominant-baseline="alphabetic" transform="matrix(1, 0, 0, 1, 0.5, 0.5)" stroke-opacity="0" stroke-linejoin="bevel" stroke-miterlimit="10">250</text><text fill="#444444" stroke="none" font-family="helvetica" font-size="12pt" font-style="normal" font-weight="normal" text-decoration="normal" x="-78.07499885559082" y="151" text-anchor="start" dominant-baseline="alphabetic" transform="matrix(6.123233995736766e-17, -1, 1, 6.123233995736766e-17, -125.85000038146973, 184.14999961853027)">Days suitable for transmission</text><text fill="none" stroke="rgb(0,0,0)" font-family="helvetica" font-size="12pt" font-style="normal" font-weight="normal" text-decoration="normal" x="-78.07499885559082" y="151" text-anchor="start" dominant-baseline="alphabetic" transform="matrix(6.123233995736766e-17, -1, 1, 6.123233995736766e-17, -125.85000038146973, 184.14999961853027)" stroke-opacity="0" stroke-linejoin="bevel" stroke-miterlimit="10">Days suitable for transmission</text><path fill="rgb(255,255,255)" stroke="rgb(229,229,229)" paint-order="fill" d="M 475.183349609375 205.5 L 560.5000152587891 205.5 L 560.5000152587891 270.5 L 475.183349609375 270.5 L 475.183349609375 205.5 Z" fill-opacity="0.9490196078431372" clip-path="url(#bWSzNasHiyUh)" stroke-opacity="0.5019607843137255" stroke-linejoin="bevel" stroke-miterlimit="10"/><g clip-path="url(#bWSzNasHiyUh)"><g transform="matrix(1, 0, 0, 1, 485.683349609375, 216)"><path fill="none" stroke="#30a2da" paint-order="fill" d="M 0.5 10.5 L 20.5 10.5" stroke-linejoin="bevel" stroke-miterlimit="10" stroke-width="2"/></g></g><g clip-path="url(#bWSzNasHiyUh)"><text fill="#444444" stroke="none" font-family="helvetica" font-size="13px" font-style="normal" font-weight="normal" text-decoration="normal" x="510.683349609375" y="230" text-anchor="start" dominant-baseline="alphabetic" transform="matrix(1, 0, 0, 1, 0.5, 0.5)">ID 001</text></g><g clip-path="url(#bWSzNasHiyUh)"><text fill="none" stroke="rgb(0,0,0)" font-family="helvetica" font-size="13px" font-style="normal" font-weight="normal" text-decoration="normal" x="510.683349609375" y="230" text-anchor="start" dominant-baseline="alphabetic" transform="matrix(1, 0, 0, 1, 0.5, 0.5)" stroke-opacity="0" stroke-linejoin="bevel" stroke-miterlimit="10">ID 001</text></g><g clip-path="url(#bWSzNasHiyUh)"><g transform="matrix(1, 0, 0, 1, 485.683349609375, 239)"><path fill="none" stroke="#fc4f30" paint-order="fill" d="M 0.5 10.5 L 20.5 10.5" stroke-linejoin="bevel" stroke-miterlimit="10" stroke-width="2"/></g></g><g clip-path="url(#bWSzNasHiyUh)"><text fill="#444444" stroke="none" font-family="helvetica" font-size="13px" font-style="normal" font-weight="normal" text-decoration="normal" x="510.683349609375" y="253" text-anchor="start" dominant-baseline="alphabetic" transform="matrix(1, 0, 0, 1, 0.5, 0.5)">ID 006</text></g><g clip-path="url(#bWSzNasHiyUh)"><text fill="none" stroke="rgb(0,0,0)" font-family="helvetica" font-size="13px" font-style="normal" font-weight="normal" text-decoration="normal" x="510.683349609375" y="253" text-anchor="start" dominant-baseline="alphabetic" transform="matrix(1, 0, 0, 1, 0.5, 0.5)" stroke-opacity="0" stroke-linejoin="bevel" stroke-miterlimit="10">ID 006</text></g><text fill="black" stroke="none" font-family="helvetica" font-size="14pt" font-style="normal" font-weight="normal" text-decoration="normal" x="0" y="15" text-anchor="start" dominant-baseline="alphabetic" transform="matrix(1, 0, 0, 1, 5.5, 5.5)">C. Cape Town</text><text fill="none" stroke="rgb(0,0,0)" font-family="helvetica" font-size="14pt" font-style="normal" font-weight="normal" text-decoration="normal" x="0" y="15" text-anchor="start" dominant-baseline="alphabetic" transform="matrix(1, 0, 0, 1, 5.5, 5.5)" stroke-opacity="0" stroke-linejoin="bevel" stroke-miterlimit="10">C. Cape Town</text></svg>