<svg version="1.1" xmlns="http://www.w3.org/2000/svg" width="600" height="334"><defs><clipPath id="KZHiuPDuUzJh"><path fill="none" stroke="none" d="M 70.5 33.5 L 570.5 33.5 L 570.5 283.5 L 70.5 283.5 L 70.5 33.5 Z"/></clipPath><clipPath id="IQzzTPegLSOP"><path fill="none" stroke="none" d="M 70.5 33.5 L 570.5 33.5 L 570.5 283.5 L 70.5 283.5 L 70.5 33.5 Z"/></clipPath><clipPath id="aPWlxHthABQu"><path fill="none" stroke="none" d="M 70.5 33.5 L 570.5 33.5 L 570.5 283.5 L 70.5 283.5 L 70.5 33.5 Z"/></clipPath><clipPath id="TpETKSQKSKwT"><path fill="none" stroke="none" d="M 70.5 33.5 L 570.5 33.5 L 570.5 283.5 L 70.5 283.5 L 70.5 33.5 Z"/></clipPath><clipPath id="AQJacRMwcDzg"><path fill="none" stroke="none" d="M 70.5 33.5 L 570.5 33.5 L 570.5 283.5 L 70.5 283.5 L 70.5 33.5 Z"/></clipPath><clipPath id="OUMTWLfSSBTu"><path fill="none" stroke="none" d="M 70.5 33.5 L 570.5 33.5 L 570.5 283.5 L 70.5 283.5 L 70.5 33.5 Z"/></clipPath><clipPath id="HcvnTamMJvCn"><path fill="none" stroke="none" d="M 70.5 33.5 L 570.5 33.5 L 570.5 283.5 L 70.5 283.5 L 70.5 33.5 Z"/></clipPath><clipPath id="fRhPThKTpbuo"><path fill="none" stroke="none" d="M 70.5 33.5 L 570.5 33.5 L 570.5 283.5 L 70.5 283.5 L 70.5 33.5 Z"/></clipPath><clipPath id="zCweoHackOwg"><path fill="none" stroke="none" d="M 70.5 33.5 L 570.5 33.5 L 570.5 283.5 L 70.5 283.5 L 70.5 33.5 Z"/></clipPath><clipPath id="DfEvVTwOOvDU"><path fill="none" stroke="none" d="M 70.5 33.5 L 570.5 33.5 L 570.5 283.5 L 70.5 283.5 L 70.5 33.5 Z"/></clipPath><clipPath id="tozGvvvXbyqQ"><path fill="none" stroke="none" d="M 70.5 33.5 L 570.5 33.5 L 570.5 283.5 L 70.5 283.5 L 70.5 33.5 Z"/></clipPath><clipPath id="inkdSphigchW"><path fill="none" stroke="none" d="M 70.5 33.5 L 570.5 33.5 L 570.5 283.5 L 70.5 283.5 L 70.5 33.5 Z"/></clipPath><clipPath id="cneLpNLrbQxR"><path fill="none" stroke="none" d="M 70.5 33.5 L 570.5 33.5 L 570.5 283.5 L 70.5 283.5 L 70.5 33.5 Z"/></clipPath><clipPath id="dUVzlyXegyPI"><path fill="none" stroke="none" d="M 70.5 33.5 L 570.5 33.5 L 570.5 283.5 L 70.5 283.5 L 70.5 33.5 Z"/></clipPath><clipPath id="NVkVBgUcxXCH"><path fill="none" stroke="none" d="M 70.5 33.5 L 570.5 33.5 L 570.5 283.5 L 70.5 283.5 L 70.5 33.5 Z"/></clipPath><clipPath id="ozvlCcUlZbDB"><path fill="none" stroke="none" d="M 70.5 33.5 L 570.5 33.5 L 570.5 283.5 L 70.5 283.5 L 70.5 33.5 Z"/></clipPath><clipPath id="AzfNVbssyOHb"><path fill="none" stroke="none" d="M 70.5 33.5 L 570.5 33.5 L 570.5 283.5 L 70.5 283.5 L 70.5 33.5 Z"/></clipPath><clipPath id="AvdWSbSPHWqu"><path fill="none" stroke="none" d="M 70.5 33.5 L 570.5 33.5 L 570.5 283.5 L 70.5 283.5 L 70.5 33.5 Z"/></clipPath><clipPath id="cZTwVQAatTZc"><path fill="none" stroke="none" d="M 70.5 33.5 L 570.5 33.5 L 570.5 283.5 L 70.5 283.5 L 70.5 33.5 Z"/></clipPath><clipPath id="ZWognBMpyAyL"><path fill="none" stroke="none" d="M 70.5 33.5 L 570.5 33.5 L 570.5 283.5 L 70.5 283.5 L 70.5 33.5 Z"/></clipPath><clipPath id="LSpcavQUZfZK"><path fill="none" stroke="none" d="M 70.5 33.5 L 570.5 33.5 L 570.5 283.5 L 70.5 283.5 L 70.5 33.5 Z"/></clipPath><clipPath id="XGVHLlOhLcRL"><path fill="none" stroke="none" d="M 70.5 33.5 L 570.5 33.5 L 570.5 283.5 L 70.5 283.5 L 70.5 33.5 Z"/></clipPath><clipPath id="xrWyeimlMdaw"><path fill="none" stroke="none" d="M 70.5 33.5 L 570.5 33.5 L 570.5 283.5 L 70.5 283.5 L 70.5 33.5 Z"/></clipPath></defs><path fill="none" stroke="#e5e5e5" paint-order="fill" d="M 70.5 33.5 L 570.5 33.5 L 570.5 283.5 L 70.5 283.5 L 70.5 33.5 Z" stroke-linejoin="bevel" stroke-miterlimit="10"/><path fill="none" stroke="black" paint-order="fill" d="M 332.46172248803487 33.5 L 332.46172248803487 283.5" stroke-linejoin="bevel" stroke-miterlimit="10" stroke-width="3" stroke-dasharray="6" clip-path="url(#aPWlxHthABQu)"/><path fill="none" stroke="#9467bd" paint-order="fill" d="M 93.2272720336914 130.64401245117188 L 117.15071868896484 104.49758911132812 L 141.07415771484375 174.8917999267578 L 164.9976043701172 154.77915954589844 L 188.92105102539062 90.41874694824219 L 212.84449768066406 130.64401245117188 L 236.7679443359375 219.13958740234375 L 260.6913757324219 120.58769226074219 L 284.6148376464844 180.9255828857422 L 308.53826904296875 156.79042053222656" stroke-linejoin="bevel" stroke-miterlimit="10" stroke-width="2" clip-path="url(#TpETKSQKSKwT)"/><path fill="none" stroke="#9467bd" paint-order="fill" d="M 93.2272720336914 130.64401245117188 L 117.15071868896484 104.49758911132812 L 141.07415771484375 174.8917999267578 L 164.9976043701172 154.77915954589844 L 188.92105102539062 90.41874694824219 L 212.84449768066406 130.64401245117188 L 236.7679443359375 219.13958740234375 L 260.6913757324219 120.58769226074219 L 284.6148376464844 180.9255828857422 L 308.53826904296875 156.79042053222656" stroke-linejoin="bevel" stroke-miterlimit="10" stroke-width="2" stroke-dasharray="6" clip-path="url(#AQJacRMwcDzg)"/><path fill="none" stroke="#30a2da" paint-order="fill" d="M 308.53826904296875 156.79042053222656 L 332.46173095703125 102.48632049560547 L 356.3851623535156 94.44126892089844 L 380.3086242675781 120.58769226074219 L 404.2320556640625 142.71157836914062 L 428.155517578125 94.44126892089844 L 452.0789489746094 156.79042053222656 L 476.00238037109375 195.00442504882812 L 499.92584228515625 132.6552734375 L 523.8493041992188 148.74537658691406 L 547.772705078125 207.07200622558594" stroke-linejoin="bevel" stroke-miterlimit="10" stroke-width="2" clip-path="url(#OUMTWLfSSBTu)"/><path fill="none" stroke="#30a2da" paint-order="fill" d="M 332.46173095703125 95.83087158203125 L 356.3851623535156 105.53369140625 L 380.3086242675781 115.23651123046875 L 404.2320556640625 124.9393310546875 L 428.155517578125 134.64215087890625 L 452.0789489746094 144.344970703125 L 476.00238037109375 154.04779052734375 L 499.92584228515625 163.7506103515625 L 523.8493041992188 173.45343017578125 L 547.772705078125 183.15625" stroke-linejoin="bevel" stroke-miterlimit="10" stroke-width="2" stroke-dasharray="6" clip-path="url(#HcvnTamMJvCn)"/><path fill="none" stroke="#fc4f30" paint-order="fill" d="M 308.53826904296875 156.79042053222656 L 332.46173095703125 106.50885009765625 L 356.3851623535156 221.15084838867188 L 380.3086242675781 190.98190307617188 L 404.2320556640625 146.73411560058594 L 428.155517578125 142.71157836914062 L 452.0789489746094 156.79042053222656 L 476.00238037109375 166.84674072265625 L 499.92584228515625 140.7003173828125 L 523.8493041992188 166.84674072265625 L 547.772705078125 98.46379852294922" stroke-linejoin="bevel" stroke-miterlimit="10" stroke-width="2" clip-path="url(#fRhPThKTpbuo)"/><path fill="none" stroke="#fc4f30" paint-order="fill" d="M 332.46173095703125 170.94239807128906 L 356.3851623535156 167.12710571289062 L 380.3086242675781 163.31179809570312 L 404.2320556640625 159.49649047851562 L 428.155517578125 155.68118286132812 L 452.0789489746094 151.86587524414062 L 476.00238037109375 148.05056762695312 L 499.92584228515625 144.2352752685547 L 523.8493041992188 140.4199676513672 L 547.772705078125 136.6046600341797" stroke-linejoin="bevel" stroke-miterlimit="10" stroke-width="2" stroke-dasharray="6" clip-path="url(#zCweoHackOwg)"/><path fill="none" stroke="rgb(128,128,128)" paint-order="fill" d="M 93.2272720336914 235.2296905517578 L 117.15071868896484 124.61021423339844 L 141.07415771484375 70.30611419677734 L 164.9976043701172 114.55390167236328 L 188.92105102539062 116.5651626586914 L 212.84449768066406 124.61021423339844 L 236.7679443359375 134.66653442382812 L 260.6913757324219 124.61021423339844 L 284.6148376464844 118.57643127441406 L 308.53826904296875 64.27232360839844" stroke-opacity="0.7490196078431373" stroke-linejoin="bevel" stroke-miterlimit="10" clip-path="url(#DfEvVTwOOvDU)"/><path fill="none" stroke="grey" paint-order="fill" d="M 308.53826904296875 64.27232360839844 L 332.46173095703125 88.40747833251953 L 356.3851623535156 112.54264068603516 L 380.3086242675781 80.3624267578125 L 404.2320556640625 100.47505950927734 L 428.155517578125 92.43000793457031 L 452.0789489746094 92.43000793457031 L 476.00238037109375 156.79042053222656 L 499.92584228515625 146.73411560058594 L 523.8493041992188 195.00442504882812 L 547.772705078125 178.91432189941406" stroke-linejoin="bevel" stroke-miterlimit="10" stroke-width="0.5" clip-path="url(#tozGvvvXbyqQ)"/><path fill="none" stroke="grey" paint-order="fill" d="M 308.53826904296875 64.27232360839844 L 332.46173095703125 98.46379852294922 L 356.3851623535156 132.6552734375 L 380.3086242675781 162.82421875 L 404.2320556640625 180.9255828857422 L 428.155517578125 134.66653442382812 L 452.0789489746094 84.38495635986328 L 476.00238037109375 136.67779541015625 L 499.92584228515625 140.7003173828125 L 523.8493041992188 144.7228546142578 L 547.772705078125 120.58769226074219" stroke-linejoin="bevel" stroke-miterlimit="10" stroke-width="0.5" clip-path="url(#inkdSphigchW)"/><path fill="none" stroke="rgb(128,128,128)" paint-order="fill" d="M 93.2272720336914 124.61021423339844 L 117.15071868896484 126.6214828491211 L 141.07415771484375 90.41874694824219 L 164.9976043701172 146.73411560058594 L 188.92105102539062 140.7003173828125 L 212.84449768066406 110.5313720703125 L 236.7679443359375 100.47505950927734 L 260.6913757324219 92.43000793457031 L 284.6148376464844 150.7566375732422 L 308.53826904296875 116.5651626586914" stroke-opacity="0.7490196078431373" stroke-linejoin="bevel" stroke-miterlimit="10" clip-path="url(#cneLpNLrbQxR)"/><path fill="none" stroke="grey" paint-order="fill" d="M 308.53826904296875 116.5651626586914 L 332.46173095703125 110.5313720703125 L 356.3851623535156 110.5313720703125 L 380.3086242675781 94.44126892089844 L 404.2320556640625 120.58769226074219 L 428.155517578125 130.64401245117188 L 452.0789489746094 86.3962173461914 L 476.00238037109375 56.227272033691406 L 499.92584228515625 114.55390167236328 L 523.8493041992188 96.4525375366211 L 547.772705078125 134.66653442382812" stroke-linejoin="bevel" stroke-miterlimit="10" stroke-width="0.5" clip-path="url(#dUVzlyXegyPI)"/><path fill="none" stroke="grey" paint-order="fill" d="M 308.53826904296875 116.5651626586914 L 332.46173095703125 68.29485321044922 L 356.3851623535156 144.7228546142578 L 380.3086242675781 160.81295776367188 L 404.2320556640625 116.5651626586914 L 428.155517578125 118.57643127441406 L 452.0789489746094 176.90306091308594 L 476.00238037109375 106.50885009765625 L 499.92584228515625 154.77915954589844 L 523.8493041992188 108.52011108398438 L 547.772705078125 96.4525375366211" stroke-linejoin="bevel" stroke-miterlimit="10" stroke-width="0.5" clip-path="url(#NVkVBgUcxXCH)"/><path fill="none" stroke="rgb(128,128,128)" paint-order="fill" d="M 93.2272720336914 144.7228546142578 L 117.15071868896484 116.5651626586914 L 141.07415771484375 102.48632049560547 L 164.9976043701172 112.54264068603516 L 188.92105102539062 192.9931640625 L 212.84449768066406 102.48632049560547 L 236.7679443359375 205.0607452392578 L 260.6913757324219 82.37369537353516 L 284.6148376464844 118.57643127441406 L 308.53826904296875 78.35116577148438" stroke-opacity="0.7490196078431373" stroke-linejoin="bevel" stroke-miterlimit="10" clip-path="url(#ozvlCcUlZbDB)"/><path fill="none" stroke="grey" paint-order="fill" d="M 308.53826904296875 78.35116577148438 L 332.46173095703125 146.73411560058594 L 356.3851623535156 102.48632049560547 L 380.3086242675781 144.7228546142578 L 404.2320556640625 114.55390167236328 L 428.155517578125 170.8692626953125 L 452.0789489746094 104.49758911132812 L 476.00238037109375 146.73411560058594 L 499.92584228515625 118.57643127441406 L 523.8493041992188 170.8692626953125 L 547.772705078125 142.71157836914062" stroke-linejoin="bevel" stroke-miterlimit="10" stroke-width="0.5" clip-path="url(#AzfNVbssyOHb)"/><path fill="none" stroke="grey" paint-order="fill" d="M 308.53826904296875 78.35116577148438 L 332.46173095703125 126.6214828491211 L 356.3851623535156 116.5651626586914 L 380.3086242675781 122.59895324707031 L 404.2320556640625 148.74537658691406 L 428.155517578125 162.82421875 L 452.0789489746094 106.50885009765625 L 476.00238037109375 138.68905639648438 L 499.92584228515625 126.6214828491211 L 523.8493041992188 148.74537658691406 L 547.772705078125 116.5651626586914" stroke-linejoin="bevel" stroke-miterlimit="10" stroke-width="0.5" clip-path="url(#AvdWSbSPHWqu)"/><path fill="none" stroke="rgb(128,128,128)" paint-order="fill" d="M 93.2272720336914 203.0494842529297 L 117.15071868896484 122.59895324707031 L 141.07415771484375 142.71157836914062 L 164.9976043701172 106.50885009765625 L 188.92105102539062 176.90306091308594 L 212.84449768066406 162.82421875 L 236.7679443359375 122.59895324707031 L 260.6913757324219 84.38495635986328 L 284.6148376464844 134.66653442382812 L 308.53826904296875 140.7003173828125" stroke-opacity="0.7490196078431373" stroke-linejoin="bevel" stroke-miterlimit="10" clip-path="url(#cZTwVQAatTZc)"/><path fill="none" stroke="grey" paint-order="fill" d="M 308.53826904296875 140.7003173828125 L 332.46173095703125 116.5651626586914 L 356.3851623535156 138.68905639648438 L 380.3086242675781 84.38495635986328 L 404.2320556640625 108.52011108398438 L 428.155517578125 134.66653442382812 L 452.0789489746094 164.83547973632812 L 476.00238037109375 174.8917999267578 L 499.92584228515625 128.6327362060547 L 523.8493041992188 130.64401245117188 L 547.772705078125 122.59895324707031" stroke-linejoin="bevel" stroke-miterlimit="10" stroke-width="0.5" clip-path="url(#ZWognBMpyAyL)"/><path fill="none" stroke="grey" paint-order="fill" d="M 308.53826904296875 140.7003173828125 L 332.46173095703125 110.5313720703125 L 356.3851623535156 102.48632049560547 L 380.3086242675781 118.57643127441406 L 404.2320556640625 146.73411560058594 L 428.155517578125 150.7566375732422 L 452.0789489746094 114.55390167236328 L 476.00238037109375 160.81295776367188 L 499.92584228515625 158.80169677734375 L 523.8493041992188 108.52011108398438 L 547.772705078125 104.49758911132812" stroke-linejoin="bevel" stroke-miterlimit="10" stroke-width="0.5" clip-path="url(#LSpcavQUZfZK)"/><path fill="none" stroke="black" paint-order="fill" d="M 70.5 283.5 L 570.5 283.5" stroke-linejoin="bevel" stroke-miterlimit="10"/><path fill="none" stroke="black" paint-order="fill" d="M 93.5 289.5 L 93.5 281.5 M 212.5 289.5 L 212.5 281.5 M 332.5 289.5 L 332.5 281.5 M 452.5 289.5 L 452.5 281.5" stroke-linejoin="bevel" stroke-miterlimit="10"/><path fill="none" stroke="black" paint-order="fill" d="M 93.5 287.5 L 93.5 283.5 M 117.5 287.5 L 117.5 283.5 M 141.5 287.5 L 141.5 283.5 M 164.5 287.5 L 164.5 283.5 M 188.5 287.5 L 188.5 283.5 M 212.5 287.5 L 212.5 283.5 M 236.5 287.5 L 236.5 283.5 M 260.5 287.5 L 260.5 283.5 M 284.5 287.5 L 284.5 283.5 M 308.5 287.5 L 308.5 283.5 M 332.5 287.5 L 332.5 283.5 M 356.5 287.5 L 356.5 283.5 M 380.5 287.5 L 380.5 283.5 M 404.5 287.5 L 404.5 283.5 M 428.5 287.5 L 428.5 283.5 M 452.5 287.5 L 452.5 283.5 M 476.5 287.5 L 476.5 283.5 M 499.5 287.5 L 499.5 283.5 M 523.5 287.5 L 523.5 283.5 M 547.5 287.5 L 547.5 283.5" stroke-linejoin="bevel" stroke-miterlimit="10"/><text fill="#444444" stroke="none" font-family="helvetica" font-size="10pt" font-style="normal" font-weight="normal" text-decoration="normal" x="79.36060523986816" y="304" text-anchor="start" dominant-baseline="alphabetic" transform="matrix(1, 0, 0, 1, 0.5, 0.5)">2025</text><text fill="none" stroke="rgb(0,0,0)" font-family="helvetica" font-size="10pt" font-style="normal" font-weight="normal" text-decoration="normal" x="79.36060523986816" y="304" text-anchor="start" dominant-baseline="alphabetic" transform="matrix(1, 0, 0, 1, 0.5, 0.5)" stroke-opacity="0" stroke-linejoin="bevel" stroke-miterlimit="10">2025</text><text fill="#444444" stroke="none" font-family="helvetica" font-size="10pt" font-style="normal" font-weight="normal" text-decoration="normal" x="198.97783088684082" y="304" text-anchor="start" dominant-baseline="alphabetic" transform="matrix(1, 0, 0, 1, 0.5, 0.5)">2030</text><text fill="none" stroke="rgb(0,0,0)" font-family="helvetica" font-size="10pt" font-style="normal" font-weight="normal" text-decoration="normal" x="198.97783088684082" y="304" text-anchor="start" dominant-baseline="alphabetic" transform="matrix(1, 0, 0, 1, 0.5, 0.5)" stroke-opacity="0" stroke-linejoin="bevel" stroke-miterlimit="10">2030</text><text fill="#444444" stroke="none" font-family="helvetica" font-size="10pt" font-style="normal" font-weight="normal" text-decoration="normal" x="318.595064163208" y="304" text-anchor="start" dominant-baseline="alphabetic" transform="matrix(1, 0, 0, 1, 0.5, 0.5)">2035</text><text fill="none" stroke="rgb(0,0,0)" font-family="helvetica" font-size="10pt" font-style="normal" font-weight="normal" text-decoration="normal" x="318.595064163208" y="304" text-anchor="start" dominant-baseline="alphabetic" transform="matrix(1, 0, 0, 1, 0.5, 0.5)" stroke-opacity="0" stroke-linejoin="bevel" stroke-miterlimit="10">2035</text><text fill="#444444" stroke="none" font-family="helvetica" font-size="10pt" font-style="normal" font-weight="normal" text-decoration="normal" x="438.21228218078613" y="304" text-anchor="start" dominant-baseline="alphabetic" transform="matrix(1, 0, 0, 1, 0.5, 0.5)">2040</text><text fill="none" stroke="rgb(0,0,0)" font-family="helvetica" font-size="10pt" font-style="normal" font-weight="normal" text-decoration="normal" x="438.21228218078613" y="304" text-anchor="start" dominant-baseline="alphabetic" transform="matrix(1, 0, 0, 1, 0.5, 0.5)" stroke-opacity="0" stroke-linejoin="bevel" stroke-miterlimit="10">2040</text><text fill="#444444" stroke="none" font-family="helvetica" font-size="12pt" font-style="normal" font-weight="normal" text-decoration="normal" x="305.3166666030884" y="327" text-anchor="start" dominant-baseline="alphabetic" transform="matrix(1, 0, 0, 1, 0.5, 0.5)">Year</text><text fill="none" stroke="rgb(0,0,0)" font-family="helvetica" font-size="12pt" font-style="normal" font-weight="normal" text-decoration="normal" x="305.3166666030884" y="327" text-anchor="start" dominant-baseline="alphabetic" transform="matrix(1, 0, 0, 1, 0.5, 0.5)" stroke-opacity="0" stroke-linejoin="bevel" stroke-miterlimit="10">Year</text><path fill="none" stroke="black" paint-order="fill" d="M 70.5 283.5 L 70.5 33.5" stroke-linejoin="bevel" stroke-miterlimit="10"/><path fill="none" stroke="black" paint-order="fill" d="M 64.5 283.5 L 72.5 283.5 M 64.5 243.5 L 72.5 243.5 M 64.5 203.5 L 72.5 203.5 M 64.5 162.5 L 72.5 162.5 M 64.5 122.5 L 72.5 122.5 M 64.5 82.5 L 72.5 82.5 M 64.5 42.5 L 72.5 42.5" stroke-linejoin="bevel" stroke-miterlimit="10"/><path fill="none" stroke="black" paint-order="fill" d="M 66.5 283.5 L 70.5 283.5 M 66.5 275.5 L 70.5 275.5 M 66.5 267.5 L 70.5 267.5 M 66.5 259.5 L 70.5 259.5 M 66.5 251.5 L 70.5 251.5 M 66.5 243.5 L 70.5 243.5 M 66.5 235.5 L 70.5 235.5 M 66.5 227.5 L 70.5 227.5 M 66.5 219.5 L 70.5 219.5 M 66.5 211.5 L 70.5 211.5 M 66.5 203.5 L 70.5 203.5 M 66.5 195.5 L 70.5 195.5 M 66.5 186.5 L 70.5 186.5 M 66.5 178.5 L 70.5 178.5 M 66.5 170.5 L 70.5 170.5 M 66.5 162.5 L 70.5 162.5 M 66.5 154.5 L 70.5 154.5 M 66.5 146.5 L 70.5 146.5 M 66.5 138.5 L 70.5 138.5 M 66.5 130.5 L 70.5 130.5 M 66.5 122.5 L 70.5 122.5 M 66.5 114.5 L 70.5 114.5 M 66.5 106.5 L 70.5 106.5 M 66.5 98.5 L 70.5 98.5 M 66.5 90.5 L 70.5 90.5 M 66.5 82.5 L 70.5 82.5 M 66.5 74.5 L 70.5 74.5 M 66.5 66.5 L 70.5 66.5 M 66.5 58.5 L 70.5 58.5 M 66.5 50.5 L 70.5 50.5 M 66.5 42.5 L 70.5 42.5 M 66.5 34.5 L 70.5 34.5" stroke-linejoin="bevel" stroke-miterlimit="10"/><text fill="#444444" stroke="none" font-family="helvetica" font-size="10pt" font-style="normal" font-weight="normal" text-decoration="normal" x="52.31666660308838" y="288" text-anchor="start" dominant-baseline="alphabetic" transform="matrix(1, 0, 0, 1, 0.5, 0.5)">0</text><text fill="none" stroke="rgb(0,0,0)" font-family="helvetica" font-size="10pt" font-style="normal" font-weight="normal" text-decoration="normal" x="52.31666660308838" y="288" text-anchor="start" dominant-baseline="alphabetic" transform="matrix(1, 0, 0, 1, 0.5, 0.5)" stroke-opacity="0" stroke-linejoin="bevel" stroke-miterlimit="10">0</text><text fill="#444444" stroke="none" font-family="helvetica" font-size="10pt" font-style="normal" font-weight="normal" text-decoration="normal" x="45.63333320617676" y="247.7747344970703" text-anchor="start" dominant-baseline="alphabetic" transform="matrix(1, 0, 0, 1, 0.5, 0.5)">20</text><text fill="none" stroke="rgb(0,0,0)" font-family="helvetica" font-size="10pt" font-style="normal" font-weight="normal" text-decoration="normal" x="45.63333320617676" y="247.7747344970703" text-anchor="start" dominant-baseline="alphabetic" transform="matrix(1, 0, 0, 1, 0.5, 0.5)" stroke-opacity="0" stroke-linejoin="bevel" stroke-miterlimit="10">20</text><text fill="#444444" stroke="none" font-family="helvetica" font-size="10pt" font-style="normal" font-weight="normal" text-decoration="normal" x="45.63333320617676" y="207.5494842529297" text-anchor="start" dominant-baseline="alphabetic" transform="matrix(1, 0, 0, 1, 0.5, 0.5)">40</text><text fill="none" stroke="rgb(0,0,0)" font-family="helvetica" font-size="10pt" font-style="normal" font-weight="normal" text-decoration="normal" x="45.63333320617676" y="207.5494842529297" text-anchor="start" dominant-baseline="alphabetic" transform="matrix(1, 0, 0, 1, 0.5, 0.5)" stroke-opacity="0" stroke-linejoin="bevel" stroke-miterlimit="10">40</text><text fill="#444444" stroke="none" font-family="helvetica" font-size="10pt" font-style="normal" font-weight="normal" text-decoration="normal" x="45.63333320617676" y="167.32421875" text-anchor="start" dominant-baseline="alphabetic" transform="matrix(1, 0, 0, 1, 0.5, 0.5)">60</text><text fill="none" stroke="rgb(0,0,0)" font-family="helvetica" font-size="10pt" font-style="normal" font-weight="normal" text-decoration="normal" x="45.63333320617676" y="167.32421875" text-anchor="start" dominant-baseline="alphabetic" transform="matrix(1, 0, 0, 1, 0.5, 0.5)" stroke-opacity="0" stroke-linejoin="bevel" stroke-miterlimit="10">60</text><text fill="#444444" stroke="none" font-family="helvetica" font-size="10pt" font-style="normal" font-weight="normal" text-decoration="normal" x="45.63333320617676" y="127.09895324707031" text-anchor="start" dominant-baseline="alphabetic" transform="matrix(1, 0, 0, 1, 0.5, 0.5)">80</text><text fill="none" stroke="rgb(0,0,0)" font-family="helvetica" font-size="10pt" font-style="normal" font-weight="normal" text-decoration="normal" x="45.63333320617676" y="127.09895324707031" text-anchor="start" dominant-baseline="alphabetic" transform="matrix(1, 0, 0, 1, 0.5, 0.5)" stroke-opacity="0" stroke-linejoin="bevel" stroke-miterlimit="10">80</text><text fill="#444444" stroke="none" font-family="helvetica" font-size="10pt" font-style="normal" font-weight="normal" text-decoration="normal" x="38.95000076293945" y="86.87369537353516" text-anchor="start" dominant-baseline="alphabetic" transform="matrix(1, 0, 0, 1, 0.5, 0.5)">100</text><text fill="none" stroke="rgb(0,0,0)" font-family="helvetica" font-size="10pt" font-style="normal" font-weight="normal" text-decoration="normal" x="38.95000076293945" y="86.87369537353516" text-anchor="start" dominant-baseline="alphabetic" transform="matrix(1, 0, 0, 1, 0.5, 0.5)" stroke-opacity="0" stroke-linejoin="bevel" stroke-miterlimit="10">100</text><text fill="#444444" stroke="none" font-family="helvetica" font-size="10pt" font-style="normal" font-weight="normal" text-decoration="normal" x="38.95000076293945" y="46.64842987060547" text-anchor="start" dominant-baseline="alphabetic" transform="matrix(1, 0, 0, 1, 0.5, 0.5)">120</text><text fill="none" stroke="rgb(0,0,0)" font-family="helvetica" font-size="10pt" font-style="normal" font-weight="normal" text-decoration="normal" x="38.95000076293945" y="46.64842987060547" text-anchor="start" dominant-baseline="alphabetic" transform="matrix(1, 0, 0, 1, 0.5, 0.5)" stroke-opacity="0" stroke-linejoin="bevel" stroke-miterlimit="10">120</text><text fill="#444444" stroke="none" font-family="helvetica" font-size="12pt" font-style="normal" font-weight="normal" text-decoration="normal" x="-65.25833511352539" y="154" text-anchor="start" dominant-baseline="alphabetic" transform="matrix(6.123233995736766e-17, -1, 1, 6.123233995736766e-17, -126.54999923706055, 189.45000076293945)">Days suitable for transmission</text><text fill="none" stroke="rgb(0,0,0)" font-family="helvetica" font-size="12pt" font-style="normal" font-weight="normal" text-decoration="normal" x="-65.25833511352539" y="154" text-anchor="start" dominant-baseline="alphabetic" transform="matrix(6.123233995736766e-17, -1, 1, 6.123233995736766e-17, -126.54999923706055, 189.45000076293945)" stroke-opacity="0" stroke-linejoin="bevel" stroke-miterlimit="10">Days suitable for transmission</text><path fill="rgb(255,255,255)" stroke="rgb(229,229,229)" paint-order="fill" d="M 477.0333251953125 208.5 L 560.4999847412109 208.5 L 560.4999847412109 273.5 L 477.0333251953125 273.5 L 477.0333251953125 208.5 Z" fill-opacity="0.9490196078431372" clip-path="url(#XGVHLlOhLcRL)" stroke-opacity="0.5019607843137255" stroke-linejoin="bevel" stroke-miterlimit="10"/><g clip-path="url(#XGVHLlOhLcRL)"><g transform="matrix(1, 0, 0, 1, 487.5333251953125, 219)"><path fill="none" stroke="#30a2da" paint-order="fill" d="M 0.5 10.5 L 20.5 10.5" stroke-linejoin="bevel" stroke-miterlimit="10" stroke-width="2"/></g></g><g clip-path="url(#XGVHLlOhLcRL)"><text fill="#444444" stroke="none" font-family="helvetica" font-size="13px" font-style="normal" font-weight="normal" text-decoration="normal" x="512.5333251953125" y="233.5" text-anchor="start" dominant-baseline="alphabetic" transform="matrix(1, 0, 0, 1, 0.5, 0.5)">ID 001</text></g><g clip-path="url(#XGVHLlOhLcRL)"><text fill="none" stroke="rgb(0,0,0)" font-family="helvetica" font-size="13px" font-style="normal" font-weight="normal" text-decoration="normal" x="512.5333251953125" y="233.5" text-anchor="start" dominant-baseline="alphabetic" transform="matrix(1, 0, 0, 1, 0.5, 0.5)" stroke-opacity="0" stroke-linejoin="bevel" stroke-miterlimit="10">ID 001</text></g><g clip-path="url(#XGVHLlOhLcRL)"><g transform="matrix(1, 0, 0, 1, 487.5333251953125, 242)"><path fill="none" stroke="#fc4f30" paint-order="fill" d="M 0.5 10.5 L 20.5 10.5" stroke-linejoin="bevel" stroke-miterlimit="10" stroke-width="2"/></g></g><g clip-path="url(#XGVHLlOhLcRL)"><text fill="#444444" stroke="none" font-family="helvetica" font-size="13px" font-style="normal" font-weight="normal" text-decoration="normal" x="512.5333251953125" y="256.5" text-anchor="start" dominant-baseline="alphabetic" transform="matrix(1, 0, 0, 1, 0.5, 0.5)">ID 006</text></g><g clip-path="url(#XGVHLlOhLcRL)"><text fill="none" stroke="rgb(0,0,0)" font-family="helvetica" font-size="13px" font-style="normal" font-weight="normal" text-decoration="normal" x="512.5333251953125" y="256.5" text-anchor="start" dominant-baseline="alphabetic" transform="matrix(1, 0, 0, 1, 0.5, 0.5)" stroke-opacity="0" stroke-linejoin="bevel" stroke-miterlimit="10">ID 006</text></g><text fill="black" stroke="none" font-family="helvetica" font-size="14pt" font-style="normal" font-weight="normal" text-decoration="normal" x="0" y="18" text-anchor="start" dominant-baseline="alphabetic" transform="matrix(1, 0, 0, 1, 5.5, 5.5)">A. London</text><text fill="none" stroke="rgb(0,0,0)" font-family="helvetica" font-size="14pt" font-style="normal" font-weight="normal" text-decoration="normal" x="0" y="18" text-anchor="start" dominant-baseline="alphabetic" transform="matrix(1, 0, 0, 1, 5.5, 5.5)" stroke-opacity="0" stroke-linejoin="bevel" stroke-miterlimit="10">A. London</text></svg>