<svg version="1.1" xmlns="http://www.w3.org/2000/svg" width="600" height="334"><defs><clipPath id="TkKXLEUaJXrz"><path fill="none" stroke="none" d="M 70.5 33.5 L 570.5 33.5 L 570.5 283.5 L 70.5 283.5 L 70.5 33.5 Z"/></clipPath><clipPath id="gEgaFbPOmXds"><path fill="none" stroke="none" d="M 70.5 33.5 L 570.5 33.5 L 570.5 283.5 L 70.5 283.5 L 70.5 33.5 Z"/></clipPath><clipPath id="ZCPLKkFCAJtN"><path fill="none" stroke="none" d="M 70.5 33.5 L 570.5 33.5 L 570.5 283.5 L 70.5 283.5 L 70.5 33.5 Z"/></clipPath><clipPath id="OamcyTQNvBLg"><path fill="none" stroke="none" d="M 70.5 33.5 L 570.5 33.5 L 570.5 283.5 L 70.5 283.5 L 70.5 33.5 Z"/></clipPath><clipPath id="BnChFvNlmcTx"><path fill="none" stroke="none" d="M 70.5 33.5 L 570.5 33.5 L 570.5 283.5 L 70.5 283.5 L 70.5 33.5 Z"/></clipPath><clipPath id="MVabwVehFmsW"><path fill="none" stroke="none" d="M 70.5 33.5 L 570.5 33.5 L 570.5 283.5 L 70.5 283.5 L 70.5 33.5 Z"/></clipPath><clipPath id="BCipyShLacFL"><path fill="none" stroke="none" d="M 70.5 33.5 L 570.5 33.5 L 570.5 283.5 L 70.5 283.5 L 70.5 33.5 Z"/></clipPath><clipPath id="hFWrlbWVEsND"><path fill="none" stroke="none" d="M 70.5 33.5 L 570.5 33.5 L 570.5 283.5 L 70.5 283.5 L 70.5 33.5 Z"/></clipPath><clipPath id="OBdIeUTxsfTc"><path fill="none" stroke="none" d="M 70.5 33.5 L 570.5 33.5 L 570.5 283.5 L 70.5 283.5 L 70.5 33.5 Z"/></clipPath><clipPath id="pTNnDnTZGzIP"><path fill="none" stroke="none" d="M 70.5 33.5 L 570.5 33.5 L 570.5 283.5 L 70.5 283.5 L 70.5 33.5 Z"/></clipPath><clipPath id="LMafMtqNTyXX"><path fill="none" stroke="none" d="M 70.5 33.5 L 570.5 33.5 L 570.5 283.5 L 70.5 283.5 L 70.5 33.5 Z"/></clipPath><clipPath id="izXdqeaPoBPH"><path fill="none" stroke="none" d="M 70.5 33.5 L 570.5 33.5 L 570.5 283.5 L 70.5 283.5 L 70.5 33.5 Z"/></clipPath><clipPath id="TxNqycZaGpkz"><path fill="none" stroke="none" d="M 70.5 33.5 L 570.5 33.5 L 570.5 283.5 L 70.5 283.5 L 70.5 33.5 Z"/></clipPath><clipPath id="mugqxgMEVKpP"><path fill="none" stroke="none" d="M 70.5 33.5 L 570.5 33.5 L 570.5 283.5 L 70.5 283.5 L 70.5 33.5 Z"/></clipPath><clipPath id="rcNobzwiDmfX"><path fill="none" stroke="none" d="M 70.5 33.5 L 570.5 33.5 L 570.5 283.5 L 70.5 283.5 L 70.5 33.5 Z"/></clipPath><clipPath id="AnzJgmgnItfl"><path fill="none" stroke="none" d="M 70.5 33.5 L 570.5 33.5 L 570.5 283.5 L 70.5 283.5 L 70.5 33.5 Z"/></clipPath><clipPath id="vVhZJgbgiGik"><path fill="none" stroke="none" d="M 70.5 33.5 L 570.5 33.5 L 570.5 283.5 L 70.5 283.5 L 70.5 33.5 Z"/></clipPath><clipPath id="aHzCUFvsqpzT"><path fill="none" stroke="none" d="M 70.5 33.5 L 570.5 33.5 L 570.5 283.5 L 70.5 283.5 L 70.5 33.5 Z"/></clipPath><clipPath id="biRxIHVeepLP"><path fill="none" stroke="none" d="M 70.5 33.5 L 570.5 33.5 L 570.5 283.5 L 70.5 283.5 L 70.5 33.5 Z"/></clipPath><clipPath id="uCDZWDgqdprp"><path fill="none" stroke="none" d="M 70.5 33.5 L 570.5 33.5 L 570.5 283.5 L 70.5 283.5 L 70.5 33.5 Z"/></clipPath><clipPath id="ZZrdGehfDbaX"><path fill="none" stroke="none" d="M 70.5 33.5 L 570.5 33.5 L 570.5 283.5 L 70.5 283.5 L 70.5 33.5 Z"/></clipPath><clipPath id="vcBkAUJbZkPx"><path fill="none" stroke="none" d="M 70.5 33.5 L 570.5 33.5 L 570.5 283.5 L 70.5 283.5 L 70.5 33.5 Z"/></clipPath><clipPath id="ncplOcNTmAWg"><path fill="none" stroke="none" d="M 70.5 33.5 L 570.5 33.5 L 570.5 283.5 L 70.5 283.5 L 70.5 33.5 Z"/></clipPath></defs><path fill="none" stroke="#e5e5e5" paint-order="fill" d="M 70.5 33.5 L 570.5 33.5 L 570.5 283.5 L 70.5 283.5 L 70.5 33.5 Z" stroke-linejoin="bevel" stroke-miterlimit="10"/><path fill="none" stroke="black" paint-order="fill" d="M 332.46172248803487 33.5 L 332.46172248803487 283.5" stroke-linejoin="bevel" stroke-miterlimit="10" stroke-width="3" stroke-dasharray="6" clip-path="url(#ZCPLKkFCAJtN)"/><path fill="none" stroke="#9467bd" paint-order="fill" d="M 93.2272720336914 106.7323226928711 L 117.15071868896484 115.75108337402344 L 141.07415771484375 97.71356201171875 L 164.9976043701172 76.06854248046875 L 188.92105102539062 142.80735778808594 L 212.84449768066406 117.5548324584961 L 236.7679443359375 106.7323226928711 L 260.6913757324219 88.69480895996094 L 284.6148376464844 97.71356201171875 L 308.53826904296875 117.5548324584961" stroke-linejoin="bevel" stroke-miterlimit="10" stroke-width="2" clip-path="url(#OamcyTQNvBLg)"/><path fill="none" stroke="#9467bd" paint-order="fill" d="M 93.2272720336914 106.7323226928711 L 117.15071868896484 115.75108337402344 L 141.07415771484375 97.71356201171875 L 164.9976043701172 76.06854248046875 L 188.92105102539062 142.80735778808594 L 212.84449768066406 117.5548324584961 L 236.7679443359375 106.7323226928711 L 260.6913757324219 88.69480895996094 L 284.6148376464844 97.71356201171875 L 308.53826904296875 117.5548324584961" stroke-linejoin="bevel" stroke-miterlimit="10" stroke-width="2" stroke-dasharray="6" clip-path="url(#BnChFvNlmcTx)"/><path fill="none" stroke="#30a2da" paint-order="fill" d="M 308.53826904296875 117.5548324584961 L 332.46173095703125 146.41485595703125 L 356.3851623535156 151.82611083984375 L 380.3086242675781 117.5548324584961 L 404.2320556640625 58.03102493286133 L 428.155517578125 106.7323226928711 L 452.0789489746094 56.227272033691406 L 476.00238037109375 117.5548324584961 L 499.92584228515625 95.9098129272461 L 523.8493041992188 81.47979736328125 L 547.772705078125 112.1435775756836" stroke-linejoin="bevel" stroke-miterlimit="10" stroke-width="2" clip-path="url(#MVabwVehFmsW)"/><path fill="none" stroke="#30a2da" paint-order="fill" d="M 332.46173095703125 125.68811798095703 L 356.3851623535156 120.95463562011719 L 380.3086242675781 116.22115325927734 L 404.2320556640625 111.4876708984375 L 428.155517578125 106.75418853759766 L 452.0789489746094 102.02070617675781 L 476.00238037109375 97.28722381591797 L 499.92584228515625 92.55374145507812 L 523.8493041992188 87.82025909423828 L 547.772705078125 83.08677673339844" stroke-linejoin="bevel" stroke-miterlimit="10" stroke-width="2" stroke-dasharray="6" clip-path="url(#BCipyShLacFL)"/><path fill="none" stroke="#fc4f30" paint-order="fill" d="M 308.53826904296875 117.5548324584961 L 332.46173095703125 135.59234619140625 L 356.3851623535156 103.12481689453125 L 380.3086242675781 90.4985580444336 L 404.2320556640625 103.12481689453125 L 428.155517578125 101.3210678100586 L 452.0789489746094 88.69480895996094 L 476.00238037109375 117.5548324584961 L 499.92584228515625 144.61111450195312 L 523.8493041992188 112.1435775756836 L 547.772705078125 131.98484802246094" stroke-linejoin="bevel" stroke-miterlimit="10" stroke-width="2" clip-path="url(#hFWrlbWVEsND)"/><path fill="none" stroke="#fc4f30" paint-order="fill" d="M 332.46173095703125 103.81352233886719 L 356.3851623535156 105.82498168945312 L 380.3086242675781 107.83644104003906 L 404.2320556640625 109.84789276123047 L 428.155517578125 111.8593521118164 L 452.0789489746094 113.87080383300781 L 476.00238037109375 115.88226318359375 L 499.92584228515625 117.89372253417969 L 523.8493041992188 119.9051742553711 L 547.772705078125 121.91663360595703" stroke-linejoin="bevel" stroke-miterlimit="10" stroke-width="2" stroke-dasharray="6" clip-path="url(#OBdIeUTxsfTc)"/><path fill="none" stroke="rgb(128,128,128)" paint-order="fill" d="M 93.2272720336914 141.00360107421875 L 117.15071868896484 150.02236938476562 L 141.07415771484375 113.94732666015625 L 164.9976043701172 90.4985580444336 L 188.92105102539062 117.5548324584961 L 212.84449768066406 94.10606384277344 L 236.7679443359375 61.638526916503906 L 260.6913757324219 117.5548324584961 L 284.6148376464844 94.10606384277344 L 308.53826904296875 76.06854248046875" stroke-opacity="0.7490196078431373" stroke-linejoin="bevel" stroke-miterlimit="10" clip-path="url(#pTNnDnTZGzIP)"/><path fill="none" stroke="grey" paint-order="fill" d="M 308.53826904296875 76.06854248046875 L 332.46173095703125 104.92857360839844 L 356.3851623535156 135.59234619140625 L 380.3086242675781 135.59234619140625 L 404.2320556640625 124.76984405517578 L 428.155517578125 95.9098129272461 L 452.0789489746094 94.10606384277344 L 476.00238037109375 99.51731872558594 L 499.92584228515625 108.53607177734375 L 523.8493041992188 103.12481689453125 L 547.772705078125 117.5548324584961" stroke-linejoin="bevel" stroke-miterlimit="10" stroke-width="0.5" clip-path="url(#LMafMtqNTyXX)"/><path fill="none" stroke="grey" paint-order="fill" d="M 308.53826904296875 76.06854248046875 L 332.46173095703125 81.47979736328125 L 356.3851623535156 133.78860473632812 L 380.3086242675781 121.16233825683594 L 404.2320556640625 104.92857360839844 L 428.155517578125 126.57359313964844 L 452.0789489746094 104.92857360839844 L 476.00238037109375 113.94732666015625 L 499.92584228515625 133.78860473632812 L 523.8493041992188 124.76984405517578 L 547.772705078125 119.35858917236328" stroke-linejoin="bevel" stroke-miterlimit="10" stroke-width="0.5" clip-path="url(#izXdqeaPoBPH)"/><path fill="none" stroke="rgb(128,128,128)" paint-order="fill" d="M 93.2272720336914 85.0873031616211 L 117.15071868896484 103.12481689453125 L 141.07415771484375 126.57359313964844 L 164.9976043701172 88.69480895996094 L 188.92105102539062 137.39610290527344 L 212.84449768066406 94.10606384277344 L 236.7679443359375 101.3210678100586 L 260.6913757324219 108.53607177734375 L 284.6148376464844 72.4610366821289 L 308.53826904296875 115.75108337402344" stroke-opacity="0.7490196078431373" stroke-linejoin="bevel" stroke-miterlimit="10" clip-path="url(#TxNqycZaGpkz)"/><path fill="none" stroke="grey" paint-order="fill" d="M 308.53826904296875 115.75108337402344 L 332.46173095703125 115.75108337402344 L 356.3851623535156 106.7323226928711 L 380.3086242675781 79.6760482788086 L 404.2320556640625 101.3210678100586 L 428.155517578125 61.638526916503906 L 452.0789489746094 108.53607177734375 L 476.00238037109375 94.10606384277344 L 499.92584228515625 137.39610290527344 L 523.8493041992188 131.98484802246094 L 547.772705078125 67.0497817993164" stroke-linejoin="bevel" stroke-miterlimit="10" stroke-width="0.5" clip-path="url(#mugqxgMEVKpP)"/><path fill="none" stroke="grey" paint-order="fill" d="M 308.53826904296875 115.75108337402344 L 332.46173095703125 90.4985580444336 L 356.3851623535156 112.1435775756836 L 380.3086242675781 101.3210678100586 L 404.2320556640625 83.2835464477539 L 428.155517578125 63.44227981567383 L 452.0789489746094 106.7323226928711 L 476.00238037109375 106.7323226928711 L 499.92584228515625 90.4985580444336 L 523.8493041992188 81.47979736328125 L 547.772705078125 110.33982849121094" stroke-linejoin="bevel" stroke-miterlimit="10" stroke-width="0.5" clip-path="url(#rcNobzwiDmfX)"/><path fill="none" stroke="rgb(128,128,128)" paint-order="fill" d="M 93.2272720336914 131.98484802246094 L 117.15071868896484 112.1435775756836 L 141.07415771484375 94.10606384277344 L 164.9976043701172 121.16233825683594 L 188.92105102539062 159.04112243652344 L 212.84449768066406 106.7323226928711 L 236.7679443359375 103.12481689453125 L 260.6913757324219 101.3210678100586 L 284.6148376464844 86.89105224609375 L 308.53826904296875 104.92857360839844" stroke-opacity="0.7490196078431373" stroke-linejoin="bevel" stroke-miterlimit="10" clip-path="url(#AnzJgmgnItfl)"/><path fill="none" stroke="grey" paint-order="fill" d="M 308.53826904296875 104.92857360839844 L 332.46173095703125 90.4985580444336 L 356.3851623535156 110.33982849121094 L 380.3086242675781 119.35858917236328 L 404.2320556640625 121.16233825683594 L 428.155517578125 85.0873031616211 L 452.0789489746094 135.59234619140625 L 476.00238037109375 108.53607177734375 L 499.92584228515625 79.6760482788086 L 523.8493041992188 65.24603271484375 L 547.772705078125 103.12481689453125" stroke-linejoin="bevel" stroke-miterlimit="10" stroke-width="0.5" clip-path="url(#vVhZJgbgiGik)"/><path fill="none" stroke="grey" paint-order="fill" d="M 308.53826904296875 104.92857360839844 L 332.46173095703125 76.06854248046875 L 356.3851623535156 144.61111450195312 L 380.3086242675781 110.33982849121094 L 404.2320556640625 137.39610290527344 L 428.155517578125 137.39610290527344 L 452.0789489746094 74.2647933959961 L 476.00238037109375 88.69480895996094 L 499.92584228515625 63.44227981567383 L 523.8493041992188 59.83477783203125 L 547.772705078125 79.6760482788086" stroke-linejoin="bevel" stroke-miterlimit="10" stroke-width="0.5" clip-path="url(#aHzCUFvsqpzT)"/><path fill="none" stroke="rgb(128,128,128)" paint-order="fill" d="M 93.2272720336914 77.8722915649414 L 117.15071868896484 122.9660873413086 L 141.07415771484375 104.92857360839844 L 164.9976043701172 122.9660873413086 L 188.92105102539062 86.89105224609375 L 212.84449768066406 124.76984405517578 L 236.7679443359375 104.92857360839844 L 260.6913757324219 115.75108337402344 L 284.6148376464844 131.98484802246094 L 308.53826904296875 104.92857360839844" stroke-opacity="0.7490196078431373" stroke-linejoin="bevel" stroke-miterlimit="10" clip-path="url(#biRxIHVeepLP)"/><path fill="none" stroke="grey" paint-order="fill" d="M 308.53826904296875 104.92857360839844 L 332.46173095703125 95.9098129272461 L 356.3851623535156 104.92857360839844 L 380.3086242675781 95.9098129272461 L 404.2320556640625 95.9098129272461 L 428.155517578125 86.89105224609375 L 452.0789489746094 88.69480895996094 L 476.00238037109375 115.75108337402344 L 499.92584228515625 124.76984405517578 L 523.8493041992188 88.69480895996094 L 547.772705078125 99.51731872558594" stroke-linejoin="bevel" stroke-miterlimit="10" stroke-width="0.5" clip-path="url(#uCDZWDgqdprp)"/><path fill="none" stroke="grey" paint-order="fill" d="M 308.53826904296875 104.92857360839844 L 332.46173095703125 122.9660873413086 L 356.3851623535156 97.71356201171875 L 380.3086242675781 117.5548324584961 L 404.2320556640625 97.71356201171875 L 428.155517578125 115.75108337402344 L 452.0789489746094 124.76984405517578 L 476.00238037109375 122.9660873413086 L 499.92584228515625 122.9660873413086 L 523.8493041992188 86.89105224609375 L 547.772705078125 68.8535385131836" stroke-linejoin="bevel" stroke-miterlimit="10" stroke-width="0.5" clip-path="url(#ZZrdGehfDbaX)"/><path fill="none" stroke="black" paint-order="fill" d="M 70.5 283.5 L 570.5 283.5" stroke-linejoin="bevel" stroke-miterlimit="10"/><path fill="none" stroke="black" paint-order="fill" d="M 93.5 289.5 L 93.5 281.5 M 212.5 289.5 L 212.5 281.5 M 332.5 289.5 L 332.5 281.5 M 452.5 289.5 L 452.5 281.5" stroke-linejoin="bevel" stroke-miterlimit="10"/><path fill="none" stroke="black" paint-order="fill" d="M 93.5 287.5 L 93.5 283.5 M 117.5 287.5 L 117.5 283.5 M 141.5 287.5 L 141.5 283.5 M 164.5 287.5 L 164.5 283.5 M 188.5 287.5 L 188.5 283.5 M 212.5 287.5 L 212.5 283.5 M 236.5 287.5 L 236.5 283.5 M 260.5 287.5 L 260.5 283.5 M 284.5 287.5 L 284.5 283.5 M 308.5 287.5 L 308.5 283.5 M 332.5 287.5 L 332.5 283.5 M 356.5 287.5 L 356.5 283.5 M 380.5 287.5 L 380.5 283.5 M 404.5 287.5 L 404.5 283.5 M 428.5 287.5 L 428.5 283.5 M 452.5 287.5 L 452.5 283.5 M 476.5 287.5 L 476.5 283.5 M 499.5 287.5 L 499.5 283.5 M 523.5 287.5 L 523.5 283.5 M 547.5 287.5 L 547.5 283.5" stroke-linejoin="bevel" stroke-miterlimit="10"/><text fill="#444444" stroke="none" font-family="helvetica" font-size="10pt" font-style="normal" font-weight="normal" text-decoration="normal" x="79.36060523986816" y="304" text-anchor="start" dominant-baseline="alphabetic" transform="matrix(1, 0, 0, 1, 0.5, 0.5)">2025</text><text fill="none" stroke="rgb(0,0,0)" font-family="helvetica" font-size="10pt" font-style="normal" font-weight="normal" text-decoration="normal" x="79.36060523986816" y="304" text-anchor="start" dominant-baseline="alphabetic" transform="matrix(1, 0, 0, 1, 0.5, 0.5)" stroke-opacity="0" stroke-linejoin="bevel" stroke-miterlimit="10">2025</text><text fill="#444444" stroke="none" font-family="helvetica" font-size="10pt" font-style="normal" font-weight="normal" text-decoration="normal" x="198.97783088684082" y="304" text-anchor="start" dominant-baseline="alphabetic" transform="matrix(1, 0, 0, 1, 0.5, 0.5)">2030</text><text fill="none" stroke="rgb(0,0,0)" font-family="helvetica" font-size="10pt" font-style="normal" font-weight="normal" text-decoration="normal" x="198.97783088684082" y="304" text-anchor="start" dominant-baseline="alphabetic" transform="matrix(1, 0, 0, 1, 0.5, 0.5)" stroke-opacity="0" stroke-linejoin="bevel" stroke-miterlimit="10">2030</text><text fill="#444444" stroke="none" font-family="helvetica" font-size="10pt" font-style="normal" font-weight="normal" text-decoration="normal" x="318.595064163208" y="304" text-anchor="start" dominant-baseline="alphabetic" transform="matrix(1, 0, 0, 1, 0.5, 0.5)">2035</text><text fill="none" stroke="rgb(0,0,0)" font-family="helvetica" font-size="10pt" font-style="normal" font-weight="normal" text-decoration="normal" x="318.595064163208" y="304" text-anchor="start" dominant-baseline="alphabetic" transform="matrix(1, 0, 0, 1, 0.5, 0.5)" stroke-opacity="0" stroke-linejoin="bevel" stroke-miterlimit="10">2035</text><text fill="#444444" stroke="none" font-family="helvetica" font-size="10pt" font-style="normal" font-weight="normal" text-decoration="normal" x="438.21228218078613" y="304" text-anchor="start" dominant-baseline="alphabetic" transform="matrix(1, 0, 0, 1, 0.5, 0.5)">2040</text><text fill="none" stroke="rgb(0,0,0)" font-family="helvetica" font-size="10pt" font-style="normal" font-weight="normal" text-decoration="normal" x="438.21228218078613" y="304" text-anchor="start" dominant-baseline="alphabetic" transform="matrix(1, 0, 0, 1, 0.5, 0.5)" stroke-opacity="0" stroke-linejoin="bevel" stroke-miterlimit="10">2040</text><text fill="#444444" stroke="none" font-family="helvetica" font-size="12pt" font-style="normal" font-weight="normal" text-decoration="normal" x="305.3166666030884" y="327" text-anchor="start" dominant-baseline="alphabetic" transform="matrix(1, 0, 0, 1, 0.5, 0.5)">Year</text><text fill="none" stroke="rgb(0,0,0)" font-family="helvetica" font-size="12pt" font-style="normal" font-weight="normal" text-decoration="normal" x="305.3166666030884" y="327" text-anchor="start" dominant-baseline="alphabetic" transform="matrix(1, 0, 0, 1, 0.5, 0.5)" stroke-opacity="0" stroke-linejoin="bevel" stroke-miterlimit="10">Year</text><path fill="none" stroke="black" paint-order="fill" d="M 70.5 283.5 L 70.5 33.5" stroke-linejoin="bevel" stroke-miterlimit="10"/><path fill="none" stroke="black" paint-order="fill" d="M 64.5 283.5 L 72.5 283.5 M 64.5 247.5 L 72.5 247.5 M 64.5 211.5 L 72.5 211.5 M 64.5 175.5 L 72.5 175.5 M 64.5 139.5 L 72.5 139.5 M 64.5 103.5 L 72.5 103.5 M 64.5 67.5 L 72.5 67.5" stroke-linejoin="bevel" stroke-miterlimit="10"/><path fill="none" stroke="black" paint-order="fill" d="M 66.5 283.5 L 70.5 283.5 M 66.5 276.5 L 70.5 276.5 M 66.5 269.5 L 70.5 269.5 M 66.5 261.5 L 70.5 261.5 M 66.5 254.5 L 70.5 254.5 M 66.5 247.5 L 70.5 247.5 M 66.5 240.5 L 70.5 240.5 M 66.5 232.5 L 70.5 232.5 M 66.5 225.5 L 70.5 225.5 M 66.5 218.5 L 70.5 218.5 M 66.5 211.5 L 70.5 211.5 M 66.5 204.5 L 70.5 204.5 M 66.5 196.5 L 70.5 196.5 M 66.5 189.5 L 70.5 189.5 M 66.5 182.5 L 70.5 182.5 M 66.5 175.5 L 70.5 175.5 M 66.5 168.5 L 70.5 168.5 M 66.5 160.5 L 70.5 160.5 M 66.5 153.5 L 70.5 153.5 M 66.5 146.5 L 70.5 146.5 M 66.5 139.5 L 70.5 139.5 M 66.5 131.5 L 70.5 131.5 M 66.5 124.5 L 70.5 124.5 M 66.5 117.5 L 70.5 117.5 M 66.5 110.5 L 70.5 110.5 M 66.5 103.5 L 70.5 103.5 M 66.5 95.5 L 70.5 95.5 M 66.5 88.5 L 70.5 88.5 M 66.5 81.5 L 70.5 81.5 M 66.5 74.5 L 70.5 74.5 M 66.5 67.5 L 70.5 67.5 M 66.5 59.5 L 70.5 59.5 M 66.5 52.5 L 70.5 52.5 M 66.5 45.5 L 70.5 45.5 M 66.5 38.5 L 70.5 38.5" stroke-linejoin="bevel" stroke-miterlimit="10"/><text fill="#444444" stroke="none" font-family="helvetica" font-size="10pt" font-style="normal" font-weight="normal" text-decoration="normal" x="52.31666660308838" y="288" text-anchor="start" dominant-baseline="alphabetic" transform="matrix(1, 0, 0, 1, 0.5, 0.5)">0</text><text fill="none" stroke="rgb(0,0,0)" font-family="helvetica" font-size="10pt" font-style="normal" font-weight="normal" text-decoration="normal" x="52.31666660308838" y="288" text-anchor="start" dominant-baseline="alphabetic" transform="matrix(1, 0, 0, 1, 0.5, 0.5)" stroke-opacity="0" stroke-linejoin="bevel" stroke-miterlimit="10">0</text><text fill="#444444" stroke="none" font-family="helvetica" font-size="10pt" font-style="normal" font-weight="normal" text-decoration="normal" x="45.63333320617676" y="251.92495727539062" text-anchor="start" dominant-baseline="alphabetic" transform="matrix(1, 0, 0, 1, 0.5, 0.5)">20</text><text fill="none" stroke="rgb(0,0,0)" font-family="helvetica" font-size="10pt" font-style="normal" font-weight="normal" text-decoration="normal" x="45.63333320617676" y="251.92495727539062" text-anchor="start" dominant-baseline="alphabetic" transform="matrix(1, 0, 0, 1, 0.5, 0.5)" stroke-opacity="0" stroke-linejoin="bevel" stroke-miterlimit="10">20</text><text fill="#444444" stroke="none" font-family="helvetica" font-size="10pt" font-style="normal" font-weight="normal" text-decoration="normal" x="45.63333320617676" y="215.8499298095703" text-anchor="start" dominant-baseline="alphabetic" transform="matrix(1, 0, 0, 1, 0.5, 0.5)">40</text><text fill="none" stroke="rgb(0,0,0)" font-family="helvetica" font-size="10pt" font-style="normal" font-weight="normal" text-decoration="normal" x="45.63333320617676" y="215.8499298095703" text-anchor="start" dominant-baseline="alphabetic" transform="matrix(1, 0, 0, 1, 0.5, 0.5)" stroke-opacity="0" stroke-linejoin="bevel" stroke-miterlimit="10">40</text><text fill="#444444" stroke="none" font-family="helvetica" font-size="10pt" font-style="normal" font-weight="normal" text-decoration="normal" x="45.63333320617676" y="179.77488708496094" text-anchor="start" dominant-baseline="alphabetic" transform="matrix(1, 0, 0, 1, 0.5, 0.5)">60</text><text fill="none" stroke="rgb(0,0,0)" font-family="helvetica" font-size="10pt" font-style="normal" font-weight="normal" text-decoration="normal" x="45.63333320617676" y="179.77488708496094" text-anchor="start" dominant-baseline="alphabetic" transform="matrix(1, 0, 0, 1, 0.5, 0.5)" stroke-opacity="0" stroke-linejoin="bevel" stroke-miterlimit="10">60</text><text fill="#444444" stroke="none" font-family="helvetica" font-size="10pt" font-style="normal" font-weight="normal" text-decoration="normal" x="45.63333320617676" y="143.69985961914062" text-anchor="start" dominant-baseline="alphabetic" transform="matrix(1, 0, 0, 1, 0.5, 0.5)">80</text><text fill="none" stroke="rgb(0,0,0)" font-family="helvetica" font-size="10pt" font-style="normal" font-weight="normal" text-decoration="normal" x="45.63333320617676" y="143.69985961914062" text-anchor="start" dominant-baseline="alphabetic" transform="matrix(1, 0, 0, 1, 0.5, 0.5)" stroke-opacity="0" stroke-linejoin="bevel" stroke-miterlimit="10">80</text><text fill="#444444" stroke="none" font-family="helvetica" font-size="10pt" font-style="normal" font-weight="normal" text-decoration="normal" x="38.95000076293945" y="107.62481689453125" text-anchor="start" dominant-baseline="alphabetic" transform="matrix(1, 0, 0, 1, 0.5, 0.5)">100</text><text fill="none" stroke="rgb(0,0,0)" font-family="helvetica" font-size="10pt" font-style="normal" font-weight="normal" text-decoration="normal" x="38.95000076293945" y="107.62481689453125" text-anchor="start" dominant-baseline="alphabetic" transform="matrix(1, 0, 0, 1, 0.5, 0.5)" stroke-opacity="0" stroke-linejoin="bevel" stroke-miterlimit="10">100</text><text fill="#444444" stroke="none" font-family="helvetica" font-size="10pt" font-style="normal" font-weight="normal" text-decoration="normal" x="38.95000076293945" y="71.5497817993164" text-anchor="start" dominant-baseline="alphabetic" transform="matrix(1, 0, 0, 1, 0.5, 0.5)">120</text><text fill="none" stroke="rgb(0,0,0)" font-family="helvetica" font-size="10pt" font-style="normal" font-weight="normal" text-decoration="normal" x="38.95000076293945" y="71.5497817993164" text-anchor="start" dominant-baseline="alphabetic" transform="matrix(1, 0, 0, 1, 0.5, 0.5)" stroke-opacity="0" stroke-linejoin="bevel" stroke-miterlimit="10">120</text><text fill="#444444" stroke="none" font-family="helvetica" font-size="12pt" font-style="normal" font-weight="normal" text-decoration="normal" x="-65.25833511352539" y="154" text-anchor="start" dominant-baseline="alphabetic" transform="matrix(6.123233995736766e-17, -1, 1, 6.123233995736766e-17, -126.54999923706055, 189.45000076293945)">Days suitable for transmission</text><text fill="none" stroke="rgb(0,0,0)" font-family="helvetica" font-size="12pt" font-style="normal" font-weight="normal" text-decoration="normal" x="-65.25833511352539" y="154" text-anchor="start" dominant-baseline="alphabetic" transform="matrix(6.123233995736766e-17, -1, 1, 6.123233995736766e-17, -126.54999923706055, 189.45000076293945)" stroke-opacity="0" stroke-linejoin="bevel" stroke-miterlimit="10">Days suitable for transmission</text><path fill="rgb(255,255,255)" stroke="rgb(229,229,229)" paint-order="fill" d="M 477.0333251953125 208.5 L 560.4999847412109 208.5 L 560.4999847412109 273.5 L 477.0333251953125 273.5 L 477.0333251953125 208.5 Z" fill-opacity="0.9490196078431372" clip-path="url(#vcBkAUJbZkPx)" stroke-opacity="0.5019607843137255" stroke-linejoin="bevel" stroke-miterlimit="10"/><g clip-path="url(#vcBkAUJbZkPx)"><g transform="matrix(1, 0, 0, 1, 487.5333251953125, 219)"><path fill="none" stroke="#30a2da" paint-order="fill" d="M 0.5 10.5 L 20.5 10.5" stroke-linejoin="bevel" stroke-miterlimit="10" stroke-width="2"/></g></g><g clip-path="url(#vcBkAUJbZkPx)"><text fill="#444444" stroke="none" font-family="helvetica" font-size="13px" font-style="normal" font-weight="normal" text-decoration="normal" x="512.5333251953125" y="233.5" text-anchor="start" dominant-baseline="alphabetic" transform="matrix(1, 0, 0, 1, 0.5, 0.5)">ID 001</text></g><g clip-path="url(#vcBkAUJbZkPx)"><text fill="none" stroke="rgb(0,0,0)" font-family="helvetica" font-size="13px" font-style="normal" font-weight="normal" text-decoration="normal" x="512.5333251953125" y="233.5" text-anchor="start" dominant-baseline="alphabetic" transform="matrix(1, 0, 0, 1, 0.5, 0.5)" stroke-opacity="0" stroke-linejoin="bevel" stroke-miterlimit="10">ID 001</text></g><g clip-path="url(#vcBkAUJbZkPx)"><g transform="matrix(1, 0, 0, 1, 487.5333251953125, 242)"><path fill="none" stroke="#fc4f30" paint-order="fill" d="M 0.5 10.5 L 20.5 10.5" stroke-linejoin="bevel" stroke-miterlimit="10" stroke-width="2"/></g></g><g clip-path="url(#vcBkAUJbZkPx)"><text fill="#444444" stroke="none" font-family="helvetica" font-size="13px" font-style="normal" font-weight="normal" text-decoration="normal" x="512.5333251953125" y="256.5" text-anchor="start" dominant-baseline="alphabetic" transform="matrix(1, 0, 0, 1, 0.5, 0.5)">ID 006</text></g><g clip-path="url(#vcBkAUJbZkPx)"><text fill="none" stroke="rgb(0,0,0)" font-family="helvetica" font-size="13px" font-style="normal" font-weight="normal" text-decoration="normal" x="512.5333251953125" y="256.5" text-anchor="start" dominant-baseline="alphabetic" transform="matrix(1, 0, 0, 1, 0.5, 0.5)" stroke-opacity="0" stroke-linejoin="bevel" stroke-miterlimit="10">ID 006</text></g><text fill="black" stroke="none" font-family="helvetica" font-size="14pt" font-style="normal" font-weight="normal" text-decoration="normal" x="0" y="18" text-anchor="start" dominant-baseline="alphabetic" transform="matrix(1, 0, 0, 1, 5.5, 5.5)">B. Seattle</text><text fill="none" stroke="rgb(0,0,0)" font-family="helvetica" font-size="14pt" font-style="normal" font-weight="normal" text-decoration="normal" x="0" y="18" text-anchor="start" dominant-baseline="alphabetic" transform="matrix(1, 0, 0, 1, 5.5, 5.5)" stroke-opacity="0" stroke-linejoin="bevel" stroke-miterlimit="10">B. Seattle</text></svg>