<svg version="1.1" xmlns="http://www.w3.org/2000/svg" width="600" height="334"><defs><clipPath id="poRIeJFtTSCg"><path fill="none" stroke="none" d="M 70.5 33.5 L 570.5 33.5 L 570.5 283.5 L 70.5 283.5 L 70.5 33.5 Z"/></clipPath><clipPath id="fuykmJvMUyAB"><path fill="none" stroke="none" d="M 70.5 33.5 L 570.5 33.5 L 570.5 283.5 L 70.5 283.5 L 70.5 33.5 Z"/></clipPath><clipPath id="oWyTQUVZyZLo"><path fill="none" stroke="none" d="M 70.5 33.5 L 570.5 33.5 L 570.5 283.5 L 70.5 283.5 L 70.5 33.5 Z"/></clipPath><clipPath id="kXqHOdDrTTWT"><path fill="none" stroke="none" d="M 70.5 33.5 L 570.5 33.5 L 570.5 283.5 L 70.5 283.5 L 70.5 33.5 Z"/></clipPath><clipPath id="TBapaJgvJbqo"><path fill="none" stroke="none" d="M 70.5 33.5 L 570.5 33.5 L 570.5 283.5 L 70.5 283.5 L 70.5 33.5 Z"/></clipPath><clipPath id="reJRHbrTEKdl"><path fill="none" stroke="none" d="M 70.5 33.5 L 570.5 33.5 L 570.5 283.5 L 70.5 283.5 L 70.5 33.5 Z"/></clipPath><clipPath id="qJddpnwTtJGo"><path fill="none" stroke="none" d="M 70.5 33.5 L 570.5 33.5 L 570.5 283.5 L 70.5 283.5 L 70.5 33.5 Z"/></clipPath><clipPath id="JPPRVPPfWqyK"><path fill="none" stroke="none" d="M 70.5 33.5 L 570.5 33.5 L 570.5 283.5 L 70.5 283.5 L 70.5 33.5 Z"/></clipPath><clipPath id="HgQTyhhkfkeO"><path fill="none" stroke="none" d="M 70.5 33.5 L 570.5 33.5 L 570.5 283.5 L 70.5 283.5 L 70.5 33.5 Z"/></clipPath><clipPath id="usyHoHCXGIyc"><path fill="none" stroke="none" d="M 70.5 33.5 L 570.5 33.5 L 570.5 283.5 L 70.5 283.5 L 70.5 33.5 Z"/></clipPath><clipPath id="zqsEDmUyeoOd"><path fill="none" stroke="none" d="M 70.5 33.5 L 570.5 33.5 L 570.5 283.5 L 70.5 283.5 L 70.5 33.5 Z"/></clipPath><clipPath id="klmJwccciwST"><path fill="none" stroke="none" d="M 70.5 33.5 L 570.5 33.5 L 570.5 283.5 L 70.5 283.5 L 70.5 33.5 Z"/></clipPath><clipPath id="PRHyhbAQsrUq"><path fill="none" stroke="none" d="M 70.5 33.5 L 570.5 33.5 L 570.5 283.5 L 70.5 283.5 L 70.5 33.5 Z"/></clipPath><clipPath id="TINhIdfOcEJs"><path fill="none" stroke="none" d="M 70.5 33.5 L 570.5 33.5 L 570.5 283.5 L 70.5 283.5 L 70.5 33.5 Z"/></clipPath><clipPath id="covSnvccTKAs"><path fill="none" stroke="none" d="M 70.5 33.5 L 570.5 33.5 L 570.5 283.5 L 70.5 283.5 L 70.5 33.5 Z"/></clipPath><clipPath id="VqVLigPvLyDU"><path fill="none" stroke="none" d="M 70.5 33.5 L 570.5 33.5 L 570.5 283.5 L 70.5 283.5 L 70.5 33.5 Z"/></clipPath><clipPath id="pcFOaawGwUKM"><path fill="none" stroke="none" d="M 70.5 33.5 L 570.5 33.5 L 570.5 283.5 L 70.5 283.5 L 70.5 33.5 Z"/></clipPath><clipPath id="mdNINQCvJMZa"><path fill="none" stroke="none" d="M 70.5 33.5 L 570.5 33.5 L 570.5 283.5 L 70.5 283.5 L 70.5 33.5 Z"/></clipPath><clipPath id="lsuurddzvdlF"><path fill="none" stroke="none" d="M 70.5 33.5 L 570.5 33.5 L 570.5 283.5 L 70.5 283.5 L 70.5 33.5 Z"/></clipPath><clipPath id="yHflWSriwSDT"><path fill="none" stroke="none" d="M 70.5 33.5 L 570.5 33.5 L 570.5 283.5 L 70.5 283.5 L 70.5 33.5 Z"/></clipPath><clipPath id="shXfVbMnTUsV"><path fill="none" stroke="none" d="M 70.5 33.5 L 570.5 33.5 L 570.5 283.5 L 70.5 283.5 L 70.5 33.5 Z"/></clipPath><clipPath id="PmITBByNRelV"><path fill="none" stroke="none" d="M 70.5 33.5 L 570.5 33.5 L 570.5 283.5 L 70.5 283.5 L 70.5 33.5 Z"/></clipPath><clipPath id="asencuRobNuy"><path fill="none" stroke="none" d="M 70.5 33.5 L 570.5 33.5 L 570.5 283.5 L 70.5 283.5 L 70.5 33.5 Z"/></clipPath></defs><path fill="none" stroke="#e5e5e5" paint-order="fill" d="M 70.5 33.5 L 570.5 33.5 L 570.5 283.5 L 70.5 283.5 L 70.5 33.5 Z" stroke-linejoin="bevel" stroke-miterlimit="10"/><path fill="none" stroke="black" paint-order="fill" d="M 332.46172248803487 33.5 L 332.46172248803487 283.5" stroke-linejoin="bevel" stroke-miterlimit="10" stroke-width="3" stroke-dasharray="6" clip-path="url(#oWyTQUVZyZLo)"/><path fill="none" stroke="#9467bd" paint-order="fill" d="M 93.2272720336914 97.04810333251953 L 117.15071868896484 68.36319732666016 L 141.07415771484375 83.80891418457031 L 164.9976043701172 88.22197723388672 L 188.92105102539062 86.01544952392578 L 212.84449768066406 74.9827880859375 L 236.7679443359375 83.80891418457031 L 260.6913757324219 95.94483947753906 L 284.6148376464844 70.5697250366211 L 308.53826904296875 88.22197723388672" stroke-linejoin="bevel" stroke-miterlimit="10" stroke-width="2" clip-path="url(#kXqHOdDrTTWT)"/><path fill="none" stroke="#9467bd" paint-order="fill" d="M 93.2272720336914 97.04810333251953 L 117.15071868896484 68.36319732666016 L 141.07415771484375 83.80891418457031 L 164.9976043701172 88.22197723388672 L 188.92105102539062 86.01544952392578 L 212.84449768066406 74.9827880859375 L 236.7679443359375 83.80891418457031 L 260.6913757324219 95.94483947753906 L 284.6148376464844 70.5697250366211 L 308.53826904296875 88.22197723388672" stroke-linejoin="bevel" stroke-miterlimit="10" stroke-width="2" stroke-dasharray="6" clip-path="url(#TBapaJgvJbqo)"/><path fill="none" stroke="#30a2da" paint-order="fill" d="M 308.53826904296875 88.22197723388672 L 332.46173095703125 80.49911499023438 L 356.3851623535156 69.46646118164062 L 380.3086242675781 84.91217803955078 L 404.2320556640625 93.7383041381836 L 428.155517578125 89.32524108886719 L 452.0789489746094 71.67298889160156 L 476.00238037109375 88.22197723388672 L 499.92584228515625 68.36319732666016 L 523.8493041992188 81.60238647460938 L 547.772705078125 80.49911499023438" stroke-linejoin="bevel" stroke-miterlimit="10" stroke-width="2" clip-path="url(#reJRHbrTEKdl)"/><path fill="none" stroke="#30a2da" paint-order="fill" d="M 332.46173095703125 81.70268249511719 L 356.3851623535156 81.50877380371094 L 380.3086242675781 81.31486511230469 L 404.2320556640625 81.12095642089844 L 428.155517578125 80.92704772949219 L 452.0789489746094 80.73314666748047 L 476.00238037109375 80.53923797607422 L 499.92584228515625 80.34532928466797 L 523.8493041992188 80.15142059326172 L 547.772705078125 79.95751190185547" stroke-linejoin="bevel" stroke-miterlimit="10" stroke-width="2" stroke-dasharray="6" clip-path="url(#qJddpnwTtJGo)"/><path fill="none" stroke="#fc4f30" paint-order="fill" d="M 308.53826904296875 88.22197723388672 L 332.46173095703125 63.95013427734375 L 356.3851623535156 57.33053970336914 L 380.3086242675781 80.49911499023438 L 404.2320556640625 72.77626037597656 L 428.155517578125 73.87952423095703 L 452.0789489746094 91.53177642822266 L 476.00238037109375 79.3958511352539 L 499.92584228515625 89.32524108886719 L 523.8493041992188 71.67298889160156 L 547.772705078125 103.66769409179688" stroke-linejoin="bevel" stroke-miterlimit="10" stroke-width="2" clip-path="url(#JPPRVPPfWqyK)"/><path fill="none" stroke="#fc4f30" paint-order="fill" d="M 332.46173095703125 63.689361572265625 L 356.3851623535156 66.95903778076172 L 380.3086242675781 70.22871398925781 L 404.2320556640625 73.49839782714844 L 428.155517578125 76.76807403564453 L 452.0789489746094 80.03775024414062 L 476.00238037109375 83.30742645263672 L 499.92584228515625 86.57711029052734 L 523.8493041992188 89.84678649902344 L 547.772705078125 93.11646270751953" stroke-linejoin="bevel" stroke-miterlimit="10" stroke-width="2" stroke-dasharray="6" clip-path="url(#HgQTyhhkfkeO)"/><path fill="none" stroke="rgb(128,128,128)" paint-order="fill" d="M 93.2272720336914 83.80891418457031 L 117.15071868896484 72.77626037597656 L 141.07415771484375 72.77626037597656 L 164.9976043701172 72.77626037597656 L 188.92105102539062 90.42850494384766 L 212.84449768066406 93.7383041381836 L 236.7679443359375 69.46646118164062 L 260.6913757324219 78.29258728027344 L 284.6148376464844 68.36319732666016 L 308.53826904296875 67.25992584228516" stroke-opacity="0.7490196078431373" stroke-linejoin="bevel" stroke-miterlimit="10" clip-path="url(#usyHoHCXGIyc)"/><path fill="none" stroke="grey" paint-order="fill" d="M 308.53826904296875 67.25992584228516 L 332.46173095703125 73.87952423095703 L 356.3851623535156 57.33053970336914 L 380.3086242675781 91.53177642822266 L 404.2320556640625 56.227272033691406 L 428.155517578125 69.46646118164062 L 452.0789489746094 108.08075714111328 L 476.00238037109375 86.01544952392578 L 499.92584228515625 71.67298889160156 L 523.8493041992188 88.22197723388672 L 547.772705078125 90.42850494384766" stroke-linejoin="bevel" stroke-miterlimit="10" stroke-width="0.5" clip-path="url(#zqsEDmUyeoOd)"/><path fill="none" stroke="grey" paint-order="fill" d="M 308.53826904296875 67.25992584228516 L 332.46173095703125 60.64033508300781 L 356.3851623535156 72.77626037597656 L 380.3086242675781 68.36319732666016 L 404.2320556640625 71.67298889160156 L 428.155517578125 77.18932342529297 L 452.0789489746094 77.18932342529297 L 476.00238037109375 88.22197723388672 L 499.92584228515625 91.53177642822266 L 523.8493041992188 79.3958511352539 L 547.772705078125 77.18932342529297" stroke-linejoin="bevel" stroke-miterlimit="10" stroke-width="0.5" clip-path="url(#klmJwccciwST)"/><path fill="none" stroke="rgb(128,128,128)" paint-order="fill" d="M 93.2272720336914 73.87952423095703 L 117.15071868896484 74.9827880859375 L 141.07415771484375 80.49911499023438 L 164.9976043701172 81.60238647460938 L 188.92105102539062 70.5697250366211 L 212.84449768066406 70.5697250366211 L 236.7679443359375 90.42850494384766 L 260.6913757324219 79.3958511352539 L 284.6148376464844 61.74360275268555 L 308.53826904296875 99.25463104248047" stroke-opacity="0.7490196078431373" stroke-linejoin="bevel" stroke-miterlimit="10" clip-path="url(#PRHyhbAQsrUq)"/><path fill="none" stroke="grey" paint-order="fill" d="M 308.53826904296875 99.25463104248047 L 332.46173095703125 71.67298889160156 L 356.3851623535156 73.87952423095703 L 380.3086242675781 68.36319732666016 L 404.2320556640625 76.08605194091797 L 428.155517578125 69.46646118164062 L 452.0789489746094 76.08605194091797 L 476.00238037109375 110.28729248046875 L 499.92584228515625 98.1513671875 L 523.8493041992188 80.49911499023438 L 547.772705078125 86.01544952392578" stroke-linejoin="bevel" stroke-miterlimit="10" stroke-width="0.5" clip-path="url(#TINhIdfOcEJs)"/><path fill="none" stroke="grey" paint-order="fill" d="M 308.53826904296875 99.25463104248047 L 332.46173095703125 82.70565032958984 L 356.3851623535156 97.04810333251953 L 380.3086242675781 65.05339813232422 L 404.2320556640625 102.5644302368164 L 428.155517578125 76.08605194091797 L 452.0789489746094 67.25992584228516 L 476.00238037109375 97.04810333251953 L 499.92584228515625 91.53177642822266 L 523.8493041992188 74.9827880859375 L 547.772705078125 87.11871337890625" stroke-linejoin="bevel" stroke-miterlimit="10" stroke-width="0.5" clip-path="url(#covSnvccTKAs)"/><path fill="none" stroke="rgb(128,128,128)" paint-order="fill" d="M 93.2272720336914 68.36319732666016 L 117.15071868896484 88.22197723388672 L 141.07415771484375 88.22197723388672 L 164.9976043701172 69.46646118164062 L 188.92105102539062 78.29258728027344 L 212.84449768066406 93.7383041381836 L 236.7679443359375 66.15666198730469 L 260.6913757324219 68.36319732666016 L 284.6148376464844 87.11871337890625 L 308.53826904296875 69.46646118164062" stroke-opacity="0.7490196078431373" stroke-linejoin="bevel" stroke-miterlimit="10" clip-path="url(#VqVLigPvLyDU)"/><path fill="none" stroke="grey" paint-order="fill" d="M 308.53826904296875 69.46646118164062 L 332.46173095703125 92.63504028320312 L 356.3851623535156 74.9827880859375 L 380.3086242675781 71.67298889160156 L 404.2320556640625 89.32524108886719 L 428.155517578125 91.53177642822266 L 452.0789489746094 81.60238647460938 L 476.00238037109375 68.36319732666016 L 499.92584228515625 81.60238647460938 L 523.8493041992188 86.01544952392578 L 547.772705078125 86.01544952392578" stroke-linejoin="bevel" stroke-miterlimit="10" stroke-width="0.5" clip-path="url(#pcFOaawGwUKM)"/><path fill="none" stroke="grey" paint-order="fill" d="M 308.53826904296875 69.46646118164062 L 332.46173095703125 74.9827880859375 L 356.3851623535156 99.25463104248047 L 380.3086242675781 97.04810333251953 L 404.2320556640625 84.91217803955078 L 428.155517578125 63.95013427734375 L 452.0789489746094 84.91217803955078 L 476.00238037109375 72.77626037597656 L 499.92584228515625 87.11871337890625 L 523.8493041992188 66.15666198730469 L 547.772705078125 72.77626037597656" stroke-linejoin="bevel" stroke-miterlimit="10" stroke-width="0.5" clip-path="url(#mdNINQCvJMZa)"/><path fill="none" stroke="rgb(128,128,128)" paint-order="fill" d="M 93.2272720336914 97.04810333251953 L 117.15071868896484 68.36319732666016 L 141.07415771484375 65.05339813232422 L 164.9976043701172 78.29258728027344 L 188.92105102539062 88.22197723388672 L 212.84449768066406 86.01544952392578 L 236.7679443359375 63.95013427734375 L 260.6913757324219 79.3958511352539 L 284.6148376464844 76.08605194091797 L 308.53826904296875 66.15666198730469" stroke-opacity="0.7490196078431373" stroke-linejoin="bevel" stroke-miterlimit="10" clip-path="url(#lsuurddzvdlF)"/><path fill="none" stroke="grey" paint-order="fill" d="M 308.53826904296875 66.15666198730469 L 332.46173095703125 88.22197723388672 L 356.3851623535156 88.22197723388672 L 380.3086242675781 81.60238647460938 L 404.2320556640625 86.01544952392578 L 428.155517578125 81.60238647460938 L 452.0789489746094 61.74360275268555 L 476.00238037109375 87.11871337890625 L 499.92584228515625 72.77626037597656 L 523.8493041992188 79.3958511352539 L 547.772705078125 98.1513671875" stroke-linejoin="bevel" stroke-miterlimit="10" stroke-width="0.5" clip-path="url(#yHflWSriwSDT)"/><path fill="none" stroke="grey" paint-order="fill" d="M 308.53826904296875 66.15666198730469 L 332.46173095703125 92.63504028320312 L 356.3851623535156 68.36319732666016 L 380.3086242675781 77.18932342529297 L 404.2320556640625 78.29258728027344 L 428.155517578125 58.43380355834961 L 452.0789489746094 80.49911499023438 L 476.00238037109375 88.22197723388672 L 499.92584228515625 91.53177642822266 L 523.8493041992188 81.60238647460938 L 547.772705078125 94.84156799316406" stroke-linejoin="bevel" stroke-miterlimit="10" stroke-width="0.5" clip-path="url(#shXfVbMnTUsV)"/><path fill="none" stroke="black" paint-order="fill" d="M 70.5 283.5 L 570.5 283.5" stroke-linejoin="bevel" stroke-miterlimit="10"/><path fill="none" stroke="black" paint-order="fill" d="M 93.5 289.5 L 93.5 281.5 M 212.5 289.5 L 212.5 281.5 M 332.5 289.5 L 332.5 281.5 M 452.5 289.5 L 452.5 281.5" stroke-linejoin="bevel" stroke-miterlimit="10"/><path fill="none" stroke="black" paint-order="fill" d="M 93.5 287.5 L 93.5 283.5 M 117.5 287.5 L 117.5 283.5 M 141.5 287.5 L 141.5 283.5 M 164.5 287.5 L 164.5 283.5 M 188.5 287.5 L 188.5 283.5 M 212.5 287.5 L 212.5 283.5 M 236.5 287.5 L 236.5 283.5 M 260.5 287.5 L 260.5 283.5 M 284.5 287.5 L 284.5 283.5 M 308.5 287.5 L 308.5 283.5 M 332.5 287.5 L 332.5 283.5 M 356.5 287.5 L 356.5 283.5 M 380.5 287.5 L 380.5 283.5 M 404.5 287.5 L 404.5 283.5 M 428.5 287.5 L 428.5 283.5 M 452.5 287.5 L 452.5 283.5 M 476.5 287.5 L 476.5 283.5 M 499.5 287.5 L 499.5 283.5 M 523.5 287.5 L 523.5 283.5 M 547.5 287.5 L 547.5 283.5" stroke-linejoin="bevel" stroke-miterlimit="10"/><text fill="#444444" stroke="none" font-family="helvetica" font-size="10pt" font-style="normal" font-weight="normal" text-decoration="normal" x="79.36060523986816" y="304" text-anchor="start" dominant-baseline="alphabetic" transform="matrix(1, 0, 0, 1, 0.5, 0.5)">2025</text><text fill="none" stroke="rgb(0,0,0)" font-family="helvetica" font-size="10pt" font-style="normal" font-weight="normal" text-decoration="normal" x="79.36060523986816" y="304" text-anchor="start" dominant-baseline="alphabetic" transform="matrix(1, 0, 0, 1, 0.5, 0.5)" stroke-opacity="0" stroke-linejoin="bevel" stroke-miterlimit="10">2025</text><text fill="#444444" stroke="none" font-family="helvetica" font-size="10pt" font-style="normal" font-weight="normal" text-decoration="normal" x="198.97783088684082" y="304" text-anchor="start" dominant-baseline="alphabetic" transform="matrix(1, 0, 0, 1, 0.5, 0.5)">2030</text><text fill="none" stroke="rgb(0,0,0)" font-family="helvetica" font-size="10pt" font-style="normal" font-weight="normal" text-decoration="normal" x="198.97783088684082" y="304" text-anchor="start" dominant-baseline="alphabetic" transform="matrix(1, 0, 0, 1, 0.5, 0.5)" stroke-opacity="0" stroke-linejoin="bevel" stroke-miterlimit="10">2030</text><text fill="#444444" stroke="none" font-family="helvetica" font-size="10pt" font-style="normal" font-weight="normal" text-decoration="normal" x="318.595064163208" y="304" text-anchor="start" dominant-baseline="alphabetic" transform="matrix(1, 0, 0, 1, 0.5, 0.5)">2035</text><text fill="none" stroke="rgb(0,0,0)" font-family="helvetica" font-size="10pt" font-style="normal" font-weight="normal" text-decoration="normal" x="318.595064163208" y="304" text-anchor="start" dominant-baseline="alphabetic" transform="matrix(1, 0, 0, 1, 0.5, 0.5)" stroke-opacity="0" stroke-linejoin="bevel" stroke-miterlimit="10">2035</text><text fill="#444444" stroke="none" font-family="helvetica" font-size="10pt" font-style="normal" font-weight="normal" text-decoration="normal" x="438.21228218078613" y="304" text-anchor="start" dominant-baseline="alphabetic" transform="matrix(1, 0, 0, 1, 0.5, 0.5)">2040</text><text fill="none" stroke="rgb(0,0,0)" font-family="helvetica" font-size="10pt" font-style="normal" font-weight="normal" text-decoration="normal" x="438.21228218078613" y="304" text-anchor="start" dominant-baseline="alphabetic" transform="matrix(1, 0, 0, 1, 0.5, 0.5)" stroke-opacity="0" stroke-linejoin="bevel" stroke-miterlimit="10">2040</text><text fill="#444444" stroke="none" font-family="helvetica" font-size="12pt" font-style="normal" font-weight="normal" text-decoration="normal" x="305.3166666030884" y="327" text-anchor="start" dominant-baseline="alphabetic" transform="matrix(1, 0, 0, 1, 0.5, 0.5)">Year</text><text fill="none" stroke="rgb(0,0,0)" font-family="helvetica" font-size="12pt" font-style="normal" font-weight="normal" text-decoration="normal" x="305.3166666030884" y="327" text-anchor="start" dominant-baseline="alphabetic" transform="matrix(1, 0, 0, 1, 0.5, 0.5)" stroke-opacity="0" stroke-linejoin="bevel" stroke-miterlimit="10">Year</text><path fill="none" stroke="black" paint-order="fill" d="M 70.5 283.5 L 70.5 33.5" stroke-linejoin="bevel" stroke-miterlimit="10"/><path fill="none" stroke="black" paint-order="fill" d="M 64.5 283.5 L 72.5 283.5 M 64.5 228.5 L 72.5 228.5 M 64.5 173.5 L 72.5 173.5 M 64.5 118.5 L 72.5 118.5 M 64.5 62.5 L 72.5 62.5" stroke-linejoin="bevel" stroke-miterlimit="10"/><path fill="none" stroke="black" paint-order="fill" d="M 66.5 283.5 L 70.5 283.5 M 66.5 272.5 L 70.5 272.5 M 66.5 261.5 L 70.5 261.5 M 66.5 250.5 L 70.5 250.5 M 66.5 239.5 L 70.5 239.5 M 66.5 228.5 L 70.5 228.5 M 66.5 217.5 L 70.5 217.5 M 66.5 206.5 L 70.5 206.5 M 66.5 195.5 L 70.5 195.5 M 66.5 184.5 L 70.5 184.5 M 66.5 173.5 L 70.5 173.5 M 66.5 162.5 L 70.5 162.5 M 66.5 151.5 L 70.5 151.5 M 66.5 140.5 L 70.5 140.5 M 66.5 129.5 L 70.5 129.5 M 66.5 118.5 L 70.5 118.5 M 66.5 106.5 L 70.5 106.5 M 66.5 95.5 L 70.5 95.5 M 66.5 84.5 L 70.5 84.5 M 66.5 73.5 L 70.5 73.5 M 66.5 62.5 L 70.5 62.5 M 66.5 51.5 L 70.5 51.5 M 66.5 40.5 L 70.5 40.5" stroke-linejoin="bevel" stroke-miterlimit="10"/><text fill="#444444" stroke="none" font-family="helvetica" font-size="10pt" font-style="normal" font-weight="normal" text-decoration="normal" x="52.31666660308838" y="288" text-anchor="start" dominant-baseline="alphabetic" transform="matrix(1, 0, 0, 1, 0.5, 0.5)">0</text><text fill="none" stroke="rgb(0,0,0)" font-family="helvetica" font-size="10pt" font-style="normal" font-weight="normal" text-decoration="normal" x="52.31666660308838" y="288" text-anchor="start" dominant-baseline="alphabetic" transform="matrix(1, 0, 0, 1, 0.5, 0.5)" stroke-opacity="0" stroke-linejoin="bevel" stroke-miterlimit="10">0</text><text fill="#444444" stroke="none" font-family="helvetica" font-size="10pt" font-style="normal" font-weight="normal" text-decoration="normal" x="45.63333320617676" y="232.8367156982422" text-anchor="start" dominant-baseline="alphabetic" transform="matrix(1, 0, 0, 1, 0.5, 0.5)">50</text><text fill="none" stroke="rgb(0,0,0)" font-family="helvetica" font-size="10pt" font-style="normal" font-weight="normal" text-decoration="normal" x="45.63333320617676" y="232.8367156982422" text-anchor="start" dominant-baseline="alphabetic" transform="matrix(1, 0, 0, 1, 0.5, 0.5)" stroke-opacity="0" stroke-linejoin="bevel" stroke-miterlimit="10">50</text><text fill="#444444" stroke="none" font-family="helvetica" font-size="10pt" font-style="normal" font-weight="normal" text-decoration="normal" x="38.95000076293945" y="177.67343139648438" text-anchor="start" dominant-baseline="alphabetic" transform="matrix(1, 0, 0, 1, 0.5, 0.5)">100</text><text fill="none" stroke="rgb(0,0,0)" font-family="helvetica" font-size="10pt" font-style="normal" font-weight="normal" text-decoration="normal" x="38.95000076293945" y="177.67343139648438" text-anchor="start" dominant-baseline="alphabetic" transform="matrix(1, 0, 0, 1, 0.5, 0.5)" stroke-opacity="0" stroke-linejoin="bevel" stroke-miterlimit="10">100</text><text fill="#444444" stroke="none" font-family="helvetica" font-size="10pt" font-style="normal" font-weight="normal" text-decoration="normal" x="38.95000076293945" y="122.51014709472656" text-anchor="start" dominant-baseline="alphabetic" transform="matrix(1, 0, 0, 1, 0.5, 0.5)">150</text><text fill="none" stroke="rgb(0,0,0)" font-family="helvetica" font-size="10pt" font-style="normal" font-weight="normal" text-decoration="normal" x="38.95000076293945" y="122.51014709472656" text-anchor="start" dominant-baseline="alphabetic" transform="matrix(1, 0, 0, 1, 0.5, 0.5)" stroke-opacity="0" stroke-linejoin="bevel" stroke-miterlimit="10">150</text><text fill="#444444" stroke="none" font-family="helvetica" font-size="10pt" font-style="normal" font-weight="normal" text-decoration="normal" x="38.95000076293945" y="67.34686660766602" text-anchor="start" dominant-baseline="alphabetic" transform="matrix(1, 0, 0, 1, 0.5, 0.5)">200</text><text fill="none" stroke="rgb(0,0,0)" font-family="helvetica" font-size="10pt" font-style="normal" font-weight="normal" text-decoration="normal" x="38.95000076293945" y="67.34686660766602" text-anchor="start" dominant-baseline="alphabetic" transform="matrix(1, 0, 0, 1, 0.5, 0.5)" stroke-opacity="0" stroke-linejoin="bevel" stroke-miterlimit="10">200</text><text fill="#444444" stroke="none" font-family="helvetica" font-size="12pt" font-style="normal" font-weight="normal" text-decoration="normal" x="-65.25833511352539" y="154" text-anchor="start" dominant-baseline="alphabetic" transform="matrix(6.123233995736766e-17, -1, 1, 6.123233995736766e-17, -126.54999923706055, 189.45000076293945)">Days suitable for transmission</text><text fill="none" stroke="rgb(0,0,0)" font-family="helvetica" font-size="12pt" font-style="normal" font-weight="normal" text-decoration="normal" x="-65.25833511352539" y="154" text-anchor="start" dominant-baseline="alphabetic" transform="matrix(6.123233995736766e-17, -1, 1, 6.123233995736766e-17, -126.54999923706055, 189.45000076293945)" stroke-opacity="0" stroke-linejoin="bevel" stroke-miterlimit="10">Days suitable for transmission</text><path fill="rgb(255,255,255)" stroke="rgb(229,229,229)" paint-order="fill" d="M 477.0333251953125 208.5 L 560.4999847412109 208.5 L 560.4999847412109 273.5 L 477.0333251953125 273.5 L 477.0333251953125 208.5 Z" fill-opacity="0.9490196078431372" clip-path="url(#PmITBByNRelV)" stroke-opacity="0.5019607843137255" stroke-linejoin="bevel" stroke-miterlimit="10"/><g clip-path="url(#PmITBByNRelV)"><g transform="matrix(1, 0, 0, 1, 487.5333251953125, 219)"><path fill="none" stroke="#30a2da" paint-order="fill" d="M 0.5 10.5 L 20.5 10.5" stroke-linejoin="bevel" stroke-miterlimit="10" stroke-width="2"/></g></g><g clip-path="url(#PmITBByNRelV)"><text fill="#444444" stroke="none" font-family="helvetica" font-size="13px" font-style="normal" font-weight="normal" text-decoration="normal" x="512.5333251953125" y="233.5" text-anchor="start" dominant-baseline="alphabetic" transform="matrix(1, 0, 0, 1, 0.5, 0.5)">ID 001</text></g><g clip-path="url(#PmITBByNRelV)"><text fill="none" stroke="rgb(0,0,0)" font-family="helvetica" font-size="13px" font-style="normal" font-weight="normal" text-decoration="normal" x="512.5333251953125" y="233.5" text-anchor="start" dominant-baseline="alphabetic" transform="matrix(1, 0, 0, 1, 0.5, 0.5)" stroke-opacity="0" stroke-linejoin="bevel" stroke-miterlimit="10">ID 001</text></g><g clip-path="url(#PmITBByNRelV)"><g transform="matrix(1, 0, 0, 1, 487.5333251953125, 242)"><path fill="none" stroke="#fc4f30" paint-order="fill" d="M 0.5 10.5 L 20.5 10.5" stroke-linejoin="bevel" stroke-miterlimit="10" stroke-width="2"/></g></g><g clip-path="url(#PmITBByNRelV)"><text fill="#444444" stroke="none" font-family="helvetica" font-size="13px" font-style="normal" font-weight="normal" text-decoration="normal" x="512.5333251953125" y="256.5" text-anchor="start" dominant-baseline="alphabetic" transform="matrix(1, 0, 0, 1, 0.5, 0.5)">ID 006</text></g><g clip-path="url(#PmITBByNRelV)"><text fill="none" stroke="rgb(0,0,0)" font-family="helvetica" font-size="13px" font-style="normal" font-weight="normal" text-decoration="normal" x="512.5333251953125" y="256.5" text-anchor="start" dominant-baseline="alphabetic" transform="matrix(1, 0, 0, 1, 0.5, 0.5)" stroke-opacity="0" stroke-linejoin="bevel" stroke-miterlimit="10">ID 006</text></g><text fill="black" stroke="none" font-family="helvetica" font-size="14pt" font-style="normal" font-weight="normal" text-decoration="normal" x="0" y="18" text-anchor="start" dominant-baseline="alphabetic" transform="matrix(1, 0, 0, 1, 5.5, 5.5)">D. Santiago de Chile</text><text fill="none" stroke="rgb(0,0,0)" font-family="helvetica" font-size="14pt" font-style="normal" font-weight="normal" text-decoration="normal" x="0" y="18" text-anchor="start" dominant-baseline="alphabetic" transform="matrix(1, 0, 0, 1, 5.5, 5.5)" stroke-opacity="0" stroke-linejoin="bevel" stroke-miterlimit="10">D. Santiago de Chile</text></svg>