<svg version="1.1" xmlns="http://www.w3.org/2000/svg" width="600" height="329"><defs><clipPath id="IRzyxUZUioIx"><path fill="none" stroke="none" d="M 70.5 30.5 L 570.5 30.5 L 570.5 280.5 L 70.5 280.5 L 70.5 30.5 Z"/></clipPath><clipPath id="ihqKzBTlSHyQ"><path fill="none" stroke="none" d="M 70.5 30.5 L 570.5 30.5 L 570.5 280.5 L 70.5 280.5 L 70.5 30.5 Z"/></clipPath><clipPath id="icEEWASzmIGx"><path fill="none" stroke="none" d="M 70.5 30.5 L 570.5 30.5 L 570.5 280.5 L 70.5 280.5 L 70.5 30.5 Z"/></clipPath><clipPath id="tDVPSFkxSSUi"><path fill="none" stroke="none" d="M 70.5 30.5 L 570.5 30.5 L 570.5 280.5 L 70.5 280.5 L 70.5 30.5 Z"/></clipPath><clipPath id="umiCFTwCGcnh"><path fill="none" stroke="none" d="M 70.5 30.5 L 570.5 30.5 L 570.5 280.5 L 70.5 280.5 L 70.5 30.5 Z"/></clipPath><clipPath id="WnDTdJfDlcMf"><path fill="none" stroke="none" d="M 70.5 30.5 L 570.5 30.5 L 570.5 280.5 L 70.5 280.5 L 70.5 30.5 Z"/></clipPath><clipPath id="cTEeUDCDxRAU"><path fill="none" stroke="none" d="M 70.5 30.5 L 570.5 30.5 L 570.5 280.5 L 70.5 280.5 L 70.5 30.5 Z"/></clipPath><clipPath id="gUdTcpgeRZxG"><path fill="none" stroke="none" d="M 70.5 30.5 L 570.5 30.5 L 570.5 280.5 L 70.5 280.5 L 70.5 30.5 Z"/></clipPath><clipPath id="prihRrVGWypP"><path fill="none" stroke="none" d="M 70.5 30.5 L 570.5 30.5 L 570.5 280.5 L 70.5 280.5 L 70.5 30.5 Z"/></clipPath><clipPath id="PkpDpxpDfJCR"><path fill="none" stroke="none" d="M 70.5 30.5 L 570.5 30.5 L 570.5 280.5 L 70.5 280.5 L 70.5 30.5 Z"/></clipPath><clipPath id="bsNULbNCOQoS"><path fill="none" stroke="none" d="M 70.5 30.5 L 570.5 30.5 L 570.5 280.5 L 70.5 280.5 L 70.5 30.5 Z"/></clipPath><clipPath id="UuNAofzzuZHq"><path fill="none" stroke="none" d="M 70.5 30.5 L 570.5 30.5 L 570.5 280.5 L 70.5 280.5 L 70.5 30.5 Z"/></clipPath><clipPath id="bTnTHmHAWnoc"><path fill="none" stroke="none" d="M 70.5 30.5 L 570.5 30.5 L 570.5 280.5 L 70.5 280.5 L 70.5 30.5 Z"/></clipPath><clipPath id="qDwtzneWXOTg"><path fill="none" stroke="none" d="M 70.5 30.5 L 570.5 30.5 L 570.5 280.5 L 70.5 280.5 L 70.5 30.5 Z"/></clipPath><clipPath id="OlMeCSNShaEy"><path fill="none" stroke="none" d="M 70.5 30.5 L 570.5 30.5 L 570.5 280.5 L 70.5 280.5 L 70.5 30.5 Z"/></clipPath><clipPath id="NWhTmzrqInvX"><path fill="none" stroke="none" d="M 70.5 30.5 L 570.5 30.5 L 570.5 280.5 L 70.5 280.5 L 70.5 30.5 Z"/></clipPath><clipPath id="MkHZESvsiGZG"><path fill="none" stroke="none" d="M 70.5 30.5 L 570.5 30.5 L 570.5 280.5 L 70.5 280.5 L 70.5 30.5 Z"/></clipPath><clipPath id="nBIimksgiHek"><path fill="none" stroke="none" d="M 70.5 30.5 L 570.5 30.5 L 570.5 280.5 L 70.5 280.5 L 70.5 30.5 Z"/></clipPath><clipPath id="gzbUzThHBfQD"><path fill="none" stroke="none" d="M 70.5 30.5 L 570.5 30.5 L 570.5 280.5 L 70.5 280.5 L 70.5 30.5 Z"/></clipPath><clipPath id="GqynHUHlrqMM"><path fill="none" stroke="none" d="M 70.5 30.5 L 570.5 30.5 L 570.5 280.5 L 70.5 280.5 L 70.5 30.5 Z"/></clipPath><clipPath id="ywCQxTlMXxNe"><path fill="none" stroke="none" d="M 70.5 30.5 L 570.5 30.5 L 570.5 280.5 L 70.5 280.5 L 70.5 30.5 Z"/></clipPath><clipPath id="vGDvqIkARghH"><path fill="none" stroke="none" d="M 70.5 30.5 L 570.5 30.5 L 570.5 280.5 L 70.5 280.5 L 70.5 30.5 Z"/></clipPath><clipPath id="tpCDTwUGlrRP"><path fill="none" stroke="none" d="M 70.5 30.5 L 570.5 30.5 L 570.5 280.5 L 70.5 280.5 L 70.5 30.5 Z"/></clipPath></defs><path fill="none" stroke="#e5e5e5" paint-order="fill" d="M 70.5 30.5 L 570.5 30.5 L 570.5 280.5 L 70.5 280.5 L 70.5 30.5 Z" stroke-linejoin="bevel" stroke-miterlimit="10"/><path fill="none" stroke="black" paint-order="fill" d="M 332.46172248803487 30.5 L 332.46172248803487 280.5" stroke-linejoin="bevel" stroke-miterlimit="10" stroke-width="3" stroke-dasharray="6" clip-path="url(#icEEWASzmIGx)"/><path fill="none" stroke="#9467bd" paint-order="fill" d="M 93.2272720336914 103.7323226928711 L 117.15071868896484 112.75108337402344 L 141.07415771484375 94.71356201171875 L 164.9976043701172 73.06854248046875 L 188.92105102539062 139.80735778808594 L 212.84449768066406 114.5548324584961 L 236.7679443359375 103.7323226928711 L 260.6913757324219 85.69480895996094 L 284.6148376464844 94.71356201171875 L 308.53826904296875 114.5548324584961" stroke-linejoin="bevel" stroke-miterlimit="10" stroke-width="2" clip-path="url(#tDVPSFkxSSUi)"/><path fill="none" stroke="#9467bd" paint-order="fill" d="M 93.2272720336914 103.7323226928711 L 117.15071868896484 112.75108337402344 L 141.07415771484375 94.71356201171875 L 164.9976043701172 73.06854248046875 L 188.92105102539062 139.80735778808594 L 212.84449768066406 114.5548324584961 L 236.7679443359375 103.7323226928711 L 260.6913757324219 85.69480895996094 L 284.6148376464844 94.71356201171875 L 308.53826904296875 114.5548324584961" stroke-linejoin="bevel" stroke-miterlimit="10" stroke-width="2" stroke-dasharray="6" clip-path="url(#umiCFTwCGcnh)"/><path fill="none" stroke="#30a2da" paint-order="fill" d="M 308.53826904296875 114.5548324584961 L 332.46173095703125 143.41485595703125 L 356.3851623535156 148.82611083984375 L 380.3086242675781 114.5548324584961 L 404.2320556640625 55.03102493286133 L 428.155517578125 103.7323226928711 L 452.0789489746094 53.227272033691406 L 476.00238037109375 114.5548324584961 L 499.92584228515625 92.9098129272461 L 523.8493041992188 78.47979736328125 L 547.772705078125 109.1435775756836" stroke-linejoin="bevel" stroke-miterlimit="10" stroke-width="2" clip-path="url(#WnDTdJfDlcMf)"/><path fill="none" stroke="#30a2da" paint-order="fill" d="M 332.46173095703125 122.68811798095703 L 356.3851623535156 117.95463562011719 L 380.3086242675781 113.22115325927734 L 404.2320556640625 108.4876708984375 L 428.155517578125 103.75418853759766 L 452.0789489746094 99.02070617675781 L 476.00238037109375 94.28722381591797 L 499.92584228515625 89.55374145507812 L 523.8493041992188 84.82025909423828 L 547.772705078125 80.08677673339844" stroke-linejoin="bevel" stroke-miterlimit="10" stroke-width="2" stroke-dasharray="6" clip-path="url(#cTEeUDCDxRAU)"/><path fill="none" stroke="#fc4f30" paint-order="fill" d="M 308.53826904296875 114.5548324584961 L 332.46173095703125 132.59234619140625 L 356.3851623535156 100.12481689453125 L 380.3086242675781 87.4985580444336 L 404.2320556640625 100.12481689453125 L 428.155517578125 98.3210678100586 L 452.0789489746094 85.69480895996094 L 476.00238037109375 114.5548324584961 L 499.92584228515625 141.61111450195312 L 523.8493041992188 109.1435775756836 L 547.772705078125 128.98484802246094" stroke-linejoin="bevel" stroke-miterlimit="10" stroke-width="2" clip-path="url(#gUdTcpgeRZxG)"/><path fill="none" stroke="#fc4f30" paint-order="fill" d="M 332.46173095703125 100.81352233886719 L 356.3851623535156 102.82498168945312 L 380.3086242675781 104.83644104003906 L 404.2320556640625 106.84789276123047 L 428.155517578125 108.8593521118164 L 452.0789489746094 110.87080383300781 L 476.00238037109375 112.88226318359375 L 499.92584228515625 114.89372253417969 L 523.8493041992188 116.9051742553711 L 547.772705078125 118.91663360595703" stroke-linejoin="bevel" stroke-miterlimit="10" stroke-width="2" stroke-dasharray="6" clip-path="url(#prihRrVGWypP)"/><path fill="none" stroke="rgb(128,128,128)" paint-order="fill" d="M 93.2272720336914 138.00360107421875 L 117.15071868896484 147.02236938476562 L 141.07415771484375 110.94732666015625 L 164.9976043701172 87.4985580444336 L 188.92105102539062 114.5548324584961 L 212.84449768066406 91.10606384277344 L 236.7679443359375 58.638526916503906 L 260.6913757324219 114.5548324584961 L 284.6148376464844 91.10606384277344 L 308.53826904296875 73.06854248046875" stroke-opacity="0.7490196078431373" stroke-linejoin="bevel" stroke-miterlimit="10" clip-path="url(#PkpDpxpDfJCR)"/><path fill="none" stroke="grey" paint-order="fill" d="M 308.53826904296875 73.06854248046875 L 332.46173095703125 101.92857360839844 L 356.3851623535156 132.59234619140625 L 380.3086242675781 132.59234619140625 L 404.2320556640625 121.76984405517578 L 428.155517578125 92.9098129272461 L 452.0789489746094 91.10606384277344 L 476.00238037109375 96.51731872558594 L 499.92584228515625 105.53607177734375 L 523.8493041992188 100.12481689453125 L 547.772705078125 114.5548324584961" stroke-linejoin="bevel" stroke-miterlimit="10" stroke-width="0.5" clip-path="url(#bsNULbNCOQoS)"/><path fill="none" stroke="grey" paint-order="fill" d="M 308.53826904296875 73.06854248046875 L 332.46173095703125 78.47979736328125 L 356.3851623535156 130.78860473632812 L 380.3086242675781 118.16233825683594 L 404.2320556640625 101.92857360839844 L 428.155517578125 123.57359313964844 L 452.0789489746094 101.92857360839844 L 476.00238037109375 110.94732666015625 L 499.92584228515625 130.78860473632812 L 523.8493041992188 121.76984405517578 L 547.772705078125 116.35858917236328" stroke-linejoin="bevel" stroke-miterlimit="10" stroke-width="0.5" clip-path="url(#UuNAofzzuZHq)"/><path fill="none" stroke="rgb(128,128,128)" paint-order="fill" d="M 93.2272720336914 82.0873031616211 L 117.15071868896484 100.12481689453125 L 141.07415771484375 123.57359313964844 L 164.9976043701172 85.69480895996094 L 188.92105102539062 134.39610290527344 L 212.84449768066406 91.10606384277344 L 236.7679443359375 98.3210678100586 L 260.6913757324219 105.53607177734375 L 284.6148376464844 69.4610366821289 L 308.53826904296875 112.75108337402344" stroke-opacity="0.7490196078431373" stroke-linejoin="bevel" stroke-miterlimit="10" clip-path="url(#bTnTHmHAWnoc)"/><path fill="none" stroke="grey" paint-order="fill" d="M 308.53826904296875 112.75108337402344 L 332.46173095703125 112.75108337402344 L 356.3851623535156 103.7323226928711 L 380.3086242675781 76.6760482788086 L 404.2320556640625 98.3210678100586 L 428.155517578125 58.638526916503906 L 452.0789489746094 105.53607177734375 L 476.00238037109375 91.10606384277344 L 499.92584228515625 134.39610290527344 L 523.8493041992188 128.98484802246094 L 547.772705078125 64.0497817993164" stroke-linejoin="bevel" stroke-miterlimit="10" stroke-width="0.5" clip-path="url(#qDwtzneWXOTg)"/><path fill="none" stroke="grey" paint-order="fill" d="M 308.53826904296875 112.75108337402344 L 332.46173095703125 87.4985580444336 L 356.3851623535156 109.1435775756836 L 380.3086242675781 98.3210678100586 L 404.2320556640625 80.2835464477539 L 428.155517578125 60.44227981567383 L 452.0789489746094 103.7323226928711 L 476.00238037109375 103.7323226928711 L 499.92584228515625 87.4985580444336 L 523.8493041992188 78.47979736328125 L 547.772705078125 107.33982849121094" stroke-linejoin="bevel" stroke-miterlimit="10" stroke-width="0.5" clip-path="url(#OlMeCSNShaEy)"/><path fill="none" stroke="rgb(128,128,128)" paint-order="fill" d="M 93.2272720336914 128.98484802246094 L 117.15071868896484 109.1435775756836 L 141.07415771484375 91.10606384277344 L 164.9976043701172 118.16233825683594 L 188.92105102539062 156.04112243652344 L 212.84449768066406 103.7323226928711 L 236.7679443359375 100.12481689453125 L 260.6913757324219 98.3210678100586 L 284.6148376464844 83.89105224609375 L 308.53826904296875 101.92857360839844" stroke-opacity="0.7490196078431373" stroke-linejoin="bevel" stroke-miterlimit="10" clip-path="url(#NWhTmzrqInvX)"/><path fill="none" stroke="grey" paint-order="fill" d="M 308.53826904296875 101.92857360839844 L 332.46173095703125 87.4985580444336 L 356.3851623535156 107.33982849121094 L 380.3086242675781 116.35858917236328 L 404.2320556640625 118.16233825683594 L 428.155517578125 82.0873031616211 L 452.0789489746094 132.59234619140625 L 476.00238037109375 105.53607177734375 L 499.92584228515625 76.6760482788086 L 523.8493041992188 62.24603271484375 L 547.772705078125 100.12481689453125" stroke-linejoin="bevel" stroke-miterlimit="10" stroke-width="0.5" clip-path="url(#MkHZESvsiGZG)"/><path fill="none" stroke="grey" paint-order="fill" d="M 308.53826904296875 101.92857360839844 L 332.46173095703125 73.06854248046875 L 356.3851623535156 141.61111450195312 L 380.3086242675781 107.33982849121094 L 404.2320556640625 134.39610290527344 L 428.155517578125 134.39610290527344 L 452.0789489746094 71.2647933959961 L 476.00238037109375 85.69480895996094 L 499.92584228515625 60.44227981567383 L 523.8493041992188 56.83477783203125 L 547.772705078125 76.6760482788086" stroke-linejoin="bevel" stroke-miterlimit="10" stroke-width="0.5" clip-path="url(#nBIimksgiHek)"/><path fill="none" stroke="rgb(128,128,128)" paint-order="fill" d="M 93.2272720336914 74.8722915649414 L 117.15071868896484 119.9660873413086 L 141.07415771484375 101.92857360839844 L 164.9976043701172 119.9660873413086 L 188.92105102539062 83.89105224609375 L 212.84449768066406 121.76984405517578 L 236.7679443359375 101.92857360839844 L 260.6913757324219 112.75108337402344 L 284.6148376464844 128.98484802246094 L 308.53826904296875 101.92857360839844" stroke-opacity="0.7490196078431373" stroke-linejoin="bevel" stroke-miterlimit="10" clip-path="url(#gzbUzThHBfQD)"/><path fill="none" stroke="grey" paint-order="fill" d="M 308.53826904296875 101.92857360839844 L 332.46173095703125 92.9098129272461 L 356.3851623535156 101.92857360839844 L 380.3086242675781 92.9098129272461 L 404.2320556640625 92.9098129272461 L 428.155517578125 83.89105224609375 L 452.0789489746094 85.69480895996094 L 476.00238037109375 112.75108337402344 L 499.92584228515625 121.76984405517578 L 523.8493041992188 85.69480895996094 L 547.772705078125 96.51731872558594" stroke-linejoin="bevel" stroke-miterlimit="10" stroke-width="0.5" clip-path="url(#GqynHUHlrqMM)"/><path fill="none" stroke="grey" paint-order="fill" d="M 308.53826904296875 101.92857360839844 L 332.46173095703125 119.9660873413086 L 356.3851623535156 94.71356201171875 L 380.3086242675781 114.5548324584961 L 404.2320556640625 94.71356201171875 L 428.155517578125 112.75108337402344 L 452.0789489746094 121.76984405517578 L 476.00238037109375 119.9660873413086 L 499.92584228515625 119.9660873413086 L 523.8493041992188 83.89105224609375 L 547.772705078125 65.8535385131836" stroke-linejoin="bevel" stroke-miterlimit="10" stroke-width="0.5" clip-path="url(#ywCQxTlMXxNe)"/><path fill="none" stroke="black" paint-order="fill" d="M 70.5 280.5 L 570.5 280.5" stroke-linejoin="bevel" stroke-miterlimit="10"/><path fill="none" stroke="black" paint-order="fill" d="M 93.5 286.5 L 93.5 278.5 M 212.5 286.5 L 212.5 278.5 M 332.5 286.5 L 332.5 278.5 M 452.5 286.5 L 452.5 278.5" stroke-linejoin="bevel" stroke-miterlimit="10"/><path fill="none" stroke="black" paint-order="fill" d="M 93.5 284.5 L 93.5 280.5 M 117.5 284.5 L 117.5 280.5 M 141.5 284.5 L 141.5 280.5 M 164.5 284.5 L 164.5 280.5 M 188.5 284.5 L 188.5 280.5 M 212.5 284.5 L 212.5 280.5 M 236.5 284.5 L 236.5 280.5 M 260.5 284.5 L 260.5 280.5 M 284.5 284.5 L 284.5 280.5 M 308.5 284.5 L 308.5 280.5 M 332.5 284.5 L 332.5 280.5 M 356.5 284.5 L 356.5 280.5 M 380.5 284.5 L 380.5 280.5 M 404.5 284.5 L 404.5 280.5 M 428.5 284.5 L 428.5 280.5 M 452.5 284.5 L 452.5 280.5 M 476.5 284.5 L 476.5 280.5 M 499.5 284.5 L 499.5 280.5 M 523.5 284.5 L 523.5 280.5 M 547.5 284.5 L 547.5 280.5" stroke-linejoin="bevel" stroke-miterlimit="10"/><text fill="#444444" stroke="none" font-family="helvetica" font-size="10pt" font-style="normal" font-weight="normal" text-decoration="normal" x="77.82727241516113" y="300.59368896484375" text-anchor="start" dominant-baseline="alphabetic" transform="matrix(1, 0, 0, 1, 0.5, 0.5)">2025</text><text fill="none" stroke="rgb(0,0,0)" font-family="helvetica" font-size="10pt" font-style="normal" font-weight="normal" text-decoration="normal" x="77.82727241516113" y="300.59368896484375" text-anchor="start" dominant-baseline="alphabetic" transform="matrix(1, 0, 0, 1, 0.5, 0.5)" stroke-opacity="0" stroke-linejoin="bevel" stroke-miterlimit="10">2025</text><text fill="#444444" stroke="none" font-family="helvetica" font-size="10pt" font-style="normal" font-weight="normal" text-decoration="normal" x="197.4444980621338" y="300.59368896484375" text-anchor="start" dominant-baseline="alphabetic" transform="matrix(1, 0, 0, 1, 0.5, 0.5)">2030</text><text fill="none" stroke="rgb(0,0,0)" font-family="helvetica" font-size="10pt" font-style="normal" font-weight="normal" text-decoration="normal" x="197.4444980621338" y="300.59368896484375" text-anchor="start" dominant-baseline="alphabetic" transform="matrix(1, 0, 0, 1, 0.5, 0.5)" stroke-opacity="0" stroke-linejoin="bevel" stroke-miterlimit="10">2030</text><text fill="#444444" stroke="none" font-family="helvetica" font-size="10pt" font-style="normal" font-weight="normal" text-decoration="normal" x="317.061731338501" y="300.59368896484375" text-anchor="start" dominant-baseline="alphabetic" transform="matrix(1, 0, 0, 1, 0.5, 0.5)">2035</text><text fill="none" stroke="rgb(0,0,0)" font-family="helvetica" font-size="10pt" font-style="normal" font-weight="normal" text-decoration="normal" x="317.061731338501" y="300.59368896484375" text-anchor="start" dominant-baseline="alphabetic" transform="matrix(1, 0, 0, 1, 0.5, 0.5)" stroke-opacity="0" stroke-linejoin="bevel" stroke-miterlimit="10">2035</text><text fill="#444444" stroke="none" font-family="helvetica" font-size="10pt" font-style="normal" font-weight="normal" text-decoration="normal" x="436.6789493560791" y="300.59368896484375" text-anchor="start" dominant-baseline="alphabetic" transform="matrix(1, 0, 0, 1, 0.5, 0.5)">2040</text><text fill="none" stroke="rgb(0,0,0)" font-family="helvetica" font-size="10pt" font-style="normal" font-weight="normal" text-decoration="normal" x="436.6789493560791" y="300.59368896484375" text-anchor="start" dominant-baseline="alphabetic" transform="matrix(1, 0, 0, 1, 0.5, 0.5)" stroke-opacity="0" stroke-linejoin="bevel" stroke-miterlimit="10">2040</text><text fill="#444444" stroke="none" font-family="helvetica" font-size="12pt" font-style="normal" font-weight="normal" text-decoration="normal" x="303.8333339691162" y="321.59368896484375" text-anchor="start" dominant-baseline="alphabetic" transform="matrix(1, 0, 0, 1, 0.5, 0.5)">Year</text><text fill="none" stroke="rgb(0,0,0)" font-family="helvetica" font-size="12pt" font-style="normal" font-weight="normal" text-decoration="normal" x="303.8333339691162" y="321.59368896484375" text-anchor="start" dominant-baseline="alphabetic" transform="matrix(1, 0, 0, 1, 0.5, 0.5)" stroke-opacity="0" stroke-linejoin="bevel" stroke-miterlimit="10">Year</text><path fill="none" stroke="black" paint-order="fill" d="M 70.5 280.5 L 70.5 30.5" stroke-linejoin="bevel" stroke-miterlimit="10"/><path fill="none" stroke="black" paint-order="fill" d="M 64.5 280.5 L 72.5 280.5 M 64.5 244.5 L 72.5 244.5 M 64.5 208.5 L 72.5 208.5 M 64.5 172.5 L 72.5 172.5 M 64.5 136.5 L 72.5 136.5 M 64.5 100.5 L 72.5 100.5 M 64.5 64.5 L 72.5 64.5" stroke-linejoin="bevel" stroke-miterlimit="10"/><path fill="none" stroke="black" paint-order="fill" d="M 66.5 280.5 L 70.5 280.5 M 66.5 273.5 L 70.5 273.5 M 66.5 266.5 L 70.5 266.5 M 66.5 258.5 L 70.5 258.5 M 66.5 251.5 L 70.5 251.5 M 66.5 244.5 L 70.5 244.5 M 66.5 237.5 L 70.5 237.5 M 66.5 229.5 L 70.5 229.5 M 66.5 222.5 L 70.5 222.5 M 66.5 215.5 L 70.5 215.5 M 66.5 208.5 L 70.5 208.5 M 66.5 201.5 L 70.5 201.5 M 66.5 193.5 L 70.5 193.5 M 66.5 186.5 L 70.5 186.5 M 66.5 179.5 L 70.5 179.5 M 66.5 172.5 L 70.5 172.5 M 66.5 165.5 L 70.5 165.5 M 66.5 157.5 L 70.5 157.5 M 66.5 150.5 L 70.5 150.5 M 66.5 143.5 L 70.5 143.5 M 66.5 136.5 L 70.5 136.5 M 66.5 128.5 L 70.5 128.5 M 66.5 121.5 L 70.5 121.5 M 66.5 114.5 L 70.5 114.5 M 66.5 107.5 L 70.5 107.5 M 66.5 100.5 L 70.5 100.5 M 66.5 92.5 L 70.5 92.5 M 66.5 85.5 L 70.5 85.5 M 66.5 78.5 L 70.5 78.5 M 66.5 71.5 L 70.5 71.5 M 66.5 64.5 L 70.5 64.5 M 66.5 56.5 L 70.5 56.5 M 66.5 49.5 L 70.5 49.5 M 66.5 42.5 L 70.5 42.5 M 66.5 35.5 L 70.5 35.5" stroke-linejoin="bevel" stroke-miterlimit="10"/><text fill="#444444" stroke="none" font-family="helvetica" font-size="10pt" font-style="normal" font-weight="normal" text-decoration="normal" x="51.55000019073486" y="284.7968444824219" text-anchor="start" dominant-baseline="alphabetic" transform="matrix(1, 0, 0, 1, 0.5, 0.5)">0</text><text fill="none" stroke="rgb(0,0,0)" font-family="helvetica" font-size="10pt" font-style="normal" font-weight="normal" text-decoration="normal" x="51.55000019073486" y="284.7968444824219" text-anchor="start" dominant-baseline="alphabetic" transform="matrix(1, 0, 0, 1, 0.5, 0.5)" stroke-opacity="0" stroke-linejoin="bevel" stroke-miterlimit="10">0</text><text fill="#444444" stroke="none" font-family="helvetica" font-size="10pt" font-style="normal" font-weight="normal" text-decoration="normal" x="44.10000038146973" y="248.7218017578125" text-anchor="start" dominant-baseline="alphabetic" transform="matrix(1, 0, 0, 1, 0.5, 0.5)">20</text><text fill="none" stroke="rgb(0,0,0)" font-family="helvetica" font-size="10pt" font-style="normal" font-weight="normal" text-decoration="normal" x="44.10000038146973" y="248.7218017578125" text-anchor="start" dominant-baseline="alphabetic" transform="matrix(1, 0, 0, 1, 0.5, 0.5)" stroke-opacity="0" stroke-linejoin="bevel" stroke-miterlimit="10">20</text><text fill="#444444" stroke="none" font-family="helvetica" font-size="10pt" font-style="normal" font-weight="normal" text-decoration="normal" x="44.10000038146973" y="212.6467742919922" text-anchor="start" dominant-baseline="alphabetic" transform="matrix(1, 0, 0, 1, 0.5, 0.5)">40</text><text fill="none" stroke="rgb(0,0,0)" font-family="helvetica" font-size="10pt" font-style="normal" font-weight="normal" text-decoration="normal" x="44.10000038146973" y="212.6467742919922" text-anchor="start" dominant-baseline="alphabetic" transform="matrix(1, 0, 0, 1, 0.5, 0.5)" stroke-opacity="0" stroke-linejoin="bevel" stroke-miterlimit="10">40</text><text fill="#444444" stroke="none" font-family="helvetica" font-size="10pt" font-style="normal" font-weight="normal" text-decoration="normal" x="44.10000038146973" y="176.5717315673828" text-anchor="start" dominant-baseline="alphabetic" transform="matrix(1, 0, 0, 1, 0.5, 0.5)">60</text><text fill="none" stroke="rgb(0,0,0)" font-family="helvetica" font-size="10pt" font-style="normal" font-weight="normal" text-decoration="normal" x="44.10000038146973" y="176.5717315673828" text-anchor="start" dominant-baseline="alphabetic" transform="matrix(1, 0, 0, 1, 0.5, 0.5)" stroke-opacity="0" stroke-linejoin="bevel" stroke-miterlimit="10">60</text><text fill="#444444" stroke="none" font-family="helvetica" font-size="10pt" font-style="normal" font-weight="normal" text-decoration="normal" x="44.10000038146973" y="140.4967041015625" text-anchor="start" dominant-baseline="alphabetic" transform="matrix(1, 0, 0, 1, 0.5, 0.5)">80</text><text fill="none" stroke="rgb(0,0,0)" font-family="helvetica" font-size="10pt" font-style="normal" font-weight="normal" text-decoration="normal" x="44.10000038146973" y="140.4967041015625" text-anchor="start" dominant-baseline="alphabetic" transform="matrix(1, 0, 0, 1, 0.5, 0.5)" stroke-opacity="0" stroke-linejoin="bevel" stroke-miterlimit="10">80</text><text fill="#444444" stroke="none" font-family="helvetica" font-size="10pt" font-style="normal" font-weight="normal" text-decoration="normal" x="36.64999961853027" y="104.42166137695312" text-anchor="start" dominant-baseline="alphabetic" transform="matrix(1, 0, 0, 1, 0.5, 0.5)">100</text><text fill="none" stroke="rgb(0,0,0)" font-family="helvetica" font-size="10pt" font-style="normal" font-weight="normal" text-decoration="normal" x="36.64999961853027" y="104.42166137695312" text-anchor="start" dominant-baseline="alphabetic" transform="matrix(1, 0, 0, 1, 0.5, 0.5)" stroke-opacity="0" stroke-linejoin="bevel" stroke-miterlimit="10">100</text><text fill="#444444" stroke="none" font-family="helvetica" font-size="10pt" font-style="normal" font-weight="normal" text-decoration="normal" x="36.64999961853027" y="68.34662628173828" text-anchor="start" dominant-baseline="alphabetic" transform="matrix(1, 0, 0, 1, 0.5, 0.5)">120</text><text fill="none" stroke="rgb(0,0,0)" font-family="helvetica" font-size="10pt" font-style="normal" font-weight="normal" text-decoration="normal" x="36.64999961853027" y="68.34662628173828" text-anchor="start" dominant-baseline="alphabetic" transform="matrix(1, 0, 0, 1, 0.5, 0.5)" stroke-opacity="0" stroke-linejoin="bevel" stroke-miterlimit="10">120</text><text fill="#444444" stroke="none" font-family="helvetica" font-size="12pt" font-style="normal" font-weight="normal" text-decoration="normal" x="-78.07499885559082" y="151" text-anchor="start" dominant-baseline="alphabetic" transform="matrix(6.123233995736766e-17, -1, 1, 6.123233995736766e-17, -125.85000038146973, 184.14999961853027)">Days suitable for transmission</text><text fill="none" stroke="rgb(0,0,0)" font-family="helvetica" font-size="12pt" font-style="normal" font-weight="normal" text-decoration="normal" x="-78.07499885559082" y="151" text-anchor="start" dominant-baseline="alphabetic" transform="matrix(6.123233995736766e-17, -1, 1, 6.123233995736766e-17, -125.85000038146973, 184.14999961853027)" stroke-opacity="0" stroke-linejoin="bevel" stroke-miterlimit="10">Days suitable for transmission</text><path fill="rgb(255,255,255)" stroke="rgb(229,229,229)" paint-order="fill" d="M 475.183349609375 205.5 L 560.5000152587891 205.5 L 560.5000152587891 270.5 L 475.183349609375 270.5 L 475.183349609375 205.5 Z" fill-opacity="0.9490196078431372" clip-path="url(#vGDvqIkARghH)" stroke-opacity="0.5019607843137255" stroke-linejoin="bevel" stroke-miterlimit="10"/><g clip-path="url(#vGDvqIkARghH)"><g transform="matrix(1, 0, 0, 1, 485.683349609375, 216)"><path fill="none" stroke="#30a2da" paint-order="fill" d="M 0.5 10.5 L 20.5 10.5" stroke-linejoin="bevel" stroke-miterlimit="10" stroke-width="2"/></g></g><g clip-path="url(#vGDvqIkARghH)"><text fill="#444444" stroke="none" font-family="helvetica" font-size="13px" font-style="normal" font-weight="normal" text-decoration="normal" x="510.683349609375" y="230" text-anchor="start" dominant-baseline="alphabetic" transform="matrix(1, 0, 0, 1, 0.5, 0.5)">ID 001</text></g><g clip-path="url(#vGDvqIkARghH)"><text fill="none" stroke="rgb(0,0,0)" font-family="helvetica" font-size="13px" font-style="normal" font-weight="normal" text-decoration="normal" x="510.683349609375" y="230" text-anchor="start" dominant-baseline="alphabetic" transform="matrix(1, 0, 0, 1, 0.5, 0.5)" stroke-opacity="0" stroke-linejoin="bevel" stroke-miterlimit="10">ID 001</text></g><g clip-path="url(#vGDvqIkARghH)"><g transform="matrix(1, 0, 0, 1, 485.683349609375, 239)"><path fill="none" stroke="#fc4f30" paint-order="fill" d="M 0.5 10.5 L 20.5 10.5" stroke-linejoin="bevel" stroke-miterlimit="10" stroke-width="2"/></g></g><g clip-path="url(#vGDvqIkARghH)"><text fill="#444444" stroke="none" font-family="helvetica" font-size="13px" font-style="normal" font-weight="normal" text-decoration="normal" x="510.683349609375" y="253" text-anchor="start" dominant-baseline="alphabetic" transform="matrix(1, 0, 0, 1, 0.5, 0.5)">ID 006</text></g><g clip-path="url(#vGDvqIkARghH)"><text fill="none" stroke="rgb(0,0,0)" font-family="helvetica" font-size="13px" font-style="normal" font-weight="normal" text-decoration="normal" x="510.683349609375" y="253" text-anchor="start" dominant-baseline="alphabetic" transform="matrix(1, 0, 0, 1, 0.5, 0.5)" stroke-opacity="0" stroke-linejoin="bevel" stroke-miterlimit="10">ID 006</text></g><text fill="black" stroke="none" font-family="helvetica" font-size="14pt" font-style="normal" font-weight="normal" text-decoration="normal" x="0" y="15" text-anchor="start" dominant-baseline="alphabetic" transform="matrix(1, 0, 0, 1, 5.5, 5.5)">B. Seattle</text><text fill="none" stroke="rgb(0,0,0)" font-family="helvetica" font-size="14pt" font-style="normal" font-weight="normal" text-decoration="normal" x="0" y="15" text-anchor="start" dominant-baseline="alphabetic" transform="matrix(1, 0, 0, 1, 5.5, 5.5)" stroke-opacity="0" stroke-linejoin="bevel" stroke-miterlimit="10">B. Seattle</text></svg>