<svg version="1.1" xmlns="http://www.w3.org/2000/svg" width="600" height="329"><defs><clipPath id="ETmHWzUZUoiC"><path fill="none" stroke="none" d="M 70.5 30.5 L 570.5 30.5 L 570.5 280.5 L 70.5 280.5 L 70.5 30.5 Z"/></clipPath><clipPath id="oxORRSTFuRmB"><path fill="none" stroke="none" d="M 70.5 30.5 L 570.5 30.5 L 570.5 280.5 L 70.5 280.5 L 70.5 30.5 Z"/></clipPath><clipPath id="GqmkupVLuGlT"><path fill="none" stroke="none" d="M 70.5 30.5 L 570.5 30.5 L 570.5 280.5 L 70.5 280.5 L 70.5 30.5 Z"/></clipPath><clipPath id="EnpUwTsToXBc"><path fill="none" stroke="none" d="M 70.5 30.5 L 570.5 30.5 L 570.5 280.5 L 70.5 280.5 L 70.5 30.5 Z"/></clipPath><clipPath id="ZMpyFmFccSyx"><path fill="none" stroke="none" d="M 70.5 30.5 L 570.5 30.5 L 570.5 280.5 L 70.5 280.5 L 70.5 30.5 Z"/></clipPath><clipPath id="bCrFedHSIAve"><path fill="none" stroke="none" d="M 70.5 30.5 L 570.5 30.5 L 570.5 280.5 L 70.5 280.5 L 70.5 30.5 Z"/></clipPath><clipPath id="TeFVRxHpdHZU"><path fill="none" stroke="none" d="M 70.5 30.5 L 570.5 30.5 L 570.5 280.5 L 70.5 280.5 L 70.5 30.5 Z"/></clipPath><clipPath id="VtKMxFZcOVNJ"><path fill="none" stroke="none" d="M 70.5 30.5 L 570.5 30.5 L 570.5 280.5 L 70.5 280.5 L 70.5 30.5 Z"/></clipPath><clipPath id="RtGTdBbkVAtf"><path fill="none" stroke="none" d="M 70.5 30.5 L 570.5 30.5 L 570.5 280.5 L 70.5 280.5 L 70.5 30.5 Z"/></clipPath><clipPath id="QPBniqCGqLvE"><path fill="none" stroke="none" d="M 70.5 30.5 L 570.5 30.5 L 570.5 280.5 L 70.5 280.5 L 70.5 30.5 Z"/></clipPath><clipPath id="rERkBsEsTZoO"><path fill="none" stroke="none" d="M 70.5 30.5 L 570.5 30.5 L 570.5 280.5 L 70.5 280.5 L 70.5 30.5 Z"/></clipPath><clipPath id="ivBEXOlIuxXg"><path fill="none" stroke="none" d="M 70.5 30.5 L 570.5 30.5 L 570.5 280.5 L 70.5 280.5 L 70.5 30.5 Z"/></clipPath><clipPath id="hayNqJcPOeui"><path fill="none" stroke="none" d="M 70.5 30.5 L 570.5 30.5 L 570.5 280.5 L 70.5 280.5 L 70.5 30.5 Z"/></clipPath><clipPath id="qlynLdoVVzeR"><path fill="none" stroke="none" d="M 70.5 30.5 L 570.5 30.5 L 570.5 280.5 L 70.5 280.5 L 70.5 30.5 Z"/></clipPath><clipPath id="TbqbckJLbAce"><path fill="none" stroke="none" d="M 70.5 30.5 L 570.5 30.5 L 570.5 280.5 L 70.5 280.5 L 70.5 30.5 Z"/></clipPath><clipPath id="tskUgBKrakyd"><path fill="none" stroke="none" d="M 70.5 30.5 L 570.5 30.5 L 570.5 280.5 L 70.5 280.5 L 70.5 30.5 Z"/></clipPath><clipPath id="QlpNgVKfHLQR"><path fill="none" stroke="none" d="M 70.5 30.5 L 570.5 30.5 L 570.5 280.5 L 70.5 280.5 L 70.5 30.5 Z"/></clipPath><clipPath id="JkcUFnofPnkM"><path fill="none" stroke="none" d="M 70.5 30.5 L 570.5 30.5 L 570.5 280.5 L 70.5 280.5 L 70.5 30.5 Z"/></clipPath><clipPath id="eIzyyZvxPbwc"><path fill="none" stroke="none" d="M 70.5 30.5 L 570.5 30.5 L 570.5 280.5 L 70.5 280.5 L 70.5 30.5 Z"/></clipPath><clipPath id="FqTZevFUBpno"><path fill="none" stroke="none" d="M 70.5 30.5 L 570.5 30.5 L 570.5 280.5 L 70.5 280.5 L 70.5 30.5 Z"/></clipPath><clipPath id="BqBVgbpopuMK"><path fill="none" stroke="none" d="M 70.5 30.5 L 570.5 30.5 L 570.5 280.5 L 70.5 280.5 L 70.5 30.5 Z"/></clipPath><clipPath id="sZrHObSecoTT"><path fill="none" stroke="none" d="M 70.5 30.5 L 570.5 30.5 L 570.5 280.5 L 70.5 280.5 L 70.5 30.5 Z"/></clipPath><clipPath id="IFLroHWMFplD"><path fill="none" stroke="none" d="M 70.5 30.5 L 570.5 30.5 L 570.5 280.5 L 70.5 280.5 L 70.5 30.5 Z"/></clipPath></defs><path fill="none" stroke="#e5e5e5" paint-order="fill" d="M 70.5 30.5 L 570.5 30.5 L 570.5 280.5 L 70.5 280.5 L 70.5 30.5 Z" stroke-linejoin="bevel" stroke-miterlimit="10"/><path fill="none" stroke="black" paint-order="fill" d="M 332.46172248803487 30.5 L 332.46172248803487 280.5" stroke-linejoin="bevel" stroke-miterlimit="10" stroke-width="3" stroke-dasharray="6" clip-path="url(#GqmkupVLuGlT)"/><path fill="none" stroke="#9467bd" paint-order="fill" d="M 93.2272720336914 127.64400482177734 L 117.15071868896484 101.49758911132812 L 141.07415771484375 171.8917999267578 L 164.9976043701172 151.77915954589844 L 188.92105102539062 87.41874694824219 L 212.84449768066406 127.64400482177734 L 236.7679443359375 216.13958740234375 L 260.6913757324219 117.58769226074219 L 284.6148376464844 177.9255828857422 L 308.53826904296875 153.79042053222656" stroke-linejoin="bevel" stroke-miterlimit="10" stroke-width="2" clip-path="url(#EnpUwTsToXBc)"/><path fill="none" stroke="#9467bd" paint-order="fill" d="M 93.2272720336914 127.64400482177734 L 117.15071868896484 101.49758911132812 L 141.07415771484375 171.8917999267578 L 164.9976043701172 151.77915954589844 L 188.92105102539062 87.41874694824219 L 212.84449768066406 127.64400482177734 L 236.7679443359375 216.13958740234375 L 260.6913757324219 117.58769226074219 L 284.6148376464844 177.9255828857422 L 308.53826904296875 153.79042053222656" stroke-linejoin="bevel" stroke-miterlimit="10" stroke-width="2" stroke-dasharray="6" clip-path="url(#ZMpyFmFccSyx)"/><path fill="none" stroke="#30a2da" paint-order="fill" d="M 308.53826904296875 153.79042053222656 L 332.46173095703125 99.48632049560547 L 356.3851623535156 91.44126892089844 L 380.3086242675781 117.58769226074219 L 404.2320556640625 139.71157836914062 L 428.155517578125 91.44126892089844 L 452.0789489746094 153.79042053222656 L 476.00238037109375 192.00442504882812 L 499.92584228515625 129.6552734375 L 523.8493041992188 145.74537658691406 L 547.772705078125 204.07200622558594" stroke-linejoin="bevel" stroke-miterlimit="10" stroke-width="2" clip-path="url(#bCrFedHSIAve)"/><path fill="none" stroke="#30a2da" paint-order="fill" d="M 332.46173095703125 92.83087158203125 L 356.3851623535156 102.53369140625 L 380.3086242675781 112.23651123046875 L 404.2320556640625 121.9393310546875 L 428.155517578125 131.64215087890625 L 452.0789489746094 141.344970703125 L 476.00238037109375 151.04779052734375 L 499.92584228515625 160.7506103515625 L 523.8493041992188 170.45343017578125 L 547.772705078125 180.15625" stroke-linejoin="bevel" stroke-miterlimit="10" stroke-width="2" stroke-dasharray="6" clip-path="url(#TeFVRxHpdHZU)"/><path fill="none" stroke="#fc4f30" paint-order="fill" d="M 308.53826904296875 153.79042053222656 L 332.46173095703125 103.50885009765625 L 356.3851623535156 218.15084838867188 L 380.3086242675781 187.98190307617188 L 404.2320556640625 143.73411560058594 L 428.155517578125 139.71157836914062 L 452.0789489746094 153.79042053222656 L 476.00238037109375 163.84674072265625 L 499.92584228515625 137.7003173828125 L 523.8493041992188 163.84674072265625 L 547.772705078125 95.46379852294922" stroke-linejoin="bevel" stroke-miterlimit="10" stroke-width="2" clip-path="url(#VtKMxFZcOVNJ)"/><path fill="none" stroke="#fc4f30" paint-order="fill" d="M 332.46173095703125 167.94239807128906 L 356.3851623535156 164.12710571289062 L 380.3086242675781 160.31179809570312 L 404.2320556640625 156.49649047851562 L 428.155517578125 152.68118286132812 L 452.0789489746094 148.86587524414062 L 476.00238037109375 145.05056762695312 L 499.92584228515625 141.2352752685547 L 523.8493041992188 137.4199676513672 L 547.772705078125 133.6046600341797" stroke-linejoin="bevel" stroke-miterlimit="10" stroke-width="2" stroke-dasharray="6" clip-path="url(#RtGTdBbkVAtf)"/><path fill="none" stroke="rgb(128,128,128)" paint-order="fill" d="M 93.2272720336914 232.2296905517578 L 117.15071868896484 121.61021423339844 L 141.07415771484375 67.30611419677734 L 164.9976043701172 111.55390167236328 L 188.92105102539062 113.5651626586914 L 212.84449768066406 121.61021423339844 L 236.7679443359375 131.66653442382812 L 260.6913757324219 121.61021423339844 L 284.6148376464844 115.57643127441406 L 308.53826904296875 61.27232360839844" stroke-opacity="0.7490196078431373" stroke-linejoin="bevel" stroke-miterlimit="10" clip-path="url(#QPBniqCGqLvE)"/><path fill="none" stroke="grey" paint-order="fill" d="M 308.53826904296875 61.27232360839844 L 332.46173095703125 85.40747833251953 L 356.3851623535156 109.54264068603516 L 380.3086242675781 77.3624267578125 L 404.2320556640625 97.47505950927734 L 428.155517578125 89.43000793457031 L 452.0789489746094 89.43000793457031 L 476.00238037109375 153.79042053222656 L 499.92584228515625 143.73411560058594 L 523.8493041992188 192.00442504882812 L 547.772705078125 175.91432189941406" stroke-linejoin="bevel" stroke-miterlimit="10" stroke-width="0.5" clip-path="url(#rERkBsEsTZoO)"/><path fill="none" stroke="grey" paint-order="fill" d="M 308.53826904296875 61.27232360839844 L 332.46173095703125 95.46379852294922 L 356.3851623535156 129.6552734375 L 380.3086242675781 159.82421875 L 404.2320556640625 177.9255828857422 L 428.155517578125 131.66653442382812 L 452.0789489746094 81.38495635986328 L 476.00238037109375 133.67779541015625 L 499.92584228515625 137.7003173828125 L 523.8493041992188 141.7228546142578 L 547.772705078125 117.58769226074219" stroke-linejoin="bevel" stroke-miterlimit="10" stroke-width="0.5" clip-path="url(#ivBEXOlIuxXg)"/><path fill="none" stroke="rgb(128,128,128)" paint-order="fill" d="M 93.2272720336914 121.61021423339844 L 117.15071868896484 123.6214828491211 L 141.07415771484375 87.41874694824219 L 164.9976043701172 143.73411560058594 L 188.92105102539062 137.7003173828125 L 212.84449768066406 107.5313720703125 L 236.7679443359375 97.47505950927734 L 260.6913757324219 89.43000793457031 L 284.6148376464844 147.7566375732422 L 308.53826904296875 113.5651626586914" stroke-opacity="0.7490196078431373" stroke-linejoin="bevel" stroke-miterlimit="10" clip-path="url(#hayNqJcPOeui)"/><path fill="none" stroke="grey" paint-order="fill" d="M 308.53826904296875 113.5651626586914 L 332.46173095703125 107.5313720703125 L 356.3851623535156 107.5313720703125 L 380.3086242675781 91.44126892089844 L 404.2320556640625 117.58769226074219 L 428.155517578125 127.64400482177734 L 452.0789489746094 83.3962173461914 L 476.00238037109375 53.227272033691406 L 499.92584228515625 111.55390167236328 L 523.8493041992188 93.4525375366211 L 547.772705078125 131.66653442382812" stroke-linejoin="bevel" stroke-miterlimit="10" stroke-width="0.5" clip-path="url(#qlynLdoVVzeR)"/><path fill="none" stroke="grey" paint-order="fill" d="M 308.53826904296875 113.5651626586914 L 332.46173095703125 65.29485321044922 L 356.3851623535156 141.7228546142578 L 380.3086242675781 157.81295776367188 L 404.2320556640625 113.5651626586914 L 428.155517578125 115.57643127441406 L 452.0789489746094 173.90306091308594 L 476.00238037109375 103.50885009765625 L 499.92584228515625 151.77915954589844 L 523.8493041992188 105.52011108398438 L 547.772705078125 93.4525375366211" stroke-linejoin="bevel" stroke-miterlimit="10" stroke-width="0.5" clip-path="url(#TbqbckJLbAce)"/><path fill="none" stroke="rgb(128,128,128)" paint-order="fill" d="M 93.2272720336914 141.7228546142578 L 117.15071868896484 113.5651626586914 L 141.07415771484375 99.48632049560547 L 164.9976043701172 109.54264068603516 L 188.92105102539062 189.9931640625 L 212.84449768066406 99.48632049560547 L 236.7679443359375 202.0607452392578 L 260.6913757324219 79.37369537353516 L 284.6148376464844 115.57643127441406 L 308.53826904296875 75.35116577148438" stroke-opacity="0.7490196078431373" stroke-linejoin="bevel" stroke-miterlimit="10" clip-path="url(#tskUgBKrakyd)"/><path fill="none" stroke="grey" paint-order="fill" d="M 308.53826904296875 75.35116577148438 L 332.46173095703125 143.73411560058594 L 356.3851623535156 99.48632049560547 L 380.3086242675781 141.7228546142578 L 404.2320556640625 111.55390167236328 L 428.155517578125 167.8692626953125 L 452.0789489746094 101.49758911132812 L 476.00238037109375 143.73411560058594 L 499.92584228515625 115.57643127441406 L 523.8493041992188 167.8692626953125 L 547.772705078125 139.71157836914062" stroke-linejoin="bevel" stroke-miterlimit="10" stroke-width="0.5" clip-path="url(#QlpNgVKfHLQR)"/><path fill="none" stroke="grey" paint-order="fill" d="M 308.53826904296875 75.35116577148438 L 332.46173095703125 123.6214828491211 L 356.3851623535156 113.5651626586914 L 380.3086242675781 119.59895324707031 L 404.2320556640625 145.74537658691406 L 428.155517578125 159.82421875 L 452.0789489746094 103.50885009765625 L 476.00238037109375 135.68905639648438 L 499.92584228515625 123.6214828491211 L 523.8493041992188 145.74537658691406 L 547.772705078125 113.5651626586914" stroke-linejoin="bevel" stroke-miterlimit="10" stroke-width="0.5" clip-path="url(#JkcUFnofPnkM)"/><path fill="none" stroke="rgb(128,128,128)" paint-order="fill" d="M 93.2272720336914 200.0494842529297 L 117.15071868896484 119.59895324707031 L 141.07415771484375 139.71157836914062 L 164.9976043701172 103.50885009765625 L 188.92105102539062 173.90306091308594 L 212.84449768066406 159.82421875 L 236.7679443359375 119.59895324707031 L 260.6913757324219 81.38495635986328 L 284.6148376464844 131.66653442382812 L 308.53826904296875 137.7003173828125" stroke-opacity="0.7490196078431373" stroke-linejoin="bevel" stroke-miterlimit="10" clip-path="url(#eIzyyZvxPbwc)"/><path fill="none" stroke="grey" paint-order="fill" d="M 308.53826904296875 137.7003173828125 L 332.46173095703125 113.5651626586914 L 356.3851623535156 135.68905639648438 L 380.3086242675781 81.38495635986328 L 404.2320556640625 105.52011108398438 L 428.155517578125 131.66653442382812 L 452.0789489746094 161.83547973632812 L 476.00238037109375 171.8917999267578 L 499.92584228515625 125.63274383544922 L 523.8493041992188 127.64400482177734 L 547.772705078125 119.59895324707031" stroke-linejoin="bevel" stroke-miterlimit="10" stroke-width="0.5" clip-path="url(#FqTZevFUBpno)"/><path fill="none" stroke="grey" paint-order="fill" d="M 308.53826904296875 137.7003173828125 L 332.46173095703125 107.5313720703125 L 356.3851623535156 99.48632049560547 L 380.3086242675781 115.57643127441406 L 404.2320556640625 143.73411560058594 L 428.155517578125 147.7566375732422 L 452.0789489746094 111.55390167236328 L 476.00238037109375 157.81295776367188 L 499.92584228515625 155.80169677734375 L 523.8493041992188 105.52011108398438 L 547.772705078125 101.49758911132812" stroke-linejoin="bevel" stroke-miterlimit="10" stroke-width="0.5" clip-path="url(#BqBVgbpopuMK)"/><path fill="none" stroke="black" paint-order="fill" d="M 70.5 280.5 L 570.5 280.5" stroke-linejoin="bevel" stroke-miterlimit="10"/><path fill="none" stroke="black" paint-order="fill" d="M 93.5 286.5 L 93.5 278.5 M 212.5 286.5 L 212.5 278.5 M 332.5 286.5 L 332.5 278.5 M 452.5 286.5 L 452.5 278.5" stroke-linejoin="bevel" stroke-miterlimit="10"/><path fill="none" stroke="black" paint-order="fill" d="M 93.5 284.5 L 93.5 280.5 M 117.5 284.5 L 117.5 280.5 M 141.5 284.5 L 141.5 280.5 M 164.5 284.5 L 164.5 280.5 M 188.5 284.5 L 188.5 280.5 M 212.5 284.5 L 212.5 280.5 M 236.5 284.5 L 236.5 280.5 M 260.5 284.5 L 260.5 280.5 M 284.5 284.5 L 284.5 280.5 M 308.5 284.5 L 308.5 280.5 M 332.5 284.5 L 332.5 280.5 M 356.5 284.5 L 356.5 280.5 M 380.5 284.5 L 380.5 280.5 M 404.5 284.5 L 404.5 280.5 M 428.5 284.5 L 428.5 280.5 M 452.5 284.5 L 452.5 280.5 M 476.5 284.5 L 476.5 280.5 M 499.5 284.5 L 499.5 280.5 M 523.5 284.5 L 523.5 280.5 M 547.5 284.5 L 547.5 280.5" stroke-linejoin="bevel" stroke-miterlimit="10"/><text fill="#444444" stroke="none" font-family="helvetica" font-size="10pt" font-style="normal" font-weight="normal" text-decoration="normal" x="77.82727241516113" y="300.59368896484375" text-anchor="start" dominant-baseline="alphabetic" transform="matrix(1, 0, 0, 1, 0.5, 0.5)">2025</text><text fill="none" stroke="rgb(0,0,0)" font-family="helvetica" font-size="10pt" font-style="normal" font-weight="normal" text-decoration="normal" x="77.82727241516113" y="300.59368896484375" text-anchor="start" dominant-baseline="alphabetic" transform="matrix(1, 0, 0, 1, 0.5, 0.5)" stroke-opacity="0" stroke-linejoin="bevel" stroke-miterlimit="10">2025</text><text fill="#444444" stroke="none" font-family="helvetica" font-size="10pt" font-style="normal" font-weight="normal" text-decoration="normal" x="197.4444980621338" y="300.59368896484375" text-anchor="start" dominant-baseline="alphabetic" transform="matrix(1, 0, 0, 1, 0.5, 0.5)">2030</text><text fill="none" stroke="rgb(0,0,0)" font-family="helvetica" font-size="10pt" font-style="normal" font-weight="normal" text-decoration="normal" x="197.4444980621338" y="300.59368896484375" text-anchor="start" dominant-baseline="alphabetic" transform="matrix(1, 0, 0, 1, 0.5, 0.5)" stroke-opacity="0" stroke-linejoin="bevel" stroke-miterlimit="10">2030</text><text fill="#444444" stroke="none" font-family="helvetica" font-size="10pt" font-style="normal" font-weight="normal" text-decoration="normal" x="317.061731338501" y="300.59368896484375" text-anchor="start" dominant-baseline="alphabetic" transform="matrix(1, 0, 0, 1, 0.5, 0.5)">2035</text><text fill="none" stroke="rgb(0,0,0)" font-family="helvetica" font-size="10pt" font-style="normal" font-weight="normal" text-decoration="normal" x="317.061731338501" y="300.59368896484375" text-anchor="start" dominant-baseline="alphabetic" transform="matrix(1, 0, 0, 1, 0.5, 0.5)" stroke-opacity="0" stroke-linejoin="bevel" stroke-miterlimit="10">2035</text><text fill="#444444" stroke="none" font-family="helvetica" font-size="10pt" font-style="normal" font-weight="normal" text-decoration="normal" x="436.6789493560791" y="300.59368896484375" text-anchor="start" dominant-baseline="alphabetic" transform="matrix(1, 0, 0, 1, 0.5, 0.5)">2040</text><text fill="none" stroke="rgb(0,0,0)" font-family="helvetica" font-size="10pt" font-style="normal" font-weight="normal" text-decoration="normal" x="436.6789493560791" y="300.59368896484375" text-anchor="start" dominant-baseline="alphabetic" transform="matrix(1, 0, 0, 1, 0.5, 0.5)" stroke-opacity="0" stroke-linejoin="bevel" stroke-miterlimit="10">2040</text><text fill="#444444" stroke="none" font-family="helvetica" font-size="12pt" font-style="normal" font-weight="normal" text-decoration="normal" x="303.8333339691162" y="321.59368896484375" text-anchor="start" dominant-baseline="alphabetic" transform="matrix(1, 0, 0, 1, 0.5, 0.5)">Year</text><text fill="none" stroke="rgb(0,0,0)" font-family="helvetica" font-size="12pt" font-style="normal" font-weight="normal" text-decoration="normal" x="303.8333339691162" y="321.59368896484375" text-anchor="start" dominant-baseline="alphabetic" transform="matrix(1, 0, 0, 1, 0.5, 0.5)" stroke-opacity="0" stroke-linejoin="bevel" stroke-miterlimit="10">Year</text><path fill="none" stroke="black" paint-order="fill" d="M 70.5 280.5 L 70.5 30.5" stroke-linejoin="bevel" stroke-miterlimit="10"/><path fill="none" stroke="black" paint-order="fill" d="M 64.5 280.5 L 72.5 280.5 M 64.5 240.5 L 72.5 240.5 M 64.5 200.5 L 72.5 200.5 M 64.5 159.5 L 72.5 159.5 M 64.5 119.5 L 72.5 119.5 M 64.5 79.5 L 72.5 79.5 M 64.5 39.5 L 72.5 39.5" stroke-linejoin="bevel" stroke-miterlimit="10"/><path fill="none" stroke="black" paint-order="fill" d="M 66.5 280.5 L 70.5 280.5 M 66.5 272.5 L 70.5 272.5 M 66.5 264.5 L 70.5 264.5 M 66.5 256.5 L 70.5 256.5 M 66.5 248.5 L 70.5 248.5 M 66.5 240.5 L 70.5 240.5 M 66.5 232.5 L 70.5 232.5 M 66.5 224.5 L 70.5 224.5 M 66.5 216.5 L 70.5 216.5 M 66.5 208.5 L 70.5 208.5 M 66.5 200.5 L 70.5 200.5 M 66.5 192.5 L 70.5 192.5 M 66.5 183.5 L 70.5 183.5 M 66.5 175.5 L 70.5 175.5 M 66.5 167.5 L 70.5 167.5 M 66.5 159.5 L 70.5 159.5 M 66.5 151.5 L 70.5 151.5 M 66.5 143.5 L 70.5 143.5 M 66.5 135.5 L 70.5 135.5 M 66.5 127.5 L 70.5 127.5 M 66.5 119.5 L 70.5 119.5 M 66.5 111.5 L 70.5 111.5 M 66.5 103.5 L 70.5 103.5 M 66.5 95.5 L 70.5 95.5 M 66.5 87.5 L 70.5 87.5 M 66.5 79.5 L 70.5 79.5 M 66.5 71.5 L 70.5 71.5 M 66.5 63.5 L 70.5 63.5 M 66.5 55.5 L 70.5 55.5 M 66.5 47.5 L 70.5 47.5 M 66.5 39.5 L 70.5 39.5 M 66.5 31.5 L 70.5 31.5" stroke-linejoin="bevel" stroke-miterlimit="10"/><text fill="#444444" stroke="none" font-family="helvetica" font-size="10pt" font-style="normal" font-weight="normal" text-decoration="normal" x="51.55000019073486" y="284.7968444824219" text-anchor="start" dominant-baseline="alphabetic" transform="matrix(1, 0, 0, 1, 0.5, 0.5)">0</text><text fill="none" stroke="rgb(0,0,0)" font-family="helvetica" font-size="10pt" font-style="normal" font-weight="normal" text-decoration="normal" x="51.55000019073486" y="284.7968444824219" text-anchor="start" dominant-baseline="alphabetic" transform="matrix(1, 0, 0, 1, 0.5, 0.5)" stroke-opacity="0" stroke-linejoin="bevel" stroke-miterlimit="10">0</text><text fill="#444444" stroke="none" font-family="helvetica" font-size="10pt" font-style="normal" font-weight="normal" text-decoration="normal" x="44.10000038146973" y="244.5715789794922" text-anchor="start" dominant-baseline="alphabetic" transform="matrix(1, 0, 0, 1, 0.5, 0.5)">20</text><text fill="none" stroke="rgb(0,0,0)" font-family="helvetica" font-size="10pt" font-style="normal" font-weight="normal" text-decoration="normal" x="44.10000038146973" y="244.5715789794922" text-anchor="start" dominant-baseline="alphabetic" transform="matrix(1, 0, 0, 1, 0.5, 0.5)" stroke-opacity="0" stroke-linejoin="bevel" stroke-miterlimit="10">20</text><text fill="#444444" stroke="none" font-family="helvetica" font-size="10pt" font-style="normal" font-weight="normal" text-decoration="normal" x="44.10000038146973" y="204.34632873535156" text-anchor="start" dominant-baseline="alphabetic" transform="matrix(1, 0, 0, 1, 0.5, 0.5)">40</text><text fill="none" stroke="rgb(0,0,0)" font-family="helvetica" font-size="10pt" font-style="normal" font-weight="normal" text-decoration="normal" x="44.10000038146973" y="204.34632873535156" text-anchor="start" dominant-baseline="alphabetic" transform="matrix(1, 0, 0, 1, 0.5, 0.5)" stroke-opacity="0" stroke-linejoin="bevel" stroke-miterlimit="10">40</text><text fill="#444444" stroke="none" font-family="helvetica" font-size="10pt" font-style="normal" font-weight="normal" text-decoration="normal" x="44.10000038146973" y="164.12106323242188" text-anchor="start" dominant-baseline="alphabetic" transform="matrix(1, 0, 0, 1, 0.5, 0.5)">60</text><text fill="none" stroke="rgb(0,0,0)" font-family="helvetica" font-size="10pt" font-style="normal" font-weight="normal" text-decoration="normal" x="44.10000038146973" y="164.12106323242188" text-anchor="start" dominant-baseline="alphabetic" transform="matrix(1, 0, 0, 1, 0.5, 0.5)" stroke-opacity="0" stroke-linejoin="bevel" stroke-miterlimit="10">60</text><text fill="#444444" stroke="none" font-family="helvetica" font-size="10pt" font-style="normal" font-weight="normal" text-decoration="normal" x="44.10000038146973" y="123.89579772949219" text-anchor="start" dominant-baseline="alphabetic" transform="matrix(1, 0, 0, 1, 0.5, 0.5)">80</text><text fill="none" stroke="rgb(0,0,0)" font-family="helvetica" font-size="10pt" font-style="normal" font-weight="normal" text-decoration="normal" x="44.10000038146973" y="123.89579772949219" text-anchor="start" dominant-baseline="alphabetic" transform="matrix(1, 0, 0, 1, 0.5, 0.5)" stroke-opacity="0" stroke-linejoin="bevel" stroke-miterlimit="10">80</text><text fill="#444444" stroke="none" font-family="helvetica" font-size="10pt" font-style="normal" font-weight="normal" text-decoration="normal" x="36.64999961853027" y="83.67053985595703" text-anchor="start" dominant-baseline="alphabetic" transform="matrix(1, 0, 0, 1, 0.5, 0.5)">100</text><text fill="none" stroke="rgb(0,0,0)" font-family="helvetica" font-size="10pt" font-style="normal" font-weight="normal" text-decoration="normal" x="36.64999961853027" y="83.67053985595703" text-anchor="start" dominant-baseline="alphabetic" transform="matrix(1, 0, 0, 1, 0.5, 0.5)" stroke-opacity="0" stroke-linejoin="bevel" stroke-miterlimit="10">100</text><text fill="#444444" stroke="none" font-family="helvetica" font-size="10pt" font-style="normal" font-weight="normal" text-decoration="normal" x="36.64999961853027" y="43.445274353027344" text-anchor="start" dominant-baseline="alphabetic" transform="matrix(1, 0, 0, 1, 0.5, 0.5)">120</text><text fill="none" stroke="rgb(0,0,0)" font-family="helvetica" font-size="10pt" font-style="normal" font-weight="normal" text-decoration="normal" x="36.64999961853027" y="43.445274353027344" text-anchor="start" dominant-baseline="alphabetic" transform="matrix(1, 0, 0, 1, 0.5, 0.5)" stroke-opacity="0" stroke-linejoin="bevel" stroke-miterlimit="10">120</text><text fill="#444444" stroke="none" font-family="helvetica" font-size="12pt" font-style="normal" font-weight="normal" text-decoration="normal" x="-78.07499885559082" y="151" text-anchor="start" dominant-baseline="alphabetic" transform="matrix(6.123233995736766e-17, -1, 1, 6.123233995736766e-17, -125.85000038146973, 184.14999961853027)">Days suitable for transmission</text><text fill="none" stroke="rgb(0,0,0)" font-family="helvetica" font-size="12pt" font-style="normal" font-weight="normal" text-decoration="normal" x="-78.07499885559082" y="151" text-anchor="start" dominant-baseline="alphabetic" transform="matrix(6.123233995736766e-17, -1, 1, 6.123233995736766e-17, -125.85000038146973, 184.14999961853027)" stroke-opacity="0" stroke-linejoin="bevel" stroke-miterlimit="10">Days suitable for transmission</text><path fill="rgb(255,255,255)" stroke="rgb(229,229,229)" paint-order="fill" d="M 475.183349609375 205.5 L 560.5000152587891 205.5 L 560.5000152587891 270.5 L 475.183349609375 270.5 L 475.183349609375 205.5 Z" fill-opacity="0.9490196078431372" clip-path="url(#sZrHObSecoTT)" stroke-opacity="0.5019607843137255" stroke-linejoin="bevel" stroke-miterlimit="10"/><g clip-path="url(#sZrHObSecoTT)"><g transform="matrix(1, 0, 0, 1, 485.683349609375, 216)"><path fill="none" stroke="#30a2da" paint-order="fill" d="M 0.5 10.5 L 20.5 10.5" stroke-linejoin="bevel" stroke-miterlimit="10" stroke-width="2"/></g></g><g clip-path="url(#sZrHObSecoTT)"><text fill="#444444" stroke="none" font-family="helvetica" font-size="13px" font-style="normal" font-weight="normal" text-decoration="normal" x="510.683349609375" y="230" text-anchor="start" dominant-baseline="alphabetic" transform="matrix(1, 0, 0, 1, 0.5, 0.5)">ID 001</text></g><g clip-path="url(#sZrHObSecoTT)"><text fill="none" stroke="rgb(0,0,0)" font-family="helvetica" font-size="13px" font-style="normal" font-weight="normal" text-decoration="normal" x="510.683349609375" y="230" text-anchor="start" dominant-baseline="alphabetic" transform="matrix(1, 0, 0, 1, 0.5, 0.5)" stroke-opacity="0" stroke-linejoin="bevel" stroke-miterlimit="10">ID 001</text></g><g clip-path="url(#sZrHObSecoTT)"><g transform="matrix(1, 0, 0, 1, 485.683349609375, 239)"><path fill="none" stroke="#fc4f30" paint-order="fill" d="M 0.5 10.5 L 20.5 10.5" stroke-linejoin="bevel" stroke-miterlimit="10" stroke-width="2"/></g></g><g clip-path="url(#sZrHObSecoTT)"><text fill="#444444" stroke="none" font-family="helvetica" font-size="13px" font-style="normal" font-weight="normal" text-decoration="normal" x="510.683349609375" y="253" text-anchor="start" dominant-baseline="alphabetic" transform="matrix(1, 0, 0, 1, 0.5, 0.5)">ID 006</text></g><g clip-path="url(#sZrHObSecoTT)"><text fill="none" stroke="rgb(0,0,0)" font-family="helvetica" font-size="13px" font-style="normal" font-weight="normal" text-decoration="normal" x="510.683349609375" y="253" text-anchor="start" dominant-baseline="alphabetic" transform="matrix(1, 0, 0, 1, 0.5, 0.5)" stroke-opacity="0" stroke-linejoin="bevel" stroke-miterlimit="10">ID 006</text></g><text fill="black" stroke="none" font-family="helvetica" font-size="14pt" font-style="normal" font-weight="normal" text-decoration="normal" x="0" y="15" text-anchor="start" dominant-baseline="alphabetic" transform="matrix(1, 0, 0, 1, 5.5, 5.5)">A. London</text><text fill="none" stroke="rgb(0,0,0)" font-family="helvetica" font-size="14pt" font-style="normal" font-weight="normal" text-decoration="normal" x="0" y="15" text-anchor="start" dominant-baseline="alphabetic" transform="matrix(1, 0, 0, 1, 5.5, 5.5)" stroke-opacity="0" stroke-linejoin="bevel" stroke-miterlimit="10">A. London</text></svg>