<svg version="1.1" xmlns="http://www.w3.org/2000/svg" width="600" height="329"><defs><clipPath id="BlgyBlUJasJT"><path fill="none" stroke="none" d="M 70.5 30.5 L 570.5 30.5 L 570.5 280.5 L 70.5 280.5 L 70.5 30.5 Z"/></clipPath><clipPath id="webSPTadLiQy"><path fill="none" stroke="none" d="M 70.5 30.5 L 570.5 30.5 L 570.5 280.5 L 70.5 280.5 L 70.5 30.5 Z"/></clipPath><clipPath id="KHpuyFvIqVdF"><path fill="none" stroke="none" d="M 70.5 30.5 L 570.5 30.5 L 570.5 280.5 L 70.5 280.5 L 70.5 30.5 Z"/></clipPath><clipPath id="GkXoCVKmLWdP"><path fill="none" stroke="none" d="M 70.5 30.5 L 570.5 30.5 L 570.5 280.5 L 70.5 280.5 L 70.5 30.5 Z"/></clipPath><clipPath id="RCdXTnZAyPAW"><path fill="none" stroke="none" d="M 70.5 30.5 L 570.5 30.5 L 570.5 280.5 L 70.5 280.5 L 70.5 30.5 Z"/></clipPath><clipPath id="TfftbSWTMUNt"><path fill="none" stroke="none" d="M 70.5 30.5 L 570.5 30.5 L 570.5 280.5 L 70.5 280.5 L 70.5 30.5 Z"/></clipPath><clipPath id="FrsQgeTwuokt"><path fill="none" stroke="none" d="M 70.5 30.5 L 570.5 30.5 L 570.5 280.5 L 70.5 280.5 L 70.5 30.5 Z"/></clipPath><clipPath id="QgcUwNobcHbt"><path fill="none" stroke="none" d="M 70.5 30.5 L 570.5 30.5 L 570.5 280.5 L 70.5 280.5 L 70.5 30.5 Z"/></clipPath><clipPath id="nlAZeXwngsdk"><path fill="none" stroke="none" d="M 70.5 30.5 L 570.5 30.5 L 570.5 280.5 L 70.5 280.5 L 70.5 30.5 Z"/></clipPath><clipPath id="QWVsagXmbQhq"><path fill="none" stroke="none" d="M 70.5 30.5 L 570.5 30.5 L 570.5 280.5 L 70.5 280.5 L 70.5 30.5 Z"/></clipPath><clipPath id="QGaKgFrekRgg"><path fill="none" stroke="none" d="M 70.5 30.5 L 570.5 30.5 L 570.5 280.5 L 70.5 280.5 L 70.5 30.5 Z"/></clipPath><clipPath id="GeQFFTozPLLe"><path fill="none" stroke="none" d="M 70.5 30.5 L 570.5 30.5 L 570.5 280.5 L 70.5 280.5 L 70.5 30.5 Z"/></clipPath><clipPath id="lDLmoragJHhE"><path fill="none" stroke="none" d="M 70.5 30.5 L 570.5 30.5 L 570.5 280.5 L 70.5 280.5 L 70.5 30.5 Z"/></clipPath><clipPath id="GwJetcyOLHTg"><path fill="none" stroke="none" d="M 70.5 30.5 L 570.5 30.5 L 570.5 280.5 L 70.5 280.5 L 70.5 30.5 Z"/></clipPath><clipPath id="aOpnqQaofbCM"><path fill="none" stroke="none" d="M 70.5 30.5 L 570.5 30.5 L 570.5 280.5 L 70.5 280.5 L 70.5 30.5 Z"/></clipPath><clipPath id="UlyvxggOvVTL"><path fill="none" stroke="none" d="M 70.5 30.5 L 570.5 30.5 L 570.5 280.5 L 70.5 280.5 L 70.5 30.5 Z"/></clipPath><clipPath id="TptRMPCLDUef"><path fill="none" stroke="none" d="M 70.5 30.5 L 570.5 30.5 L 570.5 280.5 L 70.5 280.5 L 70.5 30.5 Z"/></clipPath><clipPath id="PJXcnmfWRtCo"><path fill="none" stroke="none" d="M 70.5 30.5 L 570.5 30.5 L 570.5 280.5 L 70.5 280.5 L 70.5 30.5 Z"/></clipPath><clipPath id="MdMlJabsGeVG"><path fill="none" stroke="none" d="M 70.5 30.5 L 570.5 30.5 L 570.5 280.5 L 70.5 280.5 L 70.5 30.5 Z"/></clipPath><clipPath id="cveMZzLCsbbV"><path fill="none" stroke="none" d="M 70.5 30.5 L 570.5 30.5 L 570.5 280.5 L 70.5 280.5 L 70.5 30.5 Z"/></clipPath><clipPath id="gaDfiOekDlID"><path fill="none" stroke="none" d="M 70.5 30.5 L 570.5 30.5 L 570.5 280.5 L 70.5 280.5 L 70.5 30.5 Z"/></clipPath><clipPath id="hEuDcAzZySRp"><path fill="none" stroke="none" d="M 70.5 30.5 L 570.5 30.5 L 570.5 280.5 L 70.5 280.5 L 70.5 30.5 Z"/></clipPath><clipPath id="iniooKMmBLbW"><path fill="none" stroke="none" d="M 70.5 30.5 L 570.5 30.5 L 570.5 280.5 L 70.5 280.5 L 70.5 30.5 Z"/></clipPath></defs><path fill="none" stroke="#e5e5e5" paint-order="fill" d="M 70.5 30.5 L 570.5 30.5 L 570.5 280.5 L 70.5 280.5 L 70.5 30.5 Z" stroke-linejoin="bevel" stroke-miterlimit="10"/><path fill="none" stroke="black" paint-order="fill" d="M 332.46172248803487 30.5 L 332.46172248803487 280.5" stroke-linejoin="bevel" stroke-miterlimit="10" stroke-width="3" stroke-dasharray="6" clip-path="url(#KHpuyFvIqVdF)"/><path fill="none" stroke="#9467bd" paint-order="fill" d="M 93.2272720336914 94.04810333251953 L 117.15071868896484 65.36319732666016 L 141.07415771484375 80.80891418457031 L 164.9976043701172 85.22197723388672 L 188.92105102539062 83.01544952392578 L 212.84449768066406 71.9827880859375 L 236.7679443359375 80.80891418457031 L 260.6913757324219 92.94483947753906 L 284.6148376464844 67.5697250366211 L 308.53826904296875 85.22197723388672" stroke-linejoin="bevel" stroke-miterlimit="10" stroke-width="2" clip-path="url(#GkXoCVKmLWdP)"/><path fill="none" stroke="#9467bd" paint-order="fill" d="M 93.2272720336914 94.04810333251953 L 117.15071868896484 65.36319732666016 L 141.07415771484375 80.80891418457031 L 164.9976043701172 85.22197723388672 L 188.92105102539062 83.01544952392578 L 212.84449768066406 71.9827880859375 L 236.7679443359375 80.80891418457031 L 260.6913757324219 92.94483947753906 L 284.6148376464844 67.5697250366211 L 308.53826904296875 85.22197723388672" stroke-linejoin="bevel" stroke-miterlimit="10" stroke-width="2" stroke-dasharray="6" clip-path="url(#RCdXTnZAyPAW)"/><path fill="none" stroke="#30a2da" paint-order="fill" d="M 308.53826904296875 85.22197723388672 L 332.46173095703125 77.49911499023438 L 356.3851623535156 66.46646118164062 L 380.3086242675781 81.91217803955078 L 404.2320556640625 90.7383041381836 L 428.155517578125 86.32524108886719 L 452.0789489746094 68.67298889160156 L 476.00238037109375 85.22197723388672 L 499.92584228515625 65.36319732666016 L 523.8493041992188 78.60238647460938 L 547.772705078125 77.49911499023438" stroke-linejoin="bevel" stroke-miterlimit="10" stroke-width="2" clip-path="url(#TfftbSWTMUNt)"/><path fill="none" stroke="#30a2da" paint-order="fill" d="M 332.46173095703125 78.70268249511719 L 356.3851623535156 78.50877380371094 L 380.3086242675781 78.31486511230469 L 404.2320556640625 78.12095642089844 L 428.155517578125 77.92704772949219 L 452.0789489746094 77.73314666748047 L 476.00238037109375 77.53923797607422 L 499.92584228515625 77.34532928466797 L 523.8493041992188 77.15142059326172 L 547.772705078125 76.95751190185547" stroke-linejoin="bevel" stroke-miterlimit="10" stroke-width="2" stroke-dasharray="6" clip-path="url(#FrsQgeTwuokt)"/><path fill="none" stroke="#fc4f30" paint-order="fill" d="M 308.53826904296875 85.22197723388672 L 332.46173095703125 60.95013427734375 L 356.3851623535156 54.33053970336914 L 380.3086242675781 77.49911499023438 L 404.2320556640625 69.77626037597656 L 428.155517578125 70.87952423095703 L 452.0789489746094 88.53177642822266 L 476.00238037109375 76.3958511352539 L 499.92584228515625 86.32524108886719 L 523.8493041992188 68.67298889160156 L 547.772705078125 100.66769409179688" stroke-linejoin="bevel" stroke-miterlimit="10" stroke-width="2" clip-path="url(#QgcUwNobcHbt)"/><path fill="none" stroke="#fc4f30" paint-order="fill" d="M 332.46173095703125 60.689361572265625 L 356.3851623535156 63.95903778076172 L 380.3086242675781 67.22871398925781 L 404.2320556640625 70.49839782714844 L 428.155517578125 73.76807403564453 L 452.0789489746094 77.03775024414062 L 476.00238037109375 80.30742645263672 L 499.92584228515625 83.57711029052734 L 523.8493041992188 86.84678649902344 L 547.772705078125 90.11646270751953" stroke-linejoin="bevel" stroke-miterlimit="10" stroke-width="2" stroke-dasharray="6" clip-path="url(#nlAZeXwngsdk)"/><path fill="none" stroke="rgb(128,128,128)" paint-order="fill" d="M 93.2272720336914 80.80891418457031 L 117.15071868896484 69.77626037597656 L 141.07415771484375 69.77626037597656 L 164.9976043701172 69.77626037597656 L 188.92105102539062 87.42850494384766 L 212.84449768066406 90.7383041381836 L 236.7679443359375 66.46646118164062 L 260.6913757324219 75.29258728027344 L 284.6148376464844 65.36319732666016 L 308.53826904296875 64.25992965698242" stroke-opacity="0.7490196078431373" stroke-linejoin="bevel" stroke-miterlimit="10" clip-path="url(#QWVsagXmbQhq)"/><path fill="none" stroke="grey" paint-order="fill" d="M 308.53826904296875 64.25992965698242 L 332.46173095703125 70.87952423095703 L 356.3851623535156 54.33053970336914 L 380.3086242675781 88.53177642822266 L 404.2320556640625 53.227272033691406 L 428.155517578125 66.46646118164062 L 452.0789489746094 105.08075714111328 L 476.00238037109375 83.01544952392578 L 499.92584228515625 68.67298889160156 L 523.8493041992188 85.22197723388672 L 547.772705078125 87.42850494384766" stroke-linejoin="bevel" stroke-miterlimit="10" stroke-width="0.5" clip-path="url(#QGaKgFrekRgg)"/><path fill="none" stroke="grey" paint-order="fill" d="M 308.53826904296875 64.25992965698242 L 332.46173095703125 57.64033508300781 L 356.3851623535156 69.77626037597656 L 380.3086242675781 65.36319732666016 L 404.2320556640625 68.67298889160156 L 428.155517578125 74.18932342529297 L 452.0789489746094 74.18932342529297 L 476.00238037109375 85.22197723388672 L 499.92584228515625 88.53177642822266 L 523.8493041992188 76.3958511352539 L 547.772705078125 74.18932342529297" stroke-linejoin="bevel" stroke-miterlimit="10" stroke-width="0.5" clip-path="url(#GeQFFTozPLLe)"/><path fill="none" stroke="rgb(128,128,128)" paint-order="fill" d="M 93.2272720336914 70.87952423095703 L 117.15071868896484 71.9827880859375 L 141.07415771484375 77.49911499023438 L 164.9976043701172 78.60238647460938 L 188.92105102539062 67.5697250366211 L 212.84449768066406 67.5697250366211 L 236.7679443359375 87.42850494384766 L 260.6913757324219 76.3958511352539 L 284.6148376464844 58.74360275268555 L 308.53826904296875 96.25463104248047" stroke-opacity="0.7490196078431373" stroke-linejoin="bevel" stroke-miterlimit="10" clip-path="url(#lDLmoragJHhE)"/><path fill="none" stroke="grey" paint-order="fill" d="M 308.53826904296875 96.25463104248047 L 332.46173095703125 68.67298889160156 L 356.3851623535156 70.87952423095703 L 380.3086242675781 65.36319732666016 L 404.2320556640625 73.08605194091797 L 428.155517578125 66.46646118164062 L 452.0789489746094 73.08605194091797 L 476.00238037109375 107.28729248046875 L 499.92584228515625 95.1513671875 L 523.8493041992188 77.49911499023438 L 547.772705078125 83.01544952392578" stroke-linejoin="bevel" stroke-miterlimit="10" stroke-width="0.5" clip-path="url(#GwJetcyOLHTg)"/><path fill="none" stroke="grey" paint-order="fill" d="M 308.53826904296875 96.25463104248047 L 332.46173095703125 79.70565032958984 L 356.3851623535156 94.04810333251953 L 380.3086242675781 62.05339813232422 L 404.2320556640625 99.5644302368164 L 428.155517578125 73.08605194091797 L 452.0789489746094 64.25992965698242 L 476.00238037109375 94.04810333251953 L 499.92584228515625 88.53177642822266 L 523.8493041992188 71.9827880859375 L 547.772705078125 84.11871337890625" stroke-linejoin="bevel" stroke-miterlimit="10" stroke-width="0.5" clip-path="url(#aOpnqQaofbCM)"/><path fill="none" stroke="rgb(128,128,128)" paint-order="fill" d="M 93.2272720336914 65.36319732666016 L 117.15071868896484 85.22197723388672 L 141.07415771484375 85.22197723388672 L 164.9976043701172 66.46646118164062 L 188.92105102539062 75.29258728027344 L 212.84449768066406 90.7383041381836 L 236.7679443359375 63.15666198730469 L 260.6913757324219 65.36319732666016 L 284.6148376464844 84.11871337890625 L 308.53826904296875 66.46646118164062" stroke-opacity="0.7490196078431373" stroke-linejoin="bevel" stroke-miterlimit="10" clip-path="url(#UlyvxggOvVTL)"/><path fill="none" stroke="grey" paint-order="fill" d="M 308.53826904296875 66.46646118164062 L 332.46173095703125 89.63504028320312 L 356.3851623535156 71.9827880859375 L 380.3086242675781 68.67298889160156 L 404.2320556640625 86.32524108886719 L 428.155517578125 88.53177642822266 L 452.0789489746094 78.60238647460938 L 476.00238037109375 65.36319732666016 L 499.92584228515625 78.60238647460938 L 523.8493041992188 83.01544952392578 L 547.772705078125 83.01544952392578" stroke-linejoin="bevel" stroke-miterlimit="10" stroke-width="0.5" clip-path="url(#TptRMPCLDUef)"/><path fill="none" stroke="grey" paint-order="fill" d="M 308.53826904296875 66.46646118164062 L 332.46173095703125 71.9827880859375 L 356.3851623535156 96.25463104248047 L 380.3086242675781 94.04810333251953 L 404.2320556640625 81.91217803955078 L 428.155517578125 60.95013427734375 L 452.0789489746094 81.91217803955078 L 476.00238037109375 69.77626037597656 L 499.92584228515625 84.11871337890625 L 523.8493041992188 63.15666198730469 L 547.772705078125 69.77626037597656" stroke-linejoin="bevel" stroke-miterlimit="10" stroke-width="0.5" clip-path="url(#PJXcnmfWRtCo)"/><path fill="none" stroke="rgb(128,128,128)" paint-order="fill" d="M 93.2272720336914 94.04810333251953 L 117.15071868896484 65.36319732666016 L 141.07415771484375 62.05339813232422 L 164.9976043701172 75.29258728027344 L 188.92105102539062 85.22197723388672 L 212.84449768066406 83.01544952392578 L 236.7679443359375 60.95013427734375 L 260.6913757324219 76.3958511352539 L 284.6148376464844 73.08605194091797 L 308.53826904296875 63.15666198730469" stroke-opacity="0.7490196078431373" stroke-linejoin="bevel" stroke-miterlimit="10" clip-path="url(#MdMlJabsGeVG)"/><path fill="none" stroke="grey" paint-order="fill" d="M 308.53826904296875 63.15666198730469 L 332.46173095703125 85.22197723388672 L 356.3851623535156 85.22197723388672 L 380.3086242675781 78.60238647460938 L 404.2320556640625 83.01544952392578 L 428.155517578125 78.60238647460938 L 452.0789489746094 58.74360275268555 L 476.00238037109375 84.11871337890625 L 499.92584228515625 69.77626037597656 L 523.8493041992188 76.3958511352539 L 547.772705078125 95.1513671875" stroke-linejoin="bevel" stroke-miterlimit="10" stroke-width="0.5" clip-path="url(#cveMZzLCsbbV)"/><path fill="none" stroke="grey" paint-order="fill" d="M 308.53826904296875 63.15666198730469 L 332.46173095703125 89.63504028320312 L 356.3851623535156 65.36319732666016 L 380.3086242675781 74.18932342529297 L 404.2320556640625 75.29258728027344 L 428.155517578125 55.43380355834961 L 452.0789489746094 77.49911499023438 L 476.00238037109375 85.22197723388672 L 499.92584228515625 88.53177642822266 L 523.8493041992188 78.60238647460938 L 547.772705078125 91.84156799316406" stroke-linejoin="bevel" stroke-miterlimit="10" stroke-width="0.5" clip-path="url(#gaDfiOekDlID)"/><path fill="none" stroke="black" paint-order="fill" d="M 70.5 280.5 L 570.5 280.5" stroke-linejoin="bevel" stroke-miterlimit="10"/><path fill="none" stroke="black" paint-order="fill" d="M 93.5 286.5 L 93.5 278.5 M 212.5 286.5 L 212.5 278.5 M 332.5 286.5 L 332.5 278.5 M 452.5 286.5 L 452.5 278.5" stroke-linejoin="bevel" stroke-miterlimit="10"/><path fill="none" stroke="black" paint-order="fill" d="M 93.5 284.5 L 93.5 280.5 M 117.5 284.5 L 117.5 280.5 M 141.5 284.5 L 141.5 280.5 M 164.5 284.5 L 164.5 280.5 M 188.5 284.5 L 188.5 280.5 M 212.5 284.5 L 212.5 280.5 M 236.5 284.5 L 236.5 280.5 M 260.5 284.5 L 260.5 280.5 M 284.5 284.5 L 284.5 280.5 M 308.5 284.5 L 308.5 280.5 M 332.5 284.5 L 332.5 280.5 M 356.5 284.5 L 356.5 280.5 M 380.5 284.5 L 380.5 280.5 M 404.5 284.5 L 404.5 280.5 M 428.5 284.5 L 428.5 280.5 M 452.5 284.5 L 452.5 280.5 M 476.5 284.5 L 476.5 280.5 M 499.5 284.5 L 499.5 280.5 M 523.5 284.5 L 523.5 280.5 M 547.5 284.5 L 547.5 280.5" stroke-linejoin="bevel" stroke-miterlimit="10"/><text fill="#444444" stroke="none" font-family="helvetica" font-size="10pt" font-style="normal" font-weight="normal" text-decoration="normal" x="77.82727241516113" y="300.59368896484375" text-anchor="start" dominant-baseline="alphabetic" transform="matrix(1, 0, 0, 1, 0.5, 0.5)">2025</text><text fill="none" stroke="rgb(0,0,0)" font-family="helvetica" font-size="10pt" font-style="normal" font-weight="normal" text-decoration="normal" x="77.82727241516113" y="300.59368896484375" text-anchor="start" dominant-baseline="alphabetic" transform="matrix(1, 0, 0, 1, 0.5, 0.5)" stroke-opacity="0" stroke-linejoin="bevel" stroke-miterlimit="10">2025</text><text fill="#444444" stroke="none" font-family="helvetica" font-size="10pt" font-style="normal" font-weight="normal" text-decoration="normal" x="197.4444980621338" y="300.59368896484375" text-anchor="start" dominant-baseline="alphabetic" transform="matrix(1, 0, 0, 1, 0.5, 0.5)">2030</text><text fill="none" stroke="rgb(0,0,0)" font-family="helvetica" font-size="10pt" font-style="normal" font-weight="normal" text-decoration="normal" x="197.4444980621338" y="300.59368896484375" text-anchor="start" dominant-baseline="alphabetic" transform="matrix(1, 0, 0, 1, 0.5, 0.5)" stroke-opacity="0" stroke-linejoin="bevel" stroke-miterlimit="10">2030</text><text fill="#444444" stroke="none" font-family="helvetica" font-size="10pt" font-style="normal" font-weight="normal" text-decoration="normal" x="317.061731338501" y="300.59368896484375" text-anchor="start" dominant-baseline="alphabetic" transform="matrix(1, 0, 0, 1, 0.5, 0.5)">2035</text><text fill="none" stroke="rgb(0,0,0)" font-family="helvetica" font-size="10pt" font-style="normal" font-weight="normal" text-decoration="normal" x="317.061731338501" y="300.59368896484375" text-anchor="start" dominant-baseline="alphabetic" transform="matrix(1, 0, 0, 1, 0.5, 0.5)" stroke-opacity="0" stroke-linejoin="bevel" stroke-miterlimit="10">2035</text><text fill="#444444" stroke="none" font-family="helvetica" font-size="10pt" font-style="normal" font-weight="normal" text-decoration="normal" x="436.6789493560791" y="300.59368896484375" text-anchor="start" dominant-baseline="alphabetic" transform="matrix(1, 0, 0, 1, 0.5, 0.5)">2040</text><text fill="none" stroke="rgb(0,0,0)" font-family="helvetica" font-size="10pt" font-style="normal" font-weight="normal" text-decoration="normal" x="436.6789493560791" y="300.59368896484375" text-anchor="start" dominant-baseline="alphabetic" transform="matrix(1, 0, 0, 1, 0.5, 0.5)" stroke-opacity="0" stroke-linejoin="bevel" stroke-miterlimit="10">2040</text><text fill="#444444" stroke="none" font-family="helvetica" font-size="12pt" font-style="normal" font-weight="normal" text-decoration="normal" x="303.8333339691162" y="321.59368896484375" text-anchor="start" dominant-baseline="alphabetic" transform="matrix(1, 0, 0, 1, 0.5, 0.5)">Year</text><text fill="none" stroke="rgb(0,0,0)" font-family="helvetica" font-size="12pt" font-style="normal" font-weight="normal" text-decoration="normal" x="303.8333339691162" y="321.59368896484375" text-anchor="start" dominant-baseline="alphabetic" transform="matrix(1, 0, 0, 1, 0.5, 0.5)" stroke-opacity="0" stroke-linejoin="bevel" stroke-miterlimit="10">Year</text><path fill="none" stroke="black" paint-order="fill" d="M 70.5 280.5 L 70.5 30.5" stroke-linejoin="bevel" stroke-miterlimit="10"/><path fill="none" stroke="black" paint-order="fill" d="M 64.5 280.5 L 72.5 280.5 M 64.5 225.5 L 72.5 225.5 M 64.5 170.5 L 72.5 170.5 M 64.5 115.5 L 72.5 115.5 M 64.5 59.5 L 72.5 59.5" stroke-linejoin="bevel" stroke-miterlimit="10"/><path fill="none" stroke="black" paint-order="fill" d="M 66.5 280.5 L 70.5 280.5 M 66.5 269.5 L 70.5 269.5 M 66.5 258.5 L 70.5 258.5 M 66.5 247.5 L 70.5 247.5 M 66.5 236.5 L 70.5 236.5 M 66.5 225.5 L 70.5 225.5 M 66.5 214.5 L 70.5 214.5 M 66.5 203.5 L 70.5 203.5 M 66.5 192.5 L 70.5 192.5 M 66.5 181.5 L 70.5 181.5 M 66.5 170.5 L 70.5 170.5 M 66.5 159.5 L 70.5 159.5 M 66.5 148.5 L 70.5 148.5 M 66.5 137.5 L 70.5 137.5 M 66.5 126.5 L 70.5 126.5 M 66.5 115.5 L 70.5 115.5 M 66.5 103.5 L 70.5 103.5 M 66.5 92.5 L 70.5 92.5 M 66.5 81.5 L 70.5 81.5 M 66.5 70.5 L 70.5 70.5 M 66.5 59.5 L 70.5 59.5 M 66.5 48.5 L 70.5 48.5 M 66.5 37.5 L 70.5 37.5" stroke-linejoin="bevel" stroke-miterlimit="10"/><text fill="#444444" stroke="none" font-family="helvetica" font-size="10pt" font-style="normal" font-weight="normal" text-decoration="normal" x="51.55000019073486" y="284.7968444824219" text-anchor="start" dominant-baseline="alphabetic" transform="matrix(1, 0, 0, 1, 0.5, 0.5)">0</text><text fill="none" stroke="rgb(0,0,0)" font-family="helvetica" font-size="10pt" font-style="normal" font-weight="normal" text-decoration="normal" x="51.55000019073486" y="284.7968444824219" text-anchor="start" dominant-baseline="alphabetic" transform="matrix(1, 0, 0, 1, 0.5, 0.5)" stroke-opacity="0" stroke-linejoin="bevel" stroke-miterlimit="10">0</text><text fill="#444444" stroke="none" font-family="helvetica" font-size="10pt" font-style="normal" font-weight="normal" text-decoration="normal" x="44.10000038146973" y="229.63356018066406" text-anchor="start" dominant-baseline="alphabetic" transform="matrix(1, 0, 0, 1, 0.5, 0.5)">50</text><text fill="none" stroke="rgb(0,0,0)" font-family="helvetica" font-size="10pt" font-style="normal" font-weight="normal" text-decoration="normal" x="44.10000038146973" y="229.63356018066406" text-anchor="start" dominant-baseline="alphabetic" transform="matrix(1, 0, 0, 1, 0.5, 0.5)" stroke-opacity="0" stroke-linejoin="bevel" stroke-miterlimit="10">50</text><text fill="#444444" stroke="none" font-family="helvetica" font-size="10pt" font-style="normal" font-weight="normal" text-decoration="normal" x="36.64999961853027" y="174.47027587890625" text-anchor="start" dominant-baseline="alphabetic" transform="matrix(1, 0, 0, 1, 0.5, 0.5)">100</text><text fill="none" stroke="rgb(0,0,0)" font-family="helvetica" font-size="10pt" font-style="normal" font-weight="normal" text-decoration="normal" x="36.64999961853027" y="174.47027587890625" text-anchor="start" dominant-baseline="alphabetic" transform="matrix(1, 0, 0, 1, 0.5, 0.5)" stroke-opacity="0" stroke-linejoin="bevel" stroke-miterlimit="10">100</text><text fill="#444444" stroke="none" font-family="helvetica" font-size="10pt" font-style="normal" font-weight="normal" text-decoration="normal" x="36.64999961853027" y="119.30699157714844" text-anchor="start" dominant-baseline="alphabetic" transform="matrix(1, 0, 0, 1, 0.5, 0.5)">150</text><text fill="none" stroke="rgb(0,0,0)" font-family="helvetica" font-size="10pt" font-style="normal" font-weight="normal" text-decoration="normal" x="36.64999961853027" y="119.30699157714844" text-anchor="start" dominant-baseline="alphabetic" transform="matrix(1, 0, 0, 1, 0.5, 0.5)" stroke-opacity="0" stroke-linejoin="bevel" stroke-miterlimit="10">150</text><text fill="#444444" stroke="none" font-family="helvetica" font-size="10pt" font-style="normal" font-weight="normal" text-decoration="normal" x="36.64999961853027" y="64.14371109008789" text-anchor="start" dominant-baseline="alphabetic" transform="matrix(1, 0, 0, 1, 0.5, 0.5)">200</text><text fill="none" stroke="rgb(0,0,0)" font-family="helvetica" font-size="10pt" font-style="normal" font-weight="normal" text-decoration="normal" x="36.64999961853027" y="64.14371109008789" text-anchor="start" dominant-baseline="alphabetic" transform="matrix(1, 0, 0, 1, 0.5, 0.5)" stroke-opacity="0" stroke-linejoin="bevel" stroke-miterlimit="10">200</text><text fill="#444444" stroke="none" font-family="helvetica" font-size="12pt" font-style="normal" font-weight="normal" text-decoration="normal" x="-78.07499885559082" y="151" text-anchor="start" dominant-baseline="alphabetic" transform="matrix(6.123233995736766e-17, -1, 1, 6.123233995736766e-17, -125.85000038146973, 184.14999961853027)">Days suitable for transmission</text><text fill="none" stroke="rgb(0,0,0)" font-family="helvetica" font-size="12pt" font-style="normal" font-weight="normal" text-decoration="normal" x="-78.07499885559082" y="151" text-anchor="start" dominant-baseline="alphabetic" transform="matrix(6.123233995736766e-17, -1, 1, 6.123233995736766e-17, -125.85000038146973, 184.14999961853027)" stroke-opacity="0" stroke-linejoin="bevel" stroke-miterlimit="10">Days suitable for transmission</text><path fill="rgb(255,255,255)" stroke="rgb(229,229,229)" paint-order="fill" d="M 475.183349609375 205.5 L 560.5000152587891 205.5 L 560.5000152587891 270.5 L 475.183349609375 270.5 L 475.183349609375 205.5 Z" fill-opacity="0.9490196078431372" clip-path="url(#hEuDcAzZySRp)" stroke-opacity="0.5019607843137255" stroke-linejoin="bevel" stroke-miterlimit="10"/><g clip-path="url(#hEuDcAzZySRp)"><g transform="matrix(1, 0, 0, 1, 485.683349609375, 216)"><path fill="none" stroke="#30a2da" paint-order="fill" d="M 0.5 10.5 L 20.5 10.5" stroke-linejoin="bevel" stroke-miterlimit="10" stroke-width="2"/></g></g><g clip-path="url(#hEuDcAzZySRp)"><text fill="#444444" stroke="none" font-family="helvetica" font-size="13px" font-style="normal" font-weight="normal" text-decoration="normal" x="510.683349609375" y="230" text-anchor="start" dominant-baseline="alphabetic" transform="matrix(1, 0, 0, 1, 0.5, 0.5)">ID 001</text></g><g clip-path="url(#hEuDcAzZySRp)"><text fill="none" stroke="rgb(0,0,0)" font-family="helvetica" font-size="13px" font-style="normal" font-weight="normal" text-decoration="normal" x="510.683349609375" y="230" text-anchor="start" dominant-baseline="alphabetic" transform="matrix(1, 0, 0, 1, 0.5, 0.5)" stroke-opacity="0" stroke-linejoin="bevel" stroke-miterlimit="10">ID 001</text></g><g clip-path="url(#hEuDcAzZySRp)"><g transform="matrix(1, 0, 0, 1, 485.683349609375, 239)"><path fill="none" stroke="#fc4f30" paint-order="fill" d="M 0.5 10.5 L 20.5 10.5" stroke-linejoin="bevel" stroke-miterlimit="10" stroke-width="2"/></g></g><g clip-path="url(#hEuDcAzZySRp)"><text fill="#444444" stroke="none" font-family="helvetica" font-size="13px" font-style="normal" font-weight="normal" text-decoration="normal" x="510.683349609375" y="253" text-anchor="start" dominant-baseline="alphabetic" transform="matrix(1, 0, 0, 1, 0.5, 0.5)">ID 006</text></g><g clip-path="url(#hEuDcAzZySRp)"><text fill="none" stroke="rgb(0,0,0)" font-family="helvetica" font-size="13px" font-style="normal" font-weight="normal" text-decoration="normal" x="510.683349609375" y="253" text-anchor="start" dominant-baseline="alphabetic" transform="matrix(1, 0, 0, 1, 0.5, 0.5)" stroke-opacity="0" stroke-linejoin="bevel" stroke-miterlimit="10">ID 006</text></g><text fill="black" stroke="none" font-family="helvetica" font-size="14pt" font-style="normal" font-weight="normal" text-decoration="normal" x="0" y="15" text-anchor="start" dominant-baseline="alphabetic" transform="matrix(1, 0, 0, 1, 5.5, 5.5)">D. Santiago de Chile</text><text fill="none" stroke="rgb(0,0,0)" font-family="helvetica" font-size="14pt" font-style="normal" font-weight="normal" text-decoration="normal" x="0" y="15" text-anchor="start" dominant-baseline="alphabetic" transform="matrix(1, 0, 0, 1, 5.5, 5.5)" stroke-opacity="0" stroke-linejoin="bevel" stroke-miterlimit="10">D. Santiago de Chile</text></svg>