<svg version="1.1" xmlns="http://www.w3.org/2000/svg" width="605" height="336"><defs><clipPath id="ZQxsCGUyzhdL"><path fill="none" stroke="none" d="M 75.5 35.5 L 575.5 35.5 L 575.5 285.5 L 75.5 285.5 L 75.5 35.5 Z"/></clipPath><clipPath id="DUMqNOOFMswE"><path fill="none" stroke="none" d="M 75.5 35.5 L 575.5 35.5 L 575.5 285.5 L 75.5 285.5 L 75.5 35.5 Z"/></clipPath><clipPath id="fqTQOweSUfuC"><path fill="none" stroke="none" d="M 75.5 35.5 L 575.5 35.5 L 575.5 285.5 L 75.5 285.5 L 75.5 35.5 Z"/></clipPath><clipPath id="IHewRyiZpxno"><path fill="none" stroke="none" d="M 75.5 35.5 L 575.5 35.5 L 575.5 285.5 L 75.5 285.5 L 75.5 35.5 Z"/></clipPath><clipPath id="nEGiwhIykxxZ"><path fill="none" stroke="none" d="M 75.5 35.5 L 575.5 35.5 L 575.5 285.5 L 75.5 285.5 L 75.5 35.5 Z"/></clipPath><clipPath id="OLIKvwQBSvUA"><path fill="none" stroke="none" d="M 75.5 35.5 L 575.5 35.5 L 575.5 285.5 L 75.5 285.5 L 75.5 35.5 Z"/></clipPath><clipPath id="nkAVBFCRKfaT"><path fill="none" stroke="none" d="M 75.5 35.5 L 575.5 35.5 L 575.5 285.5 L 75.5 285.5 L 75.5 35.5 Z"/></clipPath><clipPath id="cVxVDfiiPlsE"><path fill="none" stroke="none" d="M 75.5 35.5 L 575.5 35.5 L 575.5 285.5 L 75.5 285.5 L 75.5 35.5 Z"/></clipPath><clipPath id="qeldUgwdwFJP"><path fill="none" stroke="none" d="M 75.5 35.5 L 575.5 35.5 L 575.5 285.5 L 75.5 285.5 L 75.5 35.5 Z"/></clipPath><clipPath id="PqMSzIgyNdlm"><path fill="none" stroke="none" d="M 75.5 35.5 L 575.5 35.5 L 575.5 285.5 L 75.5 285.5 L 75.5 35.5 Z"/></clipPath><clipPath id="QkZRFLrLbHnf"><path fill="none" stroke="none" d="M 75.5 35.5 L 575.5 35.5 L 575.5 285.5 L 75.5 285.5 L 75.5 35.5 Z"/></clipPath><clipPath id="mRckcsZMumqI"><path fill="none" stroke="none" d="M 75.5 35.5 L 575.5 35.5 L 575.5 285.5 L 75.5 285.5 L 75.5 35.5 Z"/></clipPath><clipPath id="SruwlWgDBWQN"><path fill="none" stroke="none" d="M 75.5 35.5 L 575.5 35.5 L 575.5 285.5 L 75.5 285.5 L 75.5 35.5 Z"/></clipPath><clipPath id="QMPEdVLQHUCk"><path fill="none" stroke="none" d="M 75.5 35.5 L 575.5 35.5 L 575.5 285.5 L 75.5 285.5 L 75.5 35.5 Z"/></clipPath><clipPath id="IkDmxMoshnuE"><path fill="none" stroke="none" d="M 75.5 35.5 L 575.5 35.5 L 575.5 285.5 L 75.5 285.5 L 75.5 35.5 Z"/></clipPath><clipPath id="vGnMehPVzUqD"><path fill="none" stroke="none" d="M 75.5 35.5 L 575.5 35.5 L 575.5 285.5 L 75.5 285.5 L 75.5 35.5 Z"/></clipPath><clipPath id="AVeRyRRbAczA"><path fill="none" stroke="none" d="M 75.5 35.5 L 575.5 35.5 L 575.5 285.5 L 75.5 285.5 L 75.5 35.5 Z"/></clipPath><clipPath id="ubgWLHFidVnu"><path fill="none" stroke="none" d="M 75.5 35.5 L 575.5 35.5 L 575.5 285.5 L 75.5 285.5 L 75.5 35.5 Z"/></clipPath><clipPath id="VtTCUIghirgu"><path fill="none" stroke="none" d="M 75.5 35.5 L 575.5 35.5 L 575.5 285.5 L 75.5 285.5 L 75.5 35.5 Z"/></clipPath><clipPath id="thPUJAzLTzal"><path fill="none" stroke="none" d="M 75.5 35.5 L 575.5 35.5 L 575.5 285.5 L 75.5 285.5 L 75.5 35.5 Z"/></clipPath><clipPath id="idSfNCkoDsUZ"><path fill="none" stroke="none" d="M 75.5 35.5 L 575.5 35.5 L 575.5 285.5 L 75.5 285.5 L 75.5 35.5 Z"/></clipPath><clipPath id="nBvLtsAzawbI"><path fill="none" stroke="none" d="M 75.5 35.5 L 575.5 35.5 L 575.5 285.5 L 75.5 285.5 L 75.5 35.5 Z"/></clipPath><clipPath id="rhtBmMSBRDOh"><path fill="none" stroke="none" d="M 75.5 35.5 L 575.5 35.5 L 575.5 285.5 L 75.5 285.5 L 75.5 35.5 Z"/></clipPath></defs><path fill="none" stroke="#e5e5e5" paint-order="fill" d="M 75.5 35.5 L 575.5 35.5 L 575.5 285.5 L 75.5 285.5 L 75.5 35.5 Z" stroke-linejoin="bevel" stroke-miterlimit="10"/><path fill="none" stroke="black" paint-order="fill" d="M 337.46172248803487 35.5 L 337.46172248803487 285.5" stroke-linejoin="bevel" stroke-miterlimit="10" stroke-width="3" stroke-dasharray="6" clip-path="url(#fqTQOweSUfuC)"/><path fill="none" stroke="#9467bd" paint-order="fill" d="M 98.2272720336914 132.64401245117188 L 122.15071868896484 106.49758911132812 L 146.07415771484375 176.8917999267578 L 169.9976043701172 156.77915954589844 L 193.92105102539062 92.41874694824219 L 217.84449768066406 132.64401245117188 L 241.7679443359375 221.13958740234375 L 265.6913757324219 122.58769226074219 L 289.6148376464844 182.9255828857422 L 313.53826904296875 158.79042053222656" stroke-linejoin="bevel" stroke-miterlimit="10" stroke-width="2" clip-path="url(#IHewRyiZpxno)"/><path fill="none" stroke="#9467bd" paint-order="fill" d="M 98.2272720336914 132.64401245117188 L 122.15071868896484 106.49758911132812 L 146.07415771484375 176.8917999267578 L 169.9976043701172 156.77915954589844 L 193.92105102539062 92.41874694824219 L 217.84449768066406 132.64401245117188 L 241.7679443359375 221.13958740234375 L 265.6913757324219 122.58769226074219 L 289.6148376464844 182.9255828857422 L 313.53826904296875 158.79042053222656" stroke-linejoin="bevel" stroke-miterlimit="10" stroke-width="2" stroke-dasharray="6" clip-path="url(#nEGiwhIykxxZ)"/><path fill="none" stroke="#30a2da" paint-order="fill" d="M 313.53826904296875 158.79042053222656 L 337.46173095703125 104.48632049560547 L 361.3851623535156 96.44126892089844 L 385.3086242675781 122.58769226074219 L 409.2320556640625 144.71157836914062 L 433.155517578125 96.44126892089844 L 457.0789489746094 158.79042053222656 L 481.00238037109375 197.00442504882812 L 504.92584228515625 134.6552734375 L 528.8493041992188 150.74537658691406 L 552.772705078125 209.07200622558594" stroke-linejoin="bevel" stroke-miterlimit="10" stroke-width="2" clip-path="url(#OLIKvwQBSvUA)"/><path fill="none" stroke="#30a2da" paint-order="fill" d="M 337.46173095703125 97.83087158203125 L 361.3851623535156 107.53369140625 L 385.3086242675781 117.23651123046875 L 409.2320556640625 126.9393310546875 L 433.155517578125 136.64215087890625 L 457.0789489746094 146.344970703125 L 481.00238037109375 156.04779052734375 L 504.92584228515625 165.7506103515625 L 528.8493041992188 175.45343017578125 L 552.772705078125 185.15625" stroke-linejoin="bevel" stroke-miterlimit="10" stroke-width="2" stroke-dasharray="6" clip-path="url(#nkAVBFCRKfaT)"/><path fill="none" stroke="#fc4f30" paint-order="fill" d="M 313.53826904296875 158.79042053222656 L 337.46173095703125 108.50885009765625 L 361.3851623535156 223.15084838867188 L 385.3086242675781 192.98190307617188 L 409.2320556640625 148.73411560058594 L 433.155517578125 144.71157836914062 L 457.0789489746094 158.79042053222656 L 481.00238037109375 168.84674072265625 L 504.92584228515625 142.7003173828125 L 528.8493041992188 168.84674072265625 L 552.772705078125 100.46379852294922" stroke-linejoin="bevel" stroke-miterlimit="10" stroke-width="2" clip-path="url(#cVxVDfiiPlsE)"/><path fill="none" stroke="#fc4f30" paint-order="fill" d="M 337.46173095703125 172.94239807128906 L 361.3851623535156 169.12710571289062 L 385.3086242675781 165.31179809570312 L 409.2320556640625 161.49649047851562 L 433.155517578125 157.68118286132812 L 457.0789489746094 153.86587524414062 L 481.00238037109375 150.05056762695312 L 504.92584228515625 146.2352752685547 L 528.8493041992188 142.4199676513672 L 552.772705078125 138.6046600341797" stroke-linejoin="bevel" stroke-miterlimit="10" stroke-width="2" stroke-dasharray="6" clip-path="url(#qeldUgwdwFJP)"/><path fill="none" stroke="rgb(128,128,128)" paint-order="fill" d="M 98.2272720336914 237.2296905517578 L 122.15071868896484 126.61021423339844 L 146.07415771484375 72.30611419677734 L 169.9976043701172 116.55390167236328 L 193.92105102539062 118.5651626586914 L 217.84449768066406 126.61021423339844 L 241.7679443359375 136.66653442382812 L 265.6913757324219 126.61021423339844 L 289.6148376464844 120.57643127441406 L 313.53826904296875 66.27232360839844" stroke-opacity="0.7490196078431373" stroke-linejoin="bevel" stroke-miterlimit="10" clip-path="url(#PqMSzIgyNdlm)"/><path fill="none" stroke="grey" paint-order="fill" d="M 313.53826904296875 66.27232360839844 L 337.46173095703125 90.40747833251953 L 361.3851623535156 114.54264068603516 L 385.3086242675781 82.3624267578125 L 409.2320556640625 102.47505950927734 L 433.155517578125 94.43000793457031 L 457.0789489746094 94.43000793457031 L 481.00238037109375 158.79042053222656 L 504.92584228515625 148.73411560058594 L 528.8493041992188 197.00442504882812 L 552.772705078125 180.91432189941406" stroke-linejoin="bevel" stroke-miterlimit="10" stroke-width="0.5" clip-path="url(#QkZRFLrLbHnf)"/><path fill="none" stroke="grey" paint-order="fill" d="M 313.53826904296875 66.27232360839844 L 337.46173095703125 100.46379852294922 L 361.3851623535156 134.6552734375 L 385.3086242675781 164.82421875 L 409.2320556640625 182.9255828857422 L 433.155517578125 136.66653442382812 L 457.0789489746094 86.38495635986328 L 481.00238037109375 138.67779541015625 L 504.92584228515625 142.7003173828125 L 528.8493041992188 146.7228546142578 L 552.772705078125 122.58769226074219" stroke-linejoin="bevel" stroke-miterlimit="10" stroke-width="0.5" clip-path="url(#mRckcsZMumqI)"/><path fill="none" stroke="rgb(128,128,128)" paint-order="fill" d="M 98.2272720336914 126.61021423339844 L 122.15071868896484 128.62147521972656 L 146.07415771484375 92.41874694824219 L 169.9976043701172 148.73411560058594 L 193.92105102539062 142.7003173828125 L 217.84449768066406 112.5313720703125 L 241.7679443359375 102.47505950927734 L 265.6913757324219 94.43000793457031 L 289.6148376464844 152.7566375732422 L 313.53826904296875 118.5651626586914" stroke-opacity="0.7490196078431373" stroke-linejoin="bevel" stroke-miterlimit="10" clip-path="url(#SruwlWgDBWQN)"/><path fill="none" stroke="grey" paint-order="fill" d="M 313.53826904296875 118.5651626586914 L 337.46173095703125 112.5313720703125 L 361.3851623535156 112.5313720703125 L 385.3086242675781 96.44126892089844 L 409.2320556640625 122.58769226074219 L 433.155517578125 132.64401245117188 L 457.0789489746094 88.3962173461914 L 481.00238037109375 58.227272033691406 L 504.92584228515625 116.55390167236328 L 528.8493041992188 98.4525375366211 L 552.772705078125 136.66653442382812" stroke-linejoin="bevel" stroke-miterlimit="10" stroke-width="0.5" clip-path="url(#QMPEdVLQHUCk)"/><path fill="none" stroke="grey" paint-order="fill" d="M 313.53826904296875 118.5651626586914 L 337.46173095703125 70.29485321044922 L 361.3851623535156 146.7228546142578 L 385.3086242675781 162.81295776367188 L 409.2320556640625 118.5651626586914 L 433.155517578125 120.57643127441406 L 457.0789489746094 178.90306091308594 L 481.00238037109375 108.50885009765625 L 504.92584228515625 156.77915954589844 L 528.8493041992188 110.52011108398438 L 552.772705078125 98.4525375366211" stroke-linejoin="bevel" stroke-miterlimit="10" stroke-width="0.5" clip-path="url(#IkDmxMoshnuE)"/><path fill="none" stroke="rgb(128,128,128)" paint-order="fill" d="M 98.2272720336914 146.7228546142578 L 122.15071868896484 118.5651626586914 L 146.07415771484375 104.48632049560547 L 169.9976043701172 114.54264068603516 L 193.92105102539062 194.9931640625 L 217.84449768066406 104.48632049560547 L 241.7679443359375 207.0607452392578 L 265.6913757324219 84.37369537353516 L 289.6148376464844 120.57643127441406 L 313.53826904296875 80.35116577148438" stroke-opacity="0.7490196078431373" stroke-linejoin="bevel" stroke-miterlimit="10" clip-path="url(#vGnMehPVzUqD)"/><path fill="none" stroke="grey" paint-order="fill" d="M 313.53826904296875 80.35116577148438 L 337.46173095703125 148.73411560058594 L 361.3851623535156 104.48632049560547 L 385.3086242675781 146.7228546142578 L 409.2320556640625 116.55390167236328 L 433.155517578125 172.8692626953125 L 457.0789489746094 106.49758911132812 L 481.00238037109375 148.73411560058594 L 504.92584228515625 120.57643127441406 L 528.8493041992188 172.8692626953125 L 552.772705078125 144.71157836914062" stroke-linejoin="bevel" stroke-miterlimit="10" stroke-width="0.5" clip-path="url(#AVeRyRRbAczA)"/><path fill="none" stroke="grey" paint-order="fill" d="M 313.53826904296875 80.35116577148438 L 337.46173095703125 128.62147521972656 L 361.3851623535156 118.5651626586914 L 385.3086242675781 124.59895324707031 L 409.2320556640625 150.74537658691406 L 433.155517578125 164.82421875 L 457.0789489746094 108.50885009765625 L 481.00238037109375 140.68905639648438 L 504.92584228515625 128.62147521972656 L 528.8493041992188 150.74537658691406 L 552.772705078125 118.5651626586914" stroke-linejoin="bevel" stroke-miterlimit="10" stroke-width="0.5" clip-path="url(#ubgWLHFidVnu)"/><path fill="none" stroke="rgb(128,128,128)" paint-order="fill" d="M 98.2272720336914 205.0494842529297 L 122.15071868896484 124.59895324707031 L 146.07415771484375 144.71157836914062 L 169.9976043701172 108.50885009765625 L 193.92105102539062 178.90306091308594 L 217.84449768066406 164.82421875 L 241.7679443359375 124.59895324707031 L 265.6913757324219 86.38495635986328 L 289.6148376464844 136.66653442382812 L 313.53826904296875 142.7003173828125" stroke-opacity="0.7490196078431373" stroke-linejoin="bevel" stroke-miterlimit="10" clip-path="url(#VtTCUIghirgu)"/><path fill="none" stroke="grey" paint-order="fill" d="M 313.53826904296875 142.7003173828125 L 337.46173095703125 118.5651626586914 L 361.3851623535156 140.68905639648438 L 385.3086242675781 86.38495635986328 L 409.2320556640625 110.52011108398438 L 433.155517578125 136.66653442382812 L 457.0789489746094 166.83547973632812 L 481.00238037109375 176.8917999267578 L 504.92584228515625 130.6327362060547 L 528.8493041992188 132.64401245117188 L 552.772705078125 124.59895324707031" stroke-linejoin="bevel" stroke-miterlimit="10" stroke-width="0.5" clip-path="url(#thPUJAzLTzal)"/><path fill="none" stroke="grey" paint-order="fill" d="M 313.53826904296875 142.7003173828125 L 337.46173095703125 112.5313720703125 L 361.3851623535156 104.48632049560547 L 385.3086242675781 120.57643127441406 L 409.2320556640625 148.73411560058594 L 433.155517578125 152.7566375732422 L 457.0789489746094 116.55390167236328 L 481.00238037109375 162.81295776367188 L 504.92584228515625 160.80169677734375 L 528.8493041992188 110.52011108398438 L 552.772705078125 106.49758911132812" stroke-linejoin="bevel" stroke-miterlimit="10" stroke-width="0.5" clip-path="url(#idSfNCkoDsUZ)"/><path fill="none" stroke="black" paint-order="fill" d="M 75.5 285.5 L 575.5 285.5" stroke-linejoin="bevel" stroke-miterlimit="10"/><path fill="none" stroke="black" paint-order="fill" d="M 98.5 291.5 L 98.5 283.5 M 217.5 291.5 L 217.5 283.5 M 337.5 291.5 L 337.5 283.5 M 457.5 291.5 L 457.5 283.5" stroke-linejoin="bevel" stroke-miterlimit="10"/><path fill="none" stroke="black" paint-order="fill" d="M 98.5 289.5 L 98.5 285.5 M 122.5 289.5 L 122.5 285.5 M 146.5 289.5 L 146.5 285.5 M 169.5 289.5 L 169.5 285.5 M 193.5 289.5 L 193.5 285.5 M 217.5 289.5 L 217.5 285.5 M 241.5 289.5 L 241.5 285.5 M 265.5 289.5 L 265.5 285.5 M 289.5 289.5 L 289.5 285.5 M 313.5 289.5 L 313.5 285.5 M 337.5 289.5 L 337.5 285.5 M 361.5 289.5 L 361.5 285.5 M 385.5 289.5 L 385.5 285.5 M 409.5 289.5 L 409.5 285.5 M 433.5 289.5 L 433.5 285.5 M 457.5 289.5 L 457.5 285.5 M 481.5 289.5 L 481.5 285.5 M 504.5 289.5 L 504.5 285.5 M 528.5 289.5 L 528.5 285.5 M 552.5 289.5 L 552.5 285.5" stroke-linejoin="bevel" stroke-miterlimit="10"/><text fill="#444444" stroke="none" font-family="helvetica" font-size="10pt" font-style="normal" font-weight="normal" text-decoration="normal" x="84.36060523986816" y="306" text-anchor="start" dominant-baseline="alphabetic" transform="matrix(1, 0, 0, 1, 0.5, 0.5)">2025</text><text fill="none" stroke="rgb(0,0,0)" font-family="helvetica" font-size="10pt" font-style="normal" font-weight="normal" text-decoration="normal" x="84.36060523986816" y="306" text-anchor="start" dominant-baseline="alphabetic" transform="matrix(1, 0, 0, 1, 0.5, 0.5)" stroke-opacity="0" stroke-linejoin="bevel" stroke-miterlimit="10">2025</text><text fill="#444444" stroke="none" font-family="helvetica" font-size="10pt" font-style="normal" font-weight="normal" text-decoration="normal" x="203.97783088684082" y="306" text-anchor="start" dominant-baseline="alphabetic" transform="matrix(1, 0, 0, 1, 0.5, 0.5)">2030</text><text fill="none" stroke="rgb(0,0,0)" font-family="helvetica" font-size="10pt" font-style="normal" font-weight="normal" text-decoration="normal" x="203.97783088684082" y="306" text-anchor="start" dominant-baseline="alphabetic" transform="matrix(1, 0, 0, 1, 0.5, 0.5)" stroke-opacity="0" stroke-linejoin="bevel" stroke-miterlimit="10">2030</text><text fill="#444444" stroke="none" font-family="helvetica" font-size="10pt" font-style="normal" font-weight="normal" text-decoration="normal" x="323.595064163208" y="306" text-anchor="start" dominant-baseline="alphabetic" transform="matrix(1, 0, 0, 1, 0.5, 0.5)">2035</text><text fill="none" stroke="rgb(0,0,0)" font-family="helvetica" font-size="10pt" font-style="normal" font-weight="normal" text-decoration="normal" x="323.595064163208" y="306" text-anchor="start" dominant-baseline="alphabetic" transform="matrix(1, 0, 0, 1, 0.5, 0.5)" stroke-opacity="0" stroke-linejoin="bevel" stroke-miterlimit="10">2035</text><text fill="#444444" stroke="none" font-family="helvetica" font-size="10pt" font-style="normal" font-weight="normal" text-decoration="normal" x="443.21228218078613" y="306" text-anchor="start" dominant-baseline="alphabetic" transform="matrix(1, 0, 0, 1, 0.5, 0.5)">2040</text><text fill="none" stroke="rgb(0,0,0)" font-family="helvetica" font-size="10pt" font-style="normal" font-weight="normal" text-decoration="normal" x="443.21228218078613" y="306" text-anchor="start" dominant-baseline="alphabetic" transform="matrix(1, 0, 0, 1, 0.5, 0.5)" stroke-opacity="0" stroke-linejoin="bevel" stroke-miterlimit="10">2040</text><text fill="#444444" stroke="none" font-family="helvetica" font-size="12pt" font-style="normal" font-weight="normal" text-decoration="normal" x="310.3166666030884" y="329" text-anchor="start" dominant-baseline="alphabetic" transform="matrix(1, 0, 0, 1, 0.5, 0.5)">Year</text><text fill="none" stroke="rgb(0,0,0)" font-family="helvetica" font-size="12pt" font-style="normal" font-weight="normal" text-decoration="normal" x="310.3166666030884" y="329" text-anchor="start" dominant-baseline="alphabetic" transform="matrix(1, 0, 0, 1, 0.5, 0.5)" stroke-opacity="0" stroke-linejoin="bevel" stroke-miterlimit="10">Year</text><path fill="none" stroke="black" paint-order="fill" d="M 75.5 285.5 L 75.5 35.5" stroke-linejoin="bevel" stroke-miterlimit="10"/><path fill="none" stroke="black" paint-order="fill" d="M 69.5 285.5 L 77.5 285.5 M 69.5 245.5 L 77.5 245.5 M 69.5 205.5 L 77.5 205.5 M 69.5 164.5 L 77.5 164.5 M 69.5 124.5 L 77.5 124.5 M 69.5 84.5 L 77.5 84.5 M 69.5 44.5 L 77.5 44.5" stroke-linejoin="bevel" stroke-miterlimit="10"/><path fill="none" stroke="black" paint-order="fill" d="M 71.5 285.5 L 75.5 285.5 M 71.5 277.5 L 75.5 277.5 M 71.5 269.5 L 75.5 269.5 M 71.5 261.5 L 75.5 261.5 M 71.5 253.5 L 75.5 253.5 M 71.5 245.5 L 75.5 245.5 M 71.5 237.5 L 75.5 237.5 M 71.5 229.5 L 75.5 229.5 M 71.5 221.5 L 75.5 221.5 M 71.5 213.5 L 75.5 213.5 M 71.5 205.5 L 75.5 205.5 M 71.5 197.5 L 75.5 197.5 M 71.5 188.5 L 75.5 188.5 M 71.5 180.5 L 75.5 180.5 M 71.5 172.5 L 75.5 172.5 M 71.5 164.5 L 75.5 164.5 M 71.5 156.5 L 75.5 156.5 M 71.5 148.5 L 75.5 148.5 M 71.5 140.5 L 75.5 140.5 M 71.5 132.5 L 75.5 132.5 M 71.5 124.5 L 75.5 124.5 M 71.5 116.5 L 75.5 116.5 M 71.5 108.5 L 75.5 108.5 M 71.5 100.5 L 75.5 100.5 M 71.5 92.5 L 75.5 92.5 M 71.5 84.5 L 75.5 84.5 M 71.5 76.5 L 75.5 76.5 M 71.5 68.5 L 75.5 68.5 M 71.5 60.5 L 75.5 60.5 M 71.5 52.5 L 75.5 52.5 M 71.5 44.5 L 75.5 44.5 M 71.5 36.5 L 75.5 36.5" stroke-linejoin="bevel" stroke-miterlimit="10"/><text fill="#444444" stroke="none" font-family="helvetica" font-size="10pt" font-style="normal" font-weight="normal" text-decoration="normal" x="57.31666660308838" y="290" text-anchor="start" dominant-baseline="alphabetic" transform="matrix(1, 0, 0, 1, 0.5, 0.5)">0</text><text fill="none" stroke="rgb(0,0,0)" font-family="helvetica" font-size="10pt" font-style="normal" font-weight="normal" text-decoration="normal" x="57.31666660308838" y="290" text-anchor="start" dominant-baseline="alphabetic" transform="matrix(1, 0, 0, 1, 0.5, 0.5)" stroke-opacity="0" stroke-linejoin="bevel" stroke-miterlimit="10">0</text><text fill="#444444" stroke="none" font-family="helvetica" font-size="10pt" font-style="normal" font-weight="normal" text-decoration="normal" x="50.63333320617676" y="249.7747344970703" text-anchor="start" dominant-baseline="alphabetic" transform="matrix(1, 0, 0, 1, 0.5, 0.5)">20</text><text fill="none" stroke="rgb(0,0,0)" font-family="helvetica" font-size="10pt" font-style="normal" font-weight="normal" text-decoration="normal" x="50.63333320617676" y="249.7747344970703" text-anchor="start" dominant-baseline="alphabetic" transform="matrix(1, 0, 0, 1, 0.5, 0.5)" stroke-opacity="0" stroke-linejoin="bevel" stroke-miterlimit="10">20</text><text fill="#444444" stroke="none" font-family="helvetica" font-size="10pt" font-style="normal" font-weight="normal" text-decoration="normal" x="50.63333320617676" y="209.5494842529297" text-anchor="start" dominant-baseline="alphabetic" transform="matrix(1, 0, 0, 1, 0.5, 0.5)">40</text><text fill="none" stroke="rgb(0,0,0)" font-family="helvetica" font-size="10pt" font-style="normal" font-weight="normal" text-decoration="normal" x="50.63333320617676" y="209.5494842529297" text-anchor="start" dominant-baseline="alphabetic" transform="matrix(1, 0, 0, 1, 0.5, 0.5)" stroke-opacity="0" stroke-linejoin="bevel" stroke-miterlimit="10">40</text><text fill="#444444" stroke="none" font-family="helvetica" font-size="10pt" font-style="normal" font-weight="normal" text-decoration="normal" x="50.63333320617676" y="169.32421875" text-anchor="start" dominant-baseline="alphabetic" transform="matrix(1, 0, 0, 1, 0.5, 0.5)">60</text><text fill="none" stroke="rgb(0,0,0)" font-family="helvetica" font-size="10pt" font-style="normal" font-weight="normal" text-decoration="normal" x="50.63333320617676" y="169.32421875" text-anchor="start" dominant-baseline="alphabetic" transform="matrix(1, 0, 0, 1, 0.5, 0.5)" stroke-opacity="0" stroke-linejoin="bevel" stroke-miterlimit="10">60</text><text fill="#444444" stroke="none" font-family="helvetica" font-size="10pt" font-style="normal" font-weight="normal" text-decoration="normal" x="50.63333320617676" y="129.0989532470703" text-anchor="start" dominant-baseline="alphabetic" transform="matrix(1, 0, 0, 1, 0.5, 0.5)">80</text><text fill="none" stroke="rgb(0,0,0)" font-family="helvetica" font-size="10pt" font-style="normal" font-weight="normal" text-decoration="normal" x="50.63333320617676" y="129.0989532470703" text-anchor="start" dominant-baseline="alphabetic" transform="matrix(1, 0, 0, 1, 0.5, 0.5)" stroke-opacity="0" stroke-linejoin="bevel" stroke-miterlimit="10">80</text><text fill="#444444" stroke="none" font-family="helvetica" font-size="10pt" font-style="normal" font-weight="normal" text-decoration="normal" x="43.95000076293945" y="88.87369537353516" text-anchor="start" dominant-baseline="alphabetic" transform="matrix(1, 0, 0, 1, 0.5, 0.5)">100</text><text fill="none" stroke="rgb(0,0,0)" font-family="helvetica" font-size="10pt" font-style="normal" font-weight="normal" text-decoration="normal" x="43.95000076293945" y="88.87369537353516" text-anchor="start" dominant-baseline="alphabetic" transform="matrix(1, 0, 0, 1, 0.5, 0.5)" stroke-opacity="0" stroke-linejoin="bevel" stroke-miterlimit="10">100</text><text fill="#444444" stroke="none" font-family="helvetica" font-size="10pt" font-style="normal" font-weight="normal" text-decoration="normal" x="43.95000076293945" y="48.64842987060547" text-anchor="start" dominant-baseline="alphabetic" transform="matrix(1, 0, 0, 1, 0.5, 0.5)">120</text><text fill="none" stroke="rgb(0,0,0)" font-family="helvetica" font-size="10pt" font-style="normal" font-weight="normal" text-decoration="normal" x="43.95000076293945" y="48.64842987060547" text-anchor="start" dominant-baseline="alphabetic" transform="matrix(1, 0, 0, 1, 0.5, 0.5)" stroke-opacity="0" stroke-linejoin="bevel" stroke-miterlimit="10">120</text><text fill="#444444" stroke="none" font-family="helvetica" font-size="12pt" font-style="normal" font-weight="normal" text-decoration="normal" x="-60.25833511352539" y="156" text-anchor="start" dominant-baseline="alphabetic" transform="matrix(6.123233995736766e-17, -1, 1, 6.123233995736766e-17, -123.54999923706055, 196.45000076293945)">Days suitable for transmission</text><text fill="none" stroke="rgb(0,0,0)" font-family="helvetica" font-size="12pt" font-style="normal" font-weight="normal" text-decoration="normal" x="-60.25833511352539" y="156" text-anchor="start" dominant-baseline="alphabetic" transform="matrix(6.123233995736766e-17, -1, 1, 6.123233995736766e-17, -123.54999923706055, 196.45000076293945)" stroke-opacity="0" stroke-linejoin="bevel" stroke-miterlimit="10">Days suitable for transmission</text><path fill="rgb(255,255,255)" stroke="rgb(229,229,229)" paint-order="fill" d="M 482.0333251953125 210.5 L 565.4999847412109 210.5 L 565.4999847412109 275.5 L 482.0333251953125 275.5 L 482.0333251953125 210.5 Z" fill-opacity="0.9490196078431372" clip-path="url(#nBvLtsAzawbI)" stroke-opacity="0.5019607843137255" stroke-linejoin="bevel" stroke-miterlimit="10"/><g clip-path="url(#nBvLtsAzawbI)"><g transform="matrix(1, 0, 0, 1, 492.5333251953125, 221)"><path fill="none" stroke="#30a2da" paint-order="fill" d="M 0.5 10.5 L 20.5 10.5" stroke-linejoin="bevel" stroke-miterlimit="10" stroke-width="2"/></g></g><g clip-path="url(#nBvLtsAzawbI)"><text fill="#444444" stroke="none" font-family="helvetica" font-size="13px" font-style="normal" font-weight="normal" text-decoration="normal" x="517.5333251953125" y="235.5" text-anchor="start" dominant-baseline="alphabetic" transform="matrix(1, 0, 0, 1, 0.5, 0.5)">ID 001</text></g><g clip-path="url(#nBvLtsAzawbI)"><text fill="none" stroke="rgb(0,0,0)" font-family="helvetica" font-size="13px" font-style="normal" font-weight="normal" text-decoration="normal" x="517.5333251953125" y="235.5" text-anchor="start" dominant-baseline="alphabetic" transform="matrix(1, 0, 0, 1, 0.5, 0.5)" stroke-opacity="0" stroke-linejoin="bevel" stroke-miterlimit="10">ID 001</text></g><g clip-path="url(#nBvLtsAzawbI)"><g transform="matrix(1, 0, 0, 1, 492.5333251953125, 244)"><path fill="none" stroke="#fc4f30" paint-order="fill" d="M 0.5 10.5 L 20.5 10.5" stroke-linejoin="bevel" stroke-miterlimit="10" stroke-width="2"/></g></g><g clip-path="url(#nBvLtsAzawbI)"><text fill="#444444" stroke="none" font-family="helvetica" font-size="13px" font-style="normal" font-weight="normal" text-decoration="normal" x="517.5333251953125" y="258.5" text-anchor="start" dominant-baseline="alphabetic" transform="matrix(1, 0, 0, 1, 0.5, 0.5)">ID 006</text></g><g clip-path="url(#nBvLtsAzawbI)"><text fill="none" stroke="rgb(0,0,0)" font-family="helvetica" font-size="13px" font-style="normal" font-weight="normal" text-decoration="normal" x="517.5333251953125" y="258.5" text-anchor="start" dominant-baseline="alphabetic" transform="matrix(1, 0, 0, 1, 0.5, 0.5)" stroke-opacity="0" stroke-linejoin="bevel" stroke-miterlimit="10">ID 006</text></g><text fill="black" stroke="none" font-family="helvetica" font-size="14pt" font-style="normal" font-weight="normal" text-decoration="normal" x="0" y="18" text-anchor="start" dominant-baseline="alphabetic" transform="matrix(1, 0, 0, 1, 5.5, 7.5)">C. London</text><text fill="none" stroke="rgb(0,0,0)" font-family="helvetica" font-size="14pt" font-style="normal" font-weight="normal" text-decoration="normal" x="0" y="18" text-anchor="start" dominant-baseline="alphabetic" transform="matrix(1, 0, 0, 1, 5.5, 7.5)" stroke-opacity="0" stroke-linejoin="bevel" stroke-miterlimit="10">C. London</text></svg>