<svg version="1.1" xmlns="http://www.w3.org/2000/svg" width="600" height="329"><defs><clipPath id="mXKwTAkyufvT"><path fill="none" stroke="none" d="M 70.5 30.5 L 570.5 30.5 L 570.5 280.5 L 70.5 280.5 L 70.5 30.5 Z"/></clipPath><clipPath id="cqrPIpuktHcp"><path fill="none" stroke="none" d="M 70.5 30.5 L 570.5 30.5 L 570.5 280.5 L 70.5 280.5 L 70.5 30.5 Z"/></clipPath><clipPath id="bVihnGoRhosu"><path fill="none" stroke="none" d="M 70.5 30.5 L 570.5 30.5 L 570.5 280.5 L 70.5 280.5 L 70.5 30.5 Z"/></clipPath><clipPath id="kbGUTZBvZBLb"><path fill="none" stroke="none" d="M 70.5 30.5 L 570.5 30.5 L 570.5 280.5 L 70.5 280.5 L 70.5 30.5 Z"/></clipPath><clipPath id="OTJGDGrdKcAL"><path fill="none" stroke="none" d="M 70.5 30.5 L 570.5 30.5 L 570.5 280.5 L 70.5 280.5 L 70.5 30.5 Z"/></clipPath><clipPath id="xBXflkrBEVOf"><path fill="none" stroke="none" d="M 70.5 30.5 L 570.5 30.5 L 570.5 280.5 L 70.5 280.5 L 70.5 30.5 Z"/></clipPath><clipPath id="gyZUVdlqQThA"><path fill="none" stroke="none" d="M 70.5 30.5 L 570.5 30.5 L 570.5 280.5 L 70.5 280.5 L 70.5 30.5 Z"/></clipPath><clipPath id="kWpxmfZyAZJu"><path fill="none" stroke="none" d="M 70.5 30.5 L 570.5 30.5 L 570.5 280.5 L 70.5 280.5 L 70.5 30.5 Z"/></clipPath><clipPath id="iNkkKiCqAmKg"><path fill="none" stroke="none" d="M 70.5 30.5 L 570.5 30.5 L 570.5 280.5 L 70.5 280.5 L 70.5 30.5 Z"/></clipPath><clipPath id="TfLKkfcZxekA"><path fill="none" stroke="none" d="M 70.5 30.5 L 570.5 30.5 L 570.5 280.5 L 70.5 280.5 L 70.5 30.5 Z"/></clipPath><clipPath id="htuHqIkHDPUK"><path fill="none" stroke="none" d="M 70.5 30.5 L 570.5 30.5 L 570.5 280.5 L 70.5 280.5 L 70.5 30.5 Z"/></clipPath><clipPath id="LgUaBeMWqcNM"><path fill="none" stroke="none" d="M 70.5 30.5 L 570.5 30.5 L 570.5 280.5 L 70.5 280.5 L 70.5 30.5 Z"/></clipPath><clipPath id="TRMVWTPCGeVK"><path fill="none" stroke="none" d="M 70.5 30.5 L 570.5 30.5 L 570.5 280.5 L 70.5 280.5 L 70.5 30.5 Z"/></clipPath><clipPath id="JTIXIJZJgRct"><path fill="none" stroke="none" d="M 70.5 30.5 L 570.5 30.5 L 570.5 280.5 L 70.5 280.5 L 70.5 30.5 Z"/></clipPath><clipPath id="XwkSNWeTrPBd"><path fill="none" stroke="none" d="M 70.5 30.5 L 570.5 30.5 L 570.5 280.5 L 70.5 280.5 L 70.5 30.5 Z"/></clipPath><clipPath id="buikxMcczfiS"><path fill="none" stroke="none" d="M 70.5 30.5 L 570.5 30.5 L 570.5 280.5 L 70.5 280.5 L 70.5 30.5 Z"/></clipPath><clipPath id="HFETfMhEovNA"><path fill="none" stroke="none" d="M 70.5 30.5 L 570.5 30.5 L 570.5 280.5 L 70.5 280.5 L 70.5 30.5 Z"/></clipPath><clipPath id="mPXpCmfSuhEv"><path fill="none" stroke="none" d="M 70.5 30.5 L 570.5 30.5 L 570.5 280.5 L 70.5 280.5 L 70.5 30.5 Z"/></clipPath><clipPath id="QoTeOlbXmqBl"><path fill="none" stroke="none" d="M 70.5 30.5 L 570.5 30.5 L 570.5 280.5 L 70.5 280.5 L 70.5 30.5 Z"/></clipPath><clipPath id="kTNVNAhdmCiB"><path fill="none" stroke="none" d="M 70.5 30.5 L 570.5 30.5 L 570.5 280.5 L 70.5 280.5 L 70.5 30.5 Z"/></clipPath><clipPath id="SqguQTPxdVyx"><path fill="none" stroke="none" d="M 70.5 30.5 L 570.5 30.5 L 570.5 280.5 L 70.5 280.5 L 70.5 30.5 Z"/></clipPath><clipPath id="MtNPxyuXnShw"><path fill="none" stroke="none" d="M 70.5 30.5 L 570.5 30.5 L 570.5 280.5 L 70.5 280.5 L 70.5 30.5 Z"/></clipPath><clipPath id="TzwNFIJlQzVd"><path fill="none" stroke="none" d="M 70.5 30.5 L 570.5 30.5 L 570.5 280.5 L 70.5 280.5 L 70.5 30.5 Z"/></clipPath></defs><path fill="none" stroke="#e5e5e5" paint-order="fill" d="M 70.5 30.5 L 570.5 30.5 L 570.5 280.5 L 70.5 280.5 L 70.5 30.5 Z" stroke-linejoin="bevel" stroke-miterlimit="10"/><path fill="none" stroke="black" paint-order="fill" d="M 332.46172248803487 30.5 L 332.46172248803487 280.5" stroke-linejoin="bevel" stroke-miterlimit="10" stroke-width="3" stroke-dasharray="6" clip-path="url(#bVihnGoRhosu)"/><path fill="none" stroke="#9467bd" paint-order="fill" d="M 93.2272720336914 205.5 L 117.15071868896484 170.0833282470703 L 141.07415771484375 207.5833282470703 L 164.9976043701172 203.4166717529297 L 188.92105102539062 126.33333587646484 L 212.84449768066406 147.1666717529297 L 236.7679443359375 157.5833282470703 L 260.6913757324219 163.8333282470703 L 284.6148376464844 207.5833282470703 L 308.53826904296875 193" stroke-linejoin="bevel" stroke-miterlimit="10" stroke-width="2" clip-path="url(#kbGUTZBvZBLb)"/><path fill="none" stroke="#9467bd" paint-order="fill" d="M 93.2272720336914 183.26515197753906 L 117.15071868896484 182.14141845703125 L 141.07415771484375 181.01766967773438 L 164.9976043701172 179.89393615722656 L 188.92105102539062 178.77020263671875 L 212.84449768066406 177.64646911621094 L 236.7679443359375 176.52272033691406 L 260.6913757324219 175.39898681640625 L 284.6148376464844 174.27525329589844 L 308.53826904296875 173.15151977539062" stroke-linejoin="bevel" stroke-miterlimit="10" stroke-width="2" stroke-dasharray="6" clip-path="url(#OTJGDGrdKcAL)"/><path fill="none" stroke="#30a2da" paint-order="fill" d="M 308.53826904296875 193 L 332.46173095703125 86.75 L 356.3851623535156 93 L 380.3086242675781 170.0833282470703 L 404.2320556640625 132.5833282470703 L 428.155517578125 172.1666717529297 L 452.0789489746094 159.6666717529297 L 476.00238037109375 163.8333282470703 L 499.92584228515625 188.8333282470703 L 523.8493041992188 230.5 L 547.772705078125 182.5833282470703" stroke-linejoin="bevel" stroke-miterlimit="10" stroke-width="2" clip-path="url(#xBXflkrBEVOf)"/><path fill="none" stroke="#30a2da" paint-order="fill" d="M 332.46173095703125 103.45454406738281 L 356.3851623535156 115.57575988769531 L 380.3086242675781 127.69696807861328 L 404.2320556640625 139.81817626953125 L 428.155517578125 151.93939208984375 L 452.0789489746094 164.06060791015625 L 476.00238037109375 176.18182373046875 L 499.92584228515625 188.3030242919922 L 523.8493041992188 200.4242401123047 L 547.772705078125 212.5454559326172" stroke-linejoin="bevel" stroke-miterlimit="10" stroke-width="2" stroke-dasharray="6" clip-path="url(#gyZUVdlqQThA)"/><path fill="none" stroke="#fc4f30" paint-order="fill" d="M 308.53826904296875 193 L 332.46173095703125 207.5833282470703 L 356.3851623535156 134.6666717529297 L 380.3086242675781 230.5 L 404.2320556640625 218 L 428.155517578125 157.5833282470703 L 452.0789489746094 97.16666412353516 L 476.00238037109375 172.1666717529297 L 499.92584228515625 103.41666412353516 L 523.8493041992188 145.0833282470703 L 547.772705078125 174.25" stroke-linejoin="bevel" stroke-miterlimit="10" stroke-width="2" clip-path="url(#kWpxmfZyAZJu)"/><path fill="none" stroke="#fc4f30" paint-order="fill" d="M 332.46173095703125 192.96212768554688 L 356.3851623535156 186.5353546142578 L 380.3086242675781 180.10858154296875 L 404.2320556640625 173.68182373046875 L 428.155517578125 167.2550506591797 L 452.0789489746094 160.82827758789062 L 476.00238037109375 154.40151977539062 L 499.92584228515625 147.97474670410156 L 523.8493041992188 141.5479736328125 L 547.772705078125 135.1212158203125" stroke-linejoin="bevel" stroke-miterlimit="10" stroke-width="2" stroke-dasharray="6" clip-path="url(#iNkkKiCqAmKg)"/><path fill="none" stroke="rgb(128,128,128)" paint-order="fill" d="M 93.2272720336914 161.75 L 117.15071868896484 228.4166717529297 L 141.07415771484375 199.25 L 164.9976043701172 170.0833282470703 L 188.92105102539062 213.8333282470703 L 212.84449768066406 174.25 L 236.7679443359375 140.9166717529297 L 260.6913757324219 149.25 L 284.6148376464844 149.25 L 308.53826904296875 222.1666717529297" stroke-opacity="0.7490196078431373" stroke-linejoin="bevel" stroke-miterlimit="10" clip-path="url(#TfLKkfcZxekA)"/><path fill="none" stroke="grey" paint-order="fill" d="M 308.53826904296875 222.1666717529297 L 332.46173095703125 99.25 L 356.3851623535156 128.41666412353516 L 380.3086242675781 138.8333282470703 L 404.2320556640625 86.75 L 428.155517578125 180.5 L 452.0789489746094 184.6666717529297 L 476.00238037109375 70.08333587646484 L 499.92584228515625 143 L 523.8493041992188 170.0833282470703 L 547.772705078125 182.5833282470703" stroke-linejoin="bevel" stroke-miterlimit="10" stroke-width="0.5" clip-path="url(#htuHqIkHDPUK)"/><path fill="none" stroke="grey" paint-order="fill" d="M 308.53826904296875 222.1666717529297 L 332.46173095703125 115.91666412353516 L 356.3851623535156 101.33333587646484 L 380.3086242675781 184.6666717529297 L 404.2320556640625 174.25 L 428.155517578125 147.1666717529297 L 452.0789489746094 97.16666412353516 L 476.00238037109375 207.5833282470703 L 499.92584228515625 80.5 L 523.8493041992188 115.91666412353516 L 547.772705078125 122.16666412353516" stroke-linejoin="bevel" stroke-miterlimit="10" stroke-width="0.5" clip-path="url(#LgUaBeMWqcNM)"/><path fill="none" stroke="rgb(128,128,128)" paint-order="fill" d="M 93.2272720336914 140.9166717529297 L 117.15071868896484 170.0833282470703 L 141.07415771484375 182.5833282470703 L 164.9976043701172 184.6666717529297 L 188.92105102539062 65.91666412353516 L 212.84449768066406 234.6666717529297 L 236.7679443359375 188.8333282470703 L 260.6913757324219 118 L 284.6148376464844 222.1666717529297 L 308.53826904296875 184.6666717529297" stroke-opacity="0.7490196078431373" stroke-linejoin="bevel" stroke-miterlimit="10" clip-path="url(#TRMVWTPCGeVK)"/><path fill="none" stroke="grey" paint-order="fill" d="M 308.53826904296875 184.6666717529297 L 332.46173095703125 172.1666717529297 L 356.3851623535156 82.58333587646484 L 380.3086242675781 193 L 404.2320556640625 159.6666717529297 L 428.155517578125 232.5833282470703 L 452.0789489746094 132.5833282470703 L 476.00238037109375 207.5833282470703 L 499.92584228515625 136.75 L 523.8493041992188 134.6666717529297 L 547.772705078125 188.8333282470703" stroke-linejoin="bevel" stroke-miterlimit="10" stroke-width="0.5" clip-path="url(#JTIXIJZJgRct)"/><path fill="none" stroke="grey" paint-order="fill" d="M 308.53826904296875 184.6666717529297 L 332.46173095703125 163.8333282470703 L 356.3851623535156 155.5 L 380.3086242675781 199.25 L 404.2320556640625 159.6666717529297 L 428.155517578125 213.8333282470703 L 452.0789489746094 226.3333282470703 L 476.00238037109375 180.5 L 499.92584228515625 211.75 L 523.8493041992188 126.33333587646484 L 547.772705078125 115.91666412353516" stroke-linejoin="bevel" stroke-miterlimit="10" stroke-width="0.5" clip-path="url(#XwkSNWeTrPBd)"/><path fill="none" stroke="rgb(128,128,128)" paint-order="fill" d="M 93.2272720336914 174.25 L 117.15071868896484 193 L 141.07415771484375 224.25 L 164.9976043701172 99.25 L 188.92105102539062 159.6666717529297 L 212.84449768066406 215.9166717529297 L 236.7679443359375 180.5 L 260.6913757324219 213.8333282470703 L 284.6148376464844 172.1666717529297 L 308.53826904296875 149.25" stroke-opacity="0.7490196078431373" stroke-linejoin="bevel" stroke-miterlimit="10" clip-path="url(#buikxMcczfiS)"/><path fill="none" stroke="grey" paint-order="fill" d="M 308.53826904296875 149.25 L 332.46173095703125 155.5 L 356.3851623535156 178.4166717529297 L 380.3086242675781 172.1666717529297 L 404.2320556640625 115.91666412353516 L 428.155517578125 155.5 L 452.0789489746094 153.4166717529297 L 476.00238037109375 170.0833282470703 L 499.92584228515625 228.4166717529297 L 523.8493041992188 209.6666717529297 L 547.772705078125 176.3333282470703" stroke-linejoin="bevel" stroke-miterlimit="10" stroke-width="0.5" clip-path="url(#HFETfMhEovNA)"/><path fill="none" stroke="grey" paint-order="fill" d="M 308.53826904296875 149.25 L 332.46173095703125 138.8333282470703 L 356.3851623535156 159.6666717529297 L 380.3086242675781 84.66666412353516 L 404.2320556640625 124.25 L 428.155517578125 151.3333282470703 L 452.0789489746094 176.3333282470703 L 476.00238037109375 120.08333587646484 L 499.92584228515625 207.5833282470703 L 523.8493041992188 122.16666412353516 L 547.772705078125 105.5" stroke-linejoin="bevel" stroke-miterlimit="10" stroke-width="0.5" clip-path="url(#mPXpCmfSuhEv)"/><path fill="none" stroke="rgb(128,128,128)" paint-order="fill" d="M 93.2272720336914 95.08333587646484 L 117.15071868896484 130.5 L 141.07415771484375 184.6666717529297 L 164.9976043701172 218 L 188.92105102539062 197.1666717529297 L 212.84449768066406 143 L 236.7679443359375 234.6666717529297 L 260.6913757324219 147.1666717529297 L 284.6148376464844 182.5833282470703 L 308.53826904296875 149.25" stroke-opacity="0.7490196078431373" stroke-linejoin="bevel" stroke-miterlimit="10" clip-path="url(#QoTeOlbXmqBl)"/><path fill="none" stroke="grey" paint-order="fill" d="M 308.53826904296875 149.25 L 332.46173095703125 178.4166717529297 L 356.3851623535156 226.3333282470703 L 380.3086242675781 186.75 L 404.2320556640625 132.5833282470703 L 428.155517578125 78.41666412353516 L 452.0789489746094 161.75 L 476.00238037109375 218 L 499.92584228515625 109.66666412353516 L 523.8493041992188 122.16666412353516 L 547.772705078125 286.75" stroke-linejoin="bevel" stroke-miterlimit="10" stroke-width="0.5" clip-path="url(#kTNVNAhdmCiB)"/><path fill="none" stroke="grey" paint-order="fill" d="M 308.53826904296875 149.25 L 332.46173095703125 159.6666717529297 L 356.3851623535156 147.1666717529297 L 380.3086242675781 153.4166717529297 L 404.2320556640625 147.1666717529297 L 428.155517578125 138.8333282470703 L 452.0789489746094 201.3333282470703 L 476.00238037109375 140.9166717529297 L 499.92584228515625 168 L 523.8493041992188 182.5833282470703 L 547.772705078125 149.25" stroke-linejoin="bevel" stroke-miterlimit="10" stroke-width="0.5" clip-path="url(#SqguQTPxdVyx)"/><path fill="none" stroke="black" paint-order="fill" d="M 70.5 280.5 L 570.5 280.5" stroke-linejoin="bevel" stroke-miterlimit="10"/><path fill="none" stroke="black" paint-order="fill" d="M 93.5 286.5 L 93.5 278.5 M 212.5 286.5 L 212.5 278.5 M 332.5 286.5 L 332.5 278.5 M 452.5 286.5 L 452.5 278.5" stroke-linejoin="bevel" stroke-miterlimit="10"/><path fill="none" stroke="black" paint-order="fill" d="M 93.5 284.5 L 93.5 280.5 M 117.5 284.5 L 117.5 280.5 M 141.5 284.5 L 141.5 280.5 M 164.5 284.5 L 164.5 280.5 M 188.5 284.5 L 188.5 280.5 M 212.5 284.5 L 212.5 280.5 M 236.5 284.5 L 236.5 280.5 M 260.5 284.5 L 260.5 280.5 M 284.5 284.5 L 284.5 280.5 M 308.5 284.5 L 308.5 280.5 M 332.5 284.5 L 332.5 280.5 M 356.5 284.5 L 356.5 280.5 M 380.5 284.5 L 380.5 280.5 M 404.5 284.5 L 404.5 280.5 M 428.5 284.5 L 428.5 280.5 M 452.5 284.5 L 452.5 280.5 M 476.5 284.5 L 476.5 280.5 M 499.5 284.5 L 499.5 280.5 M 523.5 284.5 L 523.5 280.5 M 547.5 284.5 L 547.5 280.5" stroke-linejoin="bevel" stroke-miterlimit="10"/><text fill="#444444" stroke="none" font-family="helvetica" font-size="10pt" font-style="normal" font-weight="normal" text-decoration="normal" x="77.86060523986816" y="301" text-anchor="start" dominant-baseline="alphabetic" transform="matrix(1, 0, 0, 1, 0.5, 0.5)">2025</text><text fill="none" stroke="rgb(0,0,0)" font-family="helvetica" font-size="10pt" font-style="normal" font-weight="normal" text-decoration="normal" x="77.86060523986816" y="301" text-anchor="start" dominant-baseline="alphabetic" transform="matrix(1, 0, 0, 1, 0.5, 0.5)" stroke-opacity="0" stroke-linejoin="bevel" stroke-miterlimit="10">2025</text><text fill="#444444" stroke="none" font-family="helvetica" font-size="10pt" font-style="normal" font-weight="normal" text-decoration="normal" x="197.47783088684082" y="301" text-anchor="start" dominant-baseline="alphabetic" transform="matrix(1, 0, 0, 1, 0.5, 0.5)">2030</text><text fill="none" stroke="rgb(0,0,0)" font-family="helvetica" font-size="10pt" font-style="normal" font-weight="normal" text-decoration="normal" x="197.47783088684082" y="301" text-anchor="start" dominant-baseline="alphabetic" transform="matrix(1, 0, 0, 1, 0.5, 0.5)" stroke-opacity="0" stroke-linejoin="bevel" stroke-miterlimit="10">2030</text><text fill="#444444" stroke="none" font-family="helvetica" font-size="10pt" font-style="normal" font-weight="normal" text-decoration="normal" x="317.095064163208" y="301" text-anchor="start" dominant-baseline="alphabetic" transform="matrix(1, 0, 0, 1, 0.5, 0.5)">2035</text><text fill="none" stroke="rgb(0,0,0)" font-family="helvetica" font-size="10pt" font-style="normal" font-weight="normal" text-decoration="normal" x="317.095064163208" y="301" text-anchor="start" dominant-baseline="alphabetic" transform="matrix(1, 0, 0, 1, 0.5, 0.5)" stroke-opacity="0" stroke-linejoin="bevel" stroke-miterlimit="10">2035</text><text fill="#444444" stroke="none" font-family="helvetica" font-size="10pt" font-style="normal" font-weight="normal" text-decoration="normal" x="436.71228218078613" y="301" text-anchor="start" dominant-baseline="alphabetic" transform="matrix(1, 0, 0, 1, 0.5, 0.5)">2040</text><text fill="none" stroke="rgb(0,0,0)" font-family="helvetica" font-size="10pt" font-style="normal" font-weight="normal" text-decoration="normal" x="436.71228218078613" y="301" text-anchor="start" dominant-baseline="alphabetic" transform="matrix(1, 0, 0, 1, 0.5, 0.5)" stroke-opacity="0" stroke-linejoin="bevel" stroke-miterlimit="10">2040</text><text fill="#444444" stroke="none" font-family="helvetica" font-size="12pt" font-style="normal" font-weight="normal" text-decoration="normal" x="303.8500003814697" y="321" text-anchor="start" dominant-baseline="alphabetic" transform="matrix(1, 0, 0, 1, 0.5, 0.5)">Year</text><text fill="none" stroke="rgb(0,0,0)" font-family="helvetica" font-size="12pt" font-style="normal" font-weight="normal" text-decoration="normal" x="303.8500003814697" y="321" text-anchor="start" dominant-baseline="alphabetic" transform="matrix(1, 0, 0, 1, 0.5, 0.5)" stroke-opacity="0" stroke-linejoin="bevel" stroke-miterlimit="10">Year</text><path fill="none" stroke="black" paint-order="fill" d="M 70.5 280.5 L 70.5 30.5" stroke-linejoin="bevel" stroke-miterlimit="10"/><path fill="none" stroke="black" paint-order="fill" d="M 64.5 280.5 L 72.5 280.5 M 64.5 218.5 L 72.5 218.5 M 64.5 155.5 L 72.5 155.5 M 64.5 93.5 L 72.5 93.5 M 64.5 30.5 L 72.5 30.5" stroke-linejoin="bevel" stroke-miterlimit="10"/><path fill="none" stroke="black" paint-order="fill" d="" stroke-linejoin="bevel" stroke-miterlimit="10"/><text fill="#444444" stroke="none" font-family="helvetica" font-size="10pt" font-style="normal" font-weight="normal" text-decoration="normal" x="36.70000076293945" y="285" text-anchor="start" dominant-baseline="alphabetic" transform="matrix(1, 0, 0, 1, 0.5, 0.5)">180</text><text fill="none" stroke="rgb(0,0,0)" font-family="helvetica" font-size="10pt" font-style="normal" font-weight="normal" text-decoration="normal" x="36.70000076293945" y="285" text-anchor="start" dominant-baseline="alphabetic" transform="matrix(1, 0, 0, 1, 0.5, 0.5)" stroke-opacity="0" stroke-linejoin="bevel" stroke-miterlimit="10">180</text><text fill="#444444" stroke="none" font-family="helvetica" font-size="10pt" font-style="normal" font-weight="normal" text-decoration="normal" x="36.70000076293945" y="222.5" text-anchor="start" dominant-baseline="alphabetic" transform="matrix(1, 0, 0, 1, 0.5, 0.5)">210</text><text fill="none" stroke="rgb(0,0,0)" font-family="helvetica" font-size="10pt" font-style="normal" font-weight="normal" text-decoration="normal" x="36.70000076293945" y="222.5" text-anchor="start" dominant-baseline="alphabetic" transform="matrix(1, 0, 0, 1, 0.5, 0.5)" stroke-opacity="0" stroke-linejoin="bevel" stroke-miterlimit="10">210</text><text fill="#444444" stroke="none" font-family="helvetica" font-size="10pt" font-style="normal" font-weight="normal" text-decoration="normal" x="36.70000076293945" y="160" text-anchor="start" dominant-baseline="alphabetic" transform="matrix(1, 0, 0, 1, 0.5, 0.5)">240</text><text fill="none" stroke="rgb(0,0,0)" font-family="helvetica" font-size="10pt" font-style="normal" font-weight="normal" text-decoration="normal" x="36.70000076293945" y="160" text-anchor="start" dominant-baseline="alphabetic" transform="matrix(1, 0, 0, 1, 0.5, 0.5)" stroke-opacity="0" stroke-linejoin="bevel" stroke-miterlimit="10">240</text><text fill="#444444" stroke="none" font-family="helvetica" font-size="10pt" font-style="normal" font-weight="normal" text-decoration="normal" x="36.70000076293945" y="97.5" text-anchor="start" dominant-baseline="alphabetic" transform="matrix(1, 0, 0, 1, 0.5, 0.5)">270</text><text fill="none" stroke="rgb(0,0,0)" font-family="helvetica" font-size="10pt" font-style="normal" font-weight="normal" text-decoration="normal" x="36.70000076293945" y="97.5" text-anchor="start" dominant-baseline="alphabetic" transform="matrix(1, 0, 0, 1, 0.5, 0.5)" stroke-opacity="0" stroke-linejoin="bevel" stroke-miterlimit="10">270</text><text fill="#444444" stroke="none" font-family="helvetica" font-size="10pt" font-style="normal" font-weight="normal" text-decoration="normal" x="36.70000076293945" y="35" text-anchor="start" dominant-baseline="alphabetic" transform="matrix(1, 0, 0, 1, 0.5, 0.5)">300</text><text fill="none" stroke="rgb(0,0,0)" font-family="helvetica" font-size="10pt" font-style="normal" font-weight="normal" text-decoration="normal" x="36.70000076293945" y="35" text-anchor="start" dominant-baseline="alphabetic" transform="matrix(1, 0, 0, 1, 0.5, 0.5)" stroke-opacity="0" stroke-linejoin="bevel" stroke-miterlimit="10">300</text><text fill="#444444" stroke="none" font-family="helvetica" font-size="12pt" font-style="normal" font-weight="normal" text-decoration="normal" x="-77.44166946411133" y="150" text-anchor="start" dominant-baseline="alphabetic" transform="matrix(6.123233995736766e-17, -1, 1, 6.123233995736766e-17, -125.79999923706055, 184.20000076293945)">Days suitable for transmission</text><text fill="none" stroke="rgb(0,0,0)" font-family="helvetica" font-size="12pt" font-style="normal" font-weight="normal" text-decoration="normal" x="-77.44166946411133" y="150" text-anchor="start" dominant-baseline="alphabetic" transform="matrix(6.123233995736766e-17, -1, 1, 6.123233995736766e-17, -125.79999923706055, 184.20000076293945)" stroke-opacity="0" stroke-linejoin="bevel" stroke-miterlimit="10">Days suitable for transmission</text><text fill="black" stroke="none" font-family="helvetica" font-size="14pt" font-style="normal" font-weight="normal" text-decoration="normal" x="0" y="14" text-anchor="start" dominant-baseline="alphabetic" transform="matrix(1, 0, 0, 1, 5.5, 5.5)">D. New Delhi</text><text fill="none" stroke="rgb(0,0,0)" font-family="helvetica" font-size="14pt" font-style="normal" font-weight="normal" text-decoration="normal" x="0" y="14" text-anchor="start" dominant-baseline="alphabetic" transform="matrix(1, 0, 0, 1, 5.5, 5.5)" stroke-opacity="0" stroke-linejoin="bevel" stroke-miterlimit="10">D. New Delhi</text></svg>