<svg version="1.1" xmlns="http://www.w3.org/2000/svg" width="600" height="334"><defs><clipPath id="rCPPZBbQqElc"><path fill="none" stroke="none" d="M 70.5 33.5 L 570.5 33.5 L 570.5 283.5 L 70.5 283.5 L 70.5 33.5 Z"/></clipPath><clipPath id="tTUwJsRFZyud"><path fill="none" stroke="none" d="M 70.5 33.5 L 570.5 33.5 L 570.5 283.5 L 70.5 283.5 L 70.5 33.5 Z"/></clipPath><clipPath id="wNHpPxDJWzya"><path fill="none" stroke="none" d="M 70.5 33.5 L 570.5 33.5 L 570.5 283.5 L 70.5 283.5 L 70.5 33.5 Z"/></clipPath><clipPath id="FkNbWIHWaHWW"><path fill="none" stroke="none" d="M 70.5 33.5 L 570.5 33.5 L 570.5 283.5 L 70.5 283.5 L 70.5 33.5 Z"/></clipPath><clipPath id="UfJGireLPyUv"><path fill="none" stroke="none" d="M 70.5 33.5 L 570.5 33.5 L 570.5 283.5 L 70.5 283.5 L 70.5 33.5 Z"/></clipPath><clipPath id="MPmoCNHEJISH"><path fill="none" stroke="none" d="M 70.5 33.5 L 570.5 33.5 L 570.5 283.5 L 70.5 283.5 L 70.5 33.5 Z"/></clipPath><clipPath id="GchoeADElDcC"><path fill="none" stroke="none" d="M 70.5 33.5 L 570.5 33.5 L 570.5 283.5 L 70.5 283.5 L 70.5 33.5 Z"/></clipPath><clipPath id="LaDpsUTWfdvf"><path fill="none" stroke="none" d="M 70.5 33.5 L 570.5 33.5 L 570.5 283.5 L 70.5 283.5 L 70.5 33.5 Z"/></clipPath><clipPath id="HBoBHQgDqpdB"><path fill="none" stroke="none" d="M 70.5 33.5 L 570.5 33.5 L 570.5 283.5 L 70.5 283.5 L 70.5 33.5 Z"/></clipPath><clipPath id="AXbcloUTyXEJ"><path fill="none" stroke="none" d="M 70.5 33.5 L 570.5 33.5 L 570.5 283.5 L 70.5 283.5 L 70.5 33.5 Z"/></clipPath><clipPath id="qgDrvULJZvNi"><path fill="none" stroke="none" d="M 70.5 33.5 L 570.5 33.5 L 570.5 283.5 L 70.5 283.5 L 70.5 33.5 Z"/></clipPath><clipPath id="aoSfvyKzlHhd"><path fill="none" stroke="none" d="M 70.5 33.5 L 570.5 33.5 L 570.5 283.5 L 70.5 283.5 L 70.5 33.5 Z"/></clipPath><clipPath id="yxpScsyUVBnz"><path fill="none" stroke="none" d="M 70.5 33.5 L 570.5 33.5 L 570.5 283.5 L 70.5 283.5 L 70.5 33.5 Z"/></clipPath><clipPath id="rxEAluvBJcPk"><path fill="none" stroke="none" d="M 70.5 33.5 L 570.5 33.5 L 570.5 283.5 L 70.5 283.5 L 70.5 33.5 Z"/></clipPath><clipPath id="MTRmTGDHFKFT"><path fill="none" stroke="none" d="M 70.5 33.5 L 570.5 33.5 L 570.5 283.5 L 70.5 283.5 L 70.5 33.5 Z"/></clipPath><clipPath id="yFEaxTMiOkFr"><path fill="none" stroke="none" d="M 70.5 33.5 L 570.5 33.5 L 570.5 283.5 L 70.5 283.5 L 70.5 33.5 Z"/></clipPath><clipPath id="QoTanTSDLFGR"><path fill="none" stroke="none" d="M 70.5 33.5 L 570.5 33.5 L 570.5 283.5 L 70.5 283.5 L 70.5 33.5 Z"/></clipPath><clipPath id="uJCiUncAeplk"><path fill="none" stroke="none" d="M 70.5 33.5 L 570.5 33.5 L 570.5 283.5 L 70.5 283.5 L 70.5 33.5 Z"/></clipPath><clipPath id="XiouNtqZoosu"><path fill="none" stroke="none" d="M 70.5 33.5 L 570.5 33.5 L 570.5 283.5 L 70.5 283.5 L 70.5 33.5 Z"/></clipPath><clipPath id="bNrLKtveyFIV"><path fill="none" stroke="none" d="M 70.5 33.5 L 570.5 33.5 L 570.5 283.5 L 70.5 283.5 L 70.5 33.5 Z"/></clipPath><clipPath id="FDCTTsDoFACR"><path fill="none" stroke="none" d="M 70.5 33.5 L 570.5 33.5 L 570.5 283.5 L 70.5 283.5 L 70.5 33.5 Z"/></clipPath><clipPath id="ovJiJMUnMfPR"><path fill="none" stroke="none" d="M 70.5 33.5 L 570.5 33.5 L 570.5 283.5 L 70.5 283.5 L 70.5 33.5 Z"/></clipPath><clipPath id="dntUkSGMWTIp"><path fill="none" stroke="none" d="M 70.5 33.5 L 570.5 33.5 L 570.5 283.5 L 70.5 283.5 L 70.5 33.5 Z"/></clipPath></defs><path fill="none" stroke="#e5e5e5" paint-order="fill" d="M 70.5 33.5 L 570.5 33.5 L 570.5 283.5 L 70.5 283.5 L 70.5 33.5 Z" stroke-linejoin="bevel" stroke-miterlimit="10"/><path fill="none" stroke="black" paint-order="fill" d="M 332.46172248803487 33.5 L 332.46172248803487 283.5" stroke-linejoin="bevel" stroke-miterlimit="10" stroke-width="3" stroke-dasharray="6" clip-path="url(#wNHpPxDJWzya)"/><path fill="none" stroke="#9467bd" paint-order="fill" d="M 93.2272720336914 112.3973388671875 L 117.15071868896484 91.65762329101562 L 141.07415771484375 97.70670318603516 L 164.9976043701172 76.96698760986328 L 188.92105102539062 90.79346466064453 L 212.84449768066406 117.58226776123047 L 236.7679443359375 102.02748107910156 L 260.6913757324219 107.21240997314453 L 284.6148376464844 117.58226776123047 L 308.53826904296875 72.6462173461914" stroke-linejoin="bevel" stroke-miterlimit="10" stroke-width="2" clip-path="url(#FkNbWIHWaHWW)"/><path fill="none" stroke="#9467bd" paint-order="fill" d="M 93.2272720336914 112.3973388671875 L 117.15071868896484 91.65762329101562 L 141.07415771484375 97.70670318603516 L 164.9976043701172 76.96698760986328 L 188.92105102539062 90.79346466064453 L 212.84449768066406 117.58226776123047 L 236.7679443359375 102.02748107910156 L 260.6913757324219 107.21240997314453 L 284.6148376464844 117.58226776123047 L 308.53826904296875 72.6462173461914" stroke-linejoin="bevel" stroke-miterlimit="10" stroke-width="2" stroke-dasharray="6" clip-path="url(#UfJGireLPyUv)"/><path fill="none" stroke="#30a2da" paint-order="fill" d="M 308.53826904296875 72.6462173461914 L 332.46173095703125 83.8802261352539 L 356.3851623535156 102.02748107910156 L 380.3086242675781 91.65762329101562 L 404.2320556640625 116.71810913085938 L 428.155517578125 98.57086181640625 L 452.0789489746094 108.94071960449219 L 476.00238037109375 114.98979949951172 L 499.92584228515625 114.98979949951172 L 523.8493041992188 102.02748107910156 L 547.772705078125 99.43501281738281" stroke-linejoin="bevel" stroke-miterlimit="10" stroke-width="2" clip-path="url(#MPmoCNHEJISH)"/><path fill="none" stroke="#30a2da" paint-order="fill" d="M 332.46173095703125 96.18264770507812 L 356.3851623535156 97.7695541381836 L 380.3086242675781 99.35645294189453 L 404.2320556640625 100.943359375 L 428.155517578125 102.53025817871094 L 452.0789489746094 104.1171646118164 L 476.00238037109375 105.70406341552734 L 499.92584228515625 107.29096984863281 L 523.8493041992188 108.87786865234375 L 547.772705078125 110.46477508544922" stroke-linejoin="bevel" stroke-miterlimit="10" stroke-width="2" stroke-dasharray="6" clip-path="url(#GchoeADElDcC)"/><path fill="none" stroke="#fc4f30" paint-order="fill" d="M 308.53826904296875 72.6462173461914 L 332.46173095703125 82.15191650390625 L 356.3851623535156 103.75579071044922 L 380.3086242675781 64.86882019042969 L 404.2320556640625 80.4236068725586 L 428.155517578125 106.34825134277344 L 452.0789489746094 56.227272033691406 L 476.00238037109375 107.21240997314453 L 499.92584228515625 117.58226776123047 L 523.8493041992188 121.90303802490234 L 547.772705078125 72.6462173461914" stroke-linejoin="bevel" stroke-miterlimit="10" stroke-width="2" clip-path="url(#LaDpsUTWfdvf)"/><path fill="none" stroke="#fc4f30" paint-order="fill" d="M 332.46173095703125 82.16763305664062 L 356.3851623535156 84.19970703125 L 380.3086242675781 86.23177337646484 L 404.2320556640625 88.26384735107422 L 428.155517578125 90.2959213256836 L 452.0789489746094 92.32799530029297 L 476.00238037109375 94.36006927490234 L 499.92584228515625 96.39214324951172 L 523.8493041992188 98.4242172241211 L 547.772705078125 100.45629119873047" stroke-linejoin="bevel" stroke-miterlimit="10" stroke-width="2" stroke-dasharray="6" clip-path="url(#HBoBHQgDqpdB)"/><path fill="none" stroke="rgb(128,128,128)" paint-order="fill" d="M 93.2272720336914 99.43501281738281 L 117.15071868896484 97.70670318603516 L 141.07415771484375 84.744384765625 L 164.9976043701172 107.21240997314453 L 188.92105102539062 107.21240997314453 L 212.84449768066406 95.11424255371094 L 236.7679443359375 88.20100402832031 L 260.6913757324219 113.26148986816406 L 284.6148376464844 134.86537170410156 L 308.53826904296875 64.86882019042969" stroke-opacity="0.7490196078431373" stroke-linejoin="bevel" stroke-miterlimit="10" clip-path="url(#AXbcloUTyXEJ)"/><path fill="none" stroke="grey" paint-order="fill" d="M 308.53826904296875 64.86882019042969 L 332.46173095703125 111.5331802368164 L 356.3851623535156 102.02748107910156 L 380.3086242675781 93.38593292236328 L 404.2320556640625 102.89163208007812 L 428.155517578125 124.4955062866211 L 452.0789489746094 107.21240997314453 L 476.00238037109375 90.79346466064453 L 499.92584228515625 127.08797454833984 L 523.8493041992188 105.48410034179688 L 547.772705078125 96.8425521850586" stroke-linejoin="bevel" stroke-miterlimit="10" stroke-width="0.5" clip-path="url(#qgDrvULJZvNi)"/><path fill="none" stroke="grey" paint-order="fill" d="M 308.53826904296875 64.86882019042969 L 332.46173095703125 101.16332244873047 L 356.3851623535156 118.44641876220703 L 380.3086242675781 102.02748107910156 L 404.2320556640625 102.89163208007812 L 428.155517578125 108.94071960449219 L 452.0789489746094 126.22381591796875 L 476.00238037109375 67.46128845214844 L 499.92584228515625 98.57086181640625 L 523.8493041992188 122.76719665527344 L 547.772705078125 130.54458618164062" stroke-linejoin="bevel" stroke-miterlimit="10" stroke-width="0.5" clip-path="url(#aoSfvyKzlHhd)"/><path fill="none" stroke="rgb(128,128,128)" paint-order="fill" d="M 93.2272720336914 93.38593292236328 L 117.15071868896484 120.17472839355469 L 141.07415771484375 92.52177429199219 L 164.9976043701172 99.43501281738281 L 188.92105102539062 113.26148986816406 L 212.84449768066406 103.75579071044922 L 236.7679443359375 102.89163208007812 L 260.6913757324219 94.25008392333984 L 284.6148376464844 125.35966491699219 L 308.53826904296875 102.89163208007812" stroke-opacity="0.7490196078431373" stroke-linejoin="bevel" stroke-miterlimit="10" clip-path="url(#yxpScsyUVBnz)"/><path fill="none" stroke="grey" paint-order="fill" d="M 308.53826904296875 102.89163208007812 L 332.46173095703125 114.12564849853516 L 356.3851623535156 91.65762329101562 L 380.3086242675781 102.02748107910156 L 404.2320556640625 95.9783935546875 L 428.155517578125 89.92931365966797 L 452.0789489746094 92.52177429199219 L 476.00238037109375 75.23867797851562 L 499.92584228515625 107.21240997314453 L 523.8493041992188 123.63135528564453 L 547.772705078125 108.94071960449219" stroke-linejoin="bevel" stroke-miterlimit="10" stroke-width="0.5" clip-path="url(#rxEAluvBJcPk)"/><path fill="none" stroke="grey" paint-order="fill" d="M 308.53826904296875 102.89163208007812 L 332.46173095703125 110.66902923583984 L 356.3851623535156 110.66902923583984 L 380.3086242675781 95.9783935546875 L 404.2320556640625 96.8425521850586 L 428.155517578125 89.92931365966797 L 452.0789489746094 99.43501281738281 L 476.00238037109375 101.16332244873047 L 499.92584228515625 89.06515502929688 L 523.8493041992188 88.20100402832031 L 547.772705078125 134.00120544433594" stroke-linejoin="bevel" stroke-miterlimit="10" stroke-width="0.5" clip-path="url(#MTRmTGDHFKFT)"/><path fill="none" stroke="rgb(128,128,128)" paint-order="fill" d="M 93.2272720336914 115.85395812988281 L 117.15071868896484 108.0765609741211 L 141.07415771484375 84.744384765625 L 164.9976043701172 102.02748107910156 L 188.92105102539062 108.94071960449219 L 212.84449768066406 72.6462173461914 L 236.7679443359375 95.9783935546875 L 260.6913757324219 84.744384765625 L 284.6148376464844 114.12564849853516 L 308.53826904296875 102.89163208007812" stroke-opacity="0.7490196078431373" stroke-linejoin="bevel" stroke-miterlimit="10" clip-path="url(#yFEaxTMiOkFr)"/><path fill="none" stroke="grey" paint-order="fill" d="M 308.53826904296875 102.89163208007812 L 332.46173095703125 97.70670318603516 L 356.3851623535156 95.9783935546875 L 380.3086242675781 118.44641876220703 L 404.2320556640625 117.58226776123047 L 428.155517578125 103.75579071044922 L 452.0789489746094 100.2991714477539 L 476.00238037109375 114.98979949951172 L 499.92584228515625 95.9783935546875 L 523.8493041992188 94.25008392333984 L 547.772705078125 118.44641876220703" stroke-linejoin="bevel" stroke-miterlimit="10" stroke-width="0.5" clip-path="url(#QoTanTSDLFGR)"/><path fill="none" stroke="grey" paint-order="fill" d="M 308.53826904296875 102.89163208007812 L 332.46173095703125 94.25008392333984 L 356.3851623535156 83.8802261352539 L 380.3086242675781 102.89163208007812 L 404.2320556640625 117.58226776123047 L 428.155517578125 104.61994171142578 L 452.0789489746094 102.89163208007812 L 476.00238037109375 101.16332244873047 L 499.92584228515625 106.34825134277344 L 523.8493041992188 99.43501281738281 L 547.772705078125 102.89163208007812" stroke-linejoin="bevel" stroke-miterlimit="10" stroke-width="0.5" clip-path="url(#uJCiUncAeplk)"/><path fill="none" stroke="rgb(128,128,128)" paint-order="fill" d="M 93.2272720336914 102.02748107910156 L 117.15071868896484 119.31057739257812 L 141.07415771484375 131.40875244140625 L 164.9976043701172 89.06515502929688 L 188.92105102539062 89.06515502929688 L 212.84449768066406 120.17472839355469 L 236.7679443359375 91.65762329101562 L 260.6913757324219 95.11424255371094 L 284.6148376464844 126.22381591796875 L 308.53826904296875 94.25008392333984" stroke-opacity="0.7490196078431373" stroke-linejoin="bevel" stroke-miterlimit="10" clip-path="url(#XiouNtqZoosu)"/><path fill="none" stroke="grey" paint-order="fill" d="M 308.53826904296875 94.25008392333984 L 332.46173095703125 58.81973648071289 L 356.3851623535156 102.89163208007812 L 380.3086242675781 94.25008392333984 L 404.2320556640625 68.325439453125 L 428.155517578125 116.71810913085938 L 452.0789489746094 117.58226776123047 L 476.00238037109375 84.744384765625 L 499.92584228515625 99.43501281738281 L 523.8493041992188 103.75579071044922 L 547.772705078125 82.15191650390625" stroke-linejoin="bevel" stroke-miterlimit="10" stroke-width="0.5" clip-path="url(#bNrLKtveyFIV)"/><path fill="none" stroke="grey" paint-order="fill" d="M 308.53826904296875 94.25008392333984 L 332.46173095703125 72.6462173461914 L 356.3851623535156 97.70670318603516 L 380.3086242675781 102.02748107910156 L 404.2320556640625 114.98979949951172 L 428.155517578125 93.38593292236328 L 452.0789489746094 102.89163208007812 L 476.00238037109375 114.12564849853516 L 499.92584228515625 98.57086181640625 L 523.8493041992188 83.8802261352539 L 547.772705078125 117.58226776123047" stroke-linejoin="bevel" stroke-miterlimit="10" stroke-width="0.5" clip-path="url(#FDCTTsDoFACR)"/><path fill="none" stroke="black" paint-order="fill" d="M 70.5 283.5 L 570.5 283.5" stroke-linejoin="bevel" stroke-miterlimit="10"/><path fill="none" stroke="black" paint-order="fill" d="M 93.5 289.5 L 93.5 281.5 M 212.5 289.5 L 212.5 281.5 M 332.5 289.5 L 332.5 281.5 M 452.5 289.5 L 452.5 281.5" stroke-linejoin="bevel" stroke-miterlimit="10"/><path fill="none" stroke="black" paint-order="fill" d="M 93.5 287.5 L 93.5 283.5 M 117.5 287.5 L 117.5 283.5 M 141.5 287.5 L 141.5 283.5 M 164.5 287.5 L 164.5 283.5 M 188.5 287.5 L 188.5 283.5 M 212.5 287.5 L 212.5 283.5 M 236.5 287.5 L 236.5 283.5 M 260.5 287.5 L 260.5 283.5 M 284.5 287.5 L 284.5 283.5 M 308.5 287.5 L 308.5 283.5 M 332.5 287.5 L 332.5 283.5 M 356.5 287.5 L 356.5 283.5 M 380.5 287.5 L 380.5 283.5 M 404.5 287.5 L 404.5 283.5 M 428.5 287.5 L 428.5 283.5 M 452.5 287.5 L 452.5 283.5 M 476.5 287.5 L 476.5 283.5 M 499.5 287.5 L 499.5 283.5 M 523.5 287.5 L 523.5 283.5 M 547.5 287.5 L 547.5 283.5" stroke-linejoin="bevel" stroke-miterlimit="10"/><text fill="#444444" stroke="none" font-family="helvetica" font-size="10pt" font-style="normal" font-weight="normal" text-decoration="normal" x="79.36060523986816" y="304" text-anchor="start" dominant-baseline="alphabetic" transform="matrix(1, 0, 0, 1, 0.5, 0.5)">2025</text><text fill="none" stroke="rgb(0,0,0)" font-family="helvetica" font-size="10pt" font-style="normal" font-weight="normal" text-decoration="normal" x="79.36060523986816" y="304" text-anchor="start" dominant-baseline="alphabetic" transform="matrix(1, 0, 0, 1, 0.5, 0.5)" stroke-opacity="0" stroke-linejoin="bevel" stroke-miterlimit="10">2025</text><text fill="#444444" stroke="none" font-family="helvetica" font-size="10pt" font-style="normal" font-weight="normal" text-decoration="normal" x="198.97783088684082" y="304" text-anchor="start" dominant-baseline="alphabetic" transform="matrix(1, 0, 0, 1, 0.5, 0.5)">2030</text><text fill="none" stroke="rgb(0,0,0)" font-family="helvetica" font-size="10pt" font-style="normal" font-weight="normal" text-decoration="normal" x="198.97783088684082" y="304" text-anchor="start" dominant-baseline="alphabetic" transform="matrix(1, 0, 0, 1, 0.5, 0.5)" stroke-opacity="0" stroke-linejoin="bevel" stroke-miterlimit="10">2030</text><text fill="#444444" stroke="none" font-family="helvetica" font-size="10pt" font-style="normal" font-weight="normal" text-decoration="normal" x="318.595064163208" y="304" text-anchor="start" dominant-baseline="alphabetic" transform="matrix(1, 0, 0, 1, 0.5, 0.5)">2035</text><text fill="none" stroke="rgb(0,0,0)" font-family="helvetica" font-size="10pt" font-style="normal" font-weight="normal" text-decoration="normal" x="318.595064163208" y="304" text-anchor="start" dominant-baseline="alphabetic" transform="matrix(1, 0, 0, 1, 0.5, 0.5)" stroke-opacity="0" stroke-linejoin="bevel" stroke-miterlimit="10">2035</text><text fill="#444444" stroke="none" font-family="helvetica" font-size="10pt" font-style="normal" font-weight="normal" text-decoration="normal" x="438.21228218078613" y="304" text-anchor="start" dominant-baseline="alphabetic" transform="matrix(1, 0, 0, 1, 0.5, 0.5)">2040</text><text fill="none" stroke="rgb(0,0,0)" font-family="helvetica" font-size="10pt" font-style="normal" font-weight="normal" text-decoration="normal" x="438.21228218078613" y="304" text-anchor="start" dominant-baseline="alphabetic" transform="matrix(1, 0, 0, 1, 0.5, 0.5)" stroke-opacity="0" stroke-linejoin="bevel" stroke-miterlimit="10">2040</text><text fill="#444444" stroke="none" font-family="helvetica" font-size="12pt" font-style="normal" font-weight="normal" text-decoration="normal" x="305.3166666030884" y="327" text-anchor="start" dominant-baseline="alphabetic" transform="matrix(1, 0, 0, 1, 0.5, 0.5)">Year</text><text fill="none" stroke="rgb(0,0,0)" font-family="helvetica" font-size="12pt" font-style="normal" font-weight="normal" text-decoration="normal" x="305.3166666030884" y="327" text-anchor="start" dominant-baseline="alphabetic" transform="matrix(1, 0, 0, 1, 0.5, 0.5)" stroke-opacity="0" stroke-linejoin="bevel" stroke-miterlimit="10">Year</text><path fill="none" stroke="black" paint-order="fill" d="M 70.5 283.5 L 70.5 33.5" stroke-linejoin="bevel" stroke-miterlimit="10"/><path fill="none" stroke="black" paint-order="fill" d="M 64.5 283.5 L 72.5 283.5 M 64.5 240.5 L 72.5 240.5 M 64.5 197.5 L 72.5 197.5 M 64.5 153.5 L 72.5 153.5 M 64.5 110.5 L 72.5 110.5 M 64.5 67.5 L 72.5 67.5" stroke-linejoin="bevel" stroke-miterlimit="10"/><path fill="none" stroke="black" paint-order="fill" d="M 66.5 283.5 L 70.5 283.5 M 66.5 274.5 L 70.5 274.5 M 66.5 266.5 L 70.5 266.5 M 66.5 257.5 L 70.5 257.5 M 66.5 248.5 L 70.5 248.5 M 66.5 240.5 L 70.5 240.5 M 66.5 231.5 L 70.5 231.5 M 66.5 223.5 L 70.5 223.5 M 66.5 214.5 L 70.5 214.5 M 66.5 205.5 L 70.5 205.5 M 66.5 197.5 L 70.5 197.5 M 66.5 188.5 L 70.5 188.5 M 66.5 179.5 L 70.5 179.5 M 66.5 171.5 L 70.5 171.5 M 66.5 162.5 L 70.5 162.5 M 66.5 153.5 L 70.5 153.5 M 66.5 145.5 L 70.5 145.5 M 66.5 136.5 L 70.5 136.5 M 66.5 127.5 L 70.5 127.5 M 66.5 119.5 L 70.5 119.5 M 66.5 110.5 L 70.5 110.5 M 66.5 102.5 L 70.5 102.5 M 66.5 93.5 L 70.5 93.5 M 66.5 84.5 L 70.5 84.5 M 66.5 76.5 L 70.5 76.5 M 66.5 67.5 L 70.5 67.5 M 66.5 58.5 L 70.5 58.5 M 66.5 50.5 L 70.5 50.5 M 66.5 41.5 L 70.5 41.5" stroke-linejoin="bevel" stroke-miterlimit="10"/><text fill="#444444" stroke="none" font-family="helvetica" font-size="10pt" font-style="normal" font-weight="normal" text-decoration="normal" x="52.31666660308838" y="288" text-anchor="start" dominant-baseline="alphabetic" transform="matrix(1, 0, 0, 1, 0.5, 0.5)">0</text><text fill="none" stroke="rgb(0,0,0)" font-family="helvetica" font-size="10pt" font-style="normal" font-weight="normal" text-decoration="normal" x="52.31666660308838" y="288" text-anchor="start" dominant-baseline="alphabetic" transform="matrix(1, 0, 0, 1, 0.5, 0.5)" stroke-opacity="0" stroke-linejoin="bevel" stroke-miterlimit="10">0</text><text fill="#444444" stroke="none" font-family="helvetica" font-size="10pt" font-style="normal" font-weight="normal" text-decoration="normal" x="45.63333320617676" y="244.79225158691406" text-anchor="start" dominant-baseline="alphabetic" transform="matrix(1, 0, 0, 1, 0.5, 0.5)">50</text><text fill="none" stroke="rgb(0,0,0)" font-family="helvetica" font-size="10pt" font-style="normal" font-weight="normal" text-decoration="normal" x="45.63333320617676" y="244.79225158691406" text-anchor="start" dominant-baseline="alphabetic" transform="matrix(1, 0, 0, 1, 0.5, 0.5)" stroke-opacity="0" stroke-linejoin="bevel" stroke-miterlimit="10">50</text><text fill="#444444" stroke="none" font-family="helvetica" font-size="10pt" font-style="normal" font-weight="normal" text-decoration="normal" x="38.95000076293945" y="201.5845184326172" text-anchor="start" dominant-baseline="alphabetic" transform="matrix(1, 0, 0, 1, 0.5, 0.5)">100</text><text fill="none" stroke="rgb(0,0,0)" font-family="helvetica" font-size="10pt" font-style="normal" font-weight="normal" text-decoration="normal" x="38.95000076293945" y="201.5845184326172" text-anchor="start" dominant-baseline="alphabetic" transform="matrix(1, 0, 0, 1, 0.5, 0.5)" stroke-opacity="0" stroke-linejoin="bevel" stroke-miterlimit="10">100</text><text fill="#444444" stroke="none" font-family="helvetica" font-size="10pt" font-style="normal" font-weight="normal" text-decoration="normal" x="38.95000076293945" y="158.37677001953125" text-anchor="start" dominant-baseline="alphabetic" transform="matrix(1, 0, 0, 1, 0.5, 0.5)">150</text><text fill="none" stroke="rgb(0,0,0)" font-family="helvetica" font-size="10pt" font-style="normal" font-weight="normal" text-decoration="normal" x="38.95000076293945" y="158.37677001953125" text-anchor="start" dominant-baseline="alphabetic" transform="matrix(1, 0, 0, 1, 0.5, 0.5)" stroke-opacity="0" stroke-linejoin="bevel" stroke-miterlimit="10">150</text><text fill="#444444" stroke="none" font-family="helvetica" font-size="10pt" font-style="normal" font-weight="normal" text-decoration="normal" x="38.95000076293945" y="115.16902923583984" text-anchor="start" dominant-baseline="alphabetic" transform="matrix(1, 0, 0, 1, 0.5, 0.5)">200</text><text fill="none" stroke="rgb(0,0,0)" font-family="helvetica" font-size="10pt" font-style="normal" font-weight="normal" text-decoration="normal" x="38.95000076293945" y="115.16902923583984" text-anchor="start" dominant-baseline="alphabetic" transform="matrix(1, 0, 0, 1, 0.5, 0.5)" stroke-opacity="0" stroke-linejoin="bevel" stroke-miterlimit="10">200</text><text fill="#444444" stroke="none" font-family="helvetica" font-size="10pt" font-style="normal" font-weight="normal" text-decoration="normal" x="38.95000076293945" y="71.96128845214844" text-anchor="start" dominant-baseline="alphabetic" transform="matrix(1, 0, 0, 1, 0.5, 0.5)">250</text><text fill="none" stroke="rgb(0,0,0)" font-family="helvetica" font-size="10pt" font-style="normal" font-weight="normal" text-decoration="normal" x="38.95000076293945" y="71.96128845214844" text-anchor="start" dominant-baseline="alphabetic" transform="matrix(1, 0, 0, 1, 0.5, 0.5)" stroke-opacity="0" stroke-linejoin="bevel" stroke-miterlimit="10">250</text><text fill="#444444" stroke="none" font-family="helvetica" font-size="12pt" font-style="normal" font-weight="normal" text-decoration="normal" x="-65.25833511352539" y="154" text-anchor="start" dominant-baseline="alphabetic" transform="matrix(6.123233995736766e-17, -1, 1, 6.123233995736766e-17, -126.54999923706055, 189.45000076293945)">Days suitable for transmission</text><text fill="none" stroke="rgb(0,0,0)" font-family="helvetica" font-size="12pt" font-style="normal" font-weight="normal" text-decoration="normal" x="-65.25833511352539" y="154" text-anchor="start" dominant-baseline="alphabetic" transform="matrix(6.123233995736766e-17, -1, 1, 6.123233995736766e-17, -126.54999923706055, 189.45000076293945)" stroke-opacity="0" stroke-linejoin="bevel" stroke-miterlimit="10">Days suitable for transmission</text><path fill="rgb(255,255,255)" stroke="rgb(229,229,229)" paint-order="fill" d="M 477.0333251953125 208.5 L 560.4999847412109 208.5 L 560.4999847412109 273.5 L 477.0333251953125 273.5 L 477.0333251953125 208.5 Z" fill-opacity="0.9490196078431372" clip-path="url(#ovJiJMUnMfPR)" stroke-opacity="0.5019607843137255" stroke-linejoin="bevel" stroke-miterlimit="10"/><g clip-path="url(#ovJiJMUnMfPR)"><g transform="matrix(1, 0, 0, 1, 487.5333251953125, 219)"><path fill="none" stroke="#30a2da" paint-order="fill" d="M 0.5 10.5 L 20.5 10.5" stroke-linejoin="bevel" stroke-miterlimit="10" stroke-width="2"/></g></g><g clip-path="url(#ovJiJMUnMfPR)"><text fill="#444444" stroke="none" font-family="helvetica" font-size="13px" font-style="normal" font-weight="normal" text-decoration="normal" x="512.5333251953125" y="233.5" text-anchor="start" dominant-baseline="alphabetic" transform="matrix(1, 0, 0, 1, 0.5, 0.5)">ID 001</text></g><g clip-path="url(#ovJiJMUnMfPR)"><text fill="none" stroke="rgb(0,0,0)" font-family="helvetica" font-size="13px" font-style="normal" font-weight="normal" text-decoration="normal" x="512.5333251953125" y="233.5" text-anchor="start" dominant-baseline="alphabetic" transform="matrix(1, 0, 0, 1, 0.5, 0.5)" stroke-opacity="0" stroke-linejoin="bevel" stroke-miterlimit="10">ID 001</text></g><g clip-path="url(#ovJiJMUnMfPR)"><g transform="matrix(1, 0, 0, 1, 487.5333251953125, 242)"><path fill="none" stroke="#fc4f30" paint-order="fill" d="M 0.5 10.5 L 20.5 10.5" stroke-linejoin="bevel" stroke-miterlimit="10" stroke-width="2"/></g></g><g clip-path="url(#ovJiJMUnMfPR)"><text fill="#444444" stroke="none" font-family="helvetica" font-size="13px" font-style="normal" font-weight="normal" text-decoration="normal" x="512.5333251953125" y="256.5" text-anchor="start" dominant-baseline="alphabetic" transform="matrix(1, 0, 0, 1, 0.5, 0.5)">ID 006</text></g><g clip-path="url(#ovJiJMUnMfPR)"><text fill="none" stroke="rgb(0,0,0)" font-family="helvetica" font-size="13px" font-style="normal" font-weight="normal" text-decoration="normal" x="512.5333251953125" y="256.5" text-anchor="start" dominant-baseline="alphabetic" transform="matrix(1, 0, 0, 1, 0.5, 0.5)" stroke-opacity="0" stroke-linejoin="bevel" stroke-miterlimit="10">ID 006</text></g><text fill="black" stroke="none" font-family="helvetica" font-size="14pt" font-style="normal" font-weight="normal" text-decoration="normal" x="0" y="18" text-anchor="start" dominant-baseline="alphabetic" transform="matrix(1, 0, 0, 1, 5.5, 5.5)">C. Cape Town</text><text fill="none" stroke="rgb(0,0,0)" font-family="helvetica" font-size="14pt" font-style="normal" font-weight="normal" text-decoration="normal" x="0" y="18" text-anchor="start" dominant-baseline="alphabetic" transform="matrix(1, 0, 0, 1, 5.5, 5.5)" stroke-opacity="0" stroke-linejoin="bevel" stroke-miterlimit="10">C. Cape Town</text></svg>