<svg version="1.1" xmlns="http://www.w3.org/2000/svg" width="600" height="334"><defs><clipPath id="TvTzSTspWPfG"><path fill="none" stroke="none" d="M 70.5 33.5 L 570.5 33.5 L 570.5 283.5 L 70.5 283.5 L 70.5 33.5 Z"/></clipPath><clipPath id="lILJDKwIbqrX"><path fill="none" stroke="none" d="M 70.5 33.5 L 570.5 33.5 L 570.5 283.5 L 70.5 283.5 L 70.5 33.5 Z"/></clipPath><clipPath id="IZlqnOnCPFzw"><path fill="none" stroke="none" d="M 70.5 33.5 L 570.5 33.5 L 570.5 283.5 L 70.5 283.5 L 70.5 33.5 Z"/></clipPath><clipPath id="cIOXkFQURmXH"><path fill="none" stroke="none" d="M 70.5 33.5 L 570.5 33.5 L 570.5 283.5 L 70.5 283.5 L 70.5 33.5 Z"/></clipPath><clipPath id="WDzPHQGazCcK"><path fill="none" stroke="none" d="M 70.5 33.5 L 570.5 33.5 L 570.5 283.5 L 70.5 283.5 L 70.5 33.5 Z"/></clipPath><clipPath id="UyaLewLgAtbk"><path fill="none" stroke="none" d="M 70.5 33.5 L 570.5 33.5 L 570.5 283.5 L 70.5 283.5 L 70.5 33.5 Z"/></clipPath><clipPath id="ngOhnJlrxuZy"><path fill="none" stroke="none" d="M 70.5 33.5 L 570.5 33.5 L 570.5 283.5 L 70.5 283.5 L 70.5 33.5 Z"/></clipPath><clipPath id="ndfQdAWyVeed"><path fill="none" stroke="none" d="M 70.5 33.5 L 570.5 33.5 L 570.5 283.5 L 70.5 283.5 L 70.5 33.5 Z"/></clipPath><clipPath id="ZswtlcgbEwVs"><path fill="none" stroke="none" d="M 70.5 33.5 L 570.5 33.5 L 570.5 283.5 L 70.5 283.5 L 70.5 33.5 Z"/></clipPath><clipPath id="DaJZTTJkLfKT"><path fill="none" stroke="none" d="M 70.5 33.5 L 570.5 33.5 L 570.5 283.5 L 70.5 283.5 L 70.5 33.5 Z"/></clipPath><clipPath id="nfbprylrmKmn"><path fill="none" stroke="none" d="M 70.5 33.5 L 570.5 33.5 L 570.5 283.5 L 70.5 283.5 L 70.5 33.5 Z"/></clipPath><clipPath id="AqBttvQcoixx"><path fill="none" stroke="none" d="M 70.5 33.5 L 570.5 33.5 L 570.5 283.5 L 70.5 283.5 L 70.5 33.5 Z"/></clipPath><clipPath id="SrxAleaocVup"><path fill="none" stroke="none" d="M 70.5 33.5 L 570.5 33.5 L 570.5 283.5 L 70.5 283.5 L 70.5 33.5 Z"/></clipPath><clipPath id="tZGKMgwTtXIU"><path fill="none" stroke="none" d="M 70.5 33.5 L 570.5 33.5 L 570.5 283.5 L 70.5 283.5 L 70.5 33.5 Z"/></clipPath><clipPath id="scNXAfrkDtLp"><path fill="none" stroke="none" d="M 70.5 33.5 L 570.5 33.5 L 570.5 283.5 L 70.5 283.5 L 70.5 33.5 Z"/></clipPath><clipPath id="LfxNmBzHUaCn"><path fill="none" stroke="none" d="M 70.5 33.5 L 570.5 33.5 L 570.5 283.5 L 70.5 283.5 L 70.5 33.5 Z"/></clipPath><clipPath id="JwkyQlGeElnB"><path fill="none" stroke="none" d="M 70.5 33.5 L 570.5 33.5 L 570.5 283.5 L 70.5 283.5 L 70.5 33.5 Z"/></clipPath><clipPath id="fhMMkpMxNxFu"><path fill="none" stroke="none" d="M 70.5 33.5 L 570.5 33.5 L 570.5 283.5 L 70.5 283.5 L 70.5 33.5 Z"/></clipPath><clipPath id="whlzWhKzbMnQ"><path fill="none" stroke="none" d="M 70.5 33.5 L 570.5 33.5 L 570.5 283.5 L 70.5 283.5 L 70.5 33.5 Z"/></clipPath><clipPath id="mvNNawtNWbta"><path fill="none" stroke="none" d="M 70.5 33.5 L 570.5 33.5 L 570.5 283.5 L 70.5 283.5 L 70.5 33.5 Z"/></clipPath><clipPath id="ifDMFPMrNzCZ"><path fill="none" stroke="none" d="M 70.5 33.5 L 570.5 33.5 L 570.5 283.5 L 70.5 283.5 L 70.5 33.5 Z"/></clipPath><clipPath id="xbxDJWHgQVfP"><path fill="none" stroke="none" d="M 70.5 33.5 L 570.5 33.5 L 570.5 283.5 L 70.5 283.5 L 70.5 33.5 Z"/></clipPath><clipPath id="OclwOtmwntbQ"><path fill="none" stroke="none" d="M 70.5 33.5 L 570.5 33.5 L 570.5 283.5 L 70.5 283.5 L 70.5 33.5 Z"/></clipPath><clipPath id="DiInEnuVspGF"><path fill="none" stroke="none" d="M 70.5 33.5 L 570.5 33.5 L 570.5 283.5 L 70.5 283.5 L 70.5 33.5 Z"/></clipPath><clipPath id="oQzgwZQGEqdF"><path fill="none" stroke="none" d="M 70.5 33.5 L 570.5 33.5 L 570.5 283.5 L 70.5 283.5 L 70.5 33.5 Z"/></clipPath><clipPath id="JolkNvNeTQeR"><path fill="none" stroke="none" d="M 70.5 33.5 L 570.5 33.5 L 570.5 283.5 L 70.5 283.5 L 70.5 33.5 Z"/></clipPath><clipPath id="JvxoLPsTRxGQ"><path fill="none" stroke="none" d="M 70.5 33.5 L 570.5 33.5 L 570.5 283.5 L 70.5 283.5 L 70.5 33.5 Z"/></clipPath></defs><path fill="none" stroke="#e5e5e5" paint-order="fill" d="M 70.5 33.5 L 570.5 33.5 L 570.5 283.5 L 70.5 283.5 L 70.5 33.5 Z" stroke-linejoin="bevel" stroke-miterlimit="10"/><path fill="none" stroke="#30a2da" paint-order="fill" d="M 70.5 228.56253051757812 L 80.5 222.5626983642578 L 90.5 220.97274780273438 L 100.5 216.83639526367188 L 110.5 241.8475799560547 L 120.5 240.37237548828125 L 130.5 215.29150390625 L 140.5 214.4468231201172 L 150.5 223.72604370117188 L 160.5 216.09046936035156 L 170.5 201.32501220703125 L 180.5 200.9176483154297 L 190.5 205.77980041503906 L 200.5 185.10531616210938 L 210.5 182.72067260742188 L 220.5 202.3353271484375 L 230.5 195.41224670410156 L 240.5 182.05445861816406 L 250.5 187.11880493164062 L 260.5 170.4993896484375 L 270.5 162.70509338378906 L 280.5 182.3388671875 L 290.5 173.59576416015625 L 300.5 153.48153686523438 L 310.5 169.91590881347656 L 320.5 156.13824462890625 L 330.5 180.9147186279297 L 340.5 181.4248504638672 L 350.5 152.3536834716797 L 360.5 138.23016357421875 L 370.5 142.07318115234375 L 380.5 125.0335922241211 L 390.5 119.8393325805664 L 400.5 118.8293228149414 L 410.5 119.3095703125 L 420.5 121.62250518798828 L 430.5 117.96725463867188 L 440.5 122.58737182617188 L 450.5 141.5394287109375 L 460.5 119.95111083984375 L 470.5 99.56244659423828 L 480.5 92.34412384033203 L 490.5 106.97142791748047 L 500.5 102.6501235961914 L 510.5 96.77561950683594 L 520.5 97.22151184082031 L 530.5 92.74193572998047 L 540.5 105.12798309326172 L 550.5 106.90924835205078 L 560.5 105.0040512084961" stroke-linejoin="bevel" stroke-miterlimit="10" stroke-width="0.5" clip-path="url(#IZlqnOnCPFzw)"/><path fill="none" stroke="#fc4f30" paint-order="fill" d="M 270.5 156.94781494140625 L 280.5 180.05770874023438 L 290.5 184.1201629638672 L 300.5 175.54164123535156 L 310.5 169.75209045410156 L 320.5 178.12152099609375 L 330.5 189.12893676757812 L 340.5 191.85325622558594 L 350.5 186.5912628173828 L 360.5 183.86647033691406 L 370.5 192.76858520507812 L 380.5 184.066650390625 L 390.5 170.28639221191406 L 400.5 185.0675811767578 L 410.5 179.7665252685547 L 420.5 179.47377014160156 L 430.5 201.97276306152344 L 440.5 195.63497924804688 L 450.5 178.8509979248047 L 460.5 182.79409790039062 L 470.5 171.3958740234375 L 480.5 169.73773193359375 L 490.5 179.4718017578125 L 500.5 180.101806640625 L 510.5 170.43186950683594 L 520.5 167.1259765625 L 530.5 166.131103515625 L 540.5 194.7673797607422 L 550.5 185.12342834472656 L 560.5 184.42308044433594" stroke-linejoin="bevel" stroke-miterlimit="10" stroke-width="0.5" clip-path="url(#cIOXkFQURmXH)"/><path fill="none" stroke="#30a2da" paint-order="fill" d="M 70.5 230.0858154296875 L 80.5 225.0753936767578 L 90.5 215.95172119140625 L 100.5 215.60227966308594 L 110.5 212.31309509277344 L 120.5 217.32974243164062 L 130.5 216.628662109375 L 140.5 212.97193908691406 L 150.5 210.8322296142578 L 160.5 224.66781616210938 L 170.5 208.31260681152344 L 180.5 206.69854736328125 L 190.5 199.92306518554688 L 200.5 201.70054626464844 L 210.5 193.20938110351562 L 220.5 174.12669372558594 L 230.5 169.7788848876953 L 240.5 199.04647827148438 L 250.5 198.686767578125 L 260.5 186.1434783935547 L 270.5 166.22557067871094 L 280.5 182.56729125976562 L 290.5 177.4498291015625 L 300.5 166.4538116455078 L 310.5 175.91917419433594 L 320.5 173.8760223388672 L 330.5 169.43116760253906 L 340.5 157.64158630371094 L 350.5 159.04049682617188 L 360.5 159.8253631591797 L 370.5 150.807861328125 L 380.5 167.52105712890625 L 390.5 165.47459411621094 L 400.5 147.1956787109375 L 410.5 132.60093688964844 L 420.5 121.23197174072266 L 430.5 118.32349395751953 L 440.5 123.19200897216797 L 450.5 120.9171371459961 L 460.5 117.29237365722656 L 470.5 128.42144012451172 L 480.5 98.26419067382812 L 490.5 107.37000274658203 L 500.5 121.57445526123047 L 510.5 96.73257446289062 L 520.5 97.24665832519531 L 530.5 94.88430786132812 L 540.5 95.98003387451172 L 550.5 110.77631378173828 L 560.5 103.31455993652344" stroke-linejoin="bevel" stroke-miterlimit="10" stroke-width="0.5" clip-path="url(#WDzPHQGazCcK)"/><path fill="none" stroke="#fc4f30" paint-order="fill" d="M 270.5 165.28392028808594 L 280.5 184.2058868408203 L 290.5 173.947509765625 L 300.5 172.17559814453125 L 310.5 186.2452392578125 L 320.5 176.3730010986328 L 330.5 172.0800323486328 L 340.5 185.8684539794922 L 350.5 188.73193359375 L 360.5 190.17047119140625 L 370.5 180.33876037597656 L 380.5 184.41644287109375 L 390.5 176.0582275390625 L 400.5 184.85923767089844 L 410.5 170.47555541992188 L 420.5 168.62522888183594 L 430.5 181.8057403564453 L 440.5 181.66952514648438 L 450.5 196.3320770263672 L 460.5 199.36610412597656 L 470.5 189.7986297607422 L 480.5 211.2309112548828 L 490.5 200.33990478515625 L 500.5 177.08279418945312 L 510.5 172.30538940429688 L 520.5 172.0163116455078 L 530.5 191.33267211914062 L 540.5 186.35986328125 L 550.5 179.78111267089844 L 560.5 202.69972229003906" stroke-linejoin="bevel" stroke-miterlimit="10" stroke-width="0.5" clip-path="url(#UyaLewLgAtbk)"/><path fill="none" stroke="#30a2da" paint-order="fill" d="M 70.5 224.7941436767578 L 80.5 221.9652862548828 L 90.5 218.540771484375 L 100.5 215.61534118652344 L 110.5 215.77711486816406 L 120.5 210.1553955078125 L 130.5 218.2353973388672 L 140.5 201.96144104003906 L 150.5 204.57586669921875 L 160.5 207.30276489257812 L 170.5 207.49256896972656 L 180.5 206.68783569335938 L 190.5 192.96546936035156 L 200.5 191.72886657714844 L 210.5 201.80770874023438 L 220.5 202.823974609375 L 230.5 175.68797302246094 L 240.5 178.65167236328125 L 250.5 192.31321716308594 L 260.5 181.5252227783203 L 270.5 186.3931884765625 L 280.5 173.72457885742188 L 290.5 149.3470458984375 L 300.5 140.55809020996094 L 310.5 138.46356201171875 L 320.5 163.262939453125 L 330.5 174.27638244628906 L 340.5 147.4709930419922 L 350.5 138.3795928955078 L 360.5 146.509521484375 L 370.5 134.31985473632812 L 380.5 145.88589477539062 L 390.5 118.48065185546875 L 400.5 116.10782623291016 L 410.5 143.31040954589844 L 420.5 121.98536682128906 L 430.5 104.16019439697266 L 440.5 104.69647979736328 L 450.5 123.21951293945312 L 460.5 109.72599029541016 L 470.5 97.53430938720703 L 480.5 98.86373138427734 L 490.5 96.50027465820312 L 500.5 99.86642456054688 L 510.5 94.10840606689453 L 520.5 91.01871490478516 L 530.5 109.354736328125 L 540.5 94.52074432373047 L 550.5 81.33755493164062 L 560.5 98.07678985595703" stroke-linejoin="bevel" stroke-miterlimit="10" stroke-width="0.5" clip-path="url(#ngOhnJlrxuZy)"/><path fill="none" stroke="#fc4f30" paint-order="fill" d="M 270.5 190.1915740966797 L 280.5 179.0888671875 L 290.5 182.7908477783203 L 300.5 187.0126190185547 L 310.5 159.43429565429688 L 320.5 158.41590881347656 L 330.5 164.25543212890625 L 340.5 164.88262939453125 L 350.5 191.50486755371094 L 360.5 181.83407592773438 L 370.5 168.2084197998047 L 380.5 181.47462463378906 L 390.5 182.7989959716797 L 400.5 193.47418212890625 L 410.5 198.52932739257812 L 420.5 188.62661743164062 L 430.5 192.3114013671875 L 440.5 191.00628662109375 L 450.5 181.85043334960938 L 460.5 187.41786193847656 L 470.5 193.95217895507812 L 480.5 183.1864776611328 L 490.5 196.03472900390625 L 500.5 207.37530517578125 L 510.5 210.73614501953125 L 520.5 197.89736938476562 L 530.5 189.1002197265625 L 540.5 208.6100616455078 L 550.5 192.40931701660156 L 560.5 172.91802978515625" stroke-linejoin="bevel" stroke-miterlimit="10" stroke-width="0.5" clip-path="url(#ndfQdAWyVeed)"/><path fill="none" stroke="#30a2da" paint-order="fill" d="M 70.5 228.6193389892578 L 80.5 212.80015563964844 L 90.5 222.2335205078125 L 100.5 244.5054168701172 L 110.5 228.91537475585938 L 120.5 210.6829376220703 L 130.5 215.20973205566406 L 140.5 220.36924743652344 L 150.5 208.03750610351562 L 160.5 208.12225341796875 L 170.5 212.58753967285156 L 180.5 212.45831298828125 L 190.5 194.78538513183594 L 200.5 186.2991943359375 L 210.5 194.08168029785156 L 220.5 176.391357421875 L 230.5 184.8944549560547 L 240.5 163.9521484375 L 250.5 161.63157653808594 L 260.5 179.21514892578125 L 270.5 168.88404846191406 L 280.5 173.75140380859375 L 290.5 180.7086181640625 L 300.5 182.56959533691406 L 310.5 181.36669921875 L 320.5 184.36447143554688 L 330.5 159.87200927734375 L 340.5 151.86378479003906 L 350.5 171.7408905029297 L 360.5 164.3621368408203 L 370.5 141.8961944580078 L 380.5 157.45867919921875 L 390.5 152.84690856933594 L 400.5 119.13545989990234 L 410.5 133.41270446777344 L 420.5 135.63162231445312 L 430.5 139.01571655273438 L 440.5 119.93833923339844 L 450.5 108.96376037597656 L 460.5 126.60790252685547 L 470.5 111.52574157714844 L 480.5 109.88871765136719 L 490.5 102.3432846069336 L 500.5 110.8637924194336 L 510.5 131.3365020751953 L 520.5 112.01073455810547 L 530.5 103.65339660644531 L 540.5 96.69380950927734 L 550.5 91.67062377929688 L 560.5 80.44020080566406" stroke-linejoin="bevel" stroke-miterlimit="10" stroke-width="0.5" clip-path="url(#ZswtlcgbEwVs)"/><path fill="none" stroke="#fc4f30" paint-order="fill" d="M 270.5 168.1162567138672 L 280.5 181.74195861816406 L 290.5 192.08966064453125 L 300.5 205.9851837158203 L 310.5 181.7874298095703 L 320.5 183.86585998535156 L 330.5 188.7017364501953 L 340.5 168.94082641601562 L 350.5 172.67697143554688 L 360.5 198.595947265625 L 370.5 191.29412841796875 L 380.5 177.8504638671875 L 390.5 189.9571990966797 L 400.5 184.27444458007812 L 410.5 178.67343139648438 L 420.5 176.80050659179688 L 430.5 198.8903045654297 L 440.5 189.2720184326172 L 450.5 173.7147979736328 L 460.5 207.7852783203125 L 470.5 226.63427734375 L 480.5 224.2218780517578 L 490.5 195.0777130126953 L 500.5 164.7296905517578 L 510.5 180.9509735107422 L 520.5 196.4008026123047 L 530.5 179.77906799316406 L 540.5 174.78408813476562 L 550.5 174.29681396484375 L 560.5 172.3683624267578" stroke-linejoin="bevel" stroke-miterlimit="10" stroke-width="0.5" clip-path="url(#DaJZTTJkLfKT)"/><path fill="none" stroke="#30a2da" paint-order="fill" d="M 70.5 231.44566345214844 L 80.5 212.325927734375 L 90.5 210.74839782714844 L 100.5 229.91127014160156 L 110.5 223.6759796142578 L 120.5 233.91285705566406 L 130.5 227.6781463623047 L 140.5 222.92138671875 L 150.5 217.5176239013672 L 160.5 217.94456481933594 L 170.5 187.71690368652344 L 180.5 197.298828125 L 190.5 207.336181640625 L 200.5 189.24636840820312 L 210.5 183.4920654296875 L 220.5 202.7869110107422 L 230.5 188.46487426757812 L 240.5 172.8182373046875 L 250.5 184.6464385986328 L 260.5 178.29298400878906 L 270.5 156.0406036376953 L 280.5 171.12985229492188 L 290.5 197.5068817138672 L 300.5 178.08909606933594 L 310.5 148.27748107910156 L 320.5 142.33973693847656 L 330.5 160.3617706298828 L 340.5 160.44920349121094 L 350.5 133.64828491210938 L 360.5 144.3977813720703 L 370.5 143.04896545410156 L 380.5 160.86373901367188 L 390.5 164.38609313964844 L 400.5 136.39146423339844 L 410.5 119.61856842041016 L 420.5 117.56961059570312 L 430.5 121.69681549072266 L 440.5 121.51087188720703 L 450.5 118.76063537597656 L 460.5 121.88456726074219 L 470.5 113.87553405761719 L 480.5 122.78557586669922 L 490.5 116.40592193603516 L 500.5 105.37699890136719 L 510.5 119.70476531982422 L 520.5 100.79393005371094 L 530.5 94.93450164794922 L 540.5 102.25102233886719 L 550.5 79.05604553222656 L 560.5 81.1413803100586" stroke-linejoin="bevel" stroke-miterlimit="10" stroke-width="0.5" clip-path="url(#nfbprylrmKmn)"/><path fill="none" stroke="#fc4f30" paint-order="fill" d="M 270.5 160.85467529296875 L 280.5 165.1526641845703 L 290.5 175.51974487304688 L 300.5 167.60426330566406 L 310.5 168.88433837890625 L 320.5 194.02330017089844 L 330.5 186.6295623779297 L 340.5 174.35546875 L 350.5 205.25035095214844 L 360.5 184.45672607421875 L 370.5 171.64601135253906 L 380.5 185.80096435546875 L 390.5 180.55743408203125 L 400.5 197.61575317382812 L 410.5 180.74832153320312 L 420.5 169.01727294921875 L 430.5 158.56932067871094 L 440.5 169.8301239013672 L 450.5 206.91793823242188 L 460.5 200.7051544189453 L 470.5 191.42794799804688 L 480.5 190.3726043701172 L 490.5 176.9204559326172 L 500.5 176.0167999267578 L 510.5 181.16163635253906 L 520.5 176.57737731933594 L 530.5 192.79425048828125 L 540.5 184.6947784423828 L 550.5 179.8343505859375 L 560.5 195.1536102294922" stroke-linejoin="bevel" stroke-miterlimit="10" stroke-width="0.5" clip-path="url(#AqBttvQcoixx)"/><path fill="none" stroke="#30a2da" paint-order="fill" d="M 70.5 223.3755340576172 L 80.5 203.47328186035156 L 90.5 218.5260009765625 L 100.5 225.6480255126953 L 110.5 226.53347778320312 L 120.5 225.67315673828125 L 130.5 219.6241455078125 L 140.5 222.19204711914062 L 150.5 203.9210205078125 L 160.5 226.71461486816406 L 170.5 217.8694305419922 L 180.5 200.5011444091797 L 190.5 191.4917449951172 L 200.5 213.7771759033203 L 210.5 225.54132080078125 L 220.5 215.29959106445312 L 230.5 203.9639892578125 L 240.5 197.0896453857422 L 250.5 224.25669860839844 L 260.5 209.32183837890625 L 270.5 179.85836791992188 L 280.5 170.91546630859375 L 290.5 167.84193420410156 L 300.5 191.4203643798828 L 310.5 177.79544067382812 L 320.5 168.22592163085938 L 330.5 186.2775421142578 L 340.5 154.71644592285156 L 350.5 143.7400360107422 L 360.5 158.4774169921875 L 370.5 148.75033569335938 L 380.5 136.3444061279297 L 390.5 141.6722869873047 L 400.5 135.8977508544922 L 410.5 137.31666564941406 L 420.5 164.13589477539062 L 430.5 152.5657196044922 L 440.5 143.66392517089844 L 450.5 127.85982513427734 L 460.5 128.1651611328125 L 470.5 114.13007354736328 L 480.5 113.07275390625 L 490.5 106.66651916503906 L 500.5 107.0456314086914 L 510.5 102.99415588378906 L 520.5 110.37198638916016 L 530.5 109.24951171875 L 540.5 104.85798645019531 L 550.5 109.61802673339844 L 560.5 112.20655059814453" stroke-linejoin="bevel" stroke-miterlimit="10" stroke-width="0.5" clip-path="url(#SrxAleaocVup)"/><path fill="none" stroke="#fc4f30" paint-order="fill" d="M 270.5 146.3633575439453 L 280.5 180.13392639160156 L 290.5 164.50613403320312 L 300.5 168.59494018554688 L 310.5 183.49929809570312 L 320.5 173.45851135253906 L 330.5 198.57711791992188 L 340.5 205.56259155273438 L 350.5 194.0819549560547 L 360.5 184.01979064941406 L 370.5 192.0247039794922 L 380.5 183.12940979003906 L 390.5 161.86061096191406 L 400.5 172.13815307617188 L 410.5 165.00186157226562 L 420.5 167.21263122558594 L 430.5 170.99049377441406 L 440.5 188.17506408691406 L 450.5 176.09762573242188 L 460.5 188.06558227539062 L 470.5 209.69110107421875 L 480.5 193.7248992919922 L 490.5 186.80615234375 L 500.5 195.7818145751953 L 510.5 197.27191162109375 L 520.5 191.62464904785156 L 530.5 170.02520751953125 L 540.5 184.59022521972656 L 550.5 192.9351348876953 L 560.5 182.57241821289062" stroke-linejoin="bevel" stroke-miterlimit="10" stroke-width="0.5" clip-path="url(#tZGKMgwTtXIU)"/><path fill="none" stroke="#30a2da" paint-order="fill" d="M 70.5 226.54673767089844 L 80.5 194.84132385253906 L 90.5 204.3640899658203 L 100.5 225.2309112548828 L 110.5 215.6547088623047 L 120.5 205.4130401611328 L 130.5 220.53543090820312 L 140.5 225.77760314941406 L 150.5 214.97959899902344 L 160.5 206.0952911376953 L 170.5 198.45852661132812 L 180.5 206.9973907470703 L 190.5 194.72950744628906 L 200.5 182.2577667236328 L 210.5 182.9597625732422 L 220.5 186.7748260498047 L 230.5 173.3926239013672 L 240.5 181.84202575683594 L 250.5 177.50839233398438 L 260.5 170.53848266601562 L 270.5 186.0498046875 L 280.5 172.43389892578125 L 290.5 180.19447326660156 L 300.5 167.95936584472656 L 310.5 176.8738250732422 L 320.5 160.45706176757812 L 330.5 149.13583374023438 L 340.5 154.4875946044922 L 350.5 149.29690551757812 L 360.5 131.95437622070312 L 370.5 141.57521057128906 L 380.5 172.44686889648438 L 390.5 151.65406799316406 L 400.5 139.75453186035156 L 410.5 122.9229965209961 L 420.5 123.99867248535156 L 430.5 126.65321350097656 L 440.5 118.04948425292969 L 450.5 137.11512756347656 L 460.5 131.66969299316406 L 470.5 115.4071044921875 L 480.5 115.474365234375 L 490.5 107.13211822509766 L 500.5 95.45531463623047 L 510.5 93.91596984863281 L 520.5 115.33837890625 L 530.5 108.16639709472656 L 540.5 107.62339782714844 L 550.5 100.82969665527344 L 560.5 84.60002136230469" stroke-linejoin="bevel" stroke-miterlimit="10" stroke-width="0.5" clip-path="url(#scNXAfrkDtLp)"/><path fill="none" stroke="#fc4f30" paint-order="fill" d="M 270.5 166.60357666015625 L 280.5 201.89834594726562 L 290.5 199.22203063964844 L 300.5 190.2335968017578 L 310.5 184.98098754882812 L 320.5 193.42364501953125 L 330.5 175.9291534423828 L 340.5 177.10740661621094 L 350.5 207.78636169433594 L 360.5 203.4124298095703 L 370.5 187.4429168701172 L 380.5 169.52821350097656 L 390.5 180.37318420410156 L 400.5 180.1766357421875 L 410.5 165.87857055664062 L 420.5 157.58840942382812 L 430.5 169.52178955078125 L 440.5 186.28915405273438 L 450.5 200.15335083007812 L 460.5 198.3552703857422 L 470.5 194.40769958496094 L 480.5 178.99974060058594 L 490.5 179.44729614257812 L 500.5 179.1869659423828 L 510.5 177.38592529296875 L 520.5 172.9075164794922 L 530.5 197.9959259033203 L 540.5 191.96075439453125 L 550.5 177.42027282714844 L 560.5 168.6131591796875" stroke-linejoin="bevel" stroke-miterlimit="10" stroke-width="0.5" clip-path="url(#LfxNmBzHUaCn)"/><path fill="none" stroke="#30a2da" paint-order="fill" d="M 70.5 218.6104736328125 L 80.5 215.13775634765625 L 90.5 216.56130981445312 L 100.5 219.0533905029297 L 110.5 215.66714477539062 L 120.5 196.50161743164062 L 130.5 213.72518920898438 L 140.5 206.77716064453125 L 150.5 216.52838134765625 L 160.5 221.3568572998047 L 170.5 213.60137939453125 L 180.5 212.31065368652344 M 200.5 189.14744567871094 L 210.5 187.90823364257812 L 220.5 173.64382934570312 L 230.5 163.67457580566406 L 240.5 181.26583862304688 L 250.5 192.99200439453125 L 260.5 190.0807647705078 L 270.5 179.83285522460938 L 280.5 166.66554260253906 L 290.5 178.22756958007812 L 300.5 169.12466430664062 L 310.5 168.07408142089844 L 320.5 172.9417724609375 L 330.5 149.17393493652344 L 340.5 144.3668212890625 L 350.5 140.28395080566406 L 360.5 146.4678955078125 L 370.5 151.8998565673828 L 380.5 130.79893493652344 L 390.5 119.48236083984375 L 400.5 140.4270477294922 L 410.5 134.1387481689453 L 420.5 111.88688659667969 L 430.5 111.29854583740234 L 440.5 112.52884674072266 L 450.5 118.88561248779297 L 460.5 118.51034545898438 L 470.5 116.317626953125 L 480.5 131.01773071289062 L 490.5 119.33722686767578 L 500.5 114.77381134033203 L 510.5 123.13934326171875 L 520.5 101.32154846191406 L 530.5 104.258056640625 L 540.5 130.84815979003906 L 550.5 128.0656509399414 L 560.5 105.1465072631836" stroke-linejoin="bevel" stroke-miterlimit="10" stroke-width="0.5" clip-path="url(#JwkyQlGeElnB)"/><path fill="none" stroke="#fc4f30" paint-order="fill" d="M 270.5 176.48545837402344 L 280.5 190.43438720703125 L 290.5 172.2904052734375 L 300.5 162.33758544921875 L 310.5 153.5502166748047 L 320.5 172.72108459472656 L 330.5 176.0172882080078 L 340.5 175.50421142578125 L 350.5 172.96563720703125 L 360.5 195.7704620361328 L 370.5 207.34825134277344 L 380.5 191.18031311035156 L 390.5 176.155029296875 L 400.5 192.04209899902344 L 410.5 198.867431640625 L 420.5 183.2317352294922 L 430.5 172.4772186279297 L 440.5 190.51425170898438 L 450.5 185.23428344726562 L 460.5 177.4613037109375 L 470.5 161.48135375976562 L 480.5 175.95606994628906 L 490.5 201.29388427734375 L 500.5 181.47137451171875 L 510.5 175.0375518798828 L 520.5 185.504638671875 L 530.5 194.76829528808594 L 540.5 182.07521057128906 L 550.5 192.7152862548828 L 560.5 188.61903381347656" stroke-linejoin="bevel" stroke-miterlimit="10" stroke-width="0.5" clip-path="url(#fhMMkpMxNxFu)"/><path fill="none" stroke="#30a2da" paint-order="fill" d="M 70.5 223.0215606689453 L 80.5 213.08184814453125 L 90.5 220.11729431152344 L 100.5 211.97439575195312 L 110.5 204.89979553222656 L 120.5 227.4633026123047 L 130.5 204.1336212158203 L 140.5 197.6304168701172 L 150.5 220.94081115722656 L 160.5 214.36148071289062 L 170.5 194.5104522705078 L 180.5 188.5562286376953 L 190.5 191.6673583984375 L 200.5 203.03060913085938 L 210.5 183.06024169921875 L 220.5 191.3000946044922 L 230.5 193.8397216796875 L 240.5 187.1061553955078 L 250.5 184.92257690429688 L 260.5 175.45791625976562 L 270.5 168.6992950439453 L 280.5 166.88720703125 L 290.5 176.74017333984375 L 300.5 171.01759338378906 L 310.5 155.28253173828125 L 320.5 161.5968475341797 L 330.5 175.73448181152344 L 340.5 160.91868591308594 L 350.5 164.61941528320312 L 360.5 164.92642211914062 L 370.5 157.32933044433594 L 380.5 157.7032012939453 L 390.5 149.83151245117188 L 400.5 153.977783203125 L 410.5 146.8703155517578 L 420.5 118.33209228515625 L 430.5 125.84142303466797 L 440.5 123.4020767211914 L 450.5 114.08599090576172 L 460.5 109.13236236572266 L 470.5 95.73575592041016 L 480.5 104.92271423339844 L 490.5 106.64888000488281 L 500.5 118.12857818603516 L 510.5 100.87551879882812 L 520.5 107.80315399169922 L 530.5 91.039794921875 L 540.5 97.24723052978516 L 550.5 96.63774871826172 L 560.5 126.8521957397461" stroke-linejoin="bevel" stroke-miterlimit="10" stroke-width="0.5" clip-path="url(#whlzWhKzbMnQ)"/><path fill="none" stroke="#fc4f30" paint-order="fill" d="M 270.5 175.03260803222656 L 280.5 187.7576904296875 L 290.5 189.51956176757812 L 300.5 205.11572265625 L 310.5 198.57838439941406 L 320.5 174.74349975585938 L 330.5 172.61532592773438 L 340.5 179.05279541015625 L 350.5 176.92877197265625 L 360.5 178.80596923828125 L 370.5 185.5078887939453 L 380.5 178.0472412109375 L 390.5 164.38250732421875 L 400.5 163.31549072265625 L 410.5 163.80397033691406 L 420.5 164.7938232421875 L 430.5 200.396728515625 L 440.5 193.2318115234375 L 450.5 189.5852813720703 L 460.5 185.71408081054688 L 470.5 188.55287170410156 L 480.5 165.48654174804688 L 490.5 177.076904296875 L 500.5 203.48831176757812 L 510.5 189.2776336669922 L 520.5 183.80213928222656 L 530.5 180.5726776123047 L 540.5 184.74769592285156 L 550.5 190.5945587158203 L 560.5 183.5618133544922" stroke-linejoin="bevel" stroke-miterlimit="10" stroke-width="0.5" clip-path="url(#mvNNawtNWbta)"/><path fill="none" stroke="#30a2da" paint-order="fill" d="M 70.5 221.14328002929688 L 80.5 211.1140594482422 L 90.5 215.26272583007812 L 100.5 248.72528076171875 L 110.5 246.9323272705078 L 120.5 226.1864013671875 L 130.5 220.20889282226562 L 140.5 196.63552856445312 L 150.5 211.37826538085938 L 160.5 195.7725372314453 L 170.5 198.7970428466797 L 180.5 204.30625915527344 L 190.5 196.19488525390625 L 200.5 197.08436584472656 L 210.5 193.6040496826172 L 220.5 189.3402099609375 L 230.5 190.99444580078125 L 240.5 192.12457275390625 L 250.5 183.18077087402344 L 260.5 194.02293395996094 L 270.5 186.3102569580078 L 280.5 171.3502197265625 L 290.5 168.41685485839844 L 300.5 154.2151336669922 L 310.5 168.6788787841797 L 320.5 143.25494384765625 L 330.5 137.80596923828125 L 340.5 153.8023223876953 L 350.5 144.026611328125 L 360.5 133.4191436767578 L 370.5 148.79441833496094 L 380.5 143.38983154296875 L 390.5 134.95455932617188 L 400.5 136.67564392089844 L 410.5 121.31448364257812 L 420.5 115.3570785522461 L 430.5 117.82783508300781 L 440.5 115.9632568359375 L 450.5 106.55970001220703 L 460.5 109.26142120361328 L 470.5 101.94047546386719 L 480.5 110.94116973876953 L 490.5 97.22126770019531 L 500.5 94.08113861083984 L 510.5 108.87306213378906 L 520.5 98.64897918701172 L 530.5 98.41343688964844 L 540.5 93.88060760498047 L 550.5 107.47711944580078 L 560.5 90.72073364257812" stroke-linejoin="bevel" stroke-miterlimit="10" stroke-width="0.5" clip-path="url(#ifDMFPMrNzCZ)"/><path fill="none" stroke="#fc4f30" paint-order="fill" d="M 270.5 152.79507446289062 L 280.5 166.22076416015625 L 290.5 175.47146606445312 L 300.5 183.642333984375 L 310.5 174.54315185546875 L 320.5 182.59915161132812 L 330.5 189.92230224609375 L 340.5 190.87640380859375 L 350.5 187.42391967773438 L 360.5 189.4294891357422 L 370.5 182.44818115234375 L 380.5 167.91656494140625 L 390.5 190.75851440429688 L 400.5 180.0956573486328 L 410.5 177.63446044921875 L 420.5 200.73118591308594 L 430.5 201.7431640625 L 440.5 185.96304321289062 L 450.5 187.80108642578125 L 460.5 194.71212768554688 L 470.5 187.8160858154297 L 480.5 193.25132751464844 L 490.5 176.7612762451172 L 500.5 194.91854858398438 L 510.5 203.8652801513672 L 520.5 171.24502563476562 L 530.5 181.7312469482422 L 540.5 179.32284545898438 L 550.5 191.8268280029297 L 560.5 208.2141571044922" stroke-linejoin="bevel" stroke-miterlimit="10" stroke-width="0.5" clip-path="url(#xbxDJWHgQVfP)"/><path fill="none" stroke="#30a2da" paint-order="fill" d="M 70.5 225.62051391601562 L 80.5 213.23777770996094 L 90.5 216.32786560058594 L 100.5 225.31027221679688 L 110.5 223.22166442871094 L 120.5 219.36907958984375 L 130.5 217.1270751953125 L 140.5 212.16835021972656 L 150.5 213.2437286376953 L 160.5 213.84286499023438 L 170.5 204.067138671875 L 180.5 203.67327880859375 L 190.5 197.20816040039062 L 200.5 193.93775939941406 L 210.5 192.83851623535156 L 220.5 191.48228454589844 L 230.5 184.0103759765625 L 240.5 183.59512329101562 L 250.5 188.72572326660156 L 260.5 183.5098114013672 L 270.5 174.09991455078125 L 280.5 173.1764373779297 L 290.5 175.00291442871094 L 300.5 167.48892211914062 L 310.5 166.06475830078125 L 320.5 162.6457977294922 L 330.5 164.2983856201172 L 340.5 156.7142333984375 L 350.5 149.71298217773438 L 360.5 148.85702514648438 L 370.5 146.04953002929688 L 380.5 149.74461364746094 L 390.5 141.8622283935547 L 400.5 134.4392547607422 L 410.5 131.08154296875 L 420.5 125.1751708984375 L 430.5 123.53501892089844 L 440.5 120.55326843261719 L 450.5 121.7906723022461 L 460.5 119.2200927734375 L 470.5 109.44505310058594 L 480.5 109.75750732421875 L 490.5 106.6596908569336 L 500.5 106.98162841796875 L 510.5 106.84558868408203 L 520.5 103.17755889892578 L 530.5 100.66960906982422 L 540.5 102.9030990600586 L 550.5 101.23780059814453 L 560.5 98.75029754638672" stroke-linejoin="bevel" stroke-miterlimit="10" stroke-width="2" clip-path="url(#OclwOtmwntbQ)"/><path fill="none" stroke="#fc4f30" paint-order="fill" d="M 270.5 165.867431640625 L 280.5 181.66921997070312 L 290.5 180.94775390625 L 300.5 181.8243408203125 L 310.5 176.12554931640625 L 320.5 178.77455139160156 L 330.5 181.38568115234375 L 340.5 181.40040588378906 L 350.5 188.39419555664062 L 360.5 189.0361785888672 L 370.5 185.9027862548828 L 380.5 180.34109497070312 L 390.5 177.31881713867188 L 400.5 183.30592346191406 L 410.5 177.9379425048828 L 420.5 175.61012268066406 L 430.5 184.86788940429688 L 440.5 187.15863037109375 L 450.5 187.65377807617188 L 460.5 192.23768615722656 L 470.5 191.51580810546875 L 480.5 188.6168212890625 L 490.5 186.92300415039062 L 500.5 186.0153350830078 L 510.5 185.84243774414062 L 520.5 181.5101776123047 L 530.5 184.42306518554688 L 540.5 187.1912841796875 L 550.5 185.69371032714844 L 560.5 185.91433715820312" stroke-linejoin="bevel" stroke-miterlimit="10" stroke-width="2" clip-path="url(#DiInEnuVspGF)"/><path fill="none" stroke="black" paint-order="fill" d="M 270.5 33.5 L 270.5 283.5" stroke-linejoin="bevel" stroke-miterlimit="10" stroke-width="3" stroke-dasharray="6" clip-path="url(#oQzgwZQGEqdF)"/><path fill="none" stroke="black" paint-order="fill" d="M 70.5 283.5 L 570.5 283.5" stroke-linejoin="bevel" stroke-miterlimit="10"/><path fill="none" stroke="black" paint-order="fill" d="M 120.5 289.5 L 120.5 281.5 M 220.5 289.5 L 220.5 281.5 M 320.5 289.5 L 320.5 281.5 M 420.5 289.5 L 420.5 281.5 M 520.5 289.5 L 520.5 281.5" stroke-linejoin="bevel" stroke-miterlimit="10"/><path fill="none" stroke="black" paint-order="fill" d="M 100.5 287.5 L 100.5 283.5 M 80.5 287.5 L 80.5 283.5 M 120.5 287.5 L 120.5 283.5 M 140.5 287.5 L 140.5 283.5 M 160.5 287.5 L 160.5 283.5 M 180.5 287.5 L 180.5 283.5 M 200.5 287.5 L 200.5 283.5 M 220.5 287.5 L 220.5 283.5 M 240.5 287.5 L 240.5 283.5 M 260.5 287.5 L 260.5 283.5 M 280.5 287.5 L 280.5 283.5 M 300.5 287.5 L 300.5 283.5 M 320.5 287.5 L 320.5 283.5 M 340.5 287.5 L 340.5 283.5 M 360.5 287.5 L 360.5 283.5 M 380.5 287.5 L 380.5 283.5 M 400.5 287.5 L 400.5 283.5 M 420.5 287.5 L 420.5 283.5 M 440.5 287.5 L 440.5 283.5 M 460.5 287.5 L 460.5 283.5 M 480.5 287.5 L 480.5 283.5 M 500.5 287.5 L 500.5 283.5 M 520.5 287.5 L 520.5 283.5 M 540.5 287.5 L 540.5 283.5 M 560.5 287.5 L 560.5 283.5" stroke-linejoin="bevel" stroke-miterlimit="10"/><text fill="#444444" stroke="none" font-family="helvetica" font-size="10pt" font-style="normal" font-weight="normal" text-decoration="normal" x="106.63333320617676" y="304" text-anchor="start" dominant-baseline="alphabetic" transform="matrix(1, 0, 0, 1, 0.5, 0.5)">2020</text><text fill="none" stroke="rgb(0,0,0)" font-family="helvetica" font-size="10pt" font-style="normal" font-weight="normal" text-decoration="normal" x="106.63333320617676" y="304" text-anchor="start" dominant-baseline="alphabetic" transform="matrix(1, 0, 0, 1, 0.5, 0.5)" stroke-opacity="0" stroke-linejoin="bevel" stroke-miterlimit="10">2020</text><text fill="#444444" stroke="none" font-family="helvetica" font-size="10pt" font-style="normal" font-weight="normal" text-decoration="normal" x="206.63333320617676" y="304" text-anchor="start" dominant-baseline="alphabetic" transform="matrix(1, 0, 0, 1, 0.5, 0.5)">2030</text><text fill="none" stroke="rgb(0,0,0)" font-family="helvetica" font-size="10pt" font-style="normal" font-weight="normal" text-decoration="normal" x="206.63333320617676" y="304" text-anchor="start" dominant-baseline="alphabetic" transform="matrix(1, 0, 0, 1, 0.5, 0.5)" stroke-opacity="0" stroke-linejoin="bevel" stroke-miterlimit="10">2030</text><text fill="#444444" stroke="none" font-family="helvetica" font-size="10pt" font-style="normal" font-weight="normal" text-decoration="normal" x="306.63333320617676" y="304" text-anchor="start" dominant-baseline="alphabetic" transform="matrix(1, 0, 0, 1, 0.5, 0.5)">2040</text><text fill="none" stroke="rgb(0,0,0)" font-family="helvetica" font-size="10pt" font-style="normal" font-weight="normal" text-decoration="normal" x="306.63333320617676" y="304" text-anchor="start" dominant-baseline="alphabetic" transform="matrix(1, 0, 0, 1, 0.5, 0.5)" stroke-opacity="0" stroke-linejoin="bevel" stroke-miterlimit="10">2040</text><text fill="#444444" stroke="none" font-family="helvetica" font-size="10pt" font-style="normal" font-weight="normal" text-decoration="normal" x="406.63333320617676" y="304" text-anchor="start" dominant-baseline="alphabetic" transform="matrix(1, 0, 0, 1, 0.5, 0.5)">2050</text><text fill="none" stroke="rgb(0,0,0)" font-family="helvetica" font-size="10pt" font-style="normal" font-weight="normal" text-decoration="normal" x="406.63333320617676" y="304" text-anchor="start" dominant-baseline="alphabetic" transform="matrix(1, 0, 0, 1, 0.5, 0.5)" stroke-opacity="0" stroke-linejoin="bevel" stroke-miterlimit="10">2050</text><text fill="#444444" stroke="none" font-family="helvetica" font-size="10pt" font-style="normal" font-weight="normal" text-decoration="normal" x="506.63333320617676" y="304" text-anchor="start" dominant-baseline="alphabetic" transform="matrix(1, 0, 0, 1, 0.5, 0.5)">2060</text><text fill="none" stroke="rgb(0,0,0)" font-family="helvetica" font-size="10pt" font-style="normal" font-weight="normal" text-decoration="normal" x="506.63333320617676" y="304" text-anchor="start" dominant-baseline="alphabetic" transform="matrix(1, 0, 0, 1, 0.5, 0.5)" stroke-opacity="0" stroke-linejoin="bevel" stroke-miterlimit="10">2060</text><text fill="#444444" stroke="none" font-family="helvetica" font-size="12pt" font-style="normal" font-weight="normal" text-decoration="normal" x="305.3166666030884" y="327" text-anchor="start" dominant-baseline="alphabetic" transform="matrix(1, 0, 0, 1, 0.5, 0.5)">Year</text><text fill="none" stroke="rgb(0,0,0)" font-family="helvetica" font-size="12pt" font-style="normal" font-weight="normal" text-decoration="normal" x="305.3166666030884" y="327" text-anchor="start" dominant-baseline="alphabetic" transform="matrix(1, 0, 0, 1, 0.5, 0.5)" stroke-opacity="0" stroke-linejoin="bevel" stroke-miterlimit="10">Year</text><path fill="none" stroke="black" paint-order="fill" d="M 70.5 283.5 L 70.5 33.5" stroke-linejoin="bevel" stroke-miterlimit="10"/><path fill="none" stroke="black" paint-order="fill" d="M 64.5 283.5 L 72.5 283.5 M 64.5 241.5 L 72.5 241.5 M 64.5 200.5 L 72.5 200.5 M 64.5 158.5 L 72.5 158.5 M 64.5 116.5 L 72.5 116.5 M 64.5 75.5 L 72.5 75.5 M 64.5 33.5 L 72.5 33.5" stroke-linejoin="bevel" stroke-miterlimit="10"/><path fill="none" stroke="black" paint-order="fill" d="M 66.5 283.5 L 70.5 283.5 M 66.5 275.5 L 70.5 275.5 M 66.5 266.5 L 70.5 266.5 M 66.5 258.5 L 70.5 258.5 M 66.5 250.5 L 70.5 250.5 M 66.5 241.5 L 70.5 241.5 M 66.5 233.5 L 70.5 233.5 M 66.5 225.5 L 70.5 225.5 M 66.5 216.5 L 70.5 216.5 M 66.5 208.5 L 70.5 208.5 M 66.5 200.5 L 70.5 200.5 M 66.5 191.5 L 70.5 191.5 M 66.5 183.5 L 70.5 183.5 M 66.5 175.5 L 70.5 175.5 M 66.5 166.5 L 70.5 166.5 M 66.5 158.5 L 70.5 158.5 M 66.5 150.5 L 70.5 150.5 M 66.5 141.5 L 70.5 141.5 M 66.5 133.5 L 70.5 133.5 M 66.5 125.5 L 70.5 125.5 M 66.5 116.5 L 70.5 116.5 M 66.5 108.5 L 70.5 108.5 M 66.5 100.5 L 70.5 100.5 M 66.5 91.5 L 70.5 91.5 M 66.5 83.5 L 70.5 83.5 M 66.5 75.5 L 70.5 75.5 M 66.5 66.5 L 70.5 66.5 M 66.5 58.5 L 70.5 58.5 M 66.5 50.5 L 70.5 50.5 M 66.5 41.5 L 70.5 41.5 M 66.5 33.5 L 70.5 33.5" stroke-linejoin="bevel" stroke-miterlimit="10"/><text fill="#444444" stroke="none" font-family="helvetica" font-size="10pt" font-style="normal" font-weight="normal" text-decoration="normal" x="45.63333320617676" y="288" text-anchor="start" dominant-baseline="alphabetic" transform="matrix(1, 0, 0, 1, 0.5, 0.5)">14</text><text fill="none" stroke="rgb(0,0,0)" font-family="helvetica" font-size="10pt" font-style="normal" font-weight="normal" text-decoration="normal" x="45.63333320617676" y="288" text-anchor="start" dominant-baseline="alphabetic" transform="matrix(1, 0, 0, 1, 0.5, 0.5)" stroke-opacity="0" stroke-linejoin="bevel" stroke-miterlimit="10">14</text><text fill="#444444" stroke="none" font-family="helvetica" font-size="10pt" font-style="normal" font-weight="normal" text-decoration="normal" x="35.60000038146973" y="246.3333282470703" text-anchor="start" dominant-baseline="alphabetic" transform="matrix(1, 0, 0, 1, 0.5, 0.5)">14.5</text><text fill="none" stroke="rgb(0,0,0)" font-family="helvetica" font-size="10pt" font-style="normal" font-weight="normal" text-decoration="normal" x="35.60000038146973" y="246.3333282470703" text-anchor="start" dominant-baseline="alphabetic" transform="matrix(1, 0, 0, 1, 0.5, 0.5)" stroke-opacity="0" stroke-linejoin="bevel" stroke-miterlimit="10">14.5</text><text fill="#444444" stroke="none" font-family="helvetica" font-size="10pt" font-style="normal" font-weight="normal" text-decoration="normal" x="45.63333320617676" y="204.6666717529297" text-anchor="start" dominant-baseline="alphabetic" transform="matrix(1, 0, 0, 1, 0.5, 0.5)">15</text><text fill="none" stroke="rgb(0,0,0)" font-family="helvetica" font-size="10pt" font-style="normal" font-weight="normal" text-decoration="normal" x="45.63333320617676" y="204.6666717529297" text-anchor="start" dominant-baseline="alphabetic" transform="matrix(1, 0, 0, 1, 0.5, 0.5)" stroke-opacity="0" stroke-linejoin="bevel" stroke-miterlimit="10">15</text><text fill="#444444" stroke="none" font-family="helvetica" font-size="10pt" font-style="normal" font-weight="normal" text-decoration="normal" x="35.60000038146973" y="163" text-anchor="start" dominant-baseline="alphabetic" transform="matrix(1, 0, 0, 1, 0.5, 0.5)">15.5</text><text fill="none" stroke="rgb(0,0,0)" font-family="helvetica" font-size="10pt" font-style="normal" font-weight="normal" text-decoration="normal" x="35.60000038146973" y="163" text-anchor="start" dominant-baseline="alphabetic" transform="matrix(1, 0, 0, 1, 0.5, 0.5)" stroke-opacity="0" stroke-linejoin="bevel" stroke-miterlimit="10">15.5</text><text fill="#444444" stroke="none" font-family="helvetica" font-size="10pt" font-style="normal" font-weight="normal" text-decoration="normal" x="45.63333320617676" y="121.33333587646484" text-anchor="start" dominant-baseline="alphabetic" transform="matrix(1, 0, 0, 1, 0.5, 0.5)">16</text><text fill="none" stroke="rgb(0,0,0)" font-family="helvetica" font-size="10pt" font-style="normal" font-weight="normal" text-decoration="normal" x="45.63333320617676" y="121.33333587646484" text-anchor="start" dominant-baseline="alphabetic" transform="matrix(1, 0, 0, 1, 0.5, 0.5)" stroke-opacity="0" stroke-linejoin="bevel" stroke-miterlimit="10">16</text><text fill="#444444" stroke="none" font-family="helvetica" font-size="10pt" font-style="normal" font-weight="normal" text-decoration="normal" x="35.60000038146973" y="79.66666412353516" text-anchor="start" dominant-baseline="alphabetic" transform="matrix(1, 0, 0, 1, 0.5, 0.5)">16.5</text><text fill="none" stroke="rgb(0,0,0)" font-family="helvetica" font-size="10pt" font-style="normal" font-weight="normal" text-decoration="normal" x="35.60000038146973" y="79.66666412353516" text-anchor="start" dominant-baseline="alphabetic" transform="matrix(1, 0, 0, 1, 0.5, 0.5)" stroke-opacity="0" stroke-linejoin="bevel" stroke-miterlimit="10">16.5</text><text fill="#444444" stroke="none" font-family="helvetica" font-size="10pt" font-style="normal" font-weight="normal" text-decoration="normal" x="45.63333320617676" y="38" text-anchor="start" dominant-baseline="alphabetic" transform="matrix(1, 0, 0, 1, 0.5, 0.5)">17</text><text fill="none" stroke="rgb(0,0,0)" font-family="helvetica" font-size="10pt" font-style="normal" font-weight="normal" text-decoration="normal" x="45.63333320617676" y="38" text-anchor="start" dominant-baseline="alphabetic" transform="matrix(1, 0, 0, 1, 0.5, 0.5)" stroke-opacity="0" stroke-linejoin="bevel" stroke-miterlimit="10">17</text><text fill="#444444" stroke="none" font-family="helvetica" font-size="12pt" font-style="normal" font-weight="normal" text-decoration="normal" x="-28.32499885559082" y="154" text-anchor="start" dominant-baseline="alphabetic" transform="matrix(6.123233995736766e-17, -1, 1, 6.123233995736766e-17, -129.89999961853027, 186.10000038146973)">Temperature (°C)</text><text fill="none" stroke="rgb(0,0,0)" font-family="helvetica" font-size="12pt" font-style="normal" font-weight="normal" text-decoration="normal" x="-28.32499885559082" y="154" text-anchor="start" dominant-baseline="alphabetic" transform="matrix(6.123233995736766e-17, -1, 1, 6.123233995736766e-17, -129.89999961853027, 186.10000038146973)" stroke-opacity="0" stroke-linejoin="bevel" stroke-miterlimit="10">Temperature (°C)</text><path fill="rgb(255,255,255)" stroke="rgb(229,229,229)" paint-order="fill" d="M 80.5 43.5 L 337.5 43.5 L 337.5 108.5 L 80.5 108.5 L 80.5 43.5 Z" fill-opacity="0.9490196078431372" clip-path="url(#JolkNvNeTQeR)" stroke-opacity="0.5019607843137255" stroke-linejoin="bevel" stroke-miterlimit="10"/><g clip-path="url(#JolkNvNeTQeR)"><g transform="matrix(1, 0, 0, 1, 91, 54)"><path fill="none" stroke="#30a2da" paint-order="fill" d="M 0.5 10.5 L 20.5 10.5" stroke-linejoin="bevel" stroke-miterlimit="10" stroke-width="2"/></g></g><g clip-path="url(#JolkNvNeTQeR)"><text fill="#444444" stroke="none" font-family="helvetica" font-size="13px" font-style="normal" font-weight="normal" text-decoration="normal" x="116" y="68.5" text-anchor="start" dominant-baseline="alphabetic" transform="matrix(1, 0, 0, 1, 0.5, 0.5)">Without climate intervention (SSP2-4.5)</text></g><g clip-path="url(#JolkNvNeTQeR)"><text fill="none" stroke="rgb(0,0,0)" font-family="helvetica" font-size="13px" font-style="normal" font-weight="normal" text-decoration="normal" x="116" y="68.5" text-anchor="start" dominant-baseline="alphabetic" transform="matrix(1, 0, 0, 1, 0.5, 0.5)" stroke-opacity="0" stroke-linejoin="bevel" stroke-miterlimit="10">Without climate intervention (SSP2-4.5)</text></g><g clip-path="url(#JolkNvNeTQeR)"><g transform="matrix(1, 0, 0, 1, 91, 77)"><path fill="none" stroke="#fc4f30" paint-order="fill" d="M 0.5 10.5 L 20.5 10.5" stroke-linejoin="bevel" stroke-miterlimit="10" stroke-width="2"/></g></g><g clip-path="url(#JolkNvNeTQeR)"><text fill="#444444" stroke="none" font-family="helvetica" font-size="13px" font-style="normal" font-weight="normal" text-decoration="normal" x="116" y="91.5" text-anchor="start" dominant-baseline="alphabetic" transform="matrix(1, 0, 0, 1, 0.5, 0.5)">With intervention (ARISE-SAI-1.5)</text></g><g clip-path="url(#JolkNvNeTQeR)"><text fill="none" stroke="rgb(0,0,0)" font-family="helvetica" font-size="13px" font-style="normal" font-weight="normal" text-decoration="normal" x="116" y="91.5" text-anchor="start" dominant-baseline="alphabetic" transform="matrix(1, 0, 0, 1, 0.5, 0.5)" stroke-opacity="0" stroke-linejoin="bevel" stroke-miterlimit="10">With intervention (ARISE-SAI-1.5)</text></g><text fill="black" stroke="none" font-family="helvetica" font-size="14pt" font-style="normal" font-weight="normal" text-decoration="normal" x="0" y="18" text-anchor="start" dominant-baseline="alphabetic" transform="matrix(1, 0, 0, 1, 5.5, 5.5)">B. Global mean temperature under climate change and intervention</text><text fill="none" stroke="rgb(0,0,0)" font-family="helvetica" font-size="14pt" font-style="normal" font-weight="normal" text-decoration="normal" x="0" y="18" text-anchor="start" dominant-baseline="alphabetic" transform="matrix(1, 0, 0, 1, 5.5, 5.5)" stroke-opacity="0" stroke-linejoin="bevel" stroke-miterlimit="10">B. Global mean temperature under climate change and intervention</text></svg>